G04 #@! TF.GenerationSoftware,KiCad,Pcbnew,7.0.1*
G04 #@! TF.CreationDate,2023-04-08T17:40:26-04:00*
G04 #@! TF.ProjectId,Converters,436f6e76-6572-4746-9572-732e6b696361,rev?*
G04 #@! TF.SameCoordinates,Original*
G04 #@! TF.FileFunction,Soldermask,Top*
G04 #@! TF.FilePolarity,Negative*
%FSLAX46Y46*%
G04 Gerber Fmt 4.6, Leading zero omitted, Abs format (unit mm)*
G04 Created by KiCad (PCBNEW 7.0.1) date 2023-04-08 17:40:26*
%MOMM*%
%LPD*%
G01*
G04 APERTURE LIST*
G04 Aperture macros list*
%AMRoundRect*
0 Rectangle with rounded corners*
0 $1 Rounding radius*
0 $2 $3 $4 $5 $6 $7 $8 $9 X,Y pos of 4 corners*
0 Add a 4 corners polygon primitive as box body*
4,1,4,$2,$3,$4,$5,$6,$7,$8,$9,$2,$3,0*
0 Add four circle primitives for the rounded corners*
1,1,$1+$1,$2,$3*
1,1,$1+$1,$4,$5*
1,1,$1+$1,$6,$7*
1,1,$1+$1,$8,$9*
0 Add four rect primitives between the rounded corners*
20,1,$1+$1,$2,$3,$4,$5,0*
20,1,$1+$1,$4,$5,$6,$7,0*
20,1,$1+$1,$6,$7,$8,$9,0*
20,1,$1+$1,$8,$9,$2,$3,0*%
G04 Aperture macros list end*
%ADD10C,6.400000*%
%ADD11R,1.600000X1.600000*%
%ADD12C,1.600000*%
%ADD13R,1.803400X1.803400*%
%ADD14C,1.803400*%
%ADD15R,2.000000X2.000000*%
%ADD16C,2.000000*%
%ADD17RoundRect,0.250001X0.462499X0.624999X-0.462499X0.624999X-0.462499X-0.624999X0.462499X-0.624999X0*%
%ADD18RoundRect,0.250000X0.350000X0.450000X-0.350000X0.450000X-0.350000X-0.450000X0.350000X-0.450000X0*%
%ADD19RoundRect,0.250000X-0.337500X-0.475000X0.337500X-0.475000X0.337500X0.475000X-0.337500X0.475000X0*%
%ADD20RoundRect,0.750000X-0.750000X-0.750000X0.750000X-0.750000X0.750000X0.750000X-0.750000X0.750000X0*%
%ADD21C,3.000000*%
G04 APERTURE END LIST*
D10*
X181102000Y-71120000D03*
D11*
X149606000Y-134351347D03*
D12*
X149606000Y-136851347D03*
D13*
X175567999Y-114474001D03*
D14*
X175567999Y-109474001D03*
X175567999Y-104474001D03*
D15*
X129540000Y-99314000D03*
D16*
X129540000Y-106934000D03*
X129540000Y-112014000D03*
X149860000Y-119634000D03*
X149860000Y-109474000D03*
X149860000Y-99314000D03*
D13*
X164846000Y-76507999D03*
D14*
X169846000Y-76507999D03*
D13*
X126746000Y-129286000D03*
D14*
X121746000Y-129286000D03*
X116746000Y-129286000D03*
D17*
X178525500Y-121158000D03*
X175550500Y-121158000D03*
D18*
X184134000Y-121158000D03*
X182134000Y-121158000D03*
D13*
X151514800Y-76504800D03*
D14*
X156514800Y-76504800D03*
D19*
X175456500Y-100484000D03*
X177531500Y-100484000D03*
D13*
X128310000Y-76507999D03*
D14*
X133310000Y-76507999D03*
D10*
X181102000Y-135595000D03*
D13*
X138430000Y-129286000D03*
D14*
X133430000Y-129286000D03*
D11*
X110656380Y-109474000D03*
D12*
X108156380Y-109474000D03*
D20*
X143510000Y-90424000D03*
X151130000Y-90424000D03*
D21*
X170100000Y-90424000D03*
X177720000Y-90424000D03*
D20*
X145201000Y-127254000D03*
X152821000Y-127254000D03*
D21*
X171791000Y-127254000D03*
X179411000Y-127254000D03*
D17*
X178525500Y-97790000D03*
X175550500Y-97790000D03*
D10*
X108458000Y-135636000D03*
D19*
X175356500Y-118584000D03*
X177431500Y-118584000D03*
D10*
X108458000Y-71120000D03*
D18*
X183118000Y-97790000D03*
X181118000Y-97790000D03*
D15*
X110049000Y-87630000D03*
D16*
X112589000Y-87630000D03*
X115129000Y-87630000D03*
X117669000Y-87630000D03*
X120209000Y-87630000D03*
X122749000Y-87630000D03*
X125289000Y-87630000D03*
X127829000Y-87630000D03*
X130369000Y-87630000D03*
X132909000Y-87630000D03*
X135449000Y-87630000D03*
X137989000Y-87630000D03*
M02*
