G04 #@! TF.GenerationSoftware,KiCad,Pcbnew,7.0.1*
G04 #@! TF.CreationDate,2023-04-08T17:40:26-04:00*
G04 #@! TF.ProjectId,Converters,436f6e76-6572-4746-9572-732e6b696361,rev?*
G04 #@! TF.SameCoordinates,Original*
G04 #@! TF.FileFunction,Legend,Bot*
G04 #@! TF.FilePolarity,Positive*
%FSLAX46Y46*%
G04 Gerber Fmt 4.6, Leading zero omitted, Abs format (unit mm)*
G04 Created by KiCad (PCBNEW 7.0.1) date 2023-04-08 17:40:26*
%MOMM*%
%LPD*%
G01*
G04 APERTURE LIST*
G04 Aperture macros list*
%AMRoundRect*
0 Rectangle with rounded corners*
0 $1 Rounding radius*
0 $2 $3 $4 $5 $6 $7 $8 $9 X,Y pos of 4 corners*
0 Add a 4 corners polygon primitive as box body*
4,1,4,$2,$3,$4,$5,$6,$7,$8,$9,$2,$3,0*
0 Add four circle primitives for the rounded corners*
1,1,$1+$1,$2,$3*
1,1,$1+$1,$4,$5*
1,1,$1+$1,$6,$7*
1,1,$1+$1,$8,$9*
0 Add four rect primitives between the rounded corners*
20,1,$1+$1,$2,$3,$4,$5,0*
20,1,$1+$1,$4,$5,$6,$7,0*
20,1,$1+$1,$6,$7,$8,$9,0*
20,1,$1+$1,$8,$9,$2,$3,0*%
G04 Aperture macros list end*
%ADD10C,0.150000*%
%ADD11C,0.120000*%
%ADD12C,6.400000*%
%ADD13R,1.600000X1.600000*%
%ADD14C,1.600000*%
%ADD15R,1.803400X1.803400*%
%ADD16C,1.803400*%
%ADD17R,2.000000X2.000000*%
%ADD18C,2.000000*%
%ADD19RoundRect,0.750000X-0.750000X-0.750000X0.750000X-0.750000X0.750000X0.750000X-0.750000X0.750000X0*%
%ADD20C,3.000000*%
%ADD21RoundRect,0.250000X0.350000X0.450000X-0.350000X0.450000X-0.350000X-0.450000X0.350000X-0.450000X0*%
%ADD22RoundRect,0.250000X-0.475000X0.337500X-0.475000X-0.337500X0.475000X-0.337500X0.475000X0.337500X0*%
%ADD23R,0.650000X1.560000*%
%ADD24RoundRect,0.250000X0.337500X0.475000X-0.337500X0.475000X-0.337500X-0.475000X0.337500X-0.475000X0*%
%ADD25RoundRect,0.250000X-0.337500X-0.475000X0.337500X-0.475000X0.337500X0.475000X-0.337500X0.475000X0*%
%ADD26RoundRect,0.249999X-1.425001X0.450001X-1.425001X-0.450001X1.425001X-0.450001X1.425001X0.450001X0*%
%ADD27RoundRect,0.250000X0.400000X0.625000X-0.400000X0.625000X-0.400000X-0.625000X0.400000X-0.625000X0*%
G04 APERTURE END LIST*
D10*
X116693921Y-139654619D02*
X117027254Y-139178428D01*
X117265349Y-139654619D02*
X117265349Y-138654619D01*
X117265349Y-138654619D02*
X116884397Y-138654619D01*
X116884397Y-138654619D02*
X116789159Y-138702238D01*
X116789159Y-138702238D02*
X116741540Y-138749857D01*
X116741540Y-138749857D02*
X116693921Y-138845095D01*
X116693921Y-138845095D02*
X116693921Y-138987952D01*
X116693921Y-138987952D02*
X116741540Y-139083190D01*
X116741540Y-139083190D02*
X116789159Y-139130809D01*
X116789159Y-139130809D02*
X116884397Y-139178428D01*
X116884397Y-139178428D02*
X117265349Y-139178428D01*
X115741540Y-139654619D02*
X116312968Y-139654619D01*
X116027254Y-139654619D02*
X116027254Y-138654619D01*
X116027254Y-138654619D02*
X116122492Y-138797476D01*
X116122492Y-138797476D02*
X116217730Y-138892714D01*
X116217730Y-138892714D02*
X116312968Y-138940333D01*
X115408206Y-138654619D02*
X114789159Y-138654619D01*
X114789159Y-138654619D02*
X115122492Y-139035571D01*
X115122492Y-139035571D02*
X114979635Y-139035571D01*
X114979635Y-139035571D02*
X114884397Y-139083190D01*
X114884397Y-139083190D02*
X114836778Y-139130809D01*
X114836778Y-139130809D02*
X114789159Y-139226047D01*
X114789159Y-139226047D02*
X114789159Y-139464142D01*
X114789159Y-139464142D02*
X114836778Y-139559380D01*
X114836778Y-139559380D02*
X114884397Y-139607000D01*
X114884397Y-139607000D02*
X114979635Y-139654619D01*
X114979635Y-139654619D02*
X115265349Y-139654619D01*
X115265349Y-139654619D02*
X115360587Y-139607000D01*
X115360587Y-139607000D02*
X115408206Y-139559380D01*
X164091857Y-127472880D02*
X164139476Y-127520500D01*
X164139476Y-127520500D02*
X164282333Y-127568119D01*
X164282333Y-127568119D02*
X164377571Y-127568119D01*
X164377571Y-127568119D02*
X164520428Y-127520500D01*
X164520428Y-127520500D02*
X164615666Y-127425261D01*
X164615666Y-127425261D02*
X164663285Y-127330023D01*
X164663285Y-127330023D02*
X164710904Y-127139547D01*
X164710904Y-127139547D02*
X164710904Y-126996690D01*
X164710904Y-126996690D02*
X164663285Y-126806214D01*
X164663285Y-126806214D02*
X164615666Y-126710976D01*
X164615666Y-126710976D02*
X164520428Y-126615738D01*
X164520428Y-126615738D02*
X164377571Y-126568119D01*
X164377571Y-126568119D02*
X164282333Y-126568119D01*
X164282333Y-126568119D02*
X164139476Y-126615738D01*
X164139476Y-126615738D02*
X164091857Y-126663357D01*
X163139476Y-127568119D02*
X163710904Y-127568119D01*
X163425190Y-127568119D02*
X163425190Y-126568119D01*
X163425190Y-126568119D02*
X163520428Y-126710976D01*
X163520428Y-126710976D02*
X163615666Y-126806214D01*
X163615666Y-126806214D02*
X163710904Y-126853833D01*
X162806142Y-126568119D02*
X162187095Y-126568119D01*
X162187095Y-126568119D02*
X162520428Y-126949071D01*
X162520428Y-126949071D02*
X162377571Y-126949071D01*
X162377571Y-126949071D02*
X162282333Y-126996690D01*
X162282333Y-126996690D02*
X162234714Y-127044309D01*
X162234714Y-127044309D02*
X162187095Y-127139547D01*
X162187095Y-127139547D02*
X162187095Y-127377642D01*
X162187095Y-127377642D02*
X162234714Y-127472880D01*
X162234714Y-127472880D02*
X162282333Y-127520500D01*
X162282333Y-127520500D02*
X162377571Y-127568119D01*
X162377571Y-127568119D02*
X162663285Y-127568119D01*
X162663285Y-127568119D02*
X162758523Y-127520500D01*
X162758523Y-127520500D02*
X162806142Y-127472880D01*
X168401904Y-126208619D02*
X168401904Y-127018142D01*
X168401904Y-127018142D02*
X168354285Y-127113380D01*
X168354285Y-127113380D02*
X168306666Y-127161000D01*
X168306666Y-127161000D02*
X168211428Y-127208619D01*
X168211428Y-127208619D02*
X168020952Y-127208619D01*
X168020952Y-127208619D02*
X167925714Y-127161000D01*
X167925714Y-127161000D02*
X167878095Y-127113380D01*
X167878095Y-127113380D02*
X167830476Y-127018142D01*
X167830476Y-127018142D02*
X167830476Y-126208619D01*
X166878095Y-126208619D02*
X167354285Y-126208619D01*
X167354285Y-126208619D02*
X167401904Y-126684809D01*
X167401904Y-126684809D02*
X167354285Y-126637190D01*
X167354285Y-126637190D02*
X167259047Y-126589571D01*
X167259047Y-126589571D02*
X167020952Y-126589571D01*
X167020952Y-126589571D02*
X166925714Y-126637190D01*
X166925714Y-126637190D02*
X166878095Y-126684809D01*
X166878095Y-126684809D02*
X166830476Y-126780047D01*
X166830476Y-126780047D02*
X166830476Y-127018142D01*
X166830476Y-127018142D02*
X166878095Y-127113380D01*
X166878095Y-127113380D02*
X166925714Y-127161000D01*
X166925714Y-127161000D02*
X167020952Y-127208619D01*
X167020952Y-127208619D02*
X167259047Y-127208619D01*
X167259047Y-127208619D02*
X167354285Y-127161000D01*
X167354285Y-127161000D02*
X167401904Y-127113380D01*
X136278857Y-139654619D02*
X136612190Y-139178428D01*
X136850285Y-139654619D02*
X136850285Y-138654619D01*
X136850285Y-138654619D02*
X136469333Y-138654619D01*
X136469333Y-138654619D02*
X136374095Y-138702238D01*
X136374095Y-138702238D02*
X136326476Y-138749857D01*
X136326476Y-138749857D02*
X136278857Y-138845095D01*
X136278857Y-138845095D02*
X136278857Y-138987952D01*
X136278857Y-138987952D02*
X136326476Y-139083190D01*
X136326476Y-139083190D02*
X136374095Y-139130809D01*
X136374095Y-139130809D02*
X136469333Y-139178428D01*
X136469333Y-139178428D02*
X136850285Y-139178428D01*
X135326476Y-139654619D02*
X135897904Y-139654619D01*
X135612190Y-139654619D02*
X135612190Y-138654619D01*
X135612190Y-138654619D02*
X135707428Y-138797476D01*
X135707428Y-138797476D02*
X135802666Y-138892714D01*
X135802666Y-138892714D02*
X135897904Y-138940333D01*
X134469333Y-138654619D02*
X134659809Y-138654619D01*
X134659809Y-138654619D02*
X134755047Y-138702238D01*
X134755047Y-138702238D02*
X134802666Y-138749857D01*
X134802666Y-138749857D02*
X134897904Y-138892714D01*
X134897904Y-138892714D02*
X134945523Y-139083190D01*
X134945523Y-139083190D02*
X134945523Y-139464142D01*
X134945523Y-139464142D02*
X134897904Y-139559380D01*
X134897904Y-139559380D02*
X134850285Y-139607000D01*
X134850285Y-139607000D02*
X134755047Y-139654619D01*
X134755047Y-139654619D02*
X134564571Y-139654619D01*
X134564571Y-139654619D02*
X134469333Y-139607000D01*
X134469333Y-139607000D02*
X134421714Y-139559380D01*
X134421714Y-139559380D02*
X134374095Y-139464142D01*
X134374095Y-139464142D02*
X134374095Y-139226047D01*
X134374095Y-139226047D02*
X134421714Y-139130809D01*
X134421714Y-139130809D02*
X134469333Y-139083190D01*
X134469333Y-139083190D02*
X134564571Y-139035571D01*
X134564571Y-139035571D02*
X134755047Y-139035571D01*
X134755047Y-139035571D02*
X134850285Y-139083190D01*
X134850285Y-139083190D02*
X134897904Y-139130809D01*
X134897904Y-139130809D02*
X134945523Y-139226047D01*
X161329666Y-100189380D02*
X161377285Y-100237000D01*
X161377285Y-100237000D02*
X161520142Y-100284619D01*
X161520142Y-100284619D02*
X161615380Y-100284619D01*
X161615380Y-100284619D02*
X161758237Y-100237000D01*
X161758237Y-100237000D02*
X161853475Y-100141761D01*
X161853475Y-100141761D02*
X161901094Y-100046523D01*
X161901094Y-100046523D02*
X161948713Y-99856047D01*
X161948713Y-99856047D02*
X161948713Y-99713190D01*
X161948713Y-99713190D02*
X161901094Y-99522714D01*
X161901094Y-99522714D02*
X161853475Y-99427476D01*
X161853475Y-99427476D02*
X161758237Y-99332238D01*
X161758237Y-99332238D02*
X161615380Y-99284619D01*
X161615380Y-99284619D02*
X161520142Y-99284619D01*
X161520142Y-99284619D02*
X161377285Y-99332238D01*
X161377285Y-99332238D02*
X161329666Y-99379857D01*
X160853475Y-100284619D02*
X160662999Y-100284619D01*
X160662999Y-100284619D02*
X160567761Y-100237000D01*
X160567761Y-100237000D02*
X160520142Y-100189380D01*
X160520142Y-100189380D02*
X160424904Y-100046523D01*
X160424904Y-100046523D02*
X160377285Y-99856047D01*
X160377285Y-99856047D02*
X160377285Y-99475095D01*
X160377285Y-99475095D02*
X160424904Y-99379857D01*
X160424904Y-99379857D02*
X160472523Y-99332238D01*
X160472523Y-99332238D02*
X160567761Y-99284619D01*
X160567761Y-99284619D02*
X160758237Y-99284619D01*
X160758237Y-99284619D02*
X160853475Y-99332238D01*
X160853475Y-99332238D02*
X160901094Y-99379857D01*
X160901094Y-99379857D02*
X160948713Y-99475095D01*
X160948713Y-99475095D02*
X160948713Y-99713190D01*
X160948713Y-99713190D02*
X160901094Y-99808428D01*
X160901094Y-99808428D02*
X160853475Y-99856047D01*
X160853475Y-99856047D02*
X160758237Y-99903666D01*
X160758237Y-99903666D02*
X160567761Y-99903666D01*
X160567761Y-99903666D02*
X160472523Y-99856047D01*
X160472523Y-99856047D02*
X160424904Y-99808428D01*
X160424904Y-99808428D02*
X160377285Y-99713190D01*
X121022857Y-139654619D02*
X121356190Y-139178428D01*
X121594285Y-139654619D02*
X121594285Y-138654619D01*
X121594285Y-138654619D02*
X121213333Y-138654619D01*
X121213333Y-138654619D02*
X121118095Y-138702238D01*
X121118095Y-138702238D02*
X121070476Y-138749857D01*
X121070476Y-138749857D02*
X121022857Y-138845095D01*
X121022857Y-138845095D02*
X121022857Y-138987952D01*
X121022857Y-138987952D02*
X121070476Y-139083190D01*
X121070476Y-139083190D02*
X121118095Y-139130809D01*
X121118095Y-139130809D02*
X121213333Y-139178428D01*
X121213333Y-139178428D02*
X121594285Y-139178428D01*
X120070476Y-139654619D02*
X120641904Y-139654619D01*
X120356190Y-139654619D02*
X120356190Y-138654619D01*
X120356190Y-138654619D02*
X120451428Y-138797476D01*
X120451428Y-138797476D02*
X120546666Y-138892714D01*
X120546666Y-138892714D02*
X120641904Y-138940333D01*
X119451428Y-138654619D02*
X119356190Y-138654619D01*
X119356190Y-138654619D02*
X119260952Y-138702238D01*
X119260952Y-138702238D02*
X119213333Y-138749857D01*
X119213333Y-138749857D02*
X119165714Y-138845095D01*
X119165714Y-138845095D02*
X119118095Y-139035571D01*
X119118095Y-139035571D02*
X119118095Y-139273666D01*
X119118095Y-139273666D02*
X119165714Y-139464142D01*
X119165714Y-139464142D02*
X119213333Y-139559380D01*
X119213333Y-139559380D02*
X119260952Y-139607000D01*
X119260952Y-139607000D02*
X119356190Y-139654619D01*
X119356190Y-139654619D02*
X119451428Y-139654619D01*
X119451428Y-139654619D02*
X119546666Y-139607000D01*
X119546666Y-139607000D02*
X119594285Y-139559380D01*
X119594285Y-139559380D02*
X119641904Y-139464142D01*
X119641904Y-139464142D02*
X119689523Y-139273666D01*
X119689523Y-139273666D02*
X119689523Y-139035571D01*
X119689523Y-139035571D02*
X119641904Y-138845095D01*
X119641904Y-138845095D02*
X119594285Y-138749857D01*
X119594285Y-138749857D02*
X119546666Y-138702238D01*
X119546666Y-138702238D02*
X119451428Y-138654619D01*
X126626857Y-89873380D02*
X126674476Y-89921000D01*
X126674476Y-89921000D02*
X126817333Y-89968619D01*
X126817333Y-89968619D02*
X126912571Y-89968619D01*
X126912571Y-89968619D02*
X127055428Y-89921000D01*
X127055428Y-89921000D02*
X127150666Y-89825761D01*
X127150666Y-89825761D02*
X127198285Y-89730523D01*
X127198285Y-89730523D02*
X127245904Y-89540047D01*
X127245904Y-89540047D02*
X127245904Y-89397190D01*
X127245904Y-89397190D02*
X127198285Y-89206714D01*
X127198285Y-89206714D02*
X127150666Y-89111476D01*
X127150666Y-89111476D02*
X127055428Y-89016238D01*
X127055428Y-89016238D02*
X126912571Y-88968619D01*
X126912571Y-88968619D02*
X126817333Y-88968619D01*
X126817333Y-88968619D02*
X126674476Y-89016238D01*
X126674476Y-89016238D02*
X126626857Y-89063857D01*
X125674476Y-89968619D02*
X126245904Y-89968619D01*
X125960190Y-89968619D02*
X125960190Y-88968619D01*
X125960190Y-88968619D02*
X126055428Y-89111476D01*
X126055428Y-89111476D02*
X126150666Y-89206714D01*
X126150666Y-89206714D02*
X126245904Y-89254333D01*
X125055428Y-88968619D02*
X124960190Y-88968619D01*
X124960190Y-88968619D02*
X124864952Y-89016238D01*
X124864952Y-89016238D02*
X124817333Y-89063857D01*
X124817333Y-89063857D02*
X124769714Y-89159095D01*
X124769714Y-89159095D02*
X124722095Y-89349571D01*
X124722095Y-89349571D02*
X124722095Y-89587666D01*
X124722095Y-89587666D02*
X124769714Y-89778142D01*
X124769714Y-89778142D02*
X124817333Y-89873380D01*
X124817333Y-89873380D02*
X124864952Y-89921000D01*
X124864952Y-89921000D02*
X124960190Y-89968619D01*
X124960190Y-89968619D02*
X125055428Y-89968619D01*
X125055428Y-89968619D02*
X125150666Y-89921000D01*
X125150666Y-89921000D02*
X125198285Y-89873380D01*
X125198285Y-89873380D02*
X125245904Y-89778142D01*
X125245904Y-89778142D02*
X125293523Y-89587666D01*
X125293523Y-89587666D02*
X125293523Y-89349571D01*
X125293523Y-89349571D02*
X125245904Y-89159095D01*
X125245904Y-89159095D02*
X125198285Y-89063857D01*
X125198285Y-89063857D02*
X125150666Y-89016238D01*
X125150666Y-89016238D02*
X125055428Y-88968619D01*
X119514857Y-93233380D02*
X119562476Y-93281000D01*
X119562476Y-93281000D02*
X119705333Y-93328619D01*
X119705333Y-93328619D02*
X119800571Y-93328619D01*
X119800571Y-93328619D02*
X119943428Y-93281000D01*
X119943428Y-93281000D02*
X120038666Y-93185761D01*
X120038666Y-93185761D02*
X120086285Y-93090523D01*
X120086285Y-93090523D02*
X120133904Y-92900047D01*
X120133904Y-92900047D02*
X120133904Y-92757190D01*
X120133904Y-92757190D02*
X120086285Y-92566714D01*
X120086285Y-92566714D02*
X120038666Y-92471476D01*
X120038666Y-92471476D02*
X119943428Y-92376238D01*
X119943428Y-92376238D02*
X119800571Y-92328619D01*
X119800571Y-92328619D02*
X119705333Y-92328619D01*
X119705333Y-92328619D02*
X119562476Y-92376238D01*
X119562476Y-92376238D02*
X119514857Y-92423857D01*
X118562476Y-93328619D02*
X119133904Y-93328619D01*
X118848190Y-93328619D02*
X118848190Y-92328619D01*
X118848190Y-92328619D02*
X118943428Y-92471476D01*
X118943428Y-92471476D02*
X119038666Y-92566714D01*
X119038666Y-92566714D02*
X119133904Y-92614333D01*
X117610095Y-93328619D02*
X118181523Y-93328619D01*
X117895809Y-93328619D02*
X117895809Y-92328619D01*
X117895809Y-92328619D02*
X117991047Y-92471476D01*
X117991047Y-92471476D02*
X118086285Y-92566714D01*
X118086285Y-92566714D02*
X118181523Y-92614333D01*
X166877904Y-98522619D02*
X166877904Y-99332142D01*
X166877904Y-99332142D02*
X166830285Y-99427380D01*
X166830285Y-99427380D02*
X166782666Y-99475000D01*
X166782666Y-99475000D02*
X166687428Y-99522619D01*
X166687428Y-99522619D02*
X166496952Y-99522619D01*
X166496952Y-99522619D02*
X166401714Y-99475000D01*
X166401714Y-99475000D02*
X166354095Y-99427380D01*
X166354095Y-99427380D02*
X166306476Y-99332142D01*
X166306476Y-99332142D02*
X166306476Y-98522619D01*
X165401714Y-98855952D02*
X165401714Y-99522619D01*
X165639809Y-98475000D02*
X165877904Y-99189285D01*
X165877904Y-99189285D02*
X165258857Y-99189285D01*
X130987793Y-139654619D02*
X131321126Y-139178428D01*
X131559221Y-139654619D02*
X131559221Y-138654619D01*
X131559221Y-138654619D02*
X131178269Y-138654619D01*
X131178269Y-138654619D02*
X131083031Y-138702238D01*
X131083031Y-138702238D02*
X131035412Y-138749857D01*
X131035412Y-138749857D02*
X130987793Y-138845095D01*
X130987793Y-138845095D02*
X130987793Y-138987952D01*
X130987793Y-138987952D02*
X131035412Y-139083190D01*
X131035412Y-139083190D02*
X131083031Y-139130809D01*
X131083031Y-139130809D02*
X131178269Y-139178428D01*
X131178269Y-139178428D02*
X131559221Y-139178428D01*
X130035412Y-139654619D02*
X130606840Y-139654619D01*
X130321126Y-139654619D02*
X130321126Y-138654619D01*
X130321126Y-138654619D02*
X130416364Y-138797476D01*
X130416364Y-138797476D02*
X130511602Y-138892714D01*
X130511602Y-138892714D02*
X130606840Y-138940333D01*
X129083031Y-139654619D02*
X129654459Y-139654619D01*
X129368745Y-139654619D02*
X129368745Y-138654619D01*
X129368745Y-138654619D02*
X129463983Y-138797476D01*
X129463983Y-138797476D02*
X129559221Y-138892714D01*
X129559221Y-138892714D02*
X129654459Y-138940333D01*
X171832619Y-95337333D02*
X171356428Y-95004000D01*
X171832619Y-94765905D02*
X170832619Y-94765905D01*
X170832619Y-94765905D02*
X170832619Y-95146857D01*
X170832619Y-95146857D02*
X170880238Y-95242095D01*
X170880238Y-95242095D02*
X170927857Y-95289714D01*
X170927857Y-95289714D02*
X171023095Y-95337333D01*
X171023095Y-95337333D02*
X171165952Y-95337333D01*
X171165952Y-95337333D02*
X171261190Y-95289714D01*
X171261190Y-95289714D02*
X171308809Y-95242095D01*
X171308809Y-95242095D02*
X171356428Y-95146857D01*
X171356428Y-95146857D02*
X171356428Y-94765905D01*
X170832619Y-95670667D02*
X170832619Y-96337333D01*
X170832619Y-96337333D02*
X171832619Y-95908762D01*
X173356619Y-122769333D02*
X172880428Y-122436000D01*
X173356619Y-122197905D02*
X172356619Y-122197905D01*
X172356619Y-122197905D02*
X172356619Y-122578857D01*
X172356619Y-122578857D02*
X172404238Y-122674095D01*
X172404238Y-122674095D02*
X172451857Y-122721714D01*
X172451857Y-122721714D02*
X172547095Y-122769333D01*
X172547095Y-122769333D02*
X172689952Y-122769333D01*
X172689952Y-122769333D02*
X172785190Y-122721714D01*
X172785190Y-122721714D02*
X172832809Y-122674095D01*
X172832809Y-122674095D02*
X172880428Y-122578857D01*
X172880428Y-122578857D02*
X172880428Y-122197905D01*
X173356619Y-123245524D02*
X173356619Y-123436000D01*
X173356619Y-123436000D02*
X173309000Y-123531238D01*
X173309000Y-123531238D02*
X173261380Y-123578857D01*
X173261380Y-123578857D02*
X173118523Y-123674095D01*
X173118523Y-123674095D02*
X172928047Y-123721714D01*
X172928047Y-123721714D02*
X172547095Y-123721714D01*
X172547095Y-123721714D02*
X172451857Y-123674095D01*
X172451857Y-123674095D02*
X172404238Y-123626476D01*
X172404238Y-123626476D02*
X172356619Y-123531238D01*
X172356619Y-123531238D02*
X172356619Y-123340762D01*
X172356619Y-123340762D02*
X172404238Y-123245524D01*
X172404238Y-123245524D02*
X172451857Y-123197905D01*
X172451857Y-123197905D02*
X172547095Y-123150286D01*
X172547095Y-123150286D02*
X172785190Y-123150286D01*
X172785190Y-123150286D02*
X172880428Y-123197905D01*
X172880428Y-123197905D02*
X172928047Y-123245524D01*
X172928047Y-123245524D02*
X172975666Y-123340762D01*
X172975666Y-123340762D02*
X172975666Y-123531238D01*
X172975666Y-123531238D02*
X172928047Y-123626476D01*
X172928047Y-123626476D02*
X172880428Y-123674095D01*
X172880428Y-123674095D02*
X172785190Y-123721714D01*
X126626857Y-139654619D02*
X126960190Y-139178428D01*
X127198285Y-139654619D02*
X127198285Y-138654619D01*
X127198285Y-138654619D02*
X126817333Y-138654619D01*
X126817333Y-138654619D02*
X126722095Y-138702238D01*
X126722095Y-138702238D02*
X126674476Y-138749857D01*
X126674476Y-138749857D02*
X126626857Y-138845095D01*
X126626857Y-138845095D02*
X126626857Y-138987952D01*
X126626857Y-138987952D02*
X126674476Y-139083190D01*
X126674476Y-139083190D02*
X126722095Y-139130809D01*
X126722095Y-139130809D02*
X126817333Y-139178428D01*
X126817333Y-139178428D02*
X127198285Y-139178428D01*
X125674476Y-139654619D02*
X126245904Y-139654619D01*
X125960190Y-139654619D02*
X125960190Y-138654619D01*
X125960190Y-138654619D02*
X126055428Y-138797476D01*
X126055428Y-138797476D02*
X126150666Y-138892714D01*
X126150666Y-138892714D02*
X126245904Y-138940333D01*
X124817333Y-138987952D02*
X124817333Y-139654619D01*
X125055428Y-138607000D02*
X125293523Y-139321285D01*
X125293523Y-139321285D02*
X124674476Y-139321285D01*
X141866857Y-139654619D02*
X142200190Y-139178428D01*
X142438285Y-139654619D02*
X142438285Y-138654619D01*
X142438285Y-138654619D02*
X142057333Y-138654619D01*
X142057333Y-138654619D02*
X141962095Y-138702238D01*
X141962095Y-138702238D02*
X141914476Y-138749857D01*
X141914476Y-138749857D02*
X141866857Y-138845095D01*
X141866857Y-138845095D02*
X141866857Y-138987952D01*
X141866857Y-138987952D02*
X141914476Y-139083190D01*
X141914476Y-139083190D02*
X141962095Y-139130809D01*
X141962095Y-139130809D02*
X142057333Y-139178428D01*
X142057333Y-139178428D02*
X142438285Y-139178428D01*
X140914476Y-139654619D02*
X141485904Y-139654619D01*
X141200190Y-139654619D02*
X141200190Y-138654619D01*
X141200190Y-138654619D02*
X141295428Y-138797476D01*
X141295428Y-138797476D02*
X141390666Y-138892714D01*
X141390666Y-138892714D02*
X141485904Y-138940333D01*
X140009714Y-138654619D02*
X140485904Y-138654619D01*
X140485904Y-138654619D02*
X140533523Y-139130809D01*
X140533523Y-139130809D02*
X140485904Y-139083190D01*
X140485904Y-139083190D02*
X140390666Y-139035571D01*
X140390666Y-139035571D02*
X140152571Y-139035571D01*
X140152571Y-139035571D02*
X140057333Y-139083190D01*
X140057333Y-139083190D02*
X140009714Y-139130809D01*
X140009714Y-139130809D02*
X139962095Y-139226047D01*
X139962095Y-139226047D02*
X139962095Y-139464142D01*
X139962095Y-139464142D02*
X140009714Y-139559380D01*
X140009714Y-139559380D02*
X140057333Y-139607000D01*
X140057333Y-139607000D02*
X140152571Y-139654619D01*
X140152571Y-139654619D02*
X140390666Y-139654619D01*
X140390666Y-139654619D02*
X140485904Y-139607000D01*
X140485904Y-139607000D02*
X140533523Y-139559380D01*
D11*
X116051064Y-137895000D02*
X115596936Y-137895000D01*
X116051064Y-136425000D02*
X115596936Y-136425000D01*
X164184000Y-123034248D02*
X164184000Y-123556752D01*
X162714000Y-123034248D02*
X162714000Y-123556752D01*
X169250000Y-122036000D02*
X169250000Y-123836000D01*
X166030000Y-123836000D02*
X166030000Y-121386000D01*
X135863064Y-137895000D02*
X135408936Y-137895000D01*
X135863064Y-136425000D02*
X135408936Y-136425000D01*
X161898000Y-96258748D02*
X161898000Y-96781252D01*
X160428000Y-96258748D02*
X160428000Y-96781252D01*
X120607064Y-137895000D02*
X120152936Y-137895000D01*
X120607064Y-136425000D02*
X120152936Y-136425000D01*
X126245252Y-91921000D02*
X125722748Y-91921000D01*
X126245252Y-90451000D02*
X125722748Y-90451000D01*
X118610748Y-90451000D02*
X119133252Y-90451000D01*
X118610748Y-91921000D02*
X119133252Y-91921000D01*
X167472000Y-94604000D02*
X167472000Y-96404000D01*
X164252000Y-96404000D02*
X164252000Y-93954000D01*
X130799064Y-137895000D02*
X130344936Y-137895000D01*
X130799064Y-136425000D02*
X130344936Y-136425000D01*
X175700000Y-93326936D02*
X175700000Y-97681064D01*
X172280000Y-93326936D02*
X172280000Y-97681064D01*
X177224000Y-120758936D02*
X177224000Y-125113064D01*
X173804000Y-120758936D02*
X173804000Y-125113064D01*
X126211064Y-137895000D02*
X125756936Y-137895000D01*
X126211064Y-136425000D02*
X125756936Y-136425000D01*
X141697064Y-138070000D02*
X140242936Y-138070000D01*
X141697064Y-136250000D02*
X140242936Y-136250000D01*
%LPC*%
D12*
X181102000Y-71120000D03*
D13*
X149606000Y-134351347D03*
D14*
X149606000Y-136851347D03*
D15*
X175567999Y-114474001D03*
D16*
X175567999Y-109474001D03*
X175567999Y-104474001D03*
D17*
X129540000Y-99314000D03*
D18*
X129540000Y-106934000D03*
X129540000Y-112014000D03*
X149860000Y-119634000D03*
X149860000Y-109474000D03*
X149860000Y-99314000D03*
D15*
X164846000Y-76507999D03*
D16*
X169846000Y-76507999D03*
D15*
X126746000Y-129286000D03*
D16*
X121746000Y-129286000D03*
X116746000Y-129286000D03*
D15*
X151514800Y-76504800D03*
D16*
X156514800Y-76504800D03*
D15*
X128310000Y-76507999D03*
D16*
X133310000Y-76507999D03*
D12*
X181102000Y-135595000D03*
D15*
X138430000Y-129286000D03*
D16*
X133430000Y-129286000D03*
D13*
X110656380Y-109474000D03*
D14*
X108156380Y-109474000D03*
D19*
X143510000Y-90424000D03*
X151130000Y-90424000D03*
D20*
X170100000Y-90424000D03*
X177720000Y-90424000D03*
D19*
X145201000Y-127254000D03*
X152821000Y-127254000D03*
D20*
X171791000Y-127254000D03*
X179411000Y-127254000D03*
D12*
X108458000Y-135636000D03*
X108458000Y-71120000D03*
D17*
X110049000Y-87630000D03*
D18*
X112589000Y-87630000D03*
X115129000Y-87630000D03*
X117669000Y-87630000D03*
X120209000Y-87630000D03*
X122749000Y-87630000D03*
X125289000Y-87630000D03*
X127829000Y-87630000D03*
X130369000Y-87630000D03*
X132909000Y-87630000D03*
X135449000Y-87630000D03*
X137989000Y-87630000D03*
D21*
X116824000Y-137160000D03*
X114824000Y-137160000D03*
D22*
X163449000Y-122258000D03*
X163449000Y-124333000D03*
D23*
X166690000Y-121586000D03*
X167640000Y-121586000D03*
X168590000Y-121586000D03*
X168590000Y-124286000D03*
X166690000Y-124286000D03*
D21*
X136636000Y-137160000D03*
X134636000Y-137160000D03*
D22*
X161163000Y-95482500D03*
X161163000Y-97557500D03*
D21*
X121380000Y-137160000D03*
X119380000Y-137160000D03*
D24*
X127021500Y-91186000D03*
X124946500Y-91186000D03*
D25*
X117834500Y-91186000D03*
X119909500Y-91186000D03*
D23*
X164912000Y-94154000D03*
X165862000Y-94154000D03*
X166812000Y-94154000D03*
X166812000Y-96854000D03*
X164912000Y-96854000D03*
D21*
X131572000Y-137160000D03*
X129572000Y-137160000D03*
D26*
X173990000Y-92454000D03*
X173990000Y-98554000D03*
X175514000Y-119886000D03*
X175514000Y-125986000D03*
D21*
X126984000Y-137160000D03*
X124984000Y-137160000D03*
D27*
X142520000Y-137160000D03*
X139420000Y-137160000D03*
M02*
