G04 #@! TF.GenerationSoftware,KiCad,Pcbnew,7.0.1*
G04 #@! TF.CreationDate,2023-04-08T17:40:26-04:00*
G04 #@! TF.ProjectId,Converters,436f6e76-6572-4746-9572-732e6b696361,rev?*
G04 #@! TF.SameCoordinates,Original*
G04 #@! TF.FileFunction,Legend,Top*
G04 #@! TF.FilePolarity,Positive*
%FSLAX46Y46*%
G04 Gerber Fmt 4.6, Leading zero omitted, Abs format (unit mm)*
G04 Created by KiCad (PCBNEW 7.0.1) date 2023-04-08 17:40:26*
%MOMM*%
%LPD*%
G01*
G04 APERTURE LIST*
G04 Aperture macros list*
%AMRoundRect*
0 Rectangle with rounded corners*
0 $1 Rounding radius*
0 $2 $3 $4 $5 $6 $7 $8 $9 X,Y pos of 4 corners*
0 Add a 4 corners polygon primitive as box body*
4,1,4,$2,$3,$4,$5,$6,$7,$8,$9,$2,$3,0*
0 Add four circle primitives for the rounded corners*
1,1,$1+$1,$2,$3*
1,1,$1+$1,$4,$5*
1,1,$1+$1,$6,$7*
1,1,$1+$1,$8,$9*
0 Add four rect primitives between the rounded corners*
20,1,$1+$1,$2,$3,$4,$5,0*
20,1,$1+$1,$4,$5,$6,$7,0*
20,1,$1+$1,$6,$7,$8,$9,0*
20,1,$1+$1,$8,$9,$2,$3,0*%
G04 Aperture macros list end*
%ADD10C,0.125000*%
%ADD11C,0.300000*%
%ADD12C,0.150000*%
%ADD13C,0.120000*%
%ADD14C,0.010000*%
%ADD15C,6.400000*%
%ADD16R,1.600000X1.600000*%
%ADD17C,1.600000*%
%ADD18R,1.803400X1.803400*%
%ADD19C,1.803400*%
%ADD20R,2.000000X2.000000*%
%ADD21C,2.000000*%
%ADD22RoundRect,0.250001X0.462499X0.624999X-0.462499X0.624999X-0.462499X-0.624999X0.462499X-0.624999X0*%
%ADD23RoundRect,0.250000X0.350000X0.450000X-0.350000X0.450000X-0.350000X-0.450000X0.350000X-0.450000X0*%
%ADD24RoundRect,0.250000X-0.337500X-0.475000X0.337500X-0.475000X0.337500X0.475000X-0.337500X0.475000X0*%
%ADD25RoundRect,0.750000X-0.750000X-0.750000X0.750000X-0.750000X0.750000X0.750000X-0.750000X0.750000X0*%
%ADD26C,3.000000*%
G04 APERTURE END LIST*
D10*
X175247523Y-96179833D02*
X175628476Y-96179833D01*
X175437999Y-96370309D02*
X175437999Y-95989357D01*
D11*
X183764500Y-106187714D02*
X183764500Y-105044857D01*
X184335928Y-105616285D02*
X183193071Y-105616285D01*
X182835928Y-103616285D02*
X182835928Y-104330571D01*
X182835928Y-104330571D02*
X183550214Y-104401999D01*
X183550214Y-104401999D02*
X183478785Y-104330571D01*
X183478785Y-104330571D02*
X183407357Y-104187714D01*
X183407357Y-104187714D02*
X183407357Y-103830571D01*
X183407357Y-103830571D02*
X183478785Y-103687714D01*
X183478785Y-103687714D02*
X183550214Y-103616285D01*
X183550214Y-103616285D02*
X183693071Y-103544856D01*
X183693071Y-103544856D02*
X184050214Y-103544856D01*
X184050214Y-103544856D02*
X184193071Y-103616285D01*
X184193071Y-103616285D02*
X184264500Y-103687714D01*
X184264500Y-103687714D02*
X184335928Y-103830571D01*
X184335928Y-103830571D02*
X184335928Y-104187714D01*
X184335928Y-104187714D02*
X184264500Y-104330571D01*
X184264500Y-104330571D02*
X184193071Y-104401999D01*
X156637027Y-69792471D02*
X156494170Y-69792471D01*
X156494170Y-69792471D02*
X156351313Y-69721042D01*
X156351313Y-69721042D02*
X156279885Y-69649614D01*
X156279885Y-69649614D02*
X156208456Y-69506757D01*
X156208456Y-69506757D02*
X156137027Y-69221042D01*
X156137027Y-69221042D02*
X156137027Y-68863900D01*
X156137027Y-68863900D02*
X156208456Y-68578185D01*
X156208456Y-68578185D02*
X156279885Y-68435328D01*
X156279885Y-68435328D02*
X156351313Y-68363900D01*
X156351313Y-68363900D02*
X156494170Y-68292471D01*
X156494170Y-68292471D02*
X156637027Y-68292471D01*
X156637027Y-68292471D02*
X156779885Y-68363900D01*
X156779885Y-68363900D02*
X156851313Y-68435328D01*
X156851313Y-68435328D02*
X156922742Y-68578185D01*
X156922742Y-68578185D02*
X156994170Y-68863900D01*
X156994170Y-68863900D02*
X156994170Y-69221042D01*
X156994170Y-69221042D02*
X156922742Y-69506757D01*
X156922742Y-69506757D02*
X156851313Y-69649614D01*
X156851313Y-69649614D02*
X156779885Y-69721042D01*
X156779885Y-69721042D02*
X156637027Y-69792471D01*
X137144285Y-138044500D02*
X138287143Y-138044500D01*
X137715714Y-138615928D02*
X137715714Y-137473071D01*
X139715714Y-137115928D02*
X139001428Y-137115928D01*
X139001428Y-137115928D02*
X138930000Y-137830214D01*
X138930000Y-137830214D02*
X139001428Y-137758785D01*
X139001428Y-137758785D02*
X139144286Y-137687357D01*
X139144286Y-137687357D02*
X139501428Y-137687357D01*
X139501428Y-137687357D02*
X139644286Y-137758785D01*
X139644286Y-137758785D02*
X139715714Y-137830214D01*
X139715714Y-137830214D02*
X139787143Y-137973071D01*
X139787143Y-137973071D02*
X139787143Y-138330214D01*
X139787143Y-138330214D02*
X139715714Y-138473071D01*
X139715714Y-138473071D02*
X139644286Y-138544500D01*
X139644286Y-138544500D02*
X139501428Y-138615928D01*
X139501428Y-138615928D02*
X139144286Y-138615928D01*
X139144286Y-138615928D02*
X139001428Y-138544500D01*
X139001428Y-138544500D02*
X138930000Y-138473071D01*
X113824000Y-137790500D02*
X114966858Y-137790500D01*
X114395429Y-138361928D02*
X114395429Y-137219071D01*
X115609715Y-137004785D02*
X115681143Y-136933357D01*
X115681143Y-136933357D02*
X115824001Y-136861928D01*
X115824001Y-136861928D02*
X116181143Y-136861928D01*
X116181143Y-136861928D02*
X116324001Y-136933357D01*
X116324001Y-136933357D02*
X116395429Y-137004785D01*
X116395429Y-137004785D02*
X116466858Y-137147642D01*
X116466858Y-137147642D02*
X116466858Y-137290500D01*
X116466858Y-137290500D02*
X116395429Y-137504785D01*
X116395429Y-137504785D02*
X115538286Y-138361928D01*
X115538286Y-138361928D02*
X116466858Y-138361928D01*
X117752572Y-137361928D02*
X117752572Y-138361928D01*
X117395429Y-136790500D02*
X117038286Y-137861928D01*
X117038286Y-137861928D02*
X117966857Y-137861928D01*
X183764500Y-116299999D02*
X183764500Y-115157142D01*
X184335928Y-115728570D02*
X183193071Y-115728570D01*
X182978785Y-114514284D02*
X182907357Y-114442856D01*
X182907357Y-114442856D02*
X182835928Y-114299999D01*
X182835928Y-114299999D02*
X182835928Y-113942856D01*
X182835928Y-113942856D02*
X182907357Y-113799999D01*
X182907357Y-113799999D02*
X182978785Y-113728570D01*
X182978785Y-113728570D02*
X183121642Y-113657141D01*
X183121642Y-113657141D02*
X183264500Y-113657141D01*
X183264500Y-113657141D02*
X183478785Y-113728570D01*
X183478785Y-113728570D02*
X184335928Y-114585713D01*
X184335928Y-114585713D02*
X184335928Y-113657141D01*
X183335928Y-112371428D02*
X184335928Y-112371428D01*
X182764500Y-112728570D02*
X183835928Y-113085713D01*
X183835928Y-113085713D02*
X183835928Y-112157142D01*
X151455427Y-69792471D02*
X151312570Y-69792471D01*
X151312570Y-69792471D02*
X151169713Y-69721042D01*
X151169713Y-69721042D02*
X151098285Y-69649614D01*
X151098285Y-69649614D02*
X151026856Y-69506757D01*
X151026856Y-69506757D02*
X150955427Y-69221042D01*
X150955427Y-69221042D02*
X150955427Y-68863900D01*
X150955427Y-68863900D02*
X151026856Y-68578185D01*
X151026856Y-68578185D02*
X151098285Y-68435328D01*
X151098285Y-68435328D02*
X151169713Y-68363900D01*
X151169713Y-68363900D02*
X151312570Y-68292471D01*
X151312570Y-68292471D02*
X151455427Y-68292471D01*
X151455427Y-68292471D02*
X151598285Y-68363900D01*
X151598285Y-68363900D02*
X151669713Y-68435328D01*
X151669713Y-68435328D02*
X151741142Y-68578185D01*
X151741142Y-68578185D02*
X151812570Y-68863900D01*
X151812570Y-68863900D02*
X151812570Y-69221042D01*
X151812570Y-69221042D02*
X151741142Y-69506757D01*
X151741142Y-69506757D02*
X151669713Y-69649614D01*
X151669713Y-69649614D02*
X151598285Y-69721042D01*
X151598285Y-69721042D02*
X151455427Y-69792471D01*
X128036627Y-69616071D02*
X127893770Y-69616071D01*
X127893770Y-69616071D02*
X127750913Y-69544642D01*
X127750913Y-69544642D02*
X127679485Y-69473214D01*
X127679485Y-69473214D02*
X127608056Y-69330357D01*
X127608056Y-69330357D02*
X127536627Y-69044642D01*
X127536627Y-69044642D02*
X127536627Y-68687500D01*
X127536627Y-68687500D02*
X127608056Y-68401785D01*
X127608056Y-68401785D02*
X127679485Y-68258928D01*
X127679485Y-68258928D02*
X127750913Y-68187500D01*
X127750913Y-68187500D02*
X127893770Y-68116071D01*
X127893770Y-68116071D02*
X128036627Y-68116071D01*
X128036627Y-68116071D02*
X128179485Y-68187500D01*
X128179485Y-68187500D02*
X128250913Y-68258928D01*
X128250913Y-68258928D02*
X128322342Y-68401785D01*
X128322342Y-68401785D02*
X128393770Y-68687500D01*
X128393770Y-68687500D02*
X128393770Y-69044642D01*
X128393770Y-69044642D02*
X128322342Y-69330357D01*
X128322342Y-69330357D02*
X128250913Y-69473214D01*
X128250913Y-69473214D02*
X128179485Y-69544642D01*
X128179485Y-69544642D02*
X128036627Y-69616071D01*
X171414914Y-68813100D02*
X170272057Y-68813100D01*
X170843485Y-68241671D02*
X170843485Y-69384528D01*
X168843485Y-69741671D02*
X169557771Y-69741671D01*
X169557771Y-69741671D02*
X169629199Y-69027385D01*
X169629199Y-69027385D02*
X169557771Y-69098814D01*
X169557771Y-69098814D02*
X169414914Y-69170242D01*
X169414914Y-69170242D02*
X169057771Y-69170242D01*
X169057771Y-69170242D02*
X168914914Y-69098814D01*
X168914914Y-69098814D02*
X168843485Y-69027385D01*
X168843485Y-69027385D02*
X168772056Y-68884528D01*
X168772056Y-68884528D02*
X168772056Y-68527385D01*
X168772056Y-68527385D02*
X168843485Y-68384528D01*
X168843485Y-68384528D02*
X168914914Y-68313100D01*
X168914914Y-68313100D02*
X169057771Y-68241671D01*
X169057771Y-68241671D02*
X169414914Y-68241671D01*
X169414914Y-68241671D02*
X169557771Y-68313100D01*
X169557771Y-68313100D02*
X169629199Y-68384528D01*
X119618285Y-137790500D02*
X120761143Y-137790500D01*
X120189714Y-138361928D02*
X120189714Y-137219071D01*
X122189714Y-136861928D02*
X121475428Y-136861928D01*
X121475428Y-136861928D02*
X121404000Y-137576214D01*
X121404000Y-137576214D02*
X121475428Y-137504785D01*
X121475428Y-137504785D02*
X121618286Y-137433357D01*
X121618286Y-137433357D02*
X121975428Y-137433357D01*
X121975428Y-137433357D02*
X122118286Y-137504785D01*
X122118286Y-137504785D02*
X122189714Y-137576214D01*
X122189714Y-137576214D02*
X122261143Y-137719071D01*
X122261143Y-137719071D02*
X122261143Y-138076214D01*
X122261143Y-138076214D02*
X122189714Y-138219071D01*
X122189714Y-138219071D02*
X122118286Y-138290500D01*
X122118286Y-138290500D02*
X121975428Y-138361928D01*
X121975428Y-138361928D02*
X121618286Y-138361928D01*
X121618286Y-138361928D02*
X121475428Y-138290500D01*
X121475428Y-138290500D02*
X121404000Y-138219071D01*
X131096000Y-138044500D02*
X132238858Y-138044500D01*
X131667429Y-138615928D02*
X131667429Y-137473071D01*
X132881715Y-137258785D02*
X132953143Y-137187357D01*
X132953143Y-137187357D02*
X133096001Y-137115928D01*
X133096001Y-137115928D02*
X133453143Y-137115928D01*
X133453143Y-137115928D02*
X133596001Y-137187357D01*
X133596001Y-137187357D02*
X133667429Y-137258785D01*
X133667429Y-137258785D02*
X133738858Y-137401642D01*
X133738858Y-137401642D02*
X133738858Y-137544500D01*
X133738858Y-137544500D02*
X133667429Y-137758785D01*
X133667429Y-137758785D02*
X132810286Y-138615928D01*
X132810286Y-138615928D02*
X133738858Y-138615928D01*
X135024572Y-137615928D02*
X135024572Y-138615928D01*
X134667429Y-137044500D02*
X134310286Y-138115928D01*
X134310286Y-138115928D02*
X135238857Y-138115928D01*
X136914342Y-68762300D02*
X135771485Y-68762300D01*
X136342913Y-68190871D02*
X136342913Y-69333728D01*
X134557199Y-68976585D02*
X134342913Y-68905157D01*
X134342913Y-68905157D02*
X134271484Y-68833728D01*
X134271484Y-68833728D02*
X134200056Y-68690871D01*
X134200056Y-68690871D02*
X134200056Y-68476585D01*
X134200056Y-68476585D02*
X134271484Y-68333728D01*
X134271484Y-68333728D02*
X134342913Y-68262300D01*
X134342913Y-68262300D02*
X134485770Y-68190871D01*
X134485770Y-68190871D02*
X135057199Y-68190871D01*
X135057199Y-68190871D02*
X135057199Y-69690871D01*
X135057199Y-69690871D02*
X134557199Y-69690871D01*
X134557199Y-69690871D02*
X134414342Y-69619442D01*
X134414342Y-69619442D02*
X134342913Y-69548014D01*
X134342913Y-69548014D02*
X134271484Y-69405157D01*
X134271484Y-69405157D02*
X134271484Y-69262300D01*
X134271484Y-69262300D02*
X134342913Y-69119442D01*
X134342913Y-69119442D02*
X134414342Y-69048014D01*
X134414342Y-69048014D02*
X134557199Y-68976585D01*
X134557199Y-68976585D02*
X135057199Y-68976585D01*
X133628627Y-68619442D02*
X132914342Y-68619442D01*
X133771484Y-68190871D02*
X133271484Y-69690871D01*
X133271484Y-69690871D02*
X132771484Y-68190871D01*
X132485770Y-69690871D02*
X131628628Y-69690871D01*
X132057199Y-68190871D02*
X132057199Y-69690871D01*
X131342913Y-69690871D02*
X130485771Y-69690871D01*
X130914342Y-68190871D02*
X130914342Y-69690871D01*
X164815827Y-69792471D02*
X164672970Y-69792471D01*
X164672970Y-69792471D02*
X164530113Y-69721042D01*
X164530113Y-69721042D02*
X164458685Y-69649614D01*
X164458685Y-69649614D02*
X164387256Y-69506757D01*
X164387256Y-69506757D02*
X164315827Y-69221042D01*
X164315827Y-69221042D02*
X164315827Y-68863900D01*
X164315827Y-68863900D02*
X164387256Y-68578185D01*
X164387256Y-68578185D02*
X164458685Y-68435328D01*
X164458685Y-68435328D02*
X164530113Y-68363900D01*
X164530113Y-68363900D02*
X164672970Y-68292471D01*
X164672970Y-68292471D02*
X164815827Y-68292471D01*
X164815827Y-68292471D02*
X164958685Y-68363900D01*
X164958685Y-68363900D02*
X165030113Y-68435328D01*
X165030113Y-68435328D02*
X165101542Y-68578185D01*
X165101542Y-68578185D02*
X165172970Y-68863900D01*
X165172970Y-68863900D02*
X165172970Y-69221042D01*
X165172970Y-69221042D02*
X165101542Y-69506757D01*
X165101542Y-69506757D02*
X165030113Y-69649614D01*
X165030113Y-69649614D02*
X164958685Y-69721042D01*
X164958685Y-69721042D02*
X164815827Y-69792471D01*
X123742000Y-136861928D02*
X124599143Y-136861928D01*
X124170571Y-138361928D02*
X124170571Y-136861928D01*
X125670571Y-138290500D02*
X125527714Y-138361928D01*
X125527714Y-138361928D02*
X125242000Y-138361928D01*
X125242000Y-138361928D02*
X125099142Y-138290500D01*
X125099142Y-138290500D02*
X125027714Y-138147642D01*
X125027714Y-138147642D02*
X125027714Y-137576214D01*
X125027714Y-137576214D02*
X125099142Y-137433357D01*
X125099142Y-137433357D02*
X125242000Y-137361928D01*
X125242000Y-137361928D02*
X125527714Y-137361928D01*
X125527714Y-137361928D02*
X125670571Y-137433357D01*
X125670571Y-137433357D02*
X125742000Y-137576214D01*
X125742000Y-137576214D02*
X125742000Y-137719071D01*
X125742000Y-137719071D02*
X125027714Y-137861928D01*
X126384856Y-138361928D02*
X126384856Y-137361928D01*
X126384856Y-137504785D02*
X126456285Y-137433357D01*
X126456285Y-137433357D02*
X126599142Y-137361928D01*
X126599142Y-137361928D02*
X126813428Y-137361928D01*
X126813428Y-137361928D02*
X126956285Y-137433357D01*
X126956285Y-137433357D02*
X127027714Y-137576214D01*
X127027714Y-137576214D02*
X127027714Y-138361928D01*
X127027714Y-137576214D02*
X127099142Y-137433357D01*
X127099142Y-137433357D02*
X127241999Y-137361928D01*
X127241999Y-137361928D02*
X127456285Y-137361928D01*
X127456285Y-137361928D02*
X127599142Y-137433357D01*
X127599142Y-137433357D02*
X127670571Y-137576214D01*
X127670571Y-137576214D02*
X127670571Y-138361928D01*
X128384856Y-137361928D02*
X128384856Y-138861928D01*
X128384856Y-137433357D02*
X128527714Y-137361928D01*
X128527714Y-137361928D02*
X128813428Y-137361928D01*
X128813428Y-137361928D02*
X128956285Y-137433357D01*
X128956285Y-137433357D02*
X129027714Y-137504785D01*
X129027714Y-137504785D02*
X129099142Y-137647642D01*
X129099142Y-137647642D02*
X129099142Y-138076214D01*
X129099142Y-138076214D02*
X129027714Y-138219071D01*
X129027714Y-138219071D02*
X128956285Y-138290500D01*
X128956285Y-138290500D02*
X128813428Y-138361928D01*
X128813428Y-138361928D02*
X128527714Y-138361928D01*
X128527714Y-138361928D02*
X128384856Y-138290500D01*
D10*
X175323523Y-122722833D02*
X175704476Y-122722833D01*
X175513999Y-122913309D02*
X175513999Y-122532357D01*
D12*
X137477428Y-73557178D02*
X137406000Y-73521464D01*
X137406000Y-73521464D02*
X137298857Y-73521464D01*
X137298857Y-73521464D02*
X137191714Y-73557178D01*
X137191714Y-73557178D02*
X137120285Y-73628607D01*
X137120285Y-73628607D02*
X137084571Y-73700035D01*
X137084571Y-73700035D02*
X137048857Y-73842892D01*
X137048857Y-73842892D02*
X137048857Y-73950035D01*
X137048857Y-73950035D02*
X137084571Y-74092892D01*
X137084571Y-74092892D02*
X137120285Y-74164321D01*
X137120285Y-74164321D02*
X137191714Y-74235750D01*
X137191714Y-74235750D02*
X137298857Y-74271464D01*
X137298857Y-74271464D02*
X137370285Y-74271464D01*
X137370285Y-74271464D02*
X137477428Y-74235750D01*
X137477428Y-74235750D02*
X137513142Y-74200035D01*
X137513142Y-74200035D02*
X137513142Y-73950035D01*
X137513142Y-73950035D02*
X137370285Y-73950035D01*
X137834571Y-74271464D02*
X137834571Y-73771464D01*
X137834571Y-73914321D02*
X137870285Y-73842892D01*
X137870285Y-73842892D02*
X137906000Y-73807178D01*
X137906000Y-73807178D02*
X137977428Y-73771464D01*
X137977428Y-73771464D02*
X138048857Y-73771464D01*
X138406000Y-74271464D02*
X138334571Y-74235750D01*
X138334571Y-74235750D02*
X138298857Y-74200035D01*
X138298857Y-74200035D02*
X138263143Y-74128607D01*
X138263143Y-74128607D02*
X138263143Y-73914321D01*
X138263143Y-73914321D02*
X138298857Y-73842892D01*
X138298857Y-73842892D02*
X138334571Y-73807178D01*
X138334571Y-73807178D02*
X138406000Y-73771464D01*
X138406000Y-73771464D02*
X138513143Y-73771464D01*
X138513143Y-73771464D02*
X138584571Y-73807178D01*
X138584571Y-73807178D02*
X138620286Y-73842892D01*
X138620286Y-73842892D02*
X138656000Y-73914321D01*
X138656000Y-73914321D02*
X138656000Y-74128607D01*
X138656000Y-74128607D02*
X138620286Y-74200035D01*
X138620286Y-74200035D02*
X138584571Y-74235750D01*
X138584571Y-74235750D02*
X138513143Y-74271464D01*
X138513143Y-74271464D02*
X138406000Y-74271464D01*
X139298857Y-73771464D02*
X139298857Y-74271464D01*
X138977428Y-73771464D02*
X138977428Y-74164321D01*
X138977428Y-74164321D02*
X139013142Y-74235750D01*
X139013142Y-74235750D02*
X139084571Y-74271464D01*
X139084571Y-74271464D02*
X139191714Y-74271464D01*
X139191714Y-74271464D02*
X139263142Y-74235750D01*
X139263142Y-74235750D02*
X139298857Y-74200035D01*
X139655999Y-73771464D02*
X139655999Y-74271464D01*
X139655999Y-73842892D02*
X139691713Y-73807178D01*
X139691713Y-73807178D02*
X139763142Y-73771464D01*
X139763142Y-73771464D02*
X139870285Y-73771464D01*
X139870285Y-73771464D02*
X139941713Y-73807178D01*
X139941713Y-73807178D02*
X139977428Y-73878607D01*
X139977428Y-73878607D02*
X139977428Y-74271464D01*
X140655999Y-74271464D02*
X140655999Y-73521464D01*
X140655999Y-74235750D02*
X140584570Y-74271464D01*
X140584570Y-74271464D02*
X140441713Y-74271464D01*
X140441713Y-74271464D02*
X140370284Y-74235750D01*
X140370284Y-74235750D02*
X140334570Y-74200035D01*
X140334570Y-74200035D02*
X140298856Y-74128607D01*
X140298856Y-74128607D02*
X140298856Y-73914321D01*
X140298856Y-73914321D02*
X140334570Y-73842892D01*
X140334570Y-73842892D02*
X140370284Y-73807178D01*
X140370284Y-73807178D02*
X140441713Y-73771464D01*
X140441713Y-73771464D02*
X140584570Y-73771464D01*
X140584570Y-73771464D02*
X140655999Y-73807178D01*
X141548856Y-74235750D02*
X141655999Y-74271464D01*
X141655999Y-74271464D02*
X141834570Y-74271464D01*
X141834570Y-74271464D02*
X141905999Y-74235750D01*
X141905999Y-74235750D02*
X141941713Y-74200035D01*
X141941713Y-74200035D02*
X141977427Y-74128607D01*
X141977427Y-74128607D02*
X141977427Y-74057178D01*
X141977427Y-74057178D02*
X141941713Y-73985750D01*
X141941713Y-73985750D02*
X141905999Y-73950035D01*
X141905999Y-73950035D02*
X141834570Y-73914321D01*
X141834570Y-73914321D02*
X141691713Y-73878607D01*
X141691713Y-73878607D02*
X141620284Y-73842892D01*
X141620284Y-73842892D02*
X141584570Y-73807178D01*
X141584570Y-73807178D02*
X141548856Y-73735750D01*
X141548856Y-73735750D02*
X141548856Y-73664321D01*
X141548856Y-73664321D02*
X141584570Y-73592892D01*
X141584570Y-73592892D02*
X141620284Y-73557178D01*
X141620284Y-73557178D02*
X141691713Y-73521464D01*
X141691713Y-73521464D02*
X141870284Y-73521464D01*
X141870284Y-73521464D02*
X141977427Y-73557178D01*
X142298856Y-74271464D02*
X142298856Y-73771464D01*
X142298856Y-73521464D02*
X142263142Y-73557178D01*
X142263142Y-73557178D02*
X142298856Y-73592892D01*
X142298856Y-73592892D02*
X142334570Y-73557178D01*
X142334570Y-73557178D02*
X142298856Y-73521464D01*
X142298856Y-73521464D02*
X142298856Y-73592892D01*
X142977428Y-74271464D02*
X142977428Y-73521464D01*
X142977428Y-74235750D02*
X142905999Y-74271464D01*
X142905999Y-74271464D02*
X142763142Y-74271464D01*
X142763142Y-74271464D02*
X142691713Y-74235750D01*
X142691713Y-74235750D02*
X142655999Y-74200035D01*
X142655999Y-74200035D02*
X142620285Y-74128607D01*
X142620285Y-74128607D02*
X142620285Y-73914321D01*
X142620285Y-73914321D02*
X142655999Y-73842892D01*
X142655999Y-73842892D02*
X142691713Y-73807178D01*
X142691713Y-73807178D02*
X142763142Y-73771464D01*
X142763142Y-73771464D02*
X142905999Y-73771464D01*
X142905999Y-73771464D02*
X142977428Y-73807178D01*
X143620284Y-74235750D02*
X143548856Y-74271464D01*
X143548856Y-74271464D02*
X143405999Y-74271464D01*
X143405999Y-74271464D02*
X143334570Y-74235750D01*
X143334570Y-74235750D02*
X143298856Y-74164321D01*
X143298856Y-74164321D02*
X143298856Y-73878607D01*
X143298856Y-73878607D02*
X143334570Y-73807178D01*
X143334570Y-73807178D02*
X143405999Y-73771464D01*
X143405999Y-73771464D02*
X143548856Y-73771464D01*
X143548856Y-73771464D02*
X143620284Y-73807178D01*
X143620284Y-73807178D02*
X143655999Y-73878607D01*
X143655999Y-73878607D02*
X143655999Y-73950035D01*
X143655999Y-73950035D02*
X143298856Y-74021464D01*
X144548856Y-74271464D02*
X144548856Y-73521464D01*
X144548856Y-73521464D02*
X144834570Y-73521464D01*
X144834570Y-73521464D02*
X144905999Y-73557178D01*
X144905999Y-73557178D02*
X144941713Y-73592892D01*
X144941713Y-73592892D02*
X144977427Y-73664321D01*
X144977427Y-73664321D02*
X144977427Y-73771464D01*
X144977427Y-73771464D02*
X144941713Y-73842892D01*
X144941713Y-73842892D02*
X144905999Y-73878607D01*
X144905999Y-73878607D02*
X144834570Y-73914321D01*
X144834570Y-73914321D02*
X144548856Y-73914321D01*
X145405999Y-74271464D02*
X145334570Y-74235750D01*
X145334570Y-74235750D02*
X145298856Y-74200035D01*
X145298856Y-74200035D02*
X145263142Y-74128607D01*
X145263142Y-74128607D02*
X145263142Y-73914321D01*
X145263142Y-73914321D02*
X145298856Y-73842892D01*
X145298856Y-73842892D02*
X145334570Y-73807178D01*
X145334570Y-73807178D02*
X145405999Y-73771464D01*
X145405999Y-73771464D02*
X145513142Y-73771464D01*
X145513142Y-73771464D02*
X145584570Y-73807178D01*
X145584570Y-73807178D02*
X145620285Y-73842892D01*
X145620285Y-73842892D02*
X145655999Y-73914321D01*
X145655999Y-73914321D02*
X145655999Y-74128607D01*
X145655999Y-74128607D02*
X145620285Y-74200035D01*
X145620285Y-74200035D02*
X145584570Y-74235750D01*
X145584570Y-74235750D02*
X145513142Y-74271464D01*
X145513142Y-74271464D02*
X145405999Y-74271464D01*
X145905998Y-73771464D02*
X146048856Y-74271464D01*
X146048856Y-74271464D02*
X146191713Y-73914321D01*
X146191713Y-73914321D02*
X146334570Y-74271464D01*
X146334570Y-74271464D02*
X146477427Y-73771464D01*
X147048855Y-74235750D02*
X146977427Y-74271464D01*
X146977427Y-74271464D02*
X146834570Y-74271464D01*
X146834570Y-74271464D02*
X146763141Y-74235750D01*
X146763141Y-74235750D02*
X146727427Y-74164321D01*
X146727427Y-74164321D02*
X146727427Y-73878607D01*
X146727427Y-73878607D02*
X146763141Y-73807178D01*
X146763141Y-73807178D02*
X146834570Y-73771464D01*
X146834570Y-73771464D02*
X146977427Y-73771464D01*
X146977427Y-73771464D02*
X147048855Y-73807178D01*
X147048855Y-73807178D02*
X147084570Y-73878607D01*
X147084570Y-73878607D02*
X147084570Y-73950035D01*
X147084570Y-73950035D02*
X146727427Y-74021464D01*
X147405998Y-74271464D02*
X147405998Y-73771464D01*
X147405998Y-73914321D02*
X147441712Y-73842892D01*
X147441712Y-73842892D02*
X147477427Y-73807178D01*
X147477427Y-73807178D02*
X147548855Y-73771464D01*
X147548855Y-73771464D02*
X147620284Y-73771464D01*
X137513142Y-75415035D02*
X137477428Y-75450750D01*
X137477428Y-75450750D02*
X137370285Y-75486464D01*
X137370285Y-75486464D02*
X137298857Y-75486464D01*
X137298857Y-75486464D02*
X137191714Y-75450750D01*
X137191714Y-75450750D02*
X137120285Y-75379321D01*
X137120285Y-75379321D02*
X137084571Y-75307892D01*
X137084571Y-75307892D02*
X137048857Y-75165035D01*
X137048857Y-75165035D02*
X137048857Y-75057892D01*
X137048857Y-75057892D02*
X137084571Y-74915035D01*
X137084571Y-74915035D02*
X137120285Y-74843607D01*
X137120285Y-74843607D02*
X137191714Y-74772178D01*
X137191714Y-74772178D02*
X137298857Y-74736464D01*
X137298857Y-74736464D02*
X137370285Y-74736464D01*
X137370285Y-74736464D02*
X137477428Y-74772178D01*
X137477428Y-74772178D02*
X137513142Y-74807892D01*
X137941714Y-75486464D02*
X137870285Y-75450750D01*
X137870285Y-75450750D02*
X137834571Y-75415035D01*
X137834571Y-75415035D02*
X137798857Y-75343607D01*
X137798857Y-75343607D02*
X137798857Y-75129321D01*
X137798857Y-75129321D02*
X137834571Y-75057892D01*
X137834571Y-75057892D02*
X137870285Y-75022178D01*
X137870285Y-75022178D02*
X137941714Y-74986464D01*
X137941714Y-74986464D02*
X138048857Y-74986464D01*
X138048857Y-74986464D02*
X138120285Y-75022178D01*
X138120285Y-75022178D02*
X138156000Y-75057892D01*
X138156000Y-75057892D02*
X138191714Y-75129321D01*
X138191714Y-75129321D02*
X138191714Y-75343607D01*
X138191714Y-75343607D02*
X138156000Y-75415035D01*
X138156000Y-75415035D02*
X138120285Y-75450750D01*
X138120285Y-75450750D02*
X138048857Y-75486464D01*
X138048857Y-75486464D02*
X137941714Y-75486464D01*
X138513142Y-74986464D02*
X138513142Y-75486464D01*
X138513142Y-75057892D02*
X138548856Y-75022178D01*
X138548856Y-75022178D02*
X138620285Y-74986464D01*
X138620285Y-74986464D02*
X138727428Y-74986464D01*
X138727428Y-74986464D02*
X138798856Y-75022178D01*
X138798856Y-75022178D02*
X138834571Y-75093607D01*
X138834571Y-75093607D02*
X138834571Y-75486464D01*
X139120284Y-74986464D02*
X139298856Y-75486464D01*
X139298856Y-75486464D02*
X139477427Y-74986464D01*
X140048856Y-75450750D02*
X139977428Y-75486464D01*
X139977428Y-75486464D02*
X139834571Y-75486464D01*
X139834571Y-75486464D02*
X139763142Y-75450750D01*
X139763142Y-75450750D02*
X139727428Y-75379321D01*
X139727428Y-75379321D02*
X139727428Y-75093607D01*
X139727428Y-75093607D02*
X139763142Y-75022178D01*
X139763142Y-75022178D02*
X139834571Y-74986464D01*
X139834571Y-74986464D02*
X139977428Y-74986464D01*
X139977428Y-74986464D02*
X140048856Y-75022178D01*
X140048856Y-75022178D02*
X140084571Y-75093607D01*
X140084571Y-75093607D02*
X140084571Y-75165035D01*
X140084571Y-75165035D02*
X139727428Y-75236464D01*
X140405999Y-75486464D02*
X140405999Y-74986464D01*
X140405999Y-75129321D02*
X140441713Y-75057892D01*
X140441713Y-75057892D02*
X140477428Y-75022178D01*
X140477428Y-75022178D02*
X140548856Y-74986464D01*
X140548856Y-74986464D02*
X140620285Y-74986464D01*
X140763142Y-74986464D02*
X141048856Y-74986464D01*
X140870285Y-74736464D02*
X140870285Y-75379321D01*
X140870285Y-75379321D02*
X140905999Y-75450750D01*
X140905999Y-75450750D02*
X140977428Y-75486464D01*
X140977428Y-75486464D02*
X141048856Y-75486464D01*
X141584570Y-75450750D02*
X141513142Y-75486464D01*
X141513142Y-75486464D02*
X141370285Y-75486464D01*
X141370285Y-75486464D02*
X141298856Y-75450750D01*
X141298856Y-75450750D02*
X141263142Y-75379321D01*
X141263142Y-75379321D02*
X141263142Y-75093607D01*
X141263142Y-75093607D02*
X141298856Y-75022178D01*
X141298856Y-75022178D02*
X141370285Y-74986464D01*
X141370285Y-74986464D02*
X141513142Y-74986464D01*
X141513142Y-74986464D02*
X141584570Y-75022178D01*
X141584570Y-75022178D02*
X141620285Y-75093607D01*
X141620285Y-75093607D02*
X141620285Y-75165035D01*
X141620285Y-75165035D02*
X141263142Y-75236464D01*
X141941713Y-75486464D02*
X141941713Y-74986464D01*
X141941713Y-75129321D02*
X141977427Y-75057892D01*
X141977427Y-75057892D02*
X142013142Y-75022178D01*
X142013142Y-75022178D02*
X142084570Y-74986464D01*
X142084570Y-74986464D02*
X142155999Y-74986464D01*
X143227428Y-75093607D02*
X143334571Y-75129321D01*
X143334571Y-75129321D02*
X143370285Y-75165035D01*
X143370285Y-75165035D02*
X143405999Y-75236464D01*
X143405999Y-75236464D02*
X143405999Y-75343607D01*
X143405999Y-75343607D02*
X143370285Y-75415035D01*
X143370285Y-75415035D02*
X143334571Y-75450750D01*
X143334571Y-75450750D02*
X143263142Y-75486464D01*
X143263142Y-75486464D02*
X142977428Y-75486464D01*
X142977428Y-75486464D02*
X142977428Y-74736464D01*
X142977428Y-74736464D02*
X143227428Y-74736464D01*
X143227428Y-74736464D02*
X143298857Y-74772178D01*
X143298857Y-74772178D02*
X143334571Y-74807892D01*
X143334571Y-74807892D02*
X143370285Y-74879321D01*
X143370285Y-74879321D02*
X143370285Y-74950750D01*
X143370285Y-74950750D02*
X143334571Y-75022178D01*
X143334571Y-75022178D02*
X143298857Y-75057892D01*
X143298857Y-75057892D02*
X143227428Y-75093607D01*
X143227428Y-75093607D02*
X142977428Y-75093607D01*
X143834571Y-75486464D02*
X143763142Y-75450750D01*
X143763142Y-75450750D02*
X143727428Y-75415035D01*
X143727428Y-75415035D02*
X143691714Y-75343607D01*
X143691714Y-75343607D02*
X143691714Y-75129321D01*
X143691714Y-75129321D02*
X143727428Y-75057892D01*
X143727428Y-75057892D02*
X143763142Y-75022178D01*
X143763142Y-75022178D02*
X143834571Y-74986464D01*
X143834571Y-74986464D02*
X143941714Y-74986464D01*
X143941714Y-74986464D02*
X144013142Y-75022178D01*
X144013142Y-75022178D02*
X144048857Y-75057892D01*
X144048857Y-75057892D02*
X144084571Y-75129321D01*
X144084571Y-75129321D02*
X144084571Y-75343607D01*
X144084571Y-75343607D02*
X144048857Y-75415035D01*
X144048857Y-75415035D02*
X144013142Y-75450750D01*
X144013142Y-75450750D02*
X143941714Y-75486464D01*
X143941714Y-75486464D02*
X143834571Y-75486464D01*
X144727428Y-75486464D02*
X144727428Y-75093607D01*
X144727428Y-75093607D02*
X144691713Y-75022178D01*
X144691713Y-75022178D02*
X144620285Y-74986464D01*
X144620285Y-74986464D02*
X144477428Y-74986464D01*
X144477428Y-74986464D02*
X144405999Y-75022178D01*
X144727428Y-75450750D02*
X144655999Y-75486464D01*
X144655999Y-75486464D02*
X144477428Y-75486464D01*
X144477428Y-75486464D02*
X144405999Y-75450750D01*
X144405999Y-75450750D02*
X144370285Y-75379321D01*
X144370285Y-75379321D02*
X144370285Y-75307892D01*
X144370285Y-75307892D02*
X144405999Y-75236464D01*
X144405999Y-75236464D02*
X144477428Y-75200750D01*
X144477428Y-75200750D02*
X144655999Y-75200750D01*
X144655999Y-75200750D02*
X144727428Y-75165035D01*
X145084570Y-75486464D02*
X145084570Y-74986464D01*
X145084570Y-75129321D02*
X145120284Y-75057892D01*
X145120284Y-75057892D02*
X145155999Y-75022178D01*
X145155999Y-75022178D02*
X145227427Y-74986464D01*
X145227427Y-74986464D02*
X145298856Y-74986464D01*
X145870285Y-75486464D02*
X145870285Y-74736464D01*
X145870285Y-75450750D02*
X145798856Y-75486464D01*
X145798856Y-75486464D02*
X145655999Y-75486464D01*
X145655999Y-75486464D02*
X145584570Y-75450750D01*
X145584570Y-75450750D02*
X145548856Y-75415035D01*
X145548856Y-75415035D02*
X145513142Y-75343607D01*
X145513142Y-75343607D02*
X145513142Y-75129321D01*
X145513142Y-75129321D02*
X145548856Y-75057892D01*
X145548856Y-75057892D02*
X145584570Y-75022178D01*
X145584570Y-75022178D02*
X145655999Y-74986464D01*
X145655999Y-74986464D02*
X145798856Y-74986464D01*
X145798856Y-74986464D02*
X145870285Y-75022178D01*
X137048857Y-76487178D02*
X137406000Y-76487178D01*
X136977428Y-76701464D02*
X137227428Y-75951464D01*
X137227428Y-75951464D02*
X137477428Y-76701464D01*
X137727428Y-76201464D02*
X137727428Y-76951464D01*
X137727428Y-76237178D02*
X137798857Y-76201464D01*
X137798857Y-76201464D02*
X137941714Y-76201464D01*
X137941714Y-76201464D02*
X138013142Y-76237178D01*
X138013142Y-76237178D02*
X138048857Y-76272892D01*
X138048857Y-76272892D02*
X138084571Y-76344321D01*
X138084571Y-76344321D02*
X138084571Y-76558607D01*
X138084571Y-76558607D02*
X138048857Y-76630035D01*
X138048857Y-76630035D02*
X138013142Y-76665750D01*
X138013142Y-76665750D02*
X137941714Y-76701464D01*
X137941714Y-76701464D02*
X137798857Y-76701464D01*
X137798857Y-76701464D02*
X137727428Y-76665750D01*
X138405999Y-76701464D02*
X138405999Y-76201464D01*
X138405999Y-76344321D02*
X138441713Y-76272892D01*
X138441713Y-76272892D02*
X138477428Y-76237178D01*
X138477428Y-76237178D02*
X138548856Y-76201464D01*
X138548856Y-76201464D02*
X138620285Y-76201464D01*
X139406000Y-76022892D02*
X139441714Y-75987178D01*
X139441714Y-75987178D02*
X139513143Y-75951464D01*
X139513143Y-75951464D02*
X139691714Y-75951464D01*
X139691714Y-75951464D02*
X139763143Y-75987178D01*
X139763143Y-75987178D02*
X139798857Y-76022892D01*
X139798857Y-76022892D02*
X139834571Y-76094321D01*
X139834571Y-76094321D02*
X139834571Y-76165750D01*
X139834571Y-76165750D02*
X139798857Y-76272892D01*
X139798857Y-76272892D02*
X139370285Y-76701464D01*
X139370285Y-76701464D02*
X139834571Y-76701464D01*
X140298857Y-75951464D02*
X140370286Y-75951464D01*
X140370286Y-75951464D02*
X140441714Y-75987178D01*
X140441714Y-75987178D02*
X140477429Y-76022892D01*
X140477429Y-76022892D02*
X140513143Y-76094321D01*
X140513143Y-76094321D02*
X140548857Y-76237178D01*
X140548857Y-76237178D02*
X140548857Y-76415750D01*
X140548857Y-76415750D02*
X140513143Y-76558607D01*
X140513143Y-76558607D02*
X140477429Y-76630035D01*
X140477429Y-76630035D02*
X140441714Y-76665750D01*
X140441714Y-76665750D02*
X140370286Y-76701464D01*
X140370286Y-76701464D02*
X140298857Y-76701464D01*
X140298857Y-76701464D02*
X140227429Y-76665750D01*
X140227429Y-76665750D02*
X140191714Y-76630035D01*
X140191714Y-76630035D02*
X140156000Y-76558607D01*
X140156000Y-76558607D02*
X140120286Y-76415750D01*
X140120286Y-76415750D02*
X140120286Y-76237178D01*
X140120286Y-76237178D02*
X140156000Y-76094321D01*
X140156000Y-76094321D02*
X140191714Y-76022892D01*
X140191714Y-76022892D02*
X140227429Y-75987178D01*
X140227429Y-75987178D02*
X140298857Y-75951464D01*
X140834572Y-76022892D02*
X140870286Y-75987178D01*
X140870286Y-75987178D02*
X140941715Y-75951464D01*
X140941715Y-75951464D02*
X141120286Y-75951464D01*
X141120286Y-75951464D02*
X141191715Y-75987178D01*
X141191715Y-75987178D02*
X141227429Y-76022892D01*
X141227429Y-76022892D02*
X141263143Y-76094321D01*
X141263143Y-76094321D02*
X141263143Y-76165750D01*
X141263143Y-76165750D02*
X141227429Y-76272892D01*
X141227429Y-76272892D02*
X140798857Y-76701464D01*
X140798857Y-76701464D02*
X141263143Y-76701464D01*
X141513143Y-75951464D02*
X141977429Y-75951464D01*
X141977429Y-75951464D02*
X141727429Y-76237178D01*
X141727429Y-76237178D02*
X141834572Y-76237178D01*
X141834572Y-76237178D02*
X141906001Y-76272892D01*
X141906001Y-76272892D02*
X141941715Y-76308607D01*
X141941715Y-76308607D02*
X141977429Y-76380035D01*
X141977429Y-76380035D02*
X141977429Y-76558607D01*
X141977429Y-76558607D02*
X141941715Y-76630035D01*
X141941715Y-76630035D02*
X141906001Y-76665750D01*
X141906001Y-76665750D02*
X141834572Y-76701464D01*
X141834572Y-76701464D02*
X141620286Y-76701464D01*
X141620286Y-76701464D02*
X141548858Y-76665750D01*
X141548858Y-76665750D02*
X141513143Y-76630035D01*
X137084571Y-79131464D02*
X137084571Y-78381464D01*
X137084571Y-78381464D02*
X137263142Y-78381464D01*
X137263142Y-78381464D02*
X137370285Y-78417178D01*
X137370285Y-78417178D02*
X137441714Y-78488607D01*
X137441714Y-78488607D02*
X137477428Y-78560035D01*
X137477428Y-78560035D02*
X137513142Y-78702892D01*
X137513142Y-78702892D02*
X137513142Y-78810035D01*
X137513142Y-78810035D02*
X137477428Y-78952892D01*
X137477428Y-78952892D02*
X137441714Y-79024321D01*
X137441714Y-79024321D02*
X137370285Y-79095750D01*
X137370285Y-79095750D02*
X137263142Y-79131464D01*
X137263142Y-79131464D02*
X137084571Y-79131464D01*
X137941714Y-79131464D02*
X137870285Y-79095750D01*
X137870285Y-79095750D02*
X137834571Y-79060035D01*
X137834571Y-79060035D02*
X137798857Y-78988607D01*
X137798857Y-78988607D02*
X137798857Y-78774321D01*
X137798857Y-78774321D02*
X137834571Y-78702892D01*
X137834571Y-78702892D02*
X137870285Y-78667178D01*
X137870285Y-78667178D02*
X137941714Y-78631464D01*
X137941714Y-78631464D02*
X138048857Y-78631464D01*
X138048857Y-78631464D02*
X138120285Y-78667178D01*
X138120285Y-78667178D02*
X138156000Y-78702892D01*
X138156000Y-78702892D02*
X138191714Y-78774321D01*
X138191714Y-78774321D02*
X138191714Y-78988607D01*
X138191714Y-78988607D02*
X138156000Y-79060035D01*
X138156000Y-79060035D02*
X138120285Y-79095750D01*
X138120285Y-79095750D02*
X138048857Y-79131464D01*
X138048857Y-79131464D02*
X137941714Y-79131464D01*
X138513142Y-79131464D02*
X138513142Y-78631464D01*
X138513142Y-78702892D02*
X138548856Y-78667178D01*
X138548856Y-78667178D02*
X138620285Y-78631464D01*
X138620285Y-78631464D02*
X138727428Y-78631464D01*
X138727428Y-78631464D02*
X138798856Y-78667178D01*
X138798856Y-78667178D02*
X138834571Y-78738607D01*
X138834571Y-78738607D02*
X138834571Y-79131464D01*
X138834571Y-78738607D02*
X138870285Y-78667178D01*
X138870285Y-78667178D02*
X138941713Y-78631464D01*
X138941713Y-78631464D02*
X139048856Y-78631464D01*
X139048856Y-78631464D02*
X139120285Y-78667178D01*
X139120285Y-78667178D02*
X139155999Y-78738607D01*
X139155999Y-78738607D02*
X139155999Y-79131464D01*
X139798856Y-79095750D02*
X139727428Y-79131464D01*
X139727428Y-79131464D02*
X139584571Y-79131464D01*
X139584571Y-79131464D02*
X139513142Y-79095750D01*
X139513142Y-79095750D02*
X139477428Y-79024321D01*
X139477428Y-79024321D02*
X139477428Y-78738607D01*
X139477428Y-78738607D02*
X139513142Y-78667178D01*
X139513142Y-78667178D02*
X139584571Y-78631464D01*
X139584571Y-78631464D02*
X139727428Y-78631464D01*
X139727428Y-78631464D02*
X139798856Y-78667178D01*
X139798856Y-78667178D02*
X139834571Y-78738607D01*
X139834571Y-78738607D02*
X139834571Y-78810035D01*
X139834571Y-78810035D02*
X139477428Y-78881464D01*
X140155999Y-78631464D02*
X140155999Y-79131464D01*
X140155999Y-78702892D02*
X140191713Y-78667178D01*
X140191713Y-78667178D02*
X140263142Y-78631464D01*
X140263142Y-78631464D02*
X140370285Y-78631464D01*
X140370285Y-78631464D02*
X140441713Y-78667178D01*
X140441713Y-78667178D02*
X140477428Y-78738607D01*
X140477428Y-78738607D02*
X140477428Y-79131464D01*
X140834570Y-79131464D02*
X140834570Y-78631464D01*
X140834570Y-78381464D02*
X140798856Y-78417178D01*
X140798856Y-78417178D02*
X140834570Y-78452892D01*
X140834570Y-78452892D02*
X140870284Y-78417178D01*
X140870284Y-78417178D02*
X140834570Y-78381464D01*
X140834570Y-78381464D02*
X140834570Y-78452892D01*
X141513142Y-79095750D02*
X141441713Y-79131464D01*
X141441713Y-79131464D02*
X141298856Y-79131464D01*
X141298856Y-79131464D02*
X141227427Y-79095750D01*
X141227427Y-79095750D02*
X141191713Y-79060035D01*
X141191713Y-79060035D02*
X141155999Y-78988607D01*
X141155999Y-78988607D02*
X141155999Y-78774321D01*
X141155999Y-78774321D02*
X141191713Y-78702892D01*
X141191713Y-78702892D02*
X141227427Y-78667178D01*
X141227427Y-78667178D02*
X141298856Y-78631464D01*
X141298856Y-78631464D02*
X141441713Y-78631464D01*
X141441713Y-78631464D02*
X141513142Y-78667178D01*
X142405999Y-79131464D02*
X142405999Y-78381464D01*
X142405999Y-78738607D02*
X142834570Y-78738607D01*
X142834570Y-79131464D02*
X142834570Y-78381464D01*
X143513142Y-79131464D02*
X143513142Y-78738607D01*
X143513142Y-78738607D02*
X143477427Y-78667178D01*
X143477427Y-78667178D02*
X143405999Y-78631464D01*
X143405999Y-78631464D02*
X143263142Y-78631464D01*
X143263142Y-78631464D02*
X143191713Y-78667178D01*
X143513142Y-79095750D02*
X143441713Y-79131464D01*
X143441713Y-79131464D02*
X143263142Y-79131464D01*
X143263142Y-79131464D02*
X143191713Y-79095750D01*
X143191713Y-79095750D02*
X143155999Y-79024321D01*
X143155999Y-79024321D02*
X143155999Y-78952892D01*
X143155999Y-78952892D02*
X143191713Y-78881464D01*
X143191713Y-78881464D02*
X143263142Y-78845750D01*
X143263142Y-78845750D02*
X143441713Y-78845750D01*
X143441713Y-78845750D02*
X143513142Y-78810035D01*
X143870284Y-79131464D02*
X143870284Y-78631464D01*
X143870284Y-78702892D02*
X143905998Y-78667178D01*
X143905998Y-78667178D02*
X143977427Y-78631464D01*
X143977427Y-78631464D02*
X144084570Y-78631464D01*
X144084570Y-78631464D02*
X144155998Y-78667178D01*
X144155998Y-78667178D02*
X144191713Y-78738607D01*
X144191713Y-78738607D02*
X144191713Y-79131464D01*
X144191713Y-78738607D02*
X144227427Y-78667178D01*
X144227427Y-78667178D02*
X144298855Y-78631464D01*
X144298855Y-78631464D02*
X144405998Y-78631464D01*
X144405998Y-78631464D02*
X144477427Y-78667178D01*
X144477427Y-78667178D02*
X144513141Y-78738607D01*
X144513141Y-78738607D02*
X144513141Y-79131464D01*
X144870284Y-78631464D02*
X144870284Y-79381464D01*
X144870284Y-78667178D02*
X144941713Y-78631464D01*
X144941713Y-78631464D02*
X145084570Y-78631464D01*
X145084570Y-78631464D02*
X145155998Y-78667178D01*
X145155998Y-78667178D02*
X145191713Y-78702892D01*
X145191713Y-78702892D02*
X145227427Y-78774321D01*
X145227427Y-78774321D02*
X145227427Y-78988607D01*
X145227427Y-78988607D02*
X145191713Y-79060035D01*
X145191713Y-79060035D02*
X145155998Y-79095750D01*
X145155998Y-79095750D02*
X145084570Y-79131464D01*
X145084570Y-79131464D02*
X144941713Y-79131464D01*
X144941713Y-79131464D02*
X144870284Y-79095750D01*
X145513141Y-79095750D02*
X145584569Y-79131464D01*
X145584569Y-79131464D02*
X145727426Y-79131464D01*
X145727426Y-79131464D02*
X145798855Y-79095750D01*
X145798855Y-79095750D02*
X145834569Y-79024321D01*
X145834569Y-79024321D02*
X145834569Y-78988607D01*
X145834569Y-78988607D02*
X145798855Y-78917178D01*
X145798855Y-78917178D02*
X145727426Y-78881464D01*
X145727426Y-78881464D02*
X145620284Y-78881464D01*
X145620284Y-78881464D02*
X145548855Y-78845750D01*
X145548855Y-78845750D02*
X145513141Y-78774321D01*
X145513141Y-78774321D02*
X145513141Y-78738607D01*
X145513141Y-78738607D02*
X145548855Y-78667178D01*
X145548855Y-78667178D02*
X145620284Y-78631464D01*
X145620284Y-78631464D02*
X145727426Y-78631464D01*
X145727426Y-78631464D02*
X145798855Y-78667178D01*
X146263141Y-79131464D02*
X146191712Y-79095750D01*
X146191712Y-79095750D02*
X146155998Y-79060035D01*
X146155998Y-79060035D02*
X146120284Y-78988607D01*
X146120284Y-78988607D02*
X146120284Y-78774321D01*
X146120284Y-78774321D02*
X146155998Y-78702892D01*
X146155998Y-78702892D02*
X146191712Y-78667178D01*
X146191712Y-78667178D02*
X146263141Y-78631464D01*
X146263141Y-78631464D02*
X146370284Y-78631464D01*
X146370284Y-78631464D02*
X146441712Y-78667178D01*
X146441712Y-78667178D02*
X146477427Y-78702892D01*
X146477427Y-78702892D02*
X146513141Y-78774321D01*
X146513141Y-78774321D02*
X146513141Y-78988607D01*
X146513141Y-78988607D02*
X146477427Y-79060035D01*
X146477427Y-79060035D02*
X146441712Y-79095750D01*
X146441712Y-79095750D02*
X146370284Y-79131464D01*
X146370284Y-79131464D02*
X146263141Y-79131464D01*
X146834569Y-78631464D02*
X146834569Y-79131464D01*
X146834569Y-78702892D02*
X146870283Y-78667178D01*
X146870283Y-78667178D02*
X146941712Y-78631464D01*
X146941712Y-78631464D02*
X147048855Y-78631464D01*
X147048855Y-78631464D02*
X147120283Y-78667178D01*
X147120283Y-78667178D02*
X147155998Y-78738607D01*
X147155998Y-78738607D02*
X147155998Y-79131464D01*
X137084571Y-79953607D02*
X137334571Y-79953607D01*
X137441714Y-80346464D02*
X137084571Y-80346464D01*
X137084571Y-80346464D02*
X137084571Y-79596464D01*
X137084571Y-79596464D02*
X137441714Y-79596464D01*
X137870285Y-80346464D02*
X137798856Y-80310750D01*
X137798856Y-80310750D02*
X137763142Y-80239321D01*
X137763142Y-80239321D02*
X137763142Y-79596464D01*
X138155999Y-80346464D02*
X138155999Y-79846464D01*
X138155999Y-79596464D02*
X138120285Y-79632178D01*
X138120285Y-79632178D02*
X138155999Y-79667892D01*
X138155999Y-79667892D02*
X138191713Y-79632178D01*
X138191713Y-79632178D02*
X138155999Y-79596464D01*
X138155999Y-79596464D02*
X138155999Y-79667892D01*
X138834571Y-80346464D02*
X138834571Y-79953607D01*
X138834571Y-79953607D02*
X138798856Y-79882178D01*
X138798856Y-79882178D02*
X138727428Y-79846464D01*
X138727428Y-79846464D02*
X138584571Y-79846464D01*
X138584571Y-79846464D02*
X138513142Y-79882178D01*
X138834571Y-80310750D02*
X138763142Y-80346464D01*
X138763142Y-80346464D02*
X138584571Y-80346464D01*
X138584571Y-80346464D02*
X138513142Y-80310750D01*
X138513142Y-80310750D02*
X138477428Y-80239321D01*
X138477428Y-80239321D02*
X138477428Y-80167892D01*
X138477428Y-80167892D02*
X138513142Y-80096464D01*
X138513142Y-80096464D02*
X138584571Y-80060750D01*
X138584571Y-80060750D02*
X138763142Y-80060750D01*
X138763142Y-80060750D02*
X138834571Y-80025035D01*
X139155999Y-80310750D02*
X139227427Y-80346464D01*
X139227427Y-80346464D02*
X139370284Y-80346464D01*
X139370284Y-80346464D02*
X139441713Y-80310750D01*
X139441713Y-80310750D02*
X139477427Y-80239321D01*
X139477427Y-80239321D02*
X139477427Y-80203607D01*
X139477427Y-80203607D02*
X139441713Y-80132178D01*
X139441713Y-80132178D02*
X139370284Y-80096464D01*
X139370284Y-80096464D02*
X139263142Y-80096464D01*
X139263142Y-80096464D02*
X139191713Y-80060750D01*
X139191713Y-80060750D02*
X139155999Y-79989321D01*
X139155999Y-79989321D02*
X139155999Y-79953607D01*
X139155999Y-79953607D02*
X139191713Y-79882178D01*
X139191713Y-79882178D02*
X139263142Y-79846464D01*
X139263142Y-79846464D02*
X139370284Y-79846464D01*
X139370284Y-79846464D02*
X139441713Y-79882178D01*
X140370285Y-80346464D02*
X140370285Y-79596464D01*
X140798856Y-80346464D02*
X140477428Y-79917892D01*
X140798856Y-79596464D02*
X140370285Y-80025035D01*
X141227428Y-80346464D02*
X141155999Y-80310750D01*
X141155999Y-80310750D02*
X141120285Y-80275035D01*
X141120285Y-80275035D02*
X141084571Y-80203607D01*
X141084571Y-80203607D02*
X141084571Y-79989321D01*
X141084571Y-79989321D02*
X141120285Y-79917892D01*
X141120285Y-79917892D02*
X141155999Y-79882178D01*
X141155999Y-79882178D02*
X141227428Y-79846464D01*
X141227428Y-79846464D02*
X141334571Y-79846464D01*
X141334571Y-79846464D02*
X141405999Y-79882178D01*
X141405999Y-79882178D02*
X141441714Y-79917892D01*
X141441714Y-79917892D02*
X141477428Y-79989321D01*
X141477428Y-79989321D02*
X141477428Y-80203607D01*
X141477428Y-80203607D02*
X141441714Y-80275035D01*
X141441714Y-80275035D02*
X141405999Y-80310750D01*
X141405999Y-80310750D02*
X141334571Y-80346464D01*
X141334571Y-80346464D02*
X141227428Y-80346464D01*
X142120285Y-79846464D02*
X142120285Y-80346464D01*
X141798856Y-79846464D02*
X141798856Y-80239321D01*
X141798856Y-80239321D02*
X141834570Y-80310750D01*
X141834570Y-80310750D02*
X141905999Y-80346464D01*
X141905999Y-80346464D02*
X142013142Y-80346464D01*
X142013142Y-80346464D02*
X142084570Y-80310750D01*
X142084570Y-80310750D02*
X142120285Y-80275035D01*
X142477427Y-79846464D02*
X142477427Y-80346464D01*
X142477427Y-79917892D02*
X142513141Y-79882178D01*
X142513141Y-79882178D02*
X142584570Y-79846464D01*
X142584570Y-79846464D02*
X142691713Y-79846464D01*
X142691713Y-79846464D02*
X142763141Y-79882178D01*
X142763141Y-79882178D02*
X142798856Y-79953607D01*
X142798856Y-79953607D02*
X142798856Y-80346464D01*
X143048855Y-79846464D02*
X143334569Y-79846464D01*
X143155998Y-79596464D02*
X143155998Y-80239321D01*
X143155998Y-80239321D02*
X143191712Y-80310750D01*
X143191712Y-80310750D02*
X143263141Y-80346464D01*
X143263141Y-80346464D02*
X143334569Y-80346464D01*
X143691712Y-80346464D02*
X143620283Y-80310750D01*
X143620283Y-80310750D02*
X143584569Y-80275035D01*
X143584569Y-80275035D02*
X143548855Y-80203607D01*
X143548855Y-80203607D02*
X143548855Y-79989321D01*
X143548855Y-79989321D02*
X143584569Y-79917892D01*
X143584569Y-79917892D02*
X143620283Y-79882178D01*
X143620283Y-79882178D02*
X143691712Y-79846464D01*
X143691712Y-79846464D02*
X143798855Y-79846464D01*
X143798855Y-79846464D02*
X143870283Y-79882178D01*
X143870283Y-79882178D02*
X143905998Y-79917892D01*
X143905998Y-79917892D02*
X143941712Y-79989321D01*
X143941712Y-79989321D02*
X143941712Y-80203607D01*
X143941712Y-80203607D02*
X143905998Y-80275035D01*
X143905998Y-80275035D02*
X143870283Y-80310750D01*
X143870283Y-80310750D02*
X143798855Y-80346464D01*
X143798855Y-80346464D02*
X143691712Y-80346464D01*
X144584569Y-79846464D02*
X144584569Y-80346464D01*
X144263140Y-79846464D02*
X144263140Y-80239321D01*
X144263140Y-80239321D02*
X144298854Y-80310750D01*
X144298854Y-80310750D02*
X144370283Y-80346464D01*
X144370283Y-80346464D02*
X144477426Y-80346464D01*
X144477426Y-80346464D02*
X144548854Y-80310750D01*
X144548854Y-80310750D02*
X144584569Y-80275035D01*
X144941711Y-80346464D02*
X144941711Y-79846464D01*
X144941711Y-79989321D02*
X144977425Y-79917892D01*
X144977425Y-79917892D02*
X145013140Y-79882178D01*
X145013140Y-79882178D02*
X145084568Y-79846464D01*
X145084568Y-79846464D02*
X145155997Y-79846464D01*
X145405997Y-80346464D02*
X145405997Y-79846464D01*
X145405997Y-79596464D02*
X145370283Y-79632178D01*
X145370283Y-79632178D02*
X145405997Y-79667892D01*
X145405997Y-79667892D02*
X145441711Y-79632178D01*
X145441711Y-79632178D02*
X145405997Y-79596464D01*
X145405997Y-79596464D02*
X145405997Y-79667892D01*
X145727426Y-80310750D02*
X145798854Y-80346464D01*
X145798854Y-80346464D02*
X145941711Y-80346464D01*
X145941711Y-80346464D02*
X146013140Y-80310750D01*
X146013140Y-80310750D02*
X146048854Y-80239321D01*
X146048854Y-80239321D02*
X146048854Y-80203607D01*
X146048854Y-80203607D02*
X146013140Y-80132178D01*
X146013140Y-80132178D02*
X145941711Y-80096464D01*
X145941711Y-80096464D02*
X145834569Y-80096464D01*
X145834569Y-80096464D02*
X145763140Y-80060750D01*
X145763140Y-80060750D02*
X145727426Y-79989321D01*
X145727426Y-79989321D02*
X145727426Y-79953607D01*
X145727426Y-79953607D02*
X145763140Y-79882178D01*
X145763140Y-79882178D02*
X145834569Y-79846464D01*
X145834569Y-79846464D02*
X145941711Y-79846464D01*
X145941711Y-79846464D02*
X146013140Y-79882178D01*
D11*
X182835928Y-109291427D02*
X182835928Y-109148570D01*
X182835928Y-109148570D02*
X182907357Y-109005713D01*
X182907357Y-109005713D02*
X182978785Y-108934285D01*
X182978785Y-108934285D02*
X183121642Y-108862856D01*
X183121642Y-108862856D02*
X183407357Y-108791427D01*
X183407357Y-108791427D02*
X183764500Y-108791427D01*
X183764500Y-108791427D02*
X184050214Y-108862856D01*
X184050214Y-108862856D02*
X184193071Y-108934285D01*
X184193071Y-108934285D02*
X184264500Y-109005713D01*
X184264500Y-109005713D02*
X184335928Y-109148570D01*
X184335928Y-109148570D02*
X184335928Y-109291427D01*
X184335928Y-109291427D02*
X184264500Y-109434285D01*
X184264500Y-109434285D02*
X184193071Y-109505713D01*
X184193071Y-109505713D02*
X184050214Y-109577142D01*
X184050214Y-109577142D02*
X183764500Y-109648570D01*
X183764500Y-109648570D02*
X183407357Y-109648570D01*
X183407357Y-109648570D02*
X183121642Y-109577142D01*
X183121642Y-109577142D02*
X182978785Y-109505713D01*
X182978785Y-109505713D02*
X182907357Y-109434285D01*
X182907357Y-109434285D02*
X182835928Y-109291427D01*
D12*
X154373380Y-136244204D02*
X154421000Y-136291823D01*
X154421000Y-136291823D02*
X154468619Y-136434680D01*
X154468619Y-136434680D02*
X154468619Y-136529918D01*
X154468619Y-136529918D02*
X154421000Y-136672775D01*
X154421000Y-136672775D02*
X154325761Y-136768013D01*
X154325761Y-136768013D02*
X154230523Y-136815632D01*
X154230523Y-136815632D02*
X154040047Y-136863251D01*
X154040047Y-136863251D02*
X153897190Y-136863251D01*
X153897190Y-136863251D02*
X153706714Y-136815632D01*
X153706714Y-136815632D02*
X153611476Y-136768013D01*
X153611476Y-136768013D02*
X153516238Y-136672775D01*
X153516238Y-136672775D02*
X153468619Y-136529918D01*
X153468619Y-136529918D02*
X153468619Y-136434680D01*
X153468619Y-136434680D02*
X153516238Y-136291823D01*
X153516238Y-136291823D02*
X153563857Y-136244204D01*
X154468619Y-135291823D02*
X154468619Y-135863251D01*
X154468619Y-135577537D02*
X153468619Y-135577537D01*
X153468619Y-135577537D02*
X153611476Y-135672775D01*
X153611476Y-135672775D02*
X153706714Y-135768013D01*
X153706714Y-135768013D02*
X153754333Y-135863251D01*
X153468619Y-134387061D02*
X153468619Y-134863251D01*
X153468619Y-134863251D02*
X153944809Y-134910870D01*
X153944809Y-134910870D02*
X153897190Y-134863251D01*
X153897190Y-134863251D02*
X153849571Y-134768013D01*
X153849571Y-134768013D02*
X153849571Y-134529918D01*
X153849571Y-134529918D02*
X153897190Y-134434680D01*
X153897190Y-134434680D02*
X153944809Y-134387061D01*
X153944809Y-134387061D02*
X154040047Y-134339442D01*
X154040047Y-134339442D02*
X154278142Y-134339442D01*
X154278142Y-134339442D02*
X154373380Y-134387061D01*
X154373380Y-134387061D02*
X154421000Y-134434680D01*
X154421000Y-134434680D02*
X154468619Y-134529918D01*
X154468619Y-134529918D02*
X154468619Y-134768013D01*
X154468619Y-134768013D02*
X154421000Y-134863251D01*
X154421000Y-134863251D02*
X154373380Y-134910870D01*
X172330618Y-109983524D02*
X173044903Y-109983524D01*
X173044903Y-109983524D02*
X173187760Y-110031143D01*
X173187760Y-110031143D02*
X173282999Y-110126381D01*
X173282999Y-110126381D02*
X173330618Y-110269238D01*
X173330618Y-110269238D02*
X173330618Y-110364476D01*
X173330618Y-108983524D02*
X173330618Y-109554952D01*
X173330618Y-109269238D02*
X172330618Y-109269238D01*
X172330618Y-109269238D02*
X172473475Y-109364476D01*
X172473475Y-109364476D02*
X172568713Y-109459714D01*
X172568713Y-109459714D02*
X172616332Y-109554952D01*
X172425856Y-108602571D02*
X172378237Y-108554952D01*
X172378237Y-108554952D02*
X172330618Y-108459714D01*
X172330618Y-108459714D02*
X172330618Y-108221619D01*
X172330618Y-108221619D02*
X172378237Y-108126381D01*
X172378237Y-108126381D02*
X172425856Y-108078762D01*
X172425856Y-108078762D02*
X172521094Y-108031143D01*
X172521094Y-108031143D02*
X172616332Y-108031143D01*
X172616332Y-108031143D02*
X172759189Y-108078762D01*
X172759189Y-108078762D02*
X173330618Y-108650190D01*
X173330618Y-108650190D02*
X173330618Y-108031143D01*
X166251895Y-108980219D02*
X166251895Y-109789742D01*
X166251895Y-109789742D02*
X166299514Y-109884980D01*
X166299514Y-109884980D02*
X166347133Y-109932600D01*
X166347133Y-109932600D02*
X166442371Y-109980219D01*
X166442371Y-109980219D02*
X166632847Y-109980219D01*
X166632847Y-109980219D02*
X166728085Y-109932600D01*
X166728085Y-109932600D02*
X166775704Y-109884980D01*
X166775704Y-109884980D02*
X166823323Y-109789742D01*
X166823323Y-109789742D02*
X166823323Y-108980219D01*
X167728085Y-108980219D02*
X167537609Y-108980219D01*
X167537609Y-108980219D02*
X167442371Y-109027838D01*
X167442371Y-109027838D02*
X167394752Y-109075457D01*
X167394752Y-109075457D02*
X167299514Y-109218314D01*
X167299514Y-109218314D02*
X167251895Y-109408790D01*
X167251895Y-109408790D02*
X167251895Y-109789742D01*
X167251895Y-109789742D02*
X167299514Y-109884980D01*
X167299514Y-109884980D02*
X167347133Y-109932600D01*
X167347133Y-109932600D02*
X167442371Y-109980219D01*
X167442371Y-109980219D02*
X167632847Y-109980219D01*
X167632847Y-109980219D02*
X167728085Y-109932600D01*
X167728085Y-109932600D02*
X167775704Y-109884980D01*
X167775704Y-109884980D02*
X167823323Y-109789742D01*
X167823323Y-109789742D02*
X167823323Y-109551647D01*
X167823323Y-109551647D02*
X167775704Y-109456409D01*
X167775704Y-109456409D02*
X167728085Y-109408790D01*
X167728085Y-109408790D02*
X167632847Y-109361171D01*
X167632847Y-109361171D02*
X167442371Y-109361171D01*
X167442371Y-109361171D02*
X167347133Y-109408790D01*
X167347133Y-109408790D02*
X167299514Y-109456409D01*
X167299514Y-109456409D02*
X167251895Y-109551647D01*
X166484476Y-78992618D02*
X166484476Y-79706903D01*
X166484476Y-79706903D02*
X166436857Y-79849760D01*
X166436857Y-79849760D02*
X166341619Y-79944999D01*
X166341619Y-79944999D02*
X166198762Y-79992618D01*
X166198762Y-79992618D02*
X166103524Y-79992618D01*
X166913048Y-79087856D02*
X166960667Y-79040237D01*
X166960667Y-79040237D02*
X167055905Y-78992618D01*
X167055905Y-78992618D02*
X167294000Y-78992618D01*
X167294000Y-78992618D02*
X167389238Y-79040237D01*
X167389238Y-79040237D02*
X167436857Y-79087856D01*
X167436857Y-79087856D02*
X167484476Y-79183094D01*
X167484476Y-79183094D02*
X167484476Y-79278332D01*
X167484476Y-79278332D02*
X167436857Y-79421189D01*
X167436857Y-79421189D02*
X166865429Y-79992618D01*
X166865429Y-79992618D02*
X167484476Y-79992618D01*
X167817810Y-78992618D02*
X168484476Y-78992618D01*
X168484476Y-78992618D02*
X168055905Y-79992618D01*
X120636476Y-131448619D02*
X120636476Y-132162904D01*
X120636476Y-132162904D02*
X120588857Y-132305761D01*
X120588857Y-132305761D02*
X120493619Y-132401000D01*
X120493619Y-132401000D02*
X120350762Y-132448619D01*
X120350762Y-132448619D02*
X120255524Y-132448619D01*
X121636476Y-132448619D02*
X121065048Y-132448619D01*
X121350762Y-132448619D02*
X121350762Y-131448619D01*
X121350762Y-131448619D02*
X121255524Y-131591476D01*
X121255524Y-131591476D02*
X121160286Y-131686714D01*
X121160286Y-131686714D02*
X121065048Y-131734333D01*
X121969810Y-131448619D02*
X122588857Y-131448619D01*
X122588857Y-131448619D02*
X122255524Y-131829571D01*
X122255524Y-131829571D02*
X122398381Y-131829571D01*
X122398381Y-131829571D02*
X122493619Y-131877190D01*
X122493619Y-131877190D02*
X122541238Y-131924809D01*
X122541238Y-131924809D02*
X122588857Y-132020047D01*
X122588857Y-132020047D02*
X122588857Y-132258142D01*
X122588857Y-132258142D02*
X122541238Y-132353380D01*
X122541238Y-132353380D02*
X122493619Y-132401000D01*
X122493619Y-132401000D02*
X122398381Y-132448619D01*
X122398381Y-132448619D02*
X122112667Y-132448619D01*
X122112667Y-132448619D02*
X122017429Y-132401000D01*
X122017429Y-132401000D02*
X121969810Y-132353380D01*
X172018405Y-121620619D02*
X172018405Y-120620619D01*
X172018405Y-120620619D02*
X172256500Y-120620619D01*
X172256500Y-120620619D02*
X172399357Y-120668238D01*
X172399357Y-120668238D02*
X172494595Y-120763476D01*
X172494595Y-120763476D02*
X172542214Y-120858714D01*
X172542214Y-120858714D02*
X172589833Y-121049190D01*
X172589833Y-121049190D02*
X172589833Y-121192047D01*
X172589833Y-121192047D02*
X172542214Y-121382523D01*
X172542214Y-121382523D02*
X172494595Y-121477761D01*
X172494595Y-121477761D02*
X172399357Y-121573000D01*
X172399357Y-121573000D02*
X172256500Y-121620619D01*
X172256500Y-121620619D02*
X172018405Y-121620619D01*
X173446976Y-120620619D02*
X173256500Y-120620619D01*
X173256500Y-120620619D02*
X173161262Y-120668238D01*
X173161262Y-120668238D02*
X173113643Y-120715857D01*
X173113643Y-120715857D02*
X173018405Y-120858714D01*
X173018405Y-120858714D02*
X172970786Y-121049190D01*
X172970786Y-121049190D02*
X172970786Y-121430142D01*
X172970786Y-121430142D02*
X173018405Y-121525380D01*
X173018405Y-121525380D02*
X173066024Y-121573000D01*
X173066024Y-121573000D02*
X173161262Y-121620619D01*
X173161262Y-121620619D02*
X173351738Y-121620619D01*
X173351738Y-121620619D02*
X173446976Y-121573000D01*
X173446976Y-121573000D02*
X173494595Y-121525380D01*
X173494595Y-121525380D02*
X173542214Y-121430142D01*
X173542214Y-121430142D02*
X173542214Y-121192047D01*
X173542214Y-121192047D02*
X173494595Y-121096809D01*
X173494595Y-121096809D02*
X173446976Y-121049190D01*
X173446976Y-121049190D02*
X173351738Y-121001571D01*
X173351738Y-121001571D02*
X173161262Y-121001571D01*
X173161262Y-121001571D02*
X173066024Y-121049190D01*
X173066024Y-121049190D02*
X173018405Y-121096809D01*
X173018405Y-121096809D02*
X172970786Y-121192047D01*
X182501142Y-123546619D02*
X182167809Y-123070428D01*
X181929714Y-123546619D02*
X181929714Y-122546619D01*
X181929714Y-122546619D02*
X182310666Y-122546619D01*
X182310666Y-122546619D02*
X182405904Y-122594238D01*
X182405904Y-122594238D02*
X182453523Y-122641857D01*
X182453523Y-122641857D02*
X182501142Y-122737095D01*
X182501142Y-122737095D02*
X182501142Y-122879952D01*
X182501142Y-122879952D02*
X182453523Y-122975190D01*
X182453523Y-122975190D02*
X182405904Y-123022809D01*
X182405904Y-123022809D02*
X182310666Y-123070428D01*
X182310666Y-123070428D02*
X181929714Y-123070428D01*
X183453523Y-123546619D02*
X182882095Y-123546619D01*
X183167809Y-123546619D02*
X183167809Y-122546619D01*
X183167809Y-122546619D02*
X183072571Y-122689476D01*
X183072571Y-122689476D02*
X182977333Y-122784714D01*
X182977333Y-122784714D02*
X182882095Y-122832333D01*
X183834476Y-122641857D02*
X183882095Y-122594238D01*
X183882095Y-122594238D02*
X183977333Y-122546619D01*
X183977333Y-122546619D02*
X184215428Y-122546619D01*
X184215428Y-122546619D02*
X184310666Y-122594238D01*
X184310666Y-122594238D02*
X184358285Y-122641857D01*
X184358285Y-122641857D02*
X184405904Y-122737095D01*
X184405904Y-122737095D02*
X184405904Y-122832333D01*
X184405904Y-122832333D02*
X184358285Y-122975190D01*
X184358285Y-122975190D02*
X183786857Y-123546619D01*
X183786857Y-123546619D02*
X184405904Y-123546619D01*
X153505276Y-79367419D02*
X153505276Y-80081704D01*
X153505276Y-80081704D02*
X153457657Y-80224561D01*
X153457657Y-80224561D02*
X153362419Y-80319800D01*
X153362419Y-80319800D02*
X153219562Y-80367419D01*
X153219562Y-80367419D02*
X153124324Y-80367419D01*
X154505276Y-80367419D02*
X153933848Y-80367419D01*
X154219562Y-80367419D02*
X154219562Y-79367419D01*
X154219562Y-79367419D02*
X154124324Y-79510276D01*
X154124324Y-79510276D02*
X154029086Y-79605514D01*
X154029086Y-79605514D02*
X153933848Y-79653133D01*
X155457657Y-80367419D02*
X154886229Y-80367419D01*
X155171943Y-80367419D02*
X155171943Y-79367419D01*
X155171943Y-79367419D02*
X155076705Y-79510276D01*
X155076705Y-79510276D02*
X154981467Y-79605514D01*
X154981467Y-79605514D02*
X154886229Y-79653133D01*
X172101142Y-100851380D02*
X172053523Y-100899000D01*
X172053523Y-100899000D02*
X171910666Y-100946619D01*
X171910666Y-100946619D02*
X171815428Y-100946619D01*
X171815428Y-100946619D02*
X171672571Y-100899000D01*
X171672571Y-100899000D02*
X171577333Y-100803761D01*
X171577333Y-100803761D02*
X171529714Y-100708523D01*
X171529714Y-100708523D02*
X171482095Y-100518047D01*
X171482095Y-100518047D02*
X171482095Y-100375190D01*
X171482095Y-100375190D02*
X171529714Y-100184714D01*
X171529714Y-100184714D02*
X171577333Y-100089476D01*
X171577333Y-100089476D02*
X171672571Y-99994238D01*
X171672571Y-99994238D02*
X171815428Y-99946619D01*
X171815428Y-99946619D02*
X171910666Y-99946619D01*
X171910666Y-99946619D02*
X172053523Y-99994238D01*
X172053523Y-99994238D02*
X172101142Y-100041857D01*
X173053523Y-100946619D02*
X172482095Y-100946619D01*
X172767809Y-100946619D02*
X172767809Y-99946619D01*
X172767809Y-99946619D02*
X172672571Y-100089476D01*
X172672571Y-100089476D02*
X172577333Y-100184714D01*
X172577333Y-100184714D02*
X172482095Y-100232333D01*
X173434476Y-100041857D02*
X173482095Y-99994238D01*
X173482095Y-99994238D02*
X173577333Y-99946619D01*
X173577333Y-99946619D02*
X173815428Y-99946619D01*
X173815428Y-99946619D02*
X173910666Y-99994238D01*
X173910666Y-99994238D02*
X173958285Y-100041857D01*
X173958285Y-100041857D02*
X174005904Y-100137095D01*
X174005904Y-100137095D02*
X174005904Y-100232333D01*
X174005904Y-100232333D02*
X173958285Y-100375190D01*
X173958285Y-100375190D02*
X173386857Y-100946619D01*
X173386857Y-100946619D02*
X174005904Y-100946619D01*
X130050476Y-79020619D02*
X130050476Y-79734904D01*
X130050476Y-79734904D02*
X130002857Y-79877761D01*
X130002857Y-79877761D02*
X129907619Y-79973000D01*
X129907619Y-79973000D02*
X129764762Y-80020619D01*
X129764762Y-80020619D02*
X129669524Y-80020619D01*
X131050476Y-80020619D02*
X130479048Y-80020619D01*
X130764762Y-80020619D02*
X130764762Y-79020619D01*
X130764762Y-79020619D02*
X130669524Y-79163476D01*
X130669524Y-79163476D02*
X130574286Y-79258714D01*
X130574286Y-79258714D02*
X130479048Y-79306333D01*
X131669524Y-79020619D02*
X131764762Y-79020619D01*
X131764762Y-79020619D02*
X131860000Y-79068238D01*
X131860000Y-79068238D02*
X131907619Y-79115857D01*
X131907619Y-79115857D02*
X131955238Y-79211095D01*
X131955238Y-79211095D02*
X132002857Y-79401571D01*
X132002857Y-79401571D02*
X132002857Y-79639666D01*
X132002857Y-79639666D02*
X131955238Y-79830142D01*
X131955238Y-79830142D02*
X131907619Y-79925380D01*
X131907619Y-79925380D02*
X131860000Y-79973000D01*
X131860000Y-79973000D02*
X131764762Y-80020619D01*
X131764762Y-80020619D02*
X131669524Y-80020619D01*
X131669524Y-80020619D02*
X131574286Y-79973000D01*
X131574286Y-79973000D02*
X131526667Y-79925380D01*
X131526667Y-79925380D02*
X131479048Y-79830142D01*
X131479048Y-79830142D02*
X131431429Y-79639666D01*
X131431429Y-79639666D02*
X131431429Y-79401571D01*
X131431429Y-79401571D02*
X131479048Y-79211095D01*
X131479048Y-79211095D02*
X131526667Y-79115857D01*
X131526667Y-79115857D02*
X131574286Y-79068238D01*
X131574286Y-79068238D02*
X131669524Y-79020619D01*
X135084476Y-131296619D02*
X135084476Y-132010904D01*
X135084476Y-132010904D02*
X135036857Y-132153761D01*
X135036857Y-132153761D02*
X134941619Y-132249000D01*
X134941619Y-132249000D02*
X134798762Y-132296619D01*
X134798762Y-132296619D02*
X134703524Y-132296619D01*
X136084476Y-132296619D02*
X135513048Y-132296619D01*
X135798762Y-132296619D02*
X135798762Y-131296619D01*
X135798762Y-131296619D02*
X135703524Y-131439476D01*
X135703524Y-131439476D02*
X135608286Y-131534714D01*
X135608286Y-131534714D02*
X135513048Y-131582333D01*
X136941619Y-131629952D02*
X136941619Y-132296619D01*
X136703524Y-131249000D02*
X136465429Y-131963285D01*
X136465429Y-131963285D02*
X137084476Y-131963285D01*
X108763522Y-114241380D02*
X108715903Y-114289000D01*
X108715903Y-114289000D02*
X108573046Y-114336619D01*
X108573046Y-114336619D02*
X108477808Y-114336619D01*
X108477808Y-114336619D02*
X108334951Y-114289000D01*
X108334951Y-114289000D02*
X108239713Y-114193761D01*
X108239713Y-114193761D02*
X108192094Y-114098523D01*
X108192094Y-114098523D02*
X108144475Y-113908047D01*
X108144475Y-113908047D02*
X108144475Y-113765190D01*
X108144475Y-113765190D02*
X108192094Y-113574714D01*
X108192094Y-113574714D02*
X108239713Y-113479476D01*
X108239713Y-113479476D02*
X108334951Y-113384238D01*
X108334951Y-113384238D02*
X108477808Y-113336619D01*
X108477808Y-113336619D02*
X108573046Y-113336619D01*
X108573046Y-113336619D02*
X108715903Y-113384238D01*
X108715903Y-113384238D02*
X108763522Y-113431857D01*
X109715903Y-114336619D02*
X109144475Y-114336619D01*
X109430189Y-114336619D02*
X109430189Y-113336619D01*
X109430189Y-113336619D02*
X109334951Y-113479476D01*
X109334951Y-113479476D02*
X109239713Y-113574714D01*
X109239713Y-113574714D02*
X109144475Y-113622333D01*
X110573046Y-113669952D02*
X110573046Y-114336619D01*
X110334951Y-113289000D02*
X110096856Y-114003285D01*
X110096856Y-114003285D02*
X110715903Y-114003285D01*
X160276666Y-85362809D02*
X159943333Y-85362809D01*
X159943333Y-85886619D02*
X159943333Y-84886619D01*
X159943333Y-84886619D02*
X160419523Y-84886619D01*
X160705238Y-84886619D02*
X161324285Y-84886619D01*
X161324285Y-84886619D02*
X160990952Y-85267571D01*
X160990952Y-85267571D02*
X161133809Y-85267571D01*
X161133809Y-85267571D02*
X161229047Y-85315190D01*
X161229047Y-85315190D02*
X161276666Y-85362809D01*
X161276666Y-85362809D02*
X161324285Y-85458047D01*
X161324285Y-85458047D02*
X161324285Y-85696142D01*
X161324285Y-85696142D02*
X161276666Y-85791380D01*
X161276666Y-85791380D02*
X161229047Y-85839000D01*
X161229047Y-85839000D02*
X161133809Y-85886619D01*
X161133809Y-85886619D02*
X160848095Y-85886619D01*
X160848095Y-85886619D02*
X160752857Y-85839000D01*
X160752857Y-85839000D02*
X160705238Y-85791380D01*
X162510666Y-131822809D02*
X162177333Y-131822809D01*
X162177333Y-132346619D02*
X162177333Y-131346619D01*
X162177333Y-131346619D02*
X162653523Y-131346619D01*
X163463047Y-131679952D02*
X163463047Y-132346619D01*
X163224952Y-131299000D02*
X162986857Y-132013285D01*
X162986857Y-132013285D02*
X163605904Y-132013285D01*
X172235905Y-98252619D02*
X172235905Y-97252619D01*
X172235905Y-97252619D02*
X172474000Y-97252619D01*
X172474000Y-97252619D02*
X172616857Y-97300238D01*
X172616857Y-97300238D02*
X172712095Y-97395476D01*
X172712095Y-97395476D02*
X172759714Y-97490714D01*
X172759714Y-97490714D02*
X172807333Y-97681190D01*
X172807333Y-97681190D02*
X172807333Y-97824047D01*
X172807333Y-97824047D02*
X172759714Y-98014523D01*
X172759714Y-98014523D02*
X172712095Y-98109761D01*
X172712095Y-98109761D02*
X172616857Y-98205000D01*
X172616857Y-98205000D02*
X172474000Y-98252619D01*
X172474000Y-98252619D02*
X172235905Y-98252619D01*
X173712095Y-97252619D02*
X173235905Y-97252619D01*
X173235905Y-97252619D02*
X173188286Y-97728809D01*
X173188286Y-97728809D02*
X173235905Y-97681190D01*
X173235905Y-97681190D02*
X173331143Y-97633571D01*
X173331143Y-97633571D02*
X173569238Y-97633571D01*
X173569238Y-97633571D02*
X173664476Y-97681190D01*
X173664476Y-97681190D02*
X173712095Y-97728809D01*
X173712095Y-97728809D02*
X173759714Y-97824047D01*
X173759714Y-97824047D02*
X173759714Y-98062142D01*
X173759714Y-98062142D02*
X173712095Y-98157380D01*
X173712095Y-98157380D02*
X173664476Y-98205000D01*
X173664476Y-98205000D02*
X173569238Y-98252619D01*
X173569238Y-98252619D02*
X173331143Y-98252619D01*
X173331143Y-98252619D02*
X173235905Y-98205000D01*
X173235905Y-98205000D02*
X173188286Y-98157380D01*
X172051142Y-118951380D02*
X172003523Y-118999000D01*
X172003523Y-118999000D02*
X171860666Y-119046619D01*
X171860666Y-119046619D02*
X171765428Y-119046619D01*
X171765428Y-119046619D02*
X171622571Y-118999000D01*
X171622571Y-118999000D02*
X171527333Y-118903761D01*
X171527333Y-118903761D02*
X171479714Y-118808523D01*
X171479714Y-118808523D02*
X171432095Y-118618047D01*
X171432095Y-118618047D02*
X171432095Y-118475190D01*
X171432095Y-118475190D02*
X171479714Y-118284714D01*
X171479714Y-118284714D02*
X171527333Y-118189476D01*
X171527333Y-118189476D02*
X171622571Y-118094238D01*
X171622571Y-118094238D02*
X171765428Y-118046619D01*
X171765428Y-118046619D02*
X171860666Y-118046619D01*
X171860666Y-118046619D02*
X172003523Y-118094238D01*
X172003523Y-118094238D02*
X172051142Y-118141857D01*
X173003523Y-119046619D02*
X172432095Y-119046619D01*
X172717809Y-119046619D02*
X172717809Y-118046619D01*
X172717809Y-118046619D02*
X172622571Y-118189476D01*
X172622571Y-118189476D02*
X172527333Y-118284714D01*
X172527333Y-118284714D02*
X172432095Y-118332333D01*
X173860666Y-118046619D02*
X173670190Y-118046619D01*
X173670190Y-118046619D02*
X173574952Y-118094238D01*
X173574952Y-118094238D02*
X173527333Y-118141857D01*
X173527333Y-118141857D02*
X173432095Y-118284714D01*
X173432095Y-118284714D02*
X173384476Y-118475190D01*
X173384476Y-118475190D02*
X173384476Y-118856142D01*
X173384476Y-118856142D02*
X173432095Y-118951380D01*
X173432095Y-118951380D02*
X173479714Y-118999000D01*
X173479714Y-118999000D02*
X173574952Y-119046619D01*
X173574952Y-119046619D02*
X173765428Y-119046619D01*
X173765428Y-119046619D02*
X173860666Y-118999000D01*
X173860666Y-118999000D02*
X173908285Y-118951380D01*
X173908285Y-118951380D02*
X173955904Y-118856142D01*
X173955904Y-118856142D02*
X173955904Y-118618047D01*
X173955904Y-118618047D02*
X173908285Y-118522809D01*
X173908285Y-118522809D02*
X173860666Y-118475190D01*
X173860666Y-118475190D02*
X173765428Y-118427571D01*
X173765428Y-118427571D02*
X173574952Y-118427571D01*
X173574952Y-118427571D02*
X173479714Y-118475190D01*
X173479714Y-118475190D02*
X173432095Y-118522809D01*
X173432095Y-118522809D02*
X173384476Y-118618047D01*
X181951333Y-96220619D02*
X181618000Y-95744428D01*
X181379905Y-96220619D02*
X181379905Y-95220619D01*
X181379905Y-95220619D02*
X181760857Y-95220619D01*
X181760857Y-95220619D02*
X181856095Y-95268238D01*
X181856095Y-95268238D02*
X181903714Y-95315857D01*
X181903714Y-95315857D02*
X181951333Y-95411095D01*
X181951333Y-95411095D02*
X181951333Y-95553952D01*
X181951333Y-95553952D02*
X181903714Y-95649190D01*
X181903714Y-95649190D02*
X181856095Y-95696809D01*
X181856095Y-95696809D02*
X181760857Y-95744428D01*
X181760857Y-95744428D02*
X181379905Y-95744428D01*
X182522762Y-95649190D02*
X182427524Y-95601571D01*
X182427524Y-95601571D02*
X182379905Y-95553952D01*
X182379905Y-95553952D02*
X182332286Y-95458714D01*
X182332286Y-95458714D02*
X182332286Y-95411095D01*
X182332286Y-95411095D02*
X182379905Y-95315857D01*
X182379905Y-95315857D02*
X182427524Y-95268238D01*
X182427524Y-95268238D02*
X182522762Y-95220619D01*
X182522762Y-95220619D02*
X182713238Y-95220619D01*
X182713238Y-95220619D02*
X182808476Y-95268238D01*
X182808476Y-95268238D02*
X182856095Y-95315857D01*
X182856095Y-95315857D02*
X182903714Y-95411095D01*
X182903714Y-95411095D02*
X182903714Y-95458714D01*
X182903714Y-95458714D02*
X182856095Y-95553952D01*
X182856095Y-95553952D02*
X182808476Y-95601571D01*
X182808476Y-95601571D02*
X182713238Y-95649190D01*
X182713238Y-95649190D02*
X182522762Y-95649190D01*
X182522762Y-95649190D02*
X182427524Y-95696809D01*
X182427524Y-95696809D02*
X182379905Y-95744428D01*
X182379905Y-95744428D02*
X182332286Y-95839666D01*
X182332286Y-95839666D02*
X182332286Y-96030142D01*
X182332286Y-96030142D02*
X182379905Y-96125380D01*
X182379905Y-96125380D02*
X182427524Y-96173000D01*
X182427524Y-96173000D02*
X182522762Y-96220619D01*
X182522762Y-96220619D02*
X182713238Y-96220619D01*
X182713238Y-96220619D02*
X182808476Y-96173000D01*
X182808476Y-96173000D02*
X182856095Y-96125380D01*
X182856095Y-96125380D02*
X182903714Y-96030142D01*
X182903714Y-96030142D02*
X182903714Y-95839666D01*
X182903714Y-95839666D02*
X182856095Y-95744428D01*
X182856095Y-95744428D02*
X182808476Y-95696809D01*
X182808476Y-95696809D02*
X182713238Y-95649190D01*
X107782095Y-83546619D02*
X107782095Y-84356142D01*
X107782095Y-84356142D02*
X107829714Y-84451380D01*
X107829714Y-84451380D02*
X107877333Y-84499000D01*
X107877333Y-84499000D02*
X107972571Y-84546619D01*
X107972571Y-84546619D02*
X108163047Y-84546619D01*
X108163047Y-84546619D02*
X108258285Y-84499000D01*
X108258285Y-84499000D02*
X108305904Y-84451380D01*
X108305904Y-84451380D02*
X108353523Y-84356142D01*
X108353523Y-84356142D02*
X108353523Y-83546619D01*
X108734476Y-83546619D02*
X109353523Y-83546619D01*
X109353523Y-83546619D02*
X109020190Y-83927571D01*
X109020190Y-83927571D02*
X109163047Y-83927571D01*
X109163047Y-83927571D02*
X109258285Y-83975190D01*
X109258285Y-83975190D02*
X109305904Y-84022809D01*
X109305904Y-84022809D02*
X109353523Y-84118047D01*
X109353523Y-84118047D02*
X109353523Y-84356142D01*
X109353523Y-84356142D02*
X109305904Y-84451380D01*
X109305904Y-84451380D02*
X109258285Y-84499000D01*
X109258285Y-84499000D02*
X109163047Y-84546619D01*
X109163047Y-84546619D02*
X108877333Y-84546619D01*
X108877333Y-84546619D02*
X108782095Y-84499000D01*
X108782095Y-84499000D02*
X108734476Y-84451380D01*
D13*
X151445000Y-132101106D02*
X151445000Y-132731106D01*
X151760000Y-132416106D02*
X151130000Y-132416106D01*
X152836000Y-135601347D02*
X146376000Y-135601347D01*
X152836000Y-135641347D02*
X146376000Y-135641347D01*
X152836000Y-135681347D02*
X146376000Y-135681347D01*
X152834000Y-135721347D02*
X146378000Y-135721347D01*
X152833000Y-135761347D02*
X146379000Y-135761347D01*
X152830000Y-135801347D02*
X146382000Y-135801347D01*
X152828000Y-135841347D02*
X150646000Y-135841347D01*
X148566000Y-135841347D02*
X146384000Y-135841347D01*
X152824000Y-135881347D02*
X150646000Y-135881347D01*
X148566000Y-135881347D02*
X146388000Y-135881347D01*
X152821000Y-135921347D02*
X150646000Y-135921347D01*
X148566000Y-135921347D02*
X146391000Y-135921347D01*
X152817000Y-135961347D02*
X150646000Y-135961347D01*
X148566000Y-135961347D02*
X146395000Y-135961347D01*
X152812000Y-136001347D02*
X150646000Y-136001347D01*
X148566000Y-136001347D02*
X146400000Y-136001347D01*
X152807000Y-136041347D02*
X150646000Y-136041347D01*
X148566000Y-136041347D02*
X146405000Y-136041347D01*
X152801000Y-136081347D02*
X150646000Y-136081347D01*
X148566000Y-136081347D02*
X146411000Y-136081347D01*
X152795000Y-136121347D02*
X150646000Y-136121347D01*
X148566000Y-136121347D02*
X146417000Y-136121347D01*
X152788000Y-136161347D02*
X150646000Y-136161347D01*
X148566000Y-136161347D02*
X146424000Y-136161347D01*
X152781000Y-136201347D02*
X150646000Y-136201347D01*
X148566000Y-136201347D02*
X146431000Y-136201347D01*
X152773000Y-136241347D02*
X150646000Y-136241347D01*
X148566000Y-136241347D02*
X146439000Y-136241347D01*
X152765000Y-136281347D02*
X150646000Y-136281347D01*
X148566000Y-136281347D02*
X146447000Y-136281347D01*
X152756000Y-136322347D02*
X150646000Y-136322347D01*
X148566000Y-136322347D02*
X146456000Y-136322347D01*
X152747000Y-136362347D02*
X150646000Y-136362347D01*
X148566000Y-136362347D02*
X146465000Y-136362347D01*
X152737000Y-136402347D02*
X150646000Y-136402347D01*
X148566000Y-136402347D02*
X146475000Y-136402347D01*
X152727000Y-136442347D02*
X150646000Y-136442347D01*
X148566000Y-136442347D02*
X146485000Y-136442347D01*
X152716000Y-136482347D02*
X150646000Y-136482347D01*
X148566000Y-136482347D02*
X146496000Y-136482347D01*
X152704000Y-136522347D02*
X150646000Y-136522347D01*
X148566000Y-136522347D02*
X146508000Y-136522347D01*
X152692000Y-136562347D02*
X150646000Y-136562347D01*
X148566000Y-136562347D02*
X146520000Y-136562347D01*
X152680000Y-136602347D02*
X150646000Y-136602347D01*
X148566000Y-136602347D02*
X146532000Y-136602347D01*
X152667000Y-136642347D02*
X150646000Y-136642347D01*
X148566000Y-136642347D02*
X146545000Y-136642347D01*
X152653000Y-136682347D02*
X150646000Y-136682347D01*
X148566000Y-136682347D02*
X146559000Y-136682347D01*
X152639000Y-136722347D02*
X150646000Y-136722347D01*
X148566000Y-136722347D02*
X146573000Y-136722347D01*
X152624000Y-136762347D02*
X150646000Y-136762347D01*
X148566000Y-136762347D02*
X146588000Y-136762347D01*
X152608000Y-136802347D02*
X150646000Y-136802347D01*
X148566000Y-136802347D02*
X146604000Y-136802347D01*
X152592000Y-136842347D02*
X150646000Y-136842347D01*
X148566000Y-136842347D02*
X146620000Y-136842347D01*
X152576000Y-136882347D02*
X150646000Y-136882347D01*
X148566000Y-136882347D02*
X146636000Y-136882347D01*
X152558000Y-136922347D02*
X150646000Y-136922347D01*
X148566000Y-136922347D02*
X146654000Y-136922347D01*
X152540000Y-136962347D02*
X150646000Y-136962347D01*
X148566000Y-136962347D02*
X146672000Y-136962347D01*
X152522000Y-137002347D02*
X150646000Y-137002347D01*
X148566000Y-137002347D02*
X146690000Y-137002347D01*
X152502000Y-137042347D02*
X150646000Y-137042347D01*
X148566000Y-137042347D02*
X146710000Y-137042347D01*
X152482000Y-137082347D02*
X150646000Y-137082347D01*
X148566000Y-137082347D02*
X146730000Y-137082347D01*
X152462000Y-137122347D02*
X150646000Y-137122347D01*
X148566000Y-137122347D02*
X146750000Y-137122347D01*
X152440000Y-137162347D02*
X150646000Y-137162347D01*
X148566000Y-137162347D02*
X146772000Y-137162347D01*
X152418000Y-137202347D02*
X150646000Y-137202347D01*
X148566000Y-137202347D02*
X146794000Y-137202347D01*
X152396000Y-137242347D02*
X150646000Y-137242347D01*
X148566000Y-137242347D02*
X146816000Y-137242347D01*
X152372000Y-137282347D02*
X150646000Y-137282347D01*
X148566000Y-137282347D02*
X146840000Y-137282347D01*
X152348000Y-137322347D02*
X150646000Y-137322347D01*
X148566000Y-137322347D02*
X146864000Y-137322347D01*
X152322000Y-137362347D02*
X150646000Y-137362347D01*
X148566000Y-137362347D02*
X146890000Y-137362347D01*
X152296000Y-137402347D02*
X150646000Y-137402347D01*
X148566000Y-137402347D02*
X146916000Y-137402347D01*
X152270000Y-137442347D02*
X150646000Y-137442347D01*
X148566000Y-137442347D02*
X146942000Y-137442347D01*
X152242000Y-137482347D02*
X150646000Y-137482347D01*
X148566000Y-137482347D02*
X146970000Y-137482347D01*
X152213000Y-137522347D02*
X150646000Y-137522347D01*
X148566000Y-137522347D02*
X146999000Y-137522347D01*
X152184000Y-137562347D02*
X150646000Y-137562347D01*
X148566000Y-137562347D02*
X147028000Y-137562347D01*
X152154000Y-137602347D02*
X150646000Y-137602347D01*
X148566000Y-137602347D02*
X147058000Y-137602347D01*
X152122000Y-137642347D02*
X150646000Y-137642347D01*
X148566000Y-137642347D02*
X147090000Y-137642347D01*
X152090000Y-137682347D02*
X150646000Y-137682347D01*
X148566000Y-137682347D02*
X147122000Y-137682347D01*
X152056000Y-137722347D02*
X150646000Y-137722347D01*
X148566000Y-137722347D02*
X147156000Y-137722347D01*
X152022000Y-137762347D02*
X150646000Y-137762347D01*
X148566000Y-137762347D02*
X147190000Y-137762347D01*
X151986000Y-137802347D02*
X150646000Y-137802347D01*
X148566000Y-137802347D02*
X147226000Y-137802347D01*
X151949000Y-137842347D02*
X150646000Y-137842347D01*
X148566000Y-137842347D02*
X147263000Y-137842347D01*
X151911000Y-137882347D02*
X150646000Y-137882347D01*
X148566000Y-137882347D02*
X147301000Y-137882347D01*
X151871000Y-137922347D02*
X147341000Y-137922347D01*
X151830000Y-137962347D02*
X147382000Y-137962347D01*
X151788000Y-138002347D02*
X147424000Y-138002347D01*
X151743000Y-138042347D02*
X147469000Y-138042347D01*
X151698000Y-138082347D02*
X147514000Y-138082347D01*
X151650000Y-138122347D02*
X147562000Y-138122347D01*
X151601000Y-138162347D02*
X147611000Y-138162347D01*
X151550000Y-138202347D02*
X147662000Y-138202347D01*
X151496000Y-138242347D02*
X147716000Y-138242347D01*
X151440000Y-138282347D02*
X147772000Y-138282347D01*
X151382000Y-138322347D02*
X147830000Y-138322347D01*
X151320000Y-138362347D02*
X147892000Y-138362347D01*
X151256000Y-138402347D02*
X147956000Y-138402347D01*
X151187000Y-138442347D02*
X148025000Y-138442347D01*
X151115000Y-138482347D02*
X148097000Y-138482347D01*
X151038000Y-138522347D02*
X148174000Y-138522347D01*
X150956000Y-138562347D02*
X148256000Y-138562347D01*
X150868000Y-138602347D02*
X148344000Y-138602347D01*
X150771000Y-138642347D02*
X148441000Y-138642347D01*
X150665000Y-138682347D02*
X148547000Y-138682347D01*
X150546000Y-138722347D02*
X148666000Y-138722347D01*
X150408000Y-138762347D02*
X148804000Y-138762347D01*
X150239000Y-138802347D02*
X148973000Y-138802347D01*
X150008000Y-138842347D02*
X149204000Y-138842347D01*
X152876000Y-135601347D02*
G75*
G03*
X152876000Y-135601347I-3270000J0D01*
G01*
X169941000Y-117101001D02*
X181595000Y-117101001D01*
X181595000Y-117101001D02*
X181595000Y-101847000D01*
X169941000Y-101847000D02*
X169941000Y-117101001D01*
X181595000Y-101847000D02*
X169941000Y-101847000D01*
X114300000Y-96774000D02*
X165100000Y-96774000D01*
X165100000Y-96774000D02*
X165100000Y-122174000D01*
X165100000Y-122174000D02*
X114300000Y-122174000D01*
X114300000Y-122174000D02*
X114300000Y-96774000D01*
X162219000Y-70881000D02*
X162219000Y-82535000D01*
X162219000Y-82535000D02*
X172473000Y-82535000D01*
X172473000Y-70881000D02*
X162219000Y-70881000D01*
X172473000Y-82535000D02*
X172473000Y-70881000D01*
X129373000Y-134912999D02*
X129373000Y-123258999D01*
X129373000Y-123258999D02*
X114118999Y-123258999D01*
X114118999Y-134912999D02*
X129373000Y-134912999D01*
X114118999Y-123258999D02*
X114118999Y-134912999D01*
X179498000Y-122293000D02*
X179498000Y-120023000D01*
X179498000Y-120023000D02*
X175438000Y-120023000D01*
X175438000Y-122293000D02*
X179498000Y-122293000D01*
X183361064Y-121893000D02*
X182906936Y-121893000D01*
X183361064Y-120423000D02*
X182906936Y-120423000D01*
X148887800Y-70877801D02*
X148887800Y-82531801D01*
X148887800Y-82531801D02*
X159141800Y-82531801D01*
X159141800Y-70877801D02*
X148887800Y-70877801D01*
X159141800Y-82531801D02*
X159141800Y-70877801D01*
X176232748Y-99749000D02*
X176755252Y-99749000D01*
X176232748Y-101219000D02*
X176755252Y-101219000D01*
X125683000Y-70881000D02*
X125683000Y-82535000D01*
X125683000Y-82535000D02*
X135937000Y-82535000D01*
X135937000Y-70881000D02*
X125683000Y-70881000D01*
X135937000Y-82535000D02*
X135937000Y-70881000D01*
X141057000Y-134912999D02*
X141057000Y-123258999D01*
X141057000Y-123258999D02*
X130803000Y-123258999D01*
X130803000Y-134912999D02*
X141057000Y-134912999D01*
X130803000Y-123258999D02*
X130803000Y-134912999D01*
X112906621Y-111313000D02*
X112276621Y-111313000D01*
X112591621Y-111628000D02*
X112591621Y-110998000D01*
X109406380Y-112704000D02*
X109406380Y-106244000D01*
X109366380Y-112704000D02*
X109366380Y-106244000D01*
X109326380Y-112704000D02*
X109326380Y-106244000D01*
X109286380Y-112702000D02*
X109286380Y-106246000D01*
X109246380Y-112701000D02*
X109246380Y-106247000D01*
X109206380Y-112698000D02*
X109206380Y-106250000D01*
X109166380Y-112696000D02*
X109166380Y-110514000D01*
X109166380Y-108434000D02*
X109166380Y-106252000D01*
X109126380Y-112692000D02*
X109126380Y-110514000D01*
X109126380Y-108434000D02*
X109126380Y-106256000D01*
X109086380Y-112689000D02*
X109086380Y-110514000D01*
X109086380Y-108434000D02*
X109086380Y-106259000D01*
X109046380Y-112685000D02*
X109046380Y-110514000D01*
X109046380Y-108434000D02*
X109046380Y-106263000D01*
X109006380Y-112680000D02*
X109006380Y-110514000D01*
X109006380Y-108434000D02*
X109006380Y-106268000D01*
X108966380Y-112675000D02*
X108966380Y-110514000D01*
X108966380Y-108434000D02*
X108966380Y-106273000D01*
X108926380Y-112669000D02*
X108926380Y-110514000D01*
X108926380Y-108434000D02*
X108926380Y-106279000D01*
X108886380Y-112663000D02*
X108886380Y-110514000D01*
X108886380Y-108434000D02*
X108886380Y-106285000D01*
X108846380Y-112656000D02*
X108846380Y-110514000D01*
X108846380Y-108434000D02*
X108846380Y-106292000D01*
X108806380Y-112649000D02*
X108806380Y-110514000D01*
X108806380Y-108434000D02*
X108806380Y-106299000D01*
X108766380Y-112641000D02*
X108766380Y-110514000D01*
X108766380Y-108434000D02*
X108766380Y-106307000D01*
X108726380Y-112633000D02*
X108726380Y-110514000D01*
X108726380Y-108434000D02*
X108726380Y-106315000D01*
X108685380Y-112624000D02*
X108685380Y-110514000D01*
X108685380Y-108434000D02*
X108685380Y-106324000D01*
X108645380Y-112615000D02*
X108645380Y-110514000D01*
X108645380Y-108434000D02*
X108645380Y-106333000D01*
X108605380Y-112605000D02*
X108605380Y-110514000D01*
X108605380Y-108434000D02*
X108605380Y-106343000D01*
X108565380Y-112595000D02*
X108565380Y-110514000D01*
X108565380Y-108434000D02*
X108565380Y-106353000D01*
X108525380Y-112584000D02*
X108525380Y-110514000D01*
X108525380Y-108434000D02*
X108525380Y-106364000D01*
X108485380Y-112572000D02*
X108485380Y-110514000D01*
X108485380Y-108434000D02*
X108485380Y-106376000D01*
X108445380Y-112560000D02*
X108445380Y-110514000D01*
X108445380Y-108434000D02*
X108445380Y-106388000D01*
X108405380Y-112548000D02*
X108405380Y-110514000D01*
X108405380Y-108434000D02*
X108405380Y-106400000D01*
X108365380Y-112535000D02*
X108365380Y-110514000D01*
X108365380Y-108434000D02*
X108365380Y-106413000D01*
X108325380Y-112521000D02*
X108325380Y-110514000D01*
X108325380Y-108434000D02*
X108325380Y-106427000D01*
X108285380Y-112507000D02*
X108285380Y-110514000D01*
X108285380Y-108434000D02*
X108285380Y-106441000D01*
X108245380Y-112492000D02*
X108245380Y-110514000D01*
X108245380Y-108434000D02*
X108245380Y-106456000D01*
X108205380Y-112476000D02*
X108205380Y-110514000D01*
X108205380Y-108434000D02*
X108205380Y-106472000D01*
X108165380Y-112460000D02*
X108165380Y-110514000D01*
X108165380Y-108434000D02*
X108165380Y-106488000D01*
X108125380Y-112444000D02*
X108125380Y-110514000D01*
X108125380Y-108434000D02*
X108125380Y-106504000D01*
X108085380Y-112426000D02*
X108085380Y-110514000D01*
X108085380Y-108434000D02*
X108085380Y-106522000D01*
X108045380Y-112408000D02*
X108045380Y-110514000D01*
X108045380Y-108434000D02*
X108045380Y-106540000D01*
X108005380Y-112390000D02*
X108005380Y-110514000D01*
X108005380Y-108434000D02*
X108005380Y-106558000D01*
X107965380Y-112370000D02*
X107965380Y-110514000D01*
X107965380Y-108434000D02*
X107965380Y-106578000D01*
X107925380Y-112350000D02*
X107925380Y-110514000D01*
X107925380Y-108434000D02*
X107925380Y-106598000D01*
X107885380Y-112330000D02*
X107885380Y-110514000D01*
X107885380Y-108434000D02*
X107885380Y-106618000D01*
X107845380Y-112308000D02*
X107845380Y-110514000D01*
X107845380Y-108434000D02*
X107845380Y-106640000D01*
X107805380Y-112286000D02*
X107805380Y-110514000D01*
X107805380Y-108434000D02*
X107805380Y-106662000D01*
X107765380Y-112264000D02*
X107765380Y-110514000D01*
X107765380Y-108434000D02*
X107765380Y-106684000D01*
X107725380Y-112240000D02*
X107725380Y-110514000D01*
X107725380Y-108434000D02*
X107725380Y-106708000D01*
X107685380Y-112216000D02*
X107685380Y-110514000D01*
X107685380Y-108434000D02*
X107685380Y-106732000D01*
X107645380Y-112190000D02*
X107645380Y-110514000D01*
X107645380Y-108434000D02*
X107645380Y-106758000D01*
X107605380Y-112164000D02*
X107605380Y-110514000D01*
X107605380Y-108434000D02*
X107605380Y-106784000D01*
X107565380Y-112138000D02*
X107565380Y-110514000D01*
X107565380Y-108434000D02*
X107565380Y-106810000D01*
X107525380Y-112110000D02*
X107525380Y-110514000D01*
X107525380Y-108434000D02*
X107525380Y-106838000D01*
X107485380Y-112081000D02*
X107485380Y-110514000D01*
X107485380Y-108434000D02*
X107485380Y-106867000D01*
X107445380Y-112052000D02*
X107445380Y-110514000D01*
X107445380Y-108434000D02*
X107445380Y-106896000D01*
X107405380Y-112022000D02*
X107405380Y-110514000D01*
X107405380Y-108434000D02*
X107405380Y-106926000D01*
X107365380Y-111990000D02*
X107365380Y-110514000D01*
X107365380Y-108434000D02*
X107365380Y-106958000D01*
X107325380Y-111958000D02*
X107325380Y-110514000D01*
X107325380Y-108434000D02*
X107325380Y-106990000D01*
X107285380Y-111924000D02*
X107285380Y-110514000D01*
X107285380Y-108434000D02*
X107285380Y-107024000D01*
X107245380Y-111890000D02*
X107245380Y-110514000D01*
X107245380Y-108434000D02*
X107245380Y-107058000D01*
X107205380Y-111854000D02*
X107205380Y-110514000D01*
X107205380Y-108434000D02*
X107205380Y-107094000D01*
X107165380Y-111817000D02*
X107165380Y-110514000D01*
X107165380Y-108434000D02*
X107165380Y-107131000D01*
X107125380Y-111779000D02*
X107125380Y-110514000D01*
X107125380Y-108434000D02*
X107125380Y-107169000D01*
X107085380Y-111739000D02*
X107085380Y-107209000D01*
X107045380Y-111698000D02*
X107045380Y-107250000D01*
X107005380Y-111656000D02*
X107005380Y-107292000D01*
X106965380Y-111611000D02*
X106965380Y-107337000D01*
X106925380Y-111566000D02*
X106925380Y-107382000D01*
X106885380Y-111518000D02*
X106885380Y-107430000D01*
X106845380Y-111469000D02*
X106845380Y-107479000D01*
X106805380Y-111418000D02*
X106805380Y-107530000D01*
X106765380Y-111364000D02*
X106765380Y-107584000D01*
X106725380Y-111308000D02*
X106725380Y-107640000D01*
X106685380Y-111250000D02*
X106685380Y-107698000D01*
X106645380Y-111188000D02*
X106645380Y-107760000D01*
X106605380Y-111124000D02*
X106605380Y-107824000D01*
X106565380Y-111055000D02*
X106565380Y-107893000D01*
X106525380Y-110983000D02*
X106525380Y-107965000D01*
X106485380Y-110906000D02*
X106485380Y-108042000D01*
X106445380Y-110824000D02*
X106445380Y-108124000D01*
X106405380Y-110736000D02*
X106405380Y-108212000D01*
X106365380Y-110639000D02*
X106365380Y-108309000D01*
X106325380Y-110533000D02*
X106325380Y-108415000D01*
X106285380Y-110414000D02*
X106285380Y-108534000D01*
X106245380Y-110276000D02*
X106245380Y-108672000D01*
X106205380Y-110107000D02*
X106205380Y-108841000D01*
X106165380Y-109876000D02*
X106165380Y-109072000D01*
X112676380Y-109474000D02*
G75*
G03*
X112676380Y-109474000I-3270000J0D01*
G01*
X143810000Y-86489000D02*
X143810000Y-88674000D01*
X143810000Y-94359000D02*
X143810000Y-92174000D01*
X150875000Y-86489000D02*
X143810000Y-86489000D01*
X150875000Y-86489000D02*
X150875000Y-88674000D01*
X150875000Y-94359000D02*
X143810000Y-94359000D01*
X150875000Y-94359000D02*
X150875000Y-92174000D01*
X170355000Y-86489000D02*
X170355000Y-88674000D01*
X170355000Y-87249000D02*
X150875000Y-87249000D01*
X170355000Y-93599000D02*
X150875000Y-93599000D01*
X170355000Y-94359000D02*
X170355000Y-92174000D01*
X170355000Y-94359000D02*
X177465000Y-94359000D01*
X177465000Y-86489000D02*
X170355000Y-86489000D01*
X177465000Y-88674000D02*
X177465000Y-86489000D01*
X177465000Y-92174000D02*
X177465000Y-94359000D01*
X145501000Y-123319000D02*
X145501000Y-125504000D01*
X145501000Y-131189000D02*
X145501000Y-129004000D01*
X152566000Y-123319000D02*
X145501000Y-123319000D01*
X152566000Y-123319000D02*
X152566000Y-125504000D01*
X152566000Y-131189000D02*
X145501000Y-131189000D01*
X152566000Y-131189000D02*
X152566000Y-129004000D01*
X172046000Y-123319000D02*
X172046000Y-125504000D01*
X172046000Y-124079000D02*
X152566000Y-124079000D01*
X172046000Y-130429000D02*
X152566000Y-130429000D01*
X172046000Y-131189000D02*
X172046000Y-129004000D01*
X172046000Y-131189000D02*
X179156000Y-131189000D01*
X179156000Y-123319000D02*
X172046000Y-123319000D01*
X179156000Y-125504000D02*
X179156000Y-123319000D01*
X179156000Y-129004000D02*
X179156000Y-131189000D01*
X179498000Y-98925000D02*
X179498000Y-96655000D01*
X179498000Y-96655000D02*
X175438000Y-96655000D01*
X175438000Y-98925000D02*
X179498000Y-98925000D01*
X176132748Y-117849000D02*
X176655252Y-117849000D01*
X176132748Y-119319000D02*
X176655252Y-119319000D01*
X182345064Y-98525000D02*
X181890936Y-98525000D01*
X182345064Y-97055000D02*
X181890936Y-97055000D01*
X107509000Y-85090000D02*
X140529000Y-85090000D01*
X140529000Y-85090000D02*
X140529000Y-95250000D01*
X140529000Y-95250000D02*
X107509000Y-95250000D01*
X107509000Y-95250000D02*
X107509000Y-85090000D01*
D14*
X119921866Y-79578200D02*
X120390023Y-79578200D01*
X120390023Y-79747533D01*
X119702729Y-79747533D01*
X119702729Y-78943200D01*
X119921866Y-78943200D01*
X119921866Y-79578200D01*
G36*
X119921866Y-79578200D02*
G01*
X120390023Y-79578200D01*
X120390023Y-79747533D01*
X119702729Y-79747533D01*
X119702729Y-78943200D01*
X119921866Y-78943200D01*
X119921866Y-79578200D01*
G37*
X117690651Y-79112533D02*
X117401788Y-79112533D01*
X117401788Y-79747533D01*
X117192611Y-79747533D01*
X117192611Y-79112533D01*
X116903749Y-79112533D01*
X116903749Y-78943200D01*
X117690651Y-78943200D01*
X117690651Y-79112533D01*
G36*
X117690651Y-79112533D02*
G01*
X117401788Y-79112533D01*
X117401788Y-79747533D01*
X117192611Y-79747533D01*
X117192611Y-79112533D01*
X116903749Y-79112533D01*
X116903749Y-78943200D01*
X117690651Y-78943200D01*
X117690651Y-79112533D01*
G37*
X120479670Y-80060800D02*
X120170886Y-80060800D01*
X120170886Y-80780467D01*
X120051357Y-80780467D01*
X120051357Y-80060800D01*
X119732611Y-80060800D01*
X119732611Y-79976133D01*
X120479670Y-79976133D01*
X120479670Y-80060800D01*
G36*
X120479670Y-80060800D02*
G01*
X120170886Y-80060800D01*
X120170886Y-80780467D01*
X120051357Y-80780467D01*
X120051357Y-80060800D01*
X119732611Y-80060800D01*
X119732611Y-79976133D01*
X120479670Y-79976133D01*
X120479670Y-80060800D01*
G37*
X118557239Y-79104066D02*
X118049239Y-79104066D01*
X118049239Y-79256466D01*
X118497474Y-79256466D01*
X118497474Y-79425800D01*
X118049239Y-79425800D01*
X118049239Y-79578200D01*
X118567200Y-79578200D01*
X118567200Y-79747533D01*
X117840062Y-79747533D01*
X117840062Y-78943200D01*
X118557239Y-78943200D01*
X118557239Y-79104066D01*
G36*
X118557239Y-79104066D02*
G01*
X118049239Y-79104066D01*
X118049239Y-79256466D01*
X118497474Y-79256466D01*
X118497474Y-79425800D01*
X118049239Y-79425800D01*
X118049239Y-79578200D01*
X118567200Y-79578200D01*
X118567200Y-79747533D01*
X117840062Y-79747533D01*
X117840062Y-78943200D01*
X118557239Y-78943200D01*
X118557239Y-79104066D01*
G37*
X119593160Y-80060800D02*
X119015435Y-80060800D01*
X119015435Y-80331733D01*
X119533396Y-80331733D01*
X119533396Y-80416400D01*
X119015435Y-80416400D01*
X119015435Y-80687333D01*
X119593160Y-80687333D01*
X119593160Y-80780467D01*
X118905866Y-80780467D01*
X118905866Y-79976133D01*
X119593160Y-79976133D01*
X119593160Y-80060800D01*
G36*
X119593160Y-80060800D02*
G01*
X119015435Y-80060800D01*
X119015435Y-80331733D01*
X119533396Y-80331733D01*
X119533396Y-80416400D01*
X119015435Y-80416400D01*
X119015435Y-80687333D01*
X119593160Y-80687333D01*
X119593160Y-80780467D01*
X118905866Y-80780467D01*
X118905866Y-79976133D01*
X119593160Y-79976133D01*
X119593160Y-80060800D01*
G37*
X121803943Y-80170766D02*
X121844034Y-80221299D01*
X121880519Y-80266696D01*
X121911948Y-80305203D01*
X121936875Y-80335067D01*
X121953850Y-80354531D01*
X121961426Y-80361841D01*
X121961629Y-80361823D01*
X121968137Y-80354153D01*
X121984357Y-80334334D01*
X122008794Y-80304216D01*
X122039951Y-80265647D01*
X122076331Y-80220477D01*
X122116437Y-80170555D01*
X122117439Y-80169307D01*
X122269042Y-79980367D01*
X122335572Y-79977863D01*
X122369023Y-79977380D01*
X122392913Y-79978516D01*
X122402101Y-79981025D01*
X122402102Y-79981044D01*
X122396647Y-79989111D01*
X122381150Y-80009462D01*
X122356905Y-80040456D01*
X122325212Y-80080457D01*
X122287366Y-80127824D01*
X122244664Y-80180919D01*
X122207866Y-80226435D01*
X122013631Y-80466141D01*
X122013631Y-80780467D01*
X121904062Y-80780467D01*
X121904062Y-80468251D01*
X121723479Y-80245475D01*
X121678494Y-80189998D01*
X121636380Y-80138090D01*
X121598670Y-80091643D01*
X121566901Y-80052546D01*
X121542606Y-80022689D01*
X121527322Y-80003961D01*
X121523585Y-79999417D01*
X121504274Y-79976133D01*
X121650462Y-79976133D01*
X121803943Y-80170766D01*
G36*
X121803943Y-80170766D02*
G01*
X121844034Y-80221299D01*
X121880519Y-80266696D01*
X121911948Y-80305203D01*
X121936875Y-80335067D01*
X121953850Y-80354531D01*
X121961426Y-80361841D01*
X121961629Y-80361823D01*
X121968137Y-80354153D01*
X121984357Y-80334334D01*
X122008794Y-80304216D01*
X122039951Y-80265647D01*
X122076331Y-80220477D01*
X122116437Y-80170555D01*
X122117439Y-80169307D01*
X122269042Y-79980367D01*
X122335572Y-79977863D01*
X122369023Y-79977380D01*
X122392913Y-79978516D01*
X122402101Y-79981025D01*
X122402102Y-79981044D01*
X122396647Y-79989111D01*
X122381150Y-80009462D01*
X122356905Y-80040456D01*
X122325212Y-80080457D01*
X122287366Y-80127824D01*
X122244664Y-80180919D01*
X122207866Y-80226435D01*
X122013631Y-80466141D01*
X122013631Y-80780467D01*
X121904062Y-80780467D01*
X121904062Y-80468251D01*
X121723479Y-80245475D01*
X121678494Y-80189998D01*
X121636380Y-80138090D01*
X121598670Y-80091643D01*
X121566901Y-80052546D01*
X121542606Y-80022689D01*
X121527322Y-80003961D01*
X121523585Y-79999417D01*
X121504274Y-79976133D01*
X121650462Y-79976133D01*
X121803943Y-80170766D01*
G37*
X118656973Y-79977838D02*
X118731553Y-79980367D01*
X118531230Y-80153268D01*
X118330908Y-80326170D01*
X118538701Y-80548316D01*
X118588125Y-80601298D01*
X118633345Y-80650050D01*
X118672922Y-80692999D01*
X118705415Y-80728570D01*
X118729384Y-80755190D01*
X118743388Y-80771283D01*
X118746494Y-80775464D01*
X118737374Y-80777928D01*
X118713372Y-80779715D01*
X118679524Y-80780462D01*
X118676682Y-80780467D01*
X118606869Y-80780467D01*
X118430979Y-80592083D01*
X118385526Y-80543406D01*
X118344180Y-80499131D01*
X118308537Y-80460971D01*
X118280197Y-80430637D01*
X118260758Y-80409839D01*
X118251819Y-80400289D01*
X118251449Y-80399898D01*
X118243514Y-80404151D01*
X118224202Y-80418429D01*
X118196119Y-80440700D01*
X118161873Y-80468931D01*
X118148525Y-80480173D01*
X118049239Y-80564249D01*
X118049239Y-80780467D01*
X117939670Y-80780467D01*
X117939670Y-79976133D01*
X118049239Y-79976133D01*
X118049239Y-80445609D01*
X118225672Y-80289188D01*
X118279940Y-80241125D01*
X118335397Y-80192099D01*
X118388744Y-80145018D01*
X118436684Y-80102792D01*
X118475919Y-80068329D01*
X118492249Y-80054038D01*
X118582393Y-79975310D01*
X118656973Y-79977838D01*
G36*
X118656973Y-79977838D02*
G01*
X118731553Y-79980367D01*
X118531230Y-80153268D01*
X118330908Y-80326170D01*
X118538701Y-80548316D01*
X118588125Y-80601298D01*
X118633345Y-80650050D01*
X118672922Y-80692999D01*
X118705415Y-80728570D01*
X118729384Y-80755190D01*
X118743388Y-80771283D01*
X118746494Y-80775464D01*
X118737374Y-80777928D01*
X118713372Y-80779715D01*
X118679524Y-80780462D01*
X118676682Y-80780467D01*
X118606869Y-80780467D01*
X118430979Y-80592083D01*
X118385526Y-80543406D01*
X118344180Y-80499131D01*
X118308537Y-80460971D01*
X118280197Y-80430637D01*
X118260758Y-80409839D01*
X118251819Y-80400289D01*
X118251449Y-80399898D01*
X118243514Y-80404151D01*
X118224202Y-80418429D01*
X118196119Y-80440700D01*
X118161873Y-80468931D01*
X118148525Y-80480173D01*
X118049239Y-80564249D01*
X118049239Y-80780467D01*
X117939670Y-80780467D01*
X117939670Y-79976133D01*
X118049239Y-79976133D01*
X118049239Y-80445609D01*
X118225672Y-80289188D01*
X118279940Y-80241125D01*
X118335397Y-80192099D01*
X118388744Y-80145018D01*
X118436684Y-80102792D01*
X118475919Y-80068329D01*
X118492249Y-80054038D01*
X118582393Y-79975310D01*
X118656973Y-79977838D01*
G37*
X116076748Y-79394050D02*
X116296051Y-79394050D01*
X116305381Y-79396590D01*
X116330626Y-79398647D01*
X116367780Y-79399990D01*
X116406775Y-79400400D01*
X116454911Y-79400189D01*
X116486296Y-79399256D01*
X116504097Y-79397150D01*
X116511481Y-79393419D01*
X116511617Y-79387612D01*
X116510801Y-79385583D01*
X116492413Y-79345153D01*
X116472685Y-79303110D01*
X116453076Y-79262406D01*
X116435047Y-79225993D01*
X116420056Y-79196824D01*
X116409563Y-79177850D01*
X116405193Y-79171931D01*
X116399920Y-79179192D01*
X116389016Y-79198786D01*
X116374159Y-79227296D01*
X116357028Y-79261303D01*
X116339303Y-79297390D01*
X116322664Y-79332138D01*
X116308791Y-79362129D01*
X116299362Y-79383946D01*
X116296051Y-79394050D01*
X116076748Y-79394050D01*
X116095401Y-79356678D01*
X116106091Y-79335313D01*
X116304511Y-78938966D01*
X116509604Y-78938966D01*
X116912386Y-79743300D01*
X116801829Y-79745707D01*
X116756726Y-79746111D01*
X116719182Y-79745361D01*
X116693535Y-79743614D01*
X116684344Y-79741474D01*
X116678025Y-79731224D01*
X116666437Y-79708793D01*
X116651408Y-79677819D01*
X116639489Y-79652283D01*
X116601563Y-79569733D01*
X116208685Y-79569733D01*
X116166651Y-79658633D01*
X116124616Y-79747533D01*
X116016143Y-79747533D01*
X115971354Y-79746851D01*
X115935888Y-79744990D01*
X115913545Y-79742227D01*
X115907670Y-79739597D01*
X115911462Y-79730478D01*
X115922348Y-79707290D01*
X115939592Y-79671530D01*
X115962456Y-79624700D01*
X115990205Y-79568300D01*
X116022103Y-79503830D01*
X116057414Y-79432789D01*
X116076748Y-79394050D01*
G36*
X116076748Y-79394050D02*
G01*
X116296051Y-79394050D01*
X116305381Y-79396590D01*
X116330626Y-79398647D01*
X116367780Y-79399990D01*
X116406775Y-79400400D01*
X116454911Y-79400189D01*
X116486296Y-79399256D01*
X116504097Y-79397150D01*
X116511481Y-79393419D01*
X116511617Y-79387612D01*
X116510801Y-79385583D01*
X116492413Y-79345153D01*
X116472685Y-79303110D01*
X116453076Y-79262406D01*
X116435047Y-79225993D01*
X116420056Y-79196824D01*
X116409563Y-79177850D01*
X116405193Y-79171931D01*
X116399920Y-79179192D01*
X116389016Y-79198786D01*
X116374159Y-79227296D01*
X116357028Y-79261303D01*
X116339303Y-79297390D01*
X116322664Y-79332138D01*
X116308791Y-79362129D01*
X116299362Y-79383946D01*
X116296051Y-79394050D01*
X116076748Y-79394050D01*
X116095401Y-79356678D01*
X116106091Y-79335313D01*
X116304511Y-78938966D01*
X116509604Y-78938966D01*
X116912386Y-79743300D01*
X116801829Y-79745707D01*
X116756726Y-79746111D01*
X116719182Y-79745361D01*
X116693535Y-79743614D01*
X116684344Y-79741474D01*
X116678025Y-79731224D01*
X116666437Y-79708793D01*
X116651408Y-79677819D01*
X116639489Y-79652283D01*
X116601563Y-79569733D01*
X116208685Y-79569733D01*
X116166651Y-79658633D01*
X116124616Y-79747533D01*
X116016143Y-79747533D01*
X115971354Y-79746851D01*
X115935888Y-79744990D01*
X115913545Y-79742227D01*
X115907670Y-79739597D01*
X115911462Y-79730478D01*
X115922348Y-79707290D01*
X115939592Y-79671530D01*
X115962456Y-79624700D01*
X115990205Y-79568300D01*
X116022103Y-79503830D01*
X116057414Y-79432789D01*
X116076748Y-79394050D01*
G37*
X120668925Y-80384178D02*
X120668925Y-80060800D01*
X120788455Y-80060800D01*
X120788455Y-80384178D01*
X120965258Y-80381030D01*
X121031385Y-80379621D01*
X121081095Y-80377862D01*
X121117896Y-80375430D01*
X121145293Y-80371999D01*
X121166792Y-80367242D01*
X121185899Y-80360835D01*
X121186886Y-80360454D01*
X121239806Y-80332256D01*
X121277711Y-80296065D01*
X121299638Y-80254366D01*
X121304621Y-80209644D01*
X121291694Y-80164386D01*
X121273800Y-80136566D01*
X121249058Y-80112433D01*
X121216420Y-80093553D01*
X121173699Y-80079452D01*
X121118708Y-80069654D01*
X121049259Y-80063683D01*
X120963165Y-80061064D01*
X120925415Y-80060849D01*
X120788455Y-80060800D01*
X120668925Y-80060800D01*
X120668925Y-79976133D01*
X120916137Y-79976133D01*
X121004145Y-79976406D01*
X121075059Y-79977475D01*
X121131701Y-79979718D01*
X121176892Y-79983512D01*
X121213455Y-79989232D01*
X121244210Y-79997257D01*
X121271980Y-80007963D01*
X121299586Y-80021728D01*
X121312899Y-80029129D01*
X121362080Y-80066817D01*
X121397523Y-80114659D01*
X121418092Y-80169693D01*
X121422655Y-80228958D01*
X121411326Y-80285899D01*
X121384572Y-80335880D01*
X121341799Y-80380494D01*
X121286742Y-80416546D01*
X121233540Y-80437934D01*
X121175606Y-80455236D01*
X121315716Y-80612248D01*
X121355437Y-80656991D01*
X121390786Y-80697251D01*
X121420079Y-80731075D01*
X121441635Y-80756509D01*
X121453769Y-80771600D01*
X121455827Y-80774863D01*
X121446715Y-80777644D01*
X121422764Y-80779649D01*
X121389052Y-80780464D01*
X121387179Y-80780467D01*
X121318532Y-80780467D01*
X121180700Y-80623833D01*
X121042869Y-80467200D01*
X120788455Y-80467200D01*
X120788455Y-80780467D01*
X120668925Y-80780467D01*
X120668925Y-80384178D01*
G36*
X120668925Y-80384178D02*
G01*
X120668925Y-80060800D01*
X120788455Y-80060800D01*
X120788455Y-80384178D01*
X120965258Y-80381030D01*
X121031385Y-80379621D01*
X121081095Y-80377862D01*
X121117896Y-80375430D01*
X121145293Y-80371999D01*
X121166792Y-80367242D01*
X121185899Y-80360835D01*
X121186886Y-80360454D01*
X121239806Y-80332256D01*
X121277711Y-80296065D01*
X121299638Y-80254366D01*
X121304621Y-80209644D01*
X121291694Y-80164386D01*
X121273800Y-80136566D01*
X121249058Y-80112433D01*
X121216420Y-80093553D01*
X121173699Y-80079452D01*
X121118708Y-80069654D01*
X121049259Y-80063683D01*
X120963165Y-80061064D01*
X120925415Y-80060849D01*
X120788455Y-80060800D01*
X120668925Y-80060800D01*
X120668925Y-79976133D01*
X120916137Y-79976133D01*
X121004145Y-79976406D01*
X121075059Y-79977475D01*
X121131701Y-79979718D01*
X121176892Y-79983512D01*
X121213455Y-79989232D01*
X121244210Y-79997257D01*
X121271980Y-80007963D01*
X121299586Y-80021728D01*
X121312899Y-80029129D01*
X121362080Y-80066817D01*
X121397523Y-80114659D01*
X121418092Y-80169693D01*
X121422655Y-80228958D01*
X121411326Y-80285899D01*
X121384572Y-80335880D01*
X121341799Y-80380494D01*
X121286742Y-80416546D01*
X121233540Y-80437934D01*
X121175606Y-80455236D01*
X121315716Y-80612248D01*
X121355437Y-80656991D01*
X121390786Y-80697251D01*
X121420079Y-80731075D01*
X121441635Y-80756509D01*
X121453769Y-80771600D01*
X121455827Y-80774863D01*
X121446715Y-80777644D01*
X121422764Y-80779649D01*
X121389052Y-80780464D01*
X121387179Y-80780467D01*
X121318532Y-80780467D01*
X121180700Y-80623833D01*
X121042869Y-80467200D01*
X120788455Y-80467200D01*
X120788455Y-80780467D01*
X120668925Y-80780467D01*
X120668925Y-80384178D01*
G37*
X114911592Y-80384178D02*
X114911592Y-80060800D01*
X115031121Y-80060800D01*
X115031121Y-80384178D01*
X115207925Y-80381030D01*
X115274051Y-80379621D01*
X115323762Y-80377862D01*
X115360563Y-80375430D01*
X115387960Y-80371999D01*
X115409459Y-80367242D01*
X115428566Y-80360835D01*
X115429553Y-80360454D01*
X115482472Y-80332256D01*
X115520378Y-80296065D01*
X115542305Y-80254366D01*
X115547287Y-80209644D01*
X115534361Y-80164386D01*
X115516467Y-80136566D01*
X115491725Y-80112433D01*
X115459087Y-80093553D01*
X115416366Y-80079452D01*
X115361374Y-80069654D01*
X115291925Y-80063683D01*
X115205831Y-80061064D01*
X115168082Y-80060849D01*
X115031121Y-80060800D01*
X114911592Y-80060800D01*
X114911592Y-79976133D01*
X115158804Y-79976133D01*
X115246958Y-79976410D01*
X115318000Y-79977489D01*
X115374733Y-79979748D01*
X115419958Y-79983559D01*
X115456480Y-79989300D01*
X115487099Y-79997344D01*
X115514621Y-80008067D01*
X115541846Y-80021844D01*
X115554728Y-80029129D01*
X115603985Y-80067435D01*
X115632780Y-80103119D01*
X115649317Y-80130636D01*
X115658536Y-80154516D01*
X115662420Y-80181973D01*
X115663008Y-80213186D01*
X115654354Y-80278231D01*
X115629187Y-80333804D01*
X115587511Y-80379900D01*
X115529328Y-80416516D01*
X115476137Y-80437350D01*
X115419076Y-80455448D01*
X115558785Y-80613579D01*
X115598305Y-80658490D01*
X115633490Y-80698818D01*
X115662672Y-80732623D01*
X115684185Y-80757968D01*
X115696362Y-80772914D01*
X115698494Y-80776088D01*
X115689381Y-80778261D01*
X115665428Y-80779828D01*
X115631713Y-80780465D01*
X115629846Y-80780467D01*
X115561198Y-80780467D01*
X115423367Y-80623833D01*
X115285535Y-80467200D01*
X115031121Y-80467200D01*
X115031121Y-80780467D01*
X114911592Y-80780467D01*
X114911592Y-80384178D01*
G36*
X114911592Y-80384178D02*
G01*
X114911592Y-80060800D01*
X115031121Y-80060800D01*
X115031121Y-80384178D01*
X115207925Y-80381030D01*
X115274051Y-80379621D01*
X115323762Y-80377862D01*
X115360563Y-80375430D01*
X115387960Y-80371999D01*
X115409459Y-80367242D01*
X115428566Y-80360835D01*
X115429553Y-80360454D01*
X115482472Y-80332256D01*
X115520378Y-80296065D01*
X115542305Y-80254366D01*
X115547287Y-80209644D01*
X115534361Y-80164386D01*
X115516467Y-80136566D01*
X115491725Y-80112433D01*
X115459087Y-80093553D01*
X115416366Y-80079452D01*
X115361374Y-80069654D01*
X115291925Y-80063683D01*
X115205831Y-80061064D01*
X115168082Y-80060849D01*
X115031121Y-80060800D01*
X114911592Y-80060800D01*
X114911592Y-79976133D01*
X115158804Y-79976133D01*
X115246958Y-79976410D01*
X115318000Y-79977489D01*
X115374733Y-79979748D01*
X115419958Y-79983559D01*
X115456480Y-79989300D01*
X115487099Y-79997344D01*
X115514621Y-80008067D01*
X115541846Y-80021844D01*
X115554728Y-80029129D01*
X115603985Y-80067435D01*
X115632780Y-80103119D01*
X115649317Y-80130636D01*
X115658536Y-80154516D01*
X115662420Y-80181973D01*
X115663008Y-80213186D01*
X115654354Y-80278231D01*
X115629187Y-80333804D01*
X115587511Y-80379900D01*
X115529328Y-80416516D01*
X115476137Y-80437350D01*
X115419076Y-80455448D01*
X115558785Y-80613579D01*
X115598305Y-80658490D01*
X115633490Y-80698818D01*
X115662672Y-80732623D01*
X115684185Y-80757968D01*
X115696362Y-80772914D01*
X115698494Y-80776088D01*
X115689381Y-80778261D01*
X115665428Y-80779828D01*
X115631713Y-80780465D01*
X115629846Y-80780467D01*
X115561198Y-80780467D01*
X115423367Y-80623833D01*
X115285535Y-80467200D01*
X115031121Y-80467200D01*
X115031121Y-80780467D01*
X114911592Y-80780467D01*
X114911592Y-80384178D01*
G37*
X115821749Y-80353422D02*
X115941257Y-80353422D01*
X115944644Y-80425599D01*
X115965983Y-80495324D01*
X116004975Y-80560271D01*
X116039085Y-80598282D01*
X116100096Y-80644925D01*
X116170727Y-80677857D01*
X116247881Y-80696400D01*
X116328458Y-80699874D01*
X116409360Y-80687601D01*
X116425961Y-80683001D01*
X116496473Y-80653610D01*
X116554976Y-80612768D01*
X116601179Y-80562723D01*
X116634787Y-80505718D01*
X116655508Y-80444001D01*
X116663050Y-80379816D01*
X116657119Y-80315409D01*
X116637424Y-80253026D01*
X116603670Y-80194912D01*
X116555565Y-80143314D01*
X116501299Y-80105176D01*
X116428684Y-80073116D01*
X116352260Y-80056247D01*
X116274872Y-80053982D01*
X116199364Y-80065732D01*
X116128583Y-80090909D01*
X116065373Y-80128924D01*
X116012579Y-80179188D01*
X115989528Y-80211018D01*
X115956119Y-80281120D01*
X115941257Y-80353422D01*
X115821749Y-80353422D01*
X115821794Y-80332980D01*
X115839840Y-80254427D01*
X115874145Y-80181966D01*
X115923103Y-80117108D01*
X115985107Y-80061360D01*
X116058552Y-80016232D01*
X116141831Y-79983231D01*
X116233339Y-79963868D01*
X116307985Y-79959200D01*
X116394620Y-79966730D01*
X116481404Y-79988049D01*
X116562740Y-80021252D01*
X116633033Y-80064434D01*
X116645104Y-80073960D01*
X116700599Y-80131108D01*
X116742380Y-80198044D01*
X116769961Y-80271889D01*
X116782850Y-80349768D01*
X116780560Y-80428802D01*
X116762600Y-80506114D01*
X116730384Y-80575674D01*
X116682818Y-80637873D01*
X116620148Y-80692940D01*
X116546594Y-80737857D01*
X116466377Y-80769605D01*
X116454607Y-80772893D01*
X116396056Y-80783478D01*
X116326962Y-80788421D01*
X116255105Y-80787726D01*
X116188265Y-80781398D01*
X116145099Y-80772687D01*
X116058961Y-80740743D01*
X115983850Y-80695502D01*
X115921140Y-80638478D01*
X115872207Y-80571187D01*
X115838425Y-80495145D01*
X115821612Y-80416117D01*
X115821749Y-80353422D01*
G36*
X115821749Y-80353422D02*
G01*
X115941257Y-80353422D01*
X115944644Y-80425599D01*
X115965983Y-80495324D01*
X116004975Y-80560271D01*
X116039085Y-80598282D01*
X116100096Y-80644925D01*
X116170727Y-80677857D01*
X116247881Y-80696400D01*
X116328458Y-80699874D01*
X116409360Y-80687601D01*
X116425961Y-80683001D01*
X116496473Y-80653610D01*
X116554976Y-80612768D01*
X116601179Y-80562723D01*
X116634787Y-80505718D01*
X116655508Y-80444001D01*
X116663050Y-80379816D01*
X116657119Y-80315409D01*
X116637424Y-80253026D01*
X116603670Y-80194912D01*
X116555565Y-80143314D01*
X116501299Y-80105176D01*
X116428684Y-80073116D01*
X116352260Y-80056247D01*
X116274872Y-80053982D01*
X116199364Y-80065732D01*
X116128583Y-80090909D01*
X116065373Y-80128924D01*
X116012579Y-80179188D01*
X115989528Y-80211018D01*
X115956119Y-80281120D01*
X115941257Y-80353422D01*
X115821749Y-80353422D01*
X115821794Y-80332980D01*
X115839840Y-80254427D01*
X115874145Y-80181966D01*
X115923103Y-80117108D01*
X115985107Y-80061360D01*
X116058552Y-80016232D01*
X116141831Y-79983231D01*
X116233339Y-79963868D01*
X116307985Y-79959200D01*
X116394620Y-79966730D01*
X116481404Y-79988049D01*
X116562740Y-80021252D01*
X116633033Y-80064434D01*
X116645104Y-80073960D01*
X116700599Y-80131108D01*
X116742380Y-80198044D01*
X116769961Y-80271889D01*
X116782850Y-80349768D01*
X116780560Y-80428802D01*
X116762600Y-80506114D01*
X116730384Y-80575674D01*
X116682818Y-80637873D01*
X116620148Y-80692940D01*
X116546594Y-80737857D01*
X116466377Y-80769605D01*
X116454607Y-80772893D01*
X116396056Y-80783478D01*
X116326962Y-80788421D01*
X116255105Y-80787726D01*
X116188265Y-80781398D01*
X116145099Y-80772687D01*
X116058961Y-80740743D01*
X115983850Y-80695502D01*
X115921140Y-80638478D01*
X115872207Y-80571187D01*
X115838425Y-80495145D01*
X115821612Y-80416117D01*
X115821749Y-80353422D01*
G37*
X117502913Y-79970346D02*
X117590527Y-79992679D01*
X117669118Y-80026927D01*
X117717807Y-80058370D01*
X117759905Y-80090433D01*
X117681321Y-80163973D01*
X117637976Y-80133783D01*
X117603953Y-80113065D01*
X117562527Y-80091878D01*
X117535563Y-80080080D01*
X117502703Y-80068167D01*
X117473078Y-80061056D01*
X117439307Y-80057582D01*
X117394007Y-80056577D01*
X117386847Y-80056567D01*
X117339172Y-80057364D01*
X117304092Y-80060507D01*
X117274330Y-80067117D01*
X117242612Y-80078319D01*
X117240458Y-80079174D01*
X117171986Y-80115440D01*
X117114772Y-80163805D01*
X117070462Y-80221535D01*
X117040703Y-80285898D01*
X117027140Y-80354159D01*
X117031420Y-80423587D01*
X117031822Y-80425568D01*
X117056042Y-80500077D01*
X117095093Y-80564676D01*
X117147733Y-80618227D01*
X117212719Y-80659594D01*
X117288808Y-80687643D01*
X117327499Y-80695810D01*
X117408141Y-80700743D01*
X117488237Y-80688781D01*
X117567652Y-80659956D01*
X117641001Y-80617894D01*
X117691904Y-80583444D01*
X117726140Y-80611650D01*
X117746331Y-80630012D01*
X117758627Y-80644528D01*
X117760376Y-80648777D01*
X117752408Y-80659844D01*
X117730368Y-80677884D01*
X117697049Y-80700859D01*
X117655246Y-80726733D01*
X117646376Y-80731923D01*
X117586832Y-80758126D01*
X117514588Y-80776788D01*
X117435075Y-80787380D01*
X117353728Y-80789374D01*
X117275979Y-80782239D01*
X117230083Y-80772492D01*
X117144419Y-80740645D01*
X117069635Y-80695274D01*
X117007142Y-80637756D01*
X116958352Y-80569466D01*
X116924677Y-80491779D01*
X116918161Y-80468581D01*
X116907669Y-80416784D01*
X116905008Y-80371486D01*
X116910210Y-80324582D01*
X116918827Y-80285314D01*
X116948196Y-80205540D01*
X116993449Y-80134733D01*
X117052974Y-80074191D01*
X117125161Y-80025214D01*
X117208399Y-79989099D01*
X117301075Y-79967143D01*
X117316324Y-79965073D01*
X117410203Y-79960840D01*
X117502913Y-79970346D01*
G36*
X117502913Y-79970346D02*
G01*
X117590527Y-79992679D01*
X117669118Y-80026927D01*
X117717807Y-80058370D01*
X117759905Y-80090433D01*
X117681321Y-80163973D01*
X117637976Y-80133783D01*
X117603953Y-80113065D01*
X117562527Y-80091878D01*
X117535563Y-80080080D01*
X117502703Y-80068167D01*
X117473078Y-80061056D01*
X117439307Y-80057582D01*
X117394007Y-80056577D01*
X117386847Y-80056567D01*
X117339172Y-80057364D01*
X117304092Y-80060507D01*
X117274330Y-80067117D01*
X117242612Y-80078319D01*
X117240458Y-80079174D01*
X117171986Y-80115440D01*
X117114772Y-80163805D01*
X117070462Y-80221535D01*
X117040703Y-80285898D01*
X117027140Y-80354159D01*
X117031420Y-80423587D01*
X117031822Y-80425568D01*
X117056042Y-80500077D01*
X117095093Y-80564676D01*
X117147733Y-80618227D01*
X117212719Y-80659594D01*
X117288808Y-80687643D01*
X117327499Y-80695810D01*
X117408141Y-80700743D01*
X117488237Y-80688781D01*
X117567652Y-80659956D01*
X117641001Y-80617894D01*
X117691904Y-80583444D01*
X117726140Y-80611650D01*
X117746331Y-80630012D01*
X117758627Y-80644528D01*
X117760376Y-80648777D01*
X117752408Y-80659844D01*
X117730368Y-80677884D01*
X117697049Y-80700859D01*
X117655246Y-80726733D01*
X117646376Y-80731923D01*
X117586832Y-80758126D01*
X117514588Y-80776788D01*
X117435075Y-80787380D01*
X117353728Y-80789374D01*
X117275979Y-80782239D01*
X117230083Y-80772492D01*
X117144419Y-80740645D01*
X117069635Y-80695274D01*
X117007142Y-80637756D01*
X116958352Y-80569466D01*
X116924677Y-80491779D01*
X116918161Y-80468581D01*
X116907669Y-80416784D01*
X116905008Y-80371486D01*
X116910210Y-80324582D01*
X116918827Y-80285314D01*
X116948196Y-80205540D01*
X116993449Y-80134733D01*
X117052974Y-80074191D01*
X117125161Y-80025214D01*
X117208399Y-79989099D01*
X117301075Y-79967143D01*
X117316324Y-79965073D01*
X117410203Y-79960840D01*
X117502913Y-79970346D01*
G37*
X119080881Y-78943318D02*
X119145247Y-78943770D01*
X119195392Y-78944701D01*
X119234166Y-78946257D01*
X119264418Y-78948585D01*
X119288998Y-78951830D01*
X119310756Y-78956138D01*
X119326077Y-78959929D01*
X119395869Y-78986184D01*
X119452012Y-79024761D01*
X119494644Y-79075759D01*
X119499699Y-79084167D01*
X119514491Y-79113045D01*
X119522919Y-79139963D01*
X119526650Y-79171929D01*
X119527356Y-79200366D01*
X119525982Y-79238317D01*
X119522008Y-79274598D01*
X119516257Y-79302015D01*
X119515489Y-79304361D01*
X119498047Y-79335793D01*
X119468585Y-79370870D01*
X119432224Y-79404614D01*
X119394088Y-79432044D01*
X119372391Y-79443441D01*
X119333654Y-79460239D01*
X119377044Y-79512869D01*
X119403979Y-79545721D01*
X119434275Y-79582957D01*
X119465616Y-79621701D01*
X119495690Y-79659074D01*
X119522184Y-79692200D01*
X119542784Y-79718200D01*
X119555177Y-79734197D01*
X119557181Y-79736950D01*
X119556001Y-79741449D01*
X119543624Y-79744523D01*
X119517688Y-79746374D01*
X119475826Y-79747205D01*
X119436866Y-79747291D01*
X119309278Y-79747049D01*
X119209670Y-79620634D01*
X119110062Y-79494218D01*
X119032866Y-79493876D01*
X118955670Y-79493533D01*
X118955670Y-79747533D01*
X118736533Y-79747533D01*
X118736533Y-79104066D01*
X118955670Y-79104066D01*
X118955670Y-79324200D01*
X119082670Y-79324187D01*
X119140394Y-79323673D01*
X119182268Y-79321901D01*
X119212337Y-79318499D01*
X119234646Y-79313097D01*
X119244533Y-79309370D01*
X119280368Y-79285591D01*
X119302615Y-79253077D01*
X119310401Y-79216130D01*
X119302852Y-79179053D01*
X119279092Y-79146146D01*
X119277918Y-79145089D01*
X119251855Y-79127998D01*
X119216346Y-79115912D01*
X119168563Y-79108294D01*
X119105674Y-79104611D01*
X119060828Y-79104066D01*
X118955670Y-79104066D01*
X118736533Y-79104066D01*
X118736533Y-78943200D01*
X118999445Y-78943200D01*
X119080881Y-78943318D01*
G36*
X119080881Y-78943318D02*
G01*
X119145247Y-78943770D01*
X119195392Y-78944701D01*
X119234166Y-78946257D01*
X119264418Y-78948585D01*
X119288998Y-78951830D01*
X119310756Y-78956138D01*
X119326077Y-78959929D01*
X119395869Y-78986184D01*
X119452012Y-79024761D01*
X119494644Y-79075759D01*
X119499699Y-79084167D01*
X119514491Y-79113045D01*
X119522919Y-79139963D01*
X119526650Y-79171929D01*
X119527356Y-79200366D01*
X119525982Y-79238317D01*
X119522008Y-79274598D01*
X119516257Y-79302015D01*
X119515489Y-79304361D01*
X119498047Y-79335793D01*
X119468585Y-79370870D01*
X119432224Y-79404614D01*
X119394088Y-79432044D01*
X119372391Y-79443441D01*
X119333654Y-79460239D01*
X119377044Y-79512869D01*
X119403979Y-79545721D01*
X119434275Y-79582957D01*
X119465616Y-79621701D01*
X119495690Y-79659074D01*
X119522184Y-79692200D01*
X119542784Y-79718200D01*
X119555177Y-79734197D01*
X119557181Y-79736950D01*
X119556001Y-79741449D01*
X119543624Y-79744523D01*
X119517688Y-79746374D01*
X119475826Y-79747205D01*
X119436866Y-79747291D01*
X119309278Y-79747049D01*
X119209670Y-79620634D01*
X119110062Y-79494218D01*
X119032866Y-79493876D01*
X118955670Y-79493533D01*
X118955670Y-79747533D01*
X118736533Y-79747533D01*
X118736533Y-79104066D01*
X118955670Y-79104066D01*
X118955670Y-79324200D01*
X119082670Y-79324187D01*
X119140394Y-79323673D01*
X119182268Y-79321901D01*
X119212337Y-79318499D01*
X119234646Y-79313097D01*
X119244533Y-79309370D01*
X119280368Y-79285591D01*
X119302615Y-79253077D01*
X119310401Y-79216130D01*
X119302852Y-79179053D01*
X119279092Y-79146146D01*
X119277918Y-79145089D01*
X119251855Y-79127998D01*
X119216346Y-79115912D01*
X119168563Y-79108294D01*
X119105674Y-79104611D01*
X119060828Y-79104066D01*
X118955670Y-79104066D01*
X118736533Y-79104066D01*
X118736533Y-78943200D01*
X118999445Y-78943200D01*
X119080881Y-78943318D01*
G37*
X121636191Y-79354307D02*
X121865716Y-79354307D01*
X121872430Y-79404620D01*
X121887270Y-79447498D01*
X121891683Y-79455433D01*
X121933370Y-79506614D01*
X121987197Y-79546083D01*
X122049982Y-79572742D01*
X122118547Y-79585492D01*
X122189711Y-79583235D01*
X122234042Y-79573730D01*
X122293239Y-79548207D01*
X122341770Y-79510698D01*
X122378676Y-79464006D01*
X122403001Y-79410929D01*
X122413787Y-79354269D01*
X122410079Y-79296826D01*
X122390918Y-79241402D01*
X122362252Y-79198536D01*
X122312736Y-79153368D01*
X122253769Y-79120854D01*
X122188715Y-79101751D01*
X122120936Y-79096822D01*
X122053797Y-79106825D01*
X122015525Y-79120178D01*
X121971777Y-79146140D01*
X121930073Y-79183024D01*
X121896099Y-79225101D01*
X121878471Y-79258232D01*
X121867580Y-79303272D01*
X121865716Y-79354307D01*
X121636191Y-79354307D01*
X121635570Y-79348633D01*
X121643428Y-79271902D01*
X121667451Y-79197063D01*
X121707599Y-79126427D01*
X121763835Y-79062308D01*
X121776023Y-79051324D01*
X121847975Y-79000439D01*
X121929610Y-78962752D01*
X122018020Y-78938339D01*
X122110299Y-78927273D01*
X122203539Y-78929629D01*
X122294833Y-78945483D01*
X122381275Y-78974908D01*
X122459956Y-79017981D01*
X122481108Y-79033188D01*
X122535909Y-79080796D01*
X122576653Y-79130837D01*
X122608174Y-79189591D01*
X122615940Y-79208291D01*
X122638029Y-79289074D01*
X122641323Y-79368926D01*
X122626922Y-79446079D01*
X122595929Y-79518764D01*
X122549444Y-79585212D01*
X122488570Y-79643656D01*
X122414408Y-79692325D01*
X122328058Y-79729452D01*
X122283255Y-79742492D01*
X122221949Y-79752579D01*
X122150352Y-79756236D01*
X122076510Y-79753613D01*
X122008470Y-79744861D01*
X121973788Y-79736731D01*
X121893373Y-79708372D01*
X121825853Y-79672809D01*
X121766539Y-79628229D01*
X121709361Y-79567053D01*
X121668499Y-79498521D01*
X121643914Y-79424943D01*
X121636191Y-79354307D01*
G36*
X121636191Y-79354307D02*
G01*
X121865716Y-79354307D01*
X121872430Y-79404620D01*
X121887270Y-79447498D01*
X121891683Y-79455433D01*
X121933370Y-79506614D01*
X121987197Y-79546083D01*
X122049982Y-79572742D01*
X122118547Y-79585492D01*
X122189711Y-79583235D01*
X122234042Y-79573730D01*
X122293239Y-79548207D01*
X122341770Y-79510698D01*
X122378676Y-79464006D01*
X122403001Y-79410929D01*
X122413787Y-79354269D01*
X122410079Y-79296826D01*
X122390918Y-79241402D01*
X122362252Y-79198536D01*
X122312736Y-79153368D01*
X122253769Y-79120854D01*
X122188715Y-79101751D01*
X122120936Y-79096822D01*
X122053797Y-79106825D01*
X122015525Y-79120178D01*
X121971777Y-79146140D01*
X121930073Y-79183024D01*
X121896099Y-79225101D01*
X121878471Y-79258232D01*
X121867580Y-79303272D01*
X121865716Y-79354307D01*
X121636191Y-79354307D01*
X121635570Y-79348633D01*
X121643428Y-79271902D01*
X121667451Y-79197063D01*
X121707599Y-79126427D01*
X121763835Y-79062308D01*
X121776023Y-79051324D01*
X121847975Y-79000439D01*
X121929610Y-78962752D01*
X122018020Y-78938339D01*
X122110299Y-78927273D01*
X122203539Y-78929629D01*
X122294833Y-78945483D01*
X122381275Y-78974908D01*
X122459956Y-79017981D01*
X122481108Y-79033188D01*
X122535909Y-79080796D01*
X122576653Y-79130837D01*
X122608174Y-79189591D01*
X122615940Y-79208291D01*
X122638029Y-79289074D01*
X122641323Y-79368926D01*
X122626922Y-79446079D01*
X122595929Y-79518764D01*
X122549444Y-79585212D01*
X122488570Y-79643656D01*
X122414408Y-79692325D01*
X122328058Y-79729452D01*
X122283255Y-79742492D01*
X122221949Y-79752579D01*
X122150352Y-79756236D01*
X122076510Y-79753613D01*
X122008470Y-79744861D01*
X121973788Y-79736731D01*
X121893373Y-79708372D01*
X121825853Y-79672809D01*
X121766539Y-79628229D01*
X121709361Y-79567053D01*
X121668499Y-79498521D01*
X121643914Y-79424943D01*
X121636191Y-79354307D01*
G37*
X120502046Y-79342093D02*
X120725619Y-79342093D01*
X120726677Y-79380456D01*
X120731906Y-79409598D01*
X120743123Y-79437111D01*
X120752435Y-79454182D01*
X120791727Y-79504779D01*
X120843134Y-79544222D01*
X120903360Y-79571482D01*
X120969110Y-79585528D01*
X121037088Y-79585333D01*
X121104000Y-79569868D01*
X121112560Y-79566638D01*
X121172687Y-79534009D01*
X121220201Y-79490220D01*
X121253824Y-79438034D01*
X121272278Y-79380217D01*
X121274284Y-79319534D01*
X121258564Y-79258748D01*
X121256814Y-79254667D01*
X121223728Y-79199028D01*
X121177662Y-79155204D01*
X121125682Y-79124950D01*
X121093436Y-79111223D01*
X121064632Y-79103582D01*
X121030760Y-79100358D01*
X120997631Y-79099836D01*
X120954654Y-79100867D01*
X120922967Y-79105086D01*
X120894015Y-79114179D01*
X120868909Y-79125234D01*
X120808822Y-79162274D01*
X120764862Y-79209204D01*
X120737169Y-79265815D01*
X120725884Y-79331892D01*
X120725619Y-79342093D01*
X120502046Y-79342093D01*
X120502885Y-79289947D01*
X120516745Y-79220595D01*
X120544576Y-79158780D01*
X120587774Y-79101260D01*
X120638562Y-79052516D01*
X120715857Y-78997626D01*
X120801170Y-78958231D01*
X120894255Y-78934417D01*
X120994870Y-78926269D01*
X120996762Y-78926266D01*
X121098860Y-78933907D01*
X121192948Y-78956070D01*
X121277509Y-78991620D01*
X121351023Y-79039422D01*
X121411970Y-79098339D01*
X121458831Y-79167236D01*
X121490088Y-79244976D01*
X121501857Y-79303941D01*
X121501822Y-79383628D01*
X121483028Y-79461793D01*
X121446595Y-79535796D01*
X121393642Y-79602997D01*
X121362777Y-79631983D01*
X121293014Y-79683210D01*
X121219451Y-79719921D01*
X121138771Y-79743224D01*
X121047657Y-79754226D01*
X120993048Y-79755443D01*
X120944555Y-79753740D01*
X120896223Y-79749721D01*
X120856813Y-79744165D01*
X120849261Y-79742601D01*
X120761581Y-79714003D01*
X120682254Y-79671028D01*
X120613816Y-79615491D01*
X120558798Y-79549211D01*
X120542512Y-79522618D01*
X120525395Y-79490430D01*
X120514289Y-79463819D01*
X120507585Y-79436797D01*
X120503679Y-79403373D01*
X120501596Y-79370076D01*
X120502046Y-79342093D01*
G36*
X120502046Y-79342093D02*
G01*
X120725619Y-79342093D01*
X120726677Y-79380456D01*
X120731906Y-79409598D01*
X120743123Y-79437111D01*
X120752435Y-79454182D01*
X120791727Y-79504779D01*
X120843134Y-79544222D01*
X120903360Y-79571482D01*
X120969110Y-79585528D01*
X121037088Y-79585333D01*
X121104000Y-79569868D01*
X121112560Y-79566638D01*
X121172687Y-79534009D01*
X121220201Y-79490220D01*
X121253824Y-79438034D01*
X121272278Y-79380217D01*
X121274284Y-79319534D01*
X121258564Y-79258748D01*
X121256814Y-79254667D01*
X121223728Y-79199028D01*
X121177662Y-79155204D01*
X121125682Y-79124950D01*
X121093436Y-79111223D01*
X121064632Y-79103582D01*
X121030760Y-79100358D01*
X120997631Y-79099836D01*
X120954654Y-79100867D01*
X120922967Y-79105086D01*
X120894015Y-79114179D01*
X120868909Y-79125234D01*
X120808822Y-79162274D01*
X120764862Y-79209204D01*
X120737169Y-79265815D01*
X120725884Y-79331892D01*
X120725619Y-79342093D01*
X120502046Y-79342093D01*
X120502885Y-79289947D01*
X120516745Y-79220595D01*
X120544576Y-79158780D01*
X120587774Y-79101260D01*
X120638562Y-79052516D01*
X120715857Y-78997626D01*
X120801170Y-78958231D01*
X120894255Y-78934417D01*
X120994870Y-78926269D01*
X120996762Y-78926266D01*
X121098860Y-78933907D01*
X121192948Y-78956070D01*
X121277509Y-78991620D01*
X121351023Y-79039422D01*
X121411970Y-79098339D01*
X121458831Y-79167236D01*
X121490088Y-79244976D01*
X121501857Y-79303941D01*
X121501822Y-79383628D01*
X121483028Y-79461793D01*
X121446595Y-79535796D01*
X121393642Y-79602997D01*
X121362777Y-79631983D01*
X121293014Y-79683210D01*
X121219451Y-79719921D01*
X121138771Y-79743224D01*
X121047657Y-79754226D01*
X120993048Y-79755443D01*
X120944555Y-79753740D01*
X120896223Y-79749721D01*
X120856813Y-79744165D01*
X120849261Y-79742601D01*
X120761581Y-79714003D01*
X120682254Y-79671028D01*
X120613816Y-79615491D01*
X120558798Y-79549211D01*
X120542512Y-79522618D01*
X120525395Y-79490430D01*
X120514289Y-79463819D01*
X120507585Y-79436797D01*
X120503679Y-79403373D01*
X120501596Y-79370076D01*
X120502046Y-79342093D01*
G37*
X115463523Y-79195083D02*
X115488110Y-79257435D01*
X115510880Y-79314304D01*
X115531041Y-79363780D01*
X115547803Y-79403955D01*
X115560372Y-79432920D01*
X115567959Y-79448767D01*
X115569731Y-79451200D01*
X115574008Y-79443420D01*
X115583261Y-79421397D01*
X115596735Y-79387105D01*
X115613673Y-79342517D01*
X115633318Y-79289606D01*
X115654915Y-79230348D01*
X115663714Y-79205912D01*
X115685968Y-79144199D01*
X115706586Y-79087586D01*
X115724796Y-79038145D01*
X115739830Y-78997944D01*
X115750918Y-78969055D01*
X115757290Y-78953546D01*
X115758291Y-78951622D01*
X115771598Y-78947451D01*
X115803090Y-78945095D01*
X115851134Y-78944646D01*
X115874852Y-78945026D01*
X115984867Y-78947433D01*
X115825486Y-79347483D01*
X115666106Y-79747533D01*
X115473921Y-79747533D01*
X115375575Y-79504116D01*
X115350823Y-79443144D01*
X115327954Y-79387366D01*
X115307810Y-79338793D01*
X115291233Y-79299437D01*
X115279068Y-79271312D01*
X115272157Y-79256428D01*
X115271075Y-79254654D01*
X115266446Y-79260819D01*
X115256250Y-79281151D01*
X115241314Y-79313780D01*
X115222464Y-79356835D01*
X115200528Y-79408446D01*
X115176333Y-79466741D01*
X115164400Y-79495954D01*
X115063882Y-79743300D01*
X114967642Y-79745725D01*
X114919287Y-79746274D01*
X114888052Y-79744858D01*
X114871240Y-79741250D01*
X114866592Y-79737258D01*
X114861084Y-79724002D01*
X114850235Y-79697207D01*
X114834789Y-79658751D01*
X114815492Y-79610511D01*
X114793089Y-79554366D01*
X114768326Y-79492192D01*
X114741946Y-79425867D01*
X114714695Y-79357270D01*
X114687319Y-79288277D01*
X114660563Y-79220766D01*
X114635171Y-79156614D01*
X114611888Y-79097700D01*
X114591461Y-79045900D01*
X114574634Y-79003093D01*
X114562151Y-78971156D01*
X114554759Y-78951966D01*
X114553004Y-78947067D01*
X114562308Y-78945534D01*
X114587616Y-78944647D01*
X114625023Y-78944474D01*
X114668928Y-78945048D01*
X114784853Y-78947433D01*
X114875340Y-79199316D01*
X114897795Y-79261361D01*
X114918560Y-79317856D01*
X114936896Y-79366854D01*
X114952061Y-79406407D01*
X114963313Y-79434570D01*
X114969912Y-79449394D01*
X114971204Y-79451200D01*
X114975537Y-79443475D01*
X114985305Y-79421572D01*
X114999721Y-79387399D01*
X115017997Y-79342864D01*
X115039347Y-79289877D01*
X115062983Y-79230344D01*
X115076837Y-79195083D01*
X115177092Y-78938966D01*
X115363268Y-78938966D01*
X115463523Y-79195083D01*
G36*
X115463523Y-79195083D02*
G01*
X115488110Y-79257435D01*
X115510880Y-79314304D01*
X115531041Y-79363780D01*
X115547803Y-79403955D01*
X115560372Y-79432920D01*
X115567959Y-79448767D01*
X115569731Y-79451200D01*
X115574008Y-79443420D01*
X115583261Y-79421397D01*
X115596735Y-79387105D01*
X115613673Y-79342517D01*
X115633318Y-79289606D01*
X115654915Y-79230348D01*
X115663714Y-79205912D01*
X115685968Y-79144199D01*
X115706586Y-79087586D01*
X115724796Y-79038145D01*
X115739830Y-78997944D01*
X115750918Y-78969055D01*
X115757290Y-78953546D01*
X115758291Y-78951622D01*
X115771598Y-78947451D01*
X115803090Y-78945095D01*
X115851134Y-78944646D01*
X115874852Y-78945026D01*
X115984867Y-78947433D01*
X115825486Y-79347483D01*
X115666106Y-79747533D01*
X115473921Y-79747533D01*
X115375575Y-79504116D01*
X115350823Y-79443144D01*
X115327954Y-79387366D01*
X115307810Y-79338793D01*
X115291233Y-79299437D01*
X115279068Y-79271312D01*
X115272157Y-79256428D01*
X115271075Y-79254654D01*
X115266446Y-79260819D01*
X115256250Y-79281151D01*
X115241314Y-79313780D01*
X115222464Y-79356835D01*
X115200528Y-79408446D01*
X115176333Y-79466741D01*
X115164400Y-79495954D01*
X115063882Y-79743300D01*
X114967642Y-79745725D01*
X114919287Y-79746274D01*
X114888052Y-79744858D01*
X114871240Y-79741250D01*
X114866592Y-79737258D01*
X114861084Y-79724002D01*
X114850235Y-79697207D01*
X114834789Y-79658751D01*
X114815492Y-79610511D01*
X114793089Y-79554366D01*
X114768326Y-79492192D01*
X114741946Y-79425867D01*
X114714695Y-79357270D01*
X114687319Y-79288277D01*
X114660563Y-79220766D01*
X114635171Y-79156614D01*
X114611888Y-79097700D01*
X114591461Y-79045900D01*
X114574634Y-79003093D01*
X114562151Y-78971156D01*
X114554759Y-78951966D01*
X114553004Y-78947067D01*
X114562308Y-78945534D01*
X114587616Y-78944647D01*
X114625023Y-78944474D01*
X114668928Y-78945048D01*
X114784853Y-78947433D01*
X114875340Y-79199316D01*
X114897795Y-79261361D01*
X114918560Y-79317856D01*
X114936896Y-79366854D01*
X114952061Y-79406407D01*
X114963313Y-79434570D01*
X114969912Y-79449394D01*
X114971204Y-79451200D01*
X114975537Y-79443475D01*
X114985305Y-79421572D01*
X114999721Y-79387399D01*
X115017997Y-79342864D01*
X115039347Y-79289877D01*
X115062983Y-79230344D01*
X115076837Y-79195083D01*
X115177092Y-78938966D01*
X115363268Y-78938966D01*
X115463523Y-79195083D01*
G37*
X113758989Y-74307846D02*
X113786829Y-74311721D01*
X113830279Y-74318251D01*
X113887376Y-74327113D01*
X113956154Y-74337982D01*
X114034649Y-74350535D01*
X114120897Y-74364450D01*
X114212933Y-74379402D01*
X114308794Y-74395069D01*
X114406514Y-74411126D01*
X114504129Y-74427251D01*
X114599675Y-74443119D01*
X114691187Y-74458409D01*
X114776701Y-74472796D01*
X114854253Y-74485956D01*
X114921878Y-74497567D01*
X114977611Y-74507306D01*
X115019489Y-74514847D01*
X115045546Y-74519870D01*
X115053358Y-74521725D01*
X115065878Y-74530796D01*
X115088484Y-74551968D01*
X115119653Y-74583579D01*
X115157862Y-74623968D01*
X115201590Y-74671475D01*
X115249313Y-74724437D01*
X115299510Y-74781194D01*
X115350657Y-74840084D01*
X115401233Y-74899447D01*
X115419776Y-74921533D01*
X115573226Y-75109241D01*
X115725344Y-75303420D01*
X115875356Y-75502788D01*
X116022482Y-75706066D01*
X116165947Y-75911972D01*
X116304972Y-76119224D01*
X116438780Y-76326542D01*
X116566595Y-76532645D01*
X116687639Y-76736252D01*
X116801134Y-76936082D01*
X116906303Y-77130853D01*
X117002370Y-77319285D01*
X117088556Y-77500096D01*
X117164085Y-77672006D01*
X117228179Y-77833734D01*
X117280061Y-77983998D01*
X117282363Y-77991323D01*
X117314326Y-78093546D01*
X117405371Y-78012422D01*
X117602916Y-77830236D01*
X117784030Y-77649877D01*
X117951349Y-77468274D01*
X118107510Y-77282354D01*
X118255151Y-77089044D01*
X118396909Y-76885271D01*
X118472205Y-76769383D01*
X118500231Y-76725870D01*
X118525361Y-76688019D01*
X118545982Y-76658166D01*
X118560481Y-76638648D01*
X118567200Y-76631800D01*
X118574115Y-76638893D01*
X118588737Y-76658617D01*
X118609453Y-76688633D01*
X118634649Y-76726606D01*
X118662194Y-76769383D01*
X118801835Y-76980068D01*
X118945927Y-77178627D01*
X119097106Y-77368133D01*
X119258008Y-77551657D01*
X119431272Y-77732273D01*
X119619533Y-77913053D01*
X119729066Y-78012455D01*
X119820149Y-78093613D01*
X119842523Y-78020990D01*
X119895768Y-77863264D01*
X119961605Y-77694146D01*
X120039327Y-77514849D01*
X120128226Y-77326588D01*
X120227596Y-77130579D01*
X120336730Y-76928035D01*
X120454920Y-76720173D01*
X120581459Y-76508205D01*
X120715641Y-76293348D01*
X120856757Y-76076815D01*
X121004102Y-75859822D01*
X121156969Y-75643583D01*
X121314649Y-75429313D01*
X121466719Y-75230660D01*
X121536221Y-75142453D01*
X121605857Y-75055656D01*
X121674621Y-74971424D01*
X121741505Y-74890910D01*
X121805501Y-74815267D01*
X121865603Y-74745648D01*
X121920803Y-74683207D01*
X121970094Y-74629095D01*
X122012470Y-74584468D01*
X122046922Y-74550477D01*
X122072443Y-74528276D01*
X122088028Y-74519019D01*
X122088337Y-74518952D01*
X122114128Y-74514172D01*
X122155761Y-74506867D01*
X122211271Y-74497358D01*
X122278698Y-74485966D01*
X122356078Y-74473010D01*
X122441450Y-74458811D01*
X122532852Y-74443690D01*
X122628320Y-74427968D01*
X122725894Y-74411965D01*
X122823611Y-74396001D01*
X122919508Y-74380397D01*
X123011623Y-74365474D01*
X123097994Y-74351552D01*
X123176659Y-74338951D01*
X123245656Y-74327993D01*
X123303022Y-74318998D01*
X123346795Y-74312286D01*
X123375013Y-74308178D01*
X123385714Y-74306994D01*
X123385748Y-74307010D01*
X123384066Y-74315649D01*
X123377758Y-74339519D01*
X123367165Y-74377455D01*
X123352628Y-74428288D01*
X123334488Y-74490854D01*
X123313087Y-74563985D01*
X123288766Y-74646514D01*
X123261868Y-74737275D01*
X123232732Y-74835101D01*
X123201701Y-74938825D01*
X123169116Y-75047282D01*
X123168809Y-75048301D01*
X123136207Y-75156756D01*
X123105136Y-75260457D01*
X123075938Y-75358241D01*
X123048955Y-75448945D01*
X123024531Y-75531405D01*
X123003007Y-75604459D01*
X122984728Y-75666943D01*
X122970035Y-75717693D01*
X122959271Y-75755547D01*
X122952780Y-75779341D01*
X122950903Y-75787912D01*
X122950909Y-75787918D01*
X122960226Y-75792535D01*
X122984875Y-75804492D01*
X123022833Y-75822816D01*
X123072077Y-75846532D01*
X123130586Y-75874667D01*
X123196337Y-75906245D01*
X123251673Y-75932796D01*
X123321422Y-75966503D01*
X123385165Y-75997801D01*
X123440935Y-76025685D01*
X123486761Y-76049149D01*
X123520675Y-76067189D01*
X123540708Y-76078798D01*
X123545423Y-76082764D01*
X123536893Y-76088142D01*
X123512534Y-76102281D01*
X123473212Y-76124697D01*
X123419789Y-76154908D01*
X123353130Y-76192431D01*
X123274098Y-76236783D01*
X123183557Y-76287481D01*
X123082371Y-76344043D01*
X122971403Y-76405985D01*
X122851519Y-76472825D01*
X122723580Y-76544080D01*
X122588452Y-76619266D01*
X122446998Y-76697902D01*
X122300081Y-76779504D01*
X122148567Y-76863590D01*
X122138047Y-76869425D01*
X121986235Y-76953688D01*
X121838966Y-77035530D01*
X121697104Y-77114468D01*
X121561512Y-77190015D01*
X121433055Y-77261689D01*
X121312597Y-77329003D01*
X121201002Y-77391474D01*
X121099132Y-77448617D01*
X121007854Y-77499947D01*
X120928030Y-77544979D01*
X120860524Y-77583229D01*
X120806200Y-77614213D01*
X120765923Y-77637444D01*
X120740556Y-77652440D01*
X120730962Y-77658715D01*
X120730905Y-77658811D01*
X120733335Y-77668595D01*
X120741319Y-77693018D01*
X120754324Y-77730595D01*
X120771814Y-77779843D01*
X120793256Y-77839276D01*
X120818115Y-77907411D01*
X120845856Y-77982763D01*
X120875946Y-78063848D01*
X120897677Y-78122041D01*
X120929131Y-78206257D01*
X120958694Y-78285791D01*
X120985822Y-78359155D01*
X121009971Y-78424857D01*
X121030597Y-78481407D01*
X121047155Y-78527317D01*
X121059101Y-78561096D01*
X121065891Y-78581253D01*
X121067285Y-78586425D01*
X121061189Y-78593920D01*
X121040612Y-78593918D01*
X121034984Y-78593153D01*
X121021142Y-78591554D01*
X120988757Y-78588072D01*
X120939063Y-78582836D01*
X120873299Y-78575972D01*
X120792700Y-78567609D01*
X120698504Y-78557874D01*
X120591946Y-78546894D01*
X120474264Y-78534796D01*
X120346695Y-78521709D01*
X120210474Y-78507759D01*
X120066838Y-78493074D01*
X119917025Y-78477782D01*
X119786021Y-78464429D01*
X118569430Y-78340502D01*
X117355589Y-78464140D01*
X117201571Y-78479836D01*
X117052610Y-78495034D01*
X116909953Y-78509606D01*
X116774842Y-78523424D01*
X116648524Y-78536359D01*
X116532242Y-78548285D01*
X116427242Y-78559072D01*
X116334768Y-78568594D01*
X116256066Y-78576723D01*
X116192379Y-78583330D01*
X116144954Y-78588288D01*
X116115033Y-78591469D01*
X116104396Y-78592666D01*
X116077634Y-78594114D01*
X116067313Y-78588920D01*
X116067043Y-78587104D01*
X116069981Y-78577305D01*
X116078437Y-78552856D01*
X116091868Y-78515237D01*
X116109735Y-78465929D01*
X116131496Y-78406413D01*
X116156610Y-78338170D01*
X116184536Y-78262680D01*
X116214735Y-78181425D01*
X116237300Y-78120933D01*
X116268706Y-78036569D01*
X116298117Y-77956977D01*
X116325005Y-77883628D01*
X116348840Y-77817994D01*
X116369094Y-77761546D01*
X116385237Y-77715755D01*
X116396741Y-77682092D01*
X116403077Y-77662030D01*
X116404144Y-77656837D01*
X116395568Y-77651378D01*
X116371165Y-77637159D01*
X116331798Y-77614664D01*
X116278333Y-77584375D01*
X116211632Y-77546776D01*
X116132561Y-77502351D01*
X116041982Y-77451583D01*
X115940761Y-77394954D01*
X115829761Y-77332950D01*
X115709847Y-77266052D01*
X115581882Y-77194745D01*
X115446731Y-77119512D01*
X115305258Y-77040836D01*
X115158327Y-76959201D01*
X115006801Y-76875089D01*
X114996280Y-76869252D01*
X114844485Y-76784999D01*
X114697229Y-76703200D01*
X114555376Y-76624335D01*
X114419790Y-76548889D01*
X114291334Y-76477343D01*
X114170873Y-76410181D01*
X114059269Y-76347885D01*
X113957387Y-76290939D01*
X113866090Y-76239824D01*
X113786242Y-76195024D01*
X113718706Y-76157022D01*
X113664346Y-76126300D01*
X113624026Y-76103340D01*
X113598609Y-76088626D01*
X113588960Y-76082641D01*
X113588897Y-76082562D01*
X113596563Y-76076799D01*
X113619672Y-76063816D01*
X113656255Y-76044614D01*
X113704340Y-76020199D01*
X113761958Y-75991573D01*
X113827136Y-75959739D01*
X113882719Y-75932963D01*
X113952750Y-75899402D01*
X114017124Y-75868507D01*
X114073815Y-75841255D01*
X114120802Y-75818619D01*
X114156059Y-75801574D01*
X114177563Y-75791095D01*
X114183490Y-75788104D01*
X114181668Y-75779687D01*
X114175227Y-75756034D01*
X114164510Y-75718309D01*
X114149860Y-75667675D01*
X114131619Y-75605296D01*
X114110130Y-75532335D01*
X114085736Y-75449957D01*
X114058780Y-75359325D01*
X114029603Y-75261602D01*
X113998550Y-75157953D01*
X113965963Y-75049540D01*
X113965590Y-75048301D01*
X113932993Y-74939805D01*
X113901948Y-74836029D01*
X113872797Y-74738139D01*
X113845881Y-74647303D01*
X113821541Y-74564687D01*
X113800119Y-74491458D01*
X113781955Y-74428783D01*
X113767392Y-74377829D01*
X113756771Y-74339761D01*
X113750432Y-74315748D01*
X113748717Y-74306955D01*
X113748724Y-74306948D01*
X113758989Y-74307846D01*
G36*
X113758989Y-74307846D02*
G01*
X113786829Y-74311721D01*
X113830279Y-74318251D01*
X113887376Y-74327113D01*
X113956154Y-74337982D01*
X114034649Y-74350535D01*
X114120897Y-74364450D01*
X114212933Y-74379402D01*
X114308794Y-74395069D01*
X114406514Y-74411126D01*
X114504129Y-74427251D01*
X114599675Y-74443119D01*
X114691187Y-74458409D01*
X114776701Y-74472796D01*
X114854253Y-74485956D01*
X114921878Y-74497567D01*
X114977611Y-74507306D01*
X115019489Y-74514847D01*
X115045546Y-74519870D01*
X115053358Y-74521725D01*
X115065878Y-74530796D01*
X115088484Y-74551968D01*
X115119653Y-74583579D01*
X115157862Y-74623968D01*
X115201590Y-74671475D01*
X115249313Y-74724437D01*
X115299510Y-74781194D01*
X115350657Y-74840084D01*
X115401233Y-74899447D01*
X115419776Y-74921533D01*
X115573226Y-75109241D01*
X115725344Y-75303420D01*
X115875356Y-75502788D01*
X116022482Y-75706066D01*
X116165947Y-75911972D01*
X116304972Y-76119224D01*
X116438780Y-76326542D01*
X116566595Y-76532645D01*
X116687639Y-76736252D01*
X116801134Y-76936082D01*
X116906303Y-77130853D01*
X117002370Y-77319285D01*
X117088556Y-77500096D01*
X117164085Y-77672006D01*
X117228179Y-77833734D01*
X117280061Y-77983998D01*
X117282363Y-77991323D01*
X117314326Y-78093546D01*
X117405371Y-78012422D01*
X117602916Y-77830236D01*
X117784030Y-77649877D01*
X117951349Y-77468274D01*
X118107510Y-77282354D01*
X118255151Y-77089044D01*
X118396909Y-76885271D01*
X118472205Y-76769383D01*
X118500231Y-76725870D01*
X118525361Y-76688019D01*
X118545982Y-76658166D01*
X118560481Y-76638648D01*
X118567200Y-76631800D01*
X118574115Y-76638893D01*
X118588737Y-76658617D01*
X118609453Y-76688633D01*
X118634649Y-76726606D01*
X118662194Y-76769383D01*
X118801835Y-76980068D01*
X118945927Y-77178627D01*
X119097106Y-77368133D01*
X119258008Y-77551657D01*
X119431272Y-77732273D01*
X119619533Y-77913053D01*
X119729066Y-78012455D01*
X119820149Y-78093613D01*
X119842523Y-78020990D01*
X119895768Y-77863264D01*
X119961605Y-77694146D01*
X120039327Y-77514849D01*
X120128226Y-77326588D01*
X120227596Y-77130579D01*
X120336730Y-76928035D01*
X120454920Y-76720173D01*
X120581459Y-76508205D01*
X120715641Y-76293348D01*
X120856757Y-76076815D01*
X121004102Y-75859822D01*
X121156969Y-75643583D01*
X121314649Y-75429313D01*
X121466719Y-75230660D01*
X121536221Y-75142453D01*
X121605857Y-75055656D01*
X121674621Y-74971424D01*
X121741505Y-74890910D01*
X121805501Y-74815267D01*
X121865603Y-74745648D01*
X121920803Y-74683207D01*
X121970094Y-74629095D01*
X122012470Y-74584468D01*
X122046922Y-74550477D01*
X122072443Y-74528276D01*
X122088028Y-74519019D01*
X122088337Y-74518952D01*
X122114128Y-74514172D01*
X122155761Y-74506867D01*
X122211271Y-74497358D01*
X122278698Y-74485966D01*
X122356078Y-74473010D01*
X122441450Y-74458811D01*
X122532852Y-74443690D01*
X122628320Y-74427968D01*
X122725894Y-74411965D01*
X122823611Y-74396001D01*
X122919508Y-74380397D01*
X123011623Y-74365474D01*
X123097994Y-74351552D01*
X123176659Y-74338951D01*
X123245656Y-74327993D01*
X123303022Y-74318998D01*
X123346795Y-74312286D01*
X123375013Y-74308178D01*
X123385714Y-74306994D01*
X123385748Y-74307010D01*
X123384066Y-74315649D01*
X123377758Y-74339519D01*
X123367165Y-74377455D01*
X123352628Y-74428288D01*
X123334488Y-74490854D01*
X123313087Y-74563985D01*
X123288766Y-74646514D01*
X123261868Y-74737275D01*
X123232732Y-74835101D01*
X123201701Y-74938825D01*
X123169116Y-75047282D01*
X123168809Y-75048301D01*
X123136207Y-75156756D01*
X123105136Y-75260457D01*
X123075938Y-75358241D01*
X123048955Y-75448945D01*
X123024531Y-75531405D01*
X123003007Y-75604459D01*
X122984728Y-75666943D01*
X122970035Y-75717693D01*
X122959271Y-75755547D01*
X122952780Y-75779341D01*
X122950903Y-75787912D01*
X122950909Y-75787918D01*
X122960226Y-75792535D01*
X122984875Y-75804492D01*
X123022833Y-75822816D01*
X123072077Y-75846532D01*
X123130586Y-75874667D01*
X123196337Y-75906245D01*
X123251673Y-75932796D01*
X123321422Y-75966503D01*
X123385165Y-75997801D01*
X123440935Y-76025685D01*
X123486761Y-76049149D01*
X123520675Y-76067189D01*
X123540708Y-76078798D01*
X123545423Y-76082764D01*
X123536893Y-76088142D01*
X123512534Y-76102281D01*
X123473212Y-76124697D01*
X123419789Y-76154908D01*
X123353130Y-76192431D01*
X123274098Y-76236783D01*
X123183557Y-76287481D01*
X123082371Y-76344043D01*
X122971403Y-76405985D01*
X122851519Y-76472825D01*
X122723580Y-76544080D01*
X122588452Y-76619266D01*
X122446998Y-76697902D01*
X122300081Y-76779504D01*
X122148567Y-76863590D01*
X122138047Y-76869425D01*
X121986235Y-76953688D01*
X121838966Y-77035530D01*
X121697104Y-77114468D01*
X121561512Y-77190015D01*
X121433055Y-77261689D01*
X121312597Y-77329003D01*
X121201002Y-77391474D01*
X121099132Y-77448617D01*
X121007854Y-77499947D01*
X120928030Y-77544979D01*
X120860524Y-77583229D01*
X120806200Y-77614213D01*
X120765923Y-77637444D01*
X120740556Y-77652440D01*
X120730962Y-77658715D01*
X120730905Y-77658811D01*
X120733335Y-77668595D01*
X120741319Y-77693018D01*
X120754324Y-77730595D01*
X120771814Y-77779843D01*
X120793256Y-77839276D01*
X120818115Y-77907411D01*
X120845856Y-77982763D01*
X120875946Y-78063848D01*
X120897677Y-78122041D01*
X120929131Y-78206257D01*
X120958694Y-78285791D01*
X120985822Y-78359155D01*
X121009971Y-78424857D01*
X121030597Y-78481407D01*
X121047155Y-78527317D01*
X121059101Y-78561096D01*
X121065891Y-78581253D01*
X121067285Y-78586425D01*
X121061189Y-78593920D01*
X121040612Y-78593918D01*
X121034984Y-78593153D01*
X121021142Y-78591554D01*
X120988757Y-78588072D01*
X120939063Y-78582836D01*
X120873299Y-78575972D01*
X120792700Y-78567609D01*
X120698504Y-78557874D01*
X120591946Y-78546894D01*
X120474264Y-78534796D01*
X120346695Y-78521709D01*
X120210474Y-78507759D01*
X120066838Y-78493074D01*
X119917025Y-78477782D01*
X119786021Y-78464429D01*
X118569430Y-78340502D01*
X117355589Y-78464140D01*
X117201571Y-78479836D01*
X117052610Y-78495034D01*
X116909953Y-78509606D01*
X116774842Y-78523424D01*
X116648524Y-78536359D01*
X116532242Y-78548285D01*
X116427242Y-78559072D01*
X116334768Y-78568594D01*
X116256066Y-78576723D01*
X116192379Y-78583330D01*
X116144954Y-78588288D01*
X116115033Y-78591469D01*
X116104396Y-78592666D01*
X116077634Y-78594114D01*
X116067313Y-78588920D01*
X116067043Y-78587104D01*
X116069981Y-78577305D01*
X116078437Y-78552856D01*
X116091868Y-78515237D01*
X116109735Y-78465929D01*
X116131496Y-78406413D01*
X116156610Y-78338170D01*
X116184536Y-78262680D01*
X116214735Y-78181425D01*
X116237300Y-78120933D01*
X116268706Y-78036569D01*
X116298117Y-77956977D01*
X116325005Y-77883628D01*
X116348840Y-77817994D01*
X116369094Y-77761546D01*
X116385237Y-77715755D01*
X116396741Y-77682092D01*
X116403077Y-77662030D01*
X116404144Y-77656837D01*
X116395568Y-77651378D01*
X116371165Y-77637159D01*
X116331798Y-77614664D01*
X116278333Y-77584375D01*
X116211632Y-77546776D01*
X116132561Y-77502351D01*
X116041982Y-77451583D01*
X115940761Y-77394954D01*
X115829761Y-77332950D01*
X115709847Y-77266052D01*
X115581882Y-77194745D01*
X115446731Y-77119512D01*
X115305258Y-77040836D01*
X115158327Y-76959201D01*
X115006801Y-76875089D01*
X114996280Y-76869252D01*
X114844485Y-76784999D01*
X114697229Y-76703200D01*
X114555376Y-76624335D01*
X114419790Y-76548889D01*
X114291334Y-76477343D01*
X114170873Y-76410181D01*
X114059269Y-76347885D01*
X113957387Y-76290939D01*
X113866090Y-76239824D01*
X113786242Y-76195024D01*
X113718706Y-76157022D01*
X113664346Y-76126300D01*
X113624026Y-76103340D01*
X113598609Y-76088626D01*
X113588960Y-76082641D01*
X113588897Y-76082562D01*
X113596563Y-76076799D01*
X113619672Y-76063816D01*
X113656255Y-76044614D01*
X113704340Y-76020199D01*
X113761958Y-75991573D01*
X113827136Y-75959739D01*
X113882719Y-75932963D01*
X113952750Y-75899402D01*
X114017124Y-75868507D01*
X114073815Y-75841255D01*
X114120802Y-75818619D01*
X114156059Y-75801574D01*
X114177563Y-75791095D01*
X114183490Y-75788104D01*
X114181668Y-75779687D01*
X114175227Y-75756034D01*
X114164510Y-75718309D01*
X114149860Y-75667675D01*
X114131619Y-75605296D01*
X114110130Y-75532335D01*
X114085736Y-75449957D01*
X114058780Y-75359325D01*
X114029603Y-75261602D01*
X113998550Y-75157953D01*
X113965963Y-75049540D01*
X113965590Y-75048301D01*
X113932993Y-74939805D01*
X113901948Y-74836029D01*
X113872797Y-74738139D01*
X113845881Y-74647303D01*
X113821541Y-74564687D01*
X113800119Y-74491458D01*
X113781955Y-74428783D01*
X113767392Y-74377829D01*
X113756771Y-74339761D01*
X113750432Y-74315748D01*
X113748717Y-74306955D01*
X113748724Y-74306948D01*
X113758989Y-74307846D01*
G37*
X116749779Y-73863500D02*
X118053222Y-73863500D01*
X118058705Y-73860060D01*
X118075500Y-73847110D01*
X118100654Y-73826962D01*
X118118140Y-73812700D01*
X118157314Y-73782952D01*
X118200940Y-73753511D01*
X118240971Y-73729733D01*
X118249387Y-73725345D01*
X118318174Y-73694638D01*
X118384862Y-73673792D01*
X118455651Y-73661477D01*
X118536743Y-73656359D01*
X118572180Y-73656027D01*
X118627282Y-73656636D01*
X118668561Y-73658663D01*
X118702098Y-73662824D01*
X118733975Y-73669834D01*
X118764768Y-73678711D01*
X118852648Y-73710811D01*
X118930125Y-73751053D01*
X119004366Y-73803260D01*
X119016083Y-73812700D01*
X119044830Y-73835985D01*
X119066946Y-73853439D01*
X119079477Y-73862754D01*
X119081178Y-73863500D01*
X119077907Y-73854915D01*
X119069156Y-73831340D01*
X119055360Y-73793956D01*
X119036950Y-73743942D01*
X119014361Y-73682479D01*
X118988025Y-73610746D01*
X118958377Y-73529926D01*
X118925850Y-73441196D01*
X118890876Y-73345739D01*
X118853890Y-73244733D01*
X118825421Y-73166952D01*
X118787215Y-73062704D01*
X118750645Y-72963222D01*
X118716147Y-72869675D01*
X118684159Y-72783235D01*
X118655117Y-72705071D01*
X118629458Y-72636355D01*
X118607619Y-72578257D01*
X118590036Y-72531947D01*
X118577147Y-72498597D01*
X118569388Y-72479376D01*
X118567200Y-72474937D01*
X118563561Y-72482830D01*
X118554466Y-72505727D01*
X118540351Y-72542459D01*
X118521653Y-72591854D01*
X118498808Y-72652743D01*
X118472254Y-72723953D01*
X118442428Y-72804316D01*
X118409765Y-72892661D01*
X118374703Y-72987816D01*
X118337679Y-73088611D01*
X118308979Y-73166952D01*
X118270780Y-73271309D01*
X118234272Y-73370994D01*
X118199889Y-73464825D01*
X118168065Y-73551623D01*
X118139231Y-73630208D01*
X118113823Y-73699398D01*
X118092273Y-73758015D01*
X118075014Y-73804877D01*
X118062480Y-73838805D01*
X118055105Y-73858618D01*
X118053222Y-73863500D01*
X116749779Y-73863500D01*
X116748401Y-73851223D01*
X116733347Y-73717653D01*
X116729243Y-73681330D01*
X116714039Y-73546612D01*
X116699422Y-73416588D01*
X116685501Y-73292247D01*
X116672383Y-73174583D01*
X116660178Y-73064586D01*
X116648994Y-72963247D01*
X116638939Y-72871559D01*
X116630123Y-72790512D01*
X116622654Y-72721098D01*
X116616640Y-72664308D01*
X116612190Y-72621133D01*
X116609414Y-72592566D01*
X116608418Y-72579597D01*
X116608468Y-72578900D01*
X116618008Y-72581593D01*
X116644081Y-72590451D01*
X116684968Y-72604853D01*
X116738949Y-72624180D01*
X116804304Y-72647811D01*
X116879313Y-72675126D01*
X116962257Y-72705506D01*
X117051416Y-72738330D01*
X117082054Y-72749646D01*
X117173072Y-72783238D01*
X117258575Y-72814690D01*
X117336824Y-72843372D01*
X117406077Y-72868649D01*
X117464595Y-72889889D01*
X117510637Y-72906458D01*
X117542462Y-72917723D01*
X117558330Y-72923052D01*
X117559757Y-72923400D01*
X117565555Y-72916159D01*
X117580365Y-72895091D01*
X117603536Y-72861175D01*
X117634416Y-72815390D01*
X117672354Y-72758718D01*
X117716698Y-72692136D01*
X117766796Y-72616626D01*
X117821998Y-72533166D01*
X117881651Y-72442738D01*
X117945104Y-72346319D01*
X118011706Y-72244892D01*
X118063652Y-72165633D01*
X118132194Y-72061075D01*
X118198075Y-71960788D01*
X118260641Y-71865750D01*
X118319243Y-71776942D01*
X118373230Y-71695343D01*
X118421950Y-71621933D01*
X118464752Y-71557693D01*
X118500985Y-71503601D01*
X118529998Y-71460637D01*
X118551140Y-71429782D01*
X118563759Y-71412014D01*
X118567245Y-71407867D01*
X118573001Y-71415106D01*
X118587773Y-71436173D01*
X118610907Y-71470087D01*
X118641755Y-71515869D01*
X118679663Y-71572538D01*
X118723982Y-71639116D01*
X118774060Y-71714622D01*
X118829245Y-71798076D01*
X118888887Y-71888500D01*
X118952334Y-71984913D01*
X119018936Y-72086336D01*
X119070914Y-72165633D01*
X119139478Y-72270194D01*
X119205395Y-72370485D01*
X119268013Y-72465525D01*
X119326680Y-72554335D01*
X119380743Y-72635935D01*
X119429551Y-72709345D01*
X119472449Y-72773586D01*
X119508787Y-72827677D01*
X119537911Y-72870639D01*
X119559169Y-72901492D01*
X119571909Y-72919256D01*
X119575487Y-72923400D01*
X119585962Y-72920116D01*
X119612949Y-72910689D01*
X119654703Y-72895751D01*
X119709481Y-72875936D01*
X119775538Y-72851879D01*
X119851130Y-72824213D01*
X119934513Y-72793573D01*
X120023942Y-72760592D01*
X120053215Y-72749771D01*
X120143991Y-72716277D01*
X120229118Y-72685020D01*
X120306876Y-72656621D01*
X120375544Y-72631700D01*
X120433402Y-72610878D01*
X120478732Y-72594778D01*
X120509811Y-72584018D01*
X120524922Y-72579221D01*
X120526109Y-72579050D01*
X120525593Y-72587674D01*
X120523266Y-72612161D01*
X120519239Y-72651520D01*
X120513618Y-72704760D01*
X120506514Y-72770889D01*
X120498034Y-72848916D01*
X120488288Y-72937850D01*
X120477384Y-73036700D01*
X120465431Y-73144473D01*
X120452538Y-73260180D01*
X120438813Y-73382828D01*
X120424365Y-73511427D01*
X120409303Y-73644985D01*
X120405192Y-73681360D01*
X120389988Y-73816083D01*
X120375377Y-73946118D01*
X120361467Y-74070474D01*
X120348367Y-74188157D01*
X120336185Y-74298177D01*
X120325028Y-74399542D01*
X120315007Y-74491259D01*
X120306227Y-74572337D01*
X120298799Y-74641785D01*
X120292829Y-74698609D01*
X120288427Y-74741819D01*
X120285701Y-74770422D01*
X120284758Y-74783427D01*
X120284822Y-74784134D01*
X120292699Y-74779171D01*
X120314346Y-74763774D01*
X120348653Y-74738769D01*
X120394509Y-74704980D01*
X120450805Y-74663234D01*
X120516432Y-74614357D01*
X120590279Y-74559174D01*
X120671238Y-74498511D01*
X120758198Y-74433194D01*
X120850049Y-74364049D01*
X120898560Y-74327470D01*
X120992583Y-74256565D01*
X121082323Y-74188950D01*
X121166665Y-74125462D01*
X121244490Y-74066938D01*
X121314684Y-74014216D01*
X121376130Y-73968133D01*
X121427711Y-73929528D01*
X121468312Y-73899237D01*
X121496816Y-73878098D01*
X121512106Y-73866949D01*
X121514451Y-73865381D01*
X121519010Y-73872596D01*
X121529531Y-73893880D01*
X121545192Y-73927382D01*
X121565169Y-73971250D01*
X121588641Y-74023633D01*
X121614786Y-74082678D01*
X121642781Y-74146534D01*
X121671804Y-74213350D01*
X121701033Y-74281273D01*
X121729644Y-74348451D01*
X121742772Y-74379542D01*
X121737799Y-74388437D01*
X121721975Y-74406995D01*
X121697869Y-74432365D01*
X121672614Y-74457326D01*
X121550042Y-74578038D01*
X121421723Y-74709438D01*
X121288888Y-74850028D01*
X121152765Y-74998309D01*
X121014585Y-75152784D01*
X120875578Y-75311953D01*
X120736973Y-75474318D01*
X120600001Y-75638382D01*
X120465890Y-75802645D01*
X120335872Y-75965610D01*
X120211176Y-76125778D01*
X120093031Y-76281651D01*
X119982668Y-76431730D01*
X119881316Y-76574517D01*
X119790206Y-76708514D01*
X119710566Y-76832223D01*
X119673820Y-76892449D01*
X119659558Y-76912554D01*
X119647356Y-76923349D01*
X119642909Y-76923871D01*
X119634641Y-76915292D01*
X119618063Y-76894923D01*
X119595254Y-76865423D01*
X119568292Y-76829451D01*
X119555012Y-76811389D01*
X119441650Y-76648226D01*
X119334780Y-76477604D01*
X119234019Y-76298577D01*
X119138981Y-76110200D01*
X119049282Y-75911527D01*
X118964536Y-75701613D01*
X118884360Y-75479512D01*
X118808367Y-75244280D01*
X118736174Y-74994971D01*
X118667396Y-74730638D01*
X118610972Y-74491850D01*
X118599105Y-74440464D01*
X118588200Y-74395232D01*
X118578886Y-74358610D01*
X118571794Y-74333052D01*
X118567554Y-74321014D01*
X118566974Y-74320400D01*
X118563423Y-74328252D01*
X118557095Y-74349887D01*
X118548747Y-74382424D01*
X118539138Y-74422981D01*
X118534116Y-74445283D01*
X118466802Y-74733116D01*
X118395744Y-75005080D01*
X118320613Y-75261989D01*
X118241082Y-75504654D01*
X118156822Y-75733891D01*
X118067505Y-75950511D01*
X117972802Y-76155329D01*
X117872386Y-76349158D01*
X117765928Y-76532811D01*
X117653101Y-76707102D01*
X117579387Y-76811389D01*
X117551208Y-76849452D01*
X117526223Y-76882271D01*
X117506509Y-76907188D01*
X117494144Y-76921543D01*
X117491490Y-76923871D01*
X117482105Y-76919938D01*
X117468503Y-76904502D01*
X117460579Y-76892449D01*
X117387916Y-76775494D01*
X117303163Y-76647448D01*
X117207548Y-76509809D01*
X117102303Y-76364077D01*
X116988659Y-76211750D01*
X116867844Y-76054328D01*
X116741091Y-75893309D01*
X116609628Y-75730193D01*
X116474687Y-75566479D01*
X116337498Y-75403666D01*
X116199292Y-75243252D01*
X116061297Y-75086737D01*
X115924746Y-74935620D01*
X115790868Y-74791400D01*
X115660894Y-74655575D01*
X115536054Y-74529646D01*
X115461905Y-74457326D01*
X115432715Y-74428394D01*
X115409612Y-74403827D01*
X115395167Y-74386473D01*
X115391627Y-74379499D01*
X115415955Y-74321832D01*
X115442214Y-74260403D01*
X115469524Y-74197197D01*
X115497004Y-74134196D01*
X115523772Y-74073385D01*
X115548947Y-74016747D01*
X115571649Y-73966265D01*
X115590995Y-73923922D01*
X115606105Y-73891702D01*
X115616096Y-73871588D01*
X115620011Y-73865480D01*
X115628242Y-73871272D01*
X115650247Y-73887474D01*
X115684911Y-73913251D01*
X115731117Y-73947763D01*
X115787748Y-73990176D01*
X115853687Y-74039649D01*
X115927820Y-74095348D01*
X116009028Y-74156433D01*
X116096196Y-74222069D01*
X116188207Y-74291417D01*
X116235952Y-74327427D01*
X116329877Y-74398208D01*
X116419476Y-74465583D01*
X116503640Y-74528727D01*
X116581260Y-74586814D01*
X116651225Y-74639019D01*
X116712426Y-74684515D01*
X116763754Y-74722478D01*
X116804099Y-74752080D01*
X116832350Y-74772497D01*
X116847398Y-74782902D01*
X116849633Y-74784087D01*
X116849178Y-74775411D01*
X116846912Y-74750871D01*
X116842942Y-74711461D01*
X116837376Y-74658172D01*
X116830323Y-74591995D01*
X116821891Y-74513923D01*
X116812188Y-74424947D01*
X116801322Y-74326059D01*
X116789403Y-74218251D01*
X116776537Y-74102514D01*
X116762834Y-73979841D01*
X116749779Y-73863500D01*
G36*
X116749779Y-73863500D02*
G01*
X118053222Y-73863500D01*
X118058705Y-73860060D01*
X118075500Y-73847110D01*
X118100654Y-73826962D01*
X118118140Y-73812700D01*
X118157314Y-73782952D01*
X118200940Y-73753511D01*
X118240971Y-73729733D01*
X118249387Y-73725345D01*
X118318174Y-73694638D01*
X118384862Y-73673792D01*
X118455651Y-73661477D01*
X118536743Y-73656359D01*
X118572180Y-73656027D01*
X118627282Y-73656636D01*
X118668561Y-73658663D01*
X118702098Y-73662824D01*
X118733975Y-73669834D01*
X118764768Y-73678711D01*
X118852648Y-73710811D01*
X118930125Y-73751053D01*
X119004366Y-73803260D01*
X119016083Y-73812700D01*
X119044830Y-73835985D01*
X119066946Y-73853439D01*
X119079477Y-73862754D01*
X119081178Y-73863500D01*
X119077907Y-73854915D01*
X119069156Y-73831340D01*
X119055360Y-73793956D01*
X119036950Y-73743942D01*
X119014361Y-73682479D01*
X118988025Y-73610746D01*
X118958377Y-73529926D01*
X118925850Y-73441196D01*
X118890876Y-73345739D01*
X118853890Y-73244733D01*
X118825421Y-73166952D01*
X118787215Y-73062704D01*
X118750645Y-72963222D01*
X118716147Y-72869675D01*
X118684159Y-72783235D01*
X118655117Y-72705071D01*
X118629458Y-72636355D01*
X118607619Y-72578257D01*
X118590036Y-72531947D01*
X118577147Y-72498597D01*
X118569388Y-72479376D01*
X118567200Y-72474937D01*
X118563561Y-72482830D01*
X118554466Y-72505727D01*
X118540351Y-72542459D01*
X118521653Y-72591854D01*
X118498808Y-72652743D01*
X118472254Y-72723953D01*
X118442428Y-72804316D01*
X118409765Y-72892661D01*
X118374703Y-72987816D01*
X118337679Y-73088611D01*
X118308979Y-73166952D01*
X118270780Y-73271309D01*
X118234272Y-73370994D01*
X118199889Y-73464825D01*
X118168065Y-73551623D01*
X118139231Y-73630208D01*
X118113823Y-73699398D01*
X118092273Y-73758015D01*
X118075014Y-73804877D01*
X118062480Y-73838805D01*
X118055105Y-73858618D01*
X118053222Y-73863500D01*
X116749779Y-73863500D01*
X116748401Y-73851223D01*
X116733347Y-73717653D01*
X116729243Y-73681330D01*
X116714039Y-73546612D01*
X116699422Y-73416588D01*
X116685501Y-73292247D01*
X116672383Y-73174583D01*
X116660178Y-73064586D01*
X116648994Y-72963247D01*
X116638939Y-72871559D01*
X116630123Y-72790512D01*
X116622654Y-72721098D01*
X116616640Y-72664308D01*
X116612190Y-72621133D01*
X116609414Y-72592566D01*
X116608418Y-72579597D01*
X116608468Y-72578900D01*
X116618008Y-72581593D01*
X116644081Y-72590451D01*
X116684968Y-72604853D01*
X116738949Y-72624180D01*
X116804304Y-72647811D01*
X116879313Y-72675126D01*
X116962257Y-72705506D01*
X117051416Y-72738330D01*
X117082054Y-72749646D01*
X117173072Y-72783238D01*
X117258575Y-72814690D01*
X117336824Y-72843372D01*
X117406077Y-72868649D01*
X117464595Y-72889889D01*
X117510637Y-72906458D01*
X117542462Y-72917723D01*
X117558330Y-72923052D01*
X117559757Y-72923400D01*
X117565555Y-72916159D01*
X117580365Y-72895091D01*
X117603536Y-72861175D01*
X117634416Y-72815390D01*
X117672354Y-72758718D01*
X117716698Y-72692136D01*
X117766796Y-72616626D01*
X117821998Y-72533166D01*
X117881651Y-72442738D01*
X117945104Y-72346319D01*
X118011706Y-72244892D01*
X118063652Y-72165633D01*
X118132194Y-72061075D01*
X118198075Y-71960788D01*
X118260641Y-71865750D01*
X118319243Y-71776942D01*
X118373230Y-71695343D01*
X118421950Y-71621933D01*
X118464752Y-71557693D01*
X118500985Y-71503601D01*
X118529998Y-71460637D01*
X118551140Y-71429782D01*
X118563759Y-71412014D01*
X118567245Y-71407867D01*
X118573001Y-71415106D01*
X118587773Y-71436173D01*
X118610907Y-71470087D01*
X118641755Y-71515869D01*
X118679663Y-71572538D01*
X118723982Y-71639116D01*
X118774060Y-71714622D01*
X118829245Y-71798076D01*
X118888887Y-71888500D01*
X118952334Y-71984913D01*
X119018936Y-72086336D01*
X119070914Y-72165633D01*
X119139478Y-72270194D01*
X119205395Y-72370485D01*
X119268013Y-72465525D01*
X119326680Y-72554335D01*
X119380743Y-72635935D01*
X119429551Y-72709345D01*
X119472449Y-72773586D01*
X119508787Y-72827677D01*
X119537911Y-72870639D01*
X119559169Y-72901492D01*
X119571909Y-72919256D01*
X119575487Y-72923400D01*
X119585962Y-72920116D01*
X119612949Y-72910689D01*
X119654703Y-72895751D01*
X119709481Y-72875936D01*
X119775538Y-72851879D01*
X119851130Y-72824213D01*
X119934513Y-72793573D01*
X120023942Y-72760592D01*
X120053215Y-72749771D01*
X120143991Y-72716277D01*
X120229118Y-72685020D01*
X120306876Y-72656621D01*
X120375544Y-72631700D01*
X120433402Y-72610878D01*
X120478732Y-72594778D01*
X120509811Y-72584018D01*
X120524922Y-72579221D01*
X120526109Y-72579050D01*
X120525593Y-72587674D01*
X120523266Y-72612161D01*
X120519239Y-72651520D01*
X120513618Y-72704760D01*
X120506514Y-72770889D01*
X120498034Y-72848916D01*
X120488288Y-72937850D01*
X120477384Y-73036700D01*
X120465431Y-73144473D01*
X120452538Y-73260180D01*
X120438813Y-73382828D01*
X120424365Y-73511427D01*
X120409303Y-73644985D01*
X120405192Y-73681360D01*
X120389988Y-73816083D01*
X120375377Y-73946118D01*
X120361467Y-74070474D01*
X120348367Y-74188157D01*
X120336185Y-74298177D01*
X120325028Y-74399542D01*
X120315007Y-74491259D01*
X120306227Y-74572337D01*
X120298799Y-74641785D01*
X120292829Y-74698609D01*
X120288427Y-74741819D01*
X120285701Y-74770422D01*
X120284758Y-74783427D01*
X120284822Y-74784134D01*
X120292699Y-74779171D01*
X120314346Y-74763774D01*
X120348653Y-74738769D01*
X120394509Y-74704980D01*
X120450805Y-74663234D01*
X120516432Y-74614357D01*
X120590279Y-74559174D01*
X120671238Y-74498511D01*
X120758198Y-74433194D01*
X120850049Y-74364049D01*
X120898560Y-74327470D01*
X120992583Y-74256565D01*
X121082323Y-74188950D01*
X121166665Y-74125462D01*
X121244490Y-74066938D01*
X121314684Y-74014216D01*
X121376130Y-73968133D01*
X121427711Y-73929528D01*
X121468312Y-73899237D01*
X121496816Y-73878098D01*
X121512106Y-73866949D01*
X121514451Y-73865381D01*
X121519010Y-73872596D01*
X121529531Y-73893880D01*
X121545192Y-73927382D01*
X121565169Y-73971250D01*
X121588641Y-74023633D01*
X121614786Y-74082678D01*
X121642781Y-74146534D01*
X121671804Y-74213350D01*
X121701033Y-74281273D01*
X121729644Y-74348451D01*
X121742772Y-74379542D01*
X121737799Y-74388437D01*
X121721975Y-74406995D01*
X121697869Y-74432365D01*
X121672614Y-74457326D01*
X121550042Y-74578038D01*
X121421723Y-74709438D01*
X121288888Y-74850028D01*
X121152765Y-74998309D01*
X121014585Y-75152784D01*
X120875578Y-75311953D01*
X120736973Y-75474318D01*
X120600001Y-75638382D01*
X120465890Y-75802645D01*
X120335872Y-75965610D01*
X120211176Y-76125778D01*
X120093031Y-76281651D01*
X119982668Y-76431730D01*
X119881316Y-76574517D01*
X119790206Y-76708514D01*
X119710566Y-76832223D01*
X119673820Y-76892449D01*
X119659558Y-76912554D01*
X119647356Y-76923349D01*
X119642909Y-76923871D01*
X119634641Y-76915292D01*
X119618063Y-76894923D01*
X119595254Y-76865423D01*
X119568292Y-76829451D01*
X119555012Y-76811389D01*
X119441650Y-76648226D01*
X119334780Y-76477604D01*
X119234019Y-76298577D01*
X119138981Y-76110200D01*
X119049282Y-75911527D01*
X118964536Y-75701613D01*
X118884360Y-75479512D01*
X118808367Y-75244280D01*
X118736174Y-74994971D01*
X118667396Y-74730638D01*
X118610972Y-74491850D01*
X118599105Y-74440464D01*
X118588200Y-74395232D01*
X118578886Y-74358610D01*
X118571794Y-74333052D01*
X118567554Y-74321014D01*
X118566974Y-74320400D01*
X118563423Y-74328252D01*
X118557095Y-74349887D01*
X118548747Y-74382424D01*
X118539138Y-74422981D01*
X118534116Y-74445283D01*
X118466802Y-74733116D01*
X118395744Y-75005080D01*
X118320613Y-75261989D01*
X118241082Y-75504654D01*
X118156822Y-75733891D01*
X118067505Y-75950511D01*
X117972802Y-76155329D01*
X117872386Y-76349158D01*
X117765928Y-76532811D01*
X117653101Y-76707102D01*
X117579387Y-76811389D01*
X117551208Y-76849452D01*
X117526223Y-76882271D01*
X117506509Y-76907188D01*
X117494144Y-76921543D01*
X117491490Y-76923871D01*
X117482105Y-76919938D01*
X117468503Y-76904502D01*
X117460579Y-76892449D01*
X117387916Y-76775494D01*
X117303163Y-76647448D01*
X117207548Y-76509809D01*
X117102303Y-76364077D01*
X116988659Y-76211750D01*
X116867844Y-76054328D01*
X116741091Y-75893309D01*
X116609628Y-75730193D01*
X116474687Y-75566479D01*
X116337498Y-75403666D01*
X116199292Y-75243252D01*
X116061297Y-75086737D01*
X115924746Y-74935620D01*
X115790868Y-74791400D01*
X115660894Y-74655575D01*
X115536054Y-74529646D01*
X115461905Y-74457326D01*
X115432715Y-74428394D01*
X115409612Y-74403827D01*
X115395167Y-74386473D01*
X115391627Y-74379499D01*
X115415955Y-74321832D01*
X115442214Y-74260403D01*
X115469524Y-74197197D01*
X115497004Y-74134196D01*
X115523772Y-74073385D01*
X115548947Y-74016747D01*
X115571649Y-73966265D01*
X115590995Y-73923922D01*
X115606105Y-73891702D01*
X115616096Y-73871588D01*
X115620011Y-73865480D01*
X115628242Y-73871272D01*
X115650247Y-73887474D01*
X115684911Y-73913251D01*
X115731117Y-73947763D01*
X115787748Y-73990176D01*
X115853687Y-74039649D01*
X115927820Y-74095348D01*
X116009028Y-74156433D01*
X116096196Y-74222069D01*
X116188207Y-74291417D01*
X116235952Y-74327427D01*
X116329877Y-74398208D01*
X116419476Y-74465583D01*
X116503640Y-74528727D01*
X116581260Y-74586814D01*
X116651225Y-74639019D01*
X116712426Y-74684515D01*
X116763754Y-74722478D01*
X116804099Y-74752080D01*
X116832350Y-74772497D01*
X116847398Y-74782902D01*
X116849633Y-74784087D01*
X116849178Y-74775411D01*
X116846912Y-74750871D01*
X116842942Y-74711461D01*
X116837376Y-74658172D01*
X116830323Y-74591995D01*
X116821891Y-74513923D01*
X116812188Y-74424947D01*
X116801322Y-74326059D01*
X116789403Y-74218251D01*
X116776537Y-74102514D01*
X116762834Y-73979841D01*
X116749779Y-73863500D01*
G37*
%LPC*%
D15*
X181102000Y-71120000D03*
D16*
X149606000Y-134351347D03*
D17*
X149606000Y-136851347D03*
D18*
X175567999Y-114474001D03*
D19*
X175567999Y-109474001D03*
X175567999Y-104474001D03*
D20*
X129540000Y-99314000D03*
D21*
X129540000Y-106934000D03*
X129540000Y-112014000D03*
X149860000Y-119634000D03*
X149860000Y-109474000D03*
X149860000Y-99314000D03*
D18*
X164846000Y-76507999D03*
D19*
X169846000Y-76507999D03*
D18*
X126746000Y-129286000D03*
D19*
X121746000Y-129286000D03*
X116746000Y-129286000D03*
D22*
X178525500Y-121158000D03*
X175550500Y-121158000D03*
D23*
X184134000Y-121158000D03*
X182134000Y-121158000D03*
D18*
X151514800Y-76504800D03*
D19*
X156514800Y-76504800D03*
D24*
X175456500Y-100484000D03*
X177531500Y-100484000D03*
D18*
X128310000Y-76507999D03*
D19*
X133310000Y-76507999D03*
D15*
X181102000Y-135595000D03*
D18*
X138430000Y-129286000D03*
D19*
X133430000Y-129286000D03*
D16*
X110656380Y-109474000D03*
D17*
X108156380Y-109474000D03*
D25*
X143510000Y-90424000D03*
X151130000Y-90424000D03*
D26*
X170100000Y-90424000D03*
X177720000Y-90424000D03*
D25*
X145201000Y-127254000D03*
X152821000Y-127254000D03*
D26*
X171791000Y-127254000D03*
X179411000Y-127254000D03*
D22*
X178525500Y-97790000D03*
X175550500Y-97790000D03*
D15*
X108458000Y-135636000D03*
D24*
X175356500Y-118584000D03*
X177431500Y-118584000D03*
D15*
X108458000Y-71120000D03*
D23*
X183118000Y-97790000D03*
X181118000Y-97790000D03*
D20*
X110049000Y-87630000D03*
D21*
X112589000Y-87630000D03*
X115129000Y-87630000D03*
X117669000Y-87630000D03*
X120209000Y-87630000D03*
X122749000Y-87630000D03*
X125289000Y-87630000D03*
X127829000Y-87630000D03*
X130369000Y-87630000D03*
X132909000Y-87630000D03*
X135449000Y-87630000D03*
X137989000Y-87630000D03*
M02*
