G04 #@! TF.GenerationSoftware,KiCad,Pcbnew,7.0.9*
G04 #@! TF.CreationDate,2024-04-15T16:00:23-04:00*
G04 #@! TF.ProjectId,Converters,436f6e76-6572-4746-9572-732e6b696361,rev?*
G04 #@! TF.SameCoordinates,Original*
G04 #@! TF.FileFunction,Legend,Top*
G04 #@! TF.FilePolarity,Positive*
%FSLAX46Y46*%
G04 Gerber Fmt 4.6, Leading zero omitted, Abs format (unit mm)*
G04 Created by KiCad (PCBNEW 7.0.9) date 2024-04-15 16:00:23*
%MOMM*%
%LPD*%
G01*
G04 APERTURE LIST*
G04 Aperture macros list*
%AMRoundRect*
0 Rectangle with rounded corners*
0 $1 Rounding radius*
0 $2 $3 $4 $5 $6 $7 $8 $9 X,Y pos of 4 corners*
0 Add a 4 corners polygon primitive as box body*
4,1,4,$2,$3,$4,$5,$6,$7,$8,$9,$2,$3,0*
0 Add four circle primitives for the rounded corners*
1,1,$1+$1,$2,$3*
1,1,$1+$1,$4,$5*
1,1,$1+$1,$6,$7*
1,1,$1+$1,$8,$9*
0 Add four rect primitives between the rounded corners*
20,1,$1+$1,$2,$3,$4,$5,0*
20,1,$1+$1,$4,$5,$6,$7,0*
20,1,$1+$1,$6,$7,$8,$9,0*
20,1,$1+$1,$8,$9,$2,$3,0*%
G04 Aperture macros list end*
%ADD10C,0.300000*%
%ADD11C,0.150000*%
%ADD12C,0.177800*%
%ADD13C,0.254000*%
%ADD14C,0.120000*%
%ADD15C,0.100000*%
%ADD16C,0.200000*%
%ADD17C,0.010000*%
%ADD18R,2.600000X2.600000*%
%ADD19C,2.600000*%
%ADD20RoundRect,0.250000X-0.450000X0.350000X-0.450000X-0.350000X0.450000X-0.350000X0.450000X0.350000X0*%
%ADD21R,3.800000X4.800000*%
%ADD22RoundRect,0.250000X0.350000X0.450000X-0.350000X0.450000X-0.350000X-0.450000X0.350000X-0.450000X0*%
%ADD23R,0.650000X1.560000*%
%ADD24RoundRect,0.250000X0.325000X0.450000X-0.325000X0.450000X-0.325000X-0.450000X0.325000X-0.450000X0*%
%ADD25RoundRect,0.250001X0.624999X-0.462499X0.624999X0.462499X-0.624999X0.462499X-0.624999X-0.462499X0*%
%ADD26C,0.800000*%
%ADD27C,6.400000*%
%ADD28RoundRect,0.250001X-0.624999X0.462499X-0.624999X-0.462499X0.624999X-0.462499X0.624999X0.462499X0*%
%ADD29RoundRect,0.750000X-0.750000X-0.750000X0.750000X-0.750000X0.750000X0.750000X-0.750000X0.750000X0*%
%ADD30C,3.000000*%
%ADD31RoundRect,0.250000X-0.475000X0.337500X-0.475000X-0.337500X0.475000X-0.337500X0.475000X0.337500X0*%
%ADD32R,3.000000X3.100000*%
%ADD33RoundRect,0.100000X-0.687500X-0.100000X0.687500X-0.100000X0.687500X0.100000X-0.687500X0.100000X0*%
%ADD34RoundRect,0.250000X-0.350000X-0.450000X0.350000X-0.450000X0.350000X0.450000X-0.350000X0.450000X0*%
%ADD35RoundRect,0.250000X0.450000X-0.350000X0.450000X0.350000X-0.450000X0.350000X-0.450000X-0.350000X0*%
%ADD36R,2.000000X2.000000*%
%ADD37C,2.000000*%
%ADD38RoundRect,0.250000X0.475000X-0.337500X0.475000X0.337500X-0.475000X0.337500X-0.475000X-0.337500X0*%
%ADD39RoundRect,0.250000X-0.625000X0.400000X-0.625000X-0.400000X0.625000X-0.400000X0.625000X0.400000X0*%
%ADD40RoundRect,0.250000X-0.450000X0.325000X-0.450000X-0.325000X0.450000X-0.325000X0.450000X0.325000X0*%
%ADD41RoundRect,0.250000X1.500000X0.650000X-1.500000X0.650000X-1.500000X-0.650000X1.500000X-0.650000X0*%
G04 APERTURE END LIST*
D10*
X122303628Y-91117317D02*
X123375057Y-91117317D01*
X123375057Y-91117317D02*
X123589342Y-91188746D01*
X123589342Y-91188746D02*
X123732200Y-91331603D01*
X123732200Y-91331603D02*
X123803628Y-91545889D01*
X123803628Y-91545889D02*
X123803628Y-91688746D01*
X123803628Y-89688746D02*
X123803628Y-90403032D01*
X123803628Y-90403032D02*
X122303628Y-90403032D01*
X123660771Y-88331603D02*
X123732200Y-88403031D01*
X123732200Y-88403031D02*
X123803628Y-88617317D01*
X123803628Y-88617317D02*
X123803628Y-88760174D01*
X123803628Y-88760174D02*
X123732200Y-88974460D01*
X123732200Y-88974460D02*
X123589342Y-89117317D01*
X123589342Y-89117317D02*
X123446485Y-89188746D01*
X123446485Y-89188746D02*
X123160771Y-89260174D01*
X123160771Y-89260174D02*
X122946485Y-89260174D01*
X122946485Y-89260174D02*
X122660771Y-89188746D01*
X122660771Y-89188746D02*
X122517914Y-89117317D01*
X122517914Y-89117317D02*
X122375057Y-88974460D01*
X122375057Y-88974460D02*
X122303628Y-88760174D01*
X122303628Y-88760174D02*
X122303628Y-88617317D01*
X122303628Y-88617317D02*
X122375057Y-88403031D01*
X122375057Y-88403031D02*
X122446485Y-88331603D01*
X122303628Y-87260174D02*
X123375057Y-87260174D01*
X123375057Y-87260174D02*
X123589342Y-87331603D01*
X123589342Y-87331603D02*
X123732200Y-87474460D01*
X123732200Y-87474460D02*
X123803628Y-87688746D01*
X123803628Y-87688746D02*
X123803628Y-87831603D01*
X123803628Y-85831603D02*
X123803628Y-86545889D01*
X123803628Y-86545889D02*
X122303628Y-86545889D01*
X123660771Y-84474460D02*
X123732200Y-84545888D01*
X123732200Y-84545888D02*
X123803628Y-84760174D01*
X123803628Y-84760174D02*
X123803628Y-84903031D01*
X123803628Y-84903031D02*
X123732200Y-85117317D01*
X123732200Y-85117317D02*
X123589342Y-85260174D01*
X123589342Y-85260174D02*
X123446485Y-85331603D01*
X123446485Y-85331603D02*
X123160771Y-85403031D01*
X123160771Y-85403031D02*
X122946485Y-85403031D01*
X122946485Y-85403031D02*
X122660771Y-85331603D01*
X122660771Y-85331603D02*
X122517914Y-85260174D01*
X122517914Y-85260174D02*
X122375057Y-85117317D01*
X122375057Y-85117317D02*
X122303628Y-84903031D01*
X122303628Y-84903031D02*
X122303628Y-84760174D01*
X122303628Y-84760174D02*
X122375057Y-84545888D01*
X122375057Y-84545888D02*
X122446485Y-84474460D01*
X122303628Y-83403031D02*
X123375057Y-83403031D01*
X123375057Y-83403031D02*
X123589342Y-83474460D01*
X123589342Y-83474460D02*
X123732200Y-83617317D01*
X123732200Y-83617317D02*
X123803628Y-83831603D01*
X123803628Y-83831603D02*
X123803628Y-83974460D01*
X123803628Y-81974460D02*
X123803628Y-82688746D01*
X123803628Y-82688746D02*
X122303628Y-82688746D01*
X123660771Y-80617317D02*
X123732200Y-80688745D01*
X123732200Y-80688745D02*
X123803628Y-80903031D01*
X123803628Y-80903031D02*
X123803628Y-81045888D01*
X123803628Y-81045888D02*
X123732200Y-81260174D01*
X123732200Y-81260174D02*
X123589342Y-81403031D01*
X123589342Y-81403031D02*
X123446485Y-81474460D01*
X123446485Y-81474460D02*
X123160771Y-81545888D01*
X123160771Y-81545888D02*
X122946485Y-81545888D01*
X122946485Y-81545888D02*
X122660771Y-81474460D01*
X122660771Y-81474460D02*
X122517914Y-81403031D01*
X122517914Y-81403031D02*
X122375057Y-81260174D01*
X122375057Y-81260174D02*
X122303628Y-81045888D01*
X122303628Y-81045888D02*
X122303628Y-80903031D01*
X122303628Y-80903031D02*
X122375057Y-80688745D01*
X122375057Y-80688745D02*
X122446485Y-80617317D01*
X122303628Y-79545888D02*
X123375057Y-79545888D01*
X123375057Y-79545888D02*
X123589342Y-79617317D01*
X123589342Y-79617317D02*
X123732200Y-79760174D01*
X123732200Y-79760174D02*
X123803628Y-79974460D01*
X123803628Y-79974460D02*
X123803628Y-80117317D01*
X123803628Y-78117317D02*
X123803628Y-78831603D01*
X123803628Y-78831603D02*
X122303628Y-78831603D01*
X123660771Y-76760174D02*
X123732200Y-76831602D01*
X123732200Y-76831602D02*
X123803628Y-77045888D01*
X123803628Y-77045888D02*
X123803628Y-77188745D01*
X123803628Y-77188745D02*
X123732200Y-77403031D01*
X123732200Y-77403031D02*
X123589342Y-77545888D01*
X123589342Y-77545888D02*
X123446485Y-77617317D01*
X123446485Y-77617317D02*
X123160771Y-77688745D01*
X123160771Y-77688745D02*
X122946485Y-77688745D01*
X122946485Y-77688745D02*
X122660771Y-77617317D01*
X122660771Y-77617317D02*
X122517914Y-77545888D01*
X122517914Y-77545888D02*
X122375057Y-77403031D01*
X122375057Y-77403031D02*
X122303628Y-77188745D01*
X122303628Y-77188745D02*
X122303628Y-77045888D01*
X122303628Y-77045888D02*
X122375057Y-76831602D01*
X122375057Y-76831602D02*
X122446485Y-76760174D01*
D11*
X113877000Y-125475000D02*
G75*
G03*
X113877000Y-125475000I-127000J0D01*
G01*
X129362200Y-70891400D02*
G75*
G03*
X129362200Y-70891400I-177800J0D01*
G01*
D10*
X162010885Y-139705300D02*
X163153743Y-139705300D01*
X162582314Y-140276728D02*
X162582314Y-139133871D01*
X164582314Y-138776728D02*
X163868028Y-138776728D01*
X163868028Y-138776728D02*
X163796600Y-139491014D01*
X163796600Y-139491014D02*
X163868028Y-139419585D01*
X163868028Y-139419585D02*
X164010886Y-139348157D01*
X164010886Y-139348157D02*
X164368028Y-139348157D01*
X164368028Y-139348157D02*
X164510886Y-139419585D01*
X164510886Y-139419585D02*
X164582314Y-139491014D01*
X164582314Y-139491014D02*
X164653743Y-139633871D01*
X164653743Y-139633871D02*
X164653743Y-139991014D01*
X164653743Y-139991014D02*
X164582314Y-140133871D01*
X164582314Y-140133871D02*
X164510886Y-140205300D01*
X164510886Y-140205300D02*
X164368028Y-140276728D01*
X164368028Y-140276728D02*
X164010886Y-140276728D01*
X164010886Y-140276728D02*
X163868028Y-140205300D01*
X163868028Y-140205300D02*
X163796600Y-140133871D01*
X142325885Y-139654500D02*
X143468743Y-139654500D01*
X142897314Y-140225928D02*
X142897314Y-139083071D01*
X144897314Y-138725928D02*
X144183028Y-138725928D01*
X144183028Y-138725928D02*
X144111600Y-139440214D01*
X144111600Y-139440214D02*
X144183028Y-139368785D01*
X144183028Y-139368785D02*
X144325886Y-139297357D01*
X144325886Y-139297357D02*
X144683028Y-139297357D01*
X144683028Y-139297357D02*
X144825886Y-139368785D01*
X144825886Y-139368785D02*
X144897314Y-139440214D01*
X144897314Y-139440214D02*
X144968743Y-139583071D01*
X144968743Y-139583071D02*
X144968743Y-139940214D01*
X144968743Y-139940214D02*
X144897314Y-140083071D01*
X144897314Y-140083071D02*
X144825886Y-140154500D01*
X144825886Y-140154500D02*
X144683028Y-140225928D01*
X144683028Y-140225928D02*
X144325886Y-140225928D01*
X144325886Y-140225928D02*
X144183028Y-140154500D01*
X144183028Y-140154500D02*
X144111600Y-140083071D01*
X158542027Y-68614271D02*
X158399170Y-68614271D01*
X158399170Y-68614271D02*
X158256313Y-68542842D01*
X158256313Y-68542842D02*
X158184885Y-68471414D01*
X158184885Y-68471414D02*
X158113456Y-68328557D01*
X158113456Y-68328557D02*
X158042027Y-68042842D01*
X158042027Y-68042842D02*
X158042027Y-67685700D01*
X158042027Y-67685700D02*
X158113456Y-67399985D01*
X158113456Y-67399985D02*
X158184885Y-67257128D01*
X158184885Y-67257128D02*
X158256313Y-67185700D01*
X158256313Y-67185700D02*
X158399170Y-67114271D01*
X158399170Y-67114271D02*
X158542027Y-67114271D01*
X158542027Y-67114271D02*
X158684885Y-67185700D01*
X158684885Y-67185700D02*
X158756313Y-67257128D01*
X158756313Y-67257128D02*
X158827742Y-67399985D01*
X158827742Y-67399985D02*
X158899170Y-67685700D01*
X158899170Y-67685700D02*
X158899170Y-68042842D01*
X158899170Y-68042842D02*
X158827742Y-68328557D01*
X158827742Y-68328557D02*
X158756313Y-68471414D01*
X158756313Y-68471414D02*
X158684885Y-68542842D01*
X158684885Y-68542842D02*
X158542027Y-68614271D01*
X172766027Y-68538071D02*
X172623170Y-68538071D01*
X172623170Y-68538071D02*
X172480313Y-68466642D01*
X172480313Y-68466642D02*
X172408885Y-68395214D01*
X172408885Y-68395214D02*
X172337456Y-68252357D01*
X172337456Y-68252357D02*
X172266027Y-67966642D01*
X172266027Y-67966642D02*
X172266027Y-67609500D01*
X172266027Y-67609500D02*
X172337456Y-67323785D01*
X172337456Y-67323785D02*
X172408885Y-67180928D01*
X172408885Y-67180928D02*
X172480313Y-67109500D01*
X172480313Y-67109500D02*
X172623170Y-67038071D01*
X172623170Y-67038071D02*
X172766027Y-67038071D01*
X172766027Y-67038071D02*
X172908885Y-67109500D01*
X172908885Y-67109500D02*
X172980313Y-67180928D01*
X172980313Y-67180928D02*
X173051742Y-67323785D01*
X173051742Y-67323785D02*
X173123170Y-67609500D01*
X173123170Y-67609500D02*
X173123170Y-67966642D01*
X173123170Y-67966642D02*
X173051742Y-68252357D01*
X173051742Y-68252357D02*
X172980313Y-68395214D01*
X172980313Y-68395214D02*
X172908885Y-68466642D01*
X172908885Y-68466642D02*
X172766027Y-68538071D01*
X166503600Y-139806900D02*
X167646458Y-139806900D01*
X167075029Y-140378328D02*
X167075029Y-139235471D01*
X168289315Y-139021185D02*
X168360743Y-138949757D01*
X168360743Y-138949757D02*
X168503601Y-138878328D01*
X168503601Y-138878328D02*
X168860743Y-138878328D01*
X168860743Y-138878328D02*
X169003601Y-138949757D01*
X169003601Y-138949757D02*
X169075029Y-139021185D01*
X169075029Y-139021185D02*
X169146458Y-139164042D01*
X169146458Y-139164042D02*
X169146458Y-139306900D01*
X169146458Y-139306900D02*
X169075029Y-139521185D01*
X169075029Y-139521185D02*
X168217886Y-140378328D01*
X168217886Y-140378328D02*
X169146458Y-140378328D01*
X170432172Y-139378328D02*
X170432172Y-140378328D01*
X170075029Y-138806900D02*
X169717886Y-139878328D01*
X169717886Y-139878328D02*
X170646457Y-139878328D01*
X185450700Y-108171999D02*
X185450700Y-107029142D01*
X186022128Y-107600570D02*
X184879271Y-107600570D01*
X184664985Y-106386284D02*
X184593557Y-106314856D01*
X184593557Y-106314856D02*
X184522128Y-106171999D01*
X184522128Y-106171999D02*
X184522128Y-105814856D01*
X184522128Y-105814856D02*
X184593557Y-105671999D01*
X184593557Y-105671999D02*
X184664985Y-105600570D01*
X184664985Y-105600570D02*
X184807842Y-105529141D01*
X184807842Y-105529141D02*
X184950700Y-105529141D01*
X184950700Y-105529141D02*
X185164985Y-105600570D01*
X185164985Y-105600570D02*
X186022128Y-106457713D01*
X186022128Y-106457713D02*
X186022128Y-105529141D01*
X185022128Y-104243428D02*
X186022128Y-104243428D01*
X184450700Y-104600570D02*
X185522128Y-104957713D01*
X185522128Y-104957713D02*
X185522128Y-104029142D01*
X146350027Y-68538071D02*
X146207170Y-68538071D01*
X146207170Y-68538071D02*
X146064313Y-68466642D01*
X146064313Y-68466642D02*
X145992885Y-68395214D01*
X145992885Y-68395214D02*
X145921456Y-68252357D01*
X145921456Y-68252357D02*
X145850027Y-67966642D01*
X145850027Y-67966642D02*
X145850027Y-67609500D01*
X145850027Y-67609500D02*
X145921456Y-67323785D01*
X145921456Y-67323785D02*
X145992885Y-67180928D01*
X145992885Y-67180928D02*
X146064313Y-67109500D01*
X146064313Y-67109500D02*
X146207170Y-67038071D01*
X146207170Y-67038071D02*
X146350027Y-67038071D01*
X146350027Y-67038071D02*
X146492885Y-67109500D01*
X146492885Y-67109500D02*
X146564313Y-67180928D01*
X146564313Y-67180928D02*
X146635742Y-67323785D01*
X146635742Y-67323785D02*
X146707170Y-67609500D01*
X146707170Y-67609500D02*
X146707170Y-67966642D01*
X146707170Y-67966642D02*
X146635742Y-68252357D01*
X146635742Y-68252357D02*
X146564313Y-68395214D01*
X146564313Y-68395214D02*
X146492885Y-68466642D01*
X146492885Y-68466642D02*
X146350027Y-68538071D01*
X168925714Y-67609500D02*
X167782857Y-67609500D01*
X168354285Y-67038071D02*
X168354285Y-68180928D01*
X166354285Y-68538071D02*
X167068571Y-68538071D01*
X167068571Y-68538071D02*
X167139999Y-67823785D01*
X167139999Y-67823785D02*
X167068571Y-67895214D01*
X167068571Y-67895214D02*
X166925714Y-67966642D01*
X166925714Y-67966642D02*
X166568571Y-67966642D01*
X166568571Y-67966642D02*
X166425714Y-67895214D01*
X166425714Y-67895214D02*
X166354285Y-67823785D01*
X166354285Y-67823785D02*
X166282856Y-67680928D01*
X166282856Y-67680928D02*
X166282856Y-67323785D01*
X166282856Y-67323785D02*
X166354285Y-67180928D01*
X166354285Y-67180928D02*
X166425714Y-67109500D01*
X166425714Y-67109500D02*
X166568571Y-67038071D01*
X166568571Y-67038071D02*
X166925714Y-67038071D01*
X166925714Y-67038071D02*
X167068571Y-67109500D01*
X167068571Y-67109500D02*
X167139999Y-67180928D01*
D11*
X173436779Y-113488866D02*
X174198684Y-113488866D01*
X173817731Y-113869819D02*
X173817731Y-113107914D01*
D10*
X185399900Y-97805714D02*
X185399900Y-96662857D01*
X185971328Y-97234285D02*
X184828471Y-97234285D01*
X184471328Y-95234285D02*
X184471328Y-95948571D01*
X184471328Y-95948571D02*
X185185614Y-96019999D01*
X185185614Y-96019999D02*
X185114185Y-95948571D01*
X185114185Y-95948571D02*
X185042757Y-95805714D01*
X185042757Y-95805714D02*
X185042757Y-95448571D01*
X185042757Y-95448571D02*
X185114185Y-95305714D01*
X185114185Y-95305714D02*
X185185614Y-95234285D01*
X185185614Y-95234285D02*
X185328471Y-95162856D01*
X185328471Y-95162856D02*
X185685614Y-95162856D01*
X185685614Y-95162856D02*
X185828471Y-95234285D01*
X185828471Y-95234285D02*
X185899900Y-95305714D01*
X185899900Y-95305714D02*
X185971328Y-95448571D01*
X185971328Y-95448571D02*
X185971328Y-95805714D01*
X185971328Y-95805714D02*
X185899900Y-95948571D01*
X185899900Y-95948571D02*
X185828471Y-96019999D01*
D11*
X177150057Y-116990475D02*
X177102438Y-116942856D01*
X177102438Y-116942856D02*
X177054819Y-116847618D01*
X177054819Y-116847618D02*
X177054819Y-116609523D01*
X177054819Y-116609523D02*
X177102438Y-116514285D01*
X177102438Y-116514285D02*
X177150057Y-116466666D01*
X177150057Y-116466666D02*
X177245295Y-116419047D01*
X177245295Y-116419047D02*
X177340533Y-116419047D01*
X177340533Y-116419047D02*
X177483390Y-116466666D01*
X177483390Y-116466666D02*
X178054819Y-117038094D01*
X178054819Y-117038094D02*
X178054819Y-116419047D01*
X177388152Y-115561904D02*
X178054819Y-115561904D01*
X177007200Y-115799999D02*
X177721485Y-116038094D01*
X177721485Y-116038094D02*
X177721485Y-115419047D01*
X177054819Y-115180951D02*
X178054819Y-114847618D01*
X178054819Y-114847618D02*
X177054819Y-114514285D01*
D12*
X114665714Y-86579639D02*
X114716581Y-86477906D01*
X114716581Y-86477906D02*
X114716581Y-86325306D01*
X114716581Y-86325306D02*
X114665714Y-86172706D01*
X114665714Y-86172706D02*
X114563981Y-86070973D01*
X114563981Y-86070973D02*
X114462248Y-86020106D01*
X114462248Y-86020106D02*
X114258781Y-85969239D01*
X114258781Y-85969239D02*
X114106181Y-85969239D01*
X114106181Y-85969239D02*
X113902714Y-86020106D01*
X113902714Y-86020106D02*
X113800981Y-86070973D01*
X113800981Y-86070973D02*
X113699248Y-86172706D01*
X113699248Y-86172706D02*
X113648381Y-86325306D01*
X113648381Y-86325306D02*
X113648381Y-86427039D01*
X113648381Y-86427039D02*
X113699248Y-86579639D01*
X113699248Y-86579639D02*
X113750114Y-86630506D01*
X113750114Y-86630506D02*
X114106181Y-86630506D01*
X114106181Y-86630506D02*
X114106181Y-86427039D01*
X113648381Y-87088306D02*
X114360514Y-87088306D01*
X114157048Y-87088306D02*
X114258781Y-87139173D01*
X114258781Y-87139173D02*
X114309648Y-87190039D01*
X114309648Y-87190039D02*
X114360514Y-87291773D01*
X114360514Y-87291773D02*
X114360514Y-87393506D01*
X113648381Y-87902173D02*
X113699248Y-87800440D01*
X113699248Y-87800440D02*
X113750114Y-87749573D01*
X113750114Y-87749573D02*
X113851848Y-87698706D01*
X113851848Y-87698706D02*
X114157048Y-87698706D01*
X114157048Y-87698706D02*
X114258781Y-87749573D01*
X114258781Y-87749573D02*
X114309648Y-87800440D01*
X114309648Y-87800440D02*
X114360514Y-87902173D01*
X114360514Y-87902173D02*
X114360514Y-88054773D01*
X114360514Y-88054773D02*
X114309648Y-88156506D01*
X114309648Y-88156506D02*
X114258781Y-88207373D01*
X114258781Y-88207373D02*
X114157048Y-88258240D01*
X114157048Y-88258240D02*
X113851848Y-88258240D01*
X113851848Y-88258240D02*
X113750114Y-88207373D01*
X113750114Y-88207373D02*
X113699248Y-88156506D01*
X113699248Y-88156506D02*
X113648381Y-88054773D01*
X113648381Y-88054773D02*
X113648381Y-87902173D01*
X114360514Y-89173840D02*
X113648381Y-89173840D01*
X114360514Y-88716040D02*
X113800981Y-88716040D01*
X113800981Y-88716040D02*
X113699248Y-88766907D01*
X113699248Y-88766907D02*
X113648381Y-88868640D01*
X113648381Y-88868640D02*
X113648381Y-89021240D01*
X113648381Y-89021240D02*
X113699248Y-89122973D01*
X113699248Y-89122973D02*
X113750114Y-89173840D01*
X114360514Y-89682507D02*
X113648381Y-89682507D01*
X114258781Y-89682507D02*
X114309648Y-89733374D01*
X114309648Y-89733374D02*
X114360514Y-89835107D01*
X114360514Y-89835107D02*
X114360514Y-89987707D01*
X114360514Y-89987707D02*
X114309648Y-90089440D01*
X114309648Y-90089440D02*
X114207914Y-90140307D01*
X114207914Y-90140307D02*
X113648381Y-90140307D01*
X113648381Y-91106774D02*
X114716581Y-91106774D01*
X113699248Y-91106774D02*
X113648381Y-91005041D01*
X113648381Y-91005041D02*
X113648381Y-90801574D01*
X113648381Y-90801574D02*
X113699248Y-90699841D01*
X113699248Y-90699841D02*
X113750114Y-90648974D01*
X113750114Y-90648974D02*
X113851848Y-90598107D01*
X113851848Y-90598107D02*
X114157048Y-90598107D01*
X114157048Y-90598107D02*
X114258781Y-90648974D01*
X114258781Y-90648974D02*
X114309648Y-90699841D01*
X114309648Y-90699841D02*
X114360514Y-90801574D01*
X114360514Y-90801574D02*
X114360514Y-91005041D01*
X114360514Y-91005041D02*
X114309648Y-91106774D01*
X113699248Y-92378441D02*
X113648381Y-92531041D01*
X113648381Y-92531041D02*
X113648381Y-92785375D01*
X113648381Y-92785375D02*
X113699248Y-92887108D01*
X113699248Y-92887108D02*
X113750114Y-92937975D01*
X113750114Y-92937975D02*
X113851848Y-92988841D01*
X113851848Y-92988841D02*
X113953581Y-92988841D01*
X113953581Y-92988841D02*
X114055314Y-92937975D01*
X114055314Y-92937975D02*
X114106181Y-92887108D01*
X114106181Y-92887108D02*
X114157048Y-92785375D01*
X114157048Y-92785375D02*
X114207914Y-92581908D01*
X114207914Y-92581908D02*
X114258781Y-92480175D01*
X114258781Y-92480175D02*
X114309648Y-92429308D01*
X114309648Y-92429308D02*
X114411381Y-92378441D01*
X114411381Y-92378441D02*
X114513114Y-92378441D01*
X114513114Y-92378441D02*
X114614848Y-92429308D01*
X114614848Y-92429308D02*
X114665714Y-92480175D01*
X114665714Y-92480175D02*
X114716581Y-92581908D01*
X114716581Y-92581908D02*
X114716581Y-92836241D01*
X114716581Y-92836241D02*
X114665714Y-92988841D01*
X113648381Y-93446641D02*
X114360514Y-93446641D01*
X114716581Y-93446641D02*
X114665714Y-93395774D01*
X114665714Y-93395774D02*
X114614848Y-93446641D01*
X114614848Y-93446641D02*
X114665714Y-93497508D01*
X114665714Y-93497508D02*
X114716581Y-93446641D01*
X114716581Y-93446641D02*
X114614848Y-93446641D01*
X113648381Y-94413108D02*
X114716581Y-94413108D01*
X113699248Y-94413108D02*
X113648381Y-94311375D01*
X113648381Y-94311375D02*
X113648381Y-94107908D01*
X113648381Y-94107908D02*
X113699248Y-94006175D01*
X113699248Y-94006175D02*
X113750114Y-93955308D01*
X113750114Y-93955308D02*
X113851848Y-93904441D01*
X113851848Y-93904441D02*
X114157048Y-93904441D01*
X114157048Y-93904441D02*
X114258781Y-93955308D01*
X114258781Y-93955308D02*
X114309648Y-94006175D01*
X114309648Y-94006175D02*
X114360514Y-94107908D01*
X114360514Y-94107908D02*
X114360514Y-94311375D01*
X114360514Y-94311375D02*
X114309648Y-94413108D01*
X113699248Y-95328708D02*
X113648381Y-95226975D01*
X113648381Y-95226975D02*
X113648381Y-95023508D01*
X113648381Y-95023508D02*
X113699248Y-94921775D01*
X113699248Y-94921775D02*
X113800981Y-94870908D01*
X113800981Y-94870908D02*
X114207914Y-94870908D01*
X114207914Y-94870908D02*
X114309648Y-94921775D01*
X114309648Y-94921775D02*
X114360514Y-95023508D01*
X114360514Y-95023508D02*
X114360514Y-95226975D01*
X114360514Y-95226975D02*
X114309648Y-95328708D01*
X114309648Y-95328708D02*
X114207914Y-95379575D01*
X114207914Y-95379575D02*
X114106181Y-95379575D01*
X114106181Y-95379575D02*
X114004448Y-94870908D01*
X113648381Y-96651242D02*
X114716581Y-96651242D01*
X114716581Y-96651242D02*
X114716581Y-97058175D01*
X114716581Y-97058175D02*
X114665714Y-97159909D01*
X114665714Y-97159909D02*
X114614848Y-97210775D01*
X114614848Y-97210775D02*
X114513114Y-97261642D01*
X114513114Y-97261642D02*
X114360514Y-97261642D01*
X114360514Y-97261642D02*
X114258781Y-97210775D01*
X114258781Y-97210775D02*
X114207914Y-97159909D01*
X114207914Y-97159909D02*
X114157048Y-97058175D01*
X114157048Y-97058175D02*
X114157048Y-96651242D01*
X113648381Y-97872042D02*
X113699248Y-97770309D01*
X113699248Y-97770309D02*
X113750114Y-97719442D01*
X113750114Y-97719442D02*
X113851848Y-97668575D01*
X113851848Y-97668575D02*
X114157048Y-97668575D01*
X114157048Y-97668575D02*
X114258781Y-97719442D01*
X114258781Y-97719442D02*
X114309648Y-97770309D01*
X114309648Y-97770309D02*
X114360514Y-97872042D01*
X114360514Y-97872042D02*
X114360514Y-98024642D01*
X114360514Y-98024642D02*
X114309648Y-98126375D01*
X114309648Y-98126375D02*
X114258781Y-98177242D01*
X114258781Y-98177242D02*
X114157048Y-98228109D01*
X114157048Y-98228109D02*
X113851848Y-98228109D01*
X113851848Y-98228109D02*
X113750114Y-98177242D01*
X113750114Y-98177242D02*
X113699248Y-98126375D01*
X113699248Y-98126375D02*
X113648381Y-98024642D01*
X113648381Y-98024642D02*
X113648381Y-97872042D01*
X114360514Y-98584176D02*
X113648381Y-98787642D01*
X113648381Y-98787642D02*
X114157048Y-98991109D01*
X114157048Y-98991109D02*
X113648381Y-99194576D01*
X113648381Y-99194576D02*
X114360514Y-99398042D01*
X113699248Y-100211909D02*
X113648381Y-100110176D01*
X113648381Y-100110176D02*
X113648381Y-99906709D01*
X113648381Y-99906709D02*
X113699248Y-99804976D01*
X113699248Y-99804976D02*
X113800981Y-99754109D01*
X113800981Y-99754109D02*
X114207914Y-99754109D01*
X114207914Y-99754109D02*
X114309648Y-99804976D01*
X114309648Y-99804976D02*
X114360514Y-99906709D01*
X114360514Y-99906709D02*
X114360514Y-100110176D01*
X114360514Y-100110176D02*
X114309648Y-100211909D01*
X114309648Y-100211909D02*
X114207914Y-100262776D01*
X114207914Y-100262776D02*
X114106181Y-100262776D01*
X114106181Y-100262776D02*
X114004448Y-99754109D01*
X113648381Y-100720576D02*
X114360514Y-100720576D01*
X114157048Y-100720576D02*
X114258781Y-100771443D01*
X114258781Y-100771443D02*
X114309648Y-100822309D01*
X114309648Y-100822309D02*
X114360514Y-100924043D01*
X114360514Y-100924043D02*
X114360514Y-101025776D01*
X112030312Y-86630506D02*
X111979446Y-86579639D01*
X111979446Y-86579639D02*
X111928579Y-86427039D01*
X111928579Y-86427039D02*
X111928579Y-86325306D01*
X111928579Y-86325306D02*
X111979446Y-86172706D01*
X111979446Y-86172706D02*
X112081179Y-86070973D01*
X112081179Y-86070973D02*
X112182912Y-86020106D01*
X112182912Y-86020106D02*
X112386379Y-85969239D01*
X112386379Y-85969239D02*
X112538979Y-85969239D01*
X112538979Y-85969239D02*
X112742446Y-86020106D01*
X112742446Y-86020106D02*
X112844179Y-86070973D01*
X112844179Y-86070973D02*
X112945912Y-86172706D01*
X112945912Y-86172706D02*
X112996779Y-86325306D01*
X112996779Y-86325306D02*
X112996779Y-86427039D01*
X112996779Y-86427039D02*
X112945912Y-86579639D01*
X112945912Y-86579639D02*
X112895046Y-86630506D01*
X111928579Y-87240906D02*
X111979446Y-87139173D01*
X111979446Y-87139173D02*
X112030312Y-87088306D01*
X112030312Y-87088306D02*
X112132046Y-87037439D01*
X112132046Y-87037439D02*
X112437246Y-87037439D01*
X112437246Y-87037439D02*
X112538979Y-87088306D01*
X112538979Y-87088306D02*
X112589846Y-87139173D01*
X112589846Y-87139173D02*
X112640712Y-87240906D01*
X112640712Y-87240906D02*
X112640712Y-87393506D01*
X112640712Y-87393506D02*
X112589846Y-87495239D01*
X112589846Y-87495239D02*
X112538979Y-87546106D01*
X112538979Y-87546106D02*
X112437246Y-87596973D01*
X112437246Y-87596973D02*
X112132046Y-87596973D01*
X112132046Y-87596973D02*
X112030312Y-87546106D01*
X112030312Y-87546106D02*
X111979446Y-87495239D01*
X111979446Y-87495239D02*
X111928579Y-87393506D01*
X111928579Y-87393506D02*
X111928579Y-87240906D01*
X112640712Y-88054773D02*
X111928579Y-88054773D01*
X112538979Y-88054773D02*
X112589846Y-88105640D01*
X112589846Y-88105640D02*
X112640712Y-88207373D01*
X112640712Y-88207373D02*
X112640712Y-88359973D01*
X112640712Y-88359973D02*
X112589846Y-88461706D01*
X112589846Y-88461706D02*
X112488112Y-88512573D01*
X112488112Y-88512573D02*
X111928579Y-88512573D01*
X112640712Y-88919507D02*
X111928579Y-89173840D01*
X111928579Y-89173840D02*
X112640712Y-89428173D01*
X111979446Y-90242040D02*
X111928579Y-90140307D01*
X111928579Y-90140307D02*
X111928579Y-89936840D01*
X111928579Y-89936840D02*
X111979446Y-89835107D01*
X111979446Y-89835107D02*
X112081179Y-89784240D01*
X112081179Y-89784240D02*
X112488112Y-89784240D01*
X112488112Y-89784240D02*
X112589846Y-89835107D01*
X112589846Y-89835107D02*
X112640712Y-89936840D01*
X112640712Y-89936840D02*
X112640712Y-90140307D01*
X112640712Y-90140307D02*
X112589846Y-90242040D01*
X112589846Y-90242040D02*
X112488112Y-90292907D01*
X112488112Y-90292907D02*
X112386379Y-90292907D01*
X112386379Y-90292907D02*
X112284646Y-89784240D01*
X111928579Y-90750707D02*
X112640712Y-90750707D01*
X112437246Y-90750707D02*
X112538979Y-90801574D01*
X112538979Y-90801574D02*
X112589846Y-90852440D01*
X112589846Y-90852440D02*
X112640712Y-90954174D01*
X112640712Y-90954174D02*
X112640712Y-91055907D01*
X112640712Y-91259374D02*
X112640712Y-91666307D01*
X112996779Y-91411974D02*
X112081179Y-91411974D01*
X112081179Y-91411974D02*
X111979446Y-91462841D01*
X111979446Y-91462841D02*
X111928579Y-91564574D01*
X111928579Y-91564574D02*
X111928579Y-91666307D01*
X111979446Y-92429307D02*
X111928579Y-92327574D01*
X111928579Y-92327574D02*
X111928579Y-92124107D01*
X111928579Y-92124107D02*
X111979446Y-92022374D01*
X111979446Y-92022374D02*
X112081179Y-91971507D01*
X112081179Y-91971507D02*
X112488112Y-91971507D01*
X112488112Y-91971507D02*
X112589846Y-92022374D01*
X112589846Y-92022374D02*
X112640712Y-92124107D01*
X112640712Y-92124107D02*
X112640712Y-92327574D01*
X112640712Y-92327574D02*
X112589846Y-92429307D01*
X112589846Y-92429307D02*
X112488112Y-92480174D01*
X112488112Y-92480174D02*
X112386379Y-92480174D01*
X112386379Y-92480174D02*
X112284646Y-91971507D01*
X111928579Y-92937974D02*
X112640712Y-92937974D01*
X112437246Y-92937974D02*
X112538979Y-92988841D01*
X112538979Y-92988841D02*
X112589846Y-93039707D01*
X112589846Y-93039707D02*
X112640712Y-93141441D01*
X112640712Y-93141441D02*
X112640712Y-93243174D01*
X112488112Y-94769175D02*
X112437246Y-94921775D01*
X112437246Y-94921775D02*
X112386379Y-94972641D01*
X112386379Y-94972641D02*
X112284646Y-95023508D01*
X112284646Y-95023508D02*
X112132046Y-95023508D01*
X112132046Y-95023508D02*
X112030312Y-94972641D01*
X112030312Y-94972641D02*
X111979446Y-94921775D01*
X111979446Y-94921775D02*
X111928579Y-94820041D01*
X111928579Y-94820041D02*
X111928579Y-94413108D01*
X111928579Y-94413108D02*
X112996779Y-94413108D01*
X112996779Y-94413108D02*
X112996779Y-94769175D01*
X112996779Y-94769175D02*
X112945912Y-94870908D01*
X112945912Y-94870908D02*
X112895046Y-94921775D01*
X112895046Y-94921775D02*
X112793312Y-94972641D01*
X112793312Y-94972641D02*
X112691579Y-94972641D01*
X112691579Y-94972641D02*
X112589846Y-94921775D01*
X112589846Y-94921775D02*
X112538979Y-94870908D01*
X112538979Y-94870908D02*
X112488112Y-94769175D01*
X112488112Y-94769175D02*
X112488112Y-94413108D01*
X111928579Y-95633908D02*
X111979446Y-95532175D01*
X111979446Y-95532175D02*
X112030312Y-95481308D01*
X112030312Y-95481308D02*
X112132046Y-95430441D01*
X112132046Y-95430441D02*
X112437246Y-95430441D01*
X112437246Y-95430441D02*
X112538979Y-95481308D01*
X112538979Y-95481308D02*
X112589846Y-95532175D01*
X112589846Y-95532175D02*
X112640712Y-95633908D01*
X112640712Y-95633908D02*
X112640712Y-95786508D01*
X112640712Y-95786508D02*
X112589846Y-95888241D01*
X112589846Y-95888241D02*
X112538979Y-95939108D01*
X112538979Y-95939108D02*
X112437246Y-95989975D01*
X112437246Y-95989975D02*
X112132046Y-95989975D01*
X112132046Y-95989975D02*
X112030312Y-95939108D01*
X112030312Y-95939108D02*
X111979446Y-95888241D01*
X111979446Y-95888241D02*
X111928579Y-95786508D01*
X111928579Y-95786508D02*
X111928579Y-95633908D01*
X111928579Y-96905575D02*
X112488112Y-96905575D01*
X112488112Y-96905575D02*
X112589846Y-96854708D01*
X112589846Y-96854708D02*
X112640712Y-96752975D01*
X112640712Y-96752975D02*
X112640712Y-96549508D01*
X112640712Y-96549508D02*
X112589846Y-96447775D01*
X111979446Y-96905575D02*
X111928579Y-96803842D01*
X111928579Y-96803842D02*
X111928579Y-96549508D01*
X111928579Y-96549508D02*
X111979446Y-96447775D01*
X111979446Y-96447775D02*
X112081179Y-96396908D01*
X112081179Y-96396908D02*
X112182912Y-96396908D01*
X112182912Y-96396908D02*
X112284646Y-96447775D01*
X112284646Y-96447775D02*
X112335512Y-96549508D01*
X112335512Y-96549508D02*
X112335512Y-96803842D01*
X112335512Y-96803842D02*
X112386379Y-96905575D01*
X111928579Y-97414242D02*
X112640712Y-97414242D01*
X112437246Y-97414242D02*
X112538979Y-97465109D01*
X112538979Y-97465109D02*
X112589846Y-97515975D01*
X112589846Y-97515975D02*
X112640712Y-97617709D01*
X112640712Y-97617709D02*
X112640712Y-97719442D01*
X111928579Y-98533309D02*
X112996779Y-98533309D01*
X111979446Y-98533309D02*
X111928579Y-98431576D01*
X111928579Y-98431576D02*
X111928579Y-98228109D01*
X111928579Y-98228109D02*
X111979446Y-98126376D01*
X111979446Y-98126376D02*
X112030312Y-98075509D01*
X112030312Y-98075509D02*
X112132046Y-98024642D01*
X112132046Y-98024642D02*
X112437246Y-98024642D01*
X112437246Y-98024642D02*
X112538979Y-98075509D01*
X112538979Y-98075509D02*
X112589846Y-98126376D01*
X112589846Y-98126376D02*
X112640712Y-98228109D01*
X112640712Y-98228109D02*
X112640712Y-98431576D01*
X112640712Y-98431576D02*
X112589846Y-98533309D01*
X112996779Y-99703243D02*
X111928579Y-100059310D01*
X111928579Y-100059310D02*
X112996779Y-100415376D01*
X112895046Y-100720576D02*
X112945912Y-100771443D01*
X112945912Y-100771443D02*
X112996779Y-100873176D01*
X112996779Y-100873176D02*
X112996779Y-101127510D01*
X112996779Y-101127510D02*
X112945912Y-101229243D01*
X112945912Y-101229243D02*
X112895046Y-101280110D01*
X112895046Y-101280110D02*
X112793312Y-101330976D01*
X112793312Y-101330976D02*
X112691579Y-101330976D01*
X112691579Y-101330976D02*
X112538979Y-101280110D01*
X112538979Y-101280110D02*
X111928579Y-100669710D01*
X111928579Y-100669710D02*
X111928579Y-101330976D01*
X110513977Y-85969239D02*
X110513977Y-86477906D01*
X110208777Y-85867506D02*
X111276977Y-86223573D01*
X111276977Y-86223573D02*
X110208777Y-86579639D01*
X110920910Y-86935706D02*
X109852710Y-86935706D01*
X110870044Y-86935706D02*
X110920910Y-87037439D01*
X110920910Y-87037439D02*
X110920910Y-87240906D01*
X110920910Y-87240906D02*
X110870044Y-87342639D01*
X110870044Y-87342639D02*
X110819177Y-87393506D01*
X110819177Y-87393506D02*
X110717444Y-87444373D01*
X110717444Y-87444373D02*
X110412244Y-87444373D01*
X110412244Y-87444373D02*
X110310510Y-87393506D01*
X110310510Y-87393506D02*
X110259644Y-87342639D01*
X110259644Y-87342639D02*
X110208777Y-87240906D01*
X110208777Y-87240906D02*
X110208777Y-87037439D01*
X110208777Y-87037439D02*
X110259644Y-86935706D01*
X110208777Y-87902173D02*
X110920910Y-87902173D01*
X110717444Y-87902173D02*
X110819177Y-87953040D01*
X110819177Y-87953040D02*
X110870044Y-88003906D01*
X110870044Y-88003906D02*
X110920910Y-88105640D01*
X110920910Y-88105640D02*
X110920910Y-88207373D01*
X111175244Y-89326440D02*
X111226110Y-89377307D01*
X111226110Y-89377307D02*
X111276977Y-89479040D01*
X111276977Y-89479040D02*
X111276977Y-89733374D01*
X111276977Y-89733374D02*
X111226110Y-89835107D01*
X111226110Y-89835107D02*
X111175244Y-89885974D01*
X111175244Y-89885974D02*
X111073510Y-89936840D01*
X111073510Y-89936840D02*
X110971777Y-89936840D01*
X110971777Y-89936840D02*
X110819177Y-89885974D01*
X110819177Y-89885974D02*
X110208777Y-89275574D01*
X110208777Y-89275574D02*
X110208777Y-89936840D01*
X111276977Y-90598107D02*
X111276977Y-90699840D01*
X111276977Y-90699840D02*
X111226110Y-90801573D01*
X111226110Y-90801573D02*
X111175244Y-90852440D01*
X111175244Y-90852440D02*
X111073510Y-90903307D01*
X111073510Y-90903307D02*
X110870044Y-90954173D01*
X110870044Y-90954173D02*
X110615710Y-90954173D01*
X110615710Y-90954173D02*
X110412244Y-90903307D01*
X110412244Y-90903307D02*
X110310510Y-90852440D01*
X110310510Y-90852440D02*
X110259644Y-90801573D01*
X110259644Y-90801573D02*
X110208777Y-90699840D01*
X110208777Y-90699840D02*
X110208777Y-90598107D01*
X110208777Y-90598107D02*
X110259644Y-90496373D01*
X110259644Y-90496373D02*
X110310510Y-90445507D01*
X110310510Y-90445507D02*
X110412244Y-90394640D01*
X110412244Y-90394640D02*
X110615710Y-90343773D01*
X110615710Y-90343773D02*
X110870044Y-90343773D01*
X110870044Y-90343773D02*
X111073510Y-90394640D01*
X111073510Y-90394640D02*
X111175244Y-90445507D01*
X111175244Y-90445507D02*
X111226110Y-90496373D01*
X111226110Y-90496373D02*
X111276977Y-90598107D01*
X111175244Y-91361106D02*
X111226110Y-91411973D01*
X111226110Y-91411973D02*
X111276977Y-91513706D01*
X111276977Y-91513706D02*
X111276977Y-91768040D01*
X111276977Y-91768040D02*
X111226110Y-91869773D01*
X111226110Y-91869773D02*
X111175244Y-91920640D01*
X111175244Y-91920640D02*
X111073510Y-91971506D01*
X111073510Y-91971506D02*
X110971777Y-91971506D01*
X110971777Y-91971506D02*
X110819177Y-91920640D01*
X110819177Y-91920640D02*
X110208777Y-91310240D01*
X110208777Y-91310240D02*
X110208777Y-91971506D01*
X110920910Y-92887106D02*
X110208777Y-92887106D01*
X111327844Y-92632773D02*
X110564844Y-92378439D01*
X110564844Y-92378439D02*
X110564844Y-93039706D01*
X106769173Y-86020106D02*
X107837373Y-86020106D01*
X107837373Y-86020106D02*
X107074373Y-86376173D01*
X107074373Y-86376173D02*
X107837373Y-86732239D01*
X107837373Y-86732239D02*
X106769173Y-86732239D01*
X106769173Y-87698706D02*
X107328706Y-87698706D01*
X107328706Y-87698706D02*
X107430440Y-87647839D01*
X107430440Y-87647839D02*
X107481306Y-87546106D01*
X107481306Y-87546106D02*
X107481306Y-87342639D01*
X107481306Y-87342639D02*
X107430440Y-87240906D01*
X106820040Y-87698706D02*
X106769173Y-87596973D01*
X106769173Y-87596973D02*
X106769173Y-87342639D01*
X106769173Y-87342639D02*
X106820040Y-87240906D01*
X106820040Y-87240906D02*
X106921773Y-87190039D01*
X106921773Y-87190039D02*
X107023506Y-87190039D01*
X107023506Y-87190039D02*
X107125240Y-87240906D01*
X107125240Y-87240906D02*
X107176106Y-87342639D01*
X107176106Y-87342639D02*
X107176106Y-87596973D01*
X107176106Y-87596973D02*
X107226973Y-87698706D01*
X107481306Y-88207373D02*
X106769173Y-88207373D01*
X107379573Y-88207373D02*
X107430440Y-88258240D01*
X107430440Y-88258240D02*
X107481306Y-88359973D01*
X107481306Y-88359973D02*
X107481306Y-88512573D01*
X107481306Y-88512573D02*
X107430440Y-88614306D01*
X107430440Y-88614306D02*
X107328706Y-88665173D01*
X107328706Y-88665173D02*
X106769173Y-88665173D01*
X106769173Y-89631640D02*
X107328706Y-89631640D01*
X107328706Y-89631640D02*
X107430440Y-89580773D01*
X107430440Y-89580773D02*
X107481306Y-89479040D01*
X107481306Y-89479040D02*
X107481306Y-89275573D01*
X107481306Y-89275573D02*
X107430440Y-89173840D01*
X106820040Y-89631640D02*
X106769173Y-89529907D01*
X106769173Y-89529907D02*
X106769173Y-89275573D01*
X106769173Y-89275573D02*
X106820040Y-89173840D01*
X106820040Y-89173840D02*
X106921773Y-89122973D01*
X106921773Y-89122973D02*
X107023506Y-89122973D01*
X107023506Y-89122973D02*
X107125240Y-89173840D01*
X107125240Y-89173840D02*
X107176106Y-89275573D01*
X107176106Y-89275573D02*
X107176106Y-89529907D01*
X107176106Y-89529907D02*
X107226973Y-89631640D01*
X107481306Y-90038574D02*
X106769173Y-90292907D01*
X106769173Y-90292907D02*
X107481306Y-90547240D01*
X107837373Y-91615441D02*
X107837373Y-92225841D01*
X106769173Y-91920641D02*
X107837373Y-91920641D01*
X106769173Y-92734508D02*
X106820040Y-92632775D01*
X106820040Y-92632775D02*
X106870906Y-92581908D01*
X106870906Y-92581908D02*
X106972640Y-92531041D01*
X106972640Y-92531041D02*
X107277840Y-92531041D01*
X107277840Y-92531041D02*
X107379573Y-92581908D01*
X107379573Y-92581908D02*
X107430440Y-92632775D01*
X107430440Y-92632775D02*
X107481306Y-92734508D01*
X107481306Y-92734508D02*
X107481306Y-92887108D01*
X107481306Y-92887108D02*
X107430440Y-92988841D01*
X107430440Y-92988841D02*
X107379573Y-93039708D01*
X107379573Y-93039708D02*
X107277840Y-93090575D01*
X107277840Y-93090575D02*
X106972640Y-93090575D01*
X106972640Y-93090575D02*
X106870906Y-93039708D01*
X106870906Y-93039708D02*
X106820040Y-92988841D01*
X106820040Y-92988841D02*
X106769173Y-92887108D01*
X106769173Y-92887108D02*
X106769173Y-92734508D01*
X106769173Y-93700975D02*
X106820040Y-93599242D01*
X106820040Y-93599242D02*
X106870906Y-93548375D01*
X106870906Y-93548375D02*
X106972640Y-93497508D01*
X106972640Y-93497508D02*
X107277840Y-93497508D01*
X107277840Y-93497508D02*
X107379573Y-93548375D01*
X107379573Y-93548375D02*
X107430440Y-93599242D01*
X107430440Y-93599242D02*
X107481306Y-93700975D01*
X107481306Y-93700975D02*
X107481306Y-93853575D01*
X107481306Y-93853575D02*
X107430440Y-93955308D01*
X107430440Y-93955308D02*
X107379573Y-94006175D01*
X107379573Y-94006175D02*
X107277840Y-94057042D01*
X107277840Y-94057042D02*
X106972640Y-94057042D01*
X106972640Y-94057042D02*
X106870906Y-94006175D01*
X106870906Y-94006175D02*
X106820040Y-93955308D01*
X106820040Y-93955308D02*
X106769173Y-93853575D01*
X106769173Y-93853575D02*
X106769173Y-93700975D01*
X106769173Y-94514842D02*
X107481306Y-94514842D01*
X107277840Y-94514842D02*
X107379573Y-94565709D01*
X107379573Y-94565709D02*
X107430440Y-94616575D01*
X107430440Y-94616575D02*
X107481306Y-94718309D01*
X107481306Y-94718309D02*
X107481306Y-94820042D01*
D11*
X181884819Y-87674053D02*
X181884819Y-88150243D01*
X181884819Y-88150243D02*
X182361009Y-88197862D01*
X182361009Y-88197862D02*
X182313390Y-88150243D01*
X182313390Y-88150243D02*
X182265771Y-88055005D01*
X182265771Y-88055005D02*
X182265771Y-87816910D01*
X182265771Y-87816910D02*
X182313390Y-87721672D01*
X182313390Y-87721672D02*
X182361009Y-87674053D01*
X182361009Y-87674053D02*
X182456247Y-87626434D01*
X182456247Y-87626434D02*
X182694342Y-87626434D01*
X182694342Y-87626434D02*
X182789580Y-87674053D01*
X182789580Y-87674053D02*
X182837200Y-87721672D01*
X182837200Y-87721672D02*
X182884819Y-87816910D01*
X182884819Y-87816910D02*
X182884819Y-88055005D01*
X182884819Y-88055005D02*
X182837200Y-88150243D01*
X182837200Y-88150243D02*
X182789580Y-88197862D01*
X181884819Y-87340719D02*
X182884819Y-87007386D01*
X182884819Y-87007386D02*
X181884819Y-86674053D01*
D10*
X144305742Y-67533300D02*
X143162885Y-67533300D01*
X143734313Y-66961871D02*
X143734313Y-68104728D01*
X141948599Y-67747585D02*
X141734313Y-67676157D01*
X141734313Y-67676157D02*
X141662884Y-67604728D01*
X141662884Y-67604728D02*
X141591456Y-67461871D01*
X141591456Y-67461871D02*
X141591456Y-67247585D01*
X141591456Y-67247585D02*
X141662884Y-67104728D01*
X141662884Y-67104728D02*
X141734313Y-67033300D01*
X141734313Y-67033300D02*
X141877170Y-66961871D01*
X141877170Y-66961871D02*
X142448599Y-66961871D01*
X142448599Y-66961871D02*
X142448599Y-68461871D01*
X142448599Y-68461871D02*
X141948599Y-68461871D01*
X141948599Y-68461871D02*
X141805742Y-68390442D01*
X141805742Y-68390442D02*
X141734313Y-68319014D01*
X141734313Y-68319014D02*
X141662884Y-68176157D01*
X141662884Y-68176157D02*
X141662884Y-68033300D01*
X141662884Y-68033300D02*
X141734313Y-67890442D01*
X141734313Y-67890442D02*
X141805742Y-67819014D01*
X141805742Y-67819014D02*
X141948599Y-67747585D01*
X141948599Y-67747585D02*
X142448599Y-67747585D01*
X141020027Y-67390442D02*
X140305742Y-67390442D01*
X141162884Y-66961871D02*
X140662884Y-68461871D01*
X140662884Y-68461871D02*
X140162884Y-66961871D01*
X139877170Y-68461871D02*
X139020028Y-68461871D01*
X139448599Y-66961871D02*
X139448599Y-68461871D01*
X138734313Y-68461871D02*
X137877171Y-68461871D01*
X138305742Y-66961871D02*
X138305742Y-68461871D01*
X186165471Y-100995172D02*
X186165471Y-101138029D01*
X186165471Y-101138029D02*
X186094042Y-101280886D01*
X186094042Y-101280886D02*
X186022614Y-101352315D01*
X186022614Y-101352315D02*
X185879757Y-101423743D01*
X185879757Y-101423743D02*
X185594042Y-101495172D01*
X185594042Y-101495172D02*
X185236900Y-101495172D01*
X185236900Y-101495172D02*
X184951185Y-101423743D01*
X184951185Y-101423743D02*
X184808328Y-101352315D01*
X184808328Y-101352315D02*
X184736900Y-101280886D01*
X184736900Y-101280886D02*
X184665471Y-101138029D01*
X184665471Y-101138029D02*
X184665471Y-100995172D01*
X184665471Y-100995172D02*
X184736900Y-100852315D01*
X184736900Y-100852315D02*
X184808328Y-100780886D01*
X184808328Y-100780886D02*
X184951185Y-100709457D01*
X184951185Y-100709457D02*
X185236900Y-100638029D01*
X185236900Y-100638029D02*
X185594042Y-100638029D01*
X185594042Y-100638029D02*
X185879757Y-100709457D01*
X185879757Y-100709457D02*
X186022614Y-100780886D01*
X186022614Y-100780886D02*
X186094042Y-100852315D01*
X186094042Y-100852315D02*
X186165471Y-100995172D01*
D11*
X123936779Y-111288866D02*
X124698684Y-111288866D01*
X124317731Y-111669819D02*
X124317731Y-110907914D01*
D10*
X146297200Y-138573528D02*
X147154343Y-138573528D01*
X146725771Y-140073528D02*
X146725771Y-138573528D01*
X148225771Y-140002100D02*
X148082914Y-140073528D01*
X148082914Y-140073528D02*
X147797200Y-140073528D01*
X147797200Y-140073528D02*
X147654342Y-140002100D01*
X147654342Y-140002100D02*
X147582914Y-139859242D01*
X147582914Y-139859242D02*
X147582914Y-139287814D01*
X147582914Y-139287814D02*
X147654342Y-139144957D01*
X147654342Y-139144957D02*
X147797200Y-139073528D01*
X147797200Y-139073528D02*
X148082914Y-139073528D01*
X148082914Y-139073528D02*
X148225771Y-139144957D01*
X148225771Y-139144957D02*
X148297200Y-139287814D01*
X148297200Y-139287814D02*
X148297200Y-139430671D01*
X148297200Y-139430671D02*
X147582914Y-139573528D01*
X148940056Y-140073528D02*
X148940056Y-139073528D01*
X148940056Y-139216385D02*
X149011485Y-139144957D01*
X149011485Y-139144957D02*
X149154342Y-139073528D01*
X149154342Y-139073528D02*
X149368628Y-139073528D01*
X149368628Y-139073528D02*
X149511485Y-139144957D01*
X149511485Y-139144957D02*
X149582914Y-139287814D01*
X149582914Y-139287814D02*
X149582914Y-140073528D01*
X149582914Y-139287814D02*
X149654342Y-139144957D01*
X149654342Y-139144957D02*
X149797199Y-139073528D01*
X149797199Y-139073528D02*
X150011485Y-139073528D01*
X150011485Y-139073528D02*
X150154342Y-139144957D01*
X150154342Y-139144957D02*
X150225771Y-139287814D01*
X150225771Y-139287814D02*
X150225771Y-140073528D01*
X150940056Y-139073528D02*
X150940056Y-140573528D01*
X150940056Y-139144957D02*
X151082914Y-139073528D01*
X151082914Y-139073528D02*
X151368628Y-139073528D01*
X151368628Y-139073528D02*
X151511485Y-139144957D01*
X151511485Y-139144957D02*
X151582914Y-139216385D01*
X151582914Y-139216385D02*
X151654342Y-139359242D01*
X151654342Y-139359242D02*
X151654342Y-139787814D01*
X151654342Y-139787814D02*
X151582914Y-139930671D01*
X151582914Y-139930671D02*
X151511485Y-140002100D01*
X151511485Y-140002100D02*
X151368628Y-140073528D01*
X151368628Y-140073528D02*
X151082914Y-140073528D01*
X151082914Y-140073528D02*
X150940056Y-140002100D01*
X153970027Y-68588871D02*
X153827170Y-68588871D01*
X153827170Y-68588871D02*
X153684313Y-68517442D01*
X153684313Y-68517442D02*
X153612885Y-68446014D01*
X153612885Y-68446014D02*
X153541456Y-68303157D01*
X153541456Y-68303157D02*
X153470027Y-68017442D01*
X153470027Y-68017442D02*
X153470027Y-67660300D01*
X153470027Y-67660300D02*
X153541456Y-67374585D01*
X153541456Y-67374585D02*
X153612885Y-67231728D01*
X153612885Y-67231728D02*
X153684313Y-67160300D01*
X153684313Y-67160300D02*
X153827170Y-67088871D01*
X153827170Y-67088871D02*
X153970027Y-67088871D01*
X153970027Y-67088871D02*
X154112885Y-67160300D01*
X154112885Y-67160300D02*
X154184313Y-67231728D01*
X154184313Y-67231728D02*
X154255742Y-67374585D01*
X154255742Y-67374585D02*
X154327170Y-67660300D01*
X154327170Y-67660300D02*
X154327170Y-68017442D01*
X154327170Y-68017442D02*
X154255742Y-68303157D01*
X154255742Y-68303157D02*
X154184313Y-68446014D01*
X154184313Y-68446014D02*
X154112885Y-68517442D01*
X154112885Y-68517442D02*
X153970027Y-68588871D01*
D11*
X177722179Y-89167443D02*
X178484084Y-89167443D01*
X178103131Y-89548396D02*
X178103131Y-88786491D01*
D10*
X136633200Y-139629100D02*
X137776058Y-139629100D01*
X137204629Y-140200528D02*
X137204629Y-139057671D01*
X138418915Y-138843385D02*
X138490343Y-138771957D01*
X138490343Y-138771957D02*
X138633201Y-138700528D01*
X138633201Y-138700528D02*
X138990343Y-138700528D01*
X138990343Y-138700528D02*
X139133201Y-138771957D01*
X139133201Y-138771957D02*
X139204629Y-138843385D01*
X139204629Y-138843385D02*
X139276058Y-138986242D01*
X139276058Y-138986242D02*
X139276058Y-139129100D01*
X139276058Y-139129100D02*
X139204629Y-139343385D01*
X139204629Y-139343385D02*
X138347486Y-140200528D01*
X138347486Y-140200528D02*
X139276058Y-140200528D01*
X140561772Y-139200528D02*
X140561772Y-140200528D01*
X140204629Y-138629100D02*
X139847486Y-139700528D01*
X139847486Y-139700528D02*
X140776057Y-139700528D01*
D11*
X142962666Y-79036742D02*
X142962666Y-79751027D01*
X142962666Y-79751027D02*
X142915047Y-79893884D01*
X142915047Y-79893884D02*
X142819809Y-79989123D01*
X142819809Y-79989123D02*
X142676952Y-80036742D01*
X142676952Y-80036742D02*
X142581714Y-80036742D01*
X143867428Y-79370075D02*
X143867428Y-80036742D01*
X143629333Y-78989123D02*
X143391238Y-79703408D01*
X143391238Y-79703408D02*
X144010285Y-79703408D01*
X156854819Y-128466666D02*
X156378628Y-128799999D01*
X156854819Y-129038094D02*
X155854819Y-129038094D01*
X155854819Y-129038094D02*
X155854819Y-128657142D01*
X155854819Y-128657142D02*
X155902438Y-128561904D01*
X155902438Y-128561904D02*
X155950057Y-128514285D01*
X155950057Y-128514285D02*
X156045295Y-128466666D01*
X156045295Y-128466666D02*
X156188152Y-128466666D01*
X156188152Y-128466666D02*
X156283390Y-128514285D01*
X156283390Y-128514285D02*
X156331009Y-128561904D01*
X156331009Y-128561904D02*
X156378628Y-128657142D01*
X156378628Y-128657142D02*
X156378628Y-129038094D01*
X156854819Y-127990475D02*
X156854819Y-127799999D01*
X156854819Y-127799999D02*
X156807200Y-127704761D01*
X156807200Y-127704761D02*
X156759580Y-127657142D01*
X156759580Y-127657142D02*
X156616723Y-127561904D01*
X156616723Y-127561904D02*
X156426247Y-127514285D01*
X156426247Y-127514285D02*
X156045295Y-127514285D01*
X156045295Y-127514285D02*
X155950057Y-127561904D01*
X155950057Y-127561904D02*
X155902438Y-127609523D01*
X155902438Y-127609523D02*
X155854819Y-127704761D01*
X155854819Y-127704761D02*
X155854819Y-127895237D01*
X155854819Y-127895237D02*
X155902438Y-127990475D01*
X155902438Y-127990475D02*
X155950057Y-128038094D01*
X155950057Y-128038094D02*
X156045295Y-128085713D01*
X156045295Y-128085713D02*
X156283390Y-128085713D01*
X156283390Y-128085713D02*
X156378628Y-128038094D01*
X156378628Y-128038094D02*
X156426247Y-127990475D01*
X156426247Y-127990475D02*
X156473866Y-127895237D01*
X156473866Y-127895237D02*
X156473866Y-127704761D01*
X156473866Y-127704761D02*
X156426247Y-127609523D01*
X156426247Y-127609523D02*
X156378628Y-127561904D01*
X156378628Y-127561904D02*
X156283390Y-127514285D01*
D13*
X113588333Y-117274318D02*
X112983571Y-117274318D01*
X112983571Y-117274318D02*
X112983571Y-116004318D01*
X114676905Y-117274318D02*
X113951190Y-117274318D01*
X114314047Y-117274318D02*
X114314047Y-116004318D01*
X114314047Y-116004318D02*
X114193095Y-116185746D01*
X114193095Y-116185746D02*
X114072143Y-116306699D01*
X114072143Y-116306699D02*
X113951190Y-116367175D01*
D11*
X172956819Y-101445256D02*
X173671104Y-101445256D01*
X173671104Y-101445256D02*
X173813961Y-101492875D01*
X173813961Y-101492875D02*
X173909200Y-101588113D01*
X173909200Y-101588113D02*
X173956819Y-101730970D01*
X173956819Y-101730970D02*
X173956819Y-101826208D01*
X172956819Y-100492875D02*
X172956819Y-100969065D01*
X172956819Y-100969065D02*
X173433009Y-101016684D01*
X173433009Y-101016684D02*
X173385390Y-100969065D01*
X173385390Y-100969065D02*
X173337771Y-100873827D01*
X173337771Y-100873827D02*
X173337771Y-100635732D01*
X173337771Y-100635732D02*
X173385390Y-100540494D01*
X173385390Y-100540494D02*
X173433009Y-100492875D01*
X173433009Y-100492875D02*
X173528247Y-100445256D01*
X173528247Y-100445256D02*
X173766342Y-100445256D01*
X173766342Y-100445256D02*
X173861580Y-100492875D01*
X173861580Y-100492875D02*
X173909200Y-100540494D01*
X173909200Y-100540494D02*
X173956819Y-100635732D01*
X173956819Y-100635732D02*
X173956819Y-100873827D01*
X173956819Y-100873827D02*
X173909200Y-100969065D01*
X173909200Y-100969065D02*
X173861580Y-101016684D01*
X132857142Y-130654819D02*
X132523809Y-130178628D01*
X132285714Y-130654819D02*
X132285714Y-129654819D01*
X132285714Y-129654819D02*
X132666666Y-129654819D01*
X132666666Y-129654819D02*
X132761904Y-129702438D01*
X132761904Y-129702438D02*
X132809523Y-129750057D01*
X132809523Y-129750057D02*
X132857142Y-129845295D01*
X132857142Y-129845295D02*
X132857142Y-129988152D01*
X132857142Y-129988152D02*
X132809523Y-130083390D01*
X132809523Y-130083390D02*
X132761904Y-130131009D01*
X132761904Y-130131009D02*
X132666666Y-130178628D01*
X132666666Y-130178628D02*
X132285714Y-130178628D01*
X133809523Y-130654819D02*
X133238095Y-130654819D01*
X133523809Y-130654819D02*
X133523809Y-129654819D01*
X133523809Y-129654819D02*
X133428571Y-129797676D01*
X133428571Y-129797676D02*
X133333333Y-129892914D01*
X133333333Y-129892914D02*
X133238095Y-129940533D01*
X134142857Y-129654819D02*
X134761904Y-129654819D01*
X134761904Y-129654819D02*
X134428571Y-130035771D01*
X134428571Y-130035771D02*
X134571428Y-130035771D01*
X134571428Y-130035771D02*
X134666666Y-130083390D01*
X134666666Y-130083390D02*
X134714285Y-130131009D01*
X134714285Y-130131009D02*
X134761904Y-130226247D01*
X134761904Y-130226247D02*
X134761904Y-130464342D01*
X134761904Y-130464342D02*
X134714285Y-130559580D01*
X134714285Y-130559580D02*
X134666666Y-130607200D01*
X134666666Y-130607200D02*
X134571428Y-130654819D01*
X134571428Y-130654819D02*
X134285714Y-130654819D01*
X134285714Y-130654819D02*
X134190476Y-130607200D01*
X134190476Y-130607200D02*
X134142857Y-130559580D01*
X155878819Y-125241827D02*
X156688342Y-125241827D01*
X156688342Y-125241827D02*
X156783580Y-125194208D01*
X156783580Y-125194208D02*
X156831200Y-125146589D01*
X156831200Y-125146589D02*
X156878819Y-125051351D01*
X156878819Y-125051351D02*
X156878819Y-124860875D01*
X156878819Y-124860875D02*
X156831200Y-124765637D01*
X156831200Y-124765637D02*
X156783580Y-124718018D01*
X156783580Y-124718018D02*
X156688342Y-124670399D01*
X156688342Y-124670399D02*
X155878819Y-124670399D01*
X155878819Y-124289446D02*
X155878819Y-123670399D01*
X155878819Y-123670399D02*
X156259771Y-124003732D01*
X156259771Y-124003732D02*
X156259771Y-123860875D01*
X156259771Y-123860875D02*
X156307390Y-123765637D01*
X156307390Y-123765637D02*
X156355009Y-123718018D01*
X156355009Y-123718018D02*
X156450247Y-123670399D01*
X156450247Y-123670399D02*
X156688342Y-123670399D01*
X156688342Y-123670399D02*
X156783580Y-123718018D01*
X156783580Y-123718018D02*
X156831200Y-123765637D01*
X156831200Y-123765637D02*
X156878819Y-123860875D01*
X156878819Y-123860875D02*
X156878819Y-124146589D01*
X156878819Y-124146589D02*
X156831200Y-124241827D01*
X156831200Y-124241827D02*
X156783580Y-124289446D01*
X110458333Y-131609580D02*
X110410714Y-131657200D01*
X110410714Y-131657200D02*
X110267857Y-131704819D01*
X110267857Y-131704819D02*
X110172619Y-131704819D01*
X110172619Y-131704819D02*
X110029762Y-131657200D01*
X110029762Y-131657200D02*
X109934524Y-131561961D01*
X109934524Y-131561961D02*
X109886905Y-131466723D01*
X109886905Y-131466723D02*
X109839286Y-131276247D01*
X109839286Y-131276247D02*
X109839286Y-131133390D01*
X109839286Y-131133390D02*
X109886905Y-130942914D01*
X109886905Y-130942914D02*
X109934524Y-130847676D01*
X109934524Y-130847676D02*
X110029762Y-130752438D01*
X110029762Y-130752438D02*
X110172619Y-130704819D01*
X110172619Y-130704819D02*
X110267857Y-130704819D01*
X110267857Y-130704819D02*
X110410714Y-130752438D01*
X110410714Y-130752438D02*
X110458333Y-130800057D01*
X110839286Y-130800057D02*
X110886905Y-130752438D01*
X110886905Y-130752438D02*
X110982143Y-130704819D01*
X110982143Y-130704819D02*
X111220238Y-130704819D01*
X111220238Y-130704819D02*
X111315476Y-130752438D01*
X111315476Y-130752438D02*
X111363095Y-130800057D01*
X111363095Y-130800057D02*
X111410714Y-130895295D01*
X111410714Y-130895295D02*
X111410714Y-130990533D01*
X111410714Y-130990533D02*
X111363095Y-131133390D01*
X111363095Y-131133390D02*
X110791667Y-131704819D01*
X110791667Y-131704819D02*
X111410714Y-131704819D01*
X109608580Y-123923166D02*
X109656200Y-123970785D01*
X109656200Y-123970785D02*
X109703819Y-124113642D01*
X109703819Y-124113642D02*
X109703819Y-124208880D01*
X109703819Y-124208880D02*
X109656200Y-124351737D01*
X109656200Y-124351737D02*
X109560961Y-124446975D01*
X109560961Y-124446975D02*
X109465723Y-124494594D01*
X109465723Y-124494594D02*
X109275247Y-124542213D01*
X109275247Y-124542213D02*
X109132390Y-124542213D01*
X109132390Y-124542213D02*
X108941914Y-124494594D01*
X108941914Y-124494594D02*
X108846676Y-124446975D01*
X108846676Y-124446975D02*
X108751438Y-124351737D01*
X108751438Y-124351737D02*
X108703819Y-124208880D01*
X108703819Y-124208880D02*
X108703819Y-124113642D01*
X108703819Y-124113642D02*
X108751438Y-123970785D01*
X108751438Y-123970785D02*
X108799057Y-123923166D01*
X109703819Y-122970785D02*
X109703819Y-123542213D01*
X109703819Y-123256499D02*
X108703819Y-123256499D01*
X108703819Y-123256499D02*
X108846676Y-123351737D01*
X108846676Y-123351737D02*
X108941914Y-123446975D01*
X108941914Y-123446975D02*
X108989533Y-123542213D01*
X138106517Y-121364757D02*
X138154137Y-121412376D01*
X138154137Y-121412376D02*
X138201756Y-121555233D01*
X138201756Y-121555233D02*
X138201756Y-121650471D01*
X138201756Y-121650471D02*
X138154137Y-121793328D01*
X138154137Y-121793328D02*
X138058898Y-121888566D01*
X138058898Y-121888566D02*
X137963660Y-121936185D01*
X137963660Y-121936185D02*
X137773184Y-121983804D01*
X137773184Y-121983804D02*
X137630327Y-121983804D01*
X137630327Y-121983804D02*
X137439851Y-121936185D01*
X137439851Y-121936185D02*
X137344613Y-121888566D01*
X137344613Y-121888566D02*
X137249375Y-121793328D01*
X137249375Y-121793328D02*
X137201756Y-121650471D01*
X137201756Y-121650471D02*
X137201756Y-121555233D01*
X137201756Y-121555233D02*
X137249375Y-121412376D01*
X137249375Y-121412376D02*
X137296994Y-121364757D01*
X137630327Y-120793328D02*
X137582708Y-120888566D01*
X137582708Y-120888566D02*
X137535089Y-120936185D01*
X137535089Y-120936185D02*
X137439851Y-120983804D01*
X137439851Y-120983804D02*
X137392232Y-120983804D01*
X137392232Y-120983804D02*
X137296994Y-120936185D01*
X137296994Y-120936185D02*
X137249375Y-120888566D01*
X137249375Y-120888566D02*
X137201756Y-120793328D01*
X137201756Y-120793328D02*
X137201756Y-120602852D01*
X137201756Y-120602852D02*
X137249375Y-120507614D01*
X137249375Y-120507614D02*
X137296994Y-120459995D01*
X137296994Y-120459995D02*
X137392232Y-120412376D01*
X137392232Y-120412376D02*
X137439851Y-120412376D01*
X137439851Y-120412376D02*
X137535089Y-120459995D01*
X137535089Y-120459995D02*
X137582708Y-120507614D01*
X137582708Y-120507614D02*
X137630327Y-120602852D01*
X137630327Y-120602852D02*
X137630327Y-120793328D01*
X137630327Y-120793328D02*
X137677946Y-120888566D01*
X137677946Y-120888566D02*
X137725565Y-120936185D01*
X137725565Y-120936185D02*
X137820803Y-120983804D01*
X137820803Y-120983804D02*
X138011279Y-120983804D01*
X138011279Y-120983804D02*
X138106517Y-120936185D01*
X138106517Y-120936185D02*
X138154137Y-120888566D01*
X138154137Y-120888566D02*
X138201756Y-120793328D01*
X138201756Y-120793328D02*
X138201756Y-120602852D01*
X138201756Y-120602852D02*
X138154137Y-120507614D01*
X138154137Y-120507614D02*
X138106517Y-120459995D01*
X138106517Y-120459995D02*
X138011279Y-120412376D01*
X138011279Y-120412376D02*
X137820803Y-120412376D01*
X137820803Y-120412376D02*
X137725565Y-120459995D01*
X137725565Y-120459995D02*
X137677946Y-120507614D01*
X137677946Y-120507614D02*
X137630327Y-120602852D01*
X150537666Y-103488932D02*
X150204333Y-103488932D01*
X150204333Y-104012742D02*
X150204333Y-103012742D01*
X150204333Y-103012742D02*
X150680523Y-103012742D01*
X151013857Y-103107980D02*
X151061476Y-103060361D01*
X151061476Y-103060361D02*
X151156714Y-103012742D01*
X151156714Y-103012742D02*
X151394809Y-103012742D01*
X151394809Y-103012742D02*
X151490047Y-103060361D01*
X151490047Y-103060361D02*
X151537666Y-103107980D01*
X151537666Y-103107980D02*
X151585285Y-103203218D01*
X151585285Y-103203218D02*
X151585285Y-103298456D01*
X151585285Y-103298456D02*
X151537666Y-103441313D01*
X151537666Y-103441313D02*
X150966238Y-104012742D01*
X150966238Y-104012742D02*
X151585285Y-104012742D01*
X144344819Y-126456780D02*
X143868628Y-126790113D01*
X144344819Y-127028208D02*
X143344819Y-127028208D01*
X143344819Y-127028208D02*
X143344819Y-126647256D01*
X143344819Y-126647256D02*
X143392438Y-126552018D01*
X143392438Y-126552018D02*
X143440057Y-126504399D01*
X143440057Y-126504399D02*
X143535295Y-126456780D01*
X143535295Y-126456780D02*
X143678152Y-126456780D01*
X143678152Y-126456780D02*
X143773390Y-126504399D01*
X143773390Y-126504399D02*
X143821009Y-126552018D01*
X143821009Y-126552018D02*
X143868628Y-126647256D01*
X143868628Y-126647256D02*
X143868628Y-127028208D01*
X144344819Y-125504399D02*
X144344819Y-126075827D01*
X144344819Y-125790113D02*
X143344819Y-125790113D01*
X143344819Y-125790113D02*
X143487676Y-125885351D01*
X143487676Y-125885351D02*
X143582914Y-125980589D01*
X143582914Y-125980589D02*
X143630533Y-126075827D01*
X143344819Y-124885351D02*
X143344819Y-124790113D01*
X143344819Y-124790113D02*
X143392438Y-124694875D01*
X143392438Y-124694875D02*
X143440057Y-124647256D01*
X143440057Y-124647256D02*
X143535295Y-124599637D01*
X143535295Y-124599637D02*
X143725771Y-124552018D01*
X143725771Y-124552018D02*
X143963866Y-124552018D01*
X143963866Y-124552018D02*
X144154342Y-124599637D01*
X144154342Y-124599637D02*
X144249580Y-124647256D01*
X144249580Y-124647256D02*
X144297200Y-124694875D01*
X144297200Y-124694875D02*
X144344819Y-124790113D01*
X144344819Y-124790113D02*
X144344819Y-124885351D01*
X144344819Y-124885351D02*
X144297200Y-124980589D01*
X144297200Y-124980589D02*
X144249580Y-125028208D01*
X144249580Y-125028208D02*
X144154342Y-125075827D01*
X144154342Y-125075827D02*
X143963866Y-125123446D01*
X143963866Y-125123446D02*
X143725771Y-125123446D01*
X143725771Y-125123446D02*
X143535295Y-125075827D01*
X143535295Y-125075827D02*
X143440057Y-125028208D01*
X143440057Y-125028208D02*
X143392438Y-124980589D01*
X143392438Y-124980589D02*
X143344819Y-124885351D01*
X183750057Y-115990475D02*
X183702438Y-115942856D01*
X183702438Y-115942856D02*
X183654819Y-115847618D01*
X183654819Y-115847618D02*
X183654819Y-115609523D01*
X183654819Y-115609523D02*
X183702438Y-115514285D01*
X183702438Y-115514285D02*
X183750057Y-115466666D01*
X183750057Y-115466666D02*
X183845295Y-115419047D01*
X183845295Y-115419047D02*
X183940533Y-115419047D01*
X183940533Y-115419047D02*
X184083390Y-115466666D01*
X184083390Y-115466666D02*
X184654819Y-116038094D01*
X184654819Y-116038094D02*
X184654819Y-115419047D01*
X183988152Y-114561904D02*
X184654819Y-114561904D01*
X183607200Y-114799999D02*
X184321485Y-115038094D01*
X184321485Y-115038094D02*
X184321485Y-114419047D01*
X183654819Y-114180951D02*
X184654819Y-113847618D01*
X184654819Y-113847618D02*
X183654819Y-113514285D01*
X132339580Y-78244589D02*
X132387200Y-78292208D01*
X132387200Y-78292208D02*
X132434819Y-78435065D01*
X132434819Y-78435065D02*
X132434819Y-78530303D01*
X132434819Y-78530303D02*
X132387200Y-78673160D01*
X132387200Y-78673160D02*
X132291961Y-78768398D01*
X132291961Y-78768398D02*
X132196723Y-78816017D01*
X132196723Y-78816017D02*
X132006247Y-78863636D01*
X132006247Y-78863636D02*
X131863390Y-78863636D01*
X131863390Y-78863636D02*
X131672914Y-78816017D01*
X131672914Y-78816017D02*
X131577676Y-78768398D01*
X131577676Y-78768398D02*
X131482438Y-78673160D01*
X131482438Y-78673160D02*
X131434819Y-78530303D01*
X131434819Y-78530303D02*
X131434819Y-78435065D01*
X131434819Y-78435065D02*
X131482438Y-78292208D01*
X131482438Y-78292208D02*
X131530057Y-78244589D01*
X131434819Y-77911255D02*
X131434819Y-77292208D01*
X131434819Y-77292208D02*
X131815771Y-77625541D01*
X131815771Y-77625541D02*
X131815771Y-77482684D01*
X131815771Y-77482684D02*
X131863390Y-77387446D01*
X131863390Y-77387446D02*
X131911009Y-77339827D01*
X131911009Y-77339827D02*
X132006247Y-77292208D01*
X132006247Y-77292208D02*
X132244342Y-77292208D01*
X132244342Y-77292208D02*
X132339580Y-77339827D01*
X132339580Y-77339827D02*
X132387200Y-77387446D01*
X132387200Y-77387446D02*
X132434819Y-77482684D01*
X132434819Y-77482684D02*
X132434819Y-77768398D01*
X132434819Y-77768398D02*
X132387200Y-77863636D01*
X132387200Y-77863636D02*
X132339580Y-77911255D01*
X169592666Y-79028742D02*
X169592666Y-79743027D01*
X169592666Y-79743027D02*
X169545047Y-79885884D01*
X169545047Y-79885884D02*
X169449809Y-79981123D01*
X169449809Y-79981123D02*
X169306952Y-80028742D01*
X169306952Y-80028742D02*
X169211714Y-80028742D01*
X170497428Y-79028742D02*
X170306952Y-79028742D01*
X170306952Y-79028742D02*
X170211714Y-79076361D01*
X170211714Y-79076361D02*
X170164095Y-79123980D01*
X170164095Y-79123980D02*
X170068857Y-79266837D01*
X170068857Y-79266837D02*
X170021238Y-79457313D01*
X170021238Y-79457313D02*
X170021238Y-79838265D01*
X170021238Y-79838265D02*
X170068857Y-79933503D01*
X170068857Y-79933503D02*
X170116476Y-79981123D01*
X170116476Y-79981123D02*
X170211714Y-80028742D01*
X170211714Y-80028742D02*
X170402190Y-80028742D01*
X170402190Y-80028742D02*
X170497428Y-79981123D01*
X170497428Y-79981123D02*
X170545047Y-79933503D01*
X170545047Y-79933503D02*
X170592666Y-79838265D01*
X170592666Y-79838265D02*
X170592666Y-79600170D01*
X170592666Y-79600170D02*
X170545047Y-79504932D01*
X170545047Y-79504932D02*
X170497428Y-79457313D01*
X170497428Y-79457313D02*
X170402190Y-79409694D01*
X170402190Y-79409694D02*
X170211714Y-79409694D01*
X170211714Y-79409694D02*
X170116476Y-79457313D01*
X170116476Y-79457313D02*
X170068857Y-79504932D01*
X170068857Y-79504932D02*
X170021238Y-79600170D01*
X168917580Y-119868780D02*
X168965200Y-119916399D01*
X168965200Y-119916399D02*
X169012819Y-120059256D01*
X169012819Y-120059256D02*
X169012819Y-120154494D01*
X169012819Y-120154494D02*
X168965200Y-120297351D01*
X168965200Y-120297351D02*
X168869961Y-120392589D01*
X168869961Y-120392589D02*
X168774723Y-120440208D01*
X168774723Y-120440208D02*
X168584247Y-120487827D01*
X168584247Y-120487827D02*
X168441390Y-120487827D01*
X168441390Y-120487827D02*
X168250914Y-120440208D01*
X168250914Y-120440208D02*
X168155676Y-120392589D01*
X168155676Y-120392589D02*
X168060438Y-120297351D01*
X168060438Y-120297351D02*
X168012819Y-120154494D01*
X168012819Y-120154494D02*
X168012819Y-120059256D01*
X168012819Y-120059256D02*
X168060438Y-119916399D01*
X168060438Y-119916399D02*
X168108057Y-119868780D01*
X169012819Y-118916399D02*
X169012819Y-119487827D01*
X169012819Y-119202113D02*
X168012819Y-119202113D01*
X168012819Y-119202113D02*
X168155676Y-119297351D01*
X168155676Y-119297351D02*
X168250914Y-119392589D01*
X168250914Y-119392589D02*
X168298533Y-119487827D01*
X168012819Y-118583065D02*
X168012819Y-117964018D01*
X168012819Y-117964018D02*
X168393771Y-118297351D01*
X168393771Y-118297351D02*
X168393771Y-118154494D01*
X168393771Y-118154494D02*
X168441390Y-118059256D01*
X168441390Y-118059256D02*
X168489009Y-118011637D01*
X168489009Y-118011637D02*
X168584247Y-117964018D01*
X168584247Y-117964018D02*
X168822342Y-117964018D01*
X168822342Y-117964018D02*
X168917580Y-118011637D01*
X168917580Y-118011637D02*
X168965200Y-118059256D01*
X168965200Y-118059256D02*
X169012819Y-118154494D01*
X169012819Y-118154494D02*
X169012819Y-118440208D01*
X169012819Y-118440208D02*
X168965200Y-118535446D01*
X168965200Y-118535446D02*
X168917580Y-118583065D01*
X125104819Y-136766666D02*
X124628628Y-137099999D01*
X125104819Y-137338094D02*
X124104819Y-137338094D01*
X124104819Y-137338094D02*
X124104819Y-136957142D01*
X124104819Y-136957142D02*
X124152438Y-136861904D01*
X124152438Y-136861904D02*
X124200057Y-136814285D01*
X124200057Y-136814285D02*
X124295295Y-136766666D01*
X124295295Y-136766666D02*
X124438152Y-136766666D01*
X124438152Y-136766666D02*
X124533390Y-136814285D01*
X124533390Y-136814285D02*
X124581009Y-136861904D01*
X124581009Y-136861904D02*
X124628628Y-136957142D01*
X124628628Y-136957142D02*
X124628628Y-137338094D01*
X125104819Y-135814285D02*
X125104819Y-136385713D01*
X125104819Y-136099999D02*
X124104819Y-136099999D01*
X124104819Y-136099999D02*
X124247676Y-136195237D01*
X124247676Y-136195237D02*
X124342914Y-136290475D01*
X124342914Y-136290475D02*
X124390533Y-136385713D01*
X145166666Y-127554819D02*
X145166666Y-128269104D01*
X145166666Y-128269104D02*
X145119047Y-128411961D01*
X145119047Y-128411961D02*
X145023809Y-128507200D01*
X145023809Y-128507200D02*
X144880952Y-128554819D01*
X144880952Y-128554819D02*
X144785714Y-128554819D01*
X146166666Y-128554819D02*
X145595238Y-128554819D01*
X145880952Y-128554819D02*
X145880952Y-127554819D01*
X145880952Y-127554819D02*
X145785714Y-127697676D01*
X145785714Y-127697676D02*
X145690476Y-127792914D01*
X145690476Y-127792914D02*
X145595238Y-127840533D01*
X117254186Y-123366882D02*
X117254186Y-124176405D01*
X117254186Y-124176405D02*
X117301805Y-124271643D01*
X117301805Y-124271643D02*
X117349424Y-124319263D01*
X117349424Y-124319263D02*
X117444662Y-124366882D01*
X117444662Y-124366882D02*
X117635138Y-124366882D01*
X117635138Y-124366882D02*
X117730376Y-124319263D01*
X117730376Y-124319263D02*
X117777995Y-124271643D01*
X117777995Y-124271643D02*
X117825614Y-124176405D01*
X117825614Y-124176405D02*
X117825614Y-123366882D01*
X118254186Y-123462120D02*
X118301805Y-123414501D01*
X118301805Y-123414501D02*
X118397043Y-123366882D01*
X118397043Y-123366882D02*
X118635138Y-123366882D01*
X118635138Y-123366882D02*
X118730376Y-123414501D01*
X118730376Y-123414501D02*
X118777995Y-123462120D01*
X118777995Y-123462120D02*
X118825614Y-123557358D01*
X118825614Y-123557358D02*
X118825614Y-123652596D01*
X118825614Y-123652596D02*
X118777995Y-123795453D01*
X118777995Y-123795453D02*
X118206567Y-124366882D01*
X118206567Y-124366882D02*
X118825614Y-124366882D01*
X171791333Y-106600742D02*
X171458000Y-106124551D01*
X171219905Y-106600742D02*
X171219905Y-105600742D01*
X171219905Y-105600742D02*
X171600857Y-105600742D01*
X171600857Y-105600742D02*
X171696095Y-105648361D01*
X171696095Y-105648361D02*
X171743714Y-105695980D01*
X171743714Y-105695980D02*
X171791333Y-105791218D01*
X171791333Y-105791218D02*
X171791333Y-105934075D01*
X171791333Y-105934075D02*
X171743714Y-106029313D01*
X171743714Y-106029313D02*
X171696095Y-106076932D01*
X171696095Y-106076932D02*
X171600857Y-106124551D01*
X171600857Y-106124551D02*
X171219905Y-106124551D01*
X172124667Y-105600742D02*
X172791333Y-105600742D01*
X172791333Y-105600742D02*
X172362762Y-106600742D01*
X178704819Y-83266666D02*
X178228628Y-83599999D01*
X178704819Y-83838094D02*
X177704819Y-83838094D01*
X177704819Y-83838094D02*
X177704819Y-83457142D01*
X177704819Y-83457142D02*
X177752438Y-83361904D01*
X177752438Y-83361904D02*
X177800057Y-83314285D01*
X177800057Y-83314285D02*
X177895295Y-83266666D01*
X177895295Y-83266666D02*
X178038152Y-83266666D01*
X178038152Y-83266666D02*
X178133390Y-83314285D01*
X178133390Y-83314285D02*
X178181009Y-83361904D01*
X178181009Y-83361904D02*
X178228628Y-83457142D01*
X178228628Y-83457142D02*
X178228628Y-83838094D01*
X177704819Y-82409523D02*
X177704819Y-82599999D01*
X177704819Y-82599999D02*
X177752438Y-82695237D01*
X177752438Y-82695237D02*
X177800057Y-82742856D01*
X177800057Y-82742856D02*
X177942914Y-82838094D01*
X177942914Y-82838094D02*
X178133390Y-82885713D01*
X178133390Y-82885713D02*
X178514342Y-82885713D01*
X178514342Y-82885713D02*
X178609580Y-82838094D01*
X178609580Y-82838094D02*
X178657200Y-82790475D01*
X178657200Y-82790475D02*
X178704819Y-82695237D01*
X178704819Y-82695237D02*
X178704819Y-82504761D01*
X178704819Y-82504761D02*
X178657200Y-82409523D01*
X178657200Y-82409523D02*
X178609580Y-82361904D01*
X178609580Y-82361904D02*
X178514342Y-82314285D01*
X178514342Y-82314285D02*
X178276247Y-82314285D01*
X178276247Y-82314285D02*
X178181009Y-82361904D01*
X178181009Y-82361904D02*
X178133390Y-82409523D01*
X178133390Y-82409523D02*
X178085771Y-82504761D01*
X178085771Y-82504761D02*
X178085771Y-82695237D01*
X178085771Y-82695237D02*
X178133390Y-82790475D01*
X178133390Y-82790475D02*
X178181009Y-82838094D01*
X178181009Y-82838094D02*
X178276247Y-82885713D01*
X183754819Y-120390476D02*
X183754819Y-120866666D01*
X183754819Y-120866666D02*
X184231009Y-120914285D01*
X184231009Y-120914285D02*
X184183390Y-120866666D01*
X184183390Y-120866666D02*
X184135771Y-120771428D01*
X184135771Y-120771428D02*
X184135771Y-120533333D01*
X184135771Y-120533333D02*
X184183390Y-120438095D01*
X184183390Y-120438095D02*
X184231009Y-120390476D01*
X184231009Y-120390476D02*
X184326247Y-120342857D01*
X184326247Y-120342857D02*
X184564342Y-120342857D01*
X184564342Y-120342857D02*
X184659580Y-120390476D01*
X184659580Y-120390476D02*
X184707200Y-120438095D01*
X184707200Y-120438095D02*
X184754819Y-120533333D01*
X184754819Y-120533333D02*
X184754819Y-120771428D01*
X184754819Y-120771428D02*
X184707200Y-120866666D01*
X184707200Y-120866666D02*
X184659580Y-120914285D01*
X183754819Y-120057142D02*
X184754819Y-119723809D01*
X184754819Y-119723809D02*
X183754819Y-119390476D01*
X130145117Y-82714109D02*
X129335594Y-82714109D01*
X129335594Y-82714109D02*
X129240356Y-82761728D01*
X129240356Y-82761728D02*
X129192737Y-82809347D01*
X129192737Y-82809347D02*
X129145117Y-82904585D01*
X129145117Y-82904585D02*
X129145117Y-83095061D01*
X129145117Y-83095061D02*
X129192737Y-83190299D01*
X129192737Y-83190299D02*
X129240356Y-83237918D01*
X129240356Y-83237918D02*
X129335594Y-83285537D01*
X129335594Y-83285537D02*
X130145117Y-83285537D01*
X129145117Y-84285537D02*
X129145117Y-83714109D01*
X129145117Y-83999823D02*
X130145117Y-83999823D01*
X130145117Y-83999823D02*
X130002260Y-83904585D01*
X130002260Y-83904585D02*
X129907022Y-83809347D01*
X129907022Y-83809347D02*
X129859403Y-83714109D01*
X131459517Y-87642680D02*
X131507137Y-87690299D01*
X131507137Y-87690299D02*
X131554756Y-87833156D01*
X131554756Y-87833156D02*
X131554756Y-87928394D01*
X131554756Y-87928394D02*
X131507137Y-88071251D01*
X131507137Y-88071251D02*
X131411898Y-88166489D01*
X131411898Y-88166489D02*
X131316660Y-88214108D01*
X131316660Y-88214108D02*
X131126184Y-88261727D01*
X131126184Y-88261727D02*
X130983327Y-88261727D01*
X130983327Y-88261727D02*
X130792851Y-88214108D01*
X130792851Y-88214108D02*
X130697613Y-88166489D01*
X130697613Y-88166489D02*
X130602375Y-88071251D01*
X130602375Y-88071251D02*
X130554756Y-87928394D01*
X130554756Y-87928394D02*
X130554756Y-87833156D01*
X130554756Y-87833156D02*
X130602375Y-87690299D01*
X130602375Y-87690299D02*
X130649994Y-87642680D01*
X130554756Y-86785537D02*
X130554756Y-86976013D01*
X130554756Y-86976013D02*
X130602375Y-87071251D01*
X130602375Y-87071251D02*
X130649994Y-87118870D01*
X130649994Y-87118870D02*
X130792851Y-87214108D01*
X130792851Y-87214108D02*
X130983327Y-87261727D01*
X130983327Y-87261727D02*
X131364279Y-87261727D01*
X131364279Y-87261727D02*
X131459517Y-87214108D01*
X131459517Y-87214108D02*
X131507137Y-87166489D01*
X131507137Y-87166489D02*
X131554756Y-87071251D01*
X131554756Y-87071251D02*
X131554756Y-86880775D01*
X131554756Y-86880775D02*
X131507137Y-86785537D01*
X131507137Y-86785537D02*
X131459517Y-86737918D01*
X131459517Y-86737918D02*
X131364279Y-86690299D01*
X131364279Y-86690299D02*
X131126184Y-86690299D01*
X131126184Y-86690299D02*
X131030946Y-86737918D01*
X131030946Y-86737918D02*
X130983327Y-86785537D01*
X130983327Y-86785537D02*
X130935708Y-86880775D01*
X130935708Y-86880775D02*
X130935708Y-87071251D01*
X130935708Y-87071251D02*
X130983327Y-87166489D01*
X130983327Y-87166489D02*
X131030946Y-87214108D01*
X131030946Y-87214108D02*
X131126184Y-87261727D01*
X126454819Y-125366666D02*
X125978628Y-125699999D01*
X126454819Y-125938094D02*
X125454819Y-125938094D01*
X125454819Y-125938094D02*
X125454819Y-125557142D01*
X125454819Y-125557142D02*
X125502438Y-125461904D01*
X125502438Y-125461904D02*
X125550057Y-125414285D01*
X125550057Y-125414285D02*
X125645295Y-125366666D01*
X125645295Y-125366666D02*
X125788152Y-125366666D01*
X125788152Y-125366666D02*
X125883390Y-125414285D01*
X125883390Y-125414285D02*
X125931009Y-125461904D01*
X125931009Y-125461904D02*
X125978628Y-125557142D01*
X125978628Y-125557142D02*
X125978628Y-125938094D01*
X125550057Y-124985713D02*
X125502438Y-124938094D01*
X125502438Y-124938094D02*
X125454819Y-124842856D01*
X125454819Y-124842856D02*
X125454819Y-124604761D01*
X125454819Y-124604761D02*
X125502438Y-124509523D01*
X125502438Y-124509523D02*
X125550057Y-124461904D01*
X125550057Y-124461904D02*
X125645295Y-124414285D01*
X125645295Y-124414285D02*
X125740533Y-124414285D01*
X125740533Y-124414285D02*
X125883390Y-124461904D01*
X125883390Y-124461904D02*
X126454819Y-125033332D01*
X126454819Y-125033332D02*
X126454819Y-124414285D01*
X132106517Y-122340948D02*
X132154137Y-122388567D01*
X132154137Y-122388567D02*
X132201756Y-122531424D01*
X132201756Y-122531424D02*
X132201756Y-122626662D01*
X132201756Y-122626662D02*
X132154137Y-122769519D01*
X132154137Y-122769519D02*
X132058898Y-122864757D01*
X132058898Y-122864757D02*
X131963660Y-122912376D01*
X131963660Y-122912376D02*
X131773184Y-122959995D01*
X131773184Y-122959995D02*
X131630327Y-122959995D01*
X131630327Y-122959995D02*
X131439851Y-122912376D01*
X131439851Y-122912376D02*
X131344613Y-122864757D01*
X131344613Y-122864757D02*
X131249375Y-122769519D01*
X131249375Y-122769519D02*
X131201756Y-122626662D01*
X131201756Y-122626662D02*
X131201756Y-122531424D01*
X131201756Y-122531424D02*
X131249375Y-122388567D01*
X131249375Y-122388567D02*
X131296994Y-122340948D01*
X132201756Y-121388567D02*
X132201756Y-121959995D01*
X132201756Y-121674281D02*
X131201756Y-121674281D01*
X131201756Y-121674281D02*
X131344613Y-121769519D01*
X131344613Y-121769519D02*
X131439851Y-121864757D01*
X131439851Y-121864757D02*
X131487470Y-121959995D01*
X131201756Y-120769519D02*
X131201756Y-120674281D01*
X131201756Y-120674281D02*
X131249375Y-120579043D01*
X131249375Y-120579043D02*
X131296994Y-120531424D01*
X131296994Y-120531424D02*
X131392232Y-120483805D01*
X131392232Y-120483805D02*
X131582708Y-120436186D01*
X131582708Y-120436186D02*
X131820803Y-120436186D01*
X131820803Y-120436186D02*
X132011279Y-120483805D01*
X132011279Y-120483805D02*
X132106517Y-120531424D01*
X132106517Y-120531424D02*
X132154137Y-120579043D01*
X132154137Y-120579043D02*
X132201756Y-120674281D01*
X132201756Y-120674281D02*
X132201756Y-120769519D01*
X132201756Y-120769519D02*
X132154137Y-120864757D01*
X132154137Y-120864757D02*
X132106517Y-120912376D01*
X132106517Y-120912376D02*
X132011279Y-120959995D01*
X132011279Y-120959995D02*
X131820803Y-121007614D01*
X131820803Y-121007614D02*
X131582708Y-121007614D01*
X131582708Y-121007614D02*
X131392232Y-120959995D01*
X131392232Y-120959995D02*
X131296994Y-120912376D01*
X131296994Y-120912376D02*
X131249375Y-120864757D01*
X131249375Y-120864757D02*
X131201756Y-120769519D01*
X174279580Y-89505357D02*
X174327200Y-89552976D01*
X174327200Y-89552976D02*
X174374819Y-89695833D01*
X174374819Y-89695833D02*
X174374819Y-89791071D01*
X174374819Y-89791071D02*
X174327200Y-89933928D01*
X174327200Y-89933928D02*
X174231961Y-90029166D01*
X174231961Y-90029166D02*
X174136723Y-90076785D01*
X174136723Y-90076785D02*
X173946247Y-90124404D01*
X173946247Y-90124404D02*
X173803390Y-90124404D01*
X173803390Y-90124404D02*
X173612914Y-90076785D01*
X173612914Y-90076785D02*
X173517676Y-90029166D01*
X173517676Y-90029166D02*
X173422438Y-89933928D01*
X173422438Y-89933928D02*
X173374819Y-89791071D01*
X173374819Y-89791071D02*
X173374819Y-89695833D01*
X173374819Y-89695833D02*
X173422438Y-89552976D01*
X173422438Y-89552976D02*
X173470057Y-89505357D01*
X174374819Y-88552976D02*
X174374819Y-89124404D01*
X174374819Y-88838690D02*
X173374819Y-88838690D01*
X173374819Y-88838690D02*
X173517676Y-88933928D01*
X173517676Y-88933928D02*
X173612914Y-89029166D01*
X173612914Y-89029166D02*
X173660533Y-89124404D01*
X174374819Y-87600595D02*
X174374819Y-88172023D01*
X174374819Y-87886309D02*
X173374819Y-87886309D01*
X173374819Y-87886309D02*
X173517676Y-87981547D01*
X173517676Y-87981547D02*
X173612914Y-88076785D01*
X173612914Y-88076785D02*
X173660533Y-88172023D01*
X173854819Y-117638094D02*
X172854819Y-117638094D01*
X172854819Y-117638094D02*
X172854819Y-117399999D01*
X172854819Y-117399999D02*
X172902438Y-117257142D01*
X172902438Y-117257142D02*
X172997676Y-117161904D01*
X172997676Y-117161904D02*
X173092914Y-117114285D01*
X173092914Y-117114285D02*
X173283390Y-117066666D01*
X173283390Y-117066666D02*
X173426247Y-117066666D01*
X173426247Y-117066666D02*
X173616723Y-117114285D01*
X173616723Y-117114285D02*
X173711961Y-117161904D01*
X173711961Y-117161904D02*
X173807200Y-117257142D01*
X173807200Y-117257142D02*
X173854819Y-117399999D01*
X173854819Y-117399999D02*
X173854819Y-117638094D01*
X172854819Y-116733332D02*
X172854819Y-116114285D01*
X172854819Y-116114285D02*
X173235771Y-116447618D01*
X173235771Y-116447618D02*
X173235771Y-116304761D01*
X173235771Y-116304761D02*
X173283390Y-116209523D01*
X173283390Y-116209523D02*
X173331009Y-116161904D01*
X173331009Y-116161904D02*
X173426247Y-116114285D01*
X173426247Y-116114285D02*
X173664342Y-116114285D01*
X173664342Y-116114285D02*
X173759580Y-116161904D01*
X173759580Y-116161904D02*
X173807200Y-116209523D01*
X173807200Y-116209523D02*
X173854819Y-116304761D01*
X173854819Y-116304761D02*
X173854819Y-116590475D01*
X173854819Y-116590475D02*
X173807200Y-116685713D01*
X173807200Y-116685713D02*
X173759580Y-116733332D01*
X157741580Y-121138780D02*
X157789200Y-121186399D01*
X157789200Y-121186399D02*
X157836819Y-121329256D01*
X157836819Y-121329256D02*
X157836819Y-121424494D01*
X157836819Y-121424494D02*
X157789200Y-121567351D01*
X157789200Y-121567351D02*
X157693961Y-121662589D01*
X157693961Y-121662589D02*
X157598723Y-121710208D01*
X157598723Y-121710208D02*
X157408247Y-121757827D01*
X157408247Y-121757827D02*
X157265390Y-121757827D01*
X157265390Y-121757827D02*
X157074914Y-121710208D01*
X157074914Y-121710208D02*
X156979676Y-121662589D01*
X156979676Y-121662589D02*
X156884438Y-121567351D01*
X156884438Y-121567351D02*
X156836819Y-121424494D01*
X156836819Y-121424494D02*
X156836819Y-121329256D01*
X156836819Y-121329256D02*
X156884438Y-121186399D01*
X156884438Y-121186399D02*
X156932057Y-121138780D01*
X157836819Y-120186399D02*
X157836819Y-120757827D01*
X157836819Y-120472113D02*
X156836819Y-120472113D01*
X156836819Y-120472113D02*
X156979676Y-120567351D01*
X156979676Y-120567351D02*
X157074914Y-120662589D01*
X157074914Y-120662589D02*
X157122533Y-120757827D01*
X156932057Y-119805446D02*
X156884438Y-119757827D01*
X156884438Y-119757827D02*
X156836819Y-119662589D01*
X156836819Y-119662589D02*
X156836819Y-119424494D01*
X156836819Y-119424494D02*
X156884438Y-119329256D01*
X156884438Y-119329256D02*
X156932057Y-119281637D01*
X156932057Y-119281637D02*
X157027295Y-119234018D01*
X157027295Y-119234018D02*
X157122533Y-119234018D01*
X157122533Y-119234018D02*
X157265390Y-119281637D01*
X157265390Y-119281637D02*
X157836819Y-119853065D01*
X157836819Y-119853065D02*
X157836819Y-119234018D01*
X166036666Y-127598742D02*
X166036666Y-128313027D01*
X166036666Y-128313027D02*
X165989047Y-128455884D01*
X165989047Y-128455884D02*
X165893809Y-128551123D01*
X165893809Y-128551123D02*
X165750952Y-128598742D01*
X165750952Y-128598742D02*
X165655714Y-128598742D01*
X166465238Y-127693980D02*
X166512857Y-127646361D01*
X166512857Y-127646361D02*
X166608095Y-127598742D01*
X166608095Y-127598742D02*
X166846190Y-127598742D01*
X166846190Y-127598742D02*
X166941428Y-127646361D01*
X166941428Y-127646361D02*
X166989047Y-127693980D01*
X166989047Y-127693980D02*
X167036666Y-127789218D01*
X167036666Y-127789218D02*
X167036666Y-127884456D01*
X167036666Y-127884456D02*
X166989047Y-128027313D01*
X166989047Y-128027313D02*
X166417619Y-128598742D01*
X166417619Y-128598742D02*
X167036666Y-128598742D01*
X150068019Y-126558513D02*
X150068019Y-125987085D01*
X151068019Y-126272799D02*
X150068019Y-126272799D01*
X151068019Y-125653751D02*
X150068019Y-125653751D01*
X150544209Y-125653751D02*
X150544209Y-125082323D01*
X151068019Y-125082323D02*
X150068019Y-125082323D01*
X151068019Y-124082323D02*
X151068019Y-124653751D01*
X151068019Y-124368037D02*
X150068019Y-124368037D01*
X150068019Y-124368037D02*
X150210876Y-124463275D01*
X150210876Y-124463275D02*
X150306114Y-124558513D01*
X150306114Y-124558513D02*
X150353733Y-124653751D01*
X171633333Y-93404819D02*
X171300000Y-92928628D01*
X171061905Y-93404819D02*
X171061905Y-92404819D01*
X171061905Y-92404819D02*
X171442857Y-92404819D01*
X171442857Y-92404819D02*
X171538095Y-92452438D01*
X171538095Y-92452438D02*
X171585714Y-92500057D01*
X171585714Y-92500057D02*
X171633333Y-92595295D01*
X171633333Y-92595295D02*
X171633333Y-92738152D01*
X171633333Y-92738152D02*
X171585714Y-92833390D01*
X171585714Y-92833390D02*
X171538095Y-92881009D01*
X171538095Y-92881009D02*
X171442857Y-92928628D01*
X171442857Y-92928628D02*
X171061905Y-92928628D01*
X172538095Y-92404819D02*
X172061905Y-92404819D01*
X172061905Y-92404819D02*
X172014286Y-92881009D01*
X172014286Y-92881009D02*
X172061905Y-92833390D01*
X172061905Y-92833390D02*
X172157143Y-92785771D01*
X172157143Y-92785771D02*
X172395238Y-92785771D01*
X172395238Y-92785771D02*
X172490476Y-92833390D01*
X172490476Y-92833390D02*
X172538095Y-92881009D01*
X172538095Y-92881009D02*
X172585714Y-92976247D01*
X172585714Y-92976247D02*
X172585714Y-93214342D01*
X172585714Y-93214342D02*
X172538095Y-93309580D01*
X172538095Y-93309580D02*
X172490476Y-93357200D01*
X172490476Y-93357200D02*
X172395238Y-93404819D01*
X172395238Y-93404819D02*
X172157143Y-93404819D01*
X172157143Y-93404819D02*
X172061905Y-93357200D01*
X172061905Y-93357200D02*
X172014286Y-93309580D01*
X137904819Y-126142857D02*
X137428628Y-126476190D01*
X137904819Y-126714285D02*
X136904819Y-126714285D01*
X136904819Y-126714285D02*
X136904819Y-126333333D01*
X136904819Y-126333333D02*
X136952438Y-126238095D01*
X136952438Y-126238095D02*
X137000057Y-126190476D01*
X137000057Y-126190476D02*
X137095295Y-126142857D01*
X137095295Y-126142857D02*
X137238152Y-126142857D01*
X137238152Y-126142857D02*
X137333390Y-126190476D01*
X137333390Y-126190476D02*
X137381009Y-126238095D01*
X137381009Y-126238095D02*
X137428628Y-126333333D01*
X137428628Y-126333333D02*
X137428628Y-126714285D01*
X137904819Y-125190476D02*
X137904819Y-125761904D01*
X137904819Y-125476190D02*
X136904819Y-125476190D01*
X136904819Y-125476190D02*
X137047676Y-125571428D01*
X137047676Y-125571428D02*
X137142914Y-125666666D01*
X137142914Y-125666666D02*
X137190533Y-125761904D01*
X137904819Y-124238095D02*
X137904819Y-124809523D01*
X137904819Y-124523809D02*
X136904819Y-124523809D01*
X136904819Y-124523809D02*
X137047676Y-124619047D01*
X137047676Y-124619047D02*
X137142914Y-124714285D01*
X137142914Y-124714285D02*
X137190533Y-124809523D01*
X184328266Y-128152228D02*
X184328266Y-127390324D01*
X184709219Y-127771276D02*
X183947314Y-127771276D01*
X184185409Y-126580800D02*
X184233028Y-126437943D01*
X184233028Y-126437943D02*
X184280647Y-126390324D01*
X184280647Y-126390324D02*
X184375885Y-126342705D01*
X184375885Y-126342705D02*
X184518742Y-126342705D01*
X184518742Y-126342705D02*
X184613980Y-126390324D01*
X184613980Y-126390324D02*
X184661600Y-126437943D01*
X184661600Y-126437943D02*
X184709219Y-126533181D01*
X184709219Y-126533181D02*
X184709219Y-126914133D01*
X184709219Y-126914133D02*
X183709219Y-126914133D01*
X183709219Y-126914133D02*
X183709219Y-126580800D01*
X183709219Y-126580800D02*
X183756838Y-126485562D01*
X183756838Y-126485562D02*
X183804457Y-126437943D01*
X183804457Y-126437943D02*
X183899695Y-126390324D01*
X183899695Y-126390324D02*
X183994933Y-126390324D01*
X183994933Y-126390324D02*
X184090171Y-126437943D01*
X184090171Y-126437943D02*
X184137790Y-126485562D01*
X184137790Y-126485562D02*
X184185409Y-126580800D01*
X184185409Y-126580800D02*
X184185409Y-126914133D01*
X184423504Y-125961752D02*
X184423504Y-125485562D01*
X184709219Y-126056990D02*
X183709219Y-125723657D01*
X183709219Y-125723657D02*
X184709219Y-125390324D01*
X183709219Y-125199847D02*
X183709219Y-124628419D01*
X184709219Y-124914133D02*
X183709219Y-124914133D01*
X183709219Y-124437942D02*
X183709219Y-123866514D01*
X184709219Y-124152228D02*
X183709219Y-124152228D01*
X174354819Y-119966666D02*
X173878628Y-120299999D01*
X174354819Y-120538094D02*
X173354819Y-120538094D01*
X173354819Y-120538094D02*
X173354819Y-120157142D01*
X173354819Y-120157142D02*
X173402438Y-120061904D01*
X173402438Y-120061904D02*
X173450057Y-120014285D01*
X173450057Y-120014285D02*
X173545295Y-119966666D01*
X173545295Y-119966666D02*
X173688152Y-119966666D01*
X173688152Y-119966666D02*
X173783390Y-120014285D01*
X173783390Y-120014285D02*
X173831009Y-120061904D01*
X173831009Y-120061904D02*
X173878628Y-120157142D01*
X173878628Y-120157142D02*
X173878628Y-120538094D01*
X173783390Y-119395237D02*
X173735771Y-119490475D01*
X173735771Y-119490475D02*
X173688152Y-119538094D01*
X173688152Y-119538094D02*
X173592914Y-119585713D01*
X173592914Y-119585713D02*
X173545295Y-119585713D01*
X173545295Y-119585713D02*
X173450057Y-119538094D01*
X173450057Y-119538094D02*
X173402438Y-119490475D01*
X173402438Y-119490475D02*
X173354819Y-119395237D01*
X173354819Y-119395237D02*
X173354819Y-119204761D01*
X173354819Y-119204761D02*
X173402438Y-119109523D01*
X173402438Y-119109523D02*
X173450057Y-119061904D01*
X173450057Y-119061904D02*
X173545295Y-119014285D01*
X173545295Y-119014285D02*
X173592914Y-119014285D01*
X173592914Y-119014285D02*
X173688152Y-119061904D01*
X173688152Y-119061904D02*
X173735771Y-119109523D01*
X173735771Y-119109523D02*
X173783390Y-119204761D01*
X173783390Y-119204761D02*
X173783390Y-119395237D01*
X173783390Y-119395237D02*
X173831009Y-119490475D01*
X173831009Y-119490475D02*
X173878628Y-119538094D01*
X173878628Y-119538094D02*
X173973866Y-119585713D01*
X173973866Y-119585713D02*
X174164342Y-119585713D01*
X174164342Y-119585713D02*
X174259580Y-119538094D01*
X174259580Y-119538094D02*
X174307200Y-119490475D01*
X174307200Y-119490475D02*
X174354819Y-119395237D01*
X174354819Y-119395237D02*
X174354819Y-119204761D01*
X174354819Y-119204761D02*
X174307200Y-119109523D01*
X174307200Y-119109523D02*
X174259580Y-119061904D01*
X174259580Y-119061904D02*
X174164342Y-119014285D01*
X174164342Y-119014285D02*
X173973866Y-119014285D01*
X173973866Y-119014285D02*
X173878628Y-119061904D01*
X173878628Y-119061904D02*
X173831009Y-119109523D01*
X173831009Y-119109523D02*
X173783390Y-119204761D01*
X121709580Y-134666666D02*
X121757200Y-134714285D01*
X121757200Y-134714285D02*
X121804819Y-134857142D01*
X121804819Y-134857142D02*
X121804819Y-134952380D01*
X121804819Y-134952380D02*
X121757200Y-135095237D01*
X121757200Y-135095237D02*
X121661961Y-135190475D01*
X121661961Y-135190475D02*
X121566723Y-135238094D01*
X121566723Y-135238094D02*
X121376247Y-135285713D01*
X121376247Y-135285713D02*
X121233390Y-135285713D01*
X121233390Y-135285713D02*
X121042914Y-135238094D01*
X121042914Y-135238094D02*
X120947676Y-135190475D01*
X120947676Y-135190475D02*
X120852438Y-135095237D01*
X120852438Y-135095237D02*
X120804819Y-134952380D01*
X120804819Y-134952380D02*
X120804819Y-134857142D01*
X120804819Y-134857142D02*
X120852438Y-134714285D01*
X120852438Y-134714285D02*
X120900057Y-134666666D01*
X120804819Y-133761904D02*
X120804819Y-134238094D01*
X120804819Y-134238094D02*
X121281009Y-134285713D01*
X121281009Y-134285713D02*
X121233390Y-134238094D01*
X121233390Y-134238094D02*
X121185771Y-134142856D01*
X121185771Y-134142856D02*
X121185771Y-133904761D01*
X121185771Y-133904761D02*
X121233390Y-133809523D01*
X121233390Y-133809523D02*
X121281009Y-133761904D01*
X121281009Y-133761904D02*
X121376247Y-133714285D01*
X121376247Y-133714285D02*
X121614342Y-133714285D01*
X121614342Y-133714285D02*
X121709580Y-133761904D01*
X121709580Y-133761904D02*
X121757200Y-133809523D01*
X121757200Y-133809523D02*
X121804819Y-133904761D01*
X121804819Y-133904761D02*
X121804819Y-134142856D01*
X121804819Y-134142856D02*
X121757200Y-134238094D01*
X121757200Y-134238094D02*
X121709580Y-134285713D01*
X155622666Y-79028742D02*
X155622666Y-79743027D01*
X155622666Y-79743027D02*
X155575047Y-79885884D01*
X155575047Y-79885884D02*
X155479809Y-79981123D01*
X155479809Y-79981123D02*
X155336952Y-80028742D01*
X155336952Y-80028742D02*
X155241714Y-80028742D01*
X156003619Y-79028742D02*
X156622666Y-79028742D01*
X156622666Y-79028742D02*
X156289333Y-79409694D01*
X156289333Y-79409694D02*
X156432190Y-79409694D01*
X156432190Y-79409694D02*
X156527428Y-79457313D01*
X156527428Y-79457313D02*
X156575047Y-79504932D01*
X156575047Y-79504932D02*
X156622666Y-79600170D01*
X156622666Y-79600170D02*
X156622666Y-79838265D01*
X156622666Y-79838265D02*
X156575047Y-79933503D01*
X156575047Y-79933503D02*
X156527428Y-79981123D01*
X156527428Y-79981123D02*
X156432190Y-80028742D01*
X156432190Y-80028742D02*
X156146476Y-80028742D01*
X156146476Y-80028742D02*
X156051238Y-79981123D01*
X156051238Y-79981123D02*
X156003619Y-79933503D01*
X135106517Y-121364757D02*
X135154137Y-121412376D01*
X135154137Y-121412376D02*
X135201756Y-121555233D01*
X135201756Y-121555233D02*
X135201756Y-121650471D01*
X135201756Y-121650471D02*
X135154137Y-121793328D01*
X135154137Y-121793328D02*
X135058898Y-121888566D01*
X135058898Y-121888566D02*
X134963660Y-121936185D01*
X134963660Y-121936185D02*
X134773184Y-121983804D01*
X134773184Y-121983804D02*
X134630327Y-121983804D01*
X134630327Y-121983804D02*
X134439851Y-121936185D01*
X134439851Y-121936185D02*
X134344613Y-121888566D01*
X134344613Y-121888566D02*
X134249375Y-121793328D01*
X134249375Y-121793328D02*
X134201756Y-121650471D01*
X134201756Y-121650471D02*
X134201756Y-121555233D01*
X134201756Y-121555233D02*
X134249375Y-121412376D01*
X134249375Y-121412376D02*
X134296994Y-121364757D01*
X135201756Y-120888566D02*
X135201756Y-120698090D01*
X135201756Y-120698090D02*
X135154137Y-120602852D01*
X135154137Y-120602852D02*
X135106517Y-120555233D01*
X135106517Y-120555233D02*
X134963660Y-120459995D01*
X134963660Y-120459995D02*
X134773184Y-120412376D01*
X134773184Y-120412376D02*
X134392232Y-120412376D01*
X134392232Y-120412376D02*
X134296994Y-120459995D01*
X134296994Y-120459995D02*
X134249375Y-120507614D01*
X134249375Y-120507614D02*
X134201756Y-120602852D01*
X134201756Y-120602852D02*
X134201756Y-120793328D01*
X134201756Y-120793328D02*
X134249375Y-120888566D01*
X134249375Y-120888566D02*
X134296994Y-120936185D01*
X134296994Y-120936185D02*
X134392232Y-120983804D01*
X134392232Y-120983804D02*
X134630327Y-120983804D01*
X134630327Y-120983804D02*
X134725565Y-120936185D01*
X134725565Y-120936185D02*
X134773184Y-120888566D01*
X134773184Y-120888566D02*
X134820803Y-120793328D01*
X134820803Y-120793328D02*
X134820803Y-120602852D01*
X134820803Y-120602852D02*
X134773184Y-120507614D01*
X134773184Y-120507614D02*
X134725565Y-120459995D01*
X134725565Y-120459995D02*
X134630327Y-120412376D01*
X126061905Y-111554819D02*
X126061905Y-110554819D01*
X126061905Y-110554819D02*
X126300000Y-110554819D01*
X126300000Y-110554819D02*
X126442857Y-110602438D01*
X126442857Y-110602438D02*
X126538095Y-110697676D01*
X126538095Y-110697676D02*
X126585714Y-110792914D01*
X126585714Y-110792914D02*
X126633333Y-110983390D01*
X126633333Y-110983390D02*
X126633333Y-111126247D01*
X126633333Y-111126247D02*
X126585714Y-111316723D01*
X126585714Y-111316723D02*
X126538095Y-111411961D01*
X126538095Y-111411961D02*
X126442857Y-111507200D01*
X126442857Y-111507200D02*
X126300000Y-111554819D01*
X126300000Y-111554819D02*
X126061905Y-111554819D01*
X127585714Y-111554819D02*
X127014286Y-111554819D01*
X127300000Y-111554819D02*
X127300000Y-110554819D01*
X127300000Y-110554819D02*
X127204762Y-110697676D01*
X127204762Y-110697676D02*
X127109524Y-110792914D01*
X127109524Y-110792914D02*
X127014286Y-110840533D01*
X130333333Y-124504819D02*
X130000000Y-124028628D01*
X129761905Y-124504819D02*
X129761905Y-123504819D01*
X129761905Y-123504819D02*
X130142857Y-123504819D01*
X130142857Y-123504819D02*
X130238095Y-123552438D01*
X130238095Y-123552438D02*
X130285714Y-123600057D01*
X130285714Y-123600057D02*
X130333333Y-123695295D01*
X130333333Y-123695295D02*
X130333333Y-123838152D01*
X130333333Y-123838152D02*
X130285714Y-123933390D01*
X130285714Y-123933390D02*
X130238095Y-123981009D01*
X130238095Y-123981009D02*
X130142857Y-124028628D01*
X130142857Y-124028628D02*
X129761905Y-124028628D01*
X131190476Y-123838152D02*
X131190476Y-124504819D01*
X130952381Y-123457200D02*
X130714286Y-124171485D01*
X130714286Y-124171485D02*
X131333333Y-124171485D01*
X132857142Y-135004819D02*
X132523809Y-134528628D01*
X132285714Y-135004819D02*
X132285714Y-134004819D01*
X132285714Y-134004819D02*
X132666666Y-134004819D01*
X132666666Y-134004819D02*
X132761904Y-134052438D01*
X132761904Y-134052438D02*
X132809523Y-134100057D01*
X132809523Y-134100057D02*
X132857142Y-134195295D01*
X132857142Y-134195295D02*
X132857142Y-134338152D01*
X132857142Y-134338152D02*
X132809523Y-134433390D01*
X132809523Y-134433390D02*
X132761904Y-134481009D01*
X132761904Y-134481009D02*
X132666666Y-134528628D01*
X132666666Y-134528628D02*
X132285714Y-134528628D01*
X133809523Y-135004819D02*
X133238095Y-135004819D01*
X133523809Y-135004819D02*
X133523809Y-134004819D01*
X133523809Y-134004819D02*
X133428571Y-134147676D01*
X133428571Y-134147676D02*
X133333333Y-134242914D01*
X133333333Y-134242914D02*
X133238095Y-134290533D01*
X134190476Y-134100057D02*
X134238095Y-134052438D01*
X134238095Y-134052438D02*
X134333333Y-134004819D01*
X134333333Y-134004819D02*
X134571428Y-134004819D01*
X134571428Y-134004819D02*
X134666666Y-134052438D01*
X134666666Y-134052438D02*
X134714285Y-134100057D01*
X134714285Y-134100057D02*
X134761904Y-134195295D01*
X134761904Y-134195295D02*
X134761904Y-134290533D01*
X134761904Y-134290533D02*
X134714285Y-134433390D01*
X134714285Y-134433390D02*
X134142857Y-135004819D01*
X134142857Y-135004819D02*
X134761904Y-135004819D01*
X150283666Y-88502932D02*
X149950333Y-88502932D01*
X149950333Y-89026742D02*
X149950333Y-88026742D01*
X149950333Y-88026742D02*
X150426523Y-88026742D01*
X151331285Y-89026742D02*
X150759857Y-89026742D01*
X151045571Y-89026742D02*
X151045571Y-88026742D01*
X151045571Y-88026742D02*
X150950333Y-88169599D01*
X150950333Y-88169599D02*
X150855095Y-88264837D01*
X150855095Y-88264837D02*
X150759857Y-88312456D01*
X125059580Y-132666666D02*
X125107200Y-132714285D01*
X125107200Y-132714285D02*
X125154819Y-132857142D01*
X125154819Y-132857142D02*
X125154819Y-132952380D01*
X125154819Y-132952380D02*
X125107200Y-133095237D01*
X125107200Y-133095237D02*
X125011961Y-133190475D01*
X125011961Y-133190475D02*
X124916723Y-133238094D01*
X124916723Y-133238094D02*
X124726247Y-133285713D01*
X124726247Y-133285713D02*
X124583390Y-133285713D01*
X124583390Y-133285713D02*
X124392914Y-133238094D01*
X124392914Y-133238094D02*
X124297676Y-133190475D01*
X124297676Y-133190475D02*
X124202438Y-133095237D01*
X124202438Y-133095237D02*
X124154819Y-132952380D01*
X124154819Y-132952380D02*
X124154819Y-132857142D01*
X124154819Y-132857142D02*
X124202438Y-132714285D01*
X124202438Y-132714285D02*
X124250057Y-132666666D01*
X124488152Y-131809523D02*
X125154819Y-131809523D01*
X124107200Y-132047618D02*
X124821485Y-132285713D01*
X124821485Y-132285713D02*
X124821485Y-131666666D01*
X141106517Y-121364757D02*
X141154137Y-121412376D01*
X141154137Y-121412376D02*
X141201756Y-121555233D01*
X141201756Y-121555233D02*
X141201756Y-121650471D01*
X141201756Y-121650471D02*
X141154137Y-121793328D01*
X141154137Y-121793328D02*
X141058898Y-121888566D01*
X141058898Y-121888566D02*
X140963660Y-121936185D01*
X140963660Y-121936185D02*
X140773184Y-121983804D01*
X140773184Y-121983804D02*
X140630327Y-121983804D01*
X140630327Y-121983804D02*
X140439851Y-121936185D01*
X140439851Y-121936185D02*
X140344613Y-121888566D01*
X140344613Y-121888566D02*
X140249375Y-121793328D01*
X140249375Y-121793328D02*
X140201756Y-121650471D01*
X140201756Y-121650471D02*
X140201756Y-121555233D01*
X140201756Y-121555233D02*
X140249375Y-121412376D01*
X140249375Y-121412376D02*
X140296994Y-121364757D01*
X140201756Y-121031423D02*
X140201756Y-120364757D01*
X140201756Y-120364757D02*
X141201756Y-120793328D01*
X178484819Y-87321671D02*
X177484819Y-87321671D01*
X177484819Y-87321671D02*
X177484819Y-87083576D01*
X177484819Y-87083576D02*
X177532438Y-86940719D01*
X177532438Y-86940719D02*
X177627676Y-86845481D01*
X177627676Y-86845481D02*
X177722914Y-86797862D01*
X177722914Y-86797862D02*
X177913390Y-86750243D01*
X177913390Y-86750243D02*
X178056247Y-86750243D01*
X178056247Y-86750243D02*
X178246723Y-86797862D01*
X178246723Y-86797862D02*
X178341961Y-86845481D01*
X178341961Y-86845481D02*
X178437200Y-86940719D01*
X178437200Y-86940719D02*
X178484819Y-87083576D01*
X178484819Y-87083576D02*
X178484819Y-87321671D01*
X177580057Y-86369290D02*
X177532438Y-86321671D01*
X177532438Y-86321671D02*
X177484819Y-86226433D01*
X177484819Y-86226433D02*
X177484819Y-85988338D01*
X177484819Y-85988338D02*
X177532438Y-85893100D01*
X177532438Y-85893100D02*
X177580057Y-85845481D01*
X177580057Y-85845481D02*
X177675295Y-85797862D01*
X177675295Y-85797862D02*
X177770533Y-85797862D01*
X177770533Y-85797862D02*
X177913390Y-85845481D01*
X177913390Y-85845481D02*
X178484819Y-86416909D01*
X178484819Y-86416909D02*
X178484819Y-85797862D01*
X126304819Y-122466666D02*
X125828628Y-122799999D01*
X126304819Y-123038094D02*
X125304819Y-123038094D01*
X125304819Y-123038094D02*
X125304819Y-122657142D01*
X125304819Y-122657142D02*
X125352438Y-122561904D01*
X125352438Y-122561904D02*
X125400057Y-122514285D01*
X125400057Y-122514285D02*
X125495295Y-122466666D01*
X125495295Y-122466666D02*
X125638152Y-122466666D01*
X125638152Y-122466666D02*
X125733390Y-122514285D01*
X125733390Y-122514285D02*
X125781009Y-122561904D01*
X125781009Y-122561904D02*
X125828628Y-122657142D01*
X125828628Y-122657142D02*
X125828628Y-123038094D01*
X125304819Y-122133332D02*
X125304819Y-121514285D01*
X125304819Y-121514285D02*
X125685771Y-121847618D01*
X125685771Y-121847618D02*
X125685771Y-121704761D01*
X125685771Y-121704761D02*
X125733390Y-121609523D01*
X125733390Y-121609523D02*
X125781009Y-121561904D01*
X125781009Y-121561904D02*
X125876247Y-121514285D01*
X125876247Y-121514285D02*
X126114342Y-121514285D01*
X126114342Y-121514285D02*
X126209580Y-121561904D01*
X126209580Y-121561904D02*
X126257200Y-121609523D01*
X126257200Y-121609523D02*
X126304819Y-121704761D01*
X126304819Y-121704761D02*
X126304819Y-121990475D01*
X126304819Y-121990475D02*
X126257200Y-122085713D01*
X126257200Y-122085713D02*
X126209580Y-122133332D01*
X166480819Y-124559827D02*
X167290342Y-124559827D01*
X167290342Y-124559827D02*
X167385580Y-124512208D01*
X167385580Y-124512208D02*
X167433200Y-124464589D01*
X167433200Y-124464589D02*
X167480819Y-124369351D01*
X167480819Y-124369351D02*
X167480819Y-124178875D01*
X167480819Y-124178875D02*
X167433200Y-124083637D01*
X167433200Y-124083637D02*
X167385580Y-124036018D01*
X167385580Y-124036018D02*
X167290342Y-123988399D01*
X167290342Y-123988399D02*
X166480819Y-123988399D01*
X166814152Y-123083637D02*
X167480819Y-123083637D01*
X166433200Y-123321732D02*
X167147485Y-123559827D01*
X167147485Y-123559827D02*
X167147485Y-122940780D01*
D14*
X148596000Y-69861923D02*
X148596000Y-69221923D01*
X148596000Y-69221923D02*
X148196000Y-69221923D01*
X148356000Y-78581923D02*
X148356000Y-69461923D01*
X148356000Y-78581923D02*
X138236000Y-78581923D01*
X148356000Y-71021923D02*
X138236000Y-71021923D01*
X148356000Y-69921923D02*
X138236000Y-69921923D01*
X148356000Y-69461923D02*
X138236000Y-69461923D01*
X147344000Y-73240923D02*
X147450000Y-73133923D01*
X147078000Y-72974923D02*
X147184000Y-72867923D01*
X144408000Y-76175923D02*
X144515000Y-76068923D01*
X144142000Y-75909923D02*
X144249000Y-75802923D01*
X142054000Y-73529923D02*
X142449000Y-73133923D01*
X141803000Y-73247923D02*
X142183000Y-72867923D01*
X139408000Y-76175923D02*
X139788000Y-75795923D01*
X139142000Y-75909923D02*
X139537000Y-75513923D01*
X138236000Y-78581923D02*
X138236000Y-69461923D01*
X147976000Y-74521923D02*
G75*
G03*
X147976000Y-74521923I-2180000J0D01*
G01*
X142976000Y-74521923D02*
G75*
G03*
X142976000Y-74521923I-2180000J0D01*
G01*
X155135000Y-128172936D02*
X155135000Y-128627064D01*
X153665000Y-128172936D02*
X153665000Y-128627064D01*
D15*
X108725000Y-104200000D02*
X118725000Y-104200000D01*
X118725000Y-114200000D02*
X108725000Y-114200000D01*
D16*
X105975000Y-109200000D02*
G75*
G03*
X105975000Y-109200000I-50000J0D01*
G01*
D14*
X183222000Y-108911923D02*
X183862000Y-108911923D01*
X183862000Y-108911923D02*
X183862000Y-108511923D01*
X174502000Y-108671923D02*
X183622000Y-108671923D01*
X174502000Y-108671923D02*
X174502000Y-93551923D01*
X182062000Y-108671923D02*
X182062000Y-93551923D01*
X183162000Y-108671923D02*
X183162000Y-93551923D01*
X183622000Y-108671923D02*
X183622000Y-93551923D01*
X179843000Y-107659923D02*
X179950000Y-107765923D01*
X180109000Y-107393923D02*
X180216000Y-107499923D01*
X176908000Y-104723923D02*
X177015000Y-104830923D01*
X177174000Y-104457923D02*
X177281000Y-104564923D01*
X179554000Y-102369923D02*
X179950000Y-102764923D01*
X179836000Y-102118923D02*
X180216000Y-102498923D01*
X176908000Y-99723923D02*
X177288000Y-100103923D01*
X177174000Y-99457923D02*
X177570000Y-99852923D01*
X179554000Y-97369923D02*
X179950000Y-97764923D01*
X179836000Y-97118923D02*
X180216000Y-97498923D01*
X176908000Y-94723923D02*
X177288000Y-95103923D01*
X177174000Y-94457923D02*
X177570000Y-94852923D01*
X174502000Y-93551923D02*
X183622000Y-93551923D01*
X180742000Y-106111923D02*
G75*
G03*
X180742000Y-106111923I-2180000J0D01*
G01*
X180742000Y-101111923D02*
G75*
G03*
X180742000Y-101111923I-2180000J0D01*
G01*
X180742000Y-96111923D02*
G75*
G03*
X180742000Y-96111923I-2180000J0D01*
G01*
X133727064Y-132735000D02*
X133272936Y-132735000D01*
X133727064Y-131265000D02*
X133272936Y-131265000D01*
X160934000Y-125379923D02*
X160934000Y-123579923D01*
X157714000Y-123579923D02*
X157714000Y-126029923D01*
X112485000Y-130560000D02*
X112485000Y-128640000D01*
X112485000Y-128640000D02*
X109625000Y-128640000D01*
X109625000Y-130560000D02*
X112485000Y-130560000D01*
X109934000Y-126216500D02*
X112204000Y-126216500D01*
X112204000Y-126216500D02*
X112204000Y-122156500D01*
X109934000Y-122156500D02*
X109934000Y-126216500D01*
X138814000Y-114440000D02*
X136544000Y-114440000D01*
X136544000Y-114440000D02*
X136544000Y-118500000D01*
X138814000Y-118500000D02*
X138814000Y-114440000D01*
X134071000Y-104622923D02*
X134071000Y-106807923D01*
X134071000Y-112492923D02*
X134071000Y-110307923D01*
X141136000Y-104622923D02*
X134071000Y-104622923D01*
X141136000Y-104622923D02*
X141136000Y-106807923D01*
X141136000Y-112492923D02*
X134071000Y-112492923D01*
X141136000Y-112492923D02*
X141136000Y-110307923D01*
X160616000Y-104622923D02*
X160616000Y-106807923D01*
X160616000Y-105382923D02*
X141136000Y-105382923D01*
X160616000Y-111732923D02*
X141136000Y-111732923D01*
X160616000Y-112492923D02*
X160616000Y-110307923D01*
X160616000Y-112492923D02*
X167726000Y-112492923D01*
X167726000Y-104622923D02*
X160616000Y-104622923D01*
X167726000Y-106807923D02*
X167726000Y-104622923D01*
X167726000Y-110307923D02*
X167726000Y-112492923D01*
X142975000Y-125586859D02*
X142975000Y-126040987D01*
X141505000Y-125586859D02*
X141505000Y-126040987D01*
X183100000Y-114653923D02*
G75*
G03*
X183100000Y-114653923I-1700000J0D01*
G01*
X131035000Y-77816671D02*
X131035000Y-78339175D01*
X129565000Y-77816671D02*
X129565000Y-78339175D01*
X175226000Y-69853923D02*
X175226000Y-69213923D01*
X175226000Y-69213923D02*
X174826000Y-69213923D01*
X174986000Y-78573923D02*
X174986000Y-69453923D01*
X174986000Y-78573923D02*
X164866000Y-78573923D01*
X174986000Y-71013923D02*
X164866000Y-71013923D01*
X174986000Y-69913923D02*
X164866000Y-69913923D01*
X174986000Y-69453923D02*
X164866000Y-69453923D01*
X173974000Y-73232923D02*
X174080000Y-73125923D01*
X173708000Y-72966923D02*
X173814000Y-72859923D01*
X171038000Y-76167923D02*
X171145000Y-76060923D01*
X170772000Y-75901923D02*
X170879000Y-75794923D01*
X168684000Y-73521923D02*
X169079000Y-73125923D01*
X168433000Y-73239923D02*
X168813000Y-72859923D01*
X166038000Y-76167923D02*
X166418000Y-75787923D01*
X165772000Y-75901923D02*
X166167000Y-75505923D01*
X164866000Y-78573923D02*
X164866000Y-69453923D01*
X174606000Y-74513923D02*
G75*
G03*
X174606000Y-74513923I-2180000J0D01*
G01*
X169606000Y-74513923D02*
G75*
G03*
X169606000Y-74513923I-2180000J0D01*
G01*
X167613000Y-118964671D02*
X167613000Y-119487175D01*
X166143000Y-118964671D02*
X166143000Y-119487175D01*
X123735000Y-136372936D02*
X123735000Y-136827064D01*
X122265000Y-136372936D02*
X122265000Y-136827064D01*
X136646000Y-137855923D02*
X136646000Y-138495923D01*
X136646000Y-138495923D02*
X137046000Y-138495923D01*
X136886000Y-129135923D02*
X136886000Y-138255923D01*
X136886000Y-129135923D02*
X152006000Y-129135923D01*
X136886000Y-136695923D02*
X152006000Y-136695923D01*
X136886000Y-137795923D02*
X152006000Y-137795923D01*
X136886000Y-138255923D02*
X152006000Y-138255923D01*
X137898000Y-134476923D02*
X137792000Y-134583923D01*
X138164000Y-134742923D02*
X138058000Y-134849923D01*
X140834000Y-131541923D02*
X140727000Y-131648923D01*
X141100000Y-131807923D02*
X140993000Y-131914923D01*
X143188000Y-134187923D02*
X142793000Y-134583923D01*
X143439000Y-134469923D02*
X143059000Y-134849923D01*
X145834000Y-131541923D02*
X145454000Y-131921923D01*
X146100000Y-131807923D02*
X145705000Y-132203923D01*
X148188000Y-134187923D02*
X147793000Y-134583923D01*
X148439000Y-134469923D02*
X148059000Y-134849923D01*
X150834000Y-131541923D02*
X150454000Y-131921923D01*
X151100000Y-131807923D02*
X150705000Y-132203923D01*
X152006000Y-129135923D02*
X152006000Y-138255923D01*
X141626000Y-133195923D02*
G75*
G03*
X141626000Y-133195923I-2180000J0D01*
G01*
X146626000Y-133195923D02*
G75*
G03*
X146626000Y-133195923I-2180000J0D01*
G01*
X151626000Y-133195923D02*
G75*
G03*
X151626000Y-133195923I-2180000J0D01*
G01*
X116064416Y-124790000D02*
X114350000Y-124790000D01*
X116064416Y-130010000D02*
X115800000Y-130010000D01*
X119935584Y-124790000D02*
X120200000Y-124790000D01*
X119935584Y-130010000D02*
X120200000Y-130010000D01*
D17*
X108712000Y-80907466D02*
X108077000Y-80907466D01*
X108077000Y-81375623D01*
X107907667Y-81375623D01*
X107907667Y-80688329D01*
X108712000Y-80688329D01*
X108712000Y-80907466D01*
G36*
X108712000Y-80907466D02*
G01*
X108077000Y-80907466D01*
X108077000Y-81375623D01*
X107907667Y-81375623D01*
X107907667Y-80688329D01*
X108712000Y-80688329D01*
X108712000Y-80907466D01*
G37*
X108712000Y-78676251D02*
X108542667Y-78676251D01*
X108542667Y-78387388D01*
X107907667Y-78387388D01*
X107907667Y-78178211D01*
X108542667Y-78178211D01*
X108542667Y-77889349D01*
X108712000Y-77889349D01*
X108712000Y-78676251D01*
G36*
X108712000Y-78676251D02*
G01*
X108542667Y-78676251D01*
X108542667Y-78387388D01*
X107907667Y-78387388D01*
X107907667Y-78178211D01*
X108542667Y-78178211D01*
X108542667Y-77889349D01*
X108712000Y-77889349D01*
X108712000Y-78676251D01*
G37*
X107679067Y-81465270D02*
X107594400Y-81465270D01*
X107594400Y-81156486D01*
X106874733Y-81156486D01*
X106874733Y-81036957D01*
X107594400Y-81036957D01*
X107594400Y-80718211D01*
X107679067Y-80718211D01*
X107679067Y-81465270D01*
G36*
X107679067Y-81465270D02*
G01*
X107594400Y-81465270D01*
X107594400Y-81156486D01*
X106874733Y-81156486D01*
X106874733Y-81036957D01*
X107594400Y-81036957D01*
X107594400Y-80718211D01*
X107679067Y-80718211D01*
X107679067Y-81465270D01*
G37*
X108712000Y-79542839D02*
X108551134Y-79542839D01*
X108551134Y-79034839D01*
X108398734Y-79034839D01*
X108398734Y-79483074D01*
X108229400Y-79483074D01*
X108229400Y-79034839D01*
X108077000Y-79034839D01*
X108077000Y-79552800D01*
X107907667Y-79552800D01*
X107907667Y-78825662D01*
X108712000Y-78825662D01*
X108712000Y-79542839D01*
G36*
X108712000Y-79542839D02*
G01*
X108551134Y-79542839D01*
X108551134Y-79034839D01*
X108398734Y-79034839D01*
X108398734Y-79483074D01*
X108229400Y-79483074D01*
X108229400Y-79034839D01*
X108077000Y-79034839D01*
X108077000Y-79552800D01*
X107907667Y-79552800D01*
X107907667Y-78825662D01*
X108712000Y-78825662D01*
X108712000Y-79542839D01*
G37*
X107679067Y-80578760D02*
X107594400Y-80578760D01*
X107594400Y-80001035D01*
X107323467Y-80001035D01*
X107323467Y-80518996D01*
X107238800Y-80518996D01*
X107238800Y-80001035D01*
X106967867Y-80001035D01*
X106967867Y-80578760D01*
X106874733Y-80578760D01*
X106874733Y-79891466D01*
X107679067Y-79891466D01*
X107679067Y-80578760D01*
G36*
X107679067Y-80578760D02*
G01*
X107594400Y-80578760D01*
X107594400Y-80001035D01*
X107323467Y-80001035D01*
X107323467Y-80518996D01*
X107238800Y-80518996D01*
X107238800Y-80001035D01*
X106967867Y-80001035D01*
X106967867Y-80578760D01*
X106874733Y-80578760D01*
X106874733Y-79891466D01*
X107679067Y-79891466D01*
X107679067Y-80578760D01*
G37*
X107679067Y-82636062D02*
X107484434Y-82789543D01*
X107433901Y-82829634D01*
X107388504Y-82866119D01*
X107349997Y-82897548D01*
X107320133Y-82922475D01*
X107300669Y-82939450D01*
X107293359Y-82947026D01*
X107293377Y-82947229D01*
X107301047Y-82953737D01*
X107320866Y-82969957D01*
X107350984Y-82994394D01*
X107389553Y-83025551D01*
X107434723Y-83061931D01*
X107484645Y-83102037D01*
X107485893Y-83103039D01*
X107674833Y-83254642D01*
X107677337Y-83321172D01*
X107677820Y-83354623D01*
X107676684Y-83378513D01*
X107674175Y-83387701D01*
X107674156Y-83387702D01*
X107666089Y-83382247D01*
X107645738Y-83366750D01*
X107614744Y-83342505D01*
X107574743Y-83310812D01*
X107527376Y-83272966D01*
X107474281Y-83230264D01*
X107428765Y-83193466D01*
X107189059Y-82999231D01*
X106874733Y-82999231D01*
X106874733Y-82889662D01*
X107186949Y-82889662D01*
X107409725Y-82709079D01*
X107465202Y-82664094D01*
X107517110Y-82621980D01*
X107563557Y-82584270D01*
X107602654Y-82552501D01*
X107632511Y-82528206D01*
X107651239Y-82512922D01*
X107655783Y-82509185D01*
X107679067Y-82489874D01*
X107679067Y-82636062D01*
G36*
X107679067Y-82636062D02*
G01*
X107484434Y-82789543D01*
X107433901Y-82829634D01*
X107388504Y-82866119D01*
X107349997Y-82897548D01*
X107320133Y-82922475D01*
X107300669Y-82939450D01*
X107293359Y-82947026D01*
X107293377Y-82947229D01*
X107301047Y-82953737D01*
X107320866Y-82969957D01*
X107350984Y-82994394D01*
X107389553Y-83025551D01*
X107434723Y-83061931D01*
X107484645Y-83102037D01*
X107485893Y-83103039D01*
X107674833Y-83254642D01*
X107677337Y-83321172D01*
X107677820Y-83354623D01*
X107676684Y-83378513D01*
X107674175Y-83387701D01*
X107674156Y-83387702D01*
X107666089Y-83382247D01*
X107645738Y-83366750D01*
X107614744Y-83342505D01*
X107574743Y-83310812D01*
X107527376Y-83272966D01*
X107474281Y-83230264D01*
X107428765Y-83193466D01*
X107189059Y-82999231D01*
X106874733Y-82999231D01*
X106874733Y-82889662D01*
X107186949Y-82889662D01*
X107409725Y-82709079D01*
X107465202Y-82664094D01*
X107517110Y-82621980D01*
X107563557Y-82584270D01*
X107602654Y-82552501D01*
X107632511Y-82528206D01*
X107651239Y-82512922D01*
X107655783Y-82509185D01*
X107679067Y-82489874D01*
X107679067Y-82636062D01*
G37*
X107679067Y-79034839D02*
X107209591Y-79034839D01*
X107366012Y-79211272D01*
X107414075Y-79265540D01*
X107463101Y-79320997D01*
X107510182Y-79374344D01*
X107552408Y-79422284D01*
X107586871Y-79461519D01*
X107601162Y-79477849D01*
X107679890Y-79567993D01*
X107677362Y-79642573D01*
X107674833Y-79717153D01*
X107501932Y-79516830D01*
X107329030Y-79316508D01*
X107106884Y-79524301D01*
X107053902Y-79573725D01*
X107005150Y-79618945D01*
X106962201Y-79658522D01*
X106926630Y-79691015D01*
X106900010Y-79714984D01*
X106883917Y-79728988D01*
X106879736Y-79732094D01*
X106877272Y-79722974D01*
X106875485Y-79698972D01*
X106874738Y-79665124D01*
X106874733Y-79662282D01*
X106874733Y-79592469D01*
X107063117Y-79416579D01*
X107111794Y-79371126D01*
X107156069Y-79329780D01*
X107194229Y-79294137D01*
X107224563Y-79265797D01*
X107245361Y-79246358D01*
X107254911Y-79237419D01*
X107255302Y-79237049D01*
X107251049Y-79229114D01*
X107236771Y-79209802D01*
X107214500Y-79181719D01*
X107186269Y-79147473D01*
X107175027Y-79134125D01*
X107090951Y-79034839D01*
X106874733Y-79034839D01*
X106874733Y-78925270D01*
X107679067Y-78925270D01*
X107679067Y-79034839D01*
G36*
X107679067Y-79034839D02*
G01*
X107209591Y-79034839D01*
X107366012Y-79211272D01*
X107414075Y-79265540D01*
X107463101Y-79320997D01*
X107510182Y-79374344D01*
X107552408Y-79422284D01*
X107586871Y-79461519D01*
X107601162Y-79477849D01*
X107679890Y-79567993D01*
X107677362Y-79642573D01*
X107674833Y-79717153D01*
X107501932Y-79516830D01*
X107329030Y-79316508D01*
X107106884Y-79524301D01*
X107053902Y-79573725D01*
X107005150Y-79618945D01*
X106962201Y-79658522D01*
X106926630Y-79691015D01*
X106900010Y-79714984D01*
X106883917Y-79728988D01*
X106879736Y-79732094D01*
X106877272Y-79722974D01*
X106875485Y-79698972D01*
X106874738Y-79665124D01*
X106874733Y-79662282D01*
X106874733Y-79592469D01*
X107063117Y-79416579D01*
X107111794Y-79371126D01*
X107156069Y-79329780D01*
X107194229Y-79294137D01*
X107224563Y-79265797D01*
X107245361Y-79246358D01*
X107254911Y-79237419D01*
X107255302Y-79237049D01*
X107251049Y-79229114D01*
X107236771Y-79209802D01*
X107214500Y-79181719D01*
X107186269Y-79147473D01*
X107175027Y-79134125D01*
X107090951Y-79034839D01*
X106874733Y-79034839D01*
X106874733Y-78925270D01*
X107679067Y-78925270D01*
X107679067Y-79034839D01*
G37*
X107924722Y-76897062D02*
X107947910Y-76907948D01*
X107983670Y-76925192D01*
X108030500Y-76948056D01*
X108086900Y-76975805D01*
X108151370Y-77007703D01*
X108222411Y-77043014D01*
X108261150Y-77062348D01*
X108298522Y-77081001D01*
X108319887Y-77091691D01*
X108716234Y-77290111D01*
X108716234Y-77495204D01*
X107911900Y-77897986D01*
X107909493Y-77787429D01*
X107909089Y-77742326D01*
X107909839Y-77704782D01*
X107911586Y-77679135D01*
X107913726Y-77669944D01*
X107923976Y-77663625D01*
X107946407Y-77652037D01*
X107977381Y-77637008D01*
X108002917Y-77625089D01*
X108085467Y-77587163D01*
X108085467Y-77392375D01*
X108254800Y-77392375D01*
X108255011Y-77440511D01*
X108255944Y-77471896D01*
X108258050Y-77489697D01*
X108261781Y-77497081D01*
X108267588Y-77497217D01*
X108269617Y-77496401D01*
X108310047Y-77478013D01*
X108352090Y-77458285D01*
X108392794Y-77438676D01*
X108429207Y-77420647D01*
X108458376Y-77405656D01*
X108477350Y-77395163D01*
X108483269Y-77390793D01*
X108476008Y-77385520D01*
X108456414Y-77374616D01*
X108427904Y-77359759D01*
X108393897Y-77342628D01*
X108357810Y-77324903D01*
X108323062Y-77308264D01*
X108293071Y-77294391D01*
X108271254Y-77284962D01*
X108261150Y-77281651D01*
X108258610Y-77290981D01*
X108256553Y-77316226D01*
X108255210Y-77353380D01*
X108254800Y-77392375D01*
X108085467Y-77392375D01*
X108085467Y-77194285D01*
X107996567Y-77152251D01*
X107907667Y-77110216D01*
X107907667Y-77001743D01*
X107908349Y-76956954D01*
X107910210Y-76921488D01*
X107912973Y-76899145D01*
X107915603Y-76893270D01*
X107924722Y-76897062D01*
G36*
X107924722Y-76897062D02*
G01*
X107947910Y-76907948D01*
X107983670Y-76925192D01*
X108030500Y-76948056D01*
X108086900Y-76975805D01*
X108151370Y-77007703D01*
X108222411Y-77043014D01*
X108261150Y-77062348D01*
X108298522Y-77081001D01*
X108319887Y-77091691D01*
X108716234Y-77290111D01*
X108716234Y-77495204D01*
X107911900Y-77897986D01*
X107909493Y-77787429D01*
X107909089Y-77742326D01*
X107909839Y-77704782D01*
X107911586Y-77679135D01*
X107913726Y-77669944D01*
X107923976Y-77663625D01*
X107946407Y-77652037D01*
X107977381Y-77637008D01*
X108002917Y-77625089D01*
X108085467Y-77587163D01*
X108085467Y-77392375D01*
X108254800Y-77392375D01*
X108255011Y-77440511D01*
X108255944Y-77471896D01*
X108258050Y-77489697D01*
X108261781Y-77497081D01*
X108267588Y-77497217D01*
X108269617Y-77496401D01*
X108310047Y-77478013D01*
X108352090Y-77458285D01*
X108392794Y-77438676D01*
X108429207Y-77420647D01*
X108458376Y-77405656D01*
X108477350Y-77395163D01*
X108483269Y-77390793D01*
X108476008Y-77385520D01*
X108456414Y-77374616D01*
X108427904Y-77359759D01*
X108393897Y-77342628D01*
X108357810Y-77324903D01*
X108323062Y-77308264D01*
X108293071Y-77294391D01*
X108271254Y-77284962D01*
X108261150Y-77281651D01*
X108258610Y-77290981D01*
X108256553Y-77316226D01*
X108255210Y-77353380D01*
X108254800Y-77392375D01*
X108085467Y-77392375D01*
X108085467Y-77194285D01*
X107996567Y-77152251D01*
X107907667Y-77110216D01*
X107907667Y-77001743D01*
X107908349Y-76956954D01*
X107910210Y-76921488D01*
X107912973Y-76899145D01*
X107915603Y-76893270D01*
X107924722Y-76897062D01*
G37*
X107271022Y-81654525D02*
X107679067Y-81654525D01*
X107679067Y-81901737D01*
X107678794Y-81989745D01*
X107677725Y-82060659D01*
X107675482Y-82117301D01*
X107671688Y-82162492D01*
X107665968Y-82199055D01*
X107657943Y-82229810D01*
X107647237Y-82257580D01*
X107633472Y-82285186D01*
X107626071Y-82298499D01*
X107588383Y-82347680D01*
X107540541Y-82383123D01*
X107485507Y-82403692D01*
X107426242Y-82408255D01*
X107369301Y-82396926D01*
X107319320Y-82370172D01*
X107274706Y-82327399D01*
X107238654Y-82272342D01*
X107217266Y-82219140D01*
X107199964Y-82161206D01*
X107042952Y-82301316D01*
X106998209Y-82341037D01*
X106957949Y-82376386D01*
X106924125Y-82405679D01*
X106898691Y-82427235D01*
X106883600Y-82439369D01*
X106880337Y-82441427D01*
X106877556Y-82432315D01*
X106875551Y-82408364D01*
X106874736Y-82374652D01*
X106874733Y-82372779D01*
X106874733Y-82304132D01*
X107031367Y-82166300D01*
X107188000Y-82028469D01*
X107188000Y-81774055D01*
X107271022Y-81774055D01*
X107274170Y-81950858D01*
X107275579Y-82016985D01*
X107277338Y-82066695D01*
X107279770Y-82103496D01*
X107283201Y-82130893D01*
X107287958Y-82152392D01*
X107294365Y-82171499D01*
X107294746Y-82172486D01*
X107322944Y-82225406D01*
X107359135Y-82263311D01*
X107400834Y-82285238D01*
X107445556Y-82290221D01*
X107490814Y-82277294D01*
X107518634Y-82259400D01*
X107542767Y-82234658D01*
X107561647Y-82202020D01*
X107575748Y-82159299D01*
X107585546Y-82104308D01*
X107591517Y-82034859D01*
X107594136Y-81948765D01*
X107594351Y-81911015D01*
X107594400Y-81774055D01*
X107271022Y-81774055D01*
X107188000Y-81774055D01*
X106874733Y-81774055D01*
X106874733Y-81654525D01*
X107271022Y-81654525D01*
G36*
X107271022Y-81654525D02*
G01*
X107679067Y-81654525D01*
X107679067Y-81901737D01*
X107678794Y-81989745D01*
X107677725Y-82060659D01*
X107675482Y-82117301D01*
X107671688Y-82162492D01*
X107665968Y-82199055D01*
X107657943Y-82229810D01*
X107647237Y-82257580D01*
X107633472Y-82285186D01*
X107626071Y-82298499D01*
X107588383Y-82347680D01*
X107540541Y-82383123D01*
X107485507Y-82403692D01*
X107426242Y-82408255D01*
X107369301Y-82396926D01*
X107319320Y-82370172D01*
X107274706Y-82327399D01*
X107238654Y-82272342D01*
X107217266Y-82219140D01*
X107199964Y-82161206D01*
X107042952Y-82301316D01*
X106998209Y-82341037D01*
X106957949Y-82376386D01*
X106924125Y-82405679D01*
X106898691Y-82427235D01*
X106883600Y-82439369D01*
X106880337Y-82441427D01*
X106877556Y-82432315D01*
X106875551Y-82408364D01*
X106874736Y-82374652D01*
X106874733Y-82372779D01*
X106874733Y-82304132D01*
X107031367Y-82166300D01*
X107188000Y-82028469D01*
X107188000Y-81774055D01*
X107271022Y-81774055D01*
X107274170Y-81950858D01*
X107275579Y-82016985D01*
X107277338Y-82066695D01*
X107279770Y-82103496D01*
X107283201Y-82130893D01*
X107287958Y-82152392D01*
X107294365Y-82171499D01*
X107294746Y-82172486D01*
X107322944Y-82225406D01*
X107359135Y-82263311D01*
X107400834Y-82285238D01*
X107445556Y-82290221D01*
X107490814Y-82277294D01*
X107518634Y-82259400D01*
X107542767Y-82234658D01*
X107561647Y-82202020D01*
X107575748Y-82159299D01*
X107585546Y-82104308D01*
X107591517Y-82034859D01*
X107594136Y-81948765D01*
X107594351Y-81911015D01*
X107594400Y-81774055D01*
X107271022Y-81774055D01*
X107188000Y-81774055D01*
X106874733Y-81774055D01*
X106874733Y-81654525D01*
X107271022Y-81654525D01*
G37*
X107271022Y-75897192D02*
X107679067Y-75897192D01*
X107679067Y-76144404D01*
X107678790Y-76232558D01*
X107677711Y-76303600D01*
X107675452Y-76360333D01*
X107671641Y-76405558D01*
X107665900Y-76442080D01*
X107657856Y-76472699D01*
X107647133Y-76500221D01*
X107633356Y-76527446D01*
X107626071Y-76540328D01*
X107587765Y-76589585D01*
X107552081Y-76618380D01*
X107524564Y-76634917D01*
X107500684Y-76644136D01*
X107473227Y-76648020D01*
X107442014Y-76648608D01*
X107376969Y-76639954D01*
X107321396Y-76614787D01*
X107275300Y-76573111D01*
X107238684Y-76514928D01*
X107217850Y-76461737D01*
X107199752Y-76404676D01*
X107041621Y-76544385D01*
X106996710Y-76583905D01*
X106956382Y-76619090D01*
X106922577Y-76648272D01*
X106897232Y-76669785D01*
X106882286Y-76681962D01*
X106879112Y-76684094D01*
X106876939Y-76674981D01*
X106875372Y-76651028D01*
X106874735Y-76617313D01*
X106874733Y-76615446D01*
X106874733Y-76546798D01*
X107031367Y-76408967D01*
X107188000Y-76271135D01*
X107188000Y-76016721D01*
X107271022Y-76016721D01*
X107274170Y-76193525D01*
X107275579Y-76259651D01*
X107277338Y-76309362D01*
X107279770Y-76346163D01*
X107283201Y-76373560D01*
X107287958Y-76395059D01*
X107294365Y-76414166D01*
X107294746Y-76415153D01*
X107322944Y-76468072D01*
X107359135Y-76505978D01*
X107400834Y-76527905D01*
X107445556Y-76532887D01*
X107490814Y-76519961D01*
X107518634Y-76502067D01*
X107542767Y-76477325D01*
X107561647Y-76444687D01*
X107575748Y-76401966D01*
X107585546Y-76346974D01*
X107591517Y-76277525D01*
X107594136Y-76191431D01*
X107594351Y-76153682D01*
X107594400Y-76016721D01*
X107271022Y-76016721D01*
X107188000Y-76016721D01*
X106874733Y-76016721D01*
X106874733Y-75897192D01*
X107271022Y-75897192D01*
G36*
X107271022Y-75897192D02*
G01*
X107679067Y-75897192D01*
X107679067Y-76144404D01*
X107678790Y-76232558D01*
X107677711Y-76303600D01*
X107675452Y-76360333D01*
X107671641Y-76405558D01*
X107665900Y-76442080D01*
X107657856Y-76472699D01*
X107647133Y-76500221D01*
X107633356Y-76527446D01*
X107626071Y-76540328D01*
X107587765Y-76589585D01*
X107552081Y-76618380D01*
X107524564Y-76634917D01*
X107500684Y-76644136D01*
X107473227Y-76648020D01*
X107442014Y-76648608D01*
X107376969Y-76639954D01*
X107321396Y-76614787D01*
X107275300Y-76573111D01*
X107238684Y-76514928D01*
X107217850Y-76461737D01*
X107199752Y-76404676D01*
X107041621Y-76544385D01*
X106996710Y-76583905D01*
X106956382Y-76619090D01*
X106922577Y-76648272D01*
X106897232Y-76669785D01*
X106882286Y-76681962D01*
X106879112Y-76684094D01*
X106876939Y-76674981D01*
X106875372Y-76651028D01*
X106874735Y-76617313D01*
X106874733Y-76615446D01*
X106874733Y-76546798D01*
X107031367Y-76408967D01*
X107188000Y-76271135D01*
X107188000Y-76016721D01*
X107271022Y-76016721D01*
X107274170Y-76193525D01*
X107275579Y-76259651D01*
X107277338Y-76309362D01*
X107279770Y-76346163D01*
X107283201Y-76373560D01*
X107287958Y-76395059D01*
X107294365Y-76414166D01*
X107294746Y-76415153D01*
X107322944Y-76468072D01*
X107359135Y-76505978D01*
X107400834Y-76527905D01*
X107445556Y-76532887D01*
X107490814Y-76519961D01*
X107518634Y-76502067D01*
X107542767Y-76477325D01*
X107561647Y-76444687D01*
X107575748Y-76401966D01*
X107585546Y-76346974D01*
X107591517Y-76277525D01*
X107594136Y-76191431D01*
X107594351Y-76153682D01*
X107594400Y-76016721D01*
X107271022Y-76016721D01*
X107188000Y-76016721D01*
X106874733Y-76016721D01*
X106874733Y-75897192D01*
X107271022Y-75897192D01*
G37*
X107301778Y-76807349D02*
X107322220Y-76807394D01*
X107400773Y-76825440D01*
X107473234Y-76859745D01*
X107538092Y-76908703D01*
X107593840Y-76970707D01*
X107638968Y-77044152D01*
X107671969Y-77127431D01*
X107691332Y-77218939D01*
X107696000Y-77293585D01*
X107688470Y-77380220D01*
X107667151Y-77467004D01*
X107633948Y-77548340D01*
X107590766Y-77618633D01*
X107581240Y-77630704D01*
X107524092Y-77686199D01*
X107457156Y-77727980D01*
X107383311Y-77755561D01*
X107305432Y-77768450D01*
X107226398Y-77766160D01*
X107149086Y-77748200D01*
X107079526Y-77715984D01*
X107017327Y-77668418D01*
X106962260Y-77605748D01*
X106917343Y-77532194D01*
X106885595Y-77451977D01*
X106882307Y-77440207D01*
X106871722Y-77381656D01*
X106866886Y-77314058D01*
X106955326Y-77314058D01*
X106967599Y-77394960D01*
X106972199Y-77411561D01*
X107001590Y-77482073D01*
X107042432Y-77540576D01*
X107092477Y-77586779D01*
X107149482Y-77620387D01*
X107211199Y-77641108D01*
X107275384Y-77648650D01*
X107339791Y-77642719D01*
X107402174Y-77623024D01*
X107460288Y-77589270D01*
X107511886Y-77541165D01*
X107550024Y-77486899D01*
X107582084Y-77414284D01*
X107598953Y-77337860D01*
X107601218Y-77260472D01*
X107589468Y-77184964D01*
X107564291Y-77114183D01*
X107526276Y-77050973D01*
X107476012Y-76998179D01*
X107444182Y-76975128D01*
X107374080Y-76941719D01*
X107301778Y-76926857D01*
X107229601Y-76930244D01*
X107159876Y-76951583D01*
X107094929Y-76990575D01*
X107056918Y-77024685D01*
X107010275Y-77085696D01*
X106977343Y-77156327D01*
X106958800Y-77233481D01*
X106955326Y-77314058D01*
X106866886Y-77314058D01*
X106866779Y-77312562D01*
X106867474Y-77240705D01*
X106873802Y-77173865D01*
X106882513Y-77130699D01*
X106914457Y-77044561D01*
X106959698Y-76969450D01*
X107016722Y-76906740D01*
X107084013Y-76857807D01*
X107160055Y-76824025D01*
X107239083Y-76807212D01*
X107301778Y-76807349D01*
G36*
X107301778Y-76807349D02*
G01*
X107322220Y-76807394D01*
X107400773Y-76825440D01*
X107473234Y-76859745D01*
X107538092Y-76908703D01*
X107593840Y-76970707D01*
X107638968Y-77044152D01*
X107671969Y-77127431D01*
X107691332Y-77218939D01*
X107696000Y-77293585D01*
X107688470Y-77380220D01*
X107667151Y-77467004D01*
X107633948Y-77548340D01*
X107590766Y-77618633D01*
X107581240Y-77630704D01*
X107524092Y-77686199D01*
X107457156Y-77727980D01*
X107383311Y-77755561D01*
X107305432Y-77768450D01*
X107226398Y-77766160D01*
X107149086Y-77748200D01*
X107079526Y-77715984D01*
X107017327Y-77668418D01*
X106962260Y-77605748D01*
X106917343Y-77532194D01*
X106885595Y-77451977D01*
X106882307Y-77440207D01*
X106871722Y-77381656D01*
X106866886Y-77314058D01*
X106955326Y-77314058D01*
X106967599Y-77394960D01*
X106972199Y-77411561D01*
X107001590Y-77482073D01*
X107042432Y-77540576D01*
X107092477Y-77586779D01*
X107149482Y-77620387D01*
X107211199Y-77641108D01*
X107275384Y-77648650D01*
X107339791Y-77642719D01*
X107402174Y-77623024D01*
X107460288Y-77589270D01*
X107511886Y-77541165D01*
X107550024Y-77486899D01*
X107582084Y-77414284D01*
X107598953Y-77337860D01*
X107601218Y-77260472D01*
X107589468Y-77184964D01*
X107564291Y-77114183D01*
X107526276Y-77050973D01*
X107476012Y-76998179D01*
X107444182Y-76975128D01*
X107374080Y-76941719D01*
X107301778Y-76926857D01*
X107229601Y-76930244D01*
X107159876Y-76951583D01*
X107094929Y-76990575D01*
X107056918Y-77024685D01*
X107010275Y-77085696D01*
X106977343Y-77156327D01*
X106958800Y-77233481D01*
X106955326Y-77314058D01*
X106866886Y-77314058D01*
X106866779Y-77312562D01*
X106867474Y-77240705D01*
X106873802Y-77173865D01*
X106882513Y-77130699D01*
X106914457Y-77044561D01*
X106959698Y-76969450D01*
X107016722Y-76906740D01*
X107084013Y-76857807D01*
X107160055Y-76824025D01*
X107239083Y-76807212D01*
X107301778Y-76807349D01*
G37*
X107330618Y-77895810D02*
X107369886Y-77904427D01*
X107449660Y-77933796D01*
X107520467Y-77979049D01*
X107581009Y-78038574D01*
X107629986Y-78110761D01*
X107666101Y-78193999D01*
X107688057Y-78286675D01*
X107690127Y-78301924D01*
X107694360Y-78395803D01*
X107684854Y-78488513D01*
X107662521Y-78576127D01*
X107628273Y-78654718D01*
X107596830Y-78703407D01*
X107564767Y-78745505D01*
X107491227Y-78666921D01*
X107521417Y-78623576D01*
X107542135Y-78589553D01*
X107563322Y-78548127D01*
X107575120Y-78521163D01*
X107587033Y-78488303D01*
X107594144Y-78458678D01*
X107597618Y-78424907D01*
X107598623Y-78379607D01*
X107598633Y-78372447D01*
X107597836Y-78324772D01*
X107594693Y-78289692D01*
X107588083Y-78259930D01*
X107576881Y-78228212D01*
X107576026Y-78226058D01*
X107539760Y-78157586D01*
X107491395Y-78100372D01*
X107433665Y-78056062D01*
X107369302Y-78026303D01*
X107301041Y-78012740D01*
X107231613Y-78017020D01*
X107229632Y-78017422D01*
X107155123Y-78041642D01*
X107090524Y-78080693D01*
X107036973Y-78133333D01*
X106995606Y-78198319D01*
X106967557Y-78274408D01*
X106959390Y-78313099D01*
X106954457Y-78393741D01*
X106966419Y-78473837D01*
X106995244Y-78553252D01*
X107037306Y-78626601D01*
X107071756Y-78677504D01*
X107043550Y-78711740D01*
X107025188Y-78731931D01*
X107010672Y-78744227D01*
X107006423Y-78745976D01*
X106995356Y-78738008D01*
X106977316Y-78715968D01*
X106954341Y-78682649D01*
X106928467Y-78640846D01*
X106923277Y-78631976D01*
X106897074Y-78572432D01*
X106878412Y-78500188D01*
X106867820Y-78420675D01*
X106865826Y-78339328D01*
X106872961Y-78261579D01*
X106882708Y-78215683D01*
X106914555Y-78130019D01*
X106959926Y-78055235D01*
X107017444Y-77992742D01*
X107085734Y-77943952D01*
X107163421Y-77910277D01*
X107186619Y-77903761D01*
X107238416Y-77893269D01*
X107283714Y-77890608D01*
X107330618Y-77895810D01*
G36*
X107330618Y-77895810D02*
G01*
X107369886Y-77904427D01*
X107449660Y-77933796D01*
X107520467Y-77979049D01*
X107581009Y-78038574D01*
X107629986Y-78110761D01*
X107666101Y-78193999D01*
X107688057Y-78286675D01*
X107690127Y-78301924D01*
X107694360Y-78395803D01*
X107684854Y-78488513D01*
X107662521Y-78576127D01*
X107628273Y-78654718D01*
X107596830Y-78703407D01*
X107564767Y-78745505D01*
X107491227Y-78666921D01*
X107521417Y-78623576D01*
X107542135Y-78589553D01*
X107563322Y-78548127D01*
X107575120Y-78521163D01*
X107587033Y-78488303D01*
X107594144Y-78458678D01*
X107597618Y-78424907D01*
X107598623Y-78379607D01*
X107598633Y-78372447D01*
X107597836Y-78324772D01*
X107594693Y-78289692D01*
X107588083Y-78259930D01*
X107576881Y-78228212D01*
X107576026Y-78226058D01*
X107539760Y-78157586D01*
X107491395Y-78100372D01*
X107433665Y-78056062D01*
X107369302Y-78026303D01*
X107301041Y-78012740D01*
X107231613Y-78017020D01*
X107229632Y-78017422D01*
X107155123Y-78041642D01*
X107090524Y-78080693D01*
X107036973Y-78133333D01*
X106995606Y-78198319D01*
X106967557Y-78274408D01*
X106959390Y-78313099D01*
X106954457Y-78393741D01*
X106966419Y-78473837D01*
X106995244Y-78553252D01*
X107037306Y-78626601D01*
X107071756Y-78677504D01*
X107043550Y-78711740D01*
X107025188Y-78731931D01*
X107010672Y-78744227D01*
X107006423Y-78745976D01*
X106995356Y-78738008D01*
X106977316Y-78715968D01*
X106954341Y-78682649D01*
X106928467Y-78640846D01*
X106923277Y-78631976D01*
X106897074Y-78572432D01*
X106878412Y-78500188D01*
X106867820Y-78420675D01*
X106865826Y-78339328D01*
X106872961Y-78261579D01*
X106882708Y-78215683D01*
X106914555Y-78130019D01*
X106959926Y-78055235D01*
X107017444Y-77992742D01*
X107085734Y-77943952D01*
X107163421Y-77910277D01*
X107186619Y-77903761D01*
X107238416Y-77893269D01*
X107283714Y-77890608D01*
X107330618Y-77895810D01*
G37*
X108551134Y-79722133D02*
X108712000Y-79722133D01*
X108712000Y-79985045D01*
X108711882Y-80066481D01*
X108711430Y-80130847D01*
X108710499Y-80180992D01*
X108708943Y-80219766D01*
X108706615Y-80250018D01*
X108703370Y-80274598D01*
X108699062Y-80296356D01*
X108695271Y-80311677D01*
X108669016Y-80381469D01*
X108630439Y-80437612D01*
X108579441Y-80480244D01*
X108571033Y-80485299D01*
X108542155Y-80500091D01*
X108515237Y-80508519D01*
X108483271Y-80512250D01*
X108454834Y-80512956D01*
X108416883Y-80511582D01*
X108380602Y-80507608D01*
X108353185Y-80501857D01*
X108350839Y-80501089D01*
X108319407Y-80483647D01*
X108284330Y-80454185D01*
X108250586Y-80417824D01*
X108223156Y-80379688D01*
X108211759Y-80357991D01*
X108194961Y-80319254D01*
X108142331Y-80362644D01*
X108109479Y-80389579D01*
X108072243Y-80419875D01*
X108033499Y-80451216D01*
X107996126Y-80481290D01*
X107963000Y-80507784D01*
X107937000Y-80528384D01*
X107921003Y-80540777D01*
X107918250Y-80542781D01*
X107913751Y-80541601D01*
X107910677Y-80529224D01*
X107908826Y-80503288D01*
X107907995Y-80461426D01*
X107907909Y-80422466D01*
X107908151Y-80294878D01*
X108034566Y-80195270D01*
X108160982Y-80095662D01*
X108161324Y-80018466D01*
X108161667Y-79941270D01*
X108331000Y-79941270D01*
X108331013Y-80068270D01*
X108331527Y-80125994D01*
X108333299Y-80167868D01*
X108336701Y-80197937D01*
X108342103Y-80220246D01*
X108345830Y-80230133D01*
X108369609Y-80265968D01*
X108402123Y-80288215D01*
X108439070Y-80296001D01*
X108476147Y-80288452D01*
X108509054Y-80264692D01*
X108510111Y-80263518D01*
X108527202Y-80237455D01*
X108539288Y-80201946D01*
X108546906Y-80154163D01*
X108550589Y-80091274D01*
X108551134Y-80046428D01*
X108551134Y-79941270D01*
X108331000Y-79941270D01*
X108161667Y-79941270D01*
X107907667Y-79941270D01*
X107907667Y-79722133D01*
X108551134Y-79722133D01*
G36*
X108551134Y-79722133D02*
G01*
X108712000Y-79722133D01*
X108712000Y-79985045D01*
X108711882Y-80066481D01*
X108711430Y-80130847D01*
X108710499Y-80180992D01*
X108708943Y-80219766D01*
X108706615Y-80250018D01*
X108703370Y-80274598D01*
X108699062Y-80296356D01*
X108695271Y-80311677D01*
X108669016Y-80381469D01*
X108630439Y-80437612D01*
X108579441Y-80480244D01*
X108571033Y-80485299D01*
X108542155Y-80500091D01*
X108515237Y-80508519D01*
X108483271Y-80512250D01*
X108454834Y-80512956D01*
X108416883Y-80511582D01*
X108380602Y-80507608D01*
X108353185Y-80501857D01*
X108350839Y-80501089D01*
X108319407Y-80483647D01*
X108284330Y-80454185D01*
X108250586Y-80417824D01*
X108223156Y-80379688D01*
X108211759Y-80357991D01*
X108194961Y-80319254D01*
X108142331Y-80362644D01*
X108109479Y-80389579D01*
X108072243Y-80419875D01*
X108033499Y-80451216D01*
X107996126Y-80481290D01*
X107963000Y-80507784D01*
X107937000Y-80528384D01*
X107921003Y-80540777D01*
X107918250Y-80542781D01*
X107913751Y-80541601D01*
X107910677Y-80529224D01*
X107908826Y-80503288D01*
X107907995Y-80461426D01*
X107907909Y-80422466D01*
X107908151Y-80294878D01*
X108034566Y-80195270D01*
X108160982Y-80095662D01*
X108161324Y-80018466D01*
X108161667Y-79941270D01*
X108331000Y-79941270D01*
X108331013Y-80068270D01*
X108331527Y-80125994D01*
X108333299Y-80167868D01*
X108336701Y-80197937D01*
X108342103Y-80220246D01*
X108345830Y-80230133D01*
X108369609Y-80265968D01*
X108402123Y-80288215D01*
X108439070Y-80296001D01*
X108476147Y-80288452D01*
X108509054Y-80264692D01*
X108510111Y-80263518D01*
X108527202Y-80237455D01*
X108539288Y-80201946D01*
X108546906Y-80154163D01*
X108550589Y-80091274D01*
X108551134Y-80046428D01*
X108551134Y-79941270D01*
X108331000Y-79941270D01*
X108161667Y-79941270D01*
X107907667Y-79941270D01*
X107907667Y-79722133D01*
X108551134Y-79722133D01*
G37*
X108383298Y-82629028D02*
X108458137Y-82653051D01*
X108528773Y-82693199D01*
X108592892Y-82749435D01*
X108603876Y-82761623D01*
X108654761Y-82833575D01*
X108692448Y-82915210D01*
X108716861Y-83003620D01*
X108727927Y-83095899D01*
X108725571Y-83189139D01*
X108709717Y-83280433D01*
X108680292Y-83366875D01*
X108637219Y-83445556D01*
X108622012Y-83466708D01*
X108574404Y-83521509D01*
X108524363Y-83562253D01*
X108465609Y-83593774D01*
X108446909Y-83601540D01*
X108366126Y-83623629D01*
X108286274Y-83626923D01*
X108209121Y-83612522D01*
X108136436Y-83581529D01*
X108069988Y-83535044D01*
X108011544Y-83474170D01*
X107962875Y-83400008D01*
X107925748Y-83313658D01*
X107912708Y-83268855D01*
X107902621Y-83207549D01*
X107898964Y-83135952D01*
X107900094Y-83104147D01*
X108069708Y-83104147D01*
X108071965Y-83175311D01*
X108081470Y-83219642D01*
X108106993Y-83278839D01*
X108144502Y-83327370D01*
X108191194Y-83364276D01*
X108244271Y-83388601D01*
X108300931Y-83399387D01*
X108358374Y-83395679D01*
X108413798Y-83376518D01*
X108456664Y-83347852D01*
X108501832Y-83298336D01*
X108534346Y-83239369D01*
X108553449Y-83174315D01*
X108558378Y-83106536D01*
X108548375Y-83039397D01*
X108535022Y-83001125D01*
X108509060Y-82957377D01*
X108472176Y-82915673D01*
X108430099Y-82881699D01*
X108396968Y-82864071D01*
X108351928Y-82853180D01*
X108300893Y-82851316D01*
X108250580Y-82858030D01*
X108207702Y-82872870D01*
X108199767Y-82877283D01*
X108148586Y-82918970D01*
X108109117Y-82972797D01*
X108082458Y-83035582D01*
X108069708Y-83104147D01*
X107900094Y-83104147D01*
X107901587Y-83062110D01*
X107910339Y-82994070D01*
X107918469Y-82959388D01*
X107946828Y-82878973D01*
X107982391Y-82811453D01*
X108026971Y-82752139D01*
X108088147Y-82694961D01*
X108156679Y-82654099D01*
X108230257Y-82629514D01*
X108300893Y-82621791D01*
X108306567Y-82621170D01*
X108383298Y-82629028D01*
G36*
X108383298Y-82629028D02*
G01*
X108458137Y-82653051D01*
X108528773Y-82693199D01*
X108592892Y-82749435D01*
X108603876Y-82761623D01*
X108654761Y-82833575D01*
X108692448Y-82915210D01*
X108716861Y-83003620D01*
X108727927Y-83095899D01*
X108725571Y-83189139D01*
X108709717Y-83280433D01*
X108680292Y-83366875D01*
X108637219Y-83445556D01*
X108622012Y-83466708D01*
X108574404Y-83521509D01*
X108524363Y-83562253D01*
X108465609Y-83593774D01*
X108446909Y-83601540D01*
X108366126Y-83623629D01*
X108286274Y-83626923D01*
X108209121Y-83612522D01*
X108136436Y-83581529D01*
X108069988Y-83535044D01*
X108011544Y-83474170D01*
X107962875Y-83400008D01*
X107925748Y-83313658D01*
X107912708Y-83268855D01*
X107902621Y-83207549D01*
X107898964Y-83135952D01*
X107900094Y-83104147D01*
X108069708Y-83104147D01*
X108071965Y-83175311D01*
X108081470Y-83219642D01*
X108106993Y-83278839D01*
X108144502Y-83327370D01*
X108191194Y-83364276D01*
X108244271Y-83388601D01*
X108300931Y-83399387D01*
X108358374Y-83395679D01*
X108413798Y-83376518D01*
X108456664Y-83347852D01*
X108501832Y-83298336D01*
X108534346Y-83239369D01*
X108553449Y-83174315D01*
X108558378Y-83106536D01*
X108548375Y-83039397D01*
X108535022Y-83001125D01*
X108509060Y-82957377D01*
X108472176Y-82915673D01*
X108430099Y-82881699D01*
X108396968Y-82864071D01*
X108351928Y-82853180D01*
X108300893Y-82851316D01*
X108250580Y-82858030D01*
X108207702Y-82872870D01*
X108199767Y-82877283D01*
X108148586Y-82918970D01*
X108109117Y-82972797D01*
X108082458Y-83035582D01*
X108069708Y-83104147D01*
X107900094Y-83104147D01*
X107901587Y-83062110D01*
X107910339Y-82994070D01*
X107918469Y-82959388D01*
X107946828Y-82878973D01*
X107982391Y-82811453D01*
X108026971Y-82752139D01*
X108088147Y-82694961D01*
X108156679Y-82654099D01*
X108230257Y-82629514D01*
X108300893Y-82621791D01*
X108306567Y-82621170D01*
X108383298Y-82629028D01*
G37*
X108313107Y-81487646D02*
X108365253Y-81488485D01*
X108434605Y-81502345D01*
X108496420Y-81530176D01*
X108553940Y-81573374D01*
X108602684Y-81624162D01*
X108657574Y-81701457D01*
X108696969Y-81786770D01*
X108720783Y-81879855D01*
X108728931Y-81980470D01*
X108728934Y-81982362D01*
X108721293Y-82084460D01*
X108699130Y-82178548D01*
X108663580Y-82263109D01*
X108615778Y-82336623D01*
X108556861Y-82397570D01*
X108487964Y-82444431D01*
X108410224Y-82475688D01*
X108351259Y-82487457D01*
X108271572Y-82487422D01*
X108193407Y-82468628D01*
X108119404Y-82432195D01*
X108052203Y-82379242D01*
X108023217Y-82348377D01*
X107971990Y-82278614D01*
X107935279Y-82205051D01*
X107911976Y-82124371D01*
X107900974Y-82033257D01*
X107899757Y-81978648D01*
X107900598Y-81954710D01*
X108069672Y-81954710D01*
X108069867Y-82022688D01*
X108085332Y-82089600D01*
X108088562Y-82098160D01*
X108121191Y-82158287D01*
X108164980Y-82205801D01*
X108217166Y-82239424D01*
X108274983Y-82257878D01*
X108335666Y-82259884D01*
X108396452Y-82244164D01*
X108400533Y-82242414D01*
X108456172Y-82209328D01*
X108499996Y-82163262D01*
X108530250Y-82111282D01*
X108543977Y-82079036D01*
X108551618Y-82050232D01*
X108554842Y-82016360D01*
X108555364Y-81983231D01*
X108554333Y-81940254D01*
X108550114Y-81908567D01*
X108541021Y-81879615D01*
X108529966Y-81854509D01*
X108492926Y-81794422D01*
X108445996Y-81750462D01*
X108389385Y-81722769D01*
X108323308Y-81711484D01*
X108313107Y-81711219D01*
X108274744Y-81712277D01*
X108245602Y-81717506D01*
X108218089Y-81728723D01*
X108201018Y-81738035D01*
X108150421Y-81777327D01*
X108110978Y-81828734D01*
X108083718Y-81888960D01*
X108069672Y-81954710D01*
X107900598Y-81954710D01*
X107901460Y-81930155D01*
X107905479Y-81881823D01*
X107911035Y-81842413D01*
X107912599Y-81834861D01*
X107941197Y-81747181D01*
X107984172Y-81667854D01*
X108039709Y-81599416D01*
X108105989Y-81544398D01*
X108132582Y-81528112D01*
X108164770Y-81510995D01*
X108191381Y-81499889D01*
X108218403Y-81493185D01*
X108251827Y-81489279D01*
X108285124Y-81487196D01*
X108313107Y-81487646D01*
G36*
X108313107Y-81487646D02*
G01*
X108365253Y-81488485D01*
X108434605Y-81502345D01*
X108496420Y-81530176D01*
X108553940Y-81573374D01*
X108602684Y-81624162D01*
X108657574Y-81701457D01*
X108696969Y-81786770D01*
X108720783Y-81879855D01*
X108728931Y-81980470D01*
X108728934Y-81982362D01*
X108721293Y-82084460D01*
X108699130Y-82178548D01*
X108663580Y-82263109D01*
X108615778Y-82336623D01*
X108556861Y-82397570D01*
X108487964Y-82444431D01*
X108410224Y-82475688D01*
X108351259Y-82487457D01*
X108271572Y-82487422D01*
X108193407Y-82468628D01*
X108119404Y-82432195D01*
X108052203Y-82379242D01*
X108023217Y-82348377D01*
X107971990Y-82278614D01*
X107935279Y-82205051D01*
X107911976Y-82124371D01*
X107900974Y-82033257D01*
X107899757Y-81978648D01*
X107900598Y-81954710D01*
X108069672Y-81954710D01*
X108069867Y-82022688D01*
X108085332Y-82089600D01*
X108088562Y-82098160D01*
X108121191Y-82158287D01*
X108164980Y-82205801D01*
X108217166Y-82239424D01*
X108274983Y-82257878D01*
X108335666Y-82259884D01*
X108396452Y-82244164D01*
X108400533Y-82242414D01*
X108456172Y-82209328D01*
X108499996Y-82163262D01*
X108530250Y-82111282D01*
X108543977Y-82079036D01*
X108551618Y-82050232D01*
X108554842Y-82016360D01*
X108555364Y-81983231D01*
X108554333Y-81940254D01*
X108550114Y-81908567D01*
X108541021Y-81879615D01*
X108529966Y-81854509D01*
X108492926Y-81794422D01*
X108445996Y-81750462D01*
X108389385Y-81722769D01*
X108323308Y-81711484D01*
X108313107Y-81711219D01*
X108274744Y-81712277D01*
X108245602Y-81717506D01*
X108218089Y-81728723D01*
X108201018Y-81738035D01*
X108150421Y-81777327D01*
X108110978Y-81828734D01*
X108083718Y-81888960D01*
X108069672Y-81954710D01*
X107900598Y-81954710D01*
X107901460Y-81930155D01*
X107905479Y-81881823D01*
X107911035Y-81842413D01*
X107912599Y-81834861D01*
X107941197Y-81747181D01*
X107984172Y-81667854D01*
X108039709Y-81599416D01*
X108105989Y-81544398D01*
X108132582Y-81528112D01*
X108164770Y-81510995D01*
X108191381Y-81499889D01*
X108218403Y-81493185D01*
X108251827Y-81489279D01*
X108285124Y-81487196D01*
X108313107Y-81487646D01*
G37*
X108709666Y-75547908D02*
X108710553Y-75573216D01*
X108710726Y-75610623D01*
X108710152Y-75654528D01*
X108707767Y-75770453D01*
X108455884Y-75860940D01*
X108393839Y-75883395D01*
X108337344Y-75904160D01*
X108288346Y-75922496D01*
X108248793Y-75937661D01*
X108220630Y-75948913D01*
X108205806Y-75955512D01*
X108204000Y-75956804D01*
X108211725Y-75961137D01*
X108233628Y-75970905D01*
X108267801Y-75985321D01*
X108312336Y-76003597D01*
X108365323Y-76024947D01*
X108424856Y-76048583D01*
X108460117Y-76062437D01*
X108716234Y-76162692D01*
X108716234Y-76348868D01*
X108460117Y-76449123D01*
X108397765Y-76473710D01*
X108340896Y-76496480D01*
X108291420Y-76516641D01*
X108251245Y-76533403D01*
X108222280Y-76545972D01*
X108206433Y-76553559D01*
X108204000Y-76555331D01*
X108211780Y-76559608D01*
X108233803Y-76568861D01*
X108268095Y-76582335D01*
X108312683Y-76599273D01*
X108365594Y-76618918D01*
X108424852Y-76640515D01*
X108449288Y-76649314D01*
X108511001Y-76671568D01*
X108567614Y-76692186D01*
X108617055Y-76710396D01*
X108657256Y-76725430D01*
X108686145Y-76736518D01*
X108701654Y-76742890D01*
X108703578Y-76743891D01*
X108707749Y-76757198D01*
X108710105Y-76788690D01*
X108710554Y-76836734D01*
X108710174Y-76860452D01*
X108707767Y-76970467D01*
X108307717Y-76811086D01*
X107907667Y-76651706D01*
X107907667Y-76459521D01*
X108151084Y-76361175D01*
X108212056Y-76336423D01*
X108267834Y-76313554D01*
X108316407Y-76293410D01*
X108355763Y-76276833D01*
X108383888Y-76264668D01*
X108398772Y-76257757D01*
X108400546Y-76256675D01*
X108394381Y-76252046D01*
X108374049Y-76241850D01*
X108341420Y-76226914D01*
X108298365Y-76208064D01*
X108246754Y-76186128D01*
X108188459Y-76161933D01*
X108159246Y-76150000D01*
X107911900Y-76049482D01*
X107909475Y-75953242D01*
X107908926Y-75904887D01*
X107910342Y-75873652D01*
X107913950Y-75856840D01*
X107917942Y-75852192D01*
X107931198Y-75846684D01*
X107957993Y-75835835D01*
X107996449Y-75820389D01*
X108044689Y-75801092D01*
X108100834Y-75778689D01*
X108163008Y-75753926D01*
X108229333Y-75727546D01*
X108297930Y-75700295D01*
X108366923Y-75672919D01*
X108434434Y-75646163D01*
X108498586Y-75620771D01*
X108557500Y-75597488D01*
X108609300Y-75577061D01*
X108652107Y-75560234D01*
X108684044Y-75547751D01*
X108703234Y-75540359D01*
X108708133Y-75538604D01*
X108709666Y-75547908D01*
G36*
X108709666Y-75547908D02*
G01*
X108710553Y-75573216D01*
X108710726Y-75610623D01*
X108710152Y-75654528D01*
X108707767Y-75770453D01*
X108455884Y-75860940D01*
X108393839Y-75883395D01*
X108337344Y-75904160D01*
X108288346Y-75922496D01*
X108248793Y-75937661D01*
X108220630Y-75948913D01*
X108205806Y-75955512D01*
X108204000Y-75956804D01*
X108211725Y-75961137D01*
X108233628Y-75970905D01*
X108267801Y-75985321D01*
X108312336Y-76003597D01*
X108365323Y-76024947D01*
X108424856Y-76048583D01*
X108460117Y-76062437D01*
X108716234Y-76162692D01*
X108716234Y-76348868D01*
X108460117Y-76449123D01*
X108397765Y-76473710D01*
X108340896Y-76496480D01*
X108291420Y-76516641D01*
X108251245Y-76533403D01*
X108222280Y-76545972D01*
X108206433Y-76553559D01*
X108204000Y-76555331D01*
X108211780Y-76559608D01*
X108233803Y-76568861D01*
X108268095Y-76582335D01*
X108312683Y-76599273D01*
X108365594Y-76618918D01*
X108424852Y-76640515D01*
X108449288Y-76649314D01*
X108511001Y-76671568D01*
X108567614Y-76692186D01*
X108617055Y-76710396D01*
X108657256Y-76725430D01*
X108686145Y-76736518D01*
X108701654Y-76742890D01*
X108703578Y-76743891D01*
X108707749Y-76757198D01*
X108710105Y-76788690D01*
X108710554Y-76836734D01*
X108710174Y-76860452D01*
X108707767Y-76970467D01*
X108307717Y-76811086D01*
X107907667Y-76651706D01*
X107907667Y-76459521D01*
X108151084Y-76361175D01*
X108212056Y-76336423D01*
X108267834Y-76313554D01*
X108316407Y-76293410D01*
X108355763Y-76276833D01*
X108383888Y-76264668D01*
X108398772Y-76257757D01*
X108400546Y-76256675D01*
X108394381Y-76252046D01*
X108374049Y-76241850D01*
X108341420Y-76226914D01*
X108298365Y-76208064D01*
X108246754Y-76186128D01*
X108188459Y-76161933D01*
X108159246Y-76150000D01*
X107911900Y-76049482D01*
X107909475Y-75953242D01*
X107908926Y-75904887D01*
X107910342Y-75873652D01*
X107913950Y-75856840D01*
X107917942Y-75852192D01*
X107931198Y-75846684D01*
X107957993Y-75835835D01*
X107996449Y-75820389D01*
X108044689Y-75801092D01*
X108100834Y-75778689D01*
X108163008Y-75753926D01*
X108229333Y-75727546D01*
X108297930Y-75700295D01*
X108366923Y-75672919D01*
X108434434Y-75646163D01*
X108498586Y-75620771D01*
X108557500Y-75597488D01*
X108609300Y-75577061D01*
X108652107Y-75560234D01*
X108684044Y-75547751D01*
X108703234Y-75540359D01*
X108708133Y-75538604D01*
X108709666Y-75547908D01*
G37*
X111578401Y-74582163D02*
X111591384Y-74605272D01*
X111610586Y-74641855D01*
X111635001Y-74689940D01*
X111663627Y-74747558D01*
X111695461Y-74812736D01*
X111722237Y-74868319D01*
X111755798Y-74938350D01*
X111786693Y-75002724D01*
X111813945Y-75059415D01*
X111836581Y-75106402D01*
X111853626Y-75141659D01*
X111864105Y-75163163D01*
X111867096Y-75169090D01*
X111875513Y-75167268D01*
X111899166Y-75160827D01*
X111936891Y-75150110D01*
X111987525Y-75135460D01*
X112049904Y-75117219D01*
X112122865Y-75095730D01*
X112205243Y-75071336D01*
X112295875Y-75044380D01*
X112393598Y-75015203D01*
X112497247Y-74984150D01*
X112605660Y-74951563D01*
X112606899Y-74951190D01*
X112715395Y-74918593D01*
X112819171Y-74887548D01*
X112917061Y-74858397D01*
X113007897Y-74831481D01*
X113090513Y-74807141D01*
X113163742Y-74785719D01*
X113226417Y-74767555D01*
X113277371Y-74752992D01*
X113315439Y-74742371D01*
X113339452Y-74736032D01*
X113348245Y-74734317D01*
X113348252Y-74734324D01*
X113347354Y-74744589D01*
X113343479Y-74772429D01*
X113336949Y-74815879D01*
X113328087Y-74872976D01*
X113317218Y-74941754D01*
X113304665Y-75020249D01*
X113290750Y-75106497D01*
X113275798Y-75198533D01*
X113260131Y-75294394D01*
X113244074Y-75392114D01*
X113227949Y-75489729D01*
X113212081Y-75585275D01*
X113196791Y-75676787D01*
X113182404Y-75762301D01*
X113169244Y-75839853D01*
X113157633Y-75907478D01*
X113147894Y-75963211D01*
X113140353Y-76005089D01*
X113135330Y-76031146D01*
X113133475Y-76038958D01*
X113124404Y-76051478D01*
X113103232Y-76074084D01*
X113071621Y-76105253D01*
X113031232Y-76143462D01*
X112983725Y-76187190D01*
X112930763Y-76234913D01*
X112874006Y-76285110D01*
X112815116Y-76336257D01*
X112755753Y-76386833D01*
X112733667Y-76405376D01*
X112545959Y-76558826D01*
X112351780Y-76710944D01*
X112152412Y-76860956D01*
X111949134Y-77008082D01*
X111743228Y-77151547D01*
X111535976Y-77290572D01*
X111328658Y-77424380D01*
X111122555Y-77552195D01*
X110918948Y-77673239D01*
X110719118Y-77786734D01*
X110524347Y-77891903D01*
X110335915Y-77987970D01*
X110155104Y-78074156D01*
X109983194Y-78149685D01*
X109821466Y-78213779D01*
X109671202Y-78265661D01*
X109663877Y-78267963D01*
X109561654Y-78299926D01*
X109642778Y-78390971D01*
X109824964Y-78588516D01*
X110005323Y-78769630D01*
X110186926Y-78936949D01*
X110372846Y-79093110D01*
X110566156Y-79240751D01*
X110769929Y-79382509D01*
X110885817Y-79457805D01*
X110929330Y-79485831D01*
X110967181Y-79510961D01*
X110997034Y-79531582D01*
X111016552Y-79546081D01*
X111023400Y-79552800D01*
X111016307Y-79559715D01*
X110996583Y-79574337D01*
X110966567Y-79595053D01*
X110928594Y-79620249D01*
X110885817Y-79647794D01*
X110675132Y-79787435D01*
X110476573Y-79931527D01*
X110287067Y-80082706D01*
X110103543Y-80243608D01*
X109922927Y-80416872D01*
X109742147Y-80605133D01*
X109642745Y-80714666D01*
X109561587Y-80805749D01*
X109634210Y-80828123D01*
X109791936Y-80881368D01*
X109961054Y-80947205D01*
X110140351Y-81024927D01*
X110328612Y-81113826D01*
X110524621Y-81213196D01*
X110727165Y-81322330D01*
X110935027Y-81440520D01*
X111146995Y-81567059D01*
X111361852Y-81701241D01*
X111578385Y-81842357D01*
X111795378Y-81989702D01*
X112011617Y-82142569D01*
X112225887Y-82300249D01*
X112424540Y-82452319D01*
X112512747Y-82521821D01*
X112599544Y-82591457D01*
X112683776Y-82660221D01*
X112764290Y-82727105D01*
X112839933Y-82791101D01*
X112909552Y-82851203D01*
X112971993Y-82906403D01*
X113026105Y-82955694D01*
X113070732Y-82998070D01*
X113104723Y-83032522D01*
X113126924Y-83058043D01*
X113136181Y-83073628D01*
X113136248Y-83073937D01*
X113141028Y-83099728D01*
X113148333Y-83141361D01*
X113157842Y-83196871D01*
X113169234Y-83264298D01*
X113182190Y-83341678D01*
X113196389Y-83427050D01*
X113211510Y-83518452D01*
X113227232Y-83613920D01*
X113243235Y-83711494D01*
X113259199Y-83809211D01*
X113274803Y-83905108D01*
X113289726Y-83997223D01*
X113303648Y-84083594D01*
X113316249Y-84162259D01*
X113327207Y-84231256D01*
X113336202Y-84288622D01*
X113342914Y-84332395D01*
X113347022Y-84360613D01*
X113348206Y-84371314D01*
X113348190Y-84371348D01*
X113339551Y-84369666D01*
X113315681Y-84363358D01*
X113277745Y-84352765D01*
X113226912Y-84338228D01*
X113164346Y-84320088D01*
X113091215Y-84298687D01*
X113008686Y-84274366D01*
X112917925Y-84247468D01*
X112820099Y-84218332D01*
X112716375Y-84187301D01*
X112607918Y-84154716D01*
X112606899Y-84154409D01*
X112498444Y-84121807D01*
X112394743Y-84090736D01*
X112296959Y-84061538D01*
X112206255Y-84034555D01*
X112123795Y-84010131D01*
X112050741Y-83988607D01*
X111988257Y-83970328D01*
X111937507Y-83955635D01*
X111899653Y-83944871D01*
X111875859Y-83938380D01*
X111867288Y-83936503D01*
X111867282Y-83936509D01*
X111862665Y-83945826D01*
X111850708Y-83970475D01*
X111832384Y-84008433D01*
X111808668Y-84057677D01*
X111780533Y-84116186D01*
X111748955Y-84181937D01*
X111722404Y-84237273D01*
X111688697Y-84307022D01*
X111657399Y-84370765D01*
X111629515Y-84426535D01*
X111606051Y-84472361D01*
X111588011Y-84506275D01*
X111576402Y-84526308D01*
X111572436Y-84531023D01*
X111567058Y-84522493D01*
X111552919Y-84498134D01*
X111530503Y-84458812D01*
X111500292Y-84405389D01*
X111462769Y-84338730D01*
X111418417Y-84259698D01*
X111367719Y-84169157D01*
X111311157Y-84067971D01*
X111249215Y-83957003D01*
X111182375Y-83837119D01*
X111111120Y-83709180D01*
X111035934Y-83574052D01*
X110957298Y-83432598D01*
X110875696Y-83285681D01*
X110791610Y-83134167D01*
X110785775Y-83123647D01*
X110701512Y-82971835D01*
X110619670Y-82824566D01*
X110540732Y-82682704D01*
X110465185Y-82547112D01*
X110393511Y-82418655D01*
X110326197Y-82298197D01*
X110263726Y-82186602D01*
X110206583Y-82084732D01*
X110155253Y-81993454D01*
X110110221Y-81913630D01*
X110071971Y-81846124D01*
X110040987Y-81791800D01*
X110017756Y-81751523D01*
X110002760Y-81726156D01*
X109996485Y-81716562D01*
X109996389Y-81716505D01*
X109986605Y-81718935D01*
X109962182Y-81726919D01*
X109924605Y-81739924D01*
X109875357Y-81757414D01*
X109815924Y-81778856D01*
X109747789Y-81803715D01*
X109672437Y-81831456D01*
X109591352Y-81861546D01*
X109533159Y-81883277D01*
X109448943Y-81914731D01*
X109369409Y-81944294D01*
X109296045Y-81971422D01*
X109230343Y-81995571D01*
X109173793Y-82016197D01*
X109127883Y-82032755D01*
X109094104Y-82044701D01*
X109073947Y-82051491D01*
X109068775Y-82052885D01*
X109061280Y-82046789D01*
X109061282Y-82026212D01*
X109062047Y-82020584D01*
X109063646Y-82006742D01*
X109067128Y-81974357D01*
X109072364Y-81924663D01*
X109079228Y-81858899D01*
X109087591Y-81778300D01*
X109097326Y-81684104D01*
X109108306Y-81577546D01*
X109120404Y-81459864D01*
X109133491Y-81332295D01*
X109147441Y-81196074D01*
X109162126Y-81052438D01*
X109177418Y-80902625D01*
X109190771Y-80771621D01*
X109314698Y-79555030D01*
X109191060Y-78341189D01*
X109175364Y-78187171D01*
X109160166Y-78038210D01*
X109145594Y-77895553D01*
X109131776Y-77760442D01*
X109118841Y-77634124D01*
X109106915Y-77517842D01*
X109096128Y-77412842D01*
X109086606Y-77320368D01*
X109078477Y-77241666D01*
X109071870Y-77177979D01*
X109066912Y-77130554D01*
X109063731Y-77100633D01*
X109062534Y-77089996D01*
X109061086Y-77063234D01*
X109066280Y-77052913D01*
X109068096Y-77052643D01*
X109077895Y-77055581D01*
X109102344Y-77064037D01*
X109139963Y-77077468D01*
X109189271Y-77095335D01*
X109248787Y-77117096D01*
X109317030Y-77142210D01*
X109392520Y-77170136D01*
X109473775Y-77200335D01*
X109534267Y-77222900D01*
X109618631Y-77254306D01*
X109698223Y-77283717D01*
X109771572Y-77310605D01*
X109837206Y-77334440D01*
X109893654Y-77354694D01*
X109939445Y-77370837D01*
X109973108Y-77382341D01*
X109993170Y-77388677D01*
X109998363Y-77389744D01*
X110003822Y-77381168D01*
X110018041Y-77356765D01*
X110040536Y-77317398D01*
X110070825Y-77263933D01*
X110108424Y-77197232D01*
X110152849Y-77118161D01*
X110203617Y-77027582D01*
X110260246Y-76926361D01*
X110322250Y-76815361D01*
X110389148Y-76695447D01*
X110460455Y-76567482D01*
X110535688Y-76432331D01*
X110614364Y-76290858D01*
X110695999Y-76143927D01*
X110780111Y-75992401D01*
X110785948Y-75981880D01*
X110870201Y-75830085D01*
X110952000Y-75682829D01*
X111030865Y-75540976D01*
X111106311Y-75405390D01*
X111177857Y-75276934D01*
X111245019Y-75156473D01*
X111307315Y-75044869D01*
X111364261Y-74942987D01*
X111415376Y-74851690D01*
X111460176Y-74771842D01*
X111498178Y-74704306D01*
X111528900Y-74649946D01*
X111551860Y-74609626D01*
X111566574Y-74584209D01*
X111572559Y-74574560D01*
X111572638Y-74574497D01*
X111578401Y-74582163D01*
G36*
X111578401Y-74582163D02*
G01*
X111591384Y-74605272D01*
X111610586Y-74641855D01*
X111635001Y-74689940D01*
X111663627Y-74747558D01*
X111695461Y-74812736D01*
X111722237Y-74868319D01*
X111755798Y-74938350D01*
X111786693Y-75002724D01*
X111813945Y-75059415D01*
X111836581Y-75106402D01*
X111853626Y-75141659D01*
X111864105Y-75163163D01*
X111867096Y-75169090D01*
X111875513Y-75167268D01*
X111899166Y-75160827D01*
X111936891Y-75150110D01*
X111987525Y-75135460D01*
X112049904Y-75117219D01*
X112122865Y-75095730D01*
X112205243Y-75071336D01*
X112295875Y-75044380D01*
X112393598Y-75015203D01*
X112497247Y-74984150D01*
X112605660Y-74951563D01*
X112606899Y-74951190D01*
X112715395Y-74918593D01*
X112819171Y-74887548D01*
X112917061Y-74858397D01*
X113007897Y-74831481D01*
X113090513Y-74807141D01*
X113163742Y-74785719D01*
X113226417Y-74767555D01*
X113277371Y-74752992D01*
X113315439Y-74742371D01*
X113339452Y-74736032D01*
X113348245Y-74734317D01*
X113348252Y-74734324D01*
X113347354Y-74744589D01*
X113343479Y-74772429D01*
X113336949Y-74815879D01*
X113328087Y-74872976D01*
X113317218Y-74941754D01*
X113304665Y-75020249D01*
X113290750Y-75106497D01*
X113275798Y-75198533D01*
X113260131Y-75294394D01*
X113244074Y-75392114D01*
X113227949Y-75489729D01*
X113212081Y-75585275D01*
X113196791Y-75676787D01*
X113182404Y-75762301D01*
X113169244Y-75839853D01*
X113157633Y-75907478D01*
X113147894Y-75963211D01*
X113140353Y-76005089D01*
X113135330Y-76031146D01*
X113133475Y-76038958D01*
X113124404Y-76051478D01*
X113103232Y-76074084D01*
X113071621Y-76105253D01*
X113031232Y-76143462D01*
X112983725Y-76187190D01*
X112930763Y-76234913D01*
X112874006Y-76285110D01*
X112815116Y-76336257D01*
X112755753Y-76386833D01*
X112733667Y-76405376D01*
X112545959Y-76558826D01*
X112351780Y-76710944D01*
X112152412Y-76860956D01*
X111949134Y-77008082D01*
X111743228Y-77151547D01*
X111535976Y-77290572D01*
X111328658Y-77424380D01*
X111122555Y-77552195D01*
X110918948Y-77673239D01*
X110719118Y-77786734D01*
X110524347Y-77891903D01*
X110335915Y-77987970D01*
X110155104Y-78074156D01*
X109983194Y-78149685D01*
X109821466Y-78213779D01*
X109671202Y-78265661D01*
X109663877Y-78267963D01*
X109561654Y-78299926D01*
X109642778Y-78390971D01*
X109824964Y-78588516D01*
X110005323Y-78769630D01*
X110186926Y-78936949D01*
X110372846Y-79093110D01*
X110566156Y-79240751D01*
X110769929Y-79382509D01*
X110885817Y-79457805D01*
X110929330Y-79485831D01*
X110967181Y-79510961D01*
X110997034Y-79531582D01*
X111016552Y-79546081D01*
X111023400Y-79552800D01*
X111016307Y-79559715D01*
X110996583Y-79574337D01*
X110966567Y-79595053D01*
X110928594Y-79620249D01*
X110885817Y-79647794D01*
X110675132Y-79787435D01*
X110476573Y-79931527D01*
X110287067Y-80082706D01*
X110103543Y-80243608D01*
X109922927Y-80416872D01*
X109742147Y-80605133D01*
X109642745Y-80714666D01*
X109561587Y-80805749D01*
X109634210Y-80828123D01*
X109791936Y-80881368D01*
X109961054Y-80947205D01*
X110140351Y-81024927D01*
X110328612Y-81113826D01*
X110524621Y-81213196D01*
X110727165Y-81322330D01*
X110935027Y-81440520D01*
X111146995Y-81567059D01*
X111361852Y-81701241D01*
X111578385Y-81842357D01*
X111795378Y-81989702D01*
X112011617Y-82142569D01*
X112225887Y-82300249D01*
X112424540Y-82452319D01*
X112512747Y-82521821D01*
X112599544Y-82591457D01*
X112683776Y-82660221D01*
X112764290Y-82727105D01*
X112839933Y-82791101D01*
X112909552Y-82851203D01*
X112971993Y-82906403D01*
X113026105Y-82955694D01*
X113070732Y-82998070D01*
X113104723Y-83032522D01*
X113126924Y-83058043D01*
X113136181Y-83073628D01*
X113136248Y-83073937D01*
X113141028Y-83099728D01*
X113148333Y-83141361D01*
X113157842Y-83196871D01*
X113169234Y-83264298D01*
X113182190Y-83341678D01*
X113196389Y-83427050D01*
X113211510Y-83518452D01*
X113227232Y-83613920D01*
X113243235Y-83711494D01*
X113259199Y-83809211D01*
X113274803Y-83905108D01*
X113289726Y-83997223D01*
X113303648Y-84083594D01*
X113316249Y-84162259D01*
X113327207Y-84231256D01*
X113336202Y-84288622D01*
X113342914Y-84332395D01*
X113347022Y-84360613D01*
X113348206Y-84371314D01*
X113348190Y-84371348D01*
X113339551Y-84369666D01*
X113315681Y-84363358D01*
X113277745Y-84352765D01*
X113226912Y-84338228D01*
X113164346Y-84320088D01*
X113091215Y-84298687D01*
X113008686Y-84274366D01*
X112917925Y-84247468D01*
X112820099Y-84218332D01*
X112716375Y-84187301D01*
X112607918Y-84154716D01*
X112606899Y-84154409D01*
X112498444Y-84121807D01*
X112394743Y-84090736D01*
X112296959Y-84061538D01*
X112206255Y-84034555D01*
X112123795Y-84010131D01*
X112050741Y-83988607D01*
X111988257Y-83970328D01*
X111937507Y-83955635D01*
X111899653Y-83944871D01*
X111875859Y-83938380D01*
X111867288Y-83936503D01*
X111867282Y-83936509D01*
X111862665Y-83945826D01*
X111850708Y-83970475D01*
X111832384Y-84008433D01*
X111808668Y-84057677D01*
X111780533Y-84116186D01*
X111748955Y-84181937D01*
X111722404Y-84237273D01*
X111688697Y-84307022D01*
X111657399Y-84370765D01*
X111629515Y-84426535D01*
X111606051Y-84472361D01*
X111588011Y-84506275D01*
X111576402Y-84526308D01*
X111572436Y-84531023D01*
X111567058Y-84522493D01*
X111552919Y-84498134D01*
X111530503Y-84458812D01*
X111500292Y-84405389D01*
X111462769Y-84338730D01*
X111418417Y-84259698D01*
X111367719Y-84169157D01*
X111311157Y-84067971D01*
X111249215Y-83957003D01*
X111182375Y-83837119D01*
X111111120Y-83709180D01*
X111035934Y-83574052D01*
X110957298Y-83432598D01*
X110875696Y-83285681D01*
X110791610Y-83134167D01*
X110785775Y-83123647D01*
X110701512Y-82971835D01*
X110619670Y-82824566D01*
X110540732Y-82682704D01*
X110465185Y-82547112D01*
X110393511Y-82418655D01*
X110326197Y-82298197D01*
X110263726Y-82186602D01*
X110206583Y-82084732D01*
X110155253Y-81993454D01*
X110110221Y-81913630D01*
X110071971Y-81846124D01*
X110040987Y-81791800D01*
X110017756Y-81751523D01*
X110002760Y-81726156D01*
X109996485Y-81716562D01*
X109996389Y-81716505D01*
X109986605Y-81718935D01*
X109962182Y-81726919D01*
X109924605Y-81739924D01*
X109875357Y-81757414D01*
X109815924Y-81778856D01*
X109747789Y-81803715D01*
X109672437Y-81831456D01*
X109591352Y-81861546D01*
X109533159Y-81883277D01*
X109448943Y-81914731D01*
X109369409Y-81944294D01*
X109296045Y-81971422D01*
X109230343Y-81995571D01*
X109173793Y-82016197D01*
X109127883Y-82032755D01*
X109094104Y-82044701D01*
X109073947Y-82051491D01*
X109068775Y-82052885D01*
X109061280Y-82046789D01*
X109061282Y-82026212D01*
X109062047Y-82020584D01*
X109063646Y-82006742D01*
X109067128Y-81974357D01*
X109072364Y-81924663D01*
X109079228Y-81858899D01*
X109087591Y-81778300D01*
X109097326Y-81684104D01*
X109108306Y-81577546D01*
X109120404Y-81459864D01*
X109133491Y-81332295D01*
X109147441Y-81196074D01*
X109162126Y-81052438D01*
X109177418Y-80902625D01*
X109190771Y-80771621D01*
X109314698Y-79555030D01*
X109191060Y-78341189D01*
X109175364Y-78187171D01*
X109160166Y-78038210D01*
X109145594Y-77895553D01*
X109131776Y-77760442D01*
X109118841Y-77634124D01*
X109106915Y-77517842D01*
X109096128Y-77412842D01*
X109086606Y-77320368D01*
X109078477Y-77241666D01*
X109071870Y-77177979D01*
X109066912Y-77130554D01*
X109063731Y-77100633D01*
X109062534Y-77089996D01*
X109061086Y-77063234D01*
X109066280Y-77052913D01*
X109068096Y-77052643D01*
X109077895Y-77055581D01*
X109102344Y-77064037D01*
X109139963Y-77077468D01*
X109189271Y-77095335D01*
X109248787Y-77117096D01*
X109317030Y-77142210D01*
X109392520Y-77170136D01*
X109473775Y-77200335D01*
X109534267Y-77222900D01*
X109618631Y-77254306D01*
X109698223Y-77283717D01*
X109771572Y-77310605D01*
X109837206Y-77334440D01*
X109893654Y-77354694D01*
X109939445Y-77370837D01*
X109973108Y-77382341D01*
X109993170Y-77388677D01*
X109998363Y-77389744D01*
X110003822Y-77381168D01*
X110018041Y-77356765D01*
X110040536Y-77317398D01*
X110070825Y-77263933D01*
X110108424Y-77197232D01*
X110152849Y-77118161D01*
X110203617Y-77027582D01*
X110260246Y-76926361D01*
X110322250Y-76815361D01*
X110389148Y-76695447D01*
X110460455Y-76567482D01*
X110535688Y-76432331D01*
X110614364Y-76290858D01*
X110695999Y-76143927D01*
X110780111Y-75992401D01*
X110785948Y-75981880D01*
X110870201Y-75830085D01*
X110952000Y-75682829D01*
X111030865Y-75540976D01*
X111106311Y-75405390D01*
X111177857Y-75276934D01*
X111245019Y-75156473D01*
X111307315Y-75044869D01*
X111364261Y-74942987D01*
X111415376Y-74851690D01*
X111460176Y-74771842D01*
X111498178Y-74704306D01*
X111528900Y-74649946D01*
X111551860Y-74609626D01*
X111566574Y-74584209D01*
X111572559Y-74574560D01*
X111572638Y-74574497D01*
X111578401Y-74582163D01*
G37*
X113333368Y-76401555D02*
X113394797Y-76427814D01*
X113458003Y-76455124D01*
X113521004Y-76482604D01*
X113581815Y-76509372D01*
X113638453Y-76534547D01*
X113688935Y-76557249D01*
X113731278Y-76576595D01*
X113763498Y-76591705D01*
X113783612Y-76601696D01*
X113789720Y-76605611D01*
X113783928Y-76613842D01*
X113767726Y-76635847D01*
X113741949Y-76670511D01*
X113707437Y-76716717D01*
X113665024Y-76773348D01*
X113615551Y-76839287D01*
X113559852Y-76913420D01*
X113498767Y-76994628D01*
X113433131Y-77081796D01*
X113363783Y-77173807D01*
X113327773Y-77221552D01*
X113256992Y-77315477D01*
X113189617Y-77405076D01*
X113126473Y-77489240D01*
X113068386Y-77566860D01*
X113016181Y-77636825D01*
X112970685Y-77698026D01*
X112932722Y-77749354D01*
X112903120Y-77789699D01*
X112882703Y-77817950D01*
X112872298Y-77832998D01*
X112871113Y-77835233D01*
X112879789Y-77834778D01*
X112904329Y-77832512D01*
X112943739Y-77828542D01*
X112997028Y-77822976D01*
X113063205Y-77815923D01*
X113141277Y-77807491D01*
X113230253Y-77797788D01*
X113329141Y-77786922D01*
X113436949Y-77775003D01*
X113552686Y-77762137D01*
X113675359Y-77748434D01*
X113791700Y-77735379D01*
X113803977Y-77734001D01*
X113937547Y-77718947D01*
X113973870Y-77714843D01*
X114108588Y-77699639D01*
X114238612Y-77685022D01*
X114362953Y-77671101D01*
X114480617Y-77657983D01*
X114590614Y-77645778D01*
X114691953Y-77634594D01*
X114783641Y-77624539D01*
X114864688Y-77615723D01*
X114934102Y-77608254D01*
X114990892Y-77602240D01*
X115034067Y-77597790D01*
X115062634Y-77595014D01*
X115075603Y-77594018D01*
X115076300Y-77594068D01*
X115073607Y-77603608D01*
X115064749Y-77629681D01*
X115050347Y-77670568D01*
X115031020Y-77724549D01*
X115007389Y-77789904D01*
X114980074Y-77864913D01*
X114949694Y-77947857D01*
X114916870Y-78037016D01*
X114905554Y-78067654D01*
X114871962Y-78158672D01*
X114840510Y-78244175D01*
X114811828Y-78322424D01*
X114786551Y-78391677D01*
X114765311Y-78450195D01*
X114748742Y-78496237D01*
X114737477Y-78528062D01*
X114732148Y-78543930D01*
X114731800Y-78545357D01*
X114739041Y-78551155D01*
X114760109Y-78565965D01*
X114794025Y-78589136D01*
X114839810Y-78620016D01*
X114896482Y-78657954D01*
X114963064Y-78702298D01*
X115038574Y-78752396D01*
X115122034Y-78807598D01*
X115212462Y-78867251D01*
X115308881Y-78930704D01*
X115410308Y-78997306D01*
X115489567Y-79049252D01*
X115594125Y-79117794D01*
X115694412Y-79183675D01*
X115789450Y-79246241D01*
X115878258Y-79304843D01*
X115959857Y-79358830D01*
X116033267Y-79407550D01*
X116097507Y-79450352D01*
X116151599Y-79486585D01*
X116194563Y-79515598D01*
X116225418Y-79536740D01*
X116243186Y-79549359D01*
X116247333Y-79552845D01*
X116240094Y-79558601D01*
X116219027Y-79573373D01*
X116185113Y-79596507D01*
X116139331Y-79627355D01*
X116082662Y-79665263D01*
X116016084Y-79709582D01*
X115940578Y-79759660D01*
X115857124Y-79814845D01*
X115766700Y-79874487D01*
X115670287Y-79937934D01*
X115568864Y-80004536D01*
X115489567Y-80056514D01*
X115385006Y-80125078D01*
X115284715Y-80190995D01*
X115189675Y-80253613D01*
X115100865Y-80312280D01*
X115019265Y-80366343D01*
X114945855Y-80415151D01*
X114881614Y-80458049D01*
X114827523Y-80494387D01*
X114784561Y-80523511D01*
X114753708Y-80544769D01*
X114735944Y-80557509D01*
X114731800Y-80561087D01*
X114735084Y-80571562D01*
X114744511Y-80598549D01*
X114759449Y-80640303D01*
X114779264Y-80695081D01*
X114803321Y-80761138D01*
X114830987Y-80836730D01*
X114861627Y-80920113D01*
X114894608Y-81009542D01*
X114905429Y-81038815D01*
X114938923Y-81129591D01*
X114970180Y-81214718D01*
X114998579Y-81292476D01*
X115023500Y-81361144D01*
X115044322Y-81419002D01*
X115060422Y-81464332D01*
X115071182Y-81495411D01*
X115075979Y-81510522D01*
X115076150Y-81511709D01*
X115067526Y-81511193D01*
X115043039Y-81508866D01*
X115003680Y-81504839D01*
X114950440Y-81499218D01*
X114884311Y-81492114D01*
X114806284Y-81483634D01*
X114717350Y-81473888D01*
X114618500Y-81462984D01*
X114510727Y-81451031D01*
X114395020Y-81438138D01*
X114272372Y-81424413D01*
X114143773Y-81409965D01*
X114010215Y-81394903D01*
X113973840Y-81390792D01*
X113839117Y-81375588D01*
X113709082Y-81360977D01*
X113584726Y-81347067D01*
X113467043Y-81333967D01*
X113357023Y-81321785D01*
X113255658Y-81310628D01*
X113163941Y-81300607D01*
X113082863Y-81291827D01*
X113013415Y-81284399D01*
X112956591Y-81278429D01*
X112913381Y-81274027D01*
X112884778Y-81271301D01*
X112871773Y-81270358D01*
X112871066Y-81270422D01*
X112876029Y-81278299D01*
X112891426Y-81299946D01*
X112916431Y-81334253D01*
X112950220Y-81380109D01*
X112991966Y-81436405D01*
X113040843Y-81502032D01*
X113096026Y-81575879D01*
X113156689Y-81656838D01*
X113222006Y-81743798D01*
X113291151Y-81835649D01*
X113327730Y-81884160D01*
X113398635Y-81978183D01*
X113466250Y-82067923D01*
X113529738Y-82152265D01*
X113588262Y-82230090D01*
X113640984Y-82300284D01*
X113687067Y-82361730D01*
X113725672Y-82413311D01*
X113755963Y-82453912D01*
X113777102Y-82482416D01*
X113788251Y-82497706D01*
X113789819Y-82500051D01*
X113782604Y-82504610D01*
X113761320Y-82515131D01*
X113727818Y-82530792D01*
X113683950Y-82550769D01*
X113631567Y-82574241D01*
X113572522Y-82600386D01*
X113508666Y-82628381D01*
X113441850Y-82657404D01*
X113373927Y-82686633D01*
X113306749Y-82715244D01*
X113275658Y-82728372D01*
X113266763Y-82723399D01*
X113248205Y-82707575D01*
X113222835Y-82683469D01*
X113197874Y-82658214D01*
X113077162Y-82535642D01*
X112945762Y-82407323D01*
X112805172Y-82274488D01*
X112656891Y-82138365D01*
X112502416Y-82000185D01*
X112343247Y-81861178D01*
X112180882Y-81722573D01*
X112016818Y-81585601D01*
X111852555Y-81451490D01*
X111689590Y-81321472D01*
X111529422Y-81196776D01*
X111373549Y-81078631D01*
X111223470Y-80968268D01*
X111080683Y-80866916D01*
X110946686Y-80775806D01*
X110822977Y-80696166D01*
X110762751Y-80659420D01*
X110742646Y-80645158D01*
X110731851Y-80632956D01*
X110731329Y-80628509D01*
X110739908Y-80620241D01*
X110760277Y-80603663D01*
X110789777Y-80580854D01*
X110825749Y-80553892D01*
X110843811Y-80540612D01*
X111006974Y-80427250D01*
X111177596Y-80320380D01*
X111356623Y-80219619D01*
X111545000Y-80124581D01*
X111743673Y-80034882D01*
X111953587Y-79950136D01*
X112175688Y-79869960D01*
X112410920Y-79793967D01*
X112660229Y-79721774D01*
X112924562Y-79652996D01*
X113163350Y-79596572D01*
X113214736Y-79584705D01*
X113259968Y-79573800D01*
X113296590Y-79564486D01*
X113322148Y-79557394D01*
X113334186Y-79553154D01*
X113334800Y-79552574D01*
X113326948Y-79549023D01*
X113305313Y-79542695D01*
X113272776Y-79534347D01*
X113232219Y-79524738D01*
X113209917Y-79519716D01*
X112922084Y-79452402D01*
X112650120Y-79381344D01*
X112393211Y-79306213D01*
X112150546Y-79226682D01*
X111921309Y-79142422D01*
X111704689Y-79053105D01*
X111673799Y-79038822D01*
X113791700Y-79038822D01*
X113795140Y-79044305D01*
X113808090Y-79061100D01*
X113828238Y-79086254D01*
X113842500Y-79103740D01*
X113872248Y-79142914D01*
X113901689Y-79186540D01*
X113925467Y-79226571D01*
X113929855Y-79234987D01*
X113960562Y-79303774D01*
X113981408Y-79370462D01*
X113993723Y-79441251D01*
X113998841Y-79522343D01*
X113999173Y-79557780D01*
X113998564Y-79612882D01*
X113996537Y-79654161D01*
X113992376Y-79687698D01*
X113985366Y-79719575D01*
X113976489Y-79750368D01*
X113944389Y-79838248D01*
X113904147Y-79915725D01*
X113851940Y-79989966D01*
X113842500Y-80001683D01*
X113819215Y-80030430D01*
X113801761Y-80052546D01*
X113792446Y-80065077D01*
X113791700Y-80066778D01*
X113800285Y-80063507D01*
X113823860Y-80054756D01*
X113861244Y-80040960D01*
X113911258Y-80022550D01*
X113972721Y-79999961D01*
X114044454Y-79973625D01*
X114125274Y-79943977D01*
X114214004Y-79911450D01*
X114309461Y-79876476D01*
X114410467Y-79839490D01*
X114488248Y-79811021D01*
X114592496Y-79772815D01*
X114691978Y-79736245D01*
X114785525Y-79701747D01*
X114871965Y-79669759D01*
X114950129Y-79640717D01*
X115018845Y-79615058D01*
X115076943Y-79593219D01*
X115123253Y-79575636D01*
X115156603Y-79562747D01*
X115175824Y-79554988D01*
X115180263Y-79552800D01*
X115172370Y-79549161D01*
X115149473Y-79540066D01*
X115112741Y-79525951D01*
X115063346Y-79507253D01*
X115002457Y-79484408D01*
X114931247Y-79457854D01*
X114850884Y-79428028D01*
X114762539Y-79395365D01*
X114667384Y-79360303D01*
X114566589Y-79323279D01*
X114488248Y-79294579D01*
X114383891Y-79256380D01*
X114284206Y-79219872D01*
X114190375Y-79185489D01*
X114103577Y-79153665D01*
X114024992Y-79124831D01*
X113955802Y-79099423D01*
X113897185Y-79077873D01*
X113850323Y-79060614D01*
X113816395Y-79048080D01*
X113796582Y-79040705D01*
X113791700Y-79038822D01*
X111673799Y-79038822D01*
X111499871Y-78958402D01*
X111306042Y-78857986D01*
X111122389Y-78751528D01*
X110948098Y-78638701D01*
X110843811Y-78564987D01*
X110805748Y-78536808D01*
X110772929Y-78511823D01*
X110748012Y-78492109D01*
X110733657Y-78479744D01*
X110731329Y-78477090D01*
X110735262Y-78467705D01*
X110750698Y-78454103D01*
X110762751Y-78446179D01*
X110879706Y-78373516D01*
X111007752Y-78288763D01*
X111145391Y-78193148D01*
X111291123Y-78087903D01*
X111443450Y-77974259D01*
X111600872Y-77853444D01*
X111761891Y-77726691D01*
X111925007Y-77595228D01*
X112088721Y-77460287D01*
X112251534Y-77323098D01*
X112411948Y-77184892D01*
X112568463Y-77046897D01*
X112719580Y-76910346D01*
X112863800Y-76776468D01*
X112999625Y-76646494D01*
X113125554Y-76521654D01*
X113197874Y-76447505D01*
X113226806Y-76418315D01*
X113251373Y-76395212D01*
X113268727Y-76380767D01*
X113275701Y-76377227D01*
X113333368Y-76401555D01*
G36*
X113333368Y-76401555D02*
G01*
X113394797Y-76427814D01*
X113458003Y-76455124D01*
X113521004Y-76482604D01*
X113581815Y-76509372D01*
X113638453Y-76534547D01*
X113688935Y-76557249D01*
X113731278Y-76576595D01*
X113763498Y-76591705D01*
X113783612Y-76601696D01*
X113789720Y-76605611D01*
X113783928Y-76613842D01*
X113767726Y-76635847D01*
X113741949Y-76670511D01*
X113707437Y-76716717D01*
X113665024Y-76773348D01*
X113615551Y-76839287D01*
X113559852Y-76913420D01*
X113498767Y-76994628D01*
X113433131Y-77081796D01*
X113363783Y-77173807D01*
X113327773Y-77221552D01*
X113256992Y-77315477D01*
X113189617Y-77405076D01*
X113126473Y-77489240D01*
X113068386Y-77566860D01*
X113016181Y-77636825D01*
X112970685Y-77698026D01*
X112932722Y-77749354D01*
X112903120Y-77789699D01*
X112882703Y-77817950D01*
X112872298Y-77832998D01*
X112871113Y-77835233D01*
X112879789Y-77834778D01*
X112904329Y-77832512D01*
X112943739Y-77828542D01*
X112997028Y-77822976D01*
X113063205Y-77815923D01*
X113141277Y-77807491D01*
X113230253Y-77797788D01*
X113329141Y-77786922D01*
X113436949Y-77775003D01*
X113552686Y-77762137D01*
X113675359Y-77748434D01*
X113791700Y-77735379D01*
X113803977Y-77734001D01*
X113937547Y-77718947D01*
X113973870Y-77714843D01*
X114108588Y-77699639D01*
X114238612Y-77685022D01*
X114362953Y-77671101D01*
X114480617Y-77657983D01*
X114590614Y-77645778D01*
X114691953Y-77634594D01*
X114783641Y-77624539D01*
X114864688Y-77615723D01*
X114934102Y-77608254D01*
X114990892Y-77602240D01*
X115034067Y-77597790D01*
X115062634Y-77595014D01*
X115075603Y-77594018D01*
X115076300Y-77594068D01*
X115073607Y-77603608D01*
X115064749Y-77629681D01*
X115050347Y-77670568D01*
X115031020Y-77724549D01*
X115007389Y-77789904D01*
X114980074Y-77864913D01*
X114949694Y-77947857D01*
X114916870Y-78037016D01*
X114905554Y-78067654D01*
X114871962Y-78158672D01*
X114840510Y-78244175D01*
X114811828Y-78322424D01*
X114786551Y-78391677D01*
X114765311Y-78450195D01*
X114748742Y-78496237D01*
X114737477Y-78528062D01*
X114732148Y-78543930D01*
X114731800Y-78545357D01*
X114739041Y-78551155D01*
X114760109Y-78565965D01*
X114794025Y-78589136D01*
X114839810Y-78620016D01*
X114896482Y-78657954D01*
X114963064Y-78702298D01*
X115038574Y-78752396D01*
X115122034Y-78807598D01*
X115212462Y-78867251D01*
X115308881Y-78930704D01*
X115410308Y-78997306D01*
X115489567Y-79049252D01*
X115594125Y-79117794D01*
X115694412Y-79183675D01*
X115789450Y-79246241D01*
X115878258Y-79304843D01*
X115959857Y-79358830D01*
X116033267Y-79407550D01*
X116097507Y-79450352D01*
X116151599Y-79486585D01*
X116194563Y-79515598D01*
X116225418Y-79536740D01*
X116243186Y-79549359D01*
X116247333Y-79552845D01*
X116240094Y-79558601D01*
X116219027Y-79573373D01*
X116185113Y-79596507D01*
X116139331Y-79627355D01*
X116082662Y-79665263D01*
X116016084Y-79709582D01*
X115940578Y-79759660D01*
X115857124Y-79814845D01*
X115766700Y-79874487D01*
X115670287Y-79937934D01*
X115568864Y-80004536D01*
X115489567Y-80056514D01*
X115385006Y-80125078D01*
X115284715Y-80190995D01*
X115189675Y-80253613D01*
X115100865Y-80312280D01*
X115019265Y-80366343D01*
X114945855Y-80415151D01*
X114881614Y-80458049D01*
X114827523Y-80494387D01*
X114784561Y-80523511D01*
X114753708Y-80544769D01*
X114735944Y-80557509D01*
X114731800Y-80561087D01*
X114735084Y-80571562D01*
X114744511Y-80598549D01*
X114759449Y-80640303D01*
X114779264Y-80695081D01*
X114803321Y-80761138D01*
X114830987Y-80836730D01*
X114861627Y-80920113D01*
X114894608Y-81009542D01*
X114905429Y-81038815D01*
X114938923Y-81129591D01*
X114970180Y-81214718D01*
X114998579Y-81292476D01*
X115023500Y-81361144D01*
X115044322Y-81419002D01*
X115060422Y-81464332D01*
X115071182Y-81495411D01*
X115075979Y-81510522D01*
X115076150Y-81511709D01*
X115067526Y-81511193D01*
X115043039Y-81508866D01*
X115003680Y-81504839D01*
X114950440Y-81499218D01*
X114884311Y-81492114D01*
X114806284Y-81483634D01*
X114717350Y-81473888D01*
X114618500Y-81462984D01*
X114510727Y-81451031D01*
X114395020Y-81438138D01*
X114272372Y-81424413D01*
X114143773Y-81409965D01*
X114010215Y-81394903D01*
X113973840Y-81390792D01*
X113839117Y-81375588D01*
X113709082Y-81360977D01*
X113584726Y-81347067D01*
X113467043Y-81333967D01*
X113357023Y-81321785D01*
X113255658Y-81310628D01*
X113163941Y-81300607D01*
X113082863Y-81291827D01*
X113013415Y-81284399D01*
X112956591Y-81278429D01*
X112913381Y-81274027D01*
X112884778Y-81271301D01*
X112871773Y-81270358D01*
X112871066Y-81270422D01*
X112876029Y-81278299D01*
X112891426Y-81299946D01*
X112916431Y-81334253D01*
X112950220Y-81380109D01*
X112991966Y-81436405D01*
X113040843Y-81502032D01*
X113096026Y-81575879D01*
X113156689Y-81656838D01*
X113222006Y-81743798D01*
X113291151Y-81835649D01*
X113327730Y-81884160D01*
X113398635Y-81978183D01*
X113466250Y-82067923D01*
X113529738Y-82152265D01*
X113588262Y-82230090D01*
X113640984Y-82300284D01*
X113687067Y-82361730D01*
X113725672Y-82413311D01*
X113755963Y-82453912D01*
X113777102Y-82482416D01*
X113788251Y-82497706D01*
X113789819Y-82500051D01*
X113782604Y-82504610D01*
X113761320Y-82515131D01*
X113727818Y-82530792D01*
X113683950Y-82550769D01*
X113631567Y-82574241D01*
X113572522Y-82600386D01*
X113508666Y-82628381D01*
X113441850Y-82657404D01*
X113373927Y-82686633D01*
X113306749Y-82715244D01*
X113275658Y-82728372D01*
X113266763Y-82723399D01*
X113248205Y-82707575D01*
X113222835Y-82683469D01*
X113197874Y-82658214D01*
X113077162Y-82535642D01*
X112945762Y-82407323D01*
X112805172Y-82274488D01*
X112656891Y-82138365D01*
X112502416Y-82000185D01*
X112343247Y-81861178D01*
X112180882Y-81722573D01*
X112016818Y-81585601D01*
X111852555Y-81451490D01*
X111689590Y-81321472D01*
X111529422Y-81196776D01*
X111373549Y-81078631D01*
X111223470Y-80968268D01*
X111080683Y-80866916D01*
X110946686Y-80775806D01*
X110822977Y-80696166D01*
X110762751Y-80659420D01*
X110742646Y-80645158D01*
X110731851Y-80632956D01*
X110731329Y-80628509D01*
X110739908Y-80620241D01*
X110760277Y-80603663D01*
X110789777Y-80580854D01*
X110825749Y-80553892D01*
X110843811Y-80540612D01*
X111006974Y-80427250D01*
X111177596Y-80320380D01*
X111356623Y-80219619D01*
X111545000Y-80124581D01*
X111743673Y-80034882D01*
X111953587Y-79950136D01*
X112175688Y-79869960D01*
X112410920Y-79793967D01*
X112660229Y-79721774D01*
X112924562Y-79652996D01*
X113163350Y-79596572D01*
X113214736Y-79584705D01*
X113259968Y-79573800D01*
X113296590Y-79564486D01*
X113322148Y-79557394D01*
X113334186Y-79553154D01*
X113334800Y-79552574D01*
X113326948Y-79549023D01*
X113305313Y-79542695D01*
X113272776Y-79534347D01*
X113232219Y-79524738D01*
X113209917Y-79519716D01*
X112922084Y-79452402D01*
X112650120Y-79381344D01*
X112393211Y-79306213D01*
X112150546Y-79226682D01*
X111921309Y-79142422D01*
X111704689Y-79053105D01*
X111673799Y-79038822D01*
X113791700Y-79038822D01*
X113795140Y-79044305D01*
X113808090Y-79061100D01*
X113828238Y-79086254D01*
X113842500Y-79103740D01*
X113872248Y-79142914D01*
X113901689Y-79186540D01*
X113925467Y-79226571D01*
X113929855Y-79234987D01*
X113960562Y-79303774D01*
X113981408Y-79370462D01*
X113993723Y-79441251D01*
X113998841Y-79522343D01*
X113999173Y-79557780D01*
X113998564Y-79612882D01*
X113996537Y-79654161D01*
X113992376Y-79687698D01*
X113985366Y-79719575D01*
X113976489Y-79750368D01*
X113944389Y-79838248D01*
X113904147Y-79915725D01*
X113851940Y-79989966D01*
X113842500Y-80001683D01*
X113819215Y-80030430D01*
X113801761Y-80052546D01*
X113792446Y-80065077D01*
X113791700Y-80066778D01*
X113800285Y-80063507D01*
X113823860Y-80054756D01*
X113861244Y-80040960D01*
X113911258Y-80022550D01*
X113972721Y-79999961D01*
X114044454Y-79973625D01*
X114125274Y-79943977D01*
X114214004Y-79911450D01*
X114309461Y-79876476D01*
X114410467Y-79839490D01*
X114488248Y-79811021D01*
X114592496Y-79772815D01*
X114691978Y-79736245D01*
X114785525Y-79701747D01*
X114871965Y-79669759D01*
X114950129Y-79640717D01*
X115018845Y-79615058D01*
X115076943Y-79593219D01*
X115123253Y-79575636D01*
X115156603Y-79562747D01*
X115175824Y-79554988D01*
X115180263Y-79552800D01*
X115172370Y-79549161D01*
X115149473Y-79540066D01*
X115112741Y-79525951D01*
X115063346Y-79507253D01*
X115002457Y-79484408D01*
X114931247Y-79457854D01*
X114850884Y-79428028D01*
X114762539Y-79395365D01*
X114667384Y-79360303D01*
X114566589Y-79323279D01*
X114488248Y-79294579D01*
X114383891Y-79256380D01*
X114284206Y-79219872D01*
X114190375Y-79185489D01*
X114103577Y-79153665D01*
X114024992Y-79124831D01*
X113955802Y-79099423D01*
X113897185Y-79077873D01*
X113850323Y-79060614D01*
X113816395Y-79048080D01*
X113796582Y-79040705D01*
X113791700Y-79038822D01*
X111673799Y-79038822D01*
X111499871Y-78958402D01*
X111306042Y-78857986D01*
X111122389Y-78751528D01*
X110948098Y-78638701D01*
X110843811Y-78564987D01*
X110805748Y-78536808D01*
X110772929Y-78511823D01*
X110748012Y-78492109D01*
X110733657Y-78479744D01*
X110731329Y-78477090D01*
X110735262Y-78467705D01*
X110750698Y-78454103D01*
X110762751Y-78446179D01*
X110879706Y-78373516D01*
X111007752Y-78288763D01*
X111145391Y-78193148D01*
X111291123Y-78087903D01*
X111443450Y-77974259D01*
X111600872Y-77853444D01*
X111761891Y-77726691D01*
X111925007Y-77595228D01*
X112088721Y-77460287D01*
X112251534Y-77323098D01*
X112411948Y-77184892D01*
X112568463Y-77046897D01*
X112719580Y-76910346D01*
X112863800Y-76776468D01*
X112999625Y-76646494D01*
X113125554Y-76521654D01*
X113197874Y-76447505D01*
X113226806Y-76418315D01*
X113251373Y-76395212D01*
X113268727Y-76380767D01*
X113275701Y-76377227D01*
X113333368Y-76401555D01*
G37*
D14*
X171730936Y-107060923D02*
X172185064Y-107060923D01*
X171730936Y-108530923D02*
X172185064Y-108530923D01*
X179165000Y-83327064D02*
X179165000Y-82872936D01*
X180635000Y-83327064D02*
X180635000Y-82872936D01*
X183100000Y-120300000D02*
G75*
G03*
X183100000Y-120300000I-1700000J0D01*
G01*
X128584000Y-68151923D02*
X118424000Y-68151923D01*
X118424000Y-68151923D02*
X118424000Y-101171923D01*
X118424000Y-101171923D02*
X128584000Y-101171923D01*
X128584000Y-101171923D02*
X128584000Y-68151923D01*
X129313000Y-90806675D02*
X129313000Y-90284171D01*
X130783000Y-90806675D02*
X130783000Y-90284171D01*
X123465000Y-125227064D02*
X123465000Y-124772936D01*
X124935000Y-125227064D02*
X124935000Y-124772936D01*
X132787000Y-114440000D02*
X130517000Y-114440000D01*
X130517000Y-114440000D02*
X130517000Y-118500000D01*
X132787000Y-118500000D02*
X132787000Y-114440000D01*
X174865000Y-89123752D02*
X174865000Y-88601248D01*
X176335000Y-89123752D02*
X176335000Y-88601248D01*
X174379000Y-117912423D02*
X176649000Y-117912423D01*
X176649000Y-117912423D02*
X176649000Y-113852423D01*
X174379000Y-113852423D02*
X174379000Y-117912423D01*
X156437000Y-120234671D02*
X156437000Y-120757175D01*
X154967000Y-120234671D02*
X154967000Y-120757175D01*
X161070000Y-137863923D02*
X161070000Y-138503923D01*
X161070000Y-138503923D02*
X161470000Y-138503923D01*
X161310000Y-129143923D02*
X161310000Y-138263923D01*
X161310000Y-129143923D02*
X171430000Y-129143923D01*
X161310000Y-136703923D02*
X171430000Y-136703923D01*
X161310000Y-137803923D02*
X171430000Y-137803923D01*
X161310000Y-138263923D02*
X171430000Y-138263923D01*
X162322000Y-134484923D02*
X162216000Y-134591923D01*
X162588000Y-134750923D02*
X162482000Y-134857923D01*
X165258000Y-131549923D02*
X165151000Y-131656923D01*
X165524000Y-131815923D02*
X165417000Y-131922923D01*
X167612000Y-134195923D02*
X167217000Y-134591923D01*
X167863000Y-134477923D02*
X167483000Y-134857923D01*
X170258000Y-131549923D02*
X169878000Y-131929923D01*
X170524000Y-131815923D02*
X170129000Y-132211923D01*
X171430000Y-129143923D02*
X171430000Y-138263923D01*
X166050000Y-133203923D02*
G75*
G03*
X166050000Y-133203923I-2180000J0D01*
G01*
X171050000Y-133203923D02*
G75*
G03*
X171050000Y-133203923I-2180000J0D01*
G01*
X149703200Y-124545736D02*
X149703200Y-125999864D01*
X147883200Y-124545736D02*
X147883200Y-125999864D01*
X171572936Y-93865000D02*
X172027064Y-93865000D01*
X171572936Y-95335000D02*
X172027064Y-95335000D01*
X138365000Y-125727064D02*
X138365000Y-125272936D01*
X139835000Y-125727064D02*
X139835000Y-125272936D01*
X182954400Y-125780800D02*
G75*
G03*
X182954400Y-125780800I-1700000J0D01*
G01*
X176249000Y-119760859D02*
X176249000Y-120214987D01*
X174779000Y-119760859D02*
X174779000Y-120214987D01*
X120660000Y-132640000D02*
X118740000Y-132640000D01*
X118740000Y-132640000D02*
X118740000Y-135500000D01*
X120660000Y-135500000D02*
X120660000Y-132640000D01*
X161256000Y-69853923D02*
X161256000Y-69213923D01*
X161256000Y-69213923D02*
X160856000Y-69213923D01*
X161016000Y-78573923D02*
X161016000Y-69453923D01*
X161016000Y-78573923D02*
X150896000Y-78573923D01*
X161016000Y-71013923D02*
X150896000Y-71013923D01*
X161016000Y-69913923D02*
X150896000Y-69913923D01*
X161016000Y-69453923D02*
X150896000Y-69453923D01*
X160004000Y-73232923D02*
X160110000Y-73125923D01*
X159738000Y-72966923D02*
X159844000Y-72859923D01*
X157068000Y-76167923D02*
X157175000Y-76060923D01*
X156802000Y-75901923D02*
X156909000Y-75794923D01*
X154714000Y-73521923D02*
X155109000Y-73125923D01*
X154463000Y-73239923D02*
X154843000Y-72859923D01*
X152068000Y-76167923D02*
X152448000Y-75787923D01*
X151802000Y-75901923D02*
X152197000Y-75505923D01*
X150896000Y-78573923D02*
X150896000Y-69453923D01*
X160636000Y-74513923D02*
G75*
G03*
X160636000Y-74513923I-2180000J0D01*
G01*
X155636000Y-74513923D02*
G75*
G03*
X155636000Y-74513923I-2180000J0D01*
G01*
X135835000Y-114440000D02*
X133565000Y-114440000D01*
X133565000Y-114440000D02*
X133565000Y-118500000D01*
X135835000Y-118500000D02*
X135835000Y-114440000D01*
X131310000Y-110250000D02*
X131310000Y-106950000D01*
X131310000Y-110250000D02*
X124300000Y-110250000D01*
X131310000Y-106950000D02*
X124300000Y-106950000D01*
X130272936Y-124965000D02*
X130727064Y-124965000D01*
X130272936Y-126435000D02*
X130727064Y-126435000D01*
X133272936Y-135465000D02*
X133727064Y-135465000D01*
X133272936Y-136935000D02*
X133727064Y-136935000D01*
X133817000Y-89636923D02*
X133817000Y-91821923D01*
X133817000Y-97506923D02*
X133817000Y-95321923D01*
X140882000Y-89636923D02*
X133817000Y-89636923D01*
X140882000Y-89636923D02*
X140882000Y-91821923D01*
X140882000Y-97506923D02*
X133817000Y-97506923D01*
X140882000Y-97506923D02*
X140882000Y-95321923D01*
X160362000Y-89636923D02*
X160362000Y-91821923D01*
X160362000Y-90396923D02*
X140882000Y-90396923D01*
X160362000Y-96746923D02*
X140882000Y-96746923D01*
X160362000Y-97506923D02*
X160362000Y-95321923D01*
X160362000Y-97506923D02*
X167472000Y-97506923D01*
X167472000Y-89636923D02*
X160362000Y-89636923D01*
X167472000Y-91821923D02*
X167472000Y-89636923D01*
X167472000Y-95321923D02*
X167472000Y-97506923D01*
X123960000Y-130640000D02*
X122040000Y-130640000D01*
X122040000Y-130640000D02*
X122040000Y-133500000D01*
X123960000Y-133500000D02*
X123960000Y-130640000D01*
X141703000Y-114451000D02*
X139433000Y-114451000D01*
X139433000Y-114451000D02*
X139433000Y-118511000D01*
X141703000Y-118511000D02*
X141703000Y-114451000D01*
X181035000Y-85159500D02*
X178765000Y-85159500D01*
X178765000Y-85159500D02*
X178765000Y-89219500D01*
X181035000Y-89219500D02*
X181035000Y-85159500D01*
X126765000Y-122527064D02*
X126765000Y-122072936D01*
X128235000Y-122527064D02*
X128235000Y-122072936D01*
X171536000Y-124697923D02*
X171536000Y-122897923D01*
X168316000Y-122897923D02*
X168316000Y-125347923D01*
%LPC*%
D18*
X145796000Y-74521923D03*
D19*
X140796000Y-74521923D03*
D20*
X154400000Y-127400000D03*
X154400000Y-129400000D03*
D21*
X108775000Y-109200000D03*
X118675000Y-109200000D03*
D18*
X178562000Y-106111923D03*
D19*
X178562000Y-101111923D03*
X178562000Y-96111923D03*
D22*
X134500000Y-132000000D03*
X132500000Y-132000000D03*
D23*
X158374000Y-125829923D03*
X159324000Y-125829923D03*
X160274000Y-125829923D03*
X160274000Y-123129923D03*
X158374000Y-123129923D03*
D24*
X111650000Y-129600000D03*
X109600000Y-129600000D03*
D25*
X111069000Y-125244000D03*
X111069000Y-122269000D03*
D26*
X106058000Y-135636000D03*
X106760944Y-133938944D03*
X106760944Y-137333056D03*
X108458000Y-133236000D03*
D27*
X108458000Y-135636000D03*
D26*
X108458000Y-138036000D03*
X110155056Y-133938944D03*
X110155056Y-137333056D03*
X110858000Y-135636000D03*
D28*
X137679000Y-115412500D03*
X137679000Y-118387500D03*
D29*
X133771000Y-108557923D03*
X141391000Y-108557923D03*
D30*
X160361000Y-108557923D03*
X167981000Y-108557923D03*
D20*
X142240000Y-124813923D03*
X142240000Y-126813923D03*
D30*
X181400000Y-114653923D03*
D31*
X130300000Y-77040423D03*
X130300000Y-79115423D03*
D18*
X172426000Y-74513923D03*
D19*
X167426000Y-74513923D03*
D31*
X166878000Y-118188423D03*
X166878000Y-120263423D03*
D20*
X123000000Y-135600000D03*
X123000000Y-137600000D03*
D18*
X139446000Y-133195923D03*
D19*
X144446000Y-133195923D03*
X149446000Y-133195923D03*
D32*
X118000000Y-127400000D03*
D33*
X115137500Y-125450000D03*
X115137500Y-126100000D03*
X115137500Y-126750000D03*
X115137500Y-127400000D03*
X115137500Y-128050000D03*
X115137500Y-128700000D03*
X115137500Y-129350000D03*
X120862500Y-129350000D03*
X120862500Y-128700000D03*
X120862500Y-128050000D03*
X120862500Y-127400000D03*
X120862500Y-126750000D03*
X120862500Y-126100000D03*
X120862500Y-125450000D03*
D34*
X170958000Y-107795923D03*
X172958000Y-107795923D03*
D35*
X179900000Y-84100000D03*
X179900000Y-82100000D03*
D26*
X178702000Y-135636000D03*
X179404944Y-133938944D03*
X179404944Y-137333056D03*
X181102000Y-133236000D03*
D27*
X181102000Y-135636000D03*
D26*
X181102000Y-138036000D03*
X182799056Y-133938944D03*
X182799056Y-137333056D03*
X183502000Y-135636000D03*
X178702000Y-71120000D03*
X179404944Y-69422944D03*
X179404944Y-72817056D03*
X181102000Y-68720000D03*
D27*
X181102000Y-71120000D03*
D26*
X181102000Y-73520000D03*
X182799056Y-69422944D03*
X182799056Y-72817056D03*
X183502000Y-71120000D03*
D30*
X181400000Y-120300000D03*
D36*
X126044000Y-70691923D03*
D37*
X126044000Y-73231923D03*
X126044000Y-75771923D03*
X126044000Y-78311923D03*
X126044000Y-80851923D03*
X126044000Y-83391923D03*
X126044000Y-85931923D03*
X126044000Y-88471923D03*
X126044000Y-91011923D03*
X126044000Y-93551923D03*
X126044000Y-96091923D03*
X126044000Y-98631923D03*
D38*
X130048000Y-91582923D03*
X130048000Y-89507923D03*
D35*
X124200000Y-126000000D03*
X124200000Y-124000000D03*
D28*
X131652000Y-115412500D03*
X131652000Y-118387500D03*
D38*
X175600000Y-89900000D03*
X175600000Y-87825000D03*
D25*
X175514000Y-116939923D03*
X175514000Y-113964923D03*
D31*
X155702000Y-119458423D03*
X155702000Y-121533423D03*
D18*
X163870000Y-133203923D03*
D19*
X168870000Y-133203923D03*
D39*
X148793200Y-123722800D03*
X148793200Y-126822800D03*
D34*
X170800000Y-94600000D03*
X172800000Y-94600000D03*
D35*
X139100000Y-126500000D03*
X139100000Y-124500000D03*
D30*
X181254400Y-125780800D03*
D20*
X175514000Y-118987923D03*
X175514000Y-120987923D03*
D40*
X119700000Y-133475000D03*
X119700000Y-135525000D03*
D18*
X158456000Y-74513923D03*
D19*
X153456000Y-74513923D03*
D28*
X134700000Y-115412500D03*
X134700000Y-118387500D03*
D41*
X129300000Y-108600000D03*
X124300000Y-108600000D03*
D34*
X129500000Y-125700000D03*
X131500000Y-125700000D03*
X132500000Y-136200000D03*
X134500000Y-136200000D03*
D29*
X133517000Y-93571923D03*
X141137000Y-93571923D03*
D30*
X160107000Y-93571923D03*
X167727000Y-93571923D03*
D40*
X123000000Y-131475000D03*
X123000000Y-133525000D03*
D28*
X140568000Y-115423500D03*
X140568000Y-118398500D03*
X179900000Y-86132000D03*
X179900000Y-89107000D03*
D35*
X127500000Y-123300000D03*
X127500000Y-121300000D03*
D23*
X168976000Y-125147923D03*
X169926000Y-125147923D03*
X170876000Y-125147923D03*
X170876000Y-122447923D03*
X168976000Y-122447923D03*
D26*
X106058000Y-71120000D03*
X106760944Y-69422944D03*
X106760944Y-72817056D03*
X108458000Y-68720000D03*
D27*
X108458000Y-71120000D03*
D26*
X108458000Y-73520000D03*
X110155056Y-69422944D03*
X110155056Y-72817056D03*
X110858000Y-71120000D03*
%LPD*%
M02*
