%TF.GenerationSoftware,KiCad,Pcbnew,7.0.9*%
%TF.CreationDate,2024-04-15T16:04:30-04:00*%
%TF.ProjectId,Converters,436f6e76-6572-4746-9572-732e6b696361,rev?*%
%TF.SameCoordinates,Original*%
%TF.FileFunction,Drillmap*%
%TF.FilePolarity,Positive*%
%FSLAX45Y45*%
G04 Gerber Fmt 4.5, Leading zero omitted, Abs format (unit mm)*
G04 Created by KiCad (PCBNEW 7.0.9) date 2024-04-15 16:04:30*
%MOMM*%
%LPD*%
G01*
G04 APERTURE LIST*
%ADD10C,0.100000*%
%ADD11C,0.200000*%
G04 APERTURE END LIST*
D10*
X18262600Y-14081592D02*
X10744200Y-14081592D01*
X18262600Y-14081590D02*
G75*
G03*
X18643600Y-13700592I-10J381010D01*
G01*
X18643602Y-7025808D02*
G75*
G03*
X18262600Y-6644808I-381002J-2D01*
G01*
X10363198Y-13700592D02*
G75*
G03*
X10744200Y-14081592I381002J2D01*
G01*
X10363200Y-13700592D02*
X10363200Y-7025808D01*
X10744200Y-6644810D02*
G75*
G03*
X10363200Y-7025808I0J-381000D01*
G01*
X18643600Y-7025808D02*
X18643600Y-13700592D01*
X10744200Y-6644808D02*
X18262600Y-6644808D01*
D11*
X10618977Y-14398076D02*
X10618977Y-14198076D01*
X10618977Y-14198076D02*
X10666596Y-14198076D01*
X10666596Y-14198076D02*
X10695167Y-14207600D01*
X10695167Y-14207600D02*
X10714215Y-14226647D01*
X10714215Y-14226647D02*
X10723739Y-14245695D01*
X10723739Y-14245695D02*
X10733263Y-14283790D01*
X10733263Y-14283790D02*
X10733263Y-14312362D01*
X10733263Y-14312362D02*
X10723739Y-14350457D01*
X10723739Y-14350457D02*
X10714215Y-14369505D01*
X10714215Y-14369505D02*
X10695167Y-14388552D01*
X10695167Y-14388552D02*
X10666596Y-14398076D01*
X10666596Y-14398076D02*
X10618977Y-14398076D01*
X10818977Y-14398076D02*
X10818977Y-14264743D01*
X10818977Y-14302838D02*
X10828501Y-14283790D01*
X10828501Y-14283790D02*
X10838024Y-14274266D01*
X10838024Y-14274266D02*
X10857072Y-14264743D01*
X10857072Y-14264743D02*
X10876120Y-14264743D01*
X10942786Y-14398076D02*
X10942786Y-14264743D01*
X10942786Y-14198076D02*
X10933263Y-14207600D01*
X10933263Y-14207600D02*
X10942786Y-14217124D01*
X10942786Y-14217124D02*
X10952310Y-14207600D01*
X10952310Y-14207600D02*
X10942786Y-14198076D01*
X10942786Y-14198076D02*
X10942786Y-14217124D01*
X11066596Y-14398076D02*
X11047548Y-14388552D01*
X11047548Y-14388552D02*
X11038024Y-14369505D01*
X11038024Y-14369505D02*
X11038024Y-14198076D01*
X11171358Y-14398076D02*
X11152310Y-14388552D01*
X11152310Y-14388552D02*
X11142786Y-14369505D01*
X11142786Y-14369505D02*
X11142786Y-14198076D01*
X11399929Y-14398076D02*
X11399929Y-14198076D01*
X11399929Y-14198076D02*
X11466596Y-14340933D01*
X11466596Y-14340933D02*
X11533262Y-14198076D01*
X11533262Y-14198076D02*
X11533262Y-14398076D01*
X11714215Y-14398076D02*
X11714215Y-14293314D01*
X11714215Y-14293314D02*
X11704691Y-14274266D01*
X11704691Y-14274266D02*
X11685643Y-14264743D01*
X11685643Y-14264743D02*
X11647548Y-14264743D01*
X11647548Y-14264743D02*
X11628501Y-14274266D01*
X11714215Y-14388552D02*
X11695167Y-14398076D01*
X11695167Y-14398076D02*
X11647548Y-14398076D01*
X11647548Y-14398076D02*
X11628501Y-14388552D01*
X11628501Y-14388552D02*
X11618977Y-14369505D01*
X11618977Y-14369505D02*
X11618977Y-14350457D01*
X11618977Y-14350457D02*
X11628501Y-14331409D01*
X11628501Y-14331409D02*
X11647548Y-14321886D01*
X11647548Y-14321886D02*
X11695167Y-14321886D01*
X11695167Y-14321886D02*
X11714215Y-14312362D01*
X11809453Y-14264743D02*
X11809453Y-14464743D01*
X11809453Y-14274266D02*
X11828501Y-14264743D01*
X11828501Y-14264743D02*
X11866596Y-14264743D01*
X11866596Y-14264743D02*
X11885643Y-14274266D01*
X11885643Y-14274266D02*
X11895167Y-14283790D01*
X11895167Y-14283790D02*
X11904691Y-14302838D01*
X11904691Y-14302838D02*
X11904691Y-14359981D01*
X11904691Y-14359981D02*
X11895167Y-14379028D01*
X11895167Y-14379028D02*
X11885643Y-14388552D01*
X11885643Y-14388552D02*
X11866596Y-14398076D01*
X11866596Y-14398076D02*
X11828501Y-14398076D01*
X11828501Y-14398076D02*
X11809453Y-14388552D01*
X11990405Y-14379028D02*
X11999929Y-14388552D01*
X11999929Y-14388552D02*
X11990405Y-14398076D01*
X11990405Y-14398076D02*
X11980882Y-14388552D01*
X11980882Y-14388552D02*
X11990405Y-14379028D01*
X11990405Y-14379028D02*
X11990405Y-14398076D01*
X11990405Y-14274266D02*
X11999929Y-14283790D01*
X11999929Y-14283790D02*
X11990405Y-14293314D01*
X11990405Y-14293314D02*
X11980882Y-14283790D01*
X11980882Y-14283790D02*
X11990405Y-14274266D01*
X11990405Y-14274266D02*
X11990405Y-14293314D01*
M02*
