%TF.GenerationSoftware,KiCad,Pcbnew,(6.0.10)*%
%TF.CreationDate,2023-01-26T21:47:03-05:00*%
%TF.ProjectId,Converters,436f6e76-6572-4746-9572-732e6b696361,rev?*%
%TF.SameCoordinates,Original*%
%TF.FileFunction,Drillmap*%
%TF.FilePolarity,Positive*%
%FSLAX45Y45*%
G04 Gerber Fmt 4.5, Leading zero omitted, Abs format (unit mm)*
G04 Created by KiCad (PCBNEW (6.0.10)) date 2023-01-26 21:47:03*
%MOMM*%
%LPD*%
G01*
G04 APERTURE LIST*
%ADD10C,0.100000*%
%ADD11C,0.200000*%
G04 APERTURE END LIST*
D10*
X18262600Y-14081592D02*
X10744200Y-14081592D01*
X10363200Y-13700592D02*
X10363200Y-7025808D01*
X18643602Y-7025808D02*
G75*
G03*
X18262600Y-6644808I-381002J-2D01*
G01*
X10744200Y-6644810D02*
G75*
G03*
X10363200Y-7025808I0J-381000D01*
G01*
X18643600Y-7025808D02*
X18643600Y-13700592D01*
X10363198Y-13700592D02*
G75*
G03*
X10744200Y-14081592I381002J2D01*
G01*
X18262600Y-14081590D02*
G75*
G03*
X18643600Y-13700592I0J381000D01*
G01*
X10744200Y-6644808D02*
X18262600Y-6644808D01*
D11*
X10615819Y-14397068D02*
X10615819Y-14197068D01*
X10663438Y-14197068D01*
X10692010Y-14206592D01*
X10711057Y-14225640D01*
X10720581Y-14244687D01*
X10730105Y-14282783D01*
X10730105Y-14311354D01*
X10720581Y-14349449D01*
X10711057Y-14368497D01*
X10692010Y-14387545D01*
X10663438Y-14397068D01*
X10615819Y-14397068D01*
X10815819Y-14397068D02*
X10815819Y-14263735D01*
X10815819Y-14301830D02*
X10825343Y-14282783D01*
X10834867Y-14273259D01*
X10853914Y-14263735D01*
X10872962Y-14263735D01*
X10939629Y-14397068D02*
X10939629Y-14263735D01*
X10939629Y-14197068D02*
X10930105Y-14206592D01*
X10939629Y-14216116D01*
X10949152Y-14206592D01*
X10939629Y-14197068D01*
X10939629Y-14216116D01*
X11063438Y-14397068D02*
X11044390Y-14387545D01*
X11034867Y-14368497D01*
X11034867Y-14197068D01*
X11168200Y-14397068D02*
X11149152Y-14387545D01*
X11139629Y-14368497D01*
X11139629Y-14197068D01*
X11396771Y-14397068D02*
X11396771Y-14197068D01*
X11463438Y-14339926D01*
X11530105Y-14197068D01*
X11530105Y-14397068D01*
X11711057Y-14397068D02*
X11711057Y-14292306D01*
X11701533Y-14273259D01*
X11682486Y-14263735D01*
X11644390Y-14263735D01*
X11625343Y-14273259D01*
X11711057Y-14387545D02*
X11692009Y-14397068D01*
X11644390Y-14397068D01*
X11625343Y-14387545D01*
X11615819Y-14368497D01*
X11615819Y-14349449D01*
X11625343Y-14330402D01*
X11644390Y-14320878D01*
X11692009Y-14320878D01*
X11711057Y-14311354D01*
X11806295Y-14263735D02*
X11806295Y-14463735D01*
X11806295Y-14273259D02*
X11825343Y-14263735D01*
X11863438Y-14263735D01*
X11882486Y-14273259D01*
X11892009Y-14282783D01*
X11901533Y-14301830D01*
X11901533Y-14358973D01*
X11892009Y-14378021D01*
X11882486Y-14387545D01*
X11863438Y-14397068D01*
X11825343Y-14397068D01*
X11806295Y-14387545D01*
X11987248Y-14378021D02*
X11996771Y-14387545D01*
X11987248Y-14397068D01*
X11977724Y-14387545D01*
X11987248Y-14378021D01*
X11987248Y-14397068D01*
X11987248Y-14273259D02*
X11996771Y-14282783D01*
X11987248Y-14292306D01*
X11977724Y-14282783D01*
X11987248Y-14273259D01*
X11987248Y-14292306D01*
M02*
