M48
; DRILL file {KiCad 7.0.9} date Tue Apr 16 14:42:48 2024
; FORMAT={-:-/ absolute / metric / decimal}
; #@! TF.CreationDate,2024-04-16T14:42:48-04:00
; #@! TF.GenerationSoftware,Kicad,Pcbnew,7.0.9
; #@! TF.FileFunction,Plated,1,2,PTH
FMAT,2
METRIC
; #@! TA.AperFunction,Plated,PTH,ViaDrill
T1C0.400
; #@! TA.AperFunction,Plated,PTH,ViaDrill
T2C0.476
; #@! TA.AperFunction,Plated,PTH,ComponentDrill
T3C0.500
; #@! TA.AperFunction,Plated,PTH,ComponentDrill
T4C1.200
; #@! TA.AperFunction,Plated,PTH,ComponentDrill
T5C1.300
; #@! TA.AperFunction,Plated,PTH,ComponentDrill
T6C1.980
; #@! TA.AperFunction,Plated,PTH,ComponentDrill
T7C2.000
; #@! TA.AperFunction,Plated,PTH,ComponentDrill
T8C3.200
%
G90
G05
T1
X108.929Y-122.912
X114.071Y-124.028
X114.91Y-125.044
X115.773Y-124.054
X116.713Y-125.044
X117.577Y-124.104
X118.542Y-125.07
X119.761Y-116.815
X120.379Y-130.087
X121.869Y-116.789
X122.079Y-130.887
X123.19Y-118.567
X124.155Y-116.789
X125.019Y-118.567
X126.238Y-116.891
X127.66Y-128.422
X127.947Y-118.451
X129.489Y-119.837
X130.048Y-87.984
X130.3Y-80.618
X130.995Y-118.451
X131.1Y-132.0
X132.69Y-119.837
X134.043Y-118.451
X135.636Y-119.888
X137.091Y-118.451
X138.938Y-116.484
X139.1Y-123.1
X139.852Y-118.364
X147.218Y-111.608
X153.467Y-86.258
X154.127Y-133.007
X155.702Y-111.557
X155.702Y-117.956
X158.039Y-123.952
X161.188Y-127.406
X165.379Y-124.765
X166.878Y-116.686
X169.926Y-126.592
X175.514Y-122.528
X175.854Y-86.322
X179.9Y-80.761
T2
X108.458Y-118.77
X108.458Y-119.99
T3
X106.058Y-71.12
X106.058Y-135.636
X106.761Y-69.423
X106.761Y-72.817
X106.761Y-133.939
X106.761Y-137.333
X108.458Y-68.72
X108.458Y-73.52
X108.458Y-133.236
X108.458Y-138.036
X110.155Y-69.423
X110.155Y-72.817
X110.155Y-133.939
X110.155Y-137.333
X110.858Y-71.12
X110.858Y-135.636
X178.702Y-71.12
X178.702Y-135.636
X179.405Y-69.423
X179.405Y-72.817
X179.405Y-133.939
X179.405Y-137.333
X181.102Y-68.72
X181.102Y-73.52
X181.102Y-133.236
X181.102Y-138.036
X182.799Y-69.423
X182.799Y-72.817
X182.799Y-133.939
X182.799Y-137.333
X183.502Y-71.12
X183.502Y-135.636
T4
X126.044Y-70.692
X126.044Y-73.232
X126.044Y-75.772
X126.044Y-78.312
X126.044Y-80.852
X126.044Y-83.392
X126.044Y-85.932
X126.044Y-88.472
X126.044Y-91.012
X126.044Y-93.552
X126.044Y-96.092
X126.044Y-98.632
T5
X139.446Y-133.196
X140.796Y-74.522
X144.446Y-133.196
X145.796Y-74.522
X149.446Y-133.196
X153.456Y-74.514
X158.456Y-74.514
X163.87Y-133.204
X167.426Y-74.514
X168.87Y-133.204
X172.426Y-74.514
X178.562Y-96.112
X178.562Y-101.112
X178.562Y-106.112
T6
X133.517Y-93.572
X133.771Y-108.558
X141.137Y-93.572
X141.391Y-108.558
X160.107Y-93.572
X160.361Y-108.558
X167.727Y-93.572
X167.981Y-108.558
T7
X181.254Y-125.781
X181.4Y-114.654
X181.4Y-120.3
T8
X108.458Y-71.12
X108.458Y-135.636
X181.102Y-71.12
X181.102Y-135.636
T0
M30
