G04 #@! TF.GenerationSoftware,KiCad,Pcbnew,(6.0.10)*
G04 #@! TF.CreationDate,2023-01-26T21:46:59-05:00*
G04 #@! TF.ProjectId,Converters,436f6e76-6572-4746-9572-732e6b696361,rev?*
G04 #@! TF.SameCoordinates,Original*
G04 #@! TF.FileFunction,Copper,L1,Top*
G04 #@! TF.FilePolarity,Positive*
%FSLAX46Y46*%
G04 Gerber Fmt 4.6, Leading zero omitted, Abs format (unit mm)*
G04 Created by KiCad (PCBNEW (6.0.10)) date 2023-01-26 21:46:59*
%MOMM*%
%LPD*%
G01*
G04 APERTURE LIST*
G04 Aperture macros list*
%AMRoundRect*
0 Rectangle with rounded corners*
0 $1 Rounding radius*
0 $2 $3 $4 $5 $6 $7 $8 $9 X,Y pos of 4 corners*
0 Add a 4 corners polygon primitive as box body*
4,1,4,$2,$3,$4,$5,$6,$7,$8,$9,$2,$3,0*
0 Add four circle primitives for the rounded corners*
1,1,$1+$1,$2,$3*
1,1,$1+$1,$4,$5*
1,1,$1+$1,$6,$7*
1,1,$1+$1,$8,$9*
0 Add four rect primitives between the rounded corners*
20,1,$1+$1,$2,$3,$4,$5,0*
20,1,$1+$1,$4,$5,$6,$7,0*
20,1,$1+$1,$6,$7,$8,$9,0*
20,1,$1+$1,$8,$9,$2,$3,0*%
G04 Aperture macros list end*
G04 #@! TA.AperFunction,ComponentPad*
%ADD10C,6.400000*%
G04 #@! TD*
G04 #@! TA.AperFunction,ComponentPad*
%ADD11R,1.600000X1.600000*%
G04 #@! TD*
G04 #@! TA.AperFunction,ComponentPad*
%ADD12C,1.600000*%
G04 #@! TD*
G04 #@! TA.AperFunction,ComponentPad*
%ADD13R,1.803400X1.803400*%
G04 #@! TD*
G04 #@! TA.AperFunction,ComponentPad*
%ADD14C,1.803400*%
G04 #@! TD*
G04 #@! TA.AperFunction,ComponentPad*
%ADD15R,2.000000X2.000000*%
G04 #@! TD*
G04 #@! TA.AperFunction,ComponentPad*
%ADD16C,2.000000*%
G04 #@! TD*
G04 #@! TA.AperFunction,SMDPad,CuDef*
%ADD17RoundRect,0.250001X0.462499X0.624999X-0.462499X0.624999X-0.462499X-0.624999X0.462499X-0.624999X0*%
G04 #@! TD*
G04 #@! TA.AperFunction,SMDPad,CuDef*
%ADD18RoundRect,0.250000X0.350000X0.450000X-0.350000X0.450000X-0.350000X-0.450000X0.350000X-0.450000X0*%
G04 #@! TD*
G04 #@! TA.AperFunction,SMDPad,CuDef*
%ADD19RoundRect,0.250000X-0.337500X-0.475000X0.337500X-0.475000X0.337500X0.475000X-0.337500X0.475000X0*%
G04 #@! TD*
G04 #@! TA.AperFunction,ComponentPad*
%ADD20RoundRect,0.750000X-0.750000X-0.750000X0.750000X-0.750000X0.750000X0.750000X-0.750000X0.750000X0*%
G04 #@! TD*
G04 #@! TA.AperFunction,ComponentPad*
%ADD21C,3.000000*%
G04 #@! TD*
G04 #@! TA.AperFunction,ViaPad*
%ADD22C,0.800000*%
G04 #@! TD*
G04 #@! TA.AperFunction,Conductor*
%ADD23C,0.250000*%
G04 #@! TD*
G04 APERTURE END LIST*
D10*
X181102000Y-71120000D03*
D11*
X149606000Y-134351347D03*
D12*
X149606000Y-136851347D03*
D13*
X175567999Y-114474001D03*
D14*
X175567999Y-109474001D03*
X175567999Y-104474001D03*
D15*
X129540000Y-99314000D03*
D16*
X129540000Y-106934000D03*
X129540000Y-112014000D03*
X149860000Y-119634000D03*
X149860000Y-109474000D03*
X149860000Y-99314000D03*
D13*
X164846000Y-76507999D03*
D14*
X169846000Y-76507999D03*
D13*
X126746000Y-129286000D03*
D14*
X121746000Y-129286000D03*
X116746000Y-129286000D03*
D17*
X178525500Y-121158000D03*
X175550500Y-121158000D03*
D18*
X184134000Y-121158000D03*
X182134000Y-121158000D03*
D19*
X175456500Y-100484000D03*
X177531500Y-100484000D03*
D13*
X128310000Y-76507999D03*
D14*
X133310000Y-76507999D03*
D10*
X181102000Y-135595000D03*
D13*
X138430000Y-129286000D03*
D14*
X133430000Y-129286000D03*
D11*
X110656380Y-109474000D03*
D12*
X108156380Y-109474000D03*
D20*
X143510000Y-90424000D03*
X151130000Y-90424000D03*
D21*
X170100000Y-90424000D03*
X177720000Y-90424000D03*
D20*
X145201000Y-127254000D03*
X152821000Y-127254000D03*
D21*
X171791000Y-127254000D03*
X179411000Y-127254000D03*
D17*
X178525500Y-97790000D03*
X175550500Y-97790000D03*
D10*
X108458000Y-135636000D03*
D19*
X175356500Y-118584000D03*
X177431500Y-118584000D03*
D10*
X108458000Y-71120000D03*
D18*
X183118000Y-97790000D03*
X181118000Y-97790000D03*
D15*
X110049000Y-87630000D03*
D16*
X112589000Y-87630000D03*
X115129000Y-87630000D03*
X117669000Y-87630000D03*
X120209000Y-87630000D03*
X122749000Y-87630000D03*
X125289000Y-87630000D03*
X127829000Y-87630000D03*
X130369000Y-87630000D03*
X132909000Y-87630000D03*
X135449000Y-87630000D03*
X137989000Y-87630000D03*
D22*
X163322000Y-95504000D03*
X133350000Y-135636000D03*
X165100000Y-123063000D03*
X123190000Y-135636000D03*
X112014000Y-138684000D03*
X162047701Y-117606299D03*
X162183299Y-115692701D03*
X174498000Y-134874000D03*
X137160000Y-115570000D03*
X139196299Y-115574299D03*
D23*
X174498000Y-100584000D02*
X173482000Y-101600000D01*
X173482000Y-98552000D02*
X174244000Y-97790000D01*
X173482000Y-102388002D02*
X173482000Y-101600000D01*
X173482000Y-101600000D02*
X173482000Y-98552000D01*
X174244000Y-97790000D02*
X175550500Y-97790000D01*
X175567000Y-100584000D02*
X174498000Y-100584000D01*
X162047701Y-115828299D02*
X162183299Y-115692701D01*
X175567999Y-104474001D02*
X173482000Y-102388002D01*
X162047701Y-117606299D02*
X162047701Y-115828299D01*
X175193500Y-118584000D02*
X173702000Y-118584000D01*
X174752000Y-126238000D02*
X174752000Y-134620000D01*
X172974000Y-120396000D02*
X173736000Y-121158000D01*
X175085999Y-114474001D02*
X172974000Y-116586000D01*
X175567999Y-114474001D02*
X175085999Y-114474001D01*
X172974000Y-124460000D02*
X174752000Y-126238000D01*
X172974000Y-120396000D02*
X172974000Y-124460000D01*
X172974000Y-117856000D02*
X172974000Y-120396000D01*
X174752000Y-134620000D02*
X174498000Y-134874000D01*
X172974000Y-116586000D02*
X172974000Y-117856000D01*
X173736000Y-121158000D02*
X175550500Y-121158000D01*
X173702000Y-118584000D02*
X172974000Y-117856000D01*
X178525500Y-97790000D02*
X181118000Y-97790000D01*
X178525500Y-121158000D02*
X182134000Y-121158000D01*
X139196299Y-115574299D02*
X137164299Y-115574299D01*
X137164299Y-115574299D02*
X137160000Y-115570000D01*
G04 #@! TA.AperFunction,Conductor*
G36*
X182596018Y-66958077D02*
G01*
X182610851Y-66960387D01*
X182610855Y-66960387D01*
X182619724Y-66961768D01*
X182638436Y-66959321D01*
X182661366Y-66958430D01*
X182964504Y-66974317D01*
X182977618Y-66975695D01*
X183305901Y-67027690D01*
X183318802Y-67030432D01*
X183639856Y-67116458D01*
X183652386Y-67120530D01*
X183941043Y-67231333D01*
X183962677Y-67239638D01*
X183974726Y-67245002D01*
X184270873Y-67395897D01*
X184282294Y-67402491D01*
X184561041Y-67583510D01*
X184571711Y-67591262D01*
X184830012Y-67800429D01*
X184839813Y-67809254D01*
X185074833Y-68044272D01*
X185083658Y-68054073D01*
X185292827Y-68312374D01*
X185300577Y-68323041D01*
X185323404Y-68358191D01*
X185481597Y-68601786D01*
X185488192Y-68613208D01*
X185639088Y-68909354D01*
X185644452Y-68921402D01*
X185763562Y-69231689D01*
X185767638Y-69244232D01*
X185853664Y-69565280D01*
X185856406Y-69578180D01*
X185908403Y-69906463D01*
X185909781Y-69919580D01*
X185925279Y-70215269D01*
X185923952Y-70241246D01*
X185923691Y-70242926D01*
X185922309Y-70251804D01*
X185923473Y-70260705D01*
X185923473Y-70260709D01*
X185926436Y-70283363D01*
X185927500Y-70299701D01*
X185927500Y-136956554D01*
X185926000Y-136975940D01*
X185922309Y-136999644D01*
X185923473Y-137008547D01*
X185923473Y-137008551D01*
X185924755Y-137018357D01*
X185925646Y-137041286D01*
X185922283Y-137105453D01*
X185909758Y-137344419D01*
X185908380Y-137357535D01*
X185856383Y-137685821D01*
X185853640Y-137698722D01*
X185767618Y-138019752D01*
X185763543Y-138032295D01*
X185644431Y-138342588D01*
X185639067Y-138354636D01*
X185488172Y-138650782D01*
X185481577Y-138662203D01*
X185305782Y-138932904D01*
X185300561Y-138940943D01*
X185292809Y-138951613D01*
X185083641Y-139209912D01*
X185074816Y-139219713D01*
X184839798Y-139454729D01*
X184829997Y-139463554D01*
X184571698Y-139672719D01*
X184561028Y-139680471D01*
X184282283Y-139861489D01*
X184270862Y-139868083D01*
X183974716Y-140018976D01*
X183962667Y-140024340D01*
X183652385Y-140143446D01*
X183639842Y-140147522D01*
X183318796Y-140233546D01*
X183305896Y-140236288D01*
X182977615Y-140288282D01*
X182964499Y-140289660D01*
X182668583Y-140305168D01*
X182642613Y-140303841D01*
X182632276Y-140302232D01*
X182623374Y-140303396D01*
X182623372Y-140303396D01*
X182608323Y-140305364D01*
X182600714Y-140306359D01*
X182584379Y-140307423D01*
X107491367Y-140307423D01*
X107471982Y-140305923D01*
X107457149Y-140303613D01*
X107457145Y-140303613D01*
X107448276Y-140302232D01*
X107429564Y-140304679D01*
X107406634Y-140305570D01*
X107103496Y-140289683D01*
X107090382Y-140288305D01*
X106762099Y-140236310D01*
X106749199Y-140233568D01*
X106626634Y-140200727D01*
X106428144Y-140147542D01*
X106415614Y-140143470D01*
X106105324Y-140024362D01*
X106093274Y-140018998D01*
X105797127Y-139868103D01*
X105785706Y-139861509D01*
X105506959Y-139680490D01*
X105496289Y-139672738D01*
X105237988Y-139463571D01*
X105228187Y-139454746D01*
X104993167Y-139219728D01*
X104984342Y-139209927D01*
X104917746Y-139127688D01*
X104775171Y-138951624D01*
X104767421Y-138940956D01*
X104762186Y-138932894D01*
X104681899Y-138809264D01*
X104586403Y-138662214D01*
X104579808Y-138650792D01*
X104428912Y-138354646D01*
X104423548Y-138342598D01*
X104339333Y-138123213D01*
X104304437Y-138032309D01*
X104300362Y-138019768D01*
X104214336Y-137698720D01*
X104211594Y-137685820D01*
X104159597Y-137357537D01*
X104158219Y-137344420D01*
X104142721Y-137048731D01*
X104144048Y-137022754D01*
X104144309Y-137021074D01*
X104144309Y-137021071D01*
X104145691Y-137012196D01*
X104144527Y-137003295D01*
X104144527Y-137003291D01*
X104141564Y-136980637D01*
X104140500Y-136964299D01*
X104140500Y-135636000D01*
X104744411Y-135636000D01*
X104764754Y-136024176D01*
X104825562Y-136408099D01*
X104926167Y-136783562D01*
X105065468Y-137146453D01*
X105066966Y-137149393D01*
X105219549Y-137448853D01*
X105241938Y-137492794D01*
X105453643Y-137818793D01*
X105455718Y-137821355D01*
X105665065Y-138079876D01*
X105698266Y-138120876D01*
X105973124Y-138395734D01*
X106275207Y-138640357D01*
X106277970Y-138642152D01*
X106277971Y-138642152D01*
X106540379Y-138812561D01*
X106601205Y-138852062D01*
X106604139Y-138853557D01*
X106604146Y-138853561D01*
X106944607Y-139027034D01*
X106947547Y-139028532D01*
X107310438Y-139167833D01*
X107685901Y-139268438D01*
X107889793Y-139300732D01*
X108066576Y-139328732D01*
X108066584Y-139328733D01*
X108069824Y-139329246D01*
X108458000Y-139349589D01*
X108846176Y-139329246D01*
X108849416Y-139328733D01*
X108849424Y-139328732D01*
X109026207Y-139300732D01*
X109230099Y-139268438D01*
X109605562Y-139167833D01*
X109968453Y-139028532D01*
X109971393Y-139027034D01*
X110311854Y-138853561D01*
X110311861Y-138853557D01*
X110314795Y-138852062D01*
X110375622Y-138812561D01*
X110638029Y-138642152D01*
X110638030Y-138642152D01*
X110640793Y-138640357D01*
X110942876Y-138395734D01*
X111217734Y-138120876D01*
X111250936Y-138079876D01*
X111460282Y-137821355D01*
X111462357Y-137818793D01*
X111674062Y-137492794D01*
X111696452Y-137448853D01*
X111850532Y-137146453D01*
X111989833Y-136783562D01*
X112090438Y-136408099D01*
X112151246Y-136024176D01*
X112171589Y-135636000D01*
X112151246Y-135247824D01*
X112149892Y-135239271D01*
X112143590Y-135199481D01*
X148297500Y-135199481D01*
X148304255Y-135261663D01*
X148355385Y-135398052D01*
X148442739Y-135514608D01*
X148559295Y-135601962D01*
X148695684Y-135653092D01*
X148757866Y-135659847D01*
X150454134Y-135659847D01*
X150516316Y-135653092D01*
X150652705Y-135601962D01*
X150769261Y-135514608D01*
X150856615Y-135398052D01*
X150907745Y-135261663D01*
X150914500Y-135199481D01*
X150914500Y-133503213D01*
X150907745Y-133441031D01*
X150856615Y-133304642D01*
X150769261Y-133188086D01*
X150652705Y-133100732D01*
X150516316Y-133049602D01*
X150454134Y-133042847D01*
X148757866Y-133042847D01*
X148695684Y-133049602D01*
X148559295Y-133100732D01*
X148442739Y-133188086D01*
X148355385Y-133304642D01*
X148304255Y-133441031D01*
X148297500Y-133503213D01*
X148297500Y-135199481D01*
X112143590Y-135199481D01*
X112093077Y-134880565D01*
X112090438Y-134863901D01*
X111989833Y-134488438D01*
X111972909Y-134444348D01*
X111851716Y-134128632D01*
X111850532Y-134125547D01*
X111828143Y-134081607D01*
X111675561Y-133782147D01*
X111675557Y-133782140D01*
X111674062Y-133779206D01*
X111649347Y-133741147D01*
X111464152Y-133455971D01*
X111464152Y-133455970D01*
X111462357Y-133453207D01*
X111253480Y-133195266D01*
X111219809Y-133153686D01*
X111219806Y-133153682D01*
X111217734Y-133151124D01*
X110942876Y-132876266D01*
X110895132Y-132837603D01*
X110643355Y-132633718D01*
X110640793Y-132631643D01*
X110314795Y-132419938D01*
X110311861Y-132418443D01*
X110311854Y-132418439D01*
X109971393Y-132244966D01*
X109968453Y-132243468D01*
X109605562Y-132104167D01*
X109230099Y-132003562D01*
X109026207Y-131971268D01*
X108849424Y-131943268D01*
X108849416Y-131943267D01*
X108846176Y-131942754D01*
X108458000Y-131922411D01*
X108069824Y-131942754D01*
X108066584Y-131943267D01*
X108066576Y-131943268D01*
X107889793Y-131971268D01*
X107685901Y-132003562D01*
X107310438Y-132104167D01*
X106947547Y-132243468D01*
X106944607Y-132244966D01*
X106604147Y-132418439D01*
X106604140Y-132418443D01*
X106601206Y-132419938D01*
X106598440Y-132421734D01*
X106598437Y-132421736D01*
X106277971Y-132629848D01*
X106275207Y-132631643D01*
X106272645Y-132633718D01*
X106020869Y-132837603D01*
X105973124Y-132876266D01*
X105698266Y-133151124D01*
X105696194Y-133153682D01*
X105696191Y-133153686D01*
X105662520Y-133195266D01*
X105453643Y-133453207D01*
X105451848Y-133455970D01*
X105451848Y-133455971D01*
X105266654Y-133741147D01*
X105241938Y-133779206D01*
X105240443Y-133782140D01*
X105240439Y-133782147D01*
X105087857Y-134081607D01*
X105065468Y-134125547D01*
X105064284Y-134128632D01*
X104943092Y-134444348D01*
X104926167Y-134488438D01*
X104825562Y-134863901D01*
X104822923Y-134880565D01*
X104766109Y-135239271D01*
X104764754Y-135247824D01*
X104744411Y-135636000D01*
X104140500Y-135636000D01*
X104140500Y-129251428D01*
X115331389Y-129251428D01*
X115331686Y-129256580D01*
X115331686Y-129256584D01*
X115332015Y-129262293D01*
X115344738Y-129482935D01*
X115395718Y-129709153D01*
X115482962Y-129924007D01*
X115604125Y-130121727D01*
X115755953Y-130297002D01*
X115934370Y-130445127D01*
X115938822Y-130447729D01*
X115938827Y-130447732D01*
X116124691Y-130556342D01*
X116134584Y-130562123D01*
X116351218Y-130644847D01*
X116356286Y-130645878D01*
X116356289Y-130645879D01*
X116468090Y-130668625D01*
X116578454Y-130691079D01*
X116583627Y-130691269D01*
X116583630Y-130691269D01*
X116805026Y-130699387D01*
X116805030Y-130699387D01*
X116810190Y-130699576D01*
X116815310Y-130698920D01*
X116815312Y-130698920D01*
X116910930Y-130686671D01*
X117040202Y-130670111D01*
X117045151Y-130668626D01*
X117045157Y-130668625D01*
X117257370Y-130604958D01*
X117262313Y-130603475D01*
X117470558Y-130501457D01*
X117554487Y-130441591D01*
X117655132Y-130369802D01*
X117655137Y-130369798D01*
X117659344Y-130366797D01*
X117720941Y-130305415D01*
X117787356Y-130239231D01*
X117823602Y-130203111D01*
X117958920Y-130014796D01*
X118001616Y-129928408D01*
X118059370Y-129811550D01*
X118059371Y-129811548D01*
X118061664Y-129806908D01*
X118092900Y-129704099D01*
X118127572Y-129589984D01*
X118127573Y-129589978D01*
X118129076Y-129585032D01*
X118159344Y-129355124D01*
X118161033Y-129286000D01*
X118158190Y-129251428D01*
X120331389Y-129251428D01*
X120331686Y-129256580D01*
X120331686Y-129256584D01*
X120332015Y-129262293D01*
X120344738Y-129482935D01*
X120395718Y-129709153D01*
X120482962Y-129924007D01*
X120604125Y-130121727D01*
X120755953Y-130297002D01*
X120934370Y-130445127D01*
X120938822Y-130447729D01*
X120938827Y-130447732D01*
X121124691Y-130556342D01*
X121134584Y-130562123D01*
X121351218Y-130644847D01*
X121356286Y-130645878D01*
X121356289Y-130645879D01*
X121468090Y-130668625D01*
X121578454Y-130691079D01*
X121583627Y-130691269D01*
X121583630Y-130691269D01*
X121805026Y-130699387D01*
X121805030Y-130699387D01*
X121810190Y-130699576D01*
X121815310Y-130698920D01*
X121815312Y-130698920D01*
X121910930Y-130686671D01*
X122040202Y-130670111D01*
X122045151Y-130668626D01*
X122045157Y-130668625D01*
X122257370Y-130604958D01*
X122262313Y-130603475D01*
X122470558Y-130501457D01*
X122554487Y-130441591D01*
X122655132Y-130369802D01*
X122655137Y-130369798D01*
X122659344Y-130366797D01*
X122720941Y-130305415D01*
X122787356Y-130239231D01*
X122790765Y-130235834D01*
X125335800Y-130235834D01*
X125342555Y-130298016D01*
X125393685Y-130434405D01*
X125481039Y-130550961D01*
X125597595Y-130638315D01*
X125733984Y-130689445D01*
X125796166Y-130696200D01*
X127695834Y-130696200D01*
X127758016Y-130689445D01*
X127894405Y-130638315D01*
X128010961Y-130550961D01*
X128098315Y-130434405D01*
X128149445Y-130298016D01*
X128156200Y-130235834D01*
X128156200Y-129251428D01*
X132015389Y-129251428D01*
X132015686Y-129256580D01*
X132015686Y-129256584D01*
X132016015Y-129262293D01*
X132028738Y-129482935D01*
X132079718Y-129709153D01*
X132166962Y-129924007D01*
X132288125Y-130121727D01*
X132439953Y-130297002D01*
X132618370Y-130445127D01*
X132622822Y-130447729D01*
X132622827Y-130447732D01*
X132808691Y-130556342D01*
X132818584Y-130562123D01*
X133035218Y-130644847D01*
X133040286Y-130645878D01*
X133040289Y-130645879D01*
X133152090Y-130668625D01*
X133262454Y-130691079D01*
X133267627Y-130691269D01*
X133267630Y-130691269D01*
X133489026Y-130699387D01*
X133489030Y-130699387D01*
X133494190Y-130699576D01*
X133499310Y-130698920D01*
X133499312Y-130698920D01*
X133594930Y-130686671D01*
X133724202Y-130670111D01*
X133729151Y-130668626D01*
X133729157Y-130668625D01*
X133941370Y-130604958D01*
X133946313Y-130603475D01*
X134154558Y-130501457D01*
X134238487Y-130441591D01*
X134339132Y-130369802D01*
X134339137Y-130369798D01*
X134343344Y-130366797D01*
X134404941Y-130305415D01*
X134471356Y-130239231D01*
X134474765Y-130235834D01*
X137019800Y-130235834D01*
X137026555Y-130298016D01*
X137077685Y-130434405D01*
X137165039Y-130550961D01*
X137281595Y-130638315D01*
X137417984Y-130689445D01*
X137480166Y-130696200D01*
X139379834Y-130696200D01*
X139442016Y-130689445D01*
X139578405Y-130638315D01*
X139694961Y-130550961D01*
X139782315Y-130434405D01*
X139833445Y-130298016D01*
X139840200Y-130235834D01*
X139840200Y-128336166D01*
X139833445Y-128273984D01*
X139782315Y-128137595D01*
X139729064Y-128066542D01*
X143192500Y-128066542D01*
X143192707Y-128069082D01*
X143192707Y-128069092D01*
X143194248Y-128088036D01*
X143204022Y-128208200D01*
X143205356Y-128213395D01*
X143205356Y-128213396D01*
X143236878Y-128336166D01*
X143259890Y-128425794D01*
X143353409Y-128630055D01*
X143481620Y-128814527D01*
X143640473Y-128973380D01*
X143824945Y-129101591D01*
X144029206Y-129195110D01*
X144034638Y-129196505D01*
X144034639Y-129196505D01*
X144228561Y-129246295D01*
X144246800Y-129250978D01*
X144300705Y-129255362D01*
X144385908Y-129262293D01*
X144385918Y-129262293D01*
X144388458Y-129262500D01*
X146013542Y-129262500D01*
X146016082Y-129262293D01*
X146016092Y-129262293D01*
X146101295Y-129255362D01*
X146155200Y-129250978D01*
X146173440Y-129246295D01*
X146367361Y-129196505D01*
X146367362Y-129196505D01*
X146372794Y-129195110D01*
X146577055Y-129101591D01*
X146761527Y-128973380D01*
X146920380Y-128814527D01*
X147048591Y-128630055D01*
X147142110Y-128425794D01*
X147165122Y-128336166D01*
X147196644Y-128213396D01*
X147196644Y-128213395D01*
X147197978Y-128208200D01*
X147207752Y-128088036D01*
X147209293Y-128069092D01*
X147209293Y-128069082D01*
X147209500Y-128066542D01*
X150812500Y-128066542D01*
X150812707Y-128069082D01*
X150812707Y-128069092D01*
X150814248Y-128088036D01*
X150824022Y-128208200D01*
X150825356Y-128213395D01*
X150825356Y-128213396D01*
X150856878Y-128336166D01*
X150879890Y-128425794D01*
X150973409Y-128630055D01*
X151101620Y-128814527D01*
X151260473Y-128973380D01*
X151444945Y-129101591D01*
X151649206Y-129195110D01*
X151654638Y-129196505D01*
X151654639Y-129196505D01*
X151848561Y-129246295D01*
X151866800Y-129250978D01*
X151920705Y-129255362D01*
X152005908Y-129262293D01*
X152005918Y-129262293D01*
X152008458Y-129262500D01*
X153633542Y-129262500D01*
X153636082Y-129262293D01*
X153636092Y-129262293D01*
X153721295Y-129255362D01*
X153775200Y-129250978D01*
X153793440Y-129246295D01*
X153987361Y-129196505D01*
X153987362Y-129196505D01*
X153992794Y-129195110D01*
X154197055Y-129101591D01*
X154381527Y-128973380D01*
X154540380Y-128814527D01*
X154668591Y-128630055D01*
X154762110Y-128425794D01*
X154785122Y-128336166D01*
X154816644Y-128213396D01*
X154816644Y-128213395D01*
X154817978Y-128208200D01*
X154827752Y-128088036D01*
X154829293Y-128069092D01*
X154829293Y-128069082D01*
X154829500Y-128066542D01*
X154829500Y-127232918D01*
X169777917Y-127232918D01*
X169793682Y-127506320D01*
X169794507Y-127510525D01*
X169794508Y-127510533D01*
X169805127Y-127564657D01*
X169846405Y-127775053D01*
X169847792Y-127779103D01*
X169847793Y-127779108D01*
X169930625Y-128021039D01*
X169935112Y-128034144D01*
X169952689Y-128069092D01*
X170022653Y-128208200D01*
X170058160Y-128278799D01*
X170060586Y-128282328D01*
X170060589Y-128282334D01*
X170210843Y-128500953D01*
X170213274Y-128504490D01*
X170216161Y-128507663D01*
X170216162Y-128507664D01*
X170322889Y-128624956D01*
X170397582Y-128707043D01*
X170607675Y-128882707D01*
X170611316Y-128884991D01*
X170836024Y-129025951D01*
X170836028Y-129025953D01*
X170839664Y-129028234D01*
X170907544Y-129058883D01*
X171085345Y-129139164D01*
X171085349Y-129139166D01*
X171089257Y-129140930D01*
X171093377Y-129142150D01*
X171093376Y-129142150D01*
X171347723Y-129217491D01*
X171347727Y-129217492D01*
X171351836Y-129218709D01*
X171356070Y-129219357D01*
X171356075Y-129219358D01*
X171618298Y-129259483D01*
X171618300Y-129259483D01*
X171622540Y-129260132D01*
X171761912Y-129262322D01*
X171892071Y-129264367D01*
X171892077Y-129264367D01*
X171896362Y-129264434D01*
X172168235Y-129231534D01*
X172433127Y-129162041D01*
X172437087Y-129160401D01*
X172437092Y-129160399D01*
X172586794Y-129098390D01*
X172686136Y-129057241D01*
X172922582Y-128919073D01*
X173138089Y-128750094D01*
X173179809Y-128707043D01*
X173325686Y-128556509D01*
X173328669Y-128553431D01*
X173331202Y-128549983D01*
X173331206Y-128549978D01*
X173488257Y-128336178D01*
X173490795Y-128332723D01*
X173518422Y-128281840D01*
X173619418Y-128095830D01*
X173619419Y-128095828D01*
X173621468Y-128092054D01*
X173702637Y-127877247D01*
X173716751Y-127839895D01*
X173716752Y-127839891D01*
X173718269Y-127835877D01*
X173779407Y-127568933D01*
X173803751Y-127296161D01*
X173804193Y-127254000D01*
X173785567Y-126980778D01*
X173730032Y-126712612D01*
X173638617Y-126454465D01*
X173546882Y-126276732D01*
X173533413Y-126207025D01*
X173559768Y-126141101D01*
X173617581Y-126099892D01*
X173688495Y-126096480D01*
X173747943Y-126129847D01*
X174081595Y-126463499D01*
X174115621Y-126525811D01*
X174118500Y-126552594D01*
X174118500Y-133966661D01*
X174098498Y-134034782D01*
X174051820Y-134074847D01*
X174053001Y-134076893D01*
X174047278Y-134080197D01*
X174041248Y-134082882D01*
X173886747Y-134195134D01*
X173758960Y-134337056D01*
X173663473Y-134502444D01*
X173604458Y-134684072D01*
X173584496Y-134874000D01*
X173604458Y-135063928D01*
X173663473Y-135245556D01*
X173758960Y-135410944D01*
X173886747Y-135552866D01*
X173949283Y-135598301D01*
X174024696Y-135653092D01*
X174041248Y-135665118D01*
X174047276Y-135667802D01*
X174047278Y-135667803D01*
X174209681Y-135740109D01*
X174215712Y-135742794D01*
X174309113Y-135762647D01*
X174396056Y-135781128D01*
X174396061Y-135781128D01*
X174402513Y-135782500D01*
X174593487Y-135782500D01*
X174599939Y-135781128D01*
X174599944Y-135781128D01*
X174686887Y-135762647D01*
X174780288Y-135742794D01*
X174786319Y-135740109D01*
X174948722Y-135667803D01*
X174948724Y-135667802D01*
X174954752Y-135665118D01*
X174971305Y-135653092D01*
X175046717Y-135598301D01*
X175051260Y-135595000D01*
X177388411Y-135595000D01*
X177408754Y-135983176D01*
X177409267Y-135986416D01*
X177409268Y-135986424D01*
X177415762Y-136027424D01*
X177469562Y-136367099D01*
X177570167Y-136742562D01*
X177571352Y-136745650D01*
X177571353Y-136745652D01*
X177624634Y-136884453D01*
X177709468Y-137105453D01*
X177710966Y-137108393D01*
X177861999Y-137404811D01*
X177885938Y-137451794D01*
X177887734Y-137454560D01*
X177887736Y-137454563D01*
X178042151Y-137692342D01*
X178097643Y-137777793D01*
X178132919Y-137821355D01*
X178303736Y-138032295D01*
X178342266Y-138079876D01*
X178617124Y-138354734D01*
X178619682Y-138356806D01*
X178619686Y-138356809D01*
X178670317Y-138397809D01*
X178919207Y-138599357D01*
X178921970Y-138601152D01*
X178921971Y-138601152D01*
X179015999Y-138662214D01*
X179245205Y-138811062D01*
X179248139Y-138812557D01*
X179248146Y-138812561D01*
X179484314Y-138932894D01*
X179591547Y-138987532D01*
X179954438Y-139126833D01*
X180329901Y-139227438D01*
X180533793Y-139259732D01*
X180710576Y-139287732D01*
X180710584Y-139287733D01*
X180713824Y-139288246D01*
X181102000Y-139308589D01*
X181490176Y-139288246D01*
X181493416Y-139287733D01*
X181493424Y-139287732D01*
X181670207Y-139259732D01*
X181874099Y-139227438D01*
X182249562Y-139126833D01*
X182612453Y-138987532D01*
X182719686Y-138932894D01*
X182955854Y-138812561D01*
X182955861Y-138812557D01*
X182958795Y-138811062D01*
X183188002Y-138662214D01*
X183282029Y-138601152D01*
X183282030Y-138601152D01*
X183284793Y-138599357D01*
X183533683Y-138397809D01*
X183584314Y-138356809D01*
X183584318Y-138356806D01*
X183586876Y-138354734D01*
X183861734Y-138079876D01*
X183900265Y-138032295D01*
X184071081Y-137821355D01*
X184106357Y-137777793D01*
X184161849Y-137692342D01*
X184316264Y-137454563D01*
X184316266Y-137454560D01*
X184318062Y-137451794D01*
X184342002Y-137404811D01*
X184493034Y-137108393D01*
X184494532Y-137105453D01*
X184579366Y-136884452D01*
X184632647Y-136745652D01*
X184632648Y-136745650D01*
X184633833Y-136742562D01*
X184734438Y-136367099D01*
X184788238Y-136027424D01*
X184794732Y-135986424D01*
X184794733Y-135986416D01*
X184795246Y-135983176D01*
X184815589Y-135595000D01*
X184795246Y-135206824D01*
X184734438Y-134822901D01*
X184633833Y-134447438D01*
X184494532Y-134084547D01*
X184489590Y-134074847D01*
X184319561Y-133741147D01*
X184319557Y-133741140D01*
X184318062Y-133738206D01*
X184120271Y-133433632D01*
X184108152Y-133414971D01*
X184108152Y-133414970D01*
X184106357Y-133412207D01*
X183897010Y-133153686D01*
X183863809Y-133112686D01*
X183863806Y-133112682D01*
X183861734Y-133110124D01*
X183586876Y-132835266D01*
X183284793Y-132590643D01*
X183282029Y-132588848D01*
X182961564Y-132380736D01*
X182961561Y-132380734D01*
X182958795Y-132378938D01*
X182955861Y-132377443D01*
X182955854Y-132377439D01*
X182615393Y-132203966D01*
X182612453Y-132202468D01*
X182249562Y-132063167D01*
X181874099Y-131962562D01*
X181670207Y-131930268D01*
X181493424Y-131902268D01*
X181493416Y-131902267D01*
X181490176Y-131901754D01*
X181102000Y-131881411D01*
X180713824Y-131901754D01*
X180710584Y-131902267D01*
X180710576Y-131902268D01*
X180533793Y-131930268D01*
X180329901Y-131962562D01*
X179954438Y-132063167D01*
X179591547Y-132202468D01*
X179588607Y-132203966D01*
X179248147Y-132377439D01*
X179248140Y-132377443D01*
X179245206Y-132378938D01*
X178919207Y-132590643D01*
X178617124Y-132835266D01*
X178342266Y-133110124D01*
X178340194Y-133112682D01*
X178340191Y-133112686D01*
X178306990Y-133153686D01*
X178097643Y-133412207D01*
X178095848Y-133414970D01*
X178095848Y-133414971D01*
X178083730Y-133433632D01*
X177885938Y-133738206D01*
X177884443Y-133741140D01*
X177884439Y-133741147D01*
X177714410Y-134074847D01*
X177709468Y-134084547D01*
X177570167Y-134447438D01*
X177469562Y-134822901D01*
X177408754Y-135206824D01*
X177388411Y-135595000D01*
X175051260Y-135595000D01*
X175109253Y-135552866D01*
X175237040Y-135410944D01*
X175332527Y-135245556D01*
X175391542Y-135063928D01*
X175411504Y-134874000D01*
X175391542Y-134684072D01*
X175391259Y-134683200D01*
X175390545Y-134655866D01*
X175388730Y-134655809D01*
X175388979Y-134647890D01*
X175390220Y-134640057D01*
X175386059Y-134596038D01*
X175385500Y-134584181D01*
X175385500Y-127232918D01*
X177397917Y-127232918D01*
X177413682Y-127506320D01*
X177414507Y-127510525D01*
X177414508Y-127510533D01*
X177425127Y-127564657D01*
X177466405Y-127775053D01*
X177467792Y-127779103D01*
X177467793Y-127779108D01*
X177550625Y-128021039D01*
X177555112Y-128034144D01*
X177572689Y-128069092D01*
X177642653Y-128208200D01*
X177678160Y-128278799D01*
X177680586Y-128282328D01*
X177680589Y-128282334D01*
X177830843Y-128500953D01*
X177833274Y-128504490D01*
X177836161Y-128507663D01*
X177836162Y-128507664D01*
X177942889Y-128624956D01*
X178017582Y-128707043D01*
X178227675Y-128882707D01*
X178231316Y-128884991D01*
X178456024Y-129025951D01*
X178456028Y-129025953D01*
X178459664Y-129028234D01*
X178527544Y-129058883D01*
X178705345Y-129139164D01*
X178705349Y-129139166D01*
X178709257Y-129140930D01*
X178713377Y-129142150D01*
X178713376Y-129142150D01*
X178967723Y-129217491D01*
X178967727Y-129217492D01*
X178971836Y-129218709D01*
X178976070Y-129219357D01*
X178976075Y-129219358D01*
X179238298Y-129259483D01*
X179238300Y-129259483D01*
X179242540Y-129260132D01*
X179381912Y-129262322D01*
X179512071Y-129264367D01*
X179512077Y-129264367D01*
X179516362Y-129264434D01*
X179788235Y-129231534D01*
X180053127Y-129162041D01*
X180057087Y-129160401D01*
X180057092Y-129160399D01*
X180206794Y-129098390D01*
X180306136Y-129057241D01*
X180542582Y-128919073D01*
X180758089Y-128750094D01*
X180799809Y-128707043D01*
X180945686Y-128556509D01*
X180948669Y-128553431D01*
X180951202Y-128549983D01*
X180951206Y-128549978D01*
X181108257Y-128336178D01*
X181110795Y-128332723D01*
X181138422Y-128281840D01*
X181239418Y-128095830D01*
X181239419Y-128095828D01*
X181241468Y-128092054D01*
X181322637Y-127877247D01*
X181336751Y-127839895D01*
X181336752Y-127839891D01*
X181338269Y-127835877D01*
X181399407Y-127568933D01*
X181423751Y-127296161D01*
X181424193Y-127254000D01*
X181405567Y-126980778D01*
X181350032Y-126712612D01*
X181258617Y-126454465D01*
X181177907Y-126298092D01*
X181134978Y-126214919D01*
X181134978Y-126214918D01*
X181133013Y-126211112D01*
X181126687Y-126202110D01*
X180978008Y-125990562D01*
X180975545Y-125987057D01*
X180825234Y-125825303D01*
X180792046Y-125789588D01*
X180792043Y-125789585D01*
X180789125Y-125786445D01*
X180785810Y-125783731D01*
X180785806Y-125783728D01*
X180580523Y-125615706D01*
X180577205Y-125612990D01*
X180343704Y-125469901D01*
X180339768Y-125468173D01*
X180096873Y-125361549D01*
X180096869Y-125361548D01*
X180092945Y-125359825D01*
X179829566Y-125284800D01*
X179825324Y-125284196D01*
X179825318Y-125284195D01*
X179624834Y-125255662D01*
X179558443Y-125246213D01*
X179414589Y-125245460D01*
X179288877Y-125244802D01*
X179288871Y-125244802D01*
X179284591Y-125244780D01*
X179280347Y-125245339D01*
X179280343Y-125245339D01*
X179181470Y-125258356D01*
X179013078Y-125280525D01*
X179008938Y-125281658D01*
X179008936Y-125281658D01*
X178964969Y-125293686D01*
X178748928Y-125352788D01*
X178744980Y-125354472D01*
X178500982Y-125458546D01*
X178500978Y-125458548D01*
X178497030Y-125460232D01*
X178378414Y-125531222D01*
X178265725Y-125598664D01*
X178265721Y-125598667D01*
X178262043Y-125600868D01*
X178048318Y-125772094D01*
X177936964Y-125889436D01*
X177863386Y-125966972D01*
X177859808Y-125970742D01*
X177700002Y-126193136D01*
X177571857Y-126435161D01*
X177570385Y-126439184D01*
X177570383Y-126439188D01*
X177547981Y-126500404D01*
X177477743Y-126692337D01*
X177419404Y-126959907D01*
X177397917Y-127232918D01*
X175385500Y-127232918D01*
X175385500Y-126316768D01*
X175386027Y-126305585D01*
X175387702Y-126298092D01*
X175385562Y-126230001D01*
X175385500Y-126226044D01*
X175385500Y-126198144D01*
X175384996Y-126194153D01*
X175384063Y-126182311D01*
X175382923Y-126146036D01*
X175382674Y-126138111D01*
X175380462Y-126130497D01*
X175380461Y-126130492D01*
X175377023Y-126118659D01*
X175373012Y-126099295D01*
X175371467Y-126087064D01*
X175370474Y-126079203D01*
X175367557Y-126071836D01*
X175367556Y-126071831D01*
X175354198Y-126038092D01*
X175350354Y-126026865D01*
X175340230Y-125992022D01*
X175338018Y-125984407D01*
X175333697Y-125977100D01*
X175327707Y-125966972D01*
X175319012Y-125949224D01*
X175311552Y-125930383D01*
X175285564Y-125894613D01*
X175279048Y-125884693D01*
X175260580Y-125853465D01*
X175260578Y-125853462D01*
X175256542Y-125846638D01*
X175242221Y-125832317D01*
X175229380Y-125817283D01*
X175222131Y-125807306D01*
X175217472Y-125800893D01*
X175183395Y-125772702D01*
X175174616Y-125764712D01*
X173644405Y-124234500D01*
X173610379Y-124172188D01*
X173607500Y-124145405D01*
X173607500Y-121921122D01*
X173627502Y-121853001D01*
X173681158Y-121806508D01*
X173721642Y-121795681D01*
X173751553Y-121792854D01*
X173759962Y-121792059D01*
X173771819Y-121791500D01*
X174211550Y-121791500D01*
X174279671Y-121811502D01*
X174326164Y-121865158D01*
X174336877Y-121904497D01*
X174339600Y-121930738D01*
X174340474Y-121939165D01*
X174396450Y-122106945D01*
X174489522Y-122257348D01*
X174614697Y-122382305D01*
X174620927Y-122386145D01*
X174620928Y-122386146D01*
X174758090Y-122470694D01*
X174765262Y-122475115D01*
X174845005Y-122501564D01*
X174926611Y-122528632D01*
X174926613Y-122528632D01*
X174933139Y-122530797D01*
X174939975Y-122531497D01*
X174939978Y-122531498D01*
X174983031Y-122535909D01*
X175037600Y-122541500D01*
X176063400Y-122541500D01*
X176066646Y-122541163D01*
X176066650Y-122541163D01*
X176162307Y-122531238D01*
X176162311Y-122531237D01*
X176169165Y-122530526D01*
X176175701Y-122528345D01*
X176175703Y-122528345D01*
X176307805Y-122484272D01*
X176336945Y-122474550D01*
X176487348Y-122381478D01*
X176512285Y-122356498D01*
X176607134Y-122261483D01*
X176612305Y-122256303D01*
X176643018Y-122206478D01*
X176701275Y-122111968D01*
X176701276Y-122111966D01*
X176705115Y-122105738D01*
X176760797Y-121937861D01*
X176764216Y-121904497D01*
X176768246Y-121865158D01*
X176771500Y-121833400D01*
X177304500Y-121833400D01*
X177304837Y-121836646D01*
X177304837Y-121836650D01*
X177314600Y-121930738D01*
X177315474Y-121939165D01*
X177371450Y-122106945D01*
X177464522Y-122257348D01*
X177589697Y-122382305D01*
X177595927Y-122386145D01*
X177595928Y-122386146D01*
X177733090Y-122470694D01*
X177740262Y-122475115D01*
X177820005Y-122501564D01*
X177901611Y-122528632D01*
X177901613Y-122528632D01*
X177908139Y-122530797D01*
X177914975Y-122531497D01*
X177914978Y-122531498D01*
X177958031Y-122535909D01*
X178012600Y-122541500D01*
X179038400Y-122541500D01*
X179041646Y-122541163D01*
X179041650Y-122541163D01*
X179137307Y-122531238D01*
X179137311Y-122531237D01*
X179144165Y-122530526D01*
X179150701Y-122528345D01*
X179150703Y-122528345D01*
X179282805Y-122484272D01*
X179311945Y-122474550D01*
X179462348Y-122381478D01*
X179487285Y-122356498D01*
X179582134Y-122261483D01*
X179587305Y-122256303D01*
X179618018Y-122206478D01*
X179676275Y-122111968D01*
X179676276Y-122111966D01*
X179680115Y-122105738D01*
X179735797Y-121937861D01*
X179739199Y-121904658D01*
X179766040Y-121838930D01*
X179824155Y-121798148D01*
X179864543Y-121791500D01*
X180954803Y-121791500D01*
X181022924Y-121811502D01*
X181069417Y-121865158D01*
X181074326Y-121877623D01*
X181092450Y-121931946D01*
X181185522Y-122082348D01*
X181310697Y-122207305D01*
X181316927Y-122211145D01*
X181316928Y-122211146D01*
X181454090Y-122295694D01*
X181461262Y-122300115D01*
X181541005Y-122326564D01*
X181622611Y-122353632D01*
X181622613Y-122353632D01*
X181629139Y-122355797D01*
X181635975Y-122356497D01*
X181635978Y-122356498D01*
X181679031Y-122360909D01*
X181733600Y-122366500D01*
X182534400Y-122366500D01*
X182537646Y-122366163D01*
X182537650Y-122366163D01*
X182633308Y-122356238D01*
X182633312Y-122356237D01*
X182640166Y-122355526D01*
X182646702Y-122353345D01*
X182646704Y-122353345D01*
X182778806Y-122309272D01*
X182807946Y-122299550D01*
X182958348Y-122206478D01*
X183083305Y-122081303D01*
X183087146Y-122075072D01*
X183172275Y-121936968D01*
X183172276Y-121936966D01*
X183176115Y-121930738D01*
X183220093Y-121798148D01*
X183229632Y-121769389D01*
X183229632Y-121769387D01*
X183231797Y-121762861D01*
X183242500Y-121658400D01*
X183242500Y-120657600D01*
X183231526Y-120551834D01*
X183215734Y-120504498D01*
X183177868Y-120391002D01*
X183175550Y-120384054D01*
X183082478Y-120233652D01*
X182957303Y-120108695D01*
X182913029Y-120081404D01*
X182812968Y-120019725D01*
X182812966Y-120019724D01*
X182806738Y-120015885D01*
X182646254Y-119962655D01*
X182645389Y-119962368D01*
X182645387Y-119962368D01*
X182638861Y-119960203D01*
X182632025Y-119959503D01*
X182632022Y-119959502D01*
X182588969Y-119955091D01*
X182534400Y-119949500D01*
X181733600Y-119949500D01*
X181730354Y-119949837D01*
X181730350Y-119949837D01*
X181634692Y-119959762D01*
X181634688Y-119959763D01*
X181627834Y-119960474D01*
X181621298Y-119962655D01*
X181621296Y-119962655D01*
X181489194Y-120006728D01*
X181460054Y-120016450D01*
X181309652Y-120109522D01*
X181184695Y-120234697D01*
X181180855Y-120240927D01*
X181180854Y-120240928D01*
X181096276Y-120378139D01*
X181091885Y-120385262D01*
X181074337Y-120438168D01*
X181033906Y-120496527D01*
X180968342Y-120523764D01*
X180954744Y-120524500D01*
X179864450Y-120524500D01*
X179796329Y-120504498D01*
X179749836Y-120450842D01*
X179739123Y-120411503D01*
X179736238Y-120383694D01*
X179736237Y-120383691D01*
X179735526Y-120376835D01*
X179718586Y-120326058D01*
X179681868Y-120216003D01*
X179679550Y-120209055D01*
X179586478Y-120058652D01*
X179461303Y-119933695D01*
X179446357Y-119924482D01*
X179316968Y-119844725D01*
X179316966Y-119844724D01*
X179310738Y-119840885D01*
X179150254Y-119787655D01*
X179149389Y-119787368D01*
X179149387Y-119787368D01*
X179142861Y-119785203D01*
X179136025Y-119784503D01*
X179136022Y-119784502D01*
X179092969Y-119780091D01*
X179038400Y-119774500D01*
X178012600Y-119774500D01*
X178009354Y-119774837D01*
X178009350Y-119774837D01*
X177913693Y-119784762D01*
X177913689Y-119784763D01*
X177906835Y-119785474D01*
X177900299Y-119787655D01*
X177900297Y-119787655D01*
X177842922Y-119806797D01*
X177739055Y-119841450D01*
X177588652Y-119934522D01*
X177583479Y-119939704D01*
X177563456Y-119959762D01*
X177463695Y-120059697D01*
X177459855Y-120065927D01*
X177459854Y-120065928D01*
X177430305Y-120113866D01*
X177370885Y-120210262D01*
X177363127Y-120233652D01*
X177335405Y-120317233D01*
X177315203Y-120378139D01*
X177314503Y-120384975D01*
X177314502Y-120384978D01*
X177310091Y-120428031D01*
X177304500Y-120482600D01*
X177304500Y-121833400D01*
X176771500Y-121833400D01*
X176771500Y-120482600D01*
X176764123Y-120411503D01*
X176761238Y-120383693D01*
X176761237Y-120383689D01*
X176760526Y-120376835D01*
X176743586Y-120326058D01*
X176706868Y-120216003D01*
X176704550Y-120209055D01*
X176611478Y-120058652D01*
X176486303Y-119933695D01*
X176471357Y-119924482D01*
X176341968Y-119844725D01*
X176341966Y-119844724D01*
X176335738Y-119840885D01*
X176287193Y-119824784D01*
X176266079Y-119817780D01*
X176207719Y-119777349D01*
X176180482Y-119711785D01*
X176193016Y-119641903D01*
X176216573Y-119609169D01*
X176288134Y-119537483D01*
X176293305Y-119532303D01*
X176386115Y-119381738D01*
X176433956Y-119237502D01*
X176439632Y-119220389D01*
X176439632Y-119220387D01*
X176441797Y-119213861D01*
X176452500Y-119109400D01*
X176452500Y-118058600D01*
X176444716Y-117983578D01*
X176442238Y-117959692D01*
X176442237Y-117959688D01*
X176441526Y-117952834D01*
X176385550Y-117785054D01*
X176292478Y-117634652D01*
X176167303Y-117509695D01*
X176161072Y-117505854D01*
X176022968Y-117420725D01*
X176022966Y-117420724D01*
X176016738Y-117416885D01*
X175856254Y-117363655D01*
X175855389Y-117363368D01*
X175855387Y-117363368D01*
X175848861Y-117361203D01*
X175842025Y-117360503D01*
X175842022Y-117360502D01*
X175798969Y-117356091D01*
X175744400Y-117350500D01*
X174968600Y-117350500D01*
X174965354Y-117350837D01*
X174965350Y-117350837D01*
X174869692Y-117360762D01*
X174869688Y-117360763D01*
X174862834Y-117361474D01*
X174856298Y-117363655D01*
X174856296Y-117363655D01*
X174724194Y-117407728D01*
X174695054Y-117417450D01*
X174544652Y-117510522D01*
X174419695Y-117635697D01*
X174415855Y-117641927D01*
X174415854Y-117641928D01*
X174332451Y-117777233D01*
X174326885Y-117786262D01*
X174321056Y-117803836D01*
X174301045Y-117864167D01*
X174260614Y-117922527D01*
X174195050Y-117949764D01*
X174181452Y-117950500D01*
X174016595Y-117950500D01*
X173948474Y-117930498D01*
X173927500Y-117913595D01*
X173644405Y-117630500D01*
X173610379Y-117568188D01*
X173607500Y-117541405D01*
X173607500Y-116900594D01*
X173627502Y-116832473D01*
X173644405Y-116811499D01*
X174534798Y-115921106D01*
X174597110Y-115887080D01*
X174623893Y-115884201D01*
X176517833Y-115884201D01*
X176580015Y-115877446D01*
X176716404Y-115826316D01*
X176832960Y-115738962D01*
X176920314Y-115622406D01*
X176971444Y-115486017D01*
X176978199Y-115423835D01*
X176978199Y-113524167D01*
X176971444Y-113461985D01*
X176920314Y-113325596D01*
X176832960Y-113209040D01*
X176716404Y-113121686D01*
X176580015Y-113070556D01*
X176517833Y-113063801D01*
X174618165Y-113063801D01*
X174555983Y-113070556D01*
X174419594Y-113121686D01*
X174303038Y-113209040D01*
X174215684Y-113325596D01*
X174164554Y-113461985D01*
X174157799Y-113524167D01*
X174157799Y-114454107D01*
X174137797Y-114522228D01*
X174120894Y-114543202D01*
X172581747Y-116082348D01*
X172573461Y-116089888D01*
X172566982Y-116094000D01*
X172561557Y-116099777D01*
X172520357Y-116143651D01*
X172517602Y-116146493D01*
X172497865Y-116166230D01*
X172495385Y-116169427D01*
X172487682Y-116178447D01*
X172457414Y-116210679D01*
X172453595Y-116217625D01*
X172453593Y-116217628D01*
X172447652Y-116228434D01*
X172436801Y-116244953D01*
X172424386Y-116260959D01*
X172421241Y-116268228D01*
X172421238Y-116268232D01*
X172406826Y-116301537D01*
X172401609Y-116312187D01*
X172380305Y-116350940D01*
X172378334Y-116358615D01*
X172378334Y-116358616D01*
X172375267Y-116370562D01*
X172368863Y-116389266D01*
X172360819Y-116407855D01*
X172359580Y-116415678D01*
X172359577Y-116415688D01*
X172353901Y-116451524D01*
X172351495Y-116463144D01*
X172340500Y-116505970D01*
X172340500Y-116526224D01*
X172338949Y-116545934D01*
X172335780Y-116565943D01*
X172336526Y-116573835D01*
X172339941Y-116609961D01*
X172340500Y-116621819D01*
X172340500Y-117777233D01*
X172339973Y-117788416D01*
X172338298Y-117795909D01*
X172338547Y-117803835D01*
X172338547Y-117803836D01*
X172340438Y-117863986D01*
X172340500Y-117867945D01*
X172340500Y-120317233D01*
X172339973Y-120328416D01*
X172338298Y-120335909D01*
X172338547Y-120343835D01*
X172338547Y-120343836D01*
X172340438Y-120403986D01*
X172340500Y-120407945D01*
X172340500Y-124381233D01*
X172339973Y-124392416D01*
X172338298Y-124399909D01*
X172338547Y-124407835D01*
X172338547Y-124407836D01*
X172340438Y-124467986D01*
X172340500Y-124471945D01*
X172340500Y-124499856D01*
X172340997Y-124503790D01*
X172340997Y-124503791D01*
X172341005Y-124503856D01*
X172341938Y-124515693D01*
X172343327Y-124559889D01*
X172348978Y-124579339D01*
X172352987Y-124598700D01*
X172355526Y-124618797D01*
X172358445Y-124626168D01*
X172358445Y-124626170D01*
X172371804Y-124659912D01*
X172375649Y-124671142D01*
X172387982Y-124713593D01*
X172392015Y-124720412D01*
X172392017Y-124720417D01*
X172398293Y-124731028D01*
X172406988Y-124748776D01*
X172414448Y-124767617D01*
X172419110Y-124774033D01*
X172419110Y-124774034D01*
X172440436Y-124803387D01*
X172446952Y-124813307D01*
X172469458Y-124851362D01*
X172483779Y-124865683D01*
X172496619Y-124880716D01*
X172508528Y-124897107D01*
X172514634Y-124902158D01*
X172542605Y-124925298D01*
X172551384Y-124933288D01*
X172911782Y-125293686D01*
X172945808Y-125355998D01*
X172940743Y-125426813D01*
X172898196Y-125483649D01*
X172831676Y-125508460D01*
X172756852Y-125490214D01*
X172727366Y-125472145D01*
X172727365Y-125472145D01*
X172723704Y-125469901D01*
X172719768Y-125468173D01*
X172476873Y-125361549D01*
X172476869Y-125361548D01*
X172472945Y-125359825D01*
X172209566Y-125284800D01*
X172205324Y-125284196D01*
X172205318Y-125284195D01*
X172004834Y-125255662D01*
X171938443Y-125246213D01*
X171794589Y-125245460D01*
X171668877Y-125244802D01*
X171668871Y-125244802D01*
X171664591Y-125244780D01*
X171660347Y-125245339D01*
X171660343Y-125245339D01*
X171561470Y-125258356D01*
X171393078Y-125280525D01*
X171388938Y-125281658D01*
X171388936Y-125281658D01*
X171344969Y-125293686D01*
X171128928Y-125352788D01*
X171124980Y-125354472D01*
X170880982Y-125458546D01*
X170880978Y-125458548D01*
X170877030Y-125460232D01*
X170758414Y-125531222D01*
X170645725Y-125598664D01*
X170645721Y-125598667D01*
X170642043Y-125600868D01*
X170428318Y-125772094D01*
X170316964Y-125889436D01*
X170243386Y-125966972D01*
X170239808Y-125970742D01*
X170080002Y-126193136D01*
X169951857Y-126435161D01*
X169950385Y-126439184D01*
X169950383Y-126439188D01*
X169927981Y-126500404D01*
X169857743Y-126692337D01*
X169799404Y-126959907D01*
X169777917Y-127232918D01*
X154829500Y-127232918D01*
X154829500Y-126441458D01*
X154817978Y-126299800D01*
X154791878Y-126198144D01*
X154763505Y-126087639D01*
X154763505Y-126087638D01*
X154762110Y-126082206D01*
X154668591Y-125877945D01*
X154540380Y-125693473D01*
X154381527Y-125534620D01*
X154197055Y-125406409D01*
X153992794Y-125312890D01*
X153987361Y-125311495D01*
X153780396Y-125258356D01*
X153780395Y-125258356D01*
X153775200Y-125257022D01*
X153721295Y-125252638D01*
X153636092Y-125245707D01*
X153636082Y-125245707D01*
X153633542Y-125245500D01*
X152008458Y-125245500D01*
X152005918Y-125245707D01*
X152005908Y-125245707D01*
X151920705Y-125252638D01*
X151866800Y-125257022D01*
X151861605Y-125258356D01*
X151861604Y-125258356D01*
X151654639Y-125311495D01*
X151649206Y-125312890D01*
X151444945Y-125406409D01*
X151260473Y-125534620D01*
X151101620Y-125693473D01*
X150973409Y-125877945D01*
X150879890Y-126082206D01*
X150878495Y-126087638D01*
X150878495Y-126087639D01*
X150850123Y-126198144D01*
X150824022Y-126299800D01*
X150812500Y-126441458D01*
X150812500Y-128066542D01*
X147209500Y-128066542D01*
X147209500Y-126441458D01*
X147197978Y-126299800D01*
X147171878Y-126198144D01*
X147143505Y-126087639D01*
X147143505Y-126087638D01*
X147142110Y-126082206D01*
X147048591Y-125877945D01*
X146920380Y-125693473D01*
X146761527Y-125534620D01*
X146577055Y-125406409D01*
X146372794Y-125312890D01*
X146367361Y-125311495D01*
X146160396Y-125258356D01*
X146160395Y-125258356D01*
X146155200Y-125257022D01*
X146101295Y-125252638D01*
X146016092Y-125245707D01*
X146016082Y-125245707D01*
X146013542Y-125245500D01*
X144388458Y-125245500D01*
X144385918Y-125245707D01*
X144385908Y-125245707D01*
X144300705Y-125252638D01*
X144246800Y-125257022D01*
X144241605Y-125258356D01*
X144241604Y-125258356D01*
X144034639Y-125311495D01*
X144029206Y-125312890D01*
X143824945Y-125406409D01*
X143640473Y-125534620D01*
X143481620Y-125693473D01*
X143353409Y-125877945D01*
X143259890Y-126082206D01*
X143258495Y-126087638D01*
X143258495Y-126087639D01*
X143230123Y-126198144D01*
X143204022Y-126299800D01*
X143192500Y-126441458D01*
X143192500Y-128066542D01*
X139729064Y-128066542D01*
X139694961Y-128021039D01*
X139578405Y-127933685D01*
X139442016Y-127882555D01*
X139379834Y-127875800D01*
X137480166Y-127875800D01*
X137417984Y-127882555D01*
X137281595Y-127933685D01*
X137165039Y-128021039D01*
X137077685Y-128137595D01*
X137026555Y-128273984D01*
X137019800Y-128336166D01*
X137019800Y-130235834D01*
X134474765Y-130235834D01*
X134507602Y-130203111D01*
X134642920Y-130014796D01*
X134685616Y-129928408D01*
X134743370Y-129811550D01*
X134743371Y-129811548D01*
X134745664Y-129806908D01*
X134776900Y-129704099D01*
X134811572Y-129589984D01*
X134811573Y-129589978D01*
X134813076Y-129585032D01*
X134843344Y-129355124D01*
X134845033Y-129286000D01*
X134837560Y-129195110D01*
X134826456Y-129060039D01*
X134826455Y-129060033D01*
X134826032Y-129054888D01*
X134769540Y-128829983D01*
X134677073Y-128617325D01*
X134551116Y-128422624D01*
X134523027Y-128391754D01*
X134398528Y-128254932D01*
X134398526Y-128254931D01*
X134395050Y-128251110D01*
X134390999Y-128247911D01*
X134390995Y-128247907D01*
X134217125Y-128110594D01*
X134213067Y-128107389D01*
X134010055Y-127995320D01*
X133891620Y-127953380D01*
X133796339Y-127919639D01*
X133796335Y-127919638D01*
X133791464Y-127917913D01*
X133786371Y-127917006D01*
X133786368Y-127917005D01*
X133568255Y-127878153D01*
X133568249Y-127878152D01*
X133563166Y-127877247D01*
X133474632Y-127876165D01*
X133336461Y-127874477D01*
X133336459Y-127874477D01*
X133331292Y-127874414D01*
X133102069Y-127909490D01*
X132881653Y-127981533D01*
X132877065Y-127983921D01*
X132877061Y-127983923D01*
X132680551Y-128086220D01*
X132675962Y-128088609D01*
X132671829Y-128091712D01*
X132671826Y-128091714D01*
X132494657Y-128224736D01*
X132490522Y-128227841D01*
X132330313Y-128395491D01*
X132199636Y-128587056D01*
X132163716Y-128664440D01*
X132122726Y-128752745D01*
X132102001Y-128797392D01*
X132040031Y-129020849D01*
X132015389Y-129251428D01*
X128156200Y-129251428D01*
X128156200Y-128336166D01*
X128149445Y-128273984D01*
X128098315Y-128137595D01*
X128010961Y-128021039D01*
X127894405Y-127933685D01*
X127758016Y-127882555D01*
X127695834Y-127875800D01*
X125796166Y-127875800D01*
X125733984Y-127882555D01*
X125597595Y-127933685D01*
X125481039Y-128021039D01*
X125393685Y-128137595D01*
X125342555Y-128273984D01*
X125335800Y-128336166D01*
X125335800Y-130235834D01*
X122790765Y-130235834D01*
X122823602Y-130203111D01*
X122958920Y-130014796D01*
X123001616Y-129928408D01*
X123059370Y-129811550D01*
X123059371Y-129811548D01*
X123061664Y-129806908D01*
X123092900Y-129704099D01*
X123127572Y-129589984D01*
X123127573Y-129589978D01*
X123129076Y-129585032D01*
X123159344Y-129355124D01*
X123161033Y-129286000D01*
X123153560Y-129195110D01*
X123142456Y-129060039D01*
X123142455Y-129060033D01*
X123142032Y-129054888D01*
X123085540Y-128829983D01*
X122993073Y-128617325D01*
X122867116Y-128422624D01*
X122839027Y-128391754D01*
X122714528Y-128254932D01*
X122714526Y-128254931D01*
X122711050Y-128251110D01*
X122706999Y-128247911D01*
X122706995Y-128247907D01*
X122533125Y-128110594D01*
X122529067Y-128107389D01*
X122326055Y-127995320D01*
X122207620Y-127953380D01*
X122112339Y-127919639D01*
X122112335Y-127919638D01*
X122107464Y-127917913D01*
X122102371Y-127917006D01*
X122102368Y-127917005D01*
X121884255Y-127878153D01*
X121884249Y-127878152D01*
X121879166Y-127877247D01*
X121790632Y-127876165D01*
X121652461Y-127874477D01*
X121652459Y-127874477D01*
X121647292Y-127874414D01*
X121418069Y-127909490D01*
X121197653Y-127981533D01*
X121193065Y-127983921D01*
X121193061Y-127983923D01*
X120996551Y-128086220D01*
X120991962Y-128088609D01*
X120987829Y-128091712D01*
X120987826Y-128091714D01*
X120810657Y-128224736D01*
X120806522Y-128227841D01*
X120646313Y-128395491D01*
X120515636Y-128587056D01*
X120479716Y-128664440D01*
X120438726Y-128752745D01*
X120418001Y-128797392D01*
X120356031Y-129020849D01*
X120331389Y-129251428D01*
X118158190Y-129251428D01*
X118153560Y-129195110D01*
X118142456Y-129060039D01*
X118142455Y-129060033D01*
X118142032Y-129054888D01*
X118085540Y-128829983D01*
X117993073Y-128617325D01*
X117867116Y-128422624D01*
X117839027Y-128391754D01*
X117714528Y-128254932D01*
X117714526Y-128254931D01*
X117711050Y-128251110D01*
X117706999Y-128247911D01*
X117706995Y-128247907D01*
X117533125Y-128110594D01*
X117529067Y-128107389D01*
X117326055Y-127995320D01*
X117207620Y-127953380D01*
X117112339Y-127919639D01*
X117112335Y-127919638D01*
X117107464Y-127917913D01*
X117102371Y-127917006D01*
X117102368Y-127917005D01*
X116884255Y-127878153D01*
X116884249Y-127878152D01*
X116879166Y-127877247D01*
X116790632Y-127876165D01*
X116652461Y-127874477D01*
X116652459Y-127874477D01*
X116647292Y-127874414D01*
X116418069Y-127909490D01*
X116197653Y-127981533D01*
X116193065Y-127983921D01*
X116193061Y-127983923D01*
X115996551Y-128086220D01*
X115991962Y-128088609D01*
X115987829Y-128091712D01*
X115987826Y-128091714D01*
X115810657Y-128224736D01*
X115806522Y-128227841D01*
X115646313Y-128395491D01*
X115515636Y-128587056D01*
X115479716Y-128664440D01*
X115438726Y-128752745D01*
X115418001Y-128797392D01*
X115356031Y-129020849D01*
X115331389Y-129251428D01*
X104140500Y-129251428D01*
X104140500Y-119634000D01*
X148346835Y-119634000D01*
X148365465Y-119870711D01*
X148366619Y-119875518D01*
X148366620Y-119875524D01*
X148384459Y-119949828D01*
X148420895Y-120101594D01*
X148422788Y-120106165D01*
X148422789Y-120106167D01*
X148478609Y-120240928D01*
X148511760Y-120320963D01*
X148514346Y-120325183D01*
X148633241Y-120519202D01*
X148633245Y-120519208D01*
X148635824Y-120523416D01*
X148790031Y-120703969D01*
X148970584Y-120858176D01*
X148974792Y-120860755D01*
X148974798Y-120860759D01*
X149168817Y-120979654D01*
X149173037Y-120982240D01*
X149177607Y-120984133D01*
X149177611Y-120984135D01*
X149387833Y-121071211D01*
X149392406Y-121073105D01*
X149472609Y-121092360D01*
X149618476Y-121127380D01*
X149618482Y-121127381D01*
X149623289Y-121128535D01*
X149860000Y-121147165D01*
X150096711Y-121128535D01*
X150101518Y-121127381D01*
X150101524Y-121127380D01*
X150247391Y-121092360D01*
X150327594Y-121073105D01*
X150332167Y-121071211D01*
X150542389Y-120984135D01*
X150542393Y-120984133D01*
X150546963Y-120982240D01*
X150551183Y-120979654D01*
X150745202Y-120860759D01*
X150745208Y-120860755D01*
X150749416Y-120858176D01*
X150929969Y-120703969D01*
X151084176Y-120523416D01*
X151086755Y-120519208D01*
X151086759Y-120519202D01*
X151205654Y-120325183D01*
X151208240Y-120320963D01*
X151241392Y-120240928D01*
X151297211Y-120106167D01*
X151297212Y-120106165D01*
X151299105Y-120101594D01*
X151335541Y-119949828D01*
X151353380Y-119875524D01*
X151353381Y-119875518D01*
X151354535Y-119870711D01*
X151373165Y-119634000D01*
X151354535Y-119397289D01*
X151352588Y-119389176D01*
X151311603Y-119218465D01*
X151299105Y-119166406D01*
X151208240Y-118947037D01*
X151205654Y-118942817D01*
X151086759Y-118748798D01*
X151086755Y-118748792D01*
X151084176Y-118744584D01*
X150929969Y-118564031D01*
X150749416Y-118409824D01*
X150745208Y-118407245D01*
X150745202Y-118407241D01*
X150551183Y-118288346D01*
X150546963Y-118285760D01*
X150542393Y-118283867D01*
X150542389Y-118283865D01*
X150332167Y-118196789D01*
X150332165Y-118196788D01*
X150327594Y-118194895D01*
X150247391Y-118175640D01*
X150101524Y-118140620D01*
X150101518Y-118140619D01*
X150096711Y-118139465D01*
X149860000Y-118120835D01*
X149623289Y-118139465D01*
X149618482Y-118140619D01*
X149618476Y-118140620D01*
X149472609Y-118175640D01*
X149392406Y-118194895D01*
X149387835Y-118196788D01*
X149387833Y-118196789D01*
X149177611Y-118283865D01*
X149177607Y-118283867D01*
X149173037Y-118285760D01*
X149168817Y-118288346D01*
X148974798Y-118407241D01*
X148974792Y-118407245D01*
X148970584Y-118409824D01*
X148790031Y-118564031D01*
X148635824Y-118744584D01*
X148633245Y-118748792D01*
X148633241Y-118748798D01*
X148514346Y-118942817D01*
X148511760Y-118947037D01*
X148420895Y-119166406D01*
X148408397Y-119218465D01*
X148367413Y-119389176D01*
X148365465Y-119397289D01*
X148346835Y-119634000D01*
X104140500Y-119634000D01*
X104140500Y-117606299D01*
X161134197Y-117606299D01*
X161134887Y-117612864D01*
X161153112Y-117786262D01*
X161154159Y-117796227D01*
X161213174Y-117977855D01*
X161308661Y-118143243D01*
X161313079Y-118148150D01*
X161313080Y-118148151D01*
X161356874Y-118196789D01*
X161436448Y-118285165D01*
X161590949Y-118397417D01*
X161596977Y-118400101D01*
X161596979Y-118400102D01*
X161759382Y-118472408D01*
X161765413Y-118475093D01*
X161858813Y-118494946D01*
X161945757Y-118513427D01*
X161945762Y-118513427D01*
X161952214Y-118514799D01*
X162143188Y-118514799D01*
X162149640Y-118513427D01*
X162149645Y-118513427D01*
X162236589Y-118494946D01*
X162329989Y-118475093D01*
X162336020Y-118472408D01*
X162498423Y-118400102D01*
X162498425Y-118400101D01*
X162504453Y-118397417D01*
X162658954Y-118285165D01*
X162738528Y-118196789D01*
X162782322Y-118148151D01*
X162782323Y-118148150D01*
X162786741Y-118143243D01*
X162882228Y-117977855D01*
X162941243Y-117796227D01*
X162942291Y-117786262D01*
X162960515Y-117612864D01*
X162961205Y-117606299D01*
X162957199Y-117568188D01*
X162941933Y-117422934D01*
X162941933Y-117422932D01*
X162941243Y-117416371D01*
X162882228Y-117234743D01*
X162786741Y-117069355D01*
X162713564Y-116988084D01*
X162682848Y-116924078D01*
X162681201Y-116903775D01*
X162681201Y-116518122D01*
X162701203Y-116450001D01*
X162733137Y-116416188D01*
X162794552Y-116371567D01*
X162798974Y-116366656D01*
X162917920Y-116234553D01*
X162917921Y-116234552D01*
X162922339Y-116229645D01*
X162996482Y-116101226D01*
X163014522Y-116069980D01*
X163014523Y-116069979D01*
X163017826Y-116064257D01*
X163076841Y-115882629D01*
X163077678Y-115874672D01*
X163096113Y-115699266D01*
X163096803Y-115692701D01*
X163076841Y-115502773D01*
X163017826Y-115321145D01*
X162922339Y-115155757D01*
X162815730Y-115037355D01*
X162798974Y-115018746D01*
X162798973Y-115018745D01*
X162794552Y-115013835D01*
X162694027Y-114940799D01*
X162645393Y-114905464D01*
X162645392Y-114905463D01*
X162640051Y-114901583D01*
X162634023Y-114898899D01*
X162634021Y-114898898D01*
X162471618Y-114826592D01*
X162471617Y-114826592D01*
X162465587Y-114823907D01*
X162372187Y-114804054D01*
X162285243Y-114785573D01*
X162285238Y-114785573D01*
X162278786Y-114784201D01*
X162087812Y-114784201D01*
X162081360Y-114785573D01*
X162081355Y-114785573D01*
X161994411Y-114804054D01*
X161901011Y-114823907D01*
X161894981Y-114826592D01*
X161894980Y-114826592D01*
X161732577Y-114898898D01*
X161732575Y-114898899D01*
X161726547Y-114901583D01*
X161721206Y-114905463D01*
X161721205Y-114905464D01*
X161672571Y-114940799D01*
X161572046Y-115013835D01*
X161567625Y-115018745D01*
X161567624Y-115018746D01*
X161550869Y-115037355D01*
X161444259Y-115155757D01*
X161348772Y-115321145D01*
X161289757Y-115502773D01*
X161269795Y-115692701D01*
X161270485Y-115699266D01*
X161288921Y-115874672D01*
X161289757Y-115882629D01*
X161348772Y-116064257D01*
X161352075Y-116069979D01*
X161352076Y-116069980D01*
X161397320Y-116148344D01*
X161414201Y-116211344D01*
X161414201Y-116903775D01*
X161394199Y-116971896D01*
X161381843Y-116988078D01*
X161308661Y-117069355D01*
X161213174Y-117234743D01*
X161154159Y-117416371D01*
X161153469Y-117422932D01*
X161153469Y-117422934D01*
X161138203Y-117568188D01*
X161134197Y-117606299D01*
X104140500Y-117606299D01*
X104140500Y-115570000D01*
X136246496Y-115570000D01*
X136266458Y-115759928D01*
X136325473Y-115941556D01*
X136420960Y-116106944D01*
X136425378Y-116111851D01*
X136425379Y-116111852D01*
X136538168Y-116237117D01*
X136548747Y-116248866D01*
X136703248Y-116361118D01*
X136709276Y-116363802D01*
X136709278Y-116363803D01*
X136826933Y-116416186D01*
X136877712Y-116438794D01*
X136965194Y-116457389D01*
X137058056Y-116477128D01*
X137058061Y-116477128D01*
X137064513Y-116478500D01*
X137255487Y-116478500D01*
X137261939Y-116477128D01*
X137261944Y-116477128D01*
X137354806Y-116457389D01*
X137442288Y-116438794D01*
X137493067Y-116416186D01*
X137610722Y-116363803D01*
X137610724Y-116363802D01*
X137616752Y-116361118D01*
X137640314Y-116343999D01*
X137765909Y-116252749D01*
X137765911Y-116252747D01*
X137771253Y-116248866D01*
X137775672Y-116243958D01*
X137779888Y-116240162D01*
X137843896Y-116209445D01*
X137864198Y-116207799D01*
X138488099Y-116207799D01*
X138556220Y-116227801D01*
X138575446Y-116244142D01*
X138575719Y-116243839D01*
X138580631Y-116248262D01*
X138585046Y-116253165D01*
X138605784Y-116268232D01*
X138666298Y-116312198D01*
X138739547Y-116365417D01*
X138745575Y-116368101D01*
X138745577Y-116368102D01*
X138907980Y-116440408D01*
X138914011Y-116443093D01*
X139007411Y-116462946D01*
X139094355Y-116481427D01*
X139094360Y-116481427D01*
X139100812Y-116482799D01*
X139291786Y-116482799D01*
X139298238Y-116481427D01*
X139298243Y-116481427D01*
X139385187Y-116462946D01*
X139478587Y-116443093D01*
X139484618Y-116440408D01*
X139647021Y-116368102D01*
X139647023Y-116368101D01*
X139653051Y-116365417D01*
X139807552Y-116253165D01*
X139824310Y-116234553D01*
X139930920Y-116116151D01*
X139930921Y-116116150D01*
X139935339Y-116111243D01*
X140030826Y-115945855D01*
X140089841Y-115764227D01*
X140092497Y-115738962D01*
X140109113Y-115580864D01*
X140109803Y-115574299D01*
X140089841Y-115384371D01*
X140030826Y-115202743D01*
X139935339Y-115037355D01*
X139918584Y-115018746D01*
X139811974Y-114900344D01*
X139811973Y-114900343D01*
X139807552Y-114895433D01*
X139653051Y-114783181D01*
X139647023Y-114780497D01*
X139647021Y-114780496D01*
X139484618Y-114708190D01*
X139484617Y-114708190D01*
X139478587Y-114705505D01*
X139385187Y-114685652D01*
X139298243Y-114667171D01*
X139298238Y-114667171D01*
X139291786Y-114665799D01*
X139100812Y-114665799D01*
X139094360Y-114667171D01*
X139094355Y-114667171D01*
X139007411Y-114685652D01*
X138914011Y-114705505D01*
X138907981Y-114708190D01*
X138907980Y-114708190D01*
X138745577Y-114780496D01*
X138745575Y-114780497D01*
X138739547Y-114783181D01*
X138585046Y-114895433D01*
X138580631Y-114900336D01*
X138575719Y-114904759D01*
X138574594Y-114903510D01*
X138521285Y-114936350D01*
X138488099Y-114940799D01*
X137872071Y-114940799D01*
X137803950Y-114920797D01*
X137778437Y-114899112D01*
X137775670Y-114896039D01*
X137775667Y-114896037D01*
X137771253Y-114891134D01*
X137682419Y-114826592D01*
X137622094Y-114782763D01*
X137622093Y-114782762D01*
X137616752Y-114778882D01*
X137610724Y-114776198D01*
X137610722Y-114776197D01*
X137448319Y-114703891D01*
X137448318Y-114703891D01*
X137442288Y-114701206D01*
X137348887Y-114681353D01*
X137261944Y-114662872D01*
X137261939Y-114662872D01*
X137255487Y-114661500D01*
X137064513Y-114661500D01*
X137058061Y-114662872D01*
X137058056Y-114662872D01*
X136971113Y-114681353D01*
X136877712Y-114701206D01*
X136871682Y-114703891D01*
X136871681Y-114703891D01*
X136709278Y-114776197D01*
X136709276Y-114776198D01*
X136703248Y-114778882D01*
X136697907Y-114782762D01*
X136697906Y-114782763D01*
X136691989Y-114787062D01*
X136548747Y-114891134D01*
X136544326Y-114896044D01*
X136544325Y-114896045D01*
X136438267Y-115013835D01*
X136420960Y-115033056D01*
X136325473Y-115198444D01*
X136266458Y-115380072D01*
X136265768Y-115386633D01*
X136265768Y-115386635D01*
X136255323Y-115486017D01*
X136246496Y-115570000D01*
X104140500Y-115570000D01*
X104140500Y-112014000D01*
X128026835Y-112014000D01*
X128045465Y-112250711D01*
X128100895Y-112481594D01*
X128191760Y-112700963D01*
X128194346Y-112705183D01*
X128313241Y-112899202D01*
X128313245Y-112899208D01*
X128315824Y-112903416D01*
X128470031Y-113083969D01*
X128650584Y-113238176D01*
X128654792Y-113240755D01*
X128654798Y-113240759D01*
X128806960Y-113334004D01*
X128853037Y-113362240D01*
X128857607Y-113364133D01*
X128857611Y-113364135D01*
X129067833Y-113451211D01*
X129072406Y-113453105D01*
X129142117Y-113469841D01*
X129298476Y-113507380D01*
X129298482Y-113507381D01*
X129303289Y-113508535D01*
X129540000Y-113527165D01*
X129776711Y-113508535D01*
X129781518Y-113507381D01*
X129781524Y-113507380D01*
X129937883Y-113469841D01*
X130007594Y-113453105D01*
X130012167Y-113451211D01*
X130222389Y-113364135D01*
X130222393Y-113364133D01*
X130226963Y-113362240D01*
X130273040Y-113334004D01*
X130425202Y-113240759D01*
X130425208Y-113240755D01*
X130429416Y-113238176D01*
X130609969Y-113083969D01*
X130764176Y-112903416D01*
X130766755Y-112899208D01*
X130766759Y-112899202D01*
X130885654Y-112705183D01*
X130888240Y-112700963D01*
X130979105Y-112481594D01*
X131034535Y-112250711D01*
X131053165Y-112014000D01*
X131034535Y-111777289D01*
X130979105Y-111546406D01*
X130888240Y-111327037D01*
X130885654Y-111322817D01*
X130766759Y-111128798D01*
X130766755Y-111128792D01*
X130764176Y-111124584D01*
X130609969Y-110944031D01*
X130429416Y-110789824D01*
X130425208Y-110787245D01*
X130425202Y-110787241D01*
X130231183Y-110668346D01*
X130226963Y-110665760D01*
X130222393Y-110663867D01*
X130222389Y-110663865D01*
X130012167Y-110576789D01*
X130012165Y-110576788D01*
X130007594Y-110574895D01*
X129927391Y-110555640D01*
X129781524Y-110520620D01*
X129781518Y-110520619D01*
X129776711Y-110519465D01*
X129540000Y-110500835D01*
X129303289Y-110519465D01*
X129298482Y-110520619D01*
X129298476Y-110520620D01*
X129152609Y-110555640D01*
X129072406Y-110574895D01*
X129067835Y-110576788D01*
X129067833Y-110576789D01*
X128857611Y-110663865D01*
X128857607Y-110663867D01*
X128853037Y-110665760D01*
X128848817Y-110668346D01*
X128654798Y-110787241D01*
X128654792Y-110787245D01*
X128650584Y-110789824D01*
X128470031Y-110944031D01*
X128315824Y-111124584D01*
X128313245Y-111128792D01*
X128313241Y-111128798D01*
X128194346Y-111322817D01*
X128191760Y-111327037D01*
X128100895Y-111546406D01*
X128045465Y-111777289D01*
X128026835Y-112014000D01*
X104140500Y-112014000D01*
X104140500Y-110322134D01*
X109347880Y-110322134D01*
X109354635Y-110384316D01*
X109405765Y-110520705D01*
X109493119Y-110637261D01*
X109609675Y-110724615D01*
X109746064Y-110775745D01*
X109808246Y-110782500D01*
X111504514Y-110782500D01*
X111566696Y-110775745D01*
X111703085Y-110724615D01*
X111819641Y-110637261D01*
X111906995Y-110520705D01*
X111958125Y-110384316D01*
X111964880Y-110322134D01*
X111964880Y-108625866D01*
X111958125Y-108563684D01*
X111906995Y-108427295D01*
X111819641Y-108310739D01*
X111703085Y-108223385D01*
X111566696Y-108172255D01*
X111504514Y-108165500D01*
X109808246Y-108165500D01*
X109746064Y-108172255D01*
X109609675Y-108223385D01*
X109493119Y-108310739D01*
X109405765Y-108427295D01*
X109354635Y-108563684D01*
X109347880Y-108625866D01*
X109347880Y-110322134D01*
X104140500Y-110322134D01*
X104140500Y-101579943D01*
X172843780Y-101579943D01*
X172844526Y-101587835D01*
X172847941Y-101623961D01*
X172848500Y-101635819D01*
X172848500Y-102309235D01*
X172847973Y-102320418D01*
X172846298Y-102327911D01*
X172846547Y-102335837D01*
X172846547Y-102335838D01*
X172848438Y-102395988D01*
X172848500Y-102399947D01*
X172848500Y-102427858D01*
X172848997Y-102431792D01*
X172848997Y-102431793D01*
X172849005Y-102431858D01*
X172849938Y-102443695D01*
X172851327Y-102487891D01*
X172856978Y-102507341D01*
X172860987Y-102526702D01*
X172863526Y-102546799D01*
X172866445Y-102554170D01*
X172866445Y-102554172D01*
X172879804Y-102587914D01*
X172883649Y-102599144D01*
X172895982Y-102641595D01*
X172900015Y-102648414D01*
X172900017Y-102648419D01*
X172906293Y-102659030D01*
X172914988Y-102676778D01*
X172922448Y-102695619D01*
X172927110Y-102702035D01*
X172927110Y-102702036D01*
X172948436Y-102731389D01*
X172954952Y-102741309D01*
X172977458Y-102779364D01*
X172991779Y-102793685D01*
X173004619Y-102808718D01*
X173016528Y-102825109D01*
X173022634Y-102830160D01*
X173050605Y-102853300D01*
X173059384Y-102861290D01*
X174175771Y-103977678D01*
X174209797Y-104039990D01*
X174208094Y-104100442D01*
X174178030Y-104208850D01*
X174153388Y-104439429D01*
X174166737Y-104670936D01*
X174217717Y-104897154D01*
X174304961Y-105112008D01*
X174426124Y-105309728D01*
X174577952Y-105485003D01*
X174756369Y-105633128D01*
X174760821Y-105635730D01*
X174760826Y-105635733D01*
X174952125Y-105747519D01*
X174956583Y-105750124D01*
X175173217Y-105832848D01*
X175178285Y-105833879D01*
X175178288Y-105833880D01*
X175290089Y-105856626D01*
X175400453Y-105879080D01*
X175405626Y-105879270D01*
X175405629Y-105879270D01*
X175627025Y-105887388D01*
X175627029Y-105887388D01*
X175632189Y-105887577D01*
X175637309Y-105886921D01*
X175637311Y-105886921D01*
X175708108Y-105877852D01*
X175862201Y-105858112D01*
X175867150Y-105856627D01*
X175867156Y-105856626D01*
X176079369Y-105792959D01*
X176084312Y-105791476D01*
X176292557Y-105689458D01*
X176376155Y-105629828D01*
X176477131Y-105557803D01*
X176477136Y-105557799D01*
X176481343Y-105554798D01*
X176645601Y-105391112D01*
X176780919Y-105202797D01*
X176823615Y-105116409D01*
X176881369Y-104999551D01*
X176881370Y-104999549D01*
X176883663Y-104994909D01*
X176914899Y-104892100D01*
X176949571Y-104777985D01*
X176949572Y-104777979D01*
X176951075Y-104773033D01*
X176981343Y-104543125D01*
X176983032Y-104474001D01*
X176976733Y-104397387D01*
X176964455Y-104248040D01*
X176964454Y-104248034D01*
X176964031Y-104242889D01*
X176907539Y-104017984D01*
X176815072Y-103805326D01*
X176689115Y-103610625D01*
X176533049Y-103439111D01*
X176528998Y-103435912D01*
X176528994Y-103435908D01*
X176355124Y-103298595D01*
X176351066Y-103295390D01*
X176148054Y-103183321D01*
X176011882Y-103135100D01*
X175934338Y-103107640D01*
X175934334Y-103107639D01*
X175929463Y-103105914D01*
X175924370Y-103105007D01*
X175924367Y-103105006D01*
X175706254Y-103066154D01*
X175706248Y-103066153D01*
X175701165Y-103065248D01*
X175612631Y-103064166D01*
X175474460Y-103062478D01*
X175474458Y-103062478D01*
X175469291Y-103062415D01*
X175240068Y-103097491D01*
X175214298Y-103105914D01*
X175198538Y-103111065D01*
X175127574Y-103113216D01*
X175070298Y-103080395D01*
X174152405Y-102162502D01*
X174118379Y-102100190D01*
X174115500Y-102073407D01*
X174115500Y-101914595D01*
X174135502Y-101846474D01*
X174152405Y-101825500D01*
X174443532Y-101534373D01*
X174505844Y-101500347D01*
X174576659Y-101505412D01*
X174621645Y-101534295D01*
X174640516Y-101553134D01*
X174640521Y-101553138D01*
X174645697Y-101558305D01*
X174651927Y-101562145D01*
X174651928Y-101562146D01*
X174789090Y-101646694D01*
X174796262Y-101651115D01*
X174876005Y-101677564D01*
X174957611Y-101704632D01*
X174957613Y-101704632D01*
X174964139Y-101706797D01*
X174970975Y-101707497D01*
X174970978Y-101707498D01*
X175014031Y-101711909D01*
X175068600Y-101717500D01*
X175844400Y-101717500D01*
X175847646Y-101717163D01*
X175847650Y-101717163D01*
X175943308Y-101707238D01*
X175943312Y-101707237D01*
X175950166Y-101706526D01*
X175956702Y-101704345D01*
X175956704Y-101704345D01*
X176088806Y-101660272D01*
X176117946Y-101650550D01*
X176268348Y-101557478D01*
X176393305Y-101432303D01*
X176486115Y-101281738D01*
X176541797Y-101113861D01*
X176552500Y-101009400D01*
X176552500Y-99958600D01*
X176551595Y-99949874D01*
X176542238Y-99859692D01*
X176542237Y-99859688D01*
X176541526Y-99852834D01*
X176517759Y-99781594D01*
X176487868Y-99692002D01*
X176485550Y-99685054D01*
X176392478Y-99534652D01*
X176267303Y-99409695D01*
X176202168Y-99369545D01*
X176154675Y-99316773D01*
X176143251Y-99246701D01*
X176171525Y-99181577D01*
X176228408Y-99142761D01*
X176296215Y-99120139D01*
X176336945Y-99106550D01*
X176487348Y-99013478D01*
X176512285Y-98988498D01*
X176607134Y-98893483D01*
X176612305Y-98888303D01*
X176643018Y-98838478D01*
X176701275Y-98743968D01*
X176701276Y-98743966D01*
X176705115Y-98737738D01*
X176760797Y-98569861D01*
X176763874Y-98539835D01*
X176768246Y-98497158D01*
X176771500Y-98465400D01*
X177304500Y-98465400D01*
X177304837Y-98468646D01*
X177304837Y-98468650D01*
X177314600Y-98562738D01*
X177315474Y-98571165D01*
X177317655Y-98577701D01*
X177317655Y-98577703D01*
X177334114Y-98627037D01*
X177371450Y-98738945D01*
X177464522Y-98889348D01*
X177589697Y-99014305D01*
X177595927Y-99018145D01*
X177595928Y-99018146D01*
X177733090Y-99102694D01*
X177740262Y-99107115D01*
X177820005Y-99133564D01*
X177901611Y-99160632D01*
X177901613Y-99160632D01*
X177908139Y-99162797D01*
X177914975Y-99163497D01*
X177914978Y-99163498D01*
X177958031Y-99167909D01*
X178012600Y-99173500D01*
X179038400Y-99173500D01*
X179041646Y-99173163D01*
X179041650Y-99173163D01*
X179137307Y-99163238D01*
X179137311Y-99163237D01*
X179144165Y-99162526D01*
X179150701Y-99160345D01*
X179150703Y-99160345D01*
X179282805Y-99116272D01*
X179311945Y-99106550D01*
X179462348Y-99013478D01*
X179487285Y-98988498D01*
X179582134Y-98893483D01*
X179587305Y-98888303D01*
X179618018Y-98838478D01*
X179676275Y-98743968D01*
X179676276Y-98743966D01*
X179680115Y-98737738D01*
X179735797Y-98569861D01*
X179738874Y-98539835D01*
X179739199Y-98536658D01*
X179766040Y-98470930D01*
X179824155Y-98430148D01*
X179864543Y-98423500D01*
X179938803Y-98423500D01*
X180006924Y-98443502D01*
X180053417Y-98497158D01*
X180058326Y-98509623D01*
X180059098Y-98511935D01*
X180076450Y-98563946D01*
X180080301Y-98570170D01*
X180080302Y-98570171D01*
X180154759Y-98690491D01*
X180169522Y-98714348D01*
X180174704Y-98719521D01*
X180232783Y-98777499D01*
X180294697Y-98839305D01*
X180300927Y-98843145D01*
X180300928Y-98843146D01*
X180438090Y-98927694D01*
X180445262Y-98932115D01*
X180525005Y-98958564D01*
X180606611Y-98985632D01*
X180606613Y-98985632D01*
X180613139Y-98987797D01*
X180619975Y-98988497D01*
X180619978Y-98988498D01*
X180663031Y-98992909D01*
X180717600Y-98998500D01*
X181518400Y-98998500D01*
X181521646Y-98998163D01*
X181521650Y-98998163D01*
X181617308Y-98988238D01*
X181617312Y-98988237D01*
X181624166Y-98987526D01*
X181630702Y-98985345D01*
X181630704Y-98985345D01*
X181762806Y-98941272D01*
X181791946Y-98931550D01*
X181942348Y-98838478D01*
X182067305Y-98713303D01*
X182071146Y-98707072D01*
X182156275Y-98568968D01*
X182156276Y-98568966D01*
X182160115Y-98562738D01*
X182204541Y-98428798D01*
X182213632Y-98401389D01*
X182213632Y-98401387D01*
X182215797Y-98394861D01*
X182226500Y-98290400D01*
X182226500Y-97289600D01*
X182223059Y-97256436D01*
X182216238Y-97190692D01*
X182216237Y-97190688D01*
X182215526Y-97183834D01*
X182211089Y-97170533D01*
X182161868Y-97023002D01*
X182159550Y-97016054D01*
X182066478Y-96865652D01*
X181941303Y-96740695D01*
X181935072Y-96736854D01*
X181796968Y-96651725D01*
X181796966Y-96651724D01*
X181790738Y-96647885D01*
X181630254Y-96594655D01*
X181629389Y-96594368D01*
X181629387Y-96594368D01*
X181622861Y-96592203D01*
X181616025Y-96591503D01*
X181616022Y-96591502D01*
X181572969Y-96587091D01*
X181518400Y-96581500D01*
X180717600Y-96581500D01*
X180714354Y-96581837D01*
X180714350Y-96581837D01*
X180618692Y-96591762D01*
X180618688Y-96591763D01*
X180611834Y-96592474D01*
X180605298Y-96594655D01*
X180605296Y-96594655D01*
X180473194Y-96638728D01*
X180444054Y-96648450D01*
X180293652Y-96741522D01*
X180168695Y-96866697D01*
X180164855Y-96872927D01*
X180164854Y-96872928D01*
X180080276Y-97010139D01*
X180075885Y-97017262D01*
X180058337Y-97070168D01*
X180017906Y-97128527D01*
X179952342Y-97155764D01*
X179938744Y-97156500D01*
X179864450Y-97156500D01*
X179796329Y-97136498D01*
X179749836Y-97082842D01*
X179739123Y-97043503D01*
X179736238Y-97015694D01*
X179736237Y-97015691D01*
X179735526Y-97008835D01*
X179679550Y-96841055D01*
X179586478Y-96690652D01*
X179461303Y-96565695D01*
X179455072Y-96561854D01*
X179316968Y-96476725D01*
X179316966Y-96476724D01*
X179310738Y-96472885D01*
X179150254Y-96419655D01*
X179149389Y-96419368D01*
X179149387Y-96419368D01*
X179142861Y-96417203D01*
X179136025Y-96416503D01*
X179136022Y-96416502D01*
X179092969Y-96412091D01*
X179038400Y-96406500D01*
X178012600Y-96406500D01*
X178009354Y-96406837D01*
X178009350Y-96406837D01*
X177913693Y-96416762D01*
X177913689Y-96416763D01*
X177906835Y-96417474D01*
X177900299Y-96419655D01*
X177900297Y-96419655D01*
X177768195Y-96463728D01*
X177739055Y-96473450D01*
X177588652Y-96566522D01*
X177583479Y-96571704D01*
X177563456Y-96591762D01*
X177463695Y-96691697D01*
X177459855Y-96697927D01*
X177459854Y-96697928D01*
X177430305Y-96745866D01*
X177370885Y-96842262D01*
X177315203Y-97010139D01*
X177314503Y-97016975D01*
X177314502Y-97016978D01*
X177310091Y-97060031D01*
X177304500Y-97114600D01*
X177304500Y-98465400D01*
X176771500Y-98465400D01*
X176771500Y-97114600D01*
X176764123Y-97043503D01*
X176761238Y-97015693D01*
X176761237Y-97015689D01*
X176760526Y-97008835D01*
X176704550Y-96841055D01*
X176611478Y-96690652D01*
X176486303Y-96565695D01*
X176480072Y-96561854D01*
X176341968Y-96476725D01*
X176341966Y-96476724D01*
X176335738Y-96472885D01*
X176175254Y-96419655D01*
X176174389Y-96419368D01*
X176174387Y-96419368D01*
X176167861Y-96417203D01*
X176161025Y-96416503D01*
X176161022Y-96416502D01*
X176117969Y-96412091D01*
X176063400Y-96406500D01*
X175037600Y-96406500D01*
X175034354Y-96406837D01*
X175034350Y-96406837D01*
X174938693Y-96416762D01*
X174938689Y-96416763D01*
X174931835Y-96417474D01*
X174925299Y-96419655D01*
X174925297Y-96419655D01*
X174793195Y-96463728D01*
X174764055Y-96473450D01*
X174613652Y-96566522D01*
X174608479Y-96571704D01*
X174588456Y-96591762D01*
X174488695Y-96691697D01*
X174484855Y-96697927D01*
X174484854Y-96697928D01*
X174455305Y-96745866D01*
X174395885Y-96842262D01*
X174340203Y-97010139D01*
X174339502Y-97016977D01*
X174339502Y-97016979D01*
X174336801Y-97043342D01*
X174309960Y-97109070D01*
X174251845Y-97149852D01*
X174211457Y-97156500D01*
X174204144Y-97156500D01*
X174200154Y-97157004D01*
X174188320Y-97157936D01*
X174144111Y-97159326D01*
X174136497Y-97161538D01*
X174136492Y-97161539D01*
X174124659Y-97164977D01*
X174105296Y-97168988D01*
X174085203Y-97171526D01*
X174077836Y-97174443D01*
X174077831Y-97174444D01*
X174044092Y-97187802D01*
X174032865Y-97191646D01*
X173990407Y-97203982D01*
X173983581Y-97208019D01*
X173972972Y-97214293D01*
X173955224Y-97222988D01*
X173936383Y-97230448D01*
X173929967Y-97235110D01*
X173929966Y-97235110D01*
X173900613Y-97256436D01*
X173890693Y-97262952D01*
X173859465Y-97281420D01*
X173859462Y-97281422D01*
X173852638Y-97285458D01*
X173838317Y-97299779D01*
X173823284Y-97312619D01*
X173806893Y-97324528D01*
X173780516Y-97356413D01*
X173778712Y-97358593D01*
X173770722Y-97367374D01*
X173089742Y-98048353D01*
X173081463Y-98055887D01*
X173074982Y-98060000D01*
X173028357Y-98109651D01*
X173025602Y-98112493D01*
X173005865Y-98132230D01*
X173003385Y-98135427D01*
X172995682Y-98144447D01*
X172965414Y-98176679D01*
X172961595Y-98183625D01*
X172961593Y-98183628D01*
X172955652Y-98194434D01*
X172944801Y-98210953D01*
X172932386Y-98226959D01*
X172929241Y-98234228D01*
X172929238Y-98234232D01*
X172914826Y-98267537D01*
X172909609Y-98278187D01*
X172888305Y-98316940D01*
X172886334Y-98324615D01*
X172886334Y-98324616D01*
X172883267Y-98336562D01*
X172876863Y-98355266D01*
X172868819Y-98373855D01*
X172867580Y-98381678D01*
X172867577Y-98381688D01*
X172861901Y-98417524D01*
X172859495Y-98429144D01*
X172855809Y-98443502D01*
X172848500Y-98471970D01*
X172848500Y-98492224D01*
X172846949Y-98511934D01*
X172843780Y-98531943D01*
X172844526Y-98539835D01*
X172847941Y-98575961D01*
X172848500Y-98587819D01*
X172848500Y-101540224D01*
X172846949Y-101559934D01*
X172843780Y-101579943D01*
X104140500Y-101579943D01*
X104140500Y-100362134D01*
X128031500Y-100362134D01*
X128038255Y-100424316D01*
X128089385Y-100560705D01*
X128176739Y-100677261D01*
X128293295Y-100764615D01*
X128429684Y-100815745D01*
X128491866Y-100822500D01*
X130588134Y-100822500D01*
X130650316Y-100815745D01*
X130786705Y-100764615D01*
X130903261Y-100677261D01*
X130990615Y-100560705D01*
X131041745Y-100424316D01*
X131048500Y-100362134D01*
X131048500Y-99314000D01*
X148346835Y-99314000D01*
X148365465Y-99550711D01*
X148420895Y-99781594D01*
X148422788Y-99786165D01*
X148422789Y-99786167D01*
X148506564Y-99988418D01*
X148511760Y-100000963D01*
X148514346Y-100005183D01*
X148633241Y-100199202D01*
X148633245Y-100199208D01*
X148635824Y-100203416D01*
X148790031Y-100383969D01*
X148970584Y-100538176D01*
X148974792Y-100540755D01*
X148974798Y-100540759D01*
X149168817Y-100659654D01*
X149173037Y-100662240D01*
X149177607Y-100664133D01*
X149177611Y-100664135D01*
X149387833Y-100751211D01*
X149392406Y-100753105D01*
X149440349Y-100764615D01*
X149618476Y-100807380D01*
X149618482Y-100807381D01*
X149623289Y-100808535D01*
X149860000Y-100827165D01*
X150096711Y-100808535D01*
X150101518Y-100807381D01*
X150101524Y-100807380D01*
X150279651Y-100764615D01*
X150327594Y-100753105D01*
X150332167Y-100751211D01*
X150542389Y-100664135D01*
X150542393Y-100664133D01*
X150546963Y-100662240D01*
X150551183Y-100659654D01*
X150745202Y-100540759D01*
X150745208Y-100540755D01*
X150749416Y-100538176D01*
X150929969Y-100383969D01*
X151084176Y-100203416D01*
X151086755Y-100199208D01*
X151086759Y-100199202D01*
X151205654Y-100005183D01*
X151208240Y-100000963D01*
X151213437Y-99988418D01*
X151297211Y-99786167D01*
X151297212Y-99786165D01*
X151299105Y-99781594D01*
X151354535Y-99550711D01*
X151373165Y-99314000D01*
X151354535Y-99077289D01*
X151339216Y-99013478D01*
X151309414Y-98889348D01*
X151299105Y-98846406D01*
X151293675Y-98833296D01*
X151210135Y-98631611D01*
X151210133Y-98631607D01*
X151208240Y-98627037D01*
X151184207Y-98587819D01*
X151086759Y-98428798D01*
X151086755Y-98428792D01*
X151084176Y-98424584D01*
X150929969Y-98244031D01*
X150749416Y-98089824D01*
X150745208Y-98087245D01*
X150745202Y-98087241D01*
X150551183Y-97968346D01*
X150546963Y-97965760D01*
X150542393Y-97963867D01*
X150542389Y-97963865D01*
X150332167Y-97876789D01*
X150332165Y-97876788D01*
X150327594Y-97874895D01*
X150247391Y-97855640D01*
X150101524Y-97820620D01*
X150101518Y-97820619D01*
X150096711Y-97819465D01*
X149860000Y-97800835D01*
X149623289Y-97819465D01*
X149618482Y-97820619D01*
X149618476Y-97820620D01*
X149472609Y-97855640D01*
X149392406Y-97874895D01*
X149387835Y-97876788D01*
X149387833Y-97876789D01*
X149177611Y-97963865D01*
X149177607Y-97963867D01*
X149173037Y-97965760D01*
X149168817Y-97968346D01*
X148974798Y-98087241D01*
X148974792Y-98087245D01*
X148970584Y-98089824D01*
X148790031Y-98244031D01*
X148635824Y-98424584D01*
X148633245Y-98428792D01*
X148633241Y-98428798D01*
X148535793Y-98587819D01*
X148511760Y-98627037D01*
X148509867Y-98631607D01*
X148509865Y-98631611D01*
X148426325Y-98833296D01*
X148420895Y-98846406D01*
X148410586Y-98889348D01*
X148380785Y-99013478D01*
X148365465Y-99077289D01*
X148346835Y-99314000D01*
X131048500Y-99314000D01*
X131048500Y-98265866D01*
X131041745Y-98203684D01*
X130990615Y-98067295D01*
X130903261Y-97950739D01*
X130786705Y-97863385D01*
X130650316Y-97812255D01*
X130588134Y-97805500D01*
X128491866Y-97805500D01*
X128429684Y-97812255D01*
X128293295Y-97863385D01*
X128176739Y-97950739D01*
X128089385Y-98067295D01*
X128038255Y-98203684D01*
X128031500Y-98265866D01*
X128031500Y-100362134D01*
X104140500Y-100362134D01*
X104140500Y-91236542D01*
X141501500Y-91236542D01*
X141513022Y-91378200D01*
X141514356Y-91383395D01*
X141514356Y-91383396D01*
X141532056Y-91452334D01*
X141568890Y-91595794D01*
X141662409Y-91800055D01*
X141790620Y-91984527D01*
X141949473Y-92143380D01*
X142133945Y-92271591D01*
X142338206Y-92365110D01*
X142343638Y-92366505D01*
X142343639Y-92366505D01*
X142480070Y-92401534D01*
X142555800Y-92420978D01*
X142609705Y-92425362D01*
X142694908Y-92432293D01*
X142694918Y-92432293D01*
X142697458Y-92432500D01*
X144322542Y-92432500D01*
X144325082Y-92432293D01*
X144325092Y-92432293D01*
X144410295Y-92425362D01*
X144464200Y-92420978D01*
X144539931Y-92401534D01*
X144676361Y-92366505D01*
X144676362Y-92366505D01*
X144681794Y-92365110D01*
X144886055Y-92271591D01*
X145070527Y-92143380D01*
X145229380Y-91984527D01*
X145357591Y-91800055D01*
X145451110Y-91595794D01*
X145487944Y-91452334D01*
X145505644Y-91383396D01*
X145505644Y-91383395D01*
X145506978Y-91378200D01*
X145518500Y-91236542D01*
X149121500Y-91236542D01*
X149133022Y-91378200D01*
X149134356Y-91383395D01*
X149134356Y-91383396D01*
X149152056Y-91452334D01*
X149188890Y-91595794D01*
X149282409Y-91800055D01*
X149410620Y-91984527D01*
X149569473Y-92143380D01*
X149753945Y-92271591D01*
X149958206Y-92365110D01*
X149963638Y-92366505D01*
X149963639Y-92366505D01*
X150100070Y-92401534D01*
X150175800Y-92420978D01*
X150229705Y-92425362D01*
X150314908Y-92432293D01*
X150314918Y-92432293D01*
X150317458Y-92432500D01*
X151942542Y-92432500D01*
X151945082Y-92432293D01*
X151945092Y-92432293D01*
X152030295Y-92425362D01*
X152084200Y-92420978D01*
X152159931Y-92401534D01*
X152296361Y-92366505D01*
X152296362Y-92366505D01*
X152301794Y-92365110D01*
X152506055Y-92271591D01*
X152690527Y-92143380D01*
X152849380Y-91984527D01*
X152977591Y-91800055D01*
X153071110Y-91595794D01*
X153107944Y-91452334D01*
X153125644Y-91383396D01*
X153125644Y-91383395D01*
X153126978Y-91378200D01*
X153138500Y-91236542D01*
X153138500Y-90402918D01*
X168086917Y-90402918D01*
X168102682Y-90676320D01*
X168103507Y-90680525D01*
X168103508Y-90680533D01*
X168114127Y-90734657D01*
X168155405Y-90945053D01*
X168156792Y-90949103D01*
X168156793Y-90949108D01*
X168177605Y-91009895D01*
X168244112Y-91204144D01*
X168261689Y-91239092D01*
X168331653Y-91378200D01*
X168367160Y-91448799D01*
X168369586Y-91452328D01*
X168369589Y-91452334D01*
X168519843Y-91670953D01*
X168522274Y-91674490D01*
X168706582Y-91877043D01*
X168916675Y-92052707D01*
X168920316Y-92054991D01*
X169145024Y-92195951D01*
X169145028Y-92195953D01*
X169148664Y-92198234D01*
X169216544Y-92228883D01*
X169394345Y-92309164D01*
X169394349Y-92309166D01*
X169398257Y-92310930D01*
X169402377Y-92312150D01*
X169402376Y-92312150D01*
X169656723Y-92387491D01*
X169656727Y-92387492D01*
X169660836Y-92388709D01*
X169665070Y-92389357D01*
X169665075Y-92389358D01*
X169927298Y-92429483D01*
X169927300Y-92429483D01*
X169931540Y-92430132D01*
X170070912Y-92432322D01*
X170201071Y-92434367D01*
X170201077Y-92434367D01*
X170205362Y-92434434D01*
X170477235Y-92401534D01*
X170742127Y-92332041D01*
X170746087Y-92330401D01*
X170746092Y-92330399D01*
X170895794Y-92268390D01*
X170995136Y-92227241D01*
X171231582Y-92089073D01*
X171447089Y-91920094D01*
X171488809Y-91877043D01*
X171634686Y-91726509D01*
X171637669Y-91723431D01*
X171640202Y-91719983D01*
X171640206Y-91719978D01*
X171797257Y-91506178D01*
X171799795Y-91502723D01*
X171827154Y-91452334D01*
X171928418Y-91265830D01*
X171928419Y-91265828D01*
X171930468Y-91262054D01*
X172027269Y-91005877D01*
X172088407Y-90738933D01*
X172112751Y-90466161D01*
X172113193Y-90424000D01*
X172111756Y-90402918D01*
X175706917Y-90402918D01*
X175722682Y-90676320D01*
X175723507Y-90680525D01*
X175723508Y-90680533D01*
X175734127Y-90734657D01*
X175775405Y-90945053D01*
X175776792Y-90949103D01*
X175776793Y-90949108D01*
X175797605Y-91009895D01*
X175864112Y-91204144D01*
X175881689Y-91239092D01*
X175951653Y-91378200D01*
X175987160Y-91448799D01*
X175989586Y-91452328D01*
X175989589Y-91452334D01*
X176139843Y-91670953D01*
X176142274Y-91674490D01*
X176326582Y-91877043D01*
X176536675Y-92052707D01*
X176540316Y-92054991D01*
X176765024Y-92195951D01*
X176765028Y-92195953D01*
X176768664Y-92198234D01*
X176836544Y-92228883D01*
X177014345Y-92309164D01*
X177014349Y-92309166D01*
X177018257Y-92310930D01*
X177022377Y-92312150D01*
X177022376Y-92312150D01*
X177276723Y-92387491D01*
X177276727Y-92387492D01*
X177280836Y-92388709D01*
X177285070Y-92389357D01*
X177285075Y-92389358D01*
X177547298Y-92429483D01*
X177547300Y-92429483D01*
X177551540Y-92430132D01*
X177690912Y-92432322D01*
X177821071Y-92434367D01*
X177821077Y-92434367D01*
X177825362Y-92434434D01*
X178097235Y-92401534D01*
X178362127Y-92332041D01*
X178366087Y-92330401D01*
X178366092Y-92330399D01*
X178515794Y-92268390D01*
X178615136Y-92227241D01*
X178851582Y-92089073D01*
X179067089Y-91920094D01*
X179108809Y-91877043D01*
X179254686Y-91726509D01*
X179257669Y-91723431D01*
X179260202Y-91719983D01*
X179260206Y-91719978D01*
X179417257Y-91506178D01*
X179419795Y-91502723D01*
X179447154Y-91452334D01*
X179548418Y-91265830D01*
X179548419Y-91265828D01*
X179550468Y-91262054D01*
X179647269Y-91005877D01*
X179708407Y-90738933D01*
X179732751Y-90466161D01*
X179733193Y-90424000D01*
X179714567Y-90150778D01*
X179659032Y-89882612D01*
X179567617Y-89624465D01*
X179487788Y-89469800D01*
X179443978Y-89384919D01*
X179443978Y-89384918D01*
X179442013Y-89381112D01*
X179432040Y-89366921D01*
X179287008Y-89160562D01*
X179284545Y-89157057D01*
X179132337Y-88993261D01*
X179101046Y-88959588D01*
X179101043Y-88959585D01*
X179098125Y-88956445D01*
X179094810Y-88953731D01*
X179094806Y-88953728D01*
X178889523Y-88785706D01*
X178886205Y-88782990D01*
X178652704Y-88639901D01*
X178648768Y-88638173D01*
X178405873Y-88531549D01*
X178405869Y-88531548D01*
X178401945Y-88529825D01*
X178138566Y-88454800D01*
X178134324Y-88454196D01*
X178134318Y-88454195D01*
X177933834Y-88425662D01*
X177867443Y-88416213D01*
X177723589Y-88415460D01*
X177597877Y-88414802D01*
X177597871Y-88414802D01*
X177593591Y-88414780D01*
X177589347Y-88415339D01*
X177589343Y-88415339D01*
X177490470Y-88428356D01*
X177322078Y-88450525D01*
X177317938Y-88451658D01*
X177317936Y-88451658D01*
X177245008Y-88471609D01*
X177057928Y-88522788D01*
X177053980Y-88524472D01*
X176809982Y-88628546D01*
X176809978Y-88628548D01*
X176806030Y-88630232D01*
X176695783Y-88696213D01*
X176574725Y-88768664D01*
X176574721Y-88768667D01*
X176571043Y-88770868D01*
X176357318Y-88942094D01*
X176303656Y-88998642D01*
X176183820Y-89124923D01*
X176168808Y-89140742D01*
X176009002Y-89363136D01*
X175880857Y-89605161D01*
X175879385Y-89609184D01*
X175879383Y-89609188D01*
X175872314Y-89628506D01*
X175786743Y-89862337D01*
X175728404Y-90129907D01*
X175706917Y-90402918D01*
X172111756Y-90402918D01*
X172094567Y-90150778D01*
X172039032Y-89882612D01*
X171947617Y-89624465D01*
X171867788Y-89469800D01*
X171823978Y-89384919D01*
X171823978Y-89384918D01*
X171822013Y-89381112D01*
X171812040Y-89366921D01*
X171667008Y-89160562D01*
X171664545Y-89157057D01*
X171512337Y-88993261D01*
X171481046Y-88959588D01*
X171481043Y-88959585D01*
X171478125Y-88956445D01*
X171474810Y-88953731D01*
X171474806Y-88953728D01*
X171269523Y-88785706D01*
X171266205Y-88782990D01*
X171032704Y-88639901D01*
X171028768Y-88638173D01*
X170785873Y-88531549D01*
X170785869Y-88531548D01*
X170781945Y-88529825D01*
X170518566Y-88454800D01*
X170514324Y-88454196D01*
X170514318Y-88454195D01*
X170313834Y-88425662D01*
X170247443Y-88416213D01*
X170103589Y-88415460D01*
X169977877Y-88414802D01*
X169977871Y-88414802D01*
X169973591Y-88414780D01*
X169969347Y-88415339D01*
X169969343Y-88415339D01*
X169870470Y-88428356D01*
X169702078Y-88450525D01*
X169697938Y-88451658D01*
X169697936Y-88451658D01*
X169625008Y-88471609D01*
X169437928Y-88522788D01*
X169433980Y-88524472D01*
X169189982Y-88628546D01*
X169189978Y-88628548D01*
X169186030Y-88630232D01*
X169075783Y-88696213D01*
X168954725Y-88768664D01*
X168954721Y-88768667D01*
X168951043Y-88770868D01*
X168737318Y-88942094D01*
X168683656Y-88998642D01*
X168563820Y-89124923D01*
X168548808Y-89140742D01*
X168389002Y-89363136D01*
X168260857Y-89605161D01*
X168259385Y-89609184D01*
X168259383Y-89609188D01*
X168252314Y-89628506D01*
X168166743Y-89862337D01*
X168108404Y-90129907D01*
X168086917Y-90402918D01*
X153138500Y-90402918D01*
X153138500Y-89611458D01*
X153126978Y-89469800D01*
X153100564Y-89366921D01*
X153072505Y-89257639D01*
X153072505Y-89257638D01*
X153071110Y-89252206D01*
X152977591Y-89047945D01*
X152849380Y-88863473D01*
X152690527Y-88704620D01*
X152506055Y-88576409D01*
X152301794Y-88482890D01*
X152196974Y-88455977D01*
X152089396Y-88428356D01*
X152089395Y-88428356D01*
X152084200Y-88427022D01*
X152030295Y-88422638D01*
X151945092Y-88415707D01*
X151945082Y-88415707D01*
X151942542Y-88415500D01*
X150317458Y-88415500D01*
X150314918Y-88415707D01*
X150314908Y-88415707D01*
X150229705Y-88422638D01*
X150175800Y-88427022D01*
X150170605Y-88428356D01*
X150170604Y-88428356D01*
X150063026Y-88455977D01*
X149958206Y-88482890D01*
X149753945Y-88576409D01*
X149569473Y-88704620D01*
X149410620Y-88863473D01*
X149282409Y-89047945D01*
X149188890Y-89252206D01*
X149187495Y-89257638D01*
X149187495Y-89257639D01*
X149159437Y-89366921D01*
X149133022Y-89469800D01*
X149121500Y-89611458D01*
X149121500Y-91236542D01*
X145518500Y-91236542D01*
X145518500Y-89611458D01*
X145506978Y-89469800D01*
X145480564Y-89366921D01*
X145452505Y-89257639D01*
X145452505Y-89257638D01*
X145451110Y-89252206D01*
X145357591Y-89047945D01*
X145229380Y-88863473D01*
X145070527Y-88704620D01*
X144886055Y-88576409D01*
X144681794Y-88482890D01*
X144576974Y-88455977D01*
X144469396Y-88428356D01*
X144469395Y-88428356D01*
X144464200Y-88427022D01*
X144410295Y-88422638D01*
X144325092Y-88415707D01*
X144325082Y-88415707D01*
X144322542Y-88415500D01*
X142697458Y-88415500D01*
X142694918Y-88415707D01*
X142694908Y-88415707D01*
X142609705Y-88422638D01*
X142555800Y-88427022D01*
X142550605Y-88428356D01*
X142550604Y-88428356D01*
X142443026Y-88455977D01*
X142338206Y-88482890D01*
X142133945Y-88576409D01*
X141949473Y-88704620D01*
X141790620Y-88863473D01*
X141662409Y-89047945D01*
X141568890Y-89252206D01*
X141567495Y-89257638D01*
X141567495Y-89257639D01*
X141539437Y-89366921D01*
X141513022Y-89469800D01*
X141501500Y-89611458D01*
X141501500Y-91236542D01*
X104140500Y-91236542D01*
X104140500Y-88678134D01*
X108540500Y-88678134D01*
X108547255Y-88740316D01*
X108598385Y-88876705D01*
X108685739Y-88993261D01*
X108802295Y-89080615D01*
X108938684Y-89131745D01*
X109000866Y-89138500D01*
X111097134Y-89138500D01*
X111159316Y-89131745D01*
X111295705Y-89080615D01*
X111412261Y-88993261D01*
X111499615Y-88876705D01*
X111499675Y-88876750D01*
X111546552Y-88829982D01*
X111615944Y-88814972D01*
X111682435Y-88839860D01*
X111688639Y-88844829D01*
X111695818Y-88850960D01*
X111695822Y-88850963D01*
X111699584Y-88854176D01*
X111703792Y-88856755D01*
X111703798Y-88856759D01*
X111838684Y-88939417D01*
X111902037Y-88978240D01*
X111906607Y-88980133D01*
X111906611Y-88980135D01*
X112082631Y-89053044D01*
X112121406Y-89069105D01*
X112169349Y-89080615D01*
X112347476Y-89123380D01*
X112347482Y-89123381D01*
X112352289Y-89124535D01*
X112589000Y-89143165D01*
X112825711Y-89124535D01*
X112830518Y-89123381D01*
X112830524Y-89123380D01*
X113008651Y-89080615D01*
X113056594Y-89069105D01*
X113095369Y-89053044D01*
X113271389Y-88980135D01*
X113271393Y-88980133D01*
X113275963Y-88978240D01*
X113339316Y-88939417D01*
X113474202Y-88856759D01*
X113474208Y-88856755D01*
X113478416Y-88854176D01*
X113658969Y-88699969D01*
X113662177Y-88696213D01*
X113662182Y-88696208D01*
X113763189Y-88577944D01*
X113822639Y-88539134D01*
X113893634Y-88538628D01*
X113954811Y-88577944D01*
X114055818Y-88696208D01*
X114055823Y-88696213D01*
X114059031Y-88699969D01*
X114239584Y-88854176D01*
X114243792Y-88856755D01*
X114243798Y-88856759D01*
X114378684Y-88939417D01*
X114442037Y-88978240D01*
X114446607Y-88980133D01*
X114446611Y-88980135D01*
X114622631Y-89053044D01*
X114661406Y-89069105D01*
X114709349Y-89080615D01*
X114887476Y-89123380D01*
X114887482Y-89123381D01*
X114892289Y-89124535D01*
X115129000Y-89143165D01*
X115365711Y-89124535D01*
X115370518Y-89123381D01*
X115370524Y-89123380D01*
X115548651Y-89080615D01*
X115596594Y-89069105D01*
X115635369Y-89053044D01*
X115811389Y-88980135D01*
X115811393Y-88980133D01*
X115815963Y-88978240D01*
X115879316Y-88939417D01*
X116014202Y-88856759D01*
X116014208Y-88856755D01*
X116018416Y-88854176D01*
X116198969Y-88699969D01*
X116202177Y-88696213D01*
X116202182Y-88696208D01*
X116303189Y-88577944D01*
X116362639Y-88539134D01*
X116433634Y-88538628D01*
X116494811Y-88577944D01*
X116595818Y-88696208D01*
X116595823Y-88696213D01*
X116599031Y-88699969D01*
X116779584Y-88854176D01*
X116783792Y-88856755D01*
X116783798Y-88856759D01*
X116918684Y-88939417D01*
X116982037Y-88978240D01*
X116986607Y-88980133D01*
X116986611Y-88980135D01*
X117162631Y-89053044D01*
X117201406Y-89069105D01*
X117249349Y-89080615D01*
X117427476Y-89123380D01*
X117427482Y-89123381D01*
X117432289Y-89124535D01*
X117669000Y-89143165D01*
X117905711Y-89124535D01*
X117910518Y-89123381D01*
X117910524Y-89123380D01*
X118088651Y-89080615D01*
X118136594Y-89069105D01*
X118175369Y-89053044D01*
X118351389Y-88980135D01*
X118351393Y-88980133D01*
X118355963Y-88978240D01*
X118419316Y-88939417D01*
X118554202Y-88856759D01*
X118554208Y-88856755D01*
X118558416Y-88854176D01*
X118738969Y-88699969D01*
X118893176Y-88519416D01*
X118895755Y-88515208D01*
X118895759Y-88515202D01*
X119014654Y-88321183D01*
X119017240Y-88316963D01*
X119108105Y-88097594D01*
X119163535Y-87866711D01*
X119182165Y-87630000D01*
X128855835Y-87630000D01*
X128874465Y-87866711D01*
X128929895Y-88097594D01*
X129020760Y-88316963D01*
X129023346Y-88321183D01*
X129142241Y-88515202D01*
X129142245Y-88515208D01*
X129144824Y-88519416D01*
X129299031Y-88699969D01*
X129479584Y-88854176D01*
X129483792Y-88856755D01*
X129483798Y-88856759D01*
X129618684Y-88939417D01*
X129682037Y-88978240D01*
X129686607Y-88980133D01*
X129686611Y-88980135D01*
X129862631Y-89053044D01*
X129901406Y-89069105D01*
X129949349Y-89080615D01*
X130127476Y-89123380D01*
X130127482Y-89123381D01*
X130132289Y-89124535D01*
X130369000Y-89143165D01*
X130605711Y-89124535D01*
X130610518Y-89123381D01*
X130610524Y-89123380D01*
X130788651Y-89080615D01*
X130836594Y-89069105D01*
X130875369Y-89053044D01*
X131051389Y-88980135D01*
X131051393Y-88980133D01*
X131055963Y-88978240D01*
X131119316Y-88939417D01*
X131254202Y-88856759D01*
X131254208Y-88856755D01*
X131258416Y-88854176D01*
X131438969Y-88699969D01*
X131442177Y-88696213D01*
X131442182Y-88696208D01*
X131543189Y-88577944D01*
X131602639Y-88539134D01*
X131673634Y-88538628D01*
X131734811Y-88577944D01*
X131835818Y-88696208D01*
X131835823Y-88696213D01*
X131839031Y-88699969D01*
X132019584Y-88854176D01*
X132023792Y-88856755D01*
X132023798Y-88856759D01*
X132158684Y-88939417D01*
X132222037Y-88978240D01*
X132226607Y-88980133D01*
X132226611Y-88980135D01*
X132402631Y-89053044D01*
X132441406Y-89069105D01*
X132489349Y-89080615D01*
X132667476Y-89123380D01*
X132667482Y-89123381D01*
X132672289Y-89124535D01*
X132909000Y-89143165D01*
X133145711Y-89124535D01*
X133150518Y-89123381D01*
X133150524Y-89123380D01*
X133328651Y-89080615D01*
X133376594Y-89069105D01*
X133415369Y-89053044D01*
X133591389Y-88980135D01*
X133591393Y-88980133D01*
X133595963Y-88978240D01*
X133659316Y-88939417D01*
X133794202Y-88856759D01*
X133794208Y-88856755D01*
X133798416Y-88854176D01*
X133978969Y-88699969D01*
X133982177Y-88696213D01*
X133982182Y-88696208D01*
X134083189Y-88577944D01*
X134142639Y-88539134D01*
X134213634Y-88538628D01*
X134274811Y-88577944D01*
X134375818Y-88696208D01*
X134375823Y-88696213D01*
X134379031Y-88699969D01*
X134559584Y-88854176D01*
X134563792Y-88856755D01*
X134563798Y-88856759D01*
X134698684Y-88939417D01*
X134762037Y-88978240D01*
X134766607Y-88980133D01*
X134766611Y-88980135D01*
X134942631Y-89053044D01*
X134981406Y-89069105D01*
X135029349Y-89080615D01*
X135207476Y-89123380D01*
X135207482Y-89123381D01*
X135212289Y-89124535D01*
X135449000Y-89143165D01*
X135685711Y-89124535D01*
X135690518Y-89123381D01*
X135690524Y-89123380D01*
X135868651Y-89080615D01*
X135916594Y-89069105D01*
X135955369Y-89053044D01*
X136131389Y-88980135D01*
X136131393Y-88980133D01*
X136135963Y-88978240D01*
X136199316Y-88939417D01*
X136334202Y-88856759D01*
X136334208Y-88856755D01*
X136338416Y-88854176D01*
X136518969Y-88699969D01*
X136522177Y-88696213D01*
X136522182Y-88696208D01*
X136623189Y-88577944D01*
X136682639Y-88539134D01*
X136753634Y-88538628D01*
X136814811Y-88577944D01*
X136915818Y-88696208D01*
X136915823Y-88696213D01*
X136919031Y-88699969D01*
X137099584Y-88854176D01*
X137103792Y-88856755D01*
X137103798Y-88856759D01*
X137238684Y-88939417D01*
X137302037Y-88978240D01*
X137306607Y-88980133D01*
X137306611Y-88980135D01*
X137482631Y-89053044D01*
X137521406Y-89069105D01*
X137569349Y-89080615D01*
X137747476Y-89123380D01*
X137747482Y-89123381D01*
X137752289Y-89124535D01*
X137989000Y-89143165D01*
X138225711Y-89124535D01*
X138230518Y-89123381D01*
X138230524Y-89123380D01*
X138408651Y-89080615D01*
X138456594Y-89069105D01*
X138495369Y-89053044D01*
X138671389Y-88980135D01*
X138671393Y-88980133D01*
X138675963Y-88978240D01*
X138739316Y-88939417D01*
X138874202Y-88856759D01*
X138874208Y-88856755D01*
X138878416Y-88854176D01*
X139058969Y-88699969D01*
X139213176Y-88519416D01*
X139215755Y-88515208D01*
X139215759Y-88515202D01*
X139334654Y-88321183D01*
X139337240Y-88316963D01*
X139428105Y-88097594D01*
X139483535Y-87866711D01*
X139502165Y-87630000D01*
X139483535Y-87393289D01*
X139428105Y-87162406D01*
X139337240Y-86943037D01*
X139334654Y-86938817D01*
X139215759Y-86744798D01*
X139215755Y-86744792D01*
X139213176Y-86740584D01*
X139058969Y-86560031D01*
X138878416Y-86405824D01*
X138874208Y-86403245D01*
X138874202Y-86403241D01*
X138680183Y-86284346D01*
X138675963Y-86281760D01*
X138671393Y-86279867D01*
X138671389Y-86279865D01*
X138461167Y-86192789D01*
X138461165Y-86192788D01*
X138456594Y-86190895D01*
X138376391Y-86171640D01*
X138230524Y-86136620D01*
X138230518Y-86136619D01*
X138225711Y-86135465D01*
X137989000Y-86116835D01*
X137752289Y-86135465D01*
X137747482Y-86136619D01*
X137747476Y-86136620D01*
X137601609Y-86171640D01*
X137521406Y-86190895D01*
X137516835Y-86192788D01*
X137516833Y-86192789D01*
X137306611Y-86279865D01*
X137306607Y-86279867D01*
X137302037Y-86281760D01*
X137297817Y-86284346D01*
X137103798Y-86403241D01*
X137103792Y-86403245D01*
X137099584Y-86405824D01*
X136919031Y-86560031D01*
X136915823Y-86563787D01*
X136915818Y-86563792D01*
X136814811Y-86682056D01*
X136755361Y-86720866D01*
X136684366Y-86721372D01*
X136623189Y-86682056D01*
X136522182Y-86563792D01*
X136522177Y-86563787D01*
X136518969Y-86560031D01*
X136338416Y-86405824D01*
X136334208Y-86403245D01*
X136334202Y-86403241D01*
X136140183Y-86284346D01*
X136135963Y-86281760D01*
X136131393Y-86279867D01*
X136131389Y-86279865D01*
X135921167Y-86192789D01*
X135921165Y-86192788D01*
X135916594Y-86190895D01*
X135836391Y-86171640D01*
X135690524Y-86136620D01*
X135690518Y-86136619D01*
X135685711Y-86135465D01*
X135449000Y-86116835D01*
X135212289Y-86135465D01*
X135207482Y-86136619D01*
X135207476Y-86136620D01*
X135061609Y-86171640D01*
X134981406Y-86190895D01*
X134976835Y-86192788D01*
X134976833Y-86192789D01*
X134766611Y-86279865D01*
X134766607Y-86279867D01*
X134762037Y-86281760D01*
X134757817Y-86284346D01*
X134563798Y-86403241D01*
X134563792Y-86403245D01*
X134559584Y-86405824D01*
X134379031Y-86560031D01*
X134375823Y-86563787D01*
X134375818Y-86563792D01*
X134274811Y-86682056D01*
X134215361Y-86720866D01*
X134144366Y-86721372D01*
X134083189Y-86682056D01*
X133982182Y-86563792D01*
X133982177Y-86563787D01*
X133978969Y-86560031D01*
X133798416Y-86405824D01*
X133794208Y-86403245D01*
X133794202Y-86403241D01*
X133600183Y-86284346D01*
X133595963Y-86281760D01*
X133591393Y-86279867D01*
X133591389Y-86279865D01*
X133381167Y-86192789D01*
X133381165Y-86192788D01*
X133376594Y-86190895D01*
X133296391Y-86171640D01*
X133150524Y-86136620D01*
X133150518Y-86136619D01*
X133145711Y-86135465D01*
X132909000Y-86116835D01*
X132672289Y-86135465D01*
X132667482Y-86136619D01*
X132667476Y-86136620D01*
X132521609Y-86171640D01*
X132441406Y-86190895D01*
X132436835Y-86192788D01*
X132436833Y-86192789D01*
X132226611Y-86279865D01*
X132226607Y-86279867D01*
X132222037Y-86281760D01*
X132217817Y-86284346D01*
X132023798Y-86403241D01*
X132023792Y-86403245D01*
X132019584Y-86405824D01*
X131839031Y-86560031D01*
X131835823Y-86563787D01*
X131835818Y-86563792D01*
X131734811Y-86682056D01*
X131675361Y-86720866D01*
X131604366Y-86721372D01*
X131543189Y-86682056D01*
X131442182Y-86563792D01*
X131442177Y-86563787D01*
X131438969Y-86560031D01*
X131258416Y-86405824D01*
X131254208Y-86403245D01*
X131254202Y-86403241D01*
X131060183Y-86284346D01*
X131055963Y-86281760D01*
X131051393Y-86279867D01*
X131051389Y-86279865D01*
X130841167Y-86192789D01*
X130841165Y-86192788D01*
X130836594Y-86190895D01*
X130756391Y-86171640D01*
X130610524Y-86136620D01*
X130610518Y-86136619D01*
X130605711Y-86135465D01*
X130369000Y-86116835D01*
X130132289Y-86135465D01*
X130127482Y-86136619D01*
X130127476Y-86136620D01*
X129981609Y-86171640D01*
X129901406Y-86190895D01*
X129896835Y-86192788D01*
X129896833Y-86192789D01*
X129686611Y-86279865D01*
X129686607Y-86279867D01*
X129682037Y-86281760D01*
X129677817Y-86284346D01*
X129483798Y-86403241D01*
X129483792Y-86403245D01*
X129479584Y-86405824D01*
X129299031Y-86560031D01*
X129144824Y-86740584D01*
X129142245Y-86744792D01*
X129142241Y-86744798D01*
X129023346Y-86938817D01*
X129020760Y-86943037D01*
X128929895Y-87162406D01*
X128874465Y-87393289D01*
X128855835Y-87630000D01*
X119182165Y-87630000D01*
X119163535Y-87393289D01*
X119108105Y-87162406D01*
X119017240Y-86943037D01*
X119014654Y-86938817D01*
X118895759Y-86744798D01*
X118895755Y-86744792D01*
X118893176Y-86740584D01*
X118738969Y-86560031D01*
X118558416Y-86405824D01*
X118554208Y-86403245D01*
X118554202Y-86403241D01*
X118360183Y-86284346D01*
X118355963Y-86281760D01*
X118351393Y-86279867D01*
X118351389Y-86279865D01*
X118141167Y-86192789D01*
X118141165Y-86192788D01*
X118136594Y-86190895D01*
X118056391Y-86171640D01*
X117910524Y-86136620D01*
X117910518Y-86136619D01*
X117905711Y-86135465D01*
X117669000Y-86116835D01*
X117432289Y-86135465D01*
X117427482Y-86136619D01*
X117427476Y-86136620D01*
X117281609Y-86171640D01*
X117201406Y-86190895D01*
X117196835Y-86192788D01*
X117196833Y-86192789D01*
X116986611Y-86279865D01*
X116986607Y-86279867D01*
X116982037Y-86281760D01*
X116977817Y-86284346D01*
X116783798Y-86403241D01*
X116783792Y-86403245D01*
X116779584Y-86405824D01*
X116599031Y-86560031D01*
X116595823Y-86563787D01*
X116595818Y-86563792D01*
X116494811Y-86682056D01*
X116435361Y-86720866D01*
X116364366Y-86721372D01*
X116303189Y-86682056D01*
X116202182Y-86563792D01*
X116202177Y-86563787D01*
X116198969Y-86560031D01*
X116018416Y-86405824D01*
X116014208Y-86403245D01*
X116014202Y-86403241D01*
X115820183Y-86284346D01*
X115815963Y-86281760D01*
X115811393Y-86279867D01*
X115811389Y-86279865D01*
X115601167Y-86192789D01*
X115601165Y-86192788D01*
X115596594Y-86190895D01*
X115516391Y-86171640D01*
X115370524Y-86136620D01*
X115370518Y-86136619D01*
X115365711Y-86135465D01*
X115129000Y-86116835D01*
X114892289Y-86135465D01*
X114887482Y-86136619D01*
X114887476Y-86136620D01*
X114741609Y-86171640D01*
X114661406Y-86190895D01*
X114656835Y-86192788D01*
X114656833Y-86192789D01*
X114446611Y-86279865D01*
X114446607Y-86279867D01*
X114442037Y-86281760D01*
X114437817Y-86284346D01*
X114243798Y-86403241D01*
X114243792Y-86403245D01*
X114239584Y-86405824D01*
X114059031Y-86560031D01*
X114055823Y-86563787D01*
X114055818Y-86563792D01*
X113954811Y-86682056D01*
X113895361Y-86720866D01*
X113824366Y-86721372D01*
X113763189Y-86682056D01*
X113662182Y-86563792D01*
X113662177Y-86563787D01*
X113658969Y-86560031D01*
X113478416Y-86405824D01*
X113474208Y-86403245D01*
X113474202Y-86403241D01*
X113280183Y-86284346D01*
X113275963Y-86281760D01*
X113271393Y-86279867D01*
X113271389Y-86279865D01*
X113061167Y-86192789D01*
X113061165Y-86192788D01*
X113056594Y-86190895D01*
X112976391Y-86171640D01*
X112830524Y-86136620D01*
X112830518Y-86136619D01*
X112825711Y-86135465D01*
X112589000Y-86116835D01*
X112352289Y-86135465D01*
X112347482Y-86136619D01*
X112347476Y-86136620D01*
X112201609Y-86171640D01*
X112121406Y-86190895D01*
X112116835Y-86192788D01*
X112116833Y-86192789D01*
X111906611Y-86279865D01*
X111906607Y-86279867D01*
X111902037Y-86281760D01*
X111897817Y-86284346D01*
X111703798Y-86403241D01*
X111703792Y-86403245D01*
X111699584Y-86405824D01*
X111695822Y-86409037D01*
X111695818Y-86409040D01*
X111688639Y-86415171D01*
X111623849Y-86444202D01*
X111553649Y-86433597D01*
X111501181Y-86387473D01*
X111499615Y-86383295D01*
X111412261Y-86266739D01*
X111295705Y-86179385D01*
X111159316Y-86128255D01*
X111097134Y-86121500D01*
X109000866Y-86121500D01*
X108938684Y-86128255D01*
X108802295Y-86179385D01*
X108685739Y-86266739D01*
X108598385Y-86383295D01*
X108547255Y-86519684D01*
X108540500Y-86581866D01*
X108540500Y-88678134D01*
X104140500Y-88678134D01*
X104140500Y-76473427D01*
X131895389Y-76473427D01*
X131908738Y-76704934D01*
X131959718Y-76931152D01*
X132046962Y-77146006D01*
X132168125Y-77343726D01*
X132319953Y-77519001D01*
X132498370Y-77667126D01*
X132502822Y-77669728D01*
X132502827Y-77669731D01*
X132694126Y-77781517D01*
X132698584Y-77784122D01*
X132915218Y-77866846D01*
X132920286Y-77867877D01*
X132920289Y-77867878D01*
X133032090Y-77890624D01*
X133142454Y-77913078D01*
X133147627Y-77913268D01*
X133147630Y-77913268D01*
X133369026Y-77921386D01*
X133369030Y-77921386D01*
X133374190Y-77921575D01*
X133379310Y-77920919D01*
X133379312Y-77920919D01*
X133450109Y-77911850D01*
X133604202Y-77892110D01*
X133609151Y-77890625D01*
X133609157Y-77890624D01*
X133821370Y-77826957D01*
X133826313Y-77825474D01*
X134034558Y-77723456D01*
X134118156Y-77663826D01*
X134219132Y-77591801D01*
X134219137Y-77591797D01*
X134223344Y-77588796D01*
X134387602Y-77425110D01*
X134522920Y-77236795D01*
X134565616Y-77150407D01*
X134623370Y-77033549D01*
X134623371Y-77033547D01*
X134625664Y-77028907D01*
X134656900Y-76926098D01*
X134691572Y-76811983D01*
X134691573Y-76811977D01*
X134693076Y-76807031D01*
X134723344Y-76577123D01*
X134725033Y-76507999D01*
X134722191Y-76473427D01*
X168431389Y-76473427D01*
X168444738Y-76704934D01*
X168495718Y-76931152D01*
X168582962Y-77146006D01*
X168704125Y-77343726D01*
X168855953Y-77519001D01*
X169034370Y-77667126D01*
X169038822Y-77669728D01*
X169038827Y-77669731D01*
X169230126Y-77781517D01*
X169234584Y-77784122D01*
X169451218Y-77866846D01*
X169456286Y-77867877D01*
X169456289Y-77867878D01*
X169568090Y-77890624D01*
X169678454Y-77913078D01*
X169683627Y-77913268D01*
X169683630Y-77913268D01*
X169905026Y-77921386D01*
X169905030Y-77921386D01*
X169910190Y-77921575D01*
X169915310Y-77920919D01*
X169915312Y-77920919D01*
X169986109Y-77911850D01*
X170140202Y-77892110D01*
X170145151Y-77890625D01*
X170145157Y-77890624D01*
X170357370Y-77826957D01*
X170362313Y-77825474D01*
X170570558Y-77723456D01*
X170654156Y-77663826D01*
X170755132Y-77591801D01*
X170755137Y-77591797D01*
X170759344Y-77588796D01*
X170923602Y-77425110D01*
X171058920Y-77236795D01*
X171101616Y-77150407D01*
X171159370Y-77033549D01*
X171159371Y-77033547D01*
X171161664Y-77028907D01*
X171192900Y-76926098D01*
X171227572Y-76811983D01*
X171227573Y-76811977D01*
X171229076Y-76807031D01*
X171259344Y-76577123D01*
X171261033Y-76507999D01*
X171254734Y-76431385D01*
X171242456Y-76282038D01*
X171242455Y-76282032D01*
X171242032Y-76276887D01*
X171185540Y-76051982D01*
X171093073Y-75839324D01*
X170967116Y-75644623D01*
X170939027Y-75613753D01*
X170814528Y-75476931D01*
X170814526Y-75476930D01*
X170811050Y-75473109D01*
X170806999Y-75469910D01*
X170806995Y-75469906D01*
X170633125Y-75332593D01*
X170629067Y-75329388D01*
X170426055Y-75217319D01*
X170307620Y-75175379D01*
X170212339Y-75141638D01*
X170212335Y-75141637D01*
X170207464Y-75139912D01*
X170202371Y-75139005D01*
X170202368Y-75139004D01*
X169984255Y-75100152D01*
X169984249Y-75100151D01*
X169979166Y-75099246D01*
X169890632Y-75098164D01*
X169752461Y-75096476D01*
X169752459Y-75096476D01*
X169747292Y-75096413D01*
X169518069Y-75131489D01*
X169297653Y-75203532D01*
X169293065Y-75205920D01*
X169293061Y-75205922D01*
X169096551Y-75308219D01*
X169091962Y-75310608D01*
X169087829Y-75313711D01*
X169087826Y-75313713D01*
X168910657Y-75446735D01*
X168906522Y-75449840D01*
X168746313Y-75617490D01*
X168615636Y-75809055D01*
X168518001Y-76019391D01*
X168456031Y-76242848D01*
X168431389Y-76473427D01*
X134722191Y-76473427D01*
X134718734Y-76431385D01*
X134706456Y-76282038D01*
X134706455Y-76282032D01*
X134706032Y-76276887D01*
X134649540Y-76051982D01*
X134557073Y-75839324D01*
X134431116Y-75644623D01*
X134403027Y-75613753D01*
X134278528Y-75476931D01*
X134278526Y-75476930D01*
X134275050Y-75473109D01*
X134270999Y-75469910D01*
X134270995Y-75469906D01*
X134097125Y-75332593D01*
X134093067Y-75329388D01*
X133890055Y-75217319D01*
X133771620Y-75175379D01*
X133676339Y-75141638D01*
X133676335Y-75141637D01*
X133671464Y-75139912D01*
X133666371Y-75139005D01*
X133666368Y-75139004D01*
X133448255Y-75100152D01*
X133448249Y-75100151D01*
X133443166Y-75099246D01*
X133354632Y-75098164D01*
X133216461Y-75096476D01*
X133216459Y-75096476D01*
X133211292Y-75096413D01*
X132982069Y-75131489D01*
X132761653Y-75203532D01*
X132757065Y-75205920D01*
X132757061Y-75205922D01*
X132560551Y-75308219D01*
X132555962Y-75310608D01*
X132551829Y-75313711D01*
X132551826Y-75313713D01*
X132374657Y-75446735D01*
X132370522Y-75449840D01*
X132210313Y-75617490D01*
X132079636Y-75809055D01*
X131982001Y-76019391D01*
X131920031Y-76242848D01*
X131895389Y-76473427D01*
X104140500Y-76473427D01*
X104140500Y-71120000D01*
X104744411Y-71120000D01*
X104764754Y-71508176D01*
X104825562Y-71892099D01*
X104926167Y-72267562D01*
X105065468Y-72630453D01*
X105241938Y-72976794D01*
X105453643Y-73302793D01*
X105698266Y-73604876D01*
X105973124Y-73879734D01*
X106275207Y-74124357D01*
X106601205Y-74336062D01*
X106604139Y-74337557D01*
X106604146Y-74337561D01*
X106944607Y-74511034D01*
X106947547Y-74512532D01*
X107310438Y-74651833D01*
X107685901Y-74752438D01*
X107889793Y-74784732D01*
X108066576Y-74812732D01*
X108066584Y-74812733D01*
X108069824Y-74813246D01*
X108458000Y-74833589D01*
X108846176Y-74813246D01*
X108849416Y-74812733D01*
X108849424Y-74812732D01*
X109026207Y-74784732D01*
X109230099Y-74752438D01*
X109605562Y-74651833D01*
X109968453Y-74512532D01*
X109971393Y-74511034D01*
X110311854Y-74337561D01*
X110311861Y-74337557D01*
X110314795Y-74336062D01*
X110640793Y-74124357D01*
X110942876Y-73879734D01*
X111217734Y-73604876D01*
X111462357Y-73302793D01*
X111674062Y-72976794D01*
X111850532Y-72630453D01*
X111989833Y-72267562D01*
X112090438Y-71892099D01*
X112151246Y-71508176D01*
X112171589Y-71120000D01*
X177388411Y-71120000D01*
X177408754Y-71508176D01*
X177469562Y-71892099D01*
X177570167Y-72267562D01*
X177709468Y-72630453D01*
X177885938Y-72976794D01*
X178097643Y-73302793D01*
X178342266Y-73604876D01*
X178617124Y-73879734D01*
X178919207Y-74124357D01*
X179245205Y-74336062D01*
X179248139Y-74337557D01*
X179248146Y-74337561D01*
X179588607Y-74511034D01*
X179591547Y-74512532D01*
X179954438Y-74651833D01*
X180329901Y-74752438D01*
X180533793Y-74784732D01*
X180710576Y-74812732D01*
X180710584Y-74812733D01*
X180713824Y-74813246D01*
X181102000Y-74833589D01*
X181490176Y-74813246D01*
X181493416Y-74812733D01*
X181493424Y-74812732D01*
X181670207Y-74784732D01*
X181874099Y-74752438D01*
X182249562Y-74651833D01*
X182612453Y-74512532D01*
X182615393Y-74511034D01*
X182955854Y-74337561D01*
X182955861Y-74337557D01*
X182958795Y-74336062D01*
X183284793Y-74124357D01*
X183586876Y-73879734D01*
X183861734Y-73604876D01*
X184106357Y-73302793D01*
X184318062Y-72976794D01*
X184494532Y-72630453D01*
X184633833Y-72267562D01*
X184734438Y-71892099D01*
X184795246Y-71508176D01*
X184815589Y-71120000D01*
X184795246Y-70731824D01*
X184734438Y-70347901D01*
X184633833Y-69972438D01*
X184494532Y-69609547D01*
X184318062Y-69263206D01*
X184301606Y-69237865D01*
X184108152Y-68939971D01*
X184108152Y-68939970D01*
X184106357Y-68937207D01*
X183911349Y-68696393D01*
X183863809Y-68637686D01*
X183863806Y-68637682D01*
X183861734Y-68635124D01*
X183586876Y-68360266D01*
X183550855Y-68331096D01*
X183287355Y-68117718D01*
X183284793Y-68115643D01*
X182958795Y-67903938D01*
X182955861Y-67902443D01*
X182955854Y-67902439D01*
X182615393Y-67728966D01*
X182612453Y-67727468D01*
X182391453Y-67642634D01*
X182252652Y-67589353D01*
X182252650Y-67589352D01*
X182249562Y-67588167D01*
X181874099Y-67487562D01*
X181670207Y-67455268D01*
X181493424Y-67427268D01*
X181493416Y-67427267D01*
X181490176Y-67426754D01*
X181102000Y-67406411D01*
X180713824Y-67426754D01*
X180710584Y-67427267D01*
X180710576Y-67427268D01*
X180533793Y-67455268D01*
X180329901Y-67487562D01*
X179954438Y-67588167D01*
X179951350Y-67589352D01*
X179951348Y-67589353D01*
X179812547Y-67642634D01*
X179591547Y-67727468D01*
X179588607Y-67728966D01*
X179248147Y-67902439D01*
X179248140Y-67902443D01*
X179245206Y-67903938D01*
X178919207Y-68115643D01*
X178916645Y-68117718D01*
X178653146Y-68331096D01*
X178617124Y-68360266D01*
X178342266Y-68635124D01*
X178340194Y-68637682D01*
X178340191Y-68637686D01*
X178292651Y-68696393D01*
X178097643Y-68937207D01*
X178095848Y-68939970D01*
X178095848Y-68939971D01*
X177902395Y-69237865D01*
X177885938Y-69263206D01*
X177709468Y-69609547D01*
X177570167Y-69972438D01*
X177469562Y-70347901D01*
X177408754Y-70731824D01*
X177388411Y-71120000D01*
X112171589Y-71120000D01*
X112151246Y-70731824D01*
X112090438Y-70347901D01*
X111989833Y-69972438D01*
X111850532Y-69609547D01*
X111674062Y-69263206D01*
X111657606Y-69237865D01*
X111464152Y-68939971D01*
X111464152Y-68939970D01*
X111462357Y-68937207D01*
X111267349Y-68696393D01*
X111219809Y-68637686D01*
X111219806Y-68637682D01*
X111217734Y-68635124D01*
X110942876Y-68360266D01*
X110906855Y-68331096D01*
X110643355Y-68117718D01*
X110640793Y-68115643D01*
X110314795Y-67903938D01*
X110311861Y-67902443D01*
X110311854Y-67902439D01*
X109971393Y-67728966D01*
X109968453Y-67727468D01*
X109747453Y-67642634D01*
X109608652Y-67589353D01*
X109608650Y-67589352D01*
X109605562Y-67588167D01*
X109230099Y-67487562D01*
X109026207Y-67455268D01*
X108849424Y-67427268D01*
X108849416Y-67427267D01*
X108846176Y-67426754D01*
X108458000Y-67406411D01*
X108069824Y-67426754D01*
X108066584Y-67427267D01*
X108066576Y-67427268D01*
X107889793Y-67455268D01*
X107685901Y-67487562D01*
X107310438Y-67588167D01*
X107307350Y-67589352D01*
X107307348Y-67589353D01*
X107168547Y-67642634D01*
X106947547Y-67727468D01*
X106944607Y-67728966D01*
X106604147Y-67902439D01*
X106604140Y-67902443D01*
X106601206Y-67903938D01*
X106275207Y-68115643D01*
X106272645Y-68117718D01*
X106009146Y-68331096D01*
X105973124Y-68360266D01*
X105698266Y-68635124D01*
X105696194Y-68637682D01*
X105696191Y-68637686D01*
X105648651Y-68696393D01*
X105453643Y-68937207D01*
X105451848Y-68939970D01*
X105451848Y-68939971D01*
X105258395Y-69237865D01*
X105241938Y-69263206D01*
X105065468Y-69609547D01*
X104926167Y-69972438D01*
X104825562Y-70347901D01*
X104764754Y-70731824D01*
X104744411Y-71120000D01*
X104140500Y-71120000D01*
X104140500Y-70307446D01*
X104142000Y-70288060D01*
X104144310Y-70273226D01*
X104144310Y-70273225D01*
X104145691Y-70264356D01*
X104144527Y-70255453D01*
X104144527Y-70255449D01*
X104143245Y-70245643D01*
X104142354Y-70222712D01*
X104158242Y-69919581D01*
X104159620Y-69906465D01*
X104211617Y-69578179D01*
X104214360Y-69565278D01*
X104300382Y-69244248D01*
X104304457Y-69231705D01*
X104423569Y-68921412D01*
X104428933Y-68909364D01*
X104579828Y-68613218D01*
X104586423Y-68601796D01*
X104767448Y-68323044D01*
X104775191Y-68312387D01*
X104984359Y-68054088D01*
X104993184Y-68044287D01*
X105228202Y-67809271D01*
X105238003Y-67800446D01*
X105496302Y-67591281D01*
X105506972Y-67583529D01*
X105779445Y-67406584D01*
X105785718Y-67402511D01*
X105797138Y-67395917D01*
X106093284Y-67245024D01*
X106105333Y-67239660D01*
X106415615Y-67120554D01*
X106428158Y-67116478D01*
X106749204Y-67030454D01*
X106762104Y-67027712D01*
X107090385Y-66975718D01*
X107103501Y-66974340D01*
X107399417Y-66958832D01*
X107425387Y-66960159D01*
X107435724Y-66961768D01*
X107444626Y-66960604D01*
X107444628Y-66960604D01*
X107459677Y-66958636D01*
X107467286Y-66957641D01*
X107483621Y-66956577D01*
X182576633Y-66956577D01*
X182596018Y-66958077D01*
G37*
G04 #@! TD.AperFunction*
M02*
