M48
; DRILL file {KiCad 7.0.9} date Mon Apr 15 16:03:29 2024
; FORMAT={-:-/ absolute / metric / decimal}
; #@! TF.CreationDate,2024-04-15T16:03:29-04:00
; #@! TF.GenerationSoftware,Kicad,Pcbnew,7.0.9
; #@! TF.FileFunction,Plated,1,2,PTH
FMAT,2
METRIC
; #@! TA.AperFunction,Plated,PTH,ViaDrill
T1C0.400
; #@! TA.AperFunction,Plated,PTH,ComponentDrill
T2C0.500
; #@! TA.AperFunction,Plated,PTH,ViaDrill
T3C0.940
; #@! TA.AperFunction,Plated,PTH,ComponentDrill
T4C1.200
; #@! TA.AperFunction,Plated,PTH,ComponentDrill
T5C1.300
; #@! TA.AperFunction,Plated,PTH,ComponentDrill
T6C1.980
; #@! TA.AperFunction,Plated,PTH,ComponentDrill
T7C2.000
; #@! TA.AperFunction,Plated,PTH,ComponentDrill
T8C3.200
%
G90
G05
T1
X108.35Y-129.7
X115.15Y-130.775
X119.8Y-136.875
X120.85Y-124.075
X121.5Y-137.675
X122.479Y-126.187
X124.175Y-122.55
X130.048Y-87.984
X130.3Y-80.618
X131.1Y-132.0
X131.583Y-119.948
X132.9Y-125.7
X134.631Y-119.948
X137.679Y-119.948
X139.1Y-123.1
X140.727Y-119.948
X147.218Y-113.69
X151.282Y-115.519
X153.467Y-86.258
X154.4Y-130.8
X155.702Y-117.956
X158.445Y-113.589
X159.512Y-127.354
X161.036Y-120.75
X163.322Y-116.94
X166.878Y-116.686
X169.926Y-126.592
X175.514Y-122.528
X175.854Y-86.322
X179.9Y-80.761
T2
X106.058Y-71.12
X106.058Y-135.636
X106.761Y-69.423
X106.761Y-72.817
X106.761Y-133.939
X106.761Y-137.333
X108.458Y-68.72
X108.458Y-73.52
X108.458Y-133.236
X108.458Y-138.036
X110.155Y-69.423
X110.155Y-72.817
X110.155Y-133.939
X110.155Y-137.333
X110.858Y-71.12
X110.858Y-135.636
X178.702Y-71.12
X178.702Y-135.636
X179.405Y-69.423
X179.405Y-72.817
X179.405Y-133.939
X179.405Y-137.333
X181.102Y-68.72
X181.102Y-73.52
X181.102Y-133.236
X181.102Y-138.036
X182.799Y-69.423
X182.799Y-72.817
X182.799Y-133.939
X182.799Y-137.333
X183.502Y-71.12
X183.502Y-135.636
T3
X111.0Y-120.169
T4
X126.044Y-70.692
X126.044Y-73.232
X126.044Y-75.772
X126.044Y-78.312
X126.044Y-80.852
X126.044Y-83.392
X126.044Y-85.932
X126.044Y-88.472
X126.044Y-91.012
X126.044Y-93.552
X126.044Y-96.092
X126.044Y-98.632
T5
X139.446Y-133.196
X140.796Y-74.522
X144.446Y-133.196
X145.796Y-74.522
X149.446Y-133.196
X153.456Y-74.514
X158.456Y-74.514
X163.87Y-133.204
X167.426Y-74.514
X168.87Y-133.204
X172.426Y-74.514
X178.562Y-96.112
X178.562Y-101.112
X178.562Y-106.112
T6
X133.517Y-93.572
X133.771Y-108.558
X141.137Y-93.572
X141.391Y-108.558
X160.107Y-93.572
X160.361Y-108.558
X167.727Y-93.572
X167.981Y-108.558
T7
X181.254Y-125.781
X181.4Y-114.654
X181.4Y-120.3
T8
X108.458Y-71.12
X108.458Y-135.636
X181.102Y-71.12
X181.102Y-135.636
T0
M30
