G04 #@! TF.GenerationSoftware,KiCad,Pcbnew,(6.0.10)*
G04 #@! TF.CreationDate,2023-01-26T21:46:59-05:00*
G04 #@! TF.ProjectId,Converters,436f6e76-6572-4746-9572-732e6b696361,rev?*
G04 #@! TF.SameCoordinates,Original*
G04 #@! TF.FileFunction,Legend,Top*
G04 #@! TF.FilePolarity,Positive*
%FSLAX46Y46*%
G04 Gerber Fmt 4.6, Leading zero omitted, Abs format (unit mm)*
G04 Created by KiCad (PCBNEW (6.0.10)) date 2023-01-26 21:46:59*
%MOMM*%
%LPD*%
G01*
G04 APERTURE LIST*
G04 Aperture macros list*
%AMRoundRect*
0 Rectangle with rounded corners*
0 $1 Rounding radius*
0 $2 $3 $4 $5 $6 $7 $8 $9 X,Y pos of 4 corners*
0 Add a 4 corners polygon primitive as box body*
4,1,4,$2,$3,$4,$5,$6,$7,$8,$9,$2,$3,0*
0 Add four circle primitives for the rounded corners*
1,1,$1+$1,$2,$3*
1,1,$1+$1,$4,$5*
1,1,$1+$1,$6,$7*
1,1,$1+$1,$8,$9*
0 Add four rect primitives between the rounded corners*
20,1,$1+$1,$2,$3,$4,$5,0*
20,1,$1+$1,$4,$5,$6,$7,0*
20,1,$1+$1,$6,$7,$8,$9,0*
20,1,$1+$1,$8,$9,$2,$3,0*%
G04 Aperture macros list end*
%ADD10C,0.125000*%
%ADD11C,0.300000*%
%ADD12C,0.150000*%
%ADD13C,0.120000*%
%ADD14C,0.010000*%
%ADD15C,6.400000*%
%ADD16R,1.600000X1.600000*%
%ADD17C,1.600000*%
%ADD18R,1.803400X1.803400*%
%ADD19C,1.803400*%
%ADD20R,2.000000X2.000000*%
%ADD21C,2.000000*%
%ADD22RoundRect,0.250001X0.462499X0.624999X-0.462499X0.624999X-0.462499X-0.624999X0.462499X-0.624999X0*%
%ADD23RoundRect,0.250000X0.350000X0.450000X-0.350000X0.450000X-0.350000X-0.450000X0.350000X-0.450000X0*%
%ADD24RoundRect,0.250000X-0.337500X-0.475000X0.337500X-0.475000X0.337500X0.475000X-0.337500X0.475000X0*%
%ADD25RoundRect,0.750000X-0.750000X-0.750000X0.750000X-0.750000X0.750000X0.750000X-0.750000X0.750000X0*%
%ADD26C,3.000000*%
G04 APERTURE END LIST*
D10*
X175247523Y-96174714D02*
X175628476Y-96174714D01*
X175438000Y-96365190D02*
X175438000Y-95984238D01*
D11*
X183749142Y-106187714D02*
X183749142Y-105044857D01*
X184320571Y-105616285D02*
X183177714Y-105616285D01*
X182820571Y-103616285D02*
X182820571Y-104330571D01*
X183534857Y-104402000D01*
X183463428Y-104330571D01*
X183392000Y-104187714D01*
X183392000Y-103830571D01*
X183463428Y-103687714D01*
X183534857Y-103616285D01*
X183677714Y-103544857D01*
X184034857Y-103544857D01*
X184177714Y-103616285D01*
X184249142Y-103687714D01*
X184320571Y-103830571D01*
X184320571Y-104187714D01*
X184249142Y-104330571D01*
X184177714Y-104402000D01*
X137144285Y-138029142D02*
X138287142Y-138029142D01*
X137715714Y-138600571D02*
X137715714Y-137457714D01*
X139715714Y-137100571D02*
X139001428Y-137100571D01*
X138930000Y-137814857D01*
X139001428Y-137743428D01*
X139144285Y-137672000D01*
X139501428Y-137672000D01*
X139644285Y-137743428D01*
X139715714Y-137814857D01*
X139787142Y-137957714D01*
X139787142Y-138314857D01*
X139715714Y-138457714D01*
X139644285Y-138529142D01*
X139501428Y-138600571D01*
X139144285Y-138600571D01*
X139001428Y-138529142D01*
X138930000Y-138457714D01*
X113824000Y-137775142D02*
X114966857Y-137775142D01*
X114395428Y-138346571D02*
X114395428Y-137203714D01*
X115609714Y-136989428D02*
X115681142Y-136918000D01*
X115824000Y-136846571D01*
X116181142Y-136846571D01*
X116324000Y-136918000D01*
X116395428Y-136989428D01*
X116466857Y-137132285D01*
X116466857Y-137275142D01*
X116395428Y-137489428D01*
X115538285Y-138346571D01*
X116466857Y-138346571D01*
X117752571Y-137346571D02*
X117752571Y-138346571D01*
X117395428Y-136775142D02*
X117038285Y-137846571D01*
X117966857Y-137846571D01*
X183749142Y-116300000D02*
X183749142Y-115157142D01*
X184320571Y-115728571D02*
X183177714Y-115728571D01*
X182963428Y-114514285D02*
X182892000Y-114442857D01*
X182820571Y-114300000D01*
X182820571Y-113942857D01*
X182892000Y-113800000D01*
X182963428Y-113728571D01*
X183106285Y-113657142D01*
X183249142Y-113657142D01*
X183463428Y-113728571D01*
X184320571Y-114585714D01*
X184320571Y-113657142D01*
X183320571Y-112371428D02*
X184320571Y-112371428D01*
X182749142Y-112728571D02*
X183820571Y-113085714D01*
X183820571Y-112157142D01*
X135283428Y-69631428D02*
X135140571Y-69631428D01*
X134997714Y-69560000D01*
X134926285Y-69488571D01*
X134854857Y-69345714D01*
X134783428Y-69060000D01*
X134783428Y-68702857D01*
X134854857Y-68417142D01*
X134926285Y-68274285D01*
X134997714Y-68202857D01*
X135140571Y-68131428D01*
X135283428Y-68131428D01*
X135426285Y-68202857D01*
X135497714Y-68274285D01*
X135569142Y-68417142D01*
X135640571Y-68702857D01*
X135640571Y-69060000D01*
X135569142Y-69345714D01*
X135497714Y-69488571D01*
X135426285Y-69560000D01*
X135283428Y-69631428D01*
X167401714Y-68980857D02*
X166258857Y-68980857D01*
X166830285Y-68409428D02*
X166830285Y-69552285D01*
X164830285Y-69909428D02*
X165544571Y-69909428D01*
X165616000Y-69195142D01*
X165544571Y-69266571D01*
X165401714Y-69338000D01*
X165044571Y-69338000D01*
X164901714Y-69266571D01*
X164830285Y-69195142D01*
X164758857Y-69052285D01*
X164758857Y-68695142D01*
X164830285Y-68552285D01*
X164901714Y-68480857D01*
X165044571Y-68409428D01*
X165401714Y-68409428D01*
X165544571Y-68480857D01*
X165616000Y-68552285D01*
X119618285Y-137775142D02*
X120761142Y-137775142D01*
X120189714Y-138346571D02*
X120189714Y-137203714D01*
X122189714Y-136846571D02*
X121475428Y-136846571D01*
X121404000Y-137560857D01*
X121475428Y-137489428D01*
X121618285Y-137418000D01*
X121975428Y-137418000D01*
X122118285Y-137489428D01*
X122189714Y-137560857D01*
X122261142Y-137703714D01*
X122261142Y-138060857D01*
X122189714Y-138203714D01*
X122118285Y-138275142D01*
X121975428Y-138346571D01*
X121618285Y-138346571D01*
X121475428Y-138275142D01*
X121404000Y-138203714D01*
X131096000Y-138029142D02*
X132238857Y-138029142D01*
X131667428Y-138600571D02*
X131667428Y-137457714D01*
X132881714Y-137243428D02*
X132953142Y-137172000D01*
X133096000Y-137100571D01*
X133453142Y-137100571D01*
X133596000Y-137172000D01*
X133667428Y-137243428D01*
X133738857Y-137386285D01*
X133738857Y-137529142D01*
X133667428Y-137743428D01*
X132810285Y-138600571D01*
X133738857Y-138600571D01*
X135024571Y-137600571D02*
X135024571Y-138600571D01*
X134667428Y-137029142D02*
X134310285Y-138100571D01*
X135238857Y-138100571D01*
X131969142Y-68702857D02*
X130826285Y-68702857D01*
X131397714Y-68131428D02*
X131397714Y-69274285D01*
X129612000Y-68917142D02*
X129397714Y-68845714D01*
X129326285Y-68774285D01*
X129254857Y-68631428D01*
X129254857Y-68417142D01*
X129326285Y-68274285D01*
X129397714Y-68202857D01*
X129540571Y-68131428D01*
X130112000Y-68131428D01*
X130112000Y-69631428D01*
X129612000Y-69631428D01*
X129469142Y-69560000D01*
X129397714Y-69488571D01*
X129326285Y-69345714D01*
X129326285Y-69202857D01*
X129397714Y-69060000D01*
X129469142Y-68988571D01*
X129612000Y-68917142D01*
X130112000Y-68917142D01*
X128683428Y-68560000D02*
X127969142Y-68560000D01*
X128826285Y-68131428D02*
X128326285Y-69631428D01*
X127826285Y-68131428D01*
X127540571Y-69631428D02*
X126683428Y-69631428D01*
X127112000Y-68131428D02*
X127112000Y-69631428D01*
X126397714Y-69631428D02*
X125540571Y-69631428D01*
X125969142Y-68131428D02*
X125969142Y-69631428D01*
X169489428Y-69909428D02*
X169346571Y-69909428D01*
X169203714Y-69838000D01*
X169132285Y-69766571D01*
X169060857Y-69623714D01*
X168989428Y-69338000D01*
X168989428Y-68980857D01*
X169060857Y-68695142D01*
X169132285Y-68552285D01*
X169203714Y-68480857D01*
X169346571Y-68409428D01*
X169489428Y-68409428D01*
X169632285Y-68480857D01*
X169703714Y-68552285D01*
X169775142Y-68695142D01*
X169846571Y-68980857D01*
X169846571Y-69338000D01*
X169775142Y-69623714D01*
X169703714Y-69766571D01*
X169632285Y-69838000D01*
X169489428Y-69909428D01*
X123742000Y-136846571D02*
X124599142Y-136846571D01*
X124170571Y-138346571D02*
X124170571Y-136846571D01*
X125670571Y-138275142D02*
X125527714Y-138346571D01*
X125242000Y-138346571D01*
X125099142Y-138275142D01*
X125027714Y-138132285D01*
X125027714Y-137560857D01*
X125099142Y-137418000D01*
X125242000Y-137346571D01*
X125527714Y-137346571D01*
X125670571Y-137418000D01*
X125742000Y-137560857D01*
X125742000Y-137703714D01*
X125027714Y-137846571D01*
X126384857Y-138346571D02*
X126384857Y-137346571D01*
X126384857Y-137489428D02*
X126456285Y-137418000D01*
X126599142Y-137346571D01*
X126813428Y-137346571D01*
X126956285Y-137418000D01*
X127027714Y-137560857D01*
X127027714Y-138346571D01*
X127027714Y-137560857D02*
X127099142Y-137418000D01*
X127242000Y-137346571D01*
X127456285Y-137346571D01*
X127599142Y-137418000D01*
X127670571Y-137560857D01*
X127670571Y-138346571D01*
X128384857Y-137346571D02*
X128384857Y-138846571D01*
X128384857Y-137418000D02*
X128527714Y-137346571D01*
X128813428Y-137346571D01*
X128956285Y-137418000D01*
X129027714Y-137489428D01*
X129099142Y-137632285D01*
X129099142Y-138060857D01*
X129027714Y-138203714D01*
X128956285Y-138275142D01*
X128813428Y-138346571D01*
X128527714Y-138346571D01*
X128384857Y-138275142D01*
D10*
X175323523Y-122717714D02*
X175704476Y-122717714D01*
X175514000Y-122908190D02*
X175514000Y-122527238D01*
D12*
X149962928Y-72679250D02*
X149891500Y-72643535D01*
X149784357Y-72643535D01*
X149677214Y-72679250D01*
X149605785Y-72750678D01*
X149570071Y-72822107D01*
X149534357Y-72964964D01*
X149534357Y-73072107D01*
X149570071Y-73214964D01*
X149605785Y-73286392D01*
X149677214Y-73357821D01*
X149784357Y-73393535D01*
X149855785Y-73393535D01*
X149962928Y-73357821D01*
X149998642Y-73322107D01*
X149998642Y-73072107D01*
X149855785Y-73072107D01*
X150320071Y-73393535D02*
X150320071Y-72893535D01*
X150320071Y-73036392D02*
X150355785Y-72964964D01*
X150391500Y-72929250D01*
X150462928Y-72893535D01*
X150534357Y-72893535D01*
X150891500Y-73393535D02*
X150820071Y-73357821D01*
X150784357Y-73322107D01*
X150748642Y-73250678D01*
X150748642Y-73036392D01*
X150784357Y-72964964D01*
X150820071Y-72929250D01*
X150891500Y-72893535D01*
X150998642Y-72893535D01*
X151070071Y-72929250D01*
X151105785Y-72964964D01*
X151141500Y-73036392D01*
X151141500Y-73250678D01*
X151105785Y-73322107D01*
X151070071Y-73357821D01*
X150998642Y-73393535D01*
X150891500Y-73393535D01*
X151784357Y-72893535D02*
X151784357Y-73393535D01*
X151462928Y-72893535D02*
X151462928Y-73286392D01*
X151498642Y-73357821D01*
X151570071Y-73393535D01*
X151677214Y-73393535D01*
X151748642Y-73357821D01*
X151784357Y-73322107D01*
X152141500Y-72893535D02*
X152141500Y-73393535D01*
X152141500Y-72964964D02*
X152177214Y-72929250D01*
X152248642Y-72893535D01*
X152355785Y-72893535D01*
X152427214Y-72929250D01*
X152462928Y-73000678D01*
X152462928Y-73393535D01*
X153141500Y-73393535D02*
X153141500Y-72643535D01*
X153141500Y-73357821D02*
X153070071Y-73393535D01*
X152927214Y-73393535D01*
X152855785Y-73357821D01*
X152820071Y-73322107D01*
X152784357Y-73250678D01*
X152784357Y-73036392D01*
X152820071Y-72964964D01*
X152855785Y-72929250D01*
X152927214Y-72893535D01*
X153070071Y-72893535D01*
X153141500Y-72929250D01*
X154034357Y-73357821D02*
X154141500Y-73393535D01*
X154320071Y-73393535D01*
X154391500Y-73357821D01*
X154427214Y-73322107D01*
X154462928Y-73250678D01*
X154462928Y-73179250D01*
X154427214Y-73107821D01*
X154391500Y-73072107D01*
X154320071Y-73036392D01*
X154177214Y-73000678D01*
X154105785Y-72964964D01*
X154070071Y-72929250D01*
X154034357Y-72857821D01*
X154034357Y-72786392D01*
X154070071Y-72714964D01*
X154105785Y-72679250D01*
X154177214Y-72643535D01*
X154355785Y-72643535D01*
X154462928Y-72679250D01*
X154784357Y-73393535D02*
X154784357Y-72893535D01*
X154784357Y-72643535D02*
X154748642Y-72679250D01*
X154784357Y-72714964D01*
X154820071Y-72679250D01*
X154784357Y-72643535D01*
X154784357Y-72714964D01*
X155462928Y-73393535D02*
X155462928Y-72643535D01*
X155462928Y-73357821D02*
X155391500Y-73393535D01*
X155248642Y-73393535D01*
X155177214Y-73357821D01*
X155141500Y-73322107D01*
X155105785Y-73250678D01*
X155105785Y-73036392D01*
X155141500Y-72964964D01*
X155177214Y-72929250D01*
X155248642Y-72893535D01*
X155391500Y-72893535D01*
X155462928Y-72929250D01*
X156105785Y-73357821D02*
X156034357Y-73393535D01*
X155891500Y-73393535D01*
X155820071Y-73357821D01*
X155784357Y-73286392D01*
X155784357Y-73000678D01*
X155820071Y-72929250D01*
X155891500Y-72893535D01*
X156034357Y-72893535D01*
X156105785Y-72929250D01*
X156141500Y-73000678D01*
X156141500Y-73072107D01*
X155784357Y-73143535D01*
X157034357Y-73393535D02*
X157034357Y-72643535D01*
X157320071Y-72643535D01*
X157391500Y-72679250D01*
X157427214Y-72714964D01*
X157462928Y-72786392D01*
X157462928Y-72893535D01*
X157427214Y-72964964D01*
X157391500Y-73000678D01*
X157320071Y-73036392D01*
X157034357Y-73036392D01*
X157891500Y-73393535D02*
X157820071Y-73357821D01*
X157784357Y-73322107D01*
X157748642Y-73250678D01*
X157748642Y-73036392D01*
X157784357Y-72964964D01*
X157820071Y-72929250D01*
X157891500Y-72893535D01*
X157998642Y-72893535D01*
X158070071Y-72929250D01*
X158105785Y-72964964D01*
X158141500Y-73036392D01*
X158141500Y-73250678D01*
X158105785Y-73322107D01*
X158070071Y-73357821D01*
X157998642Y-73393535D01*
X157891500Y-73393535D01*
X158391500Y-72893535D02*
X158534357Y-73393535D01*
X158677214Y-73036392D01*
X158820071Y-73393535D01*
X158962928Y-72893535D01*
X159534357Y-73357821D02*
X159462928Y-73393535D01*
X159320071Y-73393535D01*
X159248642Y-73357821D01*
X159212928Y-73286392D01*
X159212928Y-73000678D01*
X159248642Y-72929250D01*
X159320071Y-72893535D01*
X159462928Y-72893535D01*
X159534357Y-72929250D01*
X159570071Y-73000678D01*
X159570071Y-73072107D01*
X159212928Y-73143535D01*
X159891500Y-73393535D02*
X159891500Y-72893535D01*
X159891500Y-73036392D02*
X159927214Y-72964964D01*
X159962928Y-72929250D01*
X160034357Y-72893535D01*
X160105785Y-72893535D01*
X149998642Y-74529607D02*
X149962928Y-74565321D01*
X149855785Y-74601035D01*
X149784357Y-74601035D01*
X149677214Y-74565321D01*
X149605785Y-74493892D01*
X149570071Y-74422464D01*
X149534357Y-74279607D01*
X149534357Y-74172464D01*
X149570071Y-74029607D01*
X149605785Y-73958178D01*
X149677214Y-73886750D01*
X149784357Y-73851035D01*
X149855785Y-73851035D01*
X149962928Y-73886750D01*
X149998642Y-73922464D01*
X150427214Y-74601035D02*
X150355785Y-74565321D01*
X150320071Y-74529607D01*
X150284357Y-74458178D01*
X150284357Y-74243892D01*
X150320071Y-74172464D01*
X150355785Y-74136750D01*
X150427214Y-74101035D01*
X150534357Y-74101035D01*
X150605785Y-74136750D01*
X150641500Y-74172464D01*
X150677214Y-74243892D01*
X150677214Y-74458178D01*
X150641500Y-74529607D01*
X150605785Y-74565321D01*
X150534357Y-74601035D01*
X150427214Y-74601035D01*
X150998642Y-74101035D02*
X150998642Y-74601035D01*
X150998642Y-74172464D02*
X151034357Y-74136750D01*
X151105785Y-74101035D01*
X151212928Y-74101035D01*
X151284357Y-74136750D01*
X151320071Y-74208178D01*
X151320071Y-74601035D01*
X151605785Y-74101035D02*
X151784357Y-74601035D01*
X151962928Y-74101035D01*
X152534357Y-74565321D02*
X152462928Y-74601035D01*
X152320071Y-74601035D01*
X152248642Y-74565321D01*
X152212928Y-74493892D01*
X152212928Y-74208178D01*
X152248642Y-74136750D01*
X152320071Y-74101035D01*
X152462928Y-74101035D01*
X152534357Y-74136750D01*
X152570071Y-74208178D01*
X152570071Y-74279607D01*
X152212928Y-74351035D01*
X152891500Y-74601035D02*
X152891500Y-74101035D01*
X152891500Y-74243892D02*
X152927214Y-74172464D01*
X152962928Y-74136750D01*
X153034357Y-74101035D01*
X153105785Y-74101035D01*
X153248642Y-74101035D02*
X153534357Y-74101035D01*
X153355785Y-73851035D02*
X153355785Y-74493892D01*
X153391500Y-74565321D01*
X153462928Y-74601035D01*
X153534357Y-74601035D01*
X154070071Y-74565321D02*
X153998642Y-74601035D01*
X153855785Y-74601035D01*
X153784357Y-74565321D01*
X153748642Y-74493892D01*
X153748642Y-74208178D01*
X153784357Y-74136750D01*
X153855785Y-74101035D01*
X153998642Y-74101035D01*
X154070071Y-74136750D01*
X154105785Y-74208178D01*
X154105785Y-74279607D01*
X153748642Y-74351035D01*
X154427214Y-74601035D02*
X154427214Y-74101035D01*
X154427214Y-74243892D02*
X154462928Y-74172464D01*
X154498642Y-74136750D01*
X154570071Y-74101035D01*
X154641500Y-74101035D01*
X155712928Y-74208178D02*
X155820071Y-74243892D01*
X155855785Y-74279607D01*
X155891500Y-74351035D01*
X155891500Y-74458178D01*
X155855785Y-74529607D01*
X155820071Y-74565321D01*
X155748642Y-74601035D01*
X155462928Y-74601035D01*
X155462928Y-73851035D01*
X155712928Y-73851035D01*
X155784357Y-73886750D01*
X155820071Y-73922464D01*
X155855785Y-73993892D01*
X155855785Y-74065321D01*
X155820071Y-74136750D01*
X155784357Y-74172464D01*
X155712928Y-74208178D01*
X155462928Y-74208178D01*
X156320071Y-74601035D02*
X156248642Y-74565321D01*
X156212928Y-74529607D01*
X156177214Y-74458178D01*
X156177214Y-74243892D01*
X156212928Y-74172464D01*
X156248642Y-74136750D01*
X156320071Y-74101035D01*
X156427214Y-74101035D01*
X156498642Y-74136750D01*
X156534357Y-74172464D01*
X156570071Y-74243892D01*
X156570071Y-74458178D01*
X156534357Y-74529607D01*
X156498642Y-74565321D01*
X156427214Y-74601035D01*
X156320071Y-74601035D01*
X157212928Y-74601035D02*
X157212928Y-74208178D01*
X157177214Y-74136750D01*
X157105785Y-74101035D01*
X156962928Y-74101035D01*
X156891500Y-74136750D01*
X157212928Y-74565321D02*
X157141500Y-74601035D01*
X156962928Y-74601035D01*
X156891500Y-74565321D01*
X156855785Y-74493892D01*
X156855785Y-74422464D01*
X156891500Y-74351035D01*
X156962928Y-74315321D01*
X157141500Y-74315321D01*
X157212928Y-74279607D01*
X157570071Y-74601035D02*
X157570071Y-74101035D01*
X157570071Y-74243892D02*
X157605785Y-74172464D01*
X157641500Y-74136750D01*
X157712928Y-74101035D01*
X157784357Y-74101035D01*
X158355785Y-74601035D02*
X158355785Y-73851035D01*
X158355785Y-74565321D02*
X158284357Y-74601035D01*
X158141500Y-74601035D01*
X158070071Y-74565321D01*
X158034357Y-74529607D01*
X157998642Y-74458178D01*
X157998642Y-74243892D01*
X158034357Y-74172464D01*
X158070071Y-74136750D01*
X158141500Y-74101035D01*
X158284357Y-74101035D01*
X158355785Y-74136750D01*
X149784357Y-75058535D02*
X149784357Y-75594250D01*
X149748642Y-75701392D01*
X149677214Y-75772821D01*
X149570071Y-75808535D01*
X149498642Y-75808535D01*
X150462928Y-75808535D02*
X150462928Y-75415678D01*
X150427214Y-75344250D01*
X150355785Y-75308535D01*
X150212928Y-75308535D01*
X150141500Y-75344250D01*
X150462928Y-75772821D02*
X150391500Y-75808535D01*
X150212928Y-75808535D01*
X150141500Y-75772821D01*
X150105785Y-75701392D01*
X150105785Y-75629964D01*
X150141500Y-75558535D01*
X150212928Y-75522821D01*
X150391500Y-75522821D01*
X150462928Y-75487107D01*
X150820071Y-75308535D02*
X150820071Y-75808535D01*
X150820071Y-75379964D02*
X150855785Y-75344250D01*
X150927214Y-75308535D01*
X151034357Y-75308535D01*
X151105785Y-75344250D01*
X151141500Y-75415678D01*
X151141500Y-75808535D01*
X152034357Y-75129964D02*
X152070071Y-75094250D01*
X152141500Y-75058535D01*
X152320071Y-75058535D01*
X152391500Y-75094250D01*
X152427214Y-75129964D01*
X152462928Y-75201392D01*
X152462928Y-75272821D01*
X152427214Y-75379964D01*
X151998642Y-75808535D01*
X152462928Y-75808535D01*
X152927214Y-75058535D02*
X152998642Y-75058535D01*
X153070071Y-75094250D01*
X153105785Y-75129964D01*
X153141500Y-75201392D01*
X153177214Y-75344250D01*
X153177214Y-75522821D01*
X153141500Y-75665678D01*
X153105785Y-75737107D01*
X153070071Y-75772821D01*
X152998642Y-75808535D01*
X152927214Y-75808535D01*
X152855785Y-75772821D01*
X152820071Y-75737107D01*
X152784357Y-75665678D01*
X152748642Y-75522821D01*
X152748642Y-75344250D01*
X152784357Y-75201392D01*
X152820071Y-75129964D01*
X152855785Y-75094250D01*
X152927214Y-75058535D01*
X153462928Y-75129964D02*
X153498642Y-75094250D01*
X153570071Y-75058535D01*
X153748642Y-75058535D01*
X153820071Y-75094250D01*
X153855785Y-75129964D01*
X153891500Y-75201392D01*
X153891500Y-75272821D01*
X153855785Y-75379964D01*
X153427214Y-75808535D01*
X153891500Y-75808535D01*
X154141500Y-75058535D02*
X154605785Y-75058535D01*
X154355785Y-75344250D01*
X154462928Y-75344250D01*
X154534357Y-75379964D01*
X154570071Y-75415678D01*
X154605785Y-75487107D01*
X154605785Y-75665678D01*
X154570071Y-75737107D01*
X154534357Y-75772821D01*
X154462928Y-75808535D01*
X154248642Y-75808535D01*
X154177214Y-75772821D01*
X154141500Y-75737107D01*
X149570071Y-78223535D02*
X149570071Y-77473535D01*
X149748642Y-77473535D01*
X149855785Y-77509250D01*
X149927214Y-77580678D01*
X149962928Y-77652107D01*
X149998642Y-77794964D01*
X149998642Y-77902107D01*
X149962928Y-78044964D01*
X149927214Y-78116392D01*
X149855785Y-78187821D01*
X149748642Y-78223535D01*
X149570071Y-78223535D01*
X150427214Y-78223535D02*
X150355785Y-78187821D01*
X150320071Y-78152107D01*
X150284357Y-78080678D01*
X150284357Y-77866392D01*
X150320071Y-77794964D01*
X150355785Y-77759250D01*
X150427214Y-77723535D01*
X150534357Y-77723535D01*
X150605785Y-77759250D01*
X150641500Y-77794964D01*
X150677214Y-77866392D01*
X150677214Y-78080678D01*
X150641500Y-78152107D01*
X150605785Y-78187821D01*
X150534357Y-78223535D01*
X150427214Y-78223535D01*
X150998642Y-78223535D02*
X150998642Y-77723535D01*
X150998642Y-77794964D02*
X151034357Y-77759250D01*
X151105785Y-77723535D01*
X151212928Y-77723535D01*
X151284357Y-77759250D01*
X151320071Y-77830678D01*
X151320071Y-78223535D01*
X151320071Y-77830678D02*
X151355785Y-77759250D01*
X151427214Y-77723535D01*
X151534357Y-77723535D01*
X151605785Y-77759250D01*
X151641500Y-77830678D01*
X151641500Y-78223535D01*
X152284357Y-78187821D02*
X152212928Y-78223535D01*
X152070071Y-78223535D01*
X151998642Y-78187821D01*
X151962928Y-78116392D01*
X151962928Y-77830678D01*
X151998642Y-77759250D01*
X152070071Y-77723535D01*
X152212928Y-77723535D01*
X152284357Y-77759250D01*
X152320071Y-77830678D01*
X152320071Y-77902107D01*
X151962928Y-77973535D01*
X152641500Y-77723535D02*
X152641500Y-78223535D01*
X152641500Y-77794964D02*
X152677214Y-77759250D01*
X152748642Y-77723535D01*
X152855785Y-77723535D01*
X152927214Y-77759250D01*
X152962928Y-77830678D01*
X152962928Y-78223535D01*
X153320071Y-78223535D02*
X153320071Y-77723535D01*
X153320071Y-77473535D02*
X153284357Y-77509250D01*
X153320071Y-77544964D01*
X153355785Y-77509250D01*
X153320071Y-77473535D01*
X153320071Y-77544964D01*
X153998642Y-78187821D02*
X153927214Y-78223535D01*
X153784357Y-78223535D01*
X153712928Y-78187821D01*
X153677214Y-78152107D01*
X153641500Y-78080678D01*
X153641500Y-77866392D01*
X153677214Y-77794964D01*
X153712928Y-77759250D01*
X153784357Y-77723535D01*
X153927214Y-77723535D01*
X153998642Y-77759250D01*
X154891500Y-78223535D02*
X154891500Y-77473535D01*
X154891500Y-77830678D02*
X155320071Y-77830678D01*
X155320071Y-78223535D02*
X155320071Y-77473535D01*
X155998642Y-78223535D02*
X155998642Y-77830678D01*
X155962928Y-77759250D01*
X155891500Y-77723535D01*
X155748642Y-77723535D01*
X155677214Y-77759250D01*
X155998642Y-78187821D02*
X155927214Y-78223535D01*
X155748642Y-78223535D01*
X155677214Y-78187821D01*
X155641500Y-78116392D01*
X155641500Y-78044964D01*
X155677214Y-77973535D01*
X155748642Y-77937821D01*
X155927214Y-77937821D01*
X155998642Y-77902107D01*
X156355785Y-78223535D02*
X156355785Y-77723535D01*
X156355785Y-77794964D02*
X156391500Y-77759250D01*
X156462928Y-77723535D01*
X156570071Y-77723535D01*
X156641500Y-77759250D01*
X156677214Y-77830678D01*
X156677214Y-78223535D01*
X156677214Y-77830678D02*
X156712928Y-77759250D01*
X156784357Y-77723535D01*
X156891500Y-77723535D01*
X156962928Y-77759250D01*
X156998642Y-77830678D01*
X156998642Y-78223535D01*
X157355785Y-77723535D02*
X157355785Y-78473535D01*
X157355785Y-77759250D02*
X157427214Y-77723535D01*
X157570071Y-77723535D01*
X157641500Y-77759250D01*
X157677214Y-77794964D01*
X157712928Y-77866392D01*
X157712928Y-78080678D01*
X157677214Y-78152107D01*
X157641500Y-78187821D01*
X157570071Y-78223535D01*
X157427214Y-78223535D01*
X157355785Y-78187821D01*
X157998642Y-78187821D02*
X158070071Y-78223535D01*
X158212928Y-78223535D01*
X158284357Y-78187821D01*
X158320071Y-78116392D01*
X158320071Y-78080678D01*
X158284357Y-78009250D01*
X158212928Y-77973535D01*
X158105785Y-77973535D01*
X158034357Y-77937821D01*
X157998642Y-77866392D01*
X157998642Y-77830678D01*
X158034357Y-77759250D01*
X158105785Y-77723535D01*
X158212928Y-77723535D01*
X158284357Y-77759250D01*
X158748642Y-78223535D02*
X158677214Y-78187821D01*
X158641500Y-78152107D01*
X158605785Y-78080678D01*
X158605785Y-77866392D01*
X158641500Y-77794964D01*
X158677214Y-77759250D01*
X158748642Y-77723535D01*
X158855785Y-77723535D01*
X158927214Y-77759250D01*
X158962928Y-77794964D01*
X158998642Y-77866392D01*
X158998642Y-78080678D01*
X158962928Y-78152107D01*
X158927214Y-78187821D01*
X158855785Y-78223535D01*
X158748642Y-78223535D01*
X159320071Y-77723535D02*
X159320071Y-78223535D01*
X159320071Y-77794964D02*
X159355785Y-77759250D01*
X159427214Y-77723535D01*
X159534357Y-77723535D01*
X159605785Y-77759250D01*
X159641500Y-77830678D01*
X159641500Y-78223535D01*
X149570071Y-79038178D02*
X149820071Y-79038178D01*
X149927214Y-79431035D02*
X149570071Y-79431035D01*
X149570071Y-78681035D01*
X149927214Y-78681035D01*
X150355785Y-79431035D02*
X150284357Y-79395321D01*
X150248642Y-79323892D01*
X150248642Y-78681035D01*
X150641500Y-79431035D02*
X150641500Y-78931035D01*
X150641500Y-78681035D02*
X150605785Y-78716750D01*
X150641500Y-78752464D01*
X150677214Y-78716750D01*
X150641500Y-78681035D01*
X150641500Y-78752464D01*
X151320071Y-79431035D02*
X151320071Y-79038178D01*
X151284357Y-78966750D01*
X151212928Y-78931035D01*
X151070071Y-78931035D01*
X150998642Y-78966750D01*
X151320071Y-79395321D02*
X151248642Y-79431035D01*
X151070071Y-79431035D01*
X150998642Y-79395321D01*
X150962928Y-79323892D01*
X150962928Y-79252464D01*
X150998642Y-79181035D01*
X151070071Y-79145321D01*
X151248642Y-79145321D01*
X151320071Y-79109607D01*
X151641500Y-79395321D02*
X151712928Y-79431035D01*
X151855785Y-79431035D01*
X151927214Y-79395321D01*
X151962928Y-79323892D01*
X151962928Y-79288178D01*
X151927214Y-79216750D01*
X151855785Y-79181035D01*
X151748642Y-79181035D01*
X151677214Y-79145321D01*
X151641500Y-79073892D01*
X151641500Y-79038178D01*
X151677214Y-78966750D01*
X151748642Y-78931035D01*
X151855785Y-78931035D01*
X151927214Y-78966750D01*
X152855785Y-79431035D02*
X152855785Y-78681035D01*
X153284357Y-79431035D02*
X152962928Y-79002464D01*
X153284357Y-78681035D02*
X152855785Y-79109607D01*
X153712928Y-79431035D02*
X153641500Y-79395321D01*
X153605785Y-79359607D01*
X153570071Y-79288178D01*
X153570071Y-79073892D01*
X153605785Y-79002464D01*
X153641500Y-78966750D01*
X153712928Y-78931035D01*
X153820071Y-78931035D01*
X153891500Y-78966750D01*
X153927214Y-79002464D01*
X153962928Y-79073892D01*
X153962928Y-79288178D01*
X153927214Y-79359607D01*
X153891500Y-79395321D01*
X153820071Y-79431035D01*
X153712928Y-79431035D01*
X154605785Y-78931035D02*
X154605785Y-79431035D01*
X154284357Y-78931035D02*
X154284357Y-79323892D01*
X154320071Y-79395321D01*
X154391500Y-79431035D01*
X154498642Y-79431035D01*
X154570071Y-79395321D01*
X154605785Y-79359607D01*
X154962928Y-78931035D02*
X154962928Y-79431035D01*
X154962928Y-79002464D02*
X154998642Y-78966750D01*
X155070071Y-78931035D01*
X155177214Y-78931035D01*
X155248642Y-78966750D01*
X155284357Y-79038178D01*
X155284357Y-79431035D01*
X155534357Y-78931035D02*
X155820071Y-78931035D01*
X155641500Y-78681035D02*
X155641500Y-79323892D01*
X155677214Y-79395321D01*
X155748642Y-79431035D01*
X155820071Y-79431035D01*
X156177214Y-79431035D02*
X156105785Y-79395321D01*
X156070071Y-79359607D01*
X156034357Y-79288178D01*
X156034357Y-79073892D01*
X156070071Y-79002464D01*
X156105785Y-78966750D01*
X156177214Y-78931035D01*
X156284357Y-78931035D01*
X156355785Y-78966750D01*
X156391500Y-79002464D01*
X156427214Y-79073892D01*
X156427214Y-79288178D01*
X156391500Y-79359607D01*
X156355785Y-79395321D01*
X156284357Y-79431035D01*
X156177214Y-79431035D01*
X157070071Y-78931035D02*
X157070071Y-79431035D01*
X156748642Y-78931035D02*
X156748642Y-79323892D01*
X156784357Y-79395321D01*
X156855785Y-79431035D01*
X156962928Y-79431035D01*
X157034357Y-79395321D01*
X157070071Y-79359607D01*
X157427214Y-79431035D02*
X157427214Y-78931035D01*
X157427214Y-79073892D02*
X157462928Y-79002464D01*
X157498642Y-78966750D01*
X157570071Y-78931035D01*
X157641500Y-78931035D01*
X157891500Y-79431035D02*
X157891500Y-78931035D01*
X157891500Y-78681035D02*
X157855785Y-78716750D01*
X157891500Y-78752464D01*
X157927214Y-78716750D01*
X157891500Y-78681035D01*
X157891500Y-78752464D01*
X158212928Y-79395321D02*
X158284357Y-79431035D01*
X158427214Y-79431035D01*
X158498642Y-79395321D01*
X158534357Y-79323892D01*
X158534357Y-79288178D01*
X158498642Y-79216750D01*
X158427214Y-79181035D01*
X158320071Y-79181035D01*
X158248642Y-79145321D01*
X158212928Y-79073892D01*
X158212928Y-79038178D01*
X158248642Y-78966750D01*
X158320071Y-78931035D01*
X158427214Y-78931035D01*
X158498642Y-78966750D01*
D11*
X182820571Y-109291428D02*
X182820571Y-109148571D01*
X182892000Y-109005714D01*
X182963428Y-108934285D01*
X183106285Y-108862857D01*
X183392000Y-108791428D01*
X183749142Y-108791428D01*
X184034857Y-108862857D01*
X184177714Y-108934285D01*
X184249142Y-109005714D01*
X184320571Y-109148571D01*
X184320571Y-109291428D01*
X184249142Y-109434285D01*
X184177714Y-109505714D01*
X184034857Y-109577142D01*
X183749142Y-109648571D01*
X183392000Y-109648571D01*
X183106285Y-109577142D01*
X182963428Y-109505714D01*
X182892000Y-109434285D01*
X182820571Y-109291428D01*
D12*
X154363142Y-136244204D02*
X154410761Y-136291823D01*
X154458380Y-136434680D01*
X154458380Y-136529918D01*
X154410761Y-136672775D01*
X154315523Y-136768013D01*
X154220285Y-136815632D01*
X154029809Y-136863251D01*
X153886952Y-136863251D01*
X153696476Y-136815632D01*
X153601238Y-136768013D01*
X153506000Y-136672775D01*
X153458380Y-136529918D01*
X153458380Y-136434680D01*
X153506000Y-136291823D01*
X153553619Y-136244204D01*
X154458380Y-135291823D02*
X154458380Y-135863251D01*
X154458380Y-135577537D02*
X153458380Y-135577537D01*
X153601238Y-135672775D01*
X153696476Y-135768013D01*
X153744095Y-135863251D01*
X153458380Y-134387061D02*
X153458380Y-134863251D01*
X153934571Y-134910870D01*
X153886952Y-134863251D01*
X153839333Y-134768013D01*
X153839333Y-134529918D01*
X153886952Y-134434680D01*
X153934571Y-134387061D01*
X154029809Y-134339442D01*
X154267904Y-134339442D01*
X154363142Y-134387061D01*
X154410761Y-134434680D01*
X154458380Y-134529918D01*
X154458380Y-134768013D01*
X154410761Y-134863251D01*
X154363142Y-134910870D01*
X172320379Y-109983524D02*
X173034665Y-109983524D01*
X173177522Y-110031143D01*
X173272760Y-110126381D01*
X173320379Y-110269239D01*
X173320379Y-110364477D01*
X173320379Y-108983524D02*
X173320379Y-109554953D01*
X173320379Y-109269239D02*
X172320379Y-109269239D01*
X172463237Y-109364477D01*
X172558475Y-109459715D01*
X172606094Y-109554953D01*
X172415618Y-108602572D02*
X172367999Y-108554953D01*
X172320379Y-108459715D01*
X172320379Y-108221620D01*
X172367999Y-108126381D01*
X172415618Y-108078762D01*
X172510856Y-108031143D01*
X172606094Y-108031143D01*
X172748951Y-108078762D01*
X173320379Y-108650191D01*
X173320379Y-108031143D01*
X166251895Y-108969980D02*
X166251895Y-109779504D01*
X166299514Y-109874742D01*
X166347133Y-109922361D01*
X166442371Y-109969980D01*
X166632847Y-109969980D01*
X166728085Y-109922361D01*
X166775704Y-109874742D01*
X166823323Y-109779504D01*
X166823323Y-108969980D01*
X167728085Y-108969980D02*
X167537609Y-108969980D01*
X167442371Y-109017600D01*
X167394752Y-109065219D01*
X167299514Y-109208076D01*
X167251895Y-109398552D01*
X167251895Y-109779504D01*
X167299514Y-109874742D01*
X167347133Y-109922361D01*
X167442371Y-109969980D01*
X167632847Y-109969980D01*
X167728085Y-109922361D01*
X167775704Y-109874742D01*
X167823323Y-109779504D01*
X167823323Y-109541409D01*
X167775704Y-109446171D01*
X167728085Y-109398552D01*
X167632847Y-109350933D01*
X167442371Y-109350933D01*
X167347133Y-109398552D01*
X167299514Y-109446171D01*
X167251895Y-109541409D01*
X166484476Y-78982379D02*
X166484476Y-79696665D01*
X166436857Y-79839522D01*
X166341619Y-79934760D01*
X166198761Y-79982379D01*
X166103523Y-79982379D01*
X166913047Y-79077618D02*
X166960666Y-79029999D01*
X167055904Y-78982379D01*
X167294000Y-78982379D01*
X167389238Y-79029999D01*
X167436857Y-79077618D01*
X167484476Y-79172856D01*
X167484476Y-79268094D01*
X167436857Y-79410951D01*
X166865428Y-79982379D01*
X167484476Y-79982379D01*
X167817809Y-78982379D02*
X168484476Y-78982379D01*
X168055904Y-79982379D01*
X120636476Y-131438380D02*
X120636476Y-132152666D01*
X120588857Y-132295523D01*
X120493619Y-132390761D01*
X120350761Y-132438380D01*
X120255523Y-132438380D01*
X121636476Y-132438380D02*
X121065047Y-132438380D01*
X121350761Y-132438380D02*
X121350761Y-131438380D01*
X121255523Y-131581238D01*
X121160285Y-131676476D01*
X121065047Y-131724095D01*
X121969809Y-131438380D02*
X122588857Y-131438380D01*
X122255523Y-131819333D01*
X122398380Y-131819333D01*
X122493619Y-131866952D01*
X122541238Y-131914571D01*
X122588857Y-132009809D01*
X122588857Y-132247904D01*
X122541238Y-132343142D01*
X122493619Y-132390761D01*
X122398380Y-132438380D01*
X122112666Y-132438380D01*
X122017428Y-132390761D01*
X121969809Y-132343142D01*
X172018404Y-121610380D02*
X172018404Y-120610380D01*
X172256500Y-120610380D01*
X172399357Y-120658000D01*
X172494595Y-120753238D01*
X172542214Y-120848476D01*
X172589833Y-121038952D01*
X172589833Y-121181809D01*
X172542214Y-121372285D01*
X172494595Y-121467523D01*
X172399357Y-121562761D01*
X172256500Y-121610380D01*
X172018404Y-121610380D01*
X173446976Y-120610380D02*
X173256500Y-120610380D01*
X173161261Y-120658000D01*
X173113642Y-120705619D01*
X173018404Y-120848476D01*
X172970785Y-121038952D01*
X172970785Y-121419904D01*
X173018404Y-121515142D01*
X173066023Y-121562761D01*
X173161261Y-121610380D01*
X173351738Y-121610380D01*
X173446976Y-121562761D01*
X173494595Y-121515142D01*
X173542214Y-121419904D01*
X173542214Y-121181809D01*
X173494595Y-121086571D01*
X173446976Y-121038952D01*
X173351738Y-120991333D01*
X173161261Y-120991333D01*
X173066023Y-121038952D01*
X173018404Y-121086571D01*
X172970785Y-121181809D01*
X182501142Y-123536380D02*
X182167809Y-123060190D01*
X181929714Y-123536380D02*
X181929714Y-122536380D01*
X182310666Y-122536380D01*
X182405904Y-122584000D01*
X182453523Y-122631619D01*
X182501142Y-122726857D01*
X182501142Y-122869714D01*
X182453523Y-122964952D01*
X182405904Y-123012571D01*
X182310666Y-123060190D01*
X181929714Y-123060190D01*
X183453523Y-123536380D02*
X182882095Y-123536380D01*
X183167809Y-123536380D02*
X183167809Y-122536380D01*
X183072571Y-122679238D01*
X182977333Y-122774476D01*
X182882095Y-122822095D01*
X183834476Y-122631619D02*
X183882095Y-122584000D01*
X183977333Y-122536380D01*
X184215428Y-122536380D01*
X184310666Y-122584000D01*
X184358285Y-122631619D01*
X184405904Y-122726857D01*
X184405904Y-122822095D01*
X184358285Y-122964952D01*
X183786857Y-123536380D01*
X184405904Y-123536380D01*
X172101142Y-100841142D02*
X172053523Y-100888761D01*
X171910666Y-100936380D01*
X171815428Y-100936380D01*
X171672571Y-100888761D01*
X171577333Y-100793523D01*
X171529714Y-100698285D01*
X171482095Y-100507809D01*
X171482095Y-100364952D01*
X171529714Y-100174476D01*
X171577333Y-100079238D01*
X171672571Y-99984000D01*
X171815428Y-99936380D01*
X171910666Y-99936380D01*
X172053523Y-99984000D01*
X172101142Y-100031619D01*
X173053523Y-100936380D02*
X172482095Y-100936380D01*
X172767809Y-100936380D02*
X172767809Y-99936380D01*
X172672571Y-100079238D01*
X172577333Y-100174476D01*
X172482095Y-100222095D01*
X173434476Y-100031619D02*
X173482095Y-99984000D01*
X173577333Y-99936380D01*
X173815428Y-99936380D01*
X173910666Y-99984000D01*
X173958285Y-100031619D01*
X174005904Y-100126857D01*
X174005904Y-100222095D01*
X173958285Y-100364952D01*
X173386857Y-100936380D01*
X174005904Y-100936380D01*
X130050476Y-79010380D02*
X130050476Y-79724666D01*
X130002857Y-79867523D01*
X129907619Y-79962761D01*
X129764761Y-80010380D01*
X129669523Y-80010380D01*
X131050476Y-80010380D02*
X130479047Y-80010380D01*
X130764761Y-80010380D02*
X130764761Y-79010380D01*
X130669523Y-79153238D01*
X130574285Y-79248476D01*
X130479047Y-79296095D01*
X131669523Y-79010380D02*
X131764761Y-79010380D01*
X131860000Y-79058000D01*
X131907619Y-79105619D01*
X131955238Y-79200857D01*
X132002857Y-79391333D01*
X132002857Y-79629428D01*
X131955238Y-79819904D01*
X131907619Y-79915142D01*
X131860000Y-79962761D01*
X131764761Y-80010380D01*
X131669523Y-80010380D01*
X131574285Y-79962761D01*
X131526666Y-79915142D01*
X131479047Y-79819904D01*
X131431428Y-79629428D01*
X131431428Y-79391333D01*
X131479047Y-79200857D01*
X131526666Y-79105619D01*
X131574285Y-79058000D01*
X131669523Y-79010380D01*
X135084476Y-131286380D02*
X135084476Y-132000666D01*
X135036857Y-132143523D01*
X134941619Y-132238761D01*
X134798761Y-132286380D01*
X134703523Y-132286380D01*
X136084476Y-132286380D02*
X135513047Y-132286380D01*
X135798761Y-132286380D02*
X135798761Y-131286380D01*
X135703523Y-131429238D01*
X135608285Y-131524476D01*
X135513047Y-131572095D01*
X136941619Y-131619714D02*
X136941619Y-132286380D01*
X136703523Y-131238761D02*
X136465428Y-131953047D01*
X137084476Y-131953047D01*
X108763522Y-114231142D02*
X108715903Y-114278761D01*
X108573046Y-114326380D01*
X108477808Y-114326380D01*
X108334951Y-114278761D01*
X108239713Y-114183523D01*
X108192094Y-114088285D01*
X108144475Y-113897809D01*
X108144475Y-113754952D01*
X108192094Y-113564476D01*
X108239713Y-113469238D01*
X108334951Y-113374000D01*
X108477808Y-113326380D01*
X108573046Y-113326380D01*
X108715903Y-113374000D01*
X108763522Y-113421619D01*
X109715903Y-114326380D02*
X109144475Y-114326380D01*
X109430189Y-114326380D02*
X109430189Y-113326380D01*
X109334951Y-113469238D01*
X109239713Y-113564476D01*
X109144475Y-113612095D01*
X110573046Y-113659714D02*
X110573046Y-114326380D01*
X110334951Y-113278761D02*
X110096856Y-113993047D01*
X110715903Y-113993047D01*
X160276666Y-85352571D02*
X159943333Y-85352571D01*
X159943333Y-85876380D02*
X159943333Y-84876380D01*
X160419523Y-84876380D01*
X160705238Y-84876380D02*
X161324285Y-84876380D01*
X160990952Y-85257333D01*
X161133809Y-85257333D01*
X161229047Y-85304952D01*
X161276666Y-85352571D01*
X161324285Y-85447809D01*
X161324285Y-85685904D01*
X161276666Y-85781142D01*
X161229047Y-85828761D01*
X161133809Y-85876380D01*
X160848095Y-85876380D01*
X160752857Y-85828761D01*
X160705238Y-85781142D01*
X162510666Y-131812571D02*
X162177333Y-131812571D01*
X162177333Y-132336380D02*
X162177333Y-131336380D01*
X162653523Y-131336380D01*
X163463047Y-131669714D02*
X163463047Y-132336380D01*
X163224952Y-131288761D02*
X162986857Y-132003047D01*
X163605904Y-132003047D01*
X172235904Y-98242380D02*
X172235904Y-97242380D01*
X172474000Y-97242380D01*
X172616857Y-97290000D01*
X172712095Y-97385238D01*
X172759714Y-97480476D01*
X172807333Y-97670952D01*
X172807333Y-97813809D01*
X172759714Y-98004285D01*
X172712095Y-98099523D01*
X172616857Y-98194761D01*
X172474000Y-98242380D01*
X172235904Y-98242380D01*
X173712095Y-97242380D02*
X173235904Y-97242380D01*
X173188285Y-97718571D01*
X173235904Y-97670952D01*
X173331142Y-97623333D01*
X173569238Y-97623333D01*
X173664476Y-97670952D01*
X173712095Y-97718571D01*
X173759714Y-97813809D01*
X173759714Y-98051904D01*
X173712095Y-98147142D01*
X173664476Y-98194761D01*
X173569238Y-98242380D01*
X173331142Y-98242380D01*
X173235904Y-98194761D01*
X173188285Y-98147142D01*
X172051142Y-118941142D02*
X172003523Y-118988761D01*
X171860666Y-119036380D01*
X171765428Y-119036380D01*
X171622571Y-118988761D01*
X171527333Y-118893523D01*
X171479714Y-118798285D01*
X171432095Y-118607809D01*
X171432095Y-118464952D01*
X171479714Y-118274476D01*
X171527333Y-118179238D01*
X171622571Y-118084000D01*
X171765428Y-118036380D01*
X171860666Y-118036380D01*
X172003523Y-118084000D01*
X172051142Y-118131619D01*
X173003523Y-119036380D02*
X172432095Y-119036380D01*
X172717809Y-119036380D02*
X172717809Y-118036380D01*
X172622571Y-118179238D01*
X172527333Y-118274476D01*
X172432095Y-118322095D01*
X173860666Y-118036380D02*
X173670190Y-118036380D01*
X173574952Y-118084000D01*
X173527333Y-118131619D01*
X173432095Y-118274476D01*
X173384476Y-118464952D01*
X173384476Y-118845904D01*
X173432095Y-118941142D01*
X173479714Y-118988761D01*
X173574952Y-119036380D01*
X173765428Y-119036380D01*
X173860666Y-118988761D01*
X173908285Y-118941142D01*
X173955904Y-118845904D01*
X173955904Y-118607809D01*
X173908285Y-118512571D01*
X173860666Y-118464952D01*
X173765428Y-118417333D01*
X173574952Y-118417333D01*
X173479714Y-118464952D01*
X173432095Y-118512571D01*
X173384476Y-118607809D01*
X181951333Y-96210380D02*
X181618000Y-95734190D01*
X181379904Y-96210380D02*
X181379904Y-95210380D01*
X181760857Y-95210380D01*
X181856095Y-95258000D01*
X181903714Y-95305619D01*
X181951333Y-95400857D01*
X181951333Y-95543714D01*
X181903714Y-95638952D01*
X181856095Y-95686571D01*
X181760857Y-95734190D01*
X181379904Y-95734190D01*
X182522761Y-95638952D02*
X182427523Y-95591333D01*
X182379904Y-95543714D01*
X182332285Y-95448476D01*
X182332285Y-95400857D01*
X182379904Y-95305619D01*
X182427523Y-95258000D01*
X182522761Y-95210380D01*
X182713238Y-95210380D01*
X182808476Y-95258000D01*
X182856095Y-95305619D01*
X182903714Y-95400857D01*
X182903714Y-95448476D01*
X182856095Y-95543714D01*
X182808476Y-95591333D01*
X182713238Y-95638952D01*
X182522761Y-95638952D01*
X182427523Y-95686571D01*
X182379904Y-95734190D01*
X182332285Y-95829428D01*
X182332285Y-96019904D01*
X182379904Y-96115142D01*
X182427523Y-96162761D01*
X182522761Y-96210380D01*
X182713238Y-96210380D01*
X182808476Y-96162761D01*
X182856095Y-96115142D01*
X182903714Y-96019904D01*
X182903714Y-95829428D01*
X182856095Y-95734190D01*
X182808476Y-95686571D01*
X182713238Y-95638952D01*
X107782095Y-83536380D02*
X107782095Y-84345904D01*
X107829714Y-84441142D01*
X107877333Y-84488761D01*
X107972571Y-84536380D01*
X108163047Y-84536380D01*
X108258285Y-84488761D01*
X108305904Y-84441142D01*
X108353523Y-84345904D01*
X108353523Y-83536380D01*
X108734476Y-83536380D02*
X109353523Y-83536380D01*
X109020190Y-83917333D01*
X109163047Y-83917333D01*
X109258285Y-83964952D01*
X109305904Y-84012571D01*
X109353523Y-84107809D01*
X109353523Y-84345904D01*
X109305904Y-84441142D01*
X109258285Y-84488761D01*
X109163047Y-84536380D01*
X108877333Y-84536380D01*
X108782095Y-84488761D01*
X108734476Y-84441142D01*
D13*
X148566000Y-137602347D02*
X147058000Y-137602347D01*
X152836000Y-135681347D02*
X146376000Y-135681347D01*
X148566000Y-136562347D02*
X146520000Y-136562347D01*
X152090000Y-137682347D02*
X150646000Y-137682347D01*
X151187000Y-138442347D02*
X148025000Y-138442347D01*
X151871000Y-137922347D02*
X147341000Y-137922347D01*
X151760000Y-132416106D02*
X151130000Y-132416106D01*
X148566000Y-137002347D02*
X146690000Y-137002347D01*
X148566000Y-136482347D02*
X146496000Y-136482347D01*
X152576000Y-136882347D02*
X150646000Y-136882347D01*
X152462000Y-137122347D02*
X150646000Y-137122347D01*
X148566000Y-137682347D02*
X147122000Y-137682347D01*
X152821000Y-135921347D02*
X150646000Y-135921347D01*
X152418000Y-137202347D02*
X150646000Y-137202347D01*
X148566000Y-137842347D02*
X147263000Y-137842347D01*
X152296000Y-137402347D02*
X150646000Y-137402347D01*
X151743000Y-138042347D02*
X147469000Y-138042347D01*
X148566000Y-136722347D02*
X146573000Y-136722347D01*
X152322000Y-137362347D02*
X150646000Y-137362347D01*
X148566000Y-135921347D02*
X146391000Y-135921347D01*
X152540000Y-136962347D02*
X150646000Y-136962347D01*
X151256000Y-138402347D02*
X147956000Y-138402347D01*
X148566000Y-136642347D02*
X146545000Y-136642347D01*
X151788000Y-138002347D02*
X147424000Y-138002347D01*
X151601000Y-138162347D02*
X147611000Y-138162347D01*
X151320000Y-138362347D02*
X147892000Y-138362347D01*
X152836000Y-135601347D02*
X146376000Y-135601347D01*
X152056000Y-137722347D02*
X150646000Y-137722347D01*
X148566000Y-136682347D02*
X146559000Y-136682347D01*
X148566000Y-135841347D02*
X146384000Y-135841347D01*
X152608000Y-136802347D02*
X150646000Y-136802347D01*
X148566000Y-136241347D02*
X146439000Y-136241347D01*
X152747000Y-136362347D02*
X150646000Y-136362347D01*
X148566000Y-136882347D02*
X146636000Y-136882347D01*
X150665000Y-138682347D02*
X148547000Y-138682347D01*
X152522000Y-137002347D02*
X150646000Y-137002347D01*
X152348000Y-137322347D02*
X150646000Y-137322347D01*
X150868000Y-138602347D02*
X148344000Y-138602347D01*
X148566000Y-135881347D02*
X146388000Y-135881347D01*
X152801000Y-136081347D02*
X150646000Y-136081347D01*
X150956000Y-138562347D02*
X148256000Y-138562347D01*
X152727000Y-136442347D02*
X150646000Y-136442347D01*
X152756000Y-136322347D02*
X150646000Y-136322347D01*
X152765000Y-136281347D02*
X150646000Y-136281347D01*
X148566000Y-137402347D02*
X146916000Y-137402347D01*
X152440000Y-137162347D02*
X150646000Y-137162347D01*
X148566000Y-136602347D02*
X146532000Y-136602347D01*
X148566000Y-136842347D02*
X146620000Y-136842347D01*
X148566000Y-137242347D02*
X146816000Y-137242347D01*
X148566000Y-137482347D02*
X146970000Y-137482347D01*
X152830000Y-135801347D02*
X146382000Y-135801347D01*
X152213000Y-137522347D02*
X150646000Y-137522347D01*
X152270000Y-137442347D02*
X150646000Y-137442347D01*
X152022000Y-137762347D02*
X150646000Y-137762347D01*
X150408000Y-138762347D02*
X148804000Y-138762347D01*
X151911000Y-137882347D02*
X150646000Y-137882347D01*
X148566000Y-137642347D02*
X147090000Y-137642347D01*
X148566000Y-136322347D02*
X146456000Y-136322347D01*
X151650000Y-138122347D02*
X147562000Y-138122347D01*
X151986000Y-137802347D02*
X150646000Y-137802347D01*
X152154000Y-137602347D02*
X150646000Y-137602347D01*
X152824000Y-135881347D02*
X150646000Y-135881347D01*
X152788000Y-136161347D02*
X150646000Y-136161347D01*
X148566000Y-137442347D02*
X146942000Y-137442347D01*
X148566000Y-137562347D02*
X147028000Y-137562347D01*
X148566000Y-135961347D02*
X146395000Y-135961347D01*
X152828000Y-135841347D02*
X150646000Y-135841347D01*
X150771000Y-138642347D02*
X148441000Y-138642347D01*
X148566000Y-136962347D02*
X146672000Y-136962347D01*
X148566000Y-136001347D02*
X146400000Y-136001347D01*
X148566000Y-137282347D02*
X146840000Y-137282347D01*
X150008000Y-138842347D02*
X149204000Y-138842347D01*
X148566000Y-136802347D02*
X146604000Y-136802347D01*
X148566000Y-137322347D02*
X146864000Y-137322347D01*
X152592000Y-136842347D02*
X150646000Y-136842347D01*
X152716000Y-136482347D02*
X150646000Y-136482347D01*
X151038000Y-138522347D02*
X148174000Y-138522347D01*
X152834000Y-135721347D02*
X146378000Y-135721347D01*
X151445000Y-132101106D02*
X151445000Y-132731106D01*
X148566000Y-136121347D02*
X146417000Y-136121347D01*
X151115000Y-138482347D02*
X148097000Y-138482347D01*
X148566000Y-136762347D02*
X146588000Y-136762347D01*
X151550000Y-138202347D02*
X147662000Y-138202347D01*
X148566000Y-136041347D02*
X146405000Y-136041347D01*
X152692000Y-136562347D02*
X150646000Y-136562347D01*
X152242000Y-137482347D02*
X150646000Y-137482347D01*
X152836000Y-135641347D02*
X146376000Y-135641347D01*
X148566000Y-136161347D02*
X146424000Y-136161347D01*
X152812000Y-136001347D02*
X150646000Y-136001347D01*
X152558000Y-136922347D02*
X150646000Y-136922347D01*
X151949000Y-137842347D02*
X150646000Y-137842347D01*
X152502000Y-137042347D02*
X150646000Y-137042347D01*
X150239000Y-138802347D02*
X148973000Y-138802347D01*
X148566000Y-137202347D02*
X146794000Y-137202347D01*
X148566000Y-137162347D02*
X146772000Y-137162347D01*
X148566000Y-137122347D02*
X146750000Y-137122347D01*
X152781000Y-136201347D02*
X150646000Y-136201347D01*
X148566000Y-136081347D02*
X146411000Y-136081347D01*
X152817000Y-135961347D02*
X150646000Y-135961347D01*
X152639000Y-136722347D02*
X150646000Y-136722347D01*
X152184000Y-137562347D02*
X150646000Y-137562347D01*
X152624000Y-136762347D02*
X150646000Y-136762347D01*
X152833000Y-135761347D02*
X146379000Y-135761347D01*
X152680000Y-136602347D02*
X150646000Y-136602347D01*
X152704000Y-136522347D02*
X150646000Y-136522347D01*
X148566000Y-136922347D02*
X146654000Y-136922347D01*
X150546000Y-138722347D02*
X148666000Y-138722347D01*
X148566000Y-137882347D02*
X147301000Y-137882347D01*
X151830000Y-137962347D02*
X147382000Y-137962347D01*
X152667000Y-136642347D02*
X150646000Y-136642347D01*
X152482000Y-137082347D02*
X150646000Y-137082347D01*
X148566000Y-137362347D02*
X146890000Y-137362347D01*
X148566000Y-136402347D02*
X146475000Y-136402347D01*
X148566000Y-136522347D02*
X146508000Y-136522347D01*
X148566000Y-137042347D02*
X146710000Y-137042347D01*
X151496000Y-138242347D02*
X147716000Y-138242347D01*
X152737000Y-136402347D02*
X150646000Y-136402347D01*
X148566000Y-137082347D02*
X146730000Y-137082347D01*
X152795000Y-136121347D02*
X150646000Y-136121347D01*
X148566000Y-136281347D02*
X146447000Y-136281347D01*
X148566000Y-137722347D02*
X147156000Y-137722347D01*
X152807000Y-136041347D02*
X150646000Y-136041347D01*
X148566000Y-137762347D02*
X147190000Y-137762347D01*
X148566000Y-137522347D02*
X146999000Y-137522347D01*
X148566000Y-137802347D02*
X147226000Y-137802347D01*
X152122000Y-137642347D02*
X150646000Y-137642347D01*
X152773000Y-136241347D02*
X150646000Y-136241347D01*
X148566000Y-136442347D02*
X146485000Y-136442347D01*
X152653000Y-136682347D02*
X150646000Y-136682347D01*
X148566000Y-136201347D02*
X146431000Y-136201347D01*
X152372000Y-137282347D02*
X150646000Y-137282347D01*
X148566000Y-136362347D02*
X146465000Y-136362347D01*
X151382000Y-138322347D02*
X147830000Y-138322347D01*
X151440000Y-138282347D02*
X147772000Y-138282347D01*
X152396000Y-137242347D02*
X150646000Y-137242347D01*
X151698000Y-138082347D02*
X147514000Y-138082347D01*
X152876000Y-135601347D02*
G75*
G03*
X152876000Y-135601347I-3270000J0D01*
G01*
X169941000Y-117101001D02*
X181595000Y-117101001D01*
X181595000Y-101847000D02*
X169941000Y-101847000D01*
X169941000Y-101847000D02*
X169941000Y-117101001D01*
X181595000Y-117101001D02*
X181595000Y-101847000D01*
X114300000Y-96774000D02*
X165100000Y-96774000D01*
X165100000Y-96774000D02*
X165100000Y-122174000D01*
X165100000Y-122174000D02*
X114300000Y-122174000D01*
X114300000Y-122174000D02*
X114300000Y-96774000D01*
X162219000Y-82535000D02*
X172473000Y-82535000D01*
X172473000Y-82535000D02*
X172473000Y-70881000D01*
X162219000Y-70881000D02*
X162219000Y-82535000D01*
X172473000Y-70881000D02*
X162219000Y-70881000D01*
X129373000Y-134912999D02*
X129373000Y-123258999D01*
X129373000Y-123258999D02*
X114118999Y-123258999D01*
X114118999Y-134912999D02*
X129373000Y-134912999D01*
X114118999Y-123258999D02*
X114118999Y-134912999D01*
X175438000Y-122293000D02*
X179498000Y-122293000D01*
X179498000Y-122293000D02*
X179498000Y-120023000D01*
X179498000Y-120023000D02*
X175438000Y-120023000D01*
X183361064Y-121893000D02*
X182906936Y-121893000D01*
X183361064Y-120423000D02*
X182906936Y-120423000D01*
X176232748Y-99749000D02*
X176755252Y-99749000D01*
X176232748Y-101219000D02*
X176755252Y-101219000D01*
X135937000Y-82535000D02*
X135937000Y-70881000D01*
X125683000Y-70881000D02*
X125683000Y-82535000D01*
X135937000Y-70881000D02*
X125683000Y-70881000D01*
X125683000Y-82535000D02*
X135937000Y-82535000D01*
X141057000Y-123258999D02*
X130803000Y-123258999D01*
X130803000Y-134912999D02*
X141057000Y-134912999D01*
X130803000Y-123258999D02*
X130803000Y-134912999D01*
X141057000Y-134912999D02*
X141057000Y-123258999D01*
X107325380Y-108434000D02*
X107325380Y-106990000D01*
X106165380Y-109876000D02*
X106165380Y-109072000D01*
X108846380Y-112656000D02*
X108846380Y-110514000D01*
X109006380Y-108434000D02*
X109006380Y-106268000D01*
X107765380Y-112264000D02*
X107765380Y-110514000D01*
X107605380Y-108434000D02*
X107605380Y-106784000D01*
X107085380Y-111739000D02*
X107085380Y-107209000D01*
X107725380Y-108434000D02*
X107725380Y-106708000D01*
X109046380Y-108434000D02*
X109046380Y-106263000D01*
X107805380Y-112286000D02*
X107805380Y-110514000D01*
X108005380Y-108434000D02*
X108005380Y-106558000D01*
X106205380Y-110107000D02*
X106205380Y-108841000D01*
X108485380Y-112572000D02*
X108485380Y-110514000D01*
X107485380Y-108434000D02*
X107485380Y-106867000D01*
X107245380Y-111890000D02*
X107245380Y-110514000D01*
X107605380Y-112164000D02*
X107605380Y-110514000D01*
X109166380Y-108434000D02*
X109166380Y-106252000D01*
X108886380Y-112663000D02*
X108886380Y-110514000D01*
X108525380Y-112584000D02*
X108525380Y-110514000D01*
X109246380Y-112701000D02*
X109246380Y-106247000D01*
X106765380Y-111364000D02*
X106765380Y-107584000D01*
X108806380Y-112649000D02*
X108806380Y-110514000D01*
X107485380Y-112081000D02*
X107485380Y-110514000D01*
X108685380Y-112624000D02*
X108685380Y-110514000D01*
X108645380Y-112615000D02*
X108645380Y-110514000D01*
X106405380Y-110736000D02*
X106405380Y-108212000D01*
X109126380Y-108434000D02*
X109126380Y-106256000D01*
X107125380Y-108434000D02*
X107125380Y-107169000D01*
X108645380Y-108434000D02*
X108645380Y-106333000D01*
X107645380Y-108434000D02*
X107645380Y-106758000D01*
X107005380Y-111656000D02*
X107005380Y-107292000D01*
X107405380Y-112022000D02*
X107405380Y-110514000D01*
X108525380Y-108434000D02*
X108525380Y-106364000D01*
X107165380Y-108434000D02*
X107165380Y-107131000D01*
X108966380Y-112675000D02*
X108966380Y-110514000D01*
X106325380Y-110533000D02*
X106325380Y-108415000D01*
X108245380Y-108434000D02*
X108245380Y-106456000D01*
X109046380Y-112685000D02*
X109046380Y-110514000D01*
X107565380Y-112138000D02*
X107565380Y-110514000D01*
X109326380Y-112704000D02*
X109326380Y-106244000D01*
X108685380Y-108434000D02*
X108685380Y-106324000D01*
X107165380Y-111817000D02*
X107165380Y-110514000D01*
X109086380Y-108434000D02*
X109086380Y-106259000D01*
X107965380Y-108434000D02*
X107965380Y-106578000D01*
X107525380Y-112110000D02*
X107525380Y-110514000D01*
X106645380Y-111188000D02*
X106645380Y-107760000D01*
X108485380Y-108434000D02*
X108485380Y-106376000D01*
X108766380Y-112641000D02*
X108766380Y-110514000D01*
X106605380Y-111124000D02*
X106605380Y-107824000D01*
X108125380Y-112444000D02*
X108125380Y-110514000D01*
X106885380Y-111518000D02*
X106885380Y-107430000D01*
X107405380Y-108434000D02*
X107405380Y-106926000D01*
X108205380Y-112476000D02*
X108205380Y-110514000D01*
X107205380Y-108434000D02*
X107205380Y-107094000D01*
X108245380Y-112492000D02*
X108245380Y-110514000D01*
X108085380Y-112426000D02*
X108085380Y-110514000D01*
X107765380Y-108434000D02*
X107765380Y-106684000D01*
X108165380Y-108434000D02*
X108165380Y-106488000D01*
X107845380Y-112308000D02*
X107845380Y-110514000D01*
X107445380Y-112052000D02*
X107445380Y-110514000D01*
X108766380Y-108434000D02*
X108766380Y-106307000D01*
X108085380Y-108434000D02*
X108085380Y-106522000D01*
X108445380Y-108434000D02*
X108445380Y-106388000D01*
X107205380Y-111854000D02*
X107205380Y-110514000D01*
X109206380Y-112698000D02*
X109206380Y-106250000D01*
X108405380Y-112548000D02*
X108405380Y-110514000D01*
X106245380Y-110276000D02*
X106245380Y-108672000D01*
X109126380Y-112692000D02*
X109126380Y-110514000D01*
X106925380Y-111566000D02*
X106925380Y-107382000D01*
X108966380Y-108434000D02*
X108966380Y-106273000D01*
X108605380Y-112605000D02*
X108605380Y-110514000D01*
X107365380Y-111990000D02*
X107365380Y-110514000D01*
X107685380Y-108434000D02*
X107685380Y-106732000D01*
X106525380Y-110983000D02*
X106525380Y-107965000D01*
X108045380Y-112408000D02*
X108045380Y-110514000D01*
X106965380Y-111611000D02*
X106965380Y-107337000D01*
X108565380Y-108434000D02*
X108565380Y-106353000D01*
X108005380Y-112390000D02*
X108005380Y-110514000D01*
X107925380Y-112350000D02*
X107925380Y-110514000D01*
X108125380Y-108434000D02*
X108125380Y-106504000D01*
X109286380Y-112702000D02*
X109286380Y-106246000D01*
X107285380Y-108434000D02*
X107285380Y-107024000D01*
X106285380Y-110414000D02*
X106285380Y-108534000D01*
X108205380Y-108434000D02*
X108205380Y-106472000D01*
X108806380Y-108434000D02*
X108806380Y-106299000D01*
X106365380Y-110639000D02*
X106365380Y-108309000D01*
X109366380Y-112704000D02*
X109366380Y-106244000D01*
X107925380Y-108434000D02*
X107925380Y-106598000D01*
X108726380Y-112633000D02*
X108726380Y-110514000D01*
X108325380Y-108434000D02*
X108325380Y-106427000D01*
X107125380Y-111779000D02*
X107125380Y-110514000D01*
X108365380Y-108434000D02*
X108365380Y-106413000D01*
X108285380Y-112507000D02*
X108285380Y-110514000D01*
X107685380Y-112216000D02*
X107685380Y-110514000D01*
X109406380Y-112704000D02*
X109406380Y-106244000D01*
X109086380Y-112689000D02*
X109086380Y-110514000D01*
X106725380Y-111308000D02*
X106725380Y-107640000D01*
X112906621Y-111313000D02*
X112276621Y-111313000D01*
X107725380Y-112240000D02*
X107725380Y-110514000D01*
X108405380Y-108434000D02*
X108405380Y-106400000D01*
X108365380Y-112535000D02*
X108365380Y-110514000D01*
X106685380Y-111250000D02*
X106685380Y-107698000D01*
X108565380Y-112595000D02*
X108565380Y-110514000D01*
X108045380Y-108434000D02*
X108045380Y-106540000D01*
X108605380Y-108434000D02*
X108605380Y-106343000D01*
X107325380Y-111958000D02*
X107325380Y-110514000D01*
X106445380Y-110824000D02*
X106445380Y-108124000D01*
X107365380Y-108434000D02*
X107365380Y-106958000D01*
X112591621Y-111628000D02*
X112591621Y-110998000D01*
X106485380Y-110906000D02*
X106485380Y-108042000D01*
X108726380Y-108434000D02*
X108726380Y-106315000D01*
X108846380Y-108434000D02*
X108846380Y-106292000D01*
X107045380Y-111698000D02*
X107045380Y-107250000D01*
X108886380Y-108434000D02*
X108886380Y-106285000D01*
X107245380Y-108434000D02*
X107245380Y-107058000D01*
X108165380Y-112460000D02*
X108165380Y-110514000D01*
X107845380Y-108434000D02*
X107845380Y-106640000D01*
X108285380Y-108434000D02*
X108285380Y-106441000D01*
X108325380Y-112521000D02*
X108325380Y-110514000D01*
X109006380Y-112680000D02*
X109006380Y-110514000D01*
X107445380Y-108434000D02*
X107445380Y-106896000D01*
X107525380Y-108434000D02*
X107525380Y-106838000D01*
X108445380Y-112560000D02*
X108445380Y-110514000D01*
X107965380Y-112370000D02*
X107965380Y-110514000D01*
X107805380Y-108434000D02*
X107805380Y-106662000D01*
X108926380Y-108434000D02*
X108926380Y-106279000D01*
X108926380Y-112669000D02*
X108926380Y-110514000D01*
X107885380Y-108434000D02*
X107885380Y-106618000D01*
X106565380Y-111055000D02*
X106565380Y-107893000D01*
X107285380Y-111924000D02*
X107285380Y-110514000D01*
X107645380Y-112190000D02*
X107645380Y-110514000D01*
X109166380Y-112696000D02*
X109166380Y-110514000D01*
X106805380Y-111418000D02*
X106805380Y-107530000D01*
X107565380Y-108434000D02*
X107565380Y-106810000D01*
X106845380Y-111469000D02*
X106845380Y-107479000D01*
X107885380Y-112330000D02*
X107885380Y-110514000D01*
X112676380Y-109474000D02*
G75*
G03*
X112676380Y-109474000I-3270000J0D01*
G01*
X177465000Y-92174000D02*
X177465000Y-94359000D01*
X170355000Y-94359000D02*
X177465000Y-94359000D01*
X170355000Y-87249000D02*
X150875000Y-87249000D01*
X143810000Y-94359000D02*
X143810000Y-92174000D01*
X170355000Y-86489000D02*
X170355000Y-88674000D01*
X150875000Y-94359000D02*
X143810000Y-94359000D01*
X150875000Y-86489000D02*
X150875000Y-88674000D01*
X143810000Y-86489000D02*
X143810000Y-88674000D01*
X150875000Y-94359000D02*
X150875000Y-92174000D01*
X150875000Y-86489000D02*
X143810000Y-86489000D01*
X170355000Y-93599000D02*
X150875000Y-93599000D01*
X170355000Y-94359000D02*
X170355000Y-92174000D01*
X177465000Y-88674000D02*
X177465000Y-86489000D01*
X177465000Y-86489000D02*
X170355000Y-86489000D01*
X172046000Y-131189000D02*
X179156000Y-131189000D01*
X179156000Y-123319000D02*
X172046000Y-123319000D01*
X172046000Y-130429000D02*
X152566000Y-130429000D01*
X152566000Y-123319000D02*
X145501000Y-123319000D01*
X172046000Y-131189000D02*
X172046000Y-129004000D01*
X172046000Y-124079000D02*
X152566000Y-124079000D01*
X152566000Y-123319000D02*
X152566000Y-125504000D01*
X145501000Y-123319000D02*
X145501000Y-125504000D01*
X179156000Y-125504000D02*
X179156000Y-123319000D01*
X179156000Y-129004000D02*
X179156000Y-131189000D01*
X172046000Y-123319000D02*
X172046000Y-125504000D01*
X152566000Y-131189000D02*
X145501000Y-131189000D01*
X152566000Y-131189000D02*
X152566000Y-129004000D01*
X145501000Y-131189000D02*
X145501000Y-129004000D01*
X179498000Y-96655000D02*
X175438000Y-96655000D01*
X175438000Y-98925000D02*
X179498000Y-98925000D01*
X179498000Y-98925000D02*
X179498000Y-96655000D01*
X176132748Y-119319000D02*
X176655252Y-119319000D01*
X176132748Y-117849000D02*
X176655252Y-117849000D01*
X182345064Y-97055000D02*
X181890936Y-97055000D01*
X182345064Y-98525000D02*
X181890936Y-98525000D01*
X107509000Y-85090000D02*
X140529000Y-85090000D01*
X140529000Y-85090000D02*
X140529000Y-95250000D01*
X140529000Y-95250000D02*
X107509000Y-95250000D01*
X107509000Y-95250000D02*
X107509000Y-85090000D01*
G36*
X143976245Y-78378800D02*
G01*
X144057681Y-78378918D01*
X144122047Y-78379370D01*
X144172192Y-78380301D01*
X144210966Y-78381857D01*
X144241218Y-78384185D01*
X144265798Y-78387430D01*
X144287556Y-78391738D01*
X144302877Y-78395529D01*
X144372669Y-78421784D01*
X144428812Y-78460361D01*
X144471444Y-78511359D01*
X144476499Y-78519767D01*
X144491291Y-78548645D01*
X144499719Y-78575563D01*
X144503450Y-78607529D01*
X144504156Y-78635966D01*
X144502782Y-78673917D01*
X144498808Y-78710198D01*
X144493057Y-78737615D01*
X144492289Y-78739961D01*
X144474847Y-78771393D01*
X144445385Y-78806470D01*
X144409024Y-78840214D01*
X144370888Y-78867644D01*
X144349191Y-78879041D01*
X144310454Y-78895839D01*
X144353844Y-78948469D01*
X144380779Y-78981321D01*
X144411075Y-79018557D01*
X144442416Y-79057301D01*
X144472490Y-79094674D01*
X144498984Y-79127800D01*
X144519584Y-79153800D01*
X144531977Y-79169797D01*
X144533981Y-79172550D01*
X144532801Y-79177049D01*
X144520424Y-79180123D01*
X144494488Y-79181974D01*
X144452626Y-79182805D01*
X144413666Y-79182891D01*
X144286078Y-79182649D01*
X144186470Y-79056234D01*
X144086862Y-78929818D01*
X144009666Y-78929476D01*
X143932470Y-78929133D01*
X143932470Y-79183133D01*
X143713333Y-79183133D01*
X143713333Y-78759800D01*
X143932470Y-78759800D01*
X144059470Y-78759787D01*
X144117194Y-78759273D01*
X144159068Y-78757501D01*
X144189137Y-78754099D01*
X144211446Y-78748697D01*
X144221333Y-78744970D01*
X144257168Y-78721191D01*
X144279415Y-78688677D01*
X144287201Y-78651730D01*
X144279652Y-78614653D01*
X144255892Y-78581746D01*
X144254718Y-78580689D01*
X144228655Y-78563598D01*
X144193146Y-78551512D01*
X144145363Y-78543894D01*
X144082474Y-78540211D01*
X144037628Y-78539666D01*
X143932470Y-78539666D01*
X143932470Y-78759800D01*
X143713333Y-78759800D01*
X143713333Y-78378800D01*
X143976245Y-78378800D01*
G37*
D14*
X143976245Y-78378800D02*
X144057681Y-78378918D01*
X144122047Y-78379370D01*
X144172192Y-78380301D01*
X144210966Y-78381857D01*
X144241218Y-78384185D01*
X144265798Y-78387430D01*
X144287556Y-78391738D01*
X144302877Y-78395529D01*
X144372669Y-78421784D01*
X144428812Y-78460361D01*
X144471444Y-78511359D01*
X144476499Y-78519767D01*
X144491291Y-78548645D01*
X144499719Y-78575563D01*
X144503450Y-78607529D01*
X144504156Y-78635966D01*
X144502782Y-78673917D01*
X144498808Y-78710198D01*
X144493057Y-78737615D01*
X144492289Y-78739961D01*
X144474847Y-78771393D01*
X144445385Y-78806470D01*
X144409024Y-78840214D01*
X144370888Y-78867644D01*
X144349191Y-78879041D01*
X144310454Y-78895839D01*
X144353844Y-78948469D01*
X144380779Y-78981321D01*
X144411075Y-79018557D01*
X144442416Y-79057301D01*
X144472490Y-79094674D01*
X144498984Y-79127800D01*
X144519584Y-79153800D01*
X144531977Y-79169797D01*
X144533981Y-79172550D01*
X144532801Y-79177049D01*
X144520424Y-79180123D01*
X144494488Y-79181974D01*
X144452626Y-79182805D01*
X144413666Y-79182891D01*
X144286078Y-79182649D01*
X144186470Y-79056234D01*
X144086862Y-78929818D01*
X144009666Y-78929476D01*
X143932470Y-78929133D01*
X143932470Y-79183133D01*
X143713333Y-79183133D01*
X143713333Y-78759800D01*
X143932470Y-78759800D01*
X144059470Y-78759787D01*
X144117194Y-78759273D01*
X144159068Y-78757501D01*
X144189137Y-78754099D01*
X144211446Y-78748697D01*
X144221333Y-78744970D01*
X144257168Y-78721191D01*
X144279415Y-78688677D01*
X144287201Y-78651730D01*
X144279652Y-78614653D01*
X144255892Y-78581746D01*
X144254718Y-78580689D01*
X144228655Y-78563598D01*
X144193146Y-78551512D01*
X144145363Y-78543894D01*
X144082474Y-78540211D01*
X144037628Y-78539666D01*
X143932470Y-78539666D01*
X143932470Y-78759800D01*
X143713333Y-78759800D01*
X143713333Y-78378800D01*
X143976245Y-78378800D01*
G36*
X142667451Y-78548133D02*
G01*
X142378588Y-78548133D01*
X142378588Y-79183133D01*
X142169411Y-79183133D01*
X142169411Y-78548133D01*
X141880549Y-78548133D01*
X141880549Y-78378800D01*
X142667451Y-78378800D01*
X142667451Y-78548133D01*
G37*
X142667451Y-78548133D02*
X142378588Y-78548133D01*
X142378588Y-79183133D01*
X142169411Y-79183133D01*
X142169411Y-78548133D01*
X141880549Y-78548133D01*
X141880549Y-78378800D01*
X142667451Y-78378800D01*
X142667451Y-78548133D01*
G36*
X146780743Y-79606366D02*
G01*
X146820834Y-79656899D01*
X146857319Y-79702296D01*
X146888748Y-79740803D01*
X146913675Y-79770667D01*
X146930650Y-79790131D01*
X146938226Y-79797441D01*
X146938429Y-79797423D01*
X146944937Y-79789753D01*
X146961157Y-79769934D01*
X146985594Y-79739816D01*
X147016751Y-79701247D01*
X147053131Y-79656077D01*
X147093237Y-79606155D01*
X147094239Y-79604907D01*
X147245842Y-79415967D01*
X147312372Y-79413463D01*
X147345823Y-79412980D01*
X147369713Y-79414116D01*
X147378901Y-79416625D01*
X147378902Y-79416644D01*
X147373447Y-79424711D01*
X147357950Y-79445062D01*
X147333705Y-79476056D01*
X147302012Y-79516057D01*
X147264166Y-79563424D01*
X147221464Y-79616519D01*
X147184666Y-79662035D01*
X146990431Y-79901741D01*
X146990431Y-80216067D01*
X146880862Y-80216067D01*
X146880862Y-79903851D01*
X146700279Y-79681075D01*
X146655294Y-79625598D01*
X146613180Y-79573690D01*
X146575470Y-79527243D01*
X146543701Y-79488146D01*
X146519406Y-79458289D01*
X146504122Y-79439561D01*
X146500385Y-79435017D01*
X146481074Y-79411733D01*
X146627262Y-79411733D01*
X146780743Y-79606366D01*
G37*
X146780743Y-79606366D02*
X146820834Y-79656899D01*
X146857319Y-79702296D01*
X146888748Y-79740803D01*
X146913675Y-79770667D01*
X146930650Y-79790131D01*
X146938226Y-79797441D01*
X146938429Y-79797423D01*
X146944937Y-79789753D01*
X146961157Y-79769934D01*
X146985594Y-79739816D01*
X147016751Y-79701247D01*
X147053131Y-79656077D01*
X147093237Y-79606155D01*
X147094239Y-79604907D01*
X147245842Y-79415967D01*
X147312372Y-79413463D01*
X147345823Y-79412980D01*
X147369713Y-79414116D01*
X147378901Y-79416625D01*
X147378902Y-79416644D01*
X147373447Y-79424711D01*
X147357950Y-79445062D01*
X147333705Y-79476056D01*
X147302012Y-79516057D01*
X147264166Y-79563424D01*
X147221464Y-79616519D01*
X147184666Y-79662035D01*
X146990431Y-79901741D01*
X146990431Y-80216067D01*
X146880862Y-80216067D01*
X146880862Y-79903851D01*
X146700279Y-79681075D01*
X146655294Y-79625598D01*
X146613180Y-79573690D01*
X146575470Y-79527243D01*
X146543701Y-79488146D01*
X146519406Y-79458289D01*
X146504122Y-79439561D01*
X146500385Y-79435017D01*
X146481074Y-79411733D01*
X146627262Y-79411733D01*
X146780743Y-79606366D01*
G36*
X145456470Y-79496400D02*
G01*
X145147686Y-79496400D01*
X145147686Y-80216067D01*
X145028157Y-80216067D01*
X145028157Y-79496400D01*
X144709411Y-79496400D01*
X144709411Y-79411733D01*
X145456470Y-79411733D01*
X145456470Y-79496400D01*
G37*
X145456470Y-79496400D02*
X145147686Y-79496400D01*
X145147686Y-80216067D01*
X145028157Y-80216067D01*
X145028157Y-79496400D01*
X144709411Y-79496400D01*
X144709411Y-79411733D01*
X145456470Y-79411733D01*
X145456470Y-79496400D01*
G36*
X138735789Y-73743446D02*
G01*
X138763629Y-73747321D01*
X138807079Y-73753851D01*
X138864176Y-73762713D01*
X138932954Y-73773582D01*
X139011449Y-73786135D01*
X139097697Y-73800050D01*
X139189733Y-73815002D01*
X139285594Y-73830669D01*
X139383314Y-73846726D01*
X139480929Y-73862851D01*
X139576475Y-73878719D01*
X139667987Y-73894009D01*
X139753501Y-73908396D01*
X139831053Y-73921556D01*
X139898678Y-73933167D01*
X139954411Y-73942906D01*
X139996289Y-73950447D01*
X140022346Y-73955470D01*
X140030158Y-73957325D01*
X140042678Y-73966396D01*
X140065284Y-73987568D01*
X140096453Y-74019179D01*
X140134662Y-74059568D01*
X140178390Y-74107075D01*
X140226113Y-74160037D01*
X140276310Y-74216794D01*
X140327457Y-74275684D01*
X140378033Y-74335047D01*
X140396576Y-74357133D01*
X140550026Y-74544841D01*
X140702144Y-74739020D01*
X140852156Y-74938388D01*
X140999282Y-75141666D01*
X141142747Y-75347572D01*
X141281772Y-75554824D01*
X141415580Y-75762142D01*
X141543395Y-75968245D01*
X141664439Y-76171852D01*
X141777934Y-76371682D01*
X141883103Y-76566453D01*
X141979170Y-76754885D01*
X142065356Y-76935696D01*
X142140885Y-77107606D01*
X142204979Y-77269334D01*
X142256861Y-77419598D01*
X142259163Y-77426923D01*
X142291126Y-77529146D01*
X142382171Y-77448022D01*
X142579716Y-77265836D01*
X142760830Y-77085477D01*
X142928149Y-76903874D01*
X143084310Y-76717954D01*
X143231951Y-76524644D01*
X143373709Y-76320871D01*
X143449005Y-76204983D01*
X143477031Y-76161470D01*
X143502161Y-76123619D01*
X143522782Y-76093766D01*
X143537281Y-76074248D01*
X143544000Y-76067400D01*
X143550915Y-76074493D01*
X143565537Y-76094217D01*
X143586253Y-76124233D01*
X143611449Y-76162206D01*
X143638994Y-76204983D01*
X143778635Y-76415668D01*
X143922727Y-76614227D01*
X144073906Y-76803733D01*
X144234808Y-76987257D01*
X144408072Y-77167873D01*
X144596333Y-77348653D01*
X144705866Y-77448055D01*
X144796949Y-77529213D01*
X144819323Y-77456590D01*
X144872568Y-77298864D01*
X144938405Y-77129746D01*
X145016127Y-76950449D01*
X145105026Y-76762188D01*
X145204396Y-76566179D01*
X145313530Y-76363635D01*
X145431720Y-76155773D01*
X145558259Y-75943805D01*
X145692441Y-75728948D01*
X145833557Y-75512415D01*
X145980902Y-75295422D01*
X146133769Y-75079183D01*
X146291449Y-74864913D01*
X146443519Y-74666260D01*
X146513021Y-74578053D01*
X146582657Y-74491256D01*
X146651421Y-74407024D01*
X146718305Y-74326510D01*
X146782301Y-74250867D01*
X146842403Y-74181248D01*
X146897603Y-74118807D01*
X146946894Y-74064695D01*
X146989270Y-74020068D01*
X147023722Y-73986077D01*
X147049243Y-73963876D01*
X147064828Y-73954619D01*
X147065137Y-73954552D01*
X147090928Y-73949772D01*
X147132561Y-73942467D01*
X147188071Y-73932958D01*
X147255498Y-73921566D01*
X147332878Y-73908610D01*
X147418250Y-73894411D01*
X147509652Y-73879290D01*
X147605120Y-73863568D01*
X147702694Y-73847565D01*
X147800411Y-73831601D01*
X147896308Y-73815997D01*
X147988423Y-73801074D01*
X148074794Y-73787152D01*
X148153459Y-73774551D01*
X148222456Y-73763593D01*
X148279822Y-73754598D01*
X148323595Y-73747886D01*
X148351813Y-73743778D01*
X148362514Y-73742594D01*
X148362548Y-73742610D01*
X148360866Y-73751249D01*
X148354558Y-73775119D01*
X148343965Y-73813055D01*
X148329428Y-73863888D01*
X148311288Y-73926454D01*
X148289887Y-73999585D01*
X148265566Y-74082114D01*
X148238668Y-74172875D01*
X148209532Y-74270701D01*
X148178501Y-74374425D01*
X148145916Y-74482882D01*
X148145609Y-74483901D01*
X148113007Y-74592356D01*
X148081936Y-74696057D01*
X148052738Y-74793841D01*
X148025755Y-74884545D01*
X148001331Y-74967005D01*
X147979807Y-75040059D01*
X147961528Y-75102543D01*
X147946835Y-75153293D01*
X147936071Y-75191147D01*
X147929580Y-75214941D01*
X147927703Y-75223512D01*
X147927709Y-75223518D01*
X147937026Y-75228135D01*
X147961675Y-75240092D01*
X147999633Y-75258416D01*
X148048877Y-75282132D01*
X148107386Y-75310267D01*
X148173137Y-75341845D01*
X148228473Y-75368396D01*
X148298222Y-75402103D01*
X148361965Y-75433401D01*
X148417735Y-75461285D01*
X148463561Y-75484749D01*
X148497475Y-75502789D01*
X148517508Y-75514398D01*
X148522223Y-75518364D01*
X148513693Y-75523742D01*
X148489334Y-75537881D01*
X148450012Y-75560297D01*
X148396589Y-75590508D01*
X148329930Y-75628031D01*
X148250898Y-75672383D01*
X148160357Y-75723081D01*
X148059171Y-75779643D01*
X147948203Y-75841585D01*
X147828319Y-75908425D01*
X147700380Y-75979680D01*
X147565252Y-76054866D01*
X147423798Y-76133502D01*
X147276881Y-76215104D01*
X147125367Y-76299190D01*
X147114847Y-76305025D01*
X146963035Y-76389288D01*
X146815766Y-76471130D01*
X146673904Y-76550068D01*
X146538312Y-76625615D01*
X146409855Y-76697289D01*
X146289397Y-76764603D01*
X146177802Y-76827074D01*
X146075932Y-76884217D01*
X145984654Y-76935547D01*
X145904830Y-76980579D01*
X145837324Y-77018829D01*
X145783000Y-77049813D01*
X145742723Y-77073044D01*
X145717356Y-77088040D01*
X145707762Y-77094315D01*
X145707705Y-77094411D01*
X145710135Y-77104195D01*
X145718119Y-77128618D01*
X145731124Y-77166195D01*
X145748614Y-77215443D01*
X145770056Y-77274876D01*
X145794915Y-77343011D01*
X145822656Y-77418363D01*
X145852746Y-77499448D01*
X145874477Y-77557641D01*
X145905931Y-77641857D01*
X145935494Y-77721391D01*
X145962622Y-77794755D01*
X145986771Y-77860457D01*
X146007397Y-77917007D01*
X146023955Y-77962917D01*
X146035901Y-77996696D01*
X146042691Y-78016853D01*
X146044085Y-78022025D01*
X146037989Y-78029520D01*
X146017412Y-78029518D01*
X146011784Y-78028753D01*
X145997942Y-78027154D01*
X145965557Y-78023672D01*
X145915863Y-78018436D01*
X145850099Y-78011572D01*
X145769500Y-78003209D01*
X145675304Y-77993474D01*
X145568746Y-77982494D01*
X145451064Y-77970396D01*
X145323495Y-77957309D01*
X145187274Y-77943359D01*
X145043638Y-77928674D01*
X144893825Y-77913382D01*
X144762821Y-77900029D01*
X143546230Y-77776102D01*
X142332389Y-77899740D01*
X142178371Y-77915436D01*
X142029410Y-77930634D01*
X141886753Y-77945206D01*
X141751642Y-77959024D01*
X141625324Y-77971959D01*
X141509042Y-77983885D01*
X141404042Y-77994672D01*
X141311568Y-78004194D01*
X141232866Y-78012323D01*
X141169179Y-78018930D01*
X141121754Y-78023888D01*
X141091833Y-78027069D01*
X141081196Y-78028266D01*
X141054434Y-78029714D01*
X141044113Y-78024520D01*
X141043843Y-78022704D01*
X141046781Y-78012905D01*
X141055237Y-77988456D01*
X141068668Y-77950837D01*
X141086535Y-77901529D01*
X141108296Y-77842013D01*
X141133410Y-77773770D01*
X141161336Y-77698280D01*
X141191535Y-77617025D01*
X141214100Y-77556533D01*
X141245506Y-77472169D01*
X141274917Y-77392577D01*
X141301805Y-77319228D01*
X141325640Y-77253594D01*
X141345894Y-77197146D01*
X141362037Y-77151355D01*
X141373541Y-77117692D01*
X141379877Y-77097630D01*
X141380944Y-77092437D01*
X141372368Y-77086978D01*
X141347965Y-77072759D01*
X141308598Y-77050264D01*
X141255133Y-77019975D01*
X141188432Y-76982376D01*
X141109361Y-76937951D01*
X141018782Y-76887183D01*
X140917561Y-76830554D01*
X140806561Y-76768550D01*
X140686647Y-76701652D01*
X140558682Y-76630345D01*
X140423531Y-76555112D01*
X140282058Y-76476436D01*
X140135127Y-76394801D01*
X139983601Y-76310689D01*
X139973080Y-76304852D01*
X139821285Y-76220599D01*
X139674029Y-76138800D01*
X139532176Y-76059935D01*
X139396590Y-75984489D01*
X139268134Y-75912943D01*
X139147673Y-75845781D01*
X139036069Y-75783485D01*
X138934187Y-75726539D01*
X138842890Y-75675424D01*
X138763042Y-75630624D01*
X138695506Y-75592622D01*
X138641146Y-75561900D01*
X138600826Y-75538940D01*
X138575409Y-75524226D01*
X138565760Y-75518241D01*
X138565697Y-75518162D01*
X138573363Y-75512399D01*
X138596472Y-75499416D01*
X138633055Y-75480214D01*
X138681140Y-75455799D01*
X138738758Y-75427173D01*
X138803936Y-75395339D01*
X138859519Y-75368563D01*
X138929550Y-75335002D01*
X138993924Y-75304107D01*
X139050615Y-75276855D01*
X139097602Y-75254219D01*
X139132859Y-75237174D01*
X139154363Y-75226695D01*
X139160290Y-75223704D01*
X139158468Y-75215287D01*
X139152027Y-75191634D01*
X139141310Y-75153909D01*
X139126660Y-75103275D01*
X139108419Y-75040896D01*
X139086930Y-74967935D01*
X139062536Y-74885557D01*
X139035580Y-74794925D01*
X139006403Y-74697202D01*
X138975350Y-74593553D01*
X138942763Y-74485140D01*
X138942390Y-74483901D01*
X138909793Y-74375405D01*
X138878748Y-74271629D01*
X138849597Y-74173739D01*
X138822681Y-74082903D01*
X138798341Y-74000287D01*
X138776919Y-73927058D01*
X138758755Y-73864383D01*
X138744192Y-73813429D01*
X138733571Y-73775361D01*
X138727232Y-73751348D01*
X138725517Y-73742555D01*
X138725524Y-73742548D01*
X138735789Y-73743446D01*
G37*
X138735789Y-73743446D02*
X138763629Y-73747321D01*
X138807079Y-73753851D01*
X138864176Y-73762713D01*
X138932954Y-73773582D01*
X139011449Y-73786135D01*
X139097697Y-73800050D01*
X139189733Y-73815002D01*
X139285594Y-73830669D01*
X139383314Y-73846726D01*
X139480929Y-73862851D01*
X139576475Y-73878719D01*
X139667987Y-73894009D01*
X139753501Y-73908396D01*
X139831053Y-73921556D01*
X139898678Y-73933167D01*
X139954411Y-73942906D01*
X139996289Y-73950447D01*
X140022346Y-73955470D01*
X140030158Y-73957325D01*
X140042678Y-73966396D01*
X140065284Y-73987568D01*
X140096453Y-74019179D01*
X140134662Y-74059568D01*
X140178390Y-74107075D01*
X140226113Y-74160037D01*
X140276310Y-74216794D01*
X140327457Y-74275684D01*
X140378033Y-74335047D01*
X140396576Y-74357133D01*
X140550026Y-74544841D01*
X140702144Y-74739020D01*
X140852156Y-74938388D01*
X140999282Y-75141666D01*
X141142747Y-75347572D01*
X141281772Y-75554824D01*
X141415580Y-75762142D01*
X141543395Y-75968245D01*
X141664439Y-76171852D01*
X141777934Y-76371682D01*
X141883103Y-76566453D01*
X141979170Y-76754885D01*
X142065356Y-76935696D01*
X142140885Y-77107606D01*
X142204979Y-77269334D01*
X142256861Y-77419598D01*
X142259163Y-77426923D01*
X142291126Y-77529146D01*
X142382171Y-77448022D01*
X142579716Y-77265836D01*
X142760830Y-77085477D01*
X142928149Y-76903874D01*
X143084310Y-76717954D01*
X143231951Y-76524644D01*
X143373709Y-76320871D01*
X143449005Y-76204983D01*
X143477031Y-76161470D01*
X143502161Y-76123619D01*
X143522782Y-76093766D01*
X143537281Y-76074248D01*
X143544000Y-76067400D01*
X143550915Y-76074493D01*
X143565537Y-76094217D01*
X143586253Y-76124233D01*
X143611449Y-76162206D01*
X143638994Y-76204983D01*
X143778635Y-76415668D01*
X143922727Y-76614227D01*
X144073906Y-76803733D01*
X144234808Y-76987257D01*
X144408072Y-77167873D01*
X144596333Y-77348653D01*
X144705866Y-77448055D01*
X144796949Y-77529213D01*
X144819323Y-77456590D01*
X144872568Y-77298864D01*
X144938405Y-77129746D01*
X145016127Y-76950449D01*
X145105026Y-76762188D01*
X145204396Y-76566179D01*
X145313530Y-76363635D01*
X145431720Y-76155773D01*
X145558259Y-75943805D01*
X145692441Y-75728948D01*
X145833557Y-75512415D01*
X145980902Y-75295422D01*
X146133769Y-75079183D01*
X146291449Y-74864913D01*
X146443519Y-74666260D01*
X146513021Y-74578053D01*
X146582657Y-74491256D01*
X146651421Y-74407024D01*
X146718305Y-74326510D01*
X146782301Y-74250867D01*
X146842403Y-74181248D01*
X146897603Y-74118807D01*
X146946894Y-74064695D01*
X146989270Y-74020068D01*
X147023722Y-73986077D01*
X147049243Y-73963876D01*
X147064828Y-73954619D01*
X147065137Y-73954552D01*
X147090928Y-73949772D01*
X147132561Y-73942467D01*
X147188071Y-73932958D01*
X147255498Y-73921566D01*
X147332878Y-73908610D01*
X147418250Y-73894411D01*
X147509652Y-73879290D01*
X147605120Y-73863568D01*
X147702694Y-73847565D01*
X147800411Y-73831601D01*
X147896308Y-73815997D01*
X147988423Y-73801074D01*
X148074794Y-73787152D01*
X148153459Y-73774551D01*
X148222456Y-73763593D01*
X148279822Y-73754598D01*
X148323595Y-73747886D01*
X148351813Y-73743778D01*
X148362514Y-73742594D01*
X148362548Y-73742610D01*
X148360866Y-73751249D01*
X148354558Y-73775119D01*
X148343965Y-73813055D01*
X148329428Y-73863888D01*
X148311288Y-73926454D01*
X148289887Y-73999585D01*
X148265566Y-74082114D01*
X148238668Y-74172875D01*
X148209532Y-74270701D01*
X148178501Y-74374425D01*
X148145916Y-74482882D01*
X148145609Y-74483901D01*
X148113007Y-74592356D01*
X148081936Y-74696057D01*
X148052738Y-74793841D01*
X148025755Y-74884545D01*
X148001331Y-74967005D01*
X147979807Y-75040059D01*
X147961528Y-75102543D01*
X147946835Y-75153293D01*
X147936071Y-75191147D01*
X147929580Y-75214941D01*
X147927703Y-75223512D01*
X147927709Y-75223518D01*
X147937026Y-75228135D01*
X147961675Y-75240092D01*
X147999633Y-75258416D01*
X148048877Y-75282132D01*
X148107386Y-75310267D01*
X148173137Y-75341845D01*
X148228473Y-75368396D01*
X148298222Y-75402103D01*
X148361965Y-75433401D01*
X148417735Y-75461285D01*
X148463561Y-75484749D01*
X148497475Y-75502789D01*
X148517508Y-75514398D01*
X148522223Y-75518364D01*
X148513693Y-75523742D01*
X148489334Y-75537881D01*
X148450012Y-75560297D01*
X148396589Y-75590508D01*
X148329930Y-75628031D01*
X148250898Y-75672383D01*
X148160357Y-75723081D01*
X148059171Y-75779643D01*
X147948203Y-75841585D01*
X147828319Y-75908425D01*
X147700380Y-75979680D01*
X147565252Y-76054866D01*
X147423798Y-76133502D01*
X147276881Y-76215104D01*
X147125367Y-76299190D01*
X147114847Y-76305025D01*
X146963035Y-76389288D01*
X146815766Y-76471130D01*
X146673904Y-76550068D01*
X146538312Y-76625615D01*
X146409855Y-76697289D01*
X146289397Y-76764603D01*
X146177802Y-76827074D01*
X146075932Y-76884217D01*
X145984654Y-76935547D01*
X145904830Y-76980579D01*
X145837324Y-77018829D01*
X145783000Y-77049813D01*
X145742723Y-77073044D01*
X145717356Y-77088040D01*
X145707762Y-77094315D01*
X145707705Y-77094411D01*
X145710135Y-77104195D01*
X145718119Y-77128618D01*
X145731124Y-77166195D01*
X145748614Y-77215443D01*
X145770056Y-77274876D01*
X145794915Y-77343011D01*
X145822656Y-77418363D01*
X145852746Y-77499448D01*
X145874477Y-77557641D01*
X145905931Y-77641857D01*
X145935494Y-77721391D01*
X145962622Y-77794755D01*
X145986771Y-77860457D01*
X146007397Y-77917007D01*
X146023955Y-77962917D01*
X146035901Y-77996696D01*
X146042691Y-78016853D01*
X146044085Y-78022025D01*
X146037989Y-78029520D01*
X146017412Y-78029518D01*
X146011784Y-78028753D01*
X145997942Y-78027154D01*
X145965557Y-78023672D01*
X145915863Y-78018436D01*
X145850099Y-78011572D01*
X145769500Y-78003209D01*
X145675304Y-77993474D01*
X145568746Y-77982494D01*
X145451064Y-77970396D01*
X145323495Y-77957309D01*
X145187274Y-77943359D01*
X145043638Y-77928674D01*
X144893825Y-77913382D01*
X144762821Y-77900029D01*
X143546230Y-77776102D01*
X142332389Y-77899740D01*
X142178371Y-77915436D01*
X142029410Y-77930634D01*
X141886753Y-77945206D01*
X141751642Y-77959024D01*
X141625324Y-77971959D01*
X141509042Y-77983885D01*
X141404042Y-77994672D01*
X141311568Y-78004194D01*
X141232866Y-78012323D01*
X141169179Y-78018930D01*
X141121754Y-78023888D01*
X141091833Y-78027069D01*
X141081196Y-78028266D01*
X141054434Y-78029714D01*
X141044113Y-78024520D01*
X141043843Y-78022704D01*
X141046781Y-78012905D01*
X141055237Y-77988456D01*
X141068668Y-77950837D01*
X141086535Y-77901529D01*
X141108296Y-77842013D01*
X141133410Y-77773770D01*
X141161336Y-77698280D01*
X141191535Y-77617025D01*
X141214100Y-77556533D01*
X141245506Y-77472169D01*
X141274917Y-77392577D01*
X141301805Y-77319228D01*
X141325640Y-77253594D01*
X141345894Y-77197146D01*
X141362037Y-77151355D01*
X141373541Y-77117692D01*
X141379877Y-77097630D01*
X141380944Y-77092437D01*
X141372368Y-77086978D01*
X141347965Y-77072759D01*
X141308598Y-77050264D01*
X141255133Y-77019975D01*
X141188432Y-76982376D01*
X141109361Y-76937951D01*
X141018782Y-76887183D01*
X140917561Y-76830554D01*
X140806561Y-76768550D01*
X140686647Y-76701652D01*
X140558682Y-76630345D01*
X140423531Y-76555112D01*
X140282058Y-76476436D01*
X140135127Y-76394801D01*
X139983601Y-76310689D01*
X139973080Y-76304852D01*
X139821285Y-76220599D01*
X139674029Y-76138800D01*
X139532176Y-76059935D01*
X139396590Y-75984489D01*
X139268134Y-75912943D01*
X139147673Y-75845781D01*
X139036069Y-75783485D01*
X138934187Y-75726539D01*
X138842890Y-75675424D01*
X138763042Y-75630624D01*
X138695506Y-75592622D01*
X138641146Y-75561900D01*
X138600826Y-75538940D01*
X138575409Y-75524226D01*
X138565760Y-75518241D01*
X138565697Y-75518162D01*
X138573363Y-75512399D01*
X138596472Y-75499416D01*
X138633055Y-75480214D01*
X138681140Y-75455799D01*
X138738758Y-75427173D01*
X138803936Y-75395339D01*
X138859519Y-75368563D01*
X138929550Y-75335002D01*
X138993924Y-75304107D01*
X139050615Y-75276855D01*
X139097602Y-75254219D01*
X139132859Y-75237174D01*
X139154363Y-75226695D01*
X139160290Y-75223704D01*
X139158468Y-75215287D01*
X139152027Y-75191634D01*
X139141310Y-75153909D01*
X139126660Y-75103275D01*
X139108419Y-75040896D01*
X139086930Y-74967935D01*
X139062536Y-74885557D01*
X139035580Y-74794925D01*
X139006403Y-74697202D01*
X138975350Y-74593553D01*
X138942763Y-74485140D01*
X138942390Y-74483901D01*
X138909793Y-74375405D01*
X138878748Y-74271629D01*
X138849597Y-74173739D01*
X138822681Y-74082903D01*
X138798341Y-74000287D01*
X138776919Y-73927058D01*
X138758755Y-73864383D01*
X138744192Y-73813429D01*
X138733571Y-73775361D01*
X138727232Y-73751348D01*
X138725517Y-73742555D01*
X138725524Y-73742548D01*
X138735789Y-73743446D01*
G36*
X142479713Y-79405946D02*
G01*
X142567327Y-79428279D01*
X142645918Y-79462527D01*
X142694607Y-79493970D01*
X142736705Y-79526033D01*
X142658121Y-79599573D01*
X142614776Y-79569383D01*
X142580753Y-79548665D01*
X142539327Y-79527478D01*
X142512363Y-79515680D01*
X142479503Y-79503767D01*
X142449878Y-79496656D01*
X142416107Y-79493182D01*
X142370807Y-79492177D01*
X142363647Y-79492167D01*
X142315972Y-79492964D01*
X142280892Y-79496107D01*
X142251130Y-79502717D01*
X142219412Y-79513919D01*
X142217258Y-79514774D01*
X142148786Y-79551040D01*
X142091572Y-79599405D01*
X142047262Y-79657135D01*
X142017503Y-79721498D01*
X142003940Y-79789759D01*
X142008220Y-79859187D01*
X142008622Y-79861168D01*
X142032842Y-79935677D01*
X142071893Y-80000276D01*
X142124533Y-80053827D01*
X142189519Y-80095194D01*
X142265608Y-80123243D01*
X142304299Y-80131410D01*
X142384941Y-80136343D01*
X142465037Y-80124381D01*
X142544452Y-80095556D01*
X142617801Y-80053494D01*
X142668704Y-80019044D01*
X142702940Y-80047250D01*
X142723131Y-80065612D01*
X142735427Y-80080128D01*
X142737176Y-80084377D01*
X142729208Y-80095444D01*
X142707168Y-80113484D01*
X142673849Y-80136459D01*
X142632046Y-80162333D01*
X142623176Y-80167523D01*
X142563632Y-80193726D01*
X142491388Y-80212388D01*
X142411875Y-80222980D01*
X142330528Y-80224974D01*
X142252779Y-80217839D01*
X142206883Y-80208092D01*
X142121219Y-80176245D01*
X142046435Y-80130874D01*
X141983942Y-80073356D01*
X141935152Y-80005066D01*
X141901477Y-79927379D01*
X141894961Y-79904181D01*
X141884469Y-79852384D01*
X141881808Y-79807086D01*
X141887010Y-79760182D01*
X141895627Y-79720914D01*
X141924996Y-79641140D01*
X141970249Y-79570333D01*
X142029774Y-79509791D01*
X142101961Y-79460814D01*
X142185199Y-79424699D01*
X142277875Y-79402743D01*
X142293124Y-79400673D01*
X142387003Y-79396440D01*
X142479713Y-79405946D01*
G37*
X142479713Y-79405946D02*
X142567327Y-79428279D01*
X142645918Y-79462527D01*
X142694607Y-79493970D01*
X142736705Y-79526033D01*
X142658121Y-79599573D01*
X142614776Y-79569383D01*
X142580753Y-79548665D01*
X142539327Y-79527478D01*
X142512363Y-79515680D01*
X142479503Y-79503767D01*
X142449878Y-79496656D01*
X142416107Y-79493182D01*
X142370807Y-79492177D01*
X142363647Y-79492167D01*
X142315972Y-79492964D01*
X142280892Y-79496107D01*
X142251130Y-79502717D01*
X142219412Y-79513919D01*
X142217258Y-79514774D01*
X142148786Y-79551040D01*
X142091572Y-79599405D01*
X142047262Y-79657135D01*
X142017503Y-79721498D01*
X142003940Y-79789759D01*
X142008220Y-79859187D01*
X142008622Y-79861168D01*
X142032842Y-79935677D01*
X142071893Y-80000276D01*
X142124533Y-80053827D01*
X142189519Y-80095194D01*
X142265608Y-80123243D01*
X142304299Y-80131410D01*
X142384941Y-80136343D01*
X142465037Y-80124381D01*
X142544452Y-80095556D01*
X142617801Y-80053494D01*
X142668704Y-80019044D01*
X142702940Y-80047250D01*
X142723131Y-80065612D01*
X142735427Y-80080128D01*
X142737176Y-80084377D01*
X142729208Y-80095444D01*
X142707168Y-80113484D01*
X142673849Y-80136459D01*
X142632046Y-80162333D01*
X142623176Y-80167523D01*
X142563632Y-80193726D01*
X142491388Y-80212388D01*
X142411875Y-80222980D01*
X142330528Y-80224974D01*
X142252779Y-80217839D01*
X142206883Y-80208092D01*
X142121219Y-80176245D01*
X142046435Y-80130874D01*
X141983942Y-80073356D01*
X141935152Y-80005066D01*
X141901477Y-79927379D01*
X141894961Y-79904181D01*
X141884469Y-79852384D01*
X141881808Y-79807086D01*
X141887010Y-79760182D01*
X141895627Y-79720914D01*
X141924996Y-79641140D01*
X141970249Y-79570333D01*
X142029774Y-79509791D01*
X142101961Y-79460814D01*
X142185199Y-79424699D01*
X142277875Y-79402743D01*
X142293124Y-79400673D01*
X142387003Y-79396440D01*
X142479713Y-79405946D01*
G36*
X141082891Y-78770913D02*
G01*
X141281311Y-78374566D01*
X141486404Y-78374566D01*
X141889186Y-79178900D01*
X141778629Y-79181307D01*
X141733526Y-79181711D01*
X141695982Y-79180961D01*
X141670335Y-79179214D01*
X141661144Y-79177074D01*
X141654825Y-79166824D01*
X141643237Y-79144393D01*
X141628208Y-79113419D01*
X141616289Y-79087883D01*
X141578363Y-79005333D01*
X141185485Y-79005333D01*
X141143451Y-79094233D01*
X141101416Y-79183133D01*
X140992943Y-79183133D01*
X140948154Y-79182451D01*
X140912688Y-79180590D01*
X140890345Y-79177827D01*
X140884470Y-79175197D01*
X140888262Y-79166078D01*
X140899148Y-79142890D01*
X140916392Y-79107130D01*
X140939256Y-79060300D01*
X140967005Y-79003900D01*
X140998903Y-78939430D01*
X141034214Y-78868389D01*
X141053548Y-78829650D01*
X141272851Y-78829650D01*
X141282181Y-78832190D01*
X141307426Y-78834247D01*
X141344580Y-78835590D01*
X141383575Y-78836000D01*
X141431711Y-78835789D01*
X141463096Y-78834856D01*
X141480897Y-78832750D01*
X141488281Y-78829019D01*
X141488417Y-78823212D01*
X141487601Y-78821183D01*
X141469213Y-78780753D01*
X141449485Y-78738710D01*
X141429876Y-78698006D01*
X141411847Y-78661593D01*
X141396856Y-78632424D01*
X141386363Y-78613450D01*
X141381993Y-78607531D01*
X141376720Y-78614792D01*
X141365816Y-78634386D01*
X141350959Y-78662896D01*
X141333828Y-78696903D01*
X141316103Y-78732990D01*
X141299464Y-78767738D01*
X141285591Y-78797729D01*
X141276162Y-78819546D01*
X141272851Y-78829650D01*
X141053548Y-78829650D01*
X141072201Y-78792278D01*
X141082891Y-78770913D01*
G37*
X141082891Y-78770913D02*
X141281311Y-78374566D01*
X141486404Y-78374566D01*
X141889186Y-79178900D01*
X141778629Y-79181307D01*
X141733526Y-79181711D01*
X141695982Y-79180961D01*
X141670335Y-79179214D01*
X141661144Y-79177074D01*
X141654825Y-79166824D01*
X141643237Y-79144393D01*
X141628208Y-79113419D01*
X141616289Y-79087883D01*
X141578363Y-79005333D01*
X141185485Y-79005333D01*
X141143451Y-79094233D01*
X141101416Y-79183133D01*
X140992943Y-79183133D01*
X140948154Y-79182451D01*
X140912688Y-79180590D01*
X140890345Y-79177827D01*
X140884470Y-79175197D01*
X140888262Y-79166078D01*
X140899148Y-79142890D01*
X140916392Y-79107130D01*
X140939256Y-79060300D01*
X140967005Y-79003900D01*
X140998903Y-78939430D01*
X141034214Y-78868389D01*
X141053548Y-78829650D01*
X141272851Y-78829650D01*
X141282181Y-78832190D01*
X141307426Y-78834247D01*
X141344580Y-78835590D01*
X141383575Y-78836000D01*
X141431711Y-78835789D01*
X141463096Y-78834856D01*
X141480897Y-78832750D01*
X141488281Y-78829019D01*
X141488417Y-78823212D01*
X141487601Y-78821183D01*
X141469213Y-78780753D01*
X141449485Y-78738710D01*
X141429876Y-78698006D01*
X141411847Y-78661593D01*
X141396856Y-78632424D01*
X141386363Y-78613450D01*
X141381993Y-78607531D01*
X141376720Y-78614792D01*
X141365816Y-78634386D01*
X141350959Y-78662896D01*
X141333828Y-78696903D01*
X141316103Y-78732990D01*
X141299464Y-78767738D01*
X141285591Y-78797729D01*
X141276162Y-78819546D01*
X141272851Y-78829650D01*
X141053548Y-78829650D01*
X141072201Y-78792278D01*
X141082891Y-78770913D01*
G36*
X144898666Y-79013800D02*
G01*
X145366823Y-79013800D01*
X145366823Y-79183133D01*
X144679529Y-79183133D01*
X144679529Y-78378800D01*
X144898666Y-78378800D01*
X144898666Y-79013800D01*
G37*
X144898666Y-79013800D02*
X145366823Y-79013800D01*
X145366823Y-79183133D01*
X144679529Y-79183133D01*
X144679529Y-78378800D01*
X144898666Y-78378800D01*
X144898666Y-79013800D01*
G36*
X145493545Y-78656195D02*
G01*
X145521376Y-78594380D01*
X145564574Y-78536860D01*
X145615362Y-78488116D01*
X145692657Y-78433226D01*
X145777970Y-78393831D01*
X145871055Y-78370017D01*
X145971670Y-78361869D01*
X145973562Y-78361866D01*
X146075660Y-78369507D01*
X146169748Y-78391670D01*
X146254309Y-78427220D01*
X146327823Y-78475022D01*
X146388770Y-78533939D01*
X146435631Y-78602836D01*
X146466888Y-78680576D01*
X146478657Y-78739541D01*
X146478622Y-78819228D01*
X146459828Y-78897393D01*
X146423395Y-78971396D01*
X146370442Y-79038597D01*
X146339577Y-79067583D01*
X146269814Y-79118810D01*
X146196251Y-79155521D01*
X146115571Y-79178824D01*
X146024457Y-79189826D01*
X145969848Y-79191043D01*
X145921355Y-79189340D01*
X145873023Y-79185321D01*
X145833613Y-79179765D01*
X145826061Y-79178201D01*
X145738381Y-79149603D01*
X145659054Y-79106628D01*
X145590616Y-79051091D01*
X145535598Y-78984811D01*
X145519312Y-78958218D01*
X145502195Y-78926030D01*
X145491089Y-78899419D01*
X145484385Y-78872397D01*
X145480479Y-78838973D01*
X145478396Y-78805676D01*
X145478846Y-78777693D01*
X145702419Y-78777693D01*
X145703477Y-78816056D01*
X145708706Y-78845198D01*
X145719923Y-78872711D01*
X145729235Y-78889782D01*
X145768527Y-78940379D01*
X145819934Y-78979822D01*
X145880160Y-79007082D01*
X145945910Y-79021128D01*
X146013888Y-79020933D01*
X146080800Y-79005468D01*
X146089360Y-79002238D01*
X146149487Y-78969609D01*
X146197001Y-78925820D01*
X146230624Y-78873634D01*
X146249078Y-78815817D01*
X146251084Y-78755134D01*
X146235364Y-78694348D01*
X146233614Y-78690267D01*
X146200528Y-78634628D01*
X146154462Y-78590804D01*
X146102482Y-78560550D01*
X146070236Y-78546823D01*
X146041432Y-78539182D01*
X146007560Y-78535958D01*
X145974431Y-78535436D01*
X145931454Y-78536467D01*
X145899767Y-78540686D01*
X145870815Y-78549779D01*
X145845709Y-78560834D01*
X145785622Y-78597874D01*
X145741662Y-78644804D01*
X145713969Y-78701415D01*
X145702684Y-78767492D01*
X145702419Y-78777693D01*
X145478846Y-78777693D01*
X145479685Y-78725547D01*
X145493545Y-78656195D01*
G37*
X145493545Y-78656195D02*
X145521376Y-78594380D01*
X145564574Y-78536860D01*
X145615362Y-78488116D01*
X145692657Y-78433226D01*
X145777970Y-78393831D01*
X145871055Y-78370017D01*
X145971670Y-78361869D01*
X145973562Y-78361866D01*
X146075660Y-78369507D01*
X146169748Y-78391670D01*
X146254309Y-78427220D01*
X146327823Y-78475022D01*
X146388770Y-78533939D01*
X146435631Y-78602836D01*
X146466888Y-78680576D01*
X146478657Y-78739541D01*
X146478622Y-78819228D01*
X146459828Y-78897393D01*
X146423395Y-78971396D01*
X146370442Y-79038597D01*
X146339577Y-79067583D01*
X146269814Y-79118810D01*
X146196251Y-79155521D01*
X146115571Y-79178824D01*
X146024457Y-79189826D01*
X145969848Y-79191043D01*
X145921355Y-79189340D01*
X145873023Y-79185321D01*
X145833613Y-79179765D01*
X145826061Y-79178201D01*
X145738381Y-79149603D01*
X145659054Y-79106628D01*
X145590616Y-79051091D01*
X145535598Y-78984811D01*
X145519312Y-78958218D01*
X145502195Y-78926030D01*
X145491089Y-78899419D01*
X145484385Y-78872397D01*
X145480479Y-78838973D01*
X145478396Y-78805676D01*
X145478846Y-78777693D01*
X145702419Y-78777693D01*
X145703477Y-78816056D01*
X145708706Y-78845198D01*
X145719923Y-78872711D01*
X145729235Y-78889782D01*
X145768527Y-78940379D01*
X145819934Y-78979822D01*
X145880160Y-79007082D01*
X145945910Y-79021128D01*
X146013888Y-79020933D01*
X146080800Y-79005468D01*
X146089360Y-79002238D01*
X146149487Y-78969609D01*
X146197001Y-78925820D01*
X146230624Y-78873634D01*
X146249078Y-78815817D01*
X146251084Y-78755134D01*
X146235364Y-78694348D01*
X146233614Y-78690267D01*
X146200528Y-78634628D01*
X146154462Y-78590804D01*
X146102482Y-78560550D01*
X146070236Y-78546823D01*
X146041432Y-78539182D01*
X146007560Y-78535958D01*
X145974431Y-78535436D01*
X145931454Y-78536467D01*
X145899767Y-78540686D01*
X145870815Y-78549779D01*
X145845709Y-78560834D01*
X145785622Y-78597874D01*
X145741662Y-78644804D01*
X145713969Y-78701415D01*
X145702684Y-78767492D01*
X145702419Y-78777693D01*
X145478846Y-78777693D01*
X145479685Y-78725547D01*
X145493545Y-78656195D01*
G36*
X140135604Y-79411733D02*
G01*
X140223758Y-79412010D01*
X140294800Y-79413089D01*
X140351533Y-79415348D01*
X140396758Y-79419159D01*
X140433280Y-79424900D01*
X140463899Y-79432944D01*
X140491421Y-79443667D01*
X140518646Y-79457444D01*
X140531528Y-79464729D01*
X140580785Y-79503035D01*
X140609580Y-79538719D01*
X140626117Y-79566236D01*
X140635336Y-79590116D01*
X140639220Y-79617573D01*
X140639808Y-79648786D01*
X140631154Y-79713831D01*
X140605987Y-79769404D01*
X140564311Y-79815500D01*
X140506128Y-79852116D01*
X140452937Y-79872950D01*
X140395876Y-79891048D01*
X140535585Y-80049179D01*
X140575105Y-80094090D01*
X140610290Y-80134418D01*
X140639472Y-80168223D01*
X140660985Y-80193568D01*
X140673162Y-80208514D01*
X140675294Y-80211688D01*
X140666181Y-80213861D01*
X140642228Y-80215428D01*
X140608513Y-80216065D01*
X140606646Y-80216067D01*
X140537998Y-80216067D01*
X140400167Y-80059433D01*
X140262335Y-79902800D01*
X140007921Y-79902800D01*
X140007921Y-80216067D01*
X139888392Y-80216067D01*
X139888392Y-79819778D01*
X140007921Y-79819778D01*
X140184725Y-79816630D01*
X140250851Y-79815221D01*
X140300562Y-79813462D01*
X140337363Y-79811030D01*
X140364760Y-79807599D01*
X140386259Y-79802842D01*
X140405366Y-79796435D01*
X140406353Y-79796054D01*
X140459272Y-79767856D01*
X140497178Y-79731665D01*
X140519105Y-79689966D01*
X140524087Y-79645244D01*
X140511161Y-79599986D01*
X140493267Y-79572166D01*
X140468525Y-79548033D01*
X140435887Y-79529153D01*
X140393166Y-79515052D01*
X140338174Y-79505254D01*
X140268725Y-79499283D01*
X140182631Y-79496664D01*
X140144882Y-79496449D01*
X140007921Y-79496400D01*
X140007921Y-79819778D01*
X139888392Y-79819778D01*
X139888392Y-79411733D01*
X140135604Y-79411733D01*
G37*
X140135604Y-79411733D02*
X140223758Y-79412010D01*
X140294800Y-79413089D01*
X140351533Y-79415348D01*
X140396758Y-79419159D01*
X140433280Y-79424900D01*
X140463899Y-79432944D01*
X140491421Y-79443667D01*
X140518646Y-79457444D01*
X140531528Y-79464729D01*
X140580785Y-79503035D01*
X140609580Y-79538719D01*
X140626117Y-79566236D01*
X140635336Y-79590116D01*
X140639220Y-79617573D01*
X140639808Y-79648786D01*
X140631154Y-79713831D01*
X140605987Y-79769404D01*
X140564311Y-79815500D01*
X140506128Y-79852116D01*
X140452937Y-79872950D01*
X140395876Y-79891048D01*
X140535585Y-80049179D01*
X140575105Y-80094090D01*
X140610290Y-80134418D01*
X140639472Y-80168223D01*
X140660985Y-80193568D01*
X140673162Y-80208514D01*
X140675294Y-80211688D01*
X140666181Y-80213861D01*
X140642228Y-80215428D01*
X140608513Y-80216065D01*
X140606646Y-80216067D01*
X140537998Y-80216067D01*
X140400167Y-80059433D01*
X140262335Y-79902800D01*
X140007921Y-79902800D01*
X140007921Y-80216067D01*
X139888392Y-80216067D01*
X139888392Y-79819778D01*
X140007921Y-79819778D01*
X140184725Y-79816630D01*
X140250851Y-79815221D01*
X140300562Y-79813462D01*
X140337363Y-79811030D01*
X140364760Y-79807599D01*
X140386259Y-79802842D01*
X140405366Y-79796435D01*
X140406353Y-79796054D01*
X140459272Y-79767856D01*
X140497178Y-79731665D01*
X140519105Y-79689966D01*
X140524087Y-79645244D01*
X140511161Y-79599986D01*
X140493267Y-79572166D01*
X140468525Y-79548033D01*
X140435887Y-79529153D01*
X140393166Y-79515052D01*
X140338174Y-79505254D01*
X140268725Y-79499283D01*
X140182631Y-79496664D01*
X140144882Y-79496449D01*
X140007921Y-79496400D01*
X140007921Y-79819778D01*
X139888392Y-79819778D01*
X139888392Y-79411733D01*
X140135604Y-79411733D01*
G36*
X140816640Y-79690027D02*
G01*
X140850945Y-79617566D01*
X140899903Y-79552708D01*
X140961907Y-79496960D01*
X141035352Y-79451832D01*
X141118631Y-79418831D01*
X141210139Y-79399468D01*
X141284785Y-79394800D01*
X141371420Y-79402330D01*
X141458204Y-79423649D01*
X141539540Y-79456852D01*
X141609833Y-79500034D01*
X141621904Y-79509560D01*
X141677399Y-79566708D01*
X141719180Y-79633644D01*
X141746761Y-79707489D01*
X141759650Y-79785368D01*
X141757360Y-79864402D01*
X141739400Y-79941714D01*
X141707184Y-80011274D01*
X141659618Y-80073473D01*
X141596948Y-80128540D01*
X141523394Y-80173457D01*
X141443177Y-80205205D01*
X141431407Y-80208493D01*
X141372856Y-80219078D01*
X141303762Y-80224021D01*
X141231905Y-80223326D01*
X141165065Y-80216998D01*
X141121899Y-80208287D01*
X141035761Y-80176343D01*
X140960650Y-80131102D01*
X140897940Y-80074078D01*
X140849007Y-80006787D01*
X140815225Y-79930745D01*
X140798412Y-79851717D01*
X140798549Y-79789022D01*
X140918057Y-79789022D01*
X140921444Y-79861199D01*
X140942783Y-79930924D01*
X140981775Y-79995871D01*
X141015885Y-80033882D01*
X141076896Y-80080525D01*
X141147527Y-80113457D01*
X141224681Y-80132000D01*
X141305258Y-80135474D01*
X141386160Y-80123201D01*
X141402761Y-80118601D01*
X141473273Y-80089210D01*
X141531776Y-80048368D01*
X141577979Y-79998323D01*
X141611587Y-79941318D01*
X141632308Y-79879601D01*
X141639850Y-79815416D01*
X141633919Y-79751009D01*
X141614224Y-79688626D01*
X141580470Y-79630512D01*
X141532365Y-79578914D01*
X141478099Y-79540776D01*
X141405484Y-79508716D01*
X141329060Y-79491847D01*
X141251672Y-79489582D01*
X141176164Y-79501332D01*
X141105383Y-79526509D01*
X141042173Y-79564524D01*
X140989379Y-79614788D01*
X140966328Y-79646618D01*
X140932919Y-79716720D01*
X140918057Y-79789022D01*
X140798549Y-79789022D01*
X140798594Y-79768580D01*
X140816640Y-79690027D01*
G37*
X140816640Y-79690027D02*
X140850945Y-79617566D01*
X140899903Y-79552708D01*
X140961907Y-79496960D01*
X141035352Y-79451832D01*
X141118631Y-79418831D01*
X141210139Y-79399468D01*
X141284785Y-79394800D01*
X141371420Y-79402330D01*
X141458204Y-79423649D01*
X141539540Y-79456852D01*
X141609833Y-79500034D01*
X141621904Y-79509560D01*
X141677399Y-79566708D01*
X141719180Y-79633644D01*
X141746761Y-79707489D01*
X141759650Y-79785368D01*
X141757360Y-79864402D01*
X141739400Y-79941714D01*
X141707184Y-80011274D01*
X141659618Y-80073473D01*
X141596948Y-80128540D01*
X141523394Y-80173457D01*
X141443177Y-80205205D01*
X141431407Y-80208493D01*
X141372856Y-80219078D01*
X141303762Y-80224021D01*
X141231905Y-80223326D01*
X141165065Y-80216998D01*
X141121899Y-80208287D01*
X141035761Y-80176343D01*
X140960650Y-80131102D01*
X140897940Y-80074078D01*
X140849007Y-80006787D01*
X140815225Y-79930745D01*
X140798412Y-79851717D01*
X140798549Y-79789022D01*
X140918057Y-79789022D01*
X140921444Y-79861199D01*
X140942783Y-79930924D01*
X140981775Y-79995871D01*
X141015885Y-80033882D01*
X141076896Y-80080525D01*
X141147527Y-80113457D01*
X141224681Y-80132000D01*
X141305258Y-80135474D01*
X141386160Y-80123201D01*
X141402761Y-80118601D01*
X141473273Y-80089210D01*
X141531776Y-80048368D01*
X141577979Y-79998323D01*
X141611587Y-79941318D01*
X141632308Y-79879601D01*
X141639850Y-79815416D01*
X141633919Y-79751009D01*
X141614224Y-79688626D01*
X141580470Y-79630512D01*
X141532365Y-79578914D01*
X141478099Y-79540776D01*
X141405484Y-79508716D01*
X141329060Y-79491847D01*
X141251672Y-79489582D01*
X141176164Y-79501332D01*
X141105383Y-79526509D01*
X141042173Y-79564524D01*
X140989379Y-79614788D01*
X140966328Y-79646618D01*
X140932919Y-79716720D01*
X140918057Y-79789022D01*
X140798549Y-79789022D01*
X140798594Y-79768580D01*
X140816640Y-79690027D01*
G36*
X144569960Y-79496400D02*
G01*
X143992235Y-79496400D01*
X143992235Y-79767333D01*
X144510196Y-79767333D01*
X144510196Y-79852000D01*
X143992235Y-79852000D01*
X143992235Y-80122933D01*
X144569960Y-80122933D01*
X144569960Y-80216067D01*
X143882666Y-80216067D01*
X143882666Y-79411733D01*
X144569960Y-79411733D01*
X144569960Y-79496400D01*
G37*
X144569960Y-79496400D02*
X143992235Y-79496400D01*
X143992235Y-79767333D01*
X144510196Y-79767333D01*
X144510196Y-79852000D01*
X143992235Y-79852000D01*
X143992235Y-80122933D01*
X144569960Y-80122933D01*
X144569960Y-80216067D01*
X143882666Y-80216067D01*
X143882666Y-79411733D01*
X144569960Y-79411733D01*
X144569960Y-79496400D01*
G36*
X146620228Y-78707502D02*
G01*
X146644251Y-78632663D01*
X146684399Y-78562027D01*
X146740635Y-78497908D01*
X146752823Y-78486924D01*
X146824775Y-78436039D01*
X146906410Y-78398352D01*
X146994820Y-78373939D01*
X147087099Y-78362873D01*
X147180339Y-78365229D01*
X147271633Y-78381083D01*
X147358075Y-78410508D01*
X147436756Y-78453581D01*
X147457908Y-78468788D01*
X147512709Y-78516396D01*
X147553453Y-78566437D01*
X147584974Y-78625191D01*
X147592740Y-78643891D01*
X147614829Y-78724674D01*
X147618123Y-78804526D01*
X147603722Y-78881679D01*
X147572729Y-78954364D01*
X147526244Y-79020812D01*
X147465370Y-79079256D01*
X147391208Y-79127925D01*
X147304858Y-79165052D01*
X147260055Y-79178092D01*
X147198749Y-79188179D01*
X147127152Y-79191836D01*
X147053310Y-79189213D01*
X146985270Y-79180461D01*
X146950588Y-79172331D01*
X146870173Y-79143972D01*
X146802653Y-79108409D01*
X146743339Y-79063829D01*
X146686161Y-79002653D01*
X146645299Y-78934121D01*
X146620714Y-78860543D01*
X146612991Y-78789907D01*
X146842516Y-78789907D01*
X146849230Y-78840220D01*
X146864070Y-78883098D01*
X146868483Y-78891033D01*
X146910170Y-78942214D01*
X146963997Y-78981683D01*
X147026782Y-79008342D01*
X147095347Y-79021092D01*
X147166511Y-79018835D01*
X147210842Y-79009330D01*
X147270039Y-78983807D01*
X147318570Y-78946298D01*
X147355476Y-78899606D01*
X147379801Y-78846529D01*
X147390587Y-78789869D01*
X147386879Y-78732426D01*
X147367718Y-78677002D01*
X147339052Y-78634136D01*
X147289536Y-78588968D01*
X147230569Y-78556454D01*
X147165515Y-78537351D01*
X147097736Y-78532422D01*
X147030597Y-78542425D01*
X146992325Y-78555778D01*
X146948577Y-78581740D01*
X146906873Y-78618624D01*
X146872899Y-78660701D01*
X146855271Y-78693832D01*
X146844380Y-78738872D01*
X146842516Y-78789907D01*
X146612991Y-78789907D01*
X146612370Y-78784233D01*
X146620228Y-78707502D01*
G37*
X146620228Y-78707502D02*
X146644251Y-78632663D01*
X146684399Y-78562027D01*
X146740635Y-78497908D01*
X146752823Y-78486924D01*
X146824775Y-78436039D01*
X146906410Y-78398352D01*
X146994820Y-78373939D01*
X147087099Y-78362873D01*
X147180339Y-78365229D01*
X147271633Y-78381083D01*
X147358075Y-78410508D01*
X147436756Y-78453581D01*
X147457908Y-78468788D01*
X147512709Y-78516396D01*
X147553453Y-78566437D01*
X147584974Y-78625191D01*
X147592740Y-78643891D01*
X147614829Y-78724674D01*
X147618123Y-78804526D01*
X147603722Y-78881679D01*
X147572729Y-78954364D01*
X147526244Y-79020812D01*
X147465370Y-79079256D01*
X147391208Y-79127925D01*
X147304858Y-79165052D01*
X147260055Y-79178092D01*
X147198749Y-79188179D01*
X147127152Y-79191836D01*
X147053310Y-79189213D01*
X146985270Y-79180461D01*
X146950588Y-79172331D01*
X146870173Y-79143972D01*
X146802653Y-79108409D01*
X146743339Y-79063829D01*
X146686161Y-79002653D01*
X146645299Y-78934121D01*
X146620714Y-78860543D01*
X146612991Y-78789907D01*
X146842516Y-78789907D01*
X146849230Y-78840220D01*
X146864070Y-78883098D01*
X146868483Y-78891033D01*
X146910170Y-78942214D01*
X146963997Y-78981683D01*
X147026782Y-79008342D01*
X147095347Y-79021092D01*
X147166511Y-79018835D01*
X147210842Y-79009330D01*
X147270039Y-78983807D01*
X147318570Y-78946298D01*
X147355476Y-78899606D01*
X147379801Y-78846529D01*
X147390587Y-78789869D01*
X147386879Y-78732426D01*
X147367718Y-78677002D01*
X147339052Y-78634136D01*
X147289536Y-78588968D01*
X147230569Y-78556454D01*
X147165515Y-78537351D01*
X147097736Y-78532422D01*
X147030597Y-78542425D01*
X146992325Y-78555778D01*
X146948577Y-78581740D01*
X146906873Y-78618624D01*
X146872899Y-78660701D01*
X146855271Y-78693832D01*
X146844380Y-78738872D01*
X146842516Y-78789907D01*
X146612991Y-78789907D01*
X146612370Y-78784233D01*
X146620228Y-78707502D01*
G36*
X141710147Y-73153253D02*
G01*
X141706043Y-73116930D01*
X141690839Y-72982212D01*
X141676222Y-72852188D01*
X141662301Y-72727847D01*
X141649183Y-72610183D01*
X141636978Y-72500186D01*
X141625794Y-72398847D01*
X141615739Y-72307159D01*
X141606923Y-72226112D01*
X141599454Y-72156698D01*
X141593440Y-72099908D01*
X141588990Y-72056733D01*
X141586214Y-72028166D01*
X141585218Y-72015197D01*
X141585268Y-72014500D01*
X141594808Y-72017193D01*
X141620881Y-72026051D01*
X141661768Y-72040453D01*
X141715749Y-72059780D01*
X141781104Y-72083411D01*
X141856113Y-72110726D01*
X141939057Y-72141106D01*
X142028216Y-72173930D01*
X142058854Y-72185246D01*
X142149872Y-72218838D01*
X142235375Y-72250290D01*
X142313624Y-72278972D01*
X142382877Y-72304249D01*
X142441395Y-72325489D01*
X142487437Y-72342058D01*
X142519262Y-72353323D01*
X142535130Y-72358652D01*
X142536557Y-72359000D01*
X142542355Y-72351759D01*
X142557165Y-72330691D01*
X142580336Y-72296775D01*
X142611216Y-72250990D01*
X142649154Y-72194318D01*
X142693498Y-72127736D01*
X142743596Y-72052226D01*
X142798798Y-71968766D01*
X142858451Y-71878338D01*
X142921904Y-71781919D01*
X142988506Y-71680492D01*
X143040452Y-71601233D01*
X143108994Y-71496675D01*
X143174875Y-71396388D01*
X143237441Y-71301350D01*
X143296043Y-71212542D01*
X143350030Y-71130943D01*
X143398750Y-71057533D01*
X143441552Y-70993293D01*
X143477785Y-70939201D01*
X143506798Y-70896237D01*
X143527940Y-70865382D01*
X143540559Y-70847614D01*
X143544045Y-70843467D01*
X143549801Y-70850706D01*
X143564573Y-70871773D01*
X143587707Y-70905687D01*
X143618555Y-70951469D01*
X143656463Y-71008138D01*
X143700782Y-71074716D01*
X143750860Y-71150222D01*
X143806045Y-71233676D01*
X143865687Y-71324100D01*
X143929134Y-71420513D01*
X143995736Y-71521936D01*
X144047714Y-71601233D01*
X144116278Y-71705794D01*
X144182195Y-71806085D01*
X144244813Y-71901125D01*
X144303480Y-71989935D01*
X144357543Y-72071535D01*
X144406351Y-72144945D01*
X144449249Y-72209186D01*
X144485587Y-72263277D01*
X144514711Y-72306239D01*
X144535969Y-72337092D01*
X144548709Y-72354856D01*
X144552287Y-72359000D01*
X144562762Y-72355716D01*
X144589749Y-72346289D01*
X144631503Y-72331351D01*
X144686281Y-72311536D01*
X144752338Y-72287479D01*
X144827930Y-72259813D01*
X144911313Y-72229173D01*
X145000742Y-72196192D01*
X145030015Y-72185371D01*
X145120791Y-72151877D01*
X145205918Y-72120620D01*
X145283676Y-72092221D01*
X145352344Y-72067300D01*
X145410202Y-72046478D01*
X145455532Y-72030378D01*
X145486611Y-72019618D01*
X145501722Y-72014821D01*
X145502909Y-72014650D01*
X145502393Y-72023274D01*
X145500066Y-72047761D01*
X145496039Y-72087120D01*
X145490418Y-72140360D01*
X145483314Y-72206489D01*
X145474834Y-72284516D01*
X145465088Y-72373450D01*
X145454184Y-72472300D01*
X145442231Y-72580073D01*
X145429338Y-72695780D01*
X145415613Y-72818428D01*
X145401165Y-72947027D01*
X145386103Y-73080585D01*
X145381992Y-73116960D01*
X145366788Y-73251683D01*
X145352177Y-73381718D01*
X145338267Y-73506074D01*
X145325167Y-73623757D01*
X145312985Y-73733777D01*
X145301828Y-73835142D01*
X145291807Y-73926859D01*
X145283027Y-74007937D01*
X145275599Y-74077385D01*
X145269629Y-74134209D01*
X145265227Y-74177419D01*
X145262501Y-74206022D01*
X145261558Y-74219027D01*
X145261622Y-74219734D01*
X145269499Y-74214771D01*
X145291146Y-74199374D01*
X145325453Y-74174369D01*
X145371309Y-74140580D01*
X145427605Y-74098834D01*
X145493232Y-74049957D01*
X145567079Y-73994774D01*
X145648038Y-73934111D01*
X145734998Y-73868794D01*
X145826849Y-73799649D01*
X145875360Y-73763070D01*
X145969383Y-73692165D01*
X146059123Y-73624550D01*
X146143465Y-73561062D01*
X146221290Y-73502538D01*
X146291484Y-73449816D01*
X146352930Y-73403733D01*
X146404511Y-73365128D01*
X146445112Y-73334837D01*
X146473616Y-73313698D01*
X146488906Y-73302549D01*
X146491251Y-73300981D01*
X146495810Y-73308196D01*
X146506331Y-73329480D01*
X146521992Y-73362982D01*
X146541969Y-73406850D01*
X146565441Y-73459233D01*
X146591586Y-73518278D01*
X146619581Y-73582134D01*
X146648604Y-73648950D01*
X146677833Y-73716873D01*
X146706444Y-73784051D01*
X146719572Y-73815142D01*
X146714599Y-73824037D01*
X146698775Y-73842595D01*
X146674669Y-73867965D01*
X146649414Y-73892926D01*
X146526842Y-74013638D01*
X146398523Y-74145038D01*
X146265688Y-74285628D01*
X146129565Y-74433909D01*
X145991385Y-74588384D01*
X145852378Y-74747553D01*
X145713773Y-74909918D01*
X145576801Y-75073982D01*
X145442690Y-75238245D01*
X145312672Y-75401210D01*
X145187976Y-75561378D01*
X145069831Y-75717251D01*
X144959468Y-75867330D01*
X144858116Y-76010117D01*
X144767006Y-76144114D01*
X144687366Y-76267823D01*
X144650620Y-76328049D01*
X144636358Y-76348154D01*
X144624156Y-76358949D01*
X144619709Y-76359471D01*
X144611441Y-76350892D01*
X144594863Y-76330523D01*
X144572054Y-76301023D01*
X144545092Y-76265051D01*
X144531812Y-76246989D01*
X144418450Y-76083826D01*
X144311580Y-75913204D01*
X144210819Y-75734177D01*
X144115781Y-75545800D01*
X144026082Y-75347127D01*
X143941336Y-75137213D01*
X143861160Y-74915112D01*
X143785167Y-74679880D01*
X143712974Y-74430571D01*
X143644196Y-74166238D01*
X143587772Y-73927450D01*
X143575905Y-73876064D01*
X143565000Y-73830832D01*
X143555686Y-73794210D01*
X143548594Y-73768652D01*
X143544354Y-73756614D01*
X143543774Y-73756000D01*
X143540223Y-73763852D01*
X143533895Y-73785487D01*
X143525547Y-73818024D01*
X143515938Y-73858581D01*
X143510916Y-73880883D01*
X143443602Y-74168716D01*
X143372544Y-74440680D01*
X143297413Y-74697589D01*
X143217882Y-74940254D01*
X143133622Y-75169491D01*
X143044305Y-75386111D01*
X142949602Y-75590929D01*
X142849186Y-75784758D01*
X142742728Y-75968411D01*
X142629901Y-76142702D01*
X142556187Y-76246989D01*
X142528008Y-76285052D01*
X142503023Y-76317871D01*
X142483309Y-76342788D01*
X142470944Y-76357143D01*
X142468290Y-76359471D01*
X142458905Y-76355538D01*
X142445303Y-76340102D01*
X142437379Y-76328049D01*
X142364716Y-76211094D01*
X142279963Y-76083048D01*
X142184348Y-75945409D01*
X142079103Y-75799677D01*
X141965459Y-75647350D01*
X141844644Y-75489928D01*
X141717891Y-75328909D01*
X141586428Y-75165793D01*
X141451487Y-75002079D01*
X141314298Y-74839266D01*
X141176092Y-74678852D01*
X141038097Y-74522337D01*
X140901546Y-74371220D01*
X140767668Y-74227000D01*
X140637694Y-74091175D01*
X140512854Y-73965246D01*
X140438705Y-73892926D01*
X140409515Y-73863994D01*
X140386412Y-73839427D01*
X140371967Y-73822073D01*
X140368427Y-73815099D01*
X140392755Y-73757432D01*
X140419014Y-73696003D01*
X140446324Y-73632797D01*
X140473804Y-73569796D01*
X140500572Y-73508985D01*
X140525747Y-73452347D01*
X140548449Y-73401865D01*
X140567795Y-73359522D01*
X140582905Y-73327302D01*
X140592896Y-73307188D01*
X140596811Y-73301080D01*
X140605042Y-73306872D01*
X140627047Y-73323074D01*
X140661711Y-73348851D01*
X140707917Y-73383363D01*
X140764548Y-73425776D01*
X140830487Y-73475249D01*
X140904620Y-73530948D01*
X140985828Y-73592033D01*
X141072996Y-73657669D01*
X141165007Y-73727017D01*
X141212752Y-73763027D01*
X141306677Y-73833808D01*
X141396276Y-73901183D01*
X141480440Y-73964327D01*
X141558060Y-74022414D01*
X141628025Y-74074619D01*
X141689226Y-74120115D01*
X141740554Y-74158078D01*
X141780899Y-74187680D01*
X141809150Y-74208097D01*
X141824198Y-74218502D01*
X141826433Y-74219687D01*
X141825978Y-74211011D01*
X141823712Y-74186471D01*
X141819742Y-74147061D01*
X141814176Y-74093772D01*
X141807123Y-74027595D01*
X141798691Y-73949523D01*
X141788988Y-73860547D01*
X141778122Y-73761659D01*
X141766203Y-73653851D01*
X141753337Y-73538114D01*
X141739634Y-73415441D01*
X141726579Y-73299100D01*
X143030022Y-73299100D01*
X143035505Y-73295660D01*
X143052300Y-73282710D01*
X143077454Y-73262562D01*
X143094940Y-73248300D01*
X143134114Y-73218552D01*
X143177740Y-73189111D01*
X143217771Y-73165333D01*
X143226187Y-73160945D01*
X143294974Y-73130238D01*
X143361662Y-73109392D01*
X143432451Y-73097077D01*
X143513543Y-73091959D01*
X143548980Y-73091627D01*
X143604082Y-73092236D01*
X143645361Y-73094263D01*
X143678898Y-73098424D01*
X143710775Y-73105434D01*
X143741568Y-73114311D01*
X143829448Y-73146411D01*
X143906925Y-73186653D01*
X143981166Y-73238860D01*
X143992883Y-73248300D01*
X144021630Y-73271585D01*
X144043746Y-73289039D01*
X144056277Y-73298354D01*
X144057978Y-73299100D01*
X144054707Y-73290515D01*
X144045956Y-73266940D01*
X144032160Y-73229556D01*
X144013750Y-73179542D01*
X143991161Y-73118079D01*
X143964825Y-73046346D01*
X143935177Y-72965526D01*
X143902650Y-72876796D01*
X143867676Y-72781339D01*
X143830690Y-72680333D01*
X143802221Y-72602552D01*
X143764015Y-72498304D01*
X143727445Y-72398822D01*
X143692947Y-72305275D01*
X143660959Y-72218835D01*
X143631917Y-72140671D01*
X143606258Y-72071955D01*
X143584419Y-72013857D01*
X143566836Y-71967547D01*
X143553947Y-71934197D01*
X143546188Y-71914976D01*
X143544000Y-71910537D01*
X143540361Y-71918430D01*
X143531266Y-71941327D01*
X143517151Y-71978059D01*
X143498453Y-72027454D01*
X143475608Y-72088343D01*
X143449054Y-72159553D01*
X143419228Y-72239916D01*
X143386565Y-72328261D01*
X143351503Y-72423416D01*
X143314479Y-72524211D01*
X143285779Y-72602552D01*
X143247580Y-72706909D01*
X143211072Y-72806594D01*
X143176689Y-72900425D01*
X143144865Y-72987223D01*
X143116031Y-73065808D01*
X143090623Y-73134998D01*
X143069073Y-73193615D01*
X143051814Y-73240477D01*
X143039280Y-73274405D01*
X143031905Y-73294218D01*
X143030022Y-73299100D01*
X141726579Y-73299100D01*
X141725201Y-73286823D01*
X141710147Y-73153253D01*
G37*
X141710147Y-73153253D02*
X141706043Y-73116930D01*
X141690839Y-72982212D01*
X141676222Y-72852188D01*
X141662301Y-72727847D01*
X141649183Y-72610183D01*
X141636978Y-72500186D01*
X141625794Y-72398847D01*
X141615739Y-72307159D01*
X141606923Y-72226112D01*
X141599454Y-72156698D01*
X141593440Y-72099908D01*
X141588990Y-72056733D01*
X141586214Y-72028166D01*
X141585218Y-72015197D01*
X141585268Y-72014500D01*
X141594808Y-72017193D01*
X141620881Y-72026051D01*
X141661768Y-72040453D01*
X141715749Y-72059780D01*
X141781104Y-72083411D01*
X141856113Y-72110726D01*
X141939057Y-72141106D01*
X142028216Y-72173930D01*
X142058854Y-72185246D01*
X142149872Y-72218838D01*
X142235375Y-72250290D01*
X142313624Y-72278972D01*
X142382877Y-72304249D01*
X142441395Y-72325489D01*
X142487437Y-72342058D01*
X142519262Y-72353323D01*
X142535130Y-72358652D01*
X142536557Y-72359000D01*
X142542355Y-72351759D01*
X142557165Y-72330691D01*
X142580336Y-72296775D01*
X142611216Y-72250990D01*
X142649154Y-72194318D01*
X142693498Y-72127736D01*
X142743596Y-72052226D01*
X142798798Y-71968766D01*
X142858451Y-71878338D01*
X142921904Y-71781919D01*
X142988506Y-71680492D01*
X143040452Y-71601233D01*
X143108994Y-71496675D01*
X143174875Y-71396388D01*
X143237441Y-71301350D01*
X143296043Y-71212542D01*
X143350030Y-71130943D01*
X143398750Y-71057533D01*
X143441552Y-70993293D01*
X143477785Y-70939201D01*
X143506798Y-70896237D01*
X143527940Y-70865382D01*
X143540559Y-70847614D01*
X143544045Y-70843467D01*
X143549801Y-70850706D01*
X143564573Y-70871773D01*
X143587707Y-70905687D01*
X143618555Y-70951469D01*
X143656463Y-71008138D01*
X143700782Y-71074716D01*
X143750860Y-71150222D01*
X143806045Y-71233676D01*
X143865687Y-71324100D01*
X143929134Y-71420513D01*
X143995736Y-71521936D01*
X144047714Y-71601233D01*
X144116278Y-71705794D01*
X144182195Y-71806085D01*
X144244813Y-71901125D01*
X144303480Y-71989935D01*
X144357543Y-72071535D01*
X144406351Y-72144945D01*
X144449249Y-72209186D01*
X144485587Y-72263277D01*
X144514711Y-72306239D01*
X144535969Y-72337092D01*
X144548709Y-72354856D01*
X144552287Y-72359000D01*
X144562762Y-72355716D01*
X144589749Y-72346289D01*
X144631503Y-72331351D01*
X144686281Y-72311536D01*
X144752338Y-72287479D01*
X144827930Y-72259813D01*
X144911313Y-72229173D01*
X145000742Y-72196192D01*
X145030015Y-72185371D01*
X145120791Y-72151877D01*
X145205918Y-72120620D01*
X145283676Y-72092221D01*
X145352344Y-72067300D01*
X145410202Y-72046478D01*
X145455532Y-72030378D01*
X145486611Y-72019618D01*
X145501722Y-72014821D01*
X145502909Y-72014650D01*
X145502393Y-72023274D01*
X145500066Y-72047761D01*
X145496039Y-72087120D01*
X145490418Y-72140360D01*
X145483314Y-72206489D01*
X145474834Y-72284516D01*
X145465088Y-72373450D01*
X145454184Y-72472300D01*
X145442231Y-72580073D01*
X145429338Y-72695780D01*
X145415613Y-72818428D01*
X145401165Y-72947027D01*
X145386103Y-73080585D01*
X145381992Y-73116960D01*
X145366788Y-73251683D01*
X145352177Y-73381718D01*
X145338267Y-73506074D01*
X145325167Y-73623757D01*
X145312985Y-73733777D01*
X145301828Y-73835142D01*
X145291807Y-73926859D01*
X145283027Y-74007937D01*
X145275599Y-74077385D01*
X145269629Y-74134209D01*
X145265227Y-74177419D01*
X145262501Y-74206022D01*
X145261558Y-74219027D01*
X145261622Y-74219734D01*
X145269499Y-74214771D01*
X145291146Y-74199374D01*
X145325453Y-74174369D01*
X145371309Y-74140580D01*
X145427605Y-74098834D01*
X145493232Y-74049957D01*
X145567079Y-73994774D01*
X145648038Y-73934111D01*
X145734998Y-73868794D01*
X145826849Y-73799649D01*
X145875360Y-73763070D01*
X145969383Y-73692165D01*
X146059123Y-73624550D01*
X146143465Y-73561062D01*
X146221290Y-73502538D01*
X146291484Y-73449816D01*
X146352930Y-73403733D01*
X146404511Y-73365128D01*
X146445112Y-73334837D01*
X146473616Y-73313698D01*
X146488906Y-73302549D01*
X146491251Y-73300981D01*
X146495810Y-73308196D01*
X146506331Y-73329480D01*
X146521992Y-73362982D01*
X146541969Y-73406850D01*
X146565441Y-73459233D01*
X146591586Y-73518278D01*
X146619581Y-73582134D01*
X146648604Y-73648950D01*
X146677833Y-73716873D01*
X146706444Y-73784051D01*
X146719572Y-73815142D01*
X146714599Y-73824037D01*
X146698775Y-73842595D01*
X146674669Y-73867965D01*
X146649414Y-73892926D01*
X146526842Y-74013638D01*
X146398523Y-74145038D01*
X146265688Y-74285628D01*
X146129565Y-74433909D01*
X145991385Y-74588384D01*
X145852378Y-74747553D01*
X145713773Y-74909918D01*
X145576801Y-75073982D01*
X145442690Y-75238245D01*
X145312672Y-75401210D01*
X145187976Y-75561378D01*
X145069831Y-75717251D01*
X144959468Y-75867330D01*
X144858116Y-76010117D01*
X144767006Y-76144114D01*
X144687366Y-76267823D01*
X144650620Y-76328049D01*
X144636358Y-76348154D01*
X144624156Y-76358949D01*
X144619709Y-76359471D01*
X144611441Y-76350892D01*
X144594863Y-76330523D01*
X144572054Y-76301023D01*
X144545092Y-76265051D01*
X144531812Y-76246989D01*
X144418450Y-76083826D01*
X144311580Y-75913204D01*
X144210819Y-75734177D01*
X144115781Y-75545800D01*
X144026082Y-75347127D01*
X143941336Y-75137213D01*
X143861160Y-74915112D01*
X143785167Y-74679880D01*
X143712974Y-74430571D01*
X143644196Y-74166238D01*
X143587772Y-73927450D01*
X143575905Y-73876064D01*
X143565000Y-73830832D01*
X143555686Y-73794210D01*
X143548594Y-73768652D01*
X143544354Y-73756614D01*
X143543774Y-73756000D01*
X143540223Y-73763852D01*
X143533895Y-73785487D01*
X143525547Y-73818024D01*
X143515938Y-73858581D01*
X143510916Y-73880883D01*
X143443602Y-74168716D01*
X143372544Y-74440680D01*
X143297413Y-74697589D01*
X143217882Y-74940254D01*
X143133622Y-75169491D01*
X143044305Y-75386111D01*
X142949602Y-75590929D01*
X142849186Y-75784758D01*
X142742728Y-75968411D01*
X142629901Y-76142702D01*
X142556187Y-76246989D01*
X142528008Y-76285052D01*
X142503023Y-76317871D01*
X142483309Y-76342788D01*
X142470944Y-76357143D01*
X142468290Y-76359471D01*
X142458905Y-76355538D01*
X142445303Y-76340102D01*
X142437379Y-76328049D01*
X142364716Y-76211094D01*
X142279963Y-76083048D01*
X142184348Y-75945409D01*
X142079103Y-75799677D01*
X141965459Y-75647350D01*
X141844644Y-75489928D01*
X141717891Y-75328909D01*
X141586428Y-75165793D01*
X141451487Y-75002079D01*
X141314298Y-74839266D01*
X141176092Y-74678852D01*
X141038097Y-74522337D01*
X140901546Y-74371220D01*
X140767668Y-74227000D01*
X140637694Y-74091175D01*
X140512854Y-73965246D01*
X140438705Y-73892926D01*
X140409515Y-73863994D01*
X140386412Y-73839427D01*
X140371967Y-73822073D01*
X140368427Y-73815099D01*
X140392755Y-73757432D01*
X140419014Y-73696003D01*
X140446324Y-73632797D01*
X140473804Y-73569796D01*
X140500572Y-73508985D01*
X140525747Y-73452347D01*
X140548449Y-73401865D01*
X140567795Y-73359522D01*
X140582905Y-73327302D01*
X140592896Y-73307188D01*
X140596811Y-73301080D01*
X140605042Y-73306872D01*
X140627047Y-73323074D01*
X140661711Y-73348851D01*
X140707917Y-73383363D01*
X140764548Y-73425776D01*
X140830487Y-73475249D01*
X140904620Y-73530948D01*
X140985828Y-73592033D01*
X141072996Y-73657669D01*
X141165007Y-73727017D01*
X141212752Y-73763027D01*
X141306677Y-73833808D01*
X141396276Y-73901183D01*
X141480440Y-73964327D01*
X141558060Y-74022414D01*
X141628025Y-74074619D01*
X141689226Y-74120115D01*
X141740554Y-74158078D01*
X141780899Y-74187680D01*
X141809150Y-74208097D01*
X141824198Y-74218502D01*
X141826433Y-74219687D01*
X141825978Y-74211011D01*
X141823712Y-74186471D01*
X141819742Y-74147061D01*
X141814176Y-74093772D01*
X141807123Y-74027595D01*
X141798691Y-73949523D01*
X141788988Y-73860547D01*
X141778122Y-73761659D01*
X141766203Y-73653851D01*
X141753337Y-73538114D01*
X141739634Y-73415441D01*
X141726579Y-73299100D01*
X143030022Y-73299100D01*
X143035505Y-73295660D01*
X143052300Y-73282710D01*
X143077454Y-73262562D01*
X143094940Y-73248300D01*
X143134114Y-73218552D01*
X143177740Y-73189111D01*
X143217771Y-73165333D01*
X143226187Y-73160945D01*
X143294974Y-73130238D01*
X143361662Y-73109392D01*
X143432451Y-73097077D01*
X143513543Y-73091959D01*
X143548980Y-73091627D01*
X143604082Y-73092236D01*
X143645361Y-73094263D01*
X143678898Y-73098424D01*
X143710775Y-73105434D01*
X143741568Y-73114311D01*
X143829448Y-73146411D01*
X143906925Y-73186653D01*
X143981166Y-73238860D01*
X143992883Y-73248300D01*
X144021630Y-73271585D01*
X144043746Y-73289039D01*
X144056277Y-73298354D01*
X144057978Y-73299100D01*
X144054707Y-73290515D01*
X144045956Y-73266940D01*
X144032160Y-73229556D01*
X144013750Y-73179542D01*
X143991161Y-73118079D01*
X143964825Y-73046346D01*
X143935177Y-72965526D01*
X143902650Y-72876796D01*
X143867676Y-72781339D01*
X143830690Y-72680333D01*
X143802221Y-72602552D01*
X143764015Y-72498304D01*
X143727445Y-72398822D01*
X143692947Y-72305275D01*
X143660959Y-72218835D01*
X143631917Y-72140671D01*
X143606258Y-72071955D01*
X143584419Y-72013857D01*
X143566836Y-71967547D01*
X143553947Y-71934197D01*
X143546188Y-71914976D01*
X143544000Y-71910537D01*
X143540361Y-71918430D01*
X143531266Y-71941327D01*
X143517151Y-71978059D01*
X143498453Y-72027454D01*
X143475608Y-72088343D01*
X143449054Y-72159553D01*
X143419228Y-72239916D01*
X143386565Y-72328261D01*
X143351503Y-72423416D01*
X143314479Y-72524211D01*
X143285779Y-72602552D01*
X143247580Y-72706909D01*
X143211072Y-72806594D01*
X143176689Y-72900425D01*
X143144865Y-72987223D01*
X143116031Y-73065808D01*
X143090623Y-73134998D01*
X143069073Y-73193615D01*
X143051814Y-73240477D01*
X143039280Y-73274405D01*
X143031905Y-73294218D01*
X143030022Y-73299100D01*
X141726579Y-73299100D01*
X141725201Y-73286823D01*
X141710147Y-73153253D01*
G36*
X145892937Y-79411733D02*
G01*
X145980945Y-79412006D01*
X146051859Y-79413075D01*
X146108501Y-79415318D01*
X146153692Y-79419112D01*
X146190255Y-79424832D01*
X146221010Y-79432857D01*
X146248780Y-79443563D01*
X146276386Y-79457328D01*
X146289699Y-79464729D01*
X146338880Y-79502417D01*
X146374323Y-79550259D01*
X146394892Y-79605293D01*
X146399455Y-79664558D01*
X146388126Y-79721499D01*
X146361372Y-79771480D01*
X146318599Y-79816094D01*
X146263542Y-79852146D01*
X146210340Y-79873534D01*
X146152406Y-79890836D01*
X146292516Y-80047848D01*
X146332237Y-80092591D01*
X146367586Y-80132851D01*
X146396879Y-80166675D01*
X146418435Y-80192109D01*
X146430569Y-80207200D01*
X146432627Y-80210463D01*
X146423515Y-80213244D01*
X146399564Y-80215249D01*
X146365852Y-80216064D01*
X146363979Y-80216067D01*
X146295332Y-80216067D01*
X146157500Y-80059433D01*
X146019669Y-79902800D01*
X145765255Y-79902800D01*
X145765255Y-80216067D01*
X145645725Y-80216067D01*
X145645725Y-79819778D01*
X145765255Y-79819778D01*
X145942058Y-79816630D01*
X146008185Y-79815221D01*
X146057895Y-79813462D01*
X146094696Y-79811030D01*
X146122093Y-79807599D01*
X146143592Y-79802842D01*
X146162699Y-79796435D01*
X146163686Y-79796054D01*
X146216606Y-79767856D01*
X146254511Y-79731665D01*
X146276438Y-79689966D01*
X146281421Y-79645244D01*
X146268494Y-79599986D01*
X146250600Y-79572166D01*
X146225858Y-79548033D01*
X146193220Y-79529153D01*
X146150499Y-79515052D01*
X146095508Y-79505254D01*
X146026059Y-79499283D01*
X145939965Y-79496664D01*
X145902215Y-79496449D01*
X145765255Y-79496400D01*
X145765255Y-79819778D01*
X145645725Y-79819778D01*
X145645725Y-79411733D01*
X145892937Y-79411733D01*
G37*
X145892937Y-79411733D02*
X145980945Y-79412006D01*
X146051859Y-79413075D01*
X146108501Y-79415318D01*
X146153692Y-79419112D01*
X146190255Y-79424832D01*
X146221010Y-79432857D01*
X146248780Y-79443563D01*
X146276386Y-79457328D01*
X146289699Y-79464729D01*
X146338880Y-79502417D01*
X146374323Y-79550259D01*
X146394892Y-79605293D01*
X146399455Y-79664558D01*
X146388126Y-79721499D01*
X146361372Y-79771480D01*
X146318599Y-79816094D01*
X146263542Y-79852146D01*
X146210340Y-79873534D01*
X146152406Y-79890836D01*
X146292516Y-80047848D01*
X146332237Y-80092591D01*
X146367586Y-80132851D01*
X146396879Y-80166675D01*
X146418435Y-80192109D01*
X146430569Y-80207200D01*
X146432627Y-80210463D01*
X146423515Y-80213244D01*
X146399564Y-80215249D01*
X146365852Y-80216064D01*
X146363979Y-80216067D01*
X146295332Y-80216067D01*
X146157500Y-80059433D01*
X146019669Y-79902800D01*
X145765255Y-79902800D01*
X145765255Y-80216067D01*
X145645725Y-80216067D01*
X145645725Y-79819778D01*
X145765255Y-79819778D01*
X145942058Y-79816630D01*
X146008185Y-79815221D01*
X146057895Y-79813462D01*
X146094696Y-79811030D01*
X146122093Y-79807599D01*
X146143592Y-79802842D01*
X146162699Y-79796435D01*
X146163686Y-79796054D01*
X146216606Y-79767856D01*
X146254511Y-79731665D01*
X146276438Y-79689966D01*
X146281421Y-79645244D01*
X146268494Y-79599986D01*
X146250600Y-79572166D01*
X146225858Y-79548033D01*
X146193220Y-79529153D01*
X146150499Y-79515052D01*
X146095508Y-79505254D01*
X146026059Y-79499283D01*
X145939965Y-79496664D01*
X145902215Y-79496449D01*
X145765255Y-79496400D01*
X145765255Y-79819778D01*
X145645725Y-79819778D01*
X145645725Y-79411733D01*
X145892937Y-79411733D01*
G36*
X143534039Y-78539666D02*
G01*
X143026039Y-78539666D01*
X143026039Y-78692066D01*
X143474274Y-78692066D01*
X143474274Y-78861400D01*
X143026039Y-78861400D01*
X143026039Y-79013800D01*
X143544000Y-79013800D01*
X143544000Y-79183133D01*
X142816862Y-79183133D01*
X142816862Y-78378800D01*
X143534039Y-78378800D01*
X143534039Y-78539666D01*
G37*
X143534039Y-78539666D02*
X143026039Y-78539666D01*
X143026039Y-78692066D01*
X143474274Y-78692066D01*
X143474274Y-78861400D01*
X143026039Y-78861400D01*
X143026039Y-79013800D01*
X143544000Y-79013800D01*
X143544000Y-79183133D01*
X142816862Y-79183133D01*
X142816862Y-78378800D01*
X143534039Y-78378800D01*
X143534039Y-78539666D01*
G36*
X140440323Y-78630683D02*
G01*
X140464910Y-78693035D01*
X140487680Y-78749904D01*
X140507841Y-78799380D01*
X140524603Y-78839555D01*
X140537172Y-78868520D01*
X140544759Y-78884367D01*
X140546531Y-78886800D01*
X140550808Y-78879020D01*
X140560061Y-78856997D01*
X140573535Y-78822705D01*
X140590473Y-78778117D01*
X140610118Y-78725206D01*
X140631715Y-78665948D01*
X140640514Y-78641512D01*
X140662768Y-78579799D01*
X140683386Y-78523186D01*
X140701596Y-78473745D01*
X140716630Y-78433544D01*
X140727718Y-78404655D01*
X140734090Y-78389146D01*
X140735091Y-78387222D01*
X140748398Y-78383051D01*
X140779890Y-78380695D01*
X140827934Y-78380246D01*
X140851652Y-78380626D01*
X140961667Y-78383033D01*
X140802286Y-78783083D01*
X140642906Y-79183133D01*
X140450721Y-79183133D01*
X140352375Y-78939716D01*
X140327623Y-78878744D01*
X140304754Y-78822966D01*
X140284610Y-78774393D01*
X140268033Y-78735037D01*
X140255868Y-78706912D01*
X140248957Y-78692028D01*
X140247875Y-78690254D01*
X140243246Y-78696419D01*
X140233050Y-78716751D01*
X140218114Y-78749380D01*
X140199264Y-78792435D01*
X140177328Y-78844046D01*
X140153133Y-78902341D01*
X140141200Y-78931554D01*
X140040682Y-79178900D01*
X139944442Y-79181325D01*
X139896087Y-79181874D01*
X139864852Y-79180458D01*
X139848040Y-79176850D01*
X139843392Y-79172858D01*
X139837884Y-79159602D01*
X139827035Y-79132807D01*
X139811589Y-79094351D01*
X139792292Y-79046111D01*
X139769889Y-78989966D01*
X139745126Y-78927792D01*
X139718746Y-78861467D01*
X139691495Y-78792870D01*
X139664119Y-78723877D01*
X139637363Y-78656366D01*
X139611971Y-78592214D01*
X139588688Y-78533300D01*
X139568261Y-78481500D01*
X139551434Y-78438693D01*
X139538951Y-78406756D01*
X139531559Y-78387566D01*
X139529804Y-78382667D01*
X139539108Y-78381134D01*
X139564416Y-78380247D01*
X139601823Y-78380074D01*
X139645728Y-78380648D01*
X139761653Y-78383033D01*
X139852140Y-78634916D01*
X139874595Y-78696961D01*
X139895360Y-78753456D01*
X139913696Y-78802454D01*
X139928861Y-78842007D01*
X139940113Y-78870170D01*
X139946712Y-78884994D01*
X139948004Y-78886800D01*
X139952337Y-78879075D01*
X139962105Y-78857172D01*
X139976521Y-78822999D01*
X139994797Y-78778464D01*
X140016147Y-78725477D01*
X140039783Y-78665944D01*
X140053637Y-78630683D01*
X140153892Y-78374566D01*
X140340068Y-78374566D01*
X140440323Y-78630683D01*
G37*
X140440323Y-78630683D02*
X140464910Y-78693035D01*
X140487680Y-78749904D01*
X140507841Y-78799380D01*
X140524603Y-78839555D01*
X140537172Y-78868520D01*
X140544759Y-78884367D01*
X140546531Y-78886800D01*
X140550808Y-78879020D01*
X140560061Y-78856997D01*
X140573535Y-78822705D01*
X140590473Y-78778117D01*
X140610118Y-78725206D01*
X140631715Y-78665948D01*
X140640514Y-78641512D01*
X140662768Y-78579799D01*
X140683386Y-78523186D01*
X140701596Y-78473745D01*
X140716630Y-78433544D01*
X140727718Y-78404655D01*
X140734090Y-78389146D01*
X140735091Y-78387222D01*
X140748398Y-78383051D01*
X140779890Y-78380695D01*
X140827934Y-78380246D01*
X140851652Y-78380626D01*
X140961667Y-78383033D01*
X140802286Y-78783083D01*
X140642906Y-79183133D01*
X140450721Y-79183133D01*
X140352375Y-78939716D01*
X140327623Y-78878744D01*
X140304754Y-78822966D01*
X140284610Y-78774393D01*
X140268033Y-78735037D01*
X140255868Y-78706912D01*
X140248957Y-78692028D01*
X140247875Y-78690254D01*
X140243246Y-78696419D01*
X140233050Y-78716751D01*
X140218114Y-78749380D01*
X140199264Y-78792435D01*
X140177328Y-78844046D01*
X140153133Y-78902341D01*
X140141200Y-78931554D01*
X140040682Y-79178900D01*
X139944442Y-79181325D01*
X139896087Y-79181874D01*
X139864852Y-79180458D01*
X139848040Y-79176850D01*
X139843392Y-79172858D01*
X139837884Y-79159602D01*
X139827035Y-79132807D01*
X139811589Y-79094351D01*
X139792292Y-79046111D01*
X139769889Y-78989966D01*
X139745126Y-78927792D01*
X139718746Y-78861467D01*
X139691495Y-78792870D01*
X139664119Y-78723877D01*
X139637363Y-78656366D01*
X139611971Y-78592214D01*
X139588688Y-78533300D01*
X139568261Y-78481500D01*
X139551434Y-78438693D01*
X139538951Y-78406756D01*
X139531559Y-78387566D01*
X139529804Y-78382667D01*
X139539108Y-78381134D01*
X139564416Y-78380247D01*
X139601823Y-78380074D01*
X139645728Y-78380648D01*
X139761653Y-78383033D01*
X139852140Y-78634916D01*
X139874595Y-78696961D01*
X139895360Y-78753456D01*
X139913696Y-78802454D01*
X139928861Y-78842007D01*
X139940113Y-78870170D01*
X139946712Y-78884994D01*
X139948004Y-78886800D01*
X139952337Y-78879075D01*
X139962105Y-78857172D01*
X139976521Y-78822999D01*
X139994797Y-78778464D01*
X140016147Y-78725477D01*
X140039783Y-78665944D01*
X140053637Y-78630683D01*
X140153892Y-78374566D01*
X140340068Y-78374566D01*
X140440323Y-78630683D01*
G36*
X143633773Y-79413438D02*
G01*
X143708353Y-79415967D01*
X143508030Y-79588868D01*
X143307708Y-79761770D01*
X143515501Y-79983916D01*
X143564925Y-80036898D01*
X143610145Y-80085650D01*
X143649722Y-80128599D01*
X143682215Y-80164170D01*
X143706184Y-80190790D01*
X143720188Y-80206883D01*
X143723294Y-80211064D01*
X143714174Y-80213528D01*
X143690172Y-80215315D01*
X143656324Y-80216062D01*
X143653482Y-80216067D01*
X143583669Y-80216067D01*
X143407779Y-80027683D01*
X143362326Y-79979006D01*
X143320980Y-79934731D01*
X143285337Y-79896571D01*
X143256997Y-79866237D01*
X143237558Y-79845439D01*
X143228619Y-79835889D01*
X143228249Y-79835498D01*
X143220314Y-79839751D01*
X143201002Y-79854029D01*
X143172919Y-79876300D01*
X143138673Y-79904531D01*
X143125325Y-79915773D01*
X143026039Y-79999849D01*
X143026039Y-80216067D01*
X142916470Y-80216067D01*
X142916470Y-79411733D01*
X143026039Y-79411733D01*
X143026039Y-79881209D01*
X143202472Y-79724788D01*
X143256740Y-79676725D01*
X143312197Y-79627699D01*
X143365544Y-79580618D01*
X143413484Y-79538392D01*
X143452719Y-79503929D01*
X143469049Y-79489638D01*
X143559193Y-79410910D01*
X143633773Y-79413438D01*
G37*
X143633773Y-79413438D02*
X143708353Y-79415967D01*
X143508030Y-79588868D01*
X143307708Y-79761770D01*
X143515501Y-79983916D01*
X143564925Y-80036898D01*
X143610145Y-80085650D01*
X143649722Y-80128599D01*
X143682215Y-80164170D01*
X143706184Y-80190790D01*
X143720188Y-80206883D01*
X143723294Y-80211064D01*
X143714174Y-80213528D01*
X143690172Y-80215315D01*
X143656324Y-80216062D01*
X143653482Y-80216067D01*
X143583669Y-80216067D01*
X143407779Y-80027683D01*
X143362326Y-79979006D01*
X143320980Y-79934731D01*
X143285337Y-79896571D01*
X143256997Y-79866237D01*
X143237558Y-79845439D01*
X143228619Y-79835889D01*
X143228249Y-79835498D01*
X143220314Y-79839751D01*
X143201002Y-79854029D01*
X143172919Y-79876300D01*
X143138673Y-79904531D01*
X143125325Y-79915773D01*
X143026039Y-79999849D01*
X143026039Y-80216067D01*
X142916470Y-80216067D01*
X142916470Y-79411733D01*
X143026039Y-79411733D01*
X143026039Y-79881209D01*
X143202472Y-79724788D01*
X143256740Y-79676725D01*
X143312197Y-79627699D01*
X143365544Y-79580618D01*
X143413484Y-79538392D01*
X143452719Y-79503929D01*
X143469049Y-79489638D01*
X143559193Y-79410910D01*
X143633773Y-79413438D01*
%LPC*%
D15*
X181102000Y-71120000D03*
D16*
X149606000Y-134351347D03*
D17*
X149606000Y-136851347D03*
D18*
X175567999Y-114474001D03*
D19*
X175567999Y-109474001D03*
X175567999Y-104474001D03*
D20*
X129540000Y-99314000D03*
D21*
X129540000Y-106934000D03*
X129540000Y-112014000D03*
X149860000Y-119634000D03*
X149860000Y-109474000D03*
X149860000Y-99314000D03*
D18*
X164846000Y-76507999D03*
D19*
X169846000Y-76507999D03*
D18*
X126746000Y-129286000D03*
D19*
X121746000Y-129286000D03*
X116746000Y-129286000D03*
D22*
X178525500Y-121158000D03*
X175550500Y-121158000D03*
D23*
X184134000Y-121158000D03*
X182134000Y-121158000D03*
D24*
X175456500Y-100484000D03*
X177531500Y-100484000D03*
D18*
X128310000Y-76507999D03*
D19*
X133310000Y-76507999D03*
D15*
X181102000Y-135595000D03*
D18*
X138430000Y-129286000D03*
D19*
X133430000Y-129286000D03*
D16*
X110656380Y-109474000D03*
D17*
X108156380Y-109474000D03*
D25*
X143510000Y-90424000D03*
X151130000Y-90424000D03*
D26*
X170100000Y-90424000D03*
X177720000Y-90424000D03*
D25*
X145201000Y-127254000D03*
X152821000Y-127254000D03*
D26*
X171791000Y-127254000D03*
X179411000Y-127254000D03*
D22*
X178525500Y-97790000D03*
X175550500Y-97790000D03*
D15*
X108458000Y-135636000D03*
D24*
X175356500Y-118584000D03*
X177431500Y-118584000D03*
D15*
X108458000Y-71120000D03*
D23*
X183118000Y-97790000D03*
X181118000Y-97790000D03*
D20*
X110049000Y-87630000D03*
D21*
X112589000Y-87630000D03*
X115129000Y-87630000D03*
X117669000Y-87630000D03*
X120209000Y-87630000D03*
X122749000Y-87630000D03*
X125289000Y-87630000D03*
X127829000Y-87630000D03*
X130369000Y-87630000D03*
X132909000Y-87630000D03*
X135449000Y-87630000D03*
X137989000Y-87630000D03*
M02*
