G04 #@! TF.GenerationSoftware,KiCad,Pcbnew,7.0.9*
G04 #@! TF.CreationDate,2024-04-16T14:42:34-04:00*
G04 #@! TF.ProjectId,Converters,436f6e76-6572-4746-9572-732e6b696361,rev?*
G04 #@! TF.SameCoordinates,Original*
G04 #@! TF.FileFunction,Paste,Top*
G04 #@! TF.FilePolarity,Positive*
%FSLAX46Y46*%
G04 Gerber Fmt 4.6, Leading zero omitted, Abs format (unit mm)*
G04 Created by KiCad (PCBNEW 7.0.9) date 2024-04-16 14:42:34*
%MOMM*%
%LPD*%
G01*
G04 APERTURE LIST*
G04 Aperture macros list*
%AMRoundRect*
0 Rectangle with rounded corners*
0 $1 Rounding radius*
0 $2 $3 $4 $5 $6 $7 $8 $9 X,Y pos of 4 corners*
0 Add a 4 corners polygon primitive as box body*
4,1,4,$2,$3,$4,$5,$6,$7,$8,$9,$2,$3,0*
0 Add four circle primitives for the rounded corners*
1,1,$1+$1,$2,$3*
1,1,$1+$1,$4,$5*
1,1,$1+$1,$6,$7*
1,1,$1+$1,$8,$9*
0 Add four rect primitives between the rounded corners*
20,1,$1+$1,$2,$3,$4,$5,0*
20,1,$1+$1,$4,$5,$6,$7,0*
20,1,$1+$1,$6,$7,$8,$9,0*
20,1,$1+$1,$8,$9,$2,$3,0*%
G04 Aperture macros list end*
%ADD10RoundRect,0.250000X-0.450000X0.350000X-0.450000X-0.350000X0.450000X-0.350000X0.450000X0.350000X0*%
%ADD11R,3.800000X4.800000*%
%ADD12RoundRect,0.250000X0.350000X0.450000X-0.350000X0.450000X-0.350000X-0.450000X0.350000X-0.450000X0*%
%ADD13R,0.650000X1.560000*%
%ADD14RoundRect,0.250000X0.325000X0.450000X-0.325000X0.450000X-0.325000X-0.450000X0.325000X-0.450000X0*%
%ADD15RoundRect,0.250001X0.462499X0.624999X-0.462499X0.624999X-0.462499X-0.624999X0.462499X-0.624999X0*%
%ADD16RoundRect,0.250001X-0.624999X0.462499X-0.624999X-0.462499X0.624999X-0.462499X0.624999X0.462499X0*%
%ADD17RoundRect,0.250000X-0.475000X0.337500X-0.475000X-0.337500X0.475000X-0.337500X0.475000X0.337500X0*%
%ADD18RoundRect,0.250001X-0.354999X-0.374999X0.354999X-0.374999X0.354999X0.374999X-0.354999X0.374999X0*%
%ADD19RoundRect,0.100000X-0.687500X-0.100000X0.687500X-0.100000X0.687500X0.100000X-0.687500X0.100000X0*%
%ADD20RoundRect,0.250000X-0.350000X-0.450000X0.350000X-0.450000X0.350000X0.450000X-0.350000X0.450000X0*%
%ADD21RoundRect,0.250000X0.450000X-0.350000X0.450000X0.350000X-0.450000X0.350000X-0.450000X-0.350000X0*%
%ADD22RoundRect,0.250000X0.475000X-0.337500X0.475000X0.337500X-0.475000X0.337500X-0.475000X-0.337500X0*%
%ADD23RoundRect,0.250001X0.624999X-0.462499X0.624999X0.462499X-0.624999X0.462499X-0.624999X-0.462499X0*%
%ADD24RoundRect,0.250000X-0.625000X0.400000X-0.625000X-0.400000X0.625000X-0.400000X0.625000X0.400000X0*%
%ADD25RoundRect,0.250000X-0.450000X0.325000X-0.450000X-0.325000X0.450000X-0.325000X0.450000X0.325000X0*%
%ADD26RoundRect,0.250000X1.500000X0.650000X-1.500000X0.650000X-1.500000X-0.650000X1.500000X-0.650000X0*%
G04 APERTURE END LIST*
D10*
X154127200Y-129606800D03*
X154127200Y-131606800D03*
D11*
X108775000Y-109200000D03*
X118675000Y-109200000D03*
D12*
X134500000Y-132000000D03*
X132500000Y-132000000D03*
D13*
X160086000Y-123139200D03*
X161986000Y-123139200D03*
X161986000Y-125839200D03*
X161036000Y-125839200D03*
X160086000Y-125839200D03*
D14*
X110179200Y-122812200D03*
X112229200Y-122812200D03*
D15*
X113044300Y-119380000D03*
X110069300Y-119380000D03*
D16*
X134416800Y-113919000D03*
X134416800Y-116894000D03*
D10*
X142240000Y-124813923D03*
X142240000Y-126813923D03*
D17*
X130300000Y-77040423D03*
X130300000Y-79115423D03*
X166878000Y-118188423D03*
X166878000Y-120263423D03*
D10*
X123579200Y-130812200D03*
X123579200Y-128812200D03*
D18*
X117829200Y-119837200D03*
X117829200Y-121387200D03*
X119329200Y-119837200D03*
X119329200Y-121387200D03*
D19*
X115716700Y-118662200D03*
X115716700Y-119312200D03*
X115716700Y-119962200D03*
X115716700Y-120612200D03*
X115716700Y-121262200D03*
X115716700Y-121912200D03*
X115716700Y-122562200D03*
X121441700Y-122562200D03*
X121441700Y-121912200D03*
X121441700Y-121262200D03*
X121441700Y-120612200D03*
X121441700Y-119962200D03*
X121441700Y-119312200D03*
X121441700Y-118662200D03*
D20*
X170958000Y-107795923D03*
X172958000Y-107795923D03*
D21*
X179900000Y-84100000D03*
X179900000Y-82100000D03*
D22*
X130048000Y-91582923D03*
X130048000Y-89507923D03*
D20*
X126577600Y-120497600D03*
X124577600Y-120497600D03*
D16*
X128320800Y-113904700D03*
X128320800Y-116879700D03*
D22*
X175600000Y-89900000D03*
X175600000Y-87825000D03*
D23*
X175514000Y-116939923D03*
X175514000Y-113964923D03*
D17*
X155702000Y-119458423D03*
X155702000Y-121533423D03*
D24*
X146608800Y-120370000D03*
X146608800Y-123470000D03*
D20*
X170800000Y-94600000D03*
X172800000Y-94600000D03*
D21*
X139100000Y-126500000D03*
X139100000Y-124500000D03*
D10*
X175514000Y-118987923D03*
X175514000Y-120987923D03*
D25*
X120279200Y-128737200D03*
X120279200Y-126687200D03*
D16*
X131368800Y-113904700D03*
X131368800Y-116879700D03*
D26*
X129300000Y-108600000D03*
X124300000Y-108600000D03*
D10*
X127609600Y-126984000D03*
X127609600Y-124984000D03*
D21*
X133705600Y-137448800D03*
X133705600Y-135448800D03*
D25*
X123579200Y-126737200D03*
X123579200Y-124687200D03*
D16*
X137236800Y-113915700D03*
X137236800Y-116890700D03*
X179900000Y-86132000D03*
X179900000Y-89107000D03*
D20*
X129556000Y-122682000D03*
X131556000Y-122682000D03*
D13*
X168976000Y-125147923D03*
X169926000Y-125147923D03*
X170876000Y-125147923D03*
X170876000Y-122447923D03*
X168976000Y-122447923D03*
M02*
