M48
; DRILL file {KiCad 7.0.1} date Sat 08 Apr 2023 05:40:33 PM EDT
; FORMAT={-:-/ absolute / metric / decimal}
; #@! TF.CreationDate,2023-04-08T17:40:33-04:00
; #@! TF.GenerationSoftware,Kicad,Pcbnew,7.0.1
; #@! TF.FileFunction,Plated,1,2,PTH
FMAT,2
METRIC
; #@! TA.AperFunction,Plated,PTH,ViaDrill
T1C0.400
; #@! TA.AperFunction,Plated,PTH,ComponentDrill
T2C0.800
; #@! TA.AperFunction,Plated,PTH,ComponentDrill
T3C1.200
; #@! TA.AperFunction,Plated,PTH,ComponentDrill
T4C1.295
; #@! TA.AperFunction,Plated,PTH,ComponentDrill
T5C1.540
; #@! TA.AperFunction,Plated,PTH,ComponentDrill
T6C1.980
; #@! TA.AperFunction,Plated,PTH,ComponentDrill
T7C3.200
%
G90
G05
T1
X112.014Y-138.684
X123.19Y-135.636
X133.35Y-135.636
X137.16Y-115.57
X139.196Y-115.574
X162.048Y-117.606
X162.183Y-115.693
X163.322Y-95.504
X165.1Y-123.063
X174.498Y-134.874
T2
X108.156Y-109.474
X110.656Y-109.474
X149.606Y-134.351
X149.606Y-136.851
T3
X110.049Y-87.63
X112.589Y-87.63
X115.129Y-87.63
X117.669Y-87.63
X120.209Y-87.63
X122.749Y-87.63
X125.289Y-87.63
X127.829Y-87.63
X130.369Y-87.63
X132.909Y-87.63
X135.449Y-87.63
X137.989Y-87.63
T4
X116.746Y-129.286
X121.746Y-129.286
X126.746Y-129.286
X128.31Y-76.508
X133.31Y-76.508
X133.43Y-129.286
X138.43Y-129.286
X151.515Y-76.505
X156.515Y-76.505
X164.846Y-76.508
X169.846Y-76.508
X175.568Y-104.474
X175.568Y-109.474
X175.568Y-114.474
T5
X129.54Y-99.314
X129.54Y-106.934
X129.54Y-112.014
X149.86Y-99.314
X149.86Y-109.474
X149.86Y-119.634
T6
X143.51Y-90.424
X145.201Y-127.254
X151.13Y-90.424
X152.821Y-127.254
X170.1Y-90.424
X171.791Y-127.254
X177.72Y-90.424
X179.411Y-127.254
T7
X108.458Y-71.12
X108.458Y-135.636
X181.102Y-71.12
X181.102Y-135.595
T0
M30
