%TF.GenerationSoftware,KiCad,Pcbnew,6.0.1+dfsg-1*%
%TF.CreationDate,2022-01-27T15:04:52+00:00*%
%TF.ProjectId,powerbox,706f7765-7262-46f7-982e-6b696361645f,rev?*%
%TF.SameCoordinates,Original*%
%TF.FileFunction,Soldermask,Top*%
%TF.FilePolarity,Negative*%
%FSLAX46Y46*%
G04 Gerber Fmt 4.6, Leading zero omitted, Abs format (unit mm)*
G04 Created by KiCad (PCBNEW 6.0.1+dfsg-1) date 2022-01-27 15:04:52*
%MOMM*%
%LPD*%
G01*
G04 APERTURE LIST*
G04 Aperture macros list*
%AMRoundRect*
0 Rectangle with rounded corners*
0 $1 Rounding radius*
0 $2 $3 $4 $5 $6 $7 $8 $9 X,Y pos of 4 corners*
0 Add a 4 corners polygon primitive as box body*
4,1,4,$2,$3,$4,$5,$6,$7,$8,$9,$2,$3,0*
0 Add four circle primitives for the rounded corners*
1,1,$1+$1,$2,$3*
1,1,$1+$1,$4,$5*
1,1,$1+$1,$6,$7*
1,1,$1+$1,$8,$9*
0 Add four rect primitives between the rounded corners*
20,1,$1+$1,$2,$3,$4,$5,0*
20,1,$1+$1,$4,$5,$6,$7,0*
20,1,$1+$1,$6,$7,$8,$9,0*
20,1,$1+$1,$8,$9,$2,$3,0*%
G04 Aperture macros list end*
%ADD10R,0.800000X0.900000*%
%ADD11R,1.200000X0.900000*%
%ADD12O,5.200000X2.600000*%
%ADD13O,2.600000X5.200000*%
%ADD14C,3.000000*%
%ADD15R,5.000000X3.100000*%
%ADD16RoundRect,0.250000X0.450000X-0.350000X0.450000X0.350000X-0.450000X0.350000X-0.450000X-0.350000X0*%
%ADD17R,1.500000X1.500000*%
%ADD18C,1.500000*%
%ADD19RoundRect,0.250000X-0.450000X0.350000X-0.450000X-0.350000X0.450000X-0.350000X0.450000X0.350000X0*%
%ADD20RoundRect,0.250001X0.624999X-0.462499X0.624999X0.462499X-0.624999X0.462499X-0.624999X-0.462499X0*%
%ADD21R,2.500000X2.500000*%
%ADD22O,2.500000X2.500000*%
%ADD23C,6.400000*%
%ADD24R,1.200000X2.200000*%
%ADD25R,5.800000X6.400000*%
%ADD26C,2.500000*%
%ADD27RoundRect,0.250000X-0.337500X-0.475000X0.337500X-0.475000X0.337500X0.475000X-0.337500X0.475000X0*%
%ADD28RoundRect,0.250000X0.337500X0.475000X-0.337500X0.475000X-0.337500X-0.475000X0.337500X-0.475000X0*%
%ADD29RoundRect,0.250000X0.475000X-0.337500X0.475000X0.337500X-0.475000X0.337500X-0.475000X-0.337500X0*%
%ADD30R,0.600000X1.550000*%
%ADD31R,3.100000X2.600000*%
%ADD32R,3.500000X1.800000*%
G04 APERTURE END LIST*
D10*
%TO.C,D2*%
X171130000Y-136890000D03*
X170180000Y-134890000D03*
X169230000Y-136890000D03*
%TD*%
%TO.C,D3*%
X165415000Y-136890000D03*
X164465000Y-134890000D03*
X163515000Y-136890000D03*
%TD*%
D11*
%TO.C,D4*%
X156845000Y-119000000D03*
X156845000Y-122300000D03*
%TD*%
D12*
%TO.C,J2*%
X184150000Y-145000000D03*
X184150000Y-151250000D03*
D13*
X188950000Y-148000000D03*
%TD*%
D14*
%TO.C,J8*%
X143510000Y-102235000D03*
X151760000Y-102235000D03*
%TD*%
D15*
%TO.C,L1*%
X124930000Y-113284000D03*
X113830000Y-113284000D03*
%TD*%
D16*
%TO.C,R6*%
X141732000Y-136636000D03*
X141732000Y-134636000D03*
%TD*%
D14*
%TO.C,SW2*%
X189865000Y-105410000D03*
X189865000Y-113660000D03*
%TD*%
D17*
%TO.C,J3*%
X122555000Y-143510000D03*
D18*
X125055000Y-143510000D03*
X127055000Y-143510000D03*
X129555000Y-143510000D03*
X122555000Y-146130000D03*
X125055000Y-146130000D03*
X127055000Y-146130000D03*
X129555000Y-146130000D03*
D14*
X132625000Y-143160000D03*
X119485000Y-148840000D03*
X132625000Y-148840000D03*
X119485000Y-143160000D03*
%TD*%
D19*
%TO.C,R1*%
X175895000Y-135255000D03*
X175895000Y-137255000D03*
%TD*%
D20*
%TO.C,D1*%
X180975000Y-137595000D03*
X180975000Y-134620000D03*
%TD*%
D21*
%TO.C,K1*%
X165735000Y-118745000D03*
D22*
X167735000Y-124745000D03*
X179935000Y-124745000D03*
X179935000Y-112745000D03*
X167735000Y-112745000D03*
%TD*%
D23*
%TO.C,REF\u002A\u002A*%
X195580000Y-96520000D03*
%TD*%
D14*
%TO.C,SW1*%
X189865000Y-124460000D03*
X189865000Y-132710000D03*
%TD*%
D20*
%TO.C,D6*%
X136652000Y-137144000D03*
X136652000Y-134169000D03*
%TD*%
D23*
%TO.C,REF\u002A\u002A*%
X111760000Y-154940000D03*
%TD*%
%TO.C,REF\u002A\u002A*%
X111760000Y-96520000D03*
%TD*%
D17*
%TO.C,J4*%
X140335000Y-143510000D03*
D18*
X142835000Y-143510000D03*
X144835000Y-143510000D03*
X147335000Y-143510000D03*
X140335000Y-146130000D03*
X142835000Y-146130000D03*
X144835000Y-146130000D03*
X147335000Y-146130000D03*
D14*
X150405000Y-143160000D03*
X150405000Y-148840000D03*
X137265000Y-143160000D03*
X137265000Y-148840000D03*
%TD*%
D24*
%TO.C,Q1*%
X152395000Y-126820000D03*
D25*
X150115000Y-133120000D03*
D24*
X147835000Y-126820000D03*
%TD*%
D19*
%TO.C,R2*%
X156972000Y-126524000D03*
X156972000Y-128524000D03*
%TD*%
D23*
%TO.C,REF\u002A\u002A*%
X195580000Y-154940000D03*
%TD*%
D14*
%TO.C,J1*%
X171450000Y-102235000D03*
X179700000Y-102235000D03*
%TD*%
%TO.C,J7*%
X123825000Y-102235000D03*
X132075000Y-102235000D03*
%TD*%
D26*
%TO.C,F1*%
X172470000Y-143080000D03*
X172470000Y-146480000D03*
X159000000Y-143080000D03*
X159000000Y-146480000D03*
%TD*%
%TO.C,F2*%
X158873000Y-153240000D03*
X158873000Y-156640000D03*
X172343000Y-153240000D03*
X172343000Y-156640000D03*
%TD*%
D27*
%TO.C,C6*%
X117813000Y-133604000D03*
X119888000Y-133604000D03*
%TD*%
D28*
%TO.C,C1*%
X134641500Y-114300000D03*
X132566500Y-114300000D03*
%TD*%
%TO.C,C2*%
X134620000Y-118364000D03*
X132545000Y-118364000D03*
%TD*%
D29*
%TO.C,C3*%
X139192000Y-117877500D03*
X139192000Y-115802500D03*
%TD*%
D27*
%TO.C,C5*%
X117813000Y-129540000D03*
X119888000Y-129540000D03*
%TD*%
%TO.C,C7*%
X117813000Y-137668000D03*
X119888000Y-137668000D03*
%TD*%
D30*
%TO.C,U1*%
X135255000Y-127160000D03*
X136525000Y-127160000D03*
X137795000Y-127160000D03*
X139065000Y-127160000D03*
X139065000Y-121760000D03*
X137795000Y-121760000D03*
X136525000Y-121760000D03*
X135255000Y-121760000D03*
D31*
X137160000Y-124460000D03*
%TD*%
D32*
%TO.C,D5*%
X124888000Y-124460000D03*
X119888000Y-124460000D03*
%TD*%
D29*
%TO.C,C4*%
X131064000Y-127021500D03*
X131064000Y-124946500D03*
%TD*%
M02*
