M48
; DRILL file {KiCad 6.0.1+dfsg-1} date Thu Jan 27 04:29:47 2022
; FORMAT={-:-/ absolute / metric / decimal}
; #@! TF.CreationDate,2022-01-27T04:29:47+00:00
; #@! TF.GenerationSoftware,Kicad,Pcbnew,6.0.1+dfsg-1
; #@! TF.FileFunction,Plated,1,2,PTH
FMAT,2
METRIC
; #@! TA.AperFunction,Plated,PTH,ComponentDrill
T1C0.300
; #@! TA.AperFunction,Plated,PTH,ComponentDrill
T2C0.800
; #@! TA.AperFunction,Plated,PTH,ComponentDrill
T3C0.920
; #@! TA.AperFunction,Plated,PTH,ComponentDrill
T4C1.300
; #@! TA.AperFunction,Plated,PTH,ComponentDrill
T5C1.600
; #@! TA.AperFunction,Plated,PTH,ComponentDrill
T6C2.000
; #@! TA.AperFunction,Plated,PTH,ComponentDrill
T7C2.300
; #@! TA.AperFunction,Plated,PTH,ComponentDrill
T8C3.200
%
G90
G05
T1
X135.36Y-123.86
X135.36Y-125.06
X136.56Y-123.86
X136.56Y-125.06
X137.86Y-123.86
X137.86Y-125.06
X138.96Y-123.86
X138.96Y-125.06
T3
X122.555Y-143.51
X122.555Y-146.13
X125.055Y-143.51
X125.055Y-146.13
X127.055Y-143.51
X127.055Y-146.13
X129.555Y-143.51
X129.555Y-146.13
X140.335Y-143.51
X140.335Y-146.13
X142.835Y-143.51
X142.835Y-146.13
X144.835Y-143.51
X144.835Y-146.13
X147.335Y-143.51
X147.335Y-146.13
T4
X165.735Y-118.745
X167.735Y-112.745
X167.735Y-124.745
X179.935Y-112.745
X179.935Y-124.745
T5
X158.873Y-153.24
X158.873Y-156.64
X159.0Y-143.08
X159.0Y-146.48
X172.343Y-153.24
X172.343Y-156.64
X172.47Y-143.08
X172.47Y-146.48
T6
X123.825Y-102.235
X132.075Y-102.235
X143.51Y-102.235
X151.76Y-102.235
X171.45Y-102.235
X179.7Y-102.235
X189.865Y-105.41
X189.865Y-113.66
X189.865Y-124.46
X189.865Y-132.71
T7
X119.485Y-143.16
X119.485Y-148.84
X132.625Y-143.16
X132.625Y-148.84
X137.265Y-143.16
X137.265Y-148.84
X150.405Y-143.16
X150.405Y-148.84
T8
X111.76Y-96.52
X111.76Y-154.94
X195.58Y-96.52
X195.58Y-154.94
T2
G00X183.05Y-145.0
M15
G01X185.25Y-145.0
M16
G05
G00X183.05Y-151.25
M15
G01X185.25Y-151.25
M16
G05
G00X188.95Y-149.1
M15
G01X188.95Y-146.9
M16
G05
T0
M30
