%TF.GenerationSoftware,KiCad,Pcbnew,6.0.1+dfsg-1*%
%TF.CreationDate,2022-01-27T15:04:52+00:00*%
%TF.ProjectId,powerbox,706f7765-7262-46f7-982e-6b696361645f,rev?*%
%TF.SameCoordinates,Original*%
%TF.FileFunction,Copper,L2,Bot*%
%TF.FilePolarity,Positive*%
%FSLAX46Y46*%
G04 Gerber Fmt 4.6, Leading zero omitted, Abs format (unit mm)*
G04 Created by KiCad (PCBNEW 6.0.1+dfsg-1) date 2022-01-27 15:04:52*
%MOMM*%
%LPD*%
G01*
G04 APERTURE LIST*
%TA.AperFunction,ComponentPad*%
%ADD10O,5.200000X2.600000*%
%TD*%
%TA.AperFunction,ComponentPad*%
%ADD11O,2.600000X5.200000*%
%TD*%
%TA.AperFunction,ComponentPad*%
%ADD12C,3.000000*%
%TD*%
%TA.AperFunction,ComponentPad*%
%ADD13R,1.500000X1.500000*%
%TD*%
%TA.AperFunction,ComponentPad*%
%ADD14C,1.500000*%
%TD*%
%TA.AperFunction,ComponentPad*%
%ADD15R,2.500000X2.500000*%
%TD*%
%TA.AperFunction,ComponentPad*%
%ADD16O,2.500000X2.500000*%
%TD*%
%TA.AperFunction,ComponentPad*%
%ADD17C,6.400000*%
%TD*%
%TA.AperFunction,ComponentPad*%
%ADD18C,2.500000*%
%TD*%
%TA.AperFunction,ComponentPad*%
%ADD19C,0.600000*%
%TD*%
%TA.AperFunction,SMDPad,CuDef*%
%ADD20R,4.500000X2.950000*%
%TD*%
%TA.AperFunction,ViaPad*%
%ADD21C,0.800000*%
%TD*%
%TA.AperFunction,Conductor*%
%ADD22C,5.080000*%
%TD*%
%TA.AperFunction,Conductor*%
%ADD23C,2.540000*%
%TD*%
%TA.AperFunction,Conductor*%
%ADD24C,7.620000*%
%TD*%
G04 APERTURE END LIST*
D10*
%TO.P,J2,1,In*%
%TO.N,Net-(J2-Pad1)*%
X184150000Y-145000000D03*
%TO.P,J2,2,Ext*%
%TO.N,GND*%
X184150000Y-151250000D03*
D11*
%TO.P,J2,3*%
%TO.N,N/C*%
X188950000Y-148000000D03*
%TD*%
D12*
%TO.P,J8,1,Pin_1*%
%TO.N,GND*%
X143510000Y-102235000D03*
%TO.P,J8,2,Pin_2*%
%TO.N,+24V*%
X151760000Y-102235000D03*
%TD*%
%TO.P,SW2,1,Pin_1*%
%TO.N,Net-(J1-Pad2)*%
X189865000Y-105410000D03*
%TO.P,SW2,2,Pin_2*%
%TO.N,Net-(K1-Pad4)*%
X189865000Y-113660000D03*
%TD*%
D13*
%TO.P,J3,1,VBUS*%
%TO.N,+5V*%
X122555000Y-143510000D03*
D14*
%TO.P,J3,2,D-*%
%TO.N,unconnected-(J3-Pad2)*%
X125055000Y-143510000D03*
%TO.P,J3,3,D+*%
%TO.N,unconnected-(J3-Pad3)*%
X127055000Y-143510000D03*
%TO.P,J3,4,GND*%
%TO.N,GND*%
X129555000Y-143510000D03*
%TO.P,J3,5,VBUS*%
%TO.N,+5V*%
X122555000Y-146130000D03*
%TO.P,J3,6,D-*%
%TO.N,unconnected-(J3-Pad6)*%
X125055000Y-146130000D03*
%TO.P,J3,7,D+*%
%TO.N,unconnected-(J3-Pad7)*%
X127055000Y-146130000D03*
%TO.P,J3,8,GND*%
%TO.N,GND*%
X129555000Y-146130000D03*
D12*
%TO.P,J3,9,Shield*%
X132625000Y-143160000D03*
X119485000Y-148840000D03*
X132625000Y-148840000D03*
X119485000Y-143160000D03*
%TD*%
D15*
%TO.P,K1,1*%
%TO.N,Net-(F1-Pad1)*%
X165735000Y-118745000D03*
D16*
%TO.P,K1,2*%
%TO.N,Net-(D2-Pad2)*%
X167735000Y-124745000D03*
%TO.P,K1,3*%
%TO.N,Net-(D1-Pad2)*%
X179935000Y-124745000D03*
%TO.P,K1,4*%
%TO.N,Net-(K1-Pad4)*%
X179935000Y-112745000D03*
%TO.P,K1,5*%
%TO.N,Net-(D1-Pad2)*%
X167735000Y-112745000D03*
%TD*%
D17*
%TO.P,REF\u002A\u002A,1*%
%TO.N,GND*%
X195580000Y-96520000D03*
%TD*%
D12*
%TO.P,SW1,1,Pin_1*%
%TO.N,Net-(D1-Pad2)*%
X189865000Y-124460000D03*
%TO.P,SW1,2,Pin_2*%
%TO.N,Net-(J2-Pad1)*%
X189865000Y-132710000D03*
%TD*%
D17*
%TO.P,REF\u002A\u002A,1*%
%TO.N,GND*%
X111760000Y-154940000D03*
%TD*%
%TO.P,REF\u002A\u002A,1*%
%TO.N,GND*%
X111760000Y-96520000D03*
%TD*%
D13*
%TO.P,J4,1,VBUS*%
%TO.N,+5V*%
X140335000Y-143510000D03*
D14*
%TO.P,J4,2,D-*%
%TO.N,unconnected-(J4-Pad2)*%
X142835000Y-143510000D03*
%TO.P,J4,3,D+*%
%TO.N,unconnected-(J4-Pad3)*%
X144835000Y-143510000D03*
%TO.P,J4,4,GND*%
%TO.N,GND*%
X147335000Y-143510000D03*
%TO.P,J4,5,VBUS*%
%TO.N,+5V*%
X140335000Y-146130000D03*
%TO.P,J4,6,D-*%
%TO.N,unconnected-(J4-Pad6)*%
X142835000Y-146130000D03*
%TO.P,J4,7,D+*%
%TO.N,unconnected-(J4-Pad7)*%
X144835000Y-146130000D03*
%TO.P,J4,8,GND*%
%TO.N,GND*%
X147335000Y-146130000D03*
D12*
%TO.P,J4,9,Shield*%
X150405000Y-143160000D03*
X150405000Y-148840000D03*
X137265000Y-143160000D03*
X137265000Y-148840000D03*
%TD*%
D17*
%TO.P,REF\u002A\u002A,1*%
%TO.N,GND*%
X195580000Y-154940000D03*
%TD*%
D12*
%TO.P,J1,1,Pin_1*%
%TO.N,GND*%
X171450000Y-102235000D03*
%TO.P,J1,2,Pin_2*%
%TO.N,Net-(J1-Pad2)*%
X179700000Y-102235000D03*
%TD*%
%TO.P,J7,1,Pin_1*%
%TO.N,GND*%
X123825000Y-102235000D03*
%TO.P,J7,2,Pin_2*%
%TO.N,+5V*%
X132075000Y-102235000D03*
%TD*%
D18*
%TO.P,F1,1*%
%TO.N,Net-(F1-Pad1)*%
X172470000Y-143080000D03*
X172470000Y-146480000D03*
%TO.P,F1,2*%
%TO.N,Net-(F1-Pad2)*%
X159000000Y-143080000D03*
X159000000Y-146480000D03*
%TD*%
%TO.P,F2,1*%
%TO.N,Net-(C5-Pad1)*%
X158873000Y-153240000D03*
X158873000Y-156640000D03*
%TO.P,F2,2*%
%TO.N,+5V*%
X172343000Y-153240000D03*
X172343000Y-156640000D03*
%TD*%
D19*
%TO.P,U1,9*%
%TO.N,GND*%
X137860000Y-123860000D03*
X135360000Y-125060000D03*
D20*
X137160000Y-124460000D03*
D19*
X135360000Y-123860000D03*
X138960000Y-125060000D03*
X137860000Y-125060000D03*
X136560000Y-125060000D03*
X138960000Y-123860000D03*
X136560000Y-123860000D03*
%TD*%
D21*
%TO.N,GND*%
X133350000Y-123825000D03*
X133350000Y-125095000D03*
%TD*%
D22*
%TO.N,Net-(D1-Pad2)*%
X180220000Y-124460000D02*
X179935000Y-124745000D01*
X189865000Y-124460000D02*
X180220000Y-124460000D01*
D23*
%TO.N,+5V*%
X137033000Y-137287000D02*
X125488000Y-137287000D01*
X132075000Y-102235000D02*
X146621500Y-116781500D01*
X163449000Y-149733000D02*
X157289500Y-149733000D01*
X146621500Y-132778500D02*
X142113000Y-137287000D01*
X125488000Y-137287000D02*
X122555000Y-140220000D01*
X140335000Y-146130000D02*
X140335000Y-143510000D01*
X172343000Y-156640000D02*
X172343000Y-153240000D01*
X140335000Y-140589000D02*
X137033000Y-137287000D01*
X140335000Y-143510000D02*
X140335000Y-140589000D01*
X146621500Y-116781500D02*
X146621500Y-132778500D01*
X147193000Y-137287000D02*
X142113000Y-137287000D01*
X122555000Y-140220000D02*
X122555000Y-146130000D01*
X157289500Y-149733000D02*
X154749500Y-147193000D01*
X154749500Y-147193000D02*
X154749500Y-139827000D01*
X152209500Y-137287000D02*
X147193000Y-137287000D01*
X166956000Y-153240000D02*
X163449000Y-149733000D01*
X140652500Y-137287000D02*
X137033000Y-137287000D01*
X166956000Y-153240000D02*
X172343000Y-153240000D01*
X154749500Y-139827000D02*
X152209500Y-137287000D01*
X142113000Y-137287000D02*
X140652500Y-137287000D01*
D22*
%TO.N,Net-(J1-Pad2)*%
X189865000Y-105410000D02*
X182875000Y-105410000D01*
X182875000Y-105410000D02*
X179700000Y-102235000D01*
%TO.N,Net-(J2-Pad1)*%
X189865000Y-139285000D02*
X184150000Y-145000000D01*
X189865000Y-132710000D02*
X189865000Y-139285000D01*
%TO.N,Net-(K1-Pad4)*%
X180850000Y-113660000D02*
X179935000Y-112745000D01*
X189865000Y-113660000D02*
X180850000Y-113660000D01*
D24*
%TO.N,Net-(F1-Pad1)*%
X160655000Y-118745000D02*
X157480000Y-121920000D01*
X165735000Y-118745000D02*
X160655000Y-118745000D01*
X157480000Y-121920000D02*
X157480000Y-131490000D01*
X157480000Y-131490000D02*
X172470000Y-146480000D01*
X172470000Y-143080000D02*
X172470000Y-146480000D01*
%TD*%
%TA.AperFunction,Conductor*%
%TO.N,GND*%
G36*
X200094121Y-91968002D02*
G01*
X200140614Y-92021658D01*
X200152000Y-92074000D01*
X200152000Y-159386000D01*
X200131998Y-159454121D01*
X200078342Y-159500614D01*
X200026000Y-159512000D01*
X107314000Y-159512000D01*
X107245879Y-159491998D01*
X107199386Y-159438342D01*
X107188000Y-159386000D01*
X107188000Y-150429654D01*
X118260618Y-150429654D01*
X118267673Y-150439627D01*
X118298679Y-150465551D01*
X118305598Y-150470579D01*
X118530272Y-150611515D01*
X118537807Y-150615556D01*
X118779520Y-150724694D01*
X118787551Y-150727680D01*
X119041832Y-150803002D01*
X119050184Y-150804869D01*
X119312340Y-150844984D01*
X119320874Y-150845700D01*
X119586045Y-150849867D01*
X119594596Y-150849418D01*
X119857883Y-150817557D01*
X119866284Y-150815955D01*
X120122824Y-150748653D01*
X120130926Y-150745926D01*
X120375949Y-150644434D01*
X120383617Y-150640628D01*
X120612598Y-150506822D01*
X120619679Y-150502009D01*
X120699655Y-150439301D01*
X120706545Y-150429654D01*
X131400618Y-150429654D01*
X131407673Y-150439627D01*
X131438679Y-150465551D01*
X131445598Y-150470579D01*
X131670272Y-150611515D01*
X131677807Y-150615556D01*
X131919520Y-150724694D01*
X131927551Y-150727680D01*
X132181832Y-150803002D01*
X132190184Y-150804869D01*
X132452340Y-150844984D01*
X132460874Y-150845700D01*
X132726045Y-150849867D01*
X132734596Y-150849418D01*
X132997883Y-150817557D01*
X133006284Y-150815955D01*
X133262824Y-150748653D01*
X133270926Y-150745926D01*
X133515949Y-150644434D01*
X133523617Y-150640628D01*
X133752598Y-150506822D01*
X133759679Y-150502009D01*
X133839655Y-150439301D01*
X133846545Y-150429654D01*
X136040618Y-150429654D01*
X136047673Y-150439627D01*
X136078679Y-150465551D01*
X136085598Y-150470579D01*
X136310272Y-150611515D01*
X136317807Y-150615556D01*
X136559520Y-150724694D01*
X136567551Y-150727680D01*
X136821832Y-150803002D01*
X136830184Y-150804869D01*
X137092340Y-150844984D01*
X137100874Y-150845700D01*
X137366045Y-150849867D01*
X137374596Y-150849418D01*
X137637883Y-150817557D01*
X137646284Y-150815955D01*
X137902824Y-150748653D01*
X137910926Y-150745926D01*
X138155949Y-150644434D01*
X138163617Y-150640628D01*
X138392598Y-150506822D01*
X138399679Y-150502009D01*
X138479655Y-150439301D01*
X138486545Y-150429654D01*
X149180618Y-150429654D01*
X149187673Y-150439627D01*
X149218679Y-150465551D01*
X149225598Y-150470579D01*
X149450272Y-150611515D01*
X149457807Y-150615556D01*
X149699520Y-150724694D01*
X149707551Y-150727680D01*
X149961832Y-150803002D01*
X149970184Y-150804869D01*
X150232340Y-150844984D01*
X150240874Y-150845700D01*
X150506045Y-150849867D01*
X150514596Y-150849418D01*
X150777883Y-150817557D01*
X150786284Y-150815955D01*
X151042824Y-150748653D01*
X151050926Y-150745926D01*
X151295949Y-150644434D01*
X151303617Y-150640628D01*
X151532598Y-150506822D01*
X151539679Y-150502009D01*
X151619655Y-150439301D01*
X151628125Y-150427442D01*
X151621608Y-150415818D01*
X150417812Y-149212022D01*
X150403868Y-149204408D01*
X150402035Y-149204539D01*
X150395420Y-149208790D01*
X149187910Y-150416300D01*
X149180618Y-150429654D01*
X138486545Y-150429654D01*
X138488125Y-150427442D01*
X138481608Y-150415818D01*
X137277812Y-149212022D01*
X137263868Y-149204408D01*
X137262035Y-149204539D01*
X137255420Y-149208790D01*
X136047910Y-150416300D01*
X136040618Y-150429654D01*
X133846545Y-150429654D01*
X133848125Y-150427442D01*
X133841608Y-150415818D01*
X132637812Y-149212022D01*
X132623868Y-149204408D01*
X132622035Y-149204539D01*
X132615420Y-149208790D01*
X131407910Y-150416300D01*
X131400618Y-150429654D01*
X120706545Y-150429654D01*
X120708125Y-150427442D01*
X120701608Y-150415818D01*
X119497812Y-149212022D01*
X119483868Y-149204408D01*
X119482035Y-149204539D01*
X119475420Y-149208790D01*
X118267910Y-150416300D01*
X118260618Y-150429654D01*
X107188000Y-150429654D01*
X107188000Y-148823204D01*
X117472665Y-148823204D01*
X117487932Y-149087969D01*
X117489005Y-149096470D01*
X117540065Y-149356722D01*
X117542276Y-149364974D01*
X117628184Y-149615894D01*
X117631499Y-149623779D01*
X117750664Y-149860713D01*
X117755020Y-149868079D01*
X117884347Y-150056250D01*
X117894601Y-150064594D01*
X117908342Y-150057448D01*
X119112978Y-148852812D01*
X119119356Y-148841132D01*
X119849408Y-148841132D01*
X119849539Y-148842965D01*
X119853790Y-148849580D01*
X121060730Y-150056520D01*
X121072939Y-150063187D01*
X121084439Y-150054497D01*
X121181831Y-149921913D01*
X121186418Y-149914685D01*
X121312962Y-149681621D01*
X121316530Y-149673827D01*
X121410271Y-149425750D01*
X121412748Y-149417544D01*
X121471954Y-149159038D01*
X121473294Y-149150577D01*
X121497031Y-148884616D01*
X121497277Y-148879677D01*
X121497666Y-148842485D01*
X121497523Y-148837519D01*
X121496547Y-148823204D01*
X130612665Y-148823204D01*
X130627932Y-149087969D01*
X130629005Y-149096470D01*
X130680065Y-149356722D01*
X130682276Y-149364974D01*
X130768184Y-149615894D01*
X130771499Y-149623779D01*
X130890664Y-149860713D01*
X130895020Y-149868079D01*
X131024347Y-150056250D01*
X131034601Y-150064594D01*
X131048342Y-150057448D01*
X132252978Y-148852812D01*
X132259356Y-148841132D01*
X132989408Y-148841132D01*
X132989539Y-148842965D01*
X132993790Y-148849580D01*
X134200730Y-150056520D01*
X134212939Y-150063187D01*
X134224439Y-150054497D01*
X134321831Y-149921913D01*
X134326418Y-149914685D01*
X134452962Y-149681621D01*
X134456530Y-149673827D01*
X134550271Y-149425750D01*
X134552748Y-149417544D01*
X134611954Y-149159038D01*
X134613294Y-149150577D01*
X134637031Y-148884616D01*
X134637277Y-148879677D01*
X134637666Y-148842485D01*
X134637523Y-148837519D01*
X134636547Y-148823204D01*
X135252665Y-148823204D01*
X135267932Y-149087969D01*
X135269005Y-149096470D01*
X135320065Y-149356722D01*
X135322276Y-149364974D01*
X135408184Y-149615894D01*
X135411499Y-149623779D01*
X135530664Y-149860713D01*
X135535020Y-149868079D01*
X135664347Y-150056250D01*
X135674601Y-150064594D01*
X135688342Y-150057448D01*
X136892978Y-148852812D01*
X136899356Y-148841132D01*
X137629408Y-148841132D01*
X137629539Y-148842965D01*
X137633790Y-148849580D01*
X138840730Y-150056520D01*
X138852939Y-150063187D01*
X138864439Y-150054497D01*
X138961831Y-149921913D01*
X138966418Y-149914685D01*
X139092962Y-149681621D01*
X139096530Y-149673827D01*
X139190271Y-149425750D01*
X139192748Y-149417544D01*
X139251954Y-149159038D01*
X139253294Y-149150577D01*
X139277031Y-148884616D01*
X139277277Y-148879677D01*
X139277666Y-148842485D01*
X139277523Y-148837519D01*
X139276547Y-148823204D01*
X148392665Y-148823204D01*
X148407932Y-149087969D01*
X148409005Y-149096470D01*
X148460065Y-149356722D01*
X148462276Y-149364974D01*
X148548184Y-149615894D01*
X148551499Y-149623779D01*
X148670664Y-149860713D01*
X148675020Y-149868079D01*
X148804347Y-150056250D01*
X148814601Y-150064594D01*
X148828342Y-150057448D01*
X150032978Y-148852812D01*
X150039356Y-148841132D01*
X150769408Y-148841132D01*
X150769539Y-148842965D01*
X150773790Y-148849580D01*
X151980730Y-150056520D01*
X151992939Y-150063187D01*
X152004439Y-150054497D01*
X152101831Y-149921913D01*
X152106418Y-149914685D01*
X152232962Y-149681621D01*
X152236530Y-149673827D01*
X152330271Y-149425750D01*
X152332748Y-149417544D01*
X152391954Y-149159038D01*
X152393294Y-149150577D01*
X152417031Y-148884616D01*
X152417277Y-148879677D01*
X152417666Y-148842485D01*
X152417523Y-148837519D01*
X152399362Y-148571123D01*
X152398201Y-148562649D01*
X152344419Y-148302944D01*
X152342120Y-148294709D01*
X152253588Y-148044705D01*
X152250191Y-148036854D01*
X152128550Y-147801178D01*
X152124122Y-147793866D01*
X152005031Y-147624417D01*
X151994509Y-147616037D01*
X151981121Y-147623089D01*
X150777022Y-148827188D01*
X150769408Y-148841132D01*
X150039356Y-148841132D01*
X150040592Y-148838868D01*
X150040461Y-148837035D01*
X150036210Y-148830420D01*
X148828814Y-147623024D01*
X148816804Y-147616466D01*
X148805064Y-147625434D01*
X148696935Y-147775911D01*
X148692418Y-147783196D01*
X148568325Y-148017567D01*
X148564839Y-148025395D01*
X148473700Y-148274446D01*
X148471311Y-148282670D01*
X148414812Y-148541795D01*
X148413563Y-148550250D01*
X148392754Y-148814653D01*
X148392665Y-148823204D01*
X139276547Y-148823204D01*
X139259362Y-148571123D01*
X139258201Y-148562649D01*
X139204419Y-148302944D01*
X139202120Y-148294709D01*
X139113588Y-148044705D01*
X139110191Y-148036854D01*
X138988550Y-147801178D01*
X138984122Y-147793866D01*
X138865031Y-147624417D01*
X138854509Y-147616037D01*
X138841121Y-147623089D01*
X137637022Y-148827188D01*
X137629408Y-148841132D01*
X136899356Y-148841132D01*
X136900592Y-148838868D01*
X136900461Y-148837035D01*
X136896210Y-148830420D01*
X135688814Y-147623024D01*
X135676804Y-147616466D01*
X135665064Y-147625434D01*
X135556935Y-147775911D01*
X135552418Y-147783196D01*
X135428325Y-148017567D01*
X135424839Y-148025395D01*
X135333700Y-148274446D01*
X135331311Y-148282670D01*
X135274812Y-148541795D01*
X135273563Y-148550250D01*
X135252754Y-148814653D01*
X135252665Y-148823204D01*
X134636547Y-148823204D01*
X134619362Y-148571123D01*
X134618201Y-148562649D01*
X134564419Y-148302944D01*
X134562120Y-148294709D01*
X134473588Y-148044705D01*
X134470191Y-148036854D01*
X134348550Y-147801178D01*
X134344122Y-147793866D01*
X134225031Y-147624417D01*
X134214509Y-147616037D01*
X134201121Y-147623089D01*
X132997022Y-148827188D01*
X132989408Y-148841132D01*
X132259356Y-148841132D01*
X132260592Y-148838868D01*
X132260461Y-148837035D01*
X132256210Y-148830420D01*
X131048814Y-147623024D01*
X131036804Y-147616466D01*
X131025064Y-147625434D01*
X130916935Y-147775911D01*
X130912418Y-147783196D01*
X130788325Y-148017567D01*
X130784839Y-148025395D01*
X130693700Y-148274446D01*
X130691311Y-148282670D01*
X130634812Y-148541795D01*
X130633563Y-148550250D01*
X130612754Y-148814653D01*
X130612665Y-148823204D01*
X121496547Y-148823204D01*
X121479362Y-148571123D01*
X121478201Y-148562649D01*
X121424419Y-148302944D01*
X121422120Y-148294709D01*
X121333588Y-148044705D01*
X121330191Y-148036854D01*
X121208550Y-147801178D01*
X121204122Y-147793866D01*
X121085031Y-147624417D01*
X121074509Y-147616037D01*
X121061121Y-147623089D01*
X119857022Y-148827188D01*
X119849408Y-148841132D01*
X119119356Y-148841132D01*
X119120592Y-148838868D01*
X119120461Y-148837035D01*
X119116210Y-148830420D01*
X117908814Y-147623024D01*
X117896804Y-147616466D01*
X117885064Y-147625434D01*
X117776935Y-147775911D01*
X117772418Y-147783196D01*
X117648325Y-148017567D01*
X117644839Y-148025395D01*
X117553700Y-148274446D01*
X117551311Y-148282670D01*
X117494812Y-148541795D01*
X117493563Y-148550250D01*
X117472754Y-148814653D01*
X117472665Y-148823204D01*
X107188000Y-148823204D01*
X107188000Y-147252500D01*
X118261584Y-147252500D01*
X118267980Y-147263770D01*
X119472188Y-148467978D01*
X119486132Y-148475592D01*
X119487965Y-148475461D01*
X119494580Y-148471210D01*
X120701604Y-147264186D01*
X120708795Y-147251017D01*
X120701473Y-147240780D01*
X120654233Y-147202115D01*
X120647261Y-147197160D01*
X120421122Y-147058582D01*
X120413552Y-147054624D01*
X120170704Y-146948022D01*
X120162644Y-146945120D01*
X119907592Y-146872467D01*
X119899214Y-146870685D01*
X119636656Y-146833318D01*
X119628111Y-146832691D01*
X119362908Y-146831302D01*
X119354374Y-146831839D01*
X119091433Y-146866456D01*
X119083035Y-146868149D01*
X118827238Y-146938127D01*
X118819143Y-146940946D01*
X118575199Y-147044997D01*
X118567577Y-147048881D01*
X118340013Y-147185075D01*
X118332981Y-147189962D01*
X118270053Y-147240377D01*
X118261584Y-147252500D01*
X107188000Y-147252500D01*
X107188000Y-144749654D01*
X118260618Y-144749654D01*
X118267673Y-144759627D01*
X118298679Y-144785551D01*
X118305598Y-144790579D01*
X118530272Y-144931515D01*
X118537807Y-144935556D01*
X118779520Y-145044694D01*
X118787551Y-145047680D01*
X119041832Y-145123002D01*
X119050184Y-145124869D01*
X119312340Y-145164984D01*
X119320874Y-145165700D01*
X119586045Y-145169867D01*
X119594596Y-145169418D01*
X119857883Y-145137557D01*
X119866284Y-145135955D01*
X120122824Y-145068653D01*
X120130926Y-145065926D01*
X120375949Y-144964434D01*
X120383617Y-144960628D01*
X120586929Y-144841822D01*
X120655836Y-144824723D01*
X120723049Y-144847592D01*
X120767228Y-144903169D01*
X120776500Y-144950610D01*
X120776500Y-146197108D01*
X120776673Y-146199433D01*
X120776673Y-146199439D01*
X120788204Y-146354599D01*
X120791103Y-146393616D01*
X120849443Y-146651441D01*
X120851135Y-146655793D01*
X120851136Y-146655795D01*
X120921244Y-146836076D01*
X120945251Y-146897811D01*
X120947568Y-146901865D01*
X120947569Y-146901867D01*
X120968293Y-146938127D01*
X121076422Y-147127313D01*
X121240075Y-147334906D01*
X121432615Y-147516030D01*
X121436458Y-147518696D01*
X121645974Y-147664042D01*
X121645979Y-147664045D01*
X121649812Y-147666704D01*
X121654001Y-147668770D01*
X121654003Y-147668771D01*
X121882706Y-147781555D01*
X121882709Y-147781556D01*
X121886894Y-147783620D01*
X121891337Y-147785042D01*
X121891339Y-147785043D01*
X121971079Y-147810568D01*
X122138653Y-147864209D01*
X122205803Y-147875145D01*
X122394947Y-147905949D01*
X122394948Y-147905949D01*
X122399559Y-147906700D01*
X122531719Y-147908430D01*
X122659202Y-147910099D01*
X122659205Y-147910099D01*
X122663879Y-147910160D01*
X122925808Y-147874514D01*
X122930298Y-147873205D01*
X122930304Y-147873204D01*
X123038268Y-147841735D01*
X123179590Y-147800543D01*
X123183837Y-147798585D01*
X123183840Y-147798584D01*
X123313892Y-147738629D01*
X123419652Y-147689873D01*
X123467737Y-147658347D01*
X123636805Y-147547501D01*
X123636810Y-147547497D01*
X123640718Y-147544935D01*
X123837933Y-147368914D01*
X124006964Y-147165676D01*
X124009385Y-147161687D01*
X124009391Y-147161678D01*
X124038453Y-147113784D01*
X124090892Y-147065923D01*
X124160882Y-147054011D01*
X124226201Y-147081828D01*
X124235267Y-147090054D01*
X124242962Y-147097749D01*
X124247471Y-147100906D01*
X124247473Y-147100908D01*
X124290422Y-147130981D01*
X124423346Y-147224056D01*
X124622924Y-147317120D01*
X124835629Y-147374115D01*
X125055000Y-147393307D01*
X125274371Y-147374115D01*
X125487076Y-147317120D01*
X125686654Y-147224056D01*
X125819578Y-147130981D01*
X125862527Y-147100908D01*
X125862529Y-147100906D01*
X125867038Y-147097749D01*
X125965905Y-146998882D01*
X126028217Y-146964856D01*
X126099032Y-146969921D01*
X126144095Y-146998882D01*
X126242962Y-147097749D01*
X126247471Y-147100906D01*
X126247473Y-147100908D01*
X126290422Y-147130981D01*
X126423346Y-147224056D01*
X126622924Y-147317120D01*
X126835629Y-147374115D01*
X127055000Y-147393307D01*
X127274371Y-147374115D01*
X127487076Y-147317120D01*
X127686654Y-147224056D01*
X127749342Y-147180161D01*
X128869393Y-147180161D01*
X128878687Y-147192175D01*
X128919088Y-147220464D01*
X128928584Y-147225947D01*
X129118113Y-147314326D01*
X129128405Y-147318072D01*
X129330401Y-147372196D01*
X129341196Y-147374099D01*
X129549525Y-147392326D01*
X129560475Y-147392326D01*
X129768804Y-147374099D01*
X129779599Y-147372196D01*
X129981595Y-147318072D01*
X129991887Y-147314326D01*
X130124473Y-147252500D01*
X131401584Y-147252500D01*
X131407980Y-147263770D01*
X132612188Y-148467978D01*
X132626132Y-148475592D01*
X132627965Y-148475461D01*
X132634580Y-148471210D01*
X133841604Y-147264186D01*
X133847985Y-147252500D01*
X136041584Y-147252500D01*
X136047980Y-147263770D01*
X137252188Y-148467978D01*
X137266132Y-148475592D01*
X137267965Y-148475461D01*
X137274580Y-148471210D01*
X138481604Y-147264186D01*
X138488795Y-147251017D01*
X138481473Y-147240780D01*
X138434233Y-147202115D01*
X138427261Y-147197160D01*
X138201122Y-147058582D01*
X138193552Y-147054624D01*
X137950704Y-146948022D01*
X137942644Y-146945120D01*
X137687592Y-146872467D01*
X137679214Y-146870685D01*
X137416656Y-146833318D01*
X137408111Y-146832691D01*
X137142908Y-146831302D01*
X137134374Y-146831839D01*
X136871433Y-146866456D01*
X136863035Y-146868149D01*
X136607238Y-146938127D01*
X136599143Y-146940946D01*
X136355199Y-147044997D01*
X136347577Y-147048881D01*
X136120013Y-147185075D01*
X136112981Y-147189962D01*
X136050053Y-147240377D01*
X136041584Y-147252500D01*
X133847985Y-147252500D01*
X133848795Y-147251017D01*
X133841473Y-147240780D01*
X133794233Y-147202115D01*
X133787261Y-147197160D01*
X133561122Y-147058582D01*
X133553552Y-147054624D01*
X133310704Y-146948022D01*
X133302644Y-146945120D01*
X133047592Y-146872467D01*
X133039214Y-146870685D01*
X132776656Y-146833318D01*
X132768111Y-146832691D01*
X132502908Y-146831302D01*
X132494374Y-146831839D01*
X132231433Y-146866456D01*
X132223035Y-146868149D01*
X131967238Y-146938127D01*
X131959143Y-146940946D01*
X131715199Y-147044997D01*
X131707577Y-147048881D01*
X131480013Y-147185075D01*
X131472981Y-147189962D01*
X131410053Y-147240377D01*
X131401584Y-147252500D01*
X130124473Y-147252500D01*
X130181416Y-147225947D01*
X130190912Y-147220464D01*
X130232148Y-147191590D01*
X130240523Y-147181112D01*
X130233457Y-147167668D01*
X129567811Y-146502021D01*
X129553868Y-146494408D01*
X129552034Y-146494539D01*
X129545420Y-146498790D01*
X128875820Y-147168391D01*
X128869393Y-147180161D01*
X127749342Y-147180161D01*
X127819578Y-147130981D01*
X127862527Y-147100908D01*
X127862529Y-147100906D01*
X127867038Y-147097749D01*
X128022749Y-146942038D01*
X128096945Y-146836076D01*
X128145899Y-146766162D01*
X128145900Y-146766160D01*
X128149056Y-146761653D01*
X128151379Y-146756671D01*
X128151382Y-146756666D01*
X128191081Y-146671530D01*
X128237998Y-146618245D01*
X128306276Y-146598784D01*
X128374235Y-146619326D01*
X128419471Y-146671530D01*
X128459054Y-146756417D01*
X128464534Y-146765907D01*
X128493411Y-146807149D01*
X128503887Y-146815523D01*
X128517334Y-146808455D01*
X129182979Y-146142811D01*
X129189356Y-146131132D01*
X129919408Y-146131132D01*
X129919539Y-146132966D01*
X129923790Y-146139580D01*
X130593391Y-146809180D01*
X130605161Y-146815607D01*
X130617176Y-146806311D01*
X130645466Y-146765907D01*
X130650946Y-146756417D01*
X130739326Y-146566887D01*
X130743072Y-146556595D01*
X130797196Y-146354599D01*
X130799099Y-146343804D01*
X130817326Y-146135475D01*
X130817326Y-146124525D01*
X130799099Y-145916196D01*
X130797196Y-145905401D01*
X130743072Y-145703405D01*
X130739326Y-145693113D01*
X130650946Y-145503583D01*
X130645466Y-145494093D01*
X130616589Y-145452851D01*
X130606113Y-145444477D01*
X130592666Y-145451545D01*
X129927021Y-146117189D01*
X129919408Y-146131132D01*
X129189356Y-146131132D01*
X129190592Y-146128868D01*
X129190461Y-146127034D01*
X129186210Y-146120420D01*
X128516609Y-145450820D01*
X128504839Y-145444393D01*
X128492824Y-145453689D01*
X128464534Y-145494093D01*
X128459054Y-145503583D01*
X128419471Y-145588470D01*
X128372554Y-145641755D01*
X128304276Y-145661216D01*
X128236316Y-145640674D01*
X128191081Y-145588470D01*
X128151382Y-145503334D01*
X128151379Y-145503329D01*
X128149056Y-145498347D01*
X128135115Y-145478437D01*
X128025908Y-145322473D01*
X128025906Y-145322470D01*
X128022749Y-145317962D01*
X127867038Y-145162251D01*
X127686654Y-145035944D01*
X127487076Y-144942880D01*
X127481763Y-144941456D01*
X127476592Y-144939574D01*
X127477066Y-144938272D01*
X127422078Y-144904757D01*
X127391055Y-144840897D01*
X127399482Y-144770402D01*
X127444684Y-144715654D01*
X127476797Y-144700989D01*
X127476592Y-144700426D01*
X127481763Y-144698544D01*
X127487076Y-144697120D01*
X127686654Y-144604056D01*
X127749342Y-144560161D01*
X128869393Y-144560161D01*
X128878687Y-144572175D01*
X128919088Y-144600464D01*
X128928584Y-144605947D01*
X129118113Y-144694326D01*
X129128409Y-144698073D01*
X129129229Y-144698293D01*
X129129550Y-144698488D01*
X129133579Y-144699955D01*
X129133284Y-144700765D01*
X129189852Y-144735243D01*
X129220875Y-144799103D01*
X129212448Y-144869598D01*
X129167246Y-144924345D01*
X129133478Y-144939767D01*
X129133579Y-144940045D01*
X129130078Y-144941319D01*
X129129229Y-144941707D01*
X129128409Y-144941927D01*
X129118113Y-144945674D01*
X128928583Y-145034054D01*
X128919093Y-145039534D01*
X128877851Y-145068411D01*
X128869477Y-145078887D01*
X128876545Y-145092334D01*
X129542189Y-145757979D01*
X129556132Y-145765592D01*
X129557966Y-145765461D01*
X129564580Y-145761210D01*
X130234180Y-145091609D01*
X130240607Y-145079839D01*
X130231313Y-145067825D01*
X130190912Y-145039536D01*
X130181416Y-145034053D01*
X129991887Y-144945674D01*
X129981591Y-144941927D01*
X129980771Y-144941707D01*
X129980450Y-144941512D01*
X129976421Y-144940045D01*
X129976716Y-144939235D01*
X129920148Y-144904757D01*
X129889125Y-144840897D01*
X129897552Y-144770402D01*
X129914683Y-144749654D01*
X131400618Y-144749654D01*
X131407673Y-144759627D01*
X131438679Y-144785551D01*
X131445598Y-144790579D01*
X131670272Y-144931515D01*
X131677807Y-144935556D01*
X131919520Y-145044694D01*
X131927551Y-145047680D01*
X132181832Y-145123002D01*
X132190184Y-145124869D01*
X132452340Y-145164984D01*
X132460874Y-145165700D01*
X132726045Y-145169867D01*
X132734596Y-145169418D01*
X132997883Y-145137557D01*
X133006284Y-145135955D01*
X133262824Y-145068653D01*
X133270926Y-145065926D01*
X133515949Y-144964434D01*
X133523617Y-144960628D01*
X133752598Y-144826822D01*
X133759679Y-144822009D01*
X133839655Y-144759301D01*
X133848125Y-144747442D01*
X133841608Y-144735818D01*
X132637812Y-143532022D01*
X132623868Y-143524408D01*
X132622035Y-143524539D01*
X132615420Y-143528790D01*
X131407910Y-144736300D01*
X131400618Y-144749654D01*
X129914683Y-144749654D01*
X129942754Y-144715655D01*
X129976522Y-144700233D01*
X129976421Y-144699955D01*
X129979922Y-144698681D01*
X129980771Y-144698293D01*
X129981591Y-144698073D01*
X129991887Y-144694326D01*
X130181416Y-144605947D01*
X130190912Y-144600464D01*
X130232148Y-144571590D01*
X130240523Y-144561112D01*
X130233457Y-144547668D01*
X129567811Y-143882021D01*
X129553868Y-143874408D01*
X129552034Y-143874539D01*
X129545420Y-143878790D01*
X128875820Y-144548391D01*
X128869393Y-144560161D01*
X127749342Y-144560161D01*
X127867038Y-144477749D01*
X128022749Y-144322038D01*
X128035130Y-144304357D01*
X128145899Y-144146162D01*
X128145900Y-144146160D01*
X128149056Y-144141653D01*
X128151379Y-144136671D01*
X128151382Y-144136666D01*
X128191081Y-144051530D01*
X128237998Y-143998245D01*
X128306276Y-143978784D01*
X128374235Y-143999326D01*
X128419471Y-144051530D01*
X128459054Y-144136417D01*
X128464534Y-144145907D01*
X128493411Y-144187149D01*
X128503887Y-144195523D01*
X128517334Y-144188455D01*
X129182979Y-143522811D01*
X129189356Y-143511132D01*
X129919408Y-143511132D01*
X129919539Y-143512966D01*
X129923790Y-143519580D01*
X130593391Y-144189180D01*
X130605161Y-144195607D01*
X130617176Y-144186311D01*
X130645466Y-144145907D01*
X130650393Y-144137374D01*
X130701775Y-144088380D01*
X130771489Y-144074943D01*
X130837400Y-144101330D01*
X130872077Y-144143758D01*
X130890661Y-144180707D01*
X130895020Y-144188079D01*
X131024347Y-144376250D01*
X131034601Y-144384594D01*
X131048342Y-144377448D01*
X132252978Y-143172812D01*
X132259356Y-143161132D01*
X132989408Y-143161132D01*
X132989539Y-143162965D01*
X132993790Y-143169580D01*
X134200730Y-144376520D01*
X134212939Y-144383187D01*
X134224439Y-144374497D01*
X134321831Y-144241913D01*
X134326418Y-144234685D01*
X134452962Y-144001621D01*
X134456530Y-143993827D01*
X134550271Y-143745750D01*
X134552748Y-143737544D01*
X134611954Y-143479038D01*
X134613294Y-143470577D01*
X134637031Y-143204616D01*
X134637277Y-143199677D01*
X134637666Y-143162485D01*
X134637523Y-143157519D01*
X134636547Y-143143204D01*
X135252665Y-143143204D01*
X135267932Y-143407969D01*
X135269005Y-143416470D01*
X135320065Y-143676722D01*
X135322276Y-143684974D01*
X135408184Y-143935894D01*
X135411499Y-143943779D01*
X135530664Y-144180713D01*
X135535020Y-144188079D01*
X135664347Y-144376250D01*
X135674601Y-144384594D01*
X135688342Y-144377448D01*
X136892978Y-143172812D01*
X136900592Y-143158868D01*
X136900461Y-143157035D01*
X136896210Y-143150420D01*
X135688814Y-141943024D01*
X135676804Y-141936466D01*
X135665064Y-141945434D01*
X135556935Y-142095911D01*
X135552418Y-142103196D01*
X135428325Y-142337567D01*
X135424839Y-142345395D01*
X135333700Y-142594446D01*
X135331311Y-142602670D01*
X135274812Y-142861795D01*
X135273563Y-142870250D01*
X135252754Y-143134653D01*
X135252665Y-143143204D01*
X134636547Y-143143204D01*
X134619362Y-142891123D01*
X134618201Y-142882649D01*
X134564419Y-142622944D01*
X134562120Y-142614709D01*
X134473588Y-142364705D01*
X134470191Y-142356854D01*
X134348550Y-142121178D01*
X134344122Y-142113866D01*
X134225031Y-141944417D01*
X134214509Y-141936037D01*
X134201121Y-141943089D01*
X132997022Y-143147188D01*
X132989408Y-143161132D01*
X132259356Y-143161132D01*
X132260592Y-143158868D01*
X132260461Y-143157035D01*
X132256210Y-143150420D01*
X131048814Y-141943024D01*
X131036804Y-141936466D01*
X131025064Y-141945434D01*
X130916935Y-142095911D01*
X130912418Y-142103196D01*
X130788325Y-142337567D01*
X130784839Y-142345395D01*
X130693700Y-142594446D01*
X130691311Y-142602670D01*
X130660225Y-142745239D01*
X130626170Y-142807535D01*
X130595739Y-142829929D01*
X130592668Y-142831543D01*
X129927021Y-143497189D01*
X129919408Y-143511132D01*
X129189356Y-143511132D01*
X129190592Y-143508868D01*
X129190461Y-143507034D01*
X129186210Y-143500420D01*
X128516609Y-142830820D01*
X128504839Y-142824393D01*
X128492824Y-142833689D01*
X128464534Y-142874093D01*
X128459054Y-142883583D01*
X128419471Y-142968470D01*
X128372554Y-143021755D01*
X128304276Y-143041216D01*
X128236316Y-143020674D01*
X128191081Y-142968470D01*
X128151382Y-142883334D01*
X128151379Y-142883329D01*
X128149056Y-142878347D01*
X128145899Y-142873838D01*
X128025908Y-142702473D01*
X128025906Y-142702470D01*
X128022749Y-142697962D01*
X127867038Y-142542251D01*
X127835911Y-142520455D01*
X127749342Y-142459839D01*
X127747982Y-142458887D01*
X128869477Y-142458887D01*
X128876545Y-142472334D01*
X129542189Y-143137979D01*
X129556132Y-143145592D01*
X129557966Y-143145461D01*
X129564580Y-143141210D01*
X130234180Y-142471609D01*
X130240607Y-142459839D01*
X130231313Y-142447825D01*
X130190912Y-142419536D01*
X130181416Y-142414053D01*
X129991887Y-142325674D01*
X129981595Y-142321928D01*
X129779599Y-142267804D01*
X129768804Y-142265901D01*
X129560475Y-142247674D01*
X129549525Y-142247674D01*
X129341196Y-142265901D01*
X129330401Y-142267804D01*
X129128405Y-142321928D01*
X129118113Y-142325674D01*
X128928583Y-142414054D01*
X128919093Y-142419534D01*
X128877851Y-142448411D01*
X128869477Y-142458887D01*
X127747982Y-142458887D01*
X127686654Y-142415944D01*
X127487076Y-142322880D01*
X127274371Y-142265885D01*
X127055000Y-142246693D01*
X126835629Y-142265885D01*
X126622924Y-142322880D01*
X126533230Y-142364705D01*
X126428334Y-142413618D01*
X126428329Y-142413621D01*
X126423347Y-142415944D01*
X126418840Y-142419100D01*
X126418838Y-142419101D01*
X126247473Y-142539092D01*
X126247470Y-142539094D01*
X126242962Y-142542251D01*
X126144095Y-142641118D01*
X126081783Y-142675144D01*
X126010968Y-142670079D01*
X125965905Y-142641118D01*
X125867038Y-142542251D01*
X125835911Y-142520455D01*
X125749342Y-142459839D01*
X125686654Y-142415944D01*
X125487076Y-142322880D01*
X125274371Y-142265885D01*
X125055000Y-142246693D01*
X124835629Y-142265885D01*
X124622924Y-142322880D01*
X124533230Y-142364705D01*
X124512750Y-142374255D01*
X124442558Y-142384916D01*
X124377746Y-142355936D01*
X124338889Y-142296516D01*
X124333500Y-142260060D01*
X124333500Y-141572500D01*
X131401584Y-141572500D01*
X131407980Y-141583770D01*
X132612188Y-142787978D01*
X132626132Y-142795592D01*
X132627965Y-142795461D01*
X132634580Y-142791210D01*
X133841604Y-141584186D01*
X133848795Y-141571017D01*
X133841473Y-141560780D01*
X133794233Y-141522115D01*
X133787261Y-141517160D01*
X133561122Y-141378582D01*
X133553552Y-141374624D01*
X133310704Y-141268022D01*
X133302644Y-141265120D01*
X133047592Y-141192467D01*
X133039214Y-141190685D01*
X132776656Y-141153318D01*
X132768111Y-141152691D01*
X132502908Y-141151302D01*
X132494374Y-141151839D01*
X132231433Y-141186456D01*
X132223035Y-141188149D01*
X131967238Y-141258127D01*
X131959143Y-141260946D01*
X131715199Y-141364997D01*
X131707577Y-141368881D01*
X131480013Y-141505075D01*
X131472981Y-141509962D01*
X131410053Y-141560377D01*
X131401584Y-141572500D01*
X124333500Y-141572500D01*
X124333500Y-141008869D01*
X124353502Y-140940748D01*
X124370405Y-140919774D01*
X126187774Y-139102405D01*
X126250086Y-139068379D01*
X126276869Y-139065500D01*
X136244131Y-139065500D01*
X136312252Y-139085502D01*
X136333226Y-139102405D01*
X138502805Y-141271984D01*
X138536831Y-141334296D01*
X138531766Y-141405111D01*
X138489219Y-141461947D01*
X138422699Y-141486758D01*
X138347875Y-141468512D01*
X138201122Y-141378582D01*
X138193552Y-141374624D01*
X137950704Y-141268022D01*
X137942644Y-141265120D01*
X137687592Y-141192467D01*
X137679214Y-141190685D01*
X137416656Y-141153318D01*
X137408111Y-141152691D01*
X137142908Y-141151302D01*
X137134374Y-141151839D01*
X136871433Y-141186456D01*
X136863035Y-141188149D01*
X136607238Y-141258127D01*
X136599143Y-141260946D01*
X136355199Y-141364997D01*
X136347577Y-141368881D01*
X136120013Y-141505075D01*
X136112981Y-141509962D01*
X136050053Y-141560377D01*
X136041584Y-141572500D01*
X136047980Y-141583770D01*
X137535115Y-143070905D01*
X137569141Y-143133217D01*
X137564076Y-143204032D01*
X137535115Y-143249095D01*
X136047910Y-144736300D01*
X136040618Y-144749654D01*
X136047673Y-144759627D01*
X136078679Y-144785551D01*
X136085598Y-144790579D01*
X136310272Y-144931515D01*
X136317807Y-144935556D01*
X136559520Y-145044694D01*
X136567551Y-145047680D01*
X136821832Y-145123002D01*
X136830184Y-145124869D01*
X137092340Y-145164984D01*
X137100874Y-145165700D01*
X137366045Y-145169867D01*
X137374596Y-145169418D01*
X137637883Y-145137557D01*
X137646284Y-145135955D01*
X137902824Y-145068653D01*
X137910926Y-145065926D01*
X138155949Y-144964434D01*
X138163617Y-144960628D01*
X138366929Y-144841822D01*
X138435836Y-144824723D01*
X138503049Y-144847592D01*
X138547228Y-144903169D01*
X138556500Y-144950610D01*
X138556500Y-146197108D01*
X138556673Y-146199433D01*
X138556673Y-146199439D01*
X138568204Y-146354599D01*
X138571103Y-146393616D01*
X138629443Y-146651441D01*
X138631135Y-146655793D01*
X138631136Y-146655795D01*
X138701244Y-146836076D01*
X138725251Y-146897811D01*
X138727568Y-146901865D01*
X138727569Y-146901867D01*
X138748293Y-146938127D01*
X138856422Y-147127313D01*
X139020075Y-147334906D01*
X139212615Y-147516030D01*
X139216458Y-147518696D01*
X139425974Y-147664042D01*
X139425979Y-147664045D01*
X139429812Y-147666704D01*
X139434001Y-147668770D01*
X139434003Y-147668771D01*
X139662706Y-147781555D01*
X139662709Y-147781556D01*
X139666894Y-147783620D01*
X139671337Y-147785042D01*
X139671339Y-147785043D01*
X139751079Y-147810568D01*
X139918653Y-147864209D01*
X139985803Y-147875145D01*
X140174947Y-147905949D01*
X140174948Y-147905949D01*
X140179559Y-147906700D01*
X140311719Y-147908430D01*
X140439202Y-147910099D01*
X140439205Y-147910099D01*
X140443879Y-147910160D01*
X140705808Y-147874514D01*
X140710298Y-147873205D01*
X140710304Y-147873204D01*
X140818268Y-147841735D01*
X140959590Y-147800543D01*
X140963837Y-147798585D01*
X140963840Y-147798584D01*
X141093892Y-147738629D01*
X141199652Y-147689873D01*
X141247737Y-147658347D01*
X141416805Y-147547501D01*
X141416810Y-147547497D01*
X141420718Y-147544935D01*
X141617933Y-147368914D01*
X141786964Y-147165676D01*
X141789385Y-147161687D01*
X141789391Y-147161678D01*
X141818453Y-147113784D01*
X141870892Y-147065923D01*
X141940882Y-147054011D01*
X142006201Y-147081828D01*
X142015267Y-147090054D01*
X142022962Y-147097749D01*
X142027471Y-147100906D01*
X142027473Y-147100908D01*
X142070422Y-147130981D01*
X142203346Y-147224056D01*
X142402924Y-147317120D01*
X142615629Y-147374115D01*
X142835000Y-147393307D01*
X143054371Y-147374115D01*
X143267076Y-147317120D01*
X143466654Y-147224056D01*
X143599578Y-147130981D01*
X143642527Y-147100908D01*
X143642529Y-147100906D01*
X143647038Y-147097749D01*
X143745905Y-146998882D01*
X143808217Y-146964856D01*
X143879032Y-146969921D01*
X143924095Y-146998882D01*
X144022962Y-147097749D01*
X144027471Y-147100906D01*
X144027473Y-147100908D01*
X144070422Y-147130981D01*
X144203346Y-147224056D01*
X144402924Y-147317120D01*
X144615629Y-147374115D01*
X144835000Y-147393307D01*
X145054371Y-147374115D01*
X145267076Y-147317120D01*
X145466654Y-147224056D01*
X145529342Y-147180161D01*
X146649393Y-147180161D01*
X146658687Y-147192175D01*
X146699088Y-147220464D01*
X146708584Y-147225947D01*
X146898113Y-147314326D01*
X146908405Y-147318072D01*
X147110401Y-147372196D01*
X147121196Y-147374099D01*
X147329525Y-147392326D01*
X147340475Y-147392326D01*
X147548804Y-147374099D01*
X147559599Y-147372196D01*
X147761595Y-147318072D01*
X147771887Y-147314326D01*
X147904473Y-147252500D01*
X149181584Y-147252500D01*
X149187980Y-147263770D01*
X150392188Y-148467978D01*
X150406132Y-148475592D01*
X150407965Y-148475461D01*
X150414580Y-148471210D01*
X151621604Y-147264186D01*
X151628795Y-147251017D01*
X151621473Y-147240780D01*
X151574233Y-147202115D01*
X151567261Y-147197160D01*
X151341122Y-147058582D01*
X151333552Y-147054624D01*
X151090704Y-146948022D01*
X151082644Y-146945120D01*
X150827592Y-146872467D01*
X150819214Y-146870685D01*
X150556656Y-146833318D01*
X150548111Y-146832691D01*
X150282908Y-146831302D01*
X150274374Y-146831839D01*
X150011433Y-146866456D01*
X150003035Y-146868149D01*
X149747238Y-146938127D01*
X149739143Y-146940946D01*
X149495199Y-147044997D01*
X149487577Y-147048881D01*
X149260013Y-147185075D01*
X149252981Y-147189962D01*
X149190053Y-147240377D01*
X149181584Y-147252500D01*
X147904473Y-147252500D01*
X147961416Y-147225947D01*
X147970912Y-147220464D01*
X148012148Y-147191590D01*
X148020523Y-147181112D01*
X148013457Y-147167668D01*
X147347811Y-146502021D01*
X147333868Y-146494408D01*
X147332034Y-146494539D01*
X147325420Y-146498790D01*
X146655820Y-147168391D01*
X146649393Y-147180161D01*
X145529342Y-147180161D01*
X145599578Y-147130981D01*
X145642527Y-147100908D01*
X145642529Y-147100906D01*
X145647038Y-147097749D01*
X145802749Y-146942038D01*
X145876945Y-146836076D01*
X145925899Y-146766162D01*
X145925900Y-146766160D01*
X145929056Y-146761653D01*
X145931379Y-146756671D01*
X145931382Y-146756666D01*
X145971081Y-146671530D01*
X146017998Y-146618245D01*
X146086276Y-146598784D01*
X146154235Y-146619326D01*
X146199471Y-146671530D01*
X146239054Y-146756417D01*
X146244534Y-146765907D01*
X146273411Y-146807149D01*
X146283887Y-146815523D01*
X146297334Y-146808455D01*
X146962979Y-146142811D01*
X146969356Y-146131132D01*
X147699408Y-146131132D01*
X147699539Y-146132966D01*
X147703790Y-146139580D01*
X148373391Y-146809180D01*
X148385161Y-146815607D01*
X148397176Y-146806311D01*
X148425466Y-146765907D01*
X148430946Y-146756417D01*
X148519326Y-146566887D01*
X148523072Y-146556595D01*
X148577196Y-146354599D01*
X148579099Y-146343804D01*
X148597326Y-146135475D01*
X148597326Y-146124525D01*
X148579099Y-145916196D01*
X148577196Y-145905401D01*
X148523072Y-145703405D01*
X148519326Y-145693113D01*
X148430946Y-145503583D01*
X148425466Y-145494093D01*
X148396589Y-145452851D01*
X148386113Y-145444477D01*
X148372666Y-145451545D01*
X147707021Y-146117189D01*
X147699408Y-146131132D01*
X146969356Y-146131132D01*
X146970592Y-146128868D01*
X146970461Y-146127034D01*
X146966210Y-146120420D01*
X146296609Y-145450820D01*
X146284839Y-145444393D01*
X146272824Y-145453689D01*
X146244534Y-145494093D01*
X146239054Y-145503583D01*
X146199471Y-145588470D01*
X146152554Y-145641755D01*
X146084276Y-145661216D01*
X146016316Y-145640674D01*
X145971081Y-145588470D01*
X145931382Y-145503334D01*
X145931379Y-145503329D01*
X145929056Y-145498347D01*
X145915115Y-145478437D01*
X145805908Y-145322473D01*
X145805906Y-145322470D01*
X145802749Y-145317962D01*
X145647038Y-145162251D01*
X145466654Y-145035944D01*
X145267076Y-144942880D01*
X145261763Y-144941456D01*
X145256592Y-144939574D01*
X145257066Y-144938272D01*
X145202078Y-144904757D01*
X145171055Y-144840897D01*
X145179482Y-144770402D01*
X145224684Y-144715654D01*
X145256797Y-144700989D01*
X145256592Y-144700426D01*
X145261763Y-144698544D01*
X145267076Y-144697120D01*
X145466654Y-144604056D01*
X145529342Y-144560161D01*
X146649393Y-144560161D01*
X146658687Y-144572175D01*
X146699088Y-144600464D01*
X146708584Y-144605947D01*
X146898113Y-144694326D01*
X146908409Y-144698073D01*
X146909229Y-144698293D01*
X146909550Y-144698488D01*
X146913579Y-144699955D01*
X146913284Y-144700765D01*
X146969852Y-144735243D01*
X147000875Y-144799103D01*
X146992448Y-144869598D01*
X146947246Y-144924345D01*
X146913478Y-144939767D01*
X146913579Y-144940045D01*
X146910078Y-144941319D01*
X146909229Y-144941707D01*
X146908409Y-144941927D01*
X146898113Y-144945674D01*
X146708583Y-145034054D01*
X146699093Y-145039534D01*
X146657851Y-145068411D01*
X146649477Y-145078887D01*
X146656545Y-145092334D01*
X147322189Y-145757979D01*
X147336132Y-145765592D01*
X147337966Y-145765461D01*
X147344580Y-145761210D01*
X148014180Y-145091609D01*
X148020607Y-145079839D01*
X148011313Y-145067825D01*
X147970912Y-145039536D01*
X147961416Y-145034053D01*
X147771887Y-144945674D01*
X147761591Y-144941927D01*
X147760771Y-144941707D01*
X147760450Y-144941512D01*
X147756421Y-144940045D01*
X147756716Y-144939235D01*
X147700148Y-144904757D01*
X147669125Y-144840897D01*
X147677552Y-144770402D01*
X147694683Y-144749654D01*
X149180618Y-144749654D01*
X149187673Y-144759627D01*
X149218679Y-144785551D01*
X149225598Y-144790579D01*
X149450272Y-144931515D01*
X149457807Y-144935556D01*
X149699520Y-145044694D01*
X149707551Y-145047680D01*
X149961832Y-145123002D01*
X149970184Y-145124869D01*
X150232340Y-145164984D01*
X150240874Y-145165700D01*
X150506045Y-145169867D01*
X150514596Y-145169418D01*
X150777883Y-145137557D01*
X150786284Y-145135955D01*
X151042824Y-145068653D01*
X151050926Y-145065926D01*
X151295949Y-144964434D01*
X151303617Y-144960628D01*
X151532598Y-144826822D01*
X151539679Y-144822009D01*
X151619655Y-144759301D01*
X151628125Y-144747442D01*
X151621608Y-144735818D01*
X150417812Y-143532022D01*
X150403868Y-143524408D01*
X150402035Y-143524539D01*
X150395420Y-143528790D01*
X149187910Y-144736300D01*
X149180618Y-144749654D01*
X147694683Y-144749654D01*
X147722754Y-144715655D01*
X147756522Y-144700233D01*
X147756421Y-144699955D01*
X147759922Y-144698681D01*
X147760771Y-144698293D01*
X147761591Y-144698073D01*
X147771887Y-144694326D01*
X147961416Y-144605947D01*
X147970912Y-144600464D01*
X148012148Y-144571590D01*
X148020523Y-144561112D01*
X148013457Y-144547668D01*
X147347811Y-143882021D01*
X147333868Y-143874408D01*
X147332034Y-143874539D01*
X147325420Y-143878790D01*
X146655820Y-144548391D01*
X146649393Y-144560161D01*
X145529342Y-144560161D01*
X145647038Y-144477749D01*
X145802749Y-144322038D01*
X145815130Y-144304357D01*
X145925899Y-144146162D01*
X145925900Y-144146160D01*
X145929056Y-144141653D01*
X145931379Y-144136671D01*
X145931382Y-144136666D01*
X145971081Y-144051530D01*
X146017998Y-143998245D01*
X146086276Y-143978784D01*
X146154235Y-143999326D01*
X146199471Y-144051530D01*
X146239054Y-144136417D01*
X146244534Y-144145907D01*
X146273411Y-144187149D01*
X146283887Y-144195523D01*
X146297334Y-144188455D01*
X146962979Y-143522811D01*
X146969356Y-143511132D01*
X147699408Y-143511132D01*
X147699539Y-143512966D01*
X147703790Y-143519580D01*
X148373391Y-144189180D01*
X148385161Y-144195607D01*
X148397176Y-144186311D01*
X148425466Y-144145907D01*
X148430393Y-144137374D01*
X148481775Y-144088380D01*
X148551489Y-144074943D01*
X148617400Y-144101330D01*
X148652077Y-144143758D01*
X148670661Y-144180707D01*
X148675020Y-144188079D01*
X148804347Y-144376250D01*
X148814601Y-144384594D01*
X148828342Y-144377448D01*
X150032978Y-143172812D01*
X150039356Y-143161132D01*
X150769408Y-143161132D01*
X150769539Y-143162965D01*
X150773790Y-143169580D01*
X151980730Y-144376520D01*
X151992939Y-144383187D01*
X152004439Y-144374497D01*
X152101831Y-144241913D01*
X152106418Y-144234685D01*
X152232962Y-144001621D01*
X152236530Y-143993827D01*
X152330271Y-143745750D01*
X152332748Y-143737544D01*
X152391954Y-143479038D01*
X152393294Y-143470577D01*
X152417031Y-143204616D01*
X152417277Y-143199677D01*
X152417666Y-143162485D01*
X152417523Y-143157519D01*
X152399362Y-142891123D01*
X152398201Y-142882649D01*
X152344419Y-142622944D01*
X152342120Y-142614709D01*
X152253588Y-142364705D01*
X152250191Y-142356854D01*
X152128550Y-142121178D01*
X152124122Y-142113866D01*
X152005031Y-141944417D01*
X151994509Y-141936037D01*
X151981121Y-141943089D01*
X150777022Y-143147188D01*
X150769408Y-143161132D01*
X150039356Y-143161132D01*
X150040592Y-143158868D01*
X150040461Y-143157035D01*
X150036210Y-143150420D01*
X148828814Y-141943024D01*
X148816804Y-141936466D01*
X148805064Y-141945434D01*
X148696935Y-142095911D01*
X148692418Y-142103196D01*
X148568325Y-142337567D01*
X148564839Y-142345395D01*
X148473700Y-142594446D01*
X148471311Y-142602670D01*
X148440225Y-142745239D01*
X148406170Y-142807535D01*
X148375739Y-142829929D01*
X148372668Y-142831543D01*
X147707021Y-143497189D01*
X147699408Y-143511132D01*
X146969356Y-143511132D01*
X146970592Y-143508868D01*
X146970461Y-143507034D01*
X146966210Y-143500420D01*
X146296609Y-142830820D01*
X146284839Y-142824393D01*
X146272824Y-142833689D01*
X146244534Y-142874093D01*
X146239054Y-142883583D01*
X146199471Y-142968470D01*
X146152554Y-143021755D01*
X146084276Y-143041216D01*
X146016316Y-143020674D01*
X145971081Y-142968470D01*
X145931382Y-142883334D01*
X145931379Y-142883329D01*
X145929056Y-142878347D01*
X145925899Y-142873838D01*
X145805908Y-142702473D01*
X145805906Y-142702470D01*
X145802749Y-142697962D01*
X145647038Y-142542251D01*
X145615911Y-142520455D01*
X145529342Y-142459839D01*
X145527982Y-142458887D01*
X146649477Y-142458887D01*
X146656545Y-142472334D01*
X147322189Y-143137979D01*
X147336132Y-143145592D01*
X147337966Y-143145461D01*
X147344580Y-143141210D01*
X148014180Y-142471609D01*
X148020607Y-142459839D01*
X148011313Y-142447825D01*
X147970912Y-142419536D01*
X147961416Y-142414053D01*
X147771887Y-142325674D01*
X147761595Y-142321928D01*
X147559599Y-142267804D01*
X147548804Y-142265901D01*
X147340475Y-142247674D01*
X147329525Y-142247674D01*
X147121196Y-142265901D01*
X147110401Y-142267804D01*
X146908405Y-142321928D01*
X146898113Y-142325674D01*
X146708583Y-142414054D01*
X146699093Y-142419534D01*
X146657851Y-142448411D01*
X146649477Y-142458887D01*
X145527982Y-142458887D01*
X145466654Y-142415944D01*
X145267076Y-142322880D01*
X145054371Y-142265885D01*
X144835000Y-142246693D01*
X144615629Y-142265885D01*
X144402924Y-142322880D01*
X144313230Y-142364705D01*
X144208334Y-142413618D01*
X144208329Y-142413621D01*
X144203347Y-142415944D01*
X144198840Y-142419100D01*
X144198838Y-142419101D01*
X144027473Y-142539092D01*
X144027470Y-142539094D01*
X144022962Y-142542251D01*
X143924095Y-142641118D01*
X143861783Y-142675144D01*
X143790968Y-142670079D01*
X143745905Y-142641118D01*
X143647038Y-142542251D01*
X143615911Y-142520455D01*
X143529342Y-142459839D01*
X143466654Y-142415944D01*
X143267076Y-142322880D01*
X143054371Y-142265885D01*
X142835000Y-142246693D01*
X142615629Y-142265885D01*
X142402924Y-142322880D01*
X142313230Y-142364705D01*
X142292750Y-142374255D01*
X142222558Y-142384916D01*
X142157746Y-142355936D01*
X142118889Y-142296516D01*
X142113500Y-142260060D01*
X142113500Y-141572500D01*
X149181584Y-141572500D01*
X149187980Y-141583770D01*
X150392188Y-142787978D01*
X150406132Y-142795592D01*
X150407965Y-142795461D01*
X150414580Y-142791210D01*
X151621604Y-141584186D01*
X151628795Y-141571017D01*
X151621473Y-141560780D01*
X151574233Y-141522115D01*
X151567261Y-141517160D01*
X151341122Y-141378582D01*
X151333552Y-141374624D01*
X151090704Y-141268022D01*
X151082644Y-141265120D01*
X150827592Y-141192467D01*
X150819214Y-141190685D01*
X150556656Y-141153318D01*
X150548111Y-141152691D01*
X150282908Y-141151302D01*
X150274374Y-141151839D01*
X150011433Y-141186456D01*
X150003035Y-141188149D01*
X149747238Y-141258127D01*
X149739143Y-141260946D01*
X149495199Y-141364997D01*
X149487577Y-141368881D01*
X149260013Y-141505075D01*
X149252981Y-141509962D01*
X149190053Y-141560377D01*
X149181584Y-141572500D01*
X142113500Y-141572500D01*
X142113500Y-140644477D01*
X142113703Y-140637334D01*
X142117950Y-140562550D01*
X142117950Y-140562543D01*
X142118215Y-140557874D01*
X142114720Y-140519839D01*
X142107650Y-140442887D01*
X142107468Y-140440697D01*
X142099245Y-140330053D01*
X142099243Y-140330039D01*
X142098897Y-140325384D01*
X142097275Y-140318214D01*
X142094698Y-140301942D01*
X142094455Y-140299297D01*
X142094027Y-140294640D01*
X142082603Y-140247952D01*
X142066567Y-140182418D01*
X142066063Y-140180278D01*
X142041588Y-140072116D01*
X142040557Y-140067559D01*
X142037897Y-140060717D01*
X142032943Y-140045007D01*
X142031197Y-140037872D01*
X141987444Y-139930925D01*
X141986630Y-139928885D01*
X141968581Y-139882473D01*
X141944749Y-139821189D01*
X141942435Y-139817140D01*
X141942429Y-139817128D01*
X141941107Y-139814816D01*
X141933884Y-139800007D01*
X141932878Y-139797547D01*
X141932875Y-139797540D01*
X141931104Y-139793212D01*
X141872014Y-139693890D01*
X141870907Y-139691992D01*
X141845382Y-139647333D01*
X141813578Y-139591687D01*
X141809032Y-139585920D01*
X141799702Y-139572345D01*
X141798339Y-139570054D01*
X141795947Y-139566033D01*
X141792989Y-139562413D01*
X141792983Y-139562404D01*
X141722798Y-139476503D01*
X141721421Y-139474787D01*
X141652822Y-139387769D01*
X141649925Y-139384094D01*
X141646526Y-139380896D01*
X141646520Y-139380890D01*
X141572848Y-139311587D01*
X141570086Y-139308907D01*
X141541774Y-139280595D01*
X141507748Y-139218283D01*
X141512813Y-139147468D01*
X141555360Y-139090632D01*
X141621880Y-139065821D01*
X141630869Y-139065500D01*
X142057522Y-139065500D01*
X142064665Y-139065703D01*
X142139450Y-139069950D01*
X142139457Y-139069950D01*
X142144126Y-139070215D01*
X142189682Y-139066029D01*
X142201211Y-139065500D01*
X151420631Y-139065500D01*
X151488752Y-139085502D01*
X151509726Y-139102405D01*
X152934095Y-140526774D01*
X152968121Y-140589086D01*
X152971000Y-140615869D01*
X152971000Y-147137522D01*
X152970797Y-147144665D01*
X152966550Y-147219450D01*
X152966550Y-147219457D01*
X152966285Y-147224126D01*
X152966714Y-147228792D01*
X152976850Y-147339113D01*
X152977032Y-147341303D01*
X152985255Y-147451947D01*
X152985257Y-147451961D01*
X152985603Y-147456616D01*
X152986634Y-147461172D01*
X152986634Y-147461173D01*
X152987225Y-147463786D01*
X152989802Y-147480057D01*
X152990473Y-147487360D01*
X152991585Y-147491904D01*
X153017933Y-147599582D01*
X153018437Y-147601722D01*
X153023803Y-147625434D01*
X153043943Y-147714441D01*
X153046603Y-147721283D01*
X153051557Y-147736993D01*
X153053303Y-147744128D01*
X153076383Y-147800543D01*
X153097055Y-147851073D01*
X153097870Y-147853114D01*
X153139751Y-147960811D01*
X153142065Y-147964860D01*
X153142071Y-147964872D01*
X153143393Y-147967184D01*
X153150616Y-147981993D01*
X153151622Y-147984453D01*
X153151625Y-147984460D01*
X153153396Y-147988788D01*
X153155790Y-147992812D01*
X153212479Y-148088097D01*
X153213585Y-148089994D01*
X153270922Y-148190313D01*
X153275466Y-148196077D01*
X153284798Y-148209655D01*
X153288553Y-148215966D01*
X153291509Y-148219584D01*
X153291516Y-148219594D01*
X153361674Y-148305462D01*
X153363051Y-148307178D01*
X153431678Y-148394232D01*
X153431683Y-148394237D01*
X153434575Y-148397906D01*
X153437977Y-148401106D01*
X153511652Y-148470413D01*
X153514414Y-148473093D01*
X155992674Y-150951353D01*
X155997582Y-150956547D01*
X156035225Y-150998722D01*
X156050586Y-151015933D01*
X156121090Y-151074570D01*
X156139396Y-151089795D01*
X156141048Y-151091193D01*
X156228641Y-151166668D01*
X156232595Y-151169163D01*
X156232602Y-151169168D01*
X156234853Y-151170588D01*
X156248178Y-151180270D01*
X156250221Y-151181969D01*
X156250234Y-151181978D01*
X156253824Y-151184964D01*
X156257821Y-151187390D01*
X156257826Y-151187393D01*
X156352627Y-151244921D01*
X156354496Y-151246077D01*
X156448245Y-151305228D01*
X156452203Y-151307725D01*
X156457916Y-151310239D01*
X156458923Y-151310682D01*
X156473527Y-151318285D01*
X156475809Y-151319669D01*
X156475813Y-151319671D01*
X156479814Y-151322099D01*
X156484128Y-151323908D01*
X156586407Y-151366797D01*
X156588428Y-151367665D01*
X156694160Y-151414188D01*
X156698672Y-151415418D01*
X156698674Y-151415419D01*
X156701247Y-151416121D01*
X156716806Y-151421479D01*
X156719277Y-151422515D01*
X156719287Y-151422518D01*
X156723591Y-151424323D01*
X156835649Y-151452782D01*
X156837690Y-151453319D01*
X156949194Y-151483719D01*
X156953825Y-151484267D01*
X156953840Y-151484270D01*
X156956487Y-151484583D01*
X156972686Y-151487585D01*
X156975264Y-151488240D01*
X156975267Y-151488241D01*
X156979801Y-151489392D01*
X157094808Y-151500973D01*
X157096929Y-151501205D01*
X157211705Y-151514789D01*
X157317432Y-151511559D01*
X157321281Y-151511500D01*
X157880039Y-151511500D01*
X157948160Y-151531502D01*
X157994653Y-151585158D01*
X158004757Y-151655432D01*
X157975263Y-151720012D01*
X157949124Y-151742872D01*
X157803404Y-151838410D01*
X157803399Y-151838414D01*
X157799491Y-151840976D01*
X157604494Y-152015018D01*
X157437363Y-152215970D01*
X157434934Y-152219973D01*
X157310606Y-152424860D01*
X157301771Y-152439419D01*
X157200697Y-152680455D01*
X157136359Y-152933783D01*
X157135891Y-152938434D01*
X157135890Y-152938438D01*
X157131488Y-152982154D01*
X157110173Y-153193839D01*
X157110397Y-153198505D01*
X157110397Y-153198511D01*
X157116443Y-153324374D01*
X157122713Y-153454908D01*
X157173704Y-153711256D01*
X157262026Y-153957252D01*
X157264242Y-153961376D01*
X157328753Y-154081437D01*
X157385737Y-154187491D01*
X157388532Y-154191234D01*
X157388534Y-154191237D01*
X157539330Y-154393177D01*
X157539335Y-154393183D01*
X157542122Y-154396915D01*
X157545431Y-154400195D01*
X157545436Y-154400201D01*
X157672264Y-154525926D01*
X157727743Y-154580923D01*
X157731505Y-154583681D01*
X157731508Y-154583684D01*
X157882488Y-154694387D01*
X157938524Y-154735474D01*
X158092740Y-154816611D01*
X158116474Y-154829098D01*
X158167446Y-154878517D01*
X158183609Y-154947650D01*
X158159830Y-155014546D01*
X158110558Y-155055032D01*
X158018072Y-155097668D01*
X157979067Y-155123241D01*
X157803404Y-155238410D01*
X157803399Y-155238414D01*
X157799491Y-155240976D01*
X157604494Y-155415018D01*
X157437363Y-155615970D01*
X157301771Y-155839419D01*
X157200697Y-156080455D01*
X157136359Y-156333783D01*
X157110173Y-156593839D01*
X157122713Y-156854908D01*
X157173704Y-157111256D01*
X157262026Y-157357252D01*
X157299850Y-157427647D01*
X157328753Y-157481437D01*
X157385737Y-157587491D01*
X157388532Y-157591234D01*
X157388534Y-157591237D01*
X157539330Y-157793177D01*
X157539335Y-157793183D01*
X157542122Y-157796915D01*
X157545431Y-157800195D01*
X157545436Y-157800201D01*
X157724426Y-157977635D01*
X157727743Y-157980923D01*
X157731505Y-157983681D01*
X157731508Y-157983684D01*
X157934750Y-158132707D01*
X157938524Y-158135474D01*
X157942667Y-158137654D01*
X157942669Y-158137655D01*
X158165684Y-158254989D01*
X158165689Y-158254991D01*
X158169834Y-158257172D01*
X158416590Y-158343344D01*
X158421183Y-158344216D01*
X158668785Y-158391224D01*
X158668788Y-158391224D01*
X158673374Y-158392095D01*
X158803959Y-158397226D01*
X158929875Y-158402174D01*
X158929881Y-158402174D01*
X158934543Y-158402357D01*
X159013977Y-158393657D01*
X159189707Y-158374412D01*
X159189712Y-158374411D01*
X159194360Y-158373902D01*
X159307116Y-158344216D01*
X159442594Y-158308548D01*
X159442596Y-158308547D01*
X159447117Y-158307357D01*
X159475779Y-158295043D01*
X159682972Y-158206025D01*
X159687262Y-158204182D01*
X159909519Y-158066646D01*
X159913082Y-158063629D01*
X159913087Y-158063626D01*
X160105439Y-157900787D01*
X160105440Y-157900786D01*
X160109005Y-157897768D01*
X160129736Y-157874128D01*
X160278257Y-157704774D01*
X160278261Y-157704769D01*
X160281339Y-157701259D01*
X160422733Y-157481437D01*
X160530083Y-157243129D01*
X160601030Y-156991572D01*
X160617832Y-156859496D01*
X160633616Y-156735421D01*
X160633616Y-156735417D01*
X160634014Y-156732291D01*
X160634613Y-156709439D01*
X160636348Y-156643160D01*
X160636431Y-156640000D01*
X160617061Y-156379348D01*
X160605725Y-156329248D01*
X160560408Y-156128980D01*
X160559377Y-156124423D01*
X160464647Y-155880823D01*
X160334951Y-155653902D01*
X160173138Y-155448643D01*
X159982763Y-155269557D01*
X159768009Y-155120576D01*
X159726754Y-155100231D01*
X159695750Y-155084942D01*
X159632672Y-155053836D01*
X159580424Y-155005768D01*
X159562457Y-154937082D01*
X159584476Y-154869587D01*
X159638663Y-154825062D01*
X159662723Y-154814725D01*
X159687262Y-154804182D01*
X159771703Y-154751929D01*
X159905547Y-154669104D01*
X159905548Y-154669104D01*
X159909519Y-154666646D01*
X159913082Y-154663629D01*
X159913087Y-154663626D01*
X160105439Y-154500787D01*
X160105440Y-154500786D01*
X160109005Y-154497768D01*
X160200729Y-154393177D01*
X160278257Y-154304774D01*
X160278261Y-154304769D01*
X160281339Y-154301259D01*
X160422733Y-154081437D01*
X160530083Y-153843129D01*
X160601030Y-153591572D01*
X160617832Y-153459496D01*
X160633616Y-153335421D01*
X160633616Y-153335417D01*
X160634014Y-153332291D01*
X160636431Y-153240000D01*
X160622893Y-153057827D01*
X160617407Y-152984000D01*
X160617406Y-152983996D01*
X160617061Y-152979348D01*
X160615066Y-152970529D01*
X160560408Y-152728980D01*
X160559377Y-152724423D01*
X160539334Y-152672881D01*
X160466340Y-152485176D01*
X160466339Y-152485173D01*
X160464647Y-152480823D01*
X160462206Y-152476551D01*
X160402125Y-152371433D01*
X160334951Y-152253902D01*
X160173138Y-152048643D01*
X159982763Y-151869557D01*
X159910424Y-151819373D01*
X159797489Y-151741027D01*
X159752919Y-151685764D01*
X159745302Y-151615177D01*
X159777057Y-151551678D01*
X159838100Y-151515426D01*
X159869309Y-151511500D01*
X162660131Y-151511500D01*
X162728252Y-151531502D01*
X162749226Y-151548405D01*
X165659174Y-154458353D01*
X165664082Y-154463547D01*
X165717086Y-154522933D01*
X165790132Y-154583684D01*
X165805896Y-154596795D01*
X165807575Y-154598216D01*
X165891603Y-154670620D01*
X165891607Y-154670623D01*
X165895141Y-154673668D01*
X165899094Y-154676162D01*
X165901352Y-154677587D01*
X165914678Y-154687269D01*
X165916725Y-154688971D01*
X165920324Y-154691964D01*
X165924317Y-154694387D01*
X166019142Y-154751929D01*
X166021011Y-154753086D01*
X166101994Y-154804182D01*
X166118704Y-154814725D01*
X166122983Y-154816608D01*
X166122989Y-154816611D01*
X166125414Y-154817678D01*
X166140027Y-154825284D01*
X166146314Y-154829099D01*
X166150622Y-154830906D01*
X166150623Y-154830906D01*
X166252910Y-154873799D01*
X166254930Y-154874667D01*
X166263680Y-154878517D01*
X166360660Y-154921189D01*
X166365169Y-154922418D01*
X166365174Y-154922420D01*
X166367735Y-154923118D01*
X166383320Y-154928483D01*
X166390091Y-154931323D01*
X166502152Y-154959783D01*
X166504166Y-154960313D01*
X166615694Y-154990719D01*
X166620325Y-154991267D01*
X166620340Y-154991270D01*
X166622987Y-154991583D01*
X166639186Y-154994585D01*
X166641764Y-154995240D01*
X166641767Y-154995241D01*
X166646301Y-154996392D01*
X166761304Y-155007973D01*
X166763372Y-155008199D01*
X166878205Y-155021790D01*
X166983952Y-155018559D01*
X166987800Y-155018500D01*
X170438500Y-155018500D01*
X170506621Y-155038502D01*
X170553114Y-155092158D01*
X170564500Y-155144500D01*
X170564500Y-156707108D01*
X170579103Y-156903616D01*
X170637443Y-157161441D01*
X170639135Y-157165793D01*
X170639136Y-157165795D01*
X170713590Y-157357252D01*
X170733251Y-157407811D01*
X170735568Y-157411865D01*
X170735569Y-157411867D01*
X170772896Y-157477176D01*
X170864422Y-157637313D01*
X171028075Y-157844906D01*
X171220615Y-158026030D01*
X171224458Y-158028696D01*
X171433974Y-158174042D01*
X171433979Y-158174045D01*
X171437812Y-158176704D01*
X171442001Y-158178770D01*
X171442003Y-158178771D01*
X171670706Y-158291555D01*
X171670709Y-158291556D01*
X171674894Y-158293620D01*
X171679337Y-158295042D01*
X171679339Y-158295043D01*
X171800774Y-158333915D01*
X171926653Y-158374209D01*
X172069175Y-158397420D01*
X172182947Y-158415949D01*
X172182948Y-158415949D01*
X172187559Y-158416700D01*
X172319719Y-158418430D01*
X172447202Y-158420099D01*
X172447205Y-158420099D01*
X172451879Y-158420160D01*
X172713808Y-158384514D01*
X172718298Y-158383205D01*
X172718304Y-158383204D01*
X172826268Y-158351735D01*
X172967590Y-158310543D01*
X172971837Y-158308585D01*
X172971840Y-158308584D01*
X173088096Y-158254989D01*
X173207652Y-158199873D01*
X173302550Y-158137655D01*
X173424805Y-158057501D01*
X173424810Y-158057497D01*
X173428718Y-158054935D01*
X173527325Y-157966925D01*
X173622441Y-157882031D01*
X173622443Y-157882029D01*
X173625933Y-157878914D01*
X173747813Y-157732369D01*
X173791975Y-157679270D01*
X173791976Y-157679269D01*
X173794964Y-157675676D01*
X173932099Y-157449686D01*
X173951484Y-157403458D01*
X174032514Y-157210224D01*
X174032516Y-157210219D01*
X174034323Y-157205909D01*
X174045617Y-157161441D01*
X174087614Y-156996076D01*
X174099392Y-156949699D01*
X174121500Y-156730144D01*
X174121500Y-153258742D01*
X174121511Y-153257093D01*
X174123099Y-153135798D01*
X174123099Y-153135795D01*
X174123160Y-153131121D01*
X174113183Y-153057811D01*
X174112380Y-153050174D01*
X174111885Y-153043501D01*
X174106897Y-152976384D01*
X174096078Y-152928572D01*
X174094124Y-152917763D01*
X174088146Y-152873834D01*
X174088145Y-152873830D01*
X174087514Y-152869192D01*
X174066802Y-152798135D01*
X174064881Y-152790704D01*
X174049589Y-152723119D01*
X174049588Y-152723117D01*
X174048557Y-152718559D01*
X174030793Y-152672878D01*
X174027262Y-152662476D01*
X174014852Y-152619902D01*
X174013543Y-152615410D01*
X173982561Y-152548204D01*
X173979558Y-152541129D01*
X173954446Y-152476551D01*
X173954442Y-152476543D01*
X173952749Y-152472189D01*
X173950431Y-152468133D01*
X173950427Y-152468125D01*
X173928424Y-152429628D01*
X173923391Y-152419856D01*
X173902873Y-152375348D01*
X173862310Y-152313480D01*
X173858289Y-152306918D01*
X173823902Y-152246753D01*
X173823901Y-152246752D01*
X173821578Y-152242687D01*
X173793003Y-152206439D01*
X181317146Y-152206439D01*
X181320032Y-152214071D01*
X181409029Y-152349814D01*
X181414712Y-152357219D01*
X181587419Y-152550721D01*
X181594135Y-152557206D01*
X181793551Y-152723059D01*
X181801138Y-152728471D01*
X182022891Y-152863035D01*
X182031192Y-152867264D01*
X182270389Y-152967568D01*
X182279239Y-152970529D01*
X182530625Y-153034372D01*
X182539822Y-153035994D01*
X182755219Y-153057684D01*
X182761511Y-153058000D01*
X183179385Y-153058000D01*
X183194624Y-153053525D01*
X183195829Y-153052135D01*
X183197500Y-153044452D01*
X183197500Y-153039885D01*
X185102500Y-153039885D01*
X185106975Y-153055124D01*
X185108365Y-153056329D01*
X185116048Y-153058000D01*
X185515881Y-153058000D01*
X185520556Y-153057827D01*
X185713337Y-153043501D01*
X185722543Y-153042125D01*
X185975533Y-152984878D01*
X185984444Y-152982154D01*
X186226194Y-152888143D01*
X186234603Y-152884132D01*
X186459798Y-152755422D01*
X186467524Y-152750211D01*
X186671224Y-152589627D01*
X186678092Y-152583333D01*
X186855814Y-152394410D01*
X186861688Y-152387155D01*
X186979462Y-152217387D01*
X186983734Y-152204535D01*
X186975115Y-152202500D01*
X185120615Y-152202500D01*
X185105376Y-152206975D01*
X185104171Y-152208365D01*
X185102500Y-152216048D01*
X185102500Y-153039885D01*
X183197500Y-153039885D01*
X183197500Y-152220615D01*
X183193025Y-152205376D01*
X183191635Y-152204171D01*
X183183952Y-152202500D01*
X181330561Y-152202500D01*
X181317146Y-152206439D01*
X173793003Y-152206439D01*
X173791215Y-152204171D01*
X173784817Y-152195283D01*
X173757935Y-152154282D01*
X173708673Y-152099088D01*
X173703727Y-152093193D01*
X173660817Y-152038762D01*
X173660814Y-152038759D01*
X173657925Y-152035094D01*
X173654523Y-152031894D01*
X173654516Y-152031886D01*
X173622222Y-152001506D01*
X173614554Y-151993635D01*
X173585032Y-151960559D01*
X173585023Y-151960550D01*
X173581914Y-151957067D01*
X173578320Y-151954078D01*
X173578316Y-151954074D01*
X173525039Y-151909764D01*
X173519275Y-151904664D01*
X173468801Y-151857182D01*
X173468790Y-151857173D01*
X173465385Y-151853970D01*
X173425103Y-151826025D01*
X173416355Y-151819373D01*
X173382271Y-151791026D01*
X173378676Y-151788036D01*
X173315425Y-151749654D01*
X173308972Y-151745463D01*
X173252031Y-151705962D01*
X173248188Y-151703296D01*
X173204219Y-151681613D01*
X173194597Y-151676333D01*
X173156687Y-151653329D01*
X173152686Y-151650901D01*
X173120201Y-151637279D01*
X173084450Y-151622287D01*
X173077450Y-151619096D01*
X173015310Y-151588453D01*
X173015308Y-151588452D01*
X173011106Y-151586380D01*
X172964414Y-151571433D01*
X172954137Y-151567642D01*
X172908909Y-151548677D01*
X172837213Y-151530469D01*
X172829815Y-151528348D01*
X172763803Y-151507217D01*
X172763798Y-151507216D01*
X172759347Y-151505791D01*
X172710953Y-151497909D01*
X172700213Y-151495675D01*
X172657236Y-151484760D01*
X172657233Y-151484759D01*
X172652699Y-151483608D01*
X172648043Y-151483139D01*
X172648042Y-151483139D01*
X172579079Y-151476195D01*
X172571475Y-151475195D01*
X172498441Y-151463300D01*
X172461569Y-151462817D01*
X172449437Y-151462658D01*
X172438471Y-151462036D01*
X172437811Y-151461970D01*
X172433144Y-151461500D01*
X172361742Y-151461500D01*
X172360093Y-151461489D01*
X172238798Y-151459901D01*
X172238795Y-151459901D01*
X172234121Y-151459840D01*
X172229487Y-151460471D01*
X172224823Y-151460756D01*
X172224821Y-151460726D01*
X172213391Y-151461500D01*
X167744869Y-151461500D01*
X167676748Y-151441498D01*
X167655774Y-151424595D01*
X164745826Y-148514647D01*
X164740918Y-148509453D01*
X164691031Y-148453559D01*
X164691029Y-148453557D01*
X164687914Y-148450067D01*
X164599076Y-148376181D01*
X164597425Y-148374784D01*
X164594826Y-148372544D01*
X164517945Y-148306299D01*
X164513397Y-148302380D01*
X164513393Y-148302377D01*
X164509859Y-148299332D01*
X164503648Y-148295413D01*
X164490322Y-148285731D01*
X164488275Y-148284029D01*
X164488273Y-148284027D01*
X164484676Y-148281036D01*
X164473816Y-148274446D01*
X164385858Y-148221071D01*
X164383989Y-148219914D01*
X164290249Y-148160769D01*
X164290247Y-148160768D01*
X164286296Y-148158275D01*
X164282017Y-148156392D01*
X164282011Y-148156389D01*
X164279586Y-148155322D01*
X164264973Y-148147716D01*
X164262677Y-148146323D01*
X164258686Y-148143901D01*
X164254377Y-148142094D01*
X164152090Y-148099201D01*
X164150070Y-148098333D01*
X164048622Y-148053695D01*
X164048621Y-148053694D01*
X164044340Y-148051811D01*
X164039831Y-148050582D01*
X164039826Y-148050580D01*
X164037265Y-148049882D01*
X164021680Y-148044517D01*
X164014909Y-148041677D01*
X163902848Y-148013217D01*
X163900834Y-148012687D01*
X163789306Y-147982281D01*
X163784675Y-147981733D01*
X163784660Y-147981730D01*
X163782013Y-147981417D01*
X163765814Y-147978415D01*
X163763236Y-147977760D01*
X163763233Y-147977759D01*
X163758699Y-147976608D01*
X163643696Y-147965027D01*
X163641628Y-147964801D01*
X163526795Y-147951210D01*
X163421088Y-147954440D01*
X163421048Y-147954441D01*
X163417200Y-147954500D01*
X160322948Y-147954500D01*
X160254827Y-147934498D01*
X160208334Y-147880842D01*
X160198230Y-147810568D01*
X160227724Y-147745988D01*
X160233266Y-147740087D01*
X160236005Y-147737768D01*
X160300661Y-147664042D01*
X160405257Y-147544774D01*
X160405261Y-147544769D01*
X160408339Y-147541259D01*
X160420088Y-147522994D01*
X160524569Y-147360559D01*
X160549733Y-147321437D01*
X160657083Y-147083129D01*
X160694876Y-146949128D01*
X160726760Y-146836076D01*
X160726761Y-146836073D01*
X160728030Y-146831572D01*
X160744832Y-146699496D01*
X160760616Y-146575421D01*
X160760616Y-146575417D01*
X160761014Y-146572291D01*
X160761640Y-146548411D01*
X160762758Y-146505693D01*
X160763431Y-146480000D01*
X160757350Y-146398170D01*
X160744407Y-146224000D01*
X160744406Y-146223996D01*
X160744061Y-146219348D01*
X160738499Y-146194764D01*
X160687408Y-145968980D01*
X160686377Y-145964423D01*
X160591647Y-145720823D01*
X160589030Y-145716243D01*
X160467342Y-145503334D01*
X160461951Y-145493902D01*
X160300138Y-145288643D01*
X160109763Y-145109557D01*
X159943557Y-144994255D01*
X159898851Y-144963241D01*
X159898848Y-144963239D01*
X159895009Y-144960576D01*
X159856747Y-144941707D01*
X159778599Y-144903169D01*
X159759672Y-144893836D01*
X159707424Y-144845768D01*
X159689457Y-144777082D01*
X159711476Y-144709587D01*
X159765663Y-144665062D01*
X159809972Y-144646025D01*
X159814262Y-144644182D01*
X159876050Y-144605947D01*
X160032547Y-144509104D01*
X160032548Y-144509104D01*
X160036519Y-144506646D01*
X160040082Y-144503629D01*
X160040087Y-144503626D01*
X160232439Y-144340787D01*
X160232440Y-144340786D01*
X160236005Y-144337768D01*
X160324451Y-144236915D01*
X160405257Y-144144774D01*
X160405261Y-144144769D01*
X160408339Y-144141259D01*
X160411294Y-144136666D01*
X160535362Y-143943779D01*
X160549733Y-143921437D01*
X160657083Y-143683129D01*
X160699700Y-143532022D01*
X160726760Y-143436076D01*
X160726761Y-143436073D01*
X160728030Y-143431572D01*
X160744832Y-143299496D01*
X160760616Y-143175421D01*
X160760616Y-143175417D01*
X160761014Y-143172291D01*
X160761259Y-143162965D01*
X160762422Y-143118527D01*
X160763431Y-143080000D01*
X160748765Y-142882649D01*
X160744407Y-142824000D01*
X160744406Y-142823996D01*
X160744061Y-142819348D01*
X160732725Y-142769248D01*
X160695031Y-142602670D01*
X160686377Y-142564423D01*
X160677755Y-142542251D01*
X160593340Y-142325176D01*
X160593339Y-142325173D01*
X160591647Y-142320823D01*
X160577755Y-142296516D01*
X160543626Y-142236804D01*
X160461951Y-142093902D01*
X160300138Y-141888643D01*
X160109763Y-141709557D01*
X159957437Y-141603884D01*
X159898851Y-141563241D01*
X159898848Y-141563239D01*
X159895009Y-141560576D01*
X159890816Y-141558508D01*
X159664781Y-141447040D01*
X159664778Y-141447039D01*
X159660593Y-141444975D01*
X159614449Y-141430204D01*
X159416123Y-141366720D01*
X159411665Y-141365293D01*
X159153693Y-141323279D01*
X159039942Y-141321790D01*
X158897022Y-141319919D01*
X158897019Y-141319919D01*
X158892345Y-141319858D01*
X158633362Y-141355104D01*
X158628876Y-141356412D01*
X158628874Y-141356412D01*
X158598405Y-141365293D01*
X158382433Y-141428243D01*
X158378180Y-141430203D01*
X158378179Y-141430204D01*
X158341659Y-141447040D01*
X158145072Y-141537668D01*
X158109820Y-141560780D01*
X157930404Y-141678410D01*
X157930399Y-141678414D01*
X157926491Y-141680976D01*
X157731494Y-141855018D01*
X157564363Y-142055970D01*
X157561934Y-142059973D01*
X157436974Y-142265901D01*
X157428771Y-142279419D01*
X157327697Y-142520455D01*
X157263359Y-142773783D01*
X157262891Y-142778434D01*
X157262890Y-142778438D01*
X157261604Y-142791210D01*
X157237173Y-143033839D01*
X157237397Y-143038505D01*
X157237397Y-143038511D01*
X157243114Y-143157519D01*
X157249713Y-143294908D01*
X157300704Y-143551256D01*
X157389026Y-143797252D01*
X157391242Y-143801376D01*
X157498837Y-144001621D01*
X157512737Y-144027491D01*
X157515532Y-144031234D01*
X157515534Y-144031237D01*
X157666330Y-144233177D01*
X157666335Y-144233183D01*
X157669122Y-144236915D01*
X157672431Y-144240195D01*
X157672436Y-144240201D01*
X157851426Y-144417635D01*
X157854743Y-144420923D01*
X157858505Y-144423681D01*
X157858508Y-144423684D01*
X158061030Y-144572179D01*
X158065524Y-144575474D01*
X158235803Y-144665062D01*
X158243474Y-144669098D01*
X158294446Y-144718517D01*
X158310609Y-144787650D01*
X158286830Y-144854546D01*
X158237558Y-144895032D01*
X158145072Y-144937668D01*
X158110052Y-144960628D01*
X157930404Y-145078410D01*
X157930399Y-145078414D01*
X157926491Y-145080976D01*
X157731494Y-145255018D01*
X157564363Y-145455970D01*
X157561934Y-145459973D01*
X157439817Y-145661216D01*
X157428771Y-145679419D01*
X157327697Y-145920455D01*
X157263359Y-146173783D01*
X157262891Y-146178434D01*
X157262890Y-146178438D01*
X157259229Y-146214794D01*
X157237173Y-146433839D01*
X157237397Y-146438505D01*
X157237397Y-146438511D01*
X157242024Y-146534825D01*
X157249713Y-146694908D01*
X157267470Y-146784177D01*
X157288641Y-146890612D01*
X157282313Y-146961326D01*
X157238759Y-147017393D01*
X157171806Y-147041012D01*
X157102712Y-147024685D01*
X157075967Y-147004288D01*
X156564905Y-146493226D01*
X156530879Y-146430914D01*
X156528000Y-146404131D01*
X156528000Y-139882473D01*
X156528203Y-139875329D01*
X156532450Y-139800549D01*
X156532450Y-139800543D01*
X156532715Y-139795874D01*
X156528546Y-139750497D01*
X156522150Y-139680887D01*
X156521968Y-139678697D01*
X156513745Y-139568053D01*
X156513743Y-139568039D01*
X156513397Y-139563384D01*
X156511775Y-139556214D01*
X156509198Y-139539942D01*
X156508955Y-139537297D01*
X156508527Y-139532640D01*
X156507416Y-139528101D01*
X156507415Y-139528093D01*
X156481066Y-139420411D01*
X156480562Y-139418273D01*
X156456421Y-139311587D01*
X156455057Y-139305559D01*
X156452399Y-139298725D01*
X156447443Y-139283007D01*
X156445697Y-139275871D01*
X156439990Y-139261920D01*
X156401932Y-139168896D01*
X156401117Y-139166853D01*
X156360944Y-139063547D01*
X156360942Y-139063544D01*
X156359249Y-139059189D01*
X156355604Y-139052811D01*
X156348386Y-139038011D01*
X156347375Y-139035540D01*
X156347373Y-139035537D01*
X156345604Y-139031212D01*
X156286514Y-138931890D01*
X156285407Y-138929992D01*
X156249554Y-138867263D01*
X156228078Y-138829687D01*
X156223532Y-138823920D01*
X156214202Y-138810345D01*
X156212839Y-138808054D01*
X156210447Y-138804033D01*
X156207489Y-138800413D01*
X156207483Y-138800404D01*
X156137298Y-138714503D01*
X156135921Y-138712787D01*
X156067322Y-138625769D01*
X156064425Y-138622094D01*
X156061026Y-138618896D01*
X156061020Y-138618890D01*
X155987348Y-138549587D01*
X155984586Y-138546907D01*
X153506326Y-136068647D01*
X153501418Y-136063453D01*
X153451531Y-136007559D01*
X153451529Y-136007557D01*
X153448414Y-136004067D01*
X153359576Y-135930181D01*
X153357925Y-135928784D01*
X153273897Y-135856380D01*
X153273893Y-135856377D01*
X153270359Y-135853332D01*
X153264148Y-135849413D01*
X153250822Y-135839731D01*
X153248775Y-135838029D01*
X153248773Y-135838027D01*
X153245176Y-135835036D01*
X153197493Y-135806101D01*
X153146358Y-135775071D01*
X153144489Y-135773914D01*
X153050749Y-135714769D01*
X153050747Y-135714768D01*
X153046796Y-135712275D01*
X153042517Y-135710392D01*
X153042511Y-135710389D01*
X153040086Y-135709322D01*
X153025473Y-135701716D01*
X153023177Y-135700323D01*
X153019186Y-135697901D01*
X152978627Y-135680893D01*
X152912590Y-135653201D01*
X152910570Y-135652333D01*
X152809122Y-135607695D01*
X152809121Y-135607694D01*
X152804840Y-135605811D01*
X152800331Y-135604582D01*
X152800326Y-135604580D01*
X152797765Y-135603882D01*
X152782180Y-135598517D01*
X152775409Y-135595677D01*
X152663348Y-135567217D01*
X152661334Y-135566687D01*
X152549806Y-135536281D01*
X152545175Y-135535733D01*
X152545160Y-135535730D01*
X152542513Y-135535417D01*
X152526314Y-135532415D01*
X152523736Y-135531760D01*
X152523733Y-135531759D01*
X152519199Y-135530608D01*
X152404196Y-135519027D01*
X152402128Y-135518801D01*
X152287295Y-135505210D01*
X152186261Y-135508297D01*
X152181548Y-135508441D01*
X152177700Y-135508500D01*
X146710869Y-135508500D01*
X146642748Y-135488498D01*
X146596255Y-135434842D01*
X146586151Y-135364568D01*
X146615645Y-135299988D01*
X146621774Y-135293405D01*
X147839853Y-134075326D01*
X147845047Y-134070418D01*
X147900941Y-134020531D01*
X147900943Y-134020529D01*
X147904433Y-134017414D01*
X147978319Y-133928576D01*
X147979716Y-133926925D01*
X147982143Y-133924109D01*
X148048382Y-133847235D01*
X148052120Y-133842897D01*
X148052123Y-133842893D01*
X148055168Y-133839359D01*
X148059087Y-133833148D01*
X148068769Y-133819822D01*
X148070471Y-133817775D01*
X148070473Y-133817773D01*
X148073464Y-133814176D01*
X148133429Y-133715358D01*
X148134586Y-133713489D01*
X148193731Y-133619749D01*
X148193732Y-133619747D01*
X148196225Y-133615796D01*
X148198108Y-133611517D01*
X148198111Y-133611511D01*
X148199178Y-133609086D01*
X148206784Y-133594473D01*
X148208177Y-133592177D01*
X148210599Y-133588186D01*
X148253285Y-133486393D01*
X148255299Y-133481590D01*
X148256167Y-133479570D01*
X148300805Y-133378122D01*
X148300806Y-133378121D01*
X148302689Y-133373840D01*
X148304618Y-133366765D01*
X148309983Y-133351180D01*
X148312823Y-133344409D01*
X148341283Y-133232348D01*
X148341813Y-133230334D01*
X148372219Y-133118806D01*
X148372767Y-133114175D01*
X148372770Y-133114160D01*
X148373083Y-133111513D01*
X148376085Y-133095314D01*
X148376740Y-133092736D01*
X148376741Y-133092733D01*
X148377892Y-133088199D01*
X148389473Y-132973196D01*
X148389699Y-132971128D01*
X148403290Y-132856295D01*
X148400059Y-132750548D01*
X148400000Y-132746700D01*
X148400000Y-121844544D01*
X153157109Y-121844544D01*
X153158337Y-121884721D01*
X153161441Y-121986315D01*
X153161500Y-121990163D01*
X153161500Y-131464189D01*
X153161499Y-131464739D01*
X153160566Y-131678591D01*
X153166426Y-131742367D01*
X153170672Y-131788579D01*
X153171056Y-131794062D01*
X153176356Y-131904394D01*
X153189424Y-131994522D01*
X153190191Y-132000995D01*
X153198527Y-132091722D01*
X153199092Y-132094697D01*
X153219134Y-132200260D01*
X153220038Y-132205662D01*
X153235887Y-132314972D01*
X153248840Y-132367904D01*
X153257526Y-132403401D01*
X153258926Y-132409849D01*
X153275345Y-132496335D01*
X153275348Y-132496347D01*
X153275911Y-132499313D01*
X153276760Y-132502226D01*
X153276761Y-132502230D01*
X153306822Y-132605365D01*
X153308245Y-132610675D01*
X153334496Y-132717954D01*
X153335493Y-132720809D01*
X153364514Y-132803913D01*
X153366525Y-132810194D01*
X153392004Y-132897610D01*
X153393122Y-132900412D01*
X153432934Y-133000203D01*
X153434858Y-133005348D01*
X153471275Y-133109630D01*
X153472543Y-133112380D01*
X153472544Y-133112383D01*
X153509398Y-133192325D01*
X153511999Y-133198380D01*
X153545738Y-133282946D01*
X153547126Y-133285641D01*
X153596308Y-133381135D01*
X153598718Y-133386076D01*
X153642751Y-133481590D01*
X153644965Y-133486393D01*
X153646493Y-133489013D01*
X153690837Y-133565050D01*
X153693991Y-133570798D01*
X153735696Y-133651775D01*
X153737331Y-133654318D01*
X153737334Y-133654322D01*
X153795465Y-133744696D01*
X153798330Y-133749371D01*
X153853967Y-133844774D01*
X153855739Y-133847235D01*
X153907155Y-133918657D01*
X153910868Y-133924109D01*
X153958493Y-133998150D01*
X153960132Y-134000698D01*
X154028519Y-134087447D01*
X154031806Y-134091809D01*
X154096355Y-134181473D01*
X154098346Y-134183743D01*
X154156400Y-134249941D01*
X154160613Y-134255007D01*
X154216976Y-134326503D01*
X154324123Y-134441404D01*
X154324224Y-134441505D01*
X154327867Y-134445462D01*
X154369899Y-134493390D01*
X154372095Y-134495455D01*
X154372100Y-134495461D01*
X154473240Y-134590603D01*
X154476002Y-134593283D01*
X169312710Y-149429992D01*
X169318347Y-149436009D01*
X169359899Y-149483390D01*
X169362095Y-149485455D01*
X169362100Y-149485461D01*
X169463223Y-149580587D01*
X169465985Y-149583267D01*
X169490685Y-149607967D01*
X169491813Y-149608992D01*
X169491825Y-149609003D01*
X169537618Y-149650597D01*
X169539234Y-149652090D01*
X169659881Y-149765584D01*
X169659888Y-149765590D01*
X169662080Y-149767652D01*
X169688039Y-149787752D01*
X169695593Y-149794091D01*
X169719885Y-149816156D01*
X169722298Y-149817958D01*
X169722303Y-149817962D01*
X169744582Y-149834598D01*
X169855027Y-149917071D01*
X169856729Y-149918366D01*
X169987711Y-150019784D01*
X169987719Y-150019790D01*
X169990114Y-150021644D01*
X170009627Y-150033956D01*
X170017867Y-150039155D01*
X170026018Y-150044757D01*
X170049886Y-150062580D01*
X170052302Y-150064384D01*
X170120208Y-150105590D01*
X170196471Y-150151868D01*
X170198341Y-150153025D01*
X170338432Y-150241416D01*
X170338441Y-150241421D01*
X170340983Y-150243025D01*
X170343679Y-150244384D01*
X170343681Y-150244385D01*
X170370286Y-150257795D01*
X170378927Y-150262585D01*
X170406980Y-150279608D01*
X170439855Y-150295465D01*
X170558869Y-150352871D01*
X170560842Y-150353844D01*
X170708757Y-150428400D01*
X170708764Y-150428403D01*
X170711454Y-150429759D01*
X170736831Y-150439627D01*
X170742038Y-150441652D01*
X170751095Y-150445590D01*
X170780655Y-150459848D01*
X170938907Y-150518230D01*
X170940887Y-150518981D01*
X171098118Y-150580124D01*
X171101023Y-150580943D01*
X171101028Y-150580945D01*
X171129699Y-150589031D01*
X171139108Y-150592088D01*
X171169884Y-150603442D01*
X171271588Y-150630218D01*
X171332982Y-150646382D01*
X171335104Y-150646961D01*
X171362311Y-150654634D01*
X171497413Y-150692737D01*
X171500392Y-150693276D01*
X171500402Y-150693278D01*
X171522642Y-150697299D01*
X171529707Y-150698577D01*
X171539338Y-150700711D01*
X171571084Y-150709069D01*
X171737639Y-150736194D01*
X171739687Y-150736546D01*
X171905664Y-150766560D01*
X171908670Y-150766810D01*
X171908679Y-150766811D01*
X171925981Y-150768248D01*
X171938348Y-150769276D01*
X171948162Y-150770481D01*
X171977563Y-150775270D01*
X171977585Y-150775273D01*
X171980560Y-150775757D01*
X172148919Y-150786792D01*
X172151059Y-150786951D01*
X172202459Y-150791222D01*
X172316096Y-150800665D01*
X172316105Y-150800665D01*
X172319110Y-150800915D01*
X172341147Y-150800627D01*
X172351909Y-150800486D01*
X172361797Y-150800745D01*
X172391516Y-150802693D01*
X172391526Y-150802693D01*
X172394544Y-150802891D01*
X172476668Y-150800382D01*
X172563103Y-150797741D01*
X172565301Y-150797693D01*
X172730919Y-150795525D01*
X172730927Y-150795525D01*
X172733946Y-150795485D01*
X172750474Y-150793675D01*
X172766575Y-150791912D01*
X172776441Y-150791222D01*
X172785585Y-150790942D01*
X172809222Y-150790220D01*
X172812215Y-150789839D01*
X172812218Y-150789839D01*
X172872903Y-150782119D01*
X172976522Y-150768937D01*
X172978654Y-150768685D01*
X173146352Y-150750319D01*
X173149309Y-150749704D01*
X173149315Y-150749703D01*
X173178479Y-150743637D01*
X173188233Y-150742004D01*
X173220776Y-150737864D01*
X173223719Y-150737198D01*
X173223725Y-150737197D01*
X173385203Y-150700658D01*
X173387352Y-150700191D01*
X173463649Y-150684321D01*
X173552530Y-150665834D01*
X173583880Y-150656099D01*
X173593426Y-150653542D01*
X173625418Y-150646303D01*
X173730918Y-150611515D01*
X173785567Y-150593495D01*
X173787660Y-150592825D01*
X173905567Y-150556213D01*
X173948741Y-150542807D01*
X173951540Y-150541633D01*
X173951549Y-150541630D01*
X173979001Y-150530119D01*
X173988268Y-150526654D01*
X174016544Y-150517330D01*
X174016549Y-150517328D01*
X174019421Y-150516381D01*
X174173782Y-150448460D01*
X174175803Y-150447592D01*
X174328536Y-150383546D01*
X174331336Y-150382372D01*
X174334005Y-150380938D01*
X174334011Y-150380935D01*
X174360242Y-150366840D01*
X174369138Y-150362501D01*
X174396391Y-150350510D01*
X174396400Y-150350506D01*
X174399158Y-150349292D01*
X174495273Y-150295465D01*
X181316266Y-150295465D01*
X181324885Y-150297500D01*
X183179385Y-150297500D01*
X183194624Y-150293025D01*
X183195829Y-150291635D01*
X183197500Y-150283952D01*
X183197500Y-150279385D01*
X185102500Y-150279385D01*
X185106975Y-150294624D01*
X185108365Y-150295829D01*
X185116048Y-150297500D01*
X186969439Y-150297500D01*
X186982854Y-150293561D01*
X186979968Y-150285929D01*
X186890971Y-150150186D01*
X186885288Y-150142781D01*
X186712581Y-149949279D01*
X186705865Y-149942794D01*
X186506449Y-149776941D01*
X186498862Y-149771529D01*
X186277109Y-149636965D01*
X186268808Y-149632736D01*
X186029611Y-149532432D01*
X186020761Y-149529471D01*
X185769375Y-149465628D01*
X185760178Y-149464006D01*
X185544781Y-149442316D01*
X185538489Y-149442000D01*
X185120615Y-149442000D01*
X185105376Y-149446475D01*
X185104171Y-149447865D01*
X185102500Y-149455548D01*
X185102500Y-150279385D01*
X183197500Y-150279385D01*
X183197500Y-149460115D01*
X183193025Y-149444876D01*
X183191635Y-149443671D01*
X183183952Y-149442000D01*
X182784119Y-149442000D01*
X182779444Y-149442173D01*
X182586663Y-149456499D01*
X182577457Y-149457875D01*
X182324467Y-149515122D01*
X182315556Y-149517846D01*
X182073806Y-149611857D01*
X182065397Y-149615868D01*
X181840202Y-149744578D01*
X181832476Y-149749789D01*
X181628776Y-149910373D01*
X181621908Y-149916667D01*
X181444186Y-150105590D01*
X181438312Y-150112845D01*
X181320538Y-150282613D01*
X181316266Y-150295465D01*
X174495273Y-150295465D01*
X174546335Y-150266869D01*
X174548251Y-150265819D01*
X174554255Y-150262593D01*
X174696792Y-150186005D01*
X174724069Y-150167779D01*
X174732503Y-150162611D01*
X174758490Y-150148058D01*
X174758497Y-150148054D01*
X174761132Y-150146578D01*
X174899713Y-150050440D01*
X174901508Y-150049218D01*
X174908185Y-150044757D01*
X175041745Y-149955515D01*
X175067166Y-149934746D01*
X175075043Y-149928809D01*
X175102010Y-149910101D01*
X175230679Y-149801174D01*
X175232367Y-149799770D01*
X175360684Y-149694931D01*
X175360687Y-149694929D01*
X175363019Y-149693023D01*
X175386327Y-149669918D01*
X175393609Y-149663244D01*
X175418653Y-149642043D01*
X175420756Y-149639884D01*
X175420768Y-149639873D01*
X175536308Y-149521267D01*
X175537857Y-149519704D01*
X175655507Y-149403077D01*
X175655514Y-149403070D01*
X175657655Y-149400947D01*
X175665374Y-149391666D01*
X175678637Y-149375720D01*
X175685255Y-149368371D01*
X175706025Y-149347050D01*
X175706041Y-149347031D01*
X175708147Y-149344870D01*
X175813721Y-149213327D01*
X175815039Y-149211713D01*
X175922940Y-149081977D01*
X175941423Y-149054831D01*
X175947300Y-149046891D01*
X175965926Y-149023683D01*
X175965927Y-149023682D01*
X175967824Y-149021318D01*
X176060279Y-148880301D01*
X176061490Y-148878488D01*
X176154726Y-148741554D01*
X176154729Y-148741550D01*
X176156432Y-148739048D01*
X176172214Y-148710281D01*
X176177310Y-148701800D01*
X176177822Y-148701018D01*
X176195296Y-148674367D01*
X176273817Y-148525122D01*
X176274849Y-148523201D01*
X176282392Y-148509453D01*
X176341833Y-148401106D01*
X176354527Y-148377968D01*
X176354529Y-148377963D01*
X176355980Y-148375319D01*
X176368936Y-148345163D01*
X176373188Y-148336248D01*
X176387054Y-148309895D01*
X176387059Y-148309883D01*
X176388466Y-148307210D01*
X176390212Y-148302944D01*
X176428377Y-148209656D01*
X176452328Y-148151111D01*
X176453164Y-148149117D01*
X176454365Y-148146323D01*
X176499199Y-148041969D01*
X176518553Y-147996921D01*
X176518555Y-147996917D01*
X176519748Y-147994139D01*
X176520670Y-147991259D01*
X176520674Y-147991248D01*
X176529750Y-147962893D01*
X176533128Y-147953611D01*
X176545557Y-147923230D01*
X176594163Y-147761730D01*
X176594809Y-147759649D01*
X176598391Y-147748461D01*
X176637772Y-147625434D01*
X176645307Y-147601895D01*
X176645308Y-147601890D01*
X176646228Y-147599017D01*
X176646869Y-147596067D01*
X176646872Y-147596054D01*
X176653191Y-147566948D01*
X176655662Y-147557392D01*
X176665121Y-147525961D01*
X176698029Y-147360519D01*
X176698469Y-147358406D01*
X176702183Y-147341303D01*
X176734254Y-147193591D01*
X176734684Y-147189962D01*
X176738110Y-147161009D01*
X176739658Y-147151234D01*
X176745470Y-147122018D01*
X176746058Y-147119062D01*
X176746361Y-147116057D01*
X176762950Y-146951313D01*
X176763189Y-146949128D01*
X176782712Y-146784177D01*
X176782713Y-146784166D01*
X176783017Y-146781596D01*
X176783888Y-146756666D01*
X176784454Y-146740444D01*
X176785011Y-146732217D01*
X176787321Y-146709282D01*
X176787322Y-146709269D01*
X176787623Y-146706277D01*
X176787897Y-146643527D01*
X176787973Y-146639680D01*
X176788461Y-146625714D01*
X176788461Y-146625687D01*
X176788500Y-146624584D01*
X176788500Y-146505693D01*
X176788501Y-146505143D01*
X176789421Y-146294436D01*
X176789421Y-146294432D01*
X176789434Y-146291409D01*
X176789027Y-146286981D01*
X176788500Y-146275472D01*
X176788500Y-145110716D01*
X181039812Y-145110716D01*
X181076060Y-145377063D01*
X181151278Y-145635126D01*
X181170171Y-145676108D01*
X181179732Y-145706433D01*
X181180250Y-145709294D01*
X181180888Y-145712821D01*
X181280667Y-146044352D01*
X181417336Y-146362456D01*
X181589136Y-146663044D01*
X181591244Y-146665919D01*
X181591246Y-146665922D01*
X181791747Y-146939371D01*
X181791752Y-146939377D01*
X181793860Y-146942252D01*
X181802183Y-146951256D01*
X182023426Y-147190595D01*
X182028875Y-147196490D01*
X182291159Y-147422488D01*
X182375711Y-147480058D01*
X182574384Y-147615331D01*
X182574389Y-147615334D01*
X182577341Y-147617344D01*
X182883742Y-147778549D01*
X182940300Y-147800543D01*
X183146790Y-147880842D01*
X183206423Y-147904032D01*
X183209867Y-147904939D01*
X183209874Y-147904941D01*
X183537780Y-147991272D01*
X183537786Y-147991273D01*
X183541234Y-147992181D01*
X183544772Y-147992694D01*
X183716322Y-148017567D01*
X183883872Y-148041860D01*
X184069254Y-148047524D01*
X184226351Y-148052325D01*
X184226358Y-148052325D01*
X184229931Y-148052434D01*
X184574963Y-148023764D01*
X184870783Y-147964921D01*
X184911037Y-147956914D01*
X184911040Y-147956913D01*
X184914530Y-147956219D01*
X185071574Y-147905949D01*
X185240869Y-147851758D01*
X185240874Y-147851756D01*
X185244270Y-147850669D01*
X185247529Y-147849201D01*
X185556679Y-147709940D01*
X185556687Y-147709936D01*
X185559941Y-147708470D01*
X185857485Y-147531449D01*
X186133077Y-147321884D01*
X186135293Y-147319836D01*
X186215093Y-147246070D01*
X186215117Y-147246047D01*
X186215991Y-147245239D01*
X186926405Y-146534825D01*
X186988717Y-146500799D01*
X187059532Y-146505864D01*
X187116368Y-146548411D01*
X187141179Y-146614931D01*
X187141500Y-146623920D01*
X187141500Y-149368237D01*
X187141673Y-149370562D01*
X187141673Y-149370568D01*
X187150211Y-149485461D01*
X187156350Y-149568063D01*
X187157380Y-149572616D01*
X187157381Y-149572621D01*
X187212487Y-149816156D01*
X187215673Y-149830237D01*
X187313098Y-150080762D01*
X187446482Y-150314136D01*
X187449372Y-150317802D01*
X187449374Y-150317805D01*
X187488030Y-150366840D01*
X187612895Y-150525231D01*
X187808683Y-150709409D01*
X188029543Y-150862626D01*
X188033733Y-150864693D01*
X188033736Y-150864694D01*
X188266436Y-150979449D01*
X188266439Y-150979450D01*
X188270624Y-150981514D01*
X188275067Y-150982936D01*
X188275069Y-150982937D01*
X188324382Y-150998722D01*
X188526630Y-151063462D01*
X188531237Y-151064212D01*
X188531240Y-151064213D01*
X188697046Y-151091216D01*
X188791937Y-151106670D01*
X188922281Y-151108376D01*
X189056039Y-151110127D01*
X189056042Y-151110127D01*
X189060716Y-151110188D01*
X189327063Y-151073940D01*
X189585126Y-150998722D01*
X189829237Y-150886185D01*
X189953265Y-150804869D01*
X190050119Y-150741369D01*
X190050124Y-150741365D01*
X190054032Y-150738803D01*
X190205691Y-150603442D01*
X190251082Y-150562929D01*
X190251084Y-150562927D01*
X190254574Y-150559812D01*
X190426456Y-150353146D01*
X190565904Y-150123344D01*
X190591385Y-150062580D01*
X190668043Y-149879769D01*
X190669852Y-149875455D01*
X190736019Y-149614923D01*
X190758500Y-149391666D01*
X190758500Y-146631763D01*
X190758051Y-146625714D01*
X190743996Y-146436592D01*
X190743996Y-146436591D01*
X190743650Y-146431937D01*
X190742619Y-146427379D01*
X190685361Y-146174331D01*
X190685360Y-146174326D01*
X190684327Y-146169763D01*
X190586902Y-145919238D01*
X190453518Y-145685864D01*
X190448438Y-145679419D01*
X190309820Y-145503583D01*
X190287105Y-145474769D01*
X190091317Y-145290591D01*
X189911289Y-145165700D01*
X189874299Y-145140039D01*
X189874296Y-145140037D01*
X189870457Y-145137374D01*
X189866264Y-145135306D01*
X189633564Y-145020551D01*
X189633561Y-145020550D01*
X189629376Y-145018486D01*
X189586984Y-145004916D01*
X189527621Y-144985914D01*
X189373370Y-144936538D01*
X189368763Y-144935788D01*
X189368760Y-144935787D01*
X189161846Y-144902089D01*
X189108063Y-144893330D01*
X188873499Y-144890260D01*
X188805647Y-144869368D01*
X188759860Y-144815109D01*
X188750677Y-144744709D01*
X188781013Y-144680519D01*
X188786054Y-144675176D01*
X191984719Y-141476511D01*
X191987481Y-141473831D01*
X192018156Y-141444975D01*
X192079916Y-141386877D01*
X192164917Y-141286470D01*
X192167081Y-141283981D01*
X192252292Y-141188511D01*
X192252296Y-141188505D01*
X192254679Y-141185836D01*
X192274596Y-141157654D01*
X192281321Y-141148969D01*
X192301314Y-141125352D01*
X192301317Y-141125349D01*
X192303618Y-141122630D01*
X192376696Y-141013260D01*
X192378555Y-141010556D01*
X192379748Y-141008869D01*
X192454499Y-140903098D01*
X192461719Y-140889938D01*
X192471102Y-140872836D01*
X192476801Y-140863444D01*
X192493982Y-140837729D01*
X192493983Y-140837727D01*
X192495967Y-140834758D01*
X192556192Y-140717824D01*
X192557739Y-140714916D01*
X192598340Y-140640909D01*
X192621027Y-140599556D01*
X192625311Y-140589086D01*
X192634095Y-140567614D01*
X192638697Y-140557632D01*
X192654493Y-140526962D01*
X192701098Y-140403951D01*
X192702307Y-140400882D01*
X192750769Y-140282425D01*
X192750770Y-140282422D01*
X192752123Y-140279115D01*
X192753093Y-140275677D01*
X192753096Y-140275667D01*
X192761490Y-140245904D01*
X192764932Y-140235466D01*
X192775887Y-140206552D01*
X192775894Y-140206530D01*
X192777156Y-140203199D01*
X192782707Y-140181345D01*
X192809538Y-140075694D01*
X192810392Y-140072508D01*
X192845129Y-139949341D01*
X192845131Y-139949334D01*
X192846101Y-139945893D01*
X192851648Y-139911838D01*
X192853885Y-139901080D01*
X192861500Y-139871095D01*
X192861502Y-139871083D01*
X192862379Y-139867631D01*
X192880114Y-139737314D01*
X192880601Y-139734055D01*
X192887142Y-139693892D01*
X192901753Y-139604176D01*
X192903410Y-139569694D01*
X192904415Y-139558754D01*
X192906940Y-139540206D01*
X192909067Y-139524573D01*
X192913500Y-139411747D01*
X192913500Y-139362642D01*
X192913645Y-139356597D01*
X192918193Y-139261920D01*
X192918193Y-139261914D01*
X192918364Y-139258353D01*
X192913770Y-139188262D01*
X192913500Y-139180021D01*
X192913500Y-132622298D01*
X192904706Y-132467434D01*
X192899055Y-132367904D01*
X192899054Y-132367897D01*
X192898852Y-132364336D01*
X192852009Y-132091722D01*
X192840825Y-132026634D01*
X192840823Y-132026626D01*
X192840220Y-132023116D01*
X192743337Y-131690727D01*
X192609450Y-131371442D01*
X192440279Y-131069366D01*
X192238000Y-130788383D01*
X192074263Y-130608123D01*
X192007617Y-130534751D01*
X192007611Y-130534745D01*
X192005212Y-130532104D01*
X191744910Y-130303825D01*
X191460439Y-130106480D01*
X191155456Y-129942607D01*
X190833883Y-129814313D01*
X190499854Y-129723246D01*
X190157663Y-129670578D01*
X190031966Y-129665639D01*
X189815279Y-129657125D01*
X189815274Y-129657125D01*
X189811709Y-129656985D01*
X189605154Y-129672335D01*
X189470003Y-129682378D01*
X189469998Y-129682379D01*
X189466441Y-129682643D01*
X189126296Y-129747221D01*
X188795649Y-129849890D01*
X188792371Y-129851333D01*
X188792364Y-129851335D01*
X188482030Y-129987885D01*
X188482025Y-129987887D01*
X188478749Y-129989329D01*
X188179671Y-130163746D01*
X187902261Y-130370899D01*
X187899663Y-130373343D01*
X187899657Y-130373348D01*
X187776172Y-130489511D01*
X187650084Y-130608123D01*
X187426382Y-130872370D01*
X187234033Y-131160242D01*
X187232394Y-131163424D01*
X187232393Y-131163426D01*
X187123555Y-131374748D01*
X187075507Y-131468038D01*
X186952844Y-131791801D01*
X186951966Y-131795260D01*
X186951963Y-131795268D01*
X186868501Y-132123902D01*
X186868499Y-132123910D01*
X186867621Y-132127369D01*
X186820933Y-132470427D01*
X186816500Y-132583253D01*
X186816500Y-137970080D01*
X186796498Y-138038201D01*
X186779595Y-138059175D01*
X181932370Y-142906400D01*
X181760321Y-143099164D01*
X181716526Y-143161132D01*
X181562564Y-143378982D01*
X181562559Y-143378990D01*
X181560501Y-143381902D01*
X181393974Y-143685443D01*
X181392622Y-143688748D01*
X181392620Y-143688752D01*
X181264231Y-144002573D01*
X181264228Y-144002582D01*
X181262877Y-144005884D01*
X181216691Y-144169649D01*
X181184769Y-144282833D01*
X181176507Y-144304357D01*
X181170556Y-144316426D01*
X181168486Y-144320624D01*
X181086538Y-144576630D01*
X181085788Y-144581237D01*
X181085787Y-144581240D01*
X181063896Y-144715654D01*
X181043330Y-144841937D01*
X181042052Y-144939574D01*
X181040053Y-145092334D01*
X181039812Y-145110716D01*
X176788500Y-145110716D01*
X176788500Y-142974887D01*
X176773644Y-142665606D01*
X176723065Y-142316767D01*
X176714548Y-142258027D01*
X176714547Y-142258024D01*
X176714113Y-142255028D01*
X176637766Y-141943024D01*
X176616223Y-141854983D01*
X176616221Y-141854977D01*
X176615504Y-141852046D01*
X176554868Y-141678410D01*
X176479725Y-141463233D01*
X176479724Y-141463229D01*
X176478725Y-141460370D01*
X176305035Y-141083607D01*
X176303511Y-141080994D01*
X176303507Y-141080986D01*
X176097553Y-140727832D01*
X176097551Y-140727829D01*
X176096033Y-140725226D01*
X176003182Y-140596247D01*
X175855417Y-140390988D01*
X175855413Y-140390984D01*
X175853645Y-140388527D01*
X175775393Y-140299297D01*
X175582092Y-140078880D01*
X175582089Y-140078877D01*
X175580101Y-140076610D01*
X175577905Y-140074545D01*
X175577900Y-140074539D01*
X175280120Y-139794417D01*
X175280114Y-139794412D01*
X175277920Y-139792348D01*
X175273839Y-139789188D01*
X174952276Y-139540206D01*
X174952269Y-139540201D01*
X174949886Y-139538356D01*
X174725808Y-139396974D01*
X174601574Y-139318588D01*
X174601569Y-139318585D01*
X174599017Y-139316975D01*
X174588328Y-139311587D01*
X174278863Y-139155603D01*
X174228546Y-139130241D01*
X173862768Y-138987998D01*
X173844698Y-138980971D01*
X173844697Y-138980971D01*
X173841882Y-138979876D01*
X173535797Y-138893551D01*
X173445495Y-138868083D01*
X173445492Y-138868082D01*
X173442587Y-138867263D01*
X173034336Y-138793440D01*
X172827613Y-138776263D01*
X172623904Y-138759335D01*
X172623895Y-138759335D01*
X172620890Y-138759085D01*
X172403382Y-138761932D01*
X172209081Y-138764475D01*
X172209073Y-138764475D01*
X172206054Y-138764515D01*
X172203055Y-138764843D01*
X172203046Y-138764844D01*
X171941943Y-138793440D01*
X171793648Y-138809681D01*
X171790704Y-138810293D01*
X171790700Y-138810294D01*
X171697465Y-138829687D01*
X171387470Y-138894166D01*
X171384596Y-138895059D01*
X171384586Y-138895061D01*
X171294048Y-138923174D01*
X171157939Y-138965437D01*
X171086952Y-138966535D01*
X171031481Y-138934199D01*
X161835405Y-129738123D01*
X161801379Y-129675811D01*
X161798500Y-129649028D01*
X161798500Y-123760972D01*
X161818502Y-123692851D01*
X161835405Y-123671876D01*
X162406878Y-123100404D01*
X162469190Y-123066379D01*
X162495973Y-123063500D01*
X165840113Y-123063500D01*
X166149394Y-123048644D01*
X166416296Y-123009945D01*
X166556973Y-122989548D01*
X166556976Y-122989547D01*
X166559972Y-122989113D01*
X166958401Y-122891618D01*
X167029323Y-122894855D01*
X167087237Y-122935923D01*
X167113754Y-123001781D01*
X167100457Y-123071521D01*
X167051565Y-123123001D01*
X167041100Y-123128433D01*
X166880072Y-123202668D01*
X166841067Y-123228241D01*
X166665404Y-123343410D01*
X166665399Y-123343414D01*
X166661491Y-123345976D01*
X166466494Y-123520018D01*
X166299363Y-123720970D01*
X166296934Y-123724973D01*
X166207226Y-123872808D01*
X166163771Y-123944419D01*
X166062697Y-124185455D01*
X165998359Y-124438783D01*
X165972173Y-124698839D01*
X165972397Y-124703505D01*
X165972397Y-124703511D01*
X165978205Y-124824409D01*
X165984713Y-124959908D01*
X166035704Y-125216256D01*
X166124026Y-125462252D01*
X166126242Y-125466376D01*
X166190753Y-125586437D01*
X166247737Y-125692491D01*
X166250532Y-125696234D01*
X166250534Y-125696237D01*
X166401330Y-125898177D01*
X166401335Y-125898183D01*
X166404122Y-125901915D01*
X166407431Y-125905195D01*
X166407436Y-125905201D01*
X166586426Y-126082635D01*
X166589743Y-126085923D01*
X166593505Y-126088681D01*
X166593508Y-126088684D01*
X166796750Y-126237707D01*
X166800524Y-126240474D01*
X166804667Y-126242654D01*
X166804669Y-126242655D01*
X167027684Y-126359989D01*
X167027689Y-126359991D01*
X167031834Y-126362172D01*
X167106721Y-126388324D01*
X167262231Y-126442631D01*
X167278590Y-126448344D01*
X167283183Y-126449216D01*
X167530785Y-126496224D01*
X167530788Y-126496224D01*
X167535374Y-126497095D01*
X167665959Y-126502226D01*
X167791875Y-126507174D01*
X167791881Y-126507174D01*
X167796543Y-126507357D01*
X167875977Y-126498657D01*
X168051707Y-126479412D01*
X168051712Y-126479411D01*
X168056360Y-126478902D01*
X168169116Y-126449216D01*
X168304594Y-126413548D01*
X168304596Y-126413547D01*
X168309117Y-126412357D01*
X168549262Y-126309182D01*
X168771519Y-126171646D01*
X168775082Y-126168629D01*
X168775087Y-126168626D01*
X168967439Y-126005787D01*
X168967440Y-126005786D01*
X168971005Y-126002768D01*
X169062729Y-125898177D01*
X169140257Y-125809774D01*
X169140261Y-125809769D01*
X169143339Y-125806259D01*
X169174586Y-125757681D01*
X169282205Y-125590367D01*
X169284733Y-125586437D01*
X169392083Y-125348129D01*
X169453976Y-125128674D01*
X169461760Y-125101076D01*
X169461761Y-125101073D01*
X169463030Y-125096572D01*
X169479832Y-124964496D01*
X169495616Y-124840421D01*
X169495616Y-124840417D01*
X169496014Y-124837291D01*
X169496352Y-124824409D01*
X169497733Y-124771647D01*
X176881637Y-124771647D01*
X176904280Y-125117126D01*
X176927487Y-125245460D01*
X176961223Y-125432021D01*
X176965888Y-125457821D01*
X177065667Y-125789352D01*
X177202336Y-126107456D01*
X177374136Y-126408044D01*
X177376244Y-126410919D01*
X177376246Y-126410922D01*
X177576747Y-126684371D01*
X177576752Y-126684377D01*
X177578860Y-126687252D01*
X177813875Y-126941490D01*
X178076159Y-127167488D01*
X178130445Y-127204450D01*
X178359384Y-127360331D01*
X178359389Y-127360334D01*
X178362341Y-127362344D01*
X178668742Y-127523549D01*
X178991423Y-127649032D01*
X178994867Y-127649939D01*
X178994874Y-127649941D01*
X179322780Y-127736272D01*
X179322786Y-127736273D01*
X179326234Y-127737181D01*
X179668872Y-127786860D01*
X179854254Y-127792524D01*
X180011351Y-127797325D01*
X180011358Y-127797325D01*
X180014931Y-127797434D01*
X180359963Y-127768764D01*
X180588976Y-127723210D01*
X180696037Y-127701914D01*
X180696040Y-127701913D01*
X180699530Y-127701219D01*
X180829811Y-127659516D01*
X181025869Y-127596758D01*
X181025874Y-127596756D01*
X181029270Y-127595669D01*
X181189371Y-127523549D01*
X181198098Y-127519618D01*
X181249848Y-127508500D01*
X189952702Y-127508500D01*
X190091676Y-127500609D01*
X190207096Y-127494055D01*
X190207103Y-127494054D01*
X190210664Y-127493852D01*
X190346634Y-127470488D01*
X190548366Y-127435825D01*
X190548374Y-127435823D01*
X190551884Y-127435220D01*
X190555309Y-127434222D01*
X190555312Y-127434221D01*
X190880832Y-127339340D01*
X190880833Y-127339340D01*
X190884273Y-127338337D01*
X191203558Y-127204450D01*
X191505634Y-127035279D01*
X191786617Y-126833000D01*
X191947073Y-126687252D01*
X192040249Y-126602617D01*
X192040255Y-126602611D01*
X192042896Y-126600212D01*
X192271175Y-126339910D01*
X192468520Y-126055439D01*
X192632393Y-125750456D01*
X192760687Y-125428883D01*
X192851754Y-125094854D01*
X192904422Y-124752663D01*
X192914782Y-124489000D01*
X192917875Y-124410279D01*
X192917875Y-124410274D01*
X192918015Y-124406709D01*
X192894885Y-124095460D01*
X192892622Y-124065003D01*
X192892621Y-124064998D01*
X192892357Y-124061441D01*
X192827779Y-123721296D01*
X192725110Y-123390649D01*
X192718030Y-123374557D01*
X192587115Y-123077030D01*
X192587113Y-123077025D01*
X192585671Y-123073749D01*
X192411254Y-122774671D01*
X192204101Y-122497261D01*
X192201657Y-122494663D01*
X192201652Y-122494657D01*
X191974944Y-122253660D01*
X191966877Y-122245084D01*
X191702630Y-122021382D01*
X191414758Y-121829033D01*
X191411574Y-121827393D01*
X191110145Y-121672146D01*
X191110140Y-121672144D01*
X191106962Y-121670507D01*
X191103621Y-121669241D01*
X191103616Y-121669239D01*
X190962645Y-121615830D01*
X190783199Y-121547844D01*
X190779740Y-121546966D01*
X190779732Y-121546963D01*
X190451098Y-121463501D01*
X190451090Y-121463499D01*
X190447631Y-121462621D01*
X190234256Y-121433582D01*
X190107566Y-121416340D01*
X190107559Y-121416339D01*
X190104573Y-121415933D01*
X189991747Y-121411500D01*
X180270735Y-121411500D01*
X180266887Y-121411441D01*
X180143649Y-121407675D01*
X180143642Y-121407675D01*
X180140069Y-121407566D01*
X180008941Y-121418462D01*
X180005680Y-121418690D01*
X179963751Y-121421071D01*
X179877904Y-121425945D01*
X179877897Y-121425946D01*
X179874336Y-121426148D01*
X179870823Y-121426752D01*
X179870820Y-121426752D01*
X179866014Y-121427578D01*
X179840318Y-121431993D01*
X179829428Y-121433378D01*
X179795037Y-121436236D01*
X179666019Y-121461900D01*
X179662780Y-121462500D01*
X179533116Y-121484780D01*
X179529684Y-121485780D01*
X179529681Y-121485781D01*
X179499984Y-121494437D01*
X179489308Y-121497050D01*
X179458963Y-121503086D01*
X179458960Y-121503087D01*
X179455470Y-121503781D01*
X179452083Y-121504865D01*
X179452072Y-121504868D01*
X179330192Y-121543882D01*
X179327039Y-121544846D01*
X179204150Y-121580665D01*
X179204145Y-121580667D01*
X179200727Y-121581663D01*
X179197444Y-121583040D01*
X179197443Y-121583040D01*
X179168900Y-121595009D01*
X179158588Y-121598813D01*
X179129134Y-121608241D01*
X179129128Y-121608243D01*
X179125730Y-121609331D01*
X179099813Y-121621006D01*
X179005773Y-121663368D01*
X179002756Y-121664679D01*
X178881442Y-121715550D01*
X178851313Y-121732422D01*
X178841532Y-121737352D01*
X178810060Y-121751530D01*
X178806979Y-121753363D01*
X178697019Y-121818782D01*
X178694163Y-121820431D01*
X178582483Y-121882975D01*
X178582478Y-121882978D01*
X178579366Y-121884721D01*
X178576472Y-121886804D01*
X178576460Y-121886812D01*
X178551352Y-121904887D01*
X178542162Y-121910912D01*
X178515592Y-121926720D01*
X178515588Y-121926723D01*
X178512515Y-121928551D01*
X178407735Y-122008228D01*
X178405227Y-122010084D01*
X178298383Y-122087000D01*
X178272832Y-122110210D01*
X178264392Y-122117228D01*
X178239348Y-122136271D01*
X178239335Y-122136282D01*
X178236923Y-122138116D01*
X178234698Y-122140173D01*
X178154907Y-122213930D01*
X178154883Y-122213953D01*
X178154009Y-122214761D01*
X178119282Y-122249488D01*
X178114905Y-122253660D01*
X178044751Y-122317383D01*
X178044745Y-122317389D01*
X178042104Y-122319788D01*
X178039752Y-122322470D01*
X178039751Y-122322471D01*
X177995783Y-122372607D01*
X177990146Y-122378624D01*
X177717370Y-122651400D01*
X177545321Y-122844164D01*
X177480472Y-122935923D01*
X177347564Y-123123982D01*
X177347559Y-123123990D01*
X177345501Y-123126902D01*
X177178974Y-123430443D01*
X177177622Y-123433748D01*
X177177620Y-123433752D01*
X177129880Y-123550443D01*
X177047877Y-123750884D01*
X177019805Y-123850421D01*
X176959287Y-124065003D01*
X176953899Y-124084106D01*
X176898247Y-124425824D01*
X176897625Y-124438783D01*
X176883536Y-124732115D01*
X176881637Y-124771647D01*
X169497733Y-124771647D01*
X169498431Y-124745000D01*
X169479061Y-124484348D01*
X169467725Y-124434248D01*
X169422408Y-124233980D01*
X169421377Y-124229423D01*
X169419684Y-124225069D01*
X169328340Y-123990176D01*
X169328339Y-123990173D01*
X169326647Y-123985823D01*
X169196951Y-123758902D01*
X169035138Y-123553643D01*
X168844763Y-123374557D01*
X168630009Y-123225576D01*
X168625816Y-123223508D01*
X168399781Y-123112040D01*
X168399778Y-123112039D01*
X168395593Y-123109975D01*
X168292673Y-123077030D01*
X168151123Y-123031720D01*
X168146665Y-123030293D01*
X167888693Y-122988279D01*
X167774942Y-122986790D01*
X167632022Y-122984919D01*
X167632019Y-122984919D01*
X167627345Y-122984858D01*
X167368362Y-123020104D01*
X167291569Y-123042487D01*
X167220574Y-123042347D01*
X167160924Y-123003845D01*
X167131559Y-122939206D01*
X167141802Y-122868952D01*
X167188401Y-122815388D01*
X167214771Y-122802566D01*
X167351767Y-122754725D01*
X167351771Y-122754724D01*
X167354630Y-122753725D01*
X167731393Y-122580035D01*
X167734006Y-122578511D01*
X167734014Y-122578507D01*
X168087168Y-122372553D01*
X168087171Y-122372551D01*
X168089774Y-122371033D01*
X168258611Y-122249488D01*
X168424012Y-122130417D01*
X168424016Y-122130413D01*
X168426473Y-122128645D01*
X168443286Y-122113901D01*
X168736120Y-121857092D01*
X168736123Y-121857089D01*
X168738390Y-121855101D01*
X168740455Y-121852905D01*
X168740461Y-121852900D01*
X169020583Y-121555120D01*
X169020588Y-121555114D01*
X169022652Y-121552920D01*
X169024499Y-121550535D01*
X169274794Y-121227276D01*
X169274799Y-121227269D01*
X169276644Y-121224886D01*
X169407070Y-121018172D01*
X169496412Y-120876574D01*
X169496415Y-120876569D01*
X169498025Y-120874017D01*
X169684759Y-120503546D01*
X169830533Y-120128689D01*
X169834029Y-120119698D01*
X169834029Y-120119697D01*
X169835124Y-120116882D01*
X169947737Y-119717587D01*
X170021560Y-119309336D01*
X170055915Y-118895890D01*
X170050485Y-118481054D01*
X170005319Y-118068648D01*
X169920834Y-117662470D01*
X169797807Y-117266259D01*
X169637372Y-116883664D01*
X169610370Y-116833410D01*
X169469992Y-116572156D01*
X169441005Y-116518208D01*
X169427049Y-116497320D01*
X169212194Y-116175768D01*
X169210515Y-116173255D01*
X169168136Y-116121385D01*
X168949943Y-115854331D01*
X168948023Y-115851981D01*
X168765840Y-115668201D01*
X168658077Y-115559493D01*
X168658070Y-115559486D01*
X168655947Y-115557345D01*
X168336977Y-115292060D01*
X167994048Y-115058568D01*
X167802738Y-114953612D01*
X167632968Y-114860473D01*
X167632963Y-114860471D01*
X167630319Y-114859020D01*
X167439417Y-114777002D01*
X167253153Y-114696976D01*
X167198460Y-114651708D01*
X167176923Y-114584056D01*
X167195380Y-114515501D01*
X167247971Y-114467807D01*
X167317999Y-114456117D01*
X167326379Y-114457417D01*
X167447390Y-114480391D01*
X167530785Y-114496224D01*
X167530788Y-114496224D01*
X167535374Y-114497095D01*
X167665959Y-114502226D01*
X167791875Y-114507174D01*
X167791881Y-114507174D01*
X167796543Y-114507357D01*
X167875977Y-114498657D01*
X168051707Y-114479412D01*
X168051712Y-114479411D01*
X168056360Y-114478902D01*
X168114759Y-114463527D01*
X168304594Y-114413548D01*
X168304596Y-114413547D01*
X168309117Y-114412357D01*
X168321165Y-114407181D01*
X168544972Y-114311025D01*
X168549262Y-114309182D01*
X168771519Y-114171646D01*
X168775082Y-114168629D01*
X168775087Y-114168626D01*
X168967439Y-114005787D01*
X168967440Y-114005786D01*
X168971005Y-114002768D01*
X169111531Y-113842529D01*
X169140257Y-113809774D01*
X169140261Y-113809769D01*
X169143339Y-113806259D01*
X169284733Y-113586437D01*
X169392083Y-113348129D01*
X169441344Y-113173465D01*
X169461760Y-113101076D01*
X169461761Y-113101073D01*
X169463030Y-113096572D01*
X169479832Y-112964496D01*
X169495616Y-112840421D01*
X169495616Y-112840417D01*
X169496014Y-112837291D01*
X169496245Y-112828501D01*
X169496338Y-112824931D01*
X176882566Y-112824931D01*
X176911236Y-113169963D01*
X176978781Y-113509530D01*
X177084331Y-113839270D01*
X177085799Y-113842528D01*
X177085799Y-113842529D01*
X177225060Y-114151679D01*
X177225064Y-114151687D01*
X177226530Y-114154941D01*
X177403551Y-114452485D01*
X177613116Y-114728077D01*
X177615160Y-114730288D01*
X177615164Y-114730293D01*
X177688930Y-114810093D01*
X177688953Y-114810117D01*
X177689761Y-114810991D01*
X178658489Y-115779719D01*
X178661169Y-115782481D01*
X178748123Y-115874916D01*
X178750852Y-115877226D01*
X178848542Y-115959927D01*
X178851031Y-115962091D01*
X178946489Y-116047291D01*
X178946494Y-116047295D01*
X178949164Y-116049678D01*
X178977336Y-116069588D01*
X178986024Y-116076315D01*
X179012370Y-116098618D01*
X179015331Y-116100597D01*
X179015345Y-116100607D01*
X179121751Y-116171704D01*
X179124422Y-116173539D01*
X179231902Y-116249498D01*
X179243225Y-116255710D01*
X179262166Y-116266102D01*
X179271560Y-116271803D01*
X179300242Y-116290967D01*
X179417197Y-116351203D01*
X179420089Y-116352741D01*
X179535443Y-116416026D01*
X179538758Y-116417382D01*
X179567371Y-116429088D01*
X179577355Y-116433690D01*
X179608038Y-116449493D01*
X179611378Y-116450758D01*
X179611377Y-116450758D01*
X179731082Y-116496111D01*
X179734150Y-116497320D01*
X179831020Y-116536950D01*
X179855884Y-116547122D01*
X179859322Y-116548092D01*
X179859329Y-116548094D01*
X179889088Y-116556487D01*
X179899526Y-116559929D01*
X179928448Y-116570887D01*
X179928470Y-116570894D01*
X179931801Y-116572156D01*
X179935264Y-116573035D01*
X179935272Y-116573038D01*
X180028010Y-116596589D01*
X180059332Y-116604544D01*
X180062478Y-116605387D01*
X180152057Y-116630651D01*
X180185659Y-116640128D01*
X180185662Y-116640129D01*
X180189106Y-116641100D01*
X180192634Y-116641674D01*
X180192636Y-116641675D01*
X180223161Y-116646646D01*
X180233923Y-116648885D01*
X180263907Y-116656500D01*
X180263912Y-116656501D01*
X180267369Y-116657379D01*
X180270902Y-116657860D01*
X180270908Y-116657861D01*
X180365988Y-116670800D01*
X180397734Y-116675120D01*
X180400958Y-116675602D01*
X180530824Y-116696753D01*
X180534385Y-116696924D01*
X180534394Y-116696925D01*
X180554879Y-116697909D01*
X180565305Y-116698410D01*
X180576235Y-116699414D01*
X180599549Y-116702587D01*
X180607435Y-116703660D01*
X180607438Y-116703660D01*
X180610427Y-116704067D01*
X180723253Y-116708500D01*
X180772372Y-116708500D01*
X180778417Y-116708645D01*
X180873079Y-116713192D01*
X180873085Y-116713192D01*
X180876646Y-116713363D01*
X180946721Y-116708770D01*
X180954963Y-116708500D01*
X189952702Y-116708500D01*
X190091676Y-116700609D01*
X190207096Y-116694055D01*
X190207103Y-116694054D01*
X190210664Y-116693852D01*
X190346634Y-116670488D01*
X190548366Y-116635825D01*
X190548374Y-116635823D01*
X190551884Y-116635220D01*
X190555309Y-116634222D01*
X190555312Y-116634221D01*
X190880832Y-116539340D01*
X190880833Y-116539340D01*
X190884273Y-116538337D01*
X190932276Y-116518208D01*
X191006364Y-116487140D01*
X191203558Y-116404450D01*
X191483923Y-116247438D01*
X191502513Y-116237027D01*
X191502515Y-116237026D01*
X191505634Y-116235279D01*
X191786617Y-116033000D01*
X191867064Y-115959927D01*
X192040249Y-115802617D01*
X192040255Y-115802611D01*
X192042896Y-115800212D01*
X192062005Y-115778423D01*
X192158667Y-115668201D01*
X192271175Y-115539910D01*
X192468520Y-115255439D01*
X192632393Y-114950456D01*
X192760687Y-114628883D01*
X192851754Y-114294854D01*
X192904422Y-113952663D01*
X192914645Y-113692491D01*
X192917875Y-113610279D01*
X192917875Y-113610274D01*
X192918015Y-113606709D01*
X192898799Y-113348129D01*
X192892622Y-113265003D01*
X192892621Y-113264998D01*
X192892357Y-113261441D01*
X192827779Y-112921296D01*
X192725110Y-112590649D01*
X192680384Y-112489000D01*
X192587115Y-112277030D01*
X192587113Y-112277025D01*
X192585671Y-112273749D01*
X192411254Y-111974671D01*
X192204101Y-111697261D01*
X192201657Y-111694663D01*
X192201652Y-111694657D01*
X192065989Y-111550443D01*
X191966877Y-111445084D01*
X191846775Y-111343410D01*
X191705352Y-111223686D01*
X191705348Y-111223683D01*
X191702630Y-111221382D01*
X191463900Y-111061868D01*
X191417735Y-111031022D01*
X191417733Y-111031021D01*
X191414758Y-111029033D01*
X191399961Y-111021412D01*
X191110145Y-110872146D01*
X191110140Y-110872144D01*
X191106962Y-110870507D01*
X191103621Y-110869241D01*
X191103616Y-110869239D01*
X190973535Y-110819956D01*
X190783199Y-110747844D01*
X190779740Y-110746966D01*
X190779732Y-110746963D01*
X190451098Y-110663501D01*
X190451090Y-110663499D01*
X190447631Y-110662621D01*
X190279073Y-110639681D01*
X190107566Y-110616340D01*
X190107559Y-110616339D01*
X190104573Y-110615933D01*
X189991747Y-110611500D01*
X182164920Y-110611500D01*
X182096799Y-110591498D01*
X182075825Y-110574595D01*
X182028600Y-110527370D01*
X181835836Y-110355321D01*
X181715447Y-110270239D01*
X181556018Y-110157564D01*
X181556010Y-110157559D01*
X181553098Y-110155501D01*
X181249557Y-109988974D01*
X181246252Y-109987622D01*
X181246248Y-109987620D01*
X180932428Y-109859232D01*
X180929116Y-109857877D01*
X180762505Y-109810888D01*
X180599342Y-109764871D01*
X180599335Y-109764869D01*
X180595894Y-109763899D01*
X180592370Y-109763325D01*
X180592365Y-109763324D01*
X180459581Y-109741699D01*
X180254176Y-109708247D01*
X180081265Y-109699942D01*
X179911920Y-109691808D01*
X179911914Y-109691808D01*
X179908353Y-109691637D01*
X179562874Y-109714280D01*
X179353522Y-109752137D01*
X179225700Y-109775251D01*
X179225695Y-109775252D01*
X179222179Y-109775888D01*
X178890648Y-109875667D01*
X178572544Y-110012336D01*
X178347152Y-110141158D01*
X178325065Y-110153782D01*
X178271956Y-110184136D01*
X178269081Y-110186244D01*
X178269078Y-110186246D01*
X177995629Y-110386747D01*
X177995623Y-110386752D01*
X177992748Y-110388860D01*
X177990127Y-110391283D01*
X177747102Y-110615933D01*
X177738510Y-110623875D01*
X177512512Y-110886159D01*
X177317656Y-111172341D01*
X177156451Y-111478742D01*
X177155157Y-111482070D01*
X177060698Y-111724973D01*
X177030968Y-111801423D01*
X177030061Y-111804867D01*
X177030059Y-111804874D01*
X176983487Y-111981767D01*
X176942819Y-112136234D01*
X176893140Y-112478872D01*
X176893031Y-112482454D01*
X176885105Y-112741851D01*
X176882566Y-112824931D01*
X169496338Y-112824931D01*
X169498348Y-112748160D01*
X169498431Y-112745000D01*
X169486961Y-112590649D01*
X169479407Y-112489000D01*
X169479406Y-112488996D01*
X169479061Y-112484348D01*
X169467725Y-112434248D01*
X169422408Y-112233980D01*
X169421377Y-112229423D01*
X169326647Y-111985823D01*
X169196951Y-111758902D01*
X169035138Y-111553643D01*
X168844763Y-111374557D01*
X168630009Y-111225576D01*
X168625816Y-111223508D01*
X168399781Y-111112040D01*
X168399778Y-111112039D01*
X168395593Y-111109975D01*
X168349449Y-111095204D01*
X168151123Y-111031720D01*
X168146665Y-111030293D01*
X167888693Y-110988279D01*
X167774942Y-110986790D01*
X167632022Y-110984919D01*
X167632019Y-110984919D01*
X167627345Y-110984858D01*
X167368362Y-111020104D01*
X167363876Y-111021412D01*
X167363874Y-111021412D01*
X167337728Y-111029033D01*
X167117433Y-111093243D01*
X167113180Y-111095203D01*
X167113179Y-111095204D01*
X167076659Y-111112040D01*
X166880072Y-111202668D01*
X166841067Y-111228241D01*
X166665404Y-111343410D01*
X166665399Y-111343414D01*
X166661491Y-111345976D01*
X166466494Y-111520018D01*
X166299363Y-111720970D01*
X166163771Y-111944419D01*
X166062697Y-112185455D01*
X165998359Y-112438783D01*
X165997891Y-112443434D01*
X165997890Y-112443438D01*
X165993771Y-112484348D01*
X165972173Y-112698839D01*
X165984713Y-112959908D01*
X166035704Y-113216256D01*
X166124026Y-113462252D01*
X166126242Y-113466376D01*
X166190753Y-113586437D01*
X166247737Y-113692491D01*
X166250532Y-113696234D01*
X166250534Y-113696237D01*
X166401330Y-113898177D01*
X166401335Y-113898183D01*
X166404122Y-113901915D01*
X166407431Y-113905195D01*
X166407436Y-113905201D01*
X166586426Y-114082635D01*
X166589743Y-114085923D01*
X166593505Y-114088681D01*
X166593508Y-114088684D01*
X166796750Y-114237707D01*
X166800524Y-114240474D01*
X167031834Y-114362172D01*
X167032383Y-114362364D01*
X167086050Y-114407181D01*
X167107289Y-114474926D01*
X167088531Y-114543400D01*
X167035731Y-114590862D01*
X166965653Y-114602244D01*
X166942899Y-114597223D01*
X166854017Y-114568772D01*
X166448591Y-114480746D01*
X166445596Y-114480392D01*
X166445593Y-114480391D01*
X166039174Y-114432288D01*
X166039171Y-114432288D01*
X166036596Y-114431983D01*
X166033997Y-114431892D01*
X166033994Y-114431892D01*
X165880712Y-114426539D01*
X165880690Y-114426539D01*
X165879584Y-114426500D01*
X160680811Y-114426500D01*
X160680261Y-114426499D01*
X160469436Y-114425579D01*
X160469432Y-114425579D01*
X160466409Y-114425566D01*
X160402633Y-114431426D01*
X160356421Y-114435672D01*
X160350938Y-114436056D01*
X160295070Y-114438740D01*
X160240606Y-114441356D01*
X160237616Y-114441789D01*
X160237611Y-114441790D01*
X160213640Y-114445266D01*
X160150478Y-114454424D01*
X160144005Y-114455191D01*
X160053278Y-114463527D01*
X159944719Y-114484137D01*
X159939338Y-114485038D01*
X159886827Y-114492651D01*
X159833018Y-114500453D01*
X159833009Y-114500455D01*
X159830028Y-114500887D01*
X159741590Y-114522528D01*
X159735151Y-114523926D01*
X159648665Y-114540345D01*
X159648653Y-114540348D01*
X159645687Y-114540911D01*
X159642774Y-114541760D01*
X159642770Y-114541761D01*
X159539635Y-114571822D01*
X159534325Y-114573245D01*
X159429983Y-114598777D01*
X159429977Y-114598779D01*
X159427046Y-114599496D01*
X159424191Y-114600493D01*
X159341087Y-114629514D01*
X159334806Y-114631525D01*
X159247390Y-114657004D01*
X159244588Y-114658122D01*
X159144797Y-114697934D01*
X159139652Y-114699858D01*
X159035370Y-114736275D01*
X159032620Y-114737543D01*
X159032617Y-114737544D01*
X158952675Y-114774398D01*
X158946620Y-114776999D01*
X158862054Y-114810738D01*
X158859359Y-114812126D01*
X158763865Y-114861308D01*
X158758924Y-114863718D01*
X158661363Y-114908694D01*
X158661355Y-114908698D01*
X158658607Y-114909965D01*
X158589177Y-114950456D01*
X158579950Y-114955837D01*
X158574202Y-114958991D01*
X158493225Y-115000696D01*
X158490682Y-115002331D01*
X158490678Y-115002334D01*
X158400304Y-115060465D01*
X158395629Y-115063330D01*
X158300226Y-115118967D01*
X158297765Y-115120739D01*
X158226343Y-115172155D01*
X158220891Y-115175868D01*
X158144302Y-115225132D01*
X158057553Y-115293519D01*
X158053191Y-115296806D01*
X157963527Y-115361355D01*
X157961257Y-115363346D01*
X157895059Y-115421400D01*
X157889987Y-115425618D01*
X157820540Y-115480365D01*
X157820534Y-115480370D01*
X157818497Y-115481976D01*
X157703596Y-115589123D01*
X157703495Y-115589224D01*
X157699538Y-115592867D01*
X157651610Y-115634899D01*
X157649545Y-115637095D01*
X157649539Y-115637100D01*
X157554398Y-115738239D01*
X157551718Y-115741001D01*
X154444544Y-118848174D01*
X154444155Y-118848562D01*
X154294493Y-118996923D01*
X154294486Y-118996930D01*
X154292345Y-118999053D01*
X154223725Y-119081559D01*
X154221713Y-119083979D01*
X154218109Y-119088124D01*
X154143843Y-119169885D01*
X154142027Y-119172317D01*
X154089365Y-119242839D01*
X154085288Y-119248011D01*
X154027060Y-119318023D01*
X154025358Y-119320523D01*
X154025354Y-119320528D01*
X153964887Y-119409336D01*
X153961696Y-119413810D01*
X153895616Y-119502302D01*
X153894050Y-119504883D01*
X153848387Y-119580132D01*
X153844819Y-119585679D01*
X153793568Y-119660952D01*
X153792118Y-119663595D01*
X153740441Y-119757791D01*
X153737692Y-119762553D01*
X153680391Y-119856981D01*
X153679079Y-119859700D01*
X153679079Y-119859701D01*
X153640832Y-119938996D01*
X153637811Y-119944861D01*
X153594020Y-120024681D01*
X153554408Y-120116882D01*
X153550420Y-120126164D01*
X153548140Y-120131166D01*
X153500152Y-120230655D01*
X153499103Y-120233499D01*
X153468637Y-120316080D01*
X153466201Y-120322186D01*
X153430252Y-120405861D01*
X153429333Y-120408732D01*
X153396576Y-120511064D01*
X153394786Y-120516262D01*
X153356558Y-120619884D01*
X153355792Y-120622794D01*
X153355789Y-120622803D01*
X153333378Y-120707928D01*
X153331536Y-120714248D01*
X153303772Y-120800983D01*
X153303128Y-120803950D01*
X153280337Y-120908921D01*
X153279058Y-120914249D01*
X153250931Y-121021084D01*
X153250448Y-121024049D01*
X153250443Y-121024073D01*
X153236293Y-121110958D01*
X153235063Y-121117438D01*
X153217683Y-121197487D01*
X153215746Y-121206409D01*
X153215392Y-121209400D01*
X153202764Y-121316090D01*
X153201999Y-121321533D01*
X153184243Y-121430560D01*
X153179886Y-121497050D01*
X153178289Y-121521411D01*
X153177688Y-121527965D01*
X153166983Y-121618404D01*
X153166892Y-121621003D01*
X153166892Y-121621006D01*
X153163530Y-121717296D01*
X153161500Y-121775416D01*
X153161500Y-121775595D01*
X153161277Y-121780944D01*
X153157995Y-121831022D01*
X153157109Y-121844544D01*
X148400000Y-121844544D01*
X148400000Y-116836978D01*
X148400203Y-116829835D01*
X148404450Y-116755050D01*
X148404450Y-116755043D01*
X148404715Y-116750374D01*
X148400033Y-116699415D01*
X148394150Y-116635387D01*
X148393968Y-116633197D01*
X148385745Y-116522553D01*
X148385743Y-116522539D01*
X148385397Y-116517884D01*
X148383775Y-116510714D01*
X148381198Y-116494442D01*
X148380955Y-116491797D01*
X148380527Y-116487140D01*
X148366322Y-116429088D01*
X148353067Y-116374918D01*
X148352563Y-116372778D01*
X148328088Y-116264616D01*
X148327057Y-116260059D01*
X148324397Y-116253217D01*
X148319443Y-116237507D01*
X148317697Y-116230372D01*
X148273944Y-116123425D01*
X148273130Y-116121385D01*
X148255603Y-116076315D01*
X148231249Y-116013689D01*
X148228935Y-116009640D01*
X148228929Y-116009628D01*
X148227607Y-116007316D01*
X148220384Y-115992507D01*
X148219378Y-115990047D01*
X148219375Y-115990040D01*
X148217604Y-115985712D01*
X148202894Y-115960986D01*
X148158521Y-115886403D01*
X148157413Y-115884503D01*
X148102402Y-115788253D01*
X148102401Y-115788252D01*
X148100078Y-115784187D01*
X148095533Y-115778422D01*
X148086201Y-115764844D01*
X148084838Y-115762553D01*
X148082447Y-115758534D01*
X148079491Y-115754916D01*
X148079484Y-115754906D01*
X148009326Y-115669038D01*
X148007949Y-115667322D01*
X147939322Y-115580268D01*
X147939317Y-115580263D01*
X147936425Y-115576594D01*
X147859348Y-115504087D01*
X147856586Y-115501407D01*
X136513261Y-104158082D01*
X142939577Y-104158082D01*
X142941088Y-104160100D01*
X142944264Y-104161695D01*
X143066832Y-104198002D01*
X143075184Y-104199869D01*
X143337340Y-104239984D01*
X143345874Y-104240700D01*
X143611045Y-104244867D01*
X143619596Y-104244418D01*
X143882883Y-104212557D01*
X143891283Y-104210955D01*
X144069930Y-104164088D01*
X144082008Y-104156812D01*
X144081841Y-104155344D01*
X144078826Y-104150865D01*
X143522812Y-103594851D01*
X143508868Y-103587237D01*
X143507035Y-103587368D01*
X143500420Y-103591619D01*
X142946337Y-104145702D01*
X142939577Y-104158082D01*
X136513261Y-104158082D01*
X134573383Y-102218204D01*
X141497665Y-102218204D01*
X141512932Y-102482969D01*
X141514005Y-102491470D01*
X141565064Y-102751716D01*
X141567277Y-102759978D01*
X141579443Y-102795510D01*
X141587584Y-102807025D01*
X141591429Y-102806297D01*
X141592292Y-102805669D01*
X142150149Y-102247812D01*
X142156527Y-102236132D01*
X144862237Y-102236132D01*
X144862368Y-102237965D01*
X144866619Y-102244580D01*
X145424346Y-102802307D01*
X145436726Y-102809067D01*
X145437066Y-102808812D01*
X145440104Y-102802255D01*
X145496955Y-102554034D01*
X145498293Y-102545580D01*
X145522031Y-102279616D01*
X145522277Y-102274677D01*
X145522666Y-102237485D01*
X145522523Y-102232519D01*
X145521255Y-102213918D01*
X149746917Y-102213918D01*
X149762682Y-102487320D01*
X149763507Y-102491525D01*
X149763508Y-102491533D01*
X149775771Y-102554038D01*
X149815405Y-102756053D01*
X149816792Y-102760103D01*
X149816793Y-102760108D01*
X149897570Y-102996037D01*
X149904112Y-103015144D01*
X149906039Y-103018975D01*
X149995922Y-103197688D01*
X150027160Y-103259799D01*
X150029586Y-103263328D01*
X150029589Y-103263334D01*
X150074906Y-103329270D01*
X150182274Y-103485490D01*
X150185161Y-103488663D01*
X150185162Y-103488664D01*
X150363692Y-103684867D01*
X150366582Y-103688043D01*
X150576675Y-103863707D01*
X150580316Y-103865991D01*
X150805024Y-104006951D01*
X150805028Y-104006953D01*
X150808664Y-104009234D01*
X150876544Y-104039883D01*
X151054345Y-104120164D01*
X151054349Y-104120166D01*
X151058257Y-104121930D01*
X151062377Y-104123150D01*
X151062376Y-104123150D01*
X151316723Y-104198491D01*
X151316727Y-104198492D01*
X151320836Y-104199709D01*
X151325070Y-104200357D01*
X151325075Y-104200358D01*
X151587298Y-104240483D01*
X151587300Y-104240483D01*
X151591540Y-104241132D01*
X151730912Y-104243322D01*
X151861071Y-104245367D01*
X151861077Y-104245367D01*
X151865362Y-104245434D01*
X152137235Y-104212534D01*
X152344794Y-104158082D01*
X170879577Y-104158082D01*
X170881088Y-104160100D01*
X170884264Y-104161695D01*
X171006832Y-104198002D01*
X171015184Y-104199869D01*
X171277340Y-104239984D01*
X171285874Y-104240700D01*
X171551045Y-104244867D01*
X171559596Y-104244418D01*
X171822883Y-104212557D01*
X171831283Y-104210955D01*
X172009930Y-104164088D01*
X172022008Y-104156812D01*
X172021841Y-104155344D01*
X172018826Y-104150865D01*
X171462812Y-103594851D01*
X171448868Y-103587237D01*
X171447035Y-103587368D01*
X171440420Y-103591619D01*
X170886337Y-104145702D01*
X170879577Y-104158082D01*
X152344794Y-104158082D01*
X152402127Y-104143041D01*
X152406087Y-104141401D01*
X152406092Y-104141399D01*
X152528632Y-104090641D01*
X152655136Y-104038241D01*
X152845413Y-103927052D01*
X152887879Y-103902237D01*
X152887880Y-103902236D01*
X152891582Y-103900073D01*
X153107089Y-103731094D01*
X153113314Y-103724671D01*
X153294686Y-103537509D01*
X153297669Y-103534431D01*
X153300202Y-103530983D01*
X153300206Y-103530978D01*
X153457257Y-103317178D01*
X153459795Y-103313723D01*
X153465387Y-103303424D01*
X153588418Y-103076830D01*
X153588419Y-103076828D01*
X153590468Y-103073054D01*
X153672774Y-102855237D01*
X153685751Y-102820895D01*
X153685752Y-102820891D01*
X153687269Y-102816877D01*
X153731868Y-102622146D01*
X153747449Y-102554117D01*
X153747450Y-102554113D01*
X153748407Y-102549933D01*
X153748796Y-102545580D01*
X153772531Y-102279627D01*
X153772532Y-102279616D01*
X153772751Y-102277161D01*
X153773193Y-102235000D01*
X153772048Y-102218204D01*
X169437665Y-102218204D01*
X169452932Y-102482969D01*
X169454005Y-102491470D01*
X169505064Y-102751716D01*
X169507277Y-102759978D01*
X169519443Y-102795510D01*
X169527584Y-102807025D01*
X169531429Y-102806297D01*
X169532292Y-102805669D01*
X170090149Y-102247812D01*
X170096527Y-102236132D01*
X172802237Y-102236132D01*
X172802368Y-102237965D01*
X172806619Y-102244580D01*
X173364346Y-102802307D01*
X173376726Y-102809067D01*
X173377066Y-102808812D01*
X173380104Y-102802255D01*
X173436955Y-102554034D01*
X173438293Y-102545580D01*
X173458879Y-102314931D01*
X176647566Y-102314931D01*
X176676236Y-102659963D01*
X176743781Y-102999530D01*
X176765963Y-103068827D01*
X176844195Y-103313224D01*
X176849331Y-103329270D01*
X176850799Y-103332528D01*
X176850799Y-103332529D01*
X176990060Y-103641679D01*
X176990064Y-103641687D01*
X176991530Y-103644941D01*
X177168551Y-103942485D01*
X177378116Y-104218077D01*
X177380160Y-104220288D01*
X177380164Y-104220293D01*
X177453930Y-104300093D01*
X177453953Y-104300117D01*
X177454761Y-104300991D01*
X180683489Y-107529719D01*
X180686169Y-107532481D01*
X180773123Y-107624916D01*
X180775852Y-107627226D01*
X180873530Y-107709917D01*
X180876019Y-107712081D01*
X180971489Y-107797292D01*
X180971495Y-107797296D01*
X180974164Y-107799679D01*
X181002343Y-107819594D01*
X181011031Y-107826321D01*
X181037370Y-107848618D01*
X181040338Y-107850601D01*
X181146726Y-107921687D01*
X181149444Y-107923555D01*
X181239255Y-107987027D01*
X181256902Y-107999499D01*
X181270062Y-108006719D01*
X181287164Y-108016102D01*
X181296556Y-108021801D01*
X181322273Y-108038984D01*
X181322283Y-108038990D01*
X181325242Y-108040967D01*
X181442185Y-108101197D01*
X181445077Y-108102735D01*
X181557305Y-108164305D01*
X181557313Y-108164309D01*
X181560443Y-108166026D01*
X181563745Y-108167377D01*
X181563762Y-108167385D01*
X181592387Y-108179096D01*
X181602365Y-108183696D01*
X181629853Y-108197853D01*
X181629858Y-108197855D01*
X181633038Y-108199493D01*
X181636379Y-108200759D01*
X181636384Y-108200761D01*
X181756048Y-108246098D01*
X181759117Y-108247307D01*
X181877574Y-108295769D01*
X181880884Y-108297123D01*
X181884334Y-108298096D01*
X181884337Y-108298097D01*
X181914098Y-108306491D01*
X181924538Y-108309933D01*
X181953454Y-108320888D01*
X181956801Y-108322156D01*
X181960264Y-108323035D01*
X181960272Y-108323038D01*
X182052932Y-108346570D01*
X182084297Y-108354535D01*
X182087443Y-108355378D01*
X182158314Y-108375366D01*
X182210662Y-108390130D01*
X182210667Y-108390131D01*
X182214106Y-108391101D01*
X182217623Y-108391674D01*
X182217633Y-108391676D01*
X182248178Y-108396650D01*
X182258932Y-108398887D01*
X182292369Y-108407379D01*
X182295908Y-108407861D01*
X182295915Y-108407862D01*
X182393735Y-108421174D01*
X182422719Y-108425118D01*
X182425955Y-108425602D01*
X182492531Y-108436445D01*
X182552292Y-108446178D01*
X182552296Y-108446178D01*
X182555824Y-108446753D01*
X182559385Y-108446924D01*
X182559394Y-108446925D01*
X182579879Y-108447909D01*
X182590305Y-108448410D01*
X182601235Y-108449414D01*
X182624549Y-108452587D01*
X182632435Y-108453660D01*
X182632438Y-108453660D01*
X182635427Y-108454067D01*
X182748253Y-108458500D01*
X182797373Y-108458500D01*
X182803418Y-108458645D01*
X182898080Y-108463192D01*
X182898086Y-108463192D01*
X182901647Y-108463363D01*
X182971727Y-108458770D01*
X182979965Y-108458500D01*
X189952702Y-108458500D01*
X190091676Y-108450609D01*
X190207096Y-108444055D01*
X190207103Y-108444054D01*
X190210664Y-108443852D01*
X190346634Y-108420488D01*
X190548366Y-108385825D01*
X190548374Y-108385823D01*
X190551884Y-108385220D01*
X190555309Y-108384222D01*
X190555312Y-108384221D01*
X190880832Y-108289340D01*
X190880833Y-108289340D01*
X190884273Y-108288337D01*
X191203558Y-108154450D01*
X191409737Y-108038984D01*
X191502513Y-107987027D01*
X191502515Y-107987026D01*
X191505634Y-107985279D01*
X191786617Y-107783000D01*
X191867075Y-107709917D01*
X192040249Y-107552617D01*
X192040255Y-107552611D01*
X192042896Y-107550212D01*
X192271175Y-107289910D01*
X192468520Y-107005439D01*
X192632393Y-106700456D01*
X192760687Y-106378883D01*
X192851754Y-106044854D01*
X192904422Y-105702663D01*
X192918015Y-105356709D01*
X192892357Y-105011441D01*
X192827779Y-104671296D01*
X192725110Y-104340649D01*
X192707661Y-104300991D01*
X192587115Y-104027030D01*
X192587113Y-104027025D01*
X192585671Y-104023749D01*
X192411254Y-103724671D01*
X192204101Y-103447261D01*
X192201657Y-103444663D01*
X192201652Y-103444657D01*
X192030837Y-103263076D01*
X191966877Y-103195084D01*
X191817983Y-103069036D01*
X191705352Y-102973686D01*
X191705348Y-102973683D01*
X191702630Y-102971382D01*
X191414758Y-102779033D01*
X191370140Y-102756053D01*
X191110145Y-102622146D01*
X191110140Y-102622144D01*
X191106962Y-102620507D01*
X191103621Y-102619241D01*
X191103616Y-102619239D01*
X190931520Y-102554038D01*
X190783199Y-102497844D01*
X190779740Y-102496966D01*
X190779732Y-102496963D01*
X190451098Y-102413501D01*
X190451090Y-102413499D01*
X190447631Y-102412621D01*
X190279073Y-102389681D01*
X190107566Y-102366340D01*
X190107559Y-102366339D01*
X190104573Y-102365933D01*
X189991747Y-102361500D01*
X184189920Y-102361500D01*
X184121799Y-102341498D01*
X184100825Y-102324595D01*
X181793600Y-100017370D01*
X181600836Y-99845321D01*
X181480447Y-99760239D01*
X181321018Y-99647564D01*
X181321010Y-99647559D01*
X181318098Y-99645501D01*
X181014557Y-99478974D01*
X181011252Y-99477622D01*
X181011248Y-99477620D01*
X180697428Y-99349232D01*
X180694116Y-99347877D01*
X180527505Y-99300888D01*
X180364342Y-99254871D01*
X180364335Y-99254869D01*
X180360894Y-99253899D01*
X180357370Y-99253325D01*
X180357365Y-99253324D01*
X180224581Y-99231699D01*
X180019176Y-99198247D01*
X179846264Y-99189942D01*
X179676920Y-99181808D01*
X179676914Y-99181808D01*
X179673353Y-99181637D01*
X179327874Y-99204280D01*
X179118522Y-99242137D01*
X178990700Y-99265251D01*
X178990695Y-99265252D01*
X178987179Y-99265888D01*
X178655648Y-99365667D01*
X178337544Y-99502336D01*
X178112152Y-99631158D01*
X178090065Y-99643782D01*
X178036956Y-99674136D01*
X178034081Y-99676244D01*
X178034078Y-99676246D01*
X177760629Y-99876747D01*
X177760623Y-99876752D01*
X177757748Y-99878860D01*
X177755127Y-99881283D01*
X177607909Y-100017370D01*
X177503510Y-100113875D01*
X177277512Y-100376159D01*
X177227798Y-100449173D01*
X177127346Y-100596706D01*
X177082656Y-100662341D01*
X176921451Y-100968742D01*
X176920157Y-100972070D01*
X176835852Y-101188862D01*
X176795968Y-101291423D01*
X176795061Y-101294867D01*
X176795059Y-101294874D01*
X176710839Y-101614763D01*
X176707819Y-101626234D01*
X176658140Y-101968872D01*
X176658031Y-101972454D01*
X176648645Y-102279627D01*
X176647566Y-102314931D01*
X173458879Y-102314931D01*
X173462031Y-102279616D01*
X173462277Y-102274677D01*
X173462666Y-102237485D01*
X173462523Y-102232519D01*
X173444362Y-101966123D01*
X173443201Y-101957649D01*
X173389421Y-101697953D01*
X173387116Y-101689699D01*
X173381454Y-101673709D01*
X173373192Y-101662280D01*
X173369019Y-101663115D01*
X173368658Y-101663381D01*
X172809851Y-102222188D01*
X172802237Y-102236132D01*
X170096527Y-102236132D01*
X170097763Y-102233868D01*
X170097632Y-102232035D01*
X170093381Y-102225420D01*
X169536524Y-101668563D01*
X169524144Y-101661803D01*
X169520498Y-101664532D01*
X169518700Y-101669447D01*
X169516312Y-101677665D01*
X169459812Y-101936795D01*
X169458563Y-101945250D01*
X169437754Y-102209653D01*
X169437665Y-102218204D01*
X153772048Y-102218204D01*
X153755051Y-101968872D01*
X153754859Y-101966055D01*
X153754858Y-101966049D01*
X153754567Y-101961778D01*
X153699032Y-101693612D01*
X153607617Y-101435465D01*
X153568036Y-101358778D01*
X153483978Y-101195919D01*
X153483978Y-101195918D01*
X153482013Y-101192112D01*
X153472040Y-101177921D01*
X153327008Y-100971562D01*
X153324545Y-100968057D01*
X153138125Y-100767445D01*
X153134810Y-100764731D01*
X153134806Y-100764728D01*
X152929523Y-100596706D01*
X152926205Y-100593990D01*
X152692704Y-100450901D01*
X152688768Y-100449173D01*
X152445873Y-100342549D01*
X152445869Y-100342548D01*
X152441945Y-100340825D01*
X152346511Y-100313640D01*
X170878528Y-100313640D01*
X170878755Y-100315451D01*
X170881450Y-100319411D01*
X171437188Y-100875149D01*
X171451132Y-100882763D01*
X171452965Y-100882632D01*
X171459580Y-100878381D01*
X172013807Y-100324154D01*
X172020567Y-100311774D01*
X172019265Y-100310035D01*
X172015526Y-100308182D01*
X171872592Y-100267467D01*
X171864214Y-100265685D01*
X171601656Y-100228318D01*
X171593111Y-100227691D01*
X171327908Y-100226302D01*
X171319374Y-100226839D01*
X171056433Y-100261456D01*
X171048035Y-100263149D01*
X170890531Y-100306238D01*
X170878528Y-100313640D01*
X152346511Y-100313640D01*
X152178566Y-100265800D01*
X152174324Y-100265196D01*
X152174318Y-100265195D01*
X151973834Y-100236662D01*
X151907443Y-100227213D01*
X151763589Y-100226460D01*
X151637877Y-100225802D01*
X151637871Y-100225802D01*
X151633591Y-100225780D01*
X151629347Y-100226339D01*
X151629343Y-100226339D01*
X151510302Y-100242011D01*
X151362078Y-100261525D01*
X151357938Y-100262658D01*
X151357936Y-100262658D01*
X151285008Y-100282609D01*
X151097928Y-100333788D01*
X151093980Y-100335472D01*
X150849982Y-100439546D01*
X150849978Y-100439548D01*
X150846030Y-100441232D01*
X150826125Y-100453145D01*
X150614725Y-100579664D01*
X150614721Y-100579667D01*
X150611043Y-100581868D01*
X150397318Y-100753094D01*
X150208808Y-100951742D01*
X150049002Y-101174136D01*
X149920857Y-101416161D01*
X149919385Y-101420184D01*
X149919383Y-101420188D01*
X149845244Y-101622780D01*
X149826743Y-101673337D01*
X149768404Y-101940907D01*
X149746917Y-102213918D01*
X145521255Y-102213918D01*
X145504362Y-101966123D01*
X145503201Y-101957649D01*
X145449421Y-101697953D01*
X145447116Y-101689699D01*
X145441454Y-101673709D01*
X145433192Y-101662280D01*
X145429019Y-101663115D01*
X145428658Y-101663381D01*
X144869851Y-102222188D01*
X144862237Y-102236132D01*
X142156527Y-102236132D01*
X142157763Y-102233868D01*
X142157632Y-102232035D01*
X142153381Y-102225420D01*
X141596524Y-101668563D01*
X141584144Y-101661803D01*
X141580498Y-101664532D01*
X141578700Y-101669447D01*
X141576312Y-101677665D01*
X141519812Y-101936795D01*
X141518563Y-101945250D01*
X141497754Y-102209653D01*
X141497665Y-102218204D01*
X134573383Y-102218204D01*
X134015137Y-101659958D01*
X133985459Y-101612923D01*
X133924048Y-101439506D01*
X133922617Y-101435465D01*
X133883036Y-101358778D01*
X133798978Y-101195919D01*
X133798978Y-101195918D01*
X133797013Y-101192112D01*
X133787040Y-101177921D01*
X133642008Y-100971562D01*
X133639545Y-100968057D01*
X133453125Y-100767445D01*
X133449810Y-100764731D01*
X133449806Y-100764728D01*
X133244523Y-100596706D01*
X133241205Y-100593990D01*
X133007704Y-100450901D01*
X133003768Y-100449173D01*
X132760873Y-100342549D01*
X132760869Y-100342548D01*
X132756945Y-100340825D01*
X132661511Y-100313640D01*
X142938528Y-100313640D01*
X142938755Y-100315451D01*
X142941450Y-100319411D01*
X143497188Y-100875149D01*
X143511132Y-100882763D01*
X143512965Y-100882632D01*
X143519580Y-100878381D01*
X144073807Y-100324154D01*
X144080567Y-100311774D01*
X144079265Y-100310035D01*
X144075526Y-100308182D01*
X143932592Y-100267467D01*
X143924214Y-100265685D01*
X143661656Y-100228318D01*
X143653111Y-100227691D01*
X143387908Y-100226302D01*
X143379374Y-100226839D01*
X143116433Y-100261456D01*
X143108035Y-100263149D01*
X142950531Y-100306238D01*
X142938528Y-100313640D01*
X132661511Y-100313640D01*
X132493566Y-100265800D01*
X132489324Y-100265196D01*
X132489318Y-100265195D01*
X132288834Y-100236662D01*
X132222443Y-100227213D01*
X132078589Y-100226460D01*
X131952877Y-100225802D01*
X131952871Y-100225802D01*
X131948591Y-100225780D01*
X131944347Y-100226339D01*
X131944343Y-100226339D01*
X131825302Y-100242011D01*
X131677078Y-100261525D01*
X131672938Y-100262658D01*
X131672936Y-100262658D01*
X131600008Y-100282609D01*
X131412928Y-100333788D01*
X131408980Y-100335472D01*
X131164982Y-100439546D01*
X131164978Y-100439548D01*
X131161030Y-100441232D01*
X131141125Y-100453145D01*
X130929725Y-100579664D01*
X130929721Y-100579667D01*
X130926043Y-100581868D01*
X130712318Y-100753094D01*
X130523808Y-100951742D01*
X130364002Y-101174136D01*
X130235857Y-101416161D01*
X130234385Y-101420184D01*
X130234383Y-101420188D01*
X130160244Y-101622780D01*
X130141743Y-101673337D01*
X130083404Y-101940907D01*
X130061917Y-102213918D01*
X130077682Y-102487320D01*
X130078507Y-102491525D01*
X130078508Y-102491533D01*
X130090771Y-102554038D01*
X130130405Y-102756053D01*
X130131792Y-102760103D01*
X130131793Y-102760108D01*
X130212570Y-102996037D01*
X130219112Y-103015144D01*
X130221039Y-103018975D01*
X130310922Y-103197688D01*
X130342160Y-103259799D01*
X130344586Y-103263328D01*
X130344589Y-103263334D01*
X130389906Y-103329270D01*
X130497274Y-103485490D01*
X130500161Y-103488663D01*
X130500162Y-103488664D01*
X130678692Y-103684867D01*
X130681582Y-103688043D01*
X130891675Y-103863707D01*
X130895316Y-103865991D01*
X131120024Y-104006951D01*
X131120028Y-104006953D01*
X131123664Y-104009234D01*
X131191544Y-104039883D01*
X131369345Y-104120164D01*
X131369349Y-104120166D01*
X131373257Y-104121930D01*
X131377377Y-104123150D01*
X131377376Y-104123150D01*
X131447002Y-104143774D01*
X131500311Y-104175490D01*
X144806095Y-117481274D01*
X144840121Y-117543586D01*
X144843000Y-117570369D01*
X144843000Y-131989631D01*
X144822998Y-132057752D01*
X144806095Y-132078726D01*
X141413226Y-135471595D01*
X141350914Y-135505621D01*
X141324131Y-135508500D01*
X137146025Y-135508500D01*
X137131217Y-135507627D01*
X137110795Y-135505210D01*
X137009761Y-135508297D01*
X137005048Y-135508441D01*
X137001200Y-135508500D01*
X125543473Y-135508500D01*
X125536329Y-135508297D01*
X125461549Y-135504050D01*
X125461543Y-135504050D01*
X125456874Y-135503785D01*
X125415061Y-135507627D01*
X125341887Y-135514350D01*
X125339697Y-135514532D01*
X125229053Y-135522755D01*
X125229039Y-135522757D01*
X125224384Y-135523103D01*
X125219828Y-135524134D01*
X125219827Y-135524134D01*
X125217214Y-135524725D01*
X125200943Y-135527302D01*
X125193640Y-135527973D01*
X125182872Y-135530608D01*
X125081418Y-135555433D01*
X125079278Y-135555937D01*
X124997128Y-135574526D01*
X124966559Y-135581443D01*
X124959717Y-135584103D01*
X124944007Y-135589057D01*
X124936872Y-135590803D01*
X124829927Y-135634555D01*
X124827886Y-135635370D01*
X124720189Y-135677251D01*
X124716140Y-135679565D01*
X124716128Y-135679571D01*
X124713816Y-135680893D01*
X124699007Y-135688116D01*
X124696547Y-135689122D01*
X124696540Y-135689125D01*
X124692212Y-135690896D01*
X124688188Y-135693290D01*
X124592892Y-135749985D01*
X124590995Y-135751092D01*
X124490687Y-135808422D01*
X124487014Y-135811318D01*
X124487012Y-135811319D01*
X124484920Y-135812968D01*
X124471346Y-135822297D01*
X124465033Y-135826053D01*
X124461413Y-135829011D01*
X124461404Y-135829017D01*
X124375503Y-135899202D01*
X124373787Y-135900579D01*
X124283094Y-135972075D01*
X124279896Y-135975474D01*
X124279890Y-135975480D01*
X124210587Y-136049152D01*
X124207907Y-136051914D01*
X121336647Y-138923174D01*
X121331453Y-138928082D01*
X121324600Y-138934199D01*
X121272067Y-138981086D01*
X121199467Y-139068379D01*
X121198205Y-139069896D01*
X121196807Y-139071548D01*
X121180363Y-139090632D01*
X121124380Y-139155603D01*
X121124377Y-139155607D01*
X121121332Y-139159141D01*
X121118838Y-139163094D01*
X121117413Y-139165352D01*
X121107731Y-139178678D01*
X121106029Y-139180725D01*
X121103036Y-139184324D01*
X121100613Y-139188317D01*
X121043071Y-139283142D01*
X121041914Y-139285011D01*
X121020729Y-139318588D01*
X120980275Y-139382704D01*
X120978392Y-139386983D01*
X120978389Y-139386989D01*
X120977322Y-139389414D01*
X120969716Y-139404027D01*
X120965901Y-139410314D01*
X120964094Y-139414622D01*
X120964094Y-139414623D01*
X120921201Y-139516910D01*
X120920333Y-139518930D01*
X120897994Y-139569700D01*
X120873811Y-139624660D01*
X120872582Y-139629169D01*
X120872580Y-139629174D01*
X120871882Y-139631735D01*
X120866517Y-139647320D01*
X120863677Y-139654091D01*
X120835217Y-139766152D01*
X120834687Y-139768166D01*
X120804281Y-139879694D01*
X120803733Y-139884325D01*
X120803730Y-139884340D01*
X120803417Y-139886987D01*
X120800415Y-139903186D01*
X120798608Y-139910301D01*
X120787027Y-140025304D01*
X120786801Y-140027372D01*
X120773210Y-140142205D01*
X120773353Y-140146876D01*
X120776441Y-140247952D01*
X120776500Y-140251800D01*
X120776500Y-141371368D01*
X120756498Y-141439489D01*
X120702842Y-141485982D01*
X120632568Y-141496086D01*
X120584665Y-141478801D01*
X120421122Y-141378582D01*
X120413552Y-141374624D01*
X120170704Y-141268022D01*
X120162644Y-141265120D01*
X119907592Y-141192467D01*
X119899214Y-141190685D01*
X119636656Y-141153318D01*
X119628111Y-141152691D01*
X119362908Y-141151302D01*
X119354374Y-141151839D01*
X119091433Y-141186456D01*
X119083035Y-141188149D01*
X118827238Y-141258127D01*
X118819143Y-141260946D01*
X118575199Y-141364997D01*
X118567577Y-141368881D01*
X118340013Y-141505075D01*
X118332981Y-141509962D01*
X118270053Y-141560377D01*
X118261584Y-141572500D01*
X118267980Y-141583770D01*
X119755115Y-143070905D01*
X119789141Y-143133217D01*
X119784076Y-143204032D01*
X119755115Y-143249095D01*
X118267910Y-144736300D01*
X118260618Y-144749654D01*
X107188000Y-144749654D01*
X107188000Y-143143204D01*
X117472665Y-143143204D01*
X117487932Y-143407969D01*
X117489005Y-143416470D01*
X117540065Y-143676722D01*
X117542276Y-143684974D01*
X117628184Y-143935894D01*
X117631499Y-143943779D01*
X117750664Y-144180713D01*
X117755020Y-144188079D01*
X117884347Y-144376250D01*
X117894601Y-144384594D01*
X117908342Y-144377448D01*
X119112978Y-143172812D01*
X119120592Y-143158868D01*
X119120461Y-143157035D01*
X119116210Y-143150420D01*
X117908814Y-141943024D01*
X117896804Y-141936466D01*
X117885064Y-141945434D01*
X117776935Y-142095911D01*
X117772418Y-142103196D01*
X117648325Y-142337567D01*
X117644839Y-142345395D01*
X117553700Y-142594446D01*
X117551311Y-142602670D01*
X117494812Y-142861795D01*
X117493563Y-142870250D01*
X117472754Y-143134653D01*
X117472665Y-143143204D01*
X107188000Y-143143204D01*
X107188000Y-125979669D01*
X134402001Y-125979669D01*
X134402371Y-125986490D01*
X134407895Y-126037352D01*
X134411521Y-126052604D01*
X134456676Y-126173054D01*
X134465214Y-126188649D01*
X134541715Y-126290724D01*
X134554276Y-126303285D01*
X134656351Y-126379786D01*
X134671946Y-126388324D01*
X134792394Y-126433478D01*
X134807649Y-126437105D01*
X134858514Y-126442631D01*
X134865328Y-126443000D01*
X136887885Y-126443000D01*
X136903124Y-126438525D01*
X136904329Y-126437135D01*
X136906000Y-126429452D01*
X136906000Y-126424884D01*
X137414000Y-126424884D01*
X137418475Y-126440123D01*
X137419865Y-126441328D01*
X137427548Y-126442999D01*
X139454669Y-126442999D01*
X139461490Y-126442629D01*
X139512352Y-126437105D01*
X139527604Y-126433479D01*
X139648054Y-126388324D01*
X139663649Y-126379786D01*
X139765724Y-126303285D01*
X139778285Y-126290724D01*
X139854786Y-126188649D01*
X139863324Y-126173054D01*
X139908478Y-126052606D01*
X139912105Y-126037351D01*
X139917631Y-125986486D01*
X139918000Y-125979672D01*
X139918000Y-124732115D01*
X139913525Y-124716876D01*
X139912135Y-124715671D01*
X139904452Y-124714000D01*
X139683326Y-124714000D01*
X139657681Y-124721530D01*
X138960000Y-125419210D01*
X138629074Y-125750137D01*
X138566762Y-125784162D01*
X138495946Y-125779097D01*
X138450885Y-125750138D01*
X138422808Y-125722062D01*
X138408872Y-125714452D01*
X138407034Y-125714583D01*
X138400419Y-125718834D01*
X138369115Y-125750138D01*
X138306803Y-125784162D01*
X138235987Y-125779096D01*
X138190925Y-125750136D01*
X137872811Y-125432021D01*
X137858868Y-125424408D01*
X137857034Y-125424539D01*
X137850421Y-125428790D01*
X137497681Y-125781530D01*
X137435368Y-125815555D01*
X137417637Y-125818105D01*
X137414000Y-125827857D01*
X137414000Y-126424884D01*
X136906000Y-126424884D01*
X136906000Y-125783326D01*
X136898470Y-125757681D01*
X136269464Y-125128674D01*
X137414000Y-125128674D01*
X137417237Y-125139699D01*
X137424328Y-125136461D01*
X137487982Y-125072808D01*
X137494358Y-125061130D01*
X138224408Y-125061130D01*
X138224539Y-125062966D01*
X138228789Y-125069579D01*
X138397192Y-125237981D01*
X138411130Y-125245592D01*
X138412966Y-125245460D01*
X138419579Y-125241211D01*
X138587981Y-125072808D01*
X138595592Y-125058870D01*
X138595461Y-125057034D01*
X138591211Y-125050421D01*
X138422808Y-124882019D01*
X138408870Y-124874408D01*
X138407034Y-124874540D01*
X138400421Y-124878789D01*
X138232019Y-125047192D01*
X138224408Y-125061130D01*
X137494358Y-125061130D01*
X137495592Y-125058870D01*
X137495461Y-125057034D01*
X137491211Y-125050421D01*
X137426808Y-124986019D01*
X137416724Y-124980512D01*
X137414000Y-124987815D01*
X137414000Y-125128674D01*
X136269464Y-125128674D01*
X136200790Y-125060000D01*
X135972811Y-124832022D01*
X135958868Y-124824409D01*
X135957033Y-124824540D01*
X135950423Y-124828788D01*
X135449095Y-125330115D01*
X135386783Y-125364140D01*
X135315967Y-125359075D01*
X135270905Y-125330115D01*
X134667597Y-124726808D01*
X134644141Y-124714000D01*
X134420116Y-124714000D01*
X134404877Y-124718475D01*
X134403672Y-124719865D01*
X134402001Y-124727548D01*
X134402001Y-125979669D01*
X107188000Y-125979669D01*
X107188000Y-124187885D01*
X134402000Y-124187885D01*
X134406475Y-124203124D01*
X134407865Y-124204329D01*
X134415548Y-124206000D01*
X134636674Y-124206000D01*
X134662319Y-124198470D01*
X135270905Y-123589885D01*
X135333217Y-123555860D01*
X135404033Y-123560925D01*
X135449095Y-123589885D01*
X135947192Y-124087981D01*
X135961130Y-124095592D01*
X135962966Y-124095460D01*
X135969578Y-124091211D01*
X136132115Y-123928674D01*
X137414000Y-123928674D01*
X137417237Y-123939699D01*
X137424328Y-123936461D01*
X137487982Y-123872808D01*
X137494358Y-123861130D01*
X138224408Y-123861130D01*
X138224539Y-123862966D01*
X138228789Y-123869579D01*
X138397192Y-124037981D01*
X138411130Y-124045592D01*
X138412966Y-124045460D01*
X138419579Y-124041211D01*
X138587981Y-123872808D01*
X138595592Y-123858870D01*
X138595461Y-123857034D01*
X138591211Y-123850421D01*
X138422808Y-123682019D01*
X138408870Y-123674408D01*
X138407034Y-123674540D01*
X138400421Y-123678789D01*
X138232019Y-123847192D01*
X138224408Y-123861130D01*
X137494358Y-123861130D01*
X137495592Y-123858870D01*
X137495461Y-123857034D01*
X137491211Y-123850421D01*
X137426808Y-123786019D01*
X137416724Y-123780512D01*
X137414000Y-123787815D01*
X137414000Y-123928674D01*
X136132115Y-123928674D01*
X136560000Y-123500790D01*
X136893189Y-123167600D01*
X136906000Y-123144138D01*
X136906000Y-123088632D01*
X137414000Y-123088632D01*
X137417973Y-123102162D01*
X137427150Y-123103481D01*
X137491731Y-123132974D01*
X137498315Y-123139104D01*
X137847189Y-123487979D01*
X137861132Y-123495592D01*
X137862966Y-123495461D01*
X137869579Y-123491210D01*
X138190925Y-123169864D01*
X138253238Y-123135839D01*
X138324053Y-123140903D01*
X138369115Y-123169862D01*
X138397192Y-123197938D01*
X138411128Y-123205548D01*
X138412966Y-123205417D01*
X138419581Y-123201166D01*
X138450885Y-123169862D01*
X138513197Y-123135838D01*
X138584013Y-123140904D01*
X138629075Y-123169864D01*
X138960000Y-123500790D01*
X139652400Y-124193189D01*
X139675862Y-124206000D01*
X139899884Y-124206000D01*
X139915123Y-124201525D01*
X139916328Y-124200135D01*
X139917999Y-124192452D01*
X139917999Y-122940331D01*
X139917629Y-122933510D01*
X139912105Y-122882648D01*
X139908479Y-122867396D01*
X139863324Y-122746946D01*
X139854786Y-122731351D01*
X139778285Y-122629276D01*
X139765724Y-122616715D01*
X139663649Y-122540214D01*
X139648054Y-122531676D01*
X139527606Y-122486522D01*
X139512351Y-122482895D01*
X139461486Y-122477369D01*
X139454672Y-122477000D01*
X137432115Y-122477000D01*
X137416876Y-122481475D01*
X137415671Y-122482865D01*
X137414000Y-122490548D01*
X137414000Y-123088632D01*
X136906000Y-123088632D01*
X136906000Y-122495116D01*
X136901525Y-122479877D01*
X136900135Y-122478672D01*
X136892452Y-122477001D01*
X134865331Y-122477001D01*
X134858510Y-122477371D01*
X134807648Y-122482895D01*
X134792396Y-122486521D01*
X134671946Y-122531676D01*
X134656351Y-122540214D01*
X134554276Y-122616715D01*
X134541715Y-122629276D01*
X134465214Y-122731351D01*
X134456676Y-122746946D01*
X134411522Y-122867394D01*
X134407895Y-122882649D01*
X134402369Y-122933514D01*
X134402000Y-122940328D01*
X134402000Y-124187885D01*
X107188000Y-124187885D01*
X107188000Y-103926624D01*
X122749653Y-103926624D01*
X122755621Y-103934596D01*
X122870271Y-104006515D01*
X122877807Y-104010556D01*
X123119520Y-104119694D01*
X123127551Y-104122680D01*
X123381832Y-104198002D01*
X123390184Y-104199869D01*
X123652340Y-104239984D01*
X123660874Y-104240700D01*
X123926045Y-104244867D01*
X123934596Y-104244418D01*
X124197883Y-104212557D01*
X124206284Y-104210955D01*
X124462824Y-104143653D01*
X124470926Y-104140926D01*
X124715949Y-104039434D01*
X124723617Y-104035628D01*
X124891872Y-103937307D01*
X124901548Y-103927052D01*
X124898230Y-103918887D01*
X123837812Y-102858469D01*
X123823868Y-102850855D01*
X123822035Y-102850986D01*
X123815420Y-102855237D01*
X122756413Y-103914244D01*
X122749653Y-103926624D01*
X107188000Y-103926624D01*
X107188000Y-102218204D01*
X121812665Y-102218204D01*
X121827932Y-102482969D01*
X121829005Y-102491470D01*
X121880065Y-102751722D01*
X121882276Y-102759974D01*
X121968184Y-103010894D01*
X121971499Y-103018779D01*
X122090664Y-103255712D01*
X122095019Y-103263076D01*
X122121926Y-103302226D01*
X122132180Y-103310569D01*
X122145919Y-103303424D01*
X123201531Y-102247812D01*
X123207909Y-102236132D01*
X124440855Y-102236132D01*
X124440986Y-102237965D01*
X124445237Y-102244580D01*
X125507215Y-103306558D01*
X125519423Y-103313224D01*
X125528027Y-103306722D01*
X125652962Y-103076621D01*
X125656530Y-103068827D01*
X125750271Y-102820750D01*
X125752748Y-102812544D01*
X125811954Y-102554038D01*
X125813294Y-102545577D01*
X125837031Y-102279616D01*
X125837277Y-102274677D01*
X125837666Y-102237485D01*
X125837523Y-102232519D01*
X125819362Y-101966123D01*
X125818201Y-101957649D01*
X125764419Y-101697944D01*
X125762120Y-101689709D01*
X125673588Y-101439705D01*
X125670191Y-101431854D01*
X125548552Y-101196181D01*
X125544119Y-101188862D01*
X125528812Y-101167084D01*
X125518290Y-101158703D01*
X125504902Y-101165755D01*
X124448469Y-102222188D01*
X124440855Y-102236132D01*
X123207909Y-102236132D01*
X123209145Y-102233868D01*
X123209014Y-102232035D01*
X123204763Y-102225420D01*
X122143678Y-101164335D01*
X122131668Y-101157777D01*
X122119927Y-101166747D01*
X122116935Y-101170910D01*
X122112416Y-101178200D01*
X121988325Y-101412567D01*
X121984839Y-101420395D01*
X121893700Y-101669446D01*
X121891311Y-101677670D01*
X121834812Y-101936795D01*
X121833563Y-101945250D01*
X121812754Y-102209653D01*
X121812665Y-102218204D01*
X107188000Y-102218204D01*
X107188000Y-100543420D01*
X122748997Y-100543420D01*
X122752540Y-100551883D01*
X123812188Y-101611531D01*
X123826132Y-101619145D01*
X123827965Y-101619014D01*
X123834580Y-101614763D01*
X124893796Y-100555547D01*
X124900556Y-100543167D01*
X124894829Y-100535517D01*
X124761127Y-100453585D01*
X124753549Y-100449623D01*
X124510704Y-100343022D01*
X124502644Y-100340120D01*
X124247592Y-100267467D01*
X124239214Y-100265685D01*
X123976656Y-100228318D01*
X123968111Y-100227691D01*
X123702908Y-100226302D01*
X123694374Y-100226839D01*
X123431433Y-100261456D01*
X123423035Y-100263149D01*
X123167238Y-100333127D01*
X123159143Y-100335946D01*
X122915199Y-100439997D01*
X122907577Y-100443881D01*
X122758568Y-100533061D01*
X122748997Y-100543420D01*
X107188000Y-100543420D01*
X107188000Y-92074000D01*
X107208002Y-92005879D01*
X107261658Y-91959386D01*
X107314000Y-91948000D01*
X200026000Y-91948000D01*
X200094121Y-91968002D01*
G37*
%TD.AperFunction*%
%TD*%
M02*
