%TF.GenerationSoftware,KiCad,Pcbnew,8.0.4*%
%TF.CreationDate,2025-06-08T14:38:43-04:00*%
%TF.ProjectId,car-battery-reverse-polarity-protection,6361722d-6261-4747-9465-72792d726576,rev?*%
%TF.SameCoordinates,Original*%
%TF.FileFunction,Legend,Top*%
%TF.FilePolarity,Positive*%
%FSLAX46Y46*%
G04 Gerber Fmt 4.6, Leading zero omitted, Abs format (unit mm)*
G04 Created by KiCad (PCBNEW 8.0.4) date 2025-06-08 14:38:43*
%MOMM*%
%LPD*%
G01*
G04 APERTURE LIST*
%ADD10C,0.300000*%
%ADD11C,0.250000*%
%ADD12C,0.150000*%
%ADD13C,0.240000*%
%ADD14C,0.010000*%
%ADD15C,0.152400*%
%ADD16C,0.120000*%
G04 APERTURE END LIST*
D10*
X122054510Y-75814484D02*
X123197368Y-75814484D01*
X122625939Y-76385912D02*
X122625939Y-75243055D01*
X123840225Y-75028769D02*
X123911653Y-74957341D01*
X123911653Y-74957341D02*
X124054511Y-74885912D01*
X124054511Y-74885912D02*
X124411653Y-74885912D01*
X124411653Y-74885912D02*
X124554511Y-74957341D01*
X124554511Y-74957341D02*
X124625939Y-75028769D01*
X124625939Y-75028769D02*
X124697368Y-75171626D01*
X124697368Y-75171626D02*
X124697368Y-75314484D01*
X124697368Y-75314484D02*
X124625939Y-75528769D01*
X124625939Y-75528769D02*
X123768796Y-76385912D01*
X123768796Y-76385912D02*
X124697368Y-76385912D01*
X125983082Y-75385912D02*
X125983082Y-76385912D01*
X125625939Y-74814484D02*
X125268796Y-75885912D01*
X125268796Y-75885912D02*
X126197367Y-75885912D01*
X126554510Y-74885912D02*
X127054510Y-76385912D01*
X127054510Y-76385912D02*
X127554510Y-74885912D01*
X123314484Y-98945489D02*
X123314484Y-97802632D01*
X123885912Y-98374060D02*
X122743055Y-98374060D01*
X112883082Y-63277038D02*
X113054510Y-63334181D01*
X113054510Y-63334181D02*
X113111653Y-63391324D01*
X113111653Y-63391324D02*
X113168796Y-63505609D01*
X113168796Y-63505609D02*
X113168796Y-63677038D01*
X113168796Y-63677038D02*
X113111653Y-63791324D01*
X113111653Y-63791324D02*
X113054510Y-63848467D01*
X113054510Y-63848467D02*
X112940225Y-63905609D01*
X112940225Y-63905609D02*
X112483082Y-63905609D01*
X112483082Y-63905609D02*
X112483082Y-62705609D01*
X112483082Y-62705609D02*
X112883082Y-62705609D01*
X112883082Y-62705609D02*
X112997368Y-62762752D01*
X112997368Y-62762752D02*
X113054510Y-62819895D01*
X113054510Y-62819895D02*
X113111653Y-62934181D01*
X113111653Y-62934181D02*
X113111653Y-63048467D01*
X113111653Y-63048467D02*
X113054510Y-63162752D01*
X113054510Y-63162752D02*
X112997368Y-63219895D01*
X112997368Y-63219895D02*
X112883082Y-63277038D01*
X112883082Y-63277038D02*
X112483082Y-63277038D01*
X114197368Y-63905609D02*
X114197368Y-63277038D01*
X114197368Y-63277038D02*
X114140225Y-63162752D01*
X114140225Y-63162752D02*
X114025939Y-63105609D01*
X114025939Y-63105609D02*
X113797368Y-63105609D01*
X113797368Y-63105609D02*
X113683082Y-63162752D01*
X114197368Y-63848467D02*
X114083082Y-63905609D01*
X114083082Y-63905609D02*
X113797368Y-63905609D01*
X113797368Y-63905609D02*
X113683082Y-63848467D01*
X113683082Y-63848467D02*
X113625939Y-63734181D01*
X113625939Y-63734181D02*
X113625939Y-63619895D01*
X113625939Y-63619895D02*
X113683082Y-63505609D01*
X113683082Y-63505609D02*
X113797368Y-63448467D01*
X113797368Y-63448467D02*
X114083082Y-63448467D01*
X114083082Y-63448467D02*
X114197368Y-63391324D01*
X114597367Y-63105609D02*
X115054510Y-63105609D01*
X114768796Y-62705609D02*
X114768796Y-63734181D01*
X114768796Y-63734181D02*
X114825939Y-63848467D01*
X114825939Y-63848467D02*
X114940224Y-63905609D01*
X114940224Y-63905609D02*
X115054510Y-63905609D01*
X115283081Y-63105609D02*
X115740224Y-63105609D01*
X115454510Y-62705609D02*
X115454510Y-63734181D01*
X115454510Y-63734181D02*
X115511653Y-63848467D01*
X115511653Y-63848467D02*
X115625938Y-63905609D01*
X115625938Y-63905609D02*
X115740224Y-63905609D01*
X116597367Y-63848467D02*
X116483081Y-63905609D01*
X116483081Y-63905609D02*
X116254510Y-63905609D01*
X116254510Y-63905609D02*
X116140224Y-63848467D01*
X116140224Y-63848467D02*
X116083081Y-63734181D01*
X116083081Y-63734181D02*
X116083081Y-63277038D01*
X116083081Y-63277038D02*
X116140224Y-63162752D01*
X116140224Y-63162752D02*
X116254510Y-63105609D01*
X116254510Y-63105609D02*
X116483081Y-63105609D01*
X116483081Y-63105609D02*
X116597367Y-63162752D01*
X116597367Y-63162752D02*
X116654510Y-63277038D01*
X116654510Y-63277038D02*
X116654510Y-63391324D01*
X116654510Y-63391324D02*
X116083081Y-63505609D01*
X117168795Y-63905609D02*
X117168795Y-63105609D01*
X117168795Y-63334181D02*
X117225938Y-63219895D01*
X117225938Y-63219895D02*
X117283081Y-63162752D01*
X117283081Y-63162752D02*
X117397366Y-63105609D01*
X117397366Y-63105609D02*
X117511652Y-63105609D01*
X117797366Y-63105609D02*
X118083080Y-63905609D01*
X118368795Y-63105609D02*
X118083080Y-63905609D01*
X118083080Y-63905609D02*
X117968795Y-64191324D01*
X117968795Y-64191324D02*
X117911652Y-64248467D01*
X117911652Y-64248467D02*
X117797366Y-64305609D01*
X113168796Y-65723257D02*
X113111653Y-65780400D01*
X113111653Y-65780400D02*
X112940225Y-65837542D01*
X112940225Y-65837542D02*
X112825939Y-65837542D01*
X112825939Y-65837542D02*
X112654510Y-65780400D01*
X112654510Y-65780400D02*
X112540225Y-65666114D01*
X112540225Y-65666114D02*
X112483082Y-65551828D01*
X112483082Y-65551828D02*
X112425939Y-65323257D01*
X112425939Y-65323257D02*
X112425939Y-65151828D01*
X112425939Y-65151828D02*
X112483082Y-64923257D01*
X112483082Y-64923257D02*
X112540225Y-64808971D01*
X112540225Y-64808971D02*
X112654510Y-64694685D01*
X112654510Y-64694685D02*
X112825939Y-64637542D01*
X112825939Y-64637542D02*
X112940225Y-64637542D01*
X112940225Y-64637542D02*
X113111653Y-64694685D01*
X113111653Y-64694685D02*
X113168796Y-64751828D01*
X113854510Y-65837542D02*
X113740225Y-65780400D01*
X113740225Y-65780400D02*
X113683082Y-65723257D01*
X113683082Y-65723257D02*
X113625939Y-65608971D01*
X113625939Y-65608971D02*
X113625939Y-65266114D01*
X113625939Y-65266114D02*
X113683082Y-65151828D01*
X113683082Y-65151828D02*
X113740225Y-65094685D01*
X113740225Y-65094685D02*
X113854510Y-65037542D01*
X113854510Y-65037542D02*
X114025939Y-65037542D01*
X114025939Y-65037542D02*
X114140225Y-65094685D01*
X114140225Y-65094685D02*
X114197368Y-65151828D01*
X114197368Y-65151828D02*
X114254510Y-65266114D01*
X114254510Y-65266114D02*
X114254510Y-65608971D01*
X114254510Y-65608971D02*
X114197368Y-65723257D01*
X114197368Y-65723257D02*
X114140225Y-65780400D01*
X114140225Y-65780400D02*
X114025939Y-65837542D01*
X114025939Y-65837542D02*
X113854510Y-65837542D01*
X114768796Y-65037542D02*
X114768796Y-65837542D01*
X114768796Y-65151828D02*
X114825939Y-65094685D01*
X114825939Y-65094685D02*
X114940224Y-65037542D01*
X114940224Y-65037542D02*
X115111653Y-65037542D01*
X115111653Y-65037542D02*
X115225939Y-65094685D01*
X115225939Y-65094685D02*
X115283082Y-65208971D01*
X115283082Y-65208971D02*
X115283082Y-65837542D01*
X115854510Y-65037542D02*
X115854510Y-65837542D01*
X115854510Y-65151828D02*
X115911653Y-65094685D01*
X115911653Y-65094685D02*
X116025938Y-65037542D01*
X116025938Y-65037542D02*
X116197367Y-65037542D01*
X116197367Y-65037542D02*
X116311653Y-65094685D01*
X116311653Y-65094685D02*
X116368796Y-65208971D01*
X116368796Y-65208971D02*
X116368796Y-65837542D01*
X117397367Y-65780400D02*
X117283081Y-65837542D01*
X117283081Y-65837542D02*
X117054510Y-65837542D01*
X117054510Y-65837542D02*
X116940224Y-65780400D01*
X116940224Y-65780400D02*
X116883081Y-65666114D01*
X116883081Y-65666114D02*
X116883081Y-65208971D01*
X116883081Y-65208971D02*
X116940224Y-65094685D01*
X116940224Y-65094685D02*
X117054510Y-65037542D01*
X117054510Y-65037542D02*
X117283081Y-65037542D01*
X117283081Y-65037542D02*
X117397367Y-65094685D01*
X117397367Y-65094685D02*
X117454510Y-65208971D01*
X117454510Y-65208971D02*
X117454510Y-65323257D01*
X117454510Y-65323257D02*
X116883081Y-65437542D01*
X118483081Y-65780400D02*
X118368795Y-65837542D01*
X118368795Y-65837542D02*
X118140223Y-65837542D01*
X118140223Y-65837542D02*
X118025938Y-65780400D01*
X118025938Y-65780400D02*
X117968795Y-65723257D01*
X117968795Y-65723257D02*
X117911652Y-65608971D01*
X117911652Y-65608971D02*
X117911652Y-65266114D01*
X117911652Y-65266114D02*
X117968795Y-65151828D01*
X117968795Y-65151828D02*
X118025938Y-65094685D01*
X118025938Y-65094685D02*
X118140223Y-65037542D01*
X118140223Y-65037542D02*
X118368795Y-65037542D01*
X118368795Y-65037542D02*
X118483081Y-65094685D01*
X118825937Y-65037542D02*
X119283080Y-65037542D01*
X118997366Y-64637542D02*
X118997366Y-65666114D01*
X118997366Y-65666114D02*
X119054509Y-65780400D01*
X119054509Y-65780400D02*
X119168794Y-65837542D01*
X119168794Y-65837542D02*
X119283080Y-65837542D01*
X119854508Y-65837542D02*
X119740223Y-65780400D01*
X119740223Y-65780400D02*
X119683080Y-65723257D01*
X119683080Y-65723257D02*
X119625937Y-65608971D01*
X119625937Y-65608971D02*
X119625937Y-65266114D01*
X119625937Y-65266114D02*
X119683080Y-65151828D01*
X119683080Y-65151828D02*
X119740223Y-65094685D01*
X119740223Y-65094685D02*
X119854508Y-65037542D01*
X119854508Y-65037542D02*
X120025937Y-65037542D01*
X120025937Y-65037542D02*
X120140223Y-65094685D01*
X120140223Y-65094685D02*
X120197366Y-65151828D01*
X120197366Y-65151828D02*
X120254508Y-65266114D01*
X120254508Y-65266114D02*
X120254508Y-65608971D01*
X120254508Y-65608971D02*
X120197366Y-65723257D01*
X120197366Y-65723257D02*
X120140223Y-65780400D01*
X120140223Y-65780400D02*
X120025937Y-65837542D01*
X120025937Y-65837542D02*
X119854508Y-65837542D01*
X120768794Y-65837542D02*
X120768794Y-65037542D01*
X120768794Y-65266114D02*
X120825937Y-65151828D01*
X120825937Y-65151828D02*
X120883080Y-65094685D01*
X120883080Y-65094685D02*
X120997365Y-65037542D01*
X120997365Y-65037542D02*
X121111651Y-65037542D01*
X123340225Y-68872257D02*
X123197368Y-68800828D01*
X123197368Y-68800828D02*
X122983082Y-68800828D01*
X122983082Y-68800828D02*
X122768796Y-68872257D01*
X122768796Y-68872257D02*
X122625939Y-69015114D01*
X122625939Y-69015114D02*
X122554510Y-69157971D01*
X122554510Y-69157971D02*
X122483082Y-69443685D01*
X122483082Y-69443685D02*
X122483082Y-69657971D01*
X122483082Y-69657971D02*
X122554510Y-69943685D01*
X122554510Y-69943685D02*
X122625939Y-70086542D01*
X122625939Y-70086542D02*
X122768796Y-70229400D01*
X122768796Y-70229400D02*
X122983082Y-70300828D01*
X122983082Y-70300828D02*
X123125939Y-70300828D01*
X123125939Y-70300828D02*
X123340225Y-70229400D01*
X123340225Y-70229400D02*
X123411653Y-70157971D01*
X123411653Y-70157971D02*
X123411653Y-69657971D01*
X123411653Y-69657971D02*
X123125939Y-69657971D01*
X124054510Y-70300828D02*
X124054510Y-68800828D01*
X124054510Y-68800828D02*
X124911653Y-70300828D01*
X124911653Y-70300828D02*
X124911653Y-68800828D01*
X125625939Y-70300828D02*
X125625939Y-68800828D01*
X125625939Y-68800828D02*
X125983082Y-68800828D01*
X125983082Y-68800828D02*
X126197368Y-68872257D01*
X126197368Y-68872257D02*
X126340225Y-69015114D01*
X126340225Y-69015114D02*
X126411654Y-69157971D01*
X126411654Y-69157971D02*
X126483082Y-69443685D01*
X126483082Y-69443685D02*
X126483082Y-69657971D01*
X126483082Y-69657971D02*
X126411654Y-69943685D01*
X126411654Y-69943685D02*
X126340225Y-70086542D01*
X126340225Y-70086542D02*
X126197368Y-70229400D01*
X126197368Y-70229400D02*
X125983082Y-70300828D01*
X125983082Y-70300828D02*
X125625939Y-70300828D01*
D11*
X142402568Y-125254675D02*
X142402568Y-124254675D01*
X142878758Y-125254675D02*
X142878758Y-124254675D01*
X143307329Y-125254675D02*
X143307329Y-124730865D01*
X143307329Y-124730865D02*
X143259710Y-124635627D01*
X143259710Y-124635627D02*
X143164472Y-124588008D01*
X143164472Y-124588008D02*
X143021615Y-124588008D01*
X143021615Y-124588008D02*
X142926377Y-124635627D01*
X142926377Y-124635627D02*
X142878758Y-124683246D01*
X143735901Y-125207056D02*
X143831139Y-125254675D01*
X143831139Y-125254675D02*
X144021615Y-125254675D01*
X144021615Y-125254675D02*
X144116853Y-125207056D01*
X144116853Y-125207056D02*
X144164472Y-125111817D01*
X144164472Y-125111817D02*
X144164472Y-125064198D01*
X144164472Y-125064198D02*
X144116853Y-124968960D01*
X144116853Y-124968960D02*
X144021615Y-124921341D01*
X144021615Y-124921341D02*
X143878758Y-124921341D01*
X143878758Y-124921341D02*
X143783520Y-124873722D01*
X143783520Y-124873722D02*
X143735901Y-124778484D01*
X143735901Y-124778484D02*
X143735901Y-124730865D01*
X143735901Y-124730865D02*
X143783520Y-124635627D01*
X143783520Y-124635627D02*
X143878758Y-124588008D01*
X143878758Y-124588008D02*
X144021615Y-124588008D01*
X144021615Y-124588008D02*
X144116853Y-124635627D01*
X145021615Y-125254675D02*
X145021615Y-124730865D01*
X145021615Y-124730865D02*
X144973996Y-124635627D01*
X144973996Y-124635627D02*
X144878758Y-124588008D01*
X144878758Y-124588008D02*
X144688282Y-124588008D01*
X144688282Y-124588008D02*
X144593044Y-124635627D01*
X145021615Y-125207056D02*
X144926377Y-125254675D01*
X144926377Y-125254675D02*
X144688282Y-125254675D01*
X144688282Y-125254675D02*
X144593044Y-125207056D01*
X144593044Y-125207056D02*
X144545425Y-125111817D01*
X144545425Y-125111817D02*
X144545425Y-125016579D01*
X144545425Y-125016579D02*
X144593044Y-124921341D01*
X144593044Y-124921341D02*
X144688282Y-124873722D01*
X144688282Y-124873722D02*
X144926377Y-124873722D01*
X144926377Y-124873722D02*
X145021615Y-124826103D01*
X145497806Y-124588008D02*
X145497806Y-125254675D01*
X145497806Y-124683246D02*
X145545425Y-124635627D01*
X145545425Y-124635627D02*
X145640663Y-124588008D01*
X145640663Y-124588008D02*
X145783520Y-124588008D01*
X145783520Y-124588008D02*
X145878758Y-124635627D01*
X145878758Y-124635627D02*
X145926377Y-124730865D01*
X145926377Y-124730865D02*
X145926377Y-125254675D01*
X147116854Y-125207056D02*
X147259711Y-125254675D01*
X147259711Y-125254675D02*
X147497806Y-125254675D01*
X147497806Y-125254675D02*
X147593044Y-125207056D01*
X147593044Y-125207056D02*
X147640663Y-125159436D01*
X147640663Y-125159436D02*
X147688282Y-125064198D01*
X147688282Y-125064198D02*
X147688282Y-124968960D01*
X147688282Y-124968960D02*
X147640663Y-124873722D01*
X147640663Y-124873722D02*
X147593044Y-124826103D01*
X147593044Y-124826103D02*
X147497806Y-124778484D01*
X147497806Y-124778484D02*
X147307330Y-124730865D01*
X147307330Y-124730865D02*
X147212092Y-124683246D01*
X147212092Y-124683246D02*
X147164473Y-124635627D01*
X147164473Y-124635627D02*
X147116854Y-124540389D01*
X147116854Y-124540389D02*
X147116854Y-124445151D01*
X147116854Y-124445151D02*
X147164473Y-124349913D01*
X147164473Y-124349913D02*
X147212092Y-124302294D01*
X147212092Y-124302294D02*
X147307330Y-124254675D01*
X147307330Y-124254675D02*
X147545425Y-124254675D01*
X147545425Y-124254675D02*
X147688282Y-124302294D01*
X148545425Y-125254675D02*
X148545425Y-124730865D01*
X148545425Y-124730865D02*
X148497806Y-124635627D01*
X148497806Y-124635627D02*
X148402568Y-124588008D01*
X148402568Y-124588008D02*
X148212092Y-124588008D01*
X148212092Y-124588008D02*
X148116854Y-124635627D01*
X148545425Y-125207056D02*
X148450187Y-125254675D01*
X148450187Y-125254675D02*
X148212092Y-125254675D01*
X148212092Y-125254675D02*
X148116854Y-125207056D01*
X148116854Y-125207056D02*
X148069235Y-125111817D01*
X148069235Y-125111817D02*
X148069235Y-125016579D01*
X148069235Y-125016579D02*
X148116854Y-124921341D01*
X148116854Y-124921341D02*
X148212092Y-124873722D01*
X148212092Y-124873722D02*
X148450187Y-124873722D01*
X148450187Y-124873722D02*
X148545425Y-124826103D01*
X149164473Y-125254675D02*
X149069235Y-125207056D01*
X149069235Y-125207056D02*
X149021616Y-125111817D01*
X149021616Y-125111817D02*
X149021616Y-124254675D01*
X149973997Y-125254675D02*
X149973997Y-124730865D01*
X149973997Y-124730865D02*
X149926378Y-124635627D01*
X149926378Y-124635627D02*
X149831140Y-124588008D01*
X149831140Y-124588008D02*
X149640664Y-124588008D01*
X149640664Y-124588008D02*
X149545426Y-124635627D01*
X149973997Y-125207056D02*
X149878759Y-125254675D01*
X149878759Y-125254675D02*
X149640664Y-125254675D01*
X149640664Y-125254675D02*
X149545426Y-125207056D01*
X149545426Y-125207056D02*
X149497807Y-125111817D01*
X149497807Y-125111817D02*
X149497807Y-125016579D01*
X149497807Y-125016579D02*
X149545426Y-124921341D01*
X149545426Y-124921341D02*
X149640664Y-124873722D01*
X149640664Y-124873722D02*
X149878759Y-124873722D01*
X149878759Y-124873722D02*
X149973997Y-124826103D01*
X150450188Y-125254675D02*
X150450188Y-124588008D01*
X150450188Y-124778484D02*
X150497807Y-124683246D01*
X150497807Y-124683246D02*
X150545426Y-124635627D01*
X150545426Y-124635627D02*
X150640664Y-124588008D01*
X150640664Y-124588008D02*
X150735902Y-124588008D01*
X151069236Y-125254675D02*
X151069236Y-124588008D01*
X151069236Y-124254675D02*
X151021617Y-124302294D01*
X151021617Y-124302294D02*
X151069236Y-124349913D01*
X151069236Y-124349913D02*
X151116855Y-124302294D01*
X151116855Y-124302294D02*
X151069236Y-124254675D01*
X151069236Y-124254675D02*
X151069236Y-124349913D01*
X152593045Y-124254675D02*
X152593045Y-124968960D01*
X152593045Y-124968960D02*
X152545426Y-125111817D01*
X152545426Y-125111817D02*
X152450188Y-125207056D01*
X152450188Y-125207056D02*
X152307331Y-125254675D01*
X152307331Y-125254675D02*
X152212093Y-125254675D01*
X153497807Y-124588008D02*
X153497807Y-125254675D01*
X153069236Y-124588008D02*
X153069236Y-125111817D01*
X153069236Y-125111817D02*
X153116855Y-125207056D01*
X153116855Y-125207056D02*
X153212093Y-125254675D01*
X153212093Y-125254675D02*
X153354950Y-125254675D01*
X153354950Y-125254675D02*
X153450188Y-125207056D01*
X153450188Y-125207056D02*
X153497807Y-125159436D01*
X153973998Y-124588008D02*
X153973998Y-125254675D01*
X153973998Y-124683246D02*
X154021617Y-124635627D01*
X154021617Y-124635627D02*
X154116855Y-124588008D01*
X154116855Y-124588008D02*
X154259712Y-124588008D01*
X154259712Y-124588008D02*
X154354950Y-124635627D01*
X154354950Y-124635627D02*
X154402569Y-124730865D01*
X154402569Y-124730865D02*
X154402569Y-125254675D01*
X155259712Y-125207056D02*
X155164474Y-125254675D01*
X155164474Y-125254675D02*
X154973998Y-125254675D01*
X154973998Y-125254675D02*
X154878760Y-125207056D01*
X154878760Y-125207056D02*
X154831141Y-125111817D01*
X154831141Y-125111817D02*
X154831141Y-124730865D01*
X154831141Y-124730865D02*
X154878760Y-124635627D01*
X154878760Y-124635627D02*
X154973998Y-124588008D01*
X154973998Y-124588008D02*
X155164474Y-124588008D01*
X155164474Y-124588008D02*
X155259712Y-124635627D01*
X155259712Y-124635627D02*
X155307331Y-124730865D01*
X155307331Y-124730865D02*
X155307331Y-124826103D01*
X155307331Y-124826103D02*
X154831141Y-124921341D01*
X156450189Y-124349913D02*
X156497808Y-124302294D01*
X156497808Y-124302294D02*
X156593046Y-124254675D01*
X156593046Y-124254675D02*
X156831141Y-124254675D01*
X156831141Y-124254675D02*
X156926379Y-124302294D01*
X156926379Y-124302294D02*
X156973998Y-124349913D01*
X156973998Y-124349913D02*
X157021617Y-124445151D01*
X157021617Y-124445151D02*
X157021617Y-124540389D01*
X157021617Y-124540389D02*
X156973998Y-124683246D01*
X156973998Y-124683246D02*
X156402570Y-125254675D01*
X156402570Y-125254675D02*
X157021617Y-125254675D01*
X157640665Y-124254675D02*
X157735903Y-124254675D01*
X157735903Y-124254675D02*
X157831141Y-124302294D01*
X157831141Y-124302294D02*
X157878760Y-124349913D01*
X157878760Y-124349913D02*
X157926379Y-124445151D01*
X157926379Y-124445151D02*
X157973998Y-124635627D01*
X157973998Y-124635627D02*
X157973998Y-124873722D01*
X157973998Y-124873722D02*
X157926379Y-125064198D01*
X157926379Y-125064198D02*
X157878760Y-125159436D01*
X157878760Y-125159436D02*
X157831141Y-125207056D01*
X157831141Y-125207056D02*
X157735903Y-125254675D01*
X157735903Y-125254675D02*
X157640665Y-125254675D01*
X157640665Y-125254675D02*
X157545427Y-125207056D01*
X157545427Y-125207056D02*
X157497808Y-125159436D01*
X157497808Y-125159436D02*
X157450189Y-125064198D01*
X157450189Y-125064198D02*
X157402570Y-124873722D01*
X157402570Y-124873722D02*
X157402570Y-124635627D01*
X157402570Y-124635627D02*
X157450189Y-124445151D01*
X157450189Y-124445151D02*
X157497808Y-124349913D01*
X157497808Y-124349913D02*
X157545427Y-124302294D01*
X157545427Y-124302294D02*
X157640665Y-124254675D01*
X158354951Y-124349913D02*
X158402570Y-124302294D01*
X158402570Y-124302294D02*
X158497808Y-124254675D01*
X158497808Y-124254675D02*
X158735903Y-124254675D01*
X158735903Y-124254675D02*
X158831141Y-124302294D01*
X158831141Y-124302294D02*
X158878760Y-124349913D01*
X158878760Y-124349913D02*
X158926379Y-124445151D01*
X158926379Y-124445151D02*
X158926379Y-124540389D01*
X158926379Y-124540389D02*
X158878760Y-124683246D01*
X158878760Y-124683246D02*
X158307332Y-125254675D01*
X158307332Y-125254675D02*
X158926379Y-125254675D01*
X159831141Y-124254675D02*
X159354951Y-124254675D01*
X159354951Y-124254675D02*
X159307332Y-124730865D01*
X159307332Y-124730865D02*
X159354951Y-124683246D01*
X159354951Y-124683246D02*
X159450189Y-124635627D01*
X159450189Y-124635627D02*
X159688284Y-124635627D01*
X159688284Y-124635627D02*
X159783522Y-124683246D01*
X159783522Y-124683246D02*
X159831141Y-124730865D01*
X159831141Y-124730865D02*
X159878760Y-124826103D01*
X159878760Y-124826103D02*
X159878760Y-125064198D01*
X159878760Y-125064198D02*
X159831141Y-125159436D01*
X159831141Y-125159436D02*
X159783522Y-125207056D01*
X159783522Y-125207056D02*
X159688284Y-125254675D01*
X159688284Y-125254675D02*
X159450189Y-125254675D01*
X159450189Y-125254675D02*
X159354951Y-125207056D01*
X159354951Y-125207056D02*
X159307332Y-125159436D01*
D10*
X123945489Y-103770600D02*
X122802632Y-103770600D01*
D11*
X140392857Y-59116453D02*
X140464285Y-59045025D01*
X140464285Y-59045025D02*
X140607143Y-58973596D01*
X140607143Y-58973596D02*
X140964285Y-58973596D01*
X140964285Y-58973596D02*
X141107143Y-59045025D01*
X141107143Y-59045025D02*
X141178571Y-59116453D01*
X141178571Y-59116453D02*
X141250000Y-59259310D01*
X141250000Y-59259310D02*
X141250000Y-59402168D01*
X141250000Y-59402168D02*
X141178571Y-59616453D01*
X141178571Y-59616453D02*
X140321428Y-60473596D01*
X140321428Y-60473596D02*
X141250000Y-60473596D01*
X142535714Y-59473596D02*
X142535714Y-60473596D01*
X142178571Y-58902168D02*
X141821428Y-59973596D01*
X141821428Y-59973596D02*
X142749999Y-59973596D01*
X143107142Y-58973596D02*
X143607142Y-60473596D01*
X143607142Y-60473596D02*
X144107142Y-58973596D01*
X144607141Y-60473596D02*
X144607141Y-58973596D01*
X144607141Y-58973596D02*
X144964284Y-58973596D01*
X144964284Y-58973596D02*
X145178570Y-59045025D01*
X145178570Y-59045025D02*
X145321427Y-59187882D01*
X145321427Y-59187882D02*
X145392856Y-59330739D01*
X145392856Y-59330739D02*
X145464284Y-59616453D01*
X145464284Y-59616453D02*
X145464284Y-59830739D01*
X145464284Y-59830739D02*
X145392856Y-60116453D01*
X145392856Y-60116453D02*
X145321427Y-60259310D01*
X145321427Y-60259310D02*
X145178570Y-60402168D01*
X145178570Y-60402168D02*
X144964284Y-60473596D01*
X144964284Y-60473596D02*
X144607141Y-60473596D01*
X146964284Y-60330739D02*
X146892856Y-60402168D01*
X146892856Y-60402168D02*
X146678570Y-60473596D01*
X146678570Y-60473596D02*
X146535713Y-60473596D01*
X146535713Y-60473596D02*
X146321427Y-60402168D01*
X146321427Y-60402168D02*
X146178570Y-60259310D01*
X146178570Y-60259310D02*
X146107141Y-60116453D01*
X146107141Y-60116453D02*
X146035713Y-59830739D01*
X146035713Y-59830739D02*
X146035713Y-59616453D01*
X146035713Y-59616453D02*
X146107141Y-59330739D01*
X146107141Y-59330739D02*
X146178570Y-59187882D01*
X146178570Y-59187882D02*
X146321427Y-59045025D01*
X146321427Y-59045025D02*
X146535713Y-58973596D01*
X146535713Y-58973596D02*
X146678570Y-58973596D01*
X146678570Y-58973596D02*
X146892856Y-59045025D01*
X146892856Y-59045025D02*
X146964284Y-59116453D01*
X148535713Y-58973596D02*
X149392856Y-58973596D01*
X148964284Y-60473596D02*
X148964284Y-58973596D01*
X150535713Y-60473596D02*
X150535713Y-59687882D01*
X150535713Y-59687882D02*
X150464284Y-59545025D01*
X150464284Y-59545025D02*
X150321427Y-59473596D01*
X150321427Y-59473596D02*
X150035713Y-59473596D01*
X150035713Y-59473596D02*
X149892855Y-59545025D01*
X150535713Y-60402168D02*
X150392855Y-60473596D01*
X150392855Y-60473596D02*
X150035713Y-60473596D01*
X150035713Y-60473596D02*
X149892855Y-60402168D01*
X149892855Y-60402168D02*
X149821427Y-60259310D01*
X149821427Y-60259310D02*
X149821427Y-60116453D01*
X149821427Y-60116453D02*
X149892855Y-59973596D01*
X149892855Y-59973596D02*
X150035713Y-59902168D01*
X150035713Y-59902168D02*
X150392855Y-59902168D01*
X150392855Y-59902168D02*
X150535713Y-59830739D01*
X151249998Y-59473596D02*
X151249998Y-60473596D01*
X151249998Y-59616453D02*
X151321427Y-59545025D01*
X151321427Y-59545025D02*
X151464284Y-59473596D01*
X151464284Y-59473596D02*
X151678570Y-59473596D01*
X151678570Y-59473596D02*
X151821427Y-59545025D01*
X151821427Y-59545025D02*
X151892856Y-59687882D01*
X151892856Y-59687882D02*
X151892856Y-60473596D01*
X152607141Y-60473596D02*
X152607141Y-58973596D01*
X152749999Y-59902168D02*
X153178570Y-60473596D01*
X153178570Y-59473596D02*
X152607141Y-60045025D01*
X154964284Y-60473596D02*
X154964284Y-58973596D01*
X155607142Y-60473596D02*
X155607142Y-59687882D01*
X155607142Y-59687882D02*
X155535713Y-59545025D01*
X155535713Y-59545025D02*
X155392856Y-59473596D01*
X155392856Y-59473596D02*
X155178570Y-59473596D01*
X155178570Y-59473596D02*
X155035713Y-59545025D01*
X155035713Y-59545025D02*
X154964284Y-59616453D01*
X156892856Y-60402168D02*
X156749999Y-60473596D01*
X156749999Y-60473596D02*
X156464285Y-60473596D01*
X156464285Y-60473596D02*
X156321427Y-60402168D01*
X156321427Y-60402168D02*
X156249999Y-60259310D01*
X156249999Y-60259310D02*
X156249999Y-59687882D01*
X156249999Y-59687882D02*
X156321427Y-59545025D01*
X156321427Y-59545025D02*
X156464285Y-59473596D01*
X156464285Y-59473596D02*
X156749999Y-59473596D01*
X156749999Y-59473596D02*
X156892856Y-59545025D01*
X156892856Y-59545025D02*
X156964285Y-59687882D01*
X156964285Y-59687882D02*
X156964285Y-59830739D01*
X156964285Y-59830739D02*
X156249999Y-59973596D01*
X158249999Y-60473596D02*
X158249999Y-59687882D01*
X158249999Y-59687882D02*
X158178570Y-59545025D01*
X158178570Y-59545025D02*
X158035713Y-59473596D01*
X158035713Y-59473596D02*
X157749999Y-59473596D01*
X157749999Y-59473596D02*
X157607141Y-59545025D01*
X158249999Y-60402168D02*
X158107141Y-60473596D01*
X158107141Y-60473596D02*
X157749999Y-60473596D01*
X157749999Y-60473596D02*
X157607141Y-60402168D01*
X157607141Y-60402168D02*
X157535713Y-60259310D01*
X157535713Y-60259310D02*
X157535713Y-60116453D01*
X157535713Y-60116453D02*
X157607141Y-59973596D01*
X157607141Y-59973596D02*
X157749999Y-59902168D01*
X157749999Y-59902168D02*
X158107141Y-59902168D01*
X158107141Y-59902168D02*
X158249999Y-59830739D01*
X158749999Y-59473596D02*
X159321427Y-59473596D01*
X158964284Y-58973596D02*
X158964284Y-60259310D01*
X158964284Y-60259310D02*
X159035713Y-60402168D01*
X159035713Y-60402168D02*
X159178570Y-60473596D01*
X159178570Y-60473596D02*
X159321427Y-60473596D01*
X159821427Y-60473596D02*
X159821427Y-59473596D01*
X159821427Y-58973596D02*
X159749999Y-59045025D01*
X159749999Y-59045025D02*
X159821427Y-59116453D01*
X159821427Y-59116453D02*
X159892856Y-59045025D01*
X159892856Y-59045025D02*
X159821427Y-58973596D01*
X159821427Y-58973596D02*
X159821427Y-59116453D01*
X160535713Y-59473596D02*
X160535713Y-60473596D01*
X160535713Y-59616453D02*
X160607142Y-59545025D01*
X160607142Y-59545025D02*
X160749999Y-59473596D01*
X160749999Y-59473596D02*
X160964285Y-59473596D01*
X160964285Y-59473596D02*
X161107142Y-59545025D01*
X161107142Y-59545025D02*
X161178571Y-59687882D01*
X161178571Y-59687882D02*
X161178571Y-60473596D01*
X162535714Y-59473596D02*
X162535714Y-60687882D01*
X162535714Y-60687882D02*
X162464285Y-60830739D01*
X162464285Y-60830739D02*
X162392856Y-60902168D01*
X162392856Y-60902168D02*
X162249999Y-60973596D01*
X162249999Y-60973596D02*
X162035714Y-60973596D01*
X162035714Y-60973596D02*
X161892856Y-60902168D01*
X162535714Y-60402168D02*
X162392856Y-60473596D01*
X162392856Y-60473596D02*
X162107142Y-60473596D01*
X162107142Y-60473596D02*
X161964285Y-60402168D01*
X161964285Y-60402168D02*
X161892856Y-60330739D01*
X161892856Y-60330739D02*
X161821428Y-60187882D01*
X161821428Y-60187882D02*
X161821428Y-59759310D01*
X161821428Y-59759310D02*
X161892856Y-59616453D01*
X161892856Y-59616453D02*
X161964285Y-59545025D01*
X161964285Y-59545025D02*
X162107142Y-59473596D01*
X162107142Y-59473596D02*
X162392856Y-59473596D01*
X162392856Y-59473596D02*
X162535714Y-59545025D01*
X143000000Y-62888512D02*
X143000000Y-61888512D01*
X143000000Y-62174226D02*
X143071429Y-62031369D01*
X143071429Y-62031369D02*
X143142858Y-61959941D01*
X143142858Y-61959941D02*
X143285715Y-61888512D01*
X143285715Y-61888512D02*
X143428572Y-61888512D01*
X144500000Y-62817084D02*
X144357143Y-62888512D01*
X144357143Y-62888512D02*
X144071429Y-62888512D01*
X144071429Y-62888512D02*
X143928571Y-62817084D01*
X143928571Y-62817084D02*
X143857143Y-62674226D01*
X143857143Y-62674226D02*
X143857143Y-62102798D01*
X143857143Y-62102798D02*
X143928571Y-61959941D01*
X143928571Y-61959941D02*
X144071429Y-61888512D01*
X144071429Y-61888512D02*
X144357143Y-61888512D01*
X144357143Y-61888512D02*
X144500000Y-61959941D01*
X144500000Y-61959941D02*
X144571429Y-62102798D01*
X144571429Y-62102798D02*
X144571429Y-62245655D01*
X144571429Y-62245655D02*
X143857143Y-62388512D01*
X145071428Y-61888512D02*
X145428571Y-62888512D01*
X145428571Y-62888512D02*
X145785714Y-61888512D01*
X146928571Y-62817084D02*
X146785714Y-62888512D01*
X146785714Y-62888512D02*
X146500000Y-62888512D01*
X146500000Y-62888512D02*
X146357142Y-62817084D01*
X146357142Y-62817084D02*
X146285714Y-62674226D01*
X146285714Y-62674226D02*
X146285714Y-62102798D01*
X146285714Y-62102798D02*
X146357142Y-61959941D01*
X146357142Y-61959941D02*
X146500000Y-61888512D01*
X146500000Y-61888512D02*
X146785714Y-61888512D01*
X146785714Y-61888512D02*
X146928571Y-61959941D01*
X146928571Y-61959941D02*
X147000000Y-62102798D01*
X147000000Y-62102798D02*
X147000000Y-62245655D01*
X147000000Y-62245655D02*
X146285714Y-62388512D01*
X147642856Y-62888512D02*
X147642856Y-61888512D01*
X147642856Y-62174226D02*
X147714285Y-62031369D01*
X147714285Y-62031369D02*
X147785714Y-61959941D01*
X147785714Y-61959941D02*
X147928571Y-61888512D01*
X147928571Y-61888512D02*
X148071428Y-61888512D01*
X148499999Y-62817084D02*
X148642856Y-62888512D01*
X148642856Y-62888512D02*
X148928570Y-62888512D01*
X148928570Y-62888512D02*
X149071427Y-62817084D01*
X149071427Y-62817084D02*
X149142856Y-62674226D01*
X149142856Y-62674226D02*
X149142856Y-62602798D01*
X149142856Y-62602798D02*
X149071427Y-62459941D01*
X149071427Y-62459941D02*
X148928570Y-62388512D01*
X148928570Y-62388512D02*
X148714285Y-62388512D01*
X148714285Y-62388512D02*
X148571427Y-62317084D01*
X148571427Y-62317084D02*
X148499999Y-62174226D01*
X148499999Y-62174226D02*
X148499999Y-62102798D01*
X148499999Y-62102798D02*
X148571427Y-61959941D01*
X148571427Y-61959941D02*
X148714285Y-61888512D01*
X148714285Y-61888512D02*
X148928570Y-61888512D01*
X148928570Y-61888512D02*
X149071427Y-61959941D01*
X150357142Y-62817084D02*
X150214285Y-62888512D01*
X150214285Y-62888512D02*
X149928571Y-62888512D01*
X149928571Y-62888512D02*
X149785713Y-62817084D01*
X149785713Y-62817084D02*
X149714285Y-62674226D01*
X149714285Y-62674226D02*
X149714285Y-62102798D01*
X149714285Y-62102798D02*
X149785713Y-61959941D01*
X149785713Y-61959941D02*
X149928571Y-61888512D01*
X149928571Y-61888512D02*
X150214285Y-61888512D01*
X150214285Y-61888512D02*
X150357142Y-61959941D01*
X150357142Y-61959941D02*
X150428571Y-62102798D01*
X150428571Y-62102798D02*
X150428571Y-62245655D01*
X150428571Y-62245655D02*
X149714285Y-62388512D01*
X152214284Y-61888512D02*
X152214284Y-63388512D01*
X152214284Y-61959941D02*
X152357142Y-61888512D01*
X152357142Y-61888512D02*
X152642856Y-61888512D01*
X152642856Y-61888512D02*
X152785713Y-61959941D01*
X152785713Y-61959941D02*
X152857142Y-62031369D01*
X152857142Y-62031369D02*
X152928570Y-62174226D01*
X152928570Y-62174226D02*
X152928570Y-62602798D01*
X152928570Y-62602798D02*
X152857142Y-62745655D01*
X152857142Y-62745655D02*
X152785713Y-62817084D01*
X152785713Y-62817084D02*
X152642856Y-62888512D01*
X152642856Y-62888512D02*
X152357142Y-62888512D01*
X152357142Y-62888512D02*
X152214284Y-62817084D01*
X153785713Y-62888512D02*
X153642856Y-62817084D01*
X153642856Y-62817084D02*
X153571427Y-62745655D01*
X153571427Y-62745655D02*
X153499999Y-62602798D01*
X153499999Y-62602798D02*
X153499999Y-62174226D01*
X153499999Y-62174226D02*
X153571427Y-62031369D01*
X153571427Y-62031369D02*
X153642856Y-61959941D01*
X153642856Y-61959941D02*
X153785713Y-61888512D01*
X153785713Y-61888512D02*
X153999999Y-61888512D01*
X153999999Y-61888512D02*
X154142856Y-61959941D01*
X154142856Y-61959941D02*
X154214285Y-62031369D01*
X154214285Y-62031369D02*
X154285713Y-62174226D01*
X154285713Y-62174226D02*
X154285713Y-62602798D01*
X154285713Y-62602798D02*
X154214285Y-62745655D01*
X154214285Y-62745655D02*
X154142856Y-62817084D01*
X154142856Y-62817084D02*
X153999999Y-62888512D01*
X153999999Y-62888512D02*
X153785713Y-62888512D01*
X155142856Y-62888512D02*
X154999999Y-62817084D01*
X154999999Y-62817084D02*
X154928570Y-62674226D01*
X154928570Y-62674226D02*
X154928570Y-61388512D01*
X156357142Y-62888512D02*
X156357142Y-62102798D01*
X156357142Y-62102798D02*
X156285713Y-61959941D01*
X156285713Y-61959941D02*
X156142856Y-61888512D01*
X156142856Y-61888512D02*
X155857142Y-61888512D01*
X155857142Y-61888512D02*
X155714284Y-61959941D01*
X156357142Y-62817084D02*
X156214284Y-62888512D01*
X156214284Y-62888512D02*
X155857142Y-62888512D01*
X155857142Y-62888512D02*
X155714284Y-62817084D01*
X155714284Y-62817084D02*
X155642856Y-62674226D01*
X155642856Y-62674226D02*
X155642856Y-62531369D01*
X155642856Y-62531369D02*
X155714284Y-62388512D01*
X155714284Y-62388512D02*
X155857142Y-62317084D01*
X155857142Y-62317084D02*
X156214284Y-62317084D01*
X156214284Y-62317084D02*
X156357142Y-62245655D01*
X157071427Y-62888512D02*
X157071427Y-61888512D01*
X157071427Y-62174226D02*
X157142856Y-62031369D01*
X157142856Y-62031369D02*
X157214285Y-61959941D01*
X157214285Y-61959941D02*
X157357142Y-61888512D01*
X157357142Y-61888512D02*
X157499999Y-61888512D01*
X157999998Y-62888512D02*
X157999998Y-61888512D01*
X157999998Y-61388512D02*
X157928570Y-61459941D01*
X157928570Y-61459941D02*
X157999998Y-61531369D01*
X157999998Y-61531369D02*
X158071427Y-61459941D01*
X158071427Y-61459941D02*
X157999998Y-61388512D01*
X157999998Y-61388512D02*
X157999998Y-61531369D01*
X158499999Y-61888512D02*
X159071427Y-61888512D01*
X158714284Y-61388512D02*
X158714284Y-62674226D01*
X158714284Y-62674226D02*
X158785713Y-62817084D01*
X158785713Y-62817084D02*
X158928570Y-62888512D01*
X158928570Y-62888512D02*
X159071427Y-62888512D01*
X159428570Y-61888512D02*
X159785713Y-62888512D01*
X160142856Y-61888512D02*
X159785713Y-62888512D01*
X159785713Y-62888512D02*
X159642856Y-63245655D01*
X159642856Y-63245655D02*
X159571427Y-63317084D01*
X159571427Y-63317084D02*
X159428570Y-63388512D01*
X145821428Y-64303428D02*
X145821428Y-65803428D01*
X145821428Y-64374857D02*
X145964286Y-64303428D01*
X145964286Y-64303428D02*
X146250000Y-64303428D01*
X146250000Y-64303428D02*
X146392857Y-64374857D01*
X146392857Y-64374857D02*
X146464286Y-64446285D01*
X146464286Y-64446285D02*
X146535714Y-64589142D01*
X146535714Y-64589142D02*
X146535714Y-65017714D01*
X146535714Y-65017714D02*
X146464286Y-65160571D01*
X146464286Y-65160571D02*
X146392857Y-65232000D01*
X146392857Y-65232000D02*
X146250000Y-65303428D01*
X146250000Y-65303428D02*
X145964286Y-65303428D01*
X145964286Y-65303428D02*
X145821428Y-65232000D01*
X147178571Y-65303428D02*
X147178571Y-64303428D01*
X147178571Y-64589142D02*
X147250000Y-64446285D01*
X147250000Y-64446285D02*
X147321429Y-64374857D01*
X147321429Y-64374857D02*
X147464286Y-64303428D01*
X147464286Y-64303428D02*
X147607143Y-64303428D01*
X148321428Y-65303428D02*
X148178571Y-65232000D01*
X148178571Y-65232000D02*
X148107142Y-65160571D01*
X148107142Y-65160571D02*
X148035714Y-65017714D01*
X148035714Y-65017714D02*
X148035714Y-64589142D01*
X148035714Y-64589142D02*
X148107142Y-64446285D01*
X148107142Y-64446285D02*
X148178571Y-64374857D01*
X148178571Y-64374857D02*
X148321428Y-64303428D01*
X148321428Y-64303428D02*
X148535714Y-64303428D01*
X148535714Y-64303428D02*
X148678571Y-64374857D01*
X148678571Y-64374857D02*
X148750000Y-64446285D01*
X148750000Y-64446285D02*
X148821428Y-64589142D01*
X148821428Y-64589142D02*
X148821428Y-65017714D01*
X148821428Y-65017714D02*
X148750000Y-65160571D01*
X148750000Y-65160571D02*
X148678571Y-65232000D01*
X148678571Y-65232000D02*
X148535714Y-65303428D01*
X148535714Y-65303428D02*
X148321428Y-65303428D01*
X149250000Y-64303428D02*
X149821428Y-64303428D01*
X149464285Y-63803428D02*
X149464285Y-65089142D01*
X149464285Y-65089142D02*
X149535714Y-65232000D01*
X149535714Y-65232000D02*
X149678571Y-65303428D01*
X149678571Y-65303428D02*
X149821428Y-65303428D01*
X150892857Y-65232000D02*
X150750000Y-65303428D01*
X150750000Y-65303428D02*
X150464286Y-65303428D01*
X150464286Y-65303428D02*
X150321428Y-65232000D01*
X150321428Y-65232000D02*
X150250000Y-65089142D01*
X150250000Y-65089142D02*
X150250000Y-64517714D01*
X150250000Y-64517714D02*
X150321428Y-64374857D01*
X150321428Y-64374857D02*
X150464286Y-64303428D01*
X150464286Y-64303428D02*
X150750000Y-64303428D01*
X150750000Y-64303428D02*
X150892857Y-64374857D01*
X150892857Y-64374857D02*
X150964286Y-64517714D01*
X150964286Y-64517714D02*
X150964286Y-64660571D01*
X150964286Y-64660571D02*
X150250000Y-64803428D01*
X152250000Y-65232000D02*
X152107142Y-65303428D01*
X152107142Y-65303428D02*
X151821428Y-65303428D01*
X151821428Y-65303428D02*
X151678571Y-65232000D01*
X151678571Y-65232000D02*
X151607142Y-65160571D01*
X151607142Y-65160571D02*
X151535714Y-65017714D01*
X151535714Y-65017714D02*
X151535714Y-64589142D01*
X151535714Y-64589142D02*
X151607142Y-64446285D01*
X151607142Y-64446285D02*
X151678571Y-64374857D01*
X151678571Y-64374857D02*
X151821428Y-64303428D01*
X151821428Y-64303428D02*
X152107142Y-64303428D01*
X152107142Y-64303428D02*
X152250000Y-64374857D01*
X152678571Y-64303428D02*
X153249999Y-64303428D01*
X152892856Y-63803428D02*
X152892856Y-65089142D01*
X152892856Y-65089142D02*
X152964285Y-65232000D01*
X152964285Y-65232000D02*
X153107142Y-65303428D01*
X153107142Y-65303428D02*
X153249999Y-65303428D01*
X153749999Y-65303428D02*
X153749999Y-64303428D01*
X153749999Y-63803428D02*
X153678571Y-63874857D01*
X153678571Y-63874857D02*
X153749999Y-63946285D01*
X153749999Y-63946285D02*
X153821428Y-63874857D01*
X153821428Y-63874857D02*
X153749999Y-63803428D01*
X153749999Y-63803428D02*
X153749999Y-63946285D01*
X154678571Y-65303428D02*
X154535714Y-65232000D01*
X154535714Y-65232000D02*
X154464285Y-65160571D01*
X154464285Y-65160571D02*
X154392857Y-65017714D01*
X154392857Y-65017714D02*
X154392857Y-64589142D01*
X154392857Y-64589142D02*
X154464285Y-64446285D01*
X154464285Y-64446285D02*
X154535714Y-64374857D01*
X154535714Y-64374857D02*
X154678571Y-64303428D01*
X154678571Y-64303428D02*
X154892857Y-64303428D01*
X154892857Y-64303428D02*
X155035714Y-64374857D01*
X155035714Y-64374857D02*
X155107143Y-64446285D01*
X155107143Y-64446285D02*
X155178571Y-64589142D01*
X155178571Y-64589142D02*
X155178571Y-65017714D01*
X155178571Y-65017714D02*
X155107143Y-65160571D01*
X155107143Y-65160571D02*
X155035714Y-65232000D01*
X155035714Y-65232000D02*
X154892857Y-65303428D01*
X154892857Y-65303428D02*
X154678571Y-65303428D01*
X155821428Y-64303428D02*
X155821428Y-65303428D01*
X155821428Y-64446285D02*
X155892857Y-64374857D01*
X155892857Y-64374857D02*
X156035714Y-64303428D01*
X156035714Y-64303428D02*
X156250000Y-64303428D01*
X156250000Y-64303428D02*
X156392857Y-64374857D01*
X156392857Y-64374857D02*
X156464286Y-64517714D01*
X156464286Y-64517714D02*
X156464286Y-65303428D01*
X157178571Y-65160571D02*
X157250000Y-65232000D01*
X157250000Y-65232000D02*
X157178571Y-65303428D01*
X157178571Y-65303428D02*
X157107143Y-65232000D01*
X157107143Y-65232000D02*
X157178571Y-65160571D01*
X157178571Y-65160571D02*
X157178571Y-65303428D01*
D12*
X161761905Y-105454819D02*
X161761905Y-104454819D01*
X162333333Y-105454819D02*
X161904762Y-104883390D01*
X162333333Y-104454819D02*
X161761905Y-105026247D01*
X163285714Y-105454819D02*
X162714286Y-105454819D01*
X163000000Y-105454819D02*
X163000000Y-104454819D01*
X163000000Y-104454819D02*
X162904762Y-104597676D01*
X162904762Y-104597676D02*
X162809524Y-104692914D01*
X162809524Y-104692914D02*
X162714286Y-104740533D01*
X131666405Y-93954819D02*
X131666405Y-92954819D01*
X131666405Y-92954819D02*
X131904500Y-92954819D01*
X131904500Y-92954819D02*
X132047357Y-93002438D01*
X132047357Y-93002438D02*
X132142595Y-93097676D01*
X132142595Y-93097676D02*
X132190214Y-93192914D01*
X132190214Y-93192914D02*
X132237833Y-93383390D01*
X132237833Y-93383390D02*
X132237833Y-93526247D01*
X132237833Y-93526247D02*
X132190214Y-93716723D01*
X132190214Y-93716723D02*
X132142595Y-93811961D01*
X132142595Y-93811961D02*
X132047357Y-93907200D01*
X132047357Y-93907200D02*
X131904500Y-93954819D01*
X131904500Y-93954819D02*
X131666405Y-93954819D01*
X133190214Y-93954819D02*
X132618786Y-93954819D01*
X132904500Y-93954819D02*
X132904500Y-92954819D01*
X132904500Y-92954819D02*
X132809262Y-93097676D01*
X132809262Y-93097676D02*
X132714024Y-93192914D01*
X132714024Y-93192914D02*
X132618786Y-93240533D01*
X131761905Y-86954819D02*
X131761905Y-85954819D01*
X131761905Y-85954819D02*
X132000000Y-85954819D01*
X132000000Y-85954819D02*
X132142857Y-86002438D01*
X132142857Y-86002438D02*
X132238095Y-86097676D01*
X132238095Y-86097676D02*
X132285714Y-86192914D01*
X132285714Y-86192914D02*
X132333333Y-86383390D01*
X132333333Y-86383390D02*
X132333333Y-86526247D01*
X132333333Y-86526247D02*
X132285714Y-86716723D01*
X132285714Y-86716723D02*
X132238095Y-86811961D01*
X132238095Y-86811961D02*
X132142857Y-86907200D01*
X132142857Y-86907200D02*
X132000000Y-86954819D01*
X132000000Y-86954819D02*
X131761905Y-86954819D01*
X132714286Y-86050057D02*
X132761905Y-86002438D01*
X132761905Y-86002438D02*
X132857143Y-85954819D01*
X132857143Y-85954819D02*
X133095238Y-85954819D01*
X133095238Y-85954819D02*
X133190476Y-86002438D01*
X133190476Y-86002438D02*
X133238095Y-86050057D01*
X133238095Y-86050057D02*
X133285714Y-86145295D01*
X133285714Y-86145295D02*
X133285714Y-86240533D01*
X133285714Y-86240533D02*
X133238095Y-86383390D01*
X133238095Y-86383390D02*
X132666667Y-86954819D01*
X132666667Y-86954819D02*
X133285714Y-86954819D01*
X120471666Y-78454819D02*
X120471666Y-79169104D01*
X120471666Y-79169104D02*
X120424047Y-79311961D01*
X120424047Y-79311961D02*
X120328809Y-79407200D01*
X120328809Y-79407200D02*
X120185952Y-79454819D01*
X120185952Y-79454819D02*
X120090714Y-79454819D01*
X121471666Y-79454819D02*
X120900238Y-79454819D01*
X121185952Y-79454819D02*
X121185952Y-78454819D01*
X121185952Y-78454819D02*
X121090714Y-78597676D01*
X121090714Y-78597676D02*
X120995476Y-78692914D01*
X120995476Y-78692914D02*
X120900238Y-78740533D01*
X120666666Y-93909819D02*
X120666666Y-94624104D01*
X120666666Y-94624104D02*
X120619047Y-94766961D01*
X120619047Y-94766961D02*
X120523809Y-94862200D01*
X120523809Y-94862200D02*
X120380952Y-94909819D01*
X120380952Y-94909819D02*
X120285714Y-94909819D01*
X121095238Y-94005057D02*
X121142857Y-93957438D01*
X121142857Y-93957438D02*
X121238095Y-93909819D01*
X121238095Y-93909819D02*
X121476190Y-93909819D01*
X121476190Y-93909819D02*
X121571428Y-93957438D01*
X121571428Y-93957438D02*
X121619047Y-94005057D01*
X121619047Y-94005057D02*
X121666666Y-94100295D01*
X121666666Y-94100295D02*
X121666666Y-94195533D01*
X121666666Y-94195533D02*
X121619047Y-94338390D01*
X121619047Y-94338390D02*
X121047619Y-94909819D01*
X121047619Y-94909819D02*
X121666666Y-94909819D01*
D13*
X113071429Y-93877662D02*
X113300001Y-93877662D01*
X113300001Y-93877662D02*
X113414286Y-93934805D01*
X113414286Y-93934805D02*
X113528572Y-94049091D01*
X113528572Y-94049091D02*
X113585715Y-94277662D01*
X113585715Y-94277662D02*
X113585715Y-94677662D01*
X113585715Y-94677662D02*
X113528572Y-94906234D01*
X113528572Y-94906234D02*
X113414286Y-95020520D01*
X113414286Y-95020520D02*
X113300001Y-95077662D01*
X113300001Y-95077662D02*
X113071429Y-95077662D01*
X113071429Y-95077662D02*
X112957144Y-95020520D01*
X112957144Y-95020520D02*
X112842858Y-94906234D01*
X112842858Y-94906234D02*
X112785715Y-94677662D01*
X112785715Y-94677662D02*
X112785715Y-94277662D01*
X112785715Y-94277662D02*
X112842858Y-94049091D01*
X112842858Y-94049091D02*
X112957144Y-93934805D01*
X112957144Y-93934805D02*
X113071429Y-93877662D01*
X114614287Y-94277662D02*
X114614287Y-95077662D01*
X114100001Y-94277662D02*
X114100001Y-94906234D01*
X114100001Y-94906234D02*
X114157144Y-95020520D01*
X114157144Y-95020520D02*
X114271429Y-95077662D01*
X114271429Y-95077662D02*
X114442858Y-95077662D01*
X114442858Y-95077662D02*
X114557144Y-95020520D01*
X114557144Y-95020520D02*
X114614287Y-94963377D01*
X115014286Y-94277662D02*
X115471429Y-94277662D01*
X115185715Y-93877662D02*
X115185715Y-94906234D01*
X115185715Y-94906234D02*
X115242858Y-95020520D01*
X115242858Y-95020520D02*
X115357143Y-95077662D01*
X115357143Y-95077662D02*
X115471429Y-95077662D01*
X115871429Y-94277662D02*
X115871429Y-95477662D01*
X115871429Y-94334805D02*
X115985715Y-94277662D01*
X115985715Y-94277662D02*
X116214286Y-94277662D01*
X116214286Y-94277662D02*
X116328572Y-94334805D01*
X116328572Y-94334805D02*
X116385715Y-94391948D01*
X116385715Y-94391948D02*
X116442857Y-94506234D01*
X116442857Y-94506234D02*
X116442857Y-94849091D01*
X116442857Y-94849091D02*
X116385715Y-94963377D01*
X116385715Y-94963377D02*
X116328572Y-95020520D01*
X116328572Y-95020520D02*
X116214286Y-95077662D01*
X116214286Y-95077662D02*
X115985715Y-95077662D01*
X115985715Y-95077662D02*
X115871429Y-95020520D01*
X117471429Y-94277662D02*
X117471429Y-95077662D01*
X116957143Y-94277662D02*
X116957143Y-94906234D01*
X116957143Y-94906234D02*
X117014286Y-95020520D01*
X117014286Y-95020520D02*
X117128571Y-95077662D01*
X117128571Y-95077662D02*
X117300000Y-95077662D01*
X117300000Y-95077662D02*
X117414286Y-95020520D01*
X117414286Y-95020520D02*
X117471429Y-94963377D01*
X117871428Y-94277662D02*
X118328571Y-94277662D01*
X118042857Y-93877662D02*
X118042857Y-94906234D01*
X118042857Y-94906234D02*
X118100000Y-95020520D01*
X118100000Y-95020520D02*
X118214285Y-95077662D01*
X118214285Y-95077662D02*
X118328571Y-95077662D01*
D14*
%TO.C,H4*%
X150518053Y-111204595D02*
X150542237Y-111243750D01*
X150579234Y-111306313D01*
X150627788Y-111390084D01*
X150686645Y-111492862D01*
X150754549Y-111612448D01*
X150830245Y-111746642D01*
X150912479Y-111893243D01*
X150999995Y-112050052D01*
X151075894Y-112186647D01*
X151166966Y-112350835D01*
X151253719Y-112507165D01*
X151334898Y-112653377D01*
X151409245Y-112787213D01*
X151475505Y-112906414D01*
X151532422Y-113008720D01*
X151578740Y-113091873D01*
X151613202Y-113153614D01*
X151634554Y-113191684D01*
X151641385Y-113203636D01*
X151651021Y-113206838D01*
X151673497Y-113203073D01*
X151711145Y-113191440D01*
X151766298Y-113171040D01*
X151841287Y-113140973D01*
X151938444Y-113100338D01*
X152060100Y-113048235D01*
X152189909Y-112991908D01*
X152311834Y-112939153D01*
X152424536Y-112891107D01*
X152524734Y-112849114D01*
X152609144Y-112814519D01*
X152674484Y-112788666D01*
X152717473Y-112772901D01*
X152734827Y-112768567D01*
X152734939Y-112768647D01*
X152734895Y-112785542D01*
X152731963Y-112831818D01*
X152726339Y-112905252D01*
X152718221Y-113003627D01*
X152707804Y-113124721D01*
X152695286Y-113266315D01*
X152680863Y-113426188D01*
X152664732Y-113602121D01*
X152647089Y-113791894D01*
X152628131Y-113993286D01*
X152608055Y-114204077D01*
X152604694Y-114239132D01*
X152584424Y-114451162D01*
X152565174Y-114654092D01*
X152547145Y-114845710D01*
X152530538Y-115023800D01*
X152515555Y-115186150D01*
X152502398Y-115330546D01*
X152491268Y-115454774D01*
X152482366Y-115556621D01*
X152475894Y-115633874D01*
X152472053Y-115684317D01*
X152471045Y-115705739D01*
X152471165Y-115706331D01*
X152483892Y-115697301D01*
X152518193Y-115668959D01*
X152571959Y-115623142D01*
X152643083Y-115561686D01*
X152729455Y-115486427D01*
X152828967Y-115399200D01*
X152939512Y-115301843D01*
X153058980Y-115196190D01*
X153164639Y-115102418D01*
X153290215Y-114990987D01*
X153408820Y-114886117D01*
X153518322Y-114789671D01*
X153616583Y-114703510D01*
X153701471Y-114629498D01*
X153770849Y-114569497D01*
X153822582Y-114525369D01*
X153854537Y-114498977D01*
X153864508Y-114491875D01*
X153869355Y-114495429D01*
X153876802Y-114507851D01*
X153887882Y-114531781D01*
X153903627Y-114569857D01*
X153925069Y-114624720D01*
X153953242Y-114699007D01*
X153989178Y-114795358D01*
X154033909Y-114916413D01*
X154085561Y-115056892D01*
X154132722Y-115185346D01*
X153997443Y-115341407D01*
X153822904Y-115547868D01*
X153639836Y-115773916D01*
X153450805Y-116015877D01*
X153258379Y-116270079D01*
X153065127Y-116532849D01*
X152873616Y-116800514D01*
X152686415Y-117069401D01*
X152506090Y-117335838D01*
X152335210Y-117596151D01*
X152176344Y-117846667D01*
X152032058Y-118083715D01*
X151904920Y-118303620D01*
X151828125Y-118444214D01*
X151741913Y-118606607D01*
X151689545Y-118530493D01*
X151589715Y-118374541D01*
X151486272Y-118192787D01*
X151381701Y-117990588D01*
X151278492Y-117773299D01*
X151179132Y-117546279D01*
X151086109Y-117314882D01*
X151001909Y-117084465D01*
X150960373Y-116960437D01*
X150885473Y-116716266D01*
X150810503Y-116448029D01*
X150737351Y-116163349D01*
X150667910Y-115869849D01*
X150604067Y-115575152D01*
X150554398Y-115322917D01*
X150509419Y-115082397D01*
X150427692Y-115489604D01*
X150337376Y-115913659D01*
X150242234Y-116308629D01*
X150141410Y-116676932D01*
X150034047Y-117020986D01*
X149919290Y-117343205D01*
X149796283Y-117646009D01*
X149664171Y-117931812D01*
X149522096Y-118203033D01*
X149382800Y-118440226D01*
X149344873Y-118500487D01*
X149312453Y-118550107D01*
X149289470Y-118583186D01*
X149280548Y-118593755D01*
X149268765Y-118583831D01*
X149246830Y-118551211D01*
X149218477Y-118501753D01*
X149201882Y-118470247D01*
X149109612Y-118298322D01*
X148998689Y-118105732D01*
X148871367Y-117895706D01*
X148729900Y-117671475D01*
X148576542Y-117436267D01*
X148413547Y-117193313D01*
X148243168Y-116945842D01*
X148067660Y-116697085D01*
X147889277Y-116450270D01*
X147710272Y-116208629D01*
X147532899Y-115975390D01*
X147359412Y-115753783D01*
X147192065Y-115547038D01*
X147033112Y-115358385D01*
X147018431Y-115341407D01*
X146883152Y-115185346D01*
X146930313Y-115056892D01*
X146984375Y-114909871D01*
X147028656Y-114790065D01*
X147064190Y-114694836D01*
X147092005Y-114621548D01*
X147113134Y-114567561D01*
X147128608Y-114530239D01*
X147139457Y-114506944D01*
X147146713Y-114495038D01*
X147151197Y-114491875D01*
X147165091Y-114502131D01*
X147200544Y-114531660D01*
X147255422Y-114578599D01*
X147327590Y-114641088D01*
X147414913Y-114717265D01*
X147515257Y-114805269D01*
X147626486Y-114903237D01*
X147746465Y-115009310D01*
X147851243Y-115102241D01*
X147976625Y-115213402D01*
X148094847Y-115317819D01*
X148203798Y-115413656D01*
X148301372Y-115499076D01*
X148385459Y-115572245D01*
X148453951Y-115631327D01*
X148504740Y-115674486D01*
X148535717Y-115699886D01*
X148544886Y-115706155D01*
X148544340Y-115689769D01*
X148540929Y-115643996D01*
X148534855Y-115571047D01*
X148526319Y-115473136D01*
X148515524Y-115352477D01*
X148502671Y-115211282D01*
X148487961Y-115051765D01*
X148471597Y-114876140D01*
X148453780Y-114686619D01*
X148434712Y-114485415D01*
X148432248Y-114459605D01*
X149931101Y-114459605D01*
X149936901Y-114461298D01*
X149960228Y-114444119D01*
X149996226Y-114411710D01*
X150000884Y-114407243D01*
X150057043Y-114360494D01*
X150126828Y-114312576D01*
X150190437Y-114276351D01*
X150332127Y-114222549D01*
X150475958Y-114199577D01*
X150618791Y-114206959D01*
X150757488Y-114244218D01*
X150888908Y-114310876D01*
X151002906Y-114399823D01*
X151043533Y-114436018D01*
X151072373Y-114458157D01*
X151084665Y-114462718D01*
X151084412Y-114460125D01*
X151078288Y-114441031D01*
X151063574Y-114394343D01*
X151041120Y-114322780D01*
X151011776Y-114229061D01*
X150976392Y-114115904D01*
X150935819Y-113986030D01*
X150890907Y-113842157D01*
X150842506Y-113687004D01*
X150794005Y-113531437D01*
X150743288Y-113368805D01*
X150695405Y-113215439D01*
X150651184Y-113073979D01*
X150611453Y-112947066D01*
X150577040Y-112837338D01*
X150548772Y-112747436D01*
X150527478Y-112680000D01*
X150513986Y-112637670D01*
X150509134Y-112623092D01*
X150504037Y-112637180D01*
X150490338Y-112678978D01*
X150468864Y-112745878D01*
X150440438Y-112835271D01*
X150405885Y-112944548D01*
X150366031Y-113071101D01*
X150321699Y-113212321D01*
X150273715Y-113365601D01*
X150223017Y-113527967D01*
X150171958Y-113691622D01*
X150123571Y-113846572D01*
X150078707Y-113990105D01*
X150038213Y-114119512D01*
X150002941Y-114232078D01*
X149973740Y-114325094D01*
X149951459Y-114395848D01*
X149936948Y-114441628D01*
X149931101Y-114459605D01*
X148432248Y-114459605D01*
X148414595Y-114274743D01*
X148411180Y-114239132D01*
X148390941Y-114027017D01*
X148371792Y-113823937D01*
X148353929Y-113632113D01*
X148337548Y-113453765D01*
X148322845Y-113291113D01*
X148310018Y-113146378D01*
X148299261Y-113021779D01*
X148290773Y-112919538D01*
X148284749Y-112841875D01*
X148281385Y-112791009D01*
X148280879Y-112769161D01*
X148281080Y-112768502D01*
X148297419Y-112772323D01*
X148339513Y-112787615D01*
X148404070Y-112813034D01*
X148487795Y-112847234D01*
X148587396Y-112888870D01*
X148699580Y-112936596D01*
X148821054Y-112989066D01*
X148823565Y-112990159D01*
X148945067Y-113042975D01*
X149057121Y-113091563D01*
X149156463Y-113134518D01*
X149239828Y-113170433D01*
X149303952Y-113197901D01*
X149345569Y-113215516D01*
X149361416Y-113221872D01*
X149361448Y-113221874D01*
X149369832Y-113208344D01*
X149392361Y-113169202D01*
X149427816Y-113106625D01*
X149474982Y-113022789D01*
X149532640Y-112919869D01*
X149599574Y-112800041D01*
X149674567Y-112665480D01*
X149756402Y-112518363D01*
X149843861Y-112360865D01*
X149929484Y-112206431D01*
X150021276Y-112041131D01*
X150108837Y-111884192D01*
X150190927Y-111737793D01*
X150266304Y-111604112D01*
X150333726Y-111485328D01*
X150391954Y-111383620D01*
X150439745Y-111301167D01*
X150475858Y-111240146D01*
X150499052Y-111202738D01*
X150507937Y-111191048D01*
X150518053Y-111204595D01*
G36*
X150518053Y-111204595D02*
G01*
X150542237Y-111243750D01*
X150579234Y-111306313D01*
X150627788Y-111390084D01*
X150686645Y-111492862D01*
X150754549Y-111612448D01*
X150830245Y-111746642D01*
X150912479Y-111893243D01*
X150999995Y-112050052D01*
X151075894Y-112186647D01*
X151166966Y-112350835D01*
X151253719Y-112507165D01*
X151334898Y-112653377D01*
X151409245Y-112787213D01*
X151475505Y-112906414D01*
X151532422Y-113008720D01*
X151578740Y-113091873D01*
X151613202Y-113153614D01*
X151634554Y-113191684D01*
X151641385Y-113203636D01*
X151651021Y-113206838D01*
X151673497Y-113203073D01*
X151711145Y-113191440D01*
X151766298Y-113171040D01*
X151841287Y-113140973D01*
X151938444Y-113100338D01*
X152060100Y-113048235D01*
X152189909Y-112991908D01*
X152311834Y-112939153D01*
X152424536Y-112891107D01*
X152524734Y-112849114D01*
X152609144Y-112814519D01*
X152674484Y-112788666D01*
X152717473Y-112772901D01*
X152734827Y-112768567D01*
X152734939Y-112768647D01*
X152734895Y-112785542D01*
X152731963Y-112831818D01*
X152726339Y-112905252D01*
X152718221Y-113003627D01*
X152707804Y-113124721D01*
X152695286Y-113266315D01*
X152680863Y-113426188D01*
X152664732Y-113602121D01*
X152647089Y-113791894D01*
X152628131Y-113993286D01*
X152608055Y-114204077D01*
X152604694Y-114239132D01*
X152584424Y-114451162D01*
X152565174Y-114654092D01*
X152547145Y-114845710D01*
X152530538Y-115023800D01*
X152515555Y-115186150D01*
X152502398Y-115330546D01*
X152491268Y-115454774D01*
X152482366Y-115556621D01*
X152475894Y-115633874D01*
X152472053Y-115684317D01*
X152471045Y-115705739D01*
X152471165Y-115706331D01*
X152483892Y-115697301D01*
X152518193Y-115668959D01*
X152571959Y-115623142D01*
X152643083Y-115561686D01*
X152729455Y-115486427D01*
X152828967Y-115399200D01*
X152939512Y-115301843D01*
X153058980Y-115196190D01*
X153164639Y-115102418D01*
X153290215Y-114990987D01*
X153408820Y-114886117D01*
X153518322Y-114789671D01*
X153616583Y-114703510D01*
X153701471Y-114629498D01*
X153770849Y-114569497D01*
X153822582Y-114525369D01*
X153854537Y-114498977D01*
X153864508Y-114491875D01*
X153869355Y-114495429D01*
X153876802Y-114507851D01*
X153887882Y-114531781D01*
X153903627Y-114569857D01*
X153925069Y-114624720D01*
X153953242Y-114699007D01*
X153989178Y-114795358D01*
X154033909Y-114916413D01*
X154085561Y-115056892D01*
X154132722Y-115185346D01*
X153997443Y-115341407D01*
X153822904Y-115547868D01*
X153639836Y-115773916D01*
X153450805Y-116015877D01*
X153258379Y-116270079D01*
X153065127Y-116532849D01*
X152873616Y-116800514D01*
X152686415Y-117069401D01*
X152506090Y-117335838D01*
X152335210Y-117596151D01*
X152176344Y-117846667D01*
X152032058Y-118083715D01*
X151904920Y-118303620D01*
X151828125Y-118444214D01*
X151741913Y-118606607D01*
X151689545Y-118530493D01*
X151589715Y-118374541D01*
X151486272Y-118192787D01*
X151381701Y-117990588D01*
X151278492Y-117773299D01*
X151179132Y-117546279D01*
X151086109Y-117314882D01*
X151001909Y-117084465D01*
X150960373Y-116960437D01*
X150885473Y-116716266D01*
X150810503Y-116448029D01*
X150737351Y-116163349D01*
X150667910Y-115869849D01*
X150604067Y-115575152D01*
X150554398Y-115322917D01*
X150509419Y-115082397D01*
X150427692Y-115489604D01*
X150337376Y-115913659D01*
X150242234Y-116308629D01*
X150141410Y-116676932D01*
X150034047Y-117020986D01*
X149919290Y-117343205D01*
X149796283Y-117646009D01*
X149664171Y-117931812D01*
X149522096Y-118203033D01*
X149382800Y-118440226D01*
X149344873Y-118500487D01*
X149312453Y-118550107D01*
X149289470Y-118583186D01*
X149280548Y-118593755D01*
X149268765Y-118583831D01*
X149246830Y-118551211D01*
X149218477Y-118501753D01*
X149201882Y-118470247D01*
X149109612Y-118298322D01*
X148998689Y-118105732D01*
X148871367Y-117895706D01*
X148729900Y-117671475D01*
X148576542Y-117436267D01*
X148413547Y-117193313D01*
X148243168Y-116945842D01*
X148067660Y-116697085D01*
X147889277Y-116450270D01*
X147710272Y-116208629D01*
X147532899Y-115975390D01*
X147359412Y-115753783D01*
X147192065Y-115547038D01*
X147033112Y-115358385D01*
X147018431Y-115341407D01*
X146883152Y-115185346D01*
X146930313Y-115056892D01*
X146984375Y-114909871D01*
X147028656Y-114790065D01*
X147064190Y-114694836D01*
X147092005Y-114621548D01*
X147113134Y-114567561D01*
X147128608Y-114530239D01*
X147139457Y-114506944D01*
X147146713Y-114495038D01*
X147151197Y-114491875D01*
X147165091Y-114502131D01*
X147200544Y-114531660D01*
X147255422Y-114578599D01*
X147327590Y-114641088D01*
X147414913Y-114717265D01*
X147515257Y-114805269D01*
X147626486Y-114903237D01*
X147746465Y-115009310D01*
X147851243Y-115102241D01*
X147976625Y-115213402D01*
X148094847Y-115317819D01*
X148203798Y-115413656D01*
X148301372Y-115499076D01*
X148385459Y-115572245D01*
X148453951Y-115631327D01*
X148504740Y-115674486D01*
X148535717Y-115699886D01*
X148544886Y-115706155D01*
X148544340Y-115689769D01*
X148540929Y-115643996D01*
X148534855Y-115571047D01*
X148526319Y-115473136D01*
X148515524Y-115352477D01*
X148502671Y-115211282D01*
X148487961Y-115051765D01*
X148471597Y-114876140D01*
X148453780Y-114686619D01*
X148434712Y-114485415D01*
X148432248Y-114459605D01*
X149931101Y-114459605D01*
X149936901Y-114461298D01*
X149960228Y-114444119D01*
X149996226Y-114411710D01*
X150000884Y-114407243D01*
X150057043Y-114360494D01*
X150126828Y-114312576D01*
X150190437Y-114276351D01*
X150332127Y-114222549D01*
X150475958Y-114199577D01*
X150618791Y-114206959D01*
X150757488Y-114244218D01*
X150888908Y-114310876D01*
X151002906Y-114399823D01*
X151043533Y-114436018D01*
X151072373Y-114458157D01*
X151084665Y-114462718D01*
X151084412Y-114460125D01*
X151078288Y-114441031D01*
X151063574Y-114394343D01*
X151041120Y-114322780D01*
X151011776Y-114229061D01*
X150976392Y-114115904D01*
X150935819Y-113986030D01*
X150890907Y-113842157D01*
X150842506Y-113687004D01*
X150794005Y-113531437D01*
X150743288Y-113368805D01*
X150695405Y-113215439D01*
X150651184Y-113073979D01*
X150611453Y-112947066D01*
X150577040Y-112837338D01*
X150548772Y-112747436D01*
X150527478Y-112680000D01*
X150513986Y-112637670D01*
X150509134Y-112623092D01*
X150504037Y-112637180D01*
X150490338Y-112678978D01*
X150468864Y-112745878D01*
X150440438Y-112835271D01*
X150405885Y-112944548D01*
X150366031Y-113071101D01*
X150321699Y-113212321D01*
X150273715Y-113365601D01*
X150223017Y-113527967D01*
X150171958Y-113691622D01*
X150123571Y-113846572D01*
X150078707Y-113990105D01*
X150038213Y-114119512D01*
X150002941Y-114232078D01*
X149973740Y-114325094D01*
X149951459Y-114395848D01*
X149936948Y-114441628D01*
X149931101Y-114459605D01*
X148432248Y-114459605D01*
X148414595Y-114274743D01*
X148411180Y-114239132D01*
X148390941Y-114027017D01*
X148371792Y-113823937D01*
X148353929Y-113632113D01*
X148337548Y-113453765D01*
X148322845Y-113291113D01*
X148310018Y-113146378D01*
X148299261Y-113021779D01*
X148290773Y-112919538D01*
X148284749Y-112841875D01*
X148281385Y-112791009D01*
X148280879Y-112769161D01*
X148281080Y-112768502D01*
X148297419Y-112772323D01*
X148339513Y-112787615D01*
X148404070Y-112813034D01*
X148487795Y-112847234D01*
X148587396Y-112888870D01*
X148699580Y-112936596D01*
X148821054Y-112989066D01*
X148823565Y-112990159D01*
X148945067Y-113042975D01*
X149057121Y-113091563D01*
X149156463Y-113134518D01*
X149239828Y-113170433D01*
X149303952Y-113197901D01*
X149345569Y-113215516D01*
X149361416Y-113221872D01*
X149361448Y-113221874D01*
X149369832Y-113208344D01*
X149392361Y-113169202D01*
X149427816Y-113106625D01*
X149474982Y-113022789D01*
X149532640Y-112919869D01*
X149599574Y-112800041D01*
X149674567Y-112665480D01*
X149756402Y-112518363D01*
X149843861Y-112360865D01*
X149929484Y-112206431D01*
X150021276Y-112041131D01*
X150108837Y-111884192D01*
X150190927Y-111737793D01*
X150266304Y-111604112D01*
X150333726Y-111485328D01*
X150391954Y-111383620D01*
X150439745Y-111301167D01*
X150475858Y-111240146D01*
X150499052Y-111202738D01*
X150507937Y-111191048D01*
X150518053Y-111204595D01*
G37*
X145026589Y-115073742D02*
X145070700Y-115081567D01*
X145139865Y-115094411D01*
X145231040Y-115111692D01*
X145341179Y-115132829D01*
X145467239Y-115157242D01*
X145606175Y-115184348D01*
X145754943Y-115213568D01*
X145757495Y-115214071D01*
X145941325Y-115250548D01*
X146095989Y-115281820D01*
X146223559Y-115308358D01*
X146326105Y-115330634D01*
X146405701Y-115349119D01*
X146464419Y-115364283D01*
X146504329Y-115376598D01*
X146527505Y-115386536D01*
X146533138Y-115390458D01*
X146561589Y-115421078D01*
X146605280Y-115474525D01*
X146661675Y-115547321D01*
X146728234Y-115635986D01*
X146802422Y-115737043D01*
X146881700Y-115847011D01*
X146963530Y-115962414D01*
X147045375Y-116079771D01*
X147124696Y-116195605D01*
X147174560Y-116269720D01*
X147410141Y-116632668D01*
X147640951Y-117007801D01*
X147864367Y-117390259D01*
X148077764Y-117775183D01*
X148278521Y-118157713D01*
X148464014Y-118532989D01*
X148631619Y-118896151D01*
X148777158Y-119238500D01*
X148813850Y-119332061D01*
X148853734Y-119438841D01*
X148894936Y-119553315D01*
X148935587Y-119669957D01*
X148973813Y-119783244D01*
X149007743Y-119887651D01*
X149035506Y-119977652D01*
X149055230Y-120047725D01*
X149063698Y-120084286D01*
X149073412Y-120122252D01*
X149083617Y-120142394D01*
X149085798Y-120143375D01*
X149101032Y-120131877D01*
X149133696Y-120099729D01*
X149180628Y-120050451D01*
X149238669Y-119987562D01*
X149304660Y-119914581D01*
X149375439Y-119835027D01*
X149447846Y-119752419D01*
X149518722Y-119670277D01*
X149584906Y-119592119D01*
X149633236Y-119533745D01*
X149781249Y-119346913D01*
X149917549Y-119162091D01*
X150046982Y-118972039D01*
X150174390Y-118769515D01*
X150304618Y-118547276D01*
X150364975Y-118439729D01*
X150409919Y-118360537D01*
X150450190Y-118293034D01*
X150483164Y-118241338D01*
X150506221Y-118209569D01*
X150516559Y-118201604D01*
X150528574Y-118219988D01*
X150552109Y-118260369D01*
X150583733Y-118316736D01*
X150619030Y-118381250D01*
X150794483Y-118691226D01*
X150972781Y-118976596D01*
X151158619Y-119244449D01*
X151356694Y-119501876D01*
X151381331Y-119532187D01*
X151441655Y-119604854D01*
X151509188Y-119684309D01*
X151580779Y-119767039D01*
X151653274Y-119849535D01*
X151723523Y-119928286D01*
X151788372Y-119999779D01*
X151844669Y-120060506D01*
X151889263Y-120106953D01*
X151919000Y-120135612D01*
X151930076Y-120143375D01*
X151939761Y-120129474D01*
X151949984Y-120095000D01*
X151952176Y-120084286D01*
X151964529Y-120033079D01*
X151986345Y-119957739D01*
X152015753Y-119863791D01*
X152050880Y-119756759D01*
X152089856Y-119642167D01*
X152130809Y-119525540D01*
X152171866Y-119412404D01*
X152211157Y-119308282D01*
X152238716Y-119238500D01*
X152383154Y-118898785D01*
X152547783Y-118541906D01*
X152729961Y-118172756D01*
X152927048Y-117796231D01*
X153136400Y-117417227D01*
X153355376Y-117040639D01*
X153581334Y-116671361D01*
X153811631Y-116314291D01*
X153839738Y-116272039D01*
X153915892Y-116159281D01*
X153996268Y-116042645D01*
X154078333Y-115925605D01*
X154159554Y-115811636D01*
X154237398Y-115704210D01*
X154309334Y-115606801D01*
X154372827Y-115522883D01*
X154425347Y-115455930D01*
X154464359Y-115409416D01*
X154482042Y-115391085D01*
X154498816Y-115382032D01*
X154532772Y-115370524D01*
X154585847Y-115356121D01*
X154659976Y-115338383D01*
X154757095Y-115316872D01*
X154879140Y-115291147D01*
X155028047Y-115260770D01*
X155205751Y-115225302D01*
X155257686Y-115215039D01*
X155406662Y-115185738D01*
X155545859Y-115158529D01*
X155672234Y-115133995D01*
X155782743Y-115112718D01*
X155874345Y-115095282D01*
X155943995Y-115082269D01*
X155988652Y-115074262D01*
X156005272Y-115071843D01*
X156005298Y-115071856D01*
X156002079Y-115087140D01*
X155991783Y-115130034D01*
X155975208Y-115197389D01*
X155953153Y-115286056D01*
X155926417Y-115392888D01*
X155895799Y-115514736D01*
X155862096Y-115648451D01*
X155826109Y-115790886D01*
X155788636Y-115938892D01*
X155750475Y-116089321D01*
X155712426Y-116239025D01*
X155675286Y-116384854D01*
X155639855Y-116523662D01*
X155606931Y-116652299D01*
X155577313Y-116767618D01*
X155551801Y-116866469D01*
X155531191Y-116945706D01*
X155516284Y-117002178D01*
X155507878Y-117032739D01*
X155507515Y-117033954D01*
X155511370Y-117046046D01*
X155530310Y-117064425D01*
X155566789Y-117090702D01*
X155623265Y-117126489D01*
X155702191Y-117173397D01*
X155806025Y-117233039D01*
X155841467Y-117253128D01*
X155935522Y-117306790D01*
X156019676Y-117355711D01*
X156090189Y-117397643D01*
X156143324Y-117430336D01*
X156175340Y-117451545D01*
X156183250Y-117458629D01*
X156170216Y-117468693D01*
X156132198Y-117495009D01*
X156070818Y-117536507D01*
X155987698Y-117592113D01*
X155884460Y-117660758D01*
X155762728Y-117741368D01*
X155624124Y-117832874D01*
X155470269Y-117934203D01*
X155302787Y-118044283D01*
X155123301Y-118162044D01*
X154933432Y-118286414D01*
X154734803Y-118416321D01*
X154580059Y-118517393D01*
X154375863Y-118650816D01*
X154179200Y-118779568D01*
X153991693Y-118902570D01*
X153814965Y-119018748D01*
X153650639Y-119127027D01*
X153500340Y-119226330D01*
X153365691Y-119315583D01*
X153248314Y-119393708D01*
X153149834Y-119459631D01*
X153071875Y-119512277D01*
X153016058Y-119550568D01*
X152984009Y-119573431D01*
X152976545Y-119579812D01*
X152981125Y-119597952D01*
X152994329Y-119643036D01*
X153015140Y-119711758D01*
X153042536Y-119800810D01*
X153075500Y-119906888D01*
X153113012Y-120026684D01*
X153154052Y-120156893D01*
X153168830Y-120203583D01*
X153210550Y-120336294D01*
X153248656Y-120459517D01*
X153282185Y-120569990D01*
X153310176Y-120664450D01*
X153331666Y-120739635D01*
X153345695Y-120792280D01*
X153351300Y-120819125D01*
X153351082Y-120821834D01*
X153334146Y-120821505D01*
X153287941Y-120817581D01*
X153214714Y-120810313D01*
X153116711Y-120799954D01*
X152996181Y-120786756D01*
X152855370Y-120770970D01*
X152696524Y-120752848D01*
X152521892Y-120732643D01*
X152333719Y-120710606D01*
X152134254Y-120686990D01*
X151925742Y-120662045D01*
X151924331Y-120661875D01*
X150507937Y-120491561D01*
X149120568Y-120658780D01*
X148913437Y-120683696D01*
X148714827Y-120707488D01*
X148527069Y-120729884D01*
X148352494Y-120750610D01*
X148193431Y-120769393D01*
X148052211Y-120785960D01*
X147931164Y-120800035D01*
X147832621Y-120811348D01*
X147758911Y-120819623D01*
X147712365Y-120824587D01*
X147695787Y-120826000D01*
X147667045Y-120821235D01*
X147658375Y-120812824D01*
X147663024Y-120795273D01*
X147676286Y-120750779D01*
X147697137Y-120682650D01*
X147724548Y-120594194D01*
X147757493Y-120488719D01*
X147794946Y-120369532D01*
X147835880Y-120239942D01*
X147848875Y-120198937D01*
X147890689Y-120066655D01*
X147929324Y-119943605D01*
X147963752Y-119833122D01*
X147992946Y-119738542D01*
X148015877Y-119663202D01*
X148031517Y-119610438D01*
X148038839Y-119583584D01*
X148039260Y-119581082D01*
X148026209Y-119570386D01*
X147988167Y-119543454D01*
X147926758Y-119501362D01*
X147843605Y-119445187D01*
X147740331Y-119376007D01*
X147618559Y-119294898D01*
X147479913Y-119202938D01*
X147326015Y-119101204D01*
X147158489Y-118990773D01*
X146978959Y-118872723D01*
X146789046Y-118748129D01*
X146590375Y-118618070D01*
X146435885Y-118517119D01*
X146231722Y-118383718D01*
X146035094Y-118255050D01*
X145847622Y-118132186D01*
X145670930Y-118016199D01*
X145506638Y-117908159D01*
X145356371Y-117809138D01*
X145221748Y-117720206D01*
X145104394Y-117642436D01*
X145005931Y-117576898D01*
X144927979Y-117524664D01*
X144872163Y-117486805D01*
X144840103Y-117464392D01*
X144832625Y-117458355D01*
X144845866Y-117447580D01*
X144883097Y-117423584D01*
X144940581Y-117388612D01*
X145014577Y-117344909D01*
X145101349Y-117294720D01*
X145174407Y-117253128D01*
X145285992Y-117189456D01*
X145371952Y-117138989D01*
X145434741Y-117100115D01*
X145476817Y-117071223D01*
X145500633Y-117050700D01*
X145508647Y-117036936D01*
X145508359Y-117033954D01*
X145500448Y-117005399D01*
X145485980Y-116950700D01*
X145465752Y-116873003D01*
X145440564Y-116775459D01*
X145411213Y-116661216D01*
X145378500Y-116533422D01*
X145343221Y-116395226D01*
X145306177Y-116249777D01*
X145268165Y-116100223D01*
X145229985Y-115949713D01*
X145192435Y-115801396D01*
X145156313Y-115658420D01*
X145122419Y-115523934D01*
X145091551Y-115401087D01*
X145064507Y-115293026D01*
X145042087Y-115202902D01*
X145025089Y-115133862D01*
X145014312Y-115089055D01*
X145010554Y-115071630D01*
X145010576Y-115071515D01*
X145026589Y-115073742D01*
G36*
X145026589Y-115073742D02*
G01*
X145070700Y-115081567D01*
X145139865Y-115094411D01*
X145231040Y-115111692D01*
X145341179Y-115132829D01*
X145467239Y-115157242D01*
X145606175Y-115184348D01*
X145754943Y-115213568D01*
X145757495Y-115214071D01*
X145941325Y-115250548D01*
X146095989Y-115281820D01*
X146223559Y-115308358D01*
X146326105Y-115330634D01*
X146405701Y-115349119D01*
X146464419Y-115364283D01*
X146504329Y-115376598D01*
X146527505Y-115386536D01*
X146533138Y-115390458D01*
X146561589Y-115421078D01*
X146605280Y-115474525D01*
X146661675Y-115547321D01*
X146728234Y-115635986D01*
X146802422Y-115737043D01*
X146881700Y-115847011D01*
X146963530Y-115962414D01*
X147045375Y-116079771D01*
X147124696Y-116195605D01*
X147174560Y-116269720D01*
X147410141Y-116632668D01*
X147640951Y-117007801D01*
X147864367Y-117390259D01*
X148077764Y-117775183D01*
X148278521Y-118157713D01*
X148464014Y-118532989D01*
X148631619Y-118896151D01*
X148777158Y-119238500D01*
X148813850Y-119332061D01*
X148853734Y-119438841D01*
X148894936Y-119553315D01*
X148935587Y-119669957D01*
X148973813Y-119783244D01*
X149007743Y-119887651D01*
X149035506Y-119977652D01*
X149055230Y-120047725D01*
X149063698Y-120084286D01*
X149073412Y-120122252D01*
X149083617Y-120142394D01*
X149085798Y-120143375D01*
X149101032Y-120131877D01*
X149133696Y-120099729D01*
X149180628Y-120050451D01*
X149238669Y-119987562D01*
X149304660Y-119914581D01*
X149375439Y-119835027D01*
X149447846Y-119752419D01*
X149518722Y-119670277D01*
X149584906Y-119592119D01*
X149633236Y-119533745D01*
X149781249Y-119346913D01*
X149917549Y-119162091D01*
X150046982Y-118972039D01*
X150174390Y-118769515D01*
X150304618Y-118547276D01*
X150364975Y-118439729D01*
X150409919Y-118360537D01*
X150450190Y-118293034D01*
X150483164Y-118241338D01*
X150506221Y-118209569D01*
X150516559Y-118201604D01*
X150528574Y-118219988D01*
X150552109Y-118260369D01*
X150583733Y-118316736D01*
X150619030Y-118381250D01*
X150794483Y-118691226D01*
X150972781Y-118976596D01*
X151158619Y-119244449D01*
X151356694Y-119501876D01*
X151381331Y-119532187D01*
X151441655Y-119604854D01*
X151509188Y-119684309D01*
X151580779Y-119767039D01*
X151653274Y-119849535D01*
X151723523Y-119928286D01*
X151788372Y-119999779D01*
X151844669Y-120060506D01*
X151889263Y-120106953D01*
X151919000Y-120135612D01*
X151930076Y-120143375D01*
X151939761Y-120129474D01*
X151949984Y-120095000D01*
X151952176Y-120084286D01*
X151964529Y-120033079D01*
X151986345Y-119957739D01*
X152015753Y-119863791D01*
X152050880Y-119756759D01*
X152089856Y-119642167D01*
X152130809Y-119525540D01*
X152171866Y-119412404D01*
X152211157Y-119308282D01*
X152238716Y-119238500D01*
X152383154Y-118898785D01*
X152547783Y-118541906D01*
X152729961Y-118172756D01*
X152927048Y-117796231D01*
X153136400Y-117417227D01*
X153355376Y-117040639D01*
X153581334Y-116671361D01*
X153811631Y-116314291D01*
X153839738Y-116272039D01*
X153915892Y-116159281D01*
X153996268Y-116042645D01*
X154078333Y-115925605D01*
X154159554Y-115811636D01*
X154237398Y-115704210D01*
X154309334Y-115606801D01*
X154372827Y-115522883D01*
X154425347Y-115455930D01*
X154464359Y-115409416D01*
X154482042Y-115391085D01*
X154498816Y-115382032D01*
X154532772Y-115370524D01*
X154585847Y-115356121D01*
X154659976Y-115338383D01*
X154757095Y-115316872D01*
X154879140Y-115291147D01*
X155028047Y-115260770D01*
X155205751Y-115225302D01*
X155257686Y-115215039D01*
X155406662Y-115185738D01*
X155545859Y-115158529D01*
X155672234Y-115133995D01*
X155782743Y-115112718D01*
X155874345Y-115095282D01*
X155943995Y-115082269D01*
X155988652Y-115074262D01*
X156005272Y-115071843D01*
X156005298Y-115071856D01*
X156002079Y-115087140D01*
X155991783Y-115130034D01*
X155975208Y-115197389D01*
X155953153Y-115286056D01*
X155926417Y-115392888D01*
X155895799Y-115514736D01*
X155862096Y-115648451D01*
X155826109Y-115790886D01*
X155788636Y-115938892D01*
X155750475Y-116089321D01*
X155712426Y-116239025D01*
X155675286Y-116384854D01*
X155639855Y-116523662D01*
X155606931Y-116652299D01*
X155577313Y-116767618D01*
X155551801Y-116866469D01*
X155531191Y-116945706D01*
X155516284Y-117002178D01*
X155507878Y-117032739D01*
X155507515Y-117033954D01*
X155511370Y-117046046D01*
X155530310Y-117064425D01*
X155566789Y-117090702D01*
X155623265Y-117126489D01*
X155702191Y-117173397D01*
X155806025Y-117233039D01*
X155841467Y-117253128D01*
X155935522Y-117306790D01*
X156019676Y-117355711D01*
X156090189Y-117397643D01*
X156143324Y-117430336D01*
X156175340Y-117451545D01*
X156183250Y-117458629D01*
X156170216Y-117468693D01*
X156132198Y-117495009D01*
X156070818Y-117536507D01*
X155987698Y-117592113D01*
X155884460Y-117660758D01*
X155762728Y-117741368D01*
X155624124Y-117832874D01*
X155470269Y-117934203D01*
X155302787Y-118044283D01*
X155123301Y-118162044D01*
X154933432Y-118286414D01*
X154734803Y-118416321D01*
X154580059Y-118517393D01*
X154375863Y-118650816D01*
X154179200Y-118779568D01*
X153991693Y-118902570D01*
X153814965Y-119018748D01*
X153650639Y-119127027D01*
X153500340Y-119226330D01*
X153365691Y-119315583D01*
X153248314Y-119393708D01*
X153149834Y-119459631D01*
X153071875Y-119512277D01*
X153016058Y-119550568D01*
X152984009Y-119573431D01*
X152976545Y-119579812D01*
X152981125Y-119597952D01*
X152994329Y-119643036D01*
X153015140Y-119711758D01*
X153042536Y-119800810D01*
X153075500Y-119906888D01*
X153113012Y-120026684D01*
X153154052Y-120156893D01*
X153168830Y-120203583D01*
X153210550Y-120336294D01*
X153248656Y-120459517D01*
X153282185Y-120569990D01*
X153310176Y-120664450D01*
X153331666Y-120739635D01*
X153345695Y-120792280D01*
X153351300Y-120819125D01*
X153351082Y-120821834D01*
X153334146Y-120821505D01*
X153287941Y-120817581D01*
X153214714Y-120810313D01*
X153116711Y-120799954D01*
X152996181Y-120786756D01*
X152855370Y-120770970D01*
X152696524Y-120752848D01*
X152521892Y-120732643D01*
X152333719Y-120710606D01*
X152134254Y-120686990D01*
X151925742Y-120662045D01*
X151924331Y-120661875D01*
X150507937Y-120491561D01*
X149120568Y-120658780D01*
X148913437Y-120683696D01*
X148714827Y-120707488D01*
X148527069Y-120729884D01*
X148352494Y-120750610D01*
X148193431Y-120769393D01*
X148052211Y-120785960D01*
X147931164Y-120800035D01*
X147832621Y-120811348D01*
X147758911Y-120819623D01*
X147712365Y-120824587D01*
X147695787Y-120826000D01*
X147667045Y-120821235D01*
X147658375Y-120812824D01*
X147663024Y-120795273D01*
X147676286Y-120750779D01*
X147697137Y-120682650D01*
X147724548Y-120594194D01*
X147757493Y-120488719D01*
X147794946Y-120369532D01*
X147835880Y-120239942D01*
X147848875Y-120198937D01*
X147890689Y-120066655D01*
X147929324Y-119943605D01*
X147963752Y-119833122D01*
X147992946Y-119738542D01*
X148015877Y-119663202D01*
X148031517Y-119610438D01*
X148038839Y-119583584D01*
X148039260Y-119581082D01*
X148026209Y-119570386D01*
X147988167Y-119543454D01*
X147926758Y-119501362D01*
X147843605Y-119445187D01*
X147740331Y-119376007D01*
X147618559Y-119294898D01*
X147479913Y-119202938D01*
X147326015Y-119101204D01*
X147158489Y-118990773D01*
X146978959Y-118872723D01*
X146789046Y-118748129D01*
X146590375Y-118618070D01*
X146435885Y-118517119D01*
X146231722Y-118383718D01*
X146035094Y-118255050D01*
X145847622Y-118132186D01*
X145670930Y-118016199D01*
X145506638Y-117908159D01*
X145356371Y-117809138D01*
X145221748Y-117720206D01*
X145104394Y-117642436D01*
X145005931Y-117576898D01*
X144927979Y-117524664D01*
X144872163Y-117486805D01*
X144840103Y-117464392D01*
X144832625Y-117458355D01*
X144845866Y-117447580D01*
X144883097Y-117423584D01*
X144940581Y-117388612D01*
X145014577Y-117344909D01*
X145101349Y-117294720D01*
X145174407Y-117253128D01*
X145285992Y-117189456D01*
X145371952Y-117138989D01*
X145434741Y-117100115D01*
X145476817Y-117071223D01*
X145500633Y-117050700D01*
X145508647Y-117036936D01*
X145508359Y-117033954D01*
X145500448Y-117005399D01*
X145485980Y-116950700D01*
X145465752Y-116873003D01*
X145440564Y-116775459D01*
X145411213Y-116661216D01*
X145378500Y-116533422D01*
X145343221Y-116395226D01*
X145306177Y-116249777D01*
X145268165Y-116100223D01*
X145229985Y-115949713D01*
X145192435Y-115801396D01*
X145156313Y-115658420D01*
X145122419Y-115523934D01*
X145091551Y-115401087D01*
X145064507Y-115293026D01*
X145042087Y-115202902D01*
X145025089Y-115133862D01*
X145014312Y-115089055D01*
X145010554Y-115071630D01*
X145010576Y-115071515D01*
X145026589Y-115073742D01*
G37*
D15*
%TO.C,K1*%
X136411000Y-71498000D02*
X136411000Y-103502000D01*
X136411000Y-103502000D02*
X163589000Y-103502000D01*
X149873000Y-71498000D02*
X149873000Y-71752000D01*
X149873000Y-71752000D02*
X150127000Y-71752000D01*
X150127000Y-71498000D02*
X149873000Y-71498000D01*
X150127000Y-71752000D02*
X150127000Y-71498000D01*
X163589000Y-71498000D02*
X136411000Y-71498000D01*
X163589000Y-103502000D02*
X163589000Y-71498000D01*
%TO.C,D1*%
X126074300Y-88891800D02*
X126074300Y-89536960D01*
X126074300Y-92463040D02*
X126074300Y-93108200D01*
X126074300Y-93108200D02*
X130925700Y-93108200D01*
X130925700Y-88891800D02*
X126074300Y-88891800D01*
X130925700Y-89536960D02*
X130925700Y-88891800D01*
X130925700Y-93108200D02*
X130925700Y-92463040D01*
X132487800Y-91000000D02*
X133757800Y-91000000D01*
X132741800Y-91635000D02*
X132741800Y-90365000D01*
X133503800Y-91000000D02*
X132741800Y-90365000D01*
X133503800Y-91000000D02*
X132741800Y-90492000D01*
X133503800Y-91000000D02*
X132741800Y-90619000D01*
X133503800Y-91000000D02*
X132741800Y-90746000D01*
X133503800Y-91000000D02*
X132741800Y-90873000D01*
X133503800Y-91000000D02*
X132741800Y-91127000D01*
X133503800Y-91000000D02*
X132741800Y-91254000D01*
X133503800Y-91000000D02*
X132741800Y-91381000D01*
X133503800Y-91000000D02*
X132741800Y-91508000D01*
X133503800Y-91000000D02*
X132741800Y-91635000D01*
X133503800Y-91635000D02*
X133503800Y-90365000D01*
%TO.C,D2*%
X126074300Y-81891800D02*
X126074300Y-82536960D01*
X126074300Y-85463040D02*
X126074300Y-86108200D01*
X126074300Y-86108200D02*
X130925700Y-86108200D01*
X130925700Y-81891800D02*
X126074300Y-81891800D01*
X130925700Y-82536960D02*
X130925700Y-81891800D01*
X130925700Y-86108200D02*
X130925700Y-85463040D01*
X132487800Y-84000000D02*
X133757800Y-84000000D01*
X132741800Y-84635000D02*
X132741800Y-83365000D01*
X133503800Y-84000000D02*
X132741800Y-83365000D01*
X133503800Y-84000000D02*
X132741800Y-83492000D01*
X133503800Y-84000000D02*
X132741800Y-83619000D01*
X133503800Y-84000000D02*
X132741800Y-83746000D01*
X133503800Y-84000000D02*
X132741800Y-83873000D01*
X133503800Y-84000000D02*
X132741800Y-84127000D01*
X133503800Y-84000000D02*
X132741800Y-84254000D01*
X133503800Y-84000000D02*
X132741800Y-84381000D01*
X133503800Y-84000000D02*
X132741800Y-84508000D01*
X133503800Y-84000000D02*
X132741800Y-84635000D01*
X133503800Y-84635000D02*
X133503800Y-83365000D01*
D16*
%TO.C,J1*%
X111100000Y-67115000D02*
X111100000Y-67615000D01*
X111340000Y-67355000D02*
X111340000Y-77635000D01*
X111840000Y-67115000D02*
X111100000Y-67115000D01*
X111900000Y-67355000D02*
X111900000Y-77635000D01*
X113400000Y-67355000D02*
X113400000Y-77635000D01*
X114761000Y-74001000D02*
X114726000Y-73966000D01*
X114977000Y-73808000D02*
X114931000Y-73761000D01*
X117069000Y-76310000D02*
X117023000Y-76263000D01*
X117275000Y-76105000D02*
X117239000Y-76070000D01*
X118301000Y-67355000D02*
X118301000Y-77635000D01*
X121261000Y-67355000D02*
X111340000Y-67355000D01*
X121261000Y-67355000D02*
X121261000Y-77635000D01*
X121261000Y-77635000D02*
X111340000Y-77635000D01*
X114319747Y-69983805D02*
G75*
G02*
X114465000Y-69271000I1680254J28806D01*
G01*
X114465244Y-70638318D02*
G75*
G02*
X114320000Y-69955000I1534756J683318D01*
G01*
X115316958Y-68419573D02*
G75*
G02*
X116684000Y-68420000I683041J-1535420D01*
G01*
X116683042Y-71490427D02*
G75*
G02*
X115316000Y-71490000I-683042J1535427D01*
G01*
X117535427Y-69271958D02*
G75*
G02*
X117535000Y-70639000I-1535420J-683041D01*
G01*
X117680000Y-75035000D02*
G75*
G02*
X114320000Y-75035000I-1680000J0D01*
G01*
X114320000Y-75035000D02*
G75*
G02*
X117680000Y-75035000I1680000J0D01*
G01*
%TO.C,J2*%
X111100000Y-95615000D02*
X111100000Y-96115000D01*
X111340000Y-95855000D02*
X111340000Y-106135000D01*
X111840000Y-95615000D02*
X111100000Y-95615000D01*
X111900000Y-95855000D02*
X111900000Y-106135000D01*
X113400000Y-95855000D02*
X113400000Y-106135000D01*
X114761000Y-102501000D02*
X114726000Y-102466000D01*
X114977000Y-102308000D02*
X114931000Y-102261000D01*
X117069000Y-104810000D02*
X117023000Y-104763000D01*
X117275000Y-104605000D02*
X117239000Y-104570000D01*
X118301000Y-95855000D02*
X118301000Y-106135000D01*
X121261000Y-95855000D02*
X111340000Y-95855000D01*
X121261000Y-95855000D02*
X121261000Y-106135000D01*
X121261000Y-106135000D02*
X111340000Y-106135000D01*
X114319747Y-98483805D02*
G75*
G02*
X114465000Y-97771000I1680254J28806D01*
G01*
X114465244Y-99138318D02*
G75*
G02*
X114320000Y-98455000I1534756J683318D01*
G01*
X115316958Y-96919573D02*
G75*
G02*
X116684000Y-96920000I683041J-1535420D01*
G01*
X116683042Y-99990427D02*
G75*
G02*
X115316000Y-99990000I-683042J1535427D01*
G01*
X117535427Y-97771958D02*
G75*
G02*
X117535000Y-99139000I-1535420J-683041D01*
G01*
X117680000Y-103535000D02*
G75*
G02*
X114320000Y-103535000I-1680000J0D01*
G01*
X114320000Y-103535000D02*
G75*
G02*
X117680000Y-103535000I1680000J0D01*
G01*
%TD*%
M02*
