%TF.GenerationSoftware,KiCad,Pcbnew,8.0.4*%
%TF.CreationDate,2025-06-08T14:38:43-04:00*%
%TF.ProjectId,car-battery-reverse-polarity-protection,6361722d-6261-4747-9465-72792d726576,rev?*%
%TF.SameCoordinates,Original*%
%TF.FileFunction,Copper,L1,Top*%
%TF.FilePolarity,Positive*%
%FSLAX46Y46*%
G04 Gerber Fmt 4.6, Leading zero omitted, Abs format (unit mm)*
G04 Created by KiCad (PCBNEW 8.0.4) date 2025-06-08 14:38:43*
%MOMM*%
%LPD*%
G01*
G04 APERTURE LIST*
%TA.AperFunction,ComponentPad*%
%ADD10C,6.400000*%
%TD*%
%TA.AperFunction,ComponentPad*%
%ADD11C,2.641600*%
%TD*%
%TA.AperFunction,ComponentPad*%
%ADD12C,1.676400*%
%TD*%
%TA.AperFunction,SMDPad,CuDef*%
%ADD13R,2.514600X2.260600*%
%TD*%
%TA.AperFunction,ComponentPad*%
%ADD14R,2.600000X2.600000*%
%TD*%
%TA.AperFunction,ComponentPad*%
%ADD15C,2.600000*%
%TD*%
%TA.AperFunction,ViaPad*%
%ADD16C,1.000000*%
%TD*%
%TA.AperFunction,Conductor*%
%ADD17C,2.000000*%
%TD*%
G04 APERTURE END LIST*
D10*
%TO.P,H5,1,1*%
%TO.N,GND*%
X132500000Y-122000000D03*
%TD*%
D11*
%TO.P,K1,13*%
%TO.N,GND*%
X140398800Y-84274200D03*
%TO.P,K1,14*%
%TO.N,/relay_load_terminal*%
X158178800Y-81734200D03*
D12*
%TO.P,K1,A1*%
%TO.N,/relay_coil*%
X154368800Y-96974200D03*
%TO.P,K1,A2*%
%TO.N,GND*%
X144208800Y-96974200D03*
D11*
%TO.P,K1,NC*%
%TO.N,N/C*%
X158178800Y-74114200D03*
%TD*%
D10*
%TO.P,H1,1,1*%
%TO.N,GND*%
X169500000Y-57000000D03*
%TD*%
D13*
%TO.P,D1,1,K*%
%TO.N,/relay_coil*%
X130595500Y-91000000D03*
%TO.P,D1,2,A*%
%TO.N,GND*%
X126404500Y-91000000D03*
%TD*%
%TO.P,D2,1,K*%
%TO.N,/relay_coil*%
X130595500Y-84000000D03*
%TO.P,D2,2,A*%
%TO.N,+BATT*%
X126404500Y-84000000D03*
%TD*%
D14*
%TO.P,J1,1,Pin_1*%
%TO.N,GND*%
X116000000Y-69955000D03*
D15*
%TO.P,J1,2,Pin_2*%
%TO.N,+BATT*%
X116000000Y-75035000D03*
%TD*%
D10*
%TO.P,H2,1,1*%
%TO.N,GND*%
X169500000Y-122000000D03*
%TD*%
D14*
%TO.P,J2,1,Pin_1*%
%TO.N,+BATT*%
X116000000Y-98455000D03*
D15*
%TO.P,J2,2,Pin_2*%
%TO.N,/relay_load_terminal*%
X116000000Y-103535000D03*
%TD*%
D10*
%TO.P,H3,1,1*%
%TO.N,GND*%
X132500000Y-57000000D03*
%TD*%
D16*
%TO.N,GND*%
X113000000Y-70000000D03*
X123000000Y-88000000D03*
X119000000Y-70000000D03*
X116000000Y-67000000D03*
%TO.N,/relay_coil*%
X138000000Y-91000000D03*
%TD*%
D17*
%TO.N,GND*%
X126404500Y-91000000D02*
X126000000Y-91000000D01*
X126000000Y-91000000D02*
X123000000Y-88000000D01*
%TO.N,/relay_coil*%
X130595500Y-91000000D02*
X138000000Y-91000000D01*
X130595500Y-84000000D02*
X130595500Y-91000000D01*
%TD*%
%TA.AperFunction,Conductor*%
%TO.N,GND*%
G36*
X174192539Y-52520185D02*
G01*
X174238294Y-52572989D01*
X174249500Y-52624500D01*
X174249500Y-126375500D01*
X174229815Y-126442539D01*
X174177011Y-126488294D01*
X174125500Y-126499500D01*
X164098770Y-126499500D01*
X164031731Y-126479815D01*
X163985976Y-126427011D01*
X163974776Y-126376692D01*
X163932692Y-121999999D01*
X165794922Y-121999999D01*
X165794922Y-122000000D01*
X165815219Y-122387287D01*
X165875886Y-122770323D01*
X165875887Y-122770330D01*
X165976262Y-123144936D01*
X166115244Y-123506994D01*
X166291310Y-123852543D01*
X166502531Y-124177793D01*
X166711095Y-124435350D01*
X166711096Y-124435350D01*
X168205748Y-122940698D01*
X168279588Y-123042330D01*
X168457670Y-123220412D01*
X168559300Y-123294251D01*
X167064648Y-124788903D01*
X167064649Y-124788904D01*
X167322206Y-124997468D01*
X167647456Y-125208689D01*
X167993005Y-125384755D01*
X168355063Y-125523737D01*
X168729669Y-125624112D01*
X168729676Y-125624113D01*
X169112712Y-125684780D01*
X169499999Y-125705078D01*
X169500001Y-125705078D01*
X169887287Y-125684780D01*
X170270323Y-125624113D01*
X170270330Y-125624112D01*
X170644936Y-125523737D01*
X171006994Y-125384755D01*
X171352543Y-125208689D01*
X171677783Y-124997476D01*
X171677785Y-124997475D01*
X171935349Y-124788902D01*
X170440698Y-123294251D01*
X170542330Y-123220412D01*
X170720412Y-123042330D01*
X170794251Y-122940698D01*
X172288902Y-124435349D01*
X172497475Y-124177785D01*
X172497476Y-124177783D01*
X172708689Y-123852543D01*
X172884755Y-123506994D01*
X173023737Y-123144936D01*
X173124112Y-122770330D01*
X173124113Y-122770323D01*
X173184780Y-122387287D01*
X173205078Y-122000000D01*
X173205078Y-121999999D01*
X173184780Y-121612712D01*
X173124113Y-121229676D01*
X173124112Y-121229669D01*
X173023737Y-120855063D01*
X172884755Y-120493005D01*
X172708689Y-120147456D01*
X172497468Y-119822206D01*
X172288904Y-119564649D01*
X172288903Y-119564648D01*
X170794251Y-121059300D01*
X170720412Y-120957670D01*
X170542330Y-120779588D01*
X170440698Y-120705748D01*
X171935350Y-119211096D01*
X171935350Y-119211095D01*
X171677793Y-119002531D01*
X171352543Y-118791310D01*
X171006994Y-118615244D01*
X170644936Y-118476262D01*
X170270330Y-118375887D01*
X170270323Y-118375886D01*
X169887287Y-118315219D01*
X169500001Y-118294922D01*
X169499999Y-118294922D01*
X169112712Y-118315219D01*
X168729676Y-118375886D01*
X168729669Y-118375887D01*
X168355063Y-118476262D01*
X167993005Y-118615244D01*
X167647456Y-118791310D01*
X167322206Y-119002531D01*
X167064648Y-119211095D01*
X167064648Y-119211096D01*
X168559301Y-120705748D01*
X168457670Y-120779588D01*
X168279588Y-120957670D01*
X168205748Y-121059300D01*
X166711096Y-119564648D01*
X166711095Y-119564648D01*
X166502531Y-119822206D01*
X166291310Y-120147456D01*
X166115244Y-120493005D01*
X165976262Y-120855063D01*
X165875887Y-121229669D01*
X165875886Y-121229676D01*
X165815219Y-121612712D01*
X165794922Y-121999999D01*
X163932692Y-121999999D01*
X163500000Y-77000000D01*
X136124000Y-77000000D01*
X136056961Y-76980315D01*
X136011206Y-76927511D01*
X136000000Y-76876000D01*
X136000000Y-74114195D01*
X156352393Y-74114195D01*
X156352393Y-74114204D01*
X156372790Y-74386402D01*
X156372791Y-74386407D01*
X156433531Y-74652529D01*
X156433537Y-74652548D01*
X156533264Y-74906648D01*
X156533263Y-74906648D01*
X156607368Y-75035000D01*
X156669752Y-75143052D01*
X156798186Y-75304103D01*
X156839952Y-75356476D01*
X157028850Y-75531746D01*
X157040054Y-75542142D01*
X157265597Y-75695915D01*
X157265602Y-75695917D01*
X157265603Y-75695918D01*
X157265604Y-75695919D01*
X157396223Y-75758821D01*
X157511535Y-75814352D01*
X157511536Y-75814352D01*
X157511539Y-75814354D01*
X157772386Y-75894815D01*
X158042312Y-75935500D01*
X158042313Y-75935500D01*
X158315287Y-75935500D01*
X158315288Y-75935500D01*
X158585214Y-75894815D01*
X158846061Y-75814354D01*
X159092004Y-75695915D01*
X159317546Y-75542142D01*
X159517651Y-75356472D01*
X159687848Y-75143052D01*
X159824336Y-74906648D01*
X159924065Y-74652543D01*
X159984808Y-74386412D01*
X159984809Y-74386402D01*
X160005207Y-74114204D01*
X160005207Y-74114195D01*
X159984809Y-73841997D01*
X159984808Y-73841992D01*
X159984808Y-73841988D01*
X159924065Y-73575857D01*
X159824336Y-73321752D01*
X159824335Y-73321751D01*
X159824336Y-73321751D01*
X159773961Y-73234500D01*
X159687848Y-73085348D01*
X159517651Y-72871928D01*
X159517650Y-72871927D01*
X159517647Y-72871923D01*
X159388724Y-72752301D01*
X159317546Y-72686258D01*
X159092004Y-72532485D01*
X159092003Y-72532484D01*
X159091996Y-72532480D01*
X158846063Y-72414047D01*
X158846065Y-72414047D01*
X158585222Y-72333587D01*
X158585218Y-72333586D01*
X158585214Y-72333585D01*
X158455373Y-72314014D01*
X158315293Y-72292900D01*
X158315288Y-72292900D01*
X158042312Y-72292900D01*
X158042306Y-72292900D01*
X157874208Y-72318237D01*
X157772386Y-72333585D01*
X157772383Y-72333586D01*
X157772377Y-72333587D01*
X157511535Y-72414047D01*
X157265604Y-72532480D01*
X157265603Y-72532481D01*
X157040053Y-72686258D01*
X156839952Y-72871923D01*
X156669752Y-73085348D01*
X156533264Y-73321751D01*
X156433537Y-73575851D01*
X156433531Y-73575870D01*
X156372791Y-73841992D01*
X156372790Y-73841997D01*
X156352393Y-74114195D01*
X136000000Y-74114195D01*
X136000000Y-73000000D01*
X111374500Y-73000000D01*
X111307461Y-72980315D01*
X111261706Y-72927511D01*
X111250500Y-72876000D01*
X111250500Y-71299785D01*
X114400001Y-71299785D01*
X114400002Y-71299808D01*
X114402908Y-71324869D01*
X114402909Y-71324873D01*
X114448211Y-71427474D01*
X114448214Y-71427479D01*
X114527520Y-71506785D01*
X114527525Y-71506788D01*
X114630123Y-71552089D01*
X114655206Y-71554999D01*
X115249999Y-71554999D01*
X116750000Y-71554999D01*
X117344786Y-71554999D01*
X117344808Y-71554997D01*
X117369869Y-71552091D01*
X117369873Y-71552090D01*
X117472474Y-71506788D01*
X117472479Y-71506785D01*
X117551785Y-71427479D01*
X117551788Y-71427474D01*
X117597089Y-71324877D01*
X117597089Y-71324875D01*
X117599999Y-71299794D01*
X117600000Y-71299791D01*
X117600000Y-70705000D01*
X116750000Y-70705000D01*
X116750000Y-71554999D01*
X115249999Y-71554999D01*
X115250000Y-71554998D01*
X115250000Y-70705000D01*
X114400001Y-70705000D01*
X114400001Y-71299785D01*
X111250500Y-71299785D01*
X111250500Y-69890981D01*
X115350000Y-69890981D01*
X115350000Y-70019019D01*
X115374979Y-70144598D01*
X115423978Y-70262890D01*
X115495112Y-70369351D01*
X115585649Y-70459888D01*
X115692110Y-70531022D01*
X115810402Y-70580021D01*
X115935981Y-70605000D01*
X116064019Y-70605000D01*
X116189598Y-70580021D01*
X116307890Y-70531022D01*
X116414351Y-70459888D01*
X116504888Y-70369351D01*
X116576022Y-70262890D01*
X116625021Y-70144598D01*
X116650000Y-70019019D01*
X116650000Y-69890981D01*
X116625021Y-69765402D01*
X116576022Y-69647110D01*
X116504888Y-69540649D01*
X116414351Y-69450112D01*
X116307890Y-69378978D01*
X116189598Y-69329979D01*
X116064019Y-69305000D01*
X115935981Y-69305000D01*
X115810402Y-69329979D01*
X115692110Y-69378978D01*
X115585649Y-69450112D01*
X115495112Y-69540649D01*
X115423978Y-69647110D01*
X115374979Y-69765402D01*
X115350000Y-69890981D01*
X111250500Y-69890981D01*
X111250500Y-68610205D01*
X114400000Y-68610205D01*
X114400000Y-69205000D01*
X115250000Y-69205000D01*
X116750000Y-69205000D01*
X117599999Y-69205000D01*
X117599999Y-68610214D01*
X117599997Y-68610191D01*
X117597091Y-68585130D01*
X117597090Y-68585126D01*
X117551788Y-68482525D01*
X117551785Y-68482520D01*
X117472479Y-68403214D01*
X117472474Y-68403211D01*
X117369876Y-68357910D01*
X117344794Y-68355000D01*
X116750000Y-68355000D01*
X116750000Y-69205000D01*
X115250000Y-69205000D01*
X115250000Y-68355000D01*
X114655214Y-68355000D01*
X114655191Y-68355002D01*
X114630130Y-68357908D01*
X114630126Y-68357909D01*
X114527525Y-68403211D01*
X114527520Y-68403214D01*
X114448214Y-68482520D01*
X114448211Y-68482525D01*
X114402910Y-68585122D01*
X114402910Y-68585124D01*
X114400000Y-68610205D01*
X111250500Y-68610205D01*
X111250500Y-56999999D01*
X128794922Y-56999999D01*
X128794922Y-57000000D01*
X128815219Y-57387287D01*
X128875886Y-57770323D01*
X128875887Y-57770330D01*
X128976262Y-58144936D01*
X129115244Y-58506994D01*
X129291310Y-58852543D01*
X129502531Y-59177793D01*
X129711095Y-59435350D01*
X129711096Y-59435350D01*
X131205748Y-57940698D01*
X131279588Y-58042330D01*
X131457670Y-58220412D01*
X131559300Y-58294251D01*
X130064648Y-59788903D01*
X130064649Y-59788904D01*
X130322206Y-59997468D01*
X130647456Y-60208689D01*
X130993005Y-60384755D01*
X131355063Y-60523737D01*
X131729669Y-60624112D01*
X131729676Y-60624113D01*
X132112712Y-60684780D01*
X132499999Y-60705078D01*
X132500001Y-60705078D01*
X132887287Y-60684780D01*
X133270323Y-60624113D01*
X133270330Y-60624112D01*
X133644936Y-60523737D01*
X134006994Y-60384755D01*
X134352543Y-60208689D01*
X134677783Y-59997476D01*
X134677785Y-59997475D01*
X134935349Y-59788902D01*
X133440698Y-58294251D01*
X133542330Y-58220412D01*
X133720412Y-58042330D01*
X133794251Y-57940698D01*
X135288902Y-59435349D01*
X135497475Y-59177785D01*
X135497476Y-59177783D01*
X135708689Y-58852543D01*
X135884755Y-58506994D01*
X136023737Y-58144936D01*
X136124112Y-57770330D01*
X136124113Y-57770323D01*
X136184780Y-57387287D01*
X136205078Y-57000000D01*
X136205078Y-56999999D01*
X165794922Y-56999999D01*
X165794922Y-57000000D01*
X165815219Y-57387287D01*
X165875886Y-57770323D01*
X165875887Y-57770330D01*
X165976262Y-58144936D01*
X166115244Y-58506994D01*
X166291310Y-58852543D01*
X166502531Y-59177793D01*
X166711095Y-59435350D01*
X166711096Y-59435350D01*
X168205748Y-57940698D01*
X168279588Y-58042330D01*
X168457670Y-58220412D01*
X168559300Y-58294251D01*
X167064648Y-59788903D01*
X167064649Y-59788904D01*
X167322206Y-59997468D01*
X167647456Y-60208689D01*
X167993005Y-60384755D01*
X168355063Y-60523737D01*
X168729669Y-60624112D01*
X168729676Y-60624113D01*
X169112712Y-60684780D01*
X169499999Y-60705078D01*
X169500001Y-60705078D01*
X169887287Y-60684780D01*
X170270323Y-60624113D01*
X170270330Y-60624112D01*
X170644936Y-60523737D01*
X171006994Y-60384755D01*
X171352543Y-60208689D01*
X171677783Y-59997476D01*
X171677785Y-59997475D01*
X171935349Y-59788902D01*
X170440698Y-58294251D01*
X170542330Y-58220412D01*
X170720412Y-58042330D01*
X170794251Y-57940698D01*
X172288902Y-59435349D01*
X172497475Y-59177785D01*
X172497476Y-59177783D01*
X172708689Y-58852543D01*
X172884755Y-58506994D01*
X173023737Y-58144936D01*
X173124112Y-57770330D01*
X173124113Y-57770323D01*
X173184780Y-57387287D01*
X173205078Y-57000000D01*
X173205078Y-56999999D01*
X173184780Y-56612712D01*
X173124113Y-56229676D01*
X173124112Y-56229669D01*
X173023737Y-55855063D01*
X172884755Y-55493005D01*
X172708689Y-55147456D01*
X172497468Y-54822206D01*
X172288904Y-54564649D01*
X172288903Y-54564648D01*
X170794251Y-56059300D01*
X170720412Y-55957670D01*
X170542330Y-55779588D01*
X170440698Y-55705748D01*
X171935350Y-54211096D01*
X171935350Y-54211095D01*
X171677793Y-54002531D01*
X171352543Y-53791310D01*
X171006994Y-53615244D01*
X170644936Y-53476262D01*
X170270330Y-53375887D01*
X170270323Y-53375886D01*
X169887287Y-53315219D01*
X169500001Y-53294922D01*
X169499999Y-53294922D01*
X169112712Y-53315219D01*
X168729676Y-53375886D01*
X168729669Y-53375887D01*
X168355063Y-53476262D01*
X167993005Y-53615244D01*
X167647456Y-53791310D01*
X167322206Y-54002531D01*
X167064648Y-54211095D01*
X167064648Y-54211096D01*
X168559301Y-55705748D01*
X168457670Y-55779588D01*
X168279588Y-55957670D01*
X168205748Y-56059300D01*
X166711096Y-54564648D01*
X166711095Y-54564648D01*
X166502531Y-54822206D01*
X166291310Y-55147456D01*
X166115244Y-55493005D01*
X165976262Y-55855063D01*
X165875887Y-56229669D01*
X165875886Y-56229676D01*
X165815219Y-56612712D01*
X165794922Y-56999999D01*
X136205078Y-56999999D01*
X136184780Y-56612712D01*
X136124113Y-56229676D01*
X136124112Y-56229669D01*
X136023737Y-55855063D01*
X135884755Y-55493005D01*
X135708689Y-55147456D01*
X135497468Y-54822206D01*
X135288904Y-54564649D01*
X135288903Y-54564648D01*
X133794251Y-56059300D01*
X133720412Y-55957670D01*
X133542330Y-55779588D01*
X133440698Y-55705748D01*
X134935350Y-54211096D01*
X134935350Y-54211095D01*
X134677793Y-54002531D01*
X134352543Y-53791310D01*
X134006994Y-53615244D01*
X133644936Y-53476262D01*
X133270330Y-53375887D01*
X133270323Y-53375886D01*
X132887287Y-53315219D01*
X132500001Y-53294922D01*
X132499999Y-53294922D01*
X132112712Y-53315219D01*
X131729676Y-53375886D01*
X131729669Y-53375887D01*
X131355063Y-53476262D01*
X130993005Y-53615244D01*
X130647456Y-53791310D01*
X130322206Y-54002531D01*
X130064648Y-54211095D01*
X130064648Y-54211096D01*
X131559301Y-55705748D01*
X131457670Y-55779588D01*
X131279588Y-55957670D01*
X131205748Y-56059300D01*
X129711096Y-54564648D01*
X129711095Y-54564648D01*
X129502531Y-54822206D01*
X129291310Y-55147456D01*
X129115244Y-55493005D01*
X128976262Y-55855063D01*
X128875887Y-56229669D01*
X128875886Y-56229676D01*
X128815219Y-56612712D01*
X128794922Y-56999999D01*
X111250500Y-56999999D01*
X111250500Y-52624500D01*
X111270185Y-52557461D01*
X111322989Y-52511706D01*
X111374500Y-52500500D01*
X174125500Y-52500500D01*
X174192539Y-52520185D01*
G37*
%TD.AperFunction*%
%TD*%
%TA.AperFunction,Conductor*%
%TO.N,/relay_load_terminal*%
G36*
X162943563Y-77525185D02*
G01*
X162989318Y-77577989D01*
X163000517Y-77628307D01*
X163416158Y-120854913D01*
X163427168Y-121999997D01*
X163427215Y-122004860D01*
X163427215Y-122004866D01*
X163469229Y-126374308D01*
X163450190Y-126441533D01*
X163397829Y-126487794D01*
X163345235Y-126499500D01*
X111374500Y-126499500D01*
X111307461Y-126479815D01*
X111261706Y-126427011D01*
X111250500Y-126375500D01*
X111250500Y-121999997D01*
X128794422Y-121999997D01*
X128814722Y-122387339D01*
X128838271Y-122536024D01*
X128875398Y-122770433D01*
X128907322Y-122889577D01*
X128975788Y-123145094D01*
X129114787Y-123507197D01*
X129290877Y-123852793D01*
X129502122Y-124178082D01*
X129502124Y-124178084D01*
X129746219Y-124479516D01*
X130020484Y-124753781D01*
X130020488Y-124753784D01*
X130321917Y-124997877D01*
X130390346Y-125042315D01*
X130647211Y-125209125D01*
X130992806Y-125385214D01*
X131354913Y-125524214D01*
X131729567Y-125624602D01*
X132112662Y-125685278D01*
X132478576Y-125704455D01*
X132499999Y-125705578D01*
X132500000Y-125705578D01*
X132500001Y-125705578D01*
X132520301Y-125704514D01*
X132887338Y-125685278D01*
X133270433Y-125624602D01*
X133645087Y-125524214D01*
X134007194Y-125385214D01*
X134352789Y-125209125D01*
X134678084Y-124997876D01*
X134979516Y-124753781D01*
X135253781Y-124479516D01*
X135497876Y-124178084D01*
X135709125Y-123852789D01*
X135885214Y-123507194D01*
X136024214Y-123145087D01*
X136124602Y-122770433D01*
X136185278Y-122387338D01*
X136205578Y-122000000D01*
X136185278Y-121612662D01*
X136124602Y-121229567D01*
X136024214Y-120854913D01*
X135885214Y-120492806D01*
X135709125Y-120147211D01*
X135497876Y-119821916D01*
X135253781Y-119520484D01*
X134979516Y-119246219D01*
X134678084Y-119002124D01*
X134678082Y-119002122D01*
X134352793Y-118790877D01*
X134007197Y-118614787D01*
X133645094Y-118475788D01*
X133645087Y-118475786D01*
X133270433Y-118375398D01*
X133270429Y-118375397D01*
X133270428Y-118375397D01*
X132887339Y-118314722D01*
X132500001Y-118294422D01*
X132499999Y-118294422D01*
X132112660Y-118314722D01*
X131729572Y-118375397D01*
X131729570Y-118375397D01*
X131354905Y-118475788D01*
X130992802Y-118614787D01*
X130647206Y-118790877D01*
X130321917Y-119002122D01*
X130020488Y-119246215D01*
X130020480Y-119246222D01*
X129746222Y-119520480D01*
X129746215Y-119520488D01*
X129502122Y-119821917D01*
X129290877Y-120147206D01*
X129114787Y-120492802D01*
X128975788Y-120854905D01*
X128875397Y-121229570D01*
X128875397Y-121229572D01*
X128814722Y-121612660D01*
X128794422Y-121999997D01*
X111250500Y-121999997D01*
X111250500Y-105067245D01*
X115528414Y-105067245D01*
X115748929Y-105120187D01*
X116000000Y-105139947D01*
X116251070Y-105120187D01*
X116471584Y-105067245D01*
X116000001Y-104595660D01*
X116000000Y-104595660D01*
X115528414Y-105067245D01*
X111250500Y-105067245D01*
X111250500Y-103535000D01*
X114395052Y-103535000D01*
X114414812Y-103786072D01*
X114467752Y-104006584D01*
X114467753Y-104006584D01*
X114939339Y-103535000D01*
X114875320Y-103470981D01*
X115350000Y-103470981D01*
X115350000Y-103599019D01*
X115374979Y-103724598D01*
X115423978Y-103842890D01*
X115495112Y-103949351D01*
X115585649Y-104039888D01*
X115692110Y-104111022D01*
X115810402Y-104160021D01*
X115935981Y-104185000D01*
X116064019Y-104185000D01*
X116189598Y-104160021D01*
X116307890Y-104111022D01*
X116414351Y-104039888D01*
X116504888Y-103949351D01*
X116576022Y-103842890D01*
X116625021Y-103724598D01*
X116650000Y-103599019D01*
X116650000Y-103535000D01*
X117060660Y-103535000D01*
X117532245Y-104006584D01*
X117585187Y-103786070D01*
X117604947Y-103535000D01*
X117585187Y-103283929D01*
X117532245Y-103063414D01*
X117060660Y-103535000D01*
X116650000Y-103535000D01*
X116650000Y-103470981D01*
X116625021Y-103345402D01*
X116576022Y-103227110D01*
X116504888Y-103120649D01*
X116414351Y-103030112D01*
X116307890Y-102958978D01*
X116189598Y-102909979D01*
X116064019Y-102885000D01*
X115935981Y-102885000D01*
X115810402Y-102909979D01*
X115692110Y-102958978D01*
X115585649Y-103030112D01*
X115495112Y-103120649D01*
X115423978Y-103227110D01*
X115374979Y-103345402D01*
X115350000Y-103470981D01*
X114875320Y-103470981D01*
X114467753Y-103063414D01*
X114467752Y-103063414D01*
X114414812Y-103283927D01*
X114395052Y-103535000D01*
X111250500Y-103535000D01*
X111250500Y-102002752D01*
X115528414Y-102002752D01*
X115528414Y-102002753D01*
X116000000Y-102474339D01*
X116000001Y-102474339D01*
X116471584Y-102002753D01*
X116471584Y-102002752D01*
X116251072Y-101949812D01*
X116000000Y-101930052D01*
X115748927Y-101949812D01*
X115528414Y-102002752D01*
X111250500Y-102002752D01*
X111250500Y-101624000D01*
X111270185Y-101556961D01*
X111322989Y-101511206D01*
X111374500Y-101500000D01*
X136000000Y-101500000D01*
X136000000Y-96974199D01*
X142864986Y-96974199D01*
X142864986Y-96974200D01*
X142885401Y-97207546D01*
X142885403Y-97207556D01*
X142946025Y-97433803D01*
X142946027Y-97433807D01*
X142946028Y-97433811D01*
X143045023Y-97646107D01*
X143179379Y-97837987D01*
X143345013Y-98003621D01*
X143536893Y-98137977D01*
X143749189Y-98236972D01*
X143975449Y-98297598D01*
X144162129Y-98313930D01*
X144208799Y-98318014D01*
X144208800Y-98318014D01*
X144208801Y-98318014D01*
X144247691Y-98314611D01*
X144442151Y-98297598D01*
X144668411Y-98236972D01*
X144880707Y-98137977D01*
X145072587Y-98003621D01*
X145238221Y-97837987D01*
X145372577Y-97646107D01*
X145471572Y-97433811D01*
X145532198Y-97207551D01*
X145552614Y-96974200D01*
X145552614Y-96974199D01*
X153024986Y-96974199D01*
X153024986Y-96974200D01*
X153045401Y-97207546D01*
X153045403Y-97207556D01*
X153106025Y-97433803D01*
X153106027Y-97433807D01*
X153106028Y-97433811D01*
X153205023Y-97646107D01*
X153339379Y-97837987D01*
X153505013Y-98003621D01*
X153696893Y-98137977D01*
X153909189Y-98236972D01*
X154135449Y-98297598D01*
X154322129Y-98313930D01*
X154368799Y-98318014D01*
X154368800Y-98318014D01*
X154368801Y-98318014D01*
X154407691Y-98314611D01*
X154602151Y-98297598D01*
X154828411Y-98236972D01*
X155040707Y-98137977D01*
X155232587Y-98003621D01*
X155398221Y-97837987D01*
X155532577Y-97646107D01*
X155631572Y-97433811D01*
X155692198Y-97207551D01*
X155712614Y-96974200D01*
X155692198Y-96740849D01*
X155631572Y-96514589D01*
X155532577Y-96302293D01*
X155398221Y-96110413D01*
X155232587Y-95944779D01*
X155040707Y-95810423D01*
X154828411Y-95711428D01*
X154828407Y-95711427D01*
X154828403Y-95711425D01*
X154602156Y-95650803D01*
X154602146Y-95650801D01*
X154368801Y-95630386D01*
X154368799Y-95630386D01*
X154135453Y-95650801D01*
X154135443Y-95650803D01*
X153909196Y-95711425D01*
X153909189Y-95711427D01*
X153909189Y-95711428D01*
X153696893Y-95810423D01*
X153505013Y-95944779D01*
X153505011Y-95944780D01*
X153505008Y-95944783D01*
X153339383Y-96110408D01*
X153205023Y-96302293D01*
X153106029Y-96514587D01*
X153106025Y-96514596D01*
X153045403Y-96740843D01*
X153045401Y-96740853D01*
X153024986Y-96974199D01*
X145552614Y-96974199D01*
X145532198Y-96740849D01*
X145471572Y-96514589D01*
X145372577Y-96302293D01*
X145238221Y-96110413D01*
X145072587Y-95944779D01*
X144880707Y-95810423D01*
X144668411Y-95711428D01*
X144668407Y-95711427D01*
X144668403Y-95711425D01*
X144442156Y-95650803D01*
X144442146Y-95650801D01*
X144208801Y-95630386D01*
X144208799Y-95630386D01*
X143975453Y-95650801D01*
X143975443Y-95650803D01*
X143749196Y-95711425D01*
X143749189Y-95711427D01*
X143749189Y-95711428D01*
X143536893Y-95810423D01*
X143345013Y-95944779D01*
X143345011Y-95944780D01*
X143345008Y-95944783D01*
X143179383Y-96110408D01*
X143045023Y-96302293D01*
X142946029Y-96514587D01*
X142946025Y-96514596D01*
X142885403Y-96740843D01*
X142885401Y-96740853D01*
X142864986Y-96974199D01*
X136000000Y-96974199D01*
X136000000Y-92624500D01*
X136019685Y-92557461D01*
X136072489Y-92511706D01*
X136124000Y-92500500D01*
X138118097Y-92500500D01*
X138351368Y-92463553D01*
X138575992Y-92390568D01*
X138786433Y-92283343D01*
X138977510Y-92144517D01*
X139144517Y-91977510D01*
X139283343Y-91786433D01*
X139390568Y-91575992D01*
X139463553Y-91351368D01*
X139500500Y-91118097D01*
X139500500Y-90881902D01*
X139463553Y-90648631D01*
X139390566Y-90424003D01*
X139283342Y-90213566D01*
X139144517Y-90022490D01*
X138977510Y-89855483D01*
X138786433Y-89716657D01*
X138575996Y-89609433D01*
X138351368Y-89536446D01*
X138118097Y-89499500D01*
X138118092Y-89499500D01*
X136124000Y-89499500D01*
X136056961Y-89479815D01*
X136011206Y-89427011D01*
X136000000Y-89375500D01*
X136000000Y-84274195D01*
X138572393Y-84274195D01*
X138572393Y-84274204D01*
X138592790Y-84546402D01*
X138592791Y-84546407D01*
X138653531Y-84812529D01*
X138653537Y-84812548D01*
X138753264Y-85066648D01*
X138753263Y-85066648D01*
X138817652Y-85178172D01*
X138889752Y-85303052D01*
X139027218Y-85475428D01*
X139059952Y-85516476D01*
X139183164Y-85630799D01*
X139260054Y-85702142D01*
X139485597Y-85855915D01*
X139485602Y-85855917D01*
X139485603Y-85855918D01*
X139485604Y-85855919D01*
X139616223Y-85918821D01*
X139731535Y-85974352D01*
X139731536Y-85974352D01*
X139731539Y-85974354D01*
X139992386Y-86054815D01*
X140262312Y-86095500D01*
X140262313Y-86095500D01*
X140535287Y-86095500D01*
X140535288Y-86095500D01*
X140805214Y-86054815D01*
X141066061Y-85974354D01*
X141312004Y-85855915D01*
X141537546Y-85702142D01*
X141737651Y-85516472D01*
X141907848Y-85303052D01*
X142044336Y-85066648D01*
X142144065Y-84812543D01*
X142204808Y-84546412D01*
X142225207Y-84274200D01*
X142204808Y-84001988D01*
X142144065Y-83735857D01*
X142044336Y-83481752D01*
X142044335Y-83481751D01*
X142044336Y-83481751D01*
X141962493Y-83339996D01*
X141907848Y-83245348D01*
X141737651Y-83031928D01*
X141737650Y-83031927D01*
X141737647Y-83031923D01*
X141608724Y-82912301D01*
X141537546Y-82846258D01*
X141414281Y-82762217D01*
X141312007Y-82692487D01*
X141311996Y-82692480D01*
X141066063Y-82574047D01*
X141066065Y-82574047D01*
X140805222Y-82493587D01*
X140805218Y-82493586D01*
X140805214Y-82493585D01*
X140675373Y-82474014D01*
X140535293Y-82452900D01*
X140535288Y-82452900D01*
X140262312Y-82452900D01*
X140262306Y-82452900D01*
X140094208Y-82478237D01*
X139992386Y-82493585D01*
X139992383Y-82493586D01*
X139992377Y-82493587D01*
X139731535Y-82574047D01*
X139485604Y-82692480D01*
X139485603Y-82692481D01*
X139260053Y-82846258D01*
X139059952Y-83031923D01*
X138889752Y-83245348D01*
X138753264Y-83481751D01*
X138653537Y-83735851D01*
X138653531Y-83735870D01*
X138592791Y-84001992D01*
X138592790Y-84001997D01*
X138572393Y-84274195D01*
X136000000Y-84274195D01*
X136000000Y-81734200D01*
X156552988Y-81734200D01*
X156573003Y-81988529D01*
X156629302Y-82223035D01*
X156629303Y-82223035D01*
X157112000Y-81740339D01*
X157112000Y-81839271D01*
X157152996Y-82045374D01*
X157233414Y-82239519D01*
X157350162Y-82414245D01*
X157498755Y-82562838D01*
X157673481Y-82679586D01*
X157867626Y-82760004D01*
X158073729Y-82801000D01*
X158172660Y-82801000D01*
X157689963Y-83283694D01*
X157689963Y-83283695D01*
X157924472Y-83339996D01*
X158178800Y-83360011D01*
X158433127Y-83339996D01*
X158667635Y-83283695D01*
X158184941Y-82801000D01*
X158283871Y-82801000D01*
X158489974Y-82760004D01*
X158684119Y-82679586D01*
X158858845Y-82562838D01*
X159007438Y-82414245D01*
X159124186Y-82239519D01*
X159204604Y-82045374D01*
X159245600Y-81839271D01*
X159245600Y-81740340D01*
X159728295Y-82223035D01*
X159784596Y-81988527D01*
X159804611Y-81734200D01*
X159784596Y-81479872D01*
X159728295Y-81245363D01*
X159728294Y-81245363D01*
X159245600Y-81728058D01*
X159245600Y-81629129D01*
X159204604Y-81423026D01*
X159124186Y-81228881D01*
X159007438Y-81054155D01*
X158858845Y-80905562D01*
X158684119Y-80788814D01*
X158489974Y-80708396D01*
X158283871Y-80667400D01*
X158184941Y-80667400D01*
X158667635Y-80184703D01*
X158667635Y-80184702D01*
X158433129Y-80128403D01*
X158178800Y-80108388D01*
X157924470Y-80128403D01*
X157689963Y-80184702D01*
X157689963Y-80184703D01*
X158172660Y-80667400D01*
X158073729Y-80667400D01*
X157867626Y-80708396D01*
X157673481Y-80788814D01*
X157498755Y-80905562D01*
X157350162Y-81054155D01*
X157233414Y-81228881D01*
X157152996Y-81423026D01*
X157112000Y-81629129D01*
X157112000Y-81728060D01*
X156629303Y-81245363D01*
X156629302Y-81245363D01*
X156573003Y-81479870D01*
X156552988Y-81734200D01*
X136000000Y-81734200D01*
X136000000Y-77629500D01*
X136019685Y-77562461D01*
X136072489Y-77516706D01*
X136124000Y-77505500D01*
X162876524Y-77505500D01*
X162943563Y-77525185D01*
G37*
%TD.AperFunction*%
%TD*%
%TA.AperFunction,Conductor*%
%TO.N,+BATT*%
G36*
X115999999Y-73974338D02*
G01*
X116474338Y-73500000D01*
X117212816Y-73500000D01*
X135376000Y-73500000D01*
X135443039Y-73519685D01*
X135488794Y-73572489D01*
X135500000Y-73624000D01*
X135500000Y-89375500D01*
X135480315Y-89442539D01*
X135427511Y-89488294D01*
X135376000Y-89499500D01*
X132234714Y-89499500D01*
X132167675Y-89479815D01*
X132160398Y-89474763D01*
X132145684Y-89463747D01*
X132103816Y-89407811D01*
X132096000Y-89364484D01*
X132096000Y-85635514D01*
X132115685Y-85568475D01*
X132145685Y-85536250D01*
X132210346Y-85487846D01*
X132296596Y-85372631D01*
X132346891Y-85237783D01*
X132353300Y-85178173D01*
X132353299Y-82821828D01*
X132346891Y-82762217D01*
X132296596Y-82627369D01*
X132296595Y-82627368D01*
X132296593Y-82627364D01*
X132210347Y-82512155D01*
X132210344Y-82512152D01*
X132095135Y-82425906D01*
X132095128Y-82425902D01*
X131960282Y-82375608D01*
X131960283Y-82375608D01*
X131900683Y-82369201D01*
X131900681Y-82369200D01*
X131900673Y-82369200D01*
X131900665Y-82369200D01*
X129411400Y-82369200D01*
X129344361Y-82349515D01*
X129298606Y-82296711D01*
X129287400Y-82245200D01*
X129287400Y-82069600D01*
X127712600Y-82069600D01*
X127712600Y-82445700D01*
X127692915Y-82512739D01*
X127640111Y-82558494D01*
X127588600Y-82569700D01*
X127154500Y-82569700D01*
X127154500Y-85430299D01*
X127588600Y-85430299D01*
X127655639Y-85449984D01*
X127701394Y-85502788D01*
X127712600Y-85554299D01*
X127712600Y-85930400D01*
X128971000Y-85930400D01*
X129038039Y-85950085D01*
X129083794Y-86002889D01*
X129095000Y-86054400D01*
X129095000Y-88945600D01*
X129075315Y-89012639D01*
X129022511Y-89058394D01*
X128971000Y-89069600D01*
X127712600Y-89069600D01*
X127712600Y-89245200D01*
X127692915Y-89312239D01*
X127640111Y-89357994D01*
X127588600Y-89369200D01*
X126542590Y-89369200D01*
X126475551Y-89349515D01*
X126454909Y-89332881D01*
X123977512Y-86855485D01*
X123977511Y-86855484D01*
X123786434Y-86716657D01*
X123575996Y-86609433D01*
X123351368Y-86536446D01*
X123118097Y-86499500D01*
X123118092Y-86499500D01*
X122881908Y-86499500D01*
X122881903Y-86499500D01*
X122648631Y-86536446D01*
X122424003Y-86609433D01*
X122213565Y-86716657D01*
X122022488Y-86855484D01*
X121855484Y-87022488D01*
X121716657Y-87213565D01*
X121609433Y-87424003D01*
X121536446Y-87648631D01*
X121499500Y-87881902D01*
X121499500Y-88118097D01*
X121536446Y-88351368D01*
X121609433Y-88575996D01*
X121716657Y-88786434D01*
X121855484Y-88977511D01*
X121855485Y-88977512D01*
X124610381Y-91732409D01*
X124643866Y-91793732D01*
X124646700Y-91820090D01*
X124646700Y-92178169D01*
X124646701Y-92178176D01*
X124653108Y-92237783D01*
X124703402Y-92372628D01*
X124703406Y-92372635D01*
X124789652Y-92487844D01*
X124789655Y-92487847D01*
X124904864Y-92574093D01*
X124904871Y-92574097D01*
X125039717Y-92624391D01*
X125039716Y-92624391D01*
X125046644Y-92625135D01*
X125099327Y-92630800D01*
X127588600Y-92630799D01*
X127655639Y-92650484D01*
X127701394Y-92703287D01*
X127712600Y-92754799D01*
X127712600Y-92930400D01*
X129287400Y-92930400D01*
X129287400Y-92754799D01*
X129307085Y-92687760D01*
X129359889Y-92642005D01*
X129411395Y-92630799D01*
X131900672Y-92630799D01*
X131960283Y-92624391D01*
X132095131Y-92574096D01*
X132160402Y-92525233D01*
X132225865Y-92500816D01*
X132234713Y-92500500D01*
X135376000Y-92500500D01*
X135443039Y-92520185D01*
X135488794Y-92572989D01*
X135500000Y-92624500D01*
X135500000Y-100876000D01*
X135480315Y-100943039D01*
X135427511Y-100988794D01*
X135376000Y-101000000D01*
X111374500Y-101000000D01*
X111307461Y-100980315D01*
X111261706Y-100927511D01*
X111250500Y-100876000D01*
X111250500Y-99799785D01*
X114400001Y-99799785D01*
X114400002Y-99799808D01*
X114402908Y-99824869D01*
X114402909Y-99824873D01*
X114448211Y-99927474D01*
X114448214Y-99927479D01*
X114527520Y-100006785D01*
X114527525Y-100006788D01*
X114630123Y-100052089D01*
X114655206Y-100054999D01*
X115249999Y-100054999D01*
X116750000Y-100054999D01*
X117344786Y-100054999D01*
X117344808Y-100054997D01*
X117369869Y-100052091D01*
X117369873Y-100052090D01*
X117472474Y-100006788D01*
X117472479Y-100006785D01*
X117551785Y-99927479D01*
X117551788Y-99927474D01*
X117597089Y-99824877D01*
X117597089Y-99824875D01*
X117599999Y-99799794D01*
X117600000Y-99799791D01*
X117600000Y-99205000D01*
X116750000Y-99205000D01*
X116750000Y-100054999D01*
X115249999Y-100054999D01*
X115250000Y-100054998D01*
X115250000Y-99205000D01*
X114400001Y-99205000D01*
X114400001Y-99799785D01*
X111250500Y-99799785D01*
X111250500Y-98390981D01*
X115350000Y-98390981D01*
X115350000Y-98519019D01*
X115374979Y-98644598D01*
X115423978Y-98762890D01*
X115495112Y-98869351D01*
X115585649Y-98959888D01*
X115692110Y-99031022D01*
X115810402Y-99080021D01*
X115935981Y-99105000D01*
X116064019Y-99105000D01*
X116189598Y-99080021D01*
X116307890Y-99031022D01*
X116414351Y-98959888D01*
X116504888Y-98869351D01*
X116576022Y-98762890D01*
X116625021Y-98644598D01*
X116650000Y-98519019D01*
X116650000Y-98390981D01*
X116625021Y-98265402D01*
X116576022Y-98147110D01*
X116504888Y-98040649D01*
X116414351Y-97950112D01*
X116307890Y-97878978D01*
X116189598Y-97829979D01*
X116064019Y-97805000D01*
X115935981Y-97805000D01*
X115810402Y-97829979D01*
X115692110Y-97878978D01*
X115585649Y-97950112D01*
X115495112Y-98040649D01*
X115423978Y-98147110D01*
X115374979Y-98265402D01*
X115350000Y-98390981D01*
X111250500Y-98390981D01*
X111250500Y-97110205D01*
X114400000Y-97110205D01*
X114400000Y-97705000D01*
X115250000Y-97705000D01*
X116750000Y-97705000D01*
X117599999Y-97705000D01*
X117599999Y-97110214D01*
X117599997Y-97110191D01*
X117597091Y-97085130D01*
X117597090Y-97085126D01*
X117551788Y-96982525D01*
X117551785Y-96982520D01*
X117472479Y-96903214D01*
X117472474Y-96903211D01*
X117369876Y-96857910D01*
X117344794Y-96855000D01*
X116750000Y-96855000D01*
X116750000Y-97705000D01*
X115250000Y-97705000D01*
X115250000Y-96855000D01*
X114655214Y-96855000D01*
X114655191Y-96855002D01*
X114630130Y-96857908D01*
X114630126Y-96857909D01*
X114527525Y-96903211D01*
X114527520Y-96903214D01*
X114448214Y-96982520D01*
X114448211Y-96982525D01*
X114402910Y-97085122D01*
X114402910Y-97085124D01*
X114400000Y-97110205D01*
X111250500Y-97110205D01*
X111250500Y-85175085D01*
X124847201Y-85175085D01*
X124847202Y-85175108D01*
X124850108Y-85200169D01*
X124850109Y-85200173D01*
X124895411Y-85302774D01*
X124895414Y-85302779D01*
X124974720Y-85382085D01*
X124974725Y-85382088D01*
X125077323Y-85427389D01*
X125102406Y-85430299D01*
X125654499Y-85430299D01*
X125654500Y-85430298D01*
X125654500Y-84750000D01*
X124847201Y-84750000D01*
X124847201Y-85175085D01*
X111250500Y-85175085D01*
X111250500Y-82824905D01*
X124847200Y-82824905D01*
X124847200Y-83250000D01*
X125654500Y-83250000D01*
X125654500Y-82569700D01*
X125102414Y-82569700D01*
X125102391Y-82569702D01*
X125077330Y-82572608D01*
X125077326Y-82572609D01*
X124974725Y-82617911D01*
X124974720Y-82617914D01*
X124895414Y-82697220D01*
X124895411Y-82697225D01*
X124850110Y-82799822D01*
X124850110Y-82799824D01*
X124847200Y-82824905D01*
X111250500Y-82824905D01*
X111250500Y-76800109D01*
X115295549Y-76800109D01*
X115463347Y-76862694D01*
X115728902Y-76920462D01*
X115728909Y-76920463D01*
X115999999Y-76939853D01*
X116000001Y-76939853D01*
X116271090Y-76920463D01*
X116271097Y-76920462D01*
X116536652Y-76862694D01*
X116704449Y-76800110D01*
X116704449Y-76800109D01*
X116000001Y-76095660D01*
X116000000Y-76095660D01*
X115295549Y-76800109D01*
X111250500Y-76800109D01*
X111250500Y-75034998D01*
X114095147Y-75034998D01*
X114095147Y-75035001D01*
X114114536Y-75306090D01*
X114114537Y-75306097D01*
X114172306Y-75571657D01*
X114234889Y-75739448D01*
X114234890Y-75739449D01*
X114939339Y-75035000D01*
X114939339Y-75034999D01*
X114875321Y-74970981D01*
X115350000Y-74970981D01*
X115350000Y-75099019D01*
X115374979Y-75224598D01*
X115423978Y-75342890D01*
X115495112Y-75449351D01*
X115585649Y-75539888D01*
X115692110Y-75611022D01*
X115810402Y-75660021D01*
X115935981Y-75685000D01*
X116064019Y-75685000D01*
X116189598Y-75660021D01*
X116307890Y-75611022D01*
X116414351Y-75539888D01*
X116504888Y-75449351D01*
X116576022Y-75342890D01*
X116625021Y-75224598D01*
X116650000Y-75099019D01*
X116650000Y-75034999D01*
X117060660Y-75034999D01*
X117060660Y-75035000D01*
X117765109Y-75739449D01*
X117765110Y-75739449D01*
X117827694Y-75571652D01*
X117885462Y-75306097D01*
X117885463Y-75306090D01*
X117904853Y-75035001D01*
X117904853Y-75034998D01*
X117885463Y-74763909D01*
X117885462Y-74763902D01*
X117827694Y-74498347D01*
X117765109Y-74330549D01*
X117060660Y-75034999D01*
X116650000Y-75034999D01*
X116650000Y-74970981D01*
X116625021Y-74845402D01*
X116576022Y-74727110D01*
X116504888Y-74620649D01*
X116414351Y-74530112D01*
X116307890Y-74458978D01*
X116189598Y-74409979D01*
X116064019Y-74385000D01*
X115935981Y-74385000D01*
X115810402Y-74409979D01*
X115692110Y-74458978D01*
X115585649Y-74530112D01*
X115495112Y-74620649D01*
X115423978Y-74727110D01*
X115374979Y-74845402D01*
X115350000Y-74970981D01*
X114875321Y-74970981D01*
X114234889Y-74330550D01*
X114172307Y-74498339D01*
X114114537Y-74763902D01*
X114114536Y-74763909D01*
X114095147Y-75034998D01*
X111250500Y-75034998D01*
X111250500Y-73624000D01*
X111270185Y-73556961D01*
X111322989Y-73511206D01*
X111374500Y-73500000D01*
X114787184Y-73500000D01*
X115525661Y-73500000D01*
X115999999Y-73974338D01*
G37*
%TD.AperFunction*%
%TD*%
M02*
