%TF.GenerationSoftware,KiCad,Pcbnew,8.0.4*%
%TF.CreationDate,2025-06-08T20:42:27-04:00*%
%TF.ProjectId,12V-48V_Boost_Board,3132562d-3438-4565-9f42-6f6f73745f42,rev?*%
%TF.SameCoordinates,Original*%
%TF.FileFunction,Copper,L2,Bot*%
%TF.FilePolarity,Positive*%
%FSLAX46Y46*%
G04 Gerber Fmt 4.6, Leading zero omitted, Abs format (unit mm)*
G04 Created by KiCad (PCBNEW 8.0.4) date 2025-06-08 20:42:27*
%MOMM*%
%LPD*%
G01*
G04 APERTURE LIST*
%TA.AperFunction,ComponentPad*%
%ADD10C,2.600000*%
%TD*%
%TA.AperFunction,ComponentPad*%
%ADD11R,2.600000X2.600000*%
%TD*%
%TA.AperFunction,ComponentPad*%
%ADD12C,6.400000*%
%TD*%
%TA.AperFunction,ComponentPad*%
%ADD13C,2.800000*%
%TD*%
%TA.AperFunction,ComponentPad*%
%ADD14O,2.800000X2.800000*%
%TD*%
%TA.AperFunction,ComponentPad*%
%ADD15C,2.500000*%
%TD*%
%TA.AperFunction,ViaPad*%
%ADD16C,0.600000*%
%TD*%
%TA.AperFunction,ViaPad*%
%ADD17C,0.762000*%
%TD*%
%TA.AperFunction,Conductor*%
%ADD18C,0.406400*%
%TD*%
G04 APERTURE END LIST*
D10*
%TO.P,J4,2,Pin_2*%
%TO.N,Net-(J4-Pin_2)*%
X134540000Y-139192000D03*
D11*
%TO.P,J4,1,Pin_1*%
%TO.N,GND*%
X129540000Y-139192000D03*
%TD*%
%TO.P,J3,1,Pin_1*%
%TO.N,GND*%
X166000000Y-133500000D03*
D10*
%TO.P,J3,2,Pin_2*%
%TO.N,Net-(J3-Pin_2)*%
X166000000Y-128500000D03*
%TD*%
D12*
%TO.P,H4,1,1*%
%TO.N,GND*%
X110744000Y-72136000D03*
%TD*%
D11*
%TO.P,J6,1,Pin_1*%
%TO.N,GND*%
X130400000Y-74100000D03*
D10*
%TO.P,J6,2,Pin_2*%
%TO.N,Net-(J6-Pin_2)*%
X125400000Y-74100000D03*
%TD*%
D13*
%TO.P,TH1,1*%
%TO.N,Net-(F1-Pad2)*%
X147828000Y-105156000D03*
D14*
%TO.P,TH1,2*%
%TO.N,/Boost_Board_Chip/12V_INPUT*%
X147828000Y-97356000D03*
%TD*%
D12*
%TO.P,H1,1,1*%
%TO.N,GND*%
X167640000Y-72136000D03*
%TD*%
D15*
%TO.P,F1,1*%
%TO.N,/IN-*%
X163779000Y-97790000D03*
%TO.P,F1,2*%
%TO.N,Net-(F1-Pad2)*%
X160325000Y-105410000D03*
%TD*%
D12*
%TO.P,H3,1,1*%
%TO.N,GND*%
X110744000Y-140716000D03*
%TD*%
%TO.P,H2,1,1*%
%TO.N,GND*%
X167640000Y-140716000D03*
%TD*%
D11*
%TO.P,J1,1,Pin_1*%
%TO.N,+12V*%
X147788000Y-74100000D03*
D10*
%TO.P,J1,2,Pin_2*%
%TO.N,GND*%
X142788000Y-74100000D03*
%TD*%
D11*
%TO.P,J5,1,Pin_1*%
%TO.N,GND*%
X118364000Y-139192000D03*
D10*
%TO.P,J5,2,Pin_2*%
%TO.N,Net-(J5-Pin_2)*%
X123364000Y-139192000D03*
%TD*%
D16*
%TO.N,GND*%
X142900000Y-81200000D03*
X124700000Y-81200000D03*
X129200000Y-77600000D03*
X138400000Y-70900000D03*
D17*
X170000000Y-127500000D03*
X148500000Y-132600000D03*
D16*
X156305400Y-69906400D03*
X154700000Y-75100000D03*
X156800000Y-134000000D03*
X163300000Y-133500000D03*
%TO.N,Net-(J3-Pin_2)*%
X158900000Y-139100000D03*
X157500000Y-140300000D03*
%TO.N,GND*%
X156700000Y-139900000D03*
D17*
X146000000Y-132500000D03*
X143500000Y-132500000D03*
X148500000Y-130000000D03*
X146000000Y-130000000D03*
X143500000Y-130000000D03*
X148500000Y-127500000D03*
X146000000Y-127500000D03*
X143500000Y-127500000D03*
X148500000Y-125000000D03*
X146000000Y-125000000D03*
X143500000Y-125000000D03*
%TO.N,Net-(Q1-G)*%
X141329798Y-113000000D03*
%TO.N,/Boost_Board_Chip/DITHOFF*%
X150688084Y-116700000D03*
X156619587Y-120017082D03*
%TO.N,Net-(C8-Pad1)*%
X130816149Y-112287400D03*
%TO.N,GND*%
X120000000Y-82500000D03*
X118700000Y-82900000D03*
X148500000Y-119521601D03*
X120500000Y-75000000D03*
X112000000Y-79000000D03*
X114700000Y-70000000D03*
%TO.N,+12V*%
X146144000Y-71856000D03*
X145000000Y-69212600D03*
%TO.N,GND*%
X146000000Y-117000000D03*
X146000000Y-114500000D03*
X134500000Y-116000000D03*
X133000000Y-116000000D03*
X134500000Y-114500000D03*
X133000000Y-114500000D03*
X134500000Y-113000000D03*
X133000000Y-113000000D03*
X143500000Y-123000000D03*
%TO.N,Net-(C8-Pad1)*%
X140364595Y-113000000D03*
%TO.N,Net-(Q1-G)*%
X130794999Y-111194999D03*
%TO.N,GND*%
X143500000Y-121000000D03*
X123400000Y-130900000D03*
X123000000Y-129000000D03*
X123000000Y-125000000D03*
X123000000Y-121500000D03*
X146000000Y-112000000D03*
X134500000Y-94000000D03*
X138500000Y-110000000D03*
X138500000Y-106000000D03*
X130500000Y-94000000D03*
X126500000Y-94000000D03*
X122500000Y-94000000D03*
X134500000Y-110000000D03*
X130500000Y-110000000D03*
X126500000Y-110000000D03*
X122500000Y-110000000D03*
X134500000Y-106000000D03*
X130500000Y-106000000D03*
X126500000Y-106000000D03*
X122500000Y-106000000D03*
X134500000Y-102000000D03*
X130500000Y-102000000D03*
X126500000Y-102000000D03*
X122500000Y-102000000D03*
X130500000Y-98000000D03*
X126500000Y-98000000D03*
X122500000Y-98000000D03*
X154000000Y-99500000D03*
X154000000Y-88000000D03*
X169500000Y-85000000D03*
X168500000Y-77500000D03*
X153500000Y-112500000D03*
X170500000Y-113000000D03*
X114500000Y-133000000D03*
X110500000Y-126500000D03*
X110500000Y-118500000D03*
X110500000Y-110500000D03*
X110500000Y-102500000D03*
X110500000Y-94500000D03*
X109000000Y-82000000D03*
D16*
%TO.N,/Boost_Board_Chip/12V_INPUT*%
X116840000Y-96012000D03*
X146304000Y-110744000D03*
%TO.N,GND*%
X155895936Y-116205000D03*
X154362712Y-121428338D03*
X153730920Y-118638535D03*
X155575000Y-121428338D03*
X156519852Y-118734202D03*
X154305000Y-116205000D03*
%TO.N,Net-(U1-FB)*%
X160505002Y-119384202D03*
X168275000Y-118054200D03*
D17*
%TO.N,GND*%
X170000000Y-107500000D03*
X165000000Y-107500000D03*
X170000000Y-102500000D03*
X165000000Y-102500000D03*
X170000000Y-93000000D03*
X109000000Y-90000000D03*
%TD*%
D18*
%TO.N,+12V*%
X145000000Y-70712000D02*
X145000000Y-69212600D01*
X146144000Y-71856000D02*
X145000000Y-70712000D01*
%TO.N,Net-(J3-Pin_2)*%
X157700000Y-140300000D02*
X158900000Y-139100000D01*
X157500000Y-140300000D02*
X157700000Y-140300000D01*
%TO.N,/Boost_Board_Chip/DITHOFF*%
X154005166Y-120017082D02*
X150688084Y-116700000D01*
X156619587Y-120017082D02*
X154005166Y-120017082D01*
%TO.N,Net-(Q1-G)*%
X141329798Y-112329798D02*
X141329798Y-113000000D01*
X140000000Y-111000000D02*
X141329798Y-112329798D01*
X130794999Y-111194999D02*
X130989998Y-111000000D01*
X130989998Y-111000000D02*
X140000000Y-111000000D01*
%TO.N,Net-(C8-Pad1)*%
X140364595Y-112226699D02*
X140364595Y-113000000D01*
X140318948Y-112181052D02*
X140364595Y-112226699D01*
X139747496Y-111609600D02*
X140318948Y-112181052D01*
X134109600Y-111609600D02*
X139747496Y-111609600D01*
X131493949Y-111609600D02*
X134109600Y-111609600D01*
X130816149Y-112287400D02*
X131493949Y-111609600D01*
%TO.N,/Boost_Board_Chip/12V_INPUT*%
X131572000Y-96012000D02*
X146304000Y-110744000D01*
X116840000Y-96012000D02*
X131572000Y-96012000D01*
%TO.N,Net-(U1-FB)*%
X166944998Y-119384202D02*
X168275000Y-118054200D01*
X160505002Y-119384202D02*
X166944998Y-119384202D01*
%TD*%
%TA.AperFunction,Conductor*%
%TO.N,GND*%
G36*
X109523588Y-141758330D02*
G01*
X109701670Y-141936412D01*
X109803300Y-142010251D01*
X108308648Y-143504903D01*
X108308649Y-143504904D01*
X108566206Y-143713468D01*
X108891456Y-143924689D01*
X109127609Y-144045015D01*
X109178405Y-144092989D01*
X109195200Y-144160810D01*
X109172663Y-144226945D01*
X109117948Y-144270397D01*
X109071314Y-144279500D01*
X107702961Y-144279500D01*
X107689078Y-144278720D01*
X107595174Y-144268140D01*
X107568102Y-144261961D01*
X107485523Y-144233065D01*
X107460506Y-144221018D01*
X107386419Y-144174466D01*
X107364710Y-144157153D01*
X107302847Y-144095290D01*
X107285534Y-144073581D01*
X107238982Y-143999494D01*
X107226937Y-143974481D01*
X107198037Y-143891892D01*
X107191861Y-143864834D01*
X107181290Y-143771018D01*
X107180511Y-143756988D01*
X107182412Y-142392264D01*
X107202190Y-142325254D01*
X107255058Y-142279573D01*
X107324230Y-142269726D01*
X107387745Y-142298839D01*
X107416897Y-142336144D01*
X107535310Y-142568543D01*
X107746531Y-142893793D01*
X107955095Y-143151350D01*
X107955096Y-143151350D01*
X109449748Y-141656698D01*
X109523588Y-141758330D01*
G37*
%TD.AperFunction*%
%TA.AperFunction,Conductor*%
G36*
X144575467Y-68592185D02*
G01*
X144621222Y-68644989D01*
X144631166Y-68714147D01*
X144602141Y-68777703D01*
X144583914Y-68794876D01*
X144582987Y-68795587D01*
X144489266Y-68917726D01*
X144430350Y-69059962D01*
X144430349Y-69059964D01*
X144410255Y-69212598D01*
X144410255Y-69212601D01*
X144430349Y-69365235D01*
X144430350Y-69365237D01*
X144489266Y-69507473D01*
X144567477Y-69609400D01*
X144592670Y-69674566D01*
X144593100Y-69684884D01*
X144593100Y-70765567D01*
X144593099Y-70765567D01*
X144620830Y-70869058D01*
X144674398Y-70961841D01*
X144674400Y-70961844D01*
X145522322Y-71809766D01*
X145555807Y-71871089D01*
X145557580Y-71881261D01*
X145569602Y-71972574D01*
X145574350Y-72008637D01*
X145633266Y-72150873D01*
X145726987Y-72273013D01*
X145849127Y-72366734D01*
X145991363Y-72425650D01*
X146039186Y-72431946D01*
X146143999Y-72445745D01*
X146144000Y-72445745D01*
X146248810Y-72431946D01*
X146317843Y-72442711D01*
X146370099Y-72489091D01*
X146388985Y-72556360D01*
X146368505Y-72623160D01*
X146348530Y-72643258D01*
X146349776Y-72644504D01*
X146341142Y-72653137D01*
X146296118Y-72720520D01*
X146296117Y-72720523D01*
X146284300Y-72779933D01*
X146284300Y-72779936D01*
X146284300Y-75420064D01*
X146284300Y-75420066D01*
X146284299Y-75420066D01*
X146296117Y-75479476D01*
X146296118Y-75479479D01*
X146296119Y-75479480D01*
X146341140Y-75546860D01*
X146405376Y-75589780D01*
X146408520Y-75591881D01*
X146408523Y-75591882D01*
X146467933Y-75603700D01*
X146467936Y-75603700D01*
X149108066Y-75603700D01*
X149167476Y-75591882D01*
X149167477Y-75591881D01*
X149167480Y-75591881D01*
X149234860Y-75546860D01*
X149279881Y-75479480D01*
X149286174Y-75447844D01*
X149291700Y-75420066D01*
X149291700Y-72779933D01*
X149279882Y-72720523D01*
X149279881Y-72720520D01*
X149234860Y-72653140D01*
X149189838Y-72623057D01*
X149167479Y-72608118D01*
X149167476Y-72608117D01*
X149108066Y-72596300D01*
X149108064Y-72596300D01*
X146504028Y-72596300D01*
X146436989Y-72576615D01*
X146391234Y-72523811D01*
X146381290Y-72454653D01*
X146410315Y-72391097D01*
X146432969Y-72372392D01*
X146432424Y-72371682D01*
X146438871Y-72366734D01*
X146438873Y-72366734D01*
X146561013Y-72273013D01*
X146654734Y-72150873D01*
X146713650Y-72008637D01*
X146730419Y-71881261D01*
X146733745Y-71856001D01*
X146733745Y-71855998D01*
X146713650Y-71703364D01*
X146713650Y-71703363D01*
X146654734Y-71561128D01*
X146654733Y-71561127D01*
X146654733Y-71561126D01*
X146561014Y-71438988D01*
X146561013Y-71438987D01*
X146438873Y-71345266D01*
X146296637Y-71286350D01*
X146275632Y-71283584D01*
X146169261Y-71269580D01*
X146105365Y-71241313D01*
X146097766Y-71234322D01*
X145443219Y-70579775D01*
X145409734Y-70518452D01*
X145406900Y-70492094D01*
X145406900Y-69684884D01*
X145426585Y-69617845D01*
X145432510Y-69609416D01*
X145510734Y-69507473D01*
X145569650Y-69365237D01*
X145589745Y-69212600D01*
X145569650Y-69059963D01*
X145510734Y-68917728D01*
X145510733Y-68917727D01*
X145510733Y-68917726D01*
X145469763Y-68864333D01*
X145417013Y-68795587D01*
X145416085Y-68794875D01*
X145415501Y-68794075D01*
X145411266Y-68789840D01*
X145411926Y-68789179D01*
X145374883Y-68738448D01*
X145370728Y-68668702D01*
X145404940Y-68607782D01*
X145466657Y-68575029D01*
X145491572Y-68572500D01*
X165967314Y-68572500D01*
X166034353Y-68592185D01*
X166080108Y-68644989D01*
X166090052Y-68714147D01*
X166061027Y-68777703D01*
X166023609Y-68806985D01*
X165787456Y-68927310D01*
X165462206Y-69138531D01*
X165204648Y-69347095D01*
X165204648Y-69347096D01*
X166699301Y-70841748D01*
X166597670Y-70915588D01*
X166419588Y-71093670D01*
X166345748Y-71195300D01*
X164851096Y-69700648D01*
X164851095Y-69700648D01*
X164642531Y-69958206D01*
X164431310Y-70283456D01*
X164255244Y-70629005D01*
X164116262Y-70991063D01*
X164015887Y-71365669D01*
X164015886Y-71365676D01*
X163955219Y-71748712D01*
X163934922Y-72135999D01*
X163934922Y-72136000D01*
X163955219Y-72523287D01*
X164015886Y-72906323D01*
X164015887Y-72906330D01*
X164116262Y-73280936D01*
X164255244Y-73642994D01*
X164431310Y-73988543D01*
X164642531Y-74313793D01*
X164851095Y-74571350D01*
X164851096Y-74571350D01*
X166345748Y-73076698D01*
X166419588Y-73178330D01*
X166597670Y-73356412D01*
X166699300Y-73430251D01*
X165204648Y-74924903D01*
X165204649Y-74924904D01*
X165462206Y-75133468D01*
X165787456Y-75344689D01*
X166133005Y-75520755D01*
X166495063Y-75659737D01*
X166869669Y-75760112D01*
X166869676Y-75760113D01*
X167252712Y-75820780D01*
X167639999Y-75841078D01*
X167640001Y-75841078D01*
X168027287Y-75820780D01*
X168410323Y-75760113D01*
X168410330Y-75760112D01*
X168784936Y-75659737D01*
X169146994Y-75520755D01*
X169492543Y-75344689D01*
X169817783Y-75133476D01*
X169817785Y-75133475D01*
X170075349Y-74924902D01*
X168580698Y-73430251D01*
X168682330Y-73356412D01*
X168860412Y-73178330D01*
X168934251Y-73076698D01*
X170428902Y-74571349D01*
X170637475Y-74313785D01*
X170637476Y-74313783D01*
X170848689Y-73988543D01*
X171024756Y-73642991D01*
X171061464Y-73547365D01*
X171103866Y-73491832D01*
X171169560Y-73468039D01*
X171237688Y-73483540D01*
X171286621Y-73533414D01*
X171301228Y-73591975D01*
X171250771Y-109822483D01*
X171230993Y-109889495D01*
X171178125Y-109935176D01*
X171125532Y-109946304D01*
X150876000Y-109744000D01*
X150847498Y-115990413D01*
X150827507Y-116057362D01*
X150774495Y-116102875D01*
X150707316Y-116112786D01*
X150688088Y-116110255D01*
X150688083Y-116110255D01*
X150535448Y-116130349D01*
X150535446Y-116130350D01*
X150393210Y-116189266D01*
X150271071Y-116282987D01*
X150177350Y-116405126D01*
X150118434Y-116547362D01*
X150118433Y-116547364D01*
X150098339Y-116699998D01*
X150098339Y-116700001D01*
X150118433Y-116852635D01*
X150118434Y-116852637D01*
X150177350Y-116994873D01*
X150271071Y-117117013D01*
X150393211Y-117210734D01*
X150535447Y-117269650D01*
X150662821Y-117286419D01*
X150726718Y-117314685D01*
X150734317Y-117321677D01*
X150804383Y-117391743D01*
X150837868Y-117453066D01*
X150840701Y-117479990D01*
X150800000Y-126400000D01*
X171104419Y-126592034D01*
X171171266Y-126612350D01*
X171216519Y-126665585D01*
X171227243Y-126716200D01*
X171210057Y-139056357D01*
X171190279Y-139123369D01*
X171137411Y-139169050D01*
X171068239Y-139178897D01*
X171004724Y-139149784D01*
X170975572Y-139112478D01*
X170848692Y-138863461D01*
X170848691Y-138863458D01*
X170637468Y-138538206D01*
X170428904Y-138280649D01*
X170428903Y-138280648D01*
X168934251Y-139775300D01*
X168860412Y-139673670D01*
X168682330Y-139495588D01*
X168580698Y-139421748D01*
X170075350Y-137927096D01*
X170075350Y-137927095D01*
X169817793Y-137718531D01*
X169492543Y-137507310D01*
X169146994Y-137331244D01*
X168784936Y-137192262D01*
X168410330Y-137091887D01*
X168410323Y-137091886D01*
X168027287Y-137031219D01*
X167640001Y-137010922D01*
X167639999Y-137010922D01*
X167252712Y-137031219D01*
X166869676Y-137091886D01*
X166869669Y-137091887D01*
X166495063Y-137192262D01*
X166133005Y-137331244D01*
X165787456Y-137507310D01*
X165462206Y-137718531D01*
X165204648Y-137927095D01*
X165204648Y-137927096D01*
X166699301Y-139421748D01*
X166597670Y-139495588D01*
X166419588Y-139673670D01*
X166345748Y-139775300D01*
X164851096Y-138280648D01*
X164851095Y-138280648D01*
X164642531Y-138538206D01*
X164431310Y-138863456D01*
X164255244Y-139209005D01*
X164116262Y-139571063D01*
X164015887Y-139945669D01*
X164015886Y-139945676D01*
X163955219Y-140328712D01*
X163934922Y-140715999D01*
X163934922Y-140716000D01*
X163955219Y-141103287D01*
X164015886Y-141486323D01*
X164015887Y-141486330D01*
X164116262Y-141860936D01*
X164255244Y-142222994D01*
X164431310Y-142568543D01*
X164642531Y-142893793D01*
X164851095Y-143151350D01*
X164851096Y-143151350D01*
X166345748Y-141656698D01*
X166419588Y-141758330D01*
X166597670Y-141936412D01*
X166699300Y-142010251D01*
X165204648Y-143504903D01*
X165204649Y-143504904D01*
X165462206Y-143713468D01*
X165787456Y-143924689D01*
X166023609Y-144045015D01*
X166074405Y-144092989D01*
X166091200Y-144160810D01*
X166068663Y-144226945D01*
X166013948Y-144270397D01*
X165967314Y-144279500D01*
X112416686Y-144279500D01*
X112349647Y-144259815D01*
X112303892Y-144207011D01*
X112293948Y-144137853D01*
X112322973Y-144074297D01*
X112360391Y-144045015D01*
X112596543Y-143924689D01*
X112921783Y-143713476D01*
X112921785Y-143713475D01*
X113179349Y-143504902D01*
X111684698Y-142010251D01*
X111786330Y-141936412D01*
X111964412Y-141758330D01*
X112038251Y-141656698D01*
X113532902Y-143151349D01*
X113741475Y-142893785D01*
X113741476Y-142893783D01*
X113952689Y-142568543D01*
X114128755Y-142222994D01*
X114267737Y-141860936D01*
X114368112Y-141486330D01*
X114368113Y-141486323D01*
X114428780Y-141103287D01*
X114449078Y-140716000D01*
X114449078Y-140715999D01*
X114428780Y-140328712D01*
X114368113Y-139945676D01*
X114368112Y-139945669D01*
X114267737Y-139571063D01*
X114128755Y-139209005D01*
X113952689Y-138863456D01*
X113741468Y-138538206D01*
X113532904Y-138280649D01*
X113532903Y-138280648D01*
X112038251Y-139775300D01*
X111964412Y-139673670D01*
X111786330Y-139495588D01*
X111684698Y-139421748D01*
X113179350Y-137927096D01*
X113179350Y-137927095D01*
X113076927Y-137844155D01*
X116564000Y-137844155D01*
X116564000Y-138942000D01*
X117763999Y-138942000D01*
X117738979Y-139002402D01*
X117714000Y-139127981D01*
X117714000Y-139256019D01*
X117738979Y-139381598D01*
X117763999Y-139442000D01*
X116564000Y-139442000D01*
X116564000Y-140539844D01*
X116570401Y-140599372D01*
X116570403Y-140599379D01*
X116620645Y-140734086D01*
X116620649Y-140734093D01*
X116706809Y-140849187D01*
X116706812Y-140849190D01*
X116821906Y-140935350D01*
X116821913Y-140935354D01*
X116956620Y-140985596D01*
X116956627Y-140985598D01*
X117016155Y-140991999D01*
X117016172Y-140992000D01*
X118114000Y-140992000D01*
X118114000Y-139792001D01*
X118174402Y-139817021D01*
X118299981Y-139842000D01*
X118428019Y-139842000D01*
X118553598Y-139817021D01*
X118614000Y-139792001D01*
X118614000Y-140992000D01*
X119711828Y-140992000D01*
X119711844Y-140991999D01*
X119771372Y-140985598D01*
X119771379Y-140985596D01*
X119906086Y-140935354D01*
X119906093Y-140935350D01*
X120021187Y-140849190D01*
X120021190Y-140849187D01*
X120107350Y-140734093D01*
X120107354Y-140734086D01*
X120157596Y-140599379D01*
X120157598Y-140599372D01*
X120163999Y-140539844D01*
X120164000Y-140539827D01*
X120164000Y-139442000D01*
X118964001Y-139442000D01*
X118989021Y-139381598D01*
X119014000Y-139256019D01*
X119014000Y-139192000D01*
X121855650Y-139192000D01*
X121874219Y-139427955D01*
X121929473Y-139658106D01*
X122020049Y-139876777D01*
X122143717Y-140078583D01*
X122143720Y-140078588D01*
X122210373Y-140156628D01*
X122297435Y-140258565D01*
X122379567Y-140328712D01*
X122477411Y-140412279D01*
X122477416Y-140412282D01*
X122679222Y-140535950D01*
X122897893Y-140626526D01*
X122955431Y-140640339D01*
X123128042Y-140681780D01*
X123364000Y-140700350D01*
X123599958Y-140681780D01*
X123830106Y-140626526D01*
X124048777Y-140535950D01*
X124250586Y-140412281D01*
X124430565Y-140258565D01*
X124584281Y-140078586D01*
X124707950Y-139876777D01*
X124798526Y-139658106D01*
X124853780Y-139427958D01*
X124872350Y-139192000D01*
X124853780Y-138956042D01*
X124798526Y-138725894D01*
X124794186Y-138715415D01*
X124707950Y-138507222D01*
X124584282Y-138305416D01*
X124584279Y-138305411D01*
X124528958Y-138240639D01*
X124430565Y-138125435D01*
X124332170Y-138041398D01*
X124250588Y-137971720D01*
X124250583Y-137971717D01*
X124048777Y-137848049D01*
X124039376Y-137844155D01*
X127740000Y-137844155D01*
X127740000Y-138942000D01*
X128939999Y-138942000D01*
X128914979Y-139002402D01*
X128890000Y-139127981D01*
X128890000Y-139256019D01*
X128914979Y-139381598D01*
X128939999Y-139442000D01*
X127740000Y-139442000D01*
X127740000Y-140539844D01*
X127746401Y-140599372D01*
X127746403Y-140599379D01*
X127796645Y-140734086D01*
X127796649Y-140734093D01*
X127882809Y-140849187D01*
X127882812Y-140849190D01*
X127997906Y-140935350D01*
X127997913Y-140935354D01*
X128132620Y-140985596D01*
X128132627Y-140985598D01*
X128192155Y-140991999D01*
X128192172Y-140992000D01*
X129290000Y-140992000D01*
X129290000Y-139792001D01*
X129350402Y-139817021D01*
X129475981Y-139842000D01*
X129604019Y-139842000D01*
X129729598Y-139817021D01*
X129790000Y-139792001D01*
X129790000Y-140992000D01*
X130887828Y-140992000D01*
X130887844Y-140991999D01*
X130947372Y-140985598D01*
X130947379Y-140985596D01*
X131082086Y-140935354D01*
X131082093Y-140935350D01*
X131197187Y-140849190D01*
X131197190Y-140849187D01*
X131283350Y-140734093D01*
X131283354Y-140734086D01*
X131333596Y-140599379D01*
X131333598Y-140599372D01*
X131339999Y-140539844D01*
X131340000Y-140539827D01*
X131340000Y-139442000D01*
X130140001Y-139442000D01*
X130165021Y-139381598D01*
X130190000Y-139256019D01*
X130190000Y-139192000D01*
X133031650Y-139192000D01*
X133050219Y-139427955D01*
X133105473Y-139658106D01*
X133196049Y-139876777D01*
X133319717Y-140078583D01*
X133319720Y-140078588D01*
X133386373Y-140156628D01*
X133473435Y-140258565D01*
X133555567Y-140328712D01*
X133653411Y-140412279D01*
X133653416Y-140412282D01*
X133855222Y-140535950D01*
X134073893Y-140626526D01*
X134131431Y-140640339D01*
X134304042Y-140681780D01*
X134540000Y-140700350D01*
X134775958Y-140681780D01*
X135006106Y-140626526D01*
X135224777Y-140535950D01*
X135426586Y-140412281D01*
X135558051Y-140300000D01*
X156991120Y-140300000D01*
X157011732Y-140443363D01*
X157011734Y-140443371D01*
X157071900Y-140575117D01*
X157071905Y-140575125D01*
X157166751Y-140684584D01*
X157166753Y-140684585D01*
X157166754Y-140684586D01*
X157288604Y-140762894D01*
X157288605Y-140762894D01*
X157288608Y-140762896D01*
X157427576Y-140803699D01*
X157427578Y-140803700D01*
X157427579Y-140803700D01*
X157572422Y-140803700D01*
X157572422Y-140803699D01*
X157711396Y-140762894D01*
X157814409Y-140696690D01*
X157849354Y-140681233D01*
X157857058Y-140679170D01*
X157949843Y-140625601D01*
X158949084Y-139626359D01*
X159001827Y-139595065D01*
X159111396Y-139562894D01*
X159233246Y-139484586D01*
X159328097Y-139375121D01*
X159388267Y-139243368D01*
X159408880Y-139100000D01*
X159388267Y-138956632D01*
X159345715Y-138863456D01*
X159328099Y-138824882D01*
X159328094Y-138824874D01*
X159233248Y-138715415D01*
X159111391Y-138637103D01*
X158972423Y-138596300D01*
X158972421Y-138596300D01*
X158827579Y-138596300D01*
X158827576Y-138596300D01*
X158688608Y-138637103D01*
X158566751Y-138715415D01*
X158471905Y-138824874D01*
X158471902Y-138824880D01*
X158411733Y-138956630D01*
X158411732Y-138956634D01*
X158408170Y-138981409D01*
X158379143Y-139044965D01*
X158373113Y-139051441D01*
X157664574Y-139759981D01*
X157603251Y-139793466D01*
X157576893Y-139796300D01*
X157427576Y-139796300D01*
X157288608Y-139837103D01*
X157166751Y-139915415D01*
X157071905Y-140024874D01*
X157071900Y-140024882D01*
X157011734Y-140156628D01*
X157011732Y-140156636D01*
X156991120Y-140300000D01*
X135558051Y-140300000D01*
X135606565Y-140258565D01*
X135760281Y-140078586D01*
X135883950Y-139876777D01*
X135974526Y-139658106D01*
X136029780Y-139427958D01*
X136048350Y-139192000D01*
X136029780Y-138956042D01*
X135974526Y-138725894D01*
X135970186Y-138715415D01*
X135883950Y-138507222D01*
X135760282Y-138305416D01*
X135760279Y-138305411D01*
X135704958Y-138240639D01*
X135606565Y-138125435D01*
X135508170Y-138041398D01*
X135426588Y-137971720D01*
X135426583Y-137971717D01*
X135224777Y-137848049D01*
X135006106Y-137757473D01*
X134775954Y-137702219D01*
X134775955Y-137702219D01*
X134540000Y-137683650D01*
X134304044Y-137702219D01*
X134073893Y-137757473D01*
X133855222Y-137848049D01*
X133653416Y-137971717D01*
X133653411Y-137971720D01*
X133473435Y-138125435D01*
X133319720Y-138305411D01*
X133319717Y-138305416D01*
X133196049Y-138507222D01*
X133105473Y-138725893D01*
X133050219Y-138956044D01*
X133031650Y-139192000D01*
X130190000Y-139192000D01*
X130190000Y-139127981D01*
X130165021Y-139002402D01*
X130140001Y-138942000D01*
X131340000Y-138942000D01*
X131340000Y-137844172D01*
X131339999Y-137844155D01*
X131333598Y-137784627D01*
X131333596Y-137784620D01*
X131283354Y-137649913D01*
X131283350Y-137649906D01*
X131197190Y-137534812D01*
X131197187Y-137534809D01*
X131082093Y-137448649D01*
X131082086Y-137448645D01*
X130947379Y-137398403D01*
X130947372Y-137398401D01*
X130887844Y-137392000D01*
X129790000Y-137392000D01*
X129790000Y-138591998D01*
X129729598Y-138566979D01*
X129604019Y-138542000D01*
X129475981Y-138542000D01*
X129350402Y-138566979D01*
X129290000Y-138591998D01*
X129290000Y-137392000D01*
X128192155Y-137392000D01*
X128132627Y-137398401D01*
X128132620Y-137398403D01*
X127997913Y-137448645D01*
X127997906Y-137448649D01*
X127882812Y-137534809D01*
X127882809Y-137534812D01*
X127796649Y-137649906D01*
X127796645Y-137649913D01*
X127746403Y-137784620D01*
X127746401Y-137784627D01*
X127740000Y-137844155D01*
X124039376Y-137844155D01*
X123830106Y-137757473D01*
X123599954Y-137702219D01*
X123599955Y-137702219D01*
X123364000Y-137683650D01*
X123128044Y-137702219D01*
X122897893Y-137757473D01*
X122679222Y-137848049D01*
X122477416Y-137971717D01*
X122477411Y-137971720D01*
X122297435Y-138125435D01*
X122143720Y-138305411D01*
X122143717Y-138305416D01*
X122020049Y-138507222D01*
X121929473Y-138725893D01*
X121874219Y-138956044D01*
X121855650Y-139192000D01*
X119014000Y-139192000D01*
X119014000Y-139127981D01*
X118989021Y-139002402D01*
X118964001Y-138942000D01*
X120164000Y-138942000D01*
X120164000Y-137844172D01*
X120163999Y-137844155D01*
X120157598Y-137784627D01*
X120157596Y-137784620D01*
X120107354Y-137649913D01*
X120107350Y-137649906D01*
X120021190Y-137534812D01*
X120021187Y-137534809D01*
X119906093Y-137448649D01*
X119906086Y-137448645D01*
X119771379Y-137398403D01*
X119771372Y-137398401D01*
X119711844Y-137392000D01*
X118614000Y-137392000D01*
X118614000Y-138591998D01*
X118553598Y-138566979D01*
X118428019Y-138542000D01*
X118299981Y-138542000D01*
X118174402Y-138566979D01*
X118114000Y-138591998D01*
X118114000Y-137392000D01*
X117016155Y-137392000D01*
X116956627Y-137398401D01*
X116956620Y-137398403D01*
X116821913Y-137448645D01*
X116821906Y-137448649D01*
X116706812Y-137534809D01*
X116706809Y-137534812D01*
X116620649Y-137649906D01*
X116620645Y-137649913D01*
X116570403Y-137784620D01*
X116570401Y-137784627D01*
X116564000Y-137844155D01*
X113076927Y-137844155D01*
X112921793Y-137718531D01*
X112596543Y-137507310D01*
X112250994Y-137331244D01*
X111888936Y-137192262D01*
X111514330Y-137091887D01*
X111514323Y-137091886D01*
X111131287Y-137031219D01*
X110744001Y-137010922D01*
X110743999Y-137010922D01*
X110356712Y-137031219D01*
X109973676Y-137091886D01*
X109973669Y-137091887D01*
X109599063Y-137192262D01*
X109237005Y-137331244D01*
X108891456Y-137507310D01*
X108566206Y-137718531D01*
X108308648Y-137927095D01*
X108308648Y-137927096D01*
X109803301Y-139421748D01*
X109701670Y-139495588D01*
X109523588Y-139673670D01*
X109449748Y-139775300D01*
X107955096Y-138280648D01*
X107955095Y-138280648D01*
X107746531Y-138538206D01*
X107535310Y-138863456D01*
X107421579Y-139086666D01*
X107373604Y-139137462D01*
X107305783Y-139154257D01*
X107239648Y-139131720D01*
X107196197Y-139077004D01*
X107187094Y-139030201D01*
X107196673Y-132152155D01*
X164200000Y-132152155D01*
X164200000Y-133250000D01*
X165399999Y-133250000D01*
X165374979Y-133310402D01*
X165350000Y-133435981D01*
X165350000Y-133564019D01*
X165374979Y-133689598D01*
X165399999Y-133750000D01*
X164200000Y-133750000D01*
X164200000Y-134847844D01*
X164206401Y-134907372D01*
X164206403Y-134907379D01*
X164256645Y-135042086D01*
X164256649Y-135042093D01*
X164342809Y-135157187D01*
X164342812Y-135157190D01*
X164457906Y-135243350D01*
X164457913Y-135243354D01*
X164592620Y-135293596D01*
X164592627Y-135293598D01*
X164652155Y-135299999D01*
X164652172Y-135300000D01*
X165750000Y-135300000D01*
X165750000Y-134100001D01*
X165810402Y-134125021D01*
X165935981Y-134150000D01*
X166064019Y-134150000D01*
X166189598Y-134125021D01*
X166250000Y-134100001D01*
X166250000Y-135300000D01*
X167347828Y-135300000D01*
X167347844Y-135299999D01*
X167407372Y-135293598D01*
X167407379Y-135293596D01*
X167542086Y-135243354D01*
X167542093Y-135243350D01*
X167657187Y-135157190D01*
X167657190Y-135157187D01*
X167743350Y-135042093D01*
X167743354Y-135042086D01*
X167793596Y-134907379D01*
X167793598Y-134907372D01*
X167799999Y-134847844D01*
X167800000Y-134847827D01*
X167800000Y-133750000D01*
X166600001Y-133750000D01*
X166625021Y-133689598D01*
X166650000Y-133564019D01*
X166650000Y-133435981D01*
X166625021Y-133310402D01*
X166600001Y-133250000D01*
X167800000Y-133250000D01*
X167800000Y-132152172D01*
X167799999Y-132152155D01*
X167793598Y-132092627D01*
X167793596Y-132092620D01*
X167743354Y-131957913D01*
X167743350Y-131957906D01*
X167657190Y-131842812D01*
X167657187Y-131842809D01*
X167542093Y-131756649D01*
X167542086Y-131756645D01*
X167407379Y-131706403D01*
X167407372Y-131706401D01*
X167347844Y-131700000D01*
X166250000Y-131700000D01*
X166250000Y-132899998D01*
X166189598Y-132874979D01*
X166064019Y-132850000D01*
X165935981Y-132850000D01*
X165810402Y-132874979D01*
X165750000Y-132899998D01*
X165750000Y-131700000D01*
X164652155Y-131700000D01*
X164592627Y-131706401D01*
X164592620Y-131706403D01*
X164457913Y-131756645D01*
X164457906Y-131756649D01*
X164342812Y-131842809D01*
X164342809Y-131842812D01*
X164256649Y-131957906D01*
X164256645Y-131957913D01*
X164206403Y-132092620D01*
X164206401Y-132092627D01*
X164200000Y-132152155D01*
X107196673Y-132152155D01*
X107201759Y-128500000D01*
X164491650Y-128500000D01*
X164510219Y-128735955D01*
X164565473Y-128966106D01*
X164656049Y-129184777D01*
X164779717Y-129386583D01*
X164779720Y-129386588D01*
X164849398Y-129468170D01*
X164933435Y-129566565D01*
X165048639Y-129664958D01*
X165113411Y-129720279D01*
X165113416Y-129720282D01*
X165315222Y-129843950D01*
X165533893Y-129934526D01*
X165591431Y-129948339D01*
X165764042Y-129989780D01*
X166000000Y-130008350D01*
X166235958Y-129989780D01*
X166466106Y-129934526D01*
X166684777Y-129843950D01*
X166886586Y-129720281D01*
X167066565Y-129566565D01*
X167220281Y-129386586D01*
X167343950Y-129184777D01*
X167434526Y-128966106D01*
X167489780Y-128735958D01*
X167508350Y-128500000D01*
X167489780Y-128264042D01*
X167434526Y-128033894D01*
X167343950Y-127815223D01*
X167343950Y-127815222D01*
X167220282Y-127613416D01*
X167220279Y-127613411D01*
X167164958Y-127548639D01*
X167066565Y-127433435D01*
X166968170Y-127349398D01*
X166886588Y-127279720D01*
X166886583Y-127279717D01*
X166684777Y-127156049D01*
X166466106Y-127065473D01*
X166235954Y-127010219D01*
X166235955Y-127010219D01*
X166000000Y-126991650D01*
X165764044Y-127010219D01*
X165533893Y-127065473D01*
X165315222Y-127156049D01*
X165113416Y-127279717D01*
X165113411Y-127279720D01*
X164933435Y-127433435D01*
X164779720Y-127613411D01*
X164779717Y-127613416D01*
X164656049Y-127815222D01*
X164565473Y-128033893D01*
X164510219Y-128264044D01*
X164491650Y-128500000D01*
X107201759Y-128500000D01*
X107225859Y-111194997D01*
X130205254Y-111194997D01*
X130205254Y-111195000D01*
X130225348Y-111347634D01*
X130225349Y-111347636D01*
X130284265Y-111489872D01*
X130377986Y-111612012D01*
X130401193Y-111629819D01*
X130428716Y-111650939D01*
X130469918Y-111707367D01*
X130474073Y-111777113D01*
X130439860Y-111838033D01*
X130428716Y-111847689D01*
X130399136Y-111870386D01*
X130305415Y-111992526D01*
X130246499Y-112134762D01*
X130246498Y-112134764D01*
X130226404Y-112287398D01*
X130226404Y-112287401D01*
X130246498Y-112440035D01*
X130246499Y-112440037D01*
X130305415Y-112582273D01*
X130399136Y-112704413D01*
X130521276Y-112798134D01*
X130663512Y-112857050D01*
X130739830Y-112867097D01*
X130816148Y-112877145D01*
X130816149Y-112877145D01*
X130816150Y-112877145D01*
X130867028Y-112870446D01*
X130968786Y-112857050D01*
X131111022Y-112798134D01*
X131233162Y-112704413D01*
X131326883Y-112582273D01*
X131385799Y-112440037D01*
X131402568Y-112312659D01*
X131430834Y-112248764D01*
X131437801Y-112241190D01*
X131626175Y-112052816D01*
X131687498Y-112019334D01*
X131713855Y-112016500D01*
X134056031Y-112016500D01*
X139527590Y-112016500D01*
X139594629Y-112036185D01*
X139615271Y-112052819D01*
X139921376Y-112358924D01*
X139954861Y-112420247D01*
X139957695Y-112446605D01*
X139957695Y-112527714D01*
X139938010Y-112594753D01*
X139932072Y-112603199D01*
X139853861Y-112705127D01*
X139794945Y-112847362D01*
X139794944Y-112847364D01*
X139774850Y-112999998D01*
X139774850Y-113000001D01*
X139794944Y-113152635D01*
X139794945Y-113152637D01*
X139853861Y-113294873D01*
X139947582Y-113417013D01*
X140069722Y-113510734D01*
X140211958Y-113569650D01*
X140288276Y-113579697D01*
X140364594Y-113589745D01*
X140364595Y-113589745D01*
X140364596Y-113589745D01*
X140415474Y-113583046D01*
X140517232Y-113569650D01*
X140659468Y-113510734D01*
X140771710Y-113424607D01*
X140836878Y-113399413D01*
X140905323Y-113413451D01*
X140922675Y-113424601D01*
X141034925Y-113510734D01*
X141177161Y-113569650D01*
X141253479Y-113579697D01*
X141329797Y-113589745D01*
X141329798Y-113589745D01*
X141329799Y-113589745D01*
X141380677Y-113583046D01*
X141482435Y-113569650D01*
X141624671Y-113510734D01*
X141746811Y-113417013D01*
X141840532Y-113294873D01*
X141899448Y-113152637D01*
X141919543Y-113000000D01*
X141899448Y-112847363D01*
X141840532Y-112705128D01*
X141812399Y-112668464D01*
X141762321Y-112603199D01*
X141737128Y-112538030D01*
X141736698Y-112527714D01*
X141736698Y-112276231D01*
X141736698Y-112276229D01*
X141708968Y-112172741D01*
X141655399Y-112079956D01*
X141579640Y-112004197D01*
X140249843Y-110674399D01*
X140157058Y-110620830D01*
X140157059Y-110620830D01*
X140129326Y-110613399D01*
X140053570Y-110593100D01*
X140053569Y-110593100D01*
X130936429Y-110593100D01*
X130936427Y-110593100D01*
X130883241Y-110607351D01*
X130834965Y-110610515D01*
X130795002Y-110605254D01*
X130794998Y-110605254D01*
X130642363Y-110625348D01*
X130642361Y-110625349D01*
X130500125Y-110684265D01*
X130377986Y-110777986D01*
X130284265Y-110900125D01*
X130225349Y-111042361D01*
X130225348Y-111042363D01*
X130205254Y-111194997D01*
X107225859Y-111194997D01*
X107247004Y-96012000D01*
X116331120Y-96012000D01*
X116351732Y-96155363D01*
X116351734Y-96155371D01*
X116411900Y-96287117D01*
X116411905Y-96287125D01*
X116506751Y-96396584D01*
X116506753Y-96396585D01*
X116506754Y-96396586D01*
X116628604Y-96474894D01*
X116628605Y-96474894D01*
X116628608Y-96474896D01*
X116767576Y-96515699D01*
X116767578Y-96515700D01*
X116767579Y-96515700D01*
X116912422Y-96515700D01*
X116912422Y-96515699D01*
X117051396Y-96474894D01*
X117107896Y-96438583D01*
X117174934Y-96418900D01*
X131352094Y-96418900D01*
X131419133Y-96438585D01*
X131439775Y-96455219D01*
X145777113Y-110792557D01*
X145810598Y-110853880D01*
X145812170Y-110862590D01*
X145815732Y-110887364D01*
X145815733Y-110887369D01*
X145875902Y-111019119D01*
X145875905Y-111019125D01*
X145970751Y-111128584D01*
X145970753Y-111128585D01*
X145970754Y-111128586D01*
X146092604Y-111206894D01*
X146092605Y-111206894D01*
X146092608Y-111206896D01*
X146231576Y-111247699D01*
X146231578Y-111247700D01*
X146231579Y-111247700D01*
X146376422Y-111247700D01*
X146376422Y-111247699D01*
X146437143Y-111229870D01*
X146515391Y-111206896D01*
X146515392Y-111206895D01*
X146515396Y-111206894D01*
X146637246Y-111128586D01*
X146732097Y-111019121D01*
X146792267Y-110887368D01*
X146812880Y-110744000D01*
X146792267Y-110600632D01*
X146779287Y-110572210D01*
X146732099Y-110468882D01*
X146732094Y-110468874D01*
X146637248Y-110359415D01*
X146515391Y-110281103D01*
X146405829Y-110248934D01*
X146353082Y-110217638D01*
X141291444Y-105156000D01*
X146219341Y-105156000D01*
X146239145Y-105407647D01*
X146298072Y-105653100D01*
X146394671Y-105886312D01*
X146394673Y-105886315D01*
X146526565Y-106101543D01*
X146526569Y-106101548D01*
X146528883Y-106104257D01*
X146690506Y-106293494D01*
X146813372Y-106398431D01*
X146882451Y-106457430D01*
X146882456Y-106457434D01*
X147097684Y-106589326D01*
X147097687Y-106589328D01*
X147330899Y-106685927D01*
X147433793Y-106710629D01*
X147576350Y-106744854D01*
X147828000Y-106764659D01*
X148079650Y-106744854D01*
X148256431Y-106702412D01*
X148325100Y-106685927D01*
X148325101Y-106685926D01*
X148325103Y-106685926D01*
X148457327Y-106631157D01*
X148558312Y-106589328D01*
X148558313Y-106589327D01*
X148558316Y-106589326D01*
X148773546Y-106457432D01*
X148965494Y-106293494D01*
X149129432Y-106101546D01*
X149261326Y-105886316D01*
X149262438Y-105883633D01*
X149357927Y-105653100D01*
X149374412Y-105584431D01*
X149416291Y-105409994D01*
X158866318Y-105409994D01*
X158866318Y-105410005D01*
X158886212Y-105650087D01*
X158945352Y-105883631D01*
X159042127Y-106104257D01*
X159173893Y-106305938D01*
X159173896Y-106305942D01*
X159337064Y-106483189D01*
X159337068Y-106483192D01*
X159527177Y-106631160D01*
X159527179Y-106631161D01*
X159527182Y-106631163D01*
X159628376Y-106685926D01*
X159739054Y-106745822D01*
X159857374Y-106786441D01*
X159966911Y-106824046D01*
X159966913Y-106824046D01*
X159966915Y-106824047D01*
X160204543Y-106863700D01*
X160204544Y-106863700D01*
X160445456Y-106863700D01*
X160445457Y-106863700D01*
X160683085Y-106824047D01*
X160910946Y-106745822D01*
X161122823Y-106631160D01*
X161312938Y-106483187D01*
X161476105Y-106305941D01*
X161607873Y-106104256D01*
X161704647Y-105883633D01*
X161763787Y-105650091D01*
X161783682Y-105410000D01*
X161783487Y-105407650D01*
X161763787Y-105169912D01*
X161763787Y-105169909D01*
X161704647Y-104936367D01*
X161607873Y-104715744D01*
X161476105Y-104514059D01*
X161312938Y-104336813D01*
X161312937Y-104336812D01*
X161312935Y-104336810D01*
X161312931Y-104336807D01*
X161122826Y-104188842D01*
X161122817Y-104188836D01*
X160910952Y-104074181D01*
X160910949Y-104074180D01*
X160910946Y-104074178D01*
X160910940Y-104074176D01*
X160910938Y-104074175D01*
X160683088Y-103995953D01*
X160504864Y-103966213D01*
X160445457Y-103956300D01*
X160204543Y-103956300D01*
X160157017Y-103964230D01*
X159966911Y-103995953D01*
X159739061Y-104074175D01*
X159739047Y-104074181D01*
X159527182Y-104188836D01*
X159527173Y-104188842D01*
X159337068Y-104336807D01*
X159337064Y-104336810D01*
X159173896Y-104514057D01*
X159173893Y-104514061D01*
X159042127Y-104715742D01*
X158945352Y-104936368D01*
X158886212Y-105169912D01*
X158866318Y-105409994D01*
X149416291Y-105409994D01*
X149416854Y-105407650D01*
X149436659Y-105156000D01*
X149416854Y-104904350D01*
X149371574Y-104715744D01*
X149357927Y-104658899D01*
X149261328Y-104425687D01*
X149261326Y-104425684D01*
X149129434Y-104210456D01*
X149129430Y-104210451D01*
X149070431Y-104141372D01*
X148965494Y-104018506D01*
X148860555Y-103928880D01*
X148773548Y-103854569D01*
X148773543Y-103854565D01*
X148558315Y-103722673D01*
X148558312Y-103722671D01*
X148325100Y-103626072D01*
X148079646Y-103567145D01*
X148079647Y-103567145D01*
X147828000Y-103547341D01*
X147576352Y-103567145D01*
X147330899Y-103626072D01*
X147097687Y-103722671D01*
X147097684Y-103722673D01*
X146882456Y-103854565D01*
X146882451Y-103854569D01*
X146690506Y-104018506D01*
X146526569Y-104210451D01*
X146526565Y-104210456D01*
X146394673Y-104425684D01*
X146394671Y-104425687D01*
X146298072Y-104658899D01*
X146239145Y-104904352D01*
X146219341Y-105156000D01*
X141291444Y-105156000D01*
X137594171Y-101458727D01*
X159896500Y-101458727D01*
X159896500Y-101741272D01*
X159896501Y-101741289D01*
X159933380Y-102021415D01*
X160006514Y-102294353D01*
X160114641Y-102555395D01*
X160114646Y-102555406D01*
X160255917Y-102800093D01*
X160255928Y-102800109D01*
X160427930Y-103024267D01*
X160427936Y-103024274D01*
X160627725Y-103224063D01*
X160627731Y-103224068D01*
X160851899Y-103396078D01*
X160851906Y-103396082D01*
X161096593Y-103537353D01*
X161096598Y-103537355D01*
X161096601Y-103537357D01*
X161357651Y-103645487D01*
X161630581Y-103718619D01*
X161910721Y-103755500D01*
X161910728Y-103755500D01*
X162193272Y-103755500D01*
X162193279Y-103755500D01*
X162473419Y-103718619D01*
X162746349Y-103645487D01*
X163007399Y-103537357D01*
X163252101Y-103396078D01*
X163476269Y-103224068D01*
X163676068Y-103024269D01*
X163848078Y-102800101D01*
X163989357Y-102555399D01*
X164097487Y-102294349D01*
X164170619Y-102021419D01*
X164207500Y-101741279D01*
X164207500Y-101458721D01*
X164170619Y-101178581D01*
X164097487Y-100905651D01*
X163989357Y-100644601D01*
X163989355Y-100644598D01*
X163989353Y-100644593D01*
X163848082Y-100399906D01*
X163848078Y-100399899D01*
X163676068Y-100175731D01*
X163676063Y-100175725D01*
X163476274Y-99975936D01*
X163476267Y-99975930D01*
X163252109Y-99803928D01*
X163252107Y-99803926D01*
X163252101Y-99803922D01*
X163252096Y-99803919D01*
X163252093Y-99803917D01*
X163007406Y-99662646D01*
X163007395Y-99662641D01*
X162746353Y-99554514D01*
X162473415Y-99481380D01*
X162193289Y-99444501D01*
X162193284Y-99444500D01*
X162193279Y-99444500D01*
X161910721Y-99444500D01*
X161910715Y-99444500D01*
X161910710Y-99444501D01*
X161630584Y-99481380D01*
X161357646Y-99554514D01*
X161096604Y-99662641D01*
X161096593Y-99662646D01*
X160851906Y-99803917D01*
X160851890Y-99803928D01*
X160627732Y-99975930D01*
X160627725Y-99975936D01*
X160427936Y-100175725D01*
X160427930Y-100175732D01*
X160255928Y-100399890D01*
X160255917Y-100399906D01*
X160114646Y-100644593D01*
X160114641Y-100644604D01*
X160006514Y-100905646D01*
X159933380Y-101178584D01*
X159896501Y-101458710D01*
X159896500Y-101458727D01*
X137594171Y-101458727D01*
X133491444Y-97356000D01*
X146219341Y-97356000D01*
X146239145Y-97607647D01*
X146298072Y-97853100D01*
X146394671Y-98086312D01*
X146394673Y-98086315D01*
X146526565Y-98301543D01*
X146526569Y-98301548D01*
X146600880Y-98388555D01*
X146690506Y-98493494D01*
X146813372Y-98598431D01*
X146882451Y-98657430D01*
X146882456Y-98657434D01*
X147097684Y-98789326D01*
X147097687Y-98789328D01*
X147330899Y-98885927D01*
X147433793Y-98910629D01*
X147576350Y-98944854D01*
X147828000Y-98964659D01*
X148079650Y-98944854D01*
X148256431Y-98902412D01*
X148325100Y-98885927D01*
X148325101Y-98885926D01*
X148325103Y-98885926D01*
X148421699Y-98845914D01*
X148558312Y-98789328D01*
X148558313Y-98789327D01*
X148558316Y-98789326D01*
X148773546Y-98657432D01*
X148965494Y-98493494D01*
X149129432Y-98301546D01*
X149152667Y-98263631D01*
X149156954Y-98256633D01*
X149261326Y-98086316D01*
X149357926Y-97853103D01*
X149373077Y-97789994D01*
X162320318Y-97789994D01*
X162320318Y-97790005D01*
X162340212Y-98030087D01*
X162399352Y-98263631D01*
X162496127Y-98484257D01*
X162627893Y-98685938D01*
X162627896Y-98685942D01*
X162791064Y-98863189D01*
X162791068Y-98863192D01*
X162981177Y-99011160D01*
X162981179Y-99011161D01*
X162981182Y-99011163D01*
X163104356Y-99077821D01*
X163193054Y-99125822D01*
X163311374Y-99166441D01*
X163420911Y-99204046D01*
X163420913Y-99204046D01*
X163420915Y-99204047D01*
X163658543Y-99243700D01*
X163658544Y-99243700D01*
X163899456Y-99243700D01*
X163899457Y-99243700D01*
X164137085Y-99204047D01*
X164364946Y-99125822D01*
X164576823Y-99011160D01*
X164766938Y-98863187D01*
X164930105Y-98685941D01*
X165061873Y-98484256D01*
X165158647Y-98263633D01*
X165217787Y-98030091D01*
X165237682Y-97790000D01*
X165217787Y-97549909D01*
X165158647Y-97316367D01*
X165061873Y-97095744D01*
X164930105Y-96894059D01*
X164766938Y-96716813D01*
X164766937Y-96716812D01*
X164766935Y-96716810D01*
X164766931Y-96716807D01*
X164576826Y-96568842D01*
X164576817Y-96568836D01*
X164364952Y-96454181D01*
X164364949Y-96454180D01*
X164364946Y-96454178D01*
X164364940Y-96454176D01*
X164364938Y-96454175D01*
X164137088Y-96375953D01*
X163958864Y-96346213D01*
X163899457Y-96336300D01*
X163658543Y-96336300D01*
X163611017Y-96344230D01*
X163420911Y-96375953D01*
X163193061Y-96454175D01*
X163193047Y-96454181D01*
X162981182Y-96568836D01*
X162981173Y-96568842D01*
X162791068Y-96716807D01*
X162791064Y-96716810D01*
X162627896Y-96894057D01*
X162627893Y-96894061D01*
X162496127Y-97095742D01*
X162399352Y-97316368D01*
X162340212Y-97549912D01*
X162320318Y-97789994D01*
X149373077Y-97789994D01*
X149416854Y-97607650D01*
X149436659Y-97356000D01*
X149416854Y-97104350D01*
X149366368Y-96894059D01*
X149357927Y-96858899D01*
X149261328Y-96625687D01*
X149261326Y-96625684D01*
X149129434Y-96410456D01*
X149129430Y-96410451D01*
X149066099Y-96336300D01*
X148965494Y-96218506D01*
X148860555Y-96128880D01*
X148773548Y-96054569D01*
X148773543Y-96054565D01*
X148558315Y-95922673D01*
X148558312Y-95922671D01*
X148325100Y-95826072D01*
X148079646Y-95767145D01*
X148079647Y-95767145D01*
X147828000Y-95747341D01*
X147576352Y-95767145D01*
X147330899Y-95826072D01*
X147097687Y-95922671D01*
X147097684Y-95922673D01*
X146882456Y-96054565D01*
X146882451Y-96054569D01*
X146690506Y-96218506D01*
X146526569Y-96410451D01*
X146526565Y-96410456D01*
X146394673Y-96625684D01*
X146394671Y-96625687D01*
X146298072Y-96858899D01*
X146239145Y-97104352D01*
X146219341Y-97356000D01*
X133491444Y-97356000D01*
X131821844Y-95686400D01*
X131821843Y-95686399D01*
X131729058Y-95632830D01*
X131729059Y-95632830D01*
X131703186Y-95625897D01*
X131625570Y-95605100D01*
X131625569Y-95605100D01*
X131625567Y-95605100D01*
X117174934Y-95605100D01*
X117107896Y-95585416D01*
X117051396Y-95549106D01*
X117051392Y-95549104D01*
X117051391Y-95549104D01*
X116912423Y-95508300D01*
X116912421Y-95508300D01*
X116767579Y-95508300D01*
X116767576Y-95508300D01*
X116628608Y-95549103D01*
X116506751Y-95627415D01*
X116411905Y-95736874D01*
X116411900Y-95736882D01*
X116351734Y-95868628D01*
X116351732Y-95868636D01*
X116331120Y-96012000D01*
X107247004Y-96012000D01*
X107277661Y-73999196D01*
X107297438Y-73932190D01*
X107350306Y-73886509D01*
X107419478Y-73876662D01*
X107482993Y-73905775D01*
X107512144Y-73943079D01*
X107535306Y-73988537D01*
X107535308Y-73988541D01*
X107746531Y-74313793D01*
X107955095Y-74571350D01*
X107955096Y-74571350D01*
X109449748Y-73076698D01*
X109523588Y-73178330D01*
X109701670Y-73356412D01*
X109803300Y-73430251D01*
X108308648Y-74924903D01*
X108308649Y-74924904D01*
X108566206Y-75133468D01*
X108891456Y-75344689D01*
X109237005Y-75520755D01*
X109599063Y-75659737D01*
X109973669Y-75760112D01*
X109973676Y-75760113D01*
X110356712Y-75820780D01*
X110743999Y-75841078D01*
X110744001Y-75841078D01*
X111131287Y-75820780D01*
X111514323Y-75760113D01*
X111514330Y-75760112D01*
X111888936Y-75659737D01*
X112250994Y-75520755D01*
X112596543Y-75344689D01*
X112921783Y-75133476D01*
X112921785Y-75133475D01*
X113179349Y-74924902D01*
X111684698Y-73430251D01*
X111786330Y-73356412D01*
X111964412Y-73178330D01*
X112038251Y-73076698D01*
X113532902Y-74571349D01*
X113741475Y-74313785D01*
X113741476Y-74313783D01*
X113880308Y-74100000D01*
X123891650Y-74100000D01*
X123910219Y-74335955D01*
X123965473Y-74566106D01*
X124056049Y-74784777D01*
X124179717Y-74986583D01*
X124179720Y-74986588D01*
X124249398Y-75068170D01*
X124333435Y-75166565D01*
X124448639Y-75264958D01*
X124513411Y-75320279D01*
X124513416Y-75320282D01*
X124715222Y-75443950D01*
X124933893Y-75534526D01*
X124985264Y-75546859D01*
X125164042Y-75589780D01*
X125400000Y-75608350D01*
X125635958Y-75589780D01*
X125866106Y-75534526D01*
X126084777Y-75443950D01*
X126286586Y-75320281D01*
X126466565Y-75166565D01*
X126620281Y-74986586D01*
X126743950Y-74784777D01*
X126834526Y-74566106D01*
X126889780Y-74335958D01*
X126908350Y-74100000D01*
X126889780Y-73864042D01*
X126834526Y-73633894D01*
X126828266Y-73618779D01*
X126743950Y-73415222D01*
X126620282Y-73213416D01*
X126620279Y-73213411D01*
X126509051Y-73083180D01*
X126466565Y-73033435D01*
X126317744Y-72906330D01*
X126286588Y-72879720D01*
X126286583Y-72879717D01*
X126084777Y-72756049D01*
X126075376Y-72752155D01*
X128600000Y-72752155D01*
X128600000Y-73850000D01*
X129799999Y-73850000D01*
X129774979Y-73910402D01*
X129750000Y-74035981D01*
X129750000Y-74164019D01*
X129774979Y-74289598D01*
X129799999Y-74350000D01*
X128600000Y-74350000D01*
X128600000Y-75447844D01*
X128606401Y-75507372D01*
X128606403Y-75507379D01*
X128656645Y-75642086D01*
X128656649Y-75642093D01*
X128742809Y-75757187D01*
X128742812Y-75757190D01*
X128857906Y-75843350D01*
X128857913Y-75843354D01*
X128992620Y-75893596D01*
X128992627Y-75893598D01*
X129052155Y-75899999D01*
X129052172Y-75900000D01*
X130150000Y-75900000D01*
X130150000Y-74700001D01*
X130210402Y-74725021D01*
X130335981Y-74750000D01*
X130464019Y-74750000D01*
X130589598Y-74725021D01*
X130650000Y-74700001D01*
X130650000Y-75900000D01*
X131747828Y-75900000D01*
X131747844Y-75899999D01*
X131807372Y-75893598D01*
X131807379Y-75893596D01*
X131942086Y-75843354D01*
X131942093Y-75843350D01*
X132057187Y-75757190D01*
X132057190Y-75757187D01*
X132143350Y-75642093D01*
X132143354Y-75642086D01*
X132193596Y-75507379D01*
X132193598Y-75507372D01*
X132199999Y-75447844D01*
X132200000Y-75447827D01*
X132200000Y-74350000D01*
X131000001Y-74350000D01*
X131025021Y-74289598D01*
X131050000Y-74164019D01*
X131050000Y-74099995D01*
X140982953Y-74099995D01*
X140982953Y-74100004D01*
X141003113Y-74369026D01*
X141003113Y-74369028D01*
X141063142Y-74632033D01*
X141063148Y-74632052D01*
X141161709Y-74883181D01*
X141161708Y-74883181D01*
X141296602Y-75116822D01*
X141350294Y-75184151D01*
X142186957Y-74347487D01*
X142211978Y-74407890D01*
X142283112Y-74514351D01*
X142373649Y-74604888D01*
X142480110Y-74676022D01*
X142540510Y-74701041D01*
X141702848Y-75538702D01*
X141885483Y-75663220D01*
X141885485Y-75663221D01*
X142128539Y-75780269D01*
X142128537Y-75780269D01*
X142386337Y-75859790D01*
X142386343Y-75859792D01*
X142653101Y-75899999D01*
X142653110Y-75900000D01*
X142922890Y-75900000D01*
X142922898Y-75899999D01*
X143189656Y-75859792D01*
X143189662Y-75859790D01*
X143447461Y-75780269D01*
X143690521Y-75663218D01*
X143873150Y-75538702D01*
X143035488Y-74701041D01*
X143095890Y-74676022D01*
X143202351Y-74604888D01*
X143292888Y-74514351D01*
X143364022Y-74407890D01*
X143389041Y-74347488D01*
X144225703Y-75184151D01*
X144225704Y-75184150D01*
X144279393Y-75116828D01*
X144279400Y-75116817D01*
X144414290Y-74883181D01*
X144512851Y-74632052D01*
X144512857Y-74632033D01*
X144572886Y-74369028D01*
X144572886Y-74369026D01*
X144593047Y-74100004D01*
X144593047Y-74099995D01*
X144572886Y-73830973D01*
X144572886Y-73830971D01*
X144512857Y-73567966D01*
X144512851Y-73567947D01*
X144414290Y-73316818D01*
X144414291Y-73316818D01*
X144279397Y-73083177D01*
X144225704Y-73015847D01*
X143389041Y-73852510D01*
X143364022Y-73792110D01*
X143292888Y-73685649D01*
X143202351Y-73595112D01*
X143095890Y-73523978D01*
X143035488Y-73498958D01*
X143873150Y-72661296D01*
X143690517Y-72536779D01*
X143690516Y-72536778D01*
X143447460Y-72419730D01*
X143447462Y-72419730D01*
X143189662Y-72340209D01*
X143189656Y-72340207D01*
X142922898Y-72300000D01*
X142653101Y-72300000D01*
X142386343Y-72340207D01*
X142386337Y-72340209D01*
X142128538Y-72419730D01*
X141885485Y-72536778D01*
X141885476Y-72536783D01*
X141702848Y-72661296D01*
X142540511Y-73498958D01*
X142480110Y-73523978D01*
X142373649Y-73595112D01*
X142283112Y-73685649D01*
X142211978Y-73792110D01*
X142186958Y-73852511D01*
X141350295Y-73015848D01*
X141296600Y-73083180D01*
X141161709Y-73316818D01*
X141063148Y-73567947D01*
X141063142Y-73567966D01*
X141003113Y-73830971D01*
X141003113Y-73830973D01*
X140982953Y-74099995D01*
X131050000Y-74099995D01*
X131050000Y-74035981D01*
X131025021Y-73910402D01*
X131000001Y-73850000D01*
X132200000Y-73850000D01*
X132200000Y-72752172D01*
X132199999Y-72752155D01*
X132193598Y-72692627D01*
X132193596Y-72692620D01*
X132143354Y-72557913D01*
X132143350Y-72557906D01*
X132057190Y-72442812D01*
X132057187Y-72442809D01*
X131942093Y-72356649D01*
X131942086Y-72356645D01*
X131807379Y-72306403D01*
X131807372Y-72306401D01*
X131747844Y-72300000D01*
X130650000Y-72300000D01*
X130650000Y-73499998D01*
X130589598Y-73474979D01*
X130464019Y-73450000D01*
X130335981Y-73450000D01*
X130210402Y-73474979D01*
X130150000Y-73499998D01*
X130150000Y-72300000D01*
X129052155Y-72300000D01*
X128992627Y-72306401D01*
X128992620Y-72306403D01*
X128857913Y-72356645D01*
X128857906Y-72356649D01*
X128742812Y-72442809D01*
X128742809Y-72442812D01*
X128656649Y-72557906D01*
X128656645Y-72557913D01*
X128606403Y-72692620D01*
X128606401Y-72692627D01*
X128600000Y-72752155D01*
X126075376Y-72752155D01*
X125866106Y-72665473D01*
X125635954Y-72610219D01*
X125635955Y-72610219D01*
X125400000Y-72591650D01*
X125164044Y-72610219D01*
X124933893Y-72665473D01*
X124715222Y-72756049D01*
X124513416Y-72879717D01*
X124513411Y-72879720D01*
X124333435Y-73033435D01*
X124179720Y-73213411D01*
X124179717Y-73213416D01*
X124056049Y-73415222D01*
X123965473Y-73633893D01*
X123910219Y-73864044D01*
X123891650Y-74100000D01*
X113880308Y-74100000D01*
X113952689Y-73988543D01*
X114128755Y-73642994D01*
X114267737Y-73280936D01*
X114368112Y-72906330D01*
X114368113Y-72906323D01*
X114428780Y-72523287D01*
X114449078Y-72136000D01*
X114449078Y-72135999D01*
X114428780Y-71748712D01*
X114368113Y-71365676D01*
X114368112Y-71365669D01*
X114267737Y-70991063D01*
X114128755Y-70629005D01*
X113952689Y-70283456D01*
X113741468Y-69958206D01*
X113532904Y-69700649D01*
X113532903Y-69700648D01*
X112038251Y-71195300D01*
X111964412Y-71093670D01*
X111786330Y-70915588D01*
X111684698Y-70841748D01*
X113179350Y-69347096D01*
X113179350Y-69347095D01*
X112921793Y-69138531D01*
X112596543Y-68927310D01*
X112360391Y-68806985D01*
X112309595Y-68759011D01*
X112292800Y-68691190D01*
X112315337Y-68625055D01*
X112370052Y-68581603D01*
X112416686Y-68572500D01*
X144508428Y-68572500D01*
X144575467Y-68592185D01*
G37*
%TD.AperFunction*%
%TA.AperFunction,Conductor*%
G36*
X170428902Y-143151349D02*
G01*
X170637475Y-142893785D01*
X170637476Y-142893783D01*
X170848691Y-142568541D01*
X170848692Y-142568538D01*
X170970936Y-142328620D01*
X171018910Y-142277823D01*
X171086731Y-142261028D01*
X171152866Y-142283565D01*
X171196318Y-142338280D01*
X171205421Y-142385087D01*
X171203605Y-143689379D01*
X171203502Y-143690947D01*
X171203502Y-143757038D01*
X171202722Y-143770923D01*
X171192141Y-143864824D01*
X171185962Y-143891894D01*
X171157063Y-143974482D01*
X171145016Y-143999499D01*
X171098467Y-144073582D01*
X171081154Y-144095291D01*
X171019289Y-144157156D01*
X170997580Y-144174469D01*
X170923503Y-144221015D01*
X170898485Y-144233063D01*
X170815893Y-144261963D01*
X170788824Y-144268141D01*
X170712428Y-144276749D01*
X170694940Y-144278720D01*
X170681058Y-144279500D01*
X169312686Y-144279500D01*
X169245647Y-144259815D01*
X169199892Y-144207011D01*
X169189948Y-144137853D01*
X169218973Y-144074297D01*
X169256391Y-144045015D01*
X169492543Y-143924689D01*
X169817783Y-143713476D01*
X169817785Y-143713475D01*
X170075349Y-143504902D01*
X168580698Y-142010251D01*
X168682330Y-141936412D01*
X168860412Y-141758330D01*
X168934251Y-141656698D01*
X170428902Y-143151349D01*
G37*
%TD.AperFunction*%
%TA.AperFunction,Conductor*%
G36*
X109138353Y-68592185D02*
G01*
X109184108Y-68644989D01*
X109194052Y-68714147D01*
X109165027Y-68777703D01*
X109127609Y-68806985D01*
X108891456Y-68927310D01*
X108566206Y-69138531D01*
X108308648Y-69347095D01*
X108308648Y-69347096D01*
X109803301Y-70841748D01*
X109701670Y-70915588D01*
X109523588Y-71093670D01*
X109449748Y-71195300D01*
X107955096Y-69700648D01*
X107955095Y-69700648D01*
X107746531Y-69958206D01*
X107535308Y-70283458D01*
X107535306Y-70283462D01*
X107517348Y-70318706D01*
X107469373Y-70369500D01*
X107401551Y-70386294D01*
X107335417Y-70363755D01*
X107291967Y-70309039D01*
X107282865Y-70262239D01*
X107284397Y-69162723D01*
X107284502Y-69161161D01*
X107284502Y-69094961D01*
X107285282Y-69081078D01*
X107295862Y-68987177D01*
X107295863Y-68987175D01*
X107295862Y-68987173D01*
X107302040Y-68960107D01*
X107330940Y-68877511D01*
X107342982Y-68852509D01*
X107389539Y-68778413D01*
X107406842Y-68756717D01*
X107468716Y-68694843D01*
X107490415Y-68677538D01*
X107564505Y-68630984D01*
X107589519Y-68618939D01*
X107672107Y-68590040D01*
X107699177Y-68583861D01*
X107739033Y-68579371D01*
X107793099Y-68573280D01*
X107806981Y-68572500D01*
X107865893Y-68572500D01*
X109071314Y-68572500D01*
X109138353Y-68592185D01*
G37*
%TD.AperFunction*%
%TA.AperFunction,Conductor*%
G36*
X170798923Y-68573280D02*
G01*
X170892823Y-68583860D01*
X170919892Y-68590038D01*
X171002481Y-68618937D01*
X171027499Y-68630985D01*
X171101581Y-68677534D01*
X171123289Y-68694846D01*
X171185155Y-68756712D01*
X171202465Y-68778418D01*
X171220415Y-68806985D01*
X171249014Y-68852498D01*
X171261063Y-68877518D01*
X171289961Y-68960107D01*
X171296139Y-68987175D01*
X171306711Y-69080997D01*
X171307491Y-69095055D01*
X171305268Y-70690895D01*
X171285490Y-70757907D01*
X171232622Y-70803588D01*
X171163450Y-70813435D01*
X171099935Y-70784322D01*
X171065504Y-70735160D01*
X171024755Y-70629005D01*
X170848689Y-70283456D01*
X170637468Y-69958206D01*
X170428904Y-69700649D01*
X170428903Y-69700648D01*
X168934251Y-71195300D01*
X168860412Y-71093670D01*
X168682330Y-70915588D01*
X168580698Y-70841748D01*
X170075350Y-69347096D01*
X170075350Y-69347095D01*
X169817793Y-69138531D01*
X169492543Y-68927310D01*
X169256391Y-68806985D01*
X169205595Y-68759011D01*
X169188800Y-68691190D01*
X169211337Y-68625055D01*
X169266052Y-68581603D01*
X169312686Y-68572500D01*
X170726109Y-68572500D01*
X170785039Y-68572500D01*
X170798923Y-68573280D01*
G37*
%TD.AperFunction*%
%TD*%
%TA.AperFunction,Conductor*%
%TO.N,GND*%
G36*
X171125862Y-110748961D02*
G01*
X171192811Y-110768945D01*
X171238330Y-110821952D01*
X171249307Y-110873133D01*
X171228025Y-126154704D01*
X171208247Y-126221716D01*
X171155379Y-126267397D01*
X171101655Y-126278508D01*
X151420707Y-125902307D01*
X151354056Y-125881345D01*
X151309319Y-125827676D01*
X151299081Y-125779274D01*
X151240846Y-118128504D01*
X151260019Y-118061320D01*
X151312474Y-118015165D01*
X151381554Y-118004695D01*
X151445329Y-118033236D01*
X151452523Y-118039883D01*
X153755318Y-120342679D01*
X153755319Y-120342680D01*
X153755321Y-120342681D01*
X153755323Y-120342683D01*
X153808892Y-120373610D01*
X153808893Y-120373611D01*
X153848103Y-120396249D01*
X153848104Y-120396250D01*
X153848106Y-120396250D01*
X153848109Y-120396252D01*
X153951597Y-120423982D01*
X156147303Y-120423982D01*
X156214342Y-120443667D01*
X156222770Y-120449592D01*
X156324714Y-120527816D01*
X156466950Y-120586732D01*
X156543268Y-120596779D01*
X156619586Y-120606827D01*
X156619587Y-120606827D01*
X156619588Y-120606827D01*
X156670466Y-120600128D01*
X156772224Y-120586732D01*
X156914460Y-120527816D01*
X157036600Y-120434095D01*
X157130321Y-120311955D01*
X157189237Y-120169719D01*
X157209332Y-120017082D01*
X157189237Y-119864445D01*
X157130321Y-119722210D01*
X157130320Y-119722209D01*
X157130320Y-119722208D01*
X157036601Y-119600070D01*
X157024125Y-119590497D01*
X156914460Y-119506348D01*
X156772224Y-119447432D01*
X156772222Y-119447431D01*
X156619588Y-119427337D01*
X156619586Y-119427337D01*
X156466951Y-119447431D01*
X156466949Y-119447432D01*
X156324713Y-119506348D01*
X156222788Y-119584558D01*
X156157618Y-119609752D01*
X156147302Y-119610182D01*
X154225072Y-119610182D01*
X154158033Y-119590497D01*
X154137391Y-119573863D01*
X153947730Y-119384202D01*
X159996122Y-119384202D01*
X160016734Y-119527565D01*
X160016736Y-119527573D01*
X160076902Y-119659319D01*
X160076907Y-119659327D01*
X160171753Y-119768786D01*
X160171755Y-119768787D01*
X160171756Y-119768788D01*
X160293606Y-119847096D01*
X160293607Y-119847096D01*
X160293610Y-119847098D01*
X160432578Y-119887901D01*
X160432580Y-119887902D01*
X160432581Y-119887902D01*
X160577424Y-119887902D01*
X160577424Y-119887901D01*
X160716398Y-119847096D01*
X160772898Y-119810785D01*
X160839936Y-119791102D01*
X166998565Y-119791102D01*
X166998568Y-119791102D01*
X167102056Y-119763372D01*
X167194841Y-119709803D01*
X168324084Y-118580559D01*
X168376827Y-118549265D01*
X168486396Y-118517094D01*
X168608246Y-118438786D01*
X168703097Y-118329321D01*
X168763267Y-118197568D01*
X168783880Y-118054200D01*
X168763267Y-117910832D01*
X168750287Y-117882410D01*
X168703099Y-117779082D01*
X168703094Y-117779074D01*
X168608248Y-117669615D01*
X168486391Y-117591303D01*
X168347423Y-117550500D01*
X168347421Y-117550500D01*
X168202579Y-117550500D01*
X168202576Y-117550500D01*
X168063608Y-117591303D01*
X167941751Y-117669615D01*
X167846905Y-117779074D01*
X167846902Y-117779080D01*
X167786733Y-117910830D01*
X167786732Y-117910834D01*
X167783170Y-117935609D01*
X167754143Y-117999165D01*
X167748113Y-118005641D01*
X166812773Y-118940983D01*
X166751450Y-118974468D01*
X166725092Y-118977302D01*
X160839936Y-118977302D01*
X160772898Y-118957618D01*
X160716398Y-118921308D01*
X160716394Y-118921306D01*
X160716393Y-118921306D01*
X160577425Y-118880502D01*
X160577423Y-118880502D01*
X160432581Y-118880502D01*
X160432578Y-118880502D01*
X160293610Y-118921305D01*
X160171753Y-118999617D01*
X160076907Y-119109076D01*
X160076902Y-119109084D01*
X160016736Y-119240830D01*
X160016734Y-119240838D01*
X159996122Y-119384202D01*
X153947730Y-119384202D01*
X151309761Y-116746233D01*
X151276276Y-116684910D01*
X151274503Y-116674737D01*
X151257734Y-116547363D01*
X151237520Y-116498564D01*
X151228086Y-116452062D01*
X151184955Y-110785501D01*
X151204128Y-110718314D01*
X151256583Y-110672159D01*
X151309500Y-110660559D01*
X171125862Y-110748961D01*
G37*
%TD.AperFunction*%
%TD*%
M02*
