%TF.GenerationSoftware,KiCad,Pcbnew,8.0.4*%
%TF.CreationDate,2025-06-08T20:42:27-04:00*%
%TF.ProjectId,12V-48V_Boost_Board,3132562d-3438-4565-9f42-6f6f73745f42,rev?*%
%TF.SameCoordinates,Original*%
%TF.FileFunction,Soldermask,Top*%
%TF.FilePolarity,Negative*%
%FSLAX46Y46*%
G04 Gerber Fmt 4.6, Leading zero omitted, Abs format (unit mm)*
G04 Created by KiCad (PCBNEW 8.0.4) date 2025-06-08 20:42:27*
%MOMM*%
%LPD*%
G01*
G04 APERTURE LIST*
G04 Aperture macros list*
%AMRoundRect*
0 Rectangle with rounded corners*
0 $1 Rounding radius*
0 $2 $3 $4 $5 $6 $7 $8 $9 X,Y pos of 4 corners*
0 Add a 4 corners polygon primitive as box body*
4,1,4,$2,$3,$4,$5,$6,$7,$8,$9,$2,$3,0*
0 Add four circle primitives for the rounded corners*
1,1,$1+$1,$2,$3*
1,1,$1+$1,$4,$5*
1,1,$1+$1,$6,$7*
1,1,$1+$1,$8,$9*
0 Add four rect primitives between the rounded corners*
20,1,$1+$1,$2,$3,$4,$5,0*
20,1,$1+$1,$4,$5,$6,$7,0*
20,1,$1+$1,$6,$7,$8,$9,0*
20,1,$1+$1,$8,$9,$2,$3,0*%
G04 Aperture macros list end*
%ADD10C,0.000000*%
%ADD11R,3.302000X0.990600*%
%ADD12R,9.017000X10.388600*%
%ADD13R,3.243586X3.911596*%
%ADD14R,1.727200X0.508000*%
%ADD15RoundRect,0.250000X0.475000X-0.337500X0.475000X0.337500X-0.475000X0.337500X-0.475000X-0.337500X0*%
%ADD16RoundRect,0.250000X-0.475000X0.337500X-0.475000X-0.337500X0.475000X-0.337500X0.475000X0.337500X0*%
%ADD17RoundRect,0.250000X0.350000X0.450000X-0.350000X0.450000X-0.350000X-0.450000X0.350000X-0.450000X0*%
%ADD18RoundRect,0.102000X-1.525000X-1.840000X1.525000X-1.840000X1.525000X1.840000X-1.525000X1.840000X0*%
%ADD19C,2.600000*%
%ADD20R,2.600000X2.600000*%
%ADD21RoundRect,0.250000X-1.350000X-1.975000X1.350000X-1.975000X1.350000X1.975000X-1.350000X1.975000X0*%
%ADD22R,5.590000X5.330000*%
%ADD23R,5.280000X6.350000*%
%ADD24RoundRect,0.250000X-0.350000X-0.450000X0.350000X-0.450000X0.350000X0.450000X-0.350000X0.450000X0*%
%ADD25RoundRect,0.102000X0.605000X0.910000X-0.605000X0.910000X-0.605000X-0.910000X0.605000X-0.910000X0*%
%ADD26C,6.400000*%
%ADD27RoundRect,0.102000X-1.265000X-2.755000X1.265000X-2.755000X1.265000X2.755000X-1.265000X2.755000X0*%
%ADD28RoundRect,0.250000X-0.337500X-0.475000X0.337500X-0.475000X0.337500X0.475000X-0.337500X0.475000X0*%
%ADD29R,1.819999X2.859999*%
%ADD30R,1.955432X0.420766*%
%ADD31RoundRect,0.102000X-0.720000X-0.910000X0.720000X-0.910000X0.720000X0.910000X-0.720000X0.910000X0*%
%ADD32RoundRect,0.250000X0.337500X0.475000X-0.337500X0.475000X-0.337500X-0.475000X0.337500X-0.475000X0*%
%ADD33RoundRect,0.250000X-0.412500X-0.650000X0.412500X-0.650000X0.412500X0.650000X-0.412500X0.650000X0*%
%ADD34RoundRect,0.250000X-0.450000X0.350000X-0.450000X-0.350000X0.450000X-0.350000X0.450000X0.350000X0*%
%ADD35C,2.800000*%
%ADD36O,2.800000X2.800000*%
%ADD37C,3.810000*%
%ADD38C,2.500000*%
%ADD39R,0.304800X1.054100*%
%ADD40R,4.241800X3.810000*%
%ADD41RoundRect,0.150000X0.512500X0.150000X-0.512500X0.150000X-0.512500X-0.150000X0.512500X-0.150000X0*%
%ADD42R,1.054100X0.304800*%
G04 APERTURE END LIST*
D10*
%TO.C,Q1*%
G36*
X117477415Y-112923400D02*
G01*
X120721002Y-112923400D01*
X120721002Y-116835000D01*
X117477415Y-116835000D01*
X117477402Y-117038200D01*
X115750202Y-117038200D01*
X115750202Y-116530200D01*
X117477402Y-116530200D01*
X117477402Y-115768200D01*
X115750202Y-115768200D01*
X115750202Y-115260200D01*
X117477402Y-115260200D01*
X117477402Y-114498200D01*
X115750202Y-114498200D01*
X115750202Y-113990200D01*
X117477402Y-113990200D01*
X117477402Y-113228200D01*
X115750202Y-113228200D01*
X115750202Y-112720200D01*
X117477402Y-112720200D01*
X117477415Y-112923400D01*
G37*
%TD*%
D11*
%TO.C,D1*%
X118036202Y-121864200D03*
X118036202Y-126944200D03*
D12*
X129199502Y-124404200D03*
%TD*%
D13*
%TO.C,Q1*%
X119099209Y-114879198D03*
D14*
X116613802Y-112974200D03*
X116613802Y-114244200D03*
X116613802Y-115514200D03*
X116613802Y-116784200D03*
X122405002Y-112974200D03*
X122405002Y-114244200D03*
X122405002Y-115514200D03*
X122405002Y-116784200D03*
%TD*%
D15*
%TO.C,C21*%
X116500000Y-72037500D03*
X116500000Y-69962500D03*
%TD*%
D16*
%TO.C,C20*%
X110000000Y-76962500D03*
X110000000Y-79037500D03*
%TD*%
%TO.C,C17*%
X114000000Y-76962500D03*
X114000000Y-79037500D03*
%TD*%
%TO.C,C16*%
X118000000Y-80037500D03*
X118000000Y-77962500D03*
%TD*%
D17*
%TO.C,R6*%
X150000000Y-122000000D03*
X148000000Y-122000000D03*
%TD*%
D18*
%TO.C,R9*%
X130176000Y-115900000D03*
X125856000Y-115900000D03*
%TD*%
D19*
%TO.C,J4*%
X134540000Y-139192000D03*
D20*
X129540000Y-139192000D03*
%TD*%
D16*
%TO.C,C8*%
X145500000Y-120462500D03*
X145500000Y-122537500D03*
%TD*%
D21*
%TO.C,R1*%
X153900000Y-80000000D03*
X159100000Y-80000000D03*
%TD*%
D22*
%TO.C,L1*%
X116690002Y-91394200D03*
X116690002Y-101544200D03*
D23*
X138765002Y-96469200D03*
%TD*%
D24*
%TO.C,R7*%
X167452502Y-121864200D03*
X169452502Y-121864200D03*
%TD*%
D25*
%TO.C,C1*%
X111686000Y-84328000D03*
X108786000Y-84328000D03*
%TD*%
D24*
%TO.C,R4*%
X120396000Y-133096000D03*
X122396000Y-133096000D03*
%TD*%
%TO.C,R3*%
X125476000Y-133096000D03*
X127476000Y-133096000D03*
%TD*%
D20*
%TO.C,J3*%
X166000000Y-133500000D03*
D19*
X166000000Y-128500000D03*
%TD*%
D26*
%TO.C,H4*%
X110744000Y-72136000D03*
%TD*%
D27*
%TO.C,C9*%
X136348000Y-131064000D03*
X141020000Y-131064000D03*
%TD*%
%TO.C,C11*%
X138507000Y-115062000D03*
X143179000Y-115062000D03*
%TD*%
%TO.C,C10*%
X136348000Y-124460000D03*
X141020000Y-124460000D03*
%TD*%
D16*
%TO.C,C5*%
X149821970Y-117673200D03*
X149821970Y-119748200D03*
%TD*%
D24*
%TO.C,R11*%
X161680002Y-119324200D03*
X163680002Y-119324200D03*
%TD*%
D28*
%TO.C,C6*%
X161605002Y-124404200D03*
X163680002Y-124404200D03*
%TD*%
D20*
%TO.C,J6*%
X130400000Y-74100000D03*
D19*
X125400000Y-74100000D03*
%TD*%
D29*
%TO.C,U1*%
X155125386Y-118734201D03*
D30*
X158000770Y-116784200D03*
X158000770Y-117434201D03*
X158000770Y-118084200D03*
X158000770Y-118734201D03*
X158000770Y-119384202D03*
X158000770Y-120034201D03*
X158000770Y-120684202D03*
X152250002Y-120684202D03*
X152250002Y-120034201D03*
X152250002Y-119384202D03*
X152250002Y-118734201D03*
X152250002Y-118084200D03*
X152250002Y-117434201D03*
X152250002Y-116784200D03*
%TD*%
D25*
%TO.C,C2*%
X111686000Y-87376000D03*
X108786000Y-87376000D03*
%TD*%
D31*
%TO.C,C12*%
X137164000Y-119888000D03*
X139836000Y-119888000D03*
%TD*%
D28*
%TO.C,C7*%
X161605002Y-121864200D03*
X163680002Y-121864200D03*
%TD*%
D32*
%TO.C,C3*%
X149881500Y-113284000D03*
X147806500Y-113284000D03*
%TD*%
D33*
%TO.C,C4*%
X161632500Y-116840000D03*
X164757500Y-116840000D03*
%TD*%
D34*
%TO.C,R2*%
X150300000Y-140800000D03*
X150300000Y-138800000D03*
%TD*%
D35*
%TO.C,TH1*%
X147828000Y-105156000D03*
D36*
X147828000Y-97356000D03*
%TD*%
D24*
%TO.C,R5*%
X161642502Y-114244200D03*
X163642502Y-114244200D03*
%TD*%
D34*
%TO.C,R10*%
X168275000Y-114784200D03*
X168275000Y-116784200D03*
%TD*%
D26*
%TO.C,H1*%
X167640000Y-72136000D03*
%TD*%
D37*
%TO.C,F1*%
X162052000Y-101600000D03*
D38*
X163779000Y-97790000D03*
X160325000Y-105410000D03*
%TD*%
D26*
%TO.C,H3*%
X110744000Y-140716000D03*
%TD*%
%TO.C,H2*%
X167640000Y-140716000D03*
%TD*%
D17*
%TO.C,R8*%
X129100000Y-112500000D03*
X127100000Y-112500000D03*
%TD*%
D15*
%TO.C,C14*%
X153700000Y-73437500D03*
X153700000Y-71362500D03*
%TD*%
D39*
%TO.C,U3*%
X157349999Y-73425550D03*
X156050001Y-73425550D03*
X156050001Y-70974450D03*
X156700000Y-70974450D03*
X157349999Y-70974450D03*
%TD*%
D16*
%TO.C,C13*%
X156800000Y-135662500D03*
X156800000Y-137737500D03*
%TD*%
%TO.C,C15*%
X120500000Y-80075000D03*
X120500000Y-78000000D03*
%TD*%
D40*
%TO.C,F2*%
X140312300Y-137500000D03*
X146687700Y-137500000D03*
%TD*%
D20*
%TO.C,J1*%
X147788000Y-74100000D03*
D19*
X142788000Y-74100000D03*
%TD*%
D41*
%TO.C,U4*%
X116862500Y-75950000D03*
X116862500Y-74050000D03*
X119137500Y-74050000D03*
X119137500Y-75000000D03*
X119137500Y-75950000D03*
%TD*%
D20*
%TO.C,J5*%
X118364000Y-139192000D03*
D19*
X123364000Y-139192000D03*
%TD*%
D42*
%TO.C,U2*%
X155125550Y-140549999D03*
X155125550Y-139900000D03*
X155125550Y-139250001D03*
X152674450Y-139250001D03*
X152674450Y-140549999D03*
%TD*%
M02*
