M48
; DRILL file {KiCad 8.0.4} date 2025-06-08T20:42:22-0400
; FORMAT={-:-/ absolute / inch / decimal}
; #@! TF.CreationDate,2025-06-08T20:42:22-04:00
; #@! TF.GenerationSoftware,Kicad,Pcbnew,8.0.4
; #@! TF.FileFunction,Plated,1,2,PTH
FMAT,2
INCH
; #@! TA.AperFunction,Plated,PTH,ViaDrill
T1C0.0118
; #@! TA.AperFunction,Plated,PTH,ViaDrill
T2C0.0150
; #@! TA.AperFunction,Plated,PTH,ComponentDrill
T3C0.0512
; #@! TA.AperFunction,Plated,PTH,ComponentDrill
T4C0.0551
; #@! TA.AperFunction,Plated,PTH,ComponentDrill
T5C0.0630
; #@! TA.AperFunction,Plated,PTH,ComponentDrill
T6C0.1260
%
G90
G05
T1
X4.6Y-3.78
X4.9094Y-3.1969
X5.0866Y-3.0551
X5.4488Y-2.7913
X5.626Y-3.1969
X5.76Y-4.36
X6.0524Y-4.6708
X6.075Y-4.575
X6.0773Y-4.7806
X6.0906Y-2.9567
X6.125Y-4.7806
X6.1376Y-4.575
X6.1538Y-2.7522
X6.1622Y-4.6746
X6.1693Y-5.5079
X6.1732Y-5.2756
X6.2008Y-5.5236
X6.2559Y-5.4764
X6.3191Y-4.7002
X6.4291Y-5.2559
X6.625Y-4.6478
T2
X4.2913Y-3.2283
X4.2913Y-3.5433
X4.3504Y-3.7205
X4.3504Y-4.0354
X4.3504Y-4.3504
X4.3504Y-4.6654
X4.3504Y-4.9803
X4.4094Y-3.1102
X4.5079Y-5.2362
X4.5157Y-2.7559
X4.6732Y-3.2638
X4.7244Y-3.248
X4.7441Y-2.9528
X4.8228Y-3.7008
X4.8228Y-3.8583
X4.8228Y-4.0157
X4.8228Y-4.1732
X4.8228Y-4.3307
X4.8425Y-4.7835
X4.8425Y-4.9213
X4.8425Y-5.0787
X4.8583Y-5.1535
X4.9803Y-3.7008
X4.9803Y-3.8583
X4.9803Y-4.0157
X4.9803Y-4.1732
X4.9803Y-4.3307
X5.1378Y-3.7008
X5.1378Y-3.8583
X5.1378Y-4.0157
X5.1378Y-4.1732
X5.1378Y-4.3307
X5.1494Y-4.3778
X5.1502Y-4.4208
X5.2362Y-4.4488
X5.2362Y-4.5079
X5.2362Y-4.5669
X5.2953Y-3.7008
X5.2953Y-4.0157
X5.2953Y-4.1732
X5.2953Y-4.3307
X5.2953Y-4.4488
X5.2953Y-4.5079
X5.2953Y-4.5669
X5.4528Y-4.1732
X5.4528Y-4.3307
X5.5262Y-4.4488
X5.5642Y-4.4488
X5.6496Y-4.7638
X5.6496Y-4.8425
X5.6496Y-4.9213
X5.6496Y-5.0197
X5.6496Y-5.1181
X5.6496Y-5.2165
X5.7087Y-2.7249
X5.748Y-4.4094
X5.748Y-4.5079
X5.748Y-4.6063
X5.748Y-4.9213
X5.748Y-5.0197
X5.748Y-5.1181
X5.748Y-5.2165
X5.7537Y-2.829
X5.8465Y-4.7056
X5.8465Y-4.9213
X5.8465Y-5.0197
X5.8465Y-5.1181
X5.8465Y-5.2205
X5.9326Y-4.5945
X6.0433Y-4.4291
X6.063Y-3.4646
X6.063Y-3.9173
X6.1661Y-4.7251
X6.4961Y-4.0354
X6.4961Y-4.2323
X6.6339Y-3.0512
X6.6732Y-3.3465
X6.6929Y-3.6614
X6.6929Y-4.0354
X6.6929Y-4.2323
X6.6929Y-5.0197
X6.7126Y-4.4488
T3
X4.66Y-5.48
X4.8569Y-5.48
X4.937Y-2.9173
X5.1Y-5.48
X5.1339Y-2.9173
X5.2969Y-5.48
X5.6216Y-2.9173
X5.8184Y-2.9173
X6.5354Y-5.0591
X6.5354Y-5.2559
T4
X5.82Y-3.8329
X5.82Y-4.14
T5
X6.312Y-4.15
X6.448Y-3.85
T6
X4.36Y-2.84
X4.36Y-5.54
X6.6Y-2.84
X6.6Y-5.54
M30
