%TF.GenerationSoftware,KiCad,Pcbnew,8.0.4*%
%TF.CreationDate,2025-06-08T20:42:27-04:00*%
%TF.ProjectId,12V-48V_Boost_Board,3132562d-3438-4565-9f42-6f6f73745f42,rev?*%
%TF.SameCoordinates,Original*%
%TF.FileFunction,Legend,Top*%
%TF.FilePolarity,Positive*%
%FSLAX46Y46*%
G04 Gerber Fmt 4.6, Leading zero omitted, Abs format (unit mm)*
G04 Created by KiCad (PCBNEW 8.0.4) date 2025-06-08 20:42:27*
%MOMM*%
%LPD*%
G01*
G04 APERTURE LIST*
%ADD10C,0.300000*%
%ADD11C,0.200000*%
%ADD12C,0.250000*%
%ADD13C,0.275000*%
%ADD14C,0.150000*%
%ADD15C,0.254000*%
%ADD16C,0.152400*%
%ADD17C,0.120000*%
%ADD18C,0.127000*%
G04 APERTURE END LIST*
D10*
X143125939Y-80327742D02*
X143268797Y-80399171D01*
X143268797Y-80399171D02*
X143483082Y-80399171D01*
X143483082Y-80399171D02*
X143697368Y-80327742D01*
X143697368Y-80327742D02*
X143840225Y-80184885D01*
X143840225Y-80184885D02*
X143911654Y-80042028D01*
X143911654Y-80042028D02*
X143983082Y-79756314D01*
X143983082Y-79756314D02*
X143983082Y-79542028D01*
X143983082Y-79542028D02*
X143911654Y-79256314D01*
X143911654Y-79256314D02*
X143840225Y-79113457D01*
X143840225Y-79113457D02*
X143697368Y-78970600D01*
X143697368Y-78970600D02*
X143483082Y-78899171D01*
X143483082Y-78899171D02*
X143340225Y-78899171D01*
X143340225Y-78899171D02*
X143125939Y-78970600D01*
X143125939Y-78970600D02*
X143054511Y-79042028D01*
X143054511Y-79042028D02*
X143054511Y-79542028D01*
X143054511Y-79542028D02*
X143340225Y-79542028D01*
X142411654Y-78899171D02*
X142411654Y-80399171D01*
X142411654Y-80399171D02*
X141554511Y-78899171D01*
X141554511Y-78899171D02*
X141554511Y-80399171D01*
X140840225Y-78899171D02*
X140840225Y-80399171D01*
X140840225Y-80399171D02*
X140483082Y-80399171D01*
X140483082Y-80399171D02*
X140268796Y-80327742D01*
X140268796Y-80327742D02*
X140125939Y-80184885D01*
X140125939Y-80184885D02*
X140054510Y-80042028D01*
X140054510Y-80042028D02*
X139983082Y-79756314D01*
X139983082Y-79756314D02*
X139983082Y-79542028D01*
X139983082Y-79542028D02*
X140054510Y-79256314D01*
X140054510Y-79256314D02*
X140125939Y-79113457D01*
X140125939Y-79113457D02*
X140268796Y-78970600D01*
X140268796Y-78970600D02*
X140483082Y-78899171D01*
X140483082Y-78899171D02*
X140840225Y-78899171D01*
D11*
X123491695Y-134850626D02*
X124291695Y-134583959D01*
X124291695Y-134583959D02*
X123491695Y-134317293D01*
X124253600Y-134088722D02*
X124291695Y-133974436D01*
X124291695Y-133974436D02*
X124291695Y-133783960D01*
X124291695Y-133783960D02*
X124253600Y-133707769D01*
X124253600Y-133707769D02*
X124215504Y-133669674D01*
X124215504Y-133669674D02*
X124139314Y-133631579D01*
X124139314Y-133631579D02*
X124063123Y-133631579D01*
X124063123Y-133631579D02*
X123986933Y-133669674D01*
X123986933Y-133669674D02*
X123948838Y-133707769D01*
X123948838Y-133707769D02*
X123910742Y-133783960D01*
X123910742Y-133783960D02*
X123872647Y-133936341D01*
X123872647Y-133936341D02*
X123834552Y-134012531D01*
X123834552Y-134012531D02*
X123796457Y-134050626D01*
X123796457Y-134050626D02*
X123720266Y-134088722D01*
X123720266Y-134088722D02*
X123644076Y-134088722D01*
X123644076Y-134088722D02*
X123567885Y-134050626D01*
X123567885Y-134050626D02*
X123529790Y-134012531D01*
X123529790Y-134012531D02*
X123491695Y-133936341D01*
X123491695Y-133936341D02*
X123491695Y-133745864D01*
X123491695Y-133745864D02*
X123529790Y-133631579D01*
X123872647Y-133288721D02*
X123872647Y-133022055D01*
X124291695Y-132907769D02*
X124291695Y-133288721D01*
X124291695Y-133288721D02*
X123491695Y-133288721D01*
X123491695Y-133288721D02*
X123491695Y-132907769D01*
X124291695Y-132564911D02*
X123491695Y-132564911D01*
X123491695Y-132564911D02*
X124291695Y-132107768D01*
X124291695Y-132107768D02*
X123491695Y-132107768D01*
X124253600Y-131764912D02*
X124291695Y-131650626D01*
X124291695Y-131650626D02*
X124291695Y-131460150D01*
X124291695Y-131460150D02*
X124253600Y-131383959D01*
X124253600Y-131383959D02*
X124215504Y-131345864D01*
X124215504Y-131345864D02*
X124139314Y-131307769D01*
X124139314Y-131307769D02*
X124063123Y-131307769D01*
X124063123Y-131307769D02*
X123986933Y-131345864D01*
X123986933Y-131345864D02*
X123948838Y-131383959D01*
X123948838Y-131383959D02*
X123910742Y-131460150D01*
X123910742Y-131460150D02*
X123872647Y-131612531D01*
X123872647Y-131612531D02*
X123834552Y-131688721D01*
X123834552Y-131688721D02*
X123796457Y-131726816D01*
X123796457Y-131726816D02*
X123720266Y-131764912D01*
X123720266Y-131764912D02*
X123644076Y-131764912D01*
X123644076Y-131764912D02*
X123567885Y-131726816D01*
X123567885Y-131726816D02*
X123529790Y-131688721D01*
X123529790Y-131688721D02*
X123491695Y-131612531D01*
X123491695Y-131612531D02*
X123491695Y-131422054D01*
X123491695Y-131422054D02*
X123529790Y-131307769D01*
X123872647Y-130964911D02*
X123872647Y-130698245D01*
X124291695Y-130583959D02*
X124291695Y-130964911D01*
X124291695Y-130964911D02*
X123491695Y-130964911D01*
X123491695Y-130964911D02*
X123491695Y-130583959D01*
X117714838Y-134017292D02*
X117667219Y-134112530D01*
X117667219Y-134112530D02*
X117667219Y-134255387D01*
X117667219Y-134255387D02*
X117714838Y-134398244D01*
X117714838Y-134398244D02*
X117810076Y-134493482D01*
X117810076Y-134493482D02*
X117905314Y-134541101D01*
X117905314Y-134541101D02*
X118095790Y-134588720D01*
X118095790Y-134588720D02*
X118238647Y-134588720D01*
X118238647Y-134588720D02*
X118429123Y-134541101D01*
X118429123Y-134541101D02*
X118524361Y-134493482D01*
X118524361Y-134493482D02*
X118619600Y-134398244D01*
X118619600Y-134398244D02*
X118667219Y-134255387D01*
X118667219Y-134255387D02*
X118667219Y-134160149D01*
X118667219Y-134160149D02*
X118619600Y-134017292D01*
X118619600Y-134017292D02*
X118571980Y-133969673D01*
X118571980Y-133969673D02*
X118238647Y-133969673D01*
X118238647Y-133969673D02*
X118238647Y-134160149D01*
X118667219Y-133541101D02*
X117667219Y-133541101D01*
X117667219Y-133541101D02*
X118667219Y-132969673D01*
X118667219Y-132969673D02*
X117667219Y-132969673D01*
X118667219Y-132493482D02*
X117667219Y-132493482D01*
X117667219Y-132493482D02*
X117667219Y-132255387D01*
X117667219Y-132255387D02*
X117714838Y-132112530D01*
X117714838Y-132112530D02*
X117810076Y-132017292D01*
X117810076Y-132017292D02*
X117905314Y-131969673D01*
X117905314Y-131969673D02*
X118095790Y-131922054D01*
X118095790Y-131922054D02*
X118238647Y-131922054D01*
X118238647Y-131922054D02*
X118429123Y-131969673D01*
X118429123Y-131969673D02*
X118524361Y-132017292D01*
X118524361Y-132017292D02*
X118619600Y-132112530D01*
X118619600Y-132112530D02*
X118667219Y-132255387D01*
X118667219Y-132255387D02*
X118667219Y-132493482D01*
D12*
X129312238Y-134150187D02*
X129264619Y-134245425D01*
X129264619Y-134245425D02*
X129264619Y-134388282D01*
X129264619Y-134388282D02*
X129312238Y-134531139D01*
X129312238Y-134531139D02*
X129407476Y-134626377D01*
X129407476Y-134626377D02*
X129502714Y-134673996D01*
X129502714Y-134673996D02*
X129693190Y-134721615D01*
X129693190Y-134721615D02*
X129836047Y-134721615D01*
X129836047Y-134721615D02*
X130026523Y-134673996D01*
X130026523Y-134673996D02*
X130121761Y-134626377D01*
X130121761Y-134626377D02*
X130217000Y-134531139D01*
X130217000Y-134531139D02*
X130264619Y-134388282D01*
X130264619Y-134388282D02*
X130264619Y-134293044D01*
X130264619Y-134293044D02*
X130217000Y-134150187D01*
X130217000Y-134150187D02*
X130169380Y-134102568D01*
X130169380Y-134102568D02*
X129836047Y-134102568D01*
X129836047Y-134102568D02*
X129836047Y-134293044D01*
X130264619Y-133673996D02*
X129264619Y-133673996D01*
X129264619Y-133673996D02*
X130264619Y-133102568D01*
X130264619Y-133102568D02*
X129264619Y-133102568D01*
X130264619Y-132626377D02*
X129264619Y-132626377D01*
X129264619Y-132626377D02*
X129264619Y-132388282D01*
X129264619Y-132388282D02*
X129312238Y-132245425D01*
X129312238Y-132245425D02*
X129407476Y-132150187D01*
X129407476Y-132150187D02*
X129502714Y-132102568D01*
X129502714Y-132102568D02*
X129693190Y-132054949D01*
X129693190Y-132054949D02*
X129836047Y-132054949D01*
X129836047Y-132054949D02*
X130026523Y-132102568D01*
X130026523Y-132102568D02*
X130121761Y-132150187D01*
X130121761Y-132150187D02*
X130217000Y-132245425D01*
X130217000Y-132245425D02*
X130264619Y-132388282D01*
X130264619Y-132388282D02*
X130264619Y-132626377D01*
X133783666Y-134526377D02*
X133783666Y-133764473D01*
X134164619Y-134145425D02*
X133402714Y-134145425D01*
X133497952Y-132859711D02*
X134164619Y-132859711D01*
X133117000Y-133097806D02*
X133831285Y-133335901D01*
X133831285Y-133335901D02*
X133831285Y-132716854D01*
X133593190Y-132193044D02*
X133545571Y-132288282D01*
X133545571Y-132288282D02*
X133497952Y-132335901D01*
X133497952Y-132335901D02*
X133402714Y-132383520D01*
X133402714Y-132383520D02*
X133355095Y-132383520D01*
X133355095Y-132383520D02*
X133259857Y-132335901D01*
X133259857Y-132335901D02*
X133212238Y-132288282D01*
X133212238Y-132288282D02*
X133164619Y-132193044D01*
X133164619Y-132193044D02*
X133164619Y-132002568D01*
X133164619Y-132002568D02*
X133212238Y-131907330D01*
X133212238Y-131907330D02*
X133259857Y-131859711D01*
X133259857Y-131859711D02*
X133355095Y-131812092D01*
X133355095Y-131812092D02*
X133402714Y-131812092D01*
X133402714Y-131812092D02*
X133497952Y-131859711D01*
X133497952Y-131859711D02*
X133545571Y-131907330D01*
X133545571Y-131907330D02*
X133593190Y-132002568D01*
X133593190Y-132002568D02*
X133593190Y-132193044D01*
X133593190Y-132193044D02*
X133640809Y-132288282D01*
X133640809Y-132288282D02*
X133688428Y-132335901D01*
X133688428Y-132335901D02*
X133783666Y-132383520D01*
X133783666Y-132383520D02*
X133974142Y-132383520D01*
X133974142Y-132383520D02*
X134069380Y-132335901D01*
X134069380Y-132335901D02*
X134117000Y-132288282D01*
X134117000Y-132288282D02*
X134164619Y-132193044D01*
X134164619Y-132193044D02*
X134164619Y-132002568D01*
X134164619Y-132002568D02*
X134117000Y-131907330D01*
X134117000Y-131907330D02*
X134069380Y-131859711D01*
X134069380Y-131859711D02*
X133974142Y-131812092D01*
X133974142Y-131812092D02*
X133783666Y-131812092D01*
X133783666Y-131812092D02*
X133688428Y-131859711D01*
X133688428Y-131859711D02*
X133640809Y-131907330D01*
X133640809Y-131907330D02*
X133593190Y-132002568D01*
X133164619Y-131526377D02*
X134164619Y-131193044D01*
X134164619Y-131193044D02*
X133164619Y-130859711D01*
D11*
X158982707Y-133614838D02*
X158887469Y-133567219D01*
X158887469Y-133567219D02*
X158744612Y-133567219D01*
X158744612Y-133567219D02*
X158601755Y-133614838D01*
X158601755Y-133614838D02*
X158506517Y-133710076D01*
X158506517Y-133710076D02*
X158458898Y-133805314D01*
X158458898Y-133805314D02*
X158411279Y-133995790D01*
X158411279Y-133995790D02*
X158411279Y-134138647D01*
X158411279Y-134138647D02*
X158458898Y-134329123D01*
X158458898Y-134329123D02*
X158506517Y-134424361D01*
X158506517Y-134424361D02*
X158601755Y-134519600D01*
X158601755Y-134519600D02*
X158744612Y-134567219D01*
X158744612Y-134567219D02*
X158839850Y-134567219D01*
X158839850Y-134567219D02*
X158982707Y-134519600D01*
X158982707Y-134519600D02*
X159030326Y-134471980D01*
X159030326Y-134471980D02*
X159030326Y-134138647D01*
X159030326Y-134138647D02*
X158839850Y-134138647D01*
X159458898Y-134567219D02*
X159458898Y-133567219D01*
X159458898Y-133567219D02*
X160030326Y-134567219D01*
X160030326Y-134567219D02*
X160030326Y-133567219D01*
X160506517Y-134567219D02*
X160506517Y-133567219D01*
X160506517Y-133567219D02*
X160744612Y-133567219D01*
X160744612Y-133567219D02*
X160887469Y-133614838D01*
X160887469Y-133614838D02*
X160982707Y-133710076D01*
X160982707Y-133710076D02*
X161030326Y-133805314D01*
X161030326Y-133805314D02*
X161077945Y-133995790D01*
X161077945Y-133995790D02*
X161077945Y-134138647D01*
X161077945Y-134138647D02*
X161030326Y-134329123D01*
X161030326Y-134329123D02*
X160982707Y-134424361D01*
X160982707Y-134424361D02*
X160887469Y-134519600D01*
X160887469Y-134519600D02*
X160744612Y-134567219D01*
X160744612Y-134567219D02*
X160506517Y-134567219D01*
X156516040Y-129062036D02*
X156468421Y-129109656D01*
X156468421Y-129109656D02*
X156325564Y-129157275D01*
X156325564Y-129157275D02*
X156230326Y-129157275D01*
X156230326Y-129157275D02*
X156087469Y-129109656D01*
X156087469Y-129109656D02*
X155992231Y-129014417D01*
X155992231Y-129014417D02*
X155944612Y-128919179D01*
X155944612Y-128919179D02*
X155896993Y-128728703D01*
X155896993Y-128728703D02*
X155896993Y-128585846D01*
X155896993Y-128585846D02*
X155944612Y-128395370D01*
X155944612Y-128395370D02*
X155992231Y-128300132D01*
X155992231Y-128300132D02*
X156087469Y-128204894D01*
X156087469Y-128204894D02*
X156230326Y-128157275D01*
X156230326Y-128157275D02*
X156325564Y-128157275D01*
X156325564Y-128157275D02*
X156468421Y-128204894D01*
X156468421Y-128204894D02*
X156516040Y-128252513D01*
X156896993Y-129109656D02*
X157039850Y-129157275D01*
X157039850Y-129157275D02*
X157277945Y-129157275D01*
X157277945Y-129157275D02*
X157373183Y-129109656D01*
X157373183Y-129109656D02*
X157420802Y-129062036D01*
X157420802Y-129062036D02*
X157468421Y-128966798D01*
X157468421Y-128966798D02*
X157468421Y-128871560D01*
X157468421Y-128871560D02*
X157420802Y-128776322D01*
X157420802Y-128776322D02*
X157373183Y-128728703D01*
X157373183Y-128728703D02*
X157277945Y-128681084D01*
X157277945Y-128681084D02*
X157087469Y-128633465D01*
X157087469Y-128633465D02*
X156992231Y-128585846D01*
X156992231Y-128585846D02*
X156944612Y-128538227D01*
X156944612Y-128538227D02*
X156896993Y-128442989D01*
X156896993Y-128442989D02*
X156896993Y-128347751D01*
X156896993Y-128347751D02*
X156944612Y-128252513D01*
X156944612Y-128252513D02*
X156992231Y-128204894D01*
X156992231Y-128204894D02*
X157087469Y-128157275D01*
X157087469Y-128157275D02*
X157325564Y-128157275D01*
X157325564Y-128157275D02*
X157468421Y-128204894D01*
X157896993Y-128633465D02*
X158230326Y-128633465D01*
X158373183Y-129157275D02*
X157896993Y-129157275D01*
X157896993Y-129157275D02*
X157896993Y-128157275D01*
X157896993Y-128157275D02*
X158373183Y-128157275D01*
X158801755Y-129157275D02*
X158801755Y-128157275D01*
X158801755Y-128157275D02*
X159373183Y-129157275D01*
X159373183Y-129157275D02*
X159373183Y-128157275D01*
X159801755Y-129109656D02*
X159944612Y-129157275D01*
X159944612Y-129157275D02*
X160182707Y-129157275D01*
X160182707Y-129157275D02*
X160277945Y-129109656D01*
X160277945Y-129109656D02*
X160325564Y-129062036D01*
X160325564Y-129062036D02*
X160373183Y-128966798D01*
X160373183Y-128966798D02*
X160373183Y-128871560D01*
X160373183Y-128871560D02*
X160325564Y-128776322D01*
X160325564Y-128776322D02*
X160277945Y-128728703D01*
X160277945Y-128728703D02*
X160182707Y-128681084D01*
X160182707Y-128681084D02*
X159992231Y-128633465D01*
X159992231Y-128633465D02*
X159896993Y-128585846D01*
X159896993Y-128585846D02*
X159849374Y-128538227D01*
X159849374Y-128538227D02*
X159801755Y-128442989D01*
X159801755Y-128442989D02*
X159801755Y-128347751D01*
X159801755Y-128347751D02*
X159849374Y-128252513D01*
X159849374Y-128252513D02*
X159896993Y-128204894D01*
X159896993Y-128204894D02*
X159992231Y-128157275D01*
X159992231Y-128157275D02*
X160230326Y-128157275D01*
X160230326Y-128157275D02*
X160373183Y-128204894D01*
X160801755Y-128633465D02*
X161135088Y-128633465D01*
X161277945Y-129157275D02*
X160801755Y-129157275D01*
X160801755Y-129157275D02*
X160801755Y-128157275D01*
X160801755Y-128157275D02*
X161277945Y-128157275D01*
D13*
X127928539Y-78553680D02*
X127980920Y-78501300D01*
X127980920Y-78501300D02*
X128138063Y-78448919D01*
X128138063Y-78448919D02*
X128242825Y-78448919D01*
X128242825Y-78448919D02*
X128399968Y-78501300D01*
X128399968Y-78501300D02*
X128504730Y-78606061D01*
X128504730Y-78606061D02*
X128557111Y-78710823D01*
X128557111Y-78710823D02*
X128609492Y-78920347D01*
X128609492Y-78920347D02*
X128609492Y-79077490D01*
X128609492Y-79077490D02*
X128557111Y-79287014D01*
X128557111Y-79287014D02*
X128504730Y-79391776D01*
X128504730Y-79391776D02*
X128399968Y-79496538D01*
X128399968Y-79496538D02*
X128242825Y-79548919D01*
X128242825Y-79548919D02*
X128138063Y-79548919D01*
X128138063Y-79548919D02*
X127980920Y-79496538D01*
X127980920Y-79496538D02*
X127928539Y-79444157D01*
X127509492Y-78501300D02*
X127352349Y-78448919D01*
X127352349Y-78448919D02*
X127090444Y-78448919D01*
X127090444Y-78448919D02*
X126985682Y-78501300D01*
X126985682Y-78501300D02*
X126933301Y-78553680D01*
X126933301Y-78553680D02*
X126880920Y-78658442D01*
X126880920Y-78658442D02*
X126880920Y-78763204D01*
X126880920Y-78763204D02*
X126933301Y-78867966D01*
X126933301Y-78867966D02*
X126985682Y-78920347D01*
X126985682Y-78920347D02*
X127090444Y-78972728D01*
X127090444Y-78972728D02*
X127299968Y-79025109D01*
X127299968Y-79025109D02*
X127404730Y-79077490D01*
X127404730Y-79077490D02*
X127457111Y-79129871D01*
X127457111Y-79129871D02*
X127509492Y-79234633D01*
X127509492Y-79234633D02*
X127509492Y-79339395D01*
X127509492Y-79339395D02*
X127457111Y-79444157D01*
X127457111Y-79444157D02*
X127404730Y-79496538D01*
X127404730Y-79496538D02*
X127299968Y-79548919D01*
X127299968Y-79548919D02*
X127038063Y-79548919D01*
X127038063Y-79548919D02*
X126880920Y-79496538D01*
X126409492Y-79025109D02*
X126042825Y-79025109D01*
X125885682Y-78448919D02*
X126409492Y-78448919D01*
X126409492Y-78448919D02*
X126409492Y-79548919D01*
X126409492Y-79548919D02*
X125885682Y-79548919D01*
X125414254Y-78448919D02*
X125414254Y-79548919D01*
X125414254Y-79548919D02*
X124785682Y-78448919D01*
X124785682Y-78448919D02*
X124785682Y-79548919D01*
X124314254Y-78501300D02*
X124157111Y-78448919D01*
X124157111Y-78448919D02*
X123895206Y-78448919D01*
X123895206Y-78448919D02*
X123790444Y-78501300D01*
X123790444Y-78501300D02*
X123738063Y-78553680D01*
X123738063Y-78553680D02*
X123685682Y-78658442D01*
X123685682Y-78658442D02*
X123685682Y-78763204D01*
X123685682Y-78763204D02*
X123738063Y-78867966D01*
X123738063Y-78867966D02*
X123790444Y-78920347D01*
X123790444Y-78920347D02*
X123895206Y-78972728D01*
X123895206Y-78972728D02*
X124104730Y-79025109D01*
X124104730Y-79025109D02*
X124209492Y-79077490D01*
X124209492Y-79077490D02*
X124261873Y-79129871D01*
X124261873Y-79129871D02*
X124314254Y-79234633D01*
X124314254Y-79234633D02*
X124314254Y-79339395D01*
X124314254Y-79339395D02*
X124261873Y-79444157D01*
X124261873Y-79444157D02*
X124209492Y-79496538D01*
X124209492Y-79496538D02*
X124104730Y-79548919D01*
X124104730Y-79548919D02*
X123842825Y-79548919D01*
X123842825Y-79548919D02*
X123685682Y-79496538D01*
X123214254Y-79025109D02*
X122847587Y-79025109D01*
X122690444Y-78448919D02*
X123214254Y-78448919D01*
X123214254Y-78448919D02*
X123214254Y-79548919D01*
X123214254Y-79548919D02*
X122690444Y-79548919D01*
X132695206Y-79496538D02*
X132799968Y-79548919D01*
X132799968Y-79548919D02*
X132957111Y-79548919D01*
X132957111Y-79548919D02*
X133114254Y-79496538D01*
X133114254Y-79496538D02*
X133219016Y-79391776D01*
X133219016Y-79391776D02*
X133271397Y-79287014D01*
X133271397Y-79287014D02*
X133323778Y-79077490D01*
X133323778Y-79077490D02*
X133323778Y-78920347D01*
X133323778Y-78920347D02*
X133271397Y-78710823D01*
X133271397Y-78710823D02*
X133219016Y-78606061D01*
X133219016Y-78606061D02*
X133114254Y-78501300D01*
X133114254Y-78501300D02*
X132957111Y-78448919D01*
X132957111Y-78448919D02*
X132852349Y-78448919D01*
X132852349Y-78448919D02*
X132695206Y-78501300D01*
X132695206Y-78501300D02*
X132642825Y-78553680D01*
X132642825Y-78553680D02*
X132642825Y-78920347D01*
X132642825Y-78920347D02*
X132852349Y-78920347D01*
X132171397Y-78448919D02*
X132171397Y-79548919D01*
X132171397Y-79548919D02*
X131542825Y-78448919D01*
X131542825Y-78448919D02*
X131542825Y-79548919D01*
X131019016Y-78448919D02*
X131019016Y-79548919D01*
X131019016Y-79548919D02*
X130757111Y-79548919D01*
X130757111Y-79548919D02*
X130599968Y-79496538D01*
X130599968Y-79496538D02*
X130495206Y-79391776D01*
X130495206Y-79391776D02*
X130442825Y-79287014D01*
X130442825Y-79287014D02*
X130390444Y-79077490D01*
X130390444Y-79077490D02*
X130390444Y-78920347D01*
X130390444Y-78920347D02*
X130442825Y-78710823D01*
X130442825Y-78710823D02*
X130495206Y-78606061D01*
X130495206Y-78606061D02*
X130599968Y-78501300D01*
X130599968Y-78501300D02*
X130757111Y-78448919D01*
X130757111Y-78448919D02*
X131019016Y-78448919D01*
D10*
X151040224Y-79570600D02*
X149897367Y-79570600D01*
X150468795Y-78999171D02*
X150468795Y-80142028D01*
X148397366Y-78999171D02*
X149254509Y-78999171D01*
X148825938Y-78999171D02*
X148825938Y-80499171D01*
X148825938Y-80499171D02*
X148968795Y-80284885D01*
X148968795Y-80284885D02*
X149111652Y-80142028D01*
X149111652Y-80142028D02*
X149254509Y-80070600D01*
X147825938Y-80356314D02*
X147754510Y-80427742D01*
X147754510Y-80427742D02*
X147611653Y-80499171D01*
X147611653Y-80499171D02*
X147254510Y-80499171D01*
X147254510Y-80499171D02*
X147111653Y-80427742D01*
X147111653Y-80427742D02*
X147040224Y-80356314D01*
X147040224Y-80356314D02*
X146968795Y-80213457D01*
X146968795Y-80213457D02*
X146968795Y-80070600D01*
X146968795Y-80070600D02*
X147040224Y-79856314D01*
X147040224Y-79856314D02*
X147897367Y-78999171D01*
X147897367Y-78999171D02*
X146968795Y-78999171D01*
X146540224Y-80499171D02*
X146040224Y-78999171D01*
X146040224Y-78999171D02*
X145540224Y-80499171D01*
D14*
X153279636Y-115369819D02*
X153279636Y-115607914D01*
X153041541Y-115512676D02*
X153279636Y-115607914D01*
X153279636Y-115607914D02*
X153517731Y-115512676D01*
X153136779Y-115798390D02*
X153279636Y-115607914D01*
X153279636Y-115607914D02*
X153422493Y-115798390D01*
X128761905Y-131454819D02*
X128761905Y-130454819D01*
X128761905Y-130454819D02*
X129000000Y-130454819D01*
X129000000Y-130454819D02*
X129142857Y-130502438D01*
X129142857Y-130502438D02*
X129238095Y-130597676D01*
X129238095Y-130597676D02*
X129285714Y-130692914D01*
X129285714Y-130692914D02*
X129333333Y-130883390D01*
X129333333Y-130883390D02*
X129333333Y-131026247D01*
X129333333Y-131026247D02*
X129285714Y-131216723D01*
X129285714Y-131216723D02*
X129238095Y-131311961D01*
X129238095Y-131311961D02*
X129142857Y-131407200D01*
X129142857Y-131407200D02*
X129000000Y-131454819D01*
X129000000Y-131454819D02*
X128761905Y-131454819D01*
X130285714Y-131454819D02*
X129714286Y-131454819D01*
X130000000Y-131454819D02*
X130000000Y-130454819D01*
X130000000Y-130454819D02*
X129904762Y-130597676D01*
X129904762Y-130597676D02*
X129809524Y-130692914D01*
X129809524Y-130692914D02*
X129714286Y-130740533D01*
X117491021Y-120594199D02*
X117729116Y-120594199D01*
X117633878Y-120832294D02*
X117729116Y-120594199D01*
X117729116Y-120594199D02*
X117633878Y-120356104D01*
X117919592Y-120737056D02*
X117729116Y-120594199D01*
X117729116Y-120594199D02*
X117919592Y-120451342D01*
X116904761Y-119050057D02*
X116809523Y-119002438D01*
X116809523Y-119002438D02*
X116714285Y-118907200D01*
X116714285Y-118907200D02*
X116571428Y-118764342D01*
X116571428Y-118764342D02*
X116476190Y-118716723D01*
X116476190Y-118716723D02*
X116380952Y-118716723D01*
X116428571Y-118954819D02*
X116333333Y-118907200D01*
X116333333Y-118907200D02*
X116238095Y-118811961D01*
X116238095Y-118811961D02*
X116190476Y-118621485D01*
X116190476Y-118621485D02*
X116190476Y-118288152D01*
X116190476Y-118288152D02*
X116238095Y-118097676D01*
X116238095Y-118097676D02*
X116333333Y-118002438D01*
X116333333Y-118002438D02*
X116428571Y-117954819D01*
X116428571Y-117954819D02*
X116619047Y-117954819D01*
X116619047Y-117954819D02*
X116714285Y-118002438D01*
X116714285Y-118002438D02*
X116809523Y-118097676D01*
X116809523Y-118097676D02*
X116857142Y-118288152D01*
X116857142Y-118288152D02*
X116857142Y-118621485D01*
X116857142Y-118621485D02*
X116809523Y-118811961D01*
X116809523Y-118811961D02*
X116714285Y-118907200D01*
X116714285Y-118907200D02*
X116619047Y-118954819D01*
X116619047Y-118954819D02*
X116428571Y-118954819D01*
X117809523Y-118954819D02*
X117238095Y-118954819D01*
X117523809Y-118954819D02*
X117523809Y-117954819D01*
X117523809Y-117954819D02*
X117428571Y-118097676D01*
X117428571Y-118097676D02*
X117333333Y-118192914D01*
X117333333Y-118192914D02*
X117238095Y-118240533D01*
X118457142Y-72759580D02*
X118409523Y-72807200D01*
X118409523Y-72807200D02*
X118266666Y-72854819D01*
X118266666Y-72854819D02*
X118171428Y-72854819D01*
X118171428Y-72854819D02*
X118028571Y-72807200D01*
X118028571Y-72807200D02*
X117933333Y-72711961D01*
X117933333Y-72711961D02*
X117885714Y-72616723D01*
X117885714Y-72616723D02*
X117838095Y-72426247D01*
X117838095Y-72426247D02*
X117838095Y-72283390D01*
X117838095Y-72283390D02*
X117885714Y-72092914D01*
X117885714Y-72092914D02*
X117933333Y-71997676D01*
X117933333Y-71997676D02*
X118028571Y-71902438D01*
X118028571Y-71902438D02*
X118171428Y-71854819D01*
X118171428Y-71854819D02*
X118266666Y-71854819D01*
X118266666Y-71854819D02*
X118409523Y-71902438D01*
X118409523Y-71902438D02*
X118457142Y-71950057D01*
X118838095Y-71950057D02*
X118885714Y-71902438D01*
X118885714Y-71902438D02*
X118980952Y-71854819D01*
X118980952Y-71854819D02*
X119219047Y-71854819D01*
X119219047Y-71854819D02*
X119314285Y-71902438D01*
X119314285Y-71902438D02*
X119361904Y-71950057D01*
X119361904Y-71950057D02*
X119409523Y-72045295D01*
X119409523Y-72045295D02*
X119409523Y-72140533D01*
X119409523Y-72140533D02*
X119361904Y-72283390D01*
X119361904Y-72283390D02*
X118790476Y-72854819D01*
X118790476Y-72854819D02*
X119409523Y-72854819D01*
X120361904Y-72854819D02*
X119790476Y-72854819D01*
X120076190Y-72854819D02*
X120076190Y-71854819D01*
X120076190Y-71854819D02*
X119980952Y-71997676D01*
X119980952Y-71997676D02*
X119885714Y-72092914D01*
X119885714Y-72092914D02*
X119790476Y-72140533D01*
X109457142Y-81059580D02*
X109409523Y-81107200D01*
X109409523Y-81107200D02*
X109266666Y-81154819D01*
X109266666Y-81154819D02*
X109171428Y-81154819D01*
X109171428Y-81154819D02*
X109028571Y-81107200D01*
X109028571Y-81107200D02*
X108933333Y-81011961D01*
X108933333Y-81011961D02*
X108885714Y-80916723D01*
X108885714Y-80916723D02*
X108838095Y-80726247D01*
X108838095Y-80726247D02*
X108838095Y-80583390D01*
X108838095Y-80583390D02*
X108885714Y-80392914D01*
X108885714Y-80392914D02*
X108933333Y-80297676D01*
X108933333Y-80297676D02*
X109028571Y-80202438D01*
X109028571Y-80202438D02*
X109171428Y-80154819D01*
X109171428Y-80154819D02*
X109266666Y-80154819D01*
X109266666Y-80154819D02*
X109409523Y-80202438D01*
X109409523Y-80202438D02*
X109457142Y-80250057D01*
X109838095Y-80250057D02*
X109885714Y-80202438D01*
X109885714Y-80202438D02*
X109980952Y-80154819D01*
X109980952Y-80154819D02*
X110219047Y-80154819D01*
X110219047Y-80154819D02*
X110314285Y-80202438D01*
X110314285Y-80202438D02*
X110361904Y-80250057D01*
X110361904Y-80250057D02*
X110409523Y-80345295D01*
X110409523Y-80345295D02*
X110409523Y-80440533D01*
X110409523Y-80440533D02*
X110361904Y-80583390D01*
X110361904Y-80583390D02*
X109790476Y-81154819D01*
X109790476Y-81154819D02*
X110409523Y-81154819D01*
X111028571Y-80154819D02*
X111123809Y-80154819D01*
X111123809Y-80154819D02*
X111219047Y-80202438D01*
X111219047Y-80202438D02*
X111266666Y-80250057D01*
X111266666Y-80250057D02*
X111314285Y-80345295D01*
X111314285Y-80345295D02*
X111361904Y-80535771D01*
X111361904Y-80535771D02*
X111361904Y-80773866D01*
X111361904Y-80773866D02*
X111314285Y-80964342D01*
X111314285Y-80964342D02*
X111266666Y-81059580D01*
X111266666Y-81059580D02*
X111219047Y-81107200D01*
X111219047Y-81107200D02*
X111123809Y-81154819D01*
X111123809Y-81154819D02*
X111028571Y-81154819D01*
X111028571Y-81154819D02*
X110933333Y-81107200D01*
X110933333Y-81107200D02*
X110885714Y-81059580D01*
X110885714Y-81059580D02*
X110838095Y-80964342D01*
X110838095Y-80964342D02*
X110790476Y-80773866D01*
X110790476Y-80773866D02*
X110790476Y-80535771D01*
X110790476Y-80535771D02*
X110838095Y-80345295D01*
X110838095Y-80345295D02*
X110885714Y-80250057D01*
X110885714Y-80250057D02*
X110933333Y-80202438D01*
X110933333Y-80202438D02*
X111028571Y-80154819D01*
X113357142Y-81059580D02*
X113309523Y-81107200D01*
X113309523Y-81107200D02*
X113166666Y-81154819D01*
X113166666Y-81154819D02*
X113071428Y-81154819D01*
X113071428Y-81154819D02*
X112928571Y-81107200D01*
X112928571Y-81107200D02*
X112833333Y-81011961D01*
X112833333Y-81011961D02*
X112785714Y-80916723D01*
X112785714Y-80916723D02*
X112738095Y-80726247D01*
X112738095Y-80726247D02*
X112738095Y-80583390D01*
X112738095Y-80583390D02*
X112785714Y-80392914D01*
X112785714Y-80392914D02*
X112833333Y-80297676D01*
X112833333Y-80297676D02*
X112928571Y-80202438D01*
X112928571Y-80202438D02*
X113071428Y-80154819D01*
X113071428Y-80154819D02*
X113166666Y-80154819D01*
X113166666Y-80154819D02*
X113309523Y-80202438D01*
X113309523Y-80202438D02*
X113357142Y-80250057D01*
X114309523Y-81154819D02*
X113738095Y-81154819D01*
X114023809Y-81154819D02*
X114023809Y-80154819D01*
X114023809Y-80154819D02*
X113928571Y-80297676D01*
X113928571Y-80297676D02*
X113833333Y-80392914D01*
X113833333Y-80392914D02*
X113738095Y-80440533D01*
X114642857Y-80154819D02*
X115309523Y-80154819D01*
X115309523Y-80154819D02*
X114880952Y-81154819D01*
X117357142Y-82059580D02*
X117309523Y-82107200D01*
X117309523Y-82107200D02*
X117166666Y-82154819D01*
X117166666Y-82154819D02*
X117071428Y-82154819D01*
X117071428Y-82154819D02*
X116928571Y-82107200D01*
X116928571Y-82107200D02*
X116833333Y-82011961D01*
X116833333Y-82011961D02*
X116785714Y-81916723D01*
X116785714Y-81916723D02*
X116738095Y-81726247D01*
X116738095Y-81726247D02*
X116738095Y-81583390D01*
X116738095Y-81583390D02*
X116785714Y-81392914D01*
X116785714Y-81392914D02*
X116833333Y-81297676D01*
X116833333Y-81297676D02*
X116928571Y-81202438D01*
X116928571Y-81202438D02*
X117071428Y-81154819D01*
X117071428Y-81154819D02*
X117166666Y-81154819D01*
X117166666Y-81154819D02*
X117309523Y-81202438D01*
X117309523Y-81202438D02*
X117357142Y-81250057D01*
X118309523Y-82154819D02*
X117738095Y-82154819D01*
X118023809Y-82154819D02*
X118023809Y-81154819D01*
X118023809Y-81154819D02*
X117928571Y-81297676D01*
X117928571Y-81297676D02*
X117833333Y-81392914D01*
X117833333Y-81392914D02*
X117738095Y-81440533D01*
X119166666Y-81154819D02*
X118976190Y-81154819D01*
X118976190Y-81154819D02*
X118880952Y-81202438D01*
X118880952Y-81202438D02*
X118833333Y-81250057D01*
X118833333Y-81250057D02*
X118738095Y-81392914D01*
X118738095Y-81392914D02*
X118690476Y-81583390D01*
X118690476Y-81583390D02*
X118690476Y-81964342D01*
X118690476Y-81964342D02*
X118738095Y-82059580D01*
X118738095Y-82059580D02*
X118785714Y-82107200D01*
X118785714Y-82107200D02*
X118880952Y-82154819D01*
X118880952Y-82154819D02*
X119071428Y-82154819D01*
X119071428Y-82154819D02*
X119166666Y-82107200D01*
X119166666Y-82107200D02*
X119214285Y-82059580D01*
X119214285Y-82059580D02*
X119261904Y-81964342D01*
X119261904Y-81964342D02*
X119261904Y-81726247D01*
X119261904Y-81726247D02*
X119214285Y-81631009D01*
X119214285Y-81631009D02*
X119166666Y-81583390D01*
X119166666Y-81583390D02*
X119071428Y-81535771D01*
X119071428Y-81535771D02*
X118880952Y-81535771D01*
X118880952Y-81535771D02*
X118785714Y-81583390D01*
X118785714Y-81583390D02*
X118738095Y-81631009D01*
X118738095Y-81631009D02*
X118690476Y-81726247D01*
X148833333Y-124232819D02*
X148500000Y-123756628D01*
X148261905Y-124232819D02*
X148261905Y-123232819D01*
X148261905Y-123232819D02*
X148642857Y-123232819D01*
X148642857Y-123232819D02*
X148738095Y-123280438D01*
X148738095Y-123280438D02*
X148785714Y-123328057D01*
X148785714Y-123328057D02*
X148833333Y-123423295D01*
X148833333Y-123423295D02*
X148833333Y-123566152D01*
X148833333Y-123566152D02*
X148785714Y-123661390D01*
X148785714Y-123661390D02*
X148738095Y-123709009D01*
X148738095Y-123709009D02*
X148642857Y-123756628D01*
X148642857Y-123756628D02*
X148261905Y-123756628D01*
X149690476Y-123232819D02*
X149500000Y-123232819D01*
X149500000Y-123232819D02*
X149404762Y-123280438D01*
X149404762Y-123280438D02*
X149357143Y-123328057D01*
X149357143Y-123328057D02*
X149261905Y-123470914D01*
X149261905Y-123470914D02*
X149214286Y-123661390D01*
X149214286Y-123661390D02*
X149214286Y-124042342D01*
X149214286Y-124042342D02*
X149261905Y-124137580D01*
X149261905Y-124137580D02*
X149309524Y-124185200D01*
X149309524Y-124185200D02*
X149404762Y-124232819D01*
X149404762Y-124232819D02*
X149595238Y-124232819D01*
X149595238Y-124232819D02*
X149690476Y-124185200D01*
X149690476Y-124185200D02*
X149738095Y-124137580D01*
X149738095Y-124137580D02*
X149785714Y-124042342D01*
X149785714Y-124042342D02*
X149785714Y-123804247D01*
X149785714Y-123804247D02*
X149738095Y-123709009D01*
X149738095Y-123709009D02*
X149690476Y-123661390D01*
X149690476Y-123661390D02*
X149595238Y-123613771D01*
X149595238Y-123613771D02*
X149404762Y-123613771D01*
X149404762Y-123613771D02*
X149309524Y-123661390D01*
X149309524Y-123661390D02*
X149261905Y-123709009D01*
X149261905Y-123709009D02*
X149214286Y-123804247D01*
X133033333Y-117954819D02*
X132700000Y-117478628D01*
X132461905Y-117954819D02*
X132461905Y-116954819D01*
X132461905Y-116954819D02*
X132842857Y-116954819D01*
X132842857Y-116954819D02*
X132938095Y-117002438D01*
X132938095Y-117002438D02*
X132985714Y-117050057D01*
X132985714Y-117050057D02*
X133033333Y-117145295D01*
X133033333Y-117145295D02*
X133033333Y-117288152D01*
X133033333Y-117288152D02*
X132985714Y-117383390D01*
X132985714Y-117383390D02*
X132938095Y-117431009D01*
X132938095Y-117431009D02*
X132842857Y-117478628D01*
X132842857Y-117478628D02*
X132461905Y-117478628D01*
X133509524Y-117954819D02*
X133700000Y-117954819D01*
X133700000Y-117954819D02*
X133795238Y-117907200D01*
X133795238Y-117907200D02*
X133842857Y-117859580D01*
X133842857Y-117859580D02*
X133938095Y-117716723D01*
X133938095Y-117716723D02*
X133985714Y-117526247D01*
X133985714Y-117526247D02*
X133985714Y-117145295D01*
X133985714Y-117145295D02*
X133938095Y-117050057D01*
X133938095Y-117050057D02*
X133890476Y-117002438D01*
X133890476Y-117002438D02*
X133795238Y-116954819D01*
X133795238Y-116954819D02*
X133604762Y-116954819D01*
X133604762Y-116954819D02*
X133509524Y-117002438D01*
X133509524Y-117002438D02*
X133461905Y-117050057D01*
X133461905Y-117050057D02*
X133414286Y-117145295D01*
X133414286Y-117145295D02*
X133414286Y-117383390D01*
X133414286Y-117383390D02*
X133461905Y-117478628D01*
X133461905Y-117478628D02*
X133509524Y-117526247D01*
X133509524Y-117526247D02*
X133604762Y-117573866D01*
X133604762Y-117573866D02*
X133795238Y-117573866D01*
X133795238Y-117573866D02*
X133890476Y-117526247D01*
X133890476Y-117526247D02*
X133938095Y-117478628D01*
X133938095Y-117478628D02*
X133985714Y-117383390D01*
X138166666Y-142954819D02*
X138166666Y-143669104D01*
X138166666Y-143669104D02*
X138119047Y-143811961D01*
X138119047Y-143811961D02*
X138023809Y-143907200D01*
X138023809Y-143907200D02*
X137880952Y-143954819D01*
X137880952Y-143954819D02*
X137785714Y-143954819D01*
X139071428Y-143288152D02*
X139071428Y-143954819D01*
X138833333Y-142907200D02*
X138595238Y-143621485D01*
X138595238Y-143621485D02*
X139214285Y-143621485D01*
X145333333Y-124359580D02*
X145285714Y-124407200D01*
X145285714Y-124407200D02*
X145142857Y-124454819D01*
X145142857Y-124454819D02*
X145047619Y-124454819D01*
X145047619Y-124454819D02*
X144904762Y-124407200D01*
X144904762Y-124407200D02*
X144809524Y-124311961D01*
X144809524Y-124311961D02*
X144761905Y-124216723D01*
X144761905Y-124216723D02*
X144714286Y-124026247D01*
X144714286Y-124026247D02*
X144714286Y-123883390D01*
X144714286Y-123883390D02*
X144761905Y-123692914D01*
X144761905Y-123692914D02*
X144809524Y-123597676D01*
X144809524Y-123597676D02*
X144904762Y-123502438D01*
X144904762Y-123502438D02*
X145047619Y-123454819D01*
X145047619Y-123454819D02*
X145142857Y-123454819D01*
X145142857Y-123454819D02*
X145285714Y-123502438D01*
X145285714Y-123502438D02*
X145333333Y-123550057D01*
X145904762Y-123883390D02*
X145809524Y-123835771D01*
X145809524Y-123835771D02*
X145761905Y-123788152D01*
X145761905Y-123788152D02*
X145714286Y-123692914D01*
X145714286Y-123692914D02*
X145714286Y-123645295D01*
X145714286Y-123645295D02*
X145761905Y-123550057D01*
X145761905Y-123550057D02*
X145809524Y-123502438D01*
X145809524Y-123502438D02*
X145904762Y-123454819D01*
X145904762Y-123454819D02*
X146095238Y-123454819D01*
X146095238Y-123454819D02*
X146190476Y-123502438D01*
X146190476Y-123502438D02*
X146238095Y-123550057D01*
X146238095Y-123550057D02*
X146285714Y-123645295D01*
X146285714Y-123645295D02*
X146285714Y-123692914D01*
X146285714Y-123692914D02*
X146238095Y-123788152D01*
X146238095Y-123788152D02*
X146190476Y-123835771D01*
X146190476Y-123835771D02*
X146095238Y-123883390D01*
X146095238Y-123883390D02*
X145904762Y-123883390D01*
X145904762Y-123883390D02*
X145809524Y-123931009D01*
X145809524Y-123931009D02*
X145761905Y-123978628D01*
X145761905Y-123978628D02*
X145714286Y-124073866D01*
X145714286Y-124073866D02*
X145714286Y-124264342D01*
X145714286Y-124264342D02*
X145761905Y-124359580D01*
X145761905Y-124359580D02*
X145809524Y-124407200D01*
X145809524Y-124407200D02*
X145904762Y-124454819D01*
X145904762Y-124454819D02*
X146095238Y-124454819D01*
X146095238Y-124454819D02*
X146190476Y-124407200D01*
X146190476Y-124407200D02*
X146238095Y-124359580D01*
X146238095Y-124359580D02*
X146285714Y-124264342D01*
X146285714Y-124264342D02*
X146285714Y-124073866D01*
X146285714Y-124073866D02*
X146238095Y-123978628D01*
X146238095Y-123978628D02*
X146190476Y-123931009D01*
X146190476Y-123931009D02*
X146095238Y-123883390D01*
X156333333Y-77274819D02*
X156000000Y-76798628D01*
X155761905Y-77274819D02*
X155761905Y-76274819D01*
X155761905Y-76274819D02*
X156142857Y-76274819D01*
X156142857Y-76274819D02*
X156238095Y-76322438D01*
X156238095Y-76322438D02*
X156285714Y-76370057D01*
X156285714Y-76370057D02*
X156333333Y-76465295D01*
X156333333Y-76465295D02*
X156333333Y-76608152D01*
X156333333Y-76608152D02*
X156285714Y-76703390D01*
X156285714Y-76703390D02*
X156238095Y-76751009D01*
X156238095Y-76751009D02*
X156142857Y-76798628D01*
X156142857Y-76798628D02*
X155761905Y-76798628D01*
X157285714Y-77274819D02*
X156714286Y-77274819D01*
X157000000Y-77274819D02*
X157000000Y-76274819D01*
X157000000Y-76274819D02*
X156904762Y-76417676D01*
X156904762Y-76417676D02*
X156809524Y-76512914D01*
X156809524Y-76512914D02*
X156714286Y-76560533D01*
D15*
X120574318Y-96211666D02*
X120574318Y-96816428D01*
X120574318Y-96816428D02*
X119304318Y-96816428D01*
X120574318Y-95123094D02*
X120574318Y-95848809D01*
X120574318Y-95485952D02*
X119304318Y-95485952D01*
X119304318Y-95485952D02*
X119485746Y-95606904D01*
X119485746Y-95606904D02*
X119606699Y-95727856D01*
X119606699Y-95727856D02*
X119667175Y-95848809D01*
D14*
X168235333Y-124152819D02*
X167902000Y-123676628D01*
X167663905Y-124152819D02*
X167663905Y-123152819D01*
X167663905Y-123152819D02*
X168044857Y-123152819D01*
X168044857Y-123152819D02*
X168140095Y-123200438D01*
X168140095Y-123200438D02*
X168187714Y-123248057D01*
X168187714Y-123248057D02*
X168235333Y-123343295D01*
X168235333Y-123343295D02*
X168235333Y-123486152D01*
X168235333Y-123486152D02*
X168187714Y-123581390D01*
X168187714Y-123581390D02*
X168140095Y-123629009D01*
X168140095Y-123629009D02*
X168044857Y-123676628D01*
X168044857Y-123676628D02*
X167663905Y-123676628D01*
X168568667Y-123152819D02*
X169235333Y-123152819D01*
X169235333Y-123152819D02*
X168806762Y-124152819D01*
X110333333Y-82859580D02*
X110285714Y-82907200D01*
X110285714Y-82907200D02*
X110142857Y-82954819D01*
X110142857Y-82954819D02*
X110047619Y-82954819D01*
X110047619Y-82954819D02*
X109904762Y-82907200D01*
X109904762Y-82907200D02*
X109809524Y-82811961D01*
X109809524Y-82811961D02*
X109761905Y-82716723D01*
X109761905Y-82716723D02*
X109714286Y-82526247D01*
X109714286Y-82526247D02*
X109714286Y-82383390D01*
X109714286Y-82383390D02*
X109761905Y-82192914D01*
X109761905Y-82192914D02*
X109809524Y-82097676D01*
X109809524Y-82097676D02*
X109904762Y-82002438D01*
X109904762Y-82002438D02*
X110047619Y-81954819D01*
X110047619Y-81954819D02*
X110142857Y-81954819D01*
X110142857Y-81954819D02*
X110285714Y-82002438D01*
X110285714Y-82002438D02*
X110333333Y-82050057D01*
X111285714Y-82954819D02*
X110714286Y-82954819D01*
X111000000Y-82954819D02*
X111000000Y-81954819D01*
X111000000Y-81954819D02*
X110904762Y-82097676D01*
X110904762Y-82097676D02*
X110809524Y-82192914D01*
X110809524Y-82192914D02*
X110714286Y-82240533D01*
X121229333Y-131900819D02*
X120896000Y-131424628D01*
X120657905Y-131900819D02*
X120657905Y-130900819D01*
X120657905Y-130900819D02*
X121038857Y-130900819D01*
X121038857Y-130900819D02*
X121134095Y-130948438D01*
X121134095Y-130948438D02*
X121181714Y-130996057D01*
X121181714Y-130996057D02*
X121229333Y-131091295D01*
X121229333Y-131091295D02*
X121229333Y-131234152D01*
X121229333Y-131234152D02*
X121181714Y-131329390D01*
X121181714Y-131329390D02*
X121134095Y-131377009D01*
X121134095Y-131377009D02*
X121038857Y-131424628D01*
X121038857Y-131424628D02*
X120657905Y-131424628D01*
X122086476Y-131234152D02*
X122086476Y-131900819D01*
X121848381Y-130853200D02*
X121610286Y-131567485D01*
X121610286Y-131567485D02*
X122229333Y-131567485D01*
X126309333Y-131900819D02*
X125976000Y-131424628D01*
X125737905Y-131900819D02*
X125737905Y-130900819D01*
X125737905Y-130900819D02*
X126118857Y-130900819D01*
X126118857Y-130900819D02*
X126214095Y-130948438D01*
X126214095Y-130948438D02*
X126261714Y-130996057D01*
X126261714Y-130996057D02*
X126309333Y-131091295D01*
X126309333Y-131091295D02*
X126309333Y-131234152D01*
X126309333Y-131234152D02*
X126261714Y-131329390D01*
X126261714Y-131329390D02*
X126214095Y-131377009D01*
X126214095Y-131377009D02*
X126118857Y-131424628D01*
X126118857Y-131424628D02*
X125737905Y-131424628D01*
X126642667Y-130900819D02*
X127261714Y-130900819D01*
X127261714Y-130900819D02*
X126928381Y-131281771D01*
X126928381Y-131281771D02*
X127071238Y-131281771D01*
X127071238Y-131281771D02*
X127166476Y-131329390D01*
X127166476Y-131329390D02*
X127214095Y-131377009D01*
X127214095Y-131377009D02*
X127261714Y-131472247D01*
X127261714Y-131472247D02*
X127261714Y-131710342D01*
X127261714Y-131710342D02*
X127214095Y-131805580D01*
X127214095Y-131805580D02*
X127166476Y-131853200D01*
X127166476Y-131853200D02*
X127071238Y-131900819D01*
X127071238Y-131900819D02*
X126785524Y-131900819D01*
X126785524Y-131900819D02*
X126690286Y-131853200D01*
X126690286Y-131853200D02*
X126642667Y-131805580D01*
X170354819Y-137933333D02*
X171069104Y-137933333D01*
X171069104Y-137933333D02*
X171211961Y-137980952D01*
X171211961Y-137980952D02*
X171307200Y-138076190D01*
X171307200Y-138076190D02*
X171354819Y-138219047D01*
X171354819Y-138219047D02*
X171354819Y-138314285D01*
X170354819Y-137552380D02*
X170354819Y-136933333D01*
X170354819Y-136933333D02*
X170735771Y-137266666D01*
X170735771Y-137266666D02*
X170735771Y-137123809D01*
X170735771Y-137123809D02*
X170783390Y-137028571D01*
X170783390Y-137028571D02*
X170831009Y-136980952D01*
X170831009Y-136980952D02*
X170926247Y-136933333D01*
X170926247Y-136933333D02*
X171164342Y-136933333D01*
X171164342Y-136933333D02*
X171259580Y-136980952D01*
X171259580Y-136980952D02*
X171307200Y-137028571D01*
X171307200Y-137028571D02*
X171354819Y-137123809D01*
X171354819Y-137123809D02*
X171354819Y-137409523D01*
X171354819Y-137409523D02*
X171307200Y-137504761D01*
X171307200Y-137504761D02*
X171259580Y-137552380D01*
X143533333Y-129759580D02*
X143485714Y-129807200D01*
X143485714Y-129807200D02*
X143342857Y-129854819D01*
X143342857Y-129854819D02*
X143247619Y-129854819D01*
X143247619Y-129854819D02*
X143104762Y-129807200D01*
X143104762Y-129807200D02*
X143009524Y-129711961D01*
X143009524Y-129711961D02*
X142961905Y-129616723D01*
X142961905Y-129616723D02*
X142914286Y-129426247D01*
X142914286Y-129426247D02*
X142914286Y-129283390D01*
X142914286Y-129283390D02*
X142961905Y-129092914D01*
X142961905Y-129092914D02*
X143009524Y-128997676D01*
X143009524Y-128997676D02*
X143104762Y-128902438D01*
X143104762Y-128902438D02*
X143247619Y-128854819D01*
X143247619Y-128854819D02*
X143342857Y-128854819D01*
X143342857Y-128854819D02*
X143485714Y-128902438D01*
X143485714Y-128902438D02*
X143533333Y-128950057D01*
X144009524Y-129854819D02*
X144200000Y-129854819D01*
X144200000Y-129854819D02*
X144295238Y-129807200D01*
X144295238Y-129807200D02*
X144342857Y-129759580D01*
X144342857Y-129759580D02*
X144438095Y-129616723D01*
X144438095Y-129616723D02*
X144485714Y-129426247D01*
X144485714Y-129426247D02*
X144485714Y-129045295D01*
X144485714Y-129045295D02*
X144438095Y-128950057D01*
X144438095Y-128950057D02*
X144390476Y-128902438D01*
X144390476Y-128902438D02*
X144295238Y-128854819D01*
X144295238Y-128854819D02*
X144104762Y-128854819D01*
X144104762Y-128854819D02*
X144009524Y-128902438D01*
X144009524Y-128902438D02*
X143961905Y-128950057D01*
X143961905Y-128950057D02*
X143914286Y-129045295D01*
X143914286Y-129045295D02*
X143914286Y-129283390D01*
X143914286Y-129283390D02*
X143961905Y-129378628D01*
X143961905Y-129378628D02*
X144009524Y-129426247D01*
X144009524Y-129426247D02*
X144104762Y-129473866D01*
X144104762Y-129473866D02*
X144295238Y-129473866D01*
X144295238Y-129473866D02*
X144390476Y-129426247D01*
X144390476Y-129426247D02*
X144438095Y-129378628D01*
X144438095Y-129378628D02*
X144485714Y-129283390D01*
X143357142Y-111359580D02*
X143309523Y-111407200D01*
X143309523Y-111407200D02*
X143166666Y-111454819D01*
X143166666Y-111454819D02*
X143071428Y-111454819D01*
X143071428Y-111454819D02*
X142928571Y-111407200D01*
X142928571Y-111407200D02*
X142833333Y-111311961D01*
X142833333Y-111311961D02*
X142785714Y-111216723D01*
X142785714Y-111216723D02*
X142738095Y-111026247D01*
X142738095Y-111026247D02*
X142738095Y-110883390D01*
X142738095Y-110883390D02*
X142785714Y-110692914D01*
X142785714Y-110692914D02*
X142833333Y-110597676D01*
X142833333Y-110597676D02*
X142928571Y-110502438D01*
X142928571Y-110502438D02*
X143071428Y-110454819D01*
X143071428Y-110454819D02*
X143166666Y-110454819D01*
X143166666Y-110454819D02*
X143309523Y-110502438D01*
X143309523Y-110502438D02*
X143357142Y-110550057D01*
X144309523Y-111454819D02*
X143738095Y-111454819D01*
X144023809Y-111454819D02*
X144023809Y-110454819D01*
X144023809Y-110454819D02*
X143928571Y-110597676D01*
X143928571Y-110597676D02*
X143833333Y-110692914D01*
X143833333Y-110692914D02*
X143738095Y-110740533D01*
X145261904Y-111454819D02*
X144690476Y-111454819D01*
X144976190Y-111454819D02*
X144976190Y-110454819D01*
X144976190Y-110454819D02*
X144880952Y-110597676D01*
X144880952Y-110597676D02*
X144785714Y-110692914D01*
X144785714Y-110692914D02*
X144690476Y-110740533D01*
X143357142Y-126859580D02*
X143309523Y-126907200D01*
X143309523Y-126907200D02*
X143166666Y-126954819D01*
X143166666Y-126954819D02*
X143071428Y-126954819D01*
X143071428Y-126954819D02*
X142928571Y-126907200D01*
X142928571Y-126907200D02*
X142833333Y-126811961D01*
X142833333Y-126811961D02*
X142785714Y-126716723D01*
X142785714Y-126716723D02*
X142738095Y-126526247D01*
X142738095Y-126526247D02*
X142738095Y-126383390D01*
X142738095Y-126383390D02*
X142785714Y-126192914D01*
X142785714Y-126192914D02*
X142833333Y-126097676D01*
X142833333Y-126097676D02*
X142928571Y-126002438D01*
X142928571Y-126002438D02*
X143071428Y-125954819D01*
X143071428Y-125954819D02*
X143166666Y-125954819D01*
X143166666Y-125954819D02*
X143309523Y-126002438D01*
X143309523Y-126002438D02*
X143357142Y-126050057D01*
X144309523Y-126954819D02*
X143738095Y-126954819D01*
X144023809Y-126954819D02*
X144023809Y-125954819D01*
X144023809Y-125954819D02*
X143928571Y-126097676D01*
X143928571Y-126097676D02*
X143833333Y-126192914D01*
X143833333Y-126192914D02*
X143738095Y-126240533D01*
X144928571Y-125954819D02*
X145023809Y-125954819D01*
X145023809Y-125954819D02*
X145119047Y-126002438D01*
X145119047Y-126002438D02*
X145166666Y-126050057D01*
X145166666Y-126050057D02*
X145214285Y-126145295D01*
X145214285Y-126145295D02*
X145261904Y-126335771D01*
X145261904Y-126335771D02*
X145261904Y-126573866D01*
X145261904Y-126573866D02*
X145214285Y-126764342D01*
X145214285Y-126764342D02*
X145166666Y-126859580D01*
X145166666Y-126859580D02*
X145119047Y-126907200D01*
X145119047Y-126907200D02*
X145023809Y-126954819D01*
X145023809Y-126954819D02*
X144928571Y-126954819D01*
X144928571Y-126954819D02*
X144833333Y-126907200D01*
X144833333Y-126907200D02*
X144785714Y-126859580D01*
X144785714Y-126859580D02*
X144738095Y-126764342D01*
X144738095Y-126764342D02*
X144690476Y-126573866D01*
X144690476Y-126573866D02*
X144690476Y-126335771D01*
X144690476Y-126335771D02*
X144738095Y-126145295D01*
X144738095Y-126145295D02*
X144785714Y-126050057D01*
X144785714Y-126050057D02*
X144833333Y-126002438D01*
X144833333Y-126002438D02*
X144928571Y-125954819D01*
X147333333Y-117859580D02*
X147285714Y-117907200D01*
X147285714Y-117907200D02*
X147142857Y-117954819D01*
X147142857Y-117954819D02*
X147047619Y-117954819D01*
X147047619Y-117954819D02*
X146904762Y-117907200D01*
X146904762Y-117907200D02*
X146809524Y-117811961D01*
X146809524Y-117811961D02*
X146761905Y-117716723D01*
X146761905Y-117716723D02*
X146714286Y-117526247D01*
X146714286Y-117526247D02*
X146714286Y-117383390D01*
X146714286Y-117383390D02*
X146761905Y-117192914D01*
X146761905Y-117192914D02*
X146809524Y-117097676D01*
X146809524Y-117097676D02*
X146904762Y-117002438D01*
X146904762Y-117002438D02*
X147047619Y-116954819D01*
X147047619Y-116954819D02*
X147142857Y-116954819D01*
X147142857Y-116954819D02*
X147285714Y-117002438D01*
X147285714Y-117002438D02*
X147333333Y-117050057D01*
X148238095Y-116954819D02*
X147761905Y-116954819D01*
X147761905Y-116954819D02*
X147714286Y-117431009D01*
X147714286Y-117431009D02*
X147761905Y-117383390D01*
X147761905Y-117383390D02*
X147857143Y-117335771D01*
X147857143Y-117335771D02*
X148095238Y-117335771D01*
X148095238Y-117335771D02*
X148190476Y-117383390D01*
X148190476Y-117383390D02*
X148238095Y-117431009D01*
X148238095Y-117431009D02*
X148285714Y-117526247D01*
X148285714Y-117526247D02*
X148285714Y-117764342D01*
X148285714Y-117764342D02*
X148238095Y-117859580D01*
X148238095Y-117859580D02*
X148190476Y-117907200D01*
X148190476Y-117907200D02*
X148095238Y-117954819D01*
X148095238Y-117954819D02*
X147857143Y-117954819D01*
X147857143Y-117954819D02*
X147761905Y-117907200D01*
X147761905Y-117907200D02*
X147714286Y-117859580D01*
X165539644Y-119779019D02*
X165206311Y-119302828D01*
X164968216Y-119779019D02*
X164968216Y-118779019D01*
X164968216Y-118779019D02*
X165349168Y-118779019D01*
X165349168Y-118779019D02*
X165444406Y-118826638D01*
X165444406Y-118826638D02*
X165492025Y-118874257D01*
X165492025Y-118874257D02*
X165539644Y-118969495D01*
X165539644Y-118969495D02*
X165539644Y-119112352D01*
X165539644Y-119112352D02*
X165492025Y-119207590D01*
X165492025Y-119207590D02*
X165444406Y-119255209D01*
X165444406Y-119255209D02*
X165349168Y-119302828D01*
X165349168Y-119302828D02*
X164968216Y-119302828D01*
X166492025Y-119779019D02*
X165920597Y-119779019D01*
X166206311Y-119779019D02*
X166206311Y-118779019D01*
X166206311Y-118779019D02*
X166111073Y-118921876D01*
X166111073Y-118921876D02*
X166015835Y-119017114D01*
X166015835Y-119017114D02*
X165920597Y-119064733D01*
X167444406Y-119779019D02*
X166872978Y-119779019D01*
X167158692Y-119779019D02*
X167158692Y-118779019D01*
X167158692Y-118779019D02*
X167063454Y-118921876D01*
X167063454Y-118921876D02*
X166968216Y-119017114D01*
X166968216Y-119017114D02*
X166872978Y-119064733D01*
X159333333Y-124763780D02*
X159285714Y-124811400D01*
X159285714Y-124811400D02*
X159142857Y-124859019D01*
X159142857Y-124859019D02*
X159047619Y-124859019D01*
X159047619Y-124859019D02*
X158904762Y-124811400D01*
X158904762Y-124811400D02*
X158809524Y-124716161D01*
X158809524Y-124716161D02*
X158761905Y-124620923D01*
X158761905Y-124620923D02*
X158714286Y-124430447D01*
X158714286Y-124430447D02*
X158714286Y-124287590D01*
X158714286Y-124287590D02*
X158761905Y-124097114D01*
X158761905Y-124097114D02*
X158809524Y-124001876D01*
X158809524Y-124001876D02*
X158904762Y-123906638D01*
X158904762Y-123906638D02*
X159047619Y-123859019D01*
X159047619Y-123859019D02*
X159142857Y-123859019D01*
X159142857Y-123859019D02*
X159285714Y-123906638D01*
X159285714Y-123906638D02*
X159333333Y-123954257D01*
X160190476Y-123859019D02*
X160000000Y-123859019D01*
X160000000Y-123859019D02*
X159904762Y-123906638D01*
X159904762Y-123906638D02*
X159857143Y-123954257D01*
X159857143Y-123954257D02*
X159761905Y-124097114D01*
X159761905Y-124097114D02*
X159714286Y-124287590D01*
X159714286Y-124287590D02*
X159714286Y-124668542D01*
X159714286Y-124668542D02*
X159761905Y-124763780D01*
X159761905Y-124763780D02*
X159809524Y-124811400D01*
X159809524Y-124811400D02*
X159904762Y-124859019D01*
X159904762Y-124859019D02*
X160095238Y-124859019D01*
X160095238Y-124859019D02*
X160190476Y-124811400D01*
X160190476Y-124811400D02*
X160238095Y-124763780D01*
X160238095Y-124763780D02*
X160285714Y-124668542D01*
X160285714Y-124668542D02*
X160285714Y-124430447D01*
X160285714Y-124430447D02*
X160238095Y-124335209D01*
X160238095Y-124335209D02*
X160190476Y-124287590D01*
X160190476Y-124287590D02*
X160095238Y-124239971D01*
X160095238Y-124239971D02*
X159904762Y-124239971D01*
X159904762Y-124239971D02*
X159809524Y-124287590D01*
X159809524Y-124287590D02*
X159761905Y-124335209D01*
X159761905Y-124335209D02*
X159714286Y-124430447D01*
X133766666Y-76854819D02*
X133766666Y-77569104D01*
X133766666Y-77569104D02*
X133719047Y-77711961D01*
X133719047Y-77711961D02*
X133623809Y-77807200D01*
X133623809Y-77807200D02*
X133480952Y-77854819D01*
X133480952Y-77854819D02*
X133385714Y-77854819D01*
X134671428Y-76854819D02*
X134480952Y-76854819D01*
X134480952Y-76854819D02*
X134385714Y-76902438D01*
X134385714Y-76902438D02*
X134338095Y-76950057D01*
X134338095Y-76950057D02*
X134242857Y-77092914D01*
X134242857Y-77092914D02*
X134195238Y-77283390D01*
X134195238Y-77283390D02*
X134195238Y-77664342D01*
X134195238Y-77664342D02*
X134242857Y-77759580D01*
X134242857Y-77759580D02*
X134290476Y-77807200D01*
X134290476Y-77807200D02*
X134385714Y-77854819D01*
X134385714Y-77854819D02*
X134576190Y-77854819D01*
X134576190Y-77854819D02*
X134671428Y-77807200D01*
X134671428Y-77807200D02*
X134719047Y-77759580D01*
X134719047Y-77759580D02*
X134766666Y-77664342D01*
X134766666Y-77664342D02*
X134766666Y-77426247D01*
X134766666Y-77426247D02*
X134719047Y-77331009D01*
X134719047Y-77331009D02*
X134671428Y-77283390D01*
X134671428Y-77283390D02*
X134576190Y-77235771D01*
X134576190Y-77235771D02*
X134385714Y-77235771D01*
X134385714Y-77235771D02*
X134290476Y-77283390D01*
X134290476Y-77283390D02*
X134242857Y-77331009D01*
X134242857Y-77331009D02*
X134195238Y-77426247D01*
X154663097Y-121954019D02*
X154663097Y-122763542D01*
X154663097Y-122763542D02*
X154710716Y-122858780D01*
X154710716Y-122858780D02*
X154758335Y-122906400D01*
X154758335Y-122906400D02*
X154853573Y-122954019D01*
X154853573Y-122954019D02*
X155044049Y-122954019D01*
X155044049Y-122954019D02*
X155139287Y-122906400D01*
X155139287Y-122906400D02*
X155186906Y-122858780D01*
X155186906Y-122858780D02*
X155234525Y-122763542D01*
X155234525Y-122763542D02*
X155234525Y-121954019D01*
X156234525Y-122954019D02*
X155663097Y-122954019D01*
X155948811Y-122954019D02*
X155948811Y-121954019D01*
X155948811Y-121954019D02*
X155853573Y-122096876D01*
X155853573Y-122096876D02*
X155758335Y-122192114D01*
X155758335Y-122192114D02*
X155663097Y-122239733D01*
X110133333Y-89659580D02*
X110085714Y-89707200D01*
X110085714Y-89707200D02*
X109942857Y-89754819D01*
X109942857Y-89754819D02*
X109847619Y-89754819D01*
X109847619Y-89754819D02*
X109704762Y-89707200D01*
X109704762Y-89707200D02*
X109609524Y-89611961D01*
X109609524Y-89611961D02*
X109561905Y-89516723D01*
X109561905Y-89516723D02*
X109514286Y-89326247D01*
X109514286Y-89326247D02*
X109514286Y-89183390D01*
X109514286Y-89183390D02*
X109561905Y-88992914D01*
X109561905Y-88992914D02*
X109609524Y-88897676D01*
X109609524Y-88897676D02*
X109704762Y-88802438D01*
X109704762Y-88802438D02*
X109847619Y-88754819D01*
X109847619Y-88754819D02*
X109942857Y-88754819D01*
X109942857Y-88754819D02*
X110085714Y-88802438D01*
X110085714Y-88802438D02*
X110133333Y-88850057D01*
X110514286Y-88850057D02*
X110561905Y-88802438D01*
X110561905Y-88802438D02*
X110657143Y-88754819D01*
X110657143Y-88754819D02*
X110895238Y-88754819D01*
X110895238Y-88754819D02*
X110990476Y-88802438D01*
X110990476Y-88802438D02*
X111038095Y-88850057D01*
X111038095Y-88850057D02*
X111085714Y-88945295D01*
X111085714Y-88945295D02*
X111085714Y-89040533D01*
X111085714Y-89040533D02*
X111038095Y-89183390D01*
X111038095Y-89183390D02*
X110466667Y-89754819D01*
X110466667Y-89754819D02*
X111085714Y-89754819D01*
X141957142Y-120259580D02*
X141909523Y-120307200D01*
X141909523Y-120307200D02*
X141766666Y-120354819D01*
X141766666Y-120354819D02*
X141671428Y-120354819D01*
X141671428Y-120354819D02*
X141528571Y-120307200D01*
X141528571Y-120307200D02*
X141433333Y-120211961D01*
X141433333Y-120211961D02*
X141385714Y-120116723D01*
X141385714Y-120116723D02*
X141338095Y-119926247D01*
X141338095Y-119926247D02*
X141338095Y-119783390D01*
X141338095Y-119783390D02*
X141385714Y-119592914D01*
X141385714Y-119592914D02*
X141433333Y-119497676D01*
X141433333Y-119497676D02*
X141528571Y-119402438D01*
X141528571Y-119402438D02*
X141671428Y-119354819D01*
X141671428Y-119354819D02*
X141766666Y-119354819D01*
X141766666Y-119354819D02*
X141909523Y-119402438D01*
X141909523Y-119402438D02*
X141957142Y-119450057D01*
X142909523Y-120354819D02*
X142338095Y-120354819D01*
X142623809Y-120354819D02*
X142623809Y-119354819D01*
X142623809Y-119354819D02*
X142528571Y-119497676D01*
X142528571Y-119497676D02*
X142433333Y-119592914D01*
X142433333Y-119592914D02*
X142338095Y-119640533D01*
X143290476Y-119450057D02*
X143338095Y-119402438D01*
X143338095Y-119402438D02*
X143433333Y-119354819D01*
X143433333Y-119354819D02*
X143671428Y-119354819D01*
X143671428Y-119354819D02*
X143766666Y-119402438D01*
X143766666Y-119402438D02*
X143814285Y-119450057D01*
X143814285Y-119450057D02*
X143861904Y-119545295D01*
X143861904Y-119545295D02*
X143861904Y-119640533D01*
X143861904Y-119640533D02*
X143814285Y-119783390D01*
X143814285Y-119783390D02*
X143242857Y-120354819D01*
X143242857Y-120354819D02*
X143861904Y-120354819D01*
X159333333Y-122223780D02*
X159285714Y-122271400D01*
X159285714Y-122271400D02*
X159142857Y-122319019D01*
X159142857Y-122319019D02*
X159047619Y-122319019D01*
X159047619Y-122319019D02*
X158904762Y-122271400D01*
X158904762Y-122271400D02*
X158809524Y-122176161D01*
X158809524Y-122176161D02*
X158761905Y-122080923D01*
X158761905Y-122080923D02*
X158714286Y-121890447D01*
X158714286Y-121890447D02*
X158714286Y-121747590D01*
X158714286Y-121747590D02*
X158761905Y-121557114D01*
X158761905Y-121557114D02*
X158809524Y-121461876D01*
X158809524Y-121461876D02*
X158904762Y-121366638D01*
X158904762Y-121366638D02*
X159047619Y-121319019D01*
X159047619Y-121319019D02*
X159142857Y-121319019D01*
X159142857Y-121319019D02*
X159285714Y-121366638D01*
X159285714Y-121366638D02*
X159333333Y-121414257D01*
X159666667Y-121319019D02*
X160333333Y-121319019D01*
X160333333Y-121319019D02*
X159904762Y-122319019D01*
X148677333Y-115323580D02*
X148629714Y-115371200D01*
X148629714Y-115371200D02*
X148486857Y-115418819D01*
X148486857Y-115418819D02*
X148391619Y-115418819D01*
X148391619Y-115418819D02*
X148248762Y-115371200D01*
X148248762Y-115371200D02*
X148153524Y-115275961D01*
X148153524Y-115275961D02*
X148105905Y-115180723D01*
X148105905Y-115180723D02*
X148058286Y-114990247D01*
X148058286Y-114990247D02*
X148058286Y-114847390D01*
X148058286Y-114847390D02*
X148105905Y-114656914D01*
X148105905Y-114656914D02*
X148153524Y-114561676D01*
X148153524Y-114561676D02*
X148248762Y-114466438D01*
X148248762Y-114466438D02*
X148391619Y-114418819D01*
X148391619Y-114418819D02*
X148486857Y-114418819D01*
X148486857Y-114418819D02*
X148629714Y-114466438D01*
X148629714Y-114466438D02*
X148677333Y-114514057D01*
X149010667Y-114418819D02*
X149629714Y-114418819D01*
X149629714Y-114418819D02*
X149296381Y-114799771D01*
X149296381Y-114799771D02*
X149439238Y-114799771D01*
X149439238Y-114799771D02*
X149534476Y-114847390D01*
X149534476Y-114847390D02*
X149582095Y-114895009D01*
X149582095Y-114895009D02*
X149629714Y-114990247D01*
X149629714Y-114990247D02*
X149629714Y-115228342D01*
X149629714Y-115228342D02*
X149582095Y-115323580D01*
X149582095Y-115323580D02*
X149534476Y-115371200D01*
X149534476Y-115371200D02*
X149439238Y-115418819D01*
X149439238Y-115418819D02*
X149153524Y-115418819D01*
X149153524Y-115418819D02*
X149058286Y-115371200D01*
X149058286Y-115371200D02*
X149010667Y-115323580D01*
X165833333Y-115349580D02*
X165785714Y-115397200D01*
X165785714Y-115397200D02*
X165642857Y-115444819D01*
X165642857Y-115444819D02*
X165547619Y-115444819D01*
X165547619Y-115444819D02*
X165404762Y-115397200D01*
X165404762Y-115397200D02*
X165309524Y-115301961D01*
X165309524Y-115301961D02*
X165261905Y-115206723D01*
X165261905Y-115206723D02*
X165214286Y-115016247D01*
X165214286Y-115016247D02*
X165214286Y-114873390D01*
X165214286Y-114873390D02*
X165261905Y-114682914D01*
X165261905Y-114682914D02*
X165309524Y-114587676D01*
X165309524Y-114587676D02*
X165404762Y-114492438D01*
X165404762Y-114492438D02*
X165547619Y-114444819D01*
X165547619Y-114444819D02*
X165642857Y-114444819D01*
X165642857Y-114444819D02*
X165785714Y-114492438D01*
X165785714Y-114492438D02*
X165833333Y-114540057D01*
X166690476Y-114778152D02*
X166690476Y-115444819D01*
X166452381Y-114397200D02*
X166214286Y-115111485D01*
X166214286Y-115111485D02*
X166833333Y-115111485D01*
X150754819Y-142966666D02*
X150278628Y-143299999D01*
X150754819Y-143538094D02*
X149754819Y-143538094D01*
X149754819Y-143538094D02*
X149754819Y-143157142D01*
X149754819Y-143157142D02*
X149802438Y-143061904D01*
X149802438Y-143061904D02*
X149850057Y-143014285D01*
X149850057Y-143014285D02*
X149945295Y-142966666D01*
X149945295Y-142966666D02*
X150088152Y-142966666D01*
X150088152Y-142966666D02*
X150183390Y-143014285D01*
X150183390Y-143014285D02*
X150231009Y-143061904D01*
X150231009Y-143061904D02*
X150278628Y-143157142D01*
X150278628Y-143157142D02*
X150278628Y-143538094D01*
X149850057Y-142585713D02*
X149802438Y-142538094D01*
X149802438Y-142538094D02*
X149754819Y-142442856D01*
X149754819Y-142442856D02*
X149754819Y-142204761D01*
X149754819Y-142204761D02*
X149802438Y-142109523D01*
X149802438Y-142109523D02*
X149850057Y-142061904D01*
X149850057Y-142061904D02*
X149945295Y-142014285D01*
X149945295Y-142014285D02*
X150040533Y-142014285D01*
X150040533Y-142014285D02*
X150183390Y-142061904D01*
X150183390Y-142061904D02*
X150754819Y-142633332D01*
X150754819Y-142633332D02*
X150754819Y-142014285D01*
X153214286Y-107854819D02*
X153785714Y-107854819D01*
X153500000Y-108854819D02*
X153500000Y-107854819D01*
X154119048Y-108854819D02*
X154119048Y-107854819D01*
X154119048Y-108331009D02*
X154690476Y-108331009D01*
X154690476Y-108854819D02*
X154690476Y-107854819D01*
X155690476Y-108854819D02*
X155119048Y-108854819D01*
X155404762Y-108854819D02*
X155404762Y-107854819D01*
X155404762Y-107854819D02*
X155309524Y-107997676D01*
X155309524Y-107997676D02*
X155214286Y-108092914D01*
X155214286Y-108092914D02*
X155119048Y-108140533D01*
X159333333Y-114699019D02*
X159000000Y-114222828D01*
X158761905Y-114699019D02*
X158761905Y-113699019D01*
X158761905Y-113699019D02*
X159142857Y-113699019D01*
X159142857Y-113699019D02*
X159238095Y-113746638D01*
X159238095Y-113746638D02*
X159285714Y-113794257D01*
X159285714Y-113794257D02*
X159333333Y-113889495D01*
X159333333Y-113889495D02*
X159333333Y-114032352D01*
X159333333Y-114032352D02*
X159285714Y-114127590D01*
X159285714Y-114127590D02*
X159238095Y-114175209D01*
X159238095Y-114175209D02*
X159142857Y-114222828D01*
X159142857Y-114222828D02*
X158761905Y-114222828D01*
X160238095Y-113699019D02*
X159761905Y-113699019D01*
X159761905Y-113699019D02*
X159714286Y-114175209D01*
X159714286Y-114175209D02*
X159761905Y-114127590D01*
X159761905Y-114127590D02*
X159857143Y-114079971D01*
X159857143Y-114079971D02*
X160095238Y-114079971D01*
X160095238Y-114079971D02*
X160190476Y-114127590D01*
X160190476Y-114127590D02*
X160238095Y-114175209D01*
X160238095Y-114175209D02*
X160285714Y-114270447D01*
X160285714Y-114270447D02*
X160285714Y-114508542D01*
X160285714Y-114508542D02*
X160238095Y-114603780D01*
X160238095Y-114603780D02*
X160190476Y-114651400D01*
X160190476Y-114651400D02*
X160095238Y-114699019D01*
X160095238Y-114699019D02*
X159857143Y-114699019D01*
X159857143Y-114699019D02*
X159761905Y-114651400D01*
X159761905Y-114651400D02*
X159714286Y-114603780D01*
X167857142Y-113454819D02*
X167523809Y-112978628D01*
X167285714Y-113454819D02*
X167285714Y-112454819D01*
X167285714Y-112454819D02*
X167666666Y-112454819D01*
X167666666Y-112454819D02*
X167761904Y-112502438D01*
X167761904Y-112502438D02*
X167809523Y-112550057D01*
X167809523Y-112550057D02*
X167857142Y-112645295D01*
X167857142Y-112645295D02*
X167857142Y-112788152D01*
X167857142Y-112788152D02*
X167809523Y-112883390D01*
X167809523Y-112883390D02*
X167761904Y-112931009D01*
X167761904Y-112931009D02*
X167666666Y-112978628D01*
X167666666Y-112978628D02*
X167285714Y-112978628D01*
X168809523Y-113454819D02*
X168238095Y-113454819D01*
X168523809Y-113454819D02*
X168523809Y-112454819D01*
X168523809Y-112454819D02*
X168428571Y-112597676D01*
X168428571Y-112597676D02*
X168333333Y-112692914D01*
X168333333Y-112692914D02*
X168238095Y-112740533D01*
X169428571Y-112454819D02*
X169523809Y-112454819D01*
X169523809Y-112454819D02*
X169619047Y-112502438D01*
X169619047Y-112502438D02*
X169666666Y-112550057D01*
X169666666Y-112550057D02*
X169714285Y-112645295D01*
X169714285Y-112645295D02*
X169761904Y-112835771D01*
X169761904Y-112835771D02*
X169761904Y-113073866D01*
X169761904Y-113073866D02*
X169714285Y-113264342D01*
X169714285Y-113264342D02*
X169666666Y-113359580D01*
X169666666Y-113359580D02*
X169619047Y-113407200D01*
X169619047Y-113407200D02*
X169523809Y-113454819D01*
X169523809Y-113454819D02*
X169428571Y-113454819D01*
X169428571Y-113454819D02*
X169333333Y-113407200D01*
X169333333Y-113407200D02*
X169285714Y-113359580D01*
X169285714Y-113359580D02*
X169238095Y-113264342D01*
X169238095Y-113264342D02*
X169190476Y-113073866D01*
X169190476Y-113073866D02*
X169190476Y-112835771D01*
X169190476Y-112835771D02*
X169238095Y-112645295D01*
X169238095Y-112645295D02*
X169285714Y-112550057D01*
X169285714Y-112550057D02*
X169333333Y-112502438D01*
X169333333Y-112502438D02*
X169428571Y-112454819D01*
D15*
X167295080Y-102277332D02*
X167295080Y-102700666D01*
X167960318Y-102700666D02*
X166690318Y-102700666D01*
X166690318Y-102700666D02*
X166690318Y-102095904D01*
X167960318Y-100946856D02*
X167960318Y-101672571D01*
X167960318Y-101309714D02*
X166690318Y-101309714D01*
X166690318Y-101309714D02*
X166871746Y-101430666D01*
X166871746Y-101430666D02*
X166992699Y-101551618D01*
X166992699Y-101551618D02*
X167053175Y-101672571D01*
D14*
X124933333Y-112954819D02*
X124600000Y-112478628D01*
X124361905Y-112954819D02*
X124361905Y-111954819D01*
X124361905Y-111954819D02*
X124742857Y-111954819D01*
X124742857Y-111954819D02*
X124838095Y-112002438D01*
X124838095Y-112002438D02*
X124885714Y-112050057D01*
X124885714Y-112050057D02*
X124933333Y-112145295D01*
X124933333Y-112145295D02*
X124933333Y-112288152D01*
X124933333Y-112288152D02*
X124885714Y-112383390D01*
X124885714Y-112383390D02*
X124838095Y-112431009D01*
X124838095Y-112431009D02*
X124742857Y-112478628D01*
X124742857Y-112478628D02*
X124361905Y-112478628D01*
X125504762Y-112383390D02*
X125409524Y-112335771D01*
X125409524Y-112335771D02*
X125361905Y-112288152D01*
X125361905Y-112288152D02*
X125314286Y-112192914D01*
X125314286Y-112192914D02*
X125314286Y-112145295D01*
X125314286Y-112145295D02*
X125361905Y-112050057D01*
X125361905Y-112050057D02*
X125409524Y-112002438D01*
X125409524Y-112002438D02*
X125504762Y-111954819D01*
X125504762Y-111954819D02*
X125695238Y-111954819D01*
X125695238Y-111954819D02*
X125790476Y-112002438D01*
X125790476Y-112002438D02*
X125838095Y-112050057D01*
X125838095Y-112050057D02*
X125885714Y-112145295D01*
X125885714Y-112145295D02*
X125885714Y-112192914D01*
X125885714Y-112192914D02*
X125838095Y-112288152D01*
X125838095Y-112288152D02*
X125790476Y-112335771D01*
X125790476Y-112335771D02*
X125695238Y-112383390D01*
X125695238Y-112383390D02*
X125504762Y-112383390D01*
X125504762Y-112383390D02*
X125409524Y-112431009D01*
X125409524Y-112431009D02*
X125361905Y-112478628D01*
X125361905Y-112478628D02*
X125314286Y-112573866D01*
X125314286Y-112573866D02*
X125314286Y-112764342D01*
X125314286Y-112764342D02*
X125361905Y-112859580D01*
X125361905Y-112859580D02*
X125409524Y-112907200D01*
X125409524Y-112907200D02*
X125504762Y-112954819D01*
X125504762Y-112954819D02*
X125695238Y-112954819D01*
X125695238Y-112954819D02*
X125790476Y-112907200D01*
X125790476Y-112907200D02*
X125838095Y-112859580D01*
X125838095Y-112859580D02*
X125885714Y-112764342D01*
X125885714Y-112764342D02*
X125885714Y-112573866D01*
X125885714Y-112573866D02*
X125838095Y-112478628D01*
X125838095Y-112478628D02*
X125790476Y-112431009D01*
X125790476Y-112431009D02*
X125695238Y-112383390D01*
X151857142Y-75559580D02*
X151809523Y-75607200D01*
X151809523Y-75607200D02*
X151666666Y-75654819D01*
X151666666Y-75654819D02*
X151571428Y-75654819D01*
X151571428Y-75654819D02*
X151428571Y-75607200D01*
X151428571Y-75607200D02*
X151333333Y-75511961D01*
X151333333Y-75511961D02*
X151285714Y-75416723D01*
X151285714Y-75416723D02*
X151238095Y-75226247D01*
X151238095Y-75226247D02*
X151238095Y-75083390D01*
X151238095Y-75083390D02*
X151285714Y-74892914D01*
X151285714Y-74892914D02*
X151333333Y-74797676D01*
X151333333Y-74797676D02*
X151428571Y-74702438D01*
X151428571Y-74702438D02*
X151571428Y-74654819D01*
X151571428Y-74654819D02*
X151666666Y-74654819D01*
X151666666Y-74654819D02*
X151809523Y-74702438D01*
X151809523Y-74702438D02*
X151857142Y-74750057D01*
X152809523Y-75654819D02*
X152238095Y-75654819D01*
X152523809Y-75654819D02*
X152523809Y-74654819D01*
X152523809Y-74654819D02*
X152428571Y-74797676D01*
X152428571Y-74797676D02*
X152333333Y-74892914D01*
X152333333Y-74892914D02*
X152238095Y-74940533D01*
X153666666Y-74988152D02*
X153666666Y-75654819D01*
X153428571Y-74607200D02*
X153190476Y-75321485D01*
X153190476Y-75321485D02*
X153809523Y-75321485D01*
X158138095Y-73954819D02*
X158138095Y-74764342D01*
X158138095Y-74764342D02*
X158185714Y-74859580D01*
X158185714Y-74859580D02*
X158233333Y-74907200D01*
X158233333Y-74907200D02*
X158328571Y-74954819D01*
X158328571Y-74954819D02*
X158519047Y-74954819D01*
X158519047Y-74954819D02*
X158614285Y-74907200D01*
X158614285Y-74907200D02*
X158661904Y-74859580D01*
X158661904Y-74859580D02*
X158709523Y-74764342D01*
X158709523Y-74764342D02*
X158709523Y-73954819D01*
X159090476Y-73954819D02*
X159709523Y-73954819D01*
X159709523Y-73954819D02*
X159376190Y-74335771D01*
X159376190Y-74335771D02*
X159519047Y-74335771D01*
X159519047Y-74335771D02*
X159614285Y-74383390D01*
X159614285Y-74383390D02*
X159661904Y-74431009D01*
X159661904Y-74431009D02*
X159709523Y-74526247D01*
X159709523Y-74526247D02*
X159709523Y-74764342D01*
X159709523Y-74764342D02*
X159661904Y-74859580D01*
X159661904Y-74859580D02*
X159614285Y-74907200D01*
X159614285Y-74907200D02*
X159519047Y-74954819D01*
X159519047Y-74954819D02*
X159233333Y-74954819D01*
X159233333Y-74954819D02*
X159138095Y-74907200D01*
X159138095Y-74907200D02*
X159090476Y-74859580D01*
X158154819Y-70720449D02*
X158392914Y-70720449D01*
X158297676Y-70958544D02*
X158392914Y-70720449D01*
X158392914Y-70720449D02*
X158297676Y-70482354D01*
X158583390Y-70863306D02*
X158392914Y-70720449D01*
X158392914Y-70720449D02*
X158583390Y-70577592D01*
X155759580Y-133942857D02*
X155807200Y-133990476D01*
X155807200Y-133990476D02*
X155854819Y-134133333D01*
X155854819Y-134133333D02*
X155854819Y-134228571D01*
X155854819Y-134228571D02*
X155807200Y-134371428D01*
X155807200Y-134371428D02*
X155711961Y-134466666D01*
X155711961Y-134466666D02*
X155616723Y-134514285D01*
X155616723Y-134514285D02*
X155426247Y-134561904D01*
X155426247Y-134561904D02*
X155283390Y-134561904D01*
X155283390Y-134561904D02*
X155092914Y-134514285D01*
X155092914Y-134514285D02*
X154997676Y-134466666D01*
X154997676Y-134466666D02*
X154902438Y-134371428D01*
X154902438Y-134371428D02*
X154854819Y-134228571D01*
X154854819Y-134228571D02*
X154854819Y-134133333D01*
X154854819Y-134133333D02*
X154902438Y-133990476D01*
X154902438Y-133990476D02*
X154950057Y-133942857D01*
X155854819Y-132990476D02*
X155854819Y-133561904D01*
X155854819Y-133276190D02*
X154854819Y-133276190D01*
X154854819Y-133276190D02*
X154997676Y-133371428D01*
X154997676Y-133371428D02*
X155092914Y-133466666D01*
X155092914Y-133466666D02*
X155140533Y-133561904D01*
X154854819Y-132657142D02*
X154854819Y-132038095D01*
X154854819Y-132038095D02*
X155235771Y-132371428D01*
X155235771Y-132371428D02*
X155235771Y-132228571D01*
X155235771Y-132228571D02*
X155283390Y-132133333D01*
X155283390Y-132133333D02*
X155331009Y-132085714D01*
X155331009Y-132085714D02*
X155426247Y-132038095D01*
X155426247Y-132038095D02*
X155664342Y-132038095D01*
X155664342Y-132038095D02*
X155759580Y-132085714D01*
X155759580Y-132085714D02*
X155807200Y-132133333D01*
X155807200Y-132133333D02*
X155854819Y-132228571D01*
X155854819Y-132228571D02*
X155854819Y-132514285D01*
X155854819Y-132514285D02*
X155807200Y-132609523D01*
X155807200Y-132609523D02*
X155759580Y-132657142D01*
X122157142Y-81659580D02*
X122109523Y-81707200D01*
X122109523Y-81707200D02*
X121966666Y-81754819D01*
X121966666Y-81754819D02*
X121871428Y-81754819D01*
X121871428Y-81754819D02*
X121728571Y-81707200D01*
X121728571Y-81707200D02*
X121633333Y-81611961D01*
X121633333Y-81611961D02*
X121585714Y-81516723D01*
X121585714Y-81516723D02*
X121538095Y-81326247D01*
X121538095Y-81326247D02*
X121538095Y-81183390D01*
X121538095Y-81183390D02*
X121585714Y-80992914D01*
X121585714Y-80992914D02*
X121633333Y-80897676D01*
X121633333Y-80897676D02*
X121728571Y-80802438D01*
X121728571Y-80802438D02*
X121871428Y-80754819D01*
X121871428Y-80754819D02*
X121966666Y-80754819D01*
X121966666Y-80754819D02*
X122109523Y-80802438D01*
X122109523Y-80802438D02*
X122157142Y-80850057D01*
X123109523Y-81754819D02*
X122538095Y-81754819D01*
X122823809Y-81754819D02*
X122823809Y-80754819D01*
X122823809Y-80754819D02*
X122728571Y-80897676D01*
X122728571Y-80897676D02*
X122633333Y-80992914D01*
X122633333Y-80992914D02*
X122538095Y-81040533D01*
X124014285Y-80754819D02*
X123538095Y-80754819D01*
X123538095Y-80754819D02*
X123490476Y-81231009D01*
X123490476Y-81231009D02*
X123538095Y-81183390D01*
X123538095Y-81183390D02*
X123633333Y-81135771D01*
X123633333Y-81135771D02*
X123871428Y-81135771D01*
X123871428Y-81135771D02*
X123966666Y-81183390D01*
X123966666Y-81183390D02*
X124014285Y-81231009D01*
X124014285Y-81231009D02*
X124061904Y-81326247D01*
X124061904Y-81326247D02*
X124061904Y-81564342D01*
X124061904Y-81564342D02*
X124014285Y-81659580D01*
X124014285Y-81659580D02*
X123966666Y-81707200D01*
X123966666Y-81707200D02*
X123871428Y-81754819D01*
X123871428Y-81754819D02*
X123633333Y-81754819D01*
X123633333Y-81754819D02*
X123538095Y-81707200D01*
X123538095Y-81707200D02*
X123490476Y-81659580D01*
X146866666Y-141231009D02*
X146533333Y-141231009D01*
X146533333Y-141754819D02*
X146533333Y-140754819D01*
X146533333Y-140754819D02*
X147009523Y-140754819D01*
X147342857Y-140850057D02*
X147390476Y-140802438D01*
X147390476Y-140802438D02*
X147485714Y-140754819D01*
X147485714Y-140754819D02*
X147723809Y-140754819D01*
X147723809Y-140754819D02*
X147819047Y-140802438D01*
X147819047Y-140802438D02*
X147866666Y-140850057D01*
X147866666Y-140850057D02*
X147914285Y-140945295D01*
X147914285Y-140945295D02*
X147914285Y-141040533D01*
X147914285Y-141040533D02*
X147866666Y-141183390D01*
X147866666Y-141183390D02*
X147295238Y-141754819D01*
X147295238Y-141754819D02*
X147914285Y-141754819D01*
X138666666Y-77054819D02*
X138666666Y-77769104D01*
X138666666Y-77769104D02*
X138619047Y-77911961D01*
X138619047Y-77911961D02*
X138523809Y-78007200D01*
X138523809Y-78007200D02*
X138380952Y-78054819D01*
X138380952Y-78054819D02*
X138285714Y-78054819D01*
X139666666Y-78054819D02*
X139095238Y-78054819D01*
X139380952Y-78054819D02*
X139380952Y-77054819D01*
X139380952Y-77054819D02*
X139285714Y-77197676D01*
X139285714Y-77197676D02*
X139190476Y-77292914D01*
X139190476Y-77292914D02*
X139095238Y-77340533D01*
X113738095Y-74554819D02*
X113738095Y-75364342D01*
X113738095Y-75364342D02*
X113785714Y-75459580D01*
X113785714Y-75459580D02*
X113833333Y-75507200D01*
X113833333Y-75507200D02*
X113928571Y-75554819D01*
X113928571Y-75554819D02*
X114119047Y-75554819D01*
X114119047Y-75554819D02*
X114214285Y-75507200D01*
X114214285Y-75507200D02*
X114261904Y-75459580D01*
X114261904Y-75459580D02*
X114309523Y-75364342D01*
X114309523Y-75364342D02*
X114309523Y-74554819D01*
X115214285Y-74888152D02*
X115214285Y-75554819D01*
X114976190Y-74507200D02*
X114738095Y-75221485D01*
X114738095Y-75221485D02*
X115357142Y-75221485D01*
X114066666Y-143154819D02*
X114066666Y-143869104D01*
X114066666Y-143869104D02*
X114019047Y-144011961D01*
X114019047Y-144011961D02*
X113923809Y-144107200D01*
X113923809Y-144107200D02*
X113780952Y-144154819D01*
X113780952Y-144154819D02*
X113685714Y-144154819D01*
X115019047Y-143154819D02*
X114542857Y-143154819D01*
X114542857Y-143154819D02*
X114495238Y-143631009D01*
X114495238Y-143631009D02*
X114542857Y-143583390D01*
X114542857Y-143583390D02*
X114638095Y-143535771D01*
X114638095Y-143535771D02*
X114876190Y-143535771D01*
X114876190Y-143535771D02*
X114971428Y-143583390D01*
X114971428Y-143583390D02*
X115019047Y-143631009D01*
X115019047Y-143631009D02*
X115066666Y-143726247D01*
X115066666Y-143726247D02*
X115066666Y-143964342D01*
X115066666Y-143964342D02*
X115019047Y-144059580D01*
X115019047Y-144059580D02*
X114971428Y-144107200D01*
X114971428Y-144107200D02*
X114876190Y-144154819D01*
X114876190Y-144154819D02*
X114638095Y-144154819D01*
X114638095Y-144154819D02*
X114542857Y-144107200D01*
X114542857Y-144107200D02*
X114495238Y-144059580D01*
X153163645Y-137004818D02*
X153163645Y-137814341D01*
X153163645Y-137814341D02*
X153211264Y-137909579D01*
X153211264Y-137909579D02*
X153258883Y-137957199D01*
X153258883Y-137957199D02*
X153354121Y-138004818D01*
X153354121Y-138004818D02*
X153544597Y-138004818D01*
X153544597Y-138004818D02*
X153639835Y-137957199D01*
X153639835Y-137957199D02*
X153687454Y-137909579D01*
X153687454Y-137909579D02*
X153735073Y-137814341D01*
X153735073Y-137814341D02*
X153735073Y-137004818D01*
X154163645Y-137100056D02*
X154211264Y-137052437D01*
X154211264Y-137052437D02*
X154306502Y-137004818D01*
X154306502Y-137004818D02*
X154544597Y-137004818D01*
X154544597Y-137004818D02*
X154639835Y-137052437D01*
X154639835Y-137052437D02*
X154687454Y-137100056D01*
X154687454Y-137100056D02*
X154735073Y-137195294D01*
X154735073Y-137195294D02*
X154735073Y-137290532D01*
X154735073Y-137290532D02*
X154687454Y-137433389D01*
X154687454Y-137433389D02*
X154116026Y-138004818D01*
X154116026Y-138004818D02*
X154735073Y-138004818D01*
X155379550Y-141452619D02*
X155379550Y-141690714D01*
X155141455Y-141595476D02*
X155379550Y-141690714D01*
X155379550Y-141690714D02*
X155617645Y-141595476D01*
X155236693Y-141881190D02*
X155379550Y-141690714D01*
X155379550Y-141690714D02*
X155522407Y-141881190D01*
D16*
%TO.C,D1*%
X120296802Y-123426300D02*
X120296802Y-125382100D01*
X120296802Y-125382100D02*
X122049402Y-125382100D01*
X121566802Y-121394300D02*
X120042802Y-121394300D01*
X121566802Y-122334100D02*
X120042802Y-122334100D01*
X121566802Y-126474300D02*
X120042802Y-126474300D01*
X121566802Y-127414100D02*
X120042802Y-127414100D01*
X122049402Y-119133700D02*
X122049402Y-123426300D01*
X122049402Y-123426300D02*
X120296802Y-123426300D01*
X122049402Y-125382100D02*
X122049402Y-129674700D01*
X122049402Y-129674700D02*
X124367105Y-129674700D01*
X124367105Y-119133700D02*
X122049402Y-119133700D01*
%TO.C,Q1*%
X124081402Y-116784200D02*
G75*
G02*
X123929002Y-116784200I-76200J0D01*
G01*
X123929002Y-116784200D02*
G75*
G02*
X124081402Y-116784200I76200J0D01*
G01*
X122582802Y-117558900D02*
X122582802Y-117370940D01*
X122582802Y-112387460D02*
X122582802Y-112199500D01*
X122582802Y-112199500D02*
X116436002Y-112199500D01*
X116436002Y-117558900D02*
X122582802Y-117558900D01*
X116436002Y-117370940D02*
X116436002Y-117558900D01*
X116436002Y-112199500D02*
X116436002Y-112387460D01*
D17*
%TO.C,C21*%
X115765000Y-71261252D02*
X115765000Y-70738748D01*
X117235000Y-71261252D02*
X117235000Y-70738748D01*
%TO.C,C20*%
X110735000Y-77738748D02*
X110735000Y-78261252D01*
X109265000Y-77738748D02*
X109265000Y-78261252D01*
%TO.C,C17*%
X114735000Y-77738748D02*
X114735000Y-78261252D01*
X113265000Y-77738748D02*
X113265000Y-78261252D01*
%TO.C,C16*%
X117265000Y-78738748D02*
X117265000Y-79261252D01*
X118735000Y-78738748D02*
X118735000Y-79261252D01*
%TO.C,R6*%
X149227064Y-121265000D02*
X148772936Y-121265000D01*
X149227064Y-122735000D02*
X148772936Y-122735000D01*
D18*
%TO.C,R9*%
X127706000Y-117490000D02*
X128326000Y-117490000D01*
X127706000Y-114310000D02*
X128326000Y-114310000D01*
D17*
%TO.C,J4*%
X136720000Y-139192000D02*
G75*
G02*
X132360000Y-139192000I-2180000J0D01*
G01*
X132360000Y-139192000D02*
G75*
G02*
X136720000Y-139192000I2180000J0D01*
G01*
X131720000Y-139192000D02*
G75*
G02*
X127360000Y-139192000I-2180000J0D01*
G01*
X127360000Y-139192000D02*
G75*
G02*
X131720000Y-139192000I2180000J0D01*
G01*
X137100000Y-135132000D02*
X137100000Y-144252000D01*
X136194000Y-137804000D02*
X135799000Y-138200000D01*
X135928000Y-137538000D02*
X135548000Y-137918000D01*
X133533000Y-140466000D02*
X133153000Y-140846000D01*
X133282000Y-140184000D02*
X132887000Y-140580000D01*
X131194000Y-137804000D02*
X131087000Y-137911000D01*
X130928000Y-137538000D02*
X130821000Y-137645000D01*
X128258000Y-140739000D02*
X128152000Y-140846000D01*
X127992000Y-140473000D02*
X127886000Y-140580000D01*
X126980000Y-144252000D02*
X137100000Y-144252000D01*
X126980000Y-143792000D02*
X137100000Y-143792000D01*
X126980000Y-142692000D02*
X137100000Y-142692000D01*
X126980000Y-135132000D02*
X137100000Y-135132000D01*
X126980000Y-135132000D02*
X126980000Y-144252000D01*
X126740000Y-144492000D02*
X127140000Y-144492000D01*
X126740000Y-143852000D02*
X126740000Y-144492000D01*
%TO.C,C8*%
X146235000Y-121238748D02*
X146235000Y-121761252D01*
X144765000Y-121238748D02*
X144765000Y-121761252D01*
%TO.C,R1*%
X155702631Y-77790000D02*
X157297369Y-77790000D01*
X155702631Y-82210000D02*
X157297369Y-82210000D01*
D11*
%TO.C,L1*%
X121405002Y-82219200D02*
X140905002Y-82219200D01*
X121405002Y-110719200D02*
X121405002Y-82219200D01*
X140905002Y-82219200D02*
X140905002Y-92969200D01*
X140905002Y-110719200D02*
X121405002Y-110719200D01*
X140905002Y-110719200D02*
X140905002Y-99969200D01*
D15*
X111676002Y-91413200D02*
G75*
G02*
X111346002Y-91413200I-165000J0D01*
G01*
X111346002Y-91413200D02*
G75*
G02*
X111676002Y-91413200I165000J0D01*
G01*
D17*
%TO.C,R7*%
X168225438Y-121129200D02*
X168679566Y-121129200D01*
X168225438Y-122599200D02*
X168679566Y-122599200D01*
D18*
%TO.C,C1*%
X110756000Y-83428000D02*
X109716000Y-83428000D01*
X110756000Y-85228000D02*
X109716000Y-85228000D01*
D17*
%TO.C,R4*%
X121168936Y-132361000D02*
X121623064Y-132361000D01*
X121168936Y-133831000D02*
X121623064Y-133831000D01*
%TO.C,R3*%
X126248936Y-132361000D02*
X126703064Y-132361000D01*
X126248936Y-133831000D02*
X126703064Y-133831000D01*
%TO.C,J3*%
X170660000Y-136300000D02*
X171300000Y-136300000D01*
X171300000Y-136300000D02*
X171300000Y-135900000D01*
X161940000Y-136060000D02*
X171060000Y-136060000D01*
X161940000Y-136060000D02*
X161940000Y-125940000D01*
X169500000Y-136060000D02*
X169500000Y-125940000D01*
X170600000Y-136060000D02*
X170600000Y-125940000D01*
X171060000Y-136060000D02*
X171060000Y-125940000D01*
X167281000Y-135048000D02*
X167388000Y-135154000D01*
X167547000Y-134782000D02*
X167654000Y-134888000D01*
X164346000Y-132112000D02*
X164453000Y-132219000D01*
X164612000Y-131846000D02*
X164719000Y-131953000D01*
X166992000Y-129758000D02*
X167388000Y-130153000D01*
X167274000Y-129507000D02*
X167654000Y-129887000D01*
X164346000Y-127112000D02*
X164726000Y-127492000D01*
X164612000Y-126846000D02*
X165008000Y-127241000D01*
X161940000Y-125940000D02*
X171060000Y-125940000D01*
X168180000Y-133500000D02*
G75*
G02*
X163820000Y-133500000I-2180000J0D01*
G01*
X163820000Y-133500000D02*
G75*
G02*
X168180000Y-133500000I2180000J0D01*
G01*
X168180000Y-128500000D02*
G75*
G02*
X163820000Y-128500000I-2180000J0D01*
G01*
X163820000Y-128500000D02*
G75*
G02*
X168180000Y-128500000I2180000J0D01*
G01*
D18*
%TO.C,C9*%
X137934000Y-128314000D02*
X139434000Y-128314000D01*
X137934000Y-133814000D02*
X139434000Y-133814000D01*
%TO.C,C11*%
X140093000Y-112312000D02*
X141593000Y-112312000D01*
X140093000Y-117812000D02*
X141593000Y-117812000D01*
%TO.C,C10*%
X137934000Y-121710000D02*
X139434000Y-121710000D01*
X137934000Y-127210000D02*
X139434000Y-127210000D01*
D17*
%TO.C,C5*%
X149086970Y-118449448D02*
X149086970Y-118971952D01*
X150556970Y-118449448D02*
X150556970Y-118971952D01*
%TO.C,R11*%
X162452938Y-118589200D02*
X162907066Y-118589200D01*
X162452938Y-120059200D02*
X162907066Y-120059200D01*
%TO.C,C6*%
X162381250Y-123669200D02*
X162903754Y-123669200D01*
X162381250Y-125139200D02*
X162903754Y-125139200D01*
%TO.C,J6*%
X122840000Y-78160000D02*
X122840000Y-69040000D01*
X123746000Y-75488000D02*
X124141000Y-75092000D01*
X124012000Y-75754000D02*
X124392000Y-75374000D01*
X126407000Y-72826000D02*
X126787000Y-72446000D01*
X126658000Y-73108000D02*
X127053000Y-72712000D01*
X128746000Y-75488000D02*
X128853000Y-75381000D01*
X129012000Y-75754000D02*
X129119000Y-75647000D01*
X131682000Y-72553000D02*
X131788000Y-72446000D01*
X131948000Y-72819000D02*
X132054000Y-72712000D01*
X132960000Y-69040000D02*
X122840000Y-69040000D01*
X132960000Y-69500000D02*
X122840000Y-69500000D01*
X132960000Y-70600000D02*
X122840000Y-70600000D01*
X132960000Y-78160000D02*
X122840000Y-78160000D01*
X132960000Y-78160000D02*
X132960000Y-69040000D01*
X133200000Y-68800000D02*
X132800000Y-68800000D01*
X133200000Y-69440000D02*
X133200000Y-68800000D01*
X127580000Y-74100000D02*
G75*
G02*
X123220000Y-74100000I-2180000J0D01*
G01*
X123220000Y-74100000D02*
G75*
G02*
X127580000Y-74100000I2180000J0D01*
G01*
X132580000Y-74100000D02*
G75*
G02*
X128220000Y-74100000I-2180000J0D01*
G01*
X128220000Y-74100000D02*
G75*
G02*
X132580000Y-74100000I2180000J0D01*
G01*
D12*
%TO.C,U1*%
X150850388Y-116784200D02*
G75*
G02*
X150600386Y-116784200I-125001J0D01*
G01*
X150600386Y-116784200D02*
G75*
G02*
X150850388Y-116784200I125001J0D01*
G01*
D14*
X156523054Y-121234201D02*
X156523054Y-116234201D01*
X153727718Y-121234201D02*
X156523054Y-121234201D01*
X153727718Y-121234201D02*
X153727718Y-116234201D01*
X153727718Y-116234201D02*
X156523054Y-116234201D01*
D18*
%TO.C,C2*%
X110756000Y-86476000D02*
X109716000Y-86476000D01*
X110756000Y-88276000D02*
X109716000Y-88276000D01*
%TO.C,C12*%
X138210000Y-118988000D02*
X138790000Y-118988000D01*
X138210000Y-120788000D02*
X138790000Y-120788000D01*
D17*
%TO.C,C7*%
X162381250Y-121129200D02*
X162903754Y-121129200D01*
X162381250Y-122599200D02*
X162903754Y-122599200D01*
%TO.C,C3*%
X149105252Y-112549000D02*
X148582748Y-112549000D01*
X149105252Y-114019000D02*
X148582748Y-114019000D01*
%TO.C,C4*%
X162483748Y-115930000D02*
X163906252Y-115930000D01*
X162483748Y-117750000D02*
X163906252Y-117750000D01*
%TO.C,R2*%
X151035000Y-139572936D02*
X151035000Y-140027064D01*
X149565000Y-139572936D02*
X149565000Y-140027064D01*
%TO.C,TH1*%
X147828000Y-100271000D02*
X147828000Y-99236000D01*
%TO.C,R5*%
X162415438Y-113509200D02*
X162869566Y-113509200D01*
X162415438Y-114979200D02*
X162869566Y-114979200D01*
%TO.C,R10*%
X167540000Y-115557136D02*
X167540000Y-116011264D01*
X169010000Y-115557136D02*
X169010000Y-116011264D01*
D11*
%TO.C,F1*%
X158242000Y-96520000D02*
X162457000Y-96520000D01*
X158242000Y-106680000D02*
X158242000Y-96520000D01*
X158457000Y-106680000D02*
X158242000Y-106680000D01*
X158957000Y-106680000D02*
X158457000Y-106680000D01*
X165457000Y-96520000D02*
X165862000Y-96520000D01*
X165862000Y-96520000D02*
X165862000Y-106680000D01*
X165862000Y-106680000D02*
X161457000Y-106680000D01*
D17*
%TO.C,R8*%
X128327064Y-111765000D02*
X127872936Y-111765000D01*
X128327064Y-113235000D02*
X127872936Y-113235000D01*
%TO.C,C14*%
X154435000Y-72661252D02*
X154435000Y-72138748D01*
X152965000Y-72661252D02*
X152965000Y-72138748D01*
D16*
%TO.C,U3*%
X156535141Y-73025500D02*
X156864859Y-73025500D01*
X155493500Y-71374500D02*
X155493500Y-73025500D01*
X157906500Y-73025500D02*
X157906500Y-71374500D01*
D17*
%TO.C,C13*%
X157535000Y-136438748D02*
X157535000Y-136961252D01*
X156065000Y-136438748D02*
X156065000Y-136961252D01*
%TO.C,C15*%
X119765000Y-78776248D02*
X119765000Y-79298752D01*
X121235000Y-78776248D02*
X121235000Y-79298752D01*
D16*
%TO.C,F2*%
X148491100Y-140141600D02*
X148491100Y-139737740D01*
X148491100Y-135262260D02*
X148491100Y-134858400D01*
X148491100Y-134858400D02*
X138508900Y-134858400D01*
X138508900Y-140141600D02*
X148491100Y-140141600D01*
X138508900Y-139737740D02*
X138508900Y-140141600D01*
X138508900Y-134858400D02*
X138508900Y-135262260D01*
D17*
%TO.C,J1*%
X140228000Y-78160000D02*
X140228000Y-69040000D01*
X141134000Y-75488000D02*
X141529000Y-75092000D01*
X141400000Y-75754000D02*
X141780000Y-75374000D01*
X143795000Y-72826000D02*
X144175000Y-72446000D01*
X144046000Y-73108000D02*
X144441000Y-72712000D01*
X146134000Y-75488000D02*
X146241000Y-75381000D01*
X146400000Y-75754000D02*
X146507000Y-75647000D01*
X149070000Y-72553000D02*
X149176000Y-72446000D01*
X149336000Y-72819000D02*
X149442000Y-72712000D01*
X150348000Y-69040000D02*
X140228000Y-69040000D01*
X150348000Y-69500000D02*
X140228000Y-69500000D01*
X150348000Y-70600000D02*
X140228000Y-70600000D01*
X150348000Y-78160000D02*
X140228000Y-78160000D01*
X150348000Y-78160000D02*
X150348000Y-69040000D01*
X150588000Y-68800000D02*
X150188000Y-68800000D01*
X150588000Y-69440000D02*
X150588000Y-68800000D01*
X144968000Y-74100000D02*
G75*
G02*
X140608000Y-74100000I-2180000J0D01*
G01*
X140608000Y-74100000D02*
G75*
G02*
X144968000Y-74100000I2180000J0D01*
G01*
X149968000Y-74100000D02*
G75*
G02*
X145608000Y-74100000I-2180000J0D01*
G01*
X145608000Y-74100000D02*
G75*
G02*
X149968000Y-74100000I2180000J0D01*
G01*
%TO.C,U4*%
X119540000Y-76840000D02*
X119060000Y-76840000D01*
X119300000Y-76510000D01*
X119540000Y-76840000D01*
G36*
X119540000Y-76840000D02*
G01*
X119060000Y-76840000D01*
X119300000Y-76510000D01*
X119540000Y-76840000D01*
G37*
X118000000Y-73440000D02*
X117200000Y-73440000D01*
X118000000Y-73440000D02*
X118800000Y-73440000D01*
X118000000Y-76560000D02*
X117200000Y-76560000D01*
X118000000Y-76560000D02*
X118800000Y-76560000D01*
%TO.C,J5*%
X115564000Y-143852000D02*
X115564000Y-144492000D01*
X115564000Y-144492000D02*
X115964000Y-144492000D01*
X115804000Y-135132000D02*
X115804000Y-144252000D01*
X115804000Y-135132000D02*
X125924000Y-135132000D01*
X115804000Y-142692000D02*
X125924000Y-142692000D01*
X115804000Y-143792000D02*
X125924000Y-143792000D01*
X115804000Y-144252000D02*
X125924000Y-144252000D01*
X116816000Y-140473000D02*
X116710000Y-140580000D01*
X117082000Y-140739000D02*
X116976000Y-140846000D01*
X119752000Y-137538000D02*
X119645000Y-137645000D01*
X120018000Y-137804000D02*
X119911000Y-137911000D01*
X122106000Y-140184000D02*
X121711000Y-140580000D01*
X122357000Y-140466000D02*
X121977000Y-140846000D01*
X124752000Y-137538000D02*
X124372000Y-137918000D01*
X125018000Y-137804000D02*
X124623000Y-138200000D01*
X125924000Y-135132000D02*
X125924000Y-144252000D01*
X120544000Y-139192000D02*
G75*
G02*
X116184000Y-139192000I-2180000J0D01*
G01*
X116184000Y-139192000D02*
G75*
G02*
X120544000Y-139192000I2180000J0D01*
G01*
X125544000Y-139192000D02*
G75*
G02*
X121184000Y-139192000I-2180000J0D01*
G01*
X121184000Y-139192000D02*
G75*
G02*
X125544000Y-139192000I2180000J0D01*
G01*
D16*
%TO.C,U2*%
X153074500Y-139735141D02*
X153074500Y-140064859D01*
X154725500Y-138693500D02*
X153074500Y-138693500D01*
X153074500Y-141106500D02*
X154725500Y-141106500D01*
%TD*%
M02*
