G04 #@! TF.GenerationSoftware,KiCad,Pcbnew,(6.0.10)*
G04 #@! TF.CreationDate,2023-01-26T21:45:49-05:00*
G04 #@! TF.ProjectId,Input,496e7075-742e-46b6-9963-61645f706362,rev?*
G04 #@! TF.SameCoordinates,Original*
G04 #@! TF.FileFunction,Soldermask,Top*
G04 #@! TF.FilePolarity,Negative*
%FSLAX46Y46*%
G04 Gerber Fmt 4.6, Leading zero omitted, Abs format (unit mm)*
G04 Created by KiCad (PCBNEW (6.0.10)) date 2023-01-26 21:45:49*
%MOMM*%
%LPD*%
G01*
G04 APERTURE LIST*
G04 Aperture macros list*
%AMRoundRect*
0 Rectangle with rounded corners*
0 $1 Rounding radius*
0 $2 $3 $4 $5 $6 $7 $8 $9 X,Y pos of 4 corners*
0 Add a 4 corners polygon primitive as box body*
4,1,4,$2,$3,$4,$5,$6,$7,$8,$9,$2,$3,0*
0 Add four circle primitives for the rounded corners*
1,1,$1+$1,$2,$3*
1,1,$1+$1,$4,$5*
1,1,$1+$1,$6,$7*
1,1,$1+$1,$8,$9*
0 Add four rect primitives between the rounded corners*
20,1,$1+$1,$2,$3,$4,$5,0*
20,1,$1+$1,$4,$5,$6,$7,0*
20,1,$1+$1,$6,$7,$8,$9,0*
20,1,$1+$1,$8,$9,$2,$3,0*%
G04 Aperture macros list end*
%ADD10C,1.026200*%
%ADD11C,1.576200*%
%ADD12C,0.010000*%
%ADD13C,1.226200*%
%ADD14RoundRect,0.250001X-0.462499X-0.624999X0.462499X-0.624999X0.462499X0.624999X-0.462499X0.624999X0*%
%ADD15R,2.030000X1.730000*%
%ADD16O,2.030000X1.730000*%
%ADD17RoundRect,0.250000X0.450000X-0.350000X0.450000X0.350000X-0.450000X0.350000X-0.450000X-0.350000X0*%
%ADD18R,1.600000X1.600000*%
%ADD19C,1.600000*%
%ADD20RoundRect,0.750000X-0.750000X-0.750000X0.750000X-0.750000X0.750000X0.750000X-0.750000X0.750000X0*%
%ADD21C,3.000000*%
%ADD22C,6.400000*%
%ADD23RoundRect,0.750000X0.750000X0.750000X-0.750000X0.750000X-0.750000X-0.750000X0.750000X-0.750000X0*%
%ADD24RoundRect,0.250000X-0.450000X0.350000X-0.450000X-0.350000X0.450000X-0.350000X0.450000X0.350000X0*%
%ADD25R,1.803400X1.803400*%
%ADD26C,1.803400*%
%ADD27RoundRect,0.250001X0.624999X-0.462499X0.624999X0.462499X-0.624999X0.462499X-0.624999X-0.462499X0*%
%ADD28R,2.400000X2.400000*%
%ADD29C,2.400000*%
%ADD30R,2.616200X2.616200*%
%ADD31C,2.616200*%
%ADD32C,1.676400*%
%ADD33C,2.641600*%
%ADD34RoundRect,0.250000X-0.350000X-0.450000X0.350000X-0.450000X0.350000X0.450000X-0.350000X0.450000X0*%
%ADD35C,1.500000*%
G04 APERTURE END LIST*
D10*
X183559100Y-136162000D02*
G75*
G03*
X183559100Y-136162000I-513100J0D01*
G01*
X183559100Y-102562000D02*
G75*
G03*
X183559100Y-102562000I-513100J0D01*
G01*
X189059100Y-110962000D02*
G75*
G03*
X189059100Y-110962000I-513100J0D01*
G01*
X189059100Y-123562000D02*
G75*
G03*
X189059100Y-123562000I-513100J0D01*
G01*
X183559100Y-140362000D02*
G75*
G03*
X183559100Y-140362000I-513100J0D01*
G01*
X183559100Y-115162000D02*
G75*
G03*
X183559100Y-115162000I-513100J0D01*
G01*
X189059100Y-140362000D02*
G75*
G03*
X189059100Y-140362000I-513100J0D01*
G01*
D11*
X188874100Y-149262000D02*
G75*
G03*
X188874100Y-149262000I-788100J0D01*
G01*
D10*
X183559100Y-106762000D02*
G75*
G03*
X183559100Y-106762000I-513100J0D01*
G01*
X189059100Y-98362000D02*
G75*
G03*
X189059100Y-98362000I-513100J0D01*
G01*
X183559100Y-123562000D02*
G75*
G03*
X183559100Y-123562000I-513100J0D01*
G01*
X183559100Y-110962000D02*
G75*
G03*
X183559100Y-110962000I-513100J0D01*
G01*
X189059100Y-144562000D02*
G75*
G03*
X189059100Y-144562000I-513100J0D01*
G01*
X189059100Y-106762000D02*
G75*
G03*
X189059100Y-106762000I-513100J0D01*
G01*
X189059100Y-127762000D02*
G75*
G03*
X189059100Y-127762000I-513100J0D01*
G01*
X189059100Y-131962000D02*
G75*
G03*
X189059100Y-131962000I-513100J0D01*
G01*
X189059100Y-136162000D02*
G75*
G03*
X189059100Y-136162000I-513100J0D01*
G01*
X189059100Y-102562000D02*
G75*
G03*
X189059100Y-102562000I-513100J0D01*
G01*
X189059100Y-115162000D02*
G75*
G03*
X189059100Y-115162000I-513100J0D01*
G01*
X183559100Y-131962000D02*
G75*
G03*
X183559100Y-131962000I-513100J0D01*
G01*
X183559100Y-119362000D02*
G75*
G03*
X183559100Y-119362000I-513100J0D01*
G01*
X189059100Y-119362000D02*
G75*
G03*
X189059100Y-119362000I-513100J0D01*
G01*
D11*
X188874100Y-93662000D02*
G75*
G03*
X188874100Y-93662000I-788100J0D01*
G01*
D10*
X183559100Y-98362000D02*
G75*
G03*
X183559100Y-98362000I-513100J0D01*
G01*
X183559100Y-127762000D02*
G75*
G03*
X183559100Y-127762000I-513100J0D01*
G01*
G36*
X184072200Y-145588200D02*
G01*
X182019800Y-145588200D01*
X182019800Y-143535800D01*
X184072200Y-143535800D01*
X184072200Y-145588200D01*
G37*
D12*
X184072200Y-145588200D02*
X182019800Y-145588200D01*
X182019800Y-143535800D01*
X184072200Y-143535800D01*
X184072200Y-145588200D01*
D13*
X188573100Y-63954800D02*
G75*
G03*
X188573100Y-63954800I-613100J0D01*
G01*
X184373100Y-51354800D02*
G75*
G03*
X184373100Y-51354800I-613100J0D01*
G01*
X184373100Y-55554800D02*
G75*
G03*
X184373100Y-55554800I-613100J0D01*
G01*
X188573100Y-59754800D02*
G75*
G03*
X188573100Y-59754800I-613100J0D01*
G01*
X188573100Y-55554800D02*
G75*
G03*
X188573100Y-55554800I-613100J0D01*
G01*
X188573100Y-51354800D02*
G75*
G03*
X188573100Y-51354800I-613100J0D01*
G01*
X184373100Y-59754800D02*
G75*
G03*
X184373100Y-59754800I-613100J0D01*
G01*
G36*
X184986200Y-65181000D02*
G01*
X182533800Y-65181000D01*
X182533800Y-62728600D01*
X184986200Y-62728600D01*
X184986200Y-65181000D01*
G37*
D12*
X184986200Y-65181000D02*
X182533800Y-65181000D01*
X182533800Y-62728600D01*
X184986200Y-62728600D01*
X184986200Y-65181000D01*
D13*
X184373100Y-81983000D02*
G75*
G03*
X184373100Y-81983000I-613100J0D01*
G01*
X184373100Y-73583000D02*
G75*
G03*
X184373100Y-73583000I-613100J0D01*
G01*
X188573100Y-77783000D02*
G75*
G03*
X188573100Y-77783000I-613100J0D01*
G01*
X188573100Y-81983000D02*
G75*
G03*
X188573100Y-81983000I-613100J0D01*
G01*
X188573100Y-86183000D02*
G75*
G03*
X188573100Y-86183000I-613100J0D01*
G01*
X184373100Y-77783000D02*
G75*
G03*
X184373100Y-77783000I-613100J0D01*
G01*
X188573100Y-73583000D02*
G75*
G03*
X188573100Y-73583000I-613100J0D01*
G01*
G36*
X184986200Y-87409200D02*
G01*
X182533800Y-87409200D01*
X182533800Y-84956800D01*
X184986200Y-84956800D01*
X184986200Y-87409200D01*
G37*
D12*
X184986200Y-87409200D02*
X182533800Y-87409200D01*
X182533800Y-84956800D01*
X184986200Y-84956800D01*
X184986200Y-87409200D01*
D14*
X108250500Y-141618000D03*
X111225500Y-141618000D03*
D15*
X107899799Y-117732000D03*
D16*
X107899799Y-120272000D03*
X107899799Y-122812000D03*
D17*
X127508000Y-142859000D03*
X127508000Y-140859000D03*
D18*
X109904379Y-108344000D03*
D19*
X107404379Y-108344000D03*
D20*
X124637000Y-108344000D03*
X117017000Y-108344000D03*
D21*
X151227000Y-108344000D03*
X143607000Y-108344000D03*
D22*
X102376000Y-42436000D03*
D23*
X143861000Y-59690000D03*
X151481000Y-59690000D03*
D21*
X124891000Y-59690000D03*
X117271000Y-59690000D03*
D24*
X121412000Y-133747000D03*
X121412000Y-135747000D03*
D25*
X107391799Y-56742000D03*
D26*
X107391799Y-51742000D03*
D25*
X171664000Y-150949001D03*
D26*
X166664000Y-150949001D03*
D27*
X127508000Y-136742500D03*
X127508000Y-133767500D03*
D28*
X151892000Y-148661000D03*
D29*
X146812000Y-148661000D03*
X141732000Y-148661000D03*
X136652000Y-148661000D03*
D21*
X188086000Y-149262000D03*
X188086000Y-93662000D03*
D22*
X102372000Y-155829000D03*
D30*
X160498500Y-102362000D03*
D31*
X170498500Y-102362000D03*
D22*
X188976000Y-155811000D03*
D32*
X122361800Y-89344800D03*
D33*
X137601800Y-93154800D03*
X145221800Y-93154800D03*
X135061800Y-75374800D03*
D32*
X122361800Y-79184800D03*
D25*
X145378000Y-47945999D03*
D26*
X150378000Y-47945999D03*
X155378000Y-47945999D03*
D25*
X107391799Y-69848400D03*
D26*
X107391799Y-64848400D03*
D25*
X107391799Y-95604000D03*
D26*
X107391799Y-90604000D03*
D30*
X160498500Y-128778000D03*
D31*
X170498500Y-128778000D03*
D25*
X107391799Y-82904000D03*
D26*
X107391799Y-77904000D03*
D34*
X164100000Y-62357000D03*
X166100000Y-62357000D03*
D25*
X107391799Y-133223000D03*
D26*
X107391799Y-128223000D03*
D35*
X127174000Y-67704000D03*
X135074000Y-67704000D03*
D24*
X121412000Y-140859000D03*
X121412000Y-142859000D03*
D22*
X188976000Y-42418000D03*
D34*
X103404000Y-141618000D03*
X105404000Y-141618000D03*
D25*
X128444000Y-150949001D03*
D26*
X123444000Y-150949001D03*
X118444000Y-150949001D03*
D30*
X160498500Y-75946000D03*
D31*
X170498500Y-75946000D03*
M02*
