G04 #@! TF.GenerationSoftware,KiCad,Pcbnew,7.0.1*
G04 #@! TF.CreationDate,2023-04-08T17:38:13-04:00*
G04 #@! TF.ProjectId,Input,496e7075-742e-46b6-9963-61645f706362,rev?*
G04 #@! TF.SameCoordinates,Original*
G04 #@! TF.FileFunction,Legend,Bot*
G04 #@! TF.FilePolarity,Positive*
%FSLAX46Y46*%
G04 Gerber Fmt 4.6, Leading zero omitted, Abs format (unit mm)*
G04 Created by KiCad (PCBNEW 7.0.1) date 2023-04-08 17:38:13*
%MOMM*%
%LPD*%
G01*
G04 APERTURE LIST*
G04 Aperture macros list*
%AMRoundRect*
0 Rectangle with rounded corners*
0 $1 Rounding radius*
0 $2 $3 $4 $5 $6 $7 $8 $9 X,Y pos of 4 corners*
0 Add a 4 corners polygon primitive as box body*
4,1,4,$2,$3,$4,$5,$6,$7,$8,$9,$2,$3,0*
0 Add four circle primitives for the rounded corners*
1,1,$1+$1,$2,$3*
1,1,$1+$1,$4,$5*
1,1,$1+$1,$6,$7*
1,1,$1+$1,$8,$9*
0 Add four rect primitives between the rounded corners*
20,1,$1+$1,$2,$3,$4,$5,0*
20,1,$1+$1,$4,$5,$6,$7,0*
20,1,$1+$1,$6,$7,$8,$9,0*
20,1,$1+$1,$8,$9,$2,$3,0*%
G04 Aperture macros list end*
%ADD10C,0.150000*%
%ADD11C,0.120000*%
%ADD12C,1.026200*%
%ADD13C,1.576200*%
%ADD14C,0.010000*%
%ADD15C,1.226200*%
%ADD16R,2.030000X1.730000*%
%ADD17O,2.030000X1.730000*%
%ADD18R,1.600000X1.600000*%
%ADD19C,1.600000*%
%ADD20RoundRect,0.750000X-0.750000X-0.750000X0.750000X-0.750000X0.750000X0.750000X-0.750000X0.750000X0*%
%ADD21C,3.000000*%
%ADD22C,6.400000*%
%ADD23RoundRect,0.750000X0.750000X0.750000X-0.750000X0.750000X-0.750000X-0.750000X0.750000X-0.750000X0*%
%ADD24R,1.803400X1.803400*%
%ADD25C,1.803400*%
%ADD26R,2.400000X2.400000*%
%ADD27C,2.400000*%
%ADD28R,2.616200X2.616200*%
%ADD29C,2.616200*%
%ADD30C,1.676400*%
%ADD31C,2.641600*%
%ADD32C,1.500000*%
%ADD33R,0.650000X1.560000*%
%ADD34RoundRect,0.250000X-0.475000X0.337500X-0.475000X-0.337500X0.475000X-0.337500X0.475000X0.337500X0*%
%ADD35R,2.300000X3.500000*%
%ADD36R,3.500000X2.300000*%
%ADD37RoundRect,0.249999X-1.425001X0.450001X-1.425001X-0.450001X1.425001X-0.450001X1.425001X0.450001X0*%
G04 APERTURE END LIST*
D10*
X118617904Y-102218619D02*
X118617904Y-103028142D01*
X118617904Y-103028142D02*
X118570285Y-103123380D01*
X118570285Y-103123380D02*
X118522666Y-103171000D01*
X118522666Y-103171000D02*
X118427428Y-103218619D01*
X118427428Y-103218619D02*
X118236952Y-103218619D01*
X118236952Y-103218619D02*
X118141714Y-103171000D01*
X118141714Y-103171000D02*
X118094095Y-103123380D01*
X118094095Y-103123380D02*
X118046476Y-103028142D01*
X118046476Y-103028142D02*
X118046476Y-102218619D01*
X117617904Y-102313857D02*
X117570285Y-102266238D01*
X117570285Y-102266238D02*
X117475047Y-102218619D01*
X117475047Y-102218619D02*
X117236952Y-102218619D01*
X117236952Y-102218619D02*
X117141714Y-102266238D01*
X117141714Y-102266238D02*
X117094095Y-102313857D01*
X117094095Y-102313857D02*
X117046476Y-102409095D01*
X117046476Y-102409095D02*
X117046476Y-102504333D01*
X117046476Y-102504333D02*
X117094095Y-102647190D01*
X117094095Y-102647190D02*
X117665523Y-103218619D01*
X117665523Y-103218619D02*
X117046476Y-103218619D01*
X112942666Y-103110380D02*
X112990285Y-103158000D01*
X112990285Y-103158000D02*
X113133142Y-103205619D01*
X113133142Y-103205619D02*
X113228380Y-103205619D01*
X113228380Y-103205619D02*
X113371237Y-103158000D01*
X113371237Y-103158000D02*
X113466475Y-103062761D01*
X113466475Y-103062761D02*
X113514094Y-102967523D01*
X113514094Y-102967523D02*
X113561713Y-102777047D01*
X113561713Y-102777047D02*
X113561713Y-102634190D01*
X113561713Y-102634190D02*
X113514094Y-102443714D01*
X113514094Y-102443714D02*
X113466475Y-102348476D01*
X113466475Y-102348476D02*
X113371237Y-102253238D01*
X113371237Y-102253238D02*
X113228380Y-102205619D01*
X113228380Y-102205619D02*
X113133142Y-102205619D01*
X113133142Y-102205619D02*
X112990285Y-102253238D01*
X112990285Y-102253238D02*
X112942666Y-102300857D01*
X112371237Y-102634190D02*
X112466475Y-102586571D01*
X112466475Y-102586571D02*
X112514094Y-102538952D01*
X112514094Y-102538952D02*
X112561713Y-102443714D01*
X112561713Y-102443714D02*
X112561713Y-102396095D01*
X112561713Y-102396095D02*
X112514094Y-102300857D01*
X112514094Y-102300857D02*
X112466475Y-102253238D01*
X112466475Y-102253238D02*
X112371237Y-102205619D01*
X112371237Y-102205619D02*
X112180761Y-102205619D01*
X112180761Y-102205619D02*
X112085523Y-102253238D01*
X112085523Y-102253238D02*
X112037904Y-102300857D01*
X112037904Y-102300857D02*
X111990285Y-102396095D01*
X111990285Y-102396095D02*
X111990285Y-102443714D01*
X111990285Y-102443714D02*
X112037904Y-102538952D01*
X112037904Y-102538952D02*
X112085523Y-102586571D01*
X112085523Y-102586571D02*
X112180761Y-102634190D01*
X112180761Y-102634190D02*
X112371237Y-102634190D01*
X112371237Y-102634190D02*
X112466475Y-102681809D01*
X112466475Y-102681809D02*
X112514094Y-102729428D01*
X112514094Y-102729428D02*
X112561713Y-102824666D01*
X112561713Y-102824666D02*
X112561713Y-103015142D01*
X112561713Y-103015142D02*
X112514094Y-103110380D01*
X112514094Y-103110380D02*
X112466475Y-103158000D01*
X112466475Y-103158000D02*
X112371237Y-103205619D01*
X112371237Y-103205619D02*
X112180761Y-103205619D01*
X112180761Y-103205619D02*
X112085523Y-103158000D01*
X112085523Y-103158000D02*
X112037904Y-103110380D01*
X112037904Y-103110380D02*
X111990285Y-103015142D01*
X111990285Y-103015142D02*
X111990285Y-102824666D01*
X111990285Y-102824666D02*
X112037904Y-102729428D01*
X112037904Y-102729428D02*
X112085523Y-102681809D01*
X112085523Y-102681809D02*
X112180761Y-102634190D01*
X115582619Y-82967905D02*
X114582619Y-82967905D01*
X114582619Y-82967905D02*
X114582619Y-83206000D01*
X114582619Y-83206000D02*
X114630238Y-83348857D01*
X114630238Y-83348857D02*
X114725476Y-83444095D01*
X114725476Y-83444095D02*
X114820714Y-83491714D01*
X114820714Y-83491714D02*
X115011190Y-83539333D01*
X115011190Y-83539333D02*
X115154047Y-83539333D01*
X115154047Y-83539333D02*
X115344523Y-83491714D01*
X115344523Y-83491714D02*
X115439761Y-83444095D01*
X115439761Y-83444095D02*
X115535000Y-83348857D01*
X115535000Y-83348857D02*
X115582619Y-83206000D01*
X115582619Y-83206000D02*
X115582619Y-82967905D01*
X115582619Y-84491714D02*
X115582619Y-83920286D01*
X115582619Y-84206000D02*
X114582619Y-84206000D01*
X114582619Y-84206000D02*
X114725476Y-84110762D01*
X114725476Y-84110762D02*
X114820714Y-84015524D01*
X114820714Y-84015524D02*
X114868333Y-83920286D01*
X128510094Y-78184619D02*
X128510094Y-77184619D01*
X128510094Y-77184619D02*
X128271999Y-77184619D01*
X128271999Y-77184619D02*
X128129142Y-77232238D01*
X128129142Y-77232238D02*
X128033904Y-77327476D01*
X128033904Y-77327476D02*
X127986285Y-77422714D01*
X127986285Y-77422714D02*
X127938666Y-77613190D01*
X127938666Y-77613190D02*
X127938666Y-77756047D01*
X127938666Y-77756047D02*
X127986285Y-77946523D01*
X127986285Y-77946523D02*
X128033904Y-78041761D01*
X128033904Y-78041761D02*
X128129142Y-78137000D01*
X128129142Y-78137000D02*
X128271999Y-78184619D01*
X128271999Y-78184619D02*
X128510094Y-78184619D01*
X127557713Y-77279857D02*
X127510094Y-77232238D01*
X127510094Y-77232238D02*
X127414856Y-77184619D01*
X127414856Y-77184619D02*
X127176761Y-77184619D01*
X127176761Y-77184619D02*
X127081523Y-77232238D01*
X127081523Y-77232238D02*
X127033904Y-77279857D01*
X127033904Y-77279857D02*
X126986285Y-77375095D01*
X126986285Y-77375095D02*
X126986285Y-77470333D01*
X126986285Y-77470333D02*
X127033904Y-77613190D01*
X127033904Y-77613190D02*
X127605332Y-78184619D01*
X127605332Y-78184619D02*
X126986285Y-78184619D01*
X134532666Y-119379380D02*
X134580285Y-119427000D01*
X134580285Y-119427000D02*
X134723142Y-119474619D01*
X134723142Y-119474619D02*
X134818380Y-119474619D01*
X134818380Y-119474619D02*
X134961237Y-119427000D01*
X134961237Y-119427000D02*
X135056475Y-119331761D01*
X135056475Y-119331761D02*
X135104094Y-119236523D01*
X135104094Y-119236523D02*
X135151713Y-119046047D01*
X135151713Y-119046047D02*
X135151713Y-118903190D01*
X135151713Y-118903190D02*
X135104094Y-118712714D01*
X135104094Y-118712714D02*
X135056475Y-118617476D01*
X135056475Y-118617476D02*
X134961237Y-118522238D01*
X134961237Y-118522238D02*
X134818380Y-118474619D01*
X134818380Y-118474619D02*
X134723142Y-118474619D01*
X134723142Y-118474619D02*
X134580285Y-118522238D01*
X134580285Y-118522238D02*
X134532666Y-118569857D01*
X134199332Y-118474619D02*
X133532666Y-118474619D01*
X133532666Y-118474619D02*
X133961237Y-119474619D01*
X123582619Y-98779333D02*
X123106428Y-98446000D01*
X123582619Y-98207905D02*
X122582619Y-98207905D01*
X122582619Y-98207905D02*
X122582619Y-98588857D01*
X122582619Y-98588857D02*
X122630238Y-98684095D01*
X122630238Y-98684095D02*
X122677857Y-98731714D01*
X122677857Y-98731714D02*
X122773095Y-98779333D01*
X122773095Y-98779333D02*
X122915952Y-98779333D01*
X122915952Y-98779333D02*
X123011190Y-98731714D01*
X123011190Y-98731714D02*
X123058809Y-98684095D01*
X123058809Y-98684095D02*
X123106428Y-98588857D01*
X123106428Y-98588857D02*
X123106428Y-98207905D01*
X123582619Y-99731714D02*
X123582619Y-99160286D01*
X123582619Y-99446000D02*
X122582619Y-99446000D01*
X122582619Y-99446000D02*
X122725476Y-99350762D01*
X122725476Y-99350762D02*
X122820714Y-99255524D01*
X122820714Y-99255524D02*
X122868333Y-99160286D01*
X145426619Y-115035333D02*
X144950428Y-114702000D01*
X145426619Y-114463905D02*
X144426619Y-114463905D01*
X144426619Y-114463905D02*
X144426619Y-114844857D01*
X144426619Y-114844857D02*
X144474238Y-114940095D01*
X144474238Y-114940095D02*
X144521857Y-114987714D01*
X144521857Y-114987714D02*
X144617095Y-115035333D01*
X144617095Y-115035333D02*
X144759952Y-115035333D01*
X144759952Y-115035333D02*
X144855190Y-114987714D01*
X144855190Y-114987714D02*
X144902809Y-114940095D01*
X144902809Y-114940095D02*
X144950428Y-114844857D01*
X144950428Y-114844857D02*
X144950428Y-114463905D01*
X144759952Y-115892476D02*
X145426619Y-115892476D01*
X144379000Y-115654381D02*
X145093285Y-115416286D01*
X145093285Y-115416286D02*
X145093285Y-116035333D01*
X139455904Y-118474619D02*
X139455904Y-119284142D01*
X139455904Y-119284142D02*
X139408285Y-119379380D01*
X139408285Y-119379380D02*
X139360666Y-119427000D01*
X139360666Y-119427000D02*
X139265428Y-119474619D01*
X139265428Y-119474619D02*
X139074952Y-119474619D01*
X139074952Y-119474619D02*
X138979714Y-119427000D01*
X138979714Y-119427000D02*
X138932095Y-119379380D01*
X138932095Y-119379380D02*
X138884476Y-119284142D01*
X138884476Y-119284142D02*
X138884476Y-118474619D01*
X137884476Y-119474619D02*
X138455904Y-119474619D01*
X138170190Y-119474619D02*
X138170190Y-118474619D01*
X138170190Y-118474619D02*
X138265428Y-118617476D01*
X138265428Y-118617476D02*
X138360666Y-118712714D01*
X138360666Y-118712714D02*
X138455904Y-118760333D01*
D11*
X116246000Y-100007500D02*
X116246000Y-97557500D01*
X119466000Y-98207500D02*
X119466000Y-100007500D01*
X112041000Y-99687748D02*
X112041000Y-100210252D01*
X113511000Y-99687748D02*
X113511000Y-100210252D01*
X115970000Y-79106000D02*
X115970000Y-86406000D01*
X120270000Y-79106000D02*
X120270000Y-86406000D01*
X115970000Y-79106000D02*
X120270000Y-79106000D01*
X123172000Y-76872000D02*
X130472000Y-76872000D01*
X123172000Y-72572000D02*
X130472000Y-72572000D01*
X123172000Y-76872000D02*
X123172000Y-72572000D01*
X133631000Y-115956748D02*
X133631000Y-116479252D01*
X135101000Y-115956748D02*
X135101000Y-116479252D01*
X127450000Y-96768936D02*
X127450000Y-101123064D01*
X124030000Y-96768936D02*
X124030000Y-101123064D01*
X145874000Y-113024936D02*
X145874000Y-117379064D01*
X149294000Y-113024936D02*
X149294000Y-117379064D01*
X140304000Y-114302000D02*
X140304000Y-116102000D01*
X137084000Y-116102000D02*
X137084000Y-113652000D01*
%LPC*%
D12*
X183559100Y-98362000D02*
G75*
G03*
X183559100Y-98362000I-513100J0D01*
G01*
X189059100Y-131962000D02*
G75*
G03*
X189059100Y-131962000I-513100J0D01*
G01*
X183559100Y-136162000D02*
G75*
G03*
X183559100Y-136162000I-513100J0D01*
G01*
X189059100Y-144562000D02*
G75*
G03*
X189059100Y-144562000I-513100J0D01*
G01*
X183559100Y-123562000D02*
G75*
G03*
X183559100Y-123562000I-513100J0D01*
G01*
X189059100Y-110962000D02*
G75*
G03*
X189059100Y-110962000I-513100J0D01*
G01*
X183559100Y-110962000D02*
G75*
G03*
X183559100Y-110962000I-513100J0D01*
G01*
X189059100Y-119362000D02*
G75*
G03*
X189059100Y-119362000I-513100J0D01*
G01*
X183559100Y-106762000D02*
G75*
G03*
X183559100Y-106762000I-513100J0D01*
G01*
X183559100Y-140362000D02*
G75*
G03*
X183559100Y-140362000I-513100J0D01*
G01*
X183559100Y-119362000D02*
G75*
G03*
X183559100Y-119362000I-513100J0D01*
G01*
X189059100Y-127762000D02*
G75*
G03*
X189059100Y-127762000I-513100J0D01*
G01*
X189059100Y-106762000D02*
G75*
G03*
X189059100Y-106762000I-513100J0D01*
G01*
X189059100Y-102562000D02*
G75*
G03*
X189059100Y-102562000I-513100J0D01*
G01*
X189059100Y-123562000D02*
G75*
G03*
X189059100Y-123562000I-513100J0D01*
G01*
X189059100Y-115162000D02*
G75*
G03*
X189059100Y-115162000I-513100J0D01*
G01*
X189059100Y-98362000D02*
G75*
G03*
X189059100Y-98362000I-513100J0D01*
G01*
X189059100Y-140362000D02*
G75*
G03*
X189059100Y-140362000I-513100J0D01*
G01*
X183559100Y-102562000D02*
G75*
G03*
X183559100Y-102562000I-513100J0D01*
G01*
D13*
X188874100Y-149262000D02*
G75*
G03*
X188874100Y-149262000I-788100J0D01*
G01*
D12*
X189059100Y-136162000D02*
G75*
G03*
X189059100Y-136162000I-513100J0D01*
G01*
X183559100Y-115162000D02*
G75*
G03*
X183559100Y-115162000I-513100J0D01*
G01*
X183559100Y-131962000D02*
G75*
G03*
X183559100Y-131962000I-513100J0D01*
G01*
D13*
X188874100Y-93662000D02*
G75*
G03*
X188874100Y-93662000I-788100J0D01*
G01*
D12*
X183559100Y-127762000D02*
G75*
G03*
X183559100Y-127762000I-513100J0D01*
G01*
D14*
X184072200Y-145588200D02*
X182019800Y-145588200D01*
X182019800Y-143535800D01*
X184072200Y-143535800D01*
X184072200Y-145588200D01*
G36*
X184072200Y-145588200D02*
G01*
X182019800Y-145588200D01*
X182019800Y-143535800D01*
X184072200Y-143535800D01*
X184072200Y-145588200D01*
G37*
D15*
X188573100Y-51354800D02*
G75*
G03*
X188573100Y-51354800I-613100J0D01*
G01*
X184373100Y-51354800D02*
G75*
G03*
X184373100Y-51354800I-613100J0D01*
G01*
X184373100Y-59754800D02*
G75*
G03*
X184373100Y-59754800I-613100J0D01*
G01*
X188573100Y-59754800D02*
G75*
G03*
X188573100Y-59754800I-613100J0D01*
G01*
X184373100Y-55554800D02*
G75*
G03*
X184373100Y-55554800I-613100J0D01*
G01*
X188573100Y-63954800D02*
G75*
G03*
X188573100Y-63954800I-613100J0D01*
G01*
X188573100Y-55554800D02*
G75*
G03*
X188573100Y-55554800I-613100J0D01*
G01*
D14*
X184986200Y-65181000D02*
X182533800Y-65181000D01*
X182533800Y-62728600D01*
X184986200Y-62728600D01*
X184986200Y-65181000D01*
G36*
X184986200Y-65181000D02*
G01*
X182533800Y-65181000D01*
X182533800Y-62728600D01*
X184986200Y-62728600D01*
X184986200Y-65181000D01*
G37*
D15*
X188573100Y-77783000D02*
G75*
G03*
X188573100Y-77783000I-613100J0D01*
G01*
X188573100Y-81983000D02*
G75*
G03*
X188573100Y-81983000I-613100J0D01*
G01*
X188573100Y-86183000D02*
G75*
G03*
X188573100Y-86183000I-613100J0D01*
G01*
X184373100Y-73583000D02*
G75*
G03*
X184373100Y-73583000I-613100J0D01*
G01*
X188573100Y-73583000D02*
G75*
G03*
X188573100Y-73583000I-613100J0D01*
G01*
X184373100Y-81983000D02*
G75*
G03*
X184373100Y-81983000I-613100J0D01*
G01*
X184373100Y-77783000D02*
G75*
G03*
X184373100Y-77783000I-613100J0D01*
G01*
D14*
X184986200Y-87409200D02*
X182533800Y-87409200D01*
X182533800Y-84956800D01*
X184986200Y-84956800D01*
X184986200Y-87409200D01*
G36*
X184986200Y-87409200D02*
G01*
X182533800Y-87409200D01*
X182533800Y-84956800D01*
X184986200Y-84956800D01*
X184986200Y-87409200D01*
G37*
D16*
X107899799Y-117732000D03*
D17*
X107899799Y-120272000D03*
X107899799Y-122812000D03*
D18*
X109904379Y-108344000D03*
D19*
X107404379Y-108344000D03*
D20*
X124637000Y-108344000D03*
X117017000Y-108344000D03*
D21*
X151227000Y-108344000D03*
X143607000Y-108344000D03*
D22*
X102376000Y-42436000D03*
D23*
X143861000Y-59690000D03*
X151481000Y-59690000D03*
D21*
X124891000Y-59690000D03*
X117271000Y-59690000D03*
D24*
X107391799Y-56742000D03*
D25*
X107391799Y-51742000D03*
D24*
X171664000Y-150949001D03*
D25*
X166664000Y-150949001D03*
D26*
X151892000Y-148661000D03*
D27*
X146812000Y-148661000D03*
X141732000Y-148661000D03*
X136652000Y-148661000D03*
D21*
X188086000Y-149262000D03*
X188086000Y-93662000D03*
D22*
X102372000Y-155829000D03*
D28*
X160498500Y-102362000D03*
D29*
X170498500Y-102362000D03*
D22*
X188976000Y-155811000D03*
D30*
X122361800Y-89344800D03*
D31*
X137601800Y-93154800D03*
X145221800Y-93154800D03*
X135061800Y-75374800D03*
D30*
X122361800Y-79184800D03*
D24*
X145378000Y-47945999D03*
D25*
X150378000Y-47945999D03*
X155378000Y-47945999D03*
D24*
X107391799Y-69848400D03*
D25*
X107391799Y-64848400D03*
D24*
X107391799Y-95604000D03*
D25*
X107391799Y-90604000D03*
D28*
X160498500Y-128778000D03*
D29*
X170498500Y-128778000D03*
D24*
X107391799Y-82904000D03*
D25*
X107391799Y-77904000D03*
D24*
X107391799Y-133223000D03*
D25*
X107391799Y-128223000D03*
D32*
X127174000Y-67704000D03*
X135074000Y-67704000D03*
D22*
X188976000Y-42418000D03*
D24*
X128444000Y-150949001D03*
D25*
X123444000Y-150949001D03*
X118444000Y-150949001D03*
D28*
X160498500Y-75946000D03*
D29*
X170498500Y-75946000D03*
D33*
X116906000Y-97757500D03*
X117856000Y-97757500D03*
X118806000Y-97757500D03*
X118806000Y-100457500D03*
X116906000Y-100457500D03*
D34*
X112776000Y-98911500D03*
X112776000Y-100986500D03*
D35*
X118120000Y-81006000D03*
X118120000Y-86406000D03*
D36*
X125072000Y-74722000D03*
X130472000Y-74722000D03*
D34*
X134366000Y-115180500D03*
X134366000Y-117255500D03*
D37*
X125740000Y-95896000D03*
X125740000Y-101996000D03*
X147584000Y-112152000D03*
X147584000Y-118252000D03*
D33*
X137744000Y-113852000D03*
X138694000Y-113852000D03*
X139644000Y-113852000D03*
X139644000Y-116552000D03*
X137744000Y-116552000D03*
M02*
