G04 #@! TF.GenerationSoftware,KiCad,Pcbnew,7.0.1*
G04 #@! TF.CreationDate,2023-04-08T17:38:13-04:00*
G04 #@! TF.ProjectId,Input,496e7075-742e-46b6-9963-61645f706362,rev?*
G04 #@! TF.SameCoordinates,Original*
G04 #@! TF.FileFunction,Copper,L1,Top*
G04 #@! TF.FilePolarity,Positive*
%FSLAX46Y46*%
G04 Gerber Fmt 4.6, Leading zero omitted, Abs format (unit mm)*
G04 Created by KiCad (PCBNEW 7.0.1) date 2023-04-08 17:38:13*
%MOMM*%
%LPD*%
G01*
G04 APERTURE LIST*
G04 Aperture macros list*
%AMRoundRect*
0 Rectangle with rounded corners*
0 $1 Rounding radius*
0 $2 $3 $4 $5 $6 $7 $8 $9 X,Y pos of 4 corners*
0 Add a 4 corners polygon primitive as box body*
4,1,4,$2,$3,$4,$5,$6,$7,$8,$9,$2,$3,0*
0 Add four circle primitives for the rounded corners*
1,1,$1+$1,$2,$3*
1,1,$1+$1,$4,$5*
1,1,$1+$1,$6,$7*
1,1,$1+$1,$8,$9*
0 Add four rect primitives between the rounded corners*
20,1,$1+$1,$2,$3,$4,$5,0*
20,1,$1+$1,$4,$5,$6,$7,0*
20,1,$1+$1,$6,$7,$8,$9,0*
20,1,$1+$1,$8,$9,$2,$3,0*%
G04 Aperture macros list end*
G04 #@! TA.AperFunction,SMDPad,CuDef*
%ADD10RoundRect,0.250001X-0.462499X-0.624999X0.462499X-0.624999X0.462499X0.624999X-0.462499X0.624999X0*%
G04 #@! TD*
G04 #@! TA.AperFunction,ComponentPad*
%ADD11R,2.030000X1.730000*%
G04 #@! TD*
G04 #@! TA.AperFunction,ComponentPad*
%ADD12O,2.030000X1.730000*%
G04 #@! TD*
G04 #@! TA.AperFunction,SMDPad,CuDef*
%ADD13RoundRect,0.250000X0.450000X-0.350000X0.450000X0.350000X-0.450000X0.350000X-0.450000X-0.350000X0*%
G04 #@! TD*
G04 #@! TA.AperFunction,ComponentPad*
%ADD14R,1.600000X1.600000*%
G04 #@! TD*
G04 #@! TA.AperFunction,ComponentPad*
%ADD15C,1.600000*%
G04 #@! TD*
G04 #@! TA.AperFunction,ComponentPad*
%ADD16RoundRect,0.750000X-0.750000X-0.750000X0.750000X-0.750000X0.750000X0.750000X-0.750000X0.750000X0*%
G04 #@! TD*
G04 #@! TA.AperFunction,ComponentPad*
%ADD17C,3.000000*%
G04 #@! TD*
G04 #@! TA.AperFunction,ComponentPad*
%ADD18C,6.400000*%
G04 #@! TD*
G04 #@! TA.AperFunction,ComponentPad*
%ADD19RoundRect,0.750000X0.750000X0.750000X-0.750000X0.750000X-0.750000X-0.750000X0.750000X-0.750000X0*%
G04 #@! TD*
G04 #@! TA.AperFunction,SMDPad,CuDef*
%ADD20RoundRect,0.250000X-0.450000X0.350000X-0.450000X-0.350000X0.450000X-0.350000X0.450000X0.350000X0*%
G04 #@! TD*
G04 #@! TA.AperFunction,ComponentPad*
%ADD21R,1.803400X1.803400*%
G04 #@! TD*
G04 #@! TA.AperFunction,ComponentPad*
%ADD22C,1.803400*%
G04 #@! TD*
G04 #@! TA.AperFunction,SMDPad,CuDef*
%ADD23RoundRect,0.250001X0.624999X-0.462499X0.624999X0.462499X-0.624999X0.462499X-0.624999X-0.462499X0*%
G04 #@! TD*
G04 #@! TA.AperFunction,ComponentPad*
%ADD24R,2.400000X2.400000*%
G04 #@! TD*
G04 #@! TA.AperFunction,ComponentPad*
%ADD25C,2.400000*%
G04 #@! TD*
G04 #@! TA.AperFunction,ComponentPad*
%ADD26R,1.900000X1.900000*%
G04 #@! TD*
G04 #@! TA.AperFunction,ComponentPad*
%ADD27C,1.900000*%
G04 #@! TD*
G04 #@! TA.AperFunction,ComponentPad*
%ADD28R,2.300000X2.300000*%
G04 #@! TD*
G04 #@! TA.AperFunction,ComponentPad*
%ADD29C,2.300000*%
G04 #@! TD*
G04 #@! TA.AperFunction,ComponentPad*
%ADD30R,2.616200X2.616200*%
G04 #@! TD*
G04 #@! TA.AperFunction,ComponentPad*
%ADD31C,2.616200*%
G04 #@! TD*
G04 #@! TA.AperFunction,ComponentPad*
%ADD32C,1.676400*%
G04 #@! TD*
G04 #@! TA.AperFunction,ComponentPad*
%ADD33C,2.641600*%
G04 #@! TD*
G04 #@! TA.AperFunction,SMDPad,CuDef*
%ADD34RoundRect,0.250000X-0.350000X-0.450000X0.350000X-0.450000X0.350000X0.450000X-0.350000X0.450000X0*%
G04 #@! TD*
G04 #@! TA.AperFunction,ComponentPad*
%ADD35C,1.500000*%
G04 #@! TD*
G04 #@! TA.AperFunction,ViaPad*
%ADD36C,0.800000*%
G04 #@! TD*
G04 #@! TA.AperFunction,Conductor*
%ADD37C,0.250000*%
G04 #@! TD*
G04 #@! TA.AperFunction,Conductor*
%ADD38C,3.000000*%
G04 #@! TD*
G04 #@! TA.AperFunction,Conductor*
%ADD39C,2.000000*%
G04 #@! TD*
G04 APERTURE END LIST*
D10*
X108250500Y-141618000D03*
X111225500Y-141618000D03*
D11*
X107899799Y-117732000D03*
D12*
X107899799Y-120272000D03*
X107899799Y-122812000D03*
D13*
X127508000Y-142859000D03*
X127508000Y-140859000D03*
D14*
X109904379Y-108344000D03*
D15*
X107404379Y-108344000D03*
D16*
X124637000Y-108344000D03*
X117017000Y-108344000D03*
D17*
X151227000Y-108344000D03*
X143607000Y-108344000D03*
D18*
X102376000Y-42436000D03*
D19*
X143861000Y-59690000D03*
X151481000Y-59690000D03*
D17*
X124891000Y-59690000D03*
X117271000Y-59690000D03*
D20*
X121412000Y-133747000D03*
X121412000Y-135747000D03*
D21*
X107391799Y-56742000D03*
D22*
X107391799Y-51742000D03*
D21*
X171664000Y-150949001D03*
D22*
X166664000Y-150949001D03*
D23*
X127508000Y-136742500D03*
X127508000Y-133767500D03*
D24*
X151892000Y-148661000D03*
D25*
X146812000Y-148661000D03*
X141732000Y-148661000D03*
X136652000Y-148661000D03*
D26*
X183046000Y-144562000D03*
D27*
X183046000Y-140362000D03*
X183046000Y-136162000D03*
X183046000Y-131962000D03*
X183046000Y-127762000D03*
X183046000Y-123562000D03*
X183046000Y-119362000D03*
X183046000Y-115162000D03*
X183046000Y-110962000D03*
X183046000Y-106762000D03*
X183046000Y-102562000D03*
X183046000Y-98362000D03*
X188546000Y-144562000D03*
X188546000Y-140362000D03*
X188546000Y-136162000D03*
X188546000Y-131962000D03*
X188546000Y-127762000D03*
X188546000Y-123562000D03*
X188546000Y-119362000D03*
X188546000Y-115162000D03*
X188546000Y-110962000D03*
X188546000Y-106762000D03*
X188546000Y-102562000D03*
X188546000Y-98362000D03*
D28*
X183760000Y-63954800D03*
D29*
X183760000Y-59754800D03*
X183760000Y-55554800D03*
X183760000Y-51354800D03*
X187960000Y-63954800D03*
X187960000Y-59754800D03*
X187960000Y-55554800D03*
X187960000Y-51354800D03*
D28*
X183760000Y-86183000D03*
D29*
X183760000Y-81983000D03*
X183760000Y-77783000D03*
X183760000Y-73583000D03*
X187960000Y-86183000D03*
X187960000Y-81983000D03*
X187960000Y-77783000D03*
X187960000Y-73583000D03*
D18*
X102372000Y-155829000D03*
D30*
X160498500Y-102362000D03*
D31*
X170498500Y-102362000D03*
D18*
X188976000Y-155811000D03*
D32*
X122361800Y-89344800D03*
D33*
X137601800Y-93154800D03*
X145221800Y-93154800D03*
X135061800Y-75374800D03*
D32*
X122361800Y-79184800D03*
D21*
X145378000Y-47945999D03*
D22*
X150378000Y-47945999D03*
X155378000Y-47945999D03*
D21*
X107391799Y-69848400D03*
D22*
X107391799Y-64848400D03*
D21*
X107391799Y-95604000D03*
D22*
X107391799Y-90604000D03*
D30*
X160498500Y-128778000D03*
D31*
X170498500Y-128778000D03*
D21*
X107391799Y-82904000D03*
D22*
X107391799Y-77904000D03*
D34*
X164100000Y-62357000D03*
X166100000Y-62357000D03*
D21*
X107391799Y-133223000D03*
D22*
X107391799Y-128223000D03*
D35*
X127174000Y-67704000D03*
X135074000Y-67704000D03*
D20*
X121412000Y-140859000D03*
X121412000Y-142859000D03*
D18*
X188976000Y-42418000D03*
D34*
X103404000Y-141618000D03*
X105404000Y-141618000D03*
D21*
X128444000Y-150949001D03*
D22*
X123444000Y-150949001D03*
X118444000Y-150949001D03*
D30*
X160498500Y-75946000D03*
D31*
X170498500Y-75946000D03*
D36*
X114935000Y-99060000D03*
X136017000Y-115189000D03*
X136017000Y-116459000D03*
X114935000Y-100457000D03*
X100810500Y-114948000D03*
X103388000Y-114223500D03*
X136017000Y-113919000D03*
D37*
X111225500Y-132056701D02*
X107391799Y-128223000D01*
X111225500Y-141618000D02*
X111225500Y-132056701D01*
D38*
X160498500Y-75946000D02*
X160498500Y-64418500D01*
D39*
X123685000Y-120282000D02*
X129045000Y-120282000D01*
D37*
X129540000Y-120777000D02*
X129045000Y-120282000D01*
D39*
X107909799Y-120282000D02*
X123685000Y-120282000D01*
D38*
X160498500Y-64418500D02*
X162560000Y-62357000D01*
D39*
X144282000Y-120282000D02*
X157460500Y-120282000D01*
D37*
X127508000Y-122809000D02*
X129540000Y-120777000D01*
D39*
X138440000Y-120282000D02*
X144282000Y-120282000D01*
D38*
X162560000Y-62357000D02*
X163800000Y-62357000D01*
D39*
X160498500Y-123320000D02*
X160498500Y-128778000D01*
X107899799Y-120272000D02*
X107909799Y-120282000D01*
X157460500Y-120282000D02*
X160498500Y-123320000D01*
D37*
X121412000Y-122555000D02*
X123685000Y-120282000D01*
X127508000Y-133767500D02*
X127508000Y-122809000D01*
X121412000Y-133747000D02*
X121412000Y-122555000D01*
D39*
X129045000Y-120282000D02*
X138440000Y-120282000D01*
D37*
X136017000Y-116459000D02*
X136017000Y-116332000D01*
X114935000Y-101473000D02*
X114935000Y-100457000D01*
X100848000Y-114910500D02*
X100848000Y-108344000D01*
X136017000Y-116332000D02*
X134633000Y-114948000D01*
X134633000Y-114948000D02*
X100810500Y-114948000D01*
X106182000Y-103010000D02*
X113398000Y-103010000D01*
X113398000Y-103010000D02*
X114935000Y-101473000D01*
X100810500Y-114948000D02*
X100848000Y-114910500D01*
X100848000Y-108344000D02*
X106182000Y-103010000D01*
X105404000Y-141618000D02*
X108250500Y-141618000D01*
X127508000Y-140859000D02*
X127508000Y-136742500D01*
X103692500Y-113919000D02*
X103388000Y-114223500D01*
X136017000Y-113919000D02*
X103692500Y-113919000D01*
X118444000Y-150949001D02*
X118444000Y-141144000D01*
X121412000Y-138176000D02*
X121412000Y-135747000D01*
X118444000Y-141144000D02*
X121412000Y-138176000D01*
X121412000Y-138176000D02*
X121412000Y-140859000D01*
G04 #@! TA.AperFunction,Conductor*
G36*
X187593953Y-38759614D02*
G01*
X187640417Y-38810676D01*
X187652998Y-38878558D01*
X187627920Y-38942879D01*
X187572711Y-38984331D01*
X187465551Y-39025465D01*
X187119205Y-39201938D01*
X186793206Y-39413643D01*
X186491118Y-39658270D01*
X186216270Y-39933118D01*
X185971643Y-40235206D01*
X185759938Y-40561205D01*
X185583467Y-40907548D01*
X185444167Y-41270436D01*
X185343562Y-41645900D01*
X185282753Y-42029829D01*
X185262410Y-42418000D01*
X185282753Y-42806170D01*
X185343562Y-43190099D01*
X185444167Y-43565563D01*
X185583467Y-43928451D01*
X185759938Y-44274795D01*
X185971643Y-44600793D01*
X186216270Y-44902881D01*
X186491118Y-45177729D01*
X186491123Y-45177733D01*
X186491124Y-45177734D01*
X186793207Y-45422357D01*
X187119205Y-45634062D01*
X187465547Y-45810532D01*
X187828438Y-45949833D01*
X188203901Y-46050438D01*
X188587824Y-46111246D01*
X188911303Y-46128198D01*
X188975999Y-46131589D01*
X188975999Y-46131588D01*
X188976000Y-46131589D01*
X189364176Y-46111246D01*
X189748099Y-46050438D01*
X190123562Y-45949833D01*
X190486453Y-45810532D01*
X190832795Y-45634062D01*
X191158793Y-45422357D01*
X191460876Y-45177734D01*
X191735734Y-44902876D01*
X191980357Y-44600793D01*
X192192062Y-44274795D01*
X192368532Y-43928453D01*
X192507833Y-43565562D01*
X192608438Y-43190099D01*
X192669246Y-42806176D01*
X192689589Y-42418000D01*
X192669246Y-42029824D01*
X192608438Y-41645901D01*
X192507833Y-41270438D01*
X192368532Y-40907547D01*
X192192062Y-40561206D01*
X191980357Y-40235207D01*
X191735734Y-39933124D01*
X191735733Y-39933123D01*
X191735729Y-39933118D01*
X191460881Y-39658270D01*
X191158793Y-39413643D01*
X190832795Y-39201938D01*
X190486448Y-39025465D01*
X190379289Y-38984331D01*
X190324080Y-38942879D01*
X190299002Y-38878558D01*
X190311583Y-38810676D01*
X190358047Y-38759614D01*
X190424443Y-38740700D01*
X192641434Y-38740700D01*
X192682536Y-38747592D01*
X192719141Y-38767516D01*
X192808336Y-38837397D01*
X192814588Y-38842630D01*
X192929567Y-38945381D01*
X192934703Y-38950237D01*
X193045461Y-39060995D01*
X193050317Y-39066131D01*
X193153067Y-39181109D01*
X193158301Y-39187361D01*
X193255042Y-39310841D01*
X193258617Y-39315635D01*
X193347655Y-39441120D01*
X193352723Y-39448848D01*
X193434189Y-39583607D01*
X193436634Y-39587836D01*
X193456502Y-39623783D01*
X193510763Y-39721959D01*
X193515384Y-39731195D01*
X193580500Y-39875875D01*
X193582009Y-39879369D01*
X193640179Y-40019800D01*
X193644066Y-40030533D01*
X193692004Y-40184368D01*
X193692784Y-40186971D01*
X193734184Y-40330668D01*
X193737045Y-40342837D01*
X193767196Y-40507352D01*
X193767480Y-40508959D01*
X193791507Y-40650363D01*
X193793057Y-40663860D01*
X193805037Y-40861854D01*
X193805069Y-40862398D01*
X193811345Y-40974127D01*
X193811543Y-40981204D01*
X193801544Y-157476466D01*
X193801346Y-157483521D01*
X193795067Y-157595310D01*
X193795035Y-157595852D01*
X193783062Y-157793784D01*
X193781512Y-157807282D01*
X193757463Y-157948826D01*
X193757179Y-157950431D01*
X193727057Y-158114811D01*
X193724197Y-158126981D01*
X193682786Y-158270721D01*
X193682005Y-158273325D01*
X193634078Y-158427129D01*
X193630192Y-158437861D01*
X193572029Y-158578281D01*
X193570520Y-158581775D01*
X193505390Y-158726490D01*
X193500768Y-158735727D01*
X193426650Y-158869834D01*
X193424201Y-158874069D01*
X193342751Y-159008808D01*
X193337683Y-159016538D01*
X193248611Y-159142073D01*
X193245036Y-159146866D01*
X193148332Y-159270301D01*
X193143098Y-159276554D01*
X193040331Y-159391552D01*
X193035475Y-159396688D01*
X192924717Y-159507448D01*
X192919581Y-159512303D01*
X192804599Y-159615059D01*
X192798347Y-159620293D01*
X192674886Y-159717021D01*
X192670091Y-159720597D01*
X192544579Y-159809654D01*
X192536852Y-159814722D01*
X192402108Y-159896180D01*
X192397871Y-159898630D01*
X192263756Y-159972754D01*
X192254520Y-159977375D01*
X192109827Y-160042498D01*
X192106333Y-160044007D01*
X191965898Y-160102179D01*
X191955167Y-160106065D01*
X191840283Y-160141866D01*
X191823829Y-160146994D01*
X191786343Y-160152700D01*
X100003505Y-160152700D01*
X99966018Y-160146994D01*
X99834539Y-160106021D01*
X99823807Y-160102135D01*
X99683389Y-160043970D01*
X99679895Y-160042461D01*
X99535200Y-159977337D01*
X99525964Y-159972716D01*
X99448045Y-159929651D01*
X99391831Y-159898581D01*
X99387612Y-159896142D01*
X99252868Y-159814684D01*
X99245140Y-159809616D01*
X99178963Y-159762660D01*
X99119633Y-159720562D01*
X99114842Y-159716988D01*
X98991367Y-159620249D01*
X98985115Y-159615015D01*
X98870164Y-159512287D01*
X98865028Y-159507432D01*
X98852020Y-159494424D01*
X98760704Y-159403106D01*
X98733392Y-159362231D01*
X98723801Y-159314013D01*
X98723801Y-157353254D01*
X98742714Y-157286858D01*
X98793777Y-157240394D01*
X98861658Y-157227813D01*
X98925980Y-157252891D01*
X98967432Y-157308099D01*
X98979467Y-157339451D01*
X99155938Y-157685795D01*
X99367643Y-158011793D01*
X99612270Y-158313881D01*
X99887118Y-158588729D01*
X99887123Y-158588733D01*
X99887124Y-158588734D01*
X100189207Y-158833357D01*
X100515205Y-159045062D01*
X100861547Y-159221532D01*
X101224438Y-159360833D01*
X101599901Y-159461438D01*
X101983824Y-159522246D01*
X102372000Y-159542589D01*
X102760176Y-159522246D01*
X103144099Y-159461438D01*
X103519562Y-159360833D01*
X103882453Y-159221532D01*
X104228795Y-159045062D01*
X104554793Y-158833357D01*
X104856876Y-158588734D01*
X105131734Y-158313876D01*
X105376357Y-158011793D01*
X105588062Y-157685795D01*
X105764532Y-157339453D01*
X105903833Y-156976562D01*
X106004438Y-156601099D01*
X106065246Y-156217176D01*
X106085589Y-155829000D01*
X106084646Y-155810999D01*
X185262410Y-155810999D01*
X185282753Y-156199170D01*
X185343562Y-156583099D01*
X185444167Y-156958563D01*
X185583467Y-157321451D01*
X185759938Y-157667795D01*
X185971643Y-157993793D01*
X186216270Y-158295881D01*
X186491118Y-158570729D01*
X186491123Y-158570733D01*
X186491124Y-158570734D01*
X186793207Y-158815357D01*
X187119205Y-159027062D01*
X187465547Y-159203532D01*
X187828438Y-159342833D01*
X188203901Y-159443438D01*
X188587824Y-159504246D01*
X188976000Y-159524589D01*
X189364176Y-159504246D01*
X189748099Y-159443438D01*
X190123562Y-159342833D01*
X190486453Y-159203532D01*
X190832795Y-159027062D01*
X191158793Y-158815357D01*
X191460876Y-158570734D01*
X191735734Y-158295876D01*
X191980357Y-157993793D01*
X192192062Y-157667795D01*
X192368532Y-157321453D01*
X192507833Y-156958562D01*
X192608438Y-156583099D01*
X192669246Y-156199176D01*
X192689589Y-155811000D01*
X192669246Y-155422824D01*
X192608438Y-155038901D01*
X192507833Y-154663438D01*
X192368532Y-154300547D01*
X192192062Y-153954206D01*
X191980357Y-153628207D01*
X191735734Y-153326124D01*
X191735733Y-153326123D01*
X191735729Y-153326118D01*
X191460881Y-153051270D01*
X191158793Y-152806643D01*
X190832795Y-152594938D01*
X190486451Y-152418467D01*
X190123563Y-152279167D01*
X189748099Y-152178562D01*
X189364170Y-152117753D01*
X188976000Y-152097410D01*
X188587829Y-152117753D01*
X188203900Y-152178562D01*
X187828436Y-152279167D01*
X187465548Y-152418467D01*
X187119205Y-152594938D01*
X186793206Y-152806643D01*
X186491118Y-153051270D01*
X186216270Y-153326118D01*
X185971643Y-153628206D01*
X185759938Y-153954205D01*
X185583467Y-154300548D01*
X185444167Y-154663436D01*
X185343562Y-155038900D01*
X185282753Y-155422829D01*
X185262410Y-155810999D01*
X106084646Y-155810999D01*
X106065246Y-155440824D01*
X106004438Y-155056901D01*
X105903833Y-154681438D01*
X105764532Y-154318547D01*
X105588062Y-153972206D01*
X105376357Y-153646207D01*
X105131734Y-153344124D01*
X105131733Y-153344123D01*
X105131729Y-153344118D01*
X104856881Y-153069270D01*
X104554793Y-152824643D01*
X104228795Y-152612938D01*
X103882451Y-152436467D01*
X103519563Y-152297167D01*
X103144099Y-152196562D01*
X102760170Y-152135753D01*
X102372000Y-152115410D01*
X101983829Y-152135753D01*
X101599900Y-152196562D01*
X101224436Y-152297167D01*
X100861548Y-152436467D01*
X100515205Y-152612938D01*
X100189206Y-152824643D01*
X99887118Y-153069270D01*
X99612270Y-153344118D01*
X99367643Y-153646206D01*
X99155938Y-153972205D01*
X98979467Y-154318548D01*
X98967432Y-154349901D01*
X98925980Y-154405109D01*
X98861658Y-154430187D01*
X98793777Y-154417606D01*
X98742714Y-154371142D01*
X98723801Y-154304746D01*
X98723801Y-142118540D01*
X104295500Y-142118540D01*
X104306112Y-142222425D01*
X104306113Y-142222426D01*
X104361885Y-142390738D01*
X104454970Y-142541652D01*
X104454972Y-142541655D01*
X104580344Y-142667027D01*
X104580346Y-142667028D01*
X104580348Y-142667030D01*
X104731262Y-142760115D01*
X104899574Y-142815887D01*
X105003455Y-142826500D01*
X105804544Y-142826499D01*
X105908426Y-142815887D01*
X106076738Y-142760115D01*
X106227652Y-142667030D01*
X106353030Y-142541652D01*
X106446115Y-142390738D01*
X106454746Y-142364692D01*
X106463635Y-142337867D01*
X106489931Y-142292827D01*
X106532214Y-142262294D01*
X106583239Y-142251500D01*
X106911421Y-142251500D01*
X106970682Y-142266306D01*
X107016016Y-142307244D01*
X107036768Y-142364692D01*
X107040112Y-142397422D01*
X107040113Y-142397425D01*
X107095885Y-142565738D01*
X107158363Y-142667030D01*
X107188972Y-142716654D01*
X107314345Y-142842027D01*
X107314347Y-142842028D01*
X107314349Y-142842030D01*
X107465262Y-142935115D01*
X107633575Y-142990887D01*
X107737456Y-143001500D01*
X108763540Y-143001500D01*
X108763544Y-143001500D01*
X108867425Y-142990887D01*
X109035738Y-142935115D01*
X109186651Y-142842030D01*
X109312030Y-142716651D01*
X109405115Y-142565738D01*
X109460887Y-142397425D01*
X109471500Y-142293544D01*
X109471500Y-140942456D01*
X109460887Y-140838575D01*
X109405115Y-140670262D01*
X109312030Y-140519349D01*
X109312028Y-140519347D01*
X109312027Y-140519345D01*
X109186654Y-140393972D01*
X109186651Y-140393970D01*
X109035738Y-140300885D01*
X108891007Y-140252927D01*
X108867426Y-140245113D01*
X108846648Y-140242990D01*
X108763544Y-140234500D01*
X107737456Y-140234500D01*
X107668201Y-140241575D01*
X107633573Y-140245113D01*
X107465262Y-140300885D01*
X107314345Y-140393972D01*
X107188972Y-140519345D01*
X107095885Y-140670262D01*
X107040112Y-140838577D01*
X107036768Y-140871308D01*
X107016016Y-140928756D01*
X106970682Y-140969694D01*
X106911421Y-140984500D01*
X106583239Y-140984500D01*
X106532214Y-140973706D01*
X106489931Y-140943173D01*
X106463635Y-140898133D01*
X106446116Y-140845265D01*
X106446115Y-140845264D01*
X106446115Y-140845262D01*
X106353030Y-140694348D01*
X106353028Y-140694346D01*
X106353027Y-140694344D01*
X106227655Y-140568972D01*
X106160240Y-140527390D01*
X106076738Y-140475885D01*
X105908426Y-140420113D01*
X105804545Y-140409500D01*
X105804540Y-140409500D01*
X105003459Y-140409500D01*
X104899573Y-140420113D01*
X104731262Y-140475885D01*
X104580344Y-140568972D01*
X104454972Y-140694344D01*
X104429008Y-140736439D01*
X104361885Y-140845262D01*
X104306113Y-141013574D01*
X104296882Y-141103934D01*
X104295500Y-141117459D01*
X104295500Y-142118540D01*
X98723801Y-142118540D01*
X98723801Y-128223000D01*
X105976766Y-128223000D01*
X105996065Y-128455907D01*
X105996065Y-128455910D01*
X105996066Y-128455911D01*
X106053435Y-128682459D01*
X106147315Y-128896481D01*
X106275139Y-129092132D01*
X106433419Y-129264070D01*
X106433423Y-129264074D01*
X106580963Y-129378909D01*
X106617850Y-129407619D01*
X106823387Y-129518849D01*
X107044429Y-129594733D01*
X107159687Y-129613966D01*
X107274944Y-129633200D01*
X107274947Y-129633200D01*
X107508651Y-129633200D01*
X107508654Y-129633200D01*
X107681216Y-129604403D01*
X107739169Y-129594733D01*
X107760407Y-129587441D01*
X107829717Y-129583856D01*
X107890414Y-129617519D01*
X110555095Y-132282201D01*
X110582409Y-132323078D01*
X110592000Y-132371296D01*
X110592000Y-140159619D01*
X110581206Y-140210644D01*
X110550673Y-140252927D01*
X110505633Y-140279223D01*
X110440265Y-140300883D01*
X110289345Y-140393972D01*
X110163972Y-140519345D01*
X110070885Y-140670262D01*
X110015113Y-140838573D01*
X110012971Y-140859539D01*
X110004500Y-140942456D01*
X110004500Y-142293544D01*
X110015113Y-142397425D01*
X110070885Y-142565738D01*
X110133363Y-142667030D01*
X110163972Y-142716654D01*
X110289345Y-142842027D01*
X110289347Y-142842028D01*
X110289349Y-142842030D01*
X110440262Y-142935115D01*
X110608575Y-142990887D01*
X110712456Y-143001500D01*
X111738540Y-143001500D01*
X111738544Y-143001500D01*
X111842425Y-142990887D01*
X112010738Y-142935115D01*
X112161651Y-142842030D01*
X112287030Y-142716651D01*
X112380115Y-142565738D01*
X112435887Y-142397425D01*
X112446500Y-142293544D01*
X112446500Y-140942456D01*
X112435887Y-140838575D01*
X112380115Y-140670262D01*
X112287030Y-140519349D01*
X112287028Y-140519347D01*
X112287027Y-140519345D01*
X112161654Y-140393972D01*
X112109820Y-140362000D01*
X112010738Y-140300885D01*
X112010736Y-140300884D01*
X112010734Y-140300883D01*
X111945367Y-140279223D01*
X111900327Y-140252927D01*
X111869794Y-140210644D01*
X111859000Y-140159619D01*
X111859000Y-132140554D01*
X111861295Y-132119764D01*
X111859062Y-132048702D01*
X111859000Y-132044744D01*
X111859000Y-132016850D01*
X111859000Y-132016845D01*
X111858493Y-132012839D01*
X111857562Y-132001006D01*
X111856174Y-131956812D01*
X111850520Y-131937353D01*
X111846513Y-131918007D01*
X111843974Y-131897904D01*
X111827694Y-131856787D01*
X111823853Y-131845567D01*
X111811517Y-131803106D01*
X111801206Y-131785671D01*
X111792508Y-131767916D01*
X111785052Y-131749084D01*
X111759065Y-131713317D01*
X111752547Y-131703394D01*
X111730042Y-131665339D01*
X111715712Y-131651009D01*
X111702878Y-131635982D01*
X111690972Y-131619594D01*
X111690971Y-131619593D01*
X111656894Y-131591401D01*
X111648116Y-131583413D01*
X108784221Y-128719517D01*
X108751837Y-128663871D01*
X108751172Y-128599490D01*
X108787533Y-128455907D01*
X108806832Y-128223000D01*
X108787533Y-127990093D01*
X108730162Y-127763540D01*
X108636283Y-127549519D01*
X108552489Y-127421262D01*
X108508458Y-127353867D01*
X108350178Y-127181929D01*
X108350177Y-127181928D01*
X108350175Y-127181926D01*
X108239519Y-127095799D01*
X108165747Y-127038380D01*
X107960210Y-126927150D01*
X107819264Y-126878763D01*
X107739169Y-126851267D01*
X107739166Y-126851266D01*
X107739165Y-126851266D01*
X107508654Y-126812800D01*
X107508651Y-126812800D01*
X107274947Y-126812800D01*
X107274944Y-126812800D01*
X107044432Y-126851266D01*
X106823387Y-126927150D01*
X106617850Y-127038380D01*
X106433419Y-127181929D01*
X106275139Y-127353867D01*
X106147315Y-127549518D01*
X106053435Y-127763540D01*
X105996066Y-127990088D01*
X105996065Y-127990093D01*
X105976766Y-128223000D01*
X98723801Y-128223000D01*
X98723801Y-120213495D01*
X106372574Y-120213495D01*
X106382497Y-120447087D01*
X106431755Y-120675645D01*
X106491257Y-120823721D01*
X106494637Y-120833214D01*
X106495832Y-120837050D01*
X106497543Y-120840476D01*
X106501729Y-120849783D01*
X106518931Y-120892592D01*
X106540562Y-120927723D01*
X106545993Y-120937488D01*
X106604653Y-121054943D01*
X106747018Y-121252560D01*
X106831521Y-121337063D01*
X106833200Y-121338776D01*
X106906224Y-121414802D01*
X106906225Y-121414803D01*
X106964091Y-121458286D01*
X106970035Y-121463040D01*
X107025179Y-121509946D01*
X107058920Y-121530342D01*
X107069417Y-121537433D01*
X107100933Y-121561116D01*
X107100934Y-121561117D01*
X107165025Y-121594754D01*
X107171647Y-121598488D01*
X107233610Y-121635947D01*
X107270180Y-121650665D01*
X107281690Y-121655985D01*
X107316594Y-121674304D01*
X107385263Y-121697228D01*
X107392399Y-121699853D01*
X107459556Y-121726882D01*
X107498031Y-121735547D01*
X107510206Y-121738941D01*
X107547617Y-121751431D01*
X107619092Y-121763045D01*
X107626520Y-121764484D01*
X107697161Y-121780395D01*
X107736511Y-121782774D01*
X107749102Y-121784174D01*
X107788020Y-121790500D01*
X107860395Y-121790500D01*
X107868002Y-121790729D01*
X107940274Y-121795102D01*
X107979506Y-121791138D01*
X107992172Y-121790500D01*
X120976403Y-121790500D01*
X121033606Y-121804233D01*
X121078339Y-121842440D01*
X121100852Y-121896790D01*
X121096236Y-121955437D01*
X121065497Y-122005597D01*
X121023332Y-122047761D01*
X121007016Y-122060832D01*
X120958370Y-122112635D01*
X120955620Y-122115473D01*
X120935868Y-122135226D01*
X120935864Y-122135230D01*
X120935865Y-122135230D01*
X120933379Y-122138433D01*
X120925687Y-122147439D01*
X120895413Y-122179678D01*
X120885652Y-122197434D01*
X120874801Y-122213952D01*
X120862385Y-122229959D01*
X120844824Y-122270539D01*
X120839604Y-122281195D01*
X120818304Y-122319940D01*
X120813267Y-122339559D01*
X120806864Y-122358261D01*
X120798818Y-122376855D01*
X120791901Y-122420524D01*
X120789495Y-122432144D01*
X120778500Y-122474970D01*
X120778500Y-122495224D01*
X120776949Y-122514934D01*
X120773779Y-122534942D01*
X120777941Y-122578961D01*
X120778500Y-122590819D01*
X120778500Y-132567761D01*
X120767706Y-132618786D01*
X120737173Y-132661069D01*
X120692133Y-132687365D01*
X120639265Y-132704883D01*
X120488344Y-132797972D01*
X120362972Y-132923344D01*
X120362970Y-132923348D01*
X120269885Y-133074262D01*
X120232464Y-133187193D01*
X120214113Y-133242574D01*
X120203500Y-133346459D01*
X120203500Y-134147540D01*
X120203501Y-134147545D01*
X120214113Y-134251426D01*
X120269885Y-134419738D01*
X120362970Y-134570652D01*
X120362972Y-134570655D01*
X120450222Y-134657905D01*
X120482834Y-134714389D01*
X120482834Y-134779611D01*
X120450222Y-134836095D01*
X120362972Y-134923344D01*
X120329330Y-134977887D01*
X120269885Y-135074262D01*
X120214113Y-135242573D01*
X120214113Y-135242574D01*
X120203500Y-135346459D01*
X120203500Y-136147540D01*
X120203501Y-136147545D01*
X120214113Y-136251426D01*
X120269885Y-136419738D01*
X120362970Y-136570652D01*
X120362972Y-136570655D01*
X120488344Y-136696027D01*
X120488346Y-136696028D01*
X120488348Y-136696030D01*
X120639262Y-136789115D01*
X120639264Y-136789115D01*
X120639265Y-136789116D01*
X120692133Y-136806635D01*
X120737173Y-136832931D01*
X120767706Y-136875214D01*
X120778500Y-136926239D01*
X120778500Y-137861406D01*
X120768909Y-137909624D01*
X120741597Y-137950498D01*
X118481450Y-140210644D01*
X118055336Y-140636758D01*
X118039015Y-140649834D01*
X117990370Y-140701635D01*
X117987620Y-140704473D01*
X117967868Y-140724226D01*
X117967864Y-140724230D01*
X117967865Y-140724230D01*
X117965379Y-140727433D01*
X117957687Y-140736439D01*
X117927413Y-140768678D01*
X117917652Y-140786434D01*
X117906801Y-140802952D01*
X117894385Y-140818959D01*
X117876824Y-140859539D01*
X117871604Y-140870195D01*
X117850304Y-140908940D01*
X117845267Y-140928559D01*
X117838864Y-140947261D01*
X117830818Y-140965855D01*
X117823901Y-141009524D01*
X117821495Y-141021144D01*
X117810500Y-141063970D01*
X117810500Y-141084224D01*
X117808949Y-141103934D01*
X117805779Y-141123942D01*
X117809941Y-141167961D01*
X117810500Y-141179819D01*
X117810500Y-149613296D01*
X117792741Y-149677794D01*
X117744469Y-149724110D01*
X117670051Y-149764382D01*
X117485620Y-149907930D01*
X117327340Y-150079868D01*
X117199516Y-150275519D01*
X117105636Y-150489541D01*
X117048267Y-150716089D01*
X117048266Y-150716094D01*
X117028967Y-150949001D01*
X117048266Y-151181908D01*
X117048266Y-151181911D01*
X117048267Y-151181912D01*
X117105636Y-151408460D01*
X117199516Y-151622482D01*
X117327340Y-151818133D01*
X117485620Y-151990071D01*
X117485624Y-151990075D01*
X117622880Y-152096905D01*
X117670051Y-152133620D01*
X117875588Y-152244850D01*
X118096630Y-152320734D01*
X118211889Y-152339967D01*
X118327145Y-152359201D01*
X118327148Y-152359201D01*
X118560852Y-152359201D01*
X118560855Y-152359201D01*
X118659645Y-152342715D01*
X118791370Y-152320734D01*
X119012412Y-152244850D01*
X119217950Y-152133619D01*
X119402376Y-151990075D01*
X119560660Y-151818132D01*
X119688484Y-151622482D01*
X119782363Y-151408461D01*
X119839734Y-151181908D01*
X119859033Y-150949001D01*
X122028967Y-150949001D01*
X122048266Y-151181908D01*
X122048266Y-151181911D01*
X122048267Y-151181912D01*
X122105636Y-151408460D01*
X122199516Y-151622482D01*
X122327340Y-151818133D01*
X122485620Y-151990071D01*
X122485624Y-151990075D01*
X122622880Y-152096905D01*
X122670051Y-152133620D01*
X122875588Y-152244850D01*
X123096630Y-152320734D01*
X123211889Y-152339967D01*
X123327145Y-152359201D01*
X123327148Y-152359201D01*
X123560852Y-152359201D01*
X123560855Y-152359201D01*
X123659645Y-152342715D01*
X123791370Y-152320734D01*
X124012412Y-152244850D01*
X124217950Y-152133619D01*
X124402376Y-151990075D01*
X124485904Y-151899339D01*
X127033800Y-151899339D01*
X127040311Y-151959901D01*
X127091411Y-152096906D01*
X127179038Y-152213962D01*
X127296094Y-152301589D01*
X127296095Y-152301589D01*
X127296096Y-152301590D01*
X127433099Y-152352690D01*
X127493662Y-152359201D01*
X129394338Y-152359201D01*
X129454901Y-152352690D01*
X129591904Y-152301590D01*
X129708961Y-152213962D01*
X129796589Y-152096905D01*
X129847689Y-151959902D01*
X129854200Y-151899339D01*
X170253800Y-151899339D01*
X170260311Y-151959901D01*
X170311411Y-152096906D01*
X170399038Y-152213962D01*
X170516094Y-152301589D01*
X170516095Y-152301589D01*
X170516096Y-152301590D01*
X170653099Y-152352690D01*
X170713662Y-152359201D01*
X172614338Y-152359201D01*
X172674901Y-152352690D01*
X172811904Y-152301590D01*
X172928961Y-152213962D01*
X173016589Y-152096905D01*
X173067689Y-151959902D01*
X173074200Y-151899339D01*
X173074200Y-149998663D01*
X173067689Y-149938100D01*
X173016589Y-149801097D01*
X173016588Y-149801095D01*
X172928961Y-149684039D01*
X172811905Y-149596412D01*
X172743402Y-149570862D01*
X172674901Y-149545312D01*
X172614338Y-149538801D01*
X170713662Y-149538801D01*
X170653099Y-149545312D01*
X170516094Y-149596412D01*
X170399038Y-149684039D01*
X170311411Y-149801095D01*
X170260311Y-149938100D01*
X170253800Y-149998663D01*
X170253800Y-151899339D01*
X129854200Y-151899339D01*
X129854200Y-149998663D01*
X129847689Y-149938100D01*
X129796589Y-149801097D01*
X129796588Y-149801095D01*
X129708961Y-149684039D01*
X129591905Y-149596412D01*
X129523402Y-149570862D01*
X129454901Y-149545312D01*
X129394338Y-149538801D01*
X127493662Y-149538801D01*
X127433099Y-149545312D01*
X127296094Y-149596412D01*
X127179038Y-149684039D01*
X127091411Y-149801095D01*
X127040311Y-149938100D01*
X127033800Y-149998663D01*
X127033800Y-151899339D01*
X124485904Y-151899339D01*
X124560660Y-151818132D01*
X124688484Y-151622482D01*
X124782363Y-151408461D01*
X124839734Y-151181908D01*
X124859033Y-150949001D01*
X124839734Y-150716094D01*
X124782363Y-150489541D01*
X124688484Y-150275520D01*
X124560660Y-150079870D01*
X124560659Y-150079868D01*
X124402379Y-149907930D01*
X124402378Y-149907929D01*
X124402376Y-149907927D01*
X124291720Y-149821800D01*
X124217948Y-149764381D01*
X124012411Y-149653151D01*
X123847134Y-149596412D01*
X123791370Y-149577268D01*
X123791367Y-149577267D01*
X123791366Y-149577267D01*
X123560855Y-149538801D01*
X123560852Y-149538801D01*
X123327148Y-149538801D01*
X123327145Y-149538801D01*
X123096633Y-149577267D01*
X122875588Y-149653151D01*
X122670051Y-149764381D01*
X122485620Y-149907930D01*
X122327340Y-150079868D01*
X122199516Y-150275519D01*
X122105636Y-150489541D01*
X122048267Y-150716089D01*
X122048266Y-150716094D01*
X122028967Y-150949001D01*
X119859033Y-150949001D01*
X119839734Y-150716094D01*
X119782363Y-150489541D01*
X119688484Y-150275520D01*
X119560660Y-150079870D01*
X119560659Y-150079868D01*
X119402379Y-149907930D01*
X119402378Y-149907929D01*
X119402376Y-149907927D01*
X119217950Y-149764383D01*
X119143530Y-149724109D01*
X119095259Y-149677794D01*
X119077500Y-149613296D01*
X119077500Y-148660999D01*
X140018709Y-148660999D01*
X140037845Y-148916354D01*
X140094826Y-149166002D01*
X140188378Y-149404369D01*
X140316413Y-149626131D01*
X140476065Y-149826330D01*
X140476068Y-149826332D01*
X140476069Y-149826334D01*
X140564009Y-149907930D01*
X140663784Y-150000508D01*
X140820279Y-150107204D01*
X140875355Y-150144754D01*
X140994960Y-150202352D01*
X141106064Y-150255858D01*
X141160635Y-150272690D01*
X141350757Y-150331335D01*
X141603966Y-150369500D01*
X141860032Y-150369500D01*
X141860034Y-150369500D01*
X142113243Y-150331335D01*
X142357935Y-150255858D01*
X142588646Y-150144754D01*
X142800219Y-150000505D01*
X142898150Y-149909638D01*
X150183500Y-149909638D01*
X150190011Y-149970200D01*
X150241111Y-150107205D01*
X150328738Y-150224261D01*
X150445794Y-150311888D01*
X150445795Y-150311888D01*
X150445796Y-150311889D01*
X150582799Y-150362989D01*
X150643362Y-150369500D01*
X153140638Y-150369500D01*
X153201201Y-150362989D01*
X153338204Y-150311889D01*
X153455261Y-150224261D01*
X153542889Y-150107204D01*
X153593989Y-149970201D01*
X153600500Y-149909638D01*
X153600500Y-149393182D01*
X186335500Y-149393182D01*
X186374604Y-149652615D01*
X186374605Y-149652618D01*
X186451936Y-149903323D01*
X186565772Y-150139704D01*
X186713563Y-150356474D01*
X186713565Y-150356476D01*
X186713567Y-150356479D01*
X186892019Y-150548805D01*
X187097143Y-150712386D01*
X187324357Y-150843568D01*
X187568584Y-150939420D01*
X187824370Y-150997802D01*
X188020506Y-151012500D01*
X188151489Y-151012500D01*
X188151494Y-151012500D01*
X188347630Y-150997802D01*
X188603416Y-150939420D01*
X188847643Y-150843568D01*
X189074857Y-150712386D01*
X189279981Y-150548805D01*
X189458433Y-150356479D01*
X189606228Y-150139704D01*
X189720063Y-149903323D01*
X189797396Y-149652615D01*
X189836500Y-149393182D01*
X189836500Y-149130818D01*
X189797396Y-148871385D01*
X189720063Y-148620677D01*
X189606228Y-148384296D01*
X189458433Y-148167521D01*
X189279981Y-147975195D01*
X189074857Y-147811614D01*
X188847643Y-147680432D01*
X188603417Y-147584580D01*
X188347631Y-147526198D01*
X188314940Y-147523748D01*
X188151494Y-147511500D01*
X188020506Y-147511500D01*
X187880408Y-147521998D01*
X187824368Y-147526198D01*
X187568582Y-147584580D01*
X187324356Y-147680432D01*
X187097146Y-147811612D01*
X187097143Y-147811614D01*
X186892019Y-147975195D01*
X186753525Y-148124455D01*
X186713563Y-148167525D01*
X186565772Y-148384295D01*
X186451936Y-148620676D01*
X186374605Y-148871381D01*
X186374604Y-148871385D01*
X186335500Y-149130818D01*
X186335500Y-149393182D01*
X153600500Y-149393182D01*
X153600500Y-147412362D01*
X153593989Y-147351799D01*
X153542889Y-147214796D01*
X153542888Y-147214794D01*
X153455261Y-147097738D01*
X153338205Y-147010111D01*
X153269702Y-146984561D01*
X153201201Y-146959011D01*
X153140638Y-146952500D01*
X150643362Y-146952500D01*
X150582799Y-146959011D01*
X150445794Y-147010111D01*
X150328738Y-147097738D01*
X150241111Y-147214794D01*
X150190011Y-147351799D01*
X150183500Y-147412362D01*
X150183500Y-149909638D01*
X142898150Y-149909638D01*
X142987931Y-149826334D01*
X143147587Y-149626131D01*
X143275622Y-149404369D01*
X143369174Y-149166001D01*
X143426155Y-148916353D01*
X143445291Y-148661000D01*
X143426155Y-148405647D01*
X143369174Y-148155999D01*
X143275622Y-147917631D01*
X143147587Y-147695869D01*
X143107673Y-147645818D01*
X142987934Y-147495669D01*
X142898150Y-147412362D01*
X142800219Y-147321495D01*
X142588646Y-147177246D01*
X142588645Y-147177245D01*
X142588643Y-147177244D01*
X142357935Y-147066141D01*
X142176286Y-147010111D01*
X142113243Y-146990665D01*
X141860034Y-146952500D01*
X141603966Y-146952500D01*
X141350757Y-146990665D01*
X141350753Y-146990666D01*
X141350754Y-146990666D01*
X141106064Y-147066141D01*
X140875354Y-147177246D01*
X140663784Y-147321491D01*
X140476065Y-147495669D01*
X140316413Y-147695868D01*
X140188378Y-147917630D01*
X140094826Y-148155997D01*
X140037845Y-148405645D01*
X140018709Y-148660999D01*
X119077500Y-148660999D01*
X119077500Y-145560638D01*
X181587500Y-145560638D01*
X181594011Y-145621201D01*
X181619560Y-145689702D01*
X181645111Y-145758205D01*
X181732738Y-145875261D01*
X181849794Y-145962888D01*
X181849795Y-145962888D01*
X181849796Y-145962889D01*
X181986799Y-146013989D01*
X182047362Y-146020500D01*
X184044638Y-146020500D01*
X184105201Y-146013989D01*
X184242204Y-145962889D01*
X184359261Y-145875261D01*
X184446889Y-145758204D01*
X184497989Y-145621201D01*
X184504500Y-145560638D01*
X184504500Y-144562000D01*
X187082501Y-144562000D01*
X187102461Y-144802884D01*
X187102461Y-144802887D01*
X187102462Y-144802888D01*
X187161796Y-145037195D01*
X187258889Y-145258546D01*
X187258891Y-145258549D01*
X187391094Y-145460900D01*
X187391097Y-145460903D01*
X187538660Y-145621200D01*
X187554799Y-145638731D01*
X187707393Y-145757499D01*
X187745543Y-145787193D01*
X187908279Y-145875261D01*
X187958119Y-145902233D01*
X188186732Y-145980716D01*
X188425145Y-146020500D01*
X188666852Y-146020500D01*
X188666855Y-146020500D01*
X188905268Y-145980716D01*
X189133881Y-145902233D01*
X189346458Y-145787192D01*
X189537201Y-145638731D01*
X189700906Y-145460900D01*
X189833109Y-145258549D01*
X189930203Y-145037197D01*
X189989539Y-144802884D01*
X190009499Y-144562000D01*
X189989539Y-144321116D01*
X189930203Y-144086803D01*
X189833109Y-143865451D01*
X189700906Y-143663100D01*
X189537201Y-143485269D01*
X189383702Y-143365796D01*
X189346456Y-143336806D01*
X189133880Y-143221766D01*
X188957196Y-143161111D01*
X188905268Y-143143284D01*
X188666855Y-143103500D01*
X188425145Y-143103500D01*
X188186732Y-143143284D01*
X188186729Y-143143284D01*
X188186729Y-143143285D01*
X187958119Y-143221766D01*
X187745543Y-143336806D01*
X187554795Y-143485272D01*
X187391097Y-143663096D01*
X187258889Y-143865453D01*
X187161796Y-144086804D01*
X187102462Y-144321111D01*
X187102461Y-144321116D01*
X187082501Y-144562000D01*
X184504500Y-144562000D01*
X184504500Y-143563362D01*
X184497989Y-143502799D01*
X184446889Y-143365796D01*
X184425189Y-143336808D01*
X184359261Y-143248738D01*
X184242205Y-143161111D01*
X184173702Y-143135560D01*
X184105201Y-143110011D01*
X184044638Y-143103500D01*
X182047362Y-143103500D01*
X181986799Y-143110011D01*
X181849794Y-143161111D01*
X181732738Y-143248738D01*
X181645111Y-143365794D01*
X181600549Y-143485269D01*
X181594011Y-143502799D01*
X181587500Y-143563362D01*
X181587500Y-145560638D01*
X119077500Y-145560638D01*
X119077500Y-141458594D01*
X119087091Y-141410376D01*
X119114401Y-141369502D01*
X119988409Y-140495494D01*
X120038564Y-140464760D01*
X120097211Y-140460144D01*
X120151561Y-140482657D01*
X120189767Y-140527390D01*
X120203500Y-140584593D01*
X120203500Y-141259540D01*
X120214113Y-141363425D01*
X120214113Y-141363426D01*
X120269885Y-141531738D01*
X120362970Y-141682652D01*
X120362972Y-141682655D01*
X120488344Y-141808027D01*
X120488346Y-141808028D01*
X120488348Y-141808030D01*
X120639262Y-141901115D01*
X120807574Y-141956887D01*
X120911455Y-141967500D01*
X121912544Y-141967499D01*
X122016426Y-141956887D01*
X122184738Y-141901115D01*
X122335652Y-141808030D01*
X122461030Y-141682652D01*
X122554115Y-141531738D01*
X122609887Y-141363426D01*
X122620500Y-141259545D01*
X122620499Y-140458456D01*
X122609887Y-140354574D01*
X122554115Y-140186262D01*
X122461030Y-140035348D01*
X122461028Y-140035346D01*
X122461027Y-140035344D01*
X122335655Y-139909972D01*
X122298094Y-139886804D01*
X122184738Y-139816885D01*
X122184736Y-139816884D01*
X122184734Y-139816883D01*
X122131867Y-139799365D01*
X122086827Y-139773069D01*
X122056294Y-139730786D01*
X122045500Y-139679761D01*
X122045500Y-138235776D01*
X122047051Y-138216066D01*
X122050220Y-138196057D01*
X122046059Y-138152039D01*
X122045500Y-138140181D01*
X122045500Y-137255544D01*
X126124500Y-137255544D01*
X126135113Y-137359425D01*
X126190885Y-137527738D01*
X126283970Y-137678651D01*
X126283972Y-137678654D01*
X126409345Y-137804027D01*
X126409347Y-137804028D01*
X126409349Y-137804030D01*
X126560262Y-137897115D01*
X126728575Y-137952887D01*
X126735019Y-137953545D01*
X126761308Y-137956232D01*
X126818756Y-137976984D01*
X126859694Y-138022318D01*
X126874500Y-138081579D01*
X126874500Y-139679761D01*
X126863706Y-139730786D01*
X126833173Y-139773069D01*
X126788133Y-139799365D01*
X126735265Y-139816883D01*
X126584344Y-139909972D01*
X126458972Y-140035344D01*
X126458970Y-140035348D01*
X126365885Y-140186262D01*
X126310113Y-140354574D01*
X126304502Y-140409501D01*
X126299500Y-140458459D01*
X126299500Y-141259540D01*
X126310113Y-141363425D01*
X126310113Y-141363426D01*
X126365885Y-141531738D01*
X126458970Y-141682652D01*
X126458972Y-141682655D01*
X126584344Y-141808027D01*
X126584346Y-141808028D01*
X126584348Y-141808030D01*
X126735262Y-141901115D01*
X126903574Y-141956887D01*
X127007455Y-141967500D01*
X128008544Y-141967499D01*
X128112426Y-141956887D01*
X128280738Y-141901115D01*
X128431652Y-141808030D01*
X128557030Y-141682652D01*
X128650115Y-141531738D01*
X128705887Y-141363426D01*
X128716500Y-141259545D01*
X128716499Y-140458456D01*
X128706646Y-140362000D01*
X181582501Y-140362000D01*
X181602461Y-140602884D01*
X181602461Y-140602887D01*
X181602462Y-140602888D01*
X181661796Y-140837195D01*
X181758889Y-141058546D01*
X181758891Y-141058549D01*
X181891094Y-141260900D01*
X182054799Y-141438731D01*
X182174295Y-141531738D01*
X182245543Y-141587193D01*
X182421942Y-141682655D01*
X182458119Y-141702233D01*
X182686732Y-141780716D01*
X182925145Y-141820500D01*
X183166852Y-141820500D01*
X183166855Y-141820500D01*
X183405268Y-141780716D01*
X183633881Y-141702233D01*
X183846458Y-141587192D01*
X184037201Y-141438731D01*
X184200906Y-141260900D01*
X184333109Y-141058549D01*
X184430203Y-140837197D01*
X184489539Y-140602884D01*
X184509499Y-140362000D01*
X187082501Y-140362000D01*
X187102461Y-140602884D01*
X187102461Y-140602887D01*
X187102462Y-140602888D01*
X187161796Y-140837195D01*
X187258889Y-141058546D01*
X187258891Y-141058549D01*
X187391094Y-141260900D01*
X187554799Y-141438731D01*
X187674295Y-141531738D01*
X187745543Y-141587193D01*
X187921942Y-141682655D01*
X187958119Y-141702233D01*
X188186732Y-141780716D01*
X188425145Y-141820500D01*
X188666852Y-141820500D01*
X188666855Y-141820500D01*
X188905268Y-141780716D01*
X189133881Y-141702233D01*
X189346458Y-141587192D01*
X189537201Y-141438731D01*
X189700906Y-141260900D01*
X189833109Y-141058549D01*
X189930203Y-140837197D01*
X189989539Y-140602884D01*
X190009499Y-140362000D01*
X189989539Y-140121116D01*
X189930203Y-139886803D01*
X189833109Y-139665451D01*
X189700906Y-139463100D01*
X189537201Y-139285269D01*
X189422755Y-139196192D01*
X189346456Y-139136806D01*
X189133880Y-139021766D01*
X188979124Y-138968638D01*
X188905268Y-138943284D01*
X188666855Y-138903500D01*
X188425145Y-138903500D01*
X188186732Y-138943284D01*
X188186729Y-138943284D01*
X188186729Y-138943285D01*
X187958119Y-139021766D01*
X187745543Y-139136806D01*
X187554795Y-139285272D01*
X187391097Y-139463096D01*
X187258889Y-139665453D01*
X187161796Y-139886804D01*
X187124181Y-140035344D01*
X187102461Y-140121116D01*
X187082501Y-140362000D01*
X184509499Y-140362000D01*
X184489539Y-140121116D01*
X184430203Y-139886803D01*
X184333109Y-139665451D01*
X184200906Y-139463100D01*
X184037201Y-139285269D01*
X183922755Y-139196192D01*
X183846456Y-139136806D01*
X183633880Y-139021766D01*
X183479124Y-138968638D01*
X183405268Y-138943284D01*
X183166855Y-138903500D01*
X182925145Y-138903500D01*
X182686732Y-138943284D01*
X182686729Y-138943284D01*
X182686729Y-138943285D01*
X182458119Y-139021766D01*
X182245543Y-139136806D01*
X182054795Y-139285272D01*
X181891097Y-139463096D01*
X181758889Y-139665453D01*
X181661796Y-139886804D01*
X181624181Y-140035344D01*
X181602461Y-140121116D01*
X181582501Y-140362000D01*
X128706646Y-140362000D01*
X128705887Y-140354574D01*
X128650115Y-140186262D01*
X128557030Y-140035348D01*
X128557028Y-140035346D01*
X128557027Y-140035344D01*
X128431655Y-139909972D01*
X128394094Y-139886804D01*
X128280738Y-139816885D01*
X128280736Y-139816884D01*
X128280734Y-139816883D01*
X128227867Y-139799365D01*
X128182827Y-139773069D01*
X128152294Y-139730786D01*
X128141500Y-139679761D01*
X128141500Y-138081579D01*
X128156306Y-138022318D01*
X128197244Y-137976984D01*
X128254692Y-137956232D01*
X128278624Y-137953786D01*
X128287425Y-137952887D01*
X128455738Y-137897115D01*
X128606651Y-137804030D01*
X128732030Y-137678651D01*
X128825115Y-137527738D01*
X128880887Y-137359425D01*
X128891500Y-137255544D01*
X128891500Y-136229456D01*
X128880887Y-136125575D01*
X128825115Y-135957262D01*
X128732030Y-135806349D01*
X128732028Y-135806347D01*
X128732027Y-135806345D01*
X128606654Y-135680972D01*
X128606651Y-135680970D01*
X128455738Y-135587885D01*
X128371581Y-135559999D01*
X128287426Y-135532113D01*
X128266648Y-135529990D01*
X128183544Y-135521500D01*
X126832456Y-135521500D01*
X126763201Y-135528575D01*
X126728573Y-135532113D01*
X126560262Y-135587885D01*
X126409345Y-135680972D01*
X126283972Y-135806345D01*
X126190885Y-135957262D01*
X126135113Y-136125573D01*
X126132868Y-136147545D01*
X126124500Y-136229456D01*
X126124500Y-137255544D01*
X122045500Y-137255544D01*
X122045500Y-136926239D01*
X122056294Y-136875214D01*
X122086827Y-136832931D01*
X122131867Y-136806635D01*
X122166705Y-136795090D01*
X122184738Y-136789115D01*
X122335652Y-136696030D01*
X122461030Y-136570652D01*
X122554115Y-136419738D01*
X122609887Y-136251426D01*
X122620500Y-136147545D01*
X122620499Y-135346456D01*
X122609887Y-135242574D01*
X122554115Y-135074262D01*
X122461030Y-134923348D01*
X122373775Y-134836093D01*
X122341165Y-134779611D01*
X122341165Y-134714389D01*
X122373775Y-134657906D01*
X122461030Y-134570652D01*
X122554115Y-134419738D01*
X122609887Y-134251426D01*
X122620500Y-134147545D01*
X122620499Y-133346456D01*
X122609887Y-133242574D01*
X122554115Y-133074262D01*
X122461030Y-132923348D01*
X122461028Y-132923346D01*
X122461027Y-132923344D01*
X122335655Y-132797972D01*
X122186500Y-132705972D01*
X122184738Y-132704885D01*
X122184736Y-132704884D01*
X122184734Y-132704883D01*
X122131867Y-132687365D01*
X122086827Y-132661069D01*
X122056294Y-132618786D01*
X122045500Y-132567761D01*
X122045500Y-122869594D01*
X122055091Y-122821376D01*
X122082405Y-122780499D01*
X123035499Y-121827405D01*
X123076376Y-121800091D01*
X123124594Y-121790500D01*
X123563221Y-121790500D01*
X123745797Y-121790500D01*
X127326404Y-121790500D01*
X127383607Y-121804233D01*
X127428340Y-121842439D01*
X127450853Y-121896790D01*
X127446237Y-121955436D01*
X127415499Y-122005594D01*
X127330107Y-122090987D01*
X127119333Y-122301760D01*
X127103016Y-122314832D01*
X127054370Y-122366635D01*
X127051620Y-122369473D01*
X127031868Y-122389226D01*
X127031864Y-122389230D01*
X127031865Y-122389230D01*
X127029379Y-122392433D01*
X127021687Y-122401439D01*
X126991413Y-122433678D01*
X126981652Y-122451434D01*
X126970801Y-122467952D01*
X126958385Y-122483959D01*
X126940824Y-122524539D01*
X126935604Y-122535195D01*
X126914304Y-122573940D01*
X126909267Y-122593559D01*
X126902864Y-122612261D01*
X126894818Y-122630855D01*
X126887901Y-122674524D01*
X126885495Y-122686144D01*
X126874500Y-122728970D01*
X126874500Y-122749224D01*
X126872949Y-122768934D01*
X126869779Y-122788942D01*
X126873941Y-122832961D01*
X126874500Y-122844819D01*
X126874500Y-132428421D01*
X126859694Y-132487682D01*
X126818756Y-132533016D01*
X126761308Y-132553768D01*
X126728577Y-132557112D01*
X126560262Y-132612885D01*
X126409345Y-132705972D01*
X126283972Y-132831345D01*
X126190885Y-132982262D01*
X126135113Y-133150573D01*
X126135112Y-133150575D01*
X126135113Y-133150575D01*
X126124500Y-133254456D01*
X126124500Y-134280544D01*
X126135113Y-134384425D01*
X126190885Y-134552738D01*
X126279269Y-134696030D01*
X126283972Y-134703654D01*
X126409345Y-134829027D01*
X126409347Y-134829028D01*
X126409349Y-134829030D01*
X126560262Y-134922115D01*
X126728575Y-134977887D01*
X126832456Y-134988500D01*
X128183540Y-134988500D01*
X128183544Y-134988500D01*
X128287425Y-134977887D01*
X128455738Y-134922115D01*
X128606651Y-134829030D01*
X128732030Y-134703651D01*
X128825115Y-134552738D01*
X128880887Y-134384425D01*
X128891500Y-134280544D01*
X128891500Y-133254456D01*
X128880887Y-133150575D01*
X128825115Y-132982262D01*
X128732030Y-132831349D01*
X128732028Y-132831347D01*
X128732027Y-132831345D01*
X128606654Y-132705972D01*
X128604892Y-132704885D01*
X128455738Y-132612885D01*
X128287425Y-132557113D01*
X128287422Y-132557112D01*
X128254692Y-132553768D01*
X128197244Y-132533016D01*
X128156306Y-132487682D01*
X128141500Y-132428421D01*
X128141500Y-131962000D01*
X181582501Y-131962000D01*
X181602461Y-132202884D01*
X181602461Y-132202887D01*
X181602462Y-132202888D01*
X181661796Y-132437195D01*
X181758889Y-132658546D01*
X181758891Y-132658549D01*
X181891094Y-132860900D01*
X181891097Y-132860903D01*
X182002815Y-132982262D01*
X182054799Y-133038731D01*
X182198494Y-133150573D01*
X182245543Y-133187193D01*
X182369835Y-133254456D01*
X182458119Y-133302233D01*
X182686732Y-133380716D01*
X182925145Y-133420500D01*
X183166852Y-133420500D01*
X183166855Y-133420500D01*
X183405268Y-133380716D01*
X183633881Y-133302233D01*
X183846458Y-133187192D01*
X184037201Y-133038731D01*
X184200906Y-132860900D01*
X184333109Y-132658549D01*
X184430203Y-132437197D01*
X184489539Y-132202884D01*
X184509499Y-131962000D01*
X184489539Y-131721116D01*
X184430203Y-131486803D01*
X184333109Y-131265451D01*
X184200906Y-131063100D01*
X184037201Y-130885269D01*
X183922755Y-130796192D01*
X183846456Y-130736806D01*
X183633880Y-130621766D01*
X183479124Y-130568638D01*
X183405268Y-130543284D01*
X183166855Y-130503500D01*
X182925145Y-130503500D01*
X182686732Y-130543284D01*
X182686729Y-130543284D01*
X182686729Y-130543285D01*
X182458119Y-130621766D01*
X182245543Y-130736806D01*
X182054795Y-130885272D01*
X181891097Y-131063096D01*
X181758889Y-131265453D01*
X181661796Y-131486804D01*
X181602462Y-131721111D01*
X181602461Y-131721116D01*
X181582501Y-131962000D01*
X128141500Y-131962000D01*
X128141500Y-123123594D01*
X128151091Y-123075376D01*
X128178405Y-123034499D01*
X129385500Y-121827405D01*
X129426377Y-121800091D01*
X129474595Y-121790500D01*
X138318221Y-121790500D01*
X138500797Y-121790500D01*
X144160221Y-121790500D01*
X144342797Y-121790500D01*
X156783469Y-121790500D01*
X156831687Y-121800091D01*
X156872564Y-121827405D01*
X158953095Y-123907936D01*
X158980409Y-123948813D01*
X158990000Y-123997031D01*
X158990000Y-126921651D01*
X158976672Y-126978051D01*
X158939509Y-127022519D01*
X158827138Y-127106638D01*
X158739511Y-127223694D01*
X158688411Y-127360699D01*
X158681900Y-127421262D01*
X158681900Y-130134738D01*
X158688411Y-130195300D01*
X158739511Y-130332305D01*
X158827138Y-130449361D01*
X158944194Y-130536988D01*
X158944195Y-130536988D01*
X158944196Y-130536989D01*
X159081199Y-130588089D01*
X159141762Y-130594600D01*
X161855238Y-130594600D01*
X161915801Y-130588089D01*
X162052804Y-130536989D01*
X162169861Y-130449361D01*
X162257489Y-130332304D01*
X162308589Y-130195301D01*
X162315100Y-130134738D01*
X162315100Y-127421262D01*
X162308589Y-127360699D01*
X162257489Y-127223696D01*
X162226223Y-127181929D01*
X162169861Y-127106638D01*
X162057491Y-127022519D01*
X162020328Y-126978051D01*
X162007000Y-126921651D01*
X162007000Y-123562000D01*
X181582501Y-123562000D01*
X181602461Y-123802884D01*
X181602461Y-123802887D01*
X181602462Y-123802888D01*
X181661796Y-124037195D01*
X181758889Y-124258546D01*
X181758891Y-124258549D01*
X181891094Y-124460900D01*
X182054799Y-124638731D01*
X182207393Y-124757499D01*
X182245543Y-124787193D01*
X182458119Y-124902233D01*
X182686732Y-124980716D01*
X182925145Y-125020500D01*
X183166852Y-125020500D01*
X183166855Y-125020500D01*
X183405268Y-124980716D01*
X183633881Y-124902233D01*
X183846458Y-124787192D01*
X184037201Y-124638731D01*
X184200906Y-124460900D01*
X184333109Y-124258549D01*
X184430203Y-124037197D01*
X184489539Y-123802884D01*
X184509499Y-123562000D01*
X184489539Y-123321116D01*
X184430203Y-123086803D01*
X184333109Y-122865451D01*
X184200906Y-122663100D01*
X184064510Y-122514934D01*
X184037204Y-122485272D01*
X184037203Y-122485271D01*
X184037201Y-122485269D01*
X183903645Y-122381318D01*
X183846456Y-122336806D01*
X183633880Y-122221766D01*
X183479124Y-122168638D01*
X183405268Y-122143284D01*
X183166855Y-122103500D01*
X182925145Y-122103500D01*
X182686732Y-122143284D01*
X182686729Y-122143284D01*
X182686729Y-122143285D01*
X182458119Y-122221766D01*
X182245543Y-122336806D01*
X182054795Y-122485272D01*
X181891097Y-122663096D01*
X181891095Y-122663098D01*
X181891094Y-122663100D01*
X181848059Y-122728970D01*
X181758889Y-122865453D01*
X181661796Y-123086804D01*
X181602462Y-123321111D01*
X181602461Y-123321116D01*
X181582501Y-123562000D01*
X162007000Y-123562000D01*
X162007000Y-123336457D01*
X162007026Y-123333919D01*
X162009147Y-123228625D01*
X161998977Y-123156964D01*
X161998136Y-123149398D01*
X161992310Y-123077233D01*
X161991852Y-123075376D01*
X161982874Y-123038952D01*
X161980463Y-123026501D01*
X161974926Y-122987482D01*
X161953393Y-122918382D01*
X161951355Y-122911073D01*
X161934023Y-122840752D01*
X161918566Y-122804474D01*
X161914192Y-122792580D01*
X161902467Y-122754952D01*
X161870115Y-122690173D01*
X161866942Y-122683308D01*
X161838556Y-122616684D01*
X161823932Y-122593559D01*
X161817489Y-122583370D01*
X161811257Y-122572321D01*
X161793646Y-122537058D01*
X161793646Y-122537057D01*
X161751329Y-122478317D01*
X161747069Y-122472009D01*
X161708385Y-122410834D01*
X161692078Y-122392427D01*
X161682233Y-122381314D01*
X161674320Y-122371420D01*
X161651281Y-122339440D01*
X161600097Y-122288256D01*
X161594897Y-122282732D01*
X161584095Y-122270539D01*
X161546875Y-122228526D01*
X161538595Y-122221766D01*
X161516329Y-122203586D01*
X161506922Y-122195081D01*
X158538826Y-119226984D01*
X158537050Y-119225173D01*
X158464076Y-119149199D01*
X158464075Y-119149198D01*
X158406197Y-119105706D01*
X158400267Y-119100962D01*
X158345121Y-119054055D01*
X158345120Y-119054054D01*
X158311373Y-119033653D01*
X158300886Y-119026569D01*
X158269365Y-119002883D01*
X158269363Y-119002882D01*
X158269362Y-119002881D01*
X158205272Y-118969244D01*
X158198657Y-118965512D01*
X158162034Y-118943374D01*
X158136688Y-118928051D01*
X158100101Y-118913326D01*
X158088596Y-118908008D01*
X158053705Y-118889696D01*
X158053704Y-118889695D01*
X158053701Y-118889694D01*
X157985048Y-118866774D01*
X157977907Y-118864148D01*
X157910739Y-118837116D01*
X157872285Y-118828455D01*
X157860074Y-118825051D01*
X157822681Y-118812568D01*
X157751231Y-118800957D01*
X157743764Y-118799511D01*
X157722339Y-118794686D01*
X157673136Y-118783604D01*
X157633784Y-118781224D01*
X157621184Y-118779822D01*
X157596683Y-118775840D01*
X157582280Y-118773500D01*
X157582279Y-118773500D01*
X157509903Y-118773500D01*
X157502295Y-118773270D01*
X157430025Y-118768898D01*
X157430024Y-118768898D01*
X157402501Y-118771678D01*
X157390791Y-118772862D01*
X157378126Y-118773500D01*
X144403779Y-118773500D01*
X138561779Y-118773500D01*
X129166779Y-118773500D01*
X123806779Y-118773500D01*
X109549299Y-118773500D01*
X109486299Y-118756619D01*
X109440180Y-118710500D01*
X109423299Y-118647500D01*
X109423299Y-116818362D01*
X109423298Y-116818361D01*
X109416788Y-116757799D01*
X109365688Y-116620796D01*
X109365687Y-116620794D01*
X109278060Y-116503738D01*
X109161004Y-116416111D01*
X109083469Y-116387192D01*
X109024000Y-116365011D01*
X108963437Y-116358500D01*
X106836161Y-116358500D01*
X106775598Y-116365011D01*
X106638593Y-116416111D01*
X106521537Y-116503738D01*
X106433910Y-116620794D01*
X106382810Y-116757798D01*
X106382810Y-116757799D01*
X106376299Y-116818362D01*
X106376299Y-118645638D01*
X106382810Y-118706201D01*
X106401615Y-118756619D01*
X106433910Y-118843205D01*
X106521537Y-118960261D01*
X106638593Y-119047888D01*
X106638594Y-119047888D01*
X106638595Y-119047889D01*
X106655124Y-119054054D01*
X106712408Y-119075420D01*
X106761065Y-119108125D01*
X106789655Y-119159307D01*
X106791989Y-119217887D01*
X106767561Y-119271182D01*
X106637231Y-119437536D01*
X106519719Y-119650883D01*
X106510208Y-119677568D01*
X106504032Y-119691989D01*
X106470735Y-119758031D01*
X106402271Y-119981589D01*
X106372574Y-120213495D01*
X98723801Y-120213495D01*
X98723801Y-114948000D01*
X99896996Y-114948000D01*
X99916958Y-115137929D01*
X99975972Y-115319556D01*
X100071458Y-115484942D01*
X100071460Y-115484944D01*
X100199247Y-115626866D01*
X100353748Y-115739118D01*
X100528212Y-115816794D01*
X100715013Y-115856500D01*
X100905985Y-115856500D01*
X100905987Y-115856500D01*
X101092788Y-115816794D01*
X101267252Y-115739118D01*
X101421753Y-115626866D01*
X101425064Y-115623188D01*
X101467452Y-115592393D01*
X101518700Y-115581500D01*
X134318406Y-115581500D01*
X134366624Y-115591091D01*
X134407501Y-115618405D01*
X135074751Y-116285655D01*
X135104429Y-116332690D01*
X135110966Y-116387919D01*
X135103496Y-116458998D01*
X135123458Y-116648929D01*
X135182472Y-116830556D01*
X135277958Y-116995942D01*
X135277960Y-116995944D01*
X135405747Y-117137866D01*
X135560248Y-117250118D01*
X135734712Y-117327794D01*
X135921513Y-117367500D01*
X136112485Y-117367500D01*
X136112487Y-117367500D01*
X136299288Y-117327794D01*
X136473752Y-117250118D01*
X136628253Y-117137866D01*
X136756040Y-116995944D01*
X136851527Y-116830556D01*
X136910542Y-116648928D01*
X136930504Y-116459000D01*
X136910542Y-116269072D01*
X136851527Y-116087444D01*
X136851527Y-116087443D01*
X136756041Y-115922057D01*
X136628252Y-115780133D01*
X136473753Y-115667883D01*
X136473752Y-115667882D01*
X136348678Y-115612196D01*
X136299284Y-115590204D01*
X136173014Y-115563364D01*
X136139089Y-115550849D01*
X136110120Y-115529216D01*
X135742905Y-115162000D01*
X181582501Y-115162000D01*
X181602461Y-115402884D01*
X181602461Y-115402887D01*
X181602462Y-115402888D01*
X181661796Y-115637195D01*
X181758889Y-115858546D01*
X181758891Y-115858549D01*
X181891094Y-116060900D01*
X182054799Y-116238731D01*
X182175518Y-116332690D01*
X182245543Y-116387193D01*
X182378231Y-116459000D01*
X182458119Y-116502233D01*
X182686732Y-116580716D01*
X182925145Y-116620500D01*
X183166852Y-116620500D01*
X183166855Y-116620500D01*
X183405268Y-116580716D01*
X183633881Y-116502233D01*
X183846458Y-116387192D01*
X184037201Y-116238731D01*
X184200906Y-116060900D01*
X184333109Y-115858549D01*
X184430203Y-115637197D01*
X184489539Y-115402884D01*
X184509499Y-115162000D01*
X187082501Y-115162000D01*
X187102461Y-115402884D01*
X187102461Y-115402887D01*
X187102462Y-115402888D01*
X187161796Y-115637195D01*
X187258889Y-115858546D01*
X187258891Y-115858549D01*
X187391094Y-116060900D01*
X187554799Y-116238731D01*
X187675518Y-116332690D01*
X187745543Y-116387193D01*
X187878231Y-116459000D01*
X187958119Y-116502233D01*
X188186732Y-116580716D01*
X188425145Y-116620500D01*
X188666852Y-116620500D01*
X188666855Y-116620500D01*
X188905268Y-116580716D01*
X189133881Y-116502233D01*
X189346458Y-116387192D01*
X189537201Y-116238731D01*
X189700906Y-116060900D01*
X189833109Y-115858549D01*
X189930203Y-115637197D01*
X189989539Y-115402884D01*
X190009499Y-115162000D01*
X189989539Y-114921116D01*
X189930203Y-114686803D01*
X189833109Y-114465451D01*
X189700906Y-114263100D01*
X189537201Y-114085269D01*
X189422755Y-113996192D01*
X189346456Y-113936806D01*
X189133880Y-113821766D01*
X188979124Y-113768638D01*
X188905268Y-113743284D01*
X188666855Y-113703500D01*
X188425145Y-113703500D01*
X188186732Y-113743284D01*
X188186729Y-113743284D01*
X188186729Y-113743285D01*
X187958119Y-113821766D01*
X187745543Y-113936806D01*
X187554795Y-114085272D01*
X187391097Y-114263096D01*
X187258889Y-114465453D01*
X187161796Y-114686804D01*
X187121614Y-114845482D01*
X187102461Y-114921116D01*
X187082501Y-115162000D01*
X184509499Y-115162000D01*
X184489539Y-114921116D01*
X184430203Y-114686803D01*
X184333109Y-114465451D01*
X184200906Y-114263100D01*
X184037201Y-114085269D01*
X183922755Y-113996192D01*
X183846456Y-113936806D01*
X183633880Y-113821766D01*
X183479124Y-113768638D01*
X183405268Y-113743284D01*
X183166855Y-113703500D01*
X182925145Y-113703500D01*
X182686732Y-113743284D01*
X182686729Y-113743284D01*
X182686729Y-113743285D01*
X182458119Y-113821766D01*
X182245543Y-113936806D01*
X182054795Y-114085272D01*
X181891097Y-114263096D01*
X181758889Y-114465453D01*
X181661796Y-114686804D01*
X181621614Y-114845482D01*
X181602461Y-114921116D01*
X181582501Y-115162000D01*
X135742905Y-115162000D01*
X135555669Y-114974764D01*
X135522095Y-114914443D01*
X135525347Y-114845482D01*
X135564451Y-114788586D01*
X135627667Y-114760837D01*
X135696014Y-114770564D01*
X135734712Y-114787794D01*
X135921513Y-114827500D01*
X136112485Y-114827500D01*
X136112487Y-114827500D01*
X136299288Y-114787794D01*
X136473752Y-114710118D01*
X136628253Y-114597866D01*
X136756040Y-114455944D01*
X136851527Y-114290556D01*
X136910542Y-114108928D01*
X136930504Y-113919000D01*
X136910542Y-113729072D01*
X136851527Y-113547444D01*
X136851527Y-113547443D01*
X136756041Y-113382057D01*
X136628252Y-113240133D01*
X136473753Y-113127883D01*
X136473752Y-113127882D01*
X136299288Y-113050206D01*
X136112487Y-113010500D01*
X135921513Y-113010500D01*
X135796978Y-113036970D01*
X135734711Y-113050206D01*
X135560246Y-113127883D01*
X135405746Y-113240133D01*
X135402435Y-113243812D01*
X135360048Y-113274607D01*
X135308800Y-113285500D01*
X103776353Y-113285500D01*
X103755564Y-113283204D01*
X103684514Y-113285438D01*
X103680555Y-113285500D01*
X103652639Y-113285500D01*
X103648623Y-113286007D01*
X103636804Y-113286937D01*
X103592611Y-113288326D01*
X103573158Y-113293978D01*
X103553804Y-113297986D01*
X103533701Y-113300526D01*
X103519492Y-113306152D01*
X103473110Y-113315000D01*
X103292513Y-113315000D01*
X103167979Y-113341470D01*
X103105711Y-113354706D01*
X102931246Y-113432383D01*
X102776747Y-113544633D01*
X102648958Y-113686557D01*
X102553472Y-113851943D01*
X102494458Y-114033570D01*
X102494457Y-114033572D01*
X102494458Y-114033572D01*
X102476790Y-114201672D01*
X102455940Y-114258958D01*
X102410634Y-114299751D01*
X102351481Y-114314500D01*
X101607500Y-114314500D01*
X101544500Y-114297619D01*
X101498381Y-114251500D01*
X101481500Y-114188500D01*
X101481500Y-110962000D01*
X181582501Y-110962000D01*
X181602461Y-111202884D01*
X181602461Y-111202887D01*
X181602462Y-111202888D01*
X181661796Y-111437195D01*
X181758889Y-111658546D01*
X181758891Y-111658549D01*
X181891094Y-111860900D01*
X182054799Y-112038731D01*
X182207393Y-112157499D01*
X182245543Y-112187193D01*
X182458118Y-112302232D01*
X182458119Y-112302233D01*
X182686732Y-112380716D01*
X182925145Y-112420500D01*
X183166852Y-112420500D01*
X183166855Y-112420500D01*
X183405268Y-112380716D01*
X183633881Y-112302233D01*
X183846458Y-112187192D01*
X184037201Y-112038731D01*
X184200906Y-111860900D01*
X184333109Y-111658549D01*
X184430203Y-111437197D01*
X184489539Y-111202884D01*
X184509499Y-110962000D01*
X187082501Y-110962000D01*
X187102461Y-111202884D01*
X187102461Y-111202887D01*
X187102462Y-111202888D01*
X187161796Y-111437195D01*
X187258889Y-111658546D01*
X187258891Y-111658549D01*
X187391094Y-111860900D01*
X187554799Y-112038731D01*
X187707393Y-112157499D01*
X187745543Y-112187193D01*
X187958118Y-112302232D01*
X187958119Y-112302233D01*
X188186732Y-112380716D01*
X188425145Y-112420500D01*
X188666852Y-112420500D01*
X188666855Y-112420500D01*
X188905268Y-112380716D01*
X189133881Y-112302233D01*
X189346458Y-112187192D01*
X189537201Y-112038731D01*
X189700906Y-111860900D01*
X189833109Y-111658549D01*
X189930203Y-111437197D01*
X189989539Y-111202884D01*
X190009499Y-110962000D01*
X189989539Y-110721116D01*
X189930203Y-110486803D01*
X189854335Y-110313842D01*
X189833110Y-110265453D01*
X189833109Y-110265451D01*
X189700906Y-110063100D01*
X189537201Y-109885269D01*
X189422755Y-109796192D01*
X189346456Y-109736806D01*
X189133880Y-109621766D01*
X188979124Y-109568638D01*
X188905268Y-109543284D01*
X188666855Y-109503500D01*
X188425145Y-109503500D01*
X188186732Y-109543284D01*
X188186729Y-109543284D01*
X188186729Y-109543285D01*
X187958119Y-109621766D01*
X187745543Y-109736806D01*
X187554795Y-109885272D01*
X187391097Y-110063096D01*
X187391095Y-110063098D01*
X187391094Y-110063100D01*
X187346416Y-110131484D01*
X187258889Y-110265453D01*
X187161796Y-110486804D01*
X187102462Y-110721111D01*
X187102461Y-110721116D01*
X187082501Y-110962000D01*
X184509499Y-110962000D01*
X184489539Y-110721116D01*
X184430203Y-110486803D01*
X184354335Y-110313842D01*
X184333110Y-110265453D01*
X184333109Y-110265451D01*
X184200906Y-110063100D01*
X184037201Y-109885269D01*
X183922755Y-109796192D01*
X183846456Y-109736806D01*
X183633880Y-109621766D01*
X183479124Y-109568638D01*
X183405268Y-109543284D01*
X183166855Y-109503500D01*
X182925145Y-109503500D01*
X182686732Y-109543284D01*
X182686729Y-109543284D01*
X182686729Y-109543285D01*
X182458119Y-109621766D01*
X182245543Y-109736806D01*
X182054795Y-109885272D01*
X181891097Y-110063096D01*
X181891095Y-110063098D01*
X181891094Y-110063100D01*
X181846416Y-110131484D01*
X181758889Y-110265453D01*
X181661796Y-110486804D01*
X181602462Y-110721111D01*
X181602461Y-110721116D01*
X181582501Y-110962000D01*
X101481500Y-110962000D01*
X101481500Y-109192638D01*
X108595879Y-109192638D01*
X108602390Y-109253201D01*
X108627939Y-109321702D01*
X108653490Y-109390205D01*
X108741117Y-109507261D01*
X108858173Y-109594888D01*
X108858174Y-109594888D01*
X108858175Y-109594889D01*
X108995178Y-109645989D01*
X109055741Y-109652500D01*
X110753017Y-109652500D01*
X110813580Y-109645989D01*
X110950583Y-109594889D01*
X111067640Y-109507261D01*
X111155268Y-109390204D01*
X111206368Y-109253201D01*
X111212879Y-109192638D01*
X111212879Y-109158636D01*
X115008500Y-109158636D01*
X115017224Y-109269496D01*
X115018970Y-109291670D01*
X115074321Y-109511338D01*
X115168005Y-109717590D01*
X115297015Y-109903804D01*
X115457195Y-110063984D01*
X115643409Y-110192994D01*
X115849661Y-110286678D01*
X115849662Y-110286678D01*
X115849664Y-110286679D01*
X116069331Y-110342030D01*
X116202364Y-110352500D01*
X117831631Y-110352500D01*
X117831636Y-110352500D01*
X117964669Y-110342030D01*
X118184336Y-110286679D01*
X118390591Y-110192994D01*
X118576802Y-110063986D01*
X118736986Y-109903802D01*
X118865994Y-109717591D01*
X118959679Y-109511336D01*
X119015030Y-109291669D01*
X119025500Y-109158636D01*
X122628500Y-109158636D01*
X122637224Y-109269496D01*
X122638970Y-109291670D01*
X122694321Y-109511338D01*
X122788005Y-109717590D01*
X122917015Y-109903804D01*
X123077195Y-110063984D01*
X123263409Y-110192994D01*
X123469661Y-110286678D01*
X123469662Y-110286678D01*
X123469664Y-110286679D01*
X123689331Y-110342030D01*
X123822364Y-110352500D01*
X125451631Y-110352500D01*
X125451636Y-110352500D01*
X125584669Y-110342030D01*
X125804336Y-110286679D01*
X126010591Y-110192994D01*
X126196802Y-110063986D01*
X126356986Y-109903802D01*
X126485994Y-109717591D01*
X126579679Y-109511336D01*
X126635030Y-109291669D01*
X126645500Y-109158636D01*
X126645500Y-108344000D01*
X141593807Y-108344000D01*
X141612557Y-108618124D01*
X141612557Y-108618128D01*
X141612558Y-108618130D01*
X141668462Y-108887153D01*
X141668463Y-108887155D01*
X141760476Y-109146057D01*
X141886889Y-109390024D01*
X141972522Y-109511338D01*
X142045343Y-109614502D01*
X142232889Y-109815314D01*
X142446031Y-109988718D01*
X142680800Y-110131484D01*
X142932823Y-110240953D01*
X143197404Y-110315085D01*
X143197410Y-110315085D01*
X143197411Y-110315086D01*
X143469612Y-110352500D01*
X143469615Y-110352500D01*
X143744385Y-110352500D01*
X143744388Y-110352500D01*
X143963636Y-110322364D01*
X144016596Y-110315085D01*
X144281177Y-110240953D01*
X144533200Y-110131484D01*
X144767969Y-109988718D01*
X144981111Y-109815314D01*
X145168657Y-109614502D01*
X145327111Y-109390023D01*
X145453523Y-109146058D01*
X145545538Y-108887153D01*
X145601442Y-108618130D01*
X145620193Y-108344000D01*
X149213807Y-108344000D01*
X149232557Y-108618124D01*
X149232557Y-108618128D01*
X149232558Y-108618130D01*
X149288462Y-108887153D01*
X149288463Y-108887155D01*
X149380476Y-109146057D01*
X149506889Y-109390024D01*
X149592522Y-109511338D01*
X149665343Y-109614502D01*
X149852889Y-109815314D01*
X150066031Y-109988718D01*
X150300800Y-110131484D01*
X150552823Y-110240953D01*
X150817404Y-110315085D01*
X150817410Y-110315085D01*
X150817411Y-110315086D01*
X151089612Y-110352500D01*
X151089615Y-110352500D01*
X151364385Y-110352500D01*
X151364388Y-110352500D01*
X151583636Y-110322364D01*
X151636596Y-110315085D01*
X151901177Y-110240953D01*
X152153200Y-110131484D01*
X152387969Y-109988718D01*
X152601111Y-109815314D01*
X152788657Y-109614502D01*
X152947111Y-109390023D01*
X153073523Y-109146058D01*
X153165538Y-108887153D01*
X153221442Y-108618130D01*
X153240193Y-108344000D01*
X153221442Y-108069870D01*
X153165538Y-107800847D01*
X153073523Y-107541942D01*
X152947111Y-107297977D01*
X152946983Y-107297796D01*
X152788656Y-107073497D01*
X152601112Y-106872687D01*
X152465060Y-106762000D01*
X181582501Y-106762000D01*
X181602461Y-107002884D01*
X181602461Y-107002887D01*
X181602462Y-107002888D01*
X181661796Y-107237195D01*
X181758889Y-107458546D01*
X181758891Y-107458549D01*
X181891094Y-107660900D01*
X181891097Y-107660903D01*
X182052981Y-107836757D01*
X182054799Y-107838731D01*
X182207393Y-107957499D01*
X182245543Y-107987193D01*
X182398918Y-108070195D01*
X182458119Y-108102233D01*
X182686732Y-108180716D01*
X182925145Y-108220500D01*
X183166852Y-108220500D01*
X183166855Y-108220500D01*
X183405268Y-108180716D01*
X183633881Y-108102233D01*
X183846458Y-107987192D01*
X184037201Y-107838731D01*
X184200906Y-107660900D01*
X184333109Y-107458549D01*
X184430203Y-107237197D01*
X184489539Y-107002884D01*
X184509499Y-106762000D01*
X187082501Y-106762000D01*
X187102461Y-107002884D01*
X187102461Y-107002887D01*
X187102462Y-107002888D01*
X187161796Y-107237195D01*
X187258889Y-107458546D01*
X187258891Y-107458549D01*
X187391094Y-107660900D01*
X187391097Y-107660903D01*
X187552981Y-107836757D01*
X187554799Y-107838731D01*
X187707393Y-107957499D01*
X187745543Y-107987193D01*
X187898918Y-108070195D01*
X187958119Y-108102233D01*
X188186732Y-108180716D01*
X188425145Y-108220500D01*
X188666852Y-108220500D01*
X188666855Y-108220500D01*
X188905268Y-108180716D01*
X189133881Y-108102233D01*
X189346458Y-107987192D01*
X189537201Y-107838731D01*
X189700906Y-107660900D01*
X189833109Y-107458549D01*
X189930203Y-107237197D01*
X189989539Y-107002884D01*
X190009499Y-106762000D01*
X189989539Y-106521116D01*
X189930203Y-106286803D01*
X189833109Y-106065451D01*
X189700906Y-105863100D01*
X189537201Y-105685269D01*
X189422755Y-105596192D01*
X189346456Y-105536806D01*
X189133880Y-105421766D01*
X188979124Y-105368638D01*
X188905268Y-105343284D01*
X188666855Y-105303500D01*
X188425145Y-105303500D01*
X188186732Y-105343284D01*
X188186729Y-105343284D01*
X188186729Y-105343285D01*
X187958119Y-105421766D01*
X187745543Y-105536806D01*
X187554795Y-105685272D01*
X187391097Y-105863096D01*
X187258889Y-106065453D01*
X187161796Y-106286804D01*
X187109073Y-106495005D01*
X187102461Y-106521116D01*
X187082501Y-106762000D01*
X184509499Y-106762000D01*
X184489539Y-106521116D01*
X184430203Y-106286803D01*
X184333109Y-106065451D01*
X184200906Y-105863100D01*
X184037201Y-105685269D01*
X183922755Y-105596192D01*
X183846456Y-105536806D01*
X183633880Y-105421766D01*
X183479124Y-105368638D01*
X183405268Y-105343284D01*
X183166855Y-105303500D01*
X182925145Y-105303500D01*
X182686732Y-105343284D01*
X182686729Y-105343284D01*
X182686729Y-105343285D01*
X182458119Y-105421766D01*
X182245543Y-105536806D01*
X182054795Y-105685272D01*
X181891097Y-105863096D01*
X181758889Y-106065453D01*
X181661796Y-106286804D01*
X181609073Y-106495005D01*
X181602461Y-106521116D01*
X181582501Y-106762000D01*
X152465060Y-106762000D01*
X152387969Y-106699282D01*
X152387968Y-106699281D01*
X152153200Y-106556516D01*
X152071689Y-106521111D01*
X151901179Y-106447048D01*
X151901177Y-106447047D01*
X151636596Y-106372915D01*
X151636594Y-106372914D01*
X151636588Y-106372913D01*
X151364388Y-106335500D01*
X151364385Y-106335500D01*
X151089615Y-106335500D01*
X151089612Y-106335500D01*
X150817411Y-106372913D01*
X150817403Y-106372915D01*
X150817404Y-106372915D01*
X150552823Y-106447047D01*
X150552821Y-106447047D01*
X150552820Y-106447048D01*
X150300801Y-106556515D01*
X150066030Y-106699282D01*
X149852887Y-106872687D01*
X149665343Y-107073497D01*
X149506889Y-107297975D01*
X149380476Y-107541942D01*
X149338199Y-107660900D01*
X149288462Y-107800847D01*
X149234705Y-108059539D01*
X149232557Y-108069875D01*
X149213807Y-108344000D01*
X145620193Y-108344000D01*
X145601442Y-108069870D01*
X145545538Y-107800847D01*
X145453523Y-107541942D01*
X145327111Y-107297977D01*
X145326983Y-107297796D01*
X145168656Y-107073497D01*
X144981112Y-106872687D01*
X144767969Y-106699282D01*
X144767968Y-106699281D01*
X144533200Y-106556516D01*
X144451689Y-106521111D01*
X144281179Y-106447048D01*
X144281177Y-106447047D01*
X144016596Y-106372915D01*
X144016594Y-106372914D01*
X144016588Y-106372913D01*
X143744388Y-106335500D01*
X143744385Y-106335500D01*
X143469615Y-106335500D01*
X143469612Y-106335500D01*
X143197411Y-106372913D01*
X143197403Y-106372915D01*
X143197404Y-106372915D01*
X142932823Y-106447047D01*
X142932821Y-106447047D01*
X142932820Y-106447048D01*
X142680801Y-106556515D01*
X142446030Y-106699282D01*
X142232887Y-106872687D01*
X142045343Y-107073497D01*
X141886889Y-107297975D01*
X141760476Y-107541942D01*
X141718199Y-107660900D01*
X141668462Y-107800847D01*
X141614705Y-108059539D01*
X141612557Y-108069875D01*
X141593807Y-108344000D01*
X126645500Y-108344000D01*
X126645500Y-107529364D01*
X126635030Y-107396331D01*
X126579679Y-107176664D01*
X126485994Y-106970409D01*
X126356986Y-106784198D01*
X126356984Y-106784195D01*
X126196804Y-106624015D01*
X126010590Y-106495005D01*
X125804338Y-106401321D01*
X125584670Y-106345970D01*
X125562496Y-106344225D01*
X125451636Y-106335500D01*
X123822364Y-106335500D01*
X123727340Y-106342978D01*
X123689329Y-106345970D01*
X123469661Y-106401321D01*
X123263409Y-106495005D01*
X123077195Y-106624015D01*
X122917015Y-106784195D01*
X122788005Y-106970409D01*
X122694321Y-107176661D01*
X122638970Y-107396329D01*
X122638969Y-107396331D01*
X122638970Y-107396331D01*
X122628500Y-107529364D01*
X122628500Y-109158636D01*
X119025500Y-109158636D01*
X119025500Y-107529364D01*
X119015030Y-107396331D01*
X118959679Y-107176664D01*
X118865994Y-106970409D01*
X118736986Y-106784198D01*
X118736984Y-106784195D01*
X118576804Y-106624015D01*
X118390590Y-106495005D01*
X118184338Y-106401321D01*
X117964670Y-106345970D01*
X117942496Y-106344225D01*
X117831636Y-106335500D01*
X116202364Y-106335500D01*
X116107340Y-106342978D01*
X116069329Y-106345970D01*
X115849661Y-106401321D01*
X115643409Y-106495005D01*
X115457195Y-106624015D01*
X115297015Y-106784195D01*
X115168005Y-106970409D01*
X115074321Y-107176661D01*
X115018970Y-107396329D01*
X115018969Y-107396331D01*
X115018970Y-107396331D01*
X115008500Y-107529364D01*
X115008500Y-109158636D01*
X111212879Y-109158636D01*
X111212879Y-107495362D01*
X111206368Y-107434799D01*
X111155268Y-107297796D01*
X111155267Y-107297794D01*
X111067640Y-107180738D01*
X110950584Y-107093111D01*
X110882081Y-107067561D01*
X110813580Y-107042011D01*
X110753017Y-107035500D01*
X109055741Y-107035500D01*
X108995178Y-107042011D01*
X108858173Y-107093111D01*
X108741117Y-107180738D01*
X108653490Y-107297794D01*
X108653422Y-107297977D01*
X108602390Y-107434799D01*
X108595879Y-107495362D01*
X108595879Y-109192638D01*
X101481500Y-109192638D01*
X101481500Y-108658594D01*
X101491091Y-108610376D01*
X101518405Y-108569499D01*
X106369166Y-103718738D01*
X158681900Y-103718738D01*
X158688411Y-103779301D01*
X158691355Y-103787193D01*
X158739511Y-103916305D01*
X158827138Y-104033361D01*
X158944194Y-104120988D01*
X158944195Y-104120988D01*
X158944196Y-104120989D01*
X159081199Y-104172089D01*
X159141762Y-104178600D01*
X161855238Y-104178600D01*
X161915801Y-104172089D01*
X162052804Y-104120989D01*
X162169861Y-104033361D01*
X162257489Y-103916304D01*
X162308589Y-103779301D01*
X162315100Y-103718738D01*
X162315100Y-102562000D01*
X181582501Y-102562000D01*
X181602461Y-102802884D01*
X181602461Y-102802887D01*
X181602462Y-102802888D01*
X181661796Y-103037195D01*
X181758889Y-103258546D01*
X181758891Y-103258549D01*
X181891094Y-103460900D01*
X181915463Y-103487372D01*
X182051385Y-103635023D01*
X182054799Y-103638731D01*
X182207393Y-103757499D01*
X182245543Y-103787193D01*
X182458119Y-103902233D01*
X182686732Y-103980716D01*
X182925145Y-104020500D01*
X183166852Y-104020500D01*
X183166855Y-104020500D01*
X183405268Y-103980716D01*
X183633881Y-103902233D01*
X183846458Y-103787192D01*
X184037201Y-103638731D01*
X184200906Y-103460900D01*
X184333109Y-103258549D01*
X184430203Y-103037197D01*
X184489539Y-102802884D01*
X184509499Y-102562000D01*
X187082501Y-102562000D01*
X187102461Y-102802884D01*
X187102461Y-102802887D01*
X187102462Y-102802888D01*
X187161796Y-103037195D01*
X187258889Y-103258546D01*
X187258891Y-103258549D01*
X187391094Y-103460900D01*
X187415463Y-103487372D01*
X187551385Y-103635023D01*
X187554799Y-103638731D01*
X187707393Y-103757499D01*
X187745543Y-103787193D01*
X187958119Y-103902233D01*
X188186732Y-103980716D01*
X188425145Y-104020500D01*
X188666852Y-104020500D01*
X188666855Y-104020500D01*
X188905268Y-103980716D01*
X189133881Y-103902233D01*
X189346458Y-103787192D01*
X189537201Y-103638731D01*
X189700906Y-103460900D01*
X189833109Y-103258549D01*
X189930203Y-103037197D01*
X189989539Y-102802884D01*
X190009499Y-102562000D01*
X189989539Y-102321116D01*
X189930203Y-102086803D01*
X189833109Y-101865451D01*
X189700906Y-101663100D01*
X189599579Y-101553030D01*
X189537204Y-101485272D01*
X189537203Y-101485271D01*
X189537201Y-101485269D01*
X189422755Y-101396192D01*
X189346456Y-101336806D01*
X189133880Y-101221766D01*
X188952576Y-101159525D01*
X188905268Y-101143284D01*
X188666855Y-101103500D01*
X188425145Y-101103500D01*
X188186732Y-101143284D01*
X188186729Y-101143284D01*
X188186729Y-101143285D01*
X187958119Y-101221766D01*
X187745543Y-101336806D01*
X187554795Y-101485272D01*
X187391097Y-101663096D01*
X187391095Y-101663098D01*
X187391094Y-101663100D01*
X187343763Y-101735544D01*
X187258889Y-101865453D01*
X187161796Y-102086804D01*
X187102462Y-102321111D01*
X187102461Y-102321116D01*
X187082501Y-102562000D01*
X184509499Y-102562000D01*
X184489539Y-102321116D01*
X184430203Y-102086803D01*
X184333109Y-101865451D01*
X184200906Y-101663100D01*
X184099579Y-101553030D01*
X184037204Y-101485272D01*
X184037203Y-101485271D01*
X184037201Y-101485269D01*
X183922755Y-101396192D01*
X183846456Y-101336806D01*
X183633880Y-101221766D01*
X183452576Y-101159525D01*
X183405268Y-101143284D01*
X183166855Y-101103500D01*
X182925145Y-101103500D01*
X182686732Y-101143284D01*
X182686729Y-101143284D01*
X182686729Y-101143285D01*
X182458119Y-101221766D01*
X182245543Y-101336806D01*
X182054795Y-101485272D01*
X181891097Y-101663096D01*
X181891095Y-101663098D01*
X181891094Y-101663100D01*
X181843763Y-101735544D01*
X181758889Y-101865453D01*
X181661796Y-102086804D01*
X181602462Y-102321111D01*
X181602461Y-102321116D01*
X181582501Y-102562000D01*
X162315100Y-102562000D01*
X162315100Y-101005262D01*
X162308589Y-100944699D01*
X162257489Y-100807696D01*
X162257488Y-100807694D01*
X162169861Y-100690638D01*
X162052805Y-100603011D01*
X161984302Y-100577461D01*
X161915801Y-100551911D01*
X161855238Y-100545400D01*
X159141762Y-100545400D01*
X159081199Y-100551911D01*
X158944194Y-100603011D01*
X158827138Y-100690638D01*
X158739511Y-100807694D01*
X158688410Y-100944699D01*
X158688411Y-100944699D01*
X158681900Y-101005262D01*
X158681900Y-103718738D01*
X106369166Y-103718738D01*
X106407499Y-103680405D01*
X106448376Y-103653091D01*
X106496594Y-103643500D01*
X113314147Y-103643500D01*
X113334935Y-103645795D01*
X113337907Y-103645701D01*
X113337909Y-103645702D01*
X113405985Y-103643562D01*
X113409945Y-103643500D01*
X113437852Y-103643500D01*
X113437856Y-103643500D01*
X113441865Y-103642993D01*
X113453699Y-103642061D01*
X113497889Y-103640673D01*
X113517338Y-103635021D01*
X113536698Y-103631012D01*
X113556797Y-103628474D01*
X113597915Y-103612193D01*
X113609117Y-103608357D01*
X113651593Y-103596018D01*
X113669039Y-103585699D01*
X113686780Y-103577009D01*
X113705617Y-103569552D01*
X113741392Y-103543558D01*
X113751303Y-103537048D01*
X113789362Y-103514542D01*
X113803691Y-103500212D01*
X113818719Y-103487377D01*
X113835107Y-103475472D01*
X113863303Y-103441386D01*
X113871272Y-103432630D01*
X115323658Y-101980244D01*
X115339979Y-101967170D01*
X115342014Y-101965002D01*
X115342018Y-101965000D01*
X115388677Y-101915311D01*
X115391368Y-101912534D01*
X115411134Y-101892770D01*
X115413605Y-101889583D01*
X115421312Y-101880559D01*
X115451586Y-101848321D01*
X115461343Y-101830570D01*
X115472199Y-101814043D01*
X115484613Y-101798041D01*
X115502172Y-101757461D01*
X115507392Y-101746809D01*
X115528694Y-101708061D01*
X115528695Y-101708060D01*
X115533732Y-101688439D01*
X115540138Y-101669730D01*
X115548181Y-101651144D01*
X115555096Y-101607481D01*
X115557504Y-101595853D01*
X115568500Y-101553029D01*
X115568500Y-101532776D01*
X115570051Y-101513066D01*
X115573220Y-101493057D01*
X115569059Y-101449039D01*
X115568500Y-101437181D01*
X115568500Y-101159525D01*
X115576869Y-101114371D01*
X115600864Y-101075214D01*
X115663849Y-101005262D01*
X115674040Y-100993944D01*
X115769527Y-100828556D01*
X115828542Y-100646928D01*
X115848504Y-100457000D01*
X115828542Y-100267072D01*
X115769527Y-100085444D01*
X115769527Y-100085443D01*
X115674041Y-99920057D01*
X115546252Y-99778133D01*
X115391753Y-99665883D01*
X115391752Y-99665882D01*
X115217288Y-99588206D01*
X115030487Y-99548500D01*
X114839513Y-99548500D01*
X114714979Y-99574970D01*
X114652711Y-99588206D01*
X114478246Y-99665883D01*
X114323747Y-99778133D01*
X114195958Y-99920057D01*
X114100472Y-100085443D01*
X114041458Y-100267070D01*
X114021496Y-100456999D01*
X114041458Y-100646929D01*
X114100472Y-100828556D01*
X114195958Y-100993942D01*
X114268605Y-101074624D01*
X114297740Y-101130591D01*
X114296088Y-101193665D01*
X114264064Y-101248030D01*
X113172500Y-102339595D01*
X113131623Y-102366909D01*
X113083405Y-102376500D01*
X106265853Y-102376500D01*
X106245064Y-102374204D01*
X106174014Y-102376438D01*
X106170055Y-102376500D01*
X106142139Y-102376500D01*
X106138123Y-102377007D01*
X106126303Y-102377937D01*
X106082110Y-102379326D01*
X106062657Y-102384978D01*
X106043303Y-102388986D01*
X106023202Y-102391525D01*
X105982098Y-102407800D01*
X105970869Y-102411645D01*
X105928405Y-102423982D01*
X105910964Y-102434296D01*
X105893217Y-102442990D01*
X105874384Y-102450447D01*
X105838611Y-102476437D01*
X105828693Y-102482951D01*
X105790639Y-102505457D01*
X105776312Y-102519783D01*
X105761283Y-102532618D01*
X105744894Y-102544525D01*
X105716701Y-102578604D01*
X105708713Y-102587381D01*
X100459336Y-107836757D01*
X100443016Y-107849833D01*
X100394370Y-107901635D01*
X100391620Y-107904473D01*
X100371868Y-107924226D01*
X100371864Y-107924230D01*
X100371865Y-107924230D01*
X100369379Y-107927433D01*
X100361687Y-107936439D01*
X100331413Y-107968678D01*
X100321652Y-107986434D01*
X100310801Y-108002952D01*
X100298385Y-108018959D01*
X100280824Y-108059539D01*
X100275604Y-108070195D01*
X100254304Y-108108940D01*
X100249267Y-108128559D01*
X100242864Y-108147261D01*
X100234818Y-108165855D01*
X100227901Y-108209524D01*
X100225495Y-108221144D01*
X100214500Y-108263970D01*
X100214500Y-108284224D01*
X100212949Y-108303934D01*
X100209779Y-108323942D01*
X100213941Y-108367961D01*
X100214500Y-108379819D01*
X100214500Y-114203827D01*
X100206131Y-114248981D01*
X100182136Y-114288138D01*
X100071458Y-114411057D01*
X99975972Y-114576443D01*
X99916958Y-114758070D01*
X99896996Y-114948000D01*
X98723801Y-114948000D01*
X98723801Y-98362000D01*
X181582501Y-98362000D01*
X181602461Y-98602884D01*
X181602461Y-98602887D01*
X181602462Y-98602888D01*
X181661796Y-98837195D01*
X181758889Y-99058546D01*
X181758891Y-99058549D01*
X181891094Y-99260900D01*
X182054799Y-99438731D01*
X182207393Y-99557499D01*
X182245543Y-99587193D01*
X182390948Y-99665882D01*
X182458119Y-99702233D01*
X182686732Y-99780716D01*
X182925145Y-99820500D01*
X183166852Y-99820500D01*
X183166855Y-99820500D01*
X183405268Y-99780716D01*
X183633881Y-99702233D01*
X183846458Y-99587192D01*
X184037201Y-99438731D01*
X184200906Y-99260900D01*
X184333109Y-99058549D01*
X184430203Y-98837197D01*
X184489539Y-98602884D01*
X184509499Y-98362000D01*
X184489539Y-98121116D01*
X184430203Y-97886803D01*
X184333109Y-97665451D01*
X184200906Y-97463100D01*
X184037201Y-97285269D01*
X183922755Y-97196192D01*
X183846456Y-97136806D01*
X183633880Y-97021766D01*
X183444021Y-96956588D01*
X183405268Y-96943284D01*
X183166855Y-96903500D01*
X182925145Y-96903500D01*
X182686732Y-96943284D01*
X182686729Y-96943284D01*
X182686729Y-96943285D01*
X182458119Y-97021766D01*
X182245543Y-97136806D01*
X182054795Y-97285272D01*
X181891097Y-97463096D01*
X181758889Y-97665453D01*
X181661796Y-97886804D01*
X181602462Y-98121111D01*
X181602461Y-98121116D01*
X181582501Y-98362000D01*
X98723801Y-98362000D01*
X98723801Y-96554338D01*
X105981599Y-96554338D01*
X105988110Y-96614900D01*
X106039210Y-96751905D01*
X106126837Y-96868961D01*
X106243893Y-96956588D01*
X106243894Y-96956588D01*
X106243895Y-96956589D01*
X106380898Y-97007689D01*
X106441461Y-97014200D01*
X108342137Y-97014200D01*
X108402700Y-97007689D01*
X108539703Y-96956589D01*
X108656760Y-96868961D01*
X108744388Y-96751904D01*
X108795488Y-96614901D01*
X108801999Y-96554338D01*
X108801999Y-94653662D01*
X108795488Y-94593099D01*
X108744388Y-94456096D01*
X108744387Y-94456094D01*
X108656760Y-94339038D01*
X108539704Y-94251411D01*
X108471201Y-94225860D01*
X108402700Y-94200311D01*
X108342137Y-94193800D01*
X106441461Y-94193800D01*
X106380898Y-94200311D01*
X106243893Y-94251411D01*
X106126837Y-94339038D01*
X106039210Y-94456094D01*
X105988110Y-94593099D01*
X105981599Y-94653662D01*
X105981599Y-96554338D01*
X98723801Y-96554338D01*
X98723801Y-93154800D01*
X135767371Y-93154800D01*
X135787860Y-93428208D01*
X135848870Y-93695508D01*
X135949037Y-93950730D01*
X136086124Y-94188171D01*
X136257067Y-94402528D01*
X136458052Y-94589014D01*
X136684582Y-94743460D01*
X136931610Y-94862423D01*
X137018939Y-94889360D01*
X137193601Y-94943236D01*
X137464713Y-94984100D01*
X137738884Y-94984100D01*
X137738887Y-94984100D01*
X138009999Y-94943236D01*
X138271992Y-94862422D01*
X138519015Y-94743462D01*
X138745548Y-94589014D01*
X138946532Y-94402529D01*
X139117476Y-94188171D01*
X139254563Y-93950729D01*
X139354730Y-93695507D01*
X139415740Y-93428207D01*
X139436229Y-93154800D01*
X143387371Y-93154800D01*
X143407860Y-93428208D01*
X143468870Y-93695508D01*
X143569037Y-93950730D01*
X143706124Y-94188171D01*
X143877067Y-94402528D01*
X144078052Y-94589014D01*
X144304582Y-94743460D01*
X144551610Y-94862423D01*
X144638939Y-94889360D01*
X144813601Y-94943236D01*
X145084713Y-94984100D01*
X145358884Y-94984100D01*
X145358887Y-94984100D01*
X145629999Y-94943236D01*
X145891992Y-94862422D01*
X146139015Y-94743462D01*
X146365548Y-94589014D01*
X146566532Y-94402529D01*
X146737476Y-94188171D01*
X146874563Y-93950729D01*
X146936395Y-93793182D01*
X186335500Y-93793182D01*
X186374604Y-94052615D01*
X186374605Y-94052618D01*
X186451936Y-94303323D01*
X186565772Y-94539704D01*
X186713563Y-94756474D01*
X186713565Y-94756476D01*
X186713567Y-94756479D01*
X186892019Y-94948805D01*
X187097143Y-95112386D01*
X187324357Y-95243568D01*
X187568584Y-95339420D01*
X187824370Y-95397802D01*
X188020506Y-95412500D01*
X188151489Y-95412500D01*
X188151494Y-95412500D01*
X188347630Y-95397802D01*
X188603416Y-95339420D01*
X188847643Y-95243568D01*
X189074857Y-95112386D01*
X189279981Y-94948805D01*
X189458433Y-94756479D01*
X189606228Y-94539704D01*
X189720063Y-94303323D01*
X189797396Y-94052615D01*
X189836500Y-93793182D01*
X189836500Y-93530818D01*
X189797396Y-93271385D01*
X189720063Y-93020677D01*
X189606228Y-92784296D01*
X189458433Y-92567521D01*
X189279981Y-92375195D01*
X189074857Y-92211614D01*
X188847643Y-92080432D01*
X188603417Y-91984580D01*
X188347631Y-91926198D01*
X188314940Y-91923748D01*
X188151494Y-91911500D01*
X188020506Y-91911500D01*
X187880408Y-91921998D01*
X187824368Y-91926198D01*
X187568582Y-91984580D01*
X187324356Y-92080432D01*
X187097146Y-92211612D01*
X187097143Y-92211614D01*
X186892019Y-92375195D01*
X186753525Y-92524455D01*
X186713563Y-92567525D01*
X186565772Y-92784295D01*
X186451936Y-93020676D01*
X186374605Y-93271381D01*
X186374604Y-93271385D01*
X186335500Y-93530818D01*
X186335500Y-93793182D01*
X146936395Y-93793182D01*
X146974730Y-93695507D01*
X147035740Y-93428207D01*
X147056229Y-93154800D01*
X147035740Y-92881393D01*
X146974730Y-92614093D01*
X146874563Y-92358871D01*
X146737476Y-92121429D01*
X146566532Y-91907071D01*
X146365548Y-91720586D01*
X146139015Y-91566138D01*
X145891992Y-91447177D01*
X145630002Y-91366365D01*
X145629999Y-91366364D01*
X145358887Y-91325500D01*
X145084713Y-91325500D01*
X144813601Y-91366364D01*
X144813598Y-91366364D01*
X144813597Y-91366365D01*
X144551610Y-91447176D01*
X144304582Y-91566139D01*
X144078052Y-91720585D01*
X143877067Y-91907071D01*
X143706124Y-92121428D01*
X143569037Y-92358869D01*
X143468870Y-92614091D01*
X143407860Y-92881391D01*
X143387371Y-93154800D01*
X139436229Y-93154800D01*
X139415740Y-92881393D01*
X139354730Y-92614093D01*
X139254563Y-92358871D01*
X139117476Y-92121429D01*
X138946532Y-91907071D01*
X138745548Y-91720586D01*
X138519015Y-91566138D01*
X138271992Y-91447177D01*
X138010002Y-91366365D01*
X138009999Y-91366364D01*
X137738887Y-91325500D01*
X137464713Y-91325500D01*
X137193601Y-91366364D01*
X137193598Y-91366364D01*
X137193597Y-91366365D01*
X136931610Y-91447176D01*
X136684582Y-91566139D01*
X136458052Y-91720585D01*
X136257067Y-91907071D01*
X136086124Y-92121428D01*
X135949037Y-92358869D01*
X135848870Y-92614091D01*
X135787860Y-92881391D01*
X135767371Y-93154800D01*
X98723801Y-93154800D01*
X98723801Y-87381638D01*
X182101500Y-87381638D01*
X182108011Y-87442200D01*
X182159111Y-87579205D01*
X182246738Y-87696261D01*
X182363794Y-87783888D01*
X182363795Y-87783888D01*
X182363796Y-87783889D01*
X182500799Y-87834989D01*
X182561362Y-87841500D01*
X184958638Y-87841500D01*
X185019201Y-87834989D01*
X185156204Y-87783889D01*
X185273261Y-87696261D01*
X185360889Y-87579204D01*
X185411989Y-87442201D01*
X185418500Y-87381638D01*
X185418500Y-84984362D01*
X185411989Y-84923799D01*
X185360889Y-84786796D01*
X185360888Y-84786794D01*
X185273261Y-84669738D01*
X185156205Y-84582111D01*
X185087702Y-84556561D01*
X185019201Y-84531011D01*
X184958638Y-84524500D01*
X182561362Y-84524500D01*
X182500799Y-84531011D01*
X182363794Y-84582111D01*
X182246738Y-84669738D01*
X182159111Y-84786794D01*
X182108011Y-84923799D01*
X182101500Y-84984362D01*
X182101500Y-87381638D01*
X98723801Y-87381638D01*
X98723801Y-83854338D01*
X105981599Y-83854338D01*
X105988110Y-83914900D01*
X106039210Y-84051905D01*
X106126837Y-84168961D01*
X106243893Y-84256588D01*
X106243894Y-84256588D01*
X106243895Y-84256589D01*
X106380898Y-84307689D01*
X106441461Y-84314200D01*
X108342137Y-84314200D01*
X108402700Y-84307689D01*
X108539703Y-84256589D01*
X108656760Y-84168961D01*
X108744388Y-84051904D01*
X108795488Y-83914901D01*
X108801999Y-83854338D01*
X108801999Y-81983000D01*
X182096372Y-81983000D01*
X182116854Y-82243249D01*
X182177796Y-82497089D01*
X182277697Y-82738271D01*
X182414097Y-82960856D01*
X182414098Y-82960858D01*
X182414100Y-82960860D01*
X182583636Y-83159363D01*
X182782139Y-83328899D01*
X182782144Y-83328903D01*
X183004729Y-83465303D01*
X183245911Y-83565204D01*
X183499751Y-83626146D01*
X183760000Y-83646628D01*
X184020249Y-83626146D01*
X184274089Y-83565204D01*
X184515271Y-83465303D01*
X184737856Y-83328903D01*
X184936363Y-83159363D01*
X185105903Y-82960856D01*
X185242303Y-82738271D01*
X185342204Y-82497089D01*
X185403146Y-82243249D01*
X185423628Y-81983000D01*
X185403146Y-81722751D01*
X185342204Y-81468911D01*
X185242303Y-81227729D01*
X185105903Y-81005144D01*
X185105899Y-81005139D01*
X184936363Y-80806636D01*
X184737860Y-80637100D01*
X184737858Y-80637098D01*
X184737856Y-80637097D01*
X184515271Y-80500697D01*
X184405234Y-80455118D01*
X184274090Y-80400796D01*
X184020249Y-80339854D01*
X184020248Y-80339853D01*
X183760000Y-80319372D01*
X183759999Y-80319372D01*
X183499750Y-80339854D01*
X183245909Y-80400796D01*
X183004730Y-80500696D01*
X182782139Y-80637100D01*
X182583636Y-80806636D01*
X182414100Y-81005139D01*
X182277696Y-81227730D01*
X182177796Y-81468909D01*
X182116854Y-81722750D01*
X182116854Y-81722751D01*
X182096372Y-81983000D01*
X108801999Y-81983000D01*
X108801999Y-81953662D01*
X108795488Y-81893099D01*
X108744388Y-81756096D01*
X108744387Y-81756094D01*
X108656760Y-81639038D01*
X108539704Y-81551411D01*
X108471201Y-81525860D01*
X108402700Y-81500311D01*
X108342137Y-81493800D01*
X106441461Y-81493800D01*
X106380898Y-81500311D01*
X106243893Y-81551411D01*
X106126837Y-81639038D01*
X106039210Y-81756094D01*
X105988110Y-81893099D01*
X105981599Y-81953662D01*
X105981599Y-83854338D01*
X98723801Y-83854338D01*
X98723801Y-79184800D01*
X121009956Y-79184800D01*
X121030494Y-79419546D01*
X121091481Y-79647158D01*
X121191069Y-79860722D01*
X121326227Y-80053749D01*
X121492851Y-80220373D01*
X121685878Y-80355531D01*
X121782949Y-80400796D01*
X121899441Y-80455118D01*
X121982751Y-80477440D01*
X122127055Y-80516106D01*
X122361800Y-80536644D01*
X122596545Y-80516106D01*
X122824158Y-80455118D01*
X123037722Y-80355531D01*
X123230749Y-80220373D01*
X123397373Y-80053749D01*
X123532531Y-79860722D01*
X123632118Y-79647158D01*
X123693106Y-79419545D01*
X123713644Y-79184800D01*
X123693106Y-78950055D01*
X123632118Y-78722442D01*
X123532531Y-78508878D01*
X123397373Y-78315851D01*
X123230749Y-78149227D01*
X123037722Y-78014069D01*
X122824158Y-77914481D01*
X122596546Y-77853494D01*
X122361800Y-77832956D01*
X122127053Y-77853494D01*
X121899441Y-77914481D01*
X121685877Y-78014069D01*
X121492848Y-78149229D01*
X121326229Y-78315848D01*
X121191069Y-78508877D01*
X121091481Y-78722441D01*
X121030494Y-78950053D01*
X121009956Y-79184800D01*
X98723801Y-79184800D01*
X98723801Y-75374799D01*
X133227371Y-75374799D01*
X133247860Y-75648208D01*
X133308870Y-75915508D01*
X133409037Y-76170730D01*
X133546124Y-76408171D01*
X133704394Y-76606637D01*
X133717068Y-76622529D01*
X133870531Y-76764921D01*
X133918052Y-76809014D01*
X134144582Y-76963460D01*
X134391610Y-77082423D01*
X134478938Y-77109359D01*
X134653601Y-77163236D01*
X134924713Y-77204100D01*
X135198884Y-77204100D01*
X135198887Y-77204100D01*
X135469999Y-77163236D01*
X135731992Y-77082422D01*
X135979015Y-76963462D01*
X136205548Y-76809014D01*
X136406532Y-76622529D01*
X136577476Y-76408171D01*
X136714563Y-76170729D01*
X136814730Y-75915507D01*
X136875740Y-75648207D01*
X136896229Y-75374800D01*
X136875740Y-75101393D01*
X136814730Y-74834093D01*
X136714563Y-74578871D01*
X136577476Y-74341429D01*
X136406532Y-74127071D01*
X136205548Y-73940586D01*
X135979015Y-73786138D01*
X135979014Y-73786137D01*
X135731992Y-73667177D01*
X135470002Y-73586365D01*
X135469999Y-73586364D01*
X135198887Y-73545500D01*
X134924713Y-73545500D01*
X134653601Y-73586364D01*
X134653598Y-73586364D01*
X134653597Y-73586365D01*
X134391610Y-73667176D01*
X134144582Y-73786139D01*
X133918052Y-73940585D01*
X133717067Y-74127071D01*
X133546124Y-74341428D01*
X133409037Y-74578869D01*
X133308870Y-74834091D01*
X133247860Y-75101391D01*
X133227371Y-75374799D01*
X98723801Y-75374799D01*
X98723801Y-70798738D01*
X105981599Y-70798738D01*
X105988110Y-70859300D01*
X106039210Y-70996305D01*
X106126837Y-71113361D01*
X106243893Y-71200988D01*
X106243894Y-71200988D01*
X106243895Y-71200989D01*
X106380898Y-71252089D01*
X106441461Y-71258600D01*
X108342137Y-71258600D01*
X108402700Y-71252089D01*
X108539703Y-71200989D01*
X108656760Y-71113361D01*
X108744388Y-70996304D01*
X108795488Y-70859301D01*
X108801999Y-70798738D01*
X108801999Y-68898062D01*
X108795488Y-68837499D01*
X108744388Y-68700496D01*
X108744387Y-68700494D01*
X108656760Y-68583438D01*
X108539704Y-68495811D01*
X108471201Y-68470260D01*
X108402700Y-68444711D01*
X108342137Y-68438200D01*
X106441461Y-68438200D01*
X106380898Y-68444711D01*
X106243893Y-68495811D01*
X106126837Y-68583438D01*
X106039210Y-68700494D01*
X105988110Y-68837499D01*
X105981599Y-68898062D01*
X105981599Y-70798738D01*
X98723801Y-70798738D01*
X98723801Y-67704000D01*
X125910693Y-67704000D01*
X125929885Y-67923375D01*
X125986879Y-68136074D01*
X126079943Y-68335653D01*
X126206253Y-68516041D01*
X126361958Y-68671746D01*
X126361961Y-68671748D01*
X126361962Y-68671749D01*
X126542346Y-68798056D01*
X126741924Y-68891120D01*
X126767832Y-68898062D01*
X126954624Y-68948114D01*
X126954625Y-68948114D01*
X126954629Y-68948115D01*
X127174000Y-68967307D01*
X127393371Y-68948115D01*
X127606076Y-68891120D01*
X127805654Y-68798056D01*
X127986038Y-68671749D01*
X128141749Y-68516038D01*
X128268056Y-68335654D01*
X128361120Y-68136076D01*
X128418115Y-67923371D01*
X128437307Y-67704000D01*
X128437307Y-67703999D01*
X133810693Y-67703999D01*
X133829885Y-67923375D01*
X133886879Y-68136074D01*
X133979943Y-68335653D01*
X134106253Y-68516041D01*
X134261958Y-68671746D01*
X134261961Y-68671748D01*
X134261962Y-68671749D01*
X134442346Y-68798056D01*
X134641924Y-68891120D01*
X134667832Y-68898062D01*
X134854624Y-68948114D01*
X134854625Y-68948114D01*
X134854629Y-68948115D01*
X135074000Y-68967307D01*
X135293371Y-68948115D01*
X135506076Y-68891120D01*
X135705654Y-68798056D01*
X135886038Y-68671749D01*
X136041749Y-68516038D01*
X136168056Y-68335654D01*
X136261120Y-68136076D01*
X136318115Y-67923371D01*
X136337307Y-67704000D01*
X136318115Y-67484629D01*
X136261120Y-67271924D01*
X136168056Y-67072347D01*
X136041749Y-66891962D01*
X136041748Y-66891961D01*
X136041746Y-66891958D01*
X135886041Y-66736253D01*
X135705653Y-66609943D01*
X135506074Y-66516879D01*
X135293375Y-66459885D01*
X135074000Y-66440693D01*
X134854624Y-66459885D01*
X134641925Y-66516879D01*
X134442347Y-66609943D01*
X134261958Y-66736253D01*
X134106253Y-66891958D01*
X133979943Y-67072347D01*
X133886879Y-67271925D01*
X133829885Y-67484624D01*
X133810693Y-67703999D01*
X128437307Y-67703999D01*
X128418115Y-67484629D01*
X128361120Y-67271924D01*
X128268056Y-67072347D01*
X128141749Y-66891962D01*
X128141748Y-66891961D01*
X128141746Y-66891958D01*
X127986041Y-66736253D01*
X127805653Y-66609943D01*
X127606074Y-66516879D01*
X127393375Y-66459885D01*
X127174000Y-66440693D01*
X126954624Y-66459885D01*
X126741925Y-66516879D01*
X126542347Y-66609943D01*
X126361958Y-66736253D01*
X126206253Y-66891958D01*
X126079943Y-67072347D01*
X125986879Y-67271925D01*
X125929885Y-67484624D01*
X125910693Y-67704000D01*
X98723801Y-67704000D01*
X98723801Y-64523872D01*
X158487853Y-64523872D01*
X158489061Y-64533703D01*
X158490000Y-64549060D01*
X158490000Y-76016146D01*
X158504689Y-76226212D01*
X158534107Y-76364610D01*
X158563092Y-76500975D01*
X158659160Y-76764921D01*
X158667152Y-76779951D01*
X158681900Y-76839104D01*
X158681900Y-77302738D01*
X158688411Y-77363300D01*
X158739511Y-77500305D01*
X158827138Y-77617361D01*
X158944194Y-77704988D01*
X158944195Y-77704988D01*
X158944196Y-77704989D01*
X159081199Y-77756089D01*
X159141762Y-77762600D01*
X159608626Y-77762600D01*
X159655824Y-77771774D01*
X159757359Y-77812797D01*
X159876326Y-77860863D01*
X160147419Y-77928453D01*
X160148876Y-77928817D01*
X160428233Y-77958178D01*
X160428235Y-77958177D01*
X160428236Y-77958178D01*
X160548543Y-77953976D01*
X160708958Y-77948375D01*
X160985587Y-77899598D01*
X161252735Y-77812797D01*
X161313827Y-77783000D01*
X182096372Y-77783000D01*
X182116854Y-78043249D01*
X182177796Y-78297090D01*
X182265522Y-78508878D01*
X182277697Y-78538271D01*
X182414097Y-78760856D01*
X182414098Y-78760858D01*
X182414100Y-78760860D01*
X182583636Y-78959363D01*
X182782139Y-79128899D01*
X182782144Y-79128903D01*
X183004729Y-79265303D01*
X183245911Y-79365204D01*
X183499751Y-79426146D01*
X183760000Y-79446628D01*
X184020249Y-79426146D01*
X184274089Y-79365204D01*
X184515271Y-79265303D01*
X184737856Y-79128903D01*
X184936363Y-78959363D01*
X185105903Y-78760856D01*
X185242303Y-78538271D01*
X185342204Y-78297089D01*
X185403146Y-78043249D01*
X185423628Y-77783000D01*
X185403146Y-77522751D01*
X185342204Y-77268911D01*
X185242303Y-77027729D01*
X185105903Y-76805144D01*
X185105899Y-76805139D01*
X184936363Y-76606636D01*
X184737860Y-76437100D01*
X184737858Y-76437098D01*
X184737856Y-76437097D01*
X184515271Y-76300697D01*
X184335449Y-76226212D01*
X184274090Y-76200796D01*
X184020249Y-76139854D01*
X183760000Y-76119372D01*
X183759999Y-76119372D01*
X183499750Y-76139854D01*
X183245909Y-76200796D01*
X183004730Y-76300696D01*
X182782139Y-76437100D01*
X182583636Y-76606636D01*
X182414100Y-76805139D01*
X182277696Y-77027730D01*
X182177796Y-77268909D01*
X182116854Y-77522750D01*
X182096372Y-77783000D01*
X161313827Y-77783000D01*
X161329509Y-77775351D01*
X161384743Y-77762600D01*
X161855238Y-77762600D01*
X161915801Y-77756089D01*
X162052804Y-77704989D01*
X162169861Y-77617361D01*
X162257489Y-77500304D01*
X162308589Y-77363301D01*
X162315100Y-77302738D01*
X162315100Y-76830718D01*
X162325993Y-76779469D01*
X162332470Y-76764921D01*
X162390482Y-76634625D01*
X162467907Y-76364610D01*
X162507000Y-76086448D01*
X162507000Y-65302639D01*
X162516591Y-65254421D01*
X162543904Y-65213544D01*
X162604010Y-65153438D01*
X182101500Y-65153438D01*
X182108011Y-65214000D01*
X182159111Y-65351005D01*
X182246738Y-65468061D01*
X182363794Y-65555688D01*
X182363795Y-65555688D01*
X182363796Y-65555689D01*
X182500799Y-65606789D01*
X182561362Y-65613300D01*
X184958638Y-65613300D01*
X185019201Y-65606789D01*
X185156204Y-65555689D01*
X185273261Y-65468061D01*
X185360889Y-65351004D01*
X185411989Y-65214001D01*
X185418500Y-65153438D01*
X185418500Y-62756162D01*
X185411989Y-62695599D01*
X185360889Y-62558596D01*
X185360888Y-62558594D01*
X185273261Y-62441538D01*
X185156205Y-62353911D01*
X185087702Y-62328360D01*
X185019201Y-62302811D01*
X184958638Y-62296300D01*
X182561362Y-62296300D01*
X182500799Y-62302811D01*
X182363794Y-62353911D01*
X182246738Y-62441538D01*
X182159111Y-62558594D01*
X182108011Y-62695599D01*
X182101500Y-62756162D01*
X182101500Y-65153438D01*
X162604010Y-65153438D01*
X163355042Y-64402405D01*
X163395920Y-64375091D01*
X163444138Y-64365500D01*
X163870147Y-64365500D01*
X163881030Y-64364738D01*
X164080212Y-64350811D01*
X164354970Y-64292409D01*
X164618926Y-64196337D01*
X164866942Y-64064464D01*
X165094192Y-63899358D01*
X165296252Y-63704231D01*
X165469188Y-63482882D01*
X165609636Y-63239619D01*
X165609637Y-63239618D01*
X165714862Y-62979176D01*
X165782816Y-62706627D01*
X165782817Y-62706624D01*
X165812178Y-62427267D01*
X165802375Y-62146542D01*
X165753598Y-61869913D01*
X165666797Y-61602765D01*
X165605228Y-61476531D01*
X165543660Y-61350297D01*
X165386585Y-61117424D01*
X165198629Y-60908678D01*
X164983449Y-60728120D01*
X164857687Y-60649536D01*
X164745236Y-60579269D01*
X164488625Y-60465018D01*
X164488622Y-60465017D01*
X164218612Y-60387593D01*
X163983944Y-60354613D01*
X163940448Y-60348500D01*
X163940447Y-60348500D01*
X162615890Y-60348500D01*
X162609296Y-60348327D01*
X162524865Y-60343902D01*
X162524863Y-60343902D01*
X162486647Y-60347244D01*
X162403491Y-60354519D01*
X162401302Y-60354691D01*
X162279791Y-60363188D01*
X162270098Y-60365248D01*
X162254901Y-60367519D01*
X162245034Y-60368382D01*
X162126305Y-60395793D01*
X162124159Y-60396268D01*
X162005031Y-60421589D01*
X161995719Y-60424979D01*
X161980976Y-60429346D01*
X161971343Y-60431570D01*
X161971338Y-60431571D01*
X161971337Y-60431572D01*
X161884208Y-60465017D01*
X161857628Y-60475220D01*
X161855570Y-60475989D01*
X161741073Y-60517663D01*
X161732333Y-60522310D01*
X161718350Y-60528682D01*
X161709106Y-60532231D01*
X161709100Y-60532234D01*
X161709098Y-60532235D01*
X161673453Y-60551993D01*
X161602542Y-60591299D01*
X161600612Y-60592346D01*
X161493056Y-60649536D01*
X161485038Y-60655361D01*
X161472082Y-60663615D01*
X161463423Y-60668415D01*
X161366168Y-60741701D01*
X161364402Y-60743007D01*
X161265809Y-60814640D01*
X161258676Y-60821528D01*
X161246991Y-60831507D01*
X161239087Y-60837463D01*
X161152953Y-60923596D01*
X161151387Y-60925136D01*
X161063745Y-61009771D01*
X161057645Y-61017579D01*
X161047456Y-61029094D01*
X159117815Y-62958735D01*
X159113033Y-62963274D01*
X159050178Y-63019871D01*
X158971876Y-63113186D01*
X158970449Y-63114857D01*
X158890521Y-63206805D01*
X158885127Y-63215110D01*
X158875988Y-63227461D01*
X158869619Y-63235051D01*
X158805054Y-63338375D01*
X158803874Y-63340227D01*
X158737536Y-63442380D01*
X158733353Y-63451352D01*
X158726015Y-63464868D01*
X158720768Y-63473265D01*
X158671228Y-63584531D01*
X158670317Y-63586530D01*
X158618822Y-63696962D01*
X158615924Y-63706440D01*
X158610547Y-63720822D01*
X158606520Y-63729868D01*
X158572939Y-63846975D01*
X158572315Y-63849080D01*
X158536698Y-63965582D01*
X158535150Y-63975359D01*
X158531823Y-63990365D01*
X158529094Y-63999884D01*
X158512142Y-64120495D01*
X158511817Y-64122668D01*
X158492755Y-64243020D01*
X158492582Y-64252932D01*
X158491376Y-64268248D01*
X158490000Y-64278046D01*
X158490000Y-64399811D01*
X158489981Y-64402010D01*
X158487853Y-64523872D01*
X98723801Y-64523872D01*
X98723801Y-59690000D01*
X115257807Y-59690000D01*
X115276557Y-59964124D01*
X115276557Y-59964128D01*
X115276558Y-59964130D01*
X115332462Y-60233153D01*
X115332463Y-60233155D01*
X115424476Y-60492057D01*
X115550889Y-60736024D01*
X115684379Y-60925136D01*
X115709343Y-60960502D01*
X115896889Y-61161314D01*
X116110031Y-61334718D01*
X116344800Y-61477484D01*
X116596823Y-61586953D01*
X116861404Y-61661085D01*
X116861410Y-61661085D01*
X116861411Y-61661086D01*
X117133612Y-61698500D01*
X117133615Y-61698500D01*
X117408385Y-61698500D01*
X117408388Y-61698500D01*
X117627636Y-61668364D01*
X117680596Y-61661085D01*
X117945177Y-61586953D01*
X118197200Y-61477484D01*
X118431969Y-61334718D01*
X118645111Y-61161314D01*
X118832657Y-60960502D01*
X118991111Y-60736023D01*
X119117523Y-60492058D01*
X119209538Y-60233153D01*
X119265442Y-59964130D01*
X119284193Y-59690000D01*
X122877807Y-59690000D01*
X122896557Y-59964124D01*
X122896557Y-59964128D01*
X122896558Y-59964130D01*
X122952462Y-60233153D01*
X122952463Y-60233155D01*
X123044476Y-60492057D01*
X123170889Y-60736024D01*
X123304379Y-60925136D01*
X123329343Y-60960502D01*
X123516889Y-61161314D01*
X123730031Y-61334718D01*
X123964800Y-61477484D01*
X124216823Y-61586953D01*
X124481404Y-61661085D01*
X124481410Y-61661085D01*
X124481411Y-61661086D01*
X124753612Y-61698500D01*
X124753615Y-61698500D01*
X125028385Y-61698500D01*
X125028388Y-61698500D01*
X125247636Y-61668364D01*
X125300596Y-61661085D01*
X125565177Y-61586953D01*
X125817200Y-61477484D01*
X126051969Y-61334718D01*
X126265111Y-61161314D01*
X126452657Y-60960502D01*
X126611111Y-60736023D01*
X126731006Y-60504636D01*
X141852500Y-60504636D01*
X141854672Y-60532231D01*
X141862970Y-60637670D01*
X141918321Y-60857338D01*
X142012005Y-61063590D01*
X142141015Y-61249804D01*
X142301195Y-61409984D01*
X142487409Y-61538994D01*
X142693661Y-61632678D01*
X142693662Y-61632678D01*
X142693664Y-61632679D01*
X142913331Y-61688030D01*
X143046364Y-61698500D01*
X144675631Y-61698500D01*
X144675636Y-61698500D01*
X144808669Y-61688030D01*
X145028336Y-61632679D01*
X145234591Y-61538994D01*
X145420802Y-61409986D01*
X145580986Y-61249802D01*
X145709994Y-61063591D01*
X145803679Y-60857336D01*
X145859030Y-60637669D01*
X145869500Y-60504636D01*
X149472500Y-60504636D01*
X149474672Y-60532231D01*
X149482970Y-60637670D01*
X149538321Y-60857338D01*
X149632005Y-61063590D01*
X149761015Y-61249804D01*
X149921195Y-61409984D01*
X150107409Y-61538994D01*
X150313661Y-61632678D01*
X150313662Y-61632678D01*
X150313664Y-61632679D01*
X150533331Y-61688030D01*
X150666364Y-61698500D01*
X152295631Y-61698500D01*
X152295636Y-61698500D01*
X152428669Y-61688030D01*
X152648336Y-61632679D01*
X152854591Y-61538994D01*
X153040802Y-61409986D01*
X153200986Y-61249802D01*
X153329994Y-61063591D01*
X153423679Y-60857336D01*
X153479030Y-60637669D01*
X153489500Y-60504636D01*
X153489500Y-59754799D01*
X182096372Y-59754799D01*
X182116854Y-60015049D01*
X182177796Y-60268890D01*
X182275446Y-60504636D01*
X182277697Y-60510071D01*
X182414097Y-60732656D01*
X182414098Y-60732658D01*
X182414100Y-60732660D01*
X182583636Y-60931163D01*
X182691920Y-61023645D01*
X182782144Y-61100703D01*
X183004729Y-61237103D01*
X183245911Y-61337004D01*
X183499751Y-61397946D01*
X183760000Y-61418428D01*
X184020249Y-61397946D01*
X184274089Y-61337004D01*
X184515271Y-61237103D01*
X184737856Y-61100703D01*
X184936363Y-60931163D01*
X185105903Y-60732656D01*
X185242303Y-60510071D01*
X185342204Y-60268889D01*
X185403146Y-60015049D01*
X185423628Y-59754800D01*
X185403146Y-59494551D01*
X185342204Y-59240711D01*
X185242303Y-58999529D01*
X185105903Y-58776944D01*
X185076341Y-58742331D01*
X184936363Y-58578436D01*
X184737860Y-58408900D01*
X184737858Y-58408898D01*
X184737856Y-58408897D01*
X184515271Y-58272497D01*
X184515269Y-58272496D01*
X184274090Y-58172596D01*
X184020249Y-58111654D01*
X183760000Y-58091172D01*
X183499750Y-58111654D01*
X183245909Y-58172596D01*
X183004730Y-58272496D01*
X182782139Y-58408900D01*
X182583636Y-58578436D01*
X182414100Y-58776939D01*
X182277696Y-58999530D01*
X182177796Y-59240709D01*
X182116854Y-59494550D01*
X182096372Y-59754799D01*
X153489500Y-59754799D01*
X153489500Y-58875364D01*
X153479030Y-58742331D01*
X153423679Y-58522664D01*
X153329994Y-58316409D01*
X153200986Y-58130198D01*
X153200984Y-58130195D01*
X153040804Y-57970015D01*
X152854590Y-57841005D01*
X152648338Y-57747321D01*
X152428670Y-57691970D01*
X152406496Y-57690224D01*
X152295636Y-57681500D01*
X150666364Y-57681500D01*
X150571340Y-57688978D01*
X150533329Y-57691970D01*
X150313661Y-57747321D01*
X150107409Y-57841005D01*
X149921195Y-57970015D01*
X149761015Y-58130195D01*
X149632005Y-58316409D01*
X149538321Y-58522661D01*
X149482970Y-58742329D01*
X149482969Y-58742331D01*
X149482970Y-58742331D01*
X149472500Y-58875364D01*
X149472500Y-60504636D01*
X145869500Y-60504636D01*
X145869500Y-58875364D01*
X145859030Y-58742331D01*
X145803679Y-58522664D01*
X145709994Y-58316409D01*
X145580986Y-58130198D01*
X145580984Y-58130195D01*
X145420804Y-57970015D01*
X145234590Y-57841005D01*
X145028338Y-57747321D01*
X144808670Y-57691970D01*
X144786496Y-57690224D01*
X144675636Y-57681500D01*
X143046364Y-57681500D01*
X142951340Y-57688978D01*
X142913329Y-57691970D01*
X142693661Y-57747321D01*
X142487409Y-57841005D01*
X142301195Y-57970015D01*
X142141015Y-58130195D01*
X142012005Y-58316409D01*
X141918321Y-58522661D01*
X141862970Y-58742329D01*
X141862969Y-58742331D01*
X141862970Y-58742331D01*
X141852500Y-58875364D01*
X141852500Y-60504636D01*
X126731006Y-60504636D01*
X126737523Y-60492058D01*
X126829538Y-60233153D01*
X126885442Y-59964130D01*
X126904193Y-59690000D01*
X126885442Y-59415870D01*
X126829538Y-59146847D01*
X126737523Y-58887942D01*
X126611111Y-58643977D01*
X126452657Y-58419498D01*
X126265111Y-58218686D01*
X126051969Y-58045282D01*
X125817200Y-57902516D01*
X125565177Y-57793047D01*
X125300596Y-57718915D01*
X125300594Y-57718914D01*
X125300588Y-57718913D01*
X125028388Y-57681500D01*
X125028385Y-57681500D01*
X124753615Y-57681500D01*
X124753612Y-57681500D01*
X124481411Y-57718913D01*
X124481403Y-57718915D01*
X124481404Y-57718915D01*
X124216823Y-57793047D01*
X124216821Y-57793047D01*
X124216820Y-57793048D01*
X123964801Y-57902515D01*
X123730030Y-58045282D01*
X123516887Y-58218687D01*
X123329343Y-58419497D01*
X123170889Y-58643975D01*
X123044476Y-58887942D01*
X122952463Y-59146844D01*
X122896557Y-59415875D01*
X122877807Y-59690000D01*
X119284193Y-59690000D01*
X119265442Y-59415870D01*
X119209538Y-59146847D01*
X119117523Y-58887942D01*
X118991111Y-58643977D01*
X118832657Y-58419498D01*
X118645111Y-58218686D01*
X118431969Y-58045282D01*
X118197200Y-57902516D01*
X117945177Y-57793047D01*
X117680596Y-57718915D01*
X117680594Y-57718914D01*
X117680588Y-57718913D01*
X117408388Y-57681500D01*
X117408385Y-57681500D01*
X117133615Y-57681500D01*
X117133612Y-57681500D01*
X116861411Y-57718913D01*
X116861403Y-57718915D01*
X116861404Y-57718915D01*
X116596823Y-57793047D01*
X116596821Y-57793047D01*
X116596820Y-57793048D01*
X116344801Y-57902515D01*
X116110030Y-58045282D01*
X115896887Y-58218687D01*
X115709343Y-58419497D01*
X115550889Y-58643975D01*
X115424476Y-58887942D01*
X115332463Y-59146844D01*
X115276557Y-59415875D01*
X115257807Y-59690000D01*
X98723801Y-59690000D01*
X98723801Y-57692338D01*
X105981599Y-57692338D01*
X105988110Y-57752900D01*
X106039210Y-57889905D01*
X106126837Y-58006961D01*
X106243893Y-58094588D01*
X106243894Y-58094588D01*
X106243895Y-58094589D01*
X106380898Y-58145689D01*
X106441461Y-58152200D01*
X108342137Y-58152200D01*
X108402700Y-58145689D01*
X108539703Y-58094589D01*
X108656760Y-58006961D01*
X108744388Y-57889904D01*
X108795488Y-57752901D01*
X108801999Y-57692338D01*
X108801999Y-55791662D01*
X108795488Y-55731099D01*
X108744388Y-55594096D01*
X108744387Y-55594094D01*
X108714972Y-55554800D01*
X182096372Y-55554800D01*
X182116854Y-55815049D01*
X182177796Y-56068889D01*
X182277697Y-56310071D01*
X182414097Y-56532656D01*
X182414098Y-56532658D01*
X182414100Y-56532660D01*
X182583636Y-56731163D01*
X182782139Y-56900699D01*
X182782144Y-56900703D01*
X183004729Y-57037103D01*
X183245911Y-57137004D01*
X183499751Y-57197946D01*
X183760000Y-57218428D01*
X184020249Y-57197946D01*
X184274089Y-57137004D01*
X184515271Y-57037103D01*
X184737856Y-56900703D01*
X184936363Y-56731163D01*
X185105903Y-56532656D01*
X185242303Y-56310071D01*
X185342204Y-56068889D01*
X185403146Y-55815049D01*
X185423628Y-55554800D01*
X185403146Y-55294551D01*
X185342204Y-55040711D01*
X185242303Y-54799529D01*
X185105903Y-54576944D01*
X185105899Y-54576939D01*
X184936363Y-54378436D01*
X184737860Y-54208900D01*
X184737858Y-54208898D01*
X184737856Y-54208897D01*
X184515271Y-54072497D01*
X184515269Y-54072496D01*
X184274090Y-53972596D01*
X184020249Y-53911654D01*
X183760000Y-53891172D01*
X183499750Y-53911654D01*
X183245909Y-53972596D01*
X183004730Y-54072496D01*
X182782139Y-54208900D01*
X182583636Y-54378436D01*
X182414100Y-54576939D01*
X182277696Y-54799530D01*
X182177796Y-55040709D01*
X182177796Y-55040711D01*
X182116854Y-55294551D01*
X182096372Y-55554800D01*
X108714972Y-55554800D01*
X108656760Y-55477038D01*
X108539704Y-55389411D01*
X108471201Y-55363860D01*
X108402700Y-55338311D01*
X108342137Y-55331800D01*
X106441461Y-55331800D01*
X106380898Y-55338311D01*
X106243893Y-55389411D01*
X106126837Y-55477038D01*
X106039210Y-55594094D01*
X105988110Y-55731099D01*
X105981599Y-55791662D01*
X105981599Y-57692338D01*
X98723801Y-57692338D01*
X98723801Y-48896337D01*
X143967800Y-48896337D01*
X143974311Y-48956899D01*
X144025411Y-49093904D01*
X144113038Y-49210960D01*
X144230094Y-49298587D01*
X144230095Y-49298587D01*
X144230096Y-49298588D01*
X144367099Y-49349688D01*
X144427662Y-49356199D01*
X146328338Y-49356199D01*
X146388901Y-49349688D01*
X146525904Y-49298588D01*
X146642961Y-49210960D01*
X146730589Y-49093903D01*
X146781689Y-48956900D01*
X146788200Y-48896337D01*
X146788200Y-47945999D01*
X148962967Y-47945999D01*
X148982266Y-48178906D01*
X148982266Y-48178909D01*
X148982267Y-48178910D01*
X149039636Y-48405458D01*
X149133516Y-48619480D01*
X149261340Y-48815131D01*
X149419620Y-48987069D01*
X149419624Y-48987073D01*
X149556880Y-49093903D01*
X149604051Y-49130618D01*
X149809587Y-49241847D01*
X149809588Y-49241848D01*
X150030630Y-49317732D01*
X150145889Y-49336965D01*
X150261145Y-49356199D01*
X150261148Y-49356199D01*
X150494852Y-49356199D01*
X150494855Y-49356199D01*
X150593645Y-49339713D01*
X150725370Y-49317732D01*
X150946412Y-49241848D01*
X151151950Y-49130617D01*
X151336376Y-48987073D01*
X151494660Y-48815130D01*
X151622484Y-48619480D01*
X151716363Y-48405459D01*
X151773734Y-48178906D01*
X151793033Y-47945999D01*
X153962967Y-47945999D01*
X153982266Y-48178906D01*
X153982266Y-48178909D01*
X153982267Y-48178910D01*
X154039636Y-48405458D01*
X154133516Y-48619480D01*
X154261340Y-48815131D01*
X154419620Y-48987069D01*
X154419624Y-48987073D01*
X154556880Y-49093903D01*
X154604051Y-49130618D01*
X154809587Y-49241847D01*
X154809588Y-49241848D01*
X155030630Y-49317732D01*
X155145889Y-49336965D01*
X155261145Y-49356199D01*
X155261148Y-49356199D01*
X155494852Y-49356199D01*
X155494855Y-49356199D01*
X155593645Y-49339713D01*
X155725370Y-49317732D01*
X155946412Y-49241848D01*
X156151950Y-49130617D01*
X156336376Y-48987073D01*
X156494660Y-48815130D01*
X156622484Y-48619480D01*
X156716363Y-48405459D01*
X156773734Y-48178906D01*
X156793033Y-47945999D01*
X156773734Y-47713092D01*
X156716363Y-47486539D01*
X156622484Y-47272518D01*
X156494660Y-47076868D01*
X156494659Y-47076866D01*
X156336379Y-46904928D01*
X156336378Y-46904927D01*
X156336376Y-46904925D01*
X156225720Y-46818798D01*
X156151948Y-46761379D01*
X155946411Y-46650149D01*
X155781134Y-46593410D01*
X155725370Y-46574266D01*
X155725367Y-46574265D01*
X155725366Y-46574265D01*
X155494855Y-46535799D01*
X155494852Y-46535799D01*
X155261148Y-46535799D01*
X155261145Y-46535799D01*
X155030633Y-46574265D01*
X154809588Y-46650149D01*
X154604051Y-46761379D01*
X154419620Y-46904928D01*
X154261340Y-47076866D01*
X154133516Y-47272517D01*
X154039636Y-47486539D01*
X153982267Y-47713087D01*
X153982266Y-47713092D01*
X153962967Y-47945999D01*
X151793033Y-47945999D01*
X151773734Y-47713092D01*
X151716363Y-47486539D01*
X151622484Y-47272518D01*
X151494660Y-47076868D01*
X151494659Y-47076866D01*
X151336379Y-46904928D01*
X151336378Y-46904927D01*
X151336376Y-46904925D01*
X151225720Y-46818798D01*
X151151948Y-46761379D01*
X150946411Y-46650149D01*
X150781134Y-46593410D01*
X150725370Y-46574266D01*
X150725367Y-46574265D01*
X150725366Y-46574265D01*
X150494855Y-46535799D01*
X150494852Y-46535799D01*
X150261148Y-46535799D01*
X150261145Y-46535799D01*
X150030633Y-46574265D01*
X149809588Y-46650149D01*
X149604051Y-46761379D01*
X149419620Y-46904928D01*
X149261340Y-47076866D01*
X149133516Y-47272517D01*
X149039636Y-47486539D01*
X148982267Y-47713087D01*
X148982266Y-47713092D01*
X148962967Y-47945999D01*
X146788200Y-47945999D01*
X146788200Y-46995661D01*
X146781689Y-46935098D01*
X146730589Y-46798095D01*
X146730588Y-46798093D01*
X146642961Y-46681037D01*
X146525905Y-46593410D01*
X146457402Y-46567859D01*
X146388901Y-46542310D01*
X146328338Y-46535799D01*
X144427662Y-46535799D01*
X144367099Y-46542310D01*
X144230094Y-46593410D01*
X144113038Y-46681037D01*
X144025411Y-46798093D01*
X143974311Y-46935098D01*
X143967800Y-46995661D01*
X143967800Y-48896337D01*
X98723801Y-48896337D01*
X98723801Y-43949833D01*
X98742715Y-43883437D01*
X98793777Y-43836973D01*
X98861659Y-43824392D01*
X98925981Y-43849470D01*
X98967432Y-43904679D01*
X98983465Y-43946448D01*
X99159938Y-44292795D01*
X99371643Y-44618793D01*
X99616270Y-44920881D01*
X99891118Y-45195729D01*
X99891123Y-45195733D01*
X99891124Y-45195734D01*
X100193207Y-45440357D01*
X100519205Y-45652062D01*
X100865547Y-45828532D01*
X101228438Y-45967833D01*
X101603901Y-46068438D01*
X101987824Y-46129246D01*
X102376000Y-46149589D01*
X102764176Y-46129246D01*
X103148099Y-46068438D01*
X103523562Y-45967833D01*
X103886453Y-45828532D01*
X104232795Y-45652062D01*
X104558793Y-45440357D01*
X104860876Y-45195734D01*
X105135734Y-44920876D01*
X105380357Y-44618793D01*
X105592062Y-44292795D01*
X105768532Y-43946453D01*
X105907833Y-43583562D01*
X106008438Y-43208099D01*
X106069246Y-42824176D01*
X106089589Y-42436000D01*
X106069246Y-42047824D01*
X106008438Y-41663901D01*
X105907833Y-41288438D01*
X105768532Y-40925547D01*
X105592062Y-40579206D01*
X105380357Y-40253207D01*
X105135734Y-39951124D01*
X105135733Y-39951123D01*
X105135729Y-39951118D01*
X104860881Y-39676270D01*
X104558793Y-39431643D01*
X104232795Y-39219938D01*
X103886451Y-39043467D01*
X103732397Y-38984331D01*
X103677189Y-38942879D01*
X103652111Y-38878558D01*
X103664692Y-38810676D01*
X103711156Y-38759613D01*
X103777552Y-38740700D01*
X187527557Y-38740700D01*
X187593953Y-38759614D01*
G37*
G04 #@! TD.AperFunction*
M02*
