G04 #@! TF.GenerationSoftware,KiCad,Pcbnew,(6.0.10)*
G04 #@! TF.CreationDate,2023-01-26T21:45:49-05:00*
G04 #@! TF.ProjectId,Input,496e7075-742e-46b6-9963-61645f706362,rev?*
G04 #@! TF.SameCoordinates,Original*
G04 #@! TF.FileFunction,Legend,Bot*
G04 #@! TF.FilePolarity,Positive*
%FSLAX46Y46*%
G04 Gerber Fmt 4.6, Leading zero omitted, Abs format (unit mm)*
G04 Created by KiCad (PCBNEW (6.0.10)) date 2023-01-26 21:45:49*
%MOMM*%
%LPD*%
G01*
G04 APERTURE LIST*
G04 Aperture macros list*
%AMRoundRect*
0 Rectangle with rounded corners*
0 $1 Rounding radius*
0 $2 $3 $4 $5 $6 $7 $8 $9 X,Y pos of 4 corners*
0 Add a 4 corners polygon primitive as box body*
4,1,4,$2,$3,$4,$5,$6,$7,$8,$9,$2,$3,0*
0 Add four circle primitives for the rounded corners*
1,1,$1+$1,$2,$3*
1,1,$1+$1,$4,$5*
1,1,$1+$1,$6,$7*
1,1,$1+$1,$8,$9*
0 Add four rect primitives between the rounded corners*
20,1,$1+$1,$2,$3,$4,$5,0*
20,1,$1+$1,$4,$5,$6,$7,0*
20,1,$1+$1,$6,$7,$8,$9,0*
20,1,$1+$1,$8,$9,$2,$3,0*%
G04 Aperture macros list end*
%ADD10C,0.150000*%
%ADD11C,0.120000*%
%ADD12C,1.026200*%
%ADD13C,1.576200*%
%ADD14C,0.010000*%
%ADD15C,1.226200*%
%ADD16R,2.030000X1.730000*%
%ADD17O,2.030000X1.730000*%
%ADD18R,1.600000X1.600000*%
%ADD19C,1.600000*%
%ADD20RoundRect,0.750000X-0.750000X-0.750000X0.750000X-0.750000X0.750000X0.750000X-0.750000X0.750000X0*%
%ADD21C,3.000000*%
%ADD22C,6.400000*%
%ADD23RoundRect,0.750000X0.750000X0.750000X-0.750000X0.750000X-0.750000X-0.750000X0.750000X-0.750000X0*%
%ADD24R,1.803400X1.803400*%
%ADD25C,1.803400*%
%ADD26R,2.400000X2.400000*%
%ADD27C,2.400000*%
%ADD28R,2.616200X2.616200*%
%ADD29C,2.616200*%
%ADD30C,1.676400*%
%ADD31C,2.641600*%
%ADD32C,1.500000*%
%ADD33R,0.650000X1.560000*%
%ADD34RoundRect,0.250000X-0.475000X0.337500X-0.475000X-0.337500X0.475000X-0.337500X0.475000X0.337500X0*%
%ADD35R,2.300000X3.500000*%
%ADD36R,3.500000X2.300000*%
%ADD37RoundRect,0.249999X-1.425001X0.450001X-1.425001X-0.450001X1.425001X-0.450001X1.425001X0.450001X0*%
G04 APERTURE END LIST*
D10*
X118617904Y-102208380D02*
X118617904Y-103017904D01*
X118570285Y-103113142D01*
X118522666Y-103160761D01*
X118427428Y-103208380D01*
X118236952Y-103208380D01*
X118141714Y-103160761D01*
X118094095Y-103113142D01*
X118046476Y-103017904D01*
X118046476Y-102208380D01*
X117617904Y-102303619D02*
X117570285Y-102256000D01*
X117475047Y-102208380D01*
X117236952Y-102208380D01*
X117141714Y-102256000D01*
X117094095Y-102303619D01*
X117046476Y-102398857D01*
X117046476Y-102494095D01*
X117094095Y-102636952D01*
X117665523Y-103208380D01*
X117046476Y-103208380D01*
X112942666Y-103100142D02*
X112990285Y-103147761D01*
X113133142Y-103195380D01*
X113228380Y-103195380D01*
X113371238Y-103147761D01*
X113466476Y-103052523D01*
X113514095Y-102957285D01*
X113561714Y-102766809D01*
X113561714Y-102623952D01*
X113514095Y-102433476D01*
X113466476Y-102338238D01*
X113371238Y-102243000D01*
X113228380Y-102195380D01*
X113133142Y-102195380D01*
X112990285Y-102243000D01*
X112942666Y-102290619D01*
X112371238Y-102623952D02*
X112466476Y-102576333D01*
X112514095Y-102528714D01*
X112561714Y-102433476D01*
X112561714Y-102385857D01*
X112514095Y-102290619D01*
X112466476Y-102243000D01*
X112371238Y-102195380D01*
X112180761Y-102195380D01*
X112085523Y-102243000D01*
X112037904Y-102290619D01*
X111990285Y-102385857D01*
X111990285Y-102433476D01*
X112037904Y-102528714D01*
X112085523Y-102576333D01*
X112180761Y-102623952D01*
X112371238Y-102623952D01*
X112466476Y-102671571D01*
X112514095Y-102719190D01*
X112561714Y-102814428D01*
X112561714Y-103004904D01*
X112514095Y-103100142D01*
X112466476Y-103147761D01*
X112371238Y-103195380D01*
X112180761Y-103195380D01*
X112085523Y-103147761D01*
X112037904Y-103100142D01*
X111990285Y-103004904D01*
X111990285Y-102814428D01*
X112037904Y-102719190D01*
X112085523Y-102671571D01*
X112180761Y-102623952D01*
X115572380Y-82967904D02*
X114572380Y-82967904D01*
X114572380Y-83206000D01*
X114620000Y-83348857D01*
X114715238Y-83444095D01*
X114810476Y-83491714D01*
X115000952Y-83539333D01*
X115143809Y-83539333D01*
X115334285Y-83491714D01*
X115429523Y-83444095D01*
X115524761Y-83348857D01*
X115572380Y-83206000D01*
X115572380Y-82967904D01*
X115572380Y-84491714D02*
X115572380Y-83920285D01*
X115572380Y-84206000D02*
X114572380Y-84206000D01*
X114715238Y-84110761D01*
X114810476Y-84015523D01*
X114858095Y-83920285D01*
X128510095Y-78174380D02*
X128510095Y-77174380D01*
X128272000Y-77174380D01*
X128129142Y-77222000D01*
X128033904Y-77317238D01*
X127986285Y-77412476D01*
X127938666Y-77602952D01*
X127938666Y-77745809D01*
X127986285Y-77936285D01*
X128033904Y-78031523D01*
X128129142Y-78126761D01*
X128272000Y-78174380D01*
X128510095Y-78174380D01*
X127557714Y-77269619D02*
X127510095Y-77222000D01*
X127414857Y-77174380D01*
X127176761Y-77174380D01*
X127081523Y-77222000D01*
X127033904Y-77269619D01*
X126986285Y-77364857D01*
X126986285Y-77460095D01*
X127033904Y-77602952D01*
X127605333Y-78174380D01*
X126986285Y-78174380D01*
X134532666Y-119369142D02*
X134580285Y-119416761D01*
X134723142Y-119464380D01*
X134818380Y-119464380D01*
X134961238Y-119416761D01*
X135056476Y-119321523D01*
X135104095Y-119226285D01*
X135151714Y-119035809D01*
X135151714Y-118892952D01*
X135104095Y-118702476D01*
X135056476Y-118607238D01*
X134961238Y-118512000D01*
X134818380Y-118464380D01*
X134723142Y-118464380D01*
X134580285Y-118512000D01*
X134532666Y-118559619D01*
X134199333Y-118464380D02*
X133532666Y-118464380D01*
X133961238Y-119464380D01*
X123572380Y-98779333D02*
X123096190Y-98446000D01*
X123572380Y-98207904D02*
X122572380Y-98207904D01*
X122572380Y-98588857D01*
X122620000Y-98684095D01*
X122667619Y-98731714D01*
X122762857Y-98779333D01*
X122905714Y-98779333D01*
X123000952Y-98731714D01*
X123048571Y-98684095D01*
X123096190Y-98588857D01*
X123096190Y-98207904D01*
X123572380Y-99731714D02*
X123572380Y-99160285D01*
X123572380Y-99446000D02*
X122572380Y-99446000D01*
X122715238Y-99350761D01*
X122810476Y-99255523D01*
X122858095Y-99160285D01*
X145416380Y-115035333D02*
X144940190Y-114702000D01*
X145416380Y-114463904D02*
X144416380Y-114463904D01*
X144416380Y-114844857D01*
X144464000Y-114940095D01*
X144511619Y-114987714D01*
X144606857Y-115035333D01*
X144749714Y-115035333D01*
X144844952Y-114987714D01*
X144892571Y-114940095D01*
X144940190Y-114844857D01*
X144940190Y-114463904D01*
X144749714Y-115892476D02*
X145416380Y-115892476D01*
X144368761Y-115654380D02*
X145083047Y-115416285D01*
X145083047Y-116035333D01*
X139455904Y-118464380D02*
X139455904Y-119273904D01*
X139408285Y-119369142D01*
X139360666Y-119416761D01*
X139265428Y-119464380D01*
X139074952Y-119464380D01*
X138979714Y-119416761D01*
X138932095Y-119369142D01*
X138884476Y-119273904D01*
X138884476Y-118464380D01*
X137884476Y-119464380D02*
X138455904Y-119464380D01*
X138170190Y-119464380D02*
X138170190Y-118464380D01*
X138265428Y-118607238D01*
X138360666Y-118702476D01*
X138455904Y-118750095D01*
D11*
X116246000Y-100007500D02*
X116246000Y-97557500D01*
X119466000Y-98207500D02*
X119466000Y-100007500D01*
X112041000Y-99687748D02*
X112041000Y-100210252D01*
X113511000Y-99687748D02*
X113511000Y-100210252D01*
X115970000Y-79106000D02*
X115970000Y-86406000D01*
X120270000Y-79106000D02*
X120270000Y-86406000D01*
X115970000Y-79106000D02*
X120270000Y-79106000D01*
X123172000Y-76872000D02*
X130472000Y-76872000D01*
X123172000Y-72572000D02*
X130472000Y-72572000D01*
X123172000Y-76872000D02*
X123172000Y-72572000D01*
X133631000Y-115956748D02*
X133631000Y-116479252D01*
X135101000Y-115956748D02*
X135101000Y-116479252D01*
X127450000Y-96768936D02*
X127450000Y-101123064D01*
X124030000Y-96768936D02*
X124030000Y-101123064D01*
X145874000Y-113024936D02*
X145874000Y-117379064D01*
X149294000Y-113024936D02*
X149294000Y-117379064D01*
X140304000Y-114302000D02*
X140304000Y-116102000D01*
X137084000Y-116102000D02*
X137084000Y-113652000D01*
%LPC*%
D12*
X183559100Y-98362000D02*
G75*
G03*
X183559100Y-98362000I-513100J0D01*
G01*
X189059100Y-131962000D02*
G75*
G03*
X189059100Y-131962000I-513100J0D01*
G01*
X183559100Y-136162000D02*
G75*
G03*
X183559100Y-136162000I-513100J0D01*
G01*
X189059100Y-144562000D02*
G75*
G03*
X189059100Y-144562000I-513100J0D01*
G01*
X183559100Y-123562000D02*
G75*
G03*
X183559100Y-123562000I-513100J0D01*
G01*
X189059100Y-110962000D02*
G75*
G03*
X189059100Y-110962000I-513100J0D01*
G01*
X183559100Y-110962000D02*
G75*
G03*
X183559100Y-110962000I-513100J0D01*
G01*
X189059100Y-119362000D02*
G75*
G03*
X189059100Y-119362000I-513100J0D01*
G01*
X183559100Y-106762000D02*
G75*
G03*
X183559100Y-106762000I-513100J0D01*
G01*
X183559100Y-140362000D02*
G75*
G03*
X183559100Y-140362000I-513100J0D01*
G01*
X183559100Y-119362000D02*
G75*
G03*
X183559100Y-119362000I-513100J0D01*
G01*
X189059100Y-127762000D02*
G75*
G03*
X189059100Y-127762000I-513100J0D01*
G01*
X189059100Y-106762000D02*
G75*
G03*
X189059100Y-106762000I-513100J0D01*
G01*
X189059100Y-102562000D02*
G75*
G03*
X189059100Y-102562000I-513100J0D01*
G01*
X189059100Y-123562000D02*
G75*
G03*
X189059100Y-123562000I-513100J0D01*
G01*
X189059100Y-115162000D02*
G75*
G03*
X189059100Y-115162000I-513100J0D01*
G01*
X189059100Y-98362000D02*
G75*
G03*
X189059100Y-98362000I-513100J0D01*
G01*
X189059100Y-140362000D02*
G75*
G03*
X189059100Y-140362000I-513100J0D01*
G01*
X183559100Y-102562000D02*
G75*
G03*
X183559100Y-102562000I-513100J0D01*
G01*
D13*
X188874100Y-149262000D02*
G75*
G03*
X188874100Y-149262000I-788100J0D01*
G01*
D12*
X189059100Y-136162000D02*
G75*
G03*
X189059100Y-136162000I-513100J0D01*
G01*
X183559100Y-115162000D02*
G75*
G03*
X183559100Y-115162000I-513100J0D01*
G01*
X183559100Y-131962000D02*
G75*
G03*
X183559100Y-131962000I-513100J0D01*
G01*
D13*
X188874100Y-93662000D02*
G75*
G03*
X188874100Y-93662000I-788100J0D01*
G01*
D12*
X183559100Y-127762000D02*
G75*
G03*
X183559100Y-127762000I-513100J0D01*
G01*
G36*
X184072200Y-145588200D02*
G01*
X182019800Y-145588200D01*
X182019800Y-143535800D01*
X184072200Y-143535800D01*
X184072200Y-145588200D01*
G37*
D14*
X184072200Y-145588200D02*
X182019800Y-145588200D01*
X182019800Y-143535800D01*
X184072200Y-143535800D01*
X184072200Y-145588200D01*
D15*
X188573100Y-51354800D02*
G75*
G03*
X188573100Y-51354800I-613100J0D01*
G01*
X184373100Y-51354800D02*
G75*
G03*
X184373100Y-51354800I-613100J0D01*
G01*
X184373100Y-59754800D02*
G75*
G03*
X184373100Y-59754800I-613100J0D01*
G01*
X188573100Y-59754800D02*
G75*
G03*
X188573100Y-59754800I-613100J0D01*
G01*
X184373100Y-55554800D02*
G75*
G03*
X184373100Y-55554800I-613100J0D01*
G01*
X188573100Y-63954800D02*
G75*
G03*
X188573100Y-63954800I-613100J0D01*
G01*
X188573100Y-55554800D02*
G75*
G03*
X188573100Y-55554800I-613100J0D01*
G01*
G36*
X184986200Y-65181000D02*
G01*
X182533800Y-65181000D01*
X182533800Y-62728600D01*
X184986200Y-62728600D01*
X184986200Y-65181000D01*
G37*
D14*
X184986200Y-65181000D02*
X182533800Y-65181000D01*
X182533800Y-62728600D01*
X184986200Y-62728600D01*
X184986200Y-65181000D01*
D15*
X188573100Y-77783000D02*
G75*
G03*
X188573100Y-77783000I-613100J0D01*
G01*
X188573100Y-81983000D02*
G75*
G03*
X188573100Y-81983000I-613100J0D01*
G01*
X188573100Y-86183000D02*
G75*
G03*
X188573100Y-86183000I-613100J0D01*
G01*
X184373100Y-73583000D02*
G75*
G03*
X184373100Y-73583000I-613100J0D01*
G01*
X188573100Y-73583000D02*
G75*
G03*
X188573100Y-73583000I-613100J0D01*
G01*
X184373100Y-81983000D02*
G75*
G03*
X184373100Y-81983000I-613100J0D01*
G01*
X184373100Y-77783000D02*
G75*
G03*
X184373100Y-77783000I-613100J0D01*
G01*
G36*
X184986200Y-87409200D02*
G01*
X182533800Y-87409200D01*
X182533800Y-84956800D01*
X184986200Y-84956800D01*
X184986200Y-87409200D01*
G37*
D14*
X184986200Y-87409200D02*
X182533800Y-87409200D01*
X182533800Y-84956800D01*
X184986200Y-84956800D01*
X184986200Y-87409200D01*
D16*
X107899799Y-117732000D03*
D17*
X107899799Y-120272000D03*
X107899799Y-122812000D03*
D18*
X109904379Y-108344000D03*
D19*
X107404379Y-108344000D03*
D20*
X124637000Y-108344000D03*
X117017000Y-108344000D03*
D21*
X151227000Y-108344000D03*
X143607000Y-108344000D03*
D22*
X102376000Y-42436000D03*
D23*
X143861000Y-59690000D03*
X151481000Y-59690000D03*
D21*
X124891000Y-59690000D03*
X117271000Y-59690000D03*
D24*
X107391799Y-56742000D03*
D25*
X107391799Y-51742000D03*
D24*
X171664000Y-150949001D03*
D25*
X166664000Y-150949001D03*
D26*
X151892000Y-148661000D03*
D27*
X146812000Y-148661000D03*
X141732000Y-148661000D03*
X136652000Y-148661000D03*
D21*
X188086000Y-149262000D03*
X188086000Y-93662000D03*
D22*
X102372000Y-155829000D03*
D28*
X160498500Y-102362000D03*
D29*
X170498500Y-102362000D03*
D22*
X188976000Y-155811000D03*
D30*
X122361800Y-89344800D03*
D31*
X137601800Y-93154800D03*
X145221800Y-93154800D03*
X135061800Y-75374800D03*
D30*
X122361800Y-79184800D03*
D24*
X145378000Y-47945999D03*
D25*
X150378000Y-47945999D03*
X155378000Y-47945999D03*
D24*
X107391799Y-69848400D03*
D25*
X107391799Y-64848400D03*
D24*
X107391799Y-95604000D03*
D25*
X107391799Y-90604000D03*
D28*
X160498500Y-128778000D03*
D29*
X170498500Y-128778000D03*
D24*
X107391799Y-82904000D03*
D25*
X107391799Y-77904000D03*
D24*
X107391799Y-133223000D03*
D25*
X107391799Y-128223000D03*
D32*
X127174000Y-67704000D03*
X135074000Y-67704000D03*
D22*
X188976000Y-42418000D03*
D24*
X128444000Y-150949001D03*
D25*
X123444000Y-150949001D03*
X118444000Y-150949001D03*
D28*
X160498500Y-75946000D03*
D29*
X170498500Y-75946000D03*
D33*
X116906000Y-97757500D03*
X117856000Y-97757500D03*
X118806000Y-97757500D03*
X118806000Y-100457500D03*
X116906000Y-100457500D03*
D34*
X112776000Y-98911500D03*
X112776000Y-100986500D03*
D35*
X118120000Y-81006000D03*
X118120000Y-86406000D03*
D36*
X125072000Y-74722000D03*
X130472000Y-74722000D03*
D34*
X134366000Y-115180500D03*
X134366000Y-117255500D03*
D37*
X125740000Y-95896000D03*
X125740000Y-101996000D03*
X147584000Y-112152000D03*
X147584000Y-118252000D03*
D33*
X137744000Y-113852000D03*
X138694000Y-113852000D03*
X139644000Y-113852000D03*
X139644000Y-116552000D03*
X137744000Y-116552000D03*
M02*
