M48
; DRILL file {KiCad 7.0.1} date Sat 08 Apr 2023 05:38:49 PM EDT
; FORMAT={-:-/ absolute / metric / decimal}
; #@! TF.CreationDate,2023-04-08T17:38:49-04:00
; #@! TF.GenerationSoftware,Kicad,Pcbnew,7.0.1
; #@! TF.FileFunction,Plated,1,2,PTH
FMAT,2
METRIC
; #@! TA.AperFunction,Plated,PTH,ViaDrill
T1C0.400
; #@! TA.AperFunction,Plated,PTH,ComponentDrill
T2C0.800
; #@! TA.AperFunction,Plated,PTH,ComponentDrill
T3C1.020
; #@! TA.AperFunction,Plated,PTH,ComponentDrill
T4C1.100
; #@! TA.AperFunction,Plated,PTH,ComponentDrill
T5C1.168
; #@! TA.AperFunction,Plated,PTH,ComponentDrill
T6C1.295
; #@! TA.AperFunction,Plated,PTH,ComponentDrill
T7C1.400
; #@! TA.AperFunction,Plated,PTH,ComponentDrill
T8C1.600
; #@! TA.AperFunction,Plated,PTH,ComponentDrill
T9C1.800
; #@! TA.AperFunction,Plated,PTH,ComponentDrill
T10C1.980
; #@! TA.AperFunction,Plated,PTH,ComponentDrill
T11C2.108
; #@! TA.AperFunction,Plated,PTH,ComponentDrill
T12C2.134
; #@! TA.AperFunction,Plated,PTH,ComponentDrill
T13C3.200
%
G90
G05
T1
X100.81Y-114.948
X103.388Y-114.224
X114.935Y-99.06
X114.935Y-100.457
X136.017Y-113.919
X136.017Y-115.189
X136.017Y-116.459
T2
X107.404Y-108.344
X109.904Y-108.344
T3
X107.9Y-117.732
X107.9Y-120.272
X107.9Y-122.812
T4
X127.174Y-67.704
X135.074Y-67.704
T5
X122.362Y-79.185
X122.362Y-89.345
T6
X107.392Y-51.742
X107.392Y-56.742
X107.392Y-64.848
X107.392Y-69.848
X107.392Y-77.904
X107.392Y-82.904
X107.392Y-90.604
X107.392Y-95.604
X107.392Y-128.223
X107.392Y-133.223
X118.444Y-150.949
X123.444Y-150.949
X128.444Y-150.949
X145.378Y-47.946
X150.378Y-47.946
X155.378Y-47.946
X166.664Y-150.949
X171.664Y-150.949
T7
X183.046Y-98.362
X183.046Y-102.562
X183.046Y-106.762
X183.046Y-110.962
X183.046Y-115.162
X183.046Y-119.362
X183.046Y-123.562
X183.046Y-127.762
X183.046Y-131.962
X183.046Y-136.162
X183.046Y-140.362
X183.046Y-144.562
X188.546Y-98.362
X188.546Y-102.562
X188.546Y-106.762
X188.546Y-110.962
X188.546Y-115.162
X188.546Y-119.362
X188.546Y-123.562
X188.546Y-127.762
X188.546Y-131.962
X188.546Y-136.162
X188.546Y-140.362
X188.546Y-144.562
T8
X136.652Y-148.661
X141.732Y-148.661
X146.812Y-148.661
X151.892Y-148.661
T9
X183.76Y-51.355
X183.76Y-55.555
X183.76Y-59.755
X183.76Y-63.955
X183.76Y-73.583
X183.76Y-77.783
X183.76Y-81.983
X183.76Y-86.183
X187.96Y-51.355
X187.96Y-55.555
X187.96Y-59.755
X187.96Y-63.955
X187.96Y-73.583
X187.96Y-77.783
X187.96Y-81.983
X187.96Y-86.183
T10
X117.017Y-108.344
X117.271Y-59.69
X124.637Y-108.344
X124.891Y-59.69
X143.607Y-108.344
X143.861Y-59.69
X151.227Y-108.344
X151.481Y-59.69
T11
X160.498Y-75.946
X160.498Y-102.362
X160.498Y-128.778
X170.498Y-75.946
X170.498Y-102.362
X170.498Y-128.778
T12
X135.062Y-75.375
X137.602Y-93.155
X145.222Y-93.155
T13
X102.372Y-155.829
X102.376Y-42.436
X188.976Y-42.418
X188.976Y-155.811
T0
M30
