%TF.GenerationSoftware,KiCad,Pcbnew,(6.0.10)*%
%TF.CreationDate,2023-01-26T21:45:52-05:00*%
%TF.ProjectId,Input,496e7075-742e-46b6-9963-61645f706362,rev?*%
%TF.SameCoordinates,Original*%
%TF.FileFunction,Drillmap*%
%TF.FilePolarity,Positive*%
%FSLAX45Y45*%
G04 Gerber Fmt 4.5, Leading zero omitted, Abs format (unit mm)*
G04 Created by KiCad (PCBNEW (6.0.10)) date 2023-01-26 21:45:52*
%MOMM*%
%LPD*%
G01*
G04 APERTURE LIST*
%ADD10C,0.100000*%
%ADD11C,0.200000*%
%ADD12C,0.300000*%
G04 APERTURE END LIST*
D10*
X19381204Y-4097766D02*
G75*
G03*
X19101804Y-3818366I-279404J-4D01*
G01*
X9799766Y-4097766D02*
X9798766Y-15748000D01*
X19100804Y-16027404D02*
G75*
G03*
X19380204Y-15748000I-4J279404D01*
G01*
X10079166Y-3818366D02*
G75*
G03*
X9799766Y-4097766I4J-279404D01*
G01*
X9798770Y-15748000D02*
G75*
G03*
X10078166Y-16027400I279400J0D01*
G01*
X19101804Y-3818366D02*
X10079166Y-3818366D01*
X10078166Y-16027400D02*
X19100804Y-16027400D01*
X19380204Y-15748000D02*
X19381204Y-4097766D01*
D11*
D12*
X18658600Y-9216200D02*
X18958600Y-9516200D01*
X18958600Y-9216200D02*
X18658600Y-9516200D01*
X18658600Y-14776200D02*
X18958600Y-15076200D01*
X18958600Y-14776200D02*
X18658600Y-15076200D01*
D11*
X10051385Y-16342876D02*
X10051385Y-16142876D01*
X10099004Y-16142876D01*
X10127575Y-16152400D01*
X10146623Y-16171448D01*
X10156147Y-16190495D01*
X10165670Y-16228590D01*
X10165670Y-16257162D01*
X10156147Y-16295257D01*
X10146623Y-16314305D01*
X10127575Y-16333352D01*
X10099004Y-16342876D01*
X10051385Y-16342876D01*
X10251385Y-16342876D02*
X10251385Y-16209543D01*
X10251385Y-16247638D02*
X10260908Y-16228590D01*
X10270432Y-16219067D01*
X10289480Y-16209543D01*
X10308528Y-16209543D01*
X10375194Y-16342876D02*
X10375194Y-16209543D01*
X10375194Y-16142876D02*
X10365670Y-16152400D01*
X10375194Y-16161924D01*
X10384718Y-16152400D01*
X10375194Y-16142876D01*
X10375194Y-16161924D01*
X10499004Y-16342876D02*
X10479956Y-16333352D01*
X10470432Y-16314305D01*
X10470432Y-16142876D01*
X10603766Y-16342876D02*
X10584718Y-16333352D01*
X10575194Y-16314305D01*
X10575194Y-16142876D01*
X10832337Y-16342876D02*
X10832337Y-16142876D01*
X10899004Y-16285733D01*
X10965670Y-16142876D01*
X10965670Y-16342876D01*
X11146623Y-16342876D02*
X11146623Y-16238114D01*
X11137099Y-16219067D01*
X11118051Y-16209543D01*
X11079956Y-16209543D01*
X11060908Y-16219067D01*
X11146623Y-16333352D02*
X11127575Y-16342876D01*
X11079956Y-16342876D01*
X11060908Y-16333352D01*
X11051385Y-16314305D01*
X11051385Y-16295257D01*
X11060908Y-16276209D01*
X11079956Y-16266686D01*
X11127575Y-16266686D01*
X11146623Y-16257162D01*
X11241861Y-16209543D02*
X11241861Y-16409543D01*
X11241861Y-16219067D02*
X11260908Y-16209543D01*
X11299004Y-16209543D01*
X11318051Y-16219067D01*
X11327575Y-16228590D01*
X11337099Y-16247638D01*
X11337099Y-16304781D01*
X11327575Y-16323828D01*
X11318051Y-16333352D01*
X11299004Y-16342876D01*
X11260908Y-16342876D01*
X11241861Y-16333352D01*
X11422813Y-16323828D02*
X11432337Y-16333352D01*
X11422813Y-16342876D01*
X11413289Y-16333352D01*
X11422813Y-16323828D01*
X11422813Y-16342876D01*
X11422813Y-16219067D02*
X11432337Y-16228590D01*
X11422813Y-16238114D01*
X11413289Y-16228590D01*
X11422813Y-16219067D01*
X11422813Y-16238114D01*
X9593766Y-16572400D02*
X9793766Y-16772400D01*
X9793766Y-16572400D02*
X9593766Y-16772400D01*
X10032337Y-16562876D02*
X10156147Y-16562876D01*
X10089480Y-16639067D01*
X10118051Y-16639067D01*
X10137099Y-16648590D01*
X10146623Y-16658114D01*
X10156147Y-16677162D01*
X10156147Y-16724781D01*
X10146623Y-16743828D01*
X10137099Y-16753352D01*
X10118051Y-16762876D01*
X10060908Y-16762876D01*
X10041861Y-16753352D01*
X10032337Y-16743828D01*
X10241861Y-16743828D02*
X10251385Y-16753352D01*
X10241861Y-16762876D01*
X10232337Y-16753352D01*
X10241861Y-16743828D01*
X10241861Y-16762876D01*
X10375194Y-16562876D02*
X10394242Y-16562876D01*
X10413289Y-16572400D01*
X10422813Y-16581924D01*
X10432337Y-16600971D01*
X10441861Y-16639067D01*
X10441861Y-16686686D01*
X10432337Y-16724781D01*
X10422813Y-16743828D01*
X10413289Y-16753352D01*
X10394242Y-16762876D01*
X10375194Y-16762876D01*
X10356147Y-16753352D01*
X10346623Y-16743828D01*
X10337099Y-16724781D01*
X10327575Y-16686686D01*
X10327575Y-16639067D01*
X10337099Y-16600971D01*
X10346623Y-16581924D01*
X10356147Y-16572400D01*
X10375194Y-16562876D01*
X10565670Y-16562876D02*
X10584718Y-16562876D01*
X10603766Y-16572400D01*
X10613289Y-16581924D01*
X10622813Y-16600971D01*
X10632337Y-16639067D01*
X10632337Y-16686686D01*
X10622813Y-16724781D01*
X10613289Y-16743828D01*
X10603766Y-16753352D01*
X10584718Y-16762876D01*
X10565670Y-16762876D01*
X10546623Y-16753352D01*
X10537099Y-16743828D01*
X10527575Y-16724781D01*
X10518051Y-16686686D01*
X10518051Y-16639067D01*
X10527575Y-16600971D01*
X10537099Y-16581924D01*
X10546623Y-16572400D01*
X10565670Y-16562876D01*
X10756147Y-16562876D02*
X10775194Y-16562876D01*
X10794242Y-16572400D01*
X10803766Y-16581924D01*
X10813289Y-16600971D01*
X10822813Y-16639067D01*
X10822813Y-16686686D01*
X10813289Y-16724781D01*
X10803766Y-16743828D01*
X10794242Y-16753352D01*
X10775194Y-16762876D01*
X10756147Y-16762876D01*
X10737099Y-16753352D01*
X10727575Y-16743828D01*
X10718051Y-16724781D01*
X10708528Y-16686686D01*
X10708528Y-16639067D01*
X10718051Y-16600971D01*
X10727575Y-16581924D01*
X10737099Y-16572400D01*
X10756147Y-16562876D01*
X10908528Y-16762876D02*
X10908528Y-16629543D01*
X10908528Y-16648590D02*
X10918051Y-16639067D01*
X10937099Y-16629543D01*
X10965670Y-16629543D01*
X10984718Y-16639067D01*
X10994242Y-16658114D01*
X10994242Y-16762876D01*
X10994242Y-16658114D02*
X11003766Y-16639067D01*
X11022813Y-16629543D01*
X11051385Y-16629543D01*
X11070432Y-16639067D01*
X11079956Y-16658114D01*
X11079956Y-16762876D01*
X11175194Y-16762876D02*
X11175194Y-16629543D01*
X11175194Y-16648590D02*
X11184718Y-16639067D01*
X11203766Y-16629543D01*
X11232337Y-16629543D01*
X11251385Y-16639067D01*
X11260908Y-16658114D01*
X11260908Y-16762876D01*
X11260908Y-16658114D02*
X11270432Y-16639067D01*
X11289480Y-16629543D01*
X11318051Y-16629543D01*
X11337099Y-16639067D01*
X11346623Y-16658114D01*
X11346623Y-16762876D01*
X11737099Y-16553352D02*
X11565670Y-16810495D01*
X11994242Y-16562876D02*
X12013289Y-16562876D01*
X12032337Y-16572400D01*
X12041861Y-16581924D01*
X12051385Y-16600971D01*
X12060908Y-16639067D01*
X12060908Y-16686686D01*
X12051385Y-16724781D01*
X12041861Y-16743828D01*
X12032337Y-16753352D01*
X12013289Y-16762876D01*
X11994242Y-16762876D01*
X11975194Y-16753352D01*
X11965670Y-16743828D01*
X11956146Y-16724781D01*
X11946623Y-16686686D01*
X11946623Y-16639067D01*
X11956146Y-16600971D01*
X11965670Y-16581924D01*
X11975194Y-16572400D01*
X11994242Y-16562876D01*
X12146623Y-16743828D02*
X12156146Y-16753352D01*
X12146623Y-16762876D01*
X12137099Y-16753352D01*
X12146623Y-16743828D01*
X12146623Y-16762876D01*
X12346623Y-16762876D02*
X12232337Y-16762876D01*
X12289480Y-16762876D02*
X12289480Y-16562876D01*
X12270432Y-16591448D01*
X12251385Y-16610495D01*
X12232337Y-16620019D01*
X12537099Y-16762876D02*
X12422813Y-16762876D01*
X12479956Y-16762876D02*
X12479956Y-16562876D01*
X12460908Y-16591448D01*
X12441861Y-16610495D01*
X12422813Y-16620019D01*
X12651385Y-16648590D02*
X12632337Y-16639067D01*
X12622813Y-16629543D01*
X12613289Y-16610495D01*
X12613289Y-16600971D01*
X12622813Y-16581924D01*
X12632337Y-16572400D01*
X12651385Y-16562876D01*
X12689480Y-16562876D01*
X12708527Y-16572400D01*
X12718051Y-16581924D01*
X12727575Y-16600971D01*
X12727575Y-16610495D01*
X12718051Y-16629543D01*
X12708527Y-16639067D01*
X12689480Y-16648590D01*
X12651385Y-16648590D01*
X12632337Y-16658114D01*
X12622813Y-16667638D01*
X12613289Y-16686686D01*
X12613289Y-16724781D01*
X12622813Y-16743828D01*
X12632337Y-16753352D01*
X12651385Y-16762876D01*
X12689480Y-16762876D01*
X12708527Y-16753352D01*
X12718051Y-16743828D01*
X12727575Y-16724781D01*
X12727575Y-16686686D01*
X12718051Y-16667638D01*
X12708527Y-16658114D01*
X12689480Y-16648590D01*
X12918051Y-16762876D02*
X12803765Y-16762876D01*
X12860908Y-16762876D02*
X12860908Y-16562876D01*
X12841861Y-16591448D01*
X12822813Y-16610495D01*
X12803765Y-16620019D01*
X12994242Y-16562876D02*
X12994242Y-16600971D01*
X13070432Y-16562876D02*
X13070432Y-16600971D01*
X13365670Y-16839067D02*
X13356146Y-16829543D01*
X13337099Y-16800971D01*
X13327575Y-16781924D01*
X13318051Y-16753352D01*
X13308527Y-16705733D01*
X13308527Y-16667638D01*
X13318051Y-16620019D01*
X13327575Y-16591448D01*
X13337099Y-16572400D01*
X13356146Y-16543828D01*
X13365670Y-16534305D01*
X13432337Y-16581924D02*
X13441861Y-16572400D01*
X13460908Y-16562876D01*
X13508527Y-16562876D01*
X13527575Y-16572400D01*
X13537099Y-16581924D01*
X13546623Y-16600971D01*
X13546623Y-16620019D01*
X13537099Y-16648590D01*
X13422813Y-16762876D01*
X13546623Y-16762876D01*
X13784718Y-16762876D02*
X13784718Y-16562876D01*
X13870432Y-16762876D02*
X13870432Y-16658114D01*
X13860908Y-16639067D01*
X13841861Y-16629543D01*
X13813289Y-16629543D01*
X13794242Y-16639067D01*
X13784718Y-16648590D01*
X13994242Y-16762876D02*
X13975194Y-16753352D01*
X13965670Y-16743828D01*
X13956146Y-16724781D01*
X13956146Y-16667638D01*
X13965670Y-16648590D01*
X13975194Y-16639067D01*
X13994242Y-16629543D01*
X14022813Y-16629543D01*
X14041861Y-16639067D01*
X14051385Y-16648590D01*
X14060908Y-16667638D01*
X14060908Y-16724781D01*
X14051385Y-16743828D01*
X14041861Y-16753352D01*
X14022813Y-16762876D01*
X13994242Y-16762876D01*
X14175194Y-16762876D02*
X14156146Y-16753352D01*
X14146623Y-16734305D01*
X14146623Y-16562876D01*
X14327575Y-16753352D02*
X14308527Y-16762876D01*
X14270432Y-16762876D01*
X14251385Y-16753352D01*
X14241861Y-16734305D01*
X14241861Y-16658114D01*
X14251385Y-16639067D01*
X14270432Y-16629543D01*
X14308527Y-16629543D01*
X14327575Y-16639067D01*
X14337099Y-16658114D01*
X14337099Y-16677162D01*
X14241861Y-16696209D01*
X14413289Y-16753352D02*
X14432337Y-16762876D01*
X14470432Y-16762876D01*
X14489480Y-16753352D01*
X14499004Y-16734305D01*
X14499004Y-16724781D01*
X14489480Y-16705733D01*
X14470432Y-16696209D01*
X14441861Y-16696209D01*
X14422813Y-16686686D01*
X14413289Y-16667638D01*
X14413289Y-16658114D01*
X14422813Y-16639067D01*
X14441861Y-16629543D01*
X14470432Y-16629543D01*
X14489480Y-16639067D01*
X14565670Y-16839067D02*
X14575194Y-16829543D01*
X14594242Y-16800971D01*
X14603765Y-16781924D01*
X14613289Y-16753352D01*
X14622813Y-16705733D01*
X14622813Y-16667638D01*
X14613289Y-16620019D01*
X14603765Y-16591448D01*
X14594242Y-16572400D01*
X14575194Y-16543828D01*
X14565670Y-16534305D01*
X14927575Y-16839067D02*
X14918051Y-16829543D01*
X14899004Y-16800971D01*
X14889480Y-16781924D01*
X14879956Y-16753352D01*
X14870432Y-16705733D01*
X14870432Y-16667638D01*
X14879956Y-16620019D01*
X14889480Y-16591448D01*
X14899004Y-16572400D01*
X14918051Y-16543828D01*
X14927575Y-16534305D01*
X15003765Y-16629543D02*
X15003765Y-16762876D01*
X15003765Y-16648590D02*
X15013289Y-16639067D01*
X15032337Y-16629543D01*
X15060908Y-16629543D01*
X15079956Y-16639067D01*
X15089480Y-16658114D01*
X15089480Y-16762876D01*
X15213289Y-16762876D02*
X15194242Y-16753352D01*
X15184718Y-16743828D01*
X15175194Y-16724781D01*
X15175194Y-16667638D01*
X15184718Y-16648590D01*
X15194242Y-16639067D01*
X15213289Y-16629543D01*
X15241861Y-16629543D01*
X15260908Y-16639067D01*
X15270432Y-16648590D01*
X15279956Y-16667638D01*
X15279956Y-16724781D01*
X15270432Y-16743828D01*
X15260908Y-16753352D01*
X15241861Y-16762876D01*
X15213289Y-16762876D01*
X15337099Y-16629543D02*
X15413289Y-16629543D01*
X15365670Y-16562876D02*
X15365670Y-16734305D01*
X15375194Y-16753352D01*
X15394242Y-16762876D01*
X15413289Y-16762876D01*
X15632337Y-16629543D02*
X15632337Y-16829543D01*
X15632337Y-16639067D02*
X15651385Y-16629543D01*
X15689480Y-16629543D01*
X15708527Y-16639067D01*
X15718051Y-16648590D01*
X15727575Y-16667638D01*
X15727575Y-16724781D01*
X15718051Y-16743828D01*
X15708527Y-16753352D01*
X15689480Y-16762876D01*
X15651385Y-16762876D01*
X15632337Y-16753352D01*
X15841861Y-16762876D02*
X15822813Y-16753352D01*
X15813289Y-16734305D01*
X15813289Y-16562876D01*
X16003765Y-16762876D02*
X16003765Y-16658114D01*
X15994242Y-16639067D01*
X15975194Y-16629543D01*
X15937099Y-16629543D01*
X15918051Y-16639067D01*
X16003765Y-16753352D02*
X15984718Y-16762876D01*
X15937099Y-16762876D01*
X15918051Y-16753352D01*
X15908527Y-16734305D01*
X15908527Y-16715257D01*
X15918051Y-16696209D01*
X15937099Y-16686686D01*
X15984718Y-16686686D01*
X16003765Y-16677162D01*
X16070432Y-16629543D02*
X16146623Y-16629543D01*
X16099004Y-16562876D02*
X16099004Y-16734305D01*
X16108527Y-16753352D01*
X16127575Y-16762876D01*
X16146623Y-16762876D01*
X16289480Y-16753352D02*
X16270432Y-16762876D01*
X16232337Y-16762876D01*
X16213289Y-16753352D01*
X16203765Y-16734305D01*
X16203765Y-16658114D01*
X16213289Y-16639067D01*
X16232337Y-16629543D01*
X16270432Y-16629543D01*
X16289480Y-16639067D01*
X16299004Y-16658114D01*
X16299004Y-16677162D01*
X16203765Y-16696209D01*
X16470432Y-16762876D02*
X16470432Y-16562876D01*
X16470432Y-16753352D02*
X16451385Y-16762876D01*
X16413289Y-16762876D01*
X16394242Y-16753352D01*
X16384718Y-16743828D01*
X16375194Y-16724781D01*
X16375194Y-16667638D01*
X16384718Y-16648590D01*
X16394242Y-16639067D01*
X16413289Y-16629543D01*
X16451385Y-16629543D01*
X16470432Y-16639067D01*
X16546623Y-16839067D02*
X16556146Y-16829543D01*
X16575194Y-16800971D01*
X16584718Y-16781924D01*
X16594242Y-16753352D01*
X16603765Y-16705733D01*
X16603765Y-16667638D01*
X16594242Y-16620019D01*
X16584718Y-16591448D01*
X16575194Y-16572400D01*
X16556146Y-16543828D01*
X16546623Y-16534305D01*
M02*
