G04 #@! TF.GenerationSoftware,KiCad,Pcbnew,(6.0.10)*
G04 #@! TF.CreationDate,2023-01-26T21:45:49-05:00*
G04 #@! TF.ProjectId,Input,496e7075-742e-46b6-9963-61645f706362,rev?*
G04 #@! TF.SameCoordinates,Original*
G04 #@! TF.FileFunction,Copper,L2,Bot*
G04 #@! TF.FilePolarity,Positive*
%FSLAX46Y46*%
G04 Gerber Fmt 4.6, Leading zero omitted, Abs format (unit mm)*
G04 Created by KiCad (PCBNEW (6.0.10)) date 2023-01-26 21:45:49*
%MOMM*%
%LPD*%
G01*
G04 APERTURE LIST*
G04 Aperture macros list*
%AMRoundRect*
0 Rectangle with rounded corners*
0 $1 Rounding radius*
0 $2 $3 $4 $5 $6 $7 $8 $9 X,Y pos of 4 corners*
0 Add a 4 corners polygon primitive as box body*
4,1,4,$2,$3,$4,$5,$6,$7,$8,$9,$2,$3,0*
0 Add four circle primitives for the rounded corners*
1,1,$1+$1,$2,$3*
1,1,$1+$1,$4,$5*
1,1,$1+$1,$6,$7*
1,1,$1+$1,$8,$9*
0 Add four rect primitives between the rounded corners*
20,1,$1+$1,$2,$3,$4,$5,0*
20,1,$1+$1,$4,$5,$6,$7,0*
20,1,$1+$1,$6,$7,$8,$9,0*
20,1,$1+$1,$8,$9,$2,$3,0*%
G04 Aperture macros list end*
G04 #@! TA.AperFunction,ComponentPad*
%ADD10R,2.030000X1.730000*%
G04 #@! TD*
G04 #@! TA.AperFunction,ComponentPad*
%ADD11O,2.030000X1.730000*%
G04 #@! TD*
G04 #@! TA.AperFunction,ComponentPad*
%ADD12R,1.600000X1.600000*%
G04 #@! TD*
G04 #@! TA.AperFunction,ComponentPad*
%ADD13C,1.600000*%
G04 #@! TD*
G04 #@! TA.AperFunction,ComponentPad*
%ADD14RoundRect,0.750000X-0.750000X-0.750000X0.750000X-0.750000X0.750000X0.750000X-0.750000X0.750000X0*%
G04 #@! TD*
G04 #@! TA.AperFunction,ComponentPad*
%ADD15C,3.000000*%
G04 #@! TD*
G04 #@! TA.AperFunction,ComponentPad*
%ADD16C,6.400000*%
G04 #@! TD*
G04 #@! TA.AperFunction,ComponentPad*
%ADD17RoundRect,0.750000X0.750000X0.750000X-0.750000X0.750000X-0.750000X-0.750000X0.750000X-0.750000X0*%
G04 #@! TD*
G04 #@! TA.AperFunction,ComponentPad*
%ADD18R,1.803400X1.803400*%
G04 #@! TD*
G04 #@! TA.AperFunction,ComponentPad*
%ADD19C,1.803400*%
G04 #@! TD*
G04 #@! TA.AperFunction,ComponentPad*
%ADD20R,2.400000X2.400000*%
G04 #@! TD*
G04 #@! TA.AperFunction,ComponentPad*
%ADD21C,2.400000*%
G04 #@! TD*
G04 #@! TA.AperFunction,ComponentPad*
%ADD22R,1.900000X1.900000*%
G04 #@! TD*
G04 #@! TA.AperFunction,ComponentPad*
%ADD23C,1.900000*%
G04 #@! TD*
G04 #@! TA.AperFunction,ComponentPad*
%ADD24R,2.300000X2.300000*%
G04 #@! TD*
G04 #@! TA.AperFunction,ComponentPad*
%ADD25C,2.300000*%
G04 #@! TD*
G04 #@! TA.AperFunction,ComponentPad*
%ADD26R,2.616200X2.616200*%
G04 #@! TD*
G04 #@! TA.AperFunction,ComponentPad*
%ADD27C,2.616200*%
G04 #@! TD*
G04 #@! TA.AperFunction,ComponentPad*
%ADD28C,1.676400*%
G04 #@! TD*
G04 #@! TA.AperFunction,ComponentPad*
%ADD29C,2.641600*%
G04 #@! TD*
G04 #@! TA.AperFunction,ComponentPad*
%ADD30C,1.500000*%
G04 #@! TD*
G04 #@! TA.AperFunction,SMDPad,CuDef*
%ADD31R,0.650000X1.560000*%
G04 #@! TD*
G04 #@! TA.AperFunction,SMDPad,CuDef*
%ADD32RoundRect,0.250000X-0.475000X0.337500X-0.475000X-0.337500X0.475000X-0.337500X0.475000X0.337500X0*%
G04 #@! TD*
G04 #@! TA.AperFunction,SMDPad,CuDef*
%ADD33R,2.300000X3.500000*%
G04 #@! TD*
G04 #@! TA.AperFunction,SMDPad,CuDef*
%ADD34R,3.500000X2.300000*%
G04 #@! TD*
G04 #@! TA.AperFunction,SMDPad,CuDef*
%ADD35RoundRect,0.249999X-1.425001X0.450001X-1.425001X-0.450001X1.425001X-0.450001X1.425001X0.450001X0*%
G04 #@! TD*
G04 #@! TA.AperFunction,ViaPad*
%ADD36C,0.800000*%
G04 #@! TD*
G04 #@! TA.AperFunction,Conductor*
%ADD37C,0.250000*%
G04 #@! TD*
G04 #@! TA.AperFunction,Conductor*
%ADD38C,2.000000*%
G04 #@! TD*
G04 #@! TA.AperFunction,Conductor*
%ADD39C,0.500000*%
G04 #@! TD*
G04 APERTURE END LIST*
D10*
X107899799Y-117732000D03*
D11*
X107899799Y-120272000D03*
X107899799Y-122812000D03*
D12*
X109904379Y-108344000D03*
D13*
X107404379Y-108344000D03*
D14*
X124637000Y-108344000D03*
X117017000Y-108344000D03*
D15*
X151227000Y-108344000D03*
X143607000Y-108344000D03*
D16*
X102376000Y-42436000D03*
D17*
X143861000Y-59690000D03*
X151481000Y-59690000D03*
D15*
X124891000Y-59690000D03*
X117271000Y-59690000D03*
D18*
X107391799Y-56742000D03*
D19*
X107391799Y-51742000D03*
D18*
X171664000Y-150949001D03*
D19*
X166664000Y-150949001D03*
D20*
X151892000Y-148661000D03*
D21*
X146812000Y-148661000D03*
X141732000Y-148661000D03*
X136652000Y-148661000D03*
D22*
X183046000Y-144562000D03*
D23*
X183046000Y-140362000D03*
X183046000Y-136162000D03*
X183046000Y-131962000D03*
X183046000Y-127762000D03*
X183046000Y-123562000D03*
X183046000Y-119362000D03*
X183046000Y-115162000D03*
X183046000Y-110962000D03*
X183046000Y-106762000D03*
X183046000Y-102562000D03*
X183046000Y-98362000D03*
X188546000Y-144562000D03*
X188546000Y-140362000D03*
X188546000Y-136162000D03*
X188546000Y-131962000D03*
X188546000Y-127762000D03*
X188546000Y-123562000D03*
X188546000Y-119362000D03*
X188546000Y-115162000D03*
X188546000Y-110962000D03*
X188546000Y-106762000D03*
X188546000Y-102562000D03*
X188546000Y-98362000D03*
D24*
X183760000Y-63954800D03*
D25*
X183760000Y-59754800D03*
X183760000Y-55554800D03*
X183760000Y-51354800D03*
X187960000Y-63954800D03*
X187960000Y-59754800D03*
X187960000Y-55554800D03*
X187960000Y-51354800D03*
D24*
X183760000Y-86183000D03*
D25*
X183760000Y-81983000D03*
X183760000Y-77783000D03*
X183760000Y-73583000D03*
X187960000Y-86183000D03*
X187960000Y-81983000D03*
X187960000Y-77783000D03*
X187960000Y-73583000D03*
D16*
X102372000Y-155829000D03*
D26*
X160498500Y-102362000D03*
D27*
X170498500Y-102362000D03*
D16*
X188976000Y-155811000D03*
D28*
X122361800Y-89344800D03*
D29*
X137601800Y-93154800D03*
X145221800Y-93154800D03*
X135061800Y-75374800D03*
D28*
X122361800Y-79184800D03*
D18*
X145378000Y-47945999D03*
D19*
X150378000Y-47945999D03*
X155378000Y-47945999D03*
D18*
X107391799Y-69848400D03*
D19*
X107391799Y-64848400D03*
D18*
X107391799Y-95604000D03*
D19*
X107391799Y-90604000D03*
D26*
X160498500Y-128778000D03*
D27*
X170498500Y-128778000D03*
D18*
X107391799Y-82904000D03*
D19*
X107391799Y-77904000D03*
D18*
X107391799Y-133223000D03*
D19*
X107391799Y-128223000D03*
D30*
X127174000Y-67704000D03*
X135074000Y-67704000D03*
D16*
X188976000Y-42418000D03*
D18*
X128444000Y-150949001D03*
D19*
X123444000Y-150949001D03*
X118444000Y-150949001D03*
D26*
X160498500Y-75946000D03*
D27*
X170498500Y-75946000D03*
D31*
X116906000Y-97757500D03*
X117856000Y-97757500D03*
X118806000Y-97757500D03*
X118806000Y-100457500D03*
X116906000Y-100457500D03*
D32*
X112776000Y-98911500D03*
X112776000Y-100986500D03*
D33*
X118120000Y-81006000D03*
X118120000Y-86406000D03*
D34*
X125072000Y-74722000D03*
X130472000Y-74722000D03*
D32*
X134366000Y-115180500D03*
X134366000Y-117255500D03*
D35*
X125740000Y-95896000D03*
X125740000Y-101996000D03*
X147584000Y-112152000D03*
X147584000Y-118252000D03*
D31*
X137744000Y-113852000D03*
X138694000Y-113852000D03*
X139644000Y-113852000D03*
X139644000Y-116552000D03*
X137744000Y-116552000D03*
D36*
X114935000Y-99060000D03*
X136017000Y-115189000D03*
X136017000Y-116459000D03*
X114935000Y-100457000D03*
X100810500Y-114948000D03*
X103388000Y-114223500D03*
X136017000Y-113919000D03*
D37*
X125740000Y-100776000D02*
X125740000Y-101996000D01*
X125421500Y-100457500D02*
X125740000Y-100776000D01*
X118806000Y-100457500D02*
X125421500Y-100457500D01*
X117583500Y-99060000D02*
X114935000Y-99060000D01*
D38*
X118120000Y-87770000D02*
X119694800Y-89344800D01*
D37*
X136025500Y-115180500D02*
X138461500Y-115180500D01*
X117856000Y-97757500D02*
X117856000Y-98787500D01*
X138461500Y-115180500D02*
X138694000Y-114948000D01*
X136017000Y-115189000D02*
X136025500Y-115180500D01*
D38*
X119694800Y-89344800D02*
X122361800Y-89344800D01*
D37*
X114935000Y-99060000D02*
X113432500Y-99060000D01*
D38*
X118120000Y-86406000D02*
X118120000Y-87770000D01*
D37*
X138694000Y-114948000D02*
X138694000Y-113852000D01*
X117856000Y-98787500D02*
X117583500Y-99060000D01*
X134374500Y-115189000D02*
X134366000Y-115180500D01*
X136017000Y-115189000D02*
X134374500Y-115189000D01*
X145884000Y-116552000D02*
X139644000Y-116552000D01*
X147584000Y-118252000D02*
X145884000Y-116552000D01*
D39*
X100810500Y-114948000D02*
X101543000Y-115680500D01*
X168402000Y-156210000D02*
X170053000Y-154559000D01*
D37*
X114935500Y-100457500D02*
X114935000Y-100457000D01*
X136017000Y-116459000D02*
X136110000Y-116552000D01*
X114405500Y-100986500D02*
X114935000Y-100457000D01*
D39*
X119253000Y-156210000D02*
X168402000Y-156210000D01*
X114427000Y-151384000D02*
X119253000Y-156210000D01*
X101543000Y-138428568D02*
X114427000Y-151312568D01*
D37*
X112776000Y-100986500D02*
X114405500Y-100986500D01*
X136017000Y-116459000D02*
X135220500Y-117255500D01*
D39*
X170053000Y-154559000D02*
X171664000Y-152948000D01*
D37*
X135220500Y-117255500D02*
X134366000Y-117255500D01*
D39*
X171664000Y-152948000D02*
X171664000Y-150949001D01*
D37*
X136110000Y-116552000D02*
X137744000Y-116552000D01*
X116906000Y-100457500D02*
X114935500Y-100457500D01*
D39*
X114427000Y-151312568D02*
X114427000Y-151384000D01*
X101543000Y-115680500D02*
X101543000Y-138428568D01*
D37*
X147584000Y-112152000D02*
X145884000Y-113852000D01*
X145884000Y-113852000D02*
X139644000Y-113852000D01*
X102568000Y-115043500D02*
X102568000Y-138001000D01*
X111831000Y-147264000D02*
X124758999Y-147264000D01*
X124758999Y-147264000D02*
X128444000Y-150949001D01*
X102568000Y-138001000D02*
X111831000Y-147264000D01*
X137744000Y-113852000D02*
X136084000Y-113852000D01*
X103388000Y-114223500D02*
X102568000Y-115043500D01*
X136084000Y-113852000D02*
X136017000Y-113919000D01*
X123444000Y-150949001D02*
X120208999Y-147714000D01*
X102118000Y-138190396D02*
X102118000Y-106944000D01*
X116906000Y-97757500D02*
X111304500Y-97757500D01*
X111304500Y-97757500D02*
X102118000Y-106944000D01*
X120208999Y-147714000D02*
X111641604Y-147714000D01*
X111641604Y-147714000D02*
X102118000Y-138190396D01*
X125454500Y-97757500D02*
X118806000Y-97757500D01*
X125776000Y-95932000D02*
X125740000Y-95896000D01*
X125776000Y-97436000D02*
X125776000Y-95932000D01*
X125454500Y-97757500D02*
X125776000Y-97436000D01*
G04 #@! TA.AperFunction,Conductor*
G36*
X131016121Y-99728002D02*
G01*
X131062614Y-99781658D01*
X131074000Y-99834000D01*
X131074000Y-121044000D01*
X143902000Y-121044000D01*
X143970121Y-121064002D01*
X144016614Y-121117658D01*
X144028000Y-121170000D01*
X144028000Y-154065000D01*
X144007998Y-154133121D01*
X143954342Y-154179614D01*
X143902000Y-154191000D01*
X118358871Y-154191000D01*
X118290750Y-154170998D01*
X118269776Y-154154095D01*
X115144955Y-151029274D01*
X115121743Y-150995876D01*
X115121352Y-150994669D01*
X115117556Y-150988414D01*
X115115062Y-150982966D01*
X115112330Y-150977509D01*
X115109833Y-150970631D01*
X115072985Y-150914429D01*
X117029389Y-150914429D01*
X117042738Y-151145936D01*
X117093718Y-151372154D01*
X117180962Y-151587008D01*
X117302125Y-151784728D01*
X117453953Y-151960003D01*
X117632370Y-152108128D01*
X117636822Y-152110730D01*
X117636827Y-152110733D01*
X117822691Y-152219343D01*
X117832584Y-152225124D01*
X118049218Y-152307848D01*
X118054286Y-152308879D01*
X118054289Y-152308880D01*
X118166090Y-152331626D01*
X118276454Y-152354080D01*
X118281627Y-152354270D01*
X118281630Y-152354270D01*
X118503026Y-152362388D01*
X118503030Y-152362388D01*
X118508190Y-152362577D01*
X118513310Y-152361921D01*
X118513312Y-152361921D01*
X118608930Y-152349672D01*
X118738202Y-152333112D01*
X118743151Y-152331627D01*
X118743157Y-152331626D01*
X118955370Y-152267959D01*
X118960313Y-152266476D01*
X119168558Y-152164458D01*
X119252487Y-152104592D01*
X119353132Y-152032803D01*
X119353137Y-152032799D01*
X119357344Y-152029798D01*
X119418941Y-151968416D01*
X119485356Y-151902232D01*
X119521602Y-151866112D01*
X119656920Y-151677797D01*
X119662110Y-151667297D01*
X119757370Y-151474551D01*
X119757371Y-151474549D01*
X119759664Y-151469909D01*
X119790900Y-151367100D01*
X119825572Y-151252985D01*
X119825573Y-151252979D01*
X119827076Y-151248033D01*
X119857344Y-151018125D01*
X119857426Y-151014773D01*
X119858951Y-150952366D01*
X119858951Y-150952362D01*
X119859033Y-150949001D01*
X119849373Y-150831506D01*
X119840456Y-150723040D01*
X119840455Y-150723034D01*
X119840032Y-150717889D01*
X119783540Y-150492984D01*
X119691073Y-150280326D01*
X119565116Y-150085625D01*
X119537027Y-150054755D01*
X119412528Y-149917933D01*
X119412526Y-149917932D01*
X119409050Y-149914111D01*
X119404999Y-149910912D01*
X119404995Y-149910908D01*
X119231125Y-149773595D01*
X119227067Y-149770390D01*
X119024055Y-149658321D01*
X118887883Y-149610100D01*
X118810339Y-149582640D01*
X118810335Y-149582639D01*
X118805464Y-149580914D01*
X118800371Y-149580007D01*
X118800368Y-149580006D01*
X118582255Y-149541154D01*
X118582249Y-149541153D01*
X118577166Y-149540248D01*
X118488632Y-149539166D01*
X118350461Y-149537478D01*
X118350459Y-149537478D01*
X118345292Y-149537415D01*
X118116069Y-149572491D01*
X117895653Y-149644534D01*
X117891065Y-149646922D01*
X117891061Y-149646924D01*
X117694551Y-149749221D01*
X117689962Y-149751610D01*
X117685829Y-149754713D01*
X117685826Y-149754715D01*
X117508657Y-149887737D01*
X117504522Y-149890842D01*
X117344313Y-150058492D01*
X117213636Y-150250057D01*
X117197381Y-150285076D01*
X117119583Y-150452677D01*
X117116001Y-150460393D01*
X117054031Y-150683850D01*
X117029389Y-150914429D01*
X115072985Y-150914429D01*
X115069805Y-150909578D01*
X115067481Y-150905895D01*
X115032500Y-150848248D01*
X115032499Y-150848247D01*
X115029595Y-150843461D01*
X115022198Y-150835085D01*
X115022225Y-150835061D01*
X115019570Y-150832067D01*
X115016868Y-150828836D01*
X115012856Y-150822716D01*
X114956617Y-150769440D01*
X114954175Y-150767062D01*
X112749708Y-148562595D01*
X112715682Y-148500283D01*
X112720747Y-148429468D01*
X112763294Y-148372632D01*
X112829814Y-148347821D01*
X112838803Y-148347500D01*
X119894405Y-148347500D01*
X119962526Y-148367502D01*
X119983500Y-148384405D01*
X122051772Y-150452677D01*
X122085798Y-150514989D01*
X122084094Y-150575444D01*
X122055412Y-150678866D01*
X122055409Y-150678880D01*
X122054031Y-150683850D01*
X122029389Y-150914429D01*
X122042738Y-151145936D01*
X122093718Y-151372154D01*
X122180962Y-151587008D01*
X122302125Y-151784728D01*
X122453953Y-151960003D01*
X122632370Y-152108128D01*
X122636822Y-152110730D01*
X122636827Y-152110733D01*
X122822691Y-152219343D01*
X122832584Y-152225124D01*
X123049218Y-152307848D01*
X123054286Y-152308879D01*
X123054289Y-152308880D01*
X123166090Y-152331626D01*
X123276454Y-152354080D01*
X123281627Y-152354270D01*
X123281630Y-152354270D01*
X123503026Y-152362388D01*
X123503030Y-152362388D01*
X123508190Y-152362577D01*
X123513310Y-152361921D01*
X123513312Y-152361921D01*
X123608930Y-152349672D01*
X123738202Y-152333112D01*
X123743151Y-152331627D01*
X123743157Y-152331626D01*
X123955370Y-152267959D01*
X123960313Y-152266476D01*
X124168558Y-152164458D01*
X124252487Y-152104592D01*
X124353132Y-152032803D01*
X124353137Y-152032799D01*
X124357344Y-152029798D01*
X124418941Y-151968416D01*
X124485356Y-151902232D01*
X124521602Y-151866112D01*
X124656920Y-151677797D01*
X124662110Y-151667297D01*
X124757370Y-151474551D01*
X124757371Y-151474549D01*
X124759664Y-151469909D01*
X124790900Y-151367100D01*
X124825572Y-151252985D01*
X124825573Y-151252979D01*
X124827076Y-151248033D01*
X124857344Y-151018125D01*
X124857426Y-151014773D01*
X124858951Y-150952366D01*
X124858951Y-150952362D01*
X124859033Y-150949001D01*
X124849373Y-150831506D01*
X124840456Y-150723040D01*
X124840455Y-150723034D01*
X124840032Y-150717889D01*
X124783540Y-150492984D01*
X124691073Y-150280326D01*
X124565116Y-150085625D01*
X124537027Y-150054755D01*
X124412528Y-149917933D01*
X124412526Y-149917932D01*
X124409050Y-149914111D01*
X124404999Y-149910912D01*
X124404995Y-149910908D01*
X124231125Y-149773595D01*
X124227067Y-149770390D01*
X124024055Y-149658321D01*
X123887883Y-149610100D01*
X123810339Y-149582640D01*
X123810335Y-149582639D01*
X123805464Y-149580914D01*
X123800371Y-149580007D01*
X123800368Y-149580006D01*
X123582255Y-149541154D01*
X123582249Y-149541153D01*
X123577166Y-149540248D01*
X123488632Y-149539166D01*
X123350461Y-149537478D01*
X123350459Y-149537478D01*
X123345292Y-149537415D01*
X123116069Y-149572491D01*
X123090299Y-149580914D01*
X123074539Y-149586065D01*
X123003575Y-149588216D01*
X122946299Y-149555395D01*
X121503499Y-148112595D01*
X121469473Y-148050283D01*
X121474538Y-147979468D01*
X121517085Y-147922632D01*
X121583605Y-147897821D01*
X121592594Y-147897500D01*
X124444405Y-147897500D01*
X124512526Y-147917502D01*
X124533500Y-147934405D01*
X126996895Y-150397800D01*
X127030921Y-150460112D01*
X127033800Y-150486895D01*
X127033800Y-151898835D01*
X127040555Y-151961017D01*
X127091685Y-152097406D01*
X127179039Y-152213962D01*
X127295595Y-152301316D01*
X127431984Y-152352446D01*
X127494166Y-152359201D01*
X129393834Y-152359201D01*
X129456016Y-152352446D01*
X129592405Y-152301316D01*
X129708961Y-152213962D01*
X129796315Y-152097406D01*
X129847445Y-151961017D01*
X129854200Y-151898835D01*
X129854200Y-149999167D01*
X129847445Y-149936985D01*
X129796315Y-149800596D01*
X129708961Y-149684040D01*
X129592405Y-149596686D01*
X129456016Y-149545556D01*
X129393834Y-149538801D01*
X127981895Y-149538801D01*
X127913774Y-149518799D01*
X127892800Y-149501896D01*
X127007055Y-148616151D01*
X134939296Y-148616151D01*
X134951480Y-148869798D01*
X135001021Y-149118857D01*
X135002600Y-149123255D01*
X135002602Y-149123262D01*
X135047022Y-149246980D01*
X135086831Y-149357858D01*
X135089048Y-149361984D01*
X135201737Y-149571709D01*
X135207025Y-149581551D01*
X135209820Y-149585294D01*
X135209822Y-149585297D01*
X135356171Y-149781282D01*
X135356176Y-149781288D01*
X135358963Y-149785020D01*
X135362272Y-149788300D01*
X135362277Y-149788306D01*
X135469483Y-149894580D01*
X135539307Y-149963797D01*
X135543069Y-149966555D01*
X135543072Y-149966558D01*
X135740323Y-150111188D01*
X135744094Y-150113953D01*
X135748229Y-150116129D01*
X135748233Y-150116131D01*
X135866289Y-150178243D01*
X135968827Y-150232191D01*
X136208568Y-150315912D01*
X136458050Y-150363278D01*
X136578532Y-150368011D01*
X136707125Y-150373064D01*
X136707130Y-150373064D01*
X136711793Y-150373247D01*
X136810774Y-150362407D01*
X136959569Y-150346112D01*
X136959575Y-150346111D01*
X136964222Y-150345602D01*
X137073680Y-150316784D01*
X137205273Y-150282138D01*
X137209793Y-150280948D01*
X137328353Y-150230011D01*
X137438807Y-150182557D01*
X137438810Y-150182555D01*
X137443110Y-150180708D01*
X137447090Y-150178245D01*
X137447094Y-150178243D01*
X137655064Y-150049547D01*
X137655066Y-150049545D01*
X137659047Y-150047082D01*
X137662624Y-150044054D01*
X137849289Y-149886031D01*
X137849291Y-149886029D01*
X137852862Y-149883006D01*
X138020295Y-149692084D01*
X138028931Y-149678659D01*
X138155141Y-149482442D01*
X138157669Y-149478512D01*
X138261967Y-149246980D01*
X138330896Y-149002575D01*
X138362943Y-148750667D01*
X138365291Y-148661000D01*
X138353348Y-148500283D01*
X138346818Y-148412411D01*
X138346817Y-148412407D01*
X138346472Y-148407759D01*
X138341188Y-148384405D01*
X138291459Y-148164639D01*
X138290428Y-148160082D01*
X138272138Y-148113050D01*
X138200084Y-147927762D01*
X138200083Y-147927760D01*
X138198391Y-147923409D01*
X138177866Y-147887498D01*
X138074702Y-147706997D01*
X138074700Y-147706995D01*
X138072383Y-147702940D01*
X137915171Y-147503517D01*
X137730209Y-147329523D01*
X137686483Y-147299189D01*
X137525393Y-147187437D01*
X137525390Y-147187435D01*
X137521561Y-147184779D01*
X137517384Y-147182719D01*
X137517377Y-147182715D01*
X137297996Y-147074528D01*
X137297992Y-147074527D01*
X137293810Y-147072464D01*
X137051960Y-146995047D01*
X137047355Y-146994297D01*
X136805935Y-146954980D01*
X136805934Y-146954980D01*
X136801323Y-146954229D01*
X136674364Y-146952567D01*
X136552083Y-146950966D01*
X136552080Y-146950966D01*
X136547406Y-146950905D01*
X136295787Y-146985149D01*
X136051993Y-147056208D01*
X135821380Y-147162522D01*
X135817471Y-147165085D01*
X135612928Y-147299189D01*
X135612923Y-147299193D01*
X135609015Y-147301755D01*
X135419562Y-147470848D01*
X135257183Y-147666087D01*
X135125447Y-147883182D01*
X135123638Y-147887496D01*
X135123637Y-147887498D01*
X135055376Y-148050283D01*
X135027246Y-148117365D01*
X134964738Y-148363490D01*
X134939296Y-148616151D01*
X127007055Y-148616151D01*
X125262651Y-146871747D01*
X125255111Y-146863461D01*
X125250999Y-146856982D01*
X125201347Y-146810356D01*
X125198506Y-146807602D01*
X125178769Y-146787865D01*
X125175572Y-146785385D01*
X125166550Y-146777680D01*
X125140099Y-146752841D01*
X125134320Y-146747414D01*
X125127374Y-146743595D01*
X125127371Y-146743593D01*
X125116565Y-146737652D01*
X125100046Y-146726801D01*
X125099582Y-146726441D01*
X125084040Y-146714386D01*
X125076771Y-146711241D01*
X125076767Y-146711238D01*
X125043462Y-146696826D01*
X125032812Y-146691609D01*
X124994059Y-146670305D01*
X124974436Y-146665267D01*
X124955733Y-146658863D01*
X124944419Y-146653967D01*
X124944418Y-146653967D01*
X124937144Y-146650819D01*
X124929321Y-146649580D01*
X124929311Y-146649577D01*
X124893475Y-146643901D01*
X124881855Y-146641495D01*
X124846710Y-146632472D01*
X124846709Y-146632472D01*
X124839029Y-146630500D01*
X124818775Y-146630500D01*
X124799064Y-146628949D01*
X124786885Y-146627020D01*
X124779056Y-146625780D01*
X124771164Y-146626526D01*
X124735038Y-146629941D01*
X124723180Y-146630500D01*
X112145595Y-146630500D01*
X112077474Y-146610498D01*
X112056500Y-146593595D01*
X105964905Y-140502000D01*
X105930879Y-140439688D01*
X105928000Y-140412905D01*
X105928000Y-134590831D01*
X105948002Y-134522710D01*
X106001658Y-134476217D01*
X106071932Y-134466113D01*
X106129566Y-134490005D01*
X106243394Y-134575315D01*
X106379783Y-134626445D01*
X106441965Y-134633200D01*
X108341633Y-134633200D01*
X108403815Y-134626445D01*
X108540204Y-134575315D01*
X108656760Y-134487961D01*
X108744114Y-134371405D01*
X108795244Y-134235016D01*
X108801999Y-134172834D01*
X108801999Y-132273166D01*
X108795244Y-132210984D01*
X108744114Y-132074595D01*
X108656760Y-131958039D01*
X108540204Y-131870685D01*
X108403815Y-131819555D01*
X108341633Y-131812800D01*
X106441965Y-131812800D01*
X106379783Y-131819555D01*
X106243394Y-131870685D01*
X106183443Y-131915616D01*
X106129565Y-131955995D01*
X106063059Y-131980843D01*
X105993676Y-131965790D01*
X105943446Y-131915616D01*
X105928000Y-131855169D01*
X105928000Y-122747065D01*
X106372863Y-122747065D01*
X106381608Y-122979993D01*
X106429473Y-123208117D01*
X106515091Y-123424914D01*
X106636012Y-123624187D01*
X106639507Y-123628215D01*
X106639508Y-123628216D01*
X106723840Y-123725399D01*
X106788781Y-123800237D01*
X106792912Y-123803624D01*
X106964899Y-123944646D01*
X106964905Y-123944650D01*
X106969027Y-123948030D01*
X107171599Y-124063340D01*
X107176615Y-124065161D01*
X107176620Y-124065163D01*
X107385687Y-124141051D01*
X107385691Y-124141052D01*
X107390702Y-124142871D01*
X107395951Y-124143820D01*
X107395954Y-124143821D01*
X107615990Y-124183610D01*
X107615997Y-124183611D01*
X107620074Y-124184348D01*
X107637998Y-124185193D01*
X107643013Y-124185430D01*
X107643020Y-124185430D01*
X107644501Y-124185500D01*
X108108326Y-124185500D01*
X108282056Y-124170759D01*
X108287220Y-124169419D01*
X108287224Y-124169418D01*
X108502507Y-124113541D01*
X108502511Y-124113539D01*
X108507672Y-124112200D01*
X108531326Y-124101545D01*
X108715335Y-124018655D01*
X108715338Y-124018654D01*
X108720196Y-124016465D01*
X108913551Y-123886291D01*
X109082209Y-123725399D01*
X109221347Y-123538391D01*
X109326987Y-123330612D01*
X109396109Y-123108005D01*
X109426735Y-122876935D01*
X109417990Y-122644007D01*
X109370125Y-122415883D01*
X109284507Y-122199086D01*
X109163586Y-121999813D01*
X109079471Y-121902879D01*
X109014317Y-121827796D01*
X109014315Y-121827794D01*
X109010817Y-121823763D01*
X108968068Y-121788711D01*
X108834699Y-121679354D01*
X108834693Y-121679350D01*
X108830571Y-121675970D01*
X108786801Y-121651055D01*
X108737495Y-121599973D01*
X108723633Y-121530343D01*
X108749616Y-121464272D01*
X108778764Y-121437035D01*
X108913551Y-121346291D01*
X109082209Y-121185399D01*
X109221347Y-120998391D01*
X109326987Y-120790612D01*
X109396109Y-120568005D01*
X109426735Y-120336935D01*
X109417990Y-120104007D01*
X109370125Y-119875883D01*
X109284507Y-119659086D01*
X109163586Y-119459813D01*
X109012002Y-119285128D01*
X108982462Y-119220569D01*
X108992516Y-119150288D01*
X109038970Y-119096599D01*
X109062938Y-119084566D01*
X109153094Y-119050768D01*
X109153095Y-119050767D01*
X109161504Y-119047615D01*
X109278060Y-118960261D01*
X109365414Y-118843705D01*
X109416544Y-118707316D01*
X109423299Y-118645134D01*
X109423299Y-116818866D01*
X109416544Y-116756684D01*
X109365414Y-116620295D01*
X109278060Y-116503739D01*
X109161504Y-116416385D01*
X109025115Y-116365255D01*
X108962933Y-116358500D01*
X106836665Y-116358500D01*
X106774483Y-116365255D01*
X106638094Y-116416385D01*
X106521538Y-116503739D01*
X106434184Y-116620295D01*
X106383054Y-116756684D01*
X106376299Y-116818866D01*
X106376299Y-118645134D01*
X106383054Y-118707316D01*
X106434184Y-118843705D01*
X106521538Y-118960261D01*
X106638094Y-119047615D01*
X106646503Y-119050767D01*
X106646504Y-119050768D01*
X106740968Y-119086181D01*
X106797733Y-119128822D01*
X106822433Y-119195384D01*
X106807226Y-119264733D01*
X106783711Y-119295332D01*
X106717389Y-119358601D01*
X106578251Y-119545609D01*
X106472611Y-119753388D01*
X106403489Y-119975995D01*
X106372863Y-120207065D01*
X106381608Y-120439993D01*
X106429473Y-120668117D01*
X106515091Y-120884914D01*
X106517859Y-120889475D01*
X106623764Y-121064002D01*
X106636012Y-121084187D01*
X106639507Y-121088215D01*
X106639508Y-121088216D01*
X106723840Y-121185399D01*
X106788781Y-121260237D01*
X106792912Y-121263624D01*
X106964899Y-121404646D01*
X106964905Y-121404650D01*
X106969027Y-121408030D01*
X106973665Y-121410670D01*
X107012797Y-121432945D01*
X107062103Y-121484027D01*
X107075965Y-121553657D01*
X107049982Y-121619728D01*
X107020834Y-121646965D01*
X106886047Y-121737709D01*
X106717389Y-121898601D01*
X106578251Y-122085609D01*
X106472611Y-122293388D01*
X106403489Y-122515995D01*
X106372863Y-122747065D01*
X105928000Y-122747065D01*
X105928000Y-108841273D01*
X105948002Y-108773152D01*
X106001658Y-108726659D01*
X106071932Y-108716555D01*
X106136512Y-108746049D01*
X106169269Y-108793628D01*
X106170095Y-108793243D01*
X106172420Y-108798228D01*
X106264530Y-108995762D01*
X106264533Y-108995767D01*
X106266856Y-109000749D01*
X106398181Y-109188300D01*
X106560079Y-109350198D01*
X106564587Y-109353355D01*
X106564590Y-109353357D01*
X106586644Y-109368799D01*
X106747630Y-109481523D01*
X106752612Y-109483846D01*
X106752617Y-109483849D01*
X106950154Y-109575961D01*
X106955136Y-109578284D01*
X106960444Y-109579706D01*
X106960446Y-109579707D01*
X107170977Y-109636119D01*
X107170979Y-109636119D01*
X107176292Y-109637543D01*
X107404379Y-109657498D01*
X107632466Y-109637543D01*
X107637779Y-109636119D01*
X107637781Y-109636119D01*
X107848312Y-109579707D01*
X107848314Y-109579706D01*
X107853622Y-109578284D01*
X107858604Y-109575961D01*
X108056141Y-109483849D01*
X108056146Y-109483846D01*
X108061128Y-109481523D01*
X108222114Y-109368799D01*
X108244168Y-109353357D01*
X108244171Y-109353355D01*
X108248679Y-109350198D01*
X108410577Y-109188300D01*
X108541902Y-109000749D01*
X108544225Y-108995767D01*
X108544228Y-108995762D01*
X108636340Y-108798225D01*
X108636340Y-108798224D01*
X108638663Y-108793243D01*
X108644047Y-108773152D01*
X108696498Y-108577402D01*
X108696498Y-108577400D01*
X108697922Y-108572087D01*
X108717877Y-108344000D01*
X108697922Y-108115913D01*
X108659449Y-107972331D01*
X108640086Y-107900067D01*
X108640085Y-107900065D01*
X108638663Y-107894757D01*
X108636340Y-107889775D01*
X108544228Y-107692238D01*
X108544225Y-107692233D01*
X108541902Y-107687251D01*
X108410577Y-107499700D01*
X108248679Y-107337802D01*
X108244171Y-107334645D01*
X108244168Y-107334643D01*
X108100276Y-107233889D01*
X108061128Y-107206477D01*
X108056146Y-107204154D01*
X108056141Y-107204151D01*
X107858604Y-107112039D01*
X107858603Y-107112039D01*
X107853622Y-107109716D01*
X107848314Y-107108294D01*
X107848312Y-107108293D01*
X107637781Y-107051881D01*
X107637779Y-107051881D01*
X107632466Y-107050457D01*
X107404379Y-107030502D01*
X107176292Y-107050457D01*
X107170979Y-107051881D01*
X107170977Y-107051881D01*
X106960446Y-107108293D01*
X106960444Y-107108294D01*
X106955136Y-107109716D01*
X106950155Y-107112039D01*
X106950154Y-107112039D01*
X106752617Y-107204151D01*
X106752612Y-107204154D01*
X106747630Y-107206477D01*
X106708482Y-107233889D01*
X106564590Y-107334643D01*
X106564587Y-107334645D01*
X106560079Y-107337802D01*
X106398181Y-107499700D01*
X106266856Y-107687251D01*
X106264533Y-107692233D01*
X106264530Y-107692238D01*
X106222517Y-107782337D01*
X106170095Y-107894757D01*
X106169107Y-107894296D01*
X106130306Y-107946994D01*
X106063984Y-107972331D01*
X105994492Y-107957789D01*
X105943894Y-107907986D01*
X105928000Y-107846727D01*
X105928000Y-104660000D01*
X105948002Y-104591879D01*
X106001658Y-104545386D01*
X106054000Y-104534000D01*
X120660000Y-104534000D01*
X120660000Y-99834000D01*
X120680002Y-99765879D01*
X120733658Y-99719386D01*
X120786000Y-99708000D01*
X130948000Y-99708000D01*
X131016121Y-99728002D01*
G37*
G04 #@! TD.AperFunction*
G04 #@! TA.AperFunction,Conductor*
G36*
X129746121Y-55786002D02*
G01*
X129792614Y-55839658D01*
X129804000Y-55892000D01*
X129804000Y-70118000D01*
X129783998Y-70186121D01*
X129730342Y-70232614D01*
X129678000Y-70244000D01*
X114944000Y-70244000D01*
X114875879Y-70223998D01*
X114829386Y-70170342D01*
X114818000Y-70118000D01*
X114818000Y-55892000D01*
X114838002Y-55823879D01*
X114891658Y-55777386D01*
X114944000Y-55766000D01*
X129678000Y-55766000D01*
X129746121Y-55786002D01*
G37*
G04 #@! TD.AperFunction*
G04 #@! TA.AperFunction,Conductor*
G36*
X152860121Y-45626002D02*
G01*
X152906614Y-45679658D01*
X152918000Y-45732000D01*
X152918000Y-55004000D01*
X155205000Y-55004000D01*
X155273121Y-55024002D01*
X155319614Y-55077658D01*
X155331000Y-55130000D01*
X155331000Y-63641000D01*
X155310998Y-63709121D01*
X155257342Y-63755614D01*
X155205000Y-63767000D01*
X140344000Y-63767000D01*
X140275879Y-63746998D01*
X140229386Y-63693342D01*
X140218000Y-63641000D01*
X140218000Y-55130000D01*
X140238002Y-55061879D01*
X140291658Y-55015386D01*
X140344000Y-55004000D01*
X147584000Y-55004000D01*
X147584000Y-45732000D01*
X147604002Y-45663879D01*
X147657658Y-45617386D01*
X147710000Y-45606000D01*
X152792000Y-45606000D01*
X152860121Y-45626002D01*
G37*
G04 #@! TD.AperFunction*
G04 #@! TA.AperFunction,Conductor*
G36*
X174450121Y-66708002D02*
G01*
X174496614Y-66761658D01*
X174508000Y-66814000D01*
X174508000Y-154065000D01*
X174487998Y-154133121D01*
X174434342Y-154179614D01*
X174382000Y-154191000D01*
X171797871Y-154191000D01*
X171729750Y-154170998D01*
X171683257Y-154117342D01*
X171673153Y-154047068D01*
X171702647Y-153982488D01*
X171708776Y-153975905D01*
X172152911Y-153531770D01*
X172167323Y-153519384D01*
X172178918Y-153510851D01*
X172178923Y-153510846D01*
X172184818Y-153506508D01*
X172189557Y-153500930D01*
X172189560Y-153500927D01*
X172219035Y-153466232D01*
X172225965Y-153458716D01*
X172231660Y-153453021D01*
X172249281Y-153430749D01*
X172252072Y-153427345D01*
X172294591Y-153377297D01*
X172294592Y-153377295D01*
X172299333Y-153371715D01*
X172302661Y-153365199D01*
X172306028Y-153360150D01*
X172309195Y-153355021D01*
X172313734Y-153349284D01*
X172344655Y-153283125D01*
X172346561Y-153279225D01*
X172379769Y-153214192D01*
X172381508Y-153207084D01*
X172383607Y-153201441D01*
X172385524Y-153195678D01*
X172388622Y-153189050D01*
X172403487Y-153117583D01*
X172404457Y-153113299D01*
X172420473Y-153047845D01*
X172421808Y-153042390D01*
X172422500Y-153031236D01*
X172422536Y-153031238D01*
X172422775Y-153027245D01*
X172423149Y-153023053D01*
X172424640Y-153015885D01*
X172422546Y-152938479D01*
X172422500Y-152935072D01*
X172422500Y-152485201D01*
X172442502Y-152417080D01*
X172496158Y-152370587D01*
X172548500Y-152359201D01*
X172613834Y-152359201D01*
X172676016Y-152352446D01*
X172812405Y-152301316D01*
X172928961Y-152213962D01*
X173016315Y-152097406D01*
X173067445Y-151961017D01*
X173074200Y-151898835D01*
X173074200Y-149999167D01*
X173067445Y-149936985D01*
X173016315Y-149800596D01*
X172928961Y-149684040D01*
X172812405Y-149596686D01*
X172676016Y-149545556D01*
X172613834Y-149538801D01*
X170714166Y-149538801D01*
X170651984Y-149545556D01*
X170515595Y-149596686D01*
X170399039Y-149684040D01*
X170311685Y-149800596D01*
X170260555Y-149936985D01*
X170253800Y-149999167D01*
X170253800Y-151898835D01*
X170260555Y-151961017D01*
X170311685Y-152097406D01*
X170399039Y-152213962D01*
X170515595Y-152301316D01*
X170651984Y-152352446D01*
X170714166Y-152359201D01*
X170779500Y-152359201D01*
X170847621Y-152379203D01*
X170894114Y-152432859D01*
X170905500Y-152485201D01*
X170905500Y-152581629D01*
X170885498Y-152649750D01*
X170868595Y-152670724D01*
X169385224Y-154154095D01*
X169322912Y-154188121D01*
X169296129Y-154191000D01*
X144662000Y-154191000D01*
X144593879Y-154170998D01*
X144547386Y-154117342D01*
X144536000Y-154065000D01*
X144536000Y-150914429D01*
X165249389Y-150914429D01*
X165262738Y-151145936D01*
X165313718Y-151372154D01*
X165400962Y-151587008D01*
X165522125Y-151784728D01*
X165673953Y-151960003D01*
X165852370Y-152108128D01*
X165856822Y-152110730D01*
X165856827Y-152110733D01*
X166042691Y-152219343D01*
X166052584Y-152225124D01*
X166269218Y-152307848D01*
X166274286Y-152308879D01*
X166274289Y-152308880D01*
X166386090Y-152331626D01*
X166496454Y-152354080D01*
X166501627Y-152354270D01*
X166501630Y-152354270D01*
X166723026Y-152362388D01*
X166723030Y-152362388D01*
X166728190Y-152362577D01*
X166733310Y-152361921D01*
X166733312Y-152361921D01*
X166828930Y-152349672D01*
X166958202Y-152333112D01*
X166963151Y-152331627D01*
X166963157Y-152331626D01*
X167175370Y-152267959D01*
X167180313Y-152266476D01*
X167388558Y-152164458D01*
X167472487Y-152104592D01*
X167573132Y-152032803D01*
X167573137Y-152032799D01*
X167577344Y-152029798D01*
X167638941Y-151968416D01*
X167705356Y-151902232D01*
X167741602Y-151866112D01*
X167876920Y-151677797D01*
X167919616Y-151591409D01*
X167977370Y-151474551D01*
X167977371Y-151474549D01*
X167979664Y-151469909D01*
X168010900Y-151367100D01*
X168045572Y-151252985D01*
X168045573Y-151252979D01*
X168047076Y-151248033D01*
X168077344Y-151018125D01*
X168079033Y-150949001D01*
X168072734Y-150872387D01*
X168060456Y-150723040D01*
X168060455Y-150723034D01*
X168060032Y-150717889D01*
X168003540Y-150492984D01*
X167911073Y-150280326D01*
X167785116Y-150085625D01*
X167757027Y-150054755D01*
X167632528Y-149917933D01*
X167632526Y-149917932D01*
X167629050Y-149914111D01*
X167624999Y-149910912D01*
X167624995Y-149910908D01*
X167451125Y-149773595D01*
X167447067Y-149770390D01*
X167244055Y-149658321D01*
X167125620Y-149616381D01*
X167030339Y-149582640D01*
X167030335Y-149582639D01*
X167025464Y-149580914D01*
X167020371Y-149580007D01*
X167020368Y-149580006D01*
X166802255Y-149541154D01*
X166802249Y-149541153D01*
X166797166Y-149540248D01*
X166708632Y-149539166D01*
X166570461Y-149537478D01*
X166570459Y-149537478D01*
X166565292Y-149537415D01*
X166336069Y-149572491D01*
X166115653Y-149644534D01*
X166111065Y-149646922D01*
X166111061Y-149646924D01*
X165914551Y-149749221D01*
X165909962Y-149751610D01*
X165905829Y-149754713D01*
X165905826Y-149754715D01*
X165728657Y-149887737D01*
X165724522Y-149890842D01*
X165564313Y-150058492D01*
X165433636Y-150250057D01*
X165336001Y-150460393D01*
X165274031Y-150683850D01*
X165249389Y-150914429D01*
X144536000Y-150914429D01*
X144536000Y-148616151D01*
X145099296Y-148616151D01*
X145111480Y-148869798D01*
X145161021Y-149118857D01*
X145162600Y-149123255D01*
X145162602Y-149123262D01*
X145207022Y-149246980D01*
X145246831Y-149357858D01*
X145249048Y-149361984D01*
X145361737Y-149571709D01*
X145367025Y-149581551D01*
X145369820Y-149585294D01*
X145369822Y-149585297D01*
X145516171Y-149781282D01*
X145516176Y-149781288D01*
X145518963Y-149785020D01*
X145522272Y-149788300D01*
X145522277Y-149788306D01*
X145629483Y-149894580D01*
X145699307Y-149963797D01*
X145703069Y-149966555D01*
X145703072Y-149966558D01*
X145900323Y-150111188D01*
X145904094Y-150113953D01*
X145908229Y-150116129D01*
X145908233Y-150116131D01*
X146026289Y-150178243D01*
X146128827Y-150232191D01*
X146368568Y-150315912D01*
X146618050Y-150363278D01*
X146738532Y-150368011D01*
X146867125Y-150373064D01*
X146867130Y-150373064D01*
X146871793Y-150373247D01*
X146970774Y-150362407D01*
X147119569Y-150346112D01*
X147119575Y-150346111D01*
X147124222Y-150345602D01*
X147233680Y-150316784D01*
X147365273Y-150282138D01*
X147369793Y-150280948D01*
X147488353Y-150230011D01*
X147598807Y-150182557D01*
X147598810Y-150182555D01*
X147603110Y-150180708D01*
X147607090Y-150178245D01*
X147607094Y-150178243D01*
X147815064Y-150049547D01*
X147815066Y-150049545D01*
X147819047Y-150047082D01*
X147822624Y-150044054D01*
X148009289Y-149886031D01*
X148009291Y-149886029D01*
X148012862Y-149883006D01*
X148180295Y-149692084D01*
X148188931Y-149678659D01*
X148315141Y-149482442D01*
X148317669Y-149478512D01*
X148421967Y-149246980D01*
X148490896Y-149002575D01*
X148522943Y-148750667D01*
X148525291Y-148661000D01*
X148506472Y-148407759D01*
X148450428Y-148160082D01*
X148358391Y-147923409D01*
X148337866Y-147887498D01*
X148234702Y-147706997D01*
X148234700Y-147706995D01*
X148232383Y-147702940D01*
X148075171Y-147503517D01*
X147890209Y-147329523D01*
X147846483Y-147299189D01*
X147685393Y-147187437D01*
X147685390Y-147187435D01*
X147681561Y-147184779D01*
X147677384Y-147182719D01*
X147677377Y-147182715D01*
X147457996Y-147074528D01*
X147457992Y-147074527D01*
X147453810Y-147072464D01*
X147211960Y-146995047D01*
X147207355Y-146994297D01*
X146965935Y-146954980D01*
X146965934Y-146954980D01*
X146961323Y-146954229D01*
X146834364Y-146952567D01*
X146712083Y-146950966D01*
X146712080Y-146950966D01*
X146707406Y-146950905D01*
X146455787Y-146985149D01*
X146211993Y-147056208D01*
X145981380Y-147162522D01*
X145977471Y-147165085D01*
X145772928Y-147299189D01*
X145772923Y-147299193D01*
X145769015Y-147301755D01*
X145579562Y-147470848D01*
X145417183Y-147666087D01*
X145285447Y-147883182D01*
X145187246Y-148117365D01*
X145124738Y-148363490D01*
X145099296Y-148616151D01*
X144536000Y-148616151D01*
X144536000Y-128730314D01*
X168677430Y-128730314D01*
X168677654Y-128734980D01*
X168677654Y-128734986D01*
X168679872Y-128781160D01*
X168690385Y-129000009D01*
X168743060Y-129264827D01*
X168834300Y-129518950D01*
X168962099Y-129756795D01*
X169123650Y-129973139D01*
X169126959Y-129976419D01*
X169126964Y-129976425D01*
X169312087Y-130159939D01*
X169315404Y-130163227D01*
X169319166Y-130165985D01*
X169319169Y-130165988D01*
X169439530Y-130254240D01*
X169533149Y-130322884D01*
X169537284Y-130325060D01*
X169537288Y-130325062D01*
X169663376Y-130391400D01*
X169772101Y-130448603D01*
X170027011Y-130537621D01*
X170292278Y-130587984D01*
X170420440Y-130593019D01*
X170557408Y-130598401D01*
X170557413Y-130598401D01*
X170562076Y-130598584D01*
X170658866Y-130587984D01*
X170825824Y-130569700D01*
X170825830Y-130569699D01*
X170830477Y-130569190D01*
X170956242Y-130536079D01*
X171087063Y-130501637D01*
X171087065Y-130501636D01*
X171091586Y-130500446D01*
X171339665Y-130393862D01*
X171458832Y-130320119D01*
X171565292Y-130254240D01*
X171565296Y-130254237D01*
X171569265Y-130251781D01*
X171775342Y-130077324D01*
X171798996Y-130050352D01*
X171950288Y-129877838D01*
X171950292Y-129877833D01*
X171953370Y-129874323D01*
X172099436Y-129647237D01*
X172210332Y-129401056D01*
X172283623Y-129141187D01*
X172317697Y-128873340D01*
X172320194Y-128778000D01*
X172319960Y-128774851D01*
X172300530Y-128513388D01*
X172300529Y-128513384D01*
X172300184Y-128508736D01*
X172240595Y-128245388D01*
X172142734Y-127993741D01*
X172008753Y-127759322D01*
X171841594Y-127547281D01*
X171644929Y-127362278D01*
X171423080Y-127208375D01*
X171418890Y-127206309D01*
X171418887Y-127206307D01*
X171185107Y-127091020D01*
X171185104Y-127091019D01*
X171180919Y-127088955D01*
X171133041Y-127073629D01*
X171078336Y-127056118D01*
X170923766Y-127006640D01*
X170919159Y-127005890D01*
X170919156Y-127005889D01*
X170661882Y-126963989D01*
X170661883Y-126963989D01*
X170657271Y-126963238D01*
X170526265Y-126961523D01*
X170391965Y-126959765D01*
X170391962Y-126959765D01*
X170387288Y-126959704D01*
X170119749Y-126996114D01*
X170115259Y-126997423D01*
X170115253Y-126997424D01*
X170004910Y-127029587D01*
X169860529Y-127071670D01*
X169856282Y-127073628D01*
X169856279Y-127073629D01*
X169763429Y-127116434D01*
X169615325Y-127184711D01*
X169611416Y-127187274D01*
X169393436Y-127330187D01*
X169393431Y-127330191D01*
X169389523Y-127332753D01*
X169188083Y-127512545D01*
X169015431Y-127720137D01*
X168875359Y-127950968D01*
X168770944Y-128199968D01*
X168704482Y-128461666D01*
X168677430Y-128730314D01*
X144536000Y-128730314D01*
X144536000Y-115836000D01*
X144556002Y-115767879D01*
X144609658Y-115721386D01*
X144662000Y-115710000D01*
X153680000Y-115710000D01*
X153680000Y-102314314D01*
X168677430Y-102314314D01*
X168677654Y-102318980D01*
X168677654Y-102318986D01*
X168679872Y-102365160D01*
X168690385Y-102584009D01*
X168743060Y-102848827D01*
X168834300Y-103102950D01*
X168962099Y-103340795D01*
X169123650Y-103557139D01*
X169126959Y-103560419D01*
X169126964Y-103560425D01*
X169312087Y-103743939D01*
X169315404Y-103747227D01*
X169319166Y-103749985D01*
X169319169Y-103749988D01*
X169439530Y-103838240D01*
X169533149Y-103906884D01*
X169537284Y-103909060D01*
X169537288Y-103909062D01*
X169663376Y-103975400D01*
X169772101Y-104032603D01*
X170027011Y-104121621D01*
X170292278Y-104171984D01*
X170420440Y-104177019D01*
X170557408Y-104182401D01*
X170557413Y-104182401D01*
X170562076Y-104182584D01*
X170658866Y-104171984D01*
X170825824Y-104153700D01*
X170825830Y-104153699D01*
X170830477Y-104153190D01*
X170956242Y-104120079D01*
X171087063Y-104085637D01*
X171087065Y-104085636D01*
X171091586Y-104084446D01*
X171339665Y-103977862D01*
X171458832Y-103904119D01*
X171565292Y-103838240D01*
X171565296Y-103838237D01*
X171569265Y-103835781D01*
X171775342Y-103661324D01*
X171798996Y-103634352D01*
X171950288Y-103461838D01*
X171950292Y-103461833D01*
X171953370Y-103458323D01*
X172099436Y-103231237D01*
X172210332Y-102985056D01*
X172283623Y-102725187D01*
X172317697Y-102457340D01*
X172320194Y-102362000D01*
X172319960Y-102358851D01*
X172300530Y-102097388D01*
X172300529Y-102097384D01*
X172300184Y-102092736D01*
X172240595Y-101829388D01*
X172142734Y-101577741D01*
X172008753Y-101343322D01*
X171841594Y-101131281D01*
X171644929Y-100946278D01*
X171423080Y-100792375D01*
X171418890Y-100790309D01*
X171418887Y-100790307D01*
X171185107Y-100675020D01*
X171185104Y-100675019D01*
X171180919Y-100672955D01*
X171133041Y-100657629D01*
X171078336Y-100640118D01*
X170923766Y-100590640D01*
X170919159Y-100589890D01*
X170919156Y-100589889D01*
X170661882Y-100547989D01*
X170661883Y-100547989D01*
X170657271Y-100547238D01*
X170526265Y-100545523D01*
X170391965Y-100543765D01*
X170391962Y-100543765D01*
X170387288Y-100543704D01*
X170119749Y-100580114D01*
X170115259Y-100581423D01*
X170115253Y-100581424D01*
X170004910Y-100613587D01*
X169860529Y-100655670D01*
X169856282Y-100657628D01*
X169856279Y-100657629D01*
X169763429Y-100700434D01*
X169615325Y-100768711D01*
X169611416Y-100771274D01*
X169393436Y-100914187D01*
X169393431Y-100914191D01*
X169389523Y-100916753D01*
X169188083Y-101096545D01*
X169015431Y-101304137D01*
X168875359Y-101534968D01*
X168770944Y-101783968D01*
X168704482Y-102045666D01*
X168677430Y-102314314D01*
X153680000Y-102314314D01*
X153680000Y-75898314D01*
X168677430Y-75898314D01*
X168677654Y-75902980D01*
X168677654Y-75902986D01*
X168679872Y-75949160D01*
X168690385Y-76168009D01*
X168743060Y-76432827D01*
X168834300Y-76686950D01*
X168962099Y-76924795D01*
X169123650Y-77141139D01*
X169126959Y-77144419D01*
X169126964Y-77144425D01*
X169312087Y-77327939D01*
X169315404Y-77331227D01*
X169319166Y-77333985D01*
X169319169Y-77333988D01*
X169439530Y-77422240D01*
X169533149Y-77490884D01*
X169537284Y-77493060D01*
X169537288Y-77493062D01*
X169663376Y-77559400D01*
X169772101Y-77616603D01*
X170027011Y-77705621D01*
X170292278Y-77755984D01*
X170420440Y-77761019D01*
X170557408Y-77766401D01*
X170557413Y-77766401D01*
X170562076Y-77766584D01*
X170658866Y-77755984D01*
X170825824Y-77737700D01*
X170825830Y-77737699D01*
X170830477Y-77737190D01*
X170956242Y-77704079D01*
X171087063Y-77669637D01*
X171087065Y-77669636D01*
X171091586Y-77668446D01*
X171339665Y-77561862D01*
X171458832Y-77488119D01*
X171565292Y-77422240D01*
X171565296Y-77422237D01*
X171569265Y-77419781D01*
X171775342Y-77245324D01*
X171798996Y-77218352D01*
X171950288Y-77045838D01*
X171950292Y-77045833D01*
X171953370Y-77042323D01*
X172099436Y-76815237D01*
X172210332Y-76569056D01*
X172283623Y-76309187D01*
X172317697Y-76041340D01*
X172320194Y-75946000D01*
X172319960Y-75942851D01*
X172300530Y-75681388D01*
X172300529Y-75681384D01*
X172300184Y-75676736D01*
X172240595Y-75413388D01*
X172142734Y-75161741D01*
X172008753Y-74927322D01*
X171841594Y-74715281D01*
X171644929Y-74530278D01*
X171423080Y-74376375D01*
X171418890Y-74374309D01*
X171418887Y-74374307D01*
X171185107Y-74259020D01*
X171185104Y-74259019D01*
X171180919Y-74256955D01*
X171133041Y-74241629D01*
X171078336Y-74224118D01*
X170923766Y-74174640D01*
X170919159Y-74173890D01*
X170919156Y-74173889D01*
X170661882Y-74131989D01*
X170661883Y-74131989D01*
X170657271Y-74131238D01*
X170526265Y-74129523D01*
X170391965Y-74127765D01*
X170391962Y-74127765D01*
X170387288Y-74127704D01*
X170119749Y-74164114D01*
X170115259Y-74165423D01*
X170115253Y-74165424D01*
X170004910Y-74197587D01*
X169860529Y-74239670D01*
X169856282Y-74241628D01*
X169856279Y-74241629D01*
X169763429Y-74284434D01*
X169615325Y-74352711D01*
X169611416Y-74355274D01*
X169393436Y-74498187D01*
X169393431Y-74498191D01*
X169389523Y-74500753D01*
X169188083Y-74680545D01*
X169015431Y-74888137D01*
X168875359Y-75118968D01*
X168770944Y-75367968D01*
X168704482Y-75629666D01*
X168677430Y-75898314D01*
X153680000Y-75898314D01*
X153680000Y-66814000D01*
X153700002Y-66745879D01*
X153753658Y-66699386D01*
X153806000Y-66688000D01*
X174382000Y-66688000D01*
X174450121Y-66708002D01*
G37*
G04 #@! TD.AperFunction*
G04 #@! TA.AperFunction,Conductor*
G36*
X146758349Y-39147642D02*
G01*
X146804843Y-39201296D01*
X146816231Y-39253558D01*
X146817101Y-40576437D01*
X146825855Y-53881026D01*
X146805898Y-53949160D01*
X146752273Y-53995688D01*
X146698878Y-54007105D01*
X111516000Y-53734000D01*
X111516000Y-96998000D01*
X111495998Y-97066121D01*
X111442342Y-97112614D01*
X111390000Y-97124000D01*
X111383267Y-97124000D01*
X111372084Y-97123473D01*
X111364591Y-97121798D01*
X111356665Y-97122047D01*
X111356664Y-97122047D01*
X111296501Y-97123938D01*
X111292543Y-97124000D01*
X111264644Y-97124000D01*
X111260654Y-97124504D01*
X111248820Y-97125436D01*
X111204611Y-97126826D01*
X111196997Y-97129038D01*
X111196992Y-97129039D01*
X111185159Y-97132477D01*
X111165796Y-97136488D01*
X111145703Y-97139026D01*
X111138336Y-97141943D01*
X111138331Y-97141944D01*
X111104592Y-97155302D01*
X111093365Y-97159146D01*
X111050907Y-97171482D01*
X111044081Y-97175519D01*
X111033472Y-97181793D01*
X111015724Y-97190488D01*
X110996883Y-97197948D01*
X110990467Y-97202610D01*
X110990466Y-97202610D01*
X110961113Y-97223936D01*
X110951193Y-97230452D01*
X110919965Y-97248920D01*
X110919962Y-97248922D01*
X110913138Y-97252958D01*
X110898817Y-97267279D01*
X110883784Y-97280119D01*
X110867393Y-97292028D01*
X110862342Y-97298134D01*
X110839202Y-97326105D01*
X110831212Y-97334884D01*
X109765001Y-98401095D01*
X109702689Y-98435121D01*
X109675906Y-98438000D01*
X99068731Y-98438000D01*
X99000610Y-98417998D01*
X98954117Y-98364342D01*
X98942731Y-98312270D01*
X98926151Y-90569428D01*
X105977188Y-90569428D01*
X105990537Y-90800935D01*
X105991672Y-90805972D01*
X105991673Y-90805978D01*
X106003392Y-90857978D01*
X106041517Y-91027153D01*
X106128761Y-91242007D01*
X106249924Y-91439727D01*
X106401752Y-91615002D01*
X106580169Y-91763127D01*
X106584621Y-91765729D01*
X106584626Y-91765732D01*
X106775925Y-91877518D01*
X106780383Y-91880123D01*
X106997017Y-91962847D01*
X107002085Y-91963878D01*
X107002088Y-91963879D01*
X107113889Y-91986625D01*
X107224253Y-92009079D01*
X107229426Y-92009269D01*
X107229429Y-92009269D01*
X107450825Y-92017387D01*
X107450829Y-92017387D01*
X107455989Y-92017576D01*
X107461109Y-92016920D01*
X107461111Y-92016920D01*
X107531908Y-92007851D01*
X107686001Y-91988111D01*
X107690950Y-91986626D01*
X107690956Y-91986625D01*
X107903169Y-91922958D01*
X107908112Y-91921475D01*
X107920354Y-91915478D01*
X108111719Y-91821729D01*
X108116357Y-91819457D01*
X108199955Y-91759827D01*
X108300931Y-91687802D01*
X108300936Y-91687798D01*
X108305143Y-91684797D01*
X108469401Y-91521111D01*
X108604719Y-91332796D01*
X108647415Y-91246408D01*
X108705169Y-91129550D01*
X108705170Y-91129548D01*
X108707463Y-91124908D01*
X108738699Y-91022099D01*
X108773371Y-90907984D01*
X108773372Y-90907978D01*
X108774875Y-90903032D01*
X108793932Y-90758281D01*
X108804706Y-90676445D01*
X108804706Y-90676441D01*
X108805143Y-90673124D01*
X108805571Y-90655603D01*
X108806750Y-90607365D01*
X108806750Y-90607361D01*
X108806832Y-90604000D01*
X108799860Y-90519204D01*
X108788255Y-90378039D01*
X108788254Y-90378033D01*
X108787831Y-90372888D01*
X108731339Y-90147983D01*
X108638872Y-89935325D01*
X108512915Y-89740624D01*
X108484826Y-89709754D01*
X108360327Y-89572932D01*
X108360325Y-89572931D01*
X108356849Y-89569110D01*
X108352798Y-89565911D01*
X108352794Y-89565907D01*
X108178924Y-89428594D01*
X108174866Y-89425389D01*
X107971854Y-89313320D01*
X107853419Y-89271380D01*
X107758138Y-89237639D01*
X107758134Y-89237638D01*
X107753263Y-89235913D01*
X107748170Y-89235006D01*
X107748167Y-89235005D01*
X107530054Y-89196153D01*
X107530048Y-89196152D01*
X107524965Y-89195247D01*
X107436431Y-89194165D01*
X107298260Y-89192477D01*
X107298258Y-89192477D01*
X107293091Y-89192414D01*
X107063868Y-89227490D01*
X106843452Y-89299533D01*
X106838864Y-89301921D01*
X106838860Y-89301923D01*
X106642350Y-89404220D01*
X106637761Y-89406609D01*
X106633628Y-89409712D01*
X106633625Y-89409714D01*
X106467452Y-89534480D01*
X106452321Y-89545841D01*
X106292112Y-89713491D01*
X106161435Y-89905056D01*
X106063800Y-90115392D01*
X106001830Y-90338849D01*
X105977188Y-90569428D01*
X98926151Y-90569428D01*
X98898956Y-77869428D01*
X105977188Y-77869428D01*
X105990537Y-78100935D01*
X106041517Y-78327153D01*
X106128761Y-78542007D01*
X106249924Y-78739727D01*
X106401752Y-78915002D01*
X106580169Y-79063127D01*
X106584621Y-79065729D01*
X106584626Y-79065732D01*
X106721448Y-79145684D01*
X106780383Y-79180123D01*
X106997017Y-79262847D01*
X107002085Y-79263878D01*
X107002088Y-79263879D01*
X107113889Y-79286625D01*
X107224253Y-79309079D01*
X107229426Y-79309269D01*
X107229429Y-79309269D01*
X107450825Y-79317387D01*
X107450829Y-79317387D01*
X107455989Y-79317576D01*
X107461109Y-79316920D01*
X107461111Y-79316920D01*
X107531908Y-79307851D01*
X107686001Y-79288111D01*
X107690950Y-79286626D01*
X107690956Y-79286625D01*
X107903169Y-79222958D01*
X107908112Y-79221475D01*
X107935892Y-79207866D01*
X108111719Y-79121729D01*
X108116357Y-79119457D01*
X108199955Y-79059827D01*
X108300931Y-78987802D01*
X108300936Y-78987798D01*
X108305143Y-78984797D01*
X108340007Y-78950055D01*
X108465740Y-78824759D01*
X108469401Y-78821111D01*
X108604719Y-78632796D01*
X108647415Y-78546408D01*
X108705169Y-78429550D01*
X108705170Y-78429548D01*
X108707463Y-78424908D01*
X108740598Y-78315851D01*
X108773371Y-78207984D01*
X108773372Y-78207978D01*
X108774875Y-78203032D01*
X108791006Y-78080504D01*
X108804706Y-77976445D01*
X108804706Y-77976441D01*
X108805143Y-77973124D01*
X108806832Y-77904000D01*
X108800533Y-77827386D01*
X108788255Y-77678039D01*
X108788254Y-77678033D01*
X108787831Y-77672888D01*
X108731339Y-77447983D01*
X108638872Y-77235325D01*
X108512915Y-77040624D01*
X108484826Y-77009754D01*
X108360327Y-76872932D01*
X108360325Y-76872931D01*
X108356849Y-76869110D01*
X108352798Y-76865911D01*
X108352794Y-76865907D01*
X108178924Y-76728594D01*
X108174866Y-76725389D01*
X107971854Y-76613320D01*
X107853419Y-76571380D01*
X107758138Y-76537639D01*
X107758134Y-76537638D01*
X107753263Y-76535913D01*
X107748170Y-76535006D01*
X107748167Y-76535005D01*
X107530054Y-76496153D01*
X107530048Y-76496152D01*
X107524965Y-76495247D01*
X107436431Y-76494165D01*
X107298260Y-76492477D01*
X107298258Y-76492477D01*
X107293091Y-76492414D01*
X107063868Y-76527490D01*
X106843452Y-76599533D01*
X106838864Y-76601921D01*
X106838860Y-76601923D01*
X106642350Y-76704220D01*
X106637761Y-76706609D01*
X106633628Y-76709712D01*
X106633625Y-76709714D01*
X106456456Y-76842736D01*
X106452321Y-76845841D01*
X106292112Y-77013491D01*
X106161435Y-77205056D01*
X106063800Y-77415392D01*
X106001830Y-77638849D01*
X105977188Y-77869428D01*
X98898956Y-77869428D01*
X98871000Y-64813828D01*
X105977188Y-64813828D01*
X105990537Y-65045335D01*
X106041517Y-65271553D01*
X106128761Y-65486407D01*
X106249924Y-65684127D01*
X106401752Y-65859402D01*
X106580169Y-66007527D01*
X106584621Y-66010129D01*
X106584626Y-66010132D01*
X106775925Y-66121918D01*
X106780383Y-66124523D01*
X106997017Y-66207247D01*
X107002085Y-66208278D01*
X107002088Y-66208279D01*
X107113889Y-66231025D01*
X107224253Y-66253479D01*
X107229426Y-66253669D01*
X107229429Y-66253669D01*
X107450825Y-66261787D01*
X107450829Y-66261787D01*
X107455989Y-66261976D01*
X107461109Y-66261320D01*
X107461111Y-66261320D01*
X107531908Y-66252251D01*
X107686001Y-66232511D01*
X107690950Y-66231026D01*
X107690956Y-66231025D01*
X107903169Y-66167358D01*
X107908112Y-66165875D01*
X108116357Y-66063857D01*
X108199955Y-66004227D01*
X108300931Y-65932202D01*
X108300936Y-65932198D01*
X108305143Y-65929197D01*
X108469401Y-65765511D01*
X108604719Y-65577196D01*
X108647415Y-65490808D01*
X108705169Y-65373950D01*
X108705170Y-65373948D01*
X108707463Y-65369308D01*
X108738699Y-65266499D01*
X108773371Y-65152384D01*
X108773372Y-65152378D01*
X108774875Y-65147432D01*
X108805143Y-64917524D01*
X108806832Y-64848400D01*
X108800533Y-64771786D01*
X108788255Y-64622439D01*
X108788254Y-64622433D01*
X108787831Y-64617288D01*
X108731339Y-64392383D01*
X108638872Y-64179725D01*
X108512915Y-63985024D01*
X108484826Y-63954154D01*
X108360327Y-63817332D01*
X108360325Y-63817331D01*
X108356849Y-63813510D01*
X108352798Y-63810311D01*
X108352794Y-63810307D01*
X108178924Y-63672994D01*
X108174866Y-63669789D01*
X107971854Y-63557720D01*
X107853419Y-63515780D01*
X107758138Y-63482039D01*
X107758134Y-63482038D01*
X107753263Y-63480313D01*
X107748170Y-63479406D01*
X107748167Y-63479405D01*
X107530054Y-63440553D01*
X107530048Y-63440552D01*
X107524965Y-63439647D01*
X107436431Y-63438565D01*
X107298260Y-63436877D01*
X107298258Y-63436877D01*
X107293091Y-63436814D01*
X107063868Y-63471890D01*
X106843452Y-63543933D01*
X106838864Y-63546321D01*
X106838860Y-63546323D01*
X106642350Y-63648620D01*
X106637761Y-63651009D01*
X106633628Y-63654112D01*
X106633625Y-63654114D01*
X106456456Y-63787136D01*
X106452321Y-63790241D01*
X106292112Y-63957891D01*
X106161435Y-64149456D01*
X106063800Y-64359792D01*
X106001830Y-64583249D01*
X105977188Y-64813828D01*
X98871000Y-64813828D01*
X98842935Y-51707428D01*
X105977188Y-51707428D01*
X105990537Y-51938935D01*
X106041517Y-52165153D01*
X106128761Y-52380007D01*
X106249924Y-52577727D01*
X106401752Y-52753002D01*
X106580169Y-52901127D01*
X106584621Y-52903729D01*
X106584626Y-52903732D01*
X106775925Y-53015518D01*
X106780383Y-53018123D01*
X106997017Y-53100847D01*
X107002085Y-53101878D01*
X107002088Y-53101879D01*
X107113889Y-53124625D01*
X107224253Y-53147079D01*
X107229426Y-53147269D01*
X107229429Y-53147269D01*
X107450825Y-53155387D01*
X107450829Y-53155387D01*
X107455989Y-53155576D01*
X107461109Y-53154920D01*
X107461111Y-53154920D01*
X107531908Y-53145851D01*
X107686001Y-53126111D01*
X107690950Y-53124626D01*
X107690956Y-53124625D01*
X107903169Y-53060958D01*
X107908112Y-53059475D01*
X108116357Y-52957457D01*
X108199955Y-52897827D01*
X108300931Y-52825802D01*
X108300936Y-52825798D01*
X108305143Y-52822797D01*
X108469401Y-52659111D01*
X108604719Y-52470796D01*
X108647415Y-52384408D01*
X108705169Y-52267550D01*
X108705170Y-52267548D01*
X108707463Y-52262908D01*
X108738699Y-52160099D01*
X108773371Y-52045984D01*
X108773372Y-52045978D01*
X108774875Y-52041032D01*
X108805143Y-51811124D01*
X108806832Y-51742000D01*
X108800533Y-51665386D01*
X108788255Y-51516039D01*
X108788254Y-51516033D01*
X108787831Y-51510888D01*
X108731339Y-51285983D01*
X108638872Y-51073325D01*
X108512915Y-50878624D01*
X108484826Y-50847754D01*
X108360327Y-50710932D01*
X108360325Y-50710931D01*
X108356849Y-50707110D01*
X108352798Y-50703911D01*
X108352794Y-50703907D01*
X108178924Y-50566594D01*
X108174866Y-50563389D01*
X107971854Y-50451320D01*
X107853419Y-50409380D01*
X107758138Y-50375639D01*
X107758134Y-50375638D01*
X107753263Y-50373913D01*
X107748170Y-50373006D01*
X107748167Y-50373005D01*
X107530054Y-50334153D01*
X107530048Y-50334152D01*
X107524965Y-50333247D01*
X107436431Y-50332165D01*
X107298260Y-50330477D01*
X107298258Y-50330477D01*
X107293091Y-50330414D01*
X107063868Y-50365490D01*
X106843452Y-50437533D01*
X106838864Y-50439921D01*
X106838860Y-50439923D01*
X106642350Y-50542220D01*
X106637761Y-50544609D01*
X106633628Y-50547712D01*
X106633625Y-50547714D01*
X106456456Y-50680736D01*
X106452321Y-50683841D01*
X106292112Y-50851491D01*
X106161435Y-51043056D01*
X106063800Y-51253392D01*
X106001830Y-51476849D01*
X105977188Y-51707428D01*
X98842935Y-51707428D01*
X98826782Y-44164037D01*
X98846638Y-44095873D01*
X98900194Y-44049266D01*
X98970447Y-44039011D01*
X99035090Y-44068366D01*
X99065049Y-44106563D01*
X99159938Y-44292794D01*
X99371643Y-44618793D01*
X99616266Y-44920876D01*
X99891124Y-45195734D01*
X100193207Y-45440357D01*
X100519205Y-45652062D01*
X100522139Y-45653557D01*
X100522146Y-45653561D01*
X100862607Y-45827034D01*
X100865547Y-45828532D01*
X101228438Y-45967833D01*
X101603901Y-46068438D01*
X101807793Y-46100732D01*
X101984576Y-46128732D01*
X101984584Y-46128733D01*
X101987824Y-46129246D01*
X102376000Y-46149589D01*
X102764176Y-46129246D01*
X102767416Y-46128733D01*
X102767424Y-46128732D01*
X102944207Y-46100732D01*
X103148099Y-46068438D01*
X103523562Y-45967833D01*
X103886453Y-45828532D01*
X103889393Y-45827034D01*
X104229854Y-45653561D01*
X104229861Y-45653557D01*
X104232795Y-45652062D01*
X104558793Y-45440357D01*
X104860876Y-45195734D01*
X105135734Y-44920876D01*
X105380357Y-44618793D01*
X105592062Y-44292794D01*
X105768532Y-43946453D01*
X105907833Y-43583562D01*
X106008438Y-43208099D01*
X106069246Y-42824176D01*
X106089589Y-42436000D01*
X106069246Y-42047824D01*
X106008438Y-41663901D01*
X105907833Y-41288438D01*
X105768532Y-40925547D01*
X105717646Y-40825677D01*
X105593561Y-40582147D01*
X105593557Y-40582140D01*
X105592062Y-40579206D01*
X105495628Y-40430709D01*
X105382152Y-40255971D01*
X105382152Y-40255970D01*
X105380357Y-40253207D01*
X105258045Y-40102165D01*
X105137809Y-39953686D01*
X105137806Y-39953682D01*
X105135734Y-39951124D01*
X104860876Y-39676266D01*
X104857287Y-39673359D01*
X104709834Y-39553954D01*
X104558793Y-39431643D01*
X104449259Y-39360511D01*
X104403022Y-39306634D01*
X104393252Y-39236313D01*
X104423052Y-39171873D01*
X104482960Y-39133774D01*
X104517878Y-39128838D01*
X118406684Y-39128444D01*
X146690227Y-39127642D01*
X146758349Y-39147642D01*
G37*
G04 #@! TD.AperFunction*
G04 #@! TA.AperFunction,Conductor*
G36*
X141176121Y-90584002D02*
G01*
X141222614Y-90637658D01*
X141234000Y-90690000D01*
X141234000Y-98566000D01*
X141213998Y-98634121D01*
X141160342Y-98680614D01*
X141108000Y-98692000D01*
X120786000Y-98692000D01*
X120717879Y-98671998D01*
X120671386Y-98618342D01*
X120660000Y-98566000D01*
X120660000Y-90979300D01*
X120680002Y-90911179D01*
X120733658Y-90864686D01*
X120786000Y-90853300D01*
X122422801Y-90853300D01*
X122425309Y-90853098D01*
X122425314Y-90853098D01*
X122598724Y-90839146D01*
X122598729Y-90839145D01*
X122603765Y-90838740D01*
X122608673Y-90837534D01*
X122608676Y-90837534D01*
X122834592Y-90782044D01*
X122839506Y-90780837D01*
X122844158Y-90778862D01*
X122844162Y-90778861D01*
X123058298Y-90687965D01*
X123062956Y-90685988D01*
X123225894Y-90583380D01*
X123293036Y-90564000D01*
X141108000Y-90564000D01*
X141176121Y-90584002D01*
G37*
G04 #@! TD.AperFunction*
G04 #@! TA.AperFunction,Conductor*
G36*
X127206121Y-72804002D02*
G01*
X127252614Y-72857658D01*
X127264000Y-72910000D01*
X127264000Y-83072000D01*
X127243998Y-83140121D01*
X127190342Y-83186614D01*
X127138000Y-83198000D01*
X116214000Y-83198000D01*
X116145879Y-83177998D01*
X116099386Y-83124342D01*
X116088000Y-83072000D01*
X116088000Y-72910000D01*
X116108002Y-72841879D01*
X116161658Y-72795386D01*
X116214000Y-72784000D01*
X127138000Y-72784000D01*
X127206121Y-72804002D01*
G37*
G04 #@! TD.AperFunction*
G04 #@! TA.AperFunction,Conductor*
G36*
X152860121Y-104300002D02*
G01*
X152906614Y-104353658D01*
X152918000Y-104406000D01*
X152918000Y-114314000D01*
X152897998Y-114382121D01*
X152844342Y-114428614D01*
X152792000Y-114440000D01*
X141614000Y-114440000D01*
X141545879Y-114419998D01*
X141499386Y-114366342D01*
X141488000Y-114314000D01*
X141488000Y-104406000D01*
X141508002Y-104337879D01*
X141561658Y-104291386D01*
X141614000Y-104280000D01*
X152792000Y-104280000D01*
X152860121Y-104300002D01*
G37*
G04 #@! TD.AperFunction*
G04 #@! TA.AperFunction,Conductor*
G36*
X138890121Y-65184002D02*
G01*
X138936614Y-65237658D01*
X138948000Y-65290000D01*
X138948000Y-78246000D01*
X138927998Y-78314121D01*
X138874342Y-78360614D01*
X138822000Y-78372000D01*
X128406000Y-78372000D01*
X128337879Y-78351998D01*
X128291386Y-78298342D01*
X128280000Y-78246000D01*
X128280000Y-71386000D01*
X128300002Y-71317879D01*
X128353658Y-71271386D01*
X128406000Y-71260000D01*
X131582000Y-71260000D01*
X131582000Y-65290000D01*
X131602002Y-65221879D01*
X131655658Y-65175386D01*
X131708000Y-65164000D01*
X138822000Y-65164000D01*
X138890121Y-65184002D01*
G37*
G04 #@! TD.AperFunction*
G04 #@! TA.AperFunction,Conductor*
G36*
X186874271Y-39149002D02*
G01*
X186920764Y-39202658D01*
X186930868Y-39272932D01*
X186901374Y-39337512D01*
X186874774Y-39360673D01*
X186793207Y-39413643D01*
X186491124Y-39658266D01*
X186216266Y-39933124D01*
X186214194Y-39935682D01*
X186214191Y-39935686D01*
X186093954Y-40084166D01*
X185971643Y-40235207D01*
X185759938Y-40561206D01*
X185758443Y-40564140D01*
X185758439Y-40564147D01*
X185688109Y-40702178D01*
X185583468Y-40907547D01*
X185444167Y-41270438D01*
X185343562Y-41645901D01*
X185282754Y-42029824D01*
X185262411Y-42418000D01*
X185282754Y-42806176D01*
X185343562Y-43190099D01*
X185444167Y-43565562D01*
X185583468Y-43928453D01*
X185759938Y-44274794D01*
X185971643Y-44600793D01*
X186216266Y-44902876D01*
X186491124Y-45177734D01*
X186793207Y-45422357D01*
X187119205Y-45634062D01*
X187122139Y-45635557D01*
X187122146Y-45635561D01*
X187462607Y-45809034D01*
X187465547Y-45810532D01*
X187828438Y-45949833D01*
X188203901Y-46050438D01*
X188407793Y-46082732D01*
X188584576Y-46110732D01*
X188584584Y-46110733D01*
X188587824Y-46111246D01*
X188976000Y-46131589D01*
X189364176Y-46111246D01*
X189367416Y-46110733D01*
X189367424Y-46110732D01*
X189544207Y-46082732D01*
X189748099Y-46050438D01*
X190123562Y-45949833D01*
X190486453Y-45810532D01*
X190489393Y-45809034D01*
X190829854Y-45635561D01*
X190829861Y-45635557D01*
X190832795Y-45634062D01*
X191158793Y-45422357D01*
X191460876Y-45177734D01*
X191735734Y-44902876D01*
X191980357Y-44600793D01*
X192192062Y-44274794D01*
X192368532Y-43928453D01*
X192507833Y-43565562D01*
X192548293Y-43414563D01*
X192585245Y-43353940D01*
X192649105Y-43322919D01*
X192719600Y-43331347D01*
X192774347Y-43376550D01*
X192796000Y-43447174D01*
X192796000Y-150255000D01*
X192775998Y-150323121D01*
X192722342Y-150369614D01*
X192670000Y-150381000D01*
X189977399Y-150381000D01*
X189909278Y-150360998D01*
X189862785Y-150307342D01*
X189852681Y-150237068D01*
X189868278Y-150192004D01*
X189895636Y-150144619D01*
X190000862Y-149884176D01*
X190033502Y-149753265D01*
X190067753Y-149615893D01*
X190067754Y-149615888D01*
X190068817Y-149611624D01*
X190098178Y-149332267D01*
X190088375Y-149051542D01*
X190064608Y-148916749D01*
X190040360Y-148779236D01*
X190039598Y-148774913D01*
X189952797Y-148507765D01*
X189829660Y-148255298D01*
X189827205Y-148251659D01*
X189827202Y-148251653D01*
X189746935Y-148132653D01*
X189672585Y-148022424D01*
X189484629Y-147813678D01*
X189269450Y-147633121D01*
X189031236Y-147484269D01*
X188774625Y-147370018D01*
X188504610Y-147292593D01*
X188500260Y-147291982D01*
X188500257Y-147291981D01*
X188397310Y-147277513D01*
X188226448Y-147253500D01*
X188015854Y-147253500D01*
X188013668Y-147253653D01*
X188013664Y-147253653D01*
X187810173Y-147267882D01*
X187810168Y-147267883D01*
X187805788Y-147268189D01*
X187531030Y-147326591D01*
X187526901Y-147328094D01*
X187526897Y-147328095D01*
X187271219Y-147421154D01*
X187271215Y-147421156D01*
X187267074Y-147422663D01*
X187019058Y-147554536D01*
X187015499Y-147557122D01*
X187015497Y-147557123D01*
X186910895Y-147633121D01*
X186791808Y-147719642D01*
X186589748Y-147914769D01*
X186416812Y-148136118D01*
X186414616Y-148139922D01*
X186414611Y-148139929D01*
X186300794Y-148337067D01*
X186276364Y-148379381D01*
X186171138Y-148639824D01*
X186170073Y-148644097D01*
X186170072Y-148644099D01*
X186136379Y-148779236D01*
X186103183Y-148912376D01*
X186073822Y-149191733D01*
X186083625Y-149472458D01*
X186084387Y-149476781D01*
X186084388Y-149476788D01*
X186108164Y-149611624D01*
X186132402Y-149749087D01*
X186219203Y-150016235D01*
X186221131Y-150020188D01*
X186221133Y-150020193D01*
X186308717Y-150199765D01*
X186320602Y-150269760D01*
X186292757Y-150335069D01*
X186234025Y-150374956D01*
X186195469Y-150381000D01*
X175268834Y-150381000D01*
X175200713Y-150360998D01*
X175154220Y-150307342D01*
X175142834Y-150255166D01*
X175142694Y-150148424D01*
X175136649Y-145560134D01*
X181587500Y-145560134D01*
X181594255Y-145622316D01*
X181645385Y-145758705D01*
X181732739Y-145875261D01*
X181849295Y-145962615D01*
X181985684Y-146013745D01*
X182047866Y-146020500D01*
X184044134Y-146020500D01*
X184106316Y-146013745D01*
X184242705Y-145962615D01*
X184359261Y-145875261D01*
X184446615Y-145758705D01*
X184497745Y-145622316D01*
X184504500Y-145560134D01*
X184504500Y-144526244D01*
X187082938Y-144526244D01*
X187096744Y-144765680D01*
X187149470Y-144999646D01*
X187239702Y-145221859D01*
X187365014Y-145426351D01*
X187522043Y-145607630D01*
X187706571Y-145760828D01*
X187913643Y-145881831D01*
X188137697Y-145967389D01*
X188142763Y-145968420D01*
X188142764Y-145968420D01*
X188199039Y-145979869D01*
X188372716Y-146015204D01*
X188507089Y-146020131D01*
X188607225Y-146023803D01*
X188607229Y-146023803D01*
X188612389Y-146023992D01*
X188617509Y-146023336D01*
X188617511Y-146023336D01*
X188845151Y-145994175D01*
X188845152Y-145994175D01*
X188850279Y-145993518D01*
X188933935Y-145968420D01*
X189075042Y-145926086D01*
X189075047Y-145926084D01*
X189079997Y-145924599D01*
X189295374Y-145819087D01*
X189299579Y-145816087D01*
X189299585Y-145816084D01*
X189392516Y-145749796D01*
X189490627Y-145679815D01*
X189660511Y-145510523D01*
X189800463Y-145315758D01*
X189849240Y-145217067D01*
X189904433Y-145105392D01*
X189904434Y-145105390D01*
X189906727Y-145100750D01*
X189976447Y-144871274D01*
X190007752Y-144633492D01*
X190009499Y-144562000D01*
X190003001Y-144482970D01*
X189990271Y-144328124D01*
X189990270Y-144328118D01*
X189989847Y-144322973D01*
X189931420Y-144090364D01*
X189929364Y-144085634D01*
X189929361Y-144085627D01*
X189837847Y-143875159D01*
X189837845Y-143875156D01*
X189835787Y-143870422D01*
X189818574Y-143843814D01*
X189708325Y-143673396D01*
X189708323Y-143673393D01*
X189705515Y-143669053D01*
X189676580Y-143637253D01*
X189547582Y-143495487D01*
X189547580Y-143495486D01*
X189544104Y-143491665D01*
X189540053Y-143488466D01*
X189540049Y-143488462D01*
X189359946Y-143346226D01*
X189355888Y-143343021D01*
X189145922Y-143227113D01*
X189023458Y-143183746D01*
X188924720Y-143148781D01*
X188924716Y-143148780D01*
X188919845Y-143147055D01*
X188914752Y-143146148D01*
X188914749Y-143146147D01*
X188688816Y-143105902D01*
X188688810Y-143105901D01*
X188683727Y-143104996D01*
X188591484Y-143103869D01*
X188449081Y-143102129D01*
X188449079Y-143102129D01*
X188443911Y-143102066D01*
X188206837Y-143138343D01*
X187978871Y-143212854D01*
X187766136Y-143323597D01*
X187762003Y-143326700D01*
X187762000Y-143326702D01*
X187699401Y-143373703D01*
X187574345Y-143467598D01*
X187408648Y-143640990D01*
X187273495Y-143839117D01*
X187172516Y-144056656D01*
X187108424Y-144287768D01*
X187082938Y-144526244D01*
X184504500Y-144526244D01*
X184504500Y-143563866D01*
X184497745Y-143501684D01*
X184446615Y-143365295D01*
X184359261Y-143248739D01*
X184242705Y-143161385D01*
X184106316Y-143110255D01*
X184044134Y-143103500D01*
X182047866Y-143103500D01*
X181985684Y-143110255D01*
X181849295Y-143161385D01*
X181732739Y-143248739D01*
X181645385Y-143365295D01*
X181594255Y-143501684D01*
X181587500Y-143563866D01*
X181587500Y-145560134D01*
X175136649Y-145560134D01*
X175129753Y-140326244D01*
X181582938Y-140326244D01*
X181596744Y-140565680D01*
X181649470Y-140799646D01*
X181739702Y-141021859D01*
X181865014Y-141226351D01*
X182022043Y-141407630D01*
X182206571Y-141560828D01*
X182413643Y-141681831D01*
X182637697Y-141767389D01*
X182642763Y-141768420D01*
X182642764Y-141768420D01*
X182699039Y-141779869D01*
X182872716Y-141815204D01*
X183008264Y-141820174D01*
X183107225Y-141823803D01*
X183107229Y-141823803D01*
X183112389Y-141823992D01*
X183117509Y-141823336D01*
X183117511Y-141823336D01*
X183345151Y-141794175D01*
X183345152Y-141794175D01*
X183350279Y-141793518D01*
X183433935Y-141768420D01*
X183575042Y-141726086D01*
X183575047Y-141726084D01*
X183579997Y-141724599D01*
X183795374Y-141619087D01*
X183799579Y-141616087D01*
X183799585Y-141616084D01*
X183892516Y-141549796D01*
X183990627Y-141479815D01*
X184160511Y-141310523D01*
X184300463Y-141115758D01*
X184349240Y-141017067D01*
X184404433Y-140905392D01*
X184404434Y-140905390D01*
X184406727Y-140900750D01*
X184476447Y-140671274D01*
X184507752Y-140433492D01*
X184509499Y-140362000D01*
X184506559Y-140326244D01*
X187082938Y-140326244D01*
X187096744Y-140565680D01*
X187149470Y-140799646D01*
X187239702Y-141021859D01*
X187365014Y-141226351D01*
X187522043Y-141407630D01*
X187706571Y-141560828D01*
X187913643Y-141681831D01*
X188137697Y-141767389D01*
X188142763Y-141768420D01*
X188142764Y-141768420D01*
X188199039Y-141779869D01*
X188372716Y-141815204D01*
X188508264Y-141820174D01*
X188607225Y-141823803D01*
X188607229Y-141823803D01*
X188612389Y-141823992D01*
X188617509Y-141823336D01*
X188617511Y-141823336D01*
X188845151Y-141794175D01*
X188845152Y-141794175D01*
X188850279Y-141793518D01*
X188933935Y-141768420D01*
X189075042Y-141726086D01*
X189075047Y-141726084D01*
X189079997Y-141724599D01*
X189295374Y-141619087D01*
X189299579Y-141616087D01*
X189299585Y-141616084D01*
X189392516Y-141549796D01*
X189490627Y-141479815D01*
X189660511Y-141310523D01*
X189800463Y-141115758D01*
X189849240Y-141017067D01*
X189904433Y-140905392D01*
X189904434Y-140905390D01*
X189906727Y-140900750D01*
X189976447Y-140671274D01*
X190007752Y-140433492D01*
X190009499Y-140362000D01*
X190003001Y-140282970D01*
X189990271Y-140128124D01*
X189990270Y-140128118D01*
X189989847Y-140122973D01*
X189931420Y-139890364D01*
X189929364Y-139885634D01*
X189929361Y-139885627D01*
X189837847Y-139675159D01*
X189837845Y-139675156D01*
X189835787Y-139670422D01*
X189818574Y-139643814D01*
X189708325Y-139473396D01*
X189708323Y-139473393D01*
X189705515Y-139469053D01*
X189676580Y-139437253D01*
X189547582Y-139295487D01*
X189547580Y-139295486D01*
X189544104Y-139291665D01*
X189540053Y-139288466D01*
X189540049Y-139288462D01*
X189359946Y-139146226D01*
X189355888Y-139143021D01*
X189145922Y-139027113D01*
X189023458Y-138983746D01*
X188924720Y-138948781D01*
X188924716Y-138948780D01*
X188919845Y-138947055D01*
X188914752Y-138946148D01*
X188914749Y-138946147D01*
X188688816Y-138905902D01*
X188688810Y-138905901D01*
X188683727Y-138904996D01*
X188596460Y-138903930D01*
X188449081Y-138902129D01*
X188449079Y-138902129D01*
X188443911Y-138902066D01*
X188206837Y-138938343D01*
X187978871Y-139012854D01*
X187766136Y-139123597D01*
X187762003Y-139126700D01*
X187762000Y-139126702D01*
X187735997Y-139146226D01*
X187574345Y-139267598D01*
X187408648Y-139440990D01*
X187273495Y-139639117D01*
X187172516Y-139856656D01*
X187108424Y-140087768D01*
X187082938Y-140326244D01*
X184506559Y-140326244D01*
X184503001Y-140282970D01*
X184490271Y-140128124D01*
X184490270Y-140128118D01*
X184489847Y-140122973D01*
X184431420Y-139890364D01*
X184429364Y-139885634D01*
X184429361Y-139885627D01*
X184337847Y-139675159D01*
X184337845Y-139675156D01*
X184335787Y-139670422D01*
X184318574Y-139643814D01*
X184208325Y-139473396D01*
X184208323Y-139473393D01*
X184205515Y-139469053D01*
X184176580Y-139437253D01*
X184047582Y-139295487D01*
X184047580Y-139295486D01*
X184044104Y-139291665D01*
X184040053Y-139288466D01*
X184040049Y-139288462D01*
X183859946Y-139146226D01*
X183855888Y-139143021D01*
X183645922Y-139027113D01*
X183523458Y-138983746D01*
X183424720Y-138948781D01*
X183424716Y-138948780D01*
X183419845Y-138947055D01*
X183414752Y-138946148D01*
X183414749Y-138946147D01*
X183188816Y-138905902D01*
X183188810Y-138905901D01*
X183183727Y-138904996D01*
X183096460Y-138903930D01*
X182949081Y-138902129D01*
X182949079Y-138902129D01*
X182943911Y-138902066D01*
X182706837Y-138938343D01*
X182478871Y-139012854D01*
X182266136Y-139123597D01*
X182262003Y-139126700D01*
X182262000Y-139126702D01*
X182235997Y-139146226D01*
X182074345Y-139267598D01*
X181908648Y-139440990D01*
X181773495Y-139639117D01*
X181672516Y-139856656D01*
X181608424Y-140087768D01*
X181582938Y-140326244D01*
X175129753Y-140326244D01*
X175124220Y-136126244D01*
X181582938Y-136126244D01*
X181596744Y-136365680D01*
X181649470Y-136599646D01*
X181739702Y-136821859D01*
X181865014Y-137026351D01*
X182022043Y-137207630D01*
X182206571Y-137360828D01*
X182413643Y-137481831D01*
X182637697Y-137567389D01*
X182642763Y-137568420D01*
X182642764Y-137568420D01*
X182699039Y-137579869D01*
X182872716Y-137615204D01*
X183008264Y-137620174D01*
X183107225Y-137623803D01*
X183107229Y-137623803D01*
X183112389Y-137623992D01*
X183117509Y-137623336D01*
X183117511Y-137623336D01*
X183345151Y-137594175D01*
X183345152Y-137594175D01*
X183350279Y-137593518D01*
X183433935Y-137568420D01*
X183575042Y-137526086D01*
X183575047Y-137526084D01*
X183579997Y-137524599D01*
X183795374Y-137419087D01*
X183799579Y-137416087D01*
X183799585Y-137416084D01*
X183892516Y-137349796D01*
X183990627Y-137279815D01*
X184160511Y-137110523D01*
X184300463Y-136915758D01*
X184349240Y-136817067D01*
X184404433Y-136705392D01*
X184404434Y-136705390D01*
X184406727Y-136700750D01*
X184476447Y-136471274D01*
X184507752Y-136233492D01*
X184509499Y-136162000D01*
X184506559Y-136126244D01*
X187082938Y-136126244D01*
X187096744Y-136365680D01*
X187149470Y-136599646D01*
X187239702Y-136821859D01*
X187365014Y-137026351D01*
X187522043Y-137207630D01*
X187706571Y-137360828D01*
X187913643Y-137481831D01*
X188137697Y-137567389D01*
X188142763Y-137568420D01*
X188142764Y-137568420D01*
X188199039Y-137579869D01*
X188372716Y-137615204D01*
X188508264Y-137620174D01*
X188607225Y-137623803D01*
X188607229Y-137623803D01*
X188612389Y-137623992D01*
X188617509Y-137623336D01*
X188617511Y-137623336D01*
X188845151Y-137594175D01*
X188845152Y-137594175D01*
X188850279Y-137593518D01*
X188933935Y-137568420D01*
X189075042Y-137526086D01*
X189075047Y-137526084D01*
X189079997Y-137524599D01*
X189295374Y-137419087D01*
X189299579Y-137416087D01*
X189299585Y-137416084D01*
X189392516Y-137349796D01*
X189490627Y-137279815D01*
X189660511Y-137110523D01*
X189800463Y-136915758D01*
X189849240Y-136817067D01*
X189904433Y-136705392D01*
X189904434Y-136705390D01*
X189906727Y-136700750D01*
X189976447Y-136471274D01*
X190007752Y-136233492D01*
X190009499Y-136162000D01*
X190003001Y-136082970D01*
X189990271Y-135928124D01*
X189990270Y-135928118D01*
X189989847Y-135922973D01*
X189931420Y-135690364D01*
X189929364Y-135685634D01*
X189929361Y-135685627D01*
X189837847Y-135475159D01*
X189837845Y-135475156D01*
X189835787Y-135470422D01*
X189818574Y-135443814D01*
X189708325Y-135273396D01*
X189708323Y-135273393D01*
X189705515Y-135269053D01*
X189676580Y-135237253D01*
X189547582Y-135095487D01*
X189547580Y-135095486D01*
X189544104Y-135091665D01*
X189540053Y-135088466D01*
X189540049Y-135088462D01*
X189359946Y-134946226D01*
X189355888Y-134943021D01*
X189145922Y-134827113D01*
X189023458Y-134783746D01*
X188924720Y-134748781D01*
X188924716Y-134748780D01*
X188919845Y-134747055D01*
X188914752Y-134746148D01*
X188914749Y-134746147D01*
X188688816Y-134705902D01*
X188688810Y-134705901D01*
X188683727Y-134704996D01*
X188596460Y-134703930D01*
X188449081Y-134702129D01*
X188449079Y-134702129D01*
X188443911Y-134702066D01*
X188206837Y-134738343D01*
X187978871Y-134812854D01*
X187766136Y-134923597D01*
X187762003Y-134926700D01*
X187762000Y-134926702D01*
X187735997Y-134946226D01*
X187574345Y-135067598D01*
X187408648Y-135240990D01*
X187273495Y-135439117D01*
X187172516Y-135656656D01*
X187108424Y-135887768D01*
X187082938Y-136126244D01*
X184506559Y-136126244D01*
X184503001Y-136082970D01*
X184490271Y-135928124D01*
X184490270Y-135928118D01*
X184489847Y-135922973D01*
X184431420Y-135690364D01*
X184429364Y-135685634D01*
X184429361Y-135685627D01*
X184337847Y-135475159D01*
X184337845Y-135475156D01*
X184335787Y-135470422D01*
X184318574Y-135443814D01*
X184208325Y-135273396D01*
X184208323Y-135273393D01*
X184205515Y-135269053D01*
X184176580Y-135237253D01*
X184047582Y-135095487D01*
X184047580Y-135095486D01*
X184044104Y-135091665D01*
X184040053Y-135088466D01*
X184040049Y-135088462D01*
X183859946Y-134946226D01*
X183855888Y-134943021D01*
X183645922Y-134827113D01*
X183523458Y-134783746D01*
X183424720Y-134748781D01*
X183424716Y-134748780D01*
X183419845Y-134747055D01*
X183414752Y-134746148D01*
X183414749Y-134746147D01*
X183188816Y-134705902D01*
X183188810Y-134705901D01*
X183183727Y-134704996D01*
X183096460Y-134703930D01*
X182949081Y-134702129D01*
X182949079Y-134702129D01*
X182943911Y-134702066D01*
X182706837Y-134738343D01*
X182478871Y-134812854D01*
X182266136Y-134923597D01*
X182262003Y-134926700D01*
X182262000Y-134926702D01*
X182235997Y-134946226D01*
X182074345Y-135067598D01*
X181908648Y-135240990D01*
X181773495Y-135439117D01*
X181672516Y-135656656D01*
X181608424Y-135887768D01*
X181582938Y-136126244D01*
X175124220Y-136126244D01*
X175118686Y-131926244D01*
X181582938Y-131926244D01*
X181596744Y-132165680D01*
X181649470Y-132399646D01*
X181739702Y-132621859D01*
X181865014Y-132826351D01*
X182022043Y-133007630D01*
X182206571Y-133160828D01*
X182413643Y-133281831D01*
X182637697Y-133367389D01*
X182642763Y-133368420D01*
X182642764Y-133368420D01*
X182699039Y-133379869D01*
X182872716Y-133415204D01*
X183008264Y-133420174D01*
X183107225Y-133423803D01*
X183107229Y-133423803D01*
X183112389Y-133423992D01*
X183117509Y-133423336D01*
X183117511Y-133423336D01*
X183345151Y-133394175D01*
X183345152Y-133394175D01*
X183350279Y-133393518D01*
X183433935Y-133368420D01*
X183575042Y-133326086D01*
X183575047Y-133326084D01*
X183579997Y-133324599D01*
X183795374Y-133219087D01*
X183799579Y-133216087D01*
X183799585Y-133216084D01*
X183892516Y-133149796D01*
X183990627Y-133079815D01*
X184160511Y-132910523D01*
X184300463Y-132715758D01*
X184349240Y-132617067D01*
X184404433Y-132505392D01*
X184404434Y-132505390D01*
X184406727Y-132500750D01*
X184476447Y-132271274D01*
X184507752Y-132033492D01*
X184509499Y-131962000D01*
X184506559Y-131926244D01*
X187082938Y-131926244D01*
X187096744Y-132165680D01*
X187149470Y-132399646D01*
X187239702Y-132621859D01*
X187365014Y-132826351D01*
X187522043Y-133007630D01*
X187706571Y-133160828D01*
X187913643Y-133281831D01*
X188137697Y-133367389D01*
X188142763Y-133368420D01*
X188142764Y-133368420D01*
X188199039Y-133379869D01*
X188372716Y-133415204D01*
X188508264Y-133420174D01*
X188607225Y-133423803D01*
X188607229Y-133423803D01*
X188612389Y-133423992D01*
X188617509Y-133423336D01*
X188617511Y-133423336D01*
X188845151Y-133394175D01*
X188845152Y-133394175D01*
X188850279Y-133393518D01*
X188933935Y-133368420D01*
X189075042Y-133326086D01*
X189075047Y-133326084D01*
X189079997Y-133324599D01*
X189295374Y-133219087D01*
X189299579Y-133216087D01*
X189299585Y-133216084D01*
X189392516Y-133149796D01*
X189490627Y-133079815D01*
X189660511Y-132910523D01*
X189800463Y-132715758D01*
X189849240Y-132617067D01*
X189904433Y-132505392D01*
X189904434Y-132505390D01*
X189906727Y-132500750D01*
X189976447Y-132271274D01*
X190007752Y-132033492D01*
X190009499Y-131962000D01*
X190003001Y-131882970D01*
X189990271Y-131728124D01*
X189990270Y-131728118D01*
X189989847Y-131722973D01*
X189931420Y-131490364D01*
X189929364Y-131485634D01*
X189929361Y-131485627D01*
X189837847Y-131275159D01*
X189837845Y-131275156D01*
X189835787Y-131270422D01*
X189818574Y-131243814D01*
X189708325Y-131073396D01*
X189708323Y-131073393D01*
X189705515Y-131069053D01*
X189676580Y-131037253D01*
X189547582Y-130895487D01*
X189547580Y-130895486D01*
X189544104Y-130891665D01*
X189540053Y-130888466D01*
X189540049Y-130888462D01*
X189359946Y-130746226D01*
X189355888Y-130743021D01*
X189145922Y-130627113D01*
X189023458Y-130583746D01*
X188924720Y-130548781D01*
X188924716Y-130548780D01*
X188919845Y-130547055D01*
X188914752Y-130546148D01*
X188914749Y-130546147D01*
X188688816Y-130505902D01*
X188688810Y-130505901D01*
X188683727Y-130504996D01*
X188596460Y-130503930D01*
X188449081Y-130502129D01*
X188449079Y-130502129D01*
X188443911Y-130502066D01*
X188206837Y-130538343D01*
X187978871Y-130612854D01*
X187766136Y-130723597D01*
X187762003Y-130726700D01*
X187762000Y-130726702D01*
X187735997Y-130746226D01*
X187574345Y-130867598D01*
X187408648Y-131040990D01*
X187273495Y-131239117D01*
X187172516Y-131456656D01*
X187108424Y-131687768D01*
X187082938Y-131926244D01*
X184506559Y-131926244D01*
X184503001Y-131882970D01*
X184490271Y-131728124D01*
X184490270Y-131728118D01*
X184489847Y-131722973D01*
X184431420Y-131490364D01*
X184429364Y-131485634D01*
X184429361Y-131485627D01*
X184337847Y-131275159D01*
X184337845Y-131275156D01*
X184335787Y-131270422D01*
X184318574Y-131243814D01*
X184208325Y-131073396D01*
X184208323Y-131073393D01*
X184205515Y-131069053D01*
X184176580Y-131037253D01*
X184047582Y-130895487D01*
X184047580Y-130895486D01*
X184044104Y-130891665D01*
X184040053Y-130888466D01*
X184040049Y-130888462D01*
X183859946Y-130746226D01*
X183855888Y-130743021D01*
X183645922Y-130627113D01*
X183523458Y-130583746D01*
X183424720Y-130548781D01*
X183424716Y-130548780D01*
X183419845Y-130547055D01*
X183414752Y-130546148D01*
X183414749Y-130546147D01*
X183188816Y-130505902D01*
X183188810Y-130505901D01*
X183183727Y-130504996D01*
X183096460Y-130503930D01*
X182949081Y-130502129D01*
X182949079Y-130502129D01*
X182943911Y-130502066D01*
X182706837Y-130538343D01*
X182478871Y-130612854D01*
X182266136Y-130723597D01*
X182262003Y-130726700D01*
X182262000Y-130726702D01*
X182235997Y-130746226D01*
X182074345Y-130867598D01*
X181908648Y-131040990D01*
X181773495Y-131239117D01*
X181672516Y-131456656D01*
X181608424Y-131687768D01*
X181582938Y-131926244D01*
X175118686Y-131926244D01*
X175113153Y-127726244D01*
X181582938Y-127726244D01*
X181596744Y-127965680D01*
X181597879Y-127970717D01*
X181597880Y-127970723D01*
X181619385Y-128066147D01*
X181649470Y-128199646D01*
X181739702Y-128421859D01*
X181865014Y-128626351D01*
X182022043Y-128807630D01*
X182206571Y-128960828D01*
X182413643Y-129081831D01*
X182637697Y-129167389D01*
X182642763Y-129168420D01*
X182642764Y-129168420D01*
X182699039Y-129179869D01*
X182872716Y-129215204D01*
X183008264Y-129220174D01*
X183107225Y-129223803D01*
X183107229Y-129223803D01*
X183112389Y-129223992D01*
X183117509Y-129223336D01*
X183117511Y-129223336D01*
X183345151Y-129194175D01*
X183345152Y-129194175D01*
X183350279Y-129193518D01*
X183433935Y-129168420D01*
X183575042Y-129126086D01*
X183575047Y-129126084D01*
X183579997Y-129124599D01*
X183795374Y-129019087D01*
X183799579Y-129016087D01*
X183799585Y-129016084D01*
X183892516Y-128949796D01*
X183990627Y-128879815D01*
X184160511Y-128710523D01*
X184300463Y-128515758D01*
X184349240Y-128417067D01*
X184404433Y-128305392D01*
X184404434Y-128305390D01*
X184406727Y-128300750D01*
X184476447Y-128071274D01*
X184507752Y-127833492D01*
X184509499Y-127762000D01*
X184506559Y-127726244D01*
X187082938Y-127726244D01*
X187096744Y-127965680D01*
X187097879Y-127970717D01*
X187097880Y-127970723D01*
X187119385Y-128066147D01*
X187149470Y-128199646D01*
X187239702Y-128421859D01*
X187365014Y-128626351D01*
X187522043Y-128807630D01*
X187706571Y-128960828D01*
X187913643Y-129081831D01*
X188137697Y-129167389D01*
X188142763Y-129168420D01*
X188142764Y-129168420D01*
X188199039Y-129179869D01*
X188372716Y-129215204D01*
X188508264Y-129220174D01*
X188607225Y-129223803D01*
X188607229Y-129223803D01*
X188612389Y-129223992D01*
X188617509Y-129223336D01*
X188617511Y-129223336D01*
X188845151Y-129194175D01*
X188845152Y-129194175D01*
X188850279Y-129193518D01*
X188933935Y-129168420D01*
X189075042Y-129126086D01*
X189075047Y-129126084D01*
X189079997Y-129124599D01*
X189295374Y-129019087D01*
X189299579Y-129016087D01*
X189299585Y-129016084D01*
X189392516Y-128949796D01*
X189490627Y-128879815D01*
X189660511Y-128710523D01*
X189800463Y-128515758D01*
X189849240Y-128417067D01*
X189904433Y-128305392D01*
X189904434Y-128305390D01*
X189906727Y-128300750D01*
X189976447Y-128071274D01*
X190007752Y-127833492D01*
X190009499Y-127762000D01*
X189991846Y-127547281D01*
X189990271Y-127528124D01*
X189990270Y-127528118D01*
X189989847Y-127522973D01*
X189960634Y-127406669D01*
X189932679Y-127295375D01*
X189932678Y-127295371D01*
X189931420Y-127290364D01*
X189929364Y-127285634D01*
X189929361Y-127285627D01*
X189837847Y-127075159D01*
X189837845Y-127075156D01*
X189835787Y-127070422D01*
X189818574Y-127043814D01*
X189708325Y-126873396D01*
X189708323Y-126873393D01*
X189705515Y-126869053D01*
X189676580Y-126837253D01*
X189547582Y-126695487D01*
X189547580Y-126695486D01*
X189544104Y-126691665D01*
X189540053Y-126688466D01*
X189540049Y-126688462D01*
X189359946Y-126546226D01*
X189355888Y-126543021D01*
X189145922Y-126427113D01*
X189023458Y-126383746D01*
X188924720Y-126348781D01*
X188924716Y-126348780D01*
X188919845Y-126347055D01*
X188914752Y-126346148D01*
X188914749Y-126346147D01*
X188688816Y-126305902D01*
X188688810Y-126305901D01*
X188683727Y-126304996D01*
X188596460Y-126303930D01*
X188449081Y-126302129D01*
X188449079Y-126302129D01*
X188443911Y-126302066D01*
X188206837Y-126338343D01*
X187978871Y-126412854D01*
X187766136Y-126523597D01*
X187762003Y-126526700D01*
X187762000Y-126526702D01*
X187735997Y-126546226D01*
X187574345Y-126667598D01*
X187408648Y-126840990D01*
X187273495Y-127039117D01*
X187172516Y-127256656D01*
X187108424Y-127487768D01*
X187082938Y-127726244D01*
X184506559Y-127726244D01*
X184491846Y-127547281D01*
X184490271Y-127528124D01*
X184490270Y-127528118D01*
X184489847Y-127522973D01*
X184460634Y-127406669D01*
X184432679Y-127295375D01*
X184432678Y-127295371D01*
X184431420Y-127290364D01*
X184429364Y-127285634D01*
X184429361Y-127285627D01*
X184337847Y-127075159D01*
X184337845Y-127075156D01*
X184335787Y-127070422D01*
X184318574Y-127043814D01*
X184208325Y-126873396D01*
X184208323Y-126873393D01*
X184205515Y-126869053D01*
X184176580Y-126837253D01*
X184047582Y-126695487D01*
X184047580Y-126695486D01*
X184044104Y-126691665D01*
X184040053Y-126688466D01*
X184040049Y-126688462D01*
X183859946Y-126546226D01*
X183855888Y-126543021D01*
X183645922Y-126427113D01*
X183523458Y-126383746D01*
X183424720Y-126348781D01*
X183424716Y-126348780D01*
X183419845Y-126347055D01*
X183414752Y-126346148D01*
X183414749Y-126346147D01*
X183188816Y-126305902D01*
X183188810Y-126305901D01*
X183183727Y-126304996D01*
X183096460Y-126303930D01*
X182949081Y-126302129D01*
X182949079Y-126302129D01*
X182943911Y-126302066D01*
X182706837Y-126338343D01*
X182478871Y-126412854D01*
X182266136Y-126523597D01*
X182262003Y-126526700D01*
X182262000Y-126526702D01*
X182235997Y-126546226D01*
X182074345Y-126667598D01*
X181908648Y-126840990D01*
X181773495Y-127039117D01*
X181672516Y-127256656D01*
X181608424Y-127487768D01*
X181582938Y-127726244D01*
X175113153Y-127726244D01*
X175107619Y-123526244D01*
X181582938Y-123526244D01*
X181596744Y-123765680D01*
X181649470Y-123999646D01*
X181739702Y-124221859D01*
X181865014Y-124426351D01*
X182022043Y-124607630D01*
X182206571Y-124760828D01*
X182413643Y-124881831D01*
X182637697Y-124967389D01*
X182642763Y-124968420D01*
X182642764Y-124968420D01*
X182699039Y-124979869D01*
X182872716Y-125015204D01*
X183008264Y-125020174D01*
X183107225Y-125023803D01*
X183107229Y-125023803D01*
X183112389Y-125023992D01*
X183117509Y-125023336D01*
X183117511Y-125023336D01*
X183345151Y-124994175D01*
X183345152Y-124994175D01*
X183350279Y-124993518D01*
X183433935Y-124968420D01*
X183575042Y-124926086D01*
X183575047Y-124926084D01*
X183579997Y-124924599D01*
X183795374Y-124819087D01*
X183799579Y-124816087D01*
X183799585Y-124816084D01*
X183892516Y-124749796D01*
X183990627Y-124679815D01*
X184160511Y-124510523D01*
X184300463Y-124315758D01*
X184349240Y-124217067D01*
X184404433Y-124105392D01*
X184404434Y-124105390D01*
X184406727Y-124100750D01*
X184476447Y-123871274D01*
X184507752Y-123633492D01*
X184509499Y-123562000D01*
X184506559Y-123526244D01*
X187082938Y-123526244D01*
X187096744Y-123765680D01*
X187149470Y-123999646D01*
X187239702Y-124221859D01*
X187365014Y-124426351D01*
X187522043Y-124607630D01*
X187706571Y-124760828D01*
X187913643Y-124881831D01*
X188137697Y-124967389D01*
X188142763Y-124968420D01*
X188142764Y-124968420D01*
X188199039Y-124979869D01*
X188372716Y-125015204D01*
X188508264Y-125020174D01*
X188607225Y-125023803D01*
X188607229Y-125023803D01*
X188612389Y-125023992D01*
X188617509Y-125023336D01*
X188617511Y-125023336D01*
X188845151Y-124994175D01*
X188845152Y-124994175D01*
X188850279Y-124993518D01*
X188933935Y-124968420D01*
X189075042Y-124926086D01*
X189075047Y-124926084D01*
X189079997Y-124924599D01*
X189295374Y-124819087D01*
X189299579Y-124816087D01*
X189299585Y-124816084D01*
X189392516Y-124749796D01*
X189490627Y-124679815D01*
X189660511Y-124510523D01*
X189800463Y-124315758D01*
X189849240Y-124217067D01*
X189904433Y-124105392D01*
X189904434Y-124105390D01*
X189906727Y-124100750D01*
X189976447Y-123871274D01*
X190007752Y-123633492D01*
X190009499Y-123562000D01*
X190003001Y-123482970D01*
X189990271Y-123328124D01*
X189990270Y-123328118D01*
X189989847Y-123322973D01*
X189931420Y-123090364D01*
X189929364Y-123085634D01*
X189929361Y-123085627D01*
X189837847Y-122875159D01*
X189837845Y-122875156D01*
X189835787Y-122870422D01*
X189818574Y-122843814D01*
X189708325Y-122673396D01*
X189708323Y-122673393D01*
X189705515Y-122669053D01*
X189676580Y-122637253D01*
X189547582Y-122495487D01*
X189547580Y-122495486D01*
X189544104Y-122491665D01*
X189540053Y-122488466D01*
X189540049Y-122488462D01*
X189359946Y-122346226D01*
X189355888Y-122343021D01*
X189145922Y-122227113D01*
X189023458Y-122183746D01*
X188924720Y-122148781D01*
X188924716Y-122148780D01*
X188919845Y-122147055D01*
X188914752Y-122146148D01*
X188914749Y-122146147D01*
X188688816Y-122105902D01*
X188688810Y-122105901D01*
X188683727Y-122104996D01*
X188596460Y-122103930D01*
X188449081Y-122102129D01*
X188449079Y-122102129D01*
X188443911Y-122102066D01*
X188206837Y-122138343D01*
X187978871Y-122212854D01*
X187766136Y-122323597D01*
X187762003Y-122326700D01*
X187762000Y-122326702D01*
X187735997Y-122346226D01*
X187574345Y-122467598D01*
X187408648Y-122640990D01*
X187273495Y-122839117D01*
X187172516Y-123056656D01*
X187108424Y-123287768D01*
X187082938Y-123526244D01*
X184506559Y-123526244D01*
X184503001Y-123482970D01*
X184490271Y-123328124D01*
X184490270Y-123328118D01*
X184489847Y-123322973D01*
X184431420Y-123090364D01*
X184429364Y-123085634D01*
X184429361Y-123085627D01*
X184337847Y-122875159D01*
X184337845Y-122875156D01*
X184335787Y-122870422D01*
X184318574Y-122843814D01*
X184208325Y-122673396D01*
X184208323Y-122673393D01*
X184205515Y-122669053D01*
X184176580Y-122637253D01*
X184047582Y-122495487D01*
X184047580Y-122495486D01*
X184044104Y-122491665D01*
X184040053Y-122488466D01*
X184040049Y-122488462D01*
X183859946Y-122346226D01*
X183855888Y-122343021D01*
X183645922Y-122227113D01*
X183523458Y-122183746D01*
X183424720Y-122148781D01*
X183424716Y-122148780D01*
X183419845Y-122147055D01*
X183414752Y-122146148D01*
X183414749Y-122146147D01*
X183188816Y-122105902D01*
X183188810Y-122105901D01*
X183183727Y-122104996D01*
X183096460Y-122103930D01*
X182949081Y-122102129D01*
X182949079Y-122102129D01*
X182943911Y-122102066D01*
X182706837Y-122138343D01*
X182478871Y-122212854D01*
X182266136Y-122323597D01*
X182262003Y-122326700D01*
X182262000Y-122326702D01*
X182235997Y-122346226D01*
X182074345Y-122467598D01*
X181908648Y-122640990D01*
X181773495Y-122839117D01*
X181672516Y-123056656D01*
X181608424Y-123287768D01*
X181582938Y-123526244D01*
X175107619Y-123526244D01*
X175102085Y-119326244D01*
X181582938Y-119326244D01*
X181596744Y-119565680D01*
X181649470Y-119799646D01*
X181739702Y-120021859D01*
X181865014Y-120226351D01*
X182022043Y-120407630D01*
X182206571Y-120560828D01*
X182413643Y-120681831D01*
X182637697Y-120767389D01*
X182642763Y-120768420D01*
X182642764Y-120768420D01*
X182699039Y-120779869D01*
X182872716Y-120815204D01*
X183008264Y-120820174D01*
X183107225Y-120823803D01*
X183107229Y-120823803D01*
X183112389Y-120823992D01*
X183117509Y-120823336D01*
X183117511Y-120823336D01*
X183345151Y-120794175D01*
X183345152Y-120794175D01*
X183350279Y-120793518D01*
X183433935Y-120768420D01*
X183575042Y-120726086D01*
X183575047Y-120726084D01*
X183579997Y-120724599D01*
X183795374Y-120619087D01*
X183799579Y-120616087D01*
X183799585Y-120616084D01*
X183892516Y-120549796D01*
X183990627Y-120479815D01*
X184160511Y-120310523D01*
X184300463Y-120115758D01*
X184349240Y-120017067D01*
X184404433Y-119905392D01*
X184404434Y-119905390D01*
X184406727Y-119900750D01*
X184476447Y-119671274D01*
X184507752Y-119433492D01*
X184509499Y-119362000D01*
X184506559Y-119326244D01*
X187082938Y-119326244D01*
X187096744Y-119565680D01*
X187149470Y-119799646D01*
X187239702Y-120021859D01*
X187365014Y-120226351D01*
X187522043Y-120407630D01*
X187706571Y-120560828D01*
X187913643Y-120681831D01*
X188137697Y-120767389D01*
X188142763Y-120768420D01*
X188142764Y-120768420D01*
X188199039Y-120779869D01*
X188372716Y-120815204D01*
X188508264Y-120820174D01*
X188607225Y-120823803D01*
X188607229Y-120823803D01*
X188612389Y-120823992D01*
X188617509Y-120823336D01*
X188617511Y-120823336D01*
X188845151Y-120794175D01*
X188845152Y-120794175D01*
X188850279Y-120793518D01*
X188933935Y-120768420D01*
X189075042Y-120726086D01*
X189075047Y-120726084D01*
X189079997Y-120724599D01*
X189295374Y-120619087D01*
X189299579Y-120616087D01*
X189299585Y-120616084D01*
X189392516Y-120549796D01*
X189490627Y-120479815D01*
X189660511Y-120310523D01*
X189800463Y-120115758D01*
X189849240Y-120017067D01*
X189904433Y-119905392D01*
X189904434Y-119905390D01*
X189906727Y-119900750D01*
X189976447Y-119671274D01*
X190007752Y-119433492D01*
X190009499Y-119362000D01*
X190003001Y-119282970D01*
X189990271Y-119128124D01*
X189990270Y-119128118D01*
X189989847Y-119122973D01*
X189931420Y-118890364D01*
X189929364Y-118885634D01*
X189929361Y-118885627D01*
X189837847Y-118675159D01*
X189837845Y-118675156D01*
X189835787Y-118670422D01*
X189818574Y-118643814D01*
X189708325Y-118473396D01*
X189708323Y-118473393D01*
X189705515Y-118469053D01*
X189676580Y-118437253D01*
X189547582Y-118295487D01*
X189547580Y-118295486D01*
X189544104Y-118291665D01*
X189540053Y-118288466D01*
X189540049Y-118288462D01*
X189359946Y-118146226D01*
X189355888Y-118143021D01*
X189145922Y-118027113D01*
X189023458Y-117983746D01*
X188924720Y-117948781D01*
X188924716Y-117948780D01*
X188919845Y-117947055D01*
X188914752Y-117946148D01*
X188914749Y-117946147D01*
X188688816Y-117905902D01*
X188688810Y-117905901D01*
X188683727Y-117904996D01*
X188596460Y-117903930D01*
X188449081Y-117902129D01*
X188449079Y-117902129D01*
X188443911Y-117902066D01*
X188206837Y-117938343D01*
X187978871Y-118012854D01*
X187766136Y-118123597D01*
X187762003Y-118126700D01*
X187762000Y-118126702D01*
X187735997Y-118146226D01*
X187574345Y-118267598D01*
X187408648Y-118440990D01*
X187273495Y-118639117D01*
X187172516Y-118856656D01*
X187108424Y-119087768D01*
X187082938Y-119326244D01*
X184506559Y-119326244D01*
X184503001Y-119282970D01*
X184490271Y-119128124D01*
X184490270Y-119128118D01*
X184489847Y-119122973D01*
X184431420Y-118890364D01*
X184429364Y-118885634D01*
X184429361Y-118885627D01*
X184337847Y-118675159D01*
X184337845Y-118675156D01*
X184335787Y-118670422D01*
X184318574Y-118643814D01*
X184208325Y-118473396D01*
X184208323Y-118473393D01*
X184205515Y-118469053D01*
X184176580Y-118437253D01*
X184047582Y-118295487D01*
X184047580Y-118295486D01*
X184044104Y-118291665D01*
X184040053Y-118288466D01*
X184040049Y-118288462D01*
X183859946Y-118146226D01*
X183855888Y-118143021D01*
X183645922Y-118027113D01*
X183523458Y-117983746D01*
X183424720Y-117948781D01*
X183424716Y-117948780D01*
X183419845Y-117947055D01*
X183414752Y-117946148D01*
X183414749Y-117946147D01*
X183188816Y-117905902D01*
X183188810Y-117905901D01*
X183183727Y-117904996D01*
X183096460Y-117903930D01*
X182949081Y-117902129D01*
X182949079Y-117902129D01*
X182943911Y-117902066D01*
X182706837Y-117938343D01*
X182478871Y-118012854D01*
X182266136Y-118123597D01*
X182262003Y-118126700D01*
X182262000Y-118126702D01*
X182235997Y-118146226D01*
X182074345Y-118267598D01*
X181908648Y-118440990D01*
X181773495Y-118639117D01*
X181672516Y-118856656D01*
X181608424Y-119087768D01*
X181582938Y-119326244D01*
X175102085Y-119326244D01*
X175096551Y-115126244D01*
X181582938Y-115126244D01*
X181596744Y-115365680D01*
X181649470Y-115599646D01*
X181739702Y-115821859D01*
X181865014Y-116026351D01*
X182022043Y-116207630D01*
X182206571Y-116360828D01*
X182413643Y-116481831D01*
X182637697Y-116567389D01*
X182642763Y-116568420D01*
X182642764Y-116568420D01*
X182699039Y-116579869D01*
X182872716Y-116615204D01*
X183008264Y-116620174D01*
X183107225Y-116623803D01*
X183107229Y-116623803D01*
X183112389Y-116623992D01*
X183117509Y-116623336D01*
X183117511Y-116623336D01*
X183345151Y-116594175D01*
X183345152Y-116594175D01*
X183350279Y-116593518D01*
X183433935Y-116568420D01*
X183575042Y-116526086D01*
X183575047Y-116526084D01*
X183579997Y-116524599D01*
X183795374Y-116419087D01*
X183799579Y-116416087D01*
X183799585Y-116416084D01*
X183892516Y-116349796D01*
X183990627Y-116279815D01*
X184160511Y-116110523D01*
X184300463Y-115915758D01*
X184349240Y-115817067D01*
X184404433Y-115705392D01*
X184404434Y-115705390D01*
X184406727Y-115700750D01*
X184476447Y-115471274D01*
X184507752Y-115233492D01*
X184509499Y-115162000D01*
X184506559Y-115126244D01*
X187082938Y-115126244D01*
X187096744Y-115365680D01*
X187149470Y-115599646D01*
X187239702Y-115821859D01*
X187365014Y-116026351D01*
X187522043Y-116207630D01*
X187706571Y-116360828D01*
X187913643Y-116481831D01*
X188137697Y-116567389D01*
X188142763Y-116568420D01*
X188142764Y-116568420D01*
X188199039Y-116579869D01*
X188372716Y-116615204D01*
X188508264Y-116620174D01*
X188607225Y-116623803D01*
X188607229Y-116623803D01*
X188612389Y-116623992D01*
X188617509Y-116623336D01*
X188617511Y-116623336D01*
X188845151Y-116594175D01*
X188845152Y-116594175D01*
X188850279Y-116593518D01*
X188933935Y-116568420D01*
X189075042Y-116526086D01*
X189075047Y-116526084D01*
X189079997Y-116524599D01*
X189295374Y-116419087D01*
X189299579Y-116416087D01*
X189299585Y-116416084D01*
X189392516Y-116349796D01*
X189490627Y-116279815D01*
X189660511Y-116110523D01*
X189800463Y-115915758D01*
X189849240Y-115817067D01*
X189904433Y-115705392D01*
X189904434Y-115705390D01*
X189906727Y-115700750D01*
X189976447Y-115471274D01*
X190007752Y-115233492D01*
X190009499Y-115162000D01*
X190003001Y-115082970D01*
X189990271Y-114928124D01*
X189990270Y-114928118D01*
X189989847Y-114922973D01*
X189931420Y-114690364D01*
X189929364Y-114685634D01*
X189929361Y-114685627D01*
X189837847Y-114475159D01*
X189837845Y-114475156D01*
X189835787Y-114470422D01*
X189818574Y-114443814D01*
X189708325Y-114273396D01*
X189708323Y-114273393D01*
X189705515Y-114269053D01*
X189676580Y-114237253D01*
X189547582Y-114095487D01*
X189547580Y-114095486D01*
X189544104Y-114091665D01*
X189540053Y-114088466D01*
X189540049Y-114088462D01*
X189359946Y-113946226D01*
X189355888Y-113943021D01*
X189145922Y-113827113D01*
X189023458Y-113783746D01*
X188924720Y-113748781D01*
X188924716Y-113748780D01*
X188919845Y-113747055D01*
X188914752Y-113746148D01*
X188914749Y-113746147D01*
X188688816Y-113705902D01*
X188688810Y-113705901D01*
X188683727Y-113704996D01*
X188596460Y-113703930D01*
X188449081Y-113702129D01*
X188449079Y-113702129D01*
X188443911Y-113702066D01*
X188206837Y-113738343D01*
X187978871Y-113812854D01*
X187766136Y-113923597D01*
X187762003Y-113926700D01*
X187762000Y-113926702D01*
X187735997Y-113946226D01*
X187574345Y-114067598D01*
X187408648Y-114240990D01*
X187273495Y-114439117D01*
X187172516Y-114656656D01*
X187108424Y-114887768D01*
X187082938Y-115126244D01*
X184506559Y-115126244D01*
X184503001Y-115082970D01*
X184490271Y-114928124D01*
X184490270Y-114928118D01*
X184489847Y-114922973D01*
X184431420Y-114690364D01*
X184429364Y-114685634D01*
X184429361Y-114685627D01*
X184337847Y-114475159D01*
X184337845Y-114475156D01*
X184335787Y-114470422D01*
X184318574Y-114443814D01*
X184208325Y-114273396D01*
X184208323Y-114273393D01*
X184205515Y-114269053D01*
X184176580Y-114237253D01*
X184047582Y-114095487D01*
X184047580Y-114095486D01*
X184044104Y-114091665D01*
X184040053Y-114088466D01*
X184040049Y-114088462D01*
X183859946Y-113946226D01*
X183855888Y-113943021D01*
X183645922Y-113827113D01*
X183523458Y-113783746D01*
X183424720Y-113748781D01*
X183424716Y-113748780D01*
X183419845Y-113747055D01*
X183414752Y-113746148D01*
X183414749Y-113746147D01*
X183188816Y-113705902D01*
X183188810Y-113705901D01*
X183183727Y-113704996D01*
X183096460Y-113703930D01*
X182949081Y-113702129D01*
X182949079Y-113702129D01*
X182943911Y-113702066D01*
X182706837Y-113738343D01*
X182478871Y-113812854D01*
X182266136Y-113923597D01*
X182262003Y-113926700D01*
X182262000Y-113926702D01*
X182235997Y-113946226D01*
X182074345Y-114067598D01*
X181908648Y-114240990D01*
X181773495Y-114439117D01*
X181672516Y-114656656D01*
X181608424Y-114887768D01*
X181582938Y-115126244D01*
X175096551Y-115126244D01*
X175091017Y-110926244D01*
X181582938Y-110926244D01*
X181596744Y-111165680D01*
X181649470Y-111399646D01*
X181739702Y-111621859D01*
X181865014Y-111826351D01*
X182022043Y-112007630D01*
X182206571Y-112160828D01*
X182413643Y-112281831D01*
X182637697Y-112367389D01*
X182642763Y-112368420D01*
X182642764Y-112368420D01*
X182699039Y-112379869D01*
X182872716Y-112415204D01*
X183008264Y-112420174D01*
X183107225Y-112423803D01*
X183107229Y-112423803D01*
X183112389Y-112423992D01*
X183117509Y-112423336D01*
X183117511Y-112423336D01*
X183345151Y-112394175D01*
X183345152Y-112394175D01*
X183350279Y-112393518D01*
X183433935Y-112368420D01*
X183575042Y-112326086D01*
X183575047Y-112326084D01*
X183579997Y-112324599D01*
X183795374Y-112219087D01*
X183799579Y-112216087D01*
X183799585Y-112216084D01*
X183892516Y-112149796D01*
X183990627Y-112079815D01*
X184160511Y-111910523D01*
X184300463Y-111715758D01*
X184349240Y-111617067D01*
X184404433Y-111505392D01*
X184404434Y-111505390D01*
X184406727Y-111500750D01*
X184476447Y-111271274D01*
X184507752Y-111033492D01*
X184509499Y-110962000D01*
X184506559Y-110926244D01*
X187082938Y-110926244D01*
X187096744Y-111165680D01*
X187149470Y-111399646D01*
X187239702Y-111621859D01*
X187365014Y-111826351D01*
X187522043Y-112007630D01*
X187706571Y-112160828D01*
X187913643Y-112281831D01*
X188137697Y-112367389D01*
X188142763Y-112368420D01*
X188142764Y-112368420D01*
X188199039Y-112379869D01*
X188372716Y-112415204D01*
X188508264Y-112420174D01*
X188607225Y-112423803D01*
X188607229Y-112423803D01*
X188612389Y-112423992D01*
X188617509Y-112423336D01*
X188617511Y-112423336D01*
X188845151Y-112394175D01*
X188845152Y-112394175D01*
X188850279Y-112393518D01*
X188933935Y-112368420D01*
X189075042Y-112326086D01*
X189075047Y-112326084D01*
X189079997Y-112324599D01*
X189295374Y-112219087D01*
X189299579Y-112216087D01*
X189299585Y-112216084D01*
X189392516Y-112149796D01*
X189490627Y-112079815D01*
X189660511Y-111910523D01*
X189800463Y-111715758D01*
X189849240Y-111617067D01*
X189904433Y-111505392D01*
X189904434Y-111505390D01*
X189906727Y-111500750D01*
X189976447Y-111271274D01*
X190007752Y-111033492D01*
X190009499Y-110962000D01*
X190003001Y-110882970D01*
X189990271Y-110728124D01*
X189990270Y-110728118D01*
X189989847Y-110722973D01*
X189931420Y-110490364D01*
X189929364Y-110485634D01*
X189929361Y-110485627D01*
X189837847Y-110275159D01*
X189837845Y-110275156D01*
X189835787Y-110270422D01*
X189818574Y-110243814D01*
X189708325Y-110073396D01*
X189708323Y-110073393D01*
X189705515Y-110069053D01*
X189676580Y-110037253D01*
X189547582Y-109895487D01*
X189547580Y-109895486D01*
X189544104Y-109891665D01*
X189540053Y-109888466D01*
X189540049Y-109888462D01*
X189359946Y-109746226D01*
X189355888Y-109743021D01*
X189145922Y-109627113D01*
X189023458Y-109583746D01*
X188924720Y-109548781D01*
X188924716Y-109548780D01*
X188919845Y-109547055D01*
X188914752Y-109546148D01*
X188914749Y-109546147D01*
X188688816Y-109505902D01*
X188688810Y-109505901D01*
X188683727Y-109504996D01*
X188596460Y-109503930D01*
X188449081Y-109502129D01*
X188449079Y-109502129D01*
X188443911Y-109502066D01*
X188206837Y-109538343D01*
X187978871Y-109612854D01*
X187766136Y-109723597D01*
X187762003Y-109726700D01*
X187762000Y-109726702D01*
X187735997Y-109746226D01*
X187574345Y-109867598D01*
X187408648Y-110040990D01*
X187273495Y-110239117D01*
X187172516Y-110456656D01*
X187108424Y-110687768D01*
X187082938Y-110926244D01*
X184506559Y-110926244D01*
X184503001Y-110882970D01*
X184490271Y-110728124D01*
X184490270Y-110728118D01*
X184489847Y-110722973D01*
X184431420Y-110490364D01*
X184429364Y-110485634D01*
X184429361Y-110485627D01*
X184337847Y-110275159D01*
X184337845Y-110275156D01*
X184335787Y-110270422D01*
X184318574Y-110243814D01*
X184208325Y-110073396D01*
X184208323Y-110073393D01*
X184205515Y-110069053D01*
X184176580Y-110037253D01*
X184047582Y-109895487D01*
X184047580Y-109895486D01*
X184044104Y-109891665D01*
X184040053Y-109888466D01*
X184040049Y-109888462D01*
X183859946Y-109746226D01*
X183855888Y-109743021D01*
X183645922Y-109627113D01*
X183523458Y-109583746D01*
X183424720Y-109548781D01*
X183424716Y-109548780D01*
X183419845Y-109547055D01*
X183414752Y-109546148D01*
X183414749Y-109546147D01*
X183188816Y-109505902D01*
X183188810Y-109505901D01*
X183183727Y-109504996D01*
X183096460Y-109503930D01*
X182949081Y-109502129D01*
X182949079Y-109502129D01*
X182943911Y-109502066D01*
X182706837Y-109538343D01*
X182478871Y-109612854D01*
X182266136Y-109723597D01*
X182262003Y-109726700D01*
X182262000Y-109726702D01*
X182235997Y-109746226D01*
X182074345Y-109867598D01*
X181908648Y-110040990D01*
X181773495Y-110239117D01*
X181672516Y-110456656D01*
X181608424Y-110687768D01*
X181582938Y-110926244D01*
X175091017Y-110926244D01*
X175085483Y-106726244D01*
X187082938Y-106726244D01*
X187096744Y-106965680D01*
X187149470Y-107199646D01*
X187239702Y-107421859D01*
X187365014Y-107626351D01*
X187522043Y-107807630D01*
X187706571Y-107960828D01*
X187913643Y-108081831D01*
X188137697Y-108167389D01*
X188142763Y-108168420D01*
X188142764Y-108168420D01*
X188199039Y-108179869D01*
X188372716Y-108215204D01*
X188508264Y-108220174D01*
X188607225Y-108223803D01*
X188607229Y-108223803D01*
X188612389Y-108223992D01*
X188617509Y-108223336D01*
X188617511Y-108223336D01*
X188845151Y-108194175D01*
X188845152Y-108194175D01*
X188850279Y-108193518D01*
X188933935Y-108168420D01*
X189075042Y-108126086D01*
X189075047Y-108126084D01*
X189079997Y-108124599D01*
X189295374Y-108019087D01*
X189299579Y-108016087D01*
X189299585Y-108016084D01*
X189392516Y-107949796D01*
X189490627Y-107879815D01*
X189660511Y-107710523D01*
X189800463Y-107515758D01*
X189849240Y-107417067D01*
X189904433Y-107305392D01*
X189904434Y-107305390D01*
X189906727Y-107300750D01*
X189976447Y-107071274D01*
X190007752Y-106833492D01*
X190009499Y-106762000D01*
X190003001Y-106682970D01*
X189990271Y-106528124D01*
X189990270Y-106528118D01*
X189989847Y-106522973D01*
X189931420Y-106290364D01*
X189929364Y-106285634D01*
X189929361Y-106285627D01*
X189837847Y-106075159D01*
X189837845Y-106075156D01*
X189835787Y-106070422D01*
X189818574Y-106043814D01*
X189708325Y-105873396D01*
X189708323Y-105873393D01*
X189705515Y-105869053D01*
X189676580Y-105837253D01*
X189547582Y-105695487D01*
X189547580Y-105695486D01*
X189544104Y-105691665D01*
X189540053Y-105688466D01*
X189540049Y-105688462D01*
X189359946Y-105546226D01*
X189355888Y-105543021D01*
X189145922Y-105427113D01*
X189023458Y-105383746D01*
X188924720Y-105348781D01*
X188924716Y-105348780D01*
X188919845Y-105347055D01*
X188914752Y-105346148D01*
X188914749Y-105346147D01*
X188688816Y-105305902D01*
X188688810Y-105305901D01*
X188683727Y-105304996D01*
X188596460Y-105303930D01*
X188449081Y-105302129D01*
X188449079Y-105302129D01*
X188443911Y-105302066D01*
X188206837Y-105338343D01*
X187978871Y-105412854D01*
X187766136Y-105523597D01*
X187762003Y-105526700D01*
X187762000Y-105526702D01*
X187735997Y-105546226D01*
X187574345Y-105667598D01*
X187408648Y-105840990D01*
X187273495Y-106039117D01*
X187172516Y-106256656D01*
X187108424Y-106487768D01*
X187082938Y-106726244D01*
X175085483Y-106726244D01*
X175079950Y-102526244D01*
X187082938Y-102526244D01*
X187096744Y-102765680D01*
X187097879Y-102770717D01*
X187097880Y-102770723D01*
X187119385Y-102866147D01*
X187149470Y-102999646D01*
X187239702Y-103221859D01*
X187365014Y-103426351D01*
X187522043Y-103607630D01*
X187655266Y-103718234D01*
X187690189Y-103747227D01*
X187706571Y-103760828D01*
X187913643Y-103881831D01*
X188137697Y-103967389D01*
X188142763Y-103968420D01*
X188142764Y-103968420D01*
X188189174Y-103977862D01*
X188372716Y-104015204D01*
X188508264Y-104020174D01*
X188607225Y-104023803D01*
X188607229Y-104023803D01*
X188612389Y-104023992D01*
X188617509Y-104023336D01*
X188617511Y-104023336D01*
X188845151Y-103994175D01*
X188845152Y-103994175D01*
X188850279Y-103993518D01*
X188933935Y-103968420D01*
X189075042Y-103926086D01*
X189075047Y-103926084D01*
X189079997Y-103924599D01*
X189295374Y-103819087D01*
X189299579Y-103816087D01*
X189299585Y-103816084D01*
X189436765Y-103718234D01*
X189490627Y-103679815D01*
X189660511Y-103510523D01*
X189800463Y-103315758D01*
X189849240Y-103217067D01*
X189904433Y-103105392D01*
X189904434Y-103105390D01*
X189906727Y-103100750D01*
X189976447Y-102871274D01*
X190007752Y-102633492D01*
X190009499Y-102562000D01*
X189993056Y-102362000D01*
X189990271Y-102328124D01*
X189990270Y-102328118D01*
X189989847Y-102322973D01*
X189931420Y-102090364D01*
X189929364Y-102085634D01*
X189929361Y-102085627D01*
X189837847Y-101875159D01*
X189837845Y-101875156D01*
X189835787Y-101870422D01*
X189818574Y-101843814D01*
X189708325Y-101673396D01*
X189708323Y-101673393D01*
X189705515Y-101669053D01*
X189676580Y-101637253D01*
X189547582Y-101495487D01*
X189547580Y-101495486D01*
X189544104Y-101491665D01*
X189540053Y-101488466D01*
X189540049Y-101488462D01*
X189359946Y-101346226D01*
X189355888Y-101343021D01*
X189145922Y-101227113D01*
X189023458Y-101183746D01*
X188924720Y-101148781D01*
X188924716Y-101148780D01*
X188919845Y-101147055D01*
X188914752Y-101146148D01*
X188914749Y-101146147D01*
X188688816Y-101105902D01*
X188688810Y-101105901D01*
X188683727Y-101104996D01*
X188596460Y-101103930D01*
X188449081Y-101102129D01*
X188449079Y-101102129D01*
X188443911Y-101102066D01*
X188206837Y-101138343D01*
X187978871Y-101212854D01*
X187766136Y-101323597D01*
X187762003Y-101326700D01*
X187762000Y-101326702D01*
X187735997Y-101346226D01*
X187574345Y-101467598D01*
X187408648Y-101640990D01*
X187273495Y-101839117D01*
X187172516Y-102056656D01*
X187108424Y-102287768D01*
X187082938Y-102526244D01*
X175079950Y-102526244D01*
X175074416Y-98326244D01*
X181582938Y-98326244D01*
X181596744Y-98565680D01*
X181649470Y-98799646D01*
X181739702Y-99021859D01*
X181865014Y-99226351D01*
X182022043Y-99407630D01*
X182206571Y-99560828D01*
X182413643Y-99681831D01*
X182637697Y-99767389D01*
X182642763Y-99768420D01*
X182642764Y-99768420D01*
X182699039Y-99779869D01*
X182872716Y-99815204D01*
X183008264Y-99820174D01*
X183107225Y-99823803D01*
X183107229Y-99823803D01*
X183112389Y-99823992D01*
X183117509Y-99823336D01*
X183117511Y-99823336D01*
X183345151Y-99794175D01*
X183345152Y-99794175D01*
X183350279Y-99793518D01*
X183433935Y-99768420D01*
X183575042Y-99726086D01*
X183575047Y-99726084D01*
X183579997Y-99724599D01*
X183795374Y-99619087D01*
X183799579Y-99616087D01*
X183799585Y-99616084D01*
X183892516Y-99549796D01*
X183990627Y-99479815D01*
X184160511Y-99310523D01*
X184300463Y-99115758D01*
X184349240Y-99017067D01*
X184404433Y-98905392D01*
X184404434Y-98905390D01*
X184406727Y-98900750D01*
X184476447Y-98671274D01*
X184507752Y-98433492D01*
X184509499Y-98362000D01*
X184506559Y-98326244D01*
X187082938Y-98326244D01*
X187096744Y-98565680D01*
X187149470Y-98799646D01*
X187239702Y-99021859D01*
X187365014Y-99226351D01*
X187522043Y-99407630D01*
X187706571Y-99560828D01*
X187913643Y-99681831D01*
X188137697Y-99767389D01*
X188142763Y-99768420D01*
X188142764Y-99768420D01*
X188199039Y-99779869D01*
X188372716Y-99815204D01*
X188508264Y-99820174D01*
X188607225Y-99823803D01*
X188607229Y-99823803D01*
X188612389Y-99823992D01*
X188617509Y-99823336D01*
X188617511Y-99823336D01*
X188845151Y-99794175D01*
X188845152Y-99794175D01*
X188850279Y-99793518D01*
X188933935Y-99768420D01*
X189075042Y-99726086D01*
X189075047Y-99726084D01*
X189079997Y-99724599D01*
X189295374Y-99619087D01*
X189299579Y-99616087D01*
X189299585Y-99616084D01*
X189392516Y-99549796D01*
X189490627Y-99479815D01*
X189660511Y-99310523D01*
X189800463Y-99115758D01*
X189849240Y-99017067D01*
X189904433Y-98905392D01*
X189904434Y-98905390D01*
X189906727Y-98900750D01*
X189976447Y-98671274D01*
X190007752Y-98433492D01*
X190009499Y-98362000D01*
X190003001Y-98282970D01*
X189990271Y-98128124D01*
X189990270Y-98128118D01*
X189989847Y-98122973D01*
X189931420Y-97890364D01*
X189929364Y-97885634D01*
X189929361Y-97885627D01*
X189837847Y-97675159D01*
X189837845Y-97675156D01*
X189835787Y-97670422D01*
X189818574Y-97643814D01*
X189708325Y-97473396D01*
X189708323Y-97473393D01*
X189705515Y-97469053D01*
X189676580Y-97437253D01*
X189547582Y-97295487D01*
X189547580Y-97295486D01*
X189544104Y-97291665D01*
X189540053Y-97288466D01*
X189540049Y-97288462D01*
X189359946Y-97146226D01*
X189355888Y-97143021D01*
X189145922Y-97027113D01*
X189023458Y-96983746D01*
X188924720Y-96948781D01*
X188924716Y-96948780D01*
X188919845Y-96947055D01*
X188914752Y-96946148D01*
X188914749Y-96946147D01*
X188688816Y-96905902D01*
X188688810Y-96905901D01*
X188683727Y-96904996D01*
X188596460Y-96903930D01*
X188449081Y-96902129D01*
X188449079Y-96902129D01*
X188443911Y-96902066D01*
X188206837Y-96938343D01*
X187978871Y-97012854D01*
X187766136Y-97123597D01*
X187762003Y-97126700D01*
X187762000Y-97126702D01*
X187735997Y-97146226D01*
X187574345Y-97267598D01*
X187408648Y-97440990D01*
X187273495Y-97639117D01*
X187172516Y-97856656D01*
X187108424Y-98087768D01*
X187082938Y-98326244D01*
X184506559Y-98326244D01*
X184503001Y-98282970D01*
X184490271Y-98128124D01*
X184490270Y-98128118D01*
X184489847Y-98122973D01*
X184431420Y-97890364D01*
X184429364Y-97885634D01*
X184429361Y-97885627D01*
X184337847Y-97675159D01*
X184337845Y-97675156D01*
X184335787Y-97670422D01*
X184318574Y-97643814D01*
X184208325Y-97473396D01*
X184208323Y-97473393D01*
X184205515Y-97469053D01*
X184176580Y-97437253D01*
X184047582Y-97295487D01*
X184047580Y-97295486D01*
X184044104Y-97291665D01*
X184040053Y-97288466D01*
X184040049Y-97288462D01*
X183859946Y-97146226D01*
X183855888Y-97143021D01*
X183645922Y-97027113D01*
X183523458Y-96983746D01*
X183424720Y-96948781D01*
X183424716Y-96948780D01*
X183419845Y-96947055D01*
X183414752Y-96946148D01*
X183414749Y-96946147D01*
X183188816Y-96905902D01*
X183188810Y-96905901D01*
X183183727Y-96904996D01*
X183096460Y-96903930D01*
X182949081Y-96902129D01*
X182949079Y-96902129D01*
X182943911Y-96902066D01*
X182706837Y-96938343D01*
X182478871Y-97012854D01*
X182266136Y-97123597D01*
X182262003Y-97126700D01*
X182262000Y-97126702D01*
X182235997Y-97146226D01*
X182074345Y-97267598D01*
X181908648Y-97440990D01*
X181773495Y-97639117D01*
X181672516Y-97856656D01*
X181608424Y-98087768D01*
X181582938Y-98326244D01*
X175074416Y-98326244D01*
X175068178Y-93591733D01*
X186073822Y-93591733D01*
X186083625Y-93872458D01*
X186084387Y-93876781D01*
X186084388Y-93876788D01*
X186108164Y-94011624D01*
X186132402Y-94149087D01*
X186219203Y-94416235D01*
X186342340Y-94668702D01*
X186344795Y-94672341D01*
X186344798Y-94672347D01*
X186417890Y-94780710D01*
X186499415Y-94901576D01*
X186687371Y-95110322D01*
X186902550Y-95290879D01*
X187140764Y-95439731D01*
X187397375Y-95553982D01*
X187667390Y-95631407D01*
X187671740Y-95632018D01*
X187671743Y-95632019D01*
X187774690Y-95646487D01*
X187945552Y-95670500D01*
X188156146Y-95670500D01*
X188158332Y-95670347D01*
X188158336Y-95670347D01*
X188361827Y-95656118D01*
X188361832Y-95656117D01*
X188366212Y-95655811D01*
X188640970Y-95597409D01*
X188645099Y-95595906D01*
X188645103Y-95595905D01*
X188900781Y-95502846D01*
X188900785Y-95502844D01*
X188904926Y-95501337D01*
X189152942Y-95369464D01*
X189257896Y-95293211D01*
X189376629Y-95206947D01*
X189376632Y-95206944D01*
X189380192Y-95204358D01*
X189582252Y-95009231D01*
X189755188Y-94787882D01*
X189757384Y-94784078D01*
X189757389Y-94784071D01*
X189893435Y-94548431D01*
X189895636Y-94544619D01*
X190000862Y-94284176D01*
X190034544Y-94149087D01*
X190067753Y-94015893D01*
X190067754Y-94015888D01*
X190068817Y-94011624D01*
X190098178Y-93732267D01*
X190088375Y-93451542D01*
X190064608Y-93316749D01*
X190040360Y-93179236D01*
X190039598Y-93174913D01*
X189952797Y-92907765D01*
X189829660Y-92655298D01*
X189827205Y-92651659D01*
X189827202Y-92651653D01*
X189746935Y-92532653D01*
X189672585Y-92422424D01*
X189484629Y-92213678D01*
X189269450Y-92033121D01*
X189031236Y-91884269D01*
X188774625Y-91770018D01*
X188504610Y-91692593D01*
X188500260Y-91691982D01*
X188500257Y-91691981D01*
X188397310Y-91677513D01*
X188226448Y-91653500D01*
X188015854Y-91653500D01*
X188013668Y-91653653D01*
X188013664Y-91653653D01*
X187810173Y-91667882D01*
X187810168Y-91667883D01*
X187805788Y-91668189D01*
X187531030Y-91726591D01*
X187526901Y-91728094D01*
X187526897Y-91728095D01*
X187271219Y-91821154D01*
X187271215Y-91821156D01*
X187267074Y-91822663D01*
X187019058Y-91954536D01*
X187015499Y-91957122D01*
X187015497Y-91957123D01*
X186910895Y-92033121D01*
X186791808Y-92119642D01*
X186589748Y-92314769D01*
X186416812Y-92536118D01*
X186414616Y-92539922D01*
X186414611Y-92539929D01*
X186300794Y-92737068D01*
X186276364Y-92779381D01*
X186171138Y-93039824D01*
X186170073Y-93044097D01*
X186170072Y-93044099D01*
X186136379Y-93179236D01*
X186103183Y-93312376D01*
X186073822Y-93591733D01*
X175068178Y-93591733D01*
X175058417Y-86183000D01*
X186296372Y-86183000D01*
X186316854Y-86443249D01*
X186318008Y-86448056D01*
X186318009Y-86448062D01*
X186356424Y-86608069D01*
X186377796Y-86697089D01*
X186477697Y-86938271D01*
X186614097Y-87160856D01*
X186783637Y-87359363D01*
X186982144Y-87528903D01*
X187204729Y-87665303D01*
X187209299Y-87667196D01*
X187209303Y-87667198D01*
X187441338Y-87763310D01*
X187445911Y-87765204D01*
X187534931Y-87786576D01*
X187694938Y-87824991D01*
X187694944Y-87824992D01*
X187699751Y-87826146D01*
X187960000Y-87846628D01*
X188220249Y-87826146D01*
X188225056Y-87824992D01*
X188225062Y-87824991D01*
X188385069Y-87786576D01*
X188474089Y-87765204D01*
X188478662Y-87763310D01*
X188710697Y-87667198D01*
X188710701Y-87667196D01*
X188715271Y-87665303D01*
X188937856Y-87528903D01*
X189136363Y-87359363D01*
X189305903Y-87160856D01*
X189442303Y-86938271D01*
X189542204Y-86697089D01*
X189563576Y-86608069D01*
X189601991Y-86448062D01*
X189601992Y-86448056D01*
X189603146Y-86443249D01*
X189623628Y-86183000D01*
X189603146Y-85922751D01*
X189601992Y-85917944D01*
X189601991Y-85917938D01*
X189543359Y-85673723D01*
X189542204Y-85668911D01*
X189442303Y-85427729D01*
X189305903Y-85205144D01*
X189136363Y-85006637D01*
X188937856Y-84837097D01*
X188715271Y-84700697D01*
X188710701Y-84698804D01*
X188710697Y-84698802D01*
X188478662Y-84602690D01*
X188478660Y-84602689D01*
X188474089Y-84600796D01*
X188385069Y-84579424D01*
X188225062Y-84541009D01*
X188225056Y-84541008D01*
X188220249Y-84539854D01*
X187960000Y-84519372D01*
X187699751Y-84539854D01*
X187694944Y-84541008D01*
X187694938Y-84541009D01*
X187534931Y-84579424D01*
X187445911Y-84600796D01*
X187441340Y-84602689D01*
X187441338Y-84602690D01*
X187209303Y-84698802D01*
X187209299Y-84698804D01*
X187204729Y-84700697D01*
X186982144Y-84837097D01*
X186783637Y-85006637D01*
X186614097Y-85205144D01*
X186477697Y-85427729D01*
X186377796Y-85668911D01*
X186376641Y-85673723D01*
X186318009Y-85917938D01*
X186318008Y-85917944D01*
X186316854Y-85922751D01*
X186296372Y-86183000D01*
X175058417Y-86183000D01*
X175052884Y-81983000D01*
X186296372Y-81983000D01*
X186316854Y-82243249D01*
X186318008Y-82248056D01*
X186318009Y-82248062D01*
X186356424Y-82408069D01*
X186377796Y-82497089D01*
X186477697Y-82738271D01*
X186614097Y-82960856D01*
X186783637Y-83159363D01*
X186982144Y-83328903D01*
X187204729Y-83465303D01*
X187209299Y-83467196D01*
X187209303Y-83467198D01*
X187441338Y-83563310D01*
X187445911Y-83565204D01*
X187534931Y-83586576D01*
X187694938Y-83624991D01*
X187694944Y-83624992D01*
X187699751Y-83626146D01*
X187960000Y-83646628D01*
X188220249Y-83626146D01*
X188225056Y-83624992D01*
X188225062Y-83624991D01*
X188385069Y-83586576D01*
X188474089Y-83565204D01*
X188478662Y-83563310D01*
X188710697Y-83467198D01*
X188710701Y-83467196D01*
X188715271Y-83465303D01*
X188937856Y-83328903D01*
X189136363Y-83159363D01*
X189305903Y-82960856D01*
X189442303Y-82738271D01*
X189542204Y-82497089D01*
X189563576Y-82408069D01*
X189601991Y-82248062D01*
X189601992Y-82248056D01*
X189603146Y-82243249D01*
X189623628Y-81983000D01*
X189603146Y-81722751D01*
X189601992Y-81717944D01*
X189601991Y-81717938D01*
X189543359Y-81473723D01*
X189542204Y-81468911D01*
X189442303Y-81227729D01*
X189305903Y-81005144D01*
X189136363Y-80806637D01*
X188937856Y-80637097D01*
X188715271Y-80500697D01*
X188710701Y-80498804D01*
X188710697Y-80498802D01*
X188478662Y-80402690D01*
X188478660Y-80402689D01*
X188474089Y-80400796D01*
X188385069Y-80379424D01*
X188225062Y-80341009D01*
X188225056Y-80341008D01*
X188220249Y-80339854D01*
X187960000Y-80319372D01*
X187699751Y-80339854D01*
X187694944Y-80341008D01*
X187694938Y-80341009D01*
X187534931Y-80379424D01*
X187445911Y-80400796D01*
X187441340Y-80402689D01*
X187441338Y-80402690D01*
X187209303Y-80498802D01*
X187209299Y-80498804D01*
X187204729Y-80500697D01*
X186982144Y-80637097D01*
X186783637Y-80806637D01*
X186614097Y-81005144D01*
X186477697Y-81227729D01*
X186377796Y-81468911D01*
X186376641Y-81473723D01*
X186318009Y-81717938D01*
X186318008Y-81717944D01*
X186316854Y-81722751D01*
X186296372Y-81983000D01*
X175052884Y-81983000D01*
X175051107Y-80634513D01*
X175047350Y-77783000D01*
X186296372Y-77783000D01*
X186316854Y-78043249D01*
X186318008Y-78048056D01*
X186318009Y-78048062D01*
X186356424Y-78208069D01*
X186377796Y-78297089D01*
X186477697Y-78538271D01*
X186614097Y-78760856D01*
X186783637Y-78959363D01*
X186982144Y-79128903D01*
X187204729Y-79265303D01*
X187209299Y-79267196D01*
X187209303Y-79267198D01*
X187441338Y-79363310D01*
X187445911Y-79365204D01*
X187534931Y-79386576D01*
X187694938Y-79424991D01*
X187694944Y-79424992D01*
X187699751Y-79426146D01*
X187960000Y-79446628D01*
X188220249Y-79426146D01*
X188225056Y-79424992D01*
X188225062Y-79424991D01*
X188385069Y-79386576D01*
X188474089Y-79365204D01*
X188478662Y-79363310D01*
X188710697Y-79267198D01*
X188710701Y-79267196D01*
X188715271Y-79265303D01*
X188937856Y-79128903D01*
X189136363Y-78959363D01*
X189305903Y-78760856D01*
X189442303Y-78538271D01*
X189542204Y-78297089D01*
X189563576Y-78208069D01*
X189601991Y-78048062D01*
X189601992Y-78048056D01*
X189603146Y-78043249D01*
X189623628Y-77783000D01*
X189603146Y-77522751D01*
X189601992Y-77517944D01*
X189601991Y-77517938D01*
X189543359Y-77273723D01*
X189542204Y-77268911D01*
X189442303Y-77027729D01*
X189305903Y-76805144D01*
X189136363Y-76606637D01*
X188937856Y-76437097D01*
X188715271Y-76300697D01*
X188710701Y-76298804D01*
X188710697Y-76298802D01*
X188478662Y-76202690D01*
X188478660Y-76202689D01*
X188474089Y-76200796D01*
X188385069Y-76179424D01*
X188225062Y-76141009D01*
X188225056Y-76141008D01*
X188220249Y-76139854D01*
X187960000Y-76119372D01*
X187699751Y-76139854D01*
X187694944Y-76141008D01*
X187694938Y-76141009D01*
X187534931Y-76179424D01*
X187445911Y-76200796D01*
X187441340Y-76202689D01*
X187441338Y-76202690D01*
X187209303Y-76298802D01*
X187209299Y-76298804D01*
X187204729Y-76300697D01*
X186982144Y-76437097D01*
X186783637Y-76606637D01*
X186614097Y-76805144D01*
X186477697Y-77027729D01*
X186377796Y-77268911D01*
X186376641Y-77273723D01*
X186318009Y-77517938D01*
X186318008Y-77517944D01*
X186316854Y-77522751D01*
X186296372Y-77783000D01*
X175047350Y-77783000D01*
X175041817Y-73583000D01*
X182096372Y-73583000D01*
X182116854Y-73843249D01*
X182118008Y-73848056D01*
X182118009Y-73848062D01*
X182156424Y-74008069D01*
X182177796Y-74097089D01*
X182179689Y-74101660D01*
X182179690Y-74101662D01*
X182251340Y-74274639D01*
X182277697Y-74338271D01*
X182414097Y-74560856D01*
X182583637Y-74759363D01*
X182782144Y-74928903D01*
X183004729Y-75065303D01*
X183009299Y-75067196D01*
X183009303Y-75067198D01*
X183241338Y-75163310D01*
X183245911Y-75165204D01*
X183334931Y-75186576D01*
X183494938Y-75224991D01*
X183494944Y-75224992D01*
X183499751Y-75226146D01*
X183760000Y-75246628D01*
X184020249Y-75226146D01*
X184025056Y-75224992D01*
X184025062Y-75224991D01*
X184185069Y-75186576D01*
X184274089Y-75165204D01*
X184278662Y-75163310D01*
X184510697Y-75067198D01*
X184510701Y-75067196D01*
X184515271Y-75065303D01*
X184737856Y-74928903D01*
X184936363Y-74759363D01*
X185105903Y-74560856D01*
X185242303Y-74338271D01*
X185268661Y-74274639D01*
X185340310Y-74101662D01*
X185340311Y-74101660D01*
X185342204Y-74097089D01*
X185363576Y-74008069D01*
X185401991Y-73848062D01*
X185401992Y-73848056D01*
X185403146Y-73843249D01*
X185423628Y-73583000D01*
X186296372Y-73583000D01*
X186316854Y-73843249D01*
X186318008Y-73848056D01*
X186318009Y-73848062D01*
X186356424Y-74008069D01*
X186377796Y-74097089D01*
X186379689Y-74101660D01*
X186379690Y-74101662D01*
X186451340Y-74274639D01*
X186477697Y-74338271D01*
X186614097Y-74560856D01*
X186783637Y-74759363D01*
X186982144Y-74928903D01*
X187204729Y-75065303D01*
X187209299Y-75067196D01*
X187209303Y-75067198D01*
X187441338Y-75163310D01*
X187445911Y-75165204D01*
X187534931Y-75186576D01*
X187694938Y-75224991D01*
X187694944Y-75224992D01*
X187699751Y-75226146D01*
X187960000Y-75246628D01*
X188220249Y-75226146D01*
X188225056Y-75224992D01*
X188225062Y-75224991D01*
X188385069Y-75186576D01*
X188474089Y-75165204D01*
X188478662Y-75163310D01*
X188710697Y-75067198D01*
X188710701Y-75067196D01*
X188715271Y-75065303D01*
X188937856Y-74928903D01*
X189136363Y-74759363D01*
X189305903Y-74560856D01*
X189442303Y-74338271D01*
X189468661Y-74274639D01*
X189540310Y-74101662D01*
X189540311Y-74101660D01*
X189542204Y-74097089D01*
X189563576Y-74008069D01*
X189601991Y-73848062D01*
X189601992Y-73848056D01*
X189603146Y-73843249D01*
X189623628Y-73583000D01*
X189603146Y-73322751D01*
X189601992Y-73317944D01*
X189601991Y-73317938D01*
X189543359Y-73073723D01*
X189542204Y-73068911D01*
X189442303Y-72827729D01*
X189305903Y-72605144D01*
X189136363Y-72406637D01*
X188937856Y-72237097D01*
X188715271Y-72100697D01*
X188710701Y-72098804D01*
X188710697Y-72098802D01*
X188478662Y-72002690D01*
X188478660Y-72002689D01*
X188474089Y-72000796D01*
X188385069Y-71979424D01*
X188225062Y-71941009D01*
X188225056Y-71941008D01*
X188220249Y-71939854D01*
X187960000Y-71919372D01*
X187699751Y-71939854D01*
X187694944Y-71941008D01*
X187694938Y-71941009D01*
X187534931Y-71979424D01*
X187445911Y-72000796D01*
X187441340Y-72002689D01*
X187441338Y-72002690D01*
X187209303Y-72098802D01*
X187209299Y-72098804D01*
X187204729Y-72100697D01*
X186982144Y-72237097D01*
X186783637Y-72406637D01*
X186614097Y-72605144D01*
X186477697Y-72827729D01*
X186377796Y-73068911D01*
X186376641Y-73073723D01*
X186318009Y-73317938D01*
X186318008Y-73317944D01*
X186316854Y-73322751D01*
X186296372Y-73583000D01*
X185423628Y-73583000D01*
X185403146Y-73322751D01*
X185401992Y-73317944D01*
X185401991Y-73317938D01*
X185343359Y-73073723D01*
X185342204Y-73068911D01*
X185242303Y-72827729D01*
X185105903Y-72605144D01*
X184936363Y-72406637D01*
X184737856Y-72237097D01*
X184515271Y-72100697D01*
X184510701Y-72098804D01*
X184510697Y-72098802D01*
X184278662Y-72002690D01*
X184278660Y-72002689D01*
X184274089Y-72000796D01*
X184185069Y-71979424D01*
X184025062Y-71941009D01*
X184025056Y-71941008D01*
X184020249Y-71939854D01*
X183760000Y-71919372D01*
X183499751Y-71939854D01*
X183494944Y-71941008D01*
X183494938Y-71941009D01*
X183334931Y-71979424D01*
X183245911Y-72000796D01*
X183241340Y-72002689D01*
X183241338Y-72002690D01*
X183009303Y-72098802D01*
X183009299Y-72098804D01*
X183004729Y-72100697D01*
X182782144Y-72237097D01*
X182583637Y-72406637D01*
X182414097Y-72605144D01*
X182277697Y-72827729D01*
X182177796Y-73068911D01*
X182176641Y-73073723D01*
X182118009Y-73317938D01*
X182118008Y-73317944D01*
X182116854Y-73322751D01*
X182096372Y-73583000D01*
X175041817Y-73583000D01*
X175029132Y-63954800D01*
X186296372Y-63954800D01*
X186316854Y-64215049D01*
X186318008Y-64219856D01*
X186318009Y-64219862D01*
X186356424Y-64379869D01*
X186377796Y-64468889D01*
X186477697Y-64710071D01*
X186614097Y-64932656D01*
X186783637Y-65131163D01*
X186982144Y-65300703D01*
X187204729Y-65437103D01*
X187209299Y-65438996D01*
X187209303Y-65438998D01*
X187441338Y-65535110D01*
X187445911Y-65537004D01*
X187534931Y-65558376D01*
X187694938Y-65596791D01*
X187694944Y-65596792D01*
X187699751Y-65597946D01*
X187960000Y-65618428D01*
X188220249Y-65597946D01*
X188225056Y-65596792D01*
X188225062Y-65596791D01*
X188385069Y-65558376D01*
X188474089Y-65537004D01*
X188478662Y-65535110D01*
X188710697Y-65438998D01*
X188710701Y-65438996D01*
X188715271Y-65437103D01*
X188937856Y-65300703D01*
X189136363Y-65131163D01*
X189305903Y-64932656D01*
X189442303Y-64710071D01*
X189542204Y-64468889D01*
X189563576Y-64379869D01*
X189601991Y-64219862D01*
X189601992Y-64219856D01*
X189603146Y-64215049D01*
X189623628Y-63954800D01*
X189603146Y-63694551D01*
X189601992Y-63689744D01*
X189601991Y-63689738D01*
X189543359Y-63445523D01*
X189542204Y-63440711D01*
X189442303Y-63199529D01*
X189305903Y-62976944D01*
X189136363Y-62778437D01*
X188937856Y-62608897D01*
X188715271Y-62472497D01*
X188710701Y-62470604D01*
X188710697Y-62470602D01*
X188478662Y-62374490D01*
X188478660Y-62374489D01*
X188474089Y-62372596D01*
X188385069Y-62351224D01*
X188225062Y-62312809D01*
X188225056Y-62312808D01*
X188220249Y-62311654D01*
X187960000Y-62291172D01*
X187699751Y-62311654D01*
X187694944Y-62312808D01*
X187694938Y-62312809D01*
X187534931Y-62351224D01*
X187445911Y-62372596D01*
X187441340Y-62374489D01*
X187441338Y-62374490D01*
X187209303Y-62470602D01*
X187209299Y-62470604D01*
X187204729Y-62472497D01*
X186982144Y-62608897D01*
X186783637Y-62778437D01*
X186614097Y-62976944D01*
X186477697Y-63199529D01*
X186377796Y-63440711D01*
X186376641Y-63445523D01*
X186318009Y-63689738D01*
X186318008Y-63689744D01*
X186316854Y-63694551D01*
X186296372Y-63954800D01*
X175029132Y-63954800D01*
X175023598Y-59754800D01*
X186296372Y-59754800D01*
X186316854Y-60015049D01*
X186318008Y-60019856D01*
X186318009Y-60019862D01*
X186356424Y-60179869D01*
X186377796Y-60268889D01*
X186477697Y-60510071D01*
X186614097Y-60732656D01*
X186783637Y-60931163D01*
X186982144Y-61100703D01*
X187204729Y-61237103D01*
X187209299Y-61238996D01*
X187209303Y-61238998D01*
X187441338Y-61335110D01*
X187445911Y-61337004D01*
X187534931Y-61358376D01*
X187694938Y-61396791D01*
X187694944Y-61396792D01*
X187699751Y-61397946D01*
X187960000Y-61418428D01*
X188220249Y-61397946D01*
X188225056Y-61396792D01*
X188225062Y-61396791D01*
X188385069Y-61358376D01*
X188474089Y-61337004D01*
X188478662Y-61335110D01*
X188710697Y-61238998D01*
X188710701Y-61238996D01*
X188715271Y-61237103D01*
X188937856Y-61100703D01*
X189136363Y-60931163D01*
X189305903Y-60732656D01*
X189442303Y-60510071D01*
X189542204Y-60268889D01*
X189563576Y-60179869D01*
X189601991Y-60019862D01*
X189601992Y-60019856D01*
X189603146Y-60015049D01*
X189623628Y-59754800D01*
X189603146Y-59494551D01*
X189601992Y-59489744D01*
X189601991Y-59489738D01*
X189543359Y-59245523D01*
X189542204Y-59240711D01*
X189442303Y-58999529D01*
X189305903Y-58776944D01*
X189136363Y-58578437D01*
X188937856Y-58408897D01*
X188715271Y-58272497D01*
X188710701Y-58270604D01*
X188710697Y-58270602D01*
X188478662Y-58174490D01*
X188478660Y-58174489D01*
X188474089Y-58172596D01*
X188385069Y-58151224D01*
X188225062Y-58112809D01*
X188225056Y-58112808D01*
X188220249Y-58111654D01*
X187960000Y-58091172D01*
X187699751Y-58111654D01*
X187694944Y-58112808D01*
X187694938Y-58112809D01*
X187534931Y-58151224D01*
X187445911Y-58172596D01*
X187441340Y-58174489D01*
X187441338Y-58174490D01*
X187209303Y-58270602D01*
X187209299Y-58270604D01*
X187204729Y-58272497D01*
X186982144Y-58408897D01*
X186783637Y-58578437D01*
X186614097Y-58776944D01*
X186477697Y-58999529D01*
X186377796Y-59240711D01*
X186376641Y-59245523D01*
X186318009Y-59489738D01*
X186318008Y-59489744D01*
X186316854Y-59494551D01*
X186296372Y-59754800D01*
X175023598Y-59754800D01*
X175018064Y-55554800D01*
X186296372Y-55554800D01*
X186316854Y-55815049D01*
X186318008Y-55819856D01*
X186318009Y-55819862D01*
X186356424Y-55979869D01*
X186377796Y-56068889D01*
X186477697Y-56310071D01*
X186614097Y-56532656D01*
X186783637Y-56731163D01*
X186982144Y-56900703D01*
X187204729Y-57037103D01*
X187209299Y-57038996D01*
X187209303Y-57038998D01*
X187441338Y-57135110D01*
X187445911Y-57137004D01*
X187534931Y-57158376D01*
X187694938Y-57196791D01*
X187694944Y-57196792D01*
X187699751Y-57197946D01*
X187960000Y-57218428D01*
X188220249Y-57197946D01*
X188225056Y-57196792D01*
X188225062Y-57196791D01*
X188385069Y-57158376D01*
X188474089Y-57137004D01*
X188478662Y-57135110D01*
X188710697Y-57038998D01*
X188710701Y-57038996D01*
X188715271Y-57037103D01*
X188937856Y-56900703D01*
X189136363Y-56731163D01*
X189305903Y-56532656D01*
X189442303Y-56310071D01*
X189542204Y-56068889D01*
X189563576Y-55979869D01*
X189601991Y-55819862D01*
X189601992Y-55819856D01*
X189603146Y-55815049D01*
X189623628Y-55554800D01*
X189603146Y-55294551D01*
X189601992Y-55289744D01*
X189601991Y-55289738D01*
X189543359Y-55045523D01*
X189542204Y-55040711D01*
X189442303Y-54799529D01*
X189305903Y-54576944D01*
X189136363Y-54378437D01*
X188937856Y-54208897D01*
X188715271Y-54072497D01*
X188710701Y-54070604D01*
X188710697Y-54070602D01*
X188478662Y-53974490D01*
X188478660Y-53974489D01*
X188474089Y-53972596D01*
X188385069Y-53951224D01*
X188225062Y-53912809D01*
X188225056Y-53912808D01*
X188220249Y-53911654D01*
X187960000Y-53891172D01*
X187699751Y-53911654D01*
X187694944Y-53912808D01*
X187694938Y-53912809D01*
X187534931Y-53951224D01*
X187445911Y-53972596D01*
X187441340Y-53974489D01*
X187441338Y-53974490D01*
X187209303Y-54070602D01*
X187209299Y-54070604D01*
X187204729Y-54072497D01*
X186982144Y-54208897D01*
X186783637Y-54378437D01*
X186614097Y-54576944D01*
X186477697Y-54799529D01*
X186377796Y-55040711D01*
X186376641Y-55045523D01*
X186318009Y-55289738D01*
X186318008Y-55289744D01*
X186316854Y-55294551D01*
X186296372Y-55554800D01*
X175018064Y-55554800D01*
X175016024Y-54006116D01*
X175016000Y-53988000D01*
X154060000Y-53988000D01*
X153991879Y-53967998D01*
X153945386Y-53914342D01*
X153934000Y-53862000D01*
X153934000Y-51354800D01*
X182096372Y-51354800D01*
X182116854Y-51615049D01*
X182118008Y-51619856D01*
X182118009Y-51619862D01*
X182156424Y-51779869D01*
X182177796Y-51868889D01*
X182277697Y-52110071D01*
X182414097Y-52332656D01*
X182583637Y-52531163D01*
X182782144Y-52700703D01*
X183004729Y-52837103D01*
X183009299Y-52838996D01*
X183009303Y-52838998D01*
X183241338Y-52935110D01*
X183245911Y-52937004D01*
X183334931Y-52958376D01*
X183494938Y-52996791D01*
X183494944Y-52996792D01*
X183499751Y-52997946D01*
X183760000Y-53018428D01*
X184020249Y-52997946D01*
X184025056Y-52996792D01*
X184025062Y-52996791D01*
X184185069Y-52958376D01*
X184274089Y-52937004D01*
X184278662Y-52935110D01*
X184510697Y-52838998D01*
X184510701Y-52838996D01*
X184515271Y-52837103D01*
X184737856Y-52700703D01*
X184936363Y-52531163D01*
X185105903Y-52332656D01*
X185242303Y-52110071D01*
X185342204Y-51868889D01*
X185363576Y-51779869D01*
X185401991Y-51619862D01*
X185401992Y-51619856D01*
X185403146Y-51615049D01*
X185423628Y-51354800D01*
X186296372Y-51354800D01*
X186316854Y-51615049D01*
X186318008Y-51619856D01*
X186318009Y-51619862D01*
X186356424Y-51779869D01*
X186377796Y-51868889D01*
X186477697Y-52110071D01*
X186614097Y-52332656D01*
X186783637Y-52531163D01*
X186982144Y-52700703D01*
X187204729Y-52837103D01*
X187209299Y-52838996D01*
X187209303Y-52838998D01*
X187441338Y-52935110D01*
X187445911Y-52937004D01*
X187534931Y-52958376D01*
X187694938Y-52996791D01*
X187694944Y-52996792D01*
X187699751Y-52997946D01*
X187960000Y-53018428D01*
X188220249Y-52997946D01*
X188225056Y-52996792D01*
X188225062Y-52996791D01*
X188385069Y-52958376D01*
X188474089Y-52937004D01*
X188478662Y-52935110D01*
X188710697Y-52838998D01*
X188710701Y-52838996D01*
X188715271Y-52837103D01*
X188937856Y-52700703D01*
X189136363Y-52531163D01*
X189305903Y-52332656D01*
X189442303Y-52110071D01*
X189542204Y-51868889D01*
X189563576Y-51779869D01*
X189601991Y-51619862D01*
X189601992Y-51619856D01*
X189603146Y-51615049D01*
X189623628Y-51354800D01*
X189603146Y-51094551D01*
X189601992Y-51089744D01*
X189601991Y-51089738D01*
X189543359Y-50845523D01*
X189542204Y-50840711D01*
X189442303Y-50599529D01*
X189305903Y-50376944D01*
X189136363Y-50178437D01*
X188937856Y-50008897D01*
X188715271Y-49872497D01*
X188710701Y-49870604D01*
X188710697Y-49870602D01*
X188478662Y-49774490D01*
X188478660Y-49774489D01*
X188474089Y-49772596D01*
X188385069Y-49751224D01*
X188225062Y-49712809D01*
X188225056Y-49712808D01*
X188220249Y-49711654D01*
X187960000Y-49691172D01*
X187699751Y-49711654D01*
X187694944Y-49712808D01*
X187694938Y-49712809D01*
X187534931Y-49751224D01*
X187445911Y-49772596D01*
X187441340Y-49774489D01*
X187441338Y-49774490D01*
X187209303Y-49870602D01*
X187209299Y-49870604D01*
X187204729Y-49872497D01*
X186982144Y-50008897D01*
X186783637Y-50178437D01*
X186614097Y-50376944D01*
X186477697Y-50599529D01*
X186377796Y-50840711D01*
X186376641Y-50845523D01*
X186318009Y-51089738D01*
X186318008Y-51089744D01*
X186316854Y-51094551D01*
X186296372Y-51354800D01*
X185423628Y-51354800D01*
X185403146Y-51094551D01*
X185401992Y-51089744D01*
X185401991Y-51089738D01*
X185343359Y-50845523D01*
X185342204Y-50840711D01*
X185242303Y-50599529D01*
X185105903Y-50376944D01*
X184936363Y-50178437D01*
X184737856Y-50008897D01*
X184515271Y-49872497D01*
X184510701Y-49870604D01*
X184510697Y-49870602D01*
X184278662Y-49774490D01*
X184278660Y-49774489D01*
X184274089Y-49772596D01*
X184185069Y-49751224D01*
X184025062Y-49712809D01*
X184025056Y-49712808D01*
X184020249Y-49711654D01*
X183760000Y-49691172D01*
X183499751Y-49711654D01*
X183494944Y-49712808D01*
X183494938Y-49712809D01*
X183334931Y-49751224D01*
X183245911Y-49772596D01*
X183241340Y-49774489D01*
X183241338Y-49774490D01*
X183009303Y-49870602D01*
X183009299Y-49870604D01*
X183004729Y-49872497D01*
X182782144Y-50008897D01*
X182583637Y-50178437D01*
X182414097Y-50376944D01*
X182277697Y-50599529D01*
X182177796Y-50840711D01*
X182176641Y-50845523D01*
X182118009Y-51089738D01*
X182118008Y-51089744D01*
X182116854Y-51094551D01*
X182096372Y-51354800D01*
X153934000Y-51354800D01*
X153934000Y-39255000D01*
X153954002Y-39186879D01*
X154007658Y-39140386D01*
X154060000Y-39129000D01*
X186806150Y-39129000D01*
X186874271Y-39149002D01*
G37*
G04 #@! TD.AperFunction*
M02*
