M48
; DRILL file {KiCad 8.0.4} date 2025-06-09T12:47:16-0400
; FORMAT={-:-/ absolute / inch / decimal}
; #@! TF.CreationDate,2025-06-09T12:47:16-04:00
; #@! TF.GenerationSoftware,Kicad,Pcbnew,8.0.4
; #@! TF.FileFunction,Plated,1,2,PTH
FMAT,2
INCH
; #@! TA.AperFunction,Plated,PTH,ViaDrill
T1C0.0197
; #@! TA.AperFunction,Plated,PTH,ComponentDrill
T2C0.0460
; #@! TA.AperFunction,Plated,PTH,ComponentDrill
T3C0.0512
; #@! TA.AperFunction,Plated,PTH,ComponentDrill
T4C0.0840
; #@! TA.AperFunction,Plated,PTH,ComponentDrill
T5C0.1260
%
G90
G05
T1
X4.0236Y-3.0551
X4.1457Y-2.9291
X4.2717Y-3.0512
X4.3976Y-2.7362
X4.8425Y-3.4646
X5.4331Y-3.5827
X6.2323Y-2.7362
X6.6496Y-3.5
T2
X5.6775Y-3.8179
X6.0775Y-3.8179
T3
X4.1496Y-3.0441
X4.1496Y-3.2441
X4.1496Y-3.5953
X4.1496Y-3.7953
T4
X5.5275Y-3.3179
X6.2275Y-2.9179
X6.2275Y-3.2179
T5
X4.0945Y-2.7283
X4.0945Y-4.185
X6.6535Y-2.7283
X6.6535Y-4.185
M30
