%TF.GenerationSoftware,KiCad,Pcbnew,8.0.4*%
%TF.CreationDate,2025-06-09T12:47:20-04:00*%
%TF.ProjectId,car-battery-reverse-polarity-protection,6361722d-6261-4747-9465-72792d726576,rev?*%
%TF.SameCoordinates,Original*%
%TF.FileFunction,Legend,Top*%
%TF.FilePolarity,Positive*%
%FSLAX46Y46*%
G04 Gerber Fmt 4.6, Leading zero omitted, Abs format (unit mm)*
G04 Created by KiCad (PCBNEW 8.0.4) date 2025-06-09 12:47:20*
%MOMM*%
%LPD*%
G01*
G04 APERTURE LIST*
%ADD10C,0.300000*%
%ADD11C,0.250000*%
%ADD12C,0.150000*%
%ADD13C,0.240000*%
%ADD14C,0.010000*%
%ADD15C,0.152400*%
%ADD16C,0.120000*%
G04 APERTURE END LIST*
D10*
X111954510Y-84114484D02*
X113097368Y-84114484D01*
X112525939Y-84685912D02*
X112525939Y-83543055D01*
X113740225Y-83328769D02*
X113811653Y-83257341D01*
X113811653Y-83257341D02*
X113954511Y-83185912D01*
X113954511Y-83185912D02*
X114311653Y-83185912D01*
X114311653Y-83185912D02*
X114454511Y-83257341D01*
X114454511Y-83257341D02*
X114525939Y-83328769D01*
X114525939Y-83328769D02*
X114597368Y-83471626D01*
X114597368Y-83471626D02*
X114597368Y-83614484D01*
X114597368Y-83614484D02*
X114525939Y-83828769D01*
X114525939Y-83828769D02*
X113668796Y-84685912D01*
X113668796Y-84685912D02*
X114597368Y-84685912D01*
X115883082Y-83685912D02*
X115883082Y-84685912D01*
X115525939Y-83114484D02*
X115168796Y-84185912D01*
X115168796Y-84185912D02*
X116097367Y-84185912D01*
X116454510Y-83185912D02*
X116954510Y-84685912D01*
X116954510Y-84685912D02*
X117454510Y-83185912D01*
X112414484Y-91845489D02*
X112414484Y-90702632D01*
X112985912Y-91274060D02*
X111843055Y-91274060D01*
X112583082Y-78877038D02*
X112754510Y-78934181D01*
X112754510Y-78934181D02*
X112811653Y-78991324D01*
X112811653Y-78991324D02*
X112868796Y-79105609D01*
X112868796Y-79105609D02*
X112868796Y-79277038D01*
X112868796Y-79277038D02*
X112811653Y-79391324D01*
X112811653Y-79391324D02*
X112754510Y-79448467D01*
X112754510Y-79448467D02*
X112640225Y-79505609D01*
X112640225Y-79505609D02*
X112183082Y-79505609D01*
X112183082Y-79505609D02*
X112183082Y-78305609D01*
X112183082Y-78305609D02*
X112583082Y-78305609D01*
X112583082Y-78305609D02*
X112697368Y-78362752D01*
X112697368Y-78362752D02*
X112754510Y-78419895D01*
X112754510Y-78419895D02*
X112811653Y-78534181D01*
X112811653Y-78534181D02*
X112811653Y-78648467D01*
X112811653Y-78648467D02*
X112754510Y-78762752D01*
X112754510Y-78762752D02*
X112697368Y-78819895D01*
X112697368Y-78819895D02*
X112583082Y-78877038D01*
X112583082Y-78877038D02*
X112183082Y-78877038D01*
X113897368Y-79505609D02*
X113897368Y-78877038D01*
X113897368Y-78877038D02*
X113840225Y-78762752D01*
X113840225Y-78762752D02*
X113725939Y-78705609D01*
X113725939Y-78705609D02*
X113497368Y-78705609D01*
X113497368Y-78705609D02*
X113383082Y-78762752D01*
X113897368Y-79448467D02*
X113783082Y-79505609D01*
X113783082Y-79505609D02*
X113497368Y-79505609D01*
X113497368Y-79505609D02*
X113383082Y-79448467D01*
X113383082Y-79448467D02*
X113325939Y-79334181D01*
X113325939Y-79334181D02*
X113325939Y-79219895D01*
X113325939Y-79219895D02*
X113383082Y-79105609D01*
X113383082Y-79105609D02*
X113497368Y-79048467D01*
X113497368Y-79048467D02*
X113783082Y-79048467D01*
X113783082Y-79048467D02*
X113897368Y-78991324D01*
X114297367Y-78705609D02*
X114754510Y-78705609D01*
X114468796Y-78305609D02*
X114468796Y-79334181D01*
X114468796Y-79334181D02*
X114525939Y-79448467D01*
X114525939Y-79448467D02*
X114640224Y-79505609D01*
X114640224Y-79505609D02*
X114754510Y-79505609D01*
X114983081Y-78705609D02*
X115440224Y-78705609D01*
X115154510Y-78305609D02*
X115154510Y-79334181D01*
X115154510Y-79334181D02*
X115211653Y-79448467D01*
X115211653Y-79448467D02*
X115325938Y-79505609D01*
X115325938Y-79505609D02*
X115440224Y-79505609D01*
X116297367Y-79448467D02*
X116183081Y-79505609D01*
X116183081Y-79505609D02*
X115954510Y-79505609D01*
X115954510Y-79505609D02*
X115840224Y-79448467D01*
X115840224Y-79448467D02*
X115783081Y-79334181D01*
X115783081Y-79334181D02*
X115783081Y-78877038D01*
X115783081Y-78877038D02*
X115840224Y-78762752D01*
X115840224Y-78762752D02*
X115954510Y-78705609D01*
X115954510Y-78705609D02*
X116183081Y-78705609D01*
X116183081Y-78705609D02*
X116297367Y-78762752D01*
X116297367Y-78762752D02*
X116354510Y-78877038D01*
X116354510Y-78877038D02*
X116354510Y-78991324D01*
X116354510Y-78991324D02*
X115783081Y-79105609D01*
X116868795Y-79505609D02*
X116868795Y-78705609D01*
X116868795Y-78934181D02*
X116925938Y-78819895D01*
X116925938Y-78819895D02*
X116983081Y-78762752D01*
X116983081Y-78762752D02*
X117097366Y-78705609D01*
X117097366Y-78705609D02*
X117211652Y-78705609D01*
X117497366Y-78705609D02*
X117783080Y-79505609D01*
X118068795Y-78705609D02*
X117783080Y-79505609D01*
X117783080Y-79505609D02*
X117668795Y-79791324D01*
X117668795Y-79791324D02*
X117611652Y-79848467D01*
X117611652Y-79848467D02*
X117497366Y-79905609D01*
X112868796Y-81323257D02*
X112811653Y-81380400D01*
X112811653Y-81380400D02*
X112640225Y-81437542D01*
X112640225Y-81437542D02*
X112525939Y-81437542D01*
X112525939Y-81437542D02*
X112354510Y-81380400D01*
X112354510Y-81380400D02*
X112240225Y-81266114D01*
X112240225Y-81266114D02*
X112183082Y-81151828D01*
X112183082Y-81151828D02*
X112125939Y-80923257D01*
X112125939Y-80923257D02*
X112125939Y-80751828D01*
X112125939Y-80751828D02*
X112183082Y-80523257D01*
X112183082Y-80523257D02*
X112240225Y-80408971D01*
X112240225Y-80408971D02*
X112354510Y-80294685D01*
X112354510Y-80294685D02*
X112525939Y-80237542D01*
X112525939Y-80237542D02*
X112640225Y-80237542D01*
X112640225Y-80237542D02*
X112811653Y-80294685D01*
X112811653Y-80294685D02*
X112868796Y-80351828D01*
X113554510Y-81437542D02*
X113440225Y-81380400D01*
X113440225Y-81380400D02*
X113383082Y-81323257D01*
X113383082Y-81323257D02*
X113325939Y-81208971D01*
X113325939Y-81208971D02*
X113325939Y-80866114D01*
X113325939Y-80866114D02*
X113383082Y-80751828D01*
X113383082Y-80751828D02*
X113440225Y-80694685D01*
X113440225Y-80694685D02*
X113554510Y-80637542D01*
X113554510Y-80637542D02*
X113725939Y-80637542D01*
X113725939Y-80637542D02*
X113840225Y-80694685D01*
X113840225Y-80694685D02*
X113897368Y-80751828D01*
X113897368Y-80751828D02*
X113954510Y-80866114D01*
X113954510Y-80866114D02*
X113954510Y-81208971D01*
X113954510Y-81208971D02*
X113897368Y-81323257D01*
X113897368Y-81323257D02*
X113840225Y-81380400D01*
X113840225Y-81380400D02*
X113725939Y-81437542D01*
X113725939Y-81437542D02*
X113554510Y-81437542D01*
X114468796Y-80637542D02*
X114468796Y-81437542D01*
X114468796Y-80751828D02*
X114525939Y-80694685D01*
X114525939Y-80694685D02*
X114640224Y-80637542D01*
X114640224Y-80637542D02*
X114811653Y-80637542D01*
X114811653Y-80637542D02*
X114925939Y-80694685D01*
X114925939Y-80694685D02*
X114983082Y-80808971D01*
X114983082Y-80808971D02*
X114983082Y-81437542D01*
X115554510Y-80637542D02*
X115554510Y-81437542D01*
X115554510Y-80751828D02*
X115611653Y-80694685D01*
X115611653Y-80694685D02*
X115725938Y-80637542D01*
X115725938Y-80637542D02*
X115897367Y-80637542D01*
X115897367Y-80637542D02*
X116011653Y-80694685D01*
X116011653Y-80694685D02*
X116068796Y-80808971D01*
X116068796Y-80808971D02*
X116068796Y-81437542D01*
X117097367Y-81380400D02*
X116983081Y-81437542D01*
X116983081Y-81437542D02*
X116754510Y-81437542D01*
X116754510Y-81437542D02*
X116640224Y-81380400D01*
X116640224Y-81380400D02*
X116583081Y-81266114D01*
X116583081Y-81266114D02*
X116583081Y-80808971D01*
X116583081Y-80808971D02*
X116640224Y-80694685D01*
X116640224Y-80694685D02*
X116754510Y-80637542D01*
X116754510Y-80637542D02*
X116983081Y-80637542D01*
X116983081Y-80637542D02*
X117097367Y-80694685D01*
X117097367Y-80694685D02*
X117154510Y-80808971D01*
X117154510Y-80808971D02*
X117154510Y-80923257D01*
X117154510Y-80923257D02*
X116583081Y-81037542D01*
X118183081Y-81380400D02*
X118068795Y-81437542D01*
X118068795Y-81437542D02*
X117840223Y-81437542D01*
X117840223Y-81437542D02*
X117725938Y-81380400D01*
X117725938Y-81380400D02*
X117668795Y-81323257D01*
X117668795Y-81323257D02*
X117611652Y-81208971D01*
X117611652Y-81208971D02*
X117611652Y-80866114D01*
X117611652Y-80866114D02*
X117668795Y-80751828D01*
X117668795Y-80751828D02*
X117725938Y-80694685D01*
X117725938Y-80694685D02*
X117840223Y-80637542D01*
X117840223Y-80637542D02*
X118068795Y-80637542D01*
X118068795Y-80637542D02*
X118183081Y-80694685D01*
X118525937Y-80637542D02*
X118983080Y-80637542D01*
X118697366Y-80237542D02*
X118697366Y-81266114D01*
X118697366Y-81266114D02*
X118754509Y-81380400D01*
X118754509Y-81380400D02*
X118868794Y-81437542D01*
X118868794Y-81437542D02*
X118983080Y-81437542D01*
X119554508Y-81437542D02*
X119440223Y-81380400D01*
X119440223Y-81380400D02*
X119383080Y-81323257D01*
X119383080Y-81323257D02*
X119325937Y-81208971D01*
X119325937Y-81208971D02*
X119325937Y-80866114D01*
X119325937Y-80866114D02*
X119383080Y-80751828D01*
X119383080Y-80751828D02*
X119440223Y-80694685D01*
X119440223Y-80694685D02*
X119554508Y-80637542D01*
X119554508Y-80637542D02*
X119725937Y-80637542D01*
X119725937Y-80637542D02*
X119840223Y-80694685D01*
X119840223Y-80694685D02*
X119897366Y-80751828D01*
X119897366Y-80751828D02*
X119954508Y-80866114D01*
X119954508Y-80866114D02*
X119954508Y-81208971D01*
X119954508Y-81208971D02*
X119897366Y-81323257D01*
X119897366Y-81323257D02*
X119840223Y-81380400D01*
X119840223Y-81380400D02*
X119725937Y-81437542D01*
X119725937Y-81437542D02*
X119554508Y-81437542D01*
X120468794Y-81437542D02*
X120468794Y-80637542D01*
X120468794Y-80866114D02*
X120525937Y-80751828D01*
X120525937Y-80751828D02*
X120583080Y-80694685D01*
X120583080Y-80694685D02*
X120697365Y-80637542D01*
X120697365Y-80637542D02*
X120811651Y-80637542D01*
X113240225Y-75372257D02*
X113097368Y-75300828D01*
X113097368Y-75300828D02*
X112883082Y-75300828D01*
X112883082Y-75300828D02*
X112668796Y-75372257D01*
X112668796Y-75372257D02*
X112525939Y-75515114D01*
X112525939Y-75515114D02*
X112454510Y-75657971D01*
X112454510Y-75657971D02*
X112383082Y-75943685D01*
X112383082Y-75943685D02*
X112383082Y-76157971D01*
X112383082Y-76157971D02*
X112454510Y-76443685D01*
X112454510Y-76443685D02*
X112525939Y-76586542D01*
X112525939Y-76586542D02*
X112668796Y-76729400D01*
X112668796Y-76729400D02*
X112883082Y-76800828D01*
X112883082Y-76800828D02*
X113025939Y-76800828D01*
X113025939Y-76800828D02*
X113240225Y-76729400D01*
X113240225Y-76729400D02*
X113311653Y-76657971D01*
X113311653Y-76657971D02*
X113311653Y-76157971D01*
X113311653Y-76157971D02*
X113025939Y-76157971D01*
X113954510Y-76800828D02*
X113954510Y-75300828D01*
X113954510Y-75300828D02*
X114811653Y-76800828D01*
X114811653Y-76800828D02*
X114811653Y-75300828D01*
X115525939Y-76800828D02*
X115525939Y-75300828D01*
X115525939Y-75300828D02*
X115883082Y-75300828D01*
X115883082Y-75300828D02*
X116097368Y-75372257D01*
X116097368Y-75372257D02*
X116240225Y-75515114D01*
X116240225Y-75515114D02*
X116311654Y-75657971D01*
X116311654Y-75657971D02*
X116383082Y-75943685D01*
X116383082Y-75943685D02*
X116383082Y-76157971D01*
X116383082Y-76157971D02*
X116311654Y-76443685D01*
X116311654Y-76443685D02*
X116240225Y-76586542D01*
X116240225Y-76586542D02*
X116097368Y-76729400D01*
X116097368Y-76729400D02*
X115883082Y-76800828D01*
X115883082Y-76800828D02*
X115525939Y-76800828D01*
D11*
X140502568Y-106454675D02*
X140502568Y-105454675D01*
X140978758Y-106454675D02*
X140978758Y-105454675D01*
X141407329Y-106454675D02*
X141407329Y-105930865D01*
X141407329Y-105930865D02*
X141359710Y-105835627D01*
X141359710Y-105835627D02*
X141264472Y-105788008D01*
X141264472Y-105788008D02*
X141121615Y-105788008D01*
X141121615Y-105788008D02*
X141026377Y-105835627D01*
X141026377Y-105835627D02*
X140978758Y-105883246D01*
X141835901Y-106407056D02*
X141931139Y-106454675D01*
X141931139Y-106454675D02*
X142121615Y-106454675D01*
X142121615Y-106454675D02*
X142216853Y-106407056D01*
X142216853Y-106407056D02*
X142264472Y-106311817D01*
X142264472Y-106311817D02*
X142264472Y-106264198D01*
X142264472Y-106264198D02*
X142216853Y-106168960D01*
X142216853Y-106168960D02*
X142121615Y-106121341D01*
X142121615Y-106121341D02*
X141978758Y-106121341D01*
X141978758Y-106121341D02*
X141883520Y-106073722D01*
X141883520Y-106073722D02*
X141835901Y-105978484D01*
X141835901Y-105978484D02*
X141835901Y-105930865D01*
X141835901Y-105930865D02*
X141883520Y-105835627D01*
X141883520Y-105835627D02*
X141978758Y-105788008D01*
X141978758Y-105788008D02*
X142121615Y-105788008D01*
X142121615Y-105788008D02*
X142216853Y-105835627D01*
X143121615Y-106454675D02*
X143121615Y-105930865D01*
X143121615Y-105930865D02*
X143073996Y-105835627D01*
X143073996Y-105835627D02*
X142978758Y-105788008D01*
X142978758Y-105788008D02*
X142788282Y-105788008D01*
X142788282Y-105788008D02*
X142693044Y-105835627D01*
X143121615Y-106407056D02*
X143026377Y-106454675D01*
X143026377Y-106454675D02*
X142788282Y-106454675D01*
X142788282Y-106454675D02*
X142693044Y-106407056D01*
X142693044Y-106407056D02*
X142645425Y-106311817D01*
X142645425Y-106311817D02*
X142645425Y-106216579D01*
X142645425Y-106216579D02*
X142693044Y-106121341D01*
X142693044Y-106121341D02*
X142788282Y-106073722D01*
X142788282Y-106073722D02*
X143026377Y-106073722D01*
X143026377Y-106073722D02*
X143121615Y-106026103D01*
X143597806Y-105788008D02*
X143597806Y-106454675D01*
X143597806Y-105883246D02*
X143645425Y-105835627D01*
X143645425Y-105835627D02*
X143740663Y-105788008D01*
X143740663Y-105788008D02*
X143883520Y-105788008D01*
X143883520Y-105788008D02*
X143978758Y-105835627D01*
X143978758Y-105835627D02*
X144026377Y-105930865D01*
X144026377Y-105930865D02*
X144026377Y-106454675D01*
X145216854Y-106407056D02*
X145359711Y-106454675D01*
X145359711Y-106454675D02*
X145597806Y-106454675D01*
X145597806Y-106454675D02*
X145693044Y-106407056D01*
X145693044Y-106407056D02*
X145740663Y-106359436D01*
X145740663Y-106359436D02*
X145788282Y-106264198D01*
X145788282Y-106264198D02*
X145788282Y-106168960D01*
X145788282Y-106168960D02*
X145740663Y-106073722D01*
X145740663Y-106073722D02*
X145693044Y-106026103D01*
X145693044Y-106026103D02*
X145597806Y-105978484D01*
X145597806Y-105978484D02*
X145407330Y-105930865D01*
X145407330Y-105930865D02*
X145312092Y-105883246D01*
X145312092Y-105883246D02*
X145264473Y-105835627D01*
X145264473Y-105835627D02*
X145216854Y-105740389D01*
X145216854Y-105740389D02*
X145216854Y-105645151D01*
X145216854Y-105645151D02*
X145264473Y-105549913D01*
X145264473Y-105549913D02*
X145312092Y-105502294D01*
X145312092Y-105502294D02*
X145407330Y-105454675D01*
X145407330Y-105454675D02*
X145645425Y-105454675D01*
X145645425Y-105454675D02*
X145788282Y-105502294D01*
X146645425Y-106454675D02*
X146645425Y-105930865D01*
X146645425Y-105930865D02*
X146597806Y-105835627D01*
X146597806Y-105835627D02*
X146502568Y-105788008D01*
X146502568Y-105788008D02*
X146312092Y-105788008D01*
X146312092Y-105788008D02*
X146216854Y-105835627D01*
X146645425Y-106407056D02*
X146550187Y-106454675D01*
X146550187Y-106454675D02*
X146312092Y-106454675D01*
X146312092Y-106454675D02*
X146216854Y-106407056D01*
X146216854Y-106407056D02*
X146169235Y-106311817D01*
X146169235Y-106311817D02*
X146169235Y-106216579D01*
X146169235Y-106216579D02*
X146216854Y-106121341D01*
X146216854Y-106121341D02*
X146312092Y-106073722D01*
X146312092Y-106073722D02*
X146550187Y-106073722D01*
X146550187Y-106073722D02*
X146645425Y-106026103D01*
X147264473Y-106454675D02*
X147169235Y-106407056D01*
X147169235Y-106407056D02*
X147121616Y-106311817D01*
X147121616Y-106311817D02*
X147121616Y-105454675D01*
X148073997Y-106454675D02*
X148073997Y-105930865D01*
X148073997Y-105930865D02*
X148026378Y-105835627D01*
X148026378Y-105835627D02*
X147931140Y-105788008D01*
X147931140Y-105788008D02*
X147740664Y-105788008D01*
X147740664Y-105788008D02*
X147645426Y-105835627D01*
X148073997Y-106407056D02*
X147978759Y-106454675D01*
X147978759Y-106454675D02*
X147740664Y-106454675D01*
X147740664Y-106454675D02*
X147645426Y-106407056D01*
X147645426Y-106407056D02*
X147597807Y-106311817D01*
X147597807Y-106311817D02*
X147597807Y-106216579D01*
X147597807Y-106216579D02*
X147645426Y-106121341D01*
X147645426Y-106121341D02*
X147740664Y-106073722D01*
X147740664Y-106073722D02*
X147978759Y-106073722D01*
X147978759Y-106073722D02*
X148073997Y-106026103D01*
X148550188Y-106454675D02*
X148550188Y-105788008D01*
X148550188Y-105978484D02*
X148597807Y-105883246D01*
X148597807Y-105883246D02*
X148645426Y-105835627D01*
X148645426Y-105835627D02*
X148740664Y-105788008D01*
X148740664Y-105788008D02*
X148835902Y-105788008D01*
X149169236Y-106454675D02*
X149169236Y-105788008D01*
X149169236Y-105454675D02*
X149121617Y-105502294D01*
X149121617Y-105502294D02*
X149169236Y-105549913D01*
X149169236Y-105549913D02*
X149216855Y-105502294D01*
X149216855Y-105502294D02*
X149169236Y-105454675D01*
X149169236Y-105454675D02*
X149169236Y-105549913D01*
X150693045Y-105454675D02*
X150693045Y-106168960D01*
X150693045Y-106168960D02*
X150645426Y-106311817D01*
X150645426Y-106311817D02*
X150550188Y-106407056D01*
X150550188Y-106407056D02*
X150407331Y-106454675D01*
X150407331Y-106454675D02*
X150312093Y-106454675D01*
X151597807Y-105788008D02*
X151597807Y-106454675D01*
X151169236Y-105788008D02*
X151169236Y-106311817D01*
X151169236Y-106311817D02*
X151216855Y-106407056D01*
X151216855Y-106407056D02*
X151312093Y-106454675D01*
X151312093Y-106454675D02*
X151454950Y-106454675D01*
X151454950Y-106454675D02*
X151550188Y-106407056D01*
X151550188Y-106407056D02*
X151597807Y-106359436D01*
X152073998Y-105788008D02*
X152073998Y-106454675D01*
X152073998Y-105883246D02*
X152121617Y-105835627D01*
X152121617Y-105835627D02*
X152216855Y-105788008D01*
X152216855Y-105788008D02*
X152359712Y-105788008D01*
X152359712Y-105788008D02*
X152454950Y-105835627D01*
X152454950Y-105835627D02*
X152502569Y-105930865D01*
X152502569Y-105930865D02*
X152502569Y-106454675D01*
X153359712Y-106407056D02*
X153264474Y-106454675D01*
X153264474Y-106454675D02*
X153073998Y-106454675D01*
X153073998Y-106454675D02*
X152978760Y-106407056D01*
X152978760Y-106407056D02*
X152931141Y-106311817D01*
X152931141Y-106311817D02*
X152931141Y-105930865D01*
X152931141Y-105930865D02*
X152978760Y-105835627D01*
X152978760Y-105835627D02*
X153073998Y-105788008D01*
X153073998Y-105788008D02*
X153264474Y-105788008D01*
X153264474Y-105788008D02*
X153359712Y-105835627D01*
X153359712Y-105835627D02*
X153407331Y-105930865D01*
X153407331Y-105930865D02*
X153407331Y-106026103D01*
X153407331Y-106026103D02*
X152931141Y-106121341D01*
X154550189Y-105549913D02*
X154597808Y-105502294D01*
X154597808Y-105502294D02*
X154693046Y-105454675D01*
X154693046Y-105454675D02*
X154931141Y-105454675D01*
X154931141Y-105454675D02*
X155026379Y-105502294D01*
X155026379Y-105502294D02*
X155073998Y-105549913D01*
X155073998Y-105549913D02*
X155121617Y-105645151D01*
X155121617Y-105645151D02*
X155121617Y-105740389D01*
X155121617Y-105740389D02*
X155073998Y-105883246D01*
X155073998Y-105883246D02*
X154502570Y-106454675D01*
X154502570Y-106454675D02*
X155121617Y-106454675D01*
X155740665Y-105454675D02*
X155835903Y-105454675D01*
X155835903Y-105454675D02*
X155931141Y-105502294D01*
X155931141Y-105502294D02*
X155978760Y-105549913D01*
X155978760Y-105549913D02*
X156026379Y-105645151D01*
X156026379Y-105645151D02*
X156073998Y-105835627D01*
X156073998Y-105835627D02*
X156073998Y-106073722D01*
X156073998Y-106073722D02*
X156026379Y-106264198D01*
X156026379Y-106264198D02*
X155978760Y-106359436D01*
X155978760Y-106359436D02*
X155931141Y-106407056D01*
X155931141Y-106407056D02*
X155835903Y-106454675D01*
X155835903Y-106454675D02*
X155740665Y-106454675D01*
X155740665Y-106454675D02*
X155645427Y-106407056D01*
X155645427Y-106407056D02*
X155597808Y-106359436D01*
X155597808Y-106359436D02*
X155550189Y-106264198D01*
X155550189Y-106264198D02*
X155502570Y-106073722D01*
X155502570Y-106073722D02*
X155502570Y-105835627D01*
X155502570Y-105835627D02*
X155550189Y-105645151D01*
X155550189Y-105645151D02*
X155597808Y-105549913D01*
X155597808Y-105549913D02*
X155645427Y-105502294D01*
X155645427Y-105502294D02*
X155740665Y-105454675D01*
X156454951Y-105549913D02*
X156502570Y-105502294D01*
X156502570Y-105502294D02*
X156597808Y-105454675D01*
X156597808Y-105454675D02*
X156835903Y-105454675D01*
X156835903Y-105454675D02*
X156931141Y-105502294D01*
X156931141Y-105502294D02*
X156978760Y-105549913D01*
X156978760Y-105549913D02*
X157026379Y-105645151D01*
X157026379Y-105645151D02*
X157026379Y-105740389D01*
X157026379Y-105740389D02*
X156978760Y-105883246D01*
X156978760Y-105883246D02*
X156407332Y-106454675D01*
X156407332Y-106454675D02*
X157026379Y-106454675D01*
X157931141Y-105454675D02*
X157454951Y-105454675D01*
X157454951Y-105454675D02*
X157407332Y-105930865D01*
X157407332Y-105930865D02*
X157454951Y-105883246D01*
X157454951Y-105883246D02*
X157550189Y-105835627D01*
X157550189Y-105835627D02*
X157788284Y-105835627D01*
X157788284Y-105835627D02*
X157883522Y-105883246D01*
X157883522Y-105883246D02*
X157931141Y-105930865D01*
X157931141Y-105930865D02*
X157978760Y-106026103D01*
X157978760Y-106026103D02*
X157978760Y-106264198D01*
X157978760Y-106264198D02*
X157931141Y-106359436D01*
X157931141Y-106359436D02*
X157883522Y-106407056D01*
X157883522Y-106407056D02*
X157788284Y-106454675D01*
X157788284Y-106454675D02*
X157550189Y-106454675D01*
X157550189Y-106454675D02*
X157454951Y-106407056D01*
X157454951Y-106407056D02*
X157407332Y-106359436D01*
D10*
X113145489Y-97370600D02*
X112002632Y-97370600D01*
D11*
X114492857Y-67701537D02*
X114564285Y-67630109D01*
X114564285Y-67630109D02*
X114707143Y-67558680D01*
X114707143Y-67558680D02*
X115064285Y-67558680D01*
X115064285Y-67558680D02*
X115207143Y-67630109D01*
X115207143Y-67630109D02*
X115278571Y-67701537D01*
X115278571Y-67701537D02*
X115350000Y-67844394D01*
X115350000Y-67844394D02*
X115350000Y-67987252D01*
X115350000Y-67987252D02*
X115278571Y-68201537D01*
X115278571Y-68201537D02*
X114421428Y-69058680D01*
X114421428Y-69058680D02*
X115350000Y-69058680D01*
X116635714Y-68058680D02*
X116635714Y-69058680D01*
X116278571Y-67487252D02*
X115921428Y-68558680D01*
X115921428Y-68558680D02*
X116849999Y-68558680D01*
X117207142Y-67558680D02*
X117707142Y-69058680D01*
X117707142Y-69058680D02*
X118207142Y-67558680D01*
X118707141Y-69058680D02*
X118707141Y-67558680D01*
X118707141Y-67558680D02*
X119064284Y-67558680D01*
X119064284Y-67558680D02*
X119278570Y-67630109D01*
X119278570Y-67630109D02*
X119421427Y-67772966D01*
X119421427Y-67772966D02*
X119492856Y-67915823D01*
X119492856Y-67915823D02*
X119564284Y-68201537D01*
X119564284Y-68201537D02*
X119564284Y-68415823D01*
X119564284Y-68415823D02*
X119492856Y-68701537D01*
X119492856Y-68701537D02*
X119421427Y-68844394D01*
X119421427Y-68844394D02*
X119278570Y-68987252D01*
X119278570Y-68987252D02*
X119064284Y-69058680D01*
X119064284Y-69058680D02*
X118707141Y-69058680D01*
X121064284Y-68915823D02*
X120992856Y-68987252D01*
X120992856Y-68987252D02*
X120778570Y-69058680D01*
X120778570Y-69058680D02*
X120635713Y-69058680D01*
X120635713Y-69058680D02*
X120421427Y-68987252D01*
X120421427Y-68987252D02*
X120278570Y-68844394D01*
X120278570Y-68844394D02*
X120207141Y-68701537D01*
X120207141Y-68701537D02*
X120135713Y-68415823D01*
X120135713Y-68415823D02*
X120135713Y-68201537D01*
X120135713Y-68201537D02*
X120207141Y-67915823D01*
X120207141Y-67915823D02*
X120278570Y-67772966D01*
X120278570Y-67772966D02*
X120421427Y-67630109D01*
X120421427Y-67630109D02*
X120635713Y-67558680D01*
X120635713Y-67558680D02*
X120778570Y-67558680D01*
X120778570Y-67558680D02*
X120992856Y-67630109D01*
X120992856Y-67630109D02*
X121064284Y-67701537D01*
X122635713Y-67558680D02*
X123492856Y-67558680D01*
X123064284Y-69058680D02*
X123064284Y-67558680D01*
X124635713Y-69058680D02*
X124635713Y-68272966D01*
X124635713Y-68272966D02*
X124564284Y-68130109D01*
X124564284Y-68130109D02*
X124421427Y-68058680D01*
X124421427Y-68058680D02*
X124135713Y-68058680D01*
X124135713Y-68058680D02*
X123992855Y-68130109D01*
X124635713Y-68987252D02*
X124492855Y-69058680D01*
X124492855Y-69058680D02*
X124135713Y-69058680D01*
X124135713Y-69058680D02*
X123992855Y-68987252D01*
X123992855Y-68987252D02*
X123921427Y-68844394D01*
X123921427Y-68844394D02*
X123921427Y-68701537D01*
X123921427Y-68701537D02*
X123992855Y-68558680D01*
X123992855Y-68558680D02*
X124135713Y-68487252D01*
X124135713Y-68487252D02*
X124492855Y-68487252D01*
X124492855Y-68487252D02*
X124635713Y-68415823D01*
X125349998Y-68058680D02*
X125349998Y-69058680D01*
X125349998Y-68201537D02*
X125421427Y-68130109D01*
X125421427Y-68130109D02*
X125564284Y-68058680D01*
X125564284Y-68058680D02*
X125778570Y-68058680D01*
X125778570Y-68058680D02*
X125921427Y-68130109D01*
X125921427Y-68130109D02*
X125992856Y-68272966D01*
X125992856Y-68272966D02*
X125992856Y-69058680D01*
X126707141Y-69058680D02*
X126707141Y-67558680D01*
X126849999Y-68487252D02*
X127278570Y-69058680D01*
X127278570Y-68058680D02*
X126707141Y-68630109D01*
X129064284Y-69058680D02*
X129064284Y-67558680D01*
X129707142Y-69058680D02*
X129707142Y-68272966D01*
X129707142Y-68272966D02*
X129635713Y-68130109D01*
X129635713Y-68130109D02*
X129492856Y-68058680D01*
X129492856Y-68058680D02*
X129278570Y-68058680D01*
X129278570Y-68058680D02*
X129135713Y-68130109D01*
X129135713Y-68130109D02*
X129064284Y-68201537D01*
X130992856Y-68987252D02*
X130849999Y-69058680D01*
X130849999Y-69058680D02*
X130564285Y-69058680D01*
X130564285Y-69058680D02*
X130421427Y-68987252D01*
X130421427Y-68987252D02*
X130349999Y-68844394D01*
X130349999Y-68844394D02*
X130349999Y-68272966D01*
X130349999Y-68272966D02*
X130421427Y-68130109D01*
X130421427Y-68130109D02*
X130564285Y-68058680D01*
X130564285Y-68058680D02*
X130849999Y-68058680D01*
X130849999Y-68058680D02*
X130992856Y-68130109D01*
X130992856Y-68130109D02*
X131064285Y-68272966D01*
X131064285Y-68272966D02*
X131064285Y-68415823D01*
X131064285Y-68415823D02*
X130349999Y-68558680D01*
X132349999Y-69058680D02*
X132349999Y-68272966D01*
X132349999Y-68272966D02*
X132278570Y-68130109D01*
X132278570Y-68130109D02*
X132135713Y-68058680D01*
X132135713Y-68058680D02*
X131849999Y-68058680D01*
X131849999Y-68058680D02*
X131707141Y-68130109D01*
X132349999Y-68987252D02*
X132207141Y-69058680D01*
X132207141Y-69058680D02*
X131849999Y-69058680D01*
X131849999Y-69058680D02*
X131707141Y-68987252D01*
X131707141Y-68987252D02*
X131635713Y-68844394D01*
X131635713Y-68844394D02*
X131635713Y-68701537D01*
X131635713Y-68701537D02*
X131707141Y-68558680D01*
X131707141Y-68558680D02*
X131849999Y-68487252D01*
X131849999Y-68487252D02*
X132207141Y-68487252D01*
X132207141Y-68487252D02*
X132349999Y-68415823D01*
X132849999Y-68058680D02*
X133421427Y-68058680D01*
X133064284Y-67558680D02*
X133064284Y-68844394D01*
X133064284Y-68844394D02*
X133135713Y-68987252D01*
X133135713Y-68987252D02*
X133278570Y-69058680D01*
X133278570Y-69058680D02*
X133421427Y-69058680D01*
X133921427Y-69058680D02*
X133921427Y-68058680D01*
X133921427Y-67558680D02*
X133849999Y-67630109D01*
X133849999Y-67630109D02*
X133921427Y-67701537D01*
X133921427Y-67701537D02*
X133992856Y-67630109D01*
X133992856Y-67630109D02*
X133921427Y-67558680D01*
X133921427Y-67558680D02*
X133921427Y-67701537D01*
X134635713Y-68058680D02*
X134635713Y-69058680D01*
X134635713Y-68201537D02*
X134707142Y-68130109D01*
X134707142Y-68130109D02*
X134849999Y-68058680D01*
X134849999Y-68058680D02*
X135064285Y-68058680D01*
X135064285Y-68058680D02*
X135207142Y-68130109D01*
X135207142Y-68130109D02*
X135278571Y-68272966D01*
X135278571Y-68272966D02*
X135278571Y-69058680D01*
X136635714Y-68058680D02*
X136635714Y-69272966D01*
X136635714Y-69272966D02*
X136564285Y-69415823D01*
X136564285Y-69415823D02*
X136492856Y-69487252D01*
X136492856Y-69487252D02*
X136349999Y-69558680D01*
X136349999Y-69558680D02*
X136135714Y-69558680D01*
X136135714Y-69558680D02*
X135992856Y-69487252D01*
X136635714Y-68987252D02*
X136492856Y-69058680D01*
X136492856Y-69058680D02*
X136207142Y-69058680D01*
X136207142Y-69058680D02*
X136064285Y-68987252D01*
X136064285Y-68987252D02*
X135992856Y-68915823D01*
X135992856Y-68915823D02*
X135921428Y-68772966D01*
X135921428Y-68772966D02*
X135921428Y-68344394D01*
X135921428Y-68344394D02*
X135992856Y-68201537D01*
X135992856Y-68201537D02*
X136064285Y-68130109D01*
X136064285Y-68130109D02*
X136207142Y-68058680D01*
X136207142Y-68058680D02*
X136492856Y-68058680D01*
X136492856Y-68058680D02*
X136635714Y-68130109D01*
X117100000Y-71473596D02*
X117100000Y-70473596D01*
X117100000Y-70759310D02*
X117171429Y-70616453D01*
X117171429Y-70616453D02*
X117242858Y-70545025D01*
X117242858Y-70545025D02*
X117385715Y-70473596D01*
X117385715Y-70473596D02*
X117528572Y-70473596D01*
X118600000Y-71402168D02*
X118457143Y-71473596D01*
X118457143Y-71473596D02*
X118171429Y-71473596D01*
X118171429Y-71473596D02*
X118028571Y-71402168D01*
X118028571Y-71402168D02*
X117957143Y-71259310D01*
X117957143Y-71259310D02*
X117957143Y-70687882D01*
X117957143Y-70687882D02*
X118028571Y-70545025D01*
X118028571Y-70545025D02*
X118171429Y-70473596D01*
X118171429Y-70473596D02*
X118457143Y-70473596D01*
X118457143Y-70473596D02*
X118600000Y-70545025D01*
X118600000Y-70545025D02*
X118671429Y-70687882D01*
X118671429Y-70687882D02*
X118671429Y-70830739D01*
X118671429Y-70830739D02*
X117957143Y-70973596D01*
X119171428Y-70473596D02*
X119528571Y-71473596D01*
X119528571Y-71473596D02*
X119885714Y-70473596D01*
X121028571Y-71402168D02*
X120885714Y-71473596D01*
X120885714Y-71473596D02*
X120600000Y-71473596D01*
X120600000Y-71473596D02*
X120457142Y-71402168D01*
X120457142Y-71402168D02*
X120385714Y-71259310D01*
X120385714Y-71259310D02*
X120385714Y-70687882D01*
X120385714Y-70687882D02*
X120457142Y-70545025D01*
X120457142Y-70545025D02*
X120600000Y-70473596D01*
X120600000Y-70473596D02*
X120885714Y-70473596D01*
X120885714Y-70473596D02*
X121028571Y-70545025D01*
X121028571Y-70545025D02*
X121100000Y-70687882D01*
X121100000Y-70687882D02*
X121100000Y-70830739D01*
X121100000Y-70830739D02*
X120385714Y-70973596D01*
X121742856Y-71473596D02*
X121742856Y-70473596D01*
X121742856Y-70759310D02*
X121814285Y-70616453D01*
X121814285Y-70616453D02*
X121885714Y-70545025D01*
X121885714Y-70545025D02*
X122028571Y-70473596D01*
X122028571Y-70473596D02*
X122171428Y-70473596D01*
X122599999Y-71402168D02*
X122742856Y-71473596D01*
X122742856Y-71473596D02*
X123028570Y-71473596D01*
X123028570Y-71473596D02*
X123171427Y-71402168D01*
X123171427Y-71402168D02*
X123242856Y-71259310D01*
X123242856Y-71259310D02*
X123242856Y-71187882D01*
X123242856Y-71187882D02*
X123171427Y-71045025D01*
X123171427Y-71045025D02*
X123028570Y-70973596D01*
X123028570Y-70973596D02*
X122814285Y-70973596D01*
X122814285Y-70973596D02*
X122671427Y-70902168D01*
X122671427Y-70902168D02*
X122599999Y-70759310D01*
X122599999Y-70759310D02*
X122599999Y-70687882D01*
X122599999Y-70687882D02*
X122671427Y-70545025D01*
X122671427Y-70545025D02*
X122814285Y-70473596D01*
X122814285Y-70473596D02*
X123028570Y-70473596D01*
X123028570Y-70473596D02*
X123171427Y-70545025D01*
X124457142Y-71402168D02*
X124314285Y-71473596D01*
X124314285Y-71473596D02*
X124028571Y-71473596D01*
X124028571Y-71473596D02*
X123885713Y-71402168D01*
X123885713Y-71402168D02*
X123814285Y-71259310D01*
X123814285Y-71259310D02*
X123814285Y-70687882D01*
X123814285Y-70687882D02*
X123885713Y-70545025D01*
X123885713Y-70545025D02*
X124028571Y-70473596D01*
X124028571Y-70473596D02*
X124314285Y-70473596D01*
X124314285Y-70473596D02*
X124457142Y-70545025D01*
X124457142Y-70545025D02*
X124528571Y-70687882D01*
X124528571Y-70687882D02*
X124528571Y-70830739D01*
X124528571Y-70830739D02*
X123814285Y-70973596D01*
X126314284Y-70473596D02*
X126314284Y-71973596D01*
X126314284Y-70545025D02*
X126457142Y-70473596D01*
X126457142Y-70473596D02*
X126742856Y-70473596D01*
X126742856Y-70473596D02*
X126885713Y-70545025D01*
X126885713Y-70545025D02*
X126957142Y-70616453D01*
X126957142Y-70616453D02*
X127028570Y-70759310D01*
X127028570Y-70759310D02*
X127028570Y-71187882D01*
X127028570Y-71187882D02*
X126957142Y-71330739D01*
X126957142Y-71330739D02*
X126885713Y-71402168D01*
X126885713Y-71402168D02*
X126742856Y-71473596D01*
X126742856Y-71473596D02*
X126457142Y-71473596D01*
X126457142Y-71473596D02*
X126314284Y-71402168D01*
X127885713Y-71473596D02*
X127742856Y-71402168D01*
X127742856Y-71402168D02*
X127671427Y-71330739D01*
X127671427Y-71330739D02*
X127599999Y-71187882D01*
X127599999Y-71187882D02*
X127599999Y-70759310D01*
X127599999Y-70759310D02*
X127671427Y-70616453D01*
X127671427Y-70616453D02*
X127742856Y-70545025D01*
X127742856Y-70545025D02*
X127885713Y-70473596D01*
X127885713Y-70473596D02*
X128099999Y-70473596D01*
X128099999Y-70473596D02*
X128242856Y-70545025D01*
X128242856Y-70545025D02*
X128314285Y-70616453D01*
X128314285Y-70616453D02*
X128385713Y-70759310D01*
X128385713Y-70759310D02*
X128385713Y-71187882D01*
X128385713Y-71187882D02*
X128314285Y-71330739D01*
X128314285Y-71330739D02*
X128242856Y-71402168D01*
X128242856Y-71402168D02*
X128099999Y-71473596D01*
X128099999Y-71473596D02*
X127885713Y-71473596D01*
X129242856Y-71473596D02*
X129099999Y-71402168D01*
X129099999Y-71402168D02*
X129028570Y-71259310D01*
X129028570Y-71259310D02*
X129028570Y-69973596D01*
X130457142Y-71473596D02*
X130457142Y-70687882D01*
X130457142Y-70687882D02*
X130385713Y-70545025D01*
X130385713Y-70545025D02*
X130242856Y-70473596D01*
X130242856Y-70473596D02*
X129957142Y-70473596D01*
X129957142Y-70473596D02*
X129814284Y-70545025D01*
X130457142Y-71402168D02*
X130314284Y-71473596D01*
X130314284Y-71473596D02*
X129957142Y-71473596D01*
X129957142Y-71473596D02*
X129814284Y-71402168D01*
X129814284Y-71402168D02*
X129742856Y-71259310D01*
X129742856Y-71259310D02*
X129742856Y-71116453D01*
X129742856Y-71116453D02*
X129814284Y-70973596D01*
X129814284Y-70973596D02*
X129957142Y-70902168D01*
X129957142Y-70902168D02*
X130314284Y-70902168D01*
X130314284Y-70902168D02*
X130457142Y-70830739D01*
X131171427Y-71473596D02*
X131171427Y-70473596D01*
X131171427Y-70759310D02*
X131242856Y-70616453D01*
X131242856Y-70616453D02*
X131314285Y-70545025D01*
X131314285Y-70545025D02*
X131457142Y-70473596D01*
X131457142Y-70473596D02*
X131599999Y-70473596D01*
X132099998Y-71473596D02*
X132099998Y-70473596D01*
X132099998Y-69973596D02*
X132028570Y-70045025D01*
X132028570Y-70045025D02*
X132099998Y-70116453D01*
X132099998Y-70116453D02*
X132171427Y-70045025D01*
X132171427Y-70045025D02*
X132099998Y-69973596D01*
X132099998Y-69973596D02*
X132099998Y-70116453D01*
X132599999Y-70473596D02*
X133171427Y-70473596D01*
X132814284Y-69973596D02*
X132814284Y-71259310D01*
X132814284Y-71259310D02*
X132885713Y-71402168D01*
X132885713Y-71402168D02*
X133028570Y-71473596D01*
X133028570Y-71473596D02*
X133171427Y-71473596D01*
X133528570Y-70473596D02*
X133885713Y-71473596D01*
X134242856Y-70473596D02*
X133885713Y-71473596D01*
X133885713Y-71473596D02*
X133742856Y-71830739D01*
X133742856Y-71830739D02*
X133671427Y-71902168D01*
X133671427Y-71902168D02*
X133528570Y-71973596D01*
X120278571Y-72888512D02*
X120278571Y-74388512D01*
X120278571Y-72959941D02*
X120421429Y-72888512D01*
X120421429Y-72888512D02*
X120707143Y-72888512D01*
X120707143Y-72888512D02*
X120850000Y-72959941D01*
X120850000Y-72959941D02*
X120921429Y-73031369D01*
X120921429Y-73031369D02*
X120992857Y-73174226D01*
X120992857Y-73174226D02*
X120992857Y-73602798D01*
X120992857Y-73602798D02*
X120921429Y-73745655D01*
X120921429Y-73745655D02*
X120850000Y-73817084D01*
X120850000Y-73817084D02*
X120707143Y-73888512D01*
X120707143Y-73888512D02*
X120421429Y-73888512D01*
X120421429Y-73888512D02*
X120278571Y-73817084D01*
X121635714Y-73888512D02*
X121635714Y-72888512D01*
X121635714Y-73174226D02*
X121707143Y-73031369D01*
X121707143Y-73031369D02*
X121778572Y-72959941D01*
X121778572Y-72959941D02*
X121921429Y-72888512D01*
X121921429Y-72888512D02*
X122064286Y-72888512D01*
X122778571Y-73888512D02*
X122635714Y-73817084D01*
X122635714Y-73817084D02*
X122564285Y-73745655D01*
X122564285Y-73745655D02*
X122492857Y-73602798D01*
X122492857Y-73602798D02*
X122492857Y-73174226D01*
X122492857Y-73174226D02*
X122564285Y-73031369D01*
X122564285Y-73031369D02*
X122635714Y-72959941D01*
X122635714Y-72959941D02*
X122778571Y-72888512D01*
X122778571Y-72888512D02*
X122992857Y-72888512D01*
X122992857Y-72888512D02*
X123135714Y-72959941D01*
X123135714Y-72959941D02*
X123207143Y-73031369D01*
X123207143Y-73031369D02*
X123278571Y-73174226D01*
X123278571Y-73174226D02*
X123278571Y-73602798D01*
X123278571Y-73602798D02*
X123207143Y-73745655D01*
X123207143Y-73745655D02*
X123135714Y-73817084D01*
X123135714Y-73817084D02*
X122992857Y-73888512D01*
X122992857Y-73888512D02*
X122778571Y-73888512D01*
X123707143Y-72888512D02*
X124278571Y-72888512D01*
X123921428Y-72388512D02*
X123921428Y-73674226D01*
X123921428Y-73674226D02*
X123992857Y-73817084D01*
X123992857Y-73817084D02*
X124135714Y-73888512D01*
X124135714Y-73888512D02*
X124278571Y-73888512D01*
X125350000Y-73817084D02*
X125207143Y-73888512D01*
X125207143Y-73888512D02*
X124921429Y-73888512D01*
X124921429Y-73888512D02*
X124778571Y-73817084D01*
X124778571Y-73817084D02*
X124707143Y-73674226D01*
X124707143Y-73674226D02*
X124707143Y-73102798D01*
X124707143Y-73102798D02*
X124778571Y-72959941D01*
X124778571Y-72959941D02*
X124921429Y-72888512D01*
X124921429Y-72888512D02*
X125207143Y-72888512D01*
X125207143Y-72888512D02*
X125350000Y-72959941D01*
X125350000Y-72959941D02*
X125421429Y-73102798D01*
X125421429Y-73102798D02*
X125421429Y-73245655D01*
X125421429Y-73245655D02*
X124707143Y-73388512D01*
X126707143Y-73817084D02*
X126564285Y-73888512D01*
X126564285Y-73888512D02*
X126278571Y-73888512D01*
X126278571Y-73888512D02*
X126135714Y-73817084D01*
X126135714Y-73817084D02*
X126064285Y-73745655D01*
X126064285Y-73745655D02*
X125992857Y-73602798D01*
X125992857Y-73602798D02*
X125992857Y-73174226D01*
X125992857Y-73174226D02*
X126064285Y-73031369D01*
X126064285Y-73031369D02*
X126135714Y-72959941D01*
X126135714Y-72959941D02*
X126278571Y-72888512D01*
X126278571Y-72888512D02*
X126564285Y-72888512D01*
X126564285Y-72888512D02*
X126707143Y-72959941D01*
X127135714Y-72888512D02*
X127707142Y-72888512D01*
X127349999Y-72388512D02*
X127349999Y-73674226D01*
X127349999Y-73674226D02*
X127421428Y-73817084D01*
X127421428Y-73817084D02*
X127564285Y-73888512D01*
X127564285Y-73888512D02*
X127707142Y-73888512D01*
X128207142Y-73888512D02*
X128207142Y-72888512D01*
X128207142Y-72388512D02*
X128135714Y-72459941D01*
X128135714Y-72459941D02*
X128207142Y-72531369D01*
X128207142Y-72531369D02*
X128278571Y-72459941D01*
X128278571Y-72459941D02*
X128207142Y-72388512D01*
X128207142Y-72388512D02*
X128207142Y-72531369D01*
X129135714Y-73888512D02*
X128992857Y-73817084D01*
X128992857Y-73817084D02*
X128921428Y-73745655D01*
X128921428Y-73745655D02*
X128850000Y-73602798D01*
X128850000Y-73602798D02*
X128850000Y-73174226D01*
X128850000Y-73174226D02*
X128921428Y-73031369D01*
X128921428Y-73031369D02*
X128992857Y-72959941D01*
X128992857Y-72959941D02*
X129135714Y-72888512D01*
X129135714Y-72888512D02*
X129350000Y-72888512D01*
X129350000Y-72888512D02*
X129492857Y-72959941D01*
X129492857Y-72959941D02*
X129564286Y-73031369D01*
X129564286Y-73031369D02*
X129635714Y-73174226D01*
X129635714Y-73174226D02*
X129635714Y-73602798D01*
X129635714Y-73602798D02*
X129564286Y-73745655D01*
X129564286Y-73745655D02*
X129492857Y-73817084D01*
X129492857Y-73817084D02*
X129350000Y-73888512D01*
X129350000Y-73888512D02*
X129135714Y-73888512D01*
X130278571Y-72888512D02*
X130278571Y-73888512D01*
X130278571Y-73031369D02*
X130350000Y-72959941D01*
X130350000Y-72959941D02*
X130492857Y-72888512D01*
X130492857Y-72888512D02*
X130707143Y-72888512D01*
X130707143Y-72888512D02*
X130850000Y-72959941D01*
X130850000Y-72959941D02*
X130921429Y-73102798D01*
X130921429Y-73102798D02*
X130921429Y-73888512D01*
D12*
X161761905Y-105454819D02*
X161761905Y-104454819D01*
X162333333Y-105454819D02*
X161904762Y-104883390D01*
X162333333Y-104454819D02*
X161761905Y-105026247D01*
X163285714Y-105454819D02*
X162714286Y-105454819D01*
X163000000Y-105454819D02*
X163000000Y-104454819D01*
X163000000Y-104454819D02*
X162904762Y-104597676D01*
X162904762Y-104597676D02*
X162809524Y-104692914D01*
X162809524Y-104692914D02*
X162714286Y-104740533D01*
X131666405Y-93954819D02*
X131666405Y-92954819D01*
X131666405Y-92954819D02*
X131904500Y-92954819D01*
X131904500Y-92954819D02*
X132047357Y-93002438D01*
X132047357Y-93002438D02*
X132142595Y-93097676D01*
X132142595Y-93097676D02*
X132190214Y-93192914D01*
X132190214Y-93192914D02*
X132237833Y-93383390D01*
X132237833Y-93383390D02*
X132237833Y-93526247D01*
X132237833Y-93526247D02*
X132190214Y-93716723D01*
X132190214Y-93716723D02*
X132142595Y-93811961D01*
X132142595Y-93811961D02*
X132047357Y-93907200D01*
X132047357Y-93907200D02*
X131904500Y-93954819D01*
X131904500Y-93954819D02*
X131666405Y-93954819D01*
X133190214Y-93954819D02*
X132618786Y-93954819D01*
X132904500Y-93954819D02*
X132904500Y-92954819D01*
X132904500Y-92954819D02*
X132809262Y-93097676D01*
X132809262Y-93097676D02*
X132714024Y-93192914D01*
X132714024Y-93192914D02*
X132618786Y-93240533D01*
X131761905Y-86954819D02*
X131761905Y-85954819D01*
X131761905Y-85954819D02*
X132000000Y-85954819D01*
X132000000Y-85954819D02*
X132142857Y-86002438D01*
X132142857Y-86002438D02*
X132238095Y-86097676D01*
X132238095Y-86097676D02*
X132285714Y-86192914D01*
X132285714Y-86192914D02*
X132333333Y-86383390D01*
X132333333Y-86383390D02*
X132333333Y-86526247D01*
X132333333Y-86526247D02*
X132285714Y-86716723D01*
X132285714Y-86716723D02*
X132238095Y-86811961D01*
X132238095Y-86811961D02*
X132142857Y-86907200D01*
X132142857Y-86907200D02*
X132000000Y-86954819D01*
X132000000Y-86954819D02*
X131761905Y-86954819D01*
X132714286Y-86050057D02*
X132761905Y-86002438D01*
X132761905Y-86002438D02*
X132857143Y-85954819D01*
X132857143Y-85954819D02*
X133095238Y-85954819D01*
X133095238Y-85954819D02*
X133190476Y-86002438D01*
X133190476Y-86002438D02*
X133238095Y-86050057D01*
X133238095Y-86050057D02*
X133285714Y-86145295D01*
X133285714Y-86145295D02*
X133285714Y-86240533D01*
X133285714Y-86240533D02*
X133238095Y-86383390D01*
X133238095Y-86383390D02*
X132666667Y-86954819D01*
X132666667Y-86954819D02*
X133285714Y-86954819D01*
X109966666Y-72954819D02*
X109966666Y-73669104D01*
X109966666Y-73669104D02*
X109919047Y-73811961D01*
X109919047Y-73811961D02*
X109823809Y-73907200D01*
X109823809Y-73907200D02*
X109680952Y-73954819D01*
X109680952Y-73954819D02*
X109585714Y-73954819D01*
X110966666Y-73954819D02*
X110395238Y-73954819D01*
X110680952Y-73954819D02*
X110680952Y-72954819D01*
X110680952Y-72954819D02*
X110585714Y-73097676D01*
X110585714Y-73097676D02*
X110490476Y-73192914D01*
X110490476Y-73192914D02*
X110395238Y-73240533D01*
X109966666Y-87054819D02*
X109966666Y-87769104D01*
X109966666Y-87769104D02*
X109919047Y-87911961D01*
X109919047Y-87911961D02*
X109823809Y-88007200D01*
X109823809Y-88007200D02*
X109680952Y-88054819D01*
X109680952Y-88054819D02*
X109585714Y-88054819D01*
X110395238Y-87150057D02*
X110442857Y-87102438D01*
X110442857Y-87102438D02*
X110538095Y-87054819D01*
X110538095Y-87054819D02*
X110776190Y-87054819D01*
X110776190Y-87054819D02*
X110871428Y-87102438D01*
X110871428Y-87102438D02*
X110919047Y-87150057D01*
X110919047Y-87150057D02*
X110966666Y-87245295D01*
X110966666Y-87245295D02*
X110966666Y-87340533D01*
X110966666Y-87340533D02*
X110919047Y-87483390D01*
X110919047Y-87483390D02*
X110347619Y-88054819D01*
X110347619Y-88054819D02*
X110966666Y-88054819D01*
D13*
X112671429Y-93842662D02*
X112900001Y-93842662D01*
X112900001Y-93842662D02*
X113014286Y-93899805D01*
X113014286Y-93899805D02*
X113128572Y-94014091D01*
X113128572Y-94014091D02*
X113185715Y-94242662D01*
X113185715Y-94242662D02*
X113185715Y-94642662D01*
X113185715Y-94642662D02*
X113128572Y-94871234D01*
X113128572Y-94871234D02*
X113014286Y-94985520D01*
X113014286Y-94985520D02*
X112900001Y-95042662D01*
X112900001Y-95042662D02*
X112671429Y-95042662D01*
X112671429Y-95042662D02*
X112557144Y-94985520D01*
X112557144Y-94985520D02*
X112442858Y-94871234D01*
X112442858Y-94871234D02*
X112385715Y-94642662D01*
X112385715Y-94642662D02*
X112385715Y-94242662D01*
X112385715Y-94242662D02*
X112442858Y-94014091D01*
X112442858Y-94014091D02*
X112557144Y-93899805D01*
X112557144Y-93899805D02*
X112671429Y-93842662D01*
X114214287Y-94242662D02*
X114214287Y-95042662D01*
X113700001Y-94242662D02*
X113700001Y-94871234D01*
X113700001Y-94871234D02*
X113757144Y-94985520D01*
X113757144Y-94985520D02*
X113871429Y-95042662D01*
X113871429Y-95042662D02*
X114042858Y-95042662D01*
X114042858Y-95042662D02*
X114157144Y-94985520D01*
X114157144Y-94985520D02*
X114214287Y-94928377D01*
X114614286Y-94242662D02*
X115071429Y-94242662D01*
X114785715Y-93842662D02*
X114785715Y-94871234D01*
X114785715Y-94871234D02*
X114842858Y-94985520D01*
X114842858Y-94985520D02*
X114957143Y-95042662D01*
X114957143Y-95042662D02*
X115071429Y-95042662D01*
X115471429Y-94242662D02*
X115471429Y-95442662D01*
X115471429Y-94299805D02*
X115585715Y-94242662D01*
X115585715Y-94242662D02*
X115814286Y-94242662D01*
X115814286Y-94242662D02*
X115928572Y-94299805D01*
X115928572Y-94299805D02*
X115985715Y-94356948D01*
X115985715Y-94356948D02*
X116042857Y-94471234D01*
X116042857Y-94471234D02*
X116042857Y-94814091D01*
X116042857Y-94814091D02*
X115985715Y-94928377D01*
X115985715Y-94928377D02*
X115928572Y-94985520D01*
X115928572Y-94985520D02*
X115814286Y-95042662D01*
X115814286Y-95042662D02*
X115585715Y-95042662D01*
X115585715Y-95042662D02*
X115471429Y-94985520D01*
X117071429Y-94242662D02*
X117071429Y-95042662D01*
X116557143Y-94242662D02*
X116557143Y-94871234D01*
X116557143Y-94871234D02*
X116614286Y-94985520D01*
X116614286Y-94985520D02*
X116728571Y-95042662D01*
X116728571Y-95042662D02*
X116900000Y-95042662D01*
X116900000Y-95042662D02*
X117014286Y-94985520D01*
X117014286Y-94985520D02*
X117071429Y-94928377D01*
X117471428Y-94242662D02*
X117928571Y-94242662D01*
X117642857Y-93842662D02*
X117642857Y-94871234D01*
X117642857Y-94871234D02*
X117700000Y-94985520D01*
X117700000Y-94985520D02*
X117814285Y-95042662D01*
X117814285Y-95042662D02*
X117928571Y-95042662D01*
D14*
%TO.C,H4*%
X119326589Y-102273742D02*
X119370700Y-102281567D01*
X119439865Y-102294411D01*
X119531040Y-102311692D01*
X119641179Y-102332829D01*
X119767239Y-102357242D01*
X119906175Y-102384348D01*
X120054943Y-102413568D01*
X120057495Y-102414071D01*
X120241325Y-102450548D01*
X120395989Y-102481820D01*
X120523559Y-102508358D01*
X120626105Y-102530634D01*
X120705701Y-102549119D01*
X120764419Y-102564283D01*
X120804329Y-102576598D01*
X120827505Y-102586536D01*
X120833138Y-102590458D01*
X120861589Y-102621078D01*
X120905280Y-102674525D01*
X120961675Y-102747321D01*
X121028234Y-102835986D01*
X121102422Y-102937043D01*
X121181700Y-103047011D01*
X121263530Y-103162414D01*
X121345375Y-103279771D01*
X121424696Y-103395605D01*
X121474560Y-103469720D01*
X121710141Y-103832668D01*
X121940951Y-104207801D01*
X122164367Y-104590259D01*
X122377764Y-104975183D01*
X122578521Y-105357713D01*
X122764014Y-105732989D01*
X122931619Y-106096151D01*
X123077158Y-106438500D01*
X123113850Y-106532061D01*
X123153734Y-106638841D01*
X123194936Y-106753315D01*
X123235587Y-106869957D01*
X123273813Y-106983244D01*
X123307743Y-107087651D01*
X123335506Y-107177652D01*
X123355230Y-107247725D01*
X123363698Y-107284286D01*
X123373412Y-107322252D01*
X123383617Y-107342394D01*
X123385798Y-107343375D01*
X123401032Y-107331877D01*
X123433696Y-107299729D01*
X123480628Y-107250451D01*
X123538669Y-107187562D01*
X123604660Y-107114581D01*
X123675439Y-107035027D01*
X123747846Y-106952419D01*
X123818722Y-106870277D01*
X123884906Y-106792119D01*
X123933236Y-106733745D01*
X124081249Y-106546913D01*
X124217549Y-106362091D01*
X124346982Y-106172039D01*
X124474390Y-105969515D01*
X124604618Y-105747276D01*
X124664975Y-105639729D01*
X124709919Y-105560537D01*
X124750190Y-105493034D01*
X124783164Y-105441338D01*
X124806221Y-105409569D01*
X124816559Y-105401604D01*
X124828574Y-105419988D01*
X124852109Y-105460369D01*
X124883733Y-105516736D01*
X124919030Y-105581250D01*
X125094483Y-105891226D01*
X125272781Y-106176596D01*
X125458619Y-106444449D01*
X125656694Y-106701876D01*
X125681331Y-106732187D01*
X125741655Y-106804854D01*
X125809188Y-106884309D01*
X125880779Y-106967039D01*
X125953274Y-107049535D01*
X126023523Y-107128286D01*
X126088372Y-107199779D01*
X126144669Y-107260506D01*
X126189263Y-107306953D01*
X126219000Y-107335612D01*
X126230076Y-107343375D01*
X126239761Y-107329474D01*
X126249984Y-107295000D01*
X126252176Y-107284286D01*
X126264529Y-107233079D01*
X126286345Y-107157739D01*
X126315753Y-107063791D01*
X126350880Y-106956759D01*
X126389856Y-106842167D01*
X126430809Y-106725540D01*
X126471866Y-106612404D01*
X126511157Y-106508282D01*
X126538716Y-106438500D01*
X126683154Y-106098785D01*
X126847783Y-105741906D01*
X127029961Y-105372756D01*
X127227048Y-104996231D01*
X127436400Y-104617227D01*
X127655376Y-104240639D01*
X127881334Y-103871361D01*
X128111631Y-103514291D01*
X128139738Y-103472039D01*
X128215892Y-103359281D01*
X128296268Y-103242645D01*
X128378333Y-103125605D01*
X128459554Y-103011636D01*
X128537398Y-102904210D01*
X128609334Y-102806801D01*
X128672827Y-102722883D01*
X128725347Y-102655930D01*
X128764359Y-102609416D01*
X128782042Y-102591085D01*
X128798816Y-102582032D01*
X128832772Y-102570524D01*
X128885847Y-102556121D01*
X128959976Y-102538383D01*
X129057095Y-102516872D01*
X129179140Y-102491147D01*
X129328047Y-102460770D01*
X129505751Y-102425302D01*
X129557686Y-102415039D01*
X129706662Y-102385738D01*
X129845859Y-102358529D01*
X129972234Y-102333995D01*
X130082743Y-102312718D01*
X130174345Y-102295282D01*
X130243995Y-102282269D01*
X130288652Y-102274262D01*
X130305272Y-102271843D01*
X130305298Y-102271856D01*
X130302079Y-102287140D01*
X130291783Y-102330034D01*
X130275208Y-102397389D01*
X130253153Y-102486056D01*
X130226417Y-102592888D01*
X130195799Y-102714736D01*
X130162096Y-102848451D01*
X130126109Y-102990886D01*
X130088636Y-103138892D01*
X130050475Y-103289321D01*
X130012426Y-103439025D01*
X129975286Y-103584854D01*
X129939855Y-103723662D01*
X129906931Y-103852299D01*
X129877313Y-103967618D01*
X129851801Y-104066469D01*
X129831191Y-104145706D01*
X129816284Y-104202178D01*
X129807878Y-104232739D01*
X129807515Y-104233954D01*
X129811370Y-104246046D01*
X129830310Y-104264425D01*
X129866789Y-104290702D01*
X129923265Y-104326489D01*
X130002191Y-104373397D01*
X130106025Y-104433039D01*
X130141467Y-104453128D01*
X130235522Y-104506790D01*
X130319676Y-104555711D01*
X130390189Y-104597643D01*
X130443324Y-104630336D01*
X130475340Y-104651545D01*
X130483250Y-104658629D01*
X130470216Y-104668693D01*
X130432198Y-104695009D01*
X130370818Y-104736507D01*
X130287698Y-104792113D01*
X130184460Y-104860758D01*
X130062728Y-104941368D01*
X129924124Y-105032874D01*
X129770269Y-105134203D01*
X129602787Y-105244283D01*
X129423301Y-105362044D01*
X129233432Y-105486414D01*
X129034803Y-105616321D01*
X128880059Y-105717393D01*
X128675863Y-105850816D01*
X128479200Y-105979568D01*
X128291693Y-106102570D01*
X128114965Y-106218748D01*
X127950639Y-106327027D01*
X127800340Y-106426330D01*
X127665691Y-106515583D01*
X127548314Y-106593708D01*
X127449834Y-106659631D01*
X127371875Y-106712277D01*
X127316058Y-106750568D01*
X127284009Y-106773431D01*
X127276545Y-106779812D01*
X127281125Y-106797952D01*
X127294329Y-106843036D01*
X127315140Y-106911758D01*
X127342536Y-107000810D01*
X127375500Y-107106888D01*
X127413012Y-107226684D01*
X127454052Y-107356893D01*
X127468830Y-107403583D01*
X127510550Y-107536294D01*
X127548656Y-107659517D01*
X127582185Y-107769990D01*
X127610176Y-107864450D01*
X127631666Y-107939635D01*
X127645695Y-107992280D01*
X127651300Y-108019125D01*
X127651082Y-108021834D01*
X127634146Y-108021505D01*
X127587941Y-108017581D01*
X127514714Y-108010313D01*
X127416711Y-107999954D01*
X127296181Y-107986756D01*
X127155370Y-107970970D01*
X126996524Y-107952848D01*
X126821892Y-107932643D01*
X126633719Y-107910606D01*
X126434254Y-107886990D01*
X126225742Y-107862045D01*
X126224331Y-107861875D01*
X124807937Y-107691561D01*
X123420568Y-107858780D01*
X123213437Y-107883696D01*
X123014827Y-107907488D01*
X122827069Y-107929884D01*
X122652494Y-107950610D01*
X122493431Y-107969393D01*
X122352211Y-107985960D01*
X122231164Y-108000035D01*
X122132621Y-108011348D01*
X122058911Y-108019623D01*
X122012365Y-108024587D01*
X121995787Y-108026000D01*
X121967045Y-108021235D01*
X121958375Y-108012824D01*
X121963024Y-107995273D01*
X121976286Y-107950779D01*
X121997137Y-107882650D01*
X122024548Y-107794194D01*
X122057493Y-107688719D01*
X122094946Y-107569532D01*
X122135880Y-107439942D01*
X122148875Y-107398937D01*
X122190689Y-107266655D01*
X122229324Y-107143605D01*
X122263752Y-107033122D01*
X122292946Y-106938542D01*
X122315877Y-106863202D01*
X122331517Y-106810438D01*
X122338839Y-106783584D01*
X122339260Y-106781082D01*
X122326209Y-106770386D01*
X122288167Y-106743454D01*
X122226758Y-106701362D01*
X122143605Y-106645187D01*
X122040331Y-106576007D01*
X121918559Y-106494898D01*
X121779913Y-106402938D01*
X121626015Y-106301204D01*
X121458489Y-106190773D01*
X121278959Y-106072723D01*
X121089046Y-105948129D01*
X120890375Y-105818070D01*
X120735885Y-105717119D01*
X120531722Y-105583718D01*
X120335094Y-105455050D01*
X120147622Y-105332186D01*
X119970930Y-105216199D01*
X119806638Y-105108159D01*
X119656371Y-105009138D01*
X119521748Y-104920206D01*
X119404394Y-104842436D01*
X119305931Y-104776898D01*
X119227979Y-104724664D01*
X119172163Y-104686805D01*
X119140103Y-104664392D01*
X119132625Y-104658355D01*
X119145866Y-104647580D01*
X119183097Y-104623584D01*
X119240581Y-104588612D01*
X119314577Y-104544909D01*
X119401349Y-104494720D01*
X119474407Y-104453128D01*
X119585992Y-104389456D01*
X119671952Y-104338989D01*
X119734741Y-104300115D01*
X119776817Y-104271223D01*
X119800633Y-104250700D01*
X119808647Y-104236936D01*
X119808359Y-104233954D01*
X119800448Y-104205399D01*
X119785980Y-104150700D01*
X119765752Y-104073003D01*
X119740564Y-103975459D01*
X119711213Y-103861216D01*
X119678500Y-103733422D01*
X119643221Y-103595226D01*
X119606177Y-103449777D01*
X119568165Y-103300223D01*
X119529985Y-103149713D01*
X119492435Y-103001396D01*
X119456313Y-102858420D01*
X119422419Y-102723934D01*
X119391551Y-102601087D01*
X119364507Y-102493026D01*
X119342087Y-102402902D01*
X119325089Y-102333862D01*
X119314312Y-102289055D01*
X119310554Y-102271630D01*
X119310576Y-102271515D01*
X119326589Y-102273742D01*
G36*
X119326589Y-102273742D02*
G01*
X119370700Y-102281567D01*
X119439865Y-102294411D01*
X119531040Y-102311692D01*
X119641179Y-102332829D01*
X119767239Y-102357242D01*
X119906175Y-102384348D01*
X120054943Y-102413568D01*
X120057495Y-102414071D01*
X120241325Y-102450548D01*
X120395989Y-102481820D01*
X120523559Y-102508358D01*
X120626105Y-102530634D01*
X120705701Y-102549119D01*
X120764419Y-102564283D01*
X120804329Y-102576598D01*
X120827505Y-102586536D01*
X120833138Y-102590458D01*
X120861589Y-102621078D01*
X120905280Y-102674525D01*
X120961675Y-102747321D01*
X121028234Y-102835986D01*
X121102422Y-102937043D01*
X121181700Y-103047011D01*
X121263530Y-103162414D01*
X121345375Y-103279771D01*
X121424696Y-103395605D01*
X121474560Y-103469720D01*
X121710141Y-103832668D01*
X121940951Y-104207801D01*
X122164367Y-104590259D01*
X122377764Y-104975183D01*
X122578521Y-105357713D01*
X122764014Y-105732989D01*
X122931619Y-106096151D01*
X123077158Y-106438500D01*
X123113850Y-106532061D01*
X123153734Y-106638841D01*
X123194936Y-106753315D01*
X123235587Y-106869957D01*
X123273813Y-106983244D01*
X123307743Y-107087651D01*
X123335506Y-107177652D01*
X123355230Y-107247725D01*
X123363698Y-107284286D01*
X123373412Y-107322252D01*
X123383617Y-107342394D01*
X123385798Y-107343375D01*
X123401032Y-107331877D01*
X123433696Y-107299729D01*
X123480628Y-107250451D01*
X123538669Y-107187562D01*
X123604660Y-107114581D01*
X123675439Y-107035027D01*
X123747846Y-106952419D01*
X123818722Y-106870277D01*
X123884906Y-106792119D01*
X123933236Y-106733745D01*
X124081249Y-106546913D01*
X124217549Y-106362091D01*
X124346982Y-106172039D01*
X124474390Y-105969515D01*
X124604618Y-105747276D01*
X124664975Y-105639729D01*
X124709919Y-105560537D01*
X124750190Y-105493034D01*
X124783164Y-105441338D01*
X124806221Y-105409569D01*
X124816559Y-105401604D01*
X124828574Y-105419988D01*
X124852109Y-105460369D01*
X124883733Y-105516736D01*
X124919030Y-105581250D01*
X125094483Y-105891226D01*
X125272781Y-106176596D01*
X125458619Y-106444449D01*
X125656694Y-106701876D01*
X125681331Y-106732187D01*
X125741655Y-106804854D01*
X125809188Y-106884309D01*
X125880779Y-106967039D01*
X125953274Y-107049535D01*
X126023523Y-107128286D01*
X126088372Y-107199779D01*
X126144669Y-107260506D01*
X126189263Y-107306953D01*
X126219000Y-107335612D01*
X126230076Y-107343375D01*
X126239761Y-107329474D01*
X126249984Y-107295000D01*
X126252176Y-107284286D01*
X126264529Y-107233079D01*
X126286345Y-107157739D01*
X126315753Y-107063791D01*
X126350880Y-106956759D01*
X126389856Y-106842167D01*
X126430809Y-106725540D01*
X126471866Y-106612404D01*
X126511157Y-106508282D01*
X126538716Y-106438500D01*
X126683154Y-106098785D01*
X126847783Y-105741906D01*
X127029961Y-105372756D01*
X127227048Y-104996231D01*
X127436400Y-104617227D01*
X127655376Y-104240639D01*
X127881334Y-103871361D01*
X128111631Y-103514291D01*
X128139738Y-103472039D01*
X128215892Y-103359281D01*
X128296268Y-103242645D01*
X128378333Y-103125605D01*
X128459554Y-103011636D01*
X128537398Y-102904210D01*
X128609334Y-102806801D01*
X128672827Y-102722883D01*
X128725347Y-102655930D01*
X128764359Y-102609416D01*
X128782042Y-102591085D01*
X128798816Y-102582032D01*
X128832772Y-102570524D01*
X128885847Y-102556121D01*
X128959976Y-102538383D01*
X129057095Y-102516872D01*
X129179140Y-102491147D01*
X129328047Y-102460770D01*
X129505751Y-102425302D01*
X129557686Y-102415039D01*
X129706662Y-102385738D01*
X129845859Y-102358529D01*
X129972234Y-102333995D01*
X130082743Y-102312718D01*
X130174345Y-102295282D01*
X130243995Y-102282269D01*
X130288652Y-102274262D01*
X130305272Y-102271843D01*
X130305298Y-102271856D01*
X130302079Y-102287140D01*
X130291783Y-102330034D01*
X130275208Y-102397389D01*
X130253153Y-102486056D01*
X130226417Y-102592888D01*
X130195799Y-102714736D01*
X130162096Y-102848451D01*
X130126109Y-102990886D01*
X130088636Y-103138892D01*
X130050475Y-103289321D01*
X130012426Y-103439025D01*
X129975286Y-103584854D01*
X129939855Y-103723662D01*
X129906931Y-103852299D01*
X129877313Y-103967618D01*
X129851801Y-104066469D01*
X129831191Y-104145706D01*
X129816284Y-104202178D01*
X129807878Y-104232739D01*
X129807515Y-104233954D01*
X129811370Y-104246046D01*
X129830310Y-104264425D01*
X129866789Y-104290702D01*
X129923265Y-104326489D01*
X130002191Y-104373397D01*
X130106025Y-104433039D01*
X130141467Y-104453128D01*
X130235522Y-104506790D01*
X130319676Y-104555711D01*
X130390189Y-104597643D01*
X130443324Y-104630336D01*
X130475340Y-104651545D01*
X130483250Y-104658629D01*
X130470216Y-104668693D01*
X130432198Y-104695009D01*
X130370818Y-104736507D01*
X130287698Y-104792113D01*
X130184460Y-104860758D01*
X130062728Y-104941368D01*
X129924124Y-105032874D01*
X129770269Y-105134203D01*
X129602787Y-105244283D01*
X129423301Y-105362044D01*
X129233432Y-105486414D01*
X129034803Y-105616321D01*
X128880059Y-105717393D01*
X128675863Y-105850816D01*
X128479200Y-105979568D01*
X128291693Y-106102570D01*
X128114965Y-106218748D01*
X127950639Y-106327027D01*
X127800340Y-106426330D01*
X127665691Y-106515583D01*
X127548314Y-106593708D01*
X127449834Y-106659631D01*
X127371875Y-106712277D01*
X127316058Y-106750568D01*
X127284009Y-106773431D01*
X127276545Y-106779812D01*
X127281125Y-106797952D01*
X127294329Y-106843036D01*
X127315140Y-106911758D01*
X127342536Y-107000810D01*
X127375500Y-107106888D01*
X127413012Y-107226684D01*
X127454052Y-107356893D01*
X127468830Y-107403583D01*
X127510550Y-107536294D01*
X127548656Y-107659517D01*
X127582185Y-107769990D01*
X127610176Y-107864450D01*
X127631666Y-107939635D01*
X127645695Y-107992280D01*
X127651300Y-108019125D01*
X127651082Y-108021834D01*
X127634146Y-108021505D01*
X127587941Y-108017581D01*
X127514714Y-108010313D01*
X127416711Y-107999954D01*
X127296181Y-107986756D01*
X127155370Y-107970970D01*
X126996524Y-107952848D01*
X126821892Y-107932643D01*
X126633719Y-107910606D01*
X126434254Y-107886990D01*
X126225742Y-107862045D01*
X126224331Y-107861875D01*
X124807937Y-107691561D01*
X123420568Y-107858780D01*
X123213437Y-107883696D01*
X123014827Y-107907488D01*
X122827069Y-107929884D01*
X122652494Y-107950610D01*
X122493431Y-107969393D01*
X122352211Y-107985960D01*
X122231164Y-108000035D01*
X122132621Y-108011348D01*
X122058911Y-108019623D01*
X122012365Y-108024587D01*
X121995787Y-108026000D01*
X121967045Y-108021235D01*
X121958375Y-108012824D01*
X121963024Y-107995273D01*
X121976286Y-107950779D01*
X121997137Y-107882650D01*
X122024548Y-107794194D01*
X122057493Y-107688719D01*
X122094946Y-107569532D01*
X122135880Y-107439942D01*
X122148875Y-107398937D01*
X122190689Y-107266655D01*
X122229324Y-107143605D01*
X122263752Y-107033122D01*
X122292946Y-106938542D01*
X122315877Y-106863202D01*
X122331517Y-106810438D01*
X122338839Y-106783584D01*
X122339260Y-106781082D01*
X122326209Y-106770386D01*
X122288167Y-106743454D01*
X122226758Y-106701362D01*
X122143605Y-106645187D01*
X122040331Y-106576007D01*
X121918559Y-106494898D01*
X121779913Y-106402938D01*
X121626015Y-106301204D01*
X121458489Y-106190773D01*
X121278959Y-106072723D01*
X121089046Y-105948129D01*
X120890375Y-105818070D01*
X120735885Y-105717119D01*
X120531722Y-105583718D01*
X120335094Y-105455050D01*
X120147622Y-105332186D01*
X119970930Y-105216199D01*
X119806638Y-105108159D01*
X119656371Y-105009138D01*
X119521748Y-104920206D01*
X119404394Y-104842436D01*
X119305931Y-104776898D01*
X119227979Y-104724664D01*
X119172163Y-104686805D01*
X119140103Y-104664392D01*
X119132625Y-104658355D01*
X119145866Y-104647580D01*
X119183097Y-104623584D01*
X119240581Y-104588612D01*
X119314577Y-104544909D01*
X119401349Y-104494720D01*
X119474407Y-104453128D01*
X119585992Y-104389456D01*
X119671952Y-104338989D01*
X119734741Y-104300115D01*
X119776817Y-104271223D01*
X119800633Y-104250700D01*
X119808647Y-104236936D01*
X119808359Y-104233954D01*
X119800448Y-104205399D01*
X119785980Y-104150700D01*
X119765752Y-104073003D01*
X119740564Y-103975459D01*
X119711213Y-103861216D01*
X119678500Y-103733422D01*
X119643221Y-103595226D01*
X119606177Y-103449777D01*
X119568165Y-103300223D01*
X119529985Y-103149713D01*
X119492435Y-103001396D01*
X119456313Y-102858420D01*
X119422419Y-102723934D01*
X119391551Y-102601087D01*
X119364507Y-102493026D01*
X119342087Y-102402902D01*
X119325089Y-102333862D01*
X119314312Y-102289055D01*
X119310554Y-102271630D01*
X119310576Y-102271515D01*
X119326589Y-102273742D01*
G37*
X124818053Y-98404595D02*
X124842237Y-98443750D01*
X124879234Y-98506313D01*
X124927788Y-98590084D01*
X124986645Y-98692862D01*
X125054549Y-98812448D01*
X125130245Y-98946642D01*
X125212479Y-99093243D01*
X125299995Y-99250052D01*
X125375894Y-99386647D01*
X125466966Y-99550835D01*
X125553719Y-99707165D01*
X125634898Y-99853377D01*
X125709245Y-99987213D01*
X125775505Y-100106414D01*
X125832422Y-100208720D01*
X125878740Y-100291873D01*
X125913202Y-100353614D01*
X125934554Y-100391684D01*
X125941385Y-100403636D01*
X125951021Y-100406838D01*
X125973497Y-100403073D01*
X126011145Y-100391440D01*
X126066298Y-100371040D01*
X126141287Y-100340973D01*
X126238444Y-100300338D01*
X126360100Y-100248235D01*
X126489909Y-100191908D01*
X126611834Y-100139153D01*
X126724536Y-100091107D01*
X126824734Y-100049114D01*
X126909144Y-100014519D01*
X126974484Y-99988666D01*
X127017473Y-99972901D01*
X127034827Y-99968567D01*
X127034939Y-99968647D01*
X127034895Y-99985542D01*
X127031963Y-100031818D01*
X127026339Y-100105252D01*
X127018221Y-100203627D01*
X127007804Y-100324721D01*
X126995286Y-100466315D01*
X126980863Y-100626188D01*
X126964732Y-100802121D01*
X126947089Y-100991894D01*
X126928131Y-101193286D01*
X126908055Y-101404077D01*
X126904694Y-101439132D01*
X126884424Y-101651162D01*
X126865174Y-101854092D01*
X126847145Y-102045710D01*
X126830538Y-102223800D01*
X126815555Y-102386150D01*
X126802398Y-102530546D01*
X126791268Y-102654774D01*
X126782366Y-102756621D01*
X126775894Y-102833874D01*
X126772053Y-102884317D01*
X126771045Y-102905739D01*
X126771165Y-102906331D01*
X126783892Y-102897301D01*
X126818193Y-102868959D01*
X126871959Y-102823142D01*
X126943083Y-102761686D01*
X127029455Y-102686427D01*
X127128967Y-102599200D01*
X127239512Y-102501843D01*
X127358980Y-102396190D01*
X127464639Y-102302418D01*
X127590215Y-102190987D01*
X127708820Y-102086117D01*
X127818322Y-101989671D01*
X127916583Y-101903510D01*
X128001471Y-101829498D01*
X128070849Y-101769497D01*
X128122582Y-101725369D01*
X128154537Y-101698977D01*
X128164508Y-101691875D01*
X128169355Y-101695429D01*
X128176802Y-101707851D01*
X128187882Y-101731781D01*
X128203627Y-101769857D01*
X128225069Y-101824720D01*
X128253242Y-101899007D01*
X128289178Y-101995358D01*
X128333909Y-102116413D01*
X128385561Y-102256892D01*
X128432722Y-102385346D01*
X128297443Y-102541407D01*
X128122904Y-102747868D01*
X127939836Y-102973916D01*
X127750805Y-103215877D01*
X127558379Y-103470079D01*
X127365127Y-103732849D01*
X127173616Y-104000514D01*
X126986415Y-104269401D01*
X126806090Y-104535838D01*
X126635210Y-104796151D01*
X126476344Y-105046667D01*
X126332058Y-105283715D01*
X126204920Y-105503620D01*
X126128125Y-105644214D01*
X126041913Y-105806607D01*
X125989545Y-105730493D01*
X125889715Y-105574541D01*
X125786272Y-105392787D01*
X125681701Y-105190588D01*
X125578492Y-104973299D01*
X125479132Y-104746279D01*
X125386109Y-104514882D01*
X125301909Y-104284465D01*
X125260373Y-104160437D01*
X125185473Y-103916266D01*
X125110503Y-103648029D01*
X125037351Y-103363349D01*
X124967910Y-103069849D01*
X124904067Y-102775152D01*
X124854398Y-102522917D01*
X124809419Y-102282397D01*
X124727692Y-102689604D01*
X124637376Y-103113659D01*
X124542234Y-103508629D01*
X124441410Y-103876932D01*
X124334047Y-104220986D01*
X124219290Y-104543205D01*
X124096283Y-104846009D01*
X123964171Y-105131812D01*
X123822096Y-105403033D01*
X123682800Y-105640226D01*
X123644873Y-105700487D01*
X123612453Y-105750107D01*
X123589470Y-105783186D01*
X123580548Y-105793755D01*
X123568765Y-105783831D01*
X123546830Y-105751211D01*
X123518477Y-105701753D01*
X123501882Y-105670247D01*
X123409612Y-105498322D01*
X123298689Y-105305732D01*
X123171367Y-105095706D01*
X123029900Y-104871475D01*
X122876542Y-104636267D01*
X122713547Y-104393313D01*
X122543168Y-104145842D01*
X122367660Y-103897085D01*
X122189277Y-103650270D01*
X122010272Y-103408629D01*
X121832899Y-103175390D01*
X121659412Y-102953783D01*
X121492065Y-102747038D01*
X121333112Y-102558385D01*
X121318431Y-102541407D01*
X121183152Y-102385346D01*
X121230313Y-102256892D01*
X121284375Y-102109871D01*
X121328656Y-101990065D01*
X121364190Y-101894836D01*
X121392005Y-101821548D01*
X121413134Y-101767561D01*
X121428608Y-101730239D01*
X121439457Y-101706944D01*
X121446713Y-101695038D01*
X121451197Y-101691875D01*
X121465091Y-101702131D01*
X121500544Y-101731660D01*
X121555422Y-101778599D01*
X121627590Y-101841088D01*
X121714913Y-101917265D01*
X121815257Y-102005269D01*
X121926486Y-102103237D01*
X122046465Y-102209310D01*
X122151243Y-102302241D01*
X122276625Y-102413402D01*
X122394847Y-102517819D01*
X122503798Y-102613656D01*
X122601372Y-102699076D01*
X122685459Y-102772245D01*
X122753951Y-102831327D01*
X122804740Y-102874486D01*
X122835717Y-102899886D01*
X122844886Y-102906155D01*
X122844340Y-102889769D01*
X122840929Y-102843996D01*
X122834855Y-102771047D01*
X122826319Y-102673136D01*
X122815524Y-102552477D01*
X122802671Y-102411282D01*
X122787961Y-102251765D01*
X122771597Y-102076140D01*
X122753780Y-101886619D01*
X122734712Y-101685415D01*
X122732248Y-101659605D01*
X124231101Y-101659605D01*
X124236901Y-101661298D01*
X124260228Y-101644119D01*
X124296226Y-101611710D01*
X124300884Y-101607243D01*
X124357043Y-101560494D01*
X124426828Y-101512576D01*
X124490437Y-101476351D01*
X124632127Y-101422549D01*
X124775958Y-101399577D01*
X124918791Y-101406959D01*
X125057488Y-101444218D01*
X125188908Y-101510876D01*
X125302906Y-101599823D01*
X125343533Y-101636018D01*
X125372373Y-101658157D01*
X125384665Y-101662718D01*
X125384412Y-101660125D01*
X125378288Y-101641031D01*
X125363574Y-101594343D01*
X125341120Y-101522780D01*
X125311776Y-101429061D01*
X125276392Y-101315904D01*
X125235819Y-101186030D01*
X125190907Y-101042157D01*
X125142506Y-100887004D01*
X125094005Y-100731437D01*
X125043288Y-100568805D01*
X124995405Y-100415439D01*
X124951184Y-100273979D01*
X124911453Y-100147066D01*
X124877040Y-100037338D01*
X124848772Y-99947436D01*
X124827478Y-99880000D01*
X124813986Y-99837670D01*
X124809134Y-99823092D01*
X124804037Y-99837180D01*
X124790338Y-99878978D01*
X124768864Y-99945878D01*
X124740438Y-100035271D01*
X124705885Y-100144548D01*
X124666031Y-100271101D01*
X124621699Y-100412321D01*
X124573715Y-100565601D01*
X124523017Y-100727967D01*
X124471958Y-100891622D01*
X124423571Y-101046572D01*
X124378707Y-101190105D01*
X124338213Y-101319512D01*
X124302941Y-101432078D01*
X124273740Y-101525094D01*
X124251459Y-101595848D01*
X124236948Y-101641628D01*
X124231101Y-101659605D01*
X122732248Y-101659605D01*
X122714595Y-101474743D01*
X122711180Y-101439132D01*
X122690941Y-101227017D01*
X122671792Y-101023937D01*
X122653929Y-100832113D01*
X122637548Y-100653765D01*
X122622845Y-100491113D01*
X122610018Y-100346378D01*
X122599261Y-100221779D01*
X122590773Y-100119538D01*
X122584749Y-100041875D01*
X122581385Y-99991009D01*
X122580879Y-99969161D01*
X122581080Y-99968502D01*
X122597419Y-99972323D01*
X122639513Y-99987615D01*
X122704070Y-100013034D01*
X122787795Y-100047234D01*
X122887396Y-100088870D01*
X122999580Y-100136596D01*
X123121054Y-100189066D01*
X123123565Y-100190159D01*
X123245067Y-100242975D01*
X123357121Y-100291563D01*
X123456463Y-100334518D01*
X123539828Y-100370433D01*
X123603952Y-100397901D01*
X123645569Y-100415516D01*
X123661416Y-100421872D01*
X123661448Y-100421874D01*
X123669832Y-100408344D01*
X123692361Y-100369202D01*
X123727816Y-100306625D01*
X123774982Y-100222789D01*
X123832640Y-100119869D01*
X123899574Y-100000041D01*
X123974567Y-99865480D01*
X124056402Y-99718363D01*
X124143861Y-99560865D01*
X124229484Y-99406431D01*
X124321276Y-99241131D01*
X124408837Y-99084192D01*
X124490927Y-98937793D01*
X124566304Y-98804112D01*
X124633726Y-98685328D01*
X124691954Y-98583620D01*
X124739745Y-98501167D01*
X124775858Y-98440146D01*
X124799052Y-98402738D01*
X124807937Y-98391048D01*
X124818053Y-98404595D01*
G36*
X124818053Y-98404595D02*
G01*
X124842237Y-98443750D01*
X124879234Y-98506313D01*
X124927788Y-98590084D01*
X124986645Y-98692862D01*
X125054549Y-98812448D01*
X125130245Y-98946642D01*
X125212479Y-99093243D01*
X125299995Y-99250052D01*
X125375894Y-99386647D01*
X125466966Y-99550835D01*
X125553719Y-99707165D01*
X125634898Y-99853377D01*
X125709245Y-99987213D01*
X125775505Y-100106414D01*
X125832422Y-100208720D01*
X125878740Y-100291873D01*
X125913202Y-100353614D01*
X125934554Y-100391684D01*
X125941385Y-100403636D01*
X125951021Y-100406838D01*
X125973497Y-100403073D01*
X126011145Y-100391440D01*
X126066298Y-100371040D01*
X126141287Y-100340973D01*
X126238444Y-100300338D01*
X126360100Y-100248235D01*
X126489909Y-100191908D01*
X126611834Y-100139153D01*
X126724536Y-100091107D01*
X126824734Y-100049114D01*
X126909144Y-100014519D01*
X126974484Y-99988666D01*
X127017473Y-99972901D01*
X127034827Y-99968567D01*
X127034939Y-99968647D01*
X127034895Y-99985542D01*
X127031963Y-100031818D01*
X127026339Y-100105252D01*
X127018221Y-100203627D01*
X127007804Y-100324721D01*
X126995286Y-100466315D01*
X126980863Y-100626188D01*
X126964732Y-100802121D01*
X126947089Y-100991894D01*
X126928131Y-101193286D01*
X126908055Y-101404077D01*
X126904694Y-101439132D01*
X126884424Y-101651162D01*
X126865174Y-101854092D01*
X126847145Y-102045710D01*
X126830538Y-102223800D01*
X126815555Y-102386150D01*
X126802398Y-102530546D01*
X126791268Y-102654774D01*
X126782366Y-102756621D01*
X126775894Y-102833874D01*
X126772053Y-102884317D01*
X126771045Y-102905739D01*
X126771165Y-102906331D01*
X126783892Y-102897301D01*
X126818193Y-102868959D01*
X126871959Y-102823142D01*
X126943083Y-102761686D01*
X127029455Y-102686427D01*
X127128967Y-102599200D01*
X127239512Y-102501843D01*
X127358980Y-102396190D01*
X127464639Y-102302418D01*
X127590215Y-102190987D01*
X127708820Y-102086117D01*
X127818322Y-101989671D01*
X127916583Y-101903510D01*
X128001471Y-101829498D01*
X128070849Y-101769497D01*
X128122582Y-101725369D01*
X128154537Y-101698977D01*
X128164508Y-101691875D01*
X128169355Y-101695429D01*
X128176802Y-101707851D01*
X128187882Y-101731781D01*
X128203627Y-101769857D01*
X128225069Y-101824720D01*
X128253242Y-101899007D01*
X128289178Y-101995358D01*
X128333909Y-102116413D01*
X128385561Y-102256892D01*
X128432722Y-102385346D01*
X128297443Y-102541407D01*
X128122904Y-102747868D01*
X127939836Y-102973916D01*
X127750805Y-103215877D01*
X127558379Y-103470079D01*
X127365127Y-103732849D01*
X127173616Y-104000514D01*
X126986415Y-104269401D01*
X126806090Y-104535838D01*
X126635210Y-104796151D01*
X126476344Y-105046667D01*
X126332058Y-105283715D01*
X126204920Y-105503620D01*
X126128125Y-105644214D01*
X126041913Y-105806607D01*
X125989545Y-105730493D01*
X125889715Y-105574541D01*
X125786272Y-105392787D01*
X125681701Y-105190588D01*
X125578492Y-104973299D01*
X125479132Y-104746279D01*
X125386109Y-104514882D01*
X125301909Y-104284465D01*
X125260373Y-104160437D01*
X125185473Y-103916266D01*
X125110503Y-103648029D01*
X125037351Y-103363349D01*
X124967910Y-103069849D01*
X124904067Y-102775152D01*
X124854398Y-102522917D01*
X124809419Y-102282397D01*
X124727692Y-102689604D01*
X124637376Y-103113659D01*
X124542234Y-103508629D01*
X124441410Y-103876932D01*
X124334047Y-104220986D01*
X124219290Y-104543205D01*
X124096283Y-104846009D01*
X123964171Y-105131812D01*
X123822096Y-105403033D01*
X123682800Y-105640226D01*
X123644873Y-105700487D01*
X123612453Y-105750107D01*
X123589470Y-105783186D01*
X123580548Y-105793755D01*
X123568765Y-105783831D01*
X123546830Y-105751211D01*
X123518477Y-105701753D01*
X123501882Y-105670247D01*
X123409612Y-105498322D01*
X123298689Y-105305732D01*
X123171367Y-105095706D01*
X123029900Y-104871475D01*
X122876542Y-104636267D01*
X122713547Y-104393313D01*
X122543168Y-104145842D01*
X122367660Y-103897085D01*
X122189277Y-103650270D01*
X122010272Y-103408629D01*
X121832899Y-103175390D01*
X121659412Y-102953783D01*
X121492065Y-102747038D01*
X121333112Y-102558385D01*
X121318431Y-102541407D01*
X121183152Y-102385346D01*
X121230313Y-102256892D01*
X121284375Y-102109871D01*
X121328656Y-101990065D01*
X121364190Y-101894836D01*
X121392005Y-101821548D01*
X121413134Y-101767561D01*
X121428608Y-101730239D01*
X121439457Y-101706944D01*
X121446713Y-101695038D01*
X121451197Y-101691875D01*
X121465091Y-101702131D01*
X121500544Y-101731660D01*
X121555422Y-101778599D01*
X121627590Y-101841088D01*
X121714913Y-101917265D01*
X121815257Y-102005269D01*
X121926486Y-102103237D01*
X122046465Y-102209310D01*
X122151243Y-102302241D01*
X122276625Y-102413402D01*
X122394847Y-102517819D01*
X122503798Y-102613656D01*
X122601372Y-102699076D01*
X122685459Y-102772245D01*
X122753951Y-102831327D01*
X122804740Y-102874486D01*
X122835717Y-102899886D01*
X122844886Y-102906155D01*
X122844340Y-102889769D01*
X122840929Y-102843996D01*
X122834855Y-102771047D01*
X122826319Y-102673136D01*
X122815524Y-102552477D01*
X122802671Y-102411282D01*
X122787961Y-102251765D01*
X122771597Y-102076140D01*
X122753780Y-101886619D01*
X122734712Y-101685415D01*
X122732248Y-101659605D01*
X124231101Y-101659605D01*
X124236901Y-101661298D01*
X124260228Y-101644119D01*
X124296226Y-101611710D01*
X124300884Y-101607243D01*
X124357043Y-101560494D01*
X124426828Y-101512576D01*
X124490437Y-101476351D01*
X124632127Y-101422549D01*
X124775958Y-101399577D01*
X124918791Y-101406959D01*
X125057488Y-101444218D01*
X125188908Y-101510876D01*
X125302906Y-101599823D01*
X125343533Y-101636018D01*
X125372373Y-101658157D01*
X125384665Y-101662718D01*
X125384412Y-101660125D01*
X125378288Y-101641031D01*
X125363574Y-101594343D01*
X125341120Y-101522780D01*
X125311776Y-101429061D01*
X125276392Y-101315904D01*
X125235819Y-101186030D01*
X125190907Y-101042157D01*
X125142506Y-100887004D01*
X125094005Y-100731437D01*
X125043288Y-100568805D01*
X124995405Y-100415439D01*
X124951184Y-100273979D01*
X124911453Y-100147066D01*
X124877040Y-100037338D01*
X124848772Y-99947436D01*
X124827478Y-99880000D01*
X124813986Y-99837670D01*
X124809134Y-99823092D01*
X124804037Y-99837180D01*
X124790338Y-99878978D01*
X124768864Y-99945878D01*
X124740438Y-100035271D01*
X124705885Y-100144548D01*
X124666031Y-100271101D01*
X124621699Y-100412321D01*
X124573715Y-100565601D01*
X124523017Y-100727967D01*
X124471958Y-100891622D01*
X124423571Y-101046572D01*
X124378707Y-101190105D01*
X124338213Y-101319512D01*
X124302941Y-101432078D01*
X124273740Y-101525094D01*
X124251459Y-101595848D01*
X124236948Y-101641628D01*
X124231101Y-101659605D01*
X122732248Y-101659605D01*
X122714595Y-101474743D01*
X122711180Y-101439132D01*
X122690941Y-101227017D01*
X122671792Y-101023937D01*
X122653929Y-100832113D01*
X122637548Y-100653765D01*
X122622845Y-100491113D01*
X122610018Y-100346378D01*
X122599261Y-100221779D01*
X122590773Y-100119538D01*
X122584749Y-100041875D01*
X122581385Y-99991009D01*
X122580879Y-99969161D01*
X122581080Y-99968502D01*
X122597419Y-99972323D01*
X122639513Y-99987615D01*
X122704070Y-100013034D01*
X122787795Y-100047234D01*
X122887396Y-100088870D01*
X122999580Y-100136596D01*
X123121054Y-100189066D01*
X123123565Y-100190159D01*
X123245067Y-100242975D01*
X123357121Y-100291563D01*
X123456463Y-100334518D01*
X123539828Y-100370433D01*
X123603952Y-100397901D01*
X123645569Y-100415516D01*
X123661416Y-100421872D01*
X123661448Y-100421874D01*
X123669832Y-100408344D01*
X123692361Y-100369202D01*
X123727816Y-100306625D01*
X123774982Y-100222789D01*
X123832640Y-100119869D01*
X123899574Y-100000041D01*
X123974567Y-99865480D01*
X124056402Y-99718363D01*
X124143861Y-99560865D01*
X124229484Y-99406431D01*
X124321276Y-99241131D01*
X124408837Y-99084192D01*
X124490927Y-98937793D01*
X124566304Y-98804112D01*
X124633726Y-98685328D01*
X124691954Y-98583620D01*
X124739745Y-98501167D01*
X124775858Y-98440146D01*
X124799052Y-98402738D01*
X124807937Y-98391048D01*
X124818053Y-98404595D01*
G37*
D15*
%TO.C,K1*%
X136411000Y-71498000D02*
X136411000Y-103502000D01*
X136411000Y-103502000D02*
X163589000Y-103502000D01*
X149873000Y-71498000D02*
X149873000Y-71752000D01*
X149873000Y-71752000D02*
X150127000Y-71752000D01*
X150127000Y-71498000D02*
X149873000Y-71498000D01*
X150127000Y-71752000D02*
X150127000Y-71498000D01*
X163589000Y-71498000D02*
X136411000Y-71498000D01*
X163589000Y-103502000D02*
X163589000Y-71498000D01*
%TO.C,D1*%
X126074300Y-88891800D02*
X126074300Y-89536960D01*
X126074300Y-92463040D02*
X126074300Y-93108200D01*
X126074300Y-93108200D02*
X130925700Y-93108200D01*
X130925700Y-88891800D02*
X126074300Y-88891800D01*
X130925700Y-89536960D02*
X130925700Y-88891800D01*
X130925700Y-93108200D02*
X130925700Y-92463040D01*
X132487800Y-91000000D02*
X133757800Y-91000000D01*
X132741800Y-91635000D02*
X132741800Y-90365000D01*
X133503800Y-91000000D02*
X132741800Y-90365000D01*
X133503800Y-91000000D02*
X132741800Y-90492000D01*
X133503800Y-91000000D02*
X132741800Y-90619000D01*
X133503800Y-91000000D02*
X132741800Y-90746000D01*
X133503800Y-91000000D02*
X132741800Y-90873000D01*
X133503800Y-91000000D02*
X132741800Y-91127000D01*
X133503800Y-91000000D02*
X132741800Y-91254000D01*
X133503800Y-91000000D02*
X132741800Y-91381000D01*
X133503800Y-91000000D02*
X132741800Y-91508000D01*
X133503800Y-91000000D02*
X132741800Y-91635000D01*
X133503800Y-91635000D02*
X133503800Y-90365000D01*
%TO.C,D2*%
X126074300Y-81891800D02*
X126074300Y-82536960D01*
X126074300Y-85463040D02*
X126074300Y-86108200D01*
X126074300Y-86108200D02*
X130925700Y-86108200D01*
X130925700Y-81891800D02*
X126074300Y-81891800D01*
X130925700Y-82536960D02*
X130925700Y-81891800D01*
X130925700Y-86108200D02*
X130925700Y-85463040D01*
X132487800Y-84000000D02*
X133757800Y-84000000D01*
X132741800Y-84635000D02*
X132741800Y-83365000D01*
X133503800Y-84000000D02*
X132741800Y-83365000D01*
X133503800Y-84000000D02*
X132741800Y-83492000D01*
X133503800Y-84000000D02*
X132741800Y-83619000D01*
X133503800Y-84000000D02*
X132741800Y-83746000D01*
X133503800Y-84000000D02*
X132741800Y-83873000D01*
X133503800Y-84000000D02*
X132741800Y-84127000D01*
X133503800Y-84000000D02*
X132741800Y-84254000D01*
X133503800Y-84000000D02*
X132741800Y-84381000D01*
X133503800Y-84000000D02*
X132741800Y-84508000D01*
X133503800Y-84000000D02*
X132741800Y-84635000D01*
X133503800Y-84635000D02*
X133503800Y-83365000D01*
D16*
%TO.C,J1*%
X100500000Y-74480000D02*
X100500000Y-74980000D01*
X100740000Y-74720000D02*
X100740000Y-85000000D01*
X101240000Y-74480000D02*
X100500000Y-74480000D01*
X101300000Y-74720000D02*
X101300000Y-85000000D01*
X102800000Y-74720000D02*
X102800000Y-85000000D01*
X104161000Y-81366000D02*
X104126000Y-81331000D01*
X104377000Y-81173000D02*
X104331000Y-81126000D01*
X106469000Y-83675000D02*
X106423000Y-83628000D01*
X106675000Y-83470000D02*
X106639000Y-83435000D01*
X107701000Y-74720000D02*
X107701000Y-85000000D01*
X110661000Y-74720000D02*
X100740000Y-74720000D01*
X110661000Y-74720000D02*
X110661000Y-85000000D01*
X110661000Y-85000000D02*
X100740000Y-85000000D01*
X103719747Y-77348805D02*
G75*
G02*
X103865000Y-76636000I1680254J28806D01*
G01*
X103865244Y-78003318D02*
G75*
G02*
X103720000Y-77320000I1534756J683318D01*
G01*
X104716958Y-75784573D02*
G75*
G02*
X106084000Y-75785000I683041J-1535420D01*
G01*
X106083042Y-78855427D02*
G75*
G02*
X104716000Y-78855000I-683042J1535427D01*
G01*
X106935427Y-76636958D02*
G75*
G02*
X106935000Y-78004000I-1535420J-683041D01*
G01*
X107080000Y-82400000D02*
G75*
G02*
X103720000Y-82400000I-1680000J0D01*
G01*
X103720000Y-82400000D02*
G75*
G02*
X107080000Y-82400000I1680000J0D01*
G01*
%TO.C,J2*%
X107080000Y-96400000D02*
G75*
G02*
X103720000Y-96400000I-1680000J0D01*
G01*
X103720000Y-96400000D02*
G75*
G02*
X107080000Y-96400000I1680000J0D01*
G01*
X106935427Y-90636958D02*
G75*
G02*
X106935000Y-92004000I-1535420J-683041D01*
G01*
X106083042Y-92855427D02*
G75*
G02*
X104716000Y-92855000I-683042J1535427D01*
G01*
X104716958Y-89784573D02*
G75*
G02*
X106084000Y-89785000I683041J-1535420D01*
G01*
X103865244Y-92003318D02*
G75*
G02*
X103720000Y-91320000I1534756J683318D01*
G01*
X103719747Y-91348805D02*
G75*
G02*
X103865000Y-90636000I1680254J28806D01*
G01*
X110661000Y-99000000D02*
X100740000Y-99000000D01*
X110661000Y-88720000D02*
X110661000Y-99000000D01*
X110661000Y-88720000D02*
X100740000Y-88720000D01*
X107701000Y-88720000D02*
X107701000Y-99000000D01*
X106675000Y-97470000D02*
X106639000Y-97435000D01*
X106469000Y-97675000D02*
X106423000Y-97628000D01*
X104377000Y-95173000D02*
X104331000Y-95126000D01*
X104161000Y-95366000D02*
X104126000Y-95331000D01*
X102800000Y-88720000D02*
X102800000Y-99000000D01*
X101300000Y-88720000D02*
X101300000Y-99000000D01*
X101240000Y-88480000D02*
X100500000Y-88480000D01*
X100740000Y-88720000D02*
X100740000Y-99000000D01*
X100500000Y-88480000D02*
X100500000Y-88980000D01*
%TD*%
M02*
