%TF.GenerationSoftware,KiCad,Pcbnew,8.0.4*%
%TF.CreationDate,2025-06-09T12:47:20-04:00*%
%TF.ProjectId,car-battery-reverse-polarity-protection,6361722d-6261-4747-9465-72792d726576,rev?*%
%TF.SameCoordinates,Original*%
%TF.FileFunction,Copper,L2,Bot*%
%TF.FilePolarity,Positive*%
%FSLAX46Y46*%
G04 Gerber Fmt 4.6, Leading zero omitted, Abs format (unit mm)*
G04 Created by KiCad (PCBNEW 8.0.4) date 2025-06-09 12:47:20*
%MOMM*%
%LPD*%
G01*
G04 APERTURE LIST*
%TA.AperFunction,ComponentPad*%
%ADD10C,6.400000*%
%TD*%
%TA.AperFunction,ComponentPad*%
%ADD11C,2.641600*%
%TD*%
%TA.AperFunction,ComponentPad*%
%ADD12C,1.676400*%
%TD*%
%TA.AperFunction,ComponentPad*%
%ADD13R,2.600000X2.600000*%
%TD*%
%TA.AperFunction,ComponentPad*%
%ADD14C,2.600000*%
%TD*%
%TA.AperFunction,ViaPad*%
%ADD15C,1.000000*%
%TD*%
%TA.AperFunction,Conductor*%
%ADD16C,2.000000*%
%TD*%
G04 APERTURE END LIST*
D10*
%TO.P,H5,1,1*%
%TO.N,GND*%
X104000000Y-106300000D03*
%TD*%
D11*
%TO.P,K1,13*%
%TO.N,GND*%
X140398800Y-84274200D03*
%TO.P,K1,14*%
%TO.N,/relay_load_terminal*%
X158178800Y-81734200D03*
D12*
%TO.P,K1,A1*%
%TO.N,/relay_coil*%
X154368800Y-96974200D03*
%TO.P,K1,A2*%
%TO.N,GND*%
X144208800Y-96974200D03*
D11*
%TO.P,K1,NC*%
%TO.N,N/C*%
X158178800Y-74114200D03*
%TD*%
D10*
%TO.P,H1,1,1*%
%TO.N,GND*%
X169000000Y-69300000D03*
%TD*%
D13*
%TO.P,J1,1,Pin_1*%
%TO.N,GND*%
X105400000Y-77320000D03*
D14*
%TO.P,J1,2,Pin_2*%
%TO.N,+BATT*%
X105400000Y-82400000D03*
%TD*%
D10*
%TO.P,H2,1,1*%
%TO.N,GND*%
X169000000Y-106300000D03*
%TD*%
D14*
%TO.P,J2,2,Pin_2*%
%TO.N,/relay_load_terminal*%
X105400000Y-96400000D03*
D13*
%TO.P,J2,1,Pin_1*%
%TO.N,+BATT*%
X105400000Y-91320000D03*
%TD*%
D10*
%TO.P,H3,1,1*%
%TO.N,GND*%
X104000000Y-69300000D03*
%TD*%
D15*
%TO.N,GND*%
X168900000Y-88900000D03*
X158300000Y-69500000D03*
X111700000Y-69500000D03*
X102200000Y-77600000D03*
X123000000Y-88000000D03*
X108500000Y-77500000D03*
X105300000Y-74400000D03*
%TO.N,/relay_coil*%
X138000000Y-91000000D03*
%TD*%
D16*
%TO.N,/relay_coil*%
X148394600Y-91000000D02*
X154368800Y-96974200D01*
X138000000Y-91000000D02*
X148394600Y-91000000D01*
%TD*%
%TA.AperFunction,Conductor*%
%TO.N,GND*%
G36*
X103459868Y-65420185D02*
G01*
X103505623Y-65472989D01*
X103515567Y-65542147D01*
X103486542Y-65605703D01*
X103427764Y-65643477D01*
X103412227Y-65646973D01*
X103229676Y-65675886D01*
X103229669Y-65675887D01*
X102855063Y-65776262D01*
X102493005Y-65915244D01*
X102147456Y-66091310D01*
X101822218Y-66302523D01*
X101760005Y-66352899D01*
X103278835Y-67871728D01*
X103161417Y-67931557D01*
X102957670Y-68079588D01*
X102779588Y-68257670D01*
X102631557Y-68461417D01*
X102571729Y-68578835D01*
X101052899Y-67060005D01*
X101002523Y-67122218D01*
X100791310Y-67447456D01*
X100615244Y-67793005D01*
X100476262Y-68155063D01*
X100375887Y-68529669D01*
X100375886Y-68529676D01*
X100315219Y-68912712D01*
X100294922Y-69299999D01*
X100294922Y-69300000D01*
X100315219Y-69687287D01*
X100375886Y-70070323D01*
X100375887Y-70070330D01*
X100476262Y-70444936D01*
X100615244Y-70806994D01*
X100791310Y-71152543D01*
X101002531Y-71477793D01*
X101052898Y-71539992D01*
X101052900Y-71539993D01*
X102571728Y-70021164D01*
X102631557Y-70138583D01*
X102779588Y-70342330D01*
X102957670Y-70520412D01*
X103161417Y-70668443D01*
X103278835Y-70728270D01*
X101760006Y-72247099D01*
X101760006Y-72247100D01*
X101822206Y-72297468D01*
X102147456Y-72508689D01*
X102493005Y-72684755D01*
X102855063Y-72823737D01*
X103229669Y-72924112D01*
X103229676Y-72924113D01*
X103612712Y-72984780D01*
X103999999Y-73005078D01*
X104000001Y-73005078D01*
X104387287Y-72984780D01*
X104770323Y-72924113D01*
X104770330Y-72924112D01*
X105144936Y-72823737D01*
X105506994Y-72684755D01*
X105852543Y-72508689D01*
X106177783Y-72297476D01*
X106177785Y-72297475D01*
X106239992Y-72247099D01*
X104721164Y-70728271D01*
X104838583Y-70668443D01*
X105042330Y-70520412D01*
X105220412Y-70342330D01*
X105368443Y-70138583D01*
X105428271Y-70021164D01*
X106947099Y-71539992D01*
X106997475Y-71477785D01*
X106997476Y-71477783D01*
X107208689Y-71152543D01*
X107384755Y-70806994D01*
X107523737Y-70444936D01*
X107624112Y-70070330D01*
X107624113Y-70070323D01*
X107684780Y-69687287D01*
X107705078Y-69300000D01*
X107705078Y-69299999D01*
X107684780Y-68912712D01*
X107624113Y-68529676D01*
X107624112Y-68529669D01*
X107523737Y-68155063D01*
X107384755Y-67793005D01*
X107208689Y-67447456D01*
X106997468Y-67122206D01*
X106947100Y-67060006D01*
X106947099Y-67060006D01*
X105428270Y-68578834D01*
X105368443Y-68461417D01*
X105220412Y-68257670D01*
X105042330Y-68079588D01*
X104838583Y-67931557D01*
X104721164Y-67871729D01*
X106239993Y-66352900D01*
X106239992Y-66352898D01*
X106177793Y-66302531D01*
X105852543Y-66091310D01*
X105506994Y-65915244D01*
X105144936Y-65776262D01*
X104770330Y-65675887D01*
X104770323Y-65675886D01*
X104587773Y-65646973D01*
X104524638Y-65617044D01*
X104487707Y-65557732D01*
X104488705Y-65487870D01*
X104527315Y-65429637D01*
X104591278Y-65401523D01*
X104607171Y-65400500D01*
X168392829Y-65400500D01*
X168459868Y-65420185D01*
X168505623Y-65472989D01*
X168515567Y-65542147D01*
X168486542Y-65605703D01*
X168427764Y-65643477D01*
X168412227Y-65646973D01*
X168229676Y-65675886D01*
X168229669Y-65675887D01*
X167855063Y-65776262D01*
X167493005Y-65915244D01*
X167147456Y-66091310D01*
X166822218Y-66302523D01*
X166760005Y-66352899D01*
X168278835Y-67871728D01*
X168161417Y-67931557D01*
X167957670Y-68079588D01*
X167779588Y-68257670D01*
X167631557Y-68461417D01*
X167571729Y-68578835D01*
X166052899Y-67060005D01*
X166002523Y-67122218D01*
X165791310Y-67447456D01*
X165615244Y-67793005D01*
X165476262Y-68155063D01*
X165375887Y-68529669D01*
X165375886Y-68529676D01*
X165315219Y-68912712D01*
X165294922Y-69299999D01*
X165294922Y-69300000D01*
X165315219Y-69687287D01*
X165375886Y-70070323D01*
X165375887Y-70070330D01*
X165476262Y-70444936D01*
X165615244Y-70806994D01*
X165791310Y-71152543D01*
X166002531Y-71477793D01*
X166052898Y-71539992D01*
X166052900Y-71539993D01*
X167571728Y-70021164D01*
X167631557Y-70138583D01*
X167779588Y-70342330D01*
X167957670Y-70520412D01*
X168161417Y-70668443D01*
X168278835Y-70728270D01*
X166760006Y-72247099D01*
X166760006Y-72247100D01*
X166822206Y-72297468D01*
X167147456Y-72508689D01*
X167493005Y-72684755D01*
X167855063Y-72823737D01*
X168229669Y-72924112D01*
X168229676Y-72924113D01*
X168612712Y-72984780D01*
X168999999Y-73005078D01*
X169000001Y-73005078D01*
X169387287Y-72984780D01*
X169770323Y-72924113D01*
X169770330Y-72924112D01*
X170144936Y-72823737D01*
X170506994Y-72684755D01*
X170852543Y-72508689D01*
X171177783Y-72297476D01*
X171177785Y-72297475D01*
X171239992Y-72247099D01*
X169721164Y-70728271D01*
X169838583Y-70668443D01*
X170042330Y-70520412D01*
X170220412Y-70342330D01*
X170368443Y-70138583D01*
X170428271Y-70021164D01*
X171947099Y-71539992D01*
X171997475Y-71477785D01*
X171997476Y-71477783D01*
X172208689Y-71152543D01*
X172384755Y-70806994D01*
X172523737Y-70444936D01*
X172624112Y-70070330D01*
X172624113Y-70070323D01*
X172684780Y-69687287D01*
X172705078Y-69300000D01*
X172705078Y-69299999D01*
X172684780Y-68912712D01*
X172624113Y-68529676D01*
X172624112Y-68529669D01*
X172523737Y-68155063D01*
X172384755Y-67793005D01*
X172208689Y-67447456D01*
X171997468Y-67122206D01*
X171947100Y-67060006D01*
X171947099Y-67060006D01*
X170428270Y-68578834D01*
X170368443Y-68461417D01*
X170220412Y-68257670D01*
X170042330Y-68079588D01*
X169838583Y-67931557D01*
X169721164Y-67871729D01*
X171239993Y-66352900D01*
X171239992Y-66352898D01*
X171177793Y-66302531D01*
X170852543Y-66091310D01*
X170506994Y-65915244D01*
X170144936Y-65776262D01*
X169770330Y-65675887D01*
X169770323Y-65675886D01*
X169587773Y-65646973D01*
X169524638Y-65617044D01*
X169487707Y-65557732D01*
X169488705Y-65487870D01*
X169527315Y-65429637D01*
X169591278Y-65401523D01*
X169607171Y-65400500D01*
X173025500Y-65400500D01*
X173092539Y-65420185D01*
X173138294Y-65472989D01*
X173149500Y-65524500D01*
X173149500Y-110075500D01*
X173129815Y-110142539D01*
X173077011Y-110188294D01*
X173025500Y-110199500D01*
X169607171Y-110199500D01*
X169540132Y-110179815D01*
X169494377Y-110127011D01*
X169484433Y-110057853D01*
X169513458Y-109994297D01*
X169572236Y-109956523D01*
X169587773Y-109953027D01*
X169770323Y-109924113D01*
X169770330Y-109924112D01*
X170144936Y-109823737D01*
X170506994Y-109684755D01*
X170852543Y-109508689D01*
X171177783Y-109297476D01*
X171177785Y-109297475D01*
X171239992Y-109247099D01*
X169721164Y-107728271D01*
X169838583Y-107668443D01*
X170042330Y-107520412D01*
X170220412Y-107342330D01*
X170368443Y-107138583D01*
X170428271Y-107021164D01*
X171947099Y-108539992D01*
X171997475Y-108477785D01*
X171997476Y-108477783D01*
X172208689Y-108152543D01*
X172384755Y-107806994D01*
X172523737Y-107444936D01*
X172624112Y-107070330D01*
X172624113Y-107070323D01*
X172684780Y-106687287D01*
X172705078Y-106300000D01*
X172705078Y-106299999D01*
X172684780Y-105912712D01*
X172624113Y-105529676D01*
X172624112Y-105529669D01*
X172523737Y-105155063D01*
X172384755Y-104793005D01*
X172208689Y-104447456D01*
X171997468Y-104122206D01*
X171947100Y-104060006D01*
X171947099Y-104060006D01*
X170428270Y-105578834D01*
X170368443Y-105461417D01*
X170220412Y-105257670D01*
X170042330Y-105079588D01*
X169838583Y-104931557D01*
X169721164Y-104871729D01*
X171239993Y-103352900D01*
X171239992Y-103352898D01*
X171177793Y-103302531D01*
X170852543Y-103091310D01*
X170506994Y-102915244D01*
X170144936Y-102776262D01*
X169770330Y-102675887D01*
X169770323Y-102675886D01*
X169387287Y-102615219D01*
X169000001Y-102594922D01*
X168999999Y-102594922D01*
X168612712Y-102615219D01*
X168229676Y-102675886D01*
X168229669Y-102675887D01*
X167855063Y-102776262D01*
X167493005Y-102915244D01*
X167147456Y-103091310D01*
X166822218Y-103302523D01*
X166760005Y-103352899D01*
X168278835Y-104871728D01*
X168161417Y-104931557D01*
X167957670Y-105079588D01*
X167779588Y-105257670D01*
X167631557Y-105461417D01*
X167571729Y-105578835D01*
X166052899Y-104060005D01*
X166002523Y-104122218D01*
X165791310Y-104447456D01*
X165615244Y-104793005D01*
X165476262Y-105155063D01*
X165375887Y-105529669D01*
X165375886Y-105529676D01*
X165315219Y-105912712D01*
X165294922Y-106299999D01*
X165294922Y-106300000D01*
X165315219Y-106687287D01*
X165375886Y-107070323D01*
X165375887Y-107070330D01*
X165476262Y-107444936D01*
X165615244Y-107806994D01*
X165791310Y-108152543D01*
X166002531Y-108477793D01*
X166052898Y-108539992D01*
X166052900Y-108539993D01*
X167571728Y-107021164D01*
X167631557Y-107138583D01*
X167779588Y-107342330D01*
X167957670Y-107520412D01*
X168161417Y-107668443D01*
X168278835Y-107728270D01*
X166760006Y-109247099D01*
X166760006Y-109247100D01*
X166822206Y-109297468D01*
X167147456Y-109508689D01*
X167493005Y-109684755D01*
X167855063Y-109823737D01*
X168229669Y-109924112D01*
X168229676Y-109924113D01*
X168412227Y-109953027D01*
X168475362Y-109982956D01*
X168512293Y-110042268D01*
X168511295Y-110112130D01*
X168472685Y-110170363D01*
X168408722Y-110198477D01*
X168392829Y-110199500D01*
X104607171Y-110199500D01*
X104540132Y-110179815D01*
X104494377Y-110127011D01*
X104484433Y-110057853D01*
X104513458Y-109994297D01*
X104572236Y-109956523D01*
X104587773Y-109953027D01*
X104770323Y-109924113D01*
X104770330Y-109924112D01*
X105144936Y-109823737D01*
X105506994Y-109684755D01*
X105852543Y-109508689D01*
X106177783Y-109297476D01*
X106177785Y-109297475D01*
X106239992Y-109247099D01*
X104721164Y-107728271D01*
X104838583Y-107668443D01*
X105042330Y-107520412D01*
X105220412Y-107342330D01*
X105368443Y-107138583D01*
X105428271Y-107021164D01*
X106947099Y-108539992D01*
X106997475Y-108477785D01*
X106997476Y-108477783D01*
X107208689Y-108152543D01*
X107384755Y-107806994D01*
X107523737Y-107444936D01*
X107624112Y-107070330D01*
X107624113Y-107070323D01*
X107684780Y-106687287D01*
X107705078Y-106300000D01*
X107705078Y-106299999D01*
X107684780Y-105912712D01*
X107624113Y-105529676D01*
X107624112Y-105529669D01*
X107523737Y-105155063D01*
X107384755Y-104793005D01*
X107208689Y-104447456D01*
X106997468Y-104122206D01*
X106947100Y-104060006D01*
X106947099Y-104060006D01*
X105428270Y-105578834D01*
X105368443Y-105461417D01*
X105220412Y-105257670D01*
X105042330Y-105079588D01*
X104838583Y-104931557D01*
X104721164Y-104871729D01*
X106239993Y-103352900D01*
X106239992Y-103352898D01*
X106177793Y-103302531D01*
X105852543Y-103091310D01*
X105506994Y-102915244D01*
X105144936Y-102776262D01*
X104770330Y-102675887D01*
X104770323Y-102675886D01*
X104387287Y-102615219D01*
X104000001Y-102594922D01*
X103999999Y-102594922D01*
X103612712Y-102615219D01*
X103229676Y-102675886D01*
X103229669Y-102675887D01*
X102855063Y-102776262D01*
X102493005Y-102915244D01*
X102147456Y-103091310D01*
X101822218Y-103302523D01*
X101760005Y-103352899D01*
X103278835Y-104871728D01*
X103161417Y-104931557D01*
X102957670Y-105079588D01*
X102779588Y-105257670D01*
X102631557Y-105461417D01*
X102571729Y-105578835D01*
X101052899Y-104060005D01*
X101002523Y-104122218D01*
X100791310Y-104447456D01*
X100615244Y-104793005D01*
X100476262Y-105155063D01*
X100375887Y-105529669D01*
X100375886Y-105529676D01*
X100315219Y-105912712D01*
X100294922Y-106299999D01*
X100294922Y-106300000D01*
X100315219Y-106687287D01*
X100375886Y-107070323D01*
X100375887Y-107070330D01*
X100476262Y-107444936D01*
X100615244Y-107806994D01*
X100791310Y-108152543D01*
X101002531Y-108477793D01*
X101052898Y-108539992D01*
X101052900Y-108539993D01*
X102571728Y-107021164D01*
X102631557Y-107138583D01*
X102779588Y-107342330D01*
X102957670Y-107520412D01*
X103161417Y-107668443D01*
X103278835Y-107728270D01*
X101760006Y-109247099D01*
X101760006Y-109247100D01*
X101822206Y-109297468D01*
X102147456Y-109508689D01*
X102493005Y-109684755D01*
X102855063Y-109823737D01*
X103229669Y-109924112D01*
X103229676Y-109924113D01*
X103412227Y-109953027D01*
X103475362Y-109982956D01*
X103512293Y-110042268D01*
X103511295Y-110112130D01*
X103472685Y-110170363D01*
X103408722Y-110198477D01*
X103392829Y-110199500D01*
X100074500Y-110199500D01*
X100007461Y-110179815D01*
X99961706Y-110127011D01*
X99950500Y-110075500D01*
X99950500Y-98206049D01*
X143684056Y-98206049D01*
X143749353Y-98236497D01*
X143749367Y-98236502D01*
X143975531Y-98297102D01*
X143975541Y-98297104D01*
X144208798Y-98317512D01*
X144208802Y-98317512D01*
X144442058Y-98297104D01*
X144442068Y-98297102D01*
X144668232Y-98236502D01*
X144668241Y-98236498D01*
X144733542Y-98206048D01*
X144208801Y-97681307D01*
X144208800Y-97681307D01*
X143684056Y-98206049D01*
X99950500Y-98206049D01*
X99950500Y-96399995D01*
X103594451Y-96399995D01*
X103594451Y-96400004D01*
X103614616Y-96669101D01*
X103666699Y-96897289D01*
X103674666Y-96932195D01*
X103773257Y-97183398D01*
X103908185Y-97417102D01*
X103989118Y-97518588D01*
X104076442Y-97628089D01*
X104219293Y-97760634D01*
X104274259Y-97811635D01*
X104497226Y-97963651D01*
X104740359Y-98080738D01*
X104998228Y-98160280D01*
X104998229Y-98160280D01*
X104998232Y-98160281D01*
X105265063Y-98200499D01*
X105265068Y-98200499D01*
X105265071Y-98200500D01*
X105265072Y-98200500D01*
X105534928Y-98200500D01*
X105534929Y-98200500D01*
X105534936Y-98200499D01*
X105801767Y-98160281D01*
X105801768Y-98160280D01*
X105801772Y-98160280D01*
X106059641Y-98080738D01*
X106302775Y-97963651D01*
X106525741Y-97811635D01*
X106723561Y-97628085D01*
X106891815Y-97417102D01*
X107026743Y-97183398D01*
X107108849Y-96974198D01*
X142865488Y-96974198D01*
X142865488Y-96974201D01*
X142885895Y-97207458D01*
X142885897Y-97207468D01*
X142946498Y-97433637D01*
X142976950Y-97498942D01*
X143501693Y-96974200D01*
X143501693Y-96974199D01*
X143424783Y-96897289D01*
X143624600Y-96897289D01*
X143624600Y-97051111D01*
X143664412Y-97199693D01*
X143741324Y-97332907D01*
X143850093Y-97441676D01*
X143983307Y-97518588D01*
X144131889Y-97558400D01*
X144285711Y-97558400D01*
X144434293Y-97518588D01*
X144567507Y-97441676D01*
X144676276Y-97332907D01*
X144753188Y-97199693D01*
X144793000Y-97051111D01*
X144793000Y-96974199D01*
X144915907Y-96974199D01*
X144915907Y-96974200D01*
X145440648Y-97498941D01*
X145471098Y-97433641D01*
X145471102Y-97433632D01*
X145531702Y-97207468D01*
X145531704Y-97207458D01*
X145552112Y-96974201D01*
X145552112Y-96974198D01*
X145531704Y-96740941D01*
X145531702Y-96740931D01*
X145471102Y-96514767D01*
X145471097Y-96514753D01*
X145440649Y-96449456D01*
X144915907Y-96974199D01*
X144793000Y-96974199D01*
X144793000Y-96897289D01*
X144753188Y-96748707D01*
X144676276Y-96615493D01*
X144567507Y-96506724D01*
X144434293Y-96429812D01*
X144285711Y-96390000D01*
X144131889Y-96390000D01*
X143983307Y-96429812D01*
X143850093Y-96506724D01*
X143741324Y-96615493D01*
X143664412Y-96748707D01*
X143624600Y-96897289D01*
X143424783Y-96897289D01*
X142976950Y-96449456D01*
X142976949Y-96449457D01*
X142946499Y-96514759D01*
X142885897Y-96740931D01*
X142885895Y-96740941D01*
X142865488Y-96974198D01*
X107108849Y-96974198D01*
X107125334Y-96932195D01*
X107185383Y-96669103D01*
X107205549Y-96400000D01*
X107205414Y-96398203D01*
X107185383Y-96130898D01*
X107185383Y-96130897D01*
X107125334Y-95867805D01*
X107076096Y-95742350D01*
X143684056Y-95742350D01*
X144208800Y-96267093D01*
X144208801Y-96267093D01*
X144733542Y-95742350D01*
X144668237Y-95711898D01*
X144442068Y-95651297D01*
X144442058Y-95651295D01*
X144208802Y-95630888D01*
X144208798Y-95630888D01*
X143975541Y-95651295D01*
X143975531Y-95651297D01*
X143749359Y-95711899D01*
X143684057Y-95742349D01*
X143684056Y-95742350D01*
X107076096Y-95742350D01*
X107026743Y-95616602D01*
X106891815Y-95382898D01*
X106723561Y-95171915D01*
X106723560Y-95171914D01*
X106723557Y-95171910D01*
X106525741Y-94988365D01*
X106302775Y-94836349D01*
X106302769Y-94836346D01*
X106302768Y-94836345D01*
X106302767Y-94836344D01*
X106059643Y-94719263D01*
X106059645Y-94719263D01*
X105801773Y-94639720D01*
X105801767Y-94639718D01*
X105534936Y-94599500D01*
X105534929Y-94599500D01*
X105265071Y-94599500D01*
X105265063Y-94599500D01*
X104998232Y-94639718D01*
X104998226Y-94639720D01*
X104740358Y-94719262D01*
X104497230Y-94836346D01*
X104274258Y-94988365D01*
X104076442Y-95171910D01*
X103908185Y-95382898D01*
X103773258Y-95616599D01*
X103773256Y-95616603D01*
X103674666Y-95867804D01*
X103674664Y-95867811D01*
X103614616Y-96130898D01*
X103594451Y-96399995D01*
X99950500Y-96399995D01*
X99950500Y-89972135D01*
X103599500Y-89972135D01*
X103599500Y-92667870D01*
X103599501Y-92667876D01*
X103605908Y-92727483D01*
X103656202Y-92862328D01*
X103656206Y-92862335D01*
X103742452Y-92977544D01*
X103742455Y-92977547D01*
X103857664Y-93063793D01*
X103857671Y-93063797D01*
X103992517Y-93114091D01*
X103992516Y-93114091D01*
X103999444Y-93114835D01*
X104052127Y-93120500D01*
X106747872Y-93120499D01*
X106807483Y-93114091D01*
X106942331Y-93063796D01*
X107057546Y-92977546D01*
X107143796Y-92862331D01*
X107194091Y-92727483D01*
X107200500Y-92667873D01*
X107200499Y-90881902D01*
X136499500Y-90881902D01*
X136499500Y-91118097D01*
X136536446Y-91351368D01*
X136609433Y-91575996D01*
X136716657Y-91786433D01*
X136855483Y-91977510D01*
X137022490Y-92144517D01*
X137213567Y-92283343D01*
X137312991Y-92334002D01*
X137424003Y-92390566D01*
X137424005Y-92390566D01*
X137424008Y-92390568D01*
X137544412Y-92429689D01*
X137648631Y-92463553D01*
X137881903Y-92500500D01*
X137881908Y-92500500D01*
X147721711Y-92500500D01*
X147788750Y-92520185D01*
X147809392Y-92536819D01*
X153391291Y-98118719D01*
X153391296Y-98118723D01*
X153511490Y-98206048D01*
X153582367Y-98257543D01*
X153700063Y-98317512D01*
X153792803Y-98364766D01*
X153792805Y-98364766D01*
X153792808Y-98364768D01*
X153913212Y-98403889D01*
X154017431Y-98437753D01*
X154250703Y-98474700D01*
X154250708Y-98474700D01*
X154486897Y-98474700D01*
X154616490Y-98454173D01*
X154720169Y-98437753D01*
X154944792Y-98364768D01*
X155155234Y-98257543D01*
X155346310Y-98118718D01*
X155513318Y-97951710D01*
X155652143Y-97760634D01*
X155759368Y-97550192D01*
X155832353Y-97325569D01*
X155854870Y-97183400D01*
X155869300Y-97092297D01*
X155869300Y-96856102D01*
X155832353Y-96622831D01*
X155776020Y-96449457D01*
X155759368Y-96398208D01*
X155759366Y-96398205D01*
X155759366Y-96398203D01*
X155720466Y-96321859D01*
X155652143Y-96187767D01*
X155634406Y-96163355D01*
X155513323Y-95996696D01*
X155513319Y-95996691D01*
X149372112Y-89855485D01*
X149372111Y-89855484D01*
X149181034Y-89716657D01*
X148970596Y-89609433D01*
X148745968Y-89536446D01*
X148512697Y-89499500D01*
X148512692Y-89499500D01*
X137881908Y-89499500D01*
X137881903Y-89499500D01*
X137648631Y-89536446D01*
X137424003Y-89609433D01*
X137213566Y-89716657D01*
X137104550Y-89795862D01*
X137022490Y-89855483D01*
X137022488Y-89855485D01*
X137022487Y-89855485D01*
X136855485Y-90022487D01*
X136855485Y-90022488D01*
X136855483Y-90022490D01*
X136795862Y-90104550D01*
X136716657Y-90213566D01*
X136609433Y-90424003D01*
X136536446Y-90648631D01*
X136499500Y-90881902D01*
X107200499Y-90881902D01*
X107200499Y-89972128D01*
X107194091Y-89912517D01*
X107172819Y-89855485D01*
X107143797Y-89777671D01*
X107143793Y-89777664D01*
X107057547Y-89662455D01*
X107057544Y-89662452D01*
X106942335Y-89576206D01*
X106942328Y-89576202D01*
X106807482Y-89525908D01*
X106807483Y-89525908D01*
X106747883Y-89519501D01*
X106747881Y-89519500D01*
X106747873Y-89519500D01*
X106747864Y-89519500D01*
X104052129Y-89519500D01*
X104052123Y-89519501D01*
X103992516Y-89525908D01*
X103857671Y-89576202D01*
X103857664Y-89576206D01*
X103742455Y-89662452D01*
X103742452Y-89662455D01*
X103656206Y-89777664D01*
X103656202Y-89777671D01*
X103605908Y-89912517D01*
X103599501Y-89972116D01*
X103599501Y-89972123D01*
X103599500Y-89972135D01*
X99950500Y-89972135D01*
X99950500Y-84274200D01*
X138772988Y-84274200D01*
X138793003Y-84528529D01*
X138849302Y-84763035D01*
X138849303Y-84763035D01*
X139332000Y-84280339D01*
X139332000Y-84379271D01*
X139372996Y-84585374D01*
X139453414Y-84779519D01*
X139570162Y-84954245D01*
X139718755Y-85102838D01*
X139893481Y-85219586D01*
X140087626Y-85300004D01*
X140293729Y-85341000D01*
X140392660Y-85341000D01*
X139909963Y-85823694D01*
X139909963Y-85823695D01*
X140144472Y-85879996D01*
X140398800Y-85900011D01*
X140653127Y-85879996D01*
X140887635Y-85823695D01*
X140404941Y-85341000D01*
X140503871Y-85341000D01*
X140709974Y-85300004D01*
X140904119Y-85219586D01*
X141078845Y-85102838D01*
X141227438Y-84954245D01*
X141344186Y-84779519D01*
X141424604Y-84585374D01*
X141465600Y-84379271D01*
X141465600Y-84280340D01*
X141948295Y-84763035D01*
X142004596Y-84528527D01*
X142024611Y-84274200D01*
X142004596Y-84019872D01*
X141948295Y-83785363D01*
X141948294Y-83785363D01*
X141465600Y-84268058D01*
X141465600Y-84169129D01*
X141424604Y-83963026D01*
X141344186Y-83768881D01*
X141227438Y-83594155D01*
X141078845Y-83445562D01*
X140904119Y-83328814D01*
X140709974Y-83248396D01*
X140503871Y-83207400D01*
X140404941Y-83207400D01*
X140887635Y-82724703D01*
X140887635Y-82724702D01*
X140653129Y-82668403D01*
X140398800Y-82648388D01*
X140144470Y-82668403D01*
X139909963Y-82724702D01*
X139909963Y-82724703D01*
X140392660Y-83207400D01*
X140293729Y-83207400D01*
X140087626Y-83248396D01*
X139893481Y-83328814D01*
X139718755Y-83445562D01*
X139570162Y-83594155D01*
X139453414Y-83768881D01*
X139372996Y-83963026D01*
X139332000Y-84169129D01*
X139332000Y-84268060D01*
X138849303Y-83785363D01*
X138849302Y-83785363D01*
X138793003Y-84019870D01*
X138772988Y-84274200D01*
X99950500Y-84274200D01*
X99950500Y-82399995D01*
X103594451Y-82399995D01*
X103594451Y-82400004D01*
X103614616Y-82669101D01*
X103674664Y-82932188D01*
X103674666Y-82932195D01*
X103764914Y-83162142D01*
X103773257Y-83183398D01*
X103908185Y-83417102D01*
X104018554Y-83555500D01*
X104076442Y-83628089D01*
X104228181Y-83768881D01*
X104274259Y-83811635D01*
X104497226Y-83963651D01*
X104740359Y-84080738D01*
X104998228Y-84160280D01*
X104998229Y-84160280D01*
X104998232Y-84160281D01*
X105265063Y-84200499D01*
X105265068Y-84200499D01*
X105265071Y-84200500D01*
X105265072Y-84200500D01*
X105534928Y-84200500D01*
X105534929Y-84200500D01*
X105534936Y-84200499D01*
X105801767Y-84160281D01*
X105801768Y-84160280D01*
X105801772Y-84160280D01*
X106059641Y-84080738D01*
X106302775Y-83963651D01*
X106525741Y-83811635D01*
X106723561Y-83628085D01*
X106891815Y-83417102D01*
X107026743Y-83183398D01*
X107125334Y-82932195D01*
X107185383Y-82669103D01*
X107205549Y-82400000D01*
X107185383Y-82130897D01*
X107125334Y-81867805D01*
X107072895Y-81734195D01*
X156352393Y-81734195D01*
X156352393Y-81734204D01*
X156372790Y-82006402D01*
X156372791Y-82006407D01*
X156433531Y-82272529D01*
X156433537Y-82272548D01*
X156533264Y-82526648D01*
X156533263Y-82526648D01*
X156615106Y-82668403D01*
X156669752Y-82763052D01*
X156804634Y-82932188D01*
X156839952Y-82976476D01*
X157028850Y-83151746D01*
X157040054Y-83162142D01*
X157265597Y-83315915D01*
X157265602Y-83315917D01*
X157265603Y-83315918D01*
X157265604Y-83315919D01*
X157396223Y-83378821D01*
X157511535Y-83434352D01*
X157511536Y-83434352D01*
X157511539Y-83434354D01*
X157772386Y-83514815D01*
X158042312Y-83555500D01*
X158042313Y-83555500D01*
X158315287Y-83555500D01*
X158315288Y-83555500D01*
X158585214Y-83514815D01*
X158846061Y-83434354D01*
X159092004Y-83315915D01*
X159317546Y-83162142D01*
X159517651Y-82976472D01*
X159687848Y-82763052D01*
X159824336Y-82526648D01*
X159924065Y-82272543D01*
X159984808Y-82006412D01*
X159984809Y-82006402D01*
X160005207Y-81734204D01*
X160005207Y-81734195D01*
X159984809Y-81461997D01*
X159984808Y-81461992D01*
X159984808Y-81461988D01*
X159924065Y-81195857D01*
X159824336Y-80941752D01*
X159824335Y-80941751D01*
X159824336Y-80941751D01*
X159774377Y-80855221D01*
X159687848Y-80705348D01*
X159517651Y-80491928D01*
X159517650Y-80491927D01*
X159517647Y-80491923D01*
X159388724Y-80372301D01*
X159317546Y-80306258D01*
X159092004Y-80152485D01*
X159092003Y-80152484D01*
X159091996Y-80152480D01*
X158846063Y-80034047D01*
X158846065Y-80034047D01*
X158585222Y-79953587D01*
X158585218Y-79953586D01*
X158585214Y-79953585D01*
X158455373Y-79934014D01*
X158315293Y-79912900D01*
X158315288Y-79912900D01*
X158042312Y-79912900D01*
X158042306Y-79912900D01*
X157874208Y-79938237D01*
X157772386Y-79953585D01*
X157772383Y-79953586D01*
X157772377Y-79953587D01*
X157511535Y-80034047D01*
X157265604Y-80152480D01*
X157265603Y-80152481D01*
X157040053Y-80306258D01*
X156839952Y-80491923D01*
X156669752Y-80705348D01*
X156533264Y-80941751D01*
X156433537Y-81195851D01*
X156433531Y-81195870D01*
X156372791Y-81461992D01*
X156372790Y-81461997D01*
X156352393Y-81734195D01*
X107072895Y-81734195D01*
X107026743Y-81616602D01*
X106891815Y-81382898D01*
X106723561Y-81171915D01*
X106723560Y-81171914D01*
X106723557Y-81171910D01*
X106525741Y-80988365D01*
X106457371Y-80941751D01*
X106302775Y-80836349D01*
X106302769Y-80836346D01*
X106302768Y-80836345D01*
X106302767Y-80836344D01*
X106059643Y-80719263D01*
X106059645Y-80719263D01*
X105801773Y-80639720D01*
X105801767Y-80639718D01*
X105534936Y-80599500D01*
X105534929Y-80599500D01*
X105265071Y-80599500D01*
X105265063Y-80599500D01*
X104998232Y-80639718D01*
X104998226Y-80639720D01*
X104740358Y-80719262D01*
X104497230Y-80836346D01*
X104274258Y-80988365D01*
X104076442Y-81171910D01*
X103908185Y-81382898D01*
X103773258Y-81616599D01*
X103773256Y-81616603D01*
X103674666Y-81867804D01*
X103674664Y-81867811D01*
X103614616Y-82130898D01*
X103594451Y-82399995D01*
X99950500Y-82399995D01*
X99950500Y-78664785D01*
X103800001Y-78664785D01*
X103800002Y-78664808D01*
X103802908Y-78689869D01*
X103802909Y-78689873D01*
X103848211Y-78792474D01*
X103848214Y-78792479D01*
X103927520Y-78871785D01*
X103927525Y-78871788D01*
X104030123Y-78917089D01*
X104055206Y-78919999D01*
X104649999Y-78919999D01*
X106150000Y-78919999D01*
X106744786Y-78919999D01*
X106744808Y-78919997D01*
X106769869Y-78917091D01*
X106769873Y-78917090D01*
X106872474Y-78871788D01*
X106872479Y-78871785D01*
X106951785Y-78792479D01*
X106951788Y-78792474D01*
X106997089Y-78689877D01*
X106997089Y-78689875D01*
X106999999Y-78664794D01*
X107000000Y-78664791D01*
X107000000Y-78070000D01*
X106150000Y-78070000D01*
X106150000Y-78919999D01*
X104649999Y-78919999D01*
X104650000Y-78919998D01*
X104650000Y-78070000D01*
X103800001Y-78070000D01*
X103800001Y-78664785D01*
X99950500Y-78664785D01*
X99950500Y-77255981D01*
X104750000Y-77255981D01*
X104750000Y-77384019D01*
X104774979Y-77509598D01*
X104823978Y-77627890D01*
X104895112Y-77734351D01*
X104985649Y-77824888D01*
X105092110Y-77896022D01*
X105210402Y-77945021D01*
X105335981Y-77970000D01*
X105464019Y-77970000D01*
X105589598Y-77945021D01*
X105707890Y-77896022D01*
X105814351Y-77824888D01*
X105904888Y-77734351D01*
X105976022Y-77627890D01*
X106025021Y-77509598D01*
X106050000Y-77384019D01*
X106050000Y-77255981D01*
X106025021Y-77130402D01*
X105976022Y-77012110D01*
X105904888Y-76905649D01*
X105814351Y-76815112D01*
X105707890Y-76743978D01*
X105589598Y-76694979D01*
X105464019Y-76670000D01*
X105335981Y-76670000D01*
X105210402Y-76694979D01*
X105092110Y-76743978D01*
X104985649Y-76815112D01*
X104895112Y-76905649D01*
X104823978Y-77012110D01*
X104774979Y-77130402D01*
X104750000Y-77255981D01*
X99950500Y-77255981D01*
X99950500Y-75975205D01*
X103800000Y-75975205D01*
X103800000Y-76570000D01*
X104650000Y-76570000D01*
X106150000Y-76570000D01*
X106999999Y-76570000D01*
X106999999Y-75975214D01*
X106999997Y-75975191D01*
X106997091Y-75950130D01*
X106997090Y-75950126D01*
X106951788Y-75847525D01*
X106951785Y-75847520D01*
X106872479Y-75768214D01*
X106872474Y-75768211D01*
X106769876Y-75722910D01*
X106744794Y-75720000D01*
X106150000Y-75720000D01*
X106150000Y-76570000D01*
X104650000Y-76570000D01*
X104650000Y-75720000D01*
X104055214Y-75720000D01*
X104055191Y-75720002D01*
X104030130Y-75722908D01*
X104030126Y-75722909D01*
X103927525Y-75768211D01*
X103927520Y-75768214D01*
X103848214Y-75847520D01*
X103848211Y-75847525D01*
X103802910Y-75950122D01*
X103802910Y-75950124D01*
X103800000Y-75975205D01*
X99950500Y-75975205D01*
X99950500Y-74114195D01*
X156352393Y-74114195D01*
X156352393Y-74114204D01*
X156372790Y-74386402D01*
X156372791Y-74386407D01*
X156433531Y-74652529D01*
X156433537Y-74652548D01*
X156533264Y-74906648D01*
X156533263Y-74906648D01*
X156619793Y-75056521D01*
X156669752Y-75143052D01*
X156807218Y-75315428D01*
X156839952Y-75356476D01*
X157028850Y-75531746D01*
X157040054Y-75542142D01*
X157265597Y-75695915D01*
X157265602Y-75695917D01*
X157265603Y-75695918D01*
X157265604Y-75695919D01*
X157396223Y-75758821D01*
X157511535Y-75814352D01*
X157511536Y-75814352D01*
X157511539Y-75814354D01*
X157772386Y-75894815D01*
X158042312Y-75935500D01*
X158042313Y-75935500D01*
X158315287Y-75935500D01*
X158315288Y-75935500D01*
X158585214Y-75894815D01*
X158846061Y-75814354D01*
X159092004Y-75695915D01*
X159317546Y-75542142D01*
X159517651Y-75356472D01*
X159687848Y-75143052D01*
X159824336Y-74906648D01*
X159924065Y-74652543D01*
X159984808Y-74386412D01*
X160005207Y-74114200D01*
X159984808Y-73841988D01*
X159924065Y-73575857D01*
X159824336Y-73321752D01*
X159824335Y-73321751D01*
X159824336Y-73321751D01*
X159774377Y-73235221D01*
X159687848Y-73085348D01*
X159517651Y-72871928D01*
X159517650Y-72871927D01*
X159517647Y-72871923D01*
X159388724Y-72752301D01*
X159317546Y-72686258D01*
X159092004Y-72532485D01*
X159092003Y-72532484D01*
X159091996Y-72532480D01*
X158846063Y-72414047D01*
X158846065Y-72414047D01*
X158585222Y-72333587D01*
X158585218Y-72333586D01*
X158585214Y-72333585D01*
X158455373Y-72314014D01*
X158315293Y-72292900D01*
X158315288Y-72292900D01*
X158042312Y-72292900D01*
X158042306Y-72292900D01*
X157874208Y-72318237D01*
X157772386Y-72333585D01*
X157772383Y-72333586D01*
X157772377Y-72333587D01*
X157511535Y-72414047D01*
X157265604Y-72532480D01*
X157265603Y-72532481D01*
X157040053Y-72686258D01*
X156839952Y-72871923D01*
X156669752Y-73085348D01*
X156533264Y-73321751D01*
X156433537Y-73575851D01*
X156433531Y-73575870D01*
X156372791Y-73841992D01*
X156372790Y-73841997D01*
X156352393Y-74114195D01*
X99950500Y-74114195D01*
X99950500Y-65524500D01*
X99970185Y-65457461D01*
X100022989Y-65411706D01*
X100074500Y-65400500D01*
X103392829Y-65400500D01*
X103459868Y-65420185D01*
G37*
%TD.AperFunction*%
%TD*%
M02*
