%TF.GenerationSoftware,KiCad,Pcbnew,8.0.4*%
%TF.CreationDate,2025-06-09T12:47:20-04:00*%
%TF.ProjectId,car-battery-reverse-polarity-protection,6361722d-6261-4747-9465-72792d726576,rev?*%
%TF.SameCoordinates,Original*%
%TF.FileFunction,Copper,L1,Top*%
%TF.FilePolarity,Positive*%
%FSLAX46Y46*%
G04 Gerber Fmt 4.6, Leading zero omitted, Abs format (unit mm)*
G04 Created by KiCad (PCBNEW 8.0.4) date 2025-06-09 12:47:20*
%MOMM*%
%LPD*%
G01*
G04 APERTURE LIST*
%TA.AperFunction,ComponentPad*%
%ADD10C,6.400000*%
%TD*%
%TA.AperFunction,ComponentPad*%
%ADD11C,2.641600*%
%TD*%
%TA.AperFunction,ComponentPad*%
%ADD12C,1.676400*%
%TD*%
%TA.AperFunction,SMDPad,CuDef*%
%ADD13R,2.514600X2.260600*%
%TD*%
%TA.AperFunction,ComponentPad*%
%ADD14R,2.600000X2.600000*%
%TD*%
%TA.AperFunction,ComponentPad*%
%ADD15C,2.600000*%
%TD*%
%TA.AperFunction,ViaPad*%
%ADD16C,1.000000*%
%TD*%
%TA.AperFunction,Conductor*%
%ADD17C,2.000000*%
%TD*%
G04 APERTURE END LIST*
D10*
%TO.P,H5,1,1*%
%TO.N,GND*%
X104000000Y-106300000D03*
%TD*%
D11*
%TO.P,K1,13*%
%TO.N,GND*%
X140398800Y-84274200D03*
%TO.P,K1,14*%
%TO.N,/relay_load_terminal*%
X158178800Y-81734200D03*
D12*
%TO.P,K1,A1*%
%TO.N,/relay_coil*%
X154368800Y-96974200D03*
%TO.P,K1,A2*%
%TO.N,GND*%
X144208800Y-96974200D03*
D11*
%TO.P,K1,NC*%
%TO.N,N/C*%
X158178800Y-74114200D03*
%TD*%
D10*
%TO.P,H1,1,1*%
%TO.N,GND*%
X169000000Y-69300000D03*
%TD*%
D13*
%TO.P,D1,1,K*%
%TO.N,/relay_coil*%
X130595500Y-91000000D03*
%TO.P,D1,2,A*%
%TO.N,GND*%
X126404500Y-91000000D03*
%TD*%
%TO.P,D2,1,K*%
%TO.N,/relay_coil*%
X130595500Y-84000000D03*
%TO.P,D2,2,A*%
%TO.N,+BATT*%
X126404500Y-84000000D03*
%TD*%
D14*
%TO.P,J1,1,Pin_1*%
%TO.N,GND*%
X105400000Y-77320000D03*
D15*
%TO.P,J1,2,Pin_2*%
%TO.N,+BATT*%
X105400000Y-82400000D03*
%TD*%
D10*
%TO.P,H2,1,1*%
%TO.N,GND*%
X169000000Y-106300000D03*
%TD*%
D15*
%TO.P,J2,2,Pin_2*%
%TO.N,/relay_load_terminal*%
X105400000Y-96400000D03*
D14*
%TO.P,J2,1,Pin_1*%
%TO.N,+BATT*%
X105400000Y-91320000D03*
%TD*%
D10*
%TO.P,H3,1,1*%
%TO.N,GND*%
X104000000Y-69300000D03*
%TD*%
D16*
%TO.N,GND*%
X168900000Y-88900000D03*
X158300000Y-69500000D03*
X111700000Y-69500000D03*
X102200000Y-77600000D03*
X123000000Y-88000000D03*
X108500000Y-77500000D03*
X105300000Y-74400000D03*
%TO.N,/relay_coil*%
X138000000Y-91000000D03*
%TD*%
D17*
%TO.N,GND*%
X126404500Y-91000000D02*
X126000000Y-91000000D01*
X126000000Y-91000000D02*
X123000000Y-88000000D01*
%TO.N,/relay_coil*%
X130595500Y-91000000D02*
X138000000Y-91000000D01*
X130595500Y-84000000D02*
X130595500Y-91000000D01*
%TD*%
%TA.AperFunction,Conductor*%
%TO.N,GND*%
G36*
X103459868Y-65420185D02*
G01*
X103505623Y-65472989D01*
X103515567Y-65542147D01*
X103486542Y-65605703D01*
X103427764Y-65643477D01*
X103412227Y-65646973D01*
X103229676Y-65675886D01*
X103229669Y-65675887D01*
X102855063Y-65776262D01*
X102493005Y-65915244D01*
X102147456Y-66091310D01*
X101822206Y-66302531D01*
X101564648Y-66511095D01*
X101564648Y-66511096D01*
X103059301Y-68005748D01*
X102957670Y-68079588D01*
X102779588Y-68257670D01*
X102705748Y-68359300D01*
X101211096Y-66864648D01*
X101211095Y-66864648D01*
X101002531Y-67122206D01*
X100791310Y-67447456D01*
X100615244Y-67793005D01*
X100476262Y-68155063D01*
X100375887Y-68529669D01*
X100375886Y-68529676D01*
X100315219Y-68912712D01*
X100294922Y-69299999D01*
X100294922Y-69300000D01*
X100315219Y-69687287D01*
X100375886Y-70070323D01*
X100375887Y-70070330D01*
X100476262Y-70444936D01*
X100615244Y-70806994D01*
X100791310Y-71152543D01*
X101002531Y-71477793D01*
X101211095Y-71735350D01*
X101211096Y-71735350D01*
X102705748Y-70240698D01*
X102779588Y-70342330D01*
X102957670Y-70520412D01*
X103059300Y-70594251D01*
X101564648Y-72088903D01*
X101564649Y-72088904D01*
X101822206Y-72297468D01*
X102147456Y-72508689D01*
X102493005Y-72684755D01*
X102855063Y-72823737D01*
X103229669Y-72924112D01*
X103229676Y-72924113D01*
X103612712Y-72984780D01*
X103999999Y-73005078D01*
X104000001Y-73005078D01*
X104387287Y-72984780D01*
X104770323Y-72924113D01*
X104770330Y-72924112D01*
X105144936Y-72823737D01*
X105506994Y-72684755D01*
X105852543Y-72508689D01*
X106177783Y-72297476D01*
X106177785Y-72297475D01*
X106435349Y-72088902D01*
X104940698Y-70594251D01*
X105042330Y-70520412D01*
X105220412Y-70342330D01*
X105294251Y-70240698D01*
X106788902Y-71735349D01*
X106997475Y-71477785D01*
X106997476Y-71477783D01*
X107208689Y-71152543D01*
X107384755Y-70806994D01*
X107523737Y-70444936D01*
X107624112Y-70070330D01*
X107624113Y-70070323D01*
X107684780Y-69687287D01*
X107705078Y-69300000D01*
X107705078Y-69299999D01*
X107684780Y-68912712D01*
X107624113Y-68529676D01*
X107624112Y-68529669D01*
X107523737Y-68155063D01*
X107384755Y-67793005D01*
X107208689Y-67447456D01*
X106997468Y-67122206D01*
X106788904Y-66864649D01*
X106788903Y-66864648D01*
X105294251Y-68359300D01*
X105220412Y-68257670D01*
X105042330Y-68079588D01*
X104940698Y-68005748D01*
X106435350Y-66511096D01*
X106435350Y-66511095D01*
X106177793Y-66302531D01*
X105852543Y-66091310D01*
X105506994Y-65915244D01*
X105144936Y-65776262D01*
X104770330Y-65675887D01*
X104770323Y-65675886D01*
X104587773Y-65646973D01*
X104524638Y-65617044D01*
X104487707Y-65557732D01*
X104488705Y-65487870D01*
X104527315Y-65429637D01*
X104591278Y-65401523D01*
X104607171Y-65400500D01*
X168392829Y-65400500D01*
X168459868Y-65420185D01*
X168505623Y-65472989D01*
X168515567Y-65542147D01*
X168486542Y-65605703D01*
X168427764Y-65643477D01*
X168412227Y-65646973D01*
X168229676Y-65675886D01*
X168229669Y-65675887D01*
X167855063Y-65776262D01*
X167493005Y-65915244D01*
X167147456Y-66091310D01*
X166822206Y-66302531D01*
X166564648Y-66511095D01*
X166564648Y-66511096D01*
X168059301Y-68005748D01*
X167957670Y-68079588D01*
X167779588Y-68257670D01*
X167705748Y-68359300D01*
X166211096Y-66864648D01*
X166211095Y-66864648D01*
X166002531Y-67122206D01*
X165791310Y-67447456D01*
X165615244Y-67793005D01*
X165476262Y-68155063D01*
X165375887Y-68529669D01*
X165375886Y-68529676D01*
X165315219Y-68912712D01*
X165294922Y-69299999D01*
X165294922Y-69300000D01*
X165315219Y-69687287D01*
X165375886Y-70070323D01*
X165375887Y-70070330D01*
X165476262Y-70444936D01*
X165615244Y-70806994D01*
X165791310Y-71152543D01*
X166002531Y-71477793D01*
X166211095Y-71735350D01*
X166211096Y-71735350D01*
X167705748Y-70240698D01*
X167779588Y-70342330D01*
X167957670Y-70520412D01*
X168059300Y-70594251D01*
X166564648Y-72088903D01*
X166564649Y-72088904D01*
X166822206Y-72297468D01*
X167147456Y-72508689D01*
X167493005Y-72684755D01*
X167855063Y-72823737D01*
X168229669Y-72924112D01*
X168229676Y-72924113D01*
X168612712Y-72984780D01*
X168999999Y-73005078D01*
X169000001Y-73005078D01*
X169387287Y-72984780D01*
X169770323Y-72924113D01*
X169770330Y-72924112D01*
X170144936Y-72823737D01*
X170506994Y-72684755D01*
X170852543Y-72508689D01*
X171177783Y-72297476D01*
X171177785Y-72297475D01*
X171435349Y-72088902D01*
X169940698Y-70594251D01*
X170042330Y-70520412D01*
X170220412Y-70342330D01*
X170294251Y-70240698D01*
X171788902Y-71735349D01*
X171997475Y-71477785D01*
X171997476Y-71477783D01*
X172208689Y-71152543D01*
X172384755Y-70806994D01*
X172523737Y-70444936D01*
X172624112Y-70070330D01*
X172624113Y-70070323D01*
X172684780Y-69687287D01*
X172705078Y-69300000D01*
X172705078Y-69299999D01*
X172684780Y-68912712D01*
X172624113Y-68529676D01*
X172624112Y-68529669D01*
X172523737Y-68155063D01*
X172384755Y-67793005D01*
X172208689Y-67447456D01*
X171997468Y-67122206D01*
X171788904Y-66864649D01*
X171788903Y-66864648D01*
X170294251Y-68359300D01*
X170220412Y-68257670D01*
X170042330Y-68079588D01*
X169940698Y-68005748D01*
X171435350Y-66511096D01*
X171435350Y-66511095D01*
X171177793Y-66302531D01*
X170852543Y-66091310D01*
X170506994Y-65915244D01*
X170144936Y-65776262D01*
X169770330Y-65675887D01*
X169770323Y-65675886D01*
X169587773Y-65646973D01*
X169524638Y-65617044D01*
X169487707Y-65557732D01*
X169488705Y-65487870D01*
X169527315Y-65429637D01*
X169591278Y-65401523D01*
X169607171Y-65400500D01*
X173025500Y-65400500D01*
X173092539Y-65420185D01*
X173138294Y-65472989D01*
X173149500Y-65524500D01*
X173149500Y-110075500D01*
X173129815Y-110142539D01*
X173077011Y-110188294D01*
X173025500Y-110199500D01*
X169607171Y-110199500D01*
X169540132Y-110179815D01*
X169494377Y-110127011D01*
X169484433Y-110057853D01*
X169513458Y-109994297D01*
X169572236Y-109956523D01*
X169587773Y-109953027D01*
X169770323Y-109924113D01*
X169770330Y-109924112D01*
X170144936Y-109823737D01*
X170506994Y-109684755D01*
X170852543Y-109508689D01*
X171177783Y-109297476D01*
X171177785Y-109297475D01*
X171435349Y-109088902D01*
X169940698Y-107594251D01*
X170042330Y-107520412D01*
X170220412Y-107342330D01*
X170294251Y-107240698D01*
X171788902Y-108735349D01*
X171997475Y-108477785D01*
X171997476Y-108477783D01*
X172208689Y-108152543D01*
X172384755Y-107806994D01*
X172523737Y-107444936D01*
X172624112Y-107070330D01*
X172624113Y-107070323D01*
X172684780Y-106687287D01*
X172705078Y-106300000D01*
X172705078Y-106299999D01*
X172684780Y-105912712D01*
X172624113Y-105529676D01*
X172624112Y-105529669D01*
X172523737Y-105155063D01*
X172384755Y-104793005D01*
X172208689Y-104447456D01*
X171997468Y-104122206D01*
X171788904Y-103864649D01*
X171788903Y-103864648D01*
X170294251Y-105359300D01*
X170220412Y-105257670D01*
X170042330Y-105079588D01*
X169940698Y-105005748D01*
X171435350Y-103511096D01*
X171435350Y-103511095D01*
X171177793Y-103302531D01*
X170852543Y-103091310D01*
X170506994Y-102915244D01*
X170144936Y-102776262D01*
X169770330Y-102675887D01*
X169770323Y-102675886D01*
X169387287Y-102615219D01*
X169000001Y-102594922D01*
X168999999Y-102594922D01*
X168612712Y-102615219D01*
X168229676Y-102675886D01*
X168229669Y-102675887D01*
X167855063Y-102776262D01*
X167493005Y-102915244D01*
X167147456Y-103091310D01*
X166822206Y-103302531D01*
X166564648Y-103511095D01*
X166564648Y-103511096D01*
X168059301Y-105005748D01*
X167957670Y-105079588D01*
X167779588Y-105257670D01*
X167705748Y-105359300D01*
X166211096Y-103864648D01*
X166211095Y-103864648D01*
X166002531Y-104122206D01*
X165791310Y-104447456D01*
X165615244Y-104793005D01*
X165476262Y-105155063D01*
X165375887Y-105529669D01*
X165375886Y-105529676D01*
X165315219Y-105912712D01*
X165294922Y-106299999D01*
X165294922Y-106300000D01*
X165315219Y-106687287D01*
X165375886Y-107070323D01*
X165375887Y-107070330D01*
X165476262Y-107444936D01*
X165615244Y-107806994D01*
X165791310Y-108152543D01*
X166002531Y-108477793D01*
X166211095Y-108735350D01*
X166211096Y-108735350D01*
X167705748Y-107240698D01*
X167779588Y-107342330D01*
X167957670Y-107520412D01*
X168059300Y-107594251D01*
X166564648Y-109088903D01*
X166564649Y-109088904D01*
X166822206Y-109297468D01*
X167147456Y-109508689D01*
X167493005Y-109684755D01*
X167855063Y-109823737D01*
X168229669Y-109924112D01*
X168229676Y-109924113D01*
X168412227Y-109953027D01*
X168475362Y-109982956D01*
X168512293Y-110042268D01*
X168511295Y-110112130D01*
X168472685Y-110170363D01*
X168408722Y-110198477D01*
X168392829Y-110199500D01*
X163950496Y-110199500D01*
X163883457Y-110179815D01*
X163837702Y-110127011D01*
X163826502Y-110076728D01*
X163500000Y-77100000D01*
X135700000Y-77100000D01*
X135700000Y-79076299D01*
X135680315Y-79143338D01*
X135627511Y-79189093D01*
X135576300Y-79200299D01*
X100074800Y-79286259D01*
X100007713Y-79266736D01*
X99961831Y-79214043D01*
X99950500Y-79162259D01*
X99950500Y-78664785D01*
X103800001Y-78664785D01*
X103800002Y-78664808D01*
X103802908Y-78689869D01*
X103802909Y-78689873D01*
X103848211Y-78792474D01*
X103848214Y-78792479D01*
X103927520Y-78871785D01*
X103927525Y-78871788D01*
X104030123Y-78917089D01*
X104055206Y-78919999D01*
X104649999Y-78919999D01*
X106150000Y-78919999D01*
X106744786Y-78919999D01*
X106744808Y-78919997D01*
X106769869Y-78917091D01*
X106769873Y-78917090D01*
X106872474Y-78871788D01*
X106872479Y-78871785D01*
X106951785Y-78792479D01*
X106951788Y-78792474D01*
X106997089Y-78689877D01*
X106997089Y-78689875D01*
X106999999Y-78664794D01*
X107000000Y-78664791D01*
X107000000Y-78070000D01*
X106150000Y-78070000D01*
X106150000Y-78919999D01*
X104649999Y-78919999D01*
X104650000Y-78919998D01*
X104650000Y-78070000D01*
X103800001Y-78070000D01*
X103800001Y-78664785D01*
X99950500Y-78664785D01*
X99950500Y-77255981D01*
X104750000Y-77255981D01*
X104750000Y-77384019D01*
X104774979Y-77509598D01*
X104823978Y-77627890D01*
X104895112Y-77734351D01*
X104985649Y-77824888D01*
X105092110Y-77896022D01*
X105210402Y-77945021D01*
X105335981Y-77970000D01*
X105464019Y-77970000D01*
X105589598Y-77945021D01*
X105707890Y-77896022D01*
X105814351Y-77824888D01*
X105904888Y-77734351D01*
X105976022Y-77627890D01*
X106025021Y-77509598D01*
X106050000Y-77384019D01*
X106050000Y-77255981D01*
X106025021Y-77130402D01*
X105976022Y-77012110D01*
X105904888Y-76905649D01*
X105814351Y-76815112D01*
X105707890Y-76743978D01*
X105589598Y-76694979D01*
X105464019Y-76670000D01*
X105335981Y-76670000D01*
X105210402Y-76694979D01*
X105092110Y-76743978D01*
X104985649Y-76815112D01*
X104895112Y-76905649D01*
X104823978Y-77012110D01*
X104774979Y-77130402D01*
X104750000Y-77255981D01*
X99950500Y-77255981D01*
X99950500Y-75975205D01*
X103800000Y-75975205D01*
X103800000Y-76570000D01*
X104650000Y-76570000D01*
X106150000Y-76570000D01*
X106999999Y-76570000D01*
X106999999Y-75975214D01*
X106999997Y-75975191D01*
X106997091Y-75950130D01*
X106997090Y-75950126D01*
X106951788Y-75847525D01*
X106951785Y-75847520D01*
X106872479Y-75768214D01*
X106872474Y-75768211D01*
X106769876Y-75722910D01*
X106744794Y-75720000D01*
X106150000Y-75720000D01*
X106150000Y-76570000D01*
X104650000Y-76570000D01*
X104650000Y-75720000D01*
X104055214Y-75720000D01*
X104055191Y-75720002D01*
X104030130Y-75722908D01*
X104030126Y-75722909D01*
X103927525Y-75768211D01*
X103927520Y-75768214D01*
X103848214Y-75847520D01*
X103848211Y-75847525D01*
X103802910Y-75950122D01*
X103802910Y-75950124D01*
X103800000Y-75975205D01*
X99950500Y-75975205D01*
X99950500Y-74114195D01*
X156352393Y-74114195D01*
X156352393Y-74114204D01*
X156372790Y-74386402D01*
X156372791Y-74386407D01*
X156433531Y-74652529D01*
X156433537Y-74652548D01*
X156533264Y-74906648D01*
X156533263Y-74906648D01*
X156619793Y-75056521D01*
X156669752Y-75143052D01*
X156807218Y-75315428D01*
X156839952Y-75356476D01*
X157028850Y-75531746D01*
X157040054Y-75542142D01*
X157265597Y-75695915D01*
X157265602Y-75695917D01*
X157265603Y-75695918D01*
X157265604Y-75695919D01*
X157396223Y-75758821D01*
X157511535Y-75814352D01*
X157511536Y-75814352D01*
X157511539Y-75814354D01*
X157772386Y-75894815D01*
X158042312Y-75935500D01*
X158042313Y-75935500D01*
X158315287Y-75935500D01*
X158315288Y-75935500D01*
X158585214Y-75894815D01*
X158846061Y-75814354D01*
X159092004Y-75695915D01*
X159317546Y-75542142D01*
X159517651Y-75356472D01*
X159687848Y-75143052D01*
X159824336Y-74906648D01*
X159924065Y-74652543D01*
X159984808Y-74386412D01*
X160005207Y-74114200D01*
X159984808Y-73841988D01*
X159924065Y-73575857D01*
X159824336Y-73321752D01*
X159824335Y-73321751D01*
X159824336Y-73321751D01*
X159774377Y-73235221D01*
X159687848Y-73085348D01*
X159517651Y-72871928D01*
X159517650Y-72871927D01*
X159517647Y-72871923D01*
X159388724Y-72752301D01*
X159317546Y-72686258D01*
X159092004Y-72532485D01*
X159092003Y-72532484D01*
X159091996Y-72532480D01*
X158846063Y-72414047D01*
X158846065Y-72414047D01*
X158585222Y-72333587D01*
X158585218Y-72333586D01*
X158585214Y-72333585D01*
X158455373Y-72314014D01*
X158315293Y-72292900D01*
X158315288Y-72292900D01*
X158042312Y-72292900D01*
X158042306Y-72292900D01*
X157874208Y-72318237D01*
X157772386Y-72333585D01*
X157772383Y-72333586D01*
X157772377Y-72333587D01*
X157511535Y-72414047D01*
X157265604Y-72532480D01*
X157265603Y-72532481D01*
X157040053Y-72686258D01*
X156839952Y-72871923D01*
X156669752Y-73085348D01*
X156533264Y-73321751D01*
X156433537Y-73575851D01*
X156433531Y-73575870D01*
X156372791Y-73841992D01*
X156372790Y-73841997D01*
X156352393Y-74114195D01*
X99950500Y-74114195D01*
X99950500Y-65524500D01*
X99970185Y-65457461D01*
X100022989Y-65411706D01*
X100074500Y-65400500D01*
X103392829Y-65400500D01*
X103459868Y-65420185D01*
G37*
%TD.AperFunction*%
%TD*%
%TA.AperFunction,Conductor*%
%TO.N,/relay_load_terminal*%
G36*
X162943741Y-77625185D02*
G01*
X162989496Y-77677989D01*
X163000695Y-77728269D01*
X163267748Y-104700550D01*
X163283584Y-106299999D01*
X163320953Y-110074272D01*
X163301933Y-110141503D01*
X163249585Y-110187779D01*
X163196959Y-110199500D01*
X104610362Y-110199500D01*
X104543323Y-110179815D01*
X104497568Y-110127011D01*
X104487624Y-110057853D01*
X104516649Y-109994297D01*
X104575427Y-109956523D01*
X104590964Y-109953027D01*
X104597760Y-109951950D01*
X104770433Y-109924602D01*
X105145087Y-109824214D01*
X105507194Y-109685214D01*
X105852789Y-109509125D01*
X106178084Y-109297876D01*
X106479516Y-109053781D01*
X106753781Y-108779516D01*
X106997876Y-108478084D01*
X107209125Y-108152789D01*
X107385214Y-107807194D01*
X107524214Y-107445087D01*
X107624602Y-107070433D01*
X107685278Y-106687338D01*
X107705578Y-106300000D01*
X107685278Y-105912662D01*
X107624602Y-105529567D01*
X107524214Y-105154913D01*
X107385214Y-104792806D01*
X107209125Y-104447211D01*
X106997876Y-104121916D01*
X106753781Y-103820484D01*
X106479516Y-103546219D01*
X106178084Y-103302124D01*
X106178082Y-103302122D01*
X105852793Y-103090877D01*
X105507197Y-102914787D01*
X105145094Y-102775788D01*
X105145087Y-102775786D01*
X104770433Y-102675398D01*
X104770429Y-102675397D01*
X104770428Y-102675397D01*
X104387339Y-102614722D01*
X104000001Y-102594422D01*
X103999999Y-102594422D01*
X103612660Y-102614722D01*
X103229572Y-102675397D01*
X103229570Y-102675397D01*
X102854905Y-102775788D01*
X102492802Y-102914787D01*
X102147206Y-103090877D01*
X101821917Y-103302122D01*
X101520488Y-103546215D01*
X101520480Y-103546222D01*
X101246222Y-103820480D01*
X101246215Y-103820488D01*
X101002122Y-104121917D01*
X100790877Y-104447206D01*
X100614787Y-104792802D01*
X100475788Y-105154905D01*
X100375397Y-105529570D01*
X100375397Y-105529572D01*
X100314722Y-105912660D01*
X100294422Y-106299999D01*
X100314722Y-106687339D01*
X100338271Y-106836024D01*
X100375398Y-107070433D01*
X100407322Y-107189577D01*
X100475788Y-107445094D01*
X100614787Y-107807197D01*
X100790877Y-108152793D01*
X101002122Y-108478082D01*
X101002124Y-108478084D01*
X101246219Y-108779516D01*
X101520484Y-109053781D01*
X101520488Y-109053784D01*
X101821917Y-109297877D01*
X102076728Y-109463353D01*
X102147211Y-109509125D01*
X102492806Y-109685214D01*
X102854913Y-109824214D01*
X103229567Y-109924602D01*
X103399029Y-109951442D01*
X103409036Y-109953027D01*
X103472171Y-109982956D01*
X103509102Y-110042268D01*
X103508104Y-110112130D01*
X103469494Y-110170363D01*
X103405531Y-110198477D01*
X103389638Y-110199500D01*
X100074500Y-110199500D01*
X100007461Y-110179815D01*
X99961706Y-110127011D01*
X99950500Y-110075500D01*
X99950500Y-97932245D01*
X104928414Y-97932245D01*
X105148929Y-97985187D01*
X105400000Y-98004947D01*
X105651070Y-97985187D01*
X105871584Y-97932245D01*
X105400001Y-97460660D01*
X105400000Y-97460660D01*
X104928414Y-97932245D01*
X99950500Y-97932245D01*
X99950500Y-96400000D01*
X103795052Y-96400000D01*
X103814812Y-96651072D01*
X103867752Y-96871584D01*
X103867753Y-96871584D01*
X104339339Y-96400000D01*
X104275320Y-96335981D01*
X104750000Y-96335981D01*
X104750000Y-96464019D01*
X104774979Y-96589598D01*
X104823978Y-96707890D01*
X104895112Y-96814351D01*
X104985649Y-96904888D01*
X105092110Y-96976022D01*
X105210402Y-97025021D01*
X105335981Y-97050000D01*
X105464019Y-97050000D01*
X105589598Y-97025021D01*
X105707890Y-96976022D01*
X105710618Y-96974199D01*
X142864986Y-96974199D01*
X142864986Y-96974200D01*
X142885401Y-97207546D01*
X142885403Y-97207556D01*
X142946025Y-97433803D01*
X142946027Y-97433807D01*
X142946028Y-97433811D01*
X143045023Y-97646107D01*
X143179379Y-97837987D01*
X143345013Y-98003621D01*
X143536893Y-98137977D01*
X143749189Y-98236972D01*
X143975449Y-98297598D01*
X144162129Y-98313930D01*
X144208799Y-98318014D01*
X144208800Y-98318014D01*
X144208801Y-98318014D01*
X144247691Y-98314611D01*
X144442151Y-98297598D01*
X144668411Y-98236972D01*
X144880707Y-98137977D01*
X145072587Y-98003621D01*
X145238221Y-97837987D01*
X145372577Y-97646107D01*
X145471572Y-97433811D01*
X145532198Y-97207551D01*
X145552614Y-96974200D01*
X145552614Y-96974199D01*
X153024986Y-96974199D01*
X153024986Y-96974200D01*
X153045401Y-97207546D01*
X153045403Y-97207556D01*
X153106025Y-97433803D01*
X153106027Y-97433807D01*
X153106028Y-97433811D01*
X153205023Y-97646107D01*
X153339379Y-97837987D01*
X153505013Y-98003621D01*
X153696893Y-98137977D01*
X153909189Y-98236972D01*
X154135449Y-98297598D01*
X154322129Y-98313930D01*
X154368799Y-98318014D01*
X154368800Y-98318014D01*
X154368801Y-98318014D01*
X154407691Y-98314611D01*
X154602151Y-98297598D01*
X154828411Y-98236972D01*
X155040707Y-98137977D01*
X155232587Y-98003621D01*
X155398221Y-97837987D01*
X155532577Y-97646107D01*
X155631572Y-97433811D01*
X155692198Y-97207551D01*
X155712614Y-96974200D01*
X155692198Y-96740849D01*
X155631572Y-96514589D01*
X155532577Y-96302293D01*
X155398221Y-96110413D01*
X155232587Y-95944779D01*
X155040707Y-95810423D01*
X154828411Y-95711428D01*
X154828407Y-95711427D01*
X154828403Y-95711425D01*
X154602156Y-95650803D01*
X154602146Y-95650801D01*
X154368801Y-95630386D01*
X154368799Y-95630386D01*
X154135453Y-95650801D01*
X154135443Y-95650803D01*
X153909196Y-95711425D01*
X153909189Y-95711427D01*
X153909189Y-95711428D01*
X153696893Y-95810423D01*
X153505013Y-95944779D01*
X153505011Y-95944780D01*
X153505008Y-95944783D01*
X153339383Y-96110408D01*
X153339380Y-96110411D01*
X153339379Y-96110413D01*
X153312410Y-96148929D01*
X153205023Y-96302293D01*
X153106029Y-96514587D01*
X153106025Y-96514596D01*
X153045403Y-96740843D01*
X153045401Y-96740853D01*
X153024986Y-96974199D01*
X145552614Y-96974199D01*
X145532198Y-96740849D01*
X145471572Y-96514589D01*
X145372577Y-96302293D01*
X145238221Y-96110413D01*
X145072587Y-95944779D01*
X144880707Y-95810423D01*
X144668411Y-95711428D01*
X144668407Y-95711427D01*
X144668403Y-95711425D01*
X144442156Y-95650803D01*
X144442146Y-95650801D01*
X144208801Y-95630386D01*
X144208799Y-95630386D01*
X143975453Y-95650801D01*
X143975443Y-95650803D01*
X143749196Y-95711425D01*
X143749189Y-95711427D01*
X143749189Y-95711428D01*
X143536893Y-95810423D01*
X143345013Y-95944779D01*
X143345011Y-95944780D01*
X143345008Y-95944783D01*
X143179383Y-96110408D01*
X143179380Y-96110411D01*
X143179379Y-96110413D01*
X143152410Y-96148929D01*
X143045023Y-96302293D01*
X142946029Y-96514587D01*
X142946025Y-96514596D01*
X142885403Y-96740843D01*
X142885401Y-96740853D01*
X142864986Y-96974199D01*
X105710618Y-96974199D01*
X105814351Y-96904888D01*
X105904888Y-96814351D01*
X105976022Y-96707890D01*
X106025021Y-96589598D01*
X106050000Y-96464019D01*
X106050000Y-96400000D01*
X106460660Y-96400000D01*
X106932245Y-96871584D01*
X106985187Y-96651070D01*
X107004947Y-96400000D01*
X106985187Y-96148929D01*
X106932245Y-95928414D01*
X106460660Y-96400000D01*
X106050000Y-96400000D01*
X106050000Y-96335981D01*
X106025021Y-96210402D01*
X105976022Y-96092110D01*
X105904888Y-95985649D01*
X105814351Y-95895112D01*
X105707890Y-95823978D01*
X105589598Y-95774979D01*
X105464019Y-95750000D01*
X105335981Y-95750000D01*
X105210402Y-95774979D01*
X105092110Y-95823978D01*
X104985649Y-95895112D01*
X104895112Y-95985649D01*
X104823978Y-96092110D01*
X104774979Y-96210402D01*
X104750000Y-96335981D01*
X104275320Y-96335981D01*
X103867753Y-95928414D01*
X103867752Y-95928414D01*
X103814812Y-96148927D01*
X103795052Y-96400000D01*
X99950500Y-96400000D01*
X99950500Y-94867752D01*
X104928414Y-94867752D01*
X104928414Y-94867753D01*
X105400000Y-95339339D01*
X105400001Y-95339339D01*
X105871584Y-94867753D01*
X105871584Y-94867752D01*
X105651072Y-94814812D01*
X105400000Y-94795052D01*
X105148927Y-94814812D01*
X104928414Y-94867752D01*
X99950500Y-94867752D01*
X99950500Y-94610954D01*
X99970185Y-94543915D01*
X100022989Y-94498160D01*
X100074194Y-94486954D01*
X135900000Y-94400000D01*
X135900000Y-92624500D01*
X135919685Y-92557461D01*
X135972489Y-92511706D01*
X136024000Y-92500500D01*
X138118097Y-92500500D01*
X138351368Y-92463553D01*
X138575992Y-92390568D01*
X138786433Y-92283343D01*
X138977510Y-92144517D01*
X139144517Y-91977510D01*
X139283343Y-91786433D01*
X139390568Y-91575992D01*
X139463553Y-91351368D01*
X139500500Y-91118097D01*
X139500500Y-90881902D01*
X139463553Y-90648631D01*
X139390566Y-90424003D01*
X139283342Y-90213566D01*
X139144517Y-90022490D01*
X138977510Y-89855483D01*
X138786433Y-89716657D01*
X138575996Y-89609433D01*
X138351368Y-89536446D01*
X138118097Y-89499500D01*
X138118092Y-89499500D01*
X136024000Y-89499500D01*
X135956961Y-89479815D01*
X135911206Y-89427011D01*
X135900000Y-89375500D01*
X135900000Y-84274195D01*
X138572393Y-84274195D01*
X138572393Y-84274204D01*
X138592790Y-84546402D01*
X138592791Y-84546407D01*
X138653531Y-84812529D01*
X138653537Y-84812548D01*
X138753264Y-85066648D01*
X138753263Y-85066648D01*
X138817652Y-85178172D01*
X138889752Y-85303052D01*
X139027218Y-85475428D01*
X139059952Y-85516476D01*
X139183164Y-85630799D01*
X139260054Y-85702142D01*
X139485597Y-85855915D01*
X139485602Y-85855917D01*
X139485603Y-85855918D01*
X139485604Y-85855919D01*
X139616223Y-85918821D01*
X139731535Y-85974352D01*
X139731536Y-85974352D01*
X139731539Y-85974354D01*
X139992386Y-86054815D01*
X140262312Y-86095500D01*
X140262313Y-86095500D01*
X140535287Y-86095500D01*
X140535288Y-86095500D01*
X140805214Y-86054815D01*
X141066061Y-85974354D01*
X141312004Y-85855915D01*
X141537546Y-85702142D01*
X141737651Y-85516472D01*
X141907848Y-85303052D01*
X142044336Y-85066648D01*
X142144065Y-84812543D01*
X142204808Y-84546412D01*
X142225207Y-84274200D01*
X142210709Y-84080738D01*
X142204809Y-84001997D01*
X142204808Y-84001992D01*
X142204808Y-84001988D01*
X142144065Y-83735857D01*
X142044336Y-83481752D01*
X142044335Y-83481751D01*
X142044336Y-83481751D01*
X141962493Y-83339996D01*
X141907848Y-83245348D01*
X141737651Y-83031928D01*
X141737650Y-83031927D01*
X141737647Y-83031923D01*
X141608724Y-82912301D01*
X141537546Y-82846258D01*
X141414281Y-82762217D01*
X141312007Y-82692487D01*
X141311996Y-82692480D01*
X141066063Y-82574047D01*
X141066065Y-82574047D01*
X140805222Y-82493587D01*
X140805218Y-82493586D01*
X140805214Y-82493585D01*
X140675373Y-82474014D01*
X140535293Y-82452900D01*
X140535288Y-82452900D01*
X140262312Y-82452900D01*
X140262306Y-82452900D01*
X140094208Y-82478237D01*
X139992386Y-82493585D01*
X139992383Y-82493586D01*
X139992377Y-82493587D01*
X139731535Y-82574047D01*
X139485604Y-82692480D01*
X139485603Y-82692481D01*
X139260053Y-82846258D01*
X139059952Y-83031923D01*
X138889752Y-83245348D01*
X138753264Y-83481751D01*
X138653537Y-83735851D01*
X138653531Y-83735870D01*
X138592791Y-84001992D01*
X138592790Y-84001997D01*
X138572393Y-84274195D01*
X135900000Y-84274195D01*
X135900000Y-81734200D01*
X156552988Y-81734200D01*
X156573003Y-81988529D01*
X156629302Y-82223035D01*
X156629303Y-82223035D01*
X157112000Y-81740339D01*
X157112000Y-81839271D01*
X157152996Y-82045374D01*
X157233414Y-82239519D01*
X157350162Y-82414245D01*
X157498755Y-82562838D01*
X157673481Y-82679586D01*
X157867626Y-82760004D01*
X158073729Y-82801000D01*
X158172660Y-82801000D01*
X157689963Y-83283694D01*
X157689963Y-83283695D01*
X157924472Y-83339996D01*
X158178800Y-83360011D01*
X158433127Y-83339996D01*
X158667635Y-83283695D01*
X158184941Y-82801000D01*
X158283871Y-82801000D01*
X158489974Y-82760004D01*
X158684119Y-82679586D01*
X158858845Y-82562838D01*
X159007438Y-82414245D01*
X159124186Y-82239519D01*
X159204604Y-82045374D01*
X159245600Y-81839271D01*
X159245600Y-81740340D01*
X159728295Y-82223035D01*
X159784596Y-81988527D01*
X159804611Y-81734200D01*
X159784596Y-81479872D01*
X159728295Y-81245363D01*
X159728294Y-81245363D01*
X159245600Y-81728058D01*
X159245600Y-81629129D01*
X159204604Y-81423026D01*
X159124186Y-81228881D01*
X159007438Y-81054155D01*
X158858845Y-80905562D01*
X158684119Y-80788814D01*
X158489974Y-80708396D01*
X158283871Y-80667400D01*
X158184941Y-80667400D01*
X158667635Y-80184703D01*
X158667635Y-80184702D01*
X158433129Y-80128403D01*
X158178800Y-80108388D01*
X157924470Y-80128403D01*
X157689963Y-80184702D01*
X157689963Y-80184703D01*
X158172660Y-80667400D01*
X158073729Y-80667400D01*
X157867626Y-80708396D01*
X157673481Y-80788814D01*
X157498755Y-80905562D01*
X157350162Y-81054155D01*
X157233414Y-81228881D01*
X157152996Y-81423026D01*
X157112000Y-81629129D01*
X157112000Y-81728060D01*
X156629303Y-81245363D01*
X156629302Y-81245363D01*
X156573003Y-81479870D01*
X156552988Y-81734200D01*
X135900000Y-81734200D01*
X135900000Y-79676456D01*
X135919685Y-79609417D01*
X135955139Y-79573962D01*
X135955000Y-79573776D01*
X135956296Y-79572805D01*
X135956961Y-79572140D01*
X135958543Y-79571124D01*
X136011347Y-79525369D01*
X136105567Y-79416635D01*
X136165338Y-79285758D01*
X136185023Y-79218719D01*
X136185024Y-79218715D01*
X136205500Y-79076299D01*
X136205500Y-77729500D01*
X136225185Y-77662461D01*
X136277989Y-77616706D01*
X136329500Y-77605500D01*
X162876702Y-77605500D01*
X162943741Y-77625185D01*
G37*
%TD.AperFunction*%
%TD*%
%TA.AperFunction,Conductor*%
%TO.N,+BATT*%
G36*
X135337287Y-79726064D02*
G01*
X135383169Y-79778757D01*
X135394500Y-79830541D01*
X135394500Y-89375500D01*
X135374815Y-89442539D01*
X135322011Y-89488294D01*
X135270500Y-89499500D01*
X132234714Y-89499500D01*
X132167675Y-89479815D01*
X132160398Y-89474763D01*
X132145684Y-89463747D01*
X132103816Y-89407811D01*
X132096000Y-89364484D01*
X132096000Y-85635514D01*
X132115685Y-85568475D01*
X132145685Y-85536250D01*
X132210346Y-85487846D01*
X132296596Y-85372631D01*
X132346891Y-85237783D01*
X132353300Y-85178173D01*
X132353299Y-82821828D01*
X132346891Y-82762217D01*
X132326628Y-82707890D01*
X132296597Y-82627371D01*
X132296593Y-82627364D01*
X132210347Y-82512155D01*
X132210344Y-82512152D01*
X132095135Y-82425906D01*
X132095128Y-82425902D01*
X131960282Y-82375608D01*
X131960283Y-82375608D01*
X131900683Y-82369201D01*
X131900681Y-82369200D01*
X131900673Y-82369200D01*
X131900665Y-82369200D01*
X129411400Y-82369200D01*
X129344361Y-82349515D01*
X129298606Y-82296711D01*
X129287400Y-82245200D01*
X129287400Y-82069600D01*
X127712600Y-82069600D01*
X127712600Y-82445700D01*
X127692915Y-82512739D01*
X127640111Y-82558494D01*
X127588600Y-82569700D01*
X127154500Y-82569700D01*
X127154500Y-85430299D01*
X127588600Y-85430299D01*
X127655639Y-85449984D01*
X127701394Y-85502788D01*
X127712600Y-85554299D01*
X127712600Y-85930400D01*
X128971000Y-85930400D01*
X129038039Y-85950085D01*
X129083794Y-86002889D01*
X129095000Y-86054400D01*
X129095000Y-88945600D01*
X129075315Y-89012639D01*
X129022511Y-89058394D01*
X128971000Y-89069600D01*
X127712600Y-89069600D01*
X127712600Y-89245200D01*
X127692915Y-89312239D01*
X127640111Y-89357994D01*
X127588600Y-89369200D01*
X126542590Y-89369200D01*
X126475551Y-89349515D01*
X126454909Y-89332881D01*
X123977512Y-86855485D01*
X123977511Y-86855484D01*
X123786434Y-86716657D01*
X123575996Y-86609433D01*
X123351368Y-86536446D01*
X123118097Y-86499500D01*
X123118092Y-86499500D01*
X122881908Y-86499500D01*
X122881903Y-86499500D01*
X122648631Y-86536446D01*
X122424003Y-86609433D01*
X122213565Y-86716657D01*
X122022488Y-86855484D01*
X121855484Y-87022488D01*
X121716657Y-87213565D01*
X121609433Y-87424003D01*
X121536446Y-87648631D01*
X121499500Y-87881902D01*
X121499500Y-88118097D01*
X121536446Y-88351368D01*
X121609433Y-88575996D01*
X121716657Y-88786434D01*
X121855484Y-88977511D01*
X121855485Y-88977512D01*
X124610381Y-91732409D01*
X124643866Y-91793732D01*
X124646700Y-91820090D01*
X124646700Y-92178169D01*
X124646701Y-92178176D01*
X124653108Y-92237783D01*
X124703402Y-92372628D01*
X124703406Y-92372635D01*
X124789652Y-92487844D01*
X124789655Y-92487847D01*
X124904864Y-92574093D01*
X124904871Y-92574097D01*
X125039717Y-92624391D01*
X125039716Y-92624391D01*
X125046644Y-92625135D01*
X125099327Y-92630800D01*
X127588600Y-92630799D01*
X127655639Y-92650484D01*
X127701394Y-92703287D01*
X127712600Y-92754799D01*
X127712600Y-92930400D01*
X129287400Y-92930400D01*
X129287400Y-92754799D01*
X129307085Y-92687760D01*
X129359889Y-92642005D01*
X129411395Y-92630799D01*
X131900672Y-92630799D01*
X131960283Y-92624391D01*
X132095131Y-92574096D01*
X132160402Y-92525233D01*
X132225865Y-92500816D01*
X132234713Y-92500500D01*
X135270500Y-92500500D01*
X135337539Y-92520185D01*
X135383294Y-92572989D01*
X135394500Y-92624500D01*
X135394500Y-93772024D01*
X135374815Y-93839063D01*
X135322011Y-93884818D01*
X135270801Y-93896024D01*
X100074801Y-93981450D01*
X100007714Y-93961928D01*
X99961831Y-93909235D01*
X99950500Y-93857450D01*
X99950500Y-92664785D01*
X103800001Y-92664785D01*
X103800002Y-92664808D01*
X103802908Y-92689869D01*
X103802909Y-92689873D01*
X103848211Y-92792474D01*
X103848214Y-92792479D01*
X103927520Y-92871785D01*
X103927525Y-92871788D01*
X104030123Y-92917089D01*
X104055206Y-92919999D01*
X104649999Y-92919999D01*
X106150000Y-92919999D01*
X106744786Y-92919999D01*
X106744808Y-92919997D01*
X106769869Y-92917091D01*
X106769873Y-92917090D01*
X106872474Y-92871788D01*
X106872479Y-92871785D01*
X106951785Y-92792479D01*
X106951788Y-92792474D01*
X106997089Y-92689877D01*
X106997089Y-92689875D01*
X106999999Y-92664794D01*
X107000000Y-92664791D01*
X107000000Y-92070000D01*
X106150000Y-92070000D01*
X106150000Y-92919999D01*
X104649999Y-92919999D01*
X104650000Y-92919998D01*
X104650000Y-92070000D01*
X103800001Y-92070000D01*
X103800001Y-92664785D01*
X99950500Y-92664785D01*
X99950500Y-91255981D01*
X104750000Y-91255981D01*
X104750000Y-91384019D01*
X104774979Y-91509598D01*
X104823978Y-91627890D01*
X104895112Y-91734351D01*
X104985649Y-91824888D01*
X105092110Y-91896022D01*
X105210402Y-91945021D01*
X105335981Y-91970000D01*
X105464019Y-91970000D01*
X105589598Y-91945021D01*
X105707890Y-91896022D01*
X105814351Y-91824888D01*
X105904888Y-91734351D01*
X105976022Y-91627890D01*
X106025021Y-91509598D01*
X106050000Y-91384019D01*
X106050000Y-91255981D01*
X106025021Y-91130402D01*
X105976022Y-91012110D01*
X105904888Y-90905649D01*
X105814351Y-90815112D01*
X105707890Y-90743978D01*
X105589598Y-90694979D01*
X105464019Y-90670000D01*
X105335981Y-90670000D01*
X105210402Y-90694979D01*
X105092110Y-90743978D01*
X104985649Y-90815112D01*
X104895112Y-90905649D01*
X104823978Y-91012110D01*
X104774979Y-91130402D01*
X104750000Y-91255981D01*
X99950500Y-91255981D01*
X99950500Y-89975205D01*
X103800000Y-89975205D01*
X103800000Y-90570000D01*
X104650000Y-90570000D01*
X106150000Y-90570000D01*
X106999999Y-90570000D01*
X106999999Y-89975214D01*
X106999997Y-89975191D01*
X106997091Y-89950130D01*
X106997090Y-89950126D01*
X106951788Y-89847525D01*
X106951785Y-89847520D01*
X106872479Y-89768214D01*
X106872474Y-89768211D01*
X106769876Y-89722910D01*
X106744794Y-89720000D01*
X106150000Y-89720000D01*
X106150000Y-90570000D01*
X104650000Y-90570000D01*
X104650000Y-89720000D01*
X104055214Y-89720000D01*
X104055191Y-89720002D01*
X104030130Y-89722908D01*
X104030126Y-89722909D01*
X103927525Y-89768211D01*
X103927520Y-89768214D01*
X103848214Y-89847520D01*
X103848211Y-89847525D01*
X103802910Y-89950122D01*
X103802910Y-89950124D01*
X103800000Y-89975205D01*
X99950500Y-89975205D01*
X99950500Y-85175085D01*
X124847201Y-85175085D01*
X124847202Y-85175108D01*
X124850108Y-85200169D01*
X124850109Y-85200173D01*
X124895411Y-85302774D01*
X124895414Y-85302779D01*
X124974720Y-85382085D01*
X124974725Y-85382088D01*
X125077323Y-85427389D01*
X125102406Y-85430299D01*
X125654499Y-85430299D01*
X125654500Y-85430298D01*
X125654500Y-84750000D01*
X124847201Y-84750000D01*
X124847201Y-85175085D01*
X99950500Y-85175085D01*
X99950500Y-84165109D01*
X104695549Y-84165109D01*
X104863347Y-84227694D01*
X105128902Y-84285462D01*
X105128909Y-84285463D01*
X105399999Y-84304853D01*
X105400001Y-84304853D01*
X105671090Y-84285463D01*
X105671097Y-84285462D01*
X105936652Y-84227694D01*
X106104449Y-84165110D01*
X106104449Y-84165109D01*
X105400001Y-83460660D01*
X105400000Y-83460660D01*
X104695549Y-84165109D01*
X99950500Y-84165109D01*
X99950500Y-82399998D01*
X103495147Y-82399998D01*
X103495147Y-82400001D01*
X103514536Y-82671090D01*
X103514537Y-82671097D01*
X103572306Y-82936657D01*
X103634889Y-83104448D01*
X103634890Y-83104449D01*
X104339339Y-82400000D01*
X104339339Y-82399999D01*
X104275321Y-82335981D01*
X104750000Y-82335981D01*
X104750000Y-82464019D01*
X104774979Y-82589598D01*
X104823978Y-82707890D01*
X104895112Y-82814351D01*
X104985649Y-82904888D01*
X105092110Y-82976022D01*
X105210402Y-83025021D01*
X105335981Y-83050000D01*
X105464019Y-83050000D01*
X105589598Y-83025021D01*
X105707890Y-82976022D01*
X105814351Y-82904888D01*
X105904888Y-82814351D01*
X105976022Y-82707890D01*
X106025021Y-82589598D01*
X106050000Y-82464019D01*
X106050000Y-82399999D01*
X106460660Y-82399999D01*
X106460660Y-82400000D01*
X107165109Y-83104449D01*
X107165110Y-83104449D01*
X107227694Y-82936652D01*
X107252003Y-82824905D01*
X124847200Y-82824905D01*
X124847200Y-83250000D01*
X125654500Y-83250000D01*
X125654500Y-82569700D01*
X125102414Y-82569700D01*
X125102391Y-82569702D01*
X125077330Y-82572608D01*
X125077326Y-82572609D01*
X124974725Y-82617911D01*
X124974720Y-82617914D01*
X124895414Y-82697220D01*
X124895411Y-82697225D01*
X124850110Y-82799822D01*
X124850110Y-82799824D01*
X124847200Y-82824905D01*
X107252003Y-82824905D01*
X107285462Y-82671097D01*
X107285463Y-82671090D01*
X107304853Y-82400001D01*
X107304853Y-82399998D01*
X107285463Y-82128909D01*
X107285462Y-82128902D01*
X107227694Y-81863347D01*
X107165109Y-81695549D01*
X106460660Y-82399999D01*
X106050000Y-82399999D01*
X106050000Y-82335981D01*
X106025021Y-82210402D01*
X105976022Y-82092110D01*
X105904888Y-81985649D01*
X105814351Y-81895112D01*
X105707890Y-81823978D01*
X105589598Y-81774979D01*
X105464019Y-81750000D01*
X105335981Y-81750000D01*
X105210402Y-81774979D01*
X105092110Y-81823978D01*
X104985649Y-81895112D01*
X104895112Y-81985649D01*
X104823978Y-82092110D01*
X104774979Y-82210402D01*
X104750000Y-82335981D01*
X104275321Y-82335981D01*
X103634889Y-81695550D01*
X103572307Y-81863339D01*
X103514537Y-82128902D01*
X103514536Y-82128909D01*
X103495147Y-82399998D01*
X99950500Y-82399998D01*
X99950500Y-80634889D01*
X104695550Y-80634889D01*
X105400000Y-81339339D01*
X105400001Y-81339339D01*
X106104449Y-80634890D01*
X106104448Y-80634889D01*
X105936657Y-80572306D01*
X105671097Y-80514537D01*
X105671090Y-80514536D01*
X105400001Y-80495147D01*
X105399999Y-80495147D01*
X105128909Y-80514536D01*
X105128902Y-80514537D01*
X104863339Y-80572307D01*
X104695550Y-80634889D01*
X99950500Y-80634889D01*
X99950500Y-79915761D01*
X99970185Y-79848722D01*
X100022989Y-79802967D01*
X100074200Y-79791761D01*
X100076014Y-79791756D01*
X100076024Y-79791758D01*
X135270203Y-79706541D01*
X135337287Y-79726064D01*
G37*
%TD.AperFunction*%
%TD*%
M02*
