%TF.GenerationSoftware,KiCad,Pcbnew,8.0.9*%
%TF.CreationDate,2025-05-16T13:11:49-04:00*%
%TF.ProjectId,groundside-charging,67726f75-6e64-4736-9964-652d63686172,rev?*%
%TF.SameCoordinates,Original*%
%TF.FileFunction,Drillmap*%
%TF.FilePolarity,Positive*%
%FSLAX45Y45*%
G04 Gerber Fmt 4.5, Leading zero omitted, Abs format (unit mm)*
G04 Created by KiCad (PCBNEW 8.0.9) date 2025-05-16 13:11:49*
%MOMM*%
%LPD*%
G01*
G04 APERTURE LIST*
%ADD10C,0.100000*%
%ADD11C,0.200000*%
%ADD12C,0.130000*%
%ADD13C,0.320000*%
G04 APERTURE END LIST*
D10*
X6908800Y-9220200D02*
X10718800Y-9220200D01*
X11099800Y-15951200D02*
G75*
G02*
X10718800Y-16332200I-381000J0D01*
G01*
X11099800Y-15951200D02*
X11099800Y-9601200D01*
X10718800Y-9220200D02*
G75*
G02*
X11099800Y-9601200I0J-381000D01*
G01*
X6527800Y-9601200D02*
G75*
G02*
X6908800Y-9220200I381000J0D01*
G01*
X10718800Y-16332200D02*
X6908800Y-16332200D01*
X6908800Y-16332200D02*
G75*
G02*
X6527800Y-15951200I0J381000D01*
G01*
X6527800Y-15951200D02*
X6527800Y-9601200D01*
D11*
D10*
X7029450Y-11893550D02*
X7067550Y-11931650D01*
X7067550Y-11893550D02*
X7029450Y-11931650D01*
X7512050Y-12642850D02*
X7550150Y-12680950D01*
X7550150Y-12642850D02*
X7512050Y-12680950D01*
X8261350Y-12477750D02*
X8299450Y-12515850D01*
X8299450Y-12477750D02*
X8261350Y-12515850D01*
X8921750Y-11791950D02*
X8959850Y-11830050D01*
X8959850Y-11791950D02*
X8921750Y-11830050D01*
X10064750Y-11258550D02*
X10102850Y-11296650D01*
X10102850Y-11258550D02*
X10064750Y-11296650D01*
X10153650Y-11258550D02*
X10191750Y-11296650D01*
X10191750Y-11258550D02*
X10153650Y-11296650D01*
X10242550Y-11258550D02*
X10280650Y-11296650D01*
X10280650Y-11258550D02*
X10242550Y-11296650D01*
X10331450Y-11258550D02*
X10369550Y-11296650D01*
X10369550Y-11258550D02*
X10331450Y-11296650D01*
X10382250Y-10153650D02*
X10420350Y-10191750D01*
X10420350Y-10153650D02*
X10382250Y-10191750D01*
X10382250Y-10242550D02*
X10420350Y-10280650D01*
X10420350Y-10242550D02*
X10382250Y-10280650D01*
X10382250Y-10331450D02*
X10420350Y-10369550D01*
X10420350Y-10331450D02*
X10382250Y-10369550D01*
X10737850Y-10153650D02*
X10775950Y-10191750D01*
X10775950Y-10153650D02*
X10737850Y-10191750D01*
X10737850Y-10242550D02*
X10775950Y-10280650D01*
X10775950Y-10242550D02*
X10737850Y-10280650D01*
X10737850Y-10331450D02*
X10775950Y-10369550D01*
X10775950Y-10331450D02*
X10737850Y-10369550D01*
X6693800Y-9601200D02*
G75*
G02*
X6643800Y-9601200I-25000J0D01*
G01*
X6643800Y-9601200D02*
G75*
G02*
X6693800Y-9601200I25000J0D01*
G01*
X6693800Y-15951200D02*
G75*
G02*
X6643800Y-15951200I-25000J0D01*
G01*
X6643800Y-15951200D02*
G75*
G02*
X6693800Y-15951200I25000J0D01*
G01*
X6764094Y-9431494D02*
G75*
G02*
X6714094Y-9431494I-25000J0D01*
G01*
X6714094Y-9431494D02*
G75*
G02*
X6764094Y-9431494I25000J0D01*
G01*
X6764094Y-9770906D02*
G75*
G02*
X6714094Y-9770906I-25000J0D01*
G01*
X6714094Y-9770906D02*
G75*
G02*
X6764094Y-9770906I25000J0D01*
G01*
X6764094Y-15781494D02*
G75*
G02*
X6714094Y-15781494I-25000J0D01*
G01*
X6714094Y-15781494D02*
G75*
G02*
X6764094Y-15781494I25000J0D01*
G01*
X6764094Y-16120906D02*
G75*
G02*
X6714094Y-16120906I-25000J0D01*
G01*
X6714094Y-16120906D02*
G75*
G02*
X6764094Y-16120906I25000J0D01*
G01*
X6933800Y-9361200D02*
G75*
G02*
X6883800Y-9361200I-25000J0D01*
G01*
X6883800Y-9361200D02*
G75*
G02*
X6933800Y-9361200I25000J0D01*
G01*
X6933800Y-9841200D02*
G75*
G02*
X6883800Y-9841200I-25000J0D01*
G01*
X6883800Y-9841200D02*
G75*
G02*
X6933800Y-9841200I25000J0D01*
G01*
X6933800Y-15711200D02*
G75*
G02*
X6883800Y-15711200I-25000J0D01*
G01*
X6883800Y-15711200D02*
G75*
G02*
X6933800Y-15711200I25000J0D01*
G01*
X6933800Y-16191200D02*
G75*
G02*
X6883800Y-16191200I-25000J0D01*
G01*
X6883800Y-16191200D02*
G75*
G02*
X6933800Y-16191200I25000J0D01*
G01*
X7103506Y-9431494D02*
G75*
G02*
X7053506Y-9431494I-25000J0D01*
G01*
X7053506Y-9431494D02*
G75*
G02*
X7103506Y-9431494I25000J0D01*
G01*
X7103506Y-9770906D02*
G75*
G02*
X7053506Y-9770906I-25000J0D01*
G01*
X7053506Y-9770906D02*
G75*
G02*
X7103506Y-9770906I25000J0D01*
G01*
X7103506Y-15781494D02*
G75*
G02*
X7053506Y-15781494I-25000J0D01*
G01*
X7053506Y-15781494D02*
G75*
G02*
X7103506Y-15781494I25000J0D01*
G01*
X7103506Y-16120906D02*
G75*
G02*
X7053506Y-16120906I-25000J0D01*
G01*
X7053506Y-16120906D02*
G75*
G02*
X7103506Y-16120906I25000J0D01*
G01*
X7173800Y-9601200D02*
G75*
G02*
X7123800Y-9601200I-25000J0D01*
G01*
X7123800Y-9601200D02*
G75*
G02*
X7173800Y-9601200I25000J0D01*
G01*
X7173800Y-15951200D02*
G75*
G02*
X7123800Y-15951200I-25000J0D01*
G01*
X7123800Y-15951200D02*
G75*
G02*
X7173800Y-15951200I25000J0D01*
G01*
X10503800Y-9601200D02*
G75*
G02*
X10453800Y-9601200I-25000J0D01*
G01*
X10453800Y-9601200D02*
G75*
G02*
X10503800Y-9601200I25000J0D01*
G01*
X10503800Y-15951200D02*
G75*
G02*
X10453800Y-15951200I-25000J0D01*
G01*
X10453800Y-15951200D02*
G75*
G02*
X10503800Y-15951200I25000J0D01*
G01*
X10574094Y-9431494D02*
G75*
G02*
X10524094Y-9431494I-25000J0D01*
G01*
X10524094Y-9431494D02*
G75*
G02*
X10574094Y-9431494I25000J0D01*
G01*
X10574094Y-9770906D02*
G75*
G02*
X10524094Y-9770906I-25000J0D01*
G01*
X10524094Y-9770906D02*
G75*
G02*
X10574094Y-9770906I25000J0D01*
G01*
X10574094Y-15781494D02*
G75*
G02*
X10524094Y-15781494I-25000J0D01*
G01*
X10524094Y-15781494D02*
G75*
G02*
X10574094Y-15781494I25000J0D01*
G01*
X10574094Y-16120906D02*
G75*
G02*
X10524094Y-16120906I-25000J0D01*
G01*
X10524094Y-16120906D02*
G75*
G02*
X10574094Y-16120906I25000J0D01*
G01*
X10743800Y-9361200D02*
G75*
G02*
X10693800Y-9361200I-25000J0D01*
G01*
X10693800Y-9361200D02*
G75*
G02*
X10743800Y-9361200I25000J0D01*
G01*
X10743800Y-9841200D02*
G75*
G02*
X10693800Y-9841200I-25000J0D01*
G01*
X10693800Y-9841200D02*
G75*
G02*
X10743800Y-9841200I25000J0D01*
G01*
X10743800Y-15711200D02*
G75*
G02*
X10693800Y-15711200I-25000J0D01*
G01*
X10693800Y-15711200D02*
G75*
G02*
X10743800Y-15711200I25000J0D01*
G01*
X10743800Y-16191200D02*
G75*
G02*
X10693800Y-16191200I-25000J0D01*
G01*
X10693800Y-16191200D02*
G75*
G02*
X10743800Y-16191200I25000J0D01*
G01*
X10913506Y-9431494D02*
G75*
G02*
X10863506Y-9431494I-25000J0D01*
G01*
X10863506Y-9431494D02*
G75*
G02*
X10913506Y-9431494I25000J0D01*
G01*
X10913506Y-9770906D02*
G75*
G02*
X10863506Y-9770906I-25000J0D01*
G01*
X10863506Y-9770906D02*
G75*
G02*
X10913506Y-9770906I25000J0D01*
G01*
X10913506Y-15781494D02*
G75*
G02*
X10863506Y-15781494I-25000J0D01*
G01*
X10863506Y-15781494D02*
G75*
G02*
X10913506Y-15781494I25000J0D01*
G01*
X10913506Y-16120906D02*
G75*
G02*
X10863506Y-16120906I-25000J0D01*
G01*
X10863506Y-16120906D02*
G75*
G02*
X10913506Y-16120906I25000J0D01*
G01*
X10983800Y-9601200D02*
G75*
G02*
X10933800Y-9601200I-25000J0D01*
G01*
X10933800Y-9601200D02*
G75*
G02*
X10983800Y-9601200I25000J0D01*
G01*
X10983800Y-15951200D02*
G75*
G02*
X10933800Y-15951200I-25000J0D01*
G01*
X10933800Y-15951200D02*
G75*
G02*
X10983800Y-15951200I25000J0D01*
G01*
D12*
X7111200Y-10264100D02*
X7111200Y-10394100D01*
X7046200Y-10329100D02*
X7176200Y-10329100D01*
X7111200Y-10764100D02*
X7111200Y-10894100D01*
X7046200Y-10829100D02*
X7176200Y-10829100D01*
X8563800Y-9738600D02*
X8563800Y-9868600D01*
X8498800Y-9803600D02*
X8628800Y-9803600D01*
X8563800Y-15683800D02*
X8563800Y-15813800D01*
X8498800Y-15748800D02*
X8628800Y-15748800D01*
X9063800Y-9738600D02*
X9063800Y-9868600D01*
X8998800Y-9803600D02*
X9128800Y-9803600D01*
X9063800Y-15683800D02*
X9063800Y-15813800D01*
X8998800Y-15748800D02*
X9128800Y-15748800D01*
D13*
X7021938Y-9714338D02*
X7021938Y-9488062D01*
X6795662Y-9488062D01*
X6795662Y-9714338D01*
X7021938Y-9714338D01*
X7021938Y-16064338D02*
X7021938Y-15838062D01*
X6795662Y-15838062D01*
X6795662Y-16064338D01*
X7021938Y-16064338D01*
X10831938Y-9714338D02*
X10831938Y-9488062D01*
X10605662Y-9488062D01*
X10605662Y-9714338D01*
X10831938Y-9714338D01*
X10831938Y-16064338D02*
X10831938Y-15838062D01*
X10605662Y-15838062D01*
X10605662Y-16064338D01*
X10831938Y-16064338D01*
D11*
X6783577Y-16648684D02*
X6783577Y-16448684D01*
X6783577Y-16448684D02*
X6831196Y-16448684D01*
X6831196Y-16448684D02*
X6859767Y-16458208D01*
X6859767Y-16458208D02*
X6878815Y-16477255D01*
X6878815Y-16477255D02*
X6888339Y-16496303D01*
X6888339Y-16496303D02*
X6897862Y-16534398D01*
X6897862Y-16534398D02*
X6897862Y-16562969D01*
X6897862Y-16562969D02*
X6888339Y-16601065D01*
X6888339Y-16601065D02*
X6878815Y-16620112D01*
X6878815Y-16620112D02*
X6859767Y-16639160D01*
X6859767Y-16639160D02*
X6831196Y-16648684D01*
X6831196Y-16648684D02*
X6783577Y-16648684D01*
X6983577Y-16648684D02*
X6983577Y-16515350D01*
X6983577Y-16553446D02*
X6993101Y-16534398D01*
X6993101Y-16534398D02*
X7002624Y-16524874D01*
X7002624Y-16524874D02*
X7021672Y-16515350D01*
X7021672Y-16515350D02*
X7040720Y-16515350D01*
X7107386Y-16648684D02*
X7107386Y-16515350D01*
X7107386Y-16448684D02*
X7097862Y-16458208D01*
X7097862Y-16458208D02*
X7107386Y-16467731D01*
X7107386Y-16467731D02*
X7116910Y-16458208D01*
X7116910Y-16458208D02*
X7107386Y-16448684D01*
X7107386Y-16448684D02*
X7107386Y-16467731D01*
X7231196Y-16648684D02*
X7212148Y-16639160D01*
X7212148Y-16639160D02*
X7202624Y-16620112D01*
X7202624Y-16620112D02*
X7202624Y-16448684D01*
X7335958Y-16648684D02*
X7316910Y-16639160D01*
X7316910Y-16639160D02*
X7307386Y-16620112D01*
X7307386Y-16620112D02*
X7307386Y-16448684D01*
X7564529Y-16648684D02*
X7564529Y-16448684D01*
X7564529Y-16448684D02*
X7631196Y-16591541D01*
X7631196Y-16591541D02*
X7697862Y-16448684D01*
X7697862Y-16448684D02*
X7697862Y-16648684D01*
X7878815Y-16648684D02*
X7878815Y-16543922D01*
X7878815Y-16543922D02*
X7869291Y-16524874D01*
X7869291Y-16524874D02*
X7850243Y-16515350D01*
X7850243Y-16515350D02*
X7812148Y-16515350D01*
X7812148Y-16515350D02*
X7793101Y-16524874D01*
X7878815Y-16639160D02*
X7859767Y-16648684D01*
X7859767Y-16648684D02*
X7812148Y-16648684D01*
X7812148Y-16648684D02*
X7793101Y-16639160D01*
X7793101Y-16639160D02*
X7783577Y-16620112D01*
X7783577Y-16620112D02*
X7783577Y-16601065D01*
X7783577Y-16601065D02*
X7793101Y-16582017D01*
X7793101Y-16582017D02*
X7812148Y-16572493D01*
X7812148Y-16572493D02*
X7859767Y-16572493D01*
X7859767Y-16572493D02*
X7878815Y-16562969D01*
X7974053Y-16515350D02*
X7974053Y-16715350D01*
X7974053Y-16524874D02*
X7993101Y-16515350D01*
X7993101Y-16515350D02*
X8031196Y-16515350D01*
X8031196Y-16515350D02*
X8050243Y-16524874D01*
X8050243Y-16524874D02*
X8059767Y-16534398D01*
X8059767Y-16534398D02*
X8069291Y-16553446D01*
X8069291Y-16553446D02*
X8069291Y-16610588D01*
X8069291Y-16610588D02*
X8059767Y-16629636D01*
X8059767Y-16629636D02*
X8050243Y-16639160D01*
X8050243Y-16639160D02*
X8031196Y-16648684D01*
X8031196Y-16648684D02*
X7993101Y-16648684D01*
X7993101Y-16648684D02*
X7974053Y-16639160D01*
X8155005Y-16629636D02*
X8164529Y-16639160D01*
X8164529Y-16639160D02*
X8155005Y-16648684D01*
X8155005Y-16648684D02*
X8145482Y-16639160D01*
X8145482Y-16639160D02*
X8155005Y-16629636D01*
X8155005Y-16629636D02*
X8155005Y-16648684D01*
X8155005Y-16524874D02*
X8164529Y-16534398D01*
X8164529Y-16534398D02*
X8155005Y-16543922D01*
X8155005Y-16543922D02*
X8145482Y-16534398D01*
X8145482Y-16534398D02*
X8155005Y-16524874D01*
X8155005Y-16524874D02*
X8155005Y-16543922D01*
D10*
X6484700Y-16958150D02*
X6522800Y-16996250D01*
X6522800Y-16958150D02*
X6484700Y-16996250D01*
D11*
X6821672Y-16868684D02*
X6840720Y-16868684D01*
X6840720Y-16868684D02*
X6859767Y-16878208D01*
X6859767Y-16878208D02*
X6869291Y-16887731D01*
X6869291Y-16887731D02*
X6878815Y-16906779D01*
X6878815Y-16906779D02*
X6888339Y-16944874D01*
X6888339Y-16944874D02*
X6888339Y-16992493D01*
X6888339Y-16992493D02*
X6878815Y-17030589D01*
X6878815Y-17030589D02*
X6869291Y-17049636D01*
X6869291Y-17049636D02*
X6859767Y-17059160D01*
X6859767Y-17059160D02*
X6840720Y-17068684D01*
X6840720Y-17068684D02*
X6821672Y-17068684D01*
X6821672Y-17068684D02*
X6802624Y-17059160D01*
X6802624Y-17059160D02*
X6793101Y-17049636D01*
X6793101Y-17049636D02*
X6783577Y-17030589D01*
X6783577Y-17030589D02*
X6774053Y-16992493D01*
X6774053Y-16992493D02*
X6774053Y-16944874D01*
X6774053Y-16944874D02*
X6783577Y-16906779D01*
X6783577Y-16906779D02*
X6793101Y-16887731D01*
X6793101Y-16887731D02*
X6802624Y-16878208D01*
X6802624Y-16878208D02*
X6821672Y-16868684D01*
X6974053Y-17049636D02*
X6983577Y-17059160D01*
X6983577Y-17059160D02*
X6974053Y-17068684D01*
X6974053Y-17068684D02*
X6964529Y-17059160D01*
X6964529Y-17059160D02*
X6974053Y-17049636D01*
X6974053Y-17049636D02*
X6974053Y-17068684D01*
X7050243Y-16868684D02*
X7174053Y-16868684D01*
X7174053Y-16868684D02*
X7107386Y-16944874D01*
X7107386Y-16944874D02*
X7135958Y-16944874D01*
X7135958Y-16944874D02*
X7155005Y-16954398D01*
X7155005Y-16954398D02*
X7164529Y-16963922D01*
X7164529Y-16963922D02*
X7174053Y-16982970D01*
X7174053Y-16982970D02*
X7174053Y-17030589D01*
X7174053Y-17030589D02*
X7164529Y-17049636D01*
X7164529Y-17049636D02*
X7155005Y-17059160D01*
X7155005Y-17059160D02*
X7135958Y-17068684D01*
X7135958Y-17068684D02*
X7078815Y-17068684D01*
X7078815Y-17068684D02*
X7059767Y-17059160D01*
X7059767Y-17059160D02*
X7050243Y-17049636D01*
X7288339Y-16954398D02*
X7269291Y-16944874D01*
X7269291Y-16944874D02*
X7259767Y-16935350D01*
X7259767Y-16935350D02*
X7250243Y-16916303D01*
X7250243Y-16916303D02*
X7250243Y-16906779D01*
X7250243Y-16906779D02*
X7259767Y-16887731D01*
X7259767Y-16887731D02*
X7269291Y-16878208D01*
X7269291Y-16878208D02*
X7288339Y-16868684D01*
X7288339Y-16868684D02*
X7326434Y-16868684D01*
X7326434Y-16868684D02*
X7345482Y-16878208D01*
X7345482Y-16878208D02*
X7355005Y-16887731D01*
X7355005Y-16887731D02*
X7364529Y-16906779D01*
X7364529Y-16906779D02*
X7364529Y-16916303D01*
X7364529Y-16916303D02*
X7355005Y-16935350D01*
X7355005Y-16935350D02*
X7345482Y-16944874D01*
X7345482Y-16944874D02*
X7326434Y-16954398D01*
X7326434Y-16954398D02*
X7288339Y-16954398D01*
X7288339Y-16954398D02*
X7269291Y-16963922D01*
X7269291Y-16963922D02*
X7259767Y-16973446D01*
X7259767Y-16973446D02*
X7250243Y-16992493D01*
X7250243Y-16992493D02*
X7250243Y-17030589D01*
X7250243Y-17030589D02*
X7259767Y-17049636D01*
X7259767Y-17049636D02*
X7269291Y-17059160D01*
X7269291Y-17059160D02*
X7288339Y-17068684D01*
X7288339Y-17068684D02*
X7326434Y-17068684D01*
X7326434Y-17068684D02*
X7345482Y-17059160D01*
X7345482Y-17059160D02*
X7355005Y-17049636D01*
X7355005Y-17049636D02*
X7364529Y-17030589D01*
X7364529Y-17030589D02*
X7364529Y-16992493D01*
X7364529Y-16992493D02*
X7355005Y-16973446D01*
X7355005Y-16973446D02*
X7345482Y-16963922D01*
X7345482Y-16963922D02*
X7326434Y-16954398D01*
X7555005Y-17068684D02*
X7440720Y-17068684D01*
X7497862Y-17068684D02*
X7497862Y-16868684D01*
X7497862Y-16868684D02*
X7478815Y-16897255D01*
X7478815Y-16897255D02*
X7459767Y-16916303D01*
X7459767Y-16916303D02*
X7440720Y-16925827D01*
X7640720Y-17068684D02*
X7640720Y-16935350D01*
X7640720Y-16954398D02*
X7650243Y-16944874D01*
X7650243Y-16944874D02*
X7669291Y-16935350D01*
X7669291Y-16935350D02*
X7697863Y-16935350D01*
X7697863Y-16935350D02*
X7716910Y-16944874D01*
X7716910Y-16944874D02*
X7726434Y-16963922D01*
X7726434Y-16963922D02*
X7726434Y-17068684D01*
X7726434Y-16963922D02*
X7735958Y-16944874D01*
X7735958Y-16944874D02*
X7755005Y-16935350D01*
X7755005Y-16935350D02*
X7783577Y-16935350D01*
X7783577Y-16935350D02*
X7802624Y-16944874D01*
X7802624Y-16944874D02*
X7812148Y-16963922D01*
X7812148Y-16963922D02*
X7812148Y-17068684D01*
X7907386Y-17068684D02*
X7907386Y-16935350D01*
X7907386Y-16954398D02*
X7916910Y-16944874D01*
X7916910Y-16944874D02*
X7935958Y-16935350D01*
X7935958Y-16935350D02*
X7964529Y-16935350D01*
X7964529Y-16935350D02*
X7983577Y-16944874D01*
X7983577Y-16944874D02*
X7993101Y-16963922D01*
X7993101Y-16963922D02*
X7993101Y-17068684D01*
X7993101Y-16963922D02*
X8002624Y-16944874D01*
X8002624Y-16944874D02*
X8021672Y-16935350D01*
X8021672Y-16935350D02*
X8050243Y-16935350D01*
X8050243Y-16935350D02*
X8069291Y-16944874D01*
X8069291Y-16944874D02*
X8078815Y-16963922D01*
X8078815Y-16963922D02*
X8078815Y-17068684D01*
X8469291Y-16859160D02*
X8297863Y-17116303D01*
X8726434Y-16868684D02*
X8745482Y-16868684D01*
X8745482Y-16868684D02*
X8764529Y-16878208D01*
X8764529Y-16878208D02*
X8774053Y-16887731D01*
X8774053Y-16887731D02*
X8783577Y-16906779D01*
X8783577Y-16906779D02*
X8793101Y-16944874D01*
X8793101Y-16944874D02*
X8793101Y-16992493D01*
X8793101Y-16992493D02*
X8783577Y-17030589D01*
X8783577Y-17030589D02*
X8774053Y-17049636D01*
X8774053Y-17049636D02*
X8764529Y-17059160D01*
X8764529Y-17059160D02*
X8745482Y-17068684D01*
X8745482Y-17068684D02*
X8726434Y-17068684D01*
X8726434Y-17068684D02*
X8707387Y-17059160D01*
X8707387Y-17059160D02*
X8697863Y-17049636D01*
X8697863Y-17049636D02*
X8688339Y-17030589D01*
X8688339Y-17030589D02*
X8678815Y-16992493D01*
X8678815Y-16992493D02*
X8678815Y-16944874D01*
X8678815Y-16944874D02*
X8688339Y-16906779D01*
X8688339Y-16906779D02*
X8697863Y-16887731D01*
X8697863Y-16887731D02*
X8707387Y-16878208D01*
X8707387Y-16878208D02*
X8726434Y-16868684D01*
X8878815Y-17049636D02*
X8888339Y-17059160D01*
X8888339Y-17059160D02*
X8878815Y-17068684D01*
X8878815Y-17068684D02*
X8869291Y-17059160D01*
X8869291Y-17059160D02*
X8878815Y-17049636D01*
X8878815Y-17049636D02*
X8878815Y-17068684D01*
X9012148Y-16868684D02*
X9031196Y-16868684D01*
X9031196Y-16868684D02*
X9050244Y-16878208D01*
X9050244Y-16878208D02*
X9059768Y-16887731D01*
X9059768Y-16887731D02*
X9069291Y-16906779D01*
X9069291Y-16906779D02*
X9078815Y-16944874D01*
X9078815Y-16944874D02*
X9078815Y-16992493D01*
X9078815Y-16992493D02*
X9069291Y-17030589D01*
X9069291Y-17030589D02*
X9059768Y-17049636D01*
X9059768Y-17049636D02*
X9050244Y-17059160D01*
X9050244Y-17059160D02*
X9031196Y-17068684D01*
X9031196Y-17068684D02*
X9012148Y-17068684D01*
X9012148Y-17068684D02*
X8993101Y-17059160D01*
X8993101Y-17059160D02*
X8983577Y-17049636D01*
X8983577Y-17049636D02*
X8974053Y-17030589D01*
X8974053Y-17030589D02*
X8964529Y-16992493D01*
X8964529Y-16992493D02*
X8964529Y-16944874D01*
X8964529Y-16944874D02*
X8974053Y-16906779D01*
X8974053Y-16906779D02*
X8983577Y-16887731D01*
X8983577Y-16887731D02*
X8993101Y-16878208D01*
X8993101Y-16878208D02*
X9012148Y-16868684D01*
X9269291Y-17068684D02*
X9155006Y-17068684D01*
X9212148Y-17068684D02*
X9212148Y-16868684D01*
X9212148Y-16868684D02*
X9193101Y-16897255D01*
X9193101Y-16897255D02*
X9174053Y-16916303D01*
X9174053Y-16916303D02*
X9155006Y-16925827D01*
X9450244Y-16868684D02*
X9355006Y-16868684D01*
X9355006Y-16868684D02*
X9345482Y-16963922D01*
X9345482Y-16963922D02*
X9355006Y-16954398D01*
X9355006Y-16954398D02*
X9374053Y-16944874D01*
X9374053Y-16944874D02*
X9421672Y-16944874D01*
X9421672Y-16944874D02*
X9440720Y-16954398D01*
X9440720Y-16954398D02*
X9450244Y-16963922D01*
X9450244Y-16963922D02*
X9459768Y-16982970D01*
X9459768Y-16982970D02*
X9459768Y-17030589D01*
X9459768Y-17030589D02*
X9450244Y-17049636D01*
X9450244Y-17049636D02*
X9440720Y-17059160D01*
X9440720Y-17059160D02*
X9421672Y-17068684D01*
X9421672Y-17068684D02*
X9374053Y-17068684D01*
X9374053Y-17068684D02*
X9355006Y-17059160D01*
X9355006Y-17059160D02*
X9345482Y-17049636D01*
X9583577Y-16868684D02*
X9602625Y-16868684D01*
X9602625Y-16868684D02*
X9621672Y-16878208D01*
X9621672Y-16878208D02*
X9631196Y-16887731D01*
X9631196Y-16887731D02*
X9640720Y-16906779D01*
X9640720Y-16906779D02*
X9650244Y-16944874D01*
X9650244Y-16944874D02*
X9650244Y-16992493D01*
X9650244Y-16992493D02*
X9640720Y-17030589D01*
X9640720Y-17030589D02*
X9631196Y-17049636D01*
X9631196Y-17049636D02*
X9621672Y-17059160D01*
X9621672Y-17059160D02*
X9602625Y-17068684D01*
X9602625Y-17068684D02*
X9583577Y-17068684D01*
X9583577Y-17068684D02*
X9564529Y-17059160D01*
X9564529Y-17059160D02*
X9555006Y-17049636D01*
X9555006Y-17049636D02*
X9545482Y-17030589D01*
X9545482Y-17030589D02*
X9535958Y-16992493D01*
X9535958Y-16992493D02*
X9535958Y-16944874D01*
X9535958Y-16944874D02*
X9545482Y-16906779D01*
X9545482Y-16906779D02*
X9555006Y-16887731D01*
X9555006Y-16887731D02*
X9564529Y-16878208D01*
X9564529Y-16878208D02*
X9583577Y-16868684D01*
X9726434Y-16868684D02*
X9726434Y-16906779D01*
X9802625Y-16868684D02*
X9802625Y-16906779D01*
X10097863Y-17144874D02*
X10088339Y-17135350D01*
X10088339Y-17135350D02*
X10069291Y-17106779D01*
X10069291Y-17106779D02*
X10059768Y-17087731D01*
X10059768Y-17087731D02*
X10050244Y-17059160D01*
X10050244Y-17059160D02*
X10040720Y-17011541D01*
X10040720Y-17011541D02*
X10040720Y-16973446D01*
X10040720Y-16973446D02*
X10050244Y-16925827D01*
X10050244Y-16925827D02*
X10059768Y-16897255D01*
X10059768Y-16897255D02*
X10069291Y-16878208D01*
X10069291Y-16878208D02*
X10088339Y-16849636D01*
X10088339Y-16849636D02*
X10097863Y-16840112D01*
X10278815Y-17068684D02*
X10164530Y-17068684D01*
X10221672Y-17068684D02*
X10221672Y-16868684D01*
X10221672Y-16868684D02*
X10202625Y-16897255D01*
X10202625Y-16897255D02*
X10183577Y-16916303D01*
X10183577Y-16916303D02*
X10164530Y-16925827D01*
X10450244Y-16935350D02*
X10450244Y-17068684D01*
X10402625Y-16859160D02*
X10355006Y-17002017D01*
X10355006Y-17002017D02*
X10478815Y-17002017D01*
X10707387Y-17068684D02*
X10707387Y-16868684D01*
X10793101Y-17068684D02*
X10793101Y-16963922D01*
X10793101Y-16963922D02*
X10783577Y-16944874D01*
X10783577Y-16944874D02*
X10764530Y-16935350D01*
X10764530Y-16935350D02*
X10735958Y-16935350D01*
X10735958Y-16935350D02*
X10716911Y-16944874D01*
X10716911Y-16944874D02*
X10707387Y-16954398D01*
X10916911Y-17068684D02*
X10897863Y-17059160D01*
X10897863Y-17059160D02*
X10888339Y-17049636D01*
X10888339Y-17049636D02*
X10878815Y-17030589D01*
X10878815Y-17030589D02*
X10878815Y-16973446D01*
X10878815Y-16973446D02*
X10888339Y-16954398D01*
X10888339Y-16954398D02*
X10897863Y-16944874D01*
X10897863Y-16944874D02*
X10916911Y-16935350D01*
X10916911Y-16935350D02*
X10945482Y-16935350D01*
X10945482Y-16935350D02*
X10964530Y-16944874D01*
X10964530Y-16944874D02*
X10974053Y-16954398D01*
X10974053Y-16954398D02*
X10983577Y-16973446D01*
X10983577Y-16973446D02*
X10983577Y-17030589D01*
X10983577Y-17030589D02*
X10974053Y-17049636D01*
X10974053Y-17049636D02*
X10964530Y-17059160D01*
X10964530Y-17059160D02*
X10945482Y-17068684D01*
X10945482Y-17068684D02*
X10916911Y-17068684D01*
X11097863Y-17068684D02*
X11078815Y-17059160D01*
X11078815Y-17059160D02*
X11069292Y-17040112D01*
X11069292Y-17040112D02*
X11069292Y-16868684D01*
X11250244Y-17059160D02*
X11231196Y-17068684D01*
X11231196Y-17068684D02*
X11193101Y-17068684D01*
X11193101Y-17068684D02*
X11174053Y-17059160D01*
X11174053Y-17059160D02*
X11164530Y-17040112D01*
X11164530Y-17040112D02*
X11164530Y-16963922D01*
X11164530Y-16963922D02*
X11174053Y-16944874D01*
X11174053Y-16944874D02*
X11193101Y-16935350D01*
X11193101Y-16935350D02*
X11231196Y-16935350D01*
X11231196Y-16935350D02*
X11250244Y-16944874D01*
X11250244Y-16944874D02*
X11259768Y-16963922D01*
X11259768Y-16963922D02*
X11259768Y-16982970D01*
X11259768Y-16982970D02*
X11164530Y-17002017D01*
X11335958Y-17059160D02*
X11355006Y-17068684D01*
X11355006Y-17068684D02*
X11393101Y-17068684D01*
X11393101Y-17068684D02*
X11412149Y-17059160D01*
X11412149Y-17059160D02*
X11421672Y-17040112D01*
X11421672Y-17040112D02*
X11421672Y-17030589D01*
X11421672Y-17030589D02*
X11412149Y-17011541D01*
X11412149Y-17011541D02*
X11393101Y-17002017D01*
X11393101Y-17002017D02*
X11364530Y-17002017D01*
X11364530Y-17002017D02*
X11345482Y-16992493D01*
X11345482Y-16992493D02*
X11335958Y-16973446D01*
X11335958Y-16973446D02*
X11335958Y-16963922D01*
X11335958Y-16963922D02*
X11345482Y-16944874D01*
X11345482Y-16944874D02*
X11364530Y-16935350D01*
X11364530Y-16935350D02*
X11393101Y-16935350D01*
X11393101Y-16935350D02*
X11412149Y-16944874D01*
X11488339Y-17144874D02*
X11497863Y-17135350D01*
X11497863Y-17135350D02*
X11516911Y-17106779D01*
X11516911Y-17106779D02*
X11526434Y-17087731D01*
X11526434Y-17087731D02*
X11535958Y-17059160D01*
X11535958Y-17059160D02*
X11545482Y-17011541D01*
X11545482Y-17011541D02*
X11545482Y-16973446D01*
X11545482Y-16973446D02*
X11535958Y-16925827D01*
X11535958Y-16925827D02*
X11526434Y-16897255D01*
X11526434Y-16897255D02*
X11516911Y-16878208D01*
X11516911Y-16878208D02*
X11497863Y-16849636D01*
X11497863Y-16849636D02*
X11488339Y-16840112D01*
D10*
X6522800Y-17241200D02*
G75*
G02*
X6472800Y-17241200I-25000J0D01*
G01*
X6472800Y-17241200D02*
G75*
G02*
X6522800Y-17241200I25000J0D01*
G01*
D11*
X6821672Y-17132684D02*
X6840720Y-17132684D01*
X6840720Y-17132684D02*
X6859767Y-17142208D01*
X6859767Y-17142208D02*
X6869291Y-17151731D01*
X6869291Y-17151731D02*
X6878815Y-17170779D01*
X6878815Y-17170779D02*
X6888339Y-17208874D01*
X6888339Y-17208874D02*
X6888339Y-17256493D01*
X6888339Y-17256493D02*
X6878815Y-17294589D01*
X6878815Y-17294589D02*
X6869291Y-17313636D01*
X6869291Y-17313636D02*
X6859767Y-17323160D01*
X6859767Y-17323160D02*
X6840720Y-17332684D01*
X6840720Y-17332684D02*
X6821672Y-17332684D01*
X6821672Y-17332684D02*
X6802624Y-17323160D01*
X6802624Y-17323160D02*
X6793101Y-17313636D01*
X6793101Y-17313636D02*
X6783577Y-17294589D01*
X6783577Y-17294589D02*
X6774053Y-17256493D01*
X6774053Y-17256493D02*
X6774053Y-17208874D01*
X6774053Y-17208874D02*
X6783577Y-17170779D01*
X6783577Y-17170779D02*
X6793101Y-17151731D01*
X6793101Y-17151731D02*
X6802624Y-17142208D01*
X6802624Y-17142208D02*
X6821672Y-17132684D01*
X6974053Y-17313636D02*
X6983577Y-17323160D01*
X6983577Y-17323160D02*
X6974053Y-17332684D01*
X6974053Y-17332684D02*
X6964529Y-17323160D01*
X6964529Y-17323160D02*
X6974053Y-17313636D01*
X6974053Y-17313636D02*
X6974053Y-17332684D01*
X7164529Y-17132684D02*
X7069291Y-17132684D01*
X7069291Y-17132684D02*
X7059767Y-17227922D01*
X7059767Y-17227922D02*
X7069291Y-17218398D01*
X7069291Y-17218398D02*
X7088339Y-17208874D01*
X7088339Y-17208874D02*
X7135958Y-17208874D01*
X7135958Y-17208874D02*
X7155005Y-17218398D01*
X7155005Y-17218398D02*
X7164529Y-17227922D01*
X7164529Y-17227922D02*
X7174053Y-17246970D01*
X7174053Y-17246970D02*
X7174053Y-17294589D01*
X7174053Y-17294589D02*
X7164529Y-17313636D01*
X7164529Y-17313636D02*
X7155005Y-17323160D01*
X7155005Y-17323160D02*
X7135958Y-17332684D01*
X7135958Y-17332684D02*
X7088339Y-17332684D01*
X7088339Y-17332684D02*
X7069291Y-17323160D01*
X7069291Y-17323160D02*
X7059767Y-17313636D01*
X7297862Y-17132684D02*
X7316910Y-17132684D01*
X7316910Y-17132684D02*
X7335958Y-17142208D01*
X7335958Y-17142208D02*
X7345482Y-17151731D01*
X7345482Y-17151731D02*
X7355005Y-17170779D01*
X7355005Y-17170779D02*
X7364529Y-17208874D01*
X7364529Y-17208874D02*
X7364529Y-17256493D01*
X7364529Y-17256493D02*
X7355005Y-17294589D01*
X7355005Y-17294589D02*
X7345482Y-17313636D01*
X7345482Y-17313636D02*
X7335958Y-17323160D01*
X7335958Y-17323160D02*
X7316910Y-17332684D01*
X7316910Y-17332684D02*
X7297862Y-17332684D01*
X7297862Y-17332684D02*
X7278815Y-17323160D01*
X7278815Y-17323160D02*
X7269291Y-17313636D01*
X7269291Y-17313636D02*
X7259767Y-17294589D01*
X7259767Y-17294589D02*
X7250243Y-17256493D01*
X7250243Y-17256493D02*
X7250243Y-17208874D01*
X7250243Y-17208874D02*
X7259767Y-17170779D01*
X7259767Y-17170779D02*
X7269291Y-17151731D01*
X7269291Y-17151731D02*
X7278815Y-17142208D01*
X7278815Y-17142208D02*
X7297862Y-17132684D01*
X7488339Y-17132684D02*
X7507386Y-17132684D01*
X7507386Y-17132684D02*
X7526434Y-17142208D01*
X7526434Y-17142208D02*
X7535958Y-17151731D01*
X7535958Y-17151731D02*
X7545482Y-17170779D01*
X7545482Y-17170779D02*
X7555005Y-17208874D01*
X7555005Y-17208874D02*
X7555005Y-17256493D01*
X7555005Y-17256493D02*
X7545482Y-17294589D01*
X7545482Y-17294589D02*
X7535958Y-17313636D01*
X7535958Y-17313636D02*
X7526434Y-17323160D01*
X7526434Y-17323160D02*
X7507386Y-17332684D01*
X7507386Y-17332684D02*
X7488339Y-17332684D01*
X7488339Y-17332684D02*
X7469291Y-17323160D01*
X7469291Y-17323160D02*
X7459767Y-17313636D01*
X7459767Y-17313636D02*
X7450243Y-17294589D01*
X7450243Y-17294589D02*
X7440720Y-17256493D01*
X7440720Y-17256493D02*
X7440720Y-17208874D01*
X7440720Y-17208874D02*
X7450243Y-17170779D01*
X7450243Y-17170779D02*
X7459767Y-17151731D01*
X7459767Y-17151731D02*
X7469291Y-17142208D01*
X7469291Y-17142208D02*
X7488339Y-17132684D01*
X7640720Y-17332684D02*
X7640720Y-17199350D01*
X7640720Y-17218398D02*
X7650243Y-17208874D01*
X7650243Y-17208874D02*
X7669291Y-17199350D01*
X7669291Y-17199350D02*
X7697863Y-17199350D01*
X7697863Y-17199350D02*
X7716910Y-17208874D01*
X7716910Y-17208874D02*
X7726434Y-17227922D01*
X7726434Y-17227922D02*
X7726434Y-17332684D01*
X7726434Y-17227922D02*
X7735958Y-17208874D01*
X7735958Y-17208874D02*
X7755005Y-17199350D01*
X7755005Y-17199350D02*
X7783577Y-17199350D01*
X7783577Y-17199350D02*
X7802624Y-17208874D01*
X7802624Y-17208874D02*
X7812148Y-17227922D01*
X7812148Y-17227922D02*
X7812148Y-17332684D01*
X7907386Y-17332684D02*
X7907386Y-17199350D01*
X7907386Y-17218398D02*
X7916910Y-17208874D01*
X7916910Y-17208874D02*
X7935958Y-17199350D01*
X7935958Y-17199350D02*
X7964529Y-17199350D01*
X7964529Y-17199350D02*
X7983577Y-17208874D01*
X7983577Y-17208874D02*
X7993101Y-17227922D01*
X7993101Y-17227922D02*
X7993101Y-17332684D01*
X7993101Y-17227922D02*
X8002624Y-17208874D01*
X8002624Y-17208874D02*
X8021672Y-17199350D01*
X8021672Y-17199350D02*
X8050243Y-17199350D01*
X8050243Y-17199350D02*
X8069291Y-17208874D01*
X8069291Y-17208874D02*
X8078815Y-17227922D01*
X8078815Y-17227922D02*
X8078815Y-17332684D01*
X8469291Y-17123160D02*
X8297863Y-17380303D01*
X8726434Y-17132684D02*
X8745482Y-17132684D01*
X8745482Y-17132684D02*
X8764529Y-17142208D01*
X8764529Y-17142208D02*
X8774053Y-17151731D01*
X8774053Y-17151731D02*
X8783577Y-17170779D01*
X8783577Y-17170779D02*
X8793101Y-17208874D01*
X8793101Y-17208874D02*
X8793101Y-17256493D01*
X8793101Y-17256493D02*
X8783577Y-17294589D01*
X8783577Y-17294589D02*
X8774053Y-17313636D01*
X8774053Y-17313636D02*
X8764529Y-17323160D01*
X8764529Y-17323160D02*
X8745482Y-17332684D01*
X8745482Y-17332684D02*
X8726434Y-17332684D01*
X8726434Y-17332684D02*
X8707387Y-17323160D01*
X8707387Y-17323160D02*
X8697863Y-17313636D01*
X8697863Y-17313636D02*
X8688339Y-17294589D01*
X8688339Y-17294589D02*
X8678815Y-17256493D01*
X8678815Y-17256493D02*
X8678815Y-17208874D01*
X8678815Y-17208874D02*
X8688339Y-17170779D01*
X8688339Y-17170779D02*
X8697863Y-17151731D01*
X8697863Y-17151731D02*
X8707387Y-17142208D01*
X8707387Y-17142208D02*
X8726434Y-17132684D01*
X8878815Y-17313636D02*
X8888339Y-17323160D01*
X8888339Y-17323160D02*
X8878815Y-17332684D01*
X8878815Y-17332684D02*
X8869291Y-17323160D01*
X8869291Y-17323160D02*
X8878815Y-17313636D01*
X8878815Y-17313636D02*
X8878815Y-17332684D01*
X9012148Y-17132684D02*
X9031196Y-17132684D01*
X9031196Y-17132684D02*
X9050244Y-17142208D01*
X9050244Y-17142208D02*
X9059768Y-17151731D01*
X9059768Y-17151731D02*
X9069291Y-17170779D01*
X9069291Y-17170779D02*
X9078815Y-17208874D01*
X9078815Y-17208874D02*
X9078815Y-17256493D01*
X9078815Y-17256493D02*
X9069291Y-17294589D01*
X9069291Y-17294589D02*
X9059768Y-17313636D01*
X9059768Y-17313636D02*
X9050244Y-17323160D01*
X9050244Y-17323160D02*
X9031196Y-17332684D01*
X9031196Y-17332684D02*
X9012148Y-17332684D01*
X9012148Y-17332684D02*
X8993101Y-17323160D01*
X8993101Y-17323160D02*
X8983577Y-17313636D01*
X8983577Y-17313636D02*
X8974053Y-17294589D01*
X8974053Y-17294589D02*
X8964529Y-17256493D01*
X8964529Y-17256493D02*
X8964529Y-17208874D01*
X8964529Y-17208874D02*
X8974053Y-17170779D01*
X8974053Y-17170779D02*
X8983577Y-17151731D01*
X8983577Y-17151731D02*
X8993101Y-17142208D01*
X8993101Y-17142208D02*
X9012148Y-17132684D01*
X9269291Y-17332684D02*
X9155006Y-17332684D01*
X9212148Y-17332684D02*
X9212148Y-17132684D01*
X9212148Y-17132684D02*
X9193101Y-17161255D01*
X9193101Y-17161255D02*
X9174053Y-17180303D01*
X9174053Y-17180303D02*
X9155006Y-17189827D01*
X9364529Y-17332684D02*
X9402625Y-17332684D01*
X9402625Y-17332684D02*
X9421672Y-17323160D01*
X9421672Y-17323160D02*
X9431196Y-17313636D01*
X9431196Y-17313636D02*
X9450244Y-17285065D01*
X9450244Y-17285065D02*
X9459768Y-17246970D01*
X9459768Y-17246970D02*
X9459768Y-17170779D01*
X9459768Y-17170779D02*
X9450244Y-17151731D01*
X9450244Y-17151731D02*
X9440720Y-17142208D01*
X9440720Y-17142208D02*
X9421672Y-17132684D01*
X9421672Y-17132684D02*
X9383577Y-17132684D01*
X9383577Y-17132684D02*
X9364529Y-17142208D01*
X9364529Y-17142208D02*
X9355006Y-17151731D01*
X9355006Y-17151731D02*
X9345482Y-17170779D01*
X9345482Y-17170779D02*
X9345482Y-17218398D01*
X9345482Y-17218398D02*
X9355006Y-17237446D01*
X9355006Y-17237446D02*
X9364529Y-17246970D01*
X9364529Y-17246970D02*
X9383577Y-17256493D01*
X9383577Y-17256493D02*
X9421672Y-17256493D01*
X9421672Y-17256493D02*
X9440720Y-17246970D01*
X9440720Y-17246970D02*
X9450244Y-17237446D01*
X9450244Y-17237446D02*
X9459768Y-17218398D01*
X9526434Y-17132684D02*
X9659768Y-17132684D01*
X9659768Y-17132684D02*
X9574053Y-17332684D01*
X9726434Y-17132684D02*
X9726434Y-17170779D01*
X9802625Y-17132684D02*
X9802625Y-17170779D01*
X10097863Y-17408874D02*
X10088339Y-17399350D01*
X10088339Y-17399350D02*
X10069291Y-17370779D01*
X10069291Y-17370779D02*
X10059768Y-17351731D01*
X10059768Y-17351731D02*
X10050244Y-17323160D01*
X10050244Y-17323160D02*
X10040720Y-17275541D01*
X10040720Y-17275541D02*
X10040720Y-17237446D01*
X10040720Y-17237446D02*
X10050244Y-17189827D01*
X10050244Y-17189827D02*
X10059768Y-17161255D01*
X10059768Y-17161255D02*
X10069291Y-17142208D01*
X10069291Y-17142208D02*
X10088339Y-17113636D01*
X10088339Y-17113636D02*
X10097863Y-17104112D01*
X10155006Y-17132684D02*
X10278815Y-17132684D01*
X10278815Y-17132684D02*
X10212149Y-17208874D01*
X10212149Y-17208874D02*
X10240720Y-17208874D01*
X10240720Y-17208874D02*
X10259768Y-17218398D01*
X10259768Y-17218398D02*
X10269291Y-17227922D01*
X10269291Y-17227922D02*
X10278815Y-17246970D01*
X10278815Y-17246970D02*
X10278815Y-17294589D01*
X10278815Y-17294589D02*
X10269291Y-17313636D01*
X10269291Y-17313636D02*
X10259768Y-17323160D01*
X10259768Y-17323160D02*
X10240720Y-17332684D01*
X10240720Y-17332684D02*
X10183577Y-17332684D01*
X10183577Y-17332684D02*
X10164530Y-17323160D01*
X10164530Y-17323160D02*
X10155006Y-17313636D01*
X10355006Y-17151731D02*
X10364530Y-17142208D01*
X10364530Y-17142208D02*
X10383577Y-17132684D01*
X10383577Y-17132684D02*
X10431196Y-17132684D01*
X10431196Y-17132684D02*
X10450244Y-17142208D01*
X10450244Y-17142208D02*
X10459768Y-17151731D01*
X10459768Y-17151731D02*
X10469291Y-17170779D01*
X10469291Y-17170779D02*
X10469291Y-17189827D01*
X10469291Y-17189827D02*
X10459768Y-17218398D01*
X10459768Y-17218398D02*
X10345482Y-17332684D01*
X10345482Y-17332684D02*
X10469291Y-17332684D01*
X10707387Y-17332684D02*
X10707387Y-17132684D01*
X10793101Y-17332684D02*
X10793101Y-17227922D01*
X10793101Y-17227922D02*
X10783577Y-17208874D01*
X10783577Y-17208874D02*
X10764530Y-17199350D01*
X10764530Y-17199350D02*
X10735958Y-17199350D01*
X10735958Y-17199350D02*
X10716911Y-17208874D01*
X10716911Y-17208874D02*
X10707387Y-17218398D01*
X10916911Y-17332684D02*
X10897863Y-17323160D01*
X10897863Y-17323160D02*
X10888339Y-17313636D01*
X10888339Y-17313636D02*
X10878815Y-17294589D01*
X10878815Y-17294589D02*
X10878815Y-17237446D01*
X10878815Y-17237446D02*
X10888339Y-17218398D01*
X10888339Y-17218398D02*
X10897863Y-17208874D01*
X10897863Y-17208874D02*
X10916911Y-17199350D01*
X10916911Y-17199350D02*
X10945482Y-17199350D01*
X10945482Y-17199350D02*
X10964530Y-17208874D01*
X10964530Y-17208874D02*
X10974053Y-17218398D01*
X10974053Y-17218398D02*
X10983577Y-17237446D01*
X10983577Y-17237446D02*
X10983577Y-17294589D01*
X10983577Y-17294589D02*
X10974053Y-17313636D01*
X10974053Y-17313636D02*
X10964530Y-17323160D01*
X10964530Y-17323160D02*
X10945482Y-17332684D01*
X10945482Y-17332684D02*
X10916911Y-17332684D01*
X11097863Y-17332684D02*
X11078815Y-17323160D01*
X11078815Y-17323160D02*
X11069292Y-17304112D01*
X11069292Y-17304112D02*
X11069292Y-17132684D01*
X11250244Y-17323160D02*
X11231196Y-17332684D01*
X11231196Y-17332684D02*
X11193101Y-17332684D01*
X11193101Y-17332684D02*
X11174053Y-17323160D01*
X11174053Y-17323160D02*
X11164530Y-17304112D01*
X11164530Y-17304112D02*
X11164530Y-17227922D01*
X11164530Y-17227922D02*
X11174053Y-17208874D01*
X11174053Y-17208874D02*
X11193101Y-17199350D01*
X11193101Y-17199350D02*
X11231196Y-17199350D01*
X11231196Y-17199350D02*
X11250244Y-17208874D01*
X11250244Y-17208874D02*
X11259768Y-17227922D01*
X11259768Y-17227922D02*
X11259768Y-17246970D01*
X11259768Y-17246970D02*
X11164530Y-17266017D01*
X11335958Y-17323160D02*
X11355006Y-17332684D01*
X11355006Y-17332684D02*
X11393101Y-17332684D01*
X11393101Y-17332684D02*
X11412149Y-17323160D01*
X11412149Y-17323160D02*
X11421672Y-17304112D01*
X11421672Y-17304112D02*
X11421672Y-17294589D01*
X11421672Y-17294589D02*
X11412149Y-17275541D01*
X11412149Y-17275541D02*
X11393101Y-17266017D01*
X11393101Y-17266017D02*
X11364530Y-17266017D01*
X11364530Y-17266017D02*
X11345482Y-17256493D01*
X11345482Y-17256493D02*
X11335958Y-17237446D01*
X11335958Y-17237446D02*
X11335958Y-17227922D01*
X11335958Y-17227922D02*
X11345482Y-17208874D01*
X11345482Y-17208874D02*
X11364530Y-17199350D01*
X11364530Y-17199350D02*
X11393101Y-17199350D01*
X11393101Y-17199350D02*
X11412149Y-17208874D01*
X11488339Y-17408874D02*
X11497863Y-17399350D01*
X11497863Y-17399350D02*
X11516911Y-17370779D01*
X11516911Y-17370779D02*
X11526434Y-17351731D01*
X11526434Y-17351731D02*
X11535958Y-17323160D01*
X11535958Y-17323160D02*
X11545482Y-17275541D01*
X11545482Y-17275541D02*
X11545482Y-17237446D01*
X11545482Y-17237446D02*
X11535958Y-17189827D01*
X11535958Y-17189827D02*
X11526434Y-17161255D01*
X11526434Y-17161255D02*
X11516911Y-17142208D01*
X11516911Y-17142208D02*
X11497863Y-17113636D01*
X11497863Y-17113636D02*
X11488339Y-17104112D01*
D12*
X6457800Y-17440200D02*
X6457800Y-17570200D01*
X6392800Y-17505200D02*
X6522800Y-17505200D01*
D11*
X6888339Y-17596684D02*
X6774053Y-17596684D01*
X6831196Y-17596684D02*
X6831196Y-17396684D01*
X6831196Y-17396684D02*
X6812148Y-17425255D01*
X6812148Y-17425255D02*
X6793101Y-17444303D01*
X6793101Y-17444303D02*
X6774053Y-17453827D01*
X6974053Y-17577636D02*
X6983577Y-17587160D01*
X6983577Y-17587160D02*
X6974053Y-17596684D01*
X6974053Y-17596684D02*
X6964529Y-17587160D01*
X6964529Y-17587160D02*
X6974053Y-17577636D01*
X6974053Y-17577636D02*
X6974053Y-17596684D01*
X7050243Y-17396684D02*
X7174053Y-17396684D01*
X7174053Y-17396684D02*
X7107386Y-17472874D01*
X7107386Y-17472874D02*
X7135958Y-17472874D01*
X7135958Y-17472874D02*
X7155005Y-17482398D01*
X7155005Y-17482398D02*
X7164529Y-17491922D01*
X7164529Y-17491922D02*
X7174053Y-17510970D01*
X7174053Y-17510970D02*
X7174053Y-17558589D01*
X7174053Y-17558589D02*
X7164529Y-17577636D01*
X7164529Y-17577636D02*
X7155005Y-17587160D01*
X7155005Y-17587160D02*
X7135958Y-17596684D01*
X7135958Y-17596684D02*
X7078815Y-17596684D01*
X7078815Y-17596684D02*
X7059767Y-17587160D01*
X7059767Y-17587160D02*
X7050243Y-17577636D01*
X7297862Y-17396684D02*
X7316910Y-17396684D01*
X7316910Y-17396684D02*
X7335958Y-17406208D01*
X7335958Y-17406208D02*
X7345482Y-17415731D01*
X7345482Y-17415731D02*
X7355005Y-17434779D01*
X7355005Y-17434779D02*
X7364529Y-17472874D01*
X7364529Y-17472874D02*
X7364529Y-17520493D01*
X7364529Y-17520493D02*
X7355005Y-17558589D01*
X7355005Y-17558589D02*
X7345482Y-17577636D01*
X7345482Y-17577636D02*
X7335958Y-17587160D01*
X7335958Y-17587160D02*
X7316910Y-17596684D01*
X7316910Y-17596684D02*
X7297862Y-17596684D01*
X7297862Y-17596684D02*
X7278815Y-17587160D01*
X7278815Y-17587160D02*
X7269291Y-17577636D01*
X7269291Y-17577636D02*
X7259767Y-17558589D01*
X7259767Y-17558589D02*
X7250243Y-17520493D01*
X7250243Y-17520493D02*
X7250243Y-17472874D01*
X7250243Y-17472874D02*
X7259767Y-17434779D01*
X7259767Y-17434779D02*
X7269291Y-17415731D01*
X7269291Y-17415731D02*
X7278815Y-17406208D01*
X7278815Y-17406208D02*
X7297862Y-17396684D01*
X7488339Y-17396684D02*
X7507386Y-17396684D01*
X7507386Y-17396684D02*
X7526434Y-17406208D01*
X7526434Y-17406208D02*
X7535958Y-17415731D01*
X7535958Y-17415731D02*
X7545482Y-17434779D01*
X7545482Y-17434779D02*
X7555005Y-17472874D01*
X7555005Y-17472874D02*
X7555005Y-17520493D01*
X7555005Y-17520493D02*
X7545482Y-17558589D01*
X7545482Y-17558589D02*
X7535958Y-17577636D01*
X7535958Y-17577636D02*
X7526434Y-17587160D01*
X7526434Y-17587160D02*
X7507386Y-17596684D01*
X7507386Y-17596684D02*
X7488339Y-17596684D01*
X7488339Y-17596684D02*
X7469291Y-17587160D01*
X7469291Y-17587160D02*
X7459767Y-17577636D01*
X7459767Y-17577636D02*
X7450243Y-17558589D01*
X7450243Y-17558589D02*
X7440720Y-17520493D01*
X7440720Y-17520493D02*
X7440720Y-17472874D01*
X7440720Y-17472874D02*
X7450243Y-17434779D01*
X7450243Y-17434779D02*
X7459767Y-17415731D01*
X7459767Y-17415731D02*
X7469291Y-17406208D01*
X7469291Y-17406208D02*
X7488339Y-17396684D01*
X7640720Y-17596684D02*
X7640720Y-17463350D01*
X7640720Y-17482398D02*
X7650243Y-17472874D01*
X7650243Y-17472874D02*
X7669291Y-17463350D01*
X7669291Y-17463350D02*
X7697863Y-17463350D01*
X7697863Y-17463350D02*
X7716910Y-17472874D01*
X7716910Y-17472874D02*
X7726434Y-17491922D01*
X7726434Y-17491922D02*
X7726434Y-17596684D01*
X7726434Y-17491922D02*
X7735958Y-17472874D01*
X7735958Y-17472874D02*
X7755005Y-17463350D01*
X7755005Y-17463350D02*
X7783577Y-17463350D01*
X7783577Y-17463350D02*
X7802624Y-17472874D01*
X7802624Y-17472874D02*
X7812148Y-17491922D01*
X7812148Y-17491922D02*
X7812148Y-17596684D01*
X7907386Y-17596684D02*
X7907386Y-17463350D01*
X7907386Y-17482398D02*
X7916910Y-17472874D01*
X7916910Y-17472874D02*
X7935958Y-17463350D01*
X7935958Y-17463350D02*
X7964529Y-17463350D01*
X7964529Y-17463350D02*
X7983577Y-17472874D01*
X7983577Y-17472874D02*
X7993101Y-17491922D01*
X7993101Y-17491922D02*
X7993101Y-17596684D01*
X7993101Y-17491922D02*
X8002624Y-17472874D01*
X8002624Y-17472874D02*
X8021672Y-17463350D01*
X8021672Y-17463350D02*
X8050243Y-17463350D01*
X8050243Y-17463350D02*
X8069291Y-17472874D01*
X8069291Y-17472874D02*
X8078815Y-17491922D01*
X8078815Y-17491922D02*
X8078815Y-17596684D01*
X8469291Y-17387160D02*
X8297863Y-17644303D01*
X8726434Y-17396684D02*
X8745482Y-17396684D01*
X8745482Y-17396684D02*
X8764529Y-17406208D01*
X8764529Y-17406208D02*
X8774053Y-17415731D01*
X8774053Y-17415731D02*
X8783577Y-17434779D01*
X8783577Y-17434779D02*
X8793101Y-17472874D01*
X8793101Y-17472874D02*
X8793101Y-17520493D01*
X8793101Y-17520493D02*
X8783577Y-17558589D01*
X8783577Y-17558589D02*
X8774053Y-17577636D01*
X8774053Y-17577636D02*
X8764529Y-17587160D01*
X8764529Y-17587160D02*
X8745482Y-17596684D01*
X8745482Y-17596684D02*
X8726434Y-17596684D01*
X8726434Y-17596684D02*
X8707387Y-17587160D01*
X8707387Y-17587160D02*
X8697863Y-17577636D01*
X8697863Y-17577636D02*
X8688339Y-17558589D01*
X8688339Y-17558589D02*
X8678815Y-17520493D01*
X8678815Y-17520493D02*
X8678815Y-17472874D01*
X8678815Y-17472874D02*
X8688339Y-17434779D01*
X8688339Y-17434779D02*
X8697863Y-17415731D01*
X8697863Y-17415731D02*
X8707387Y-17406208D01*
X8707387Y-17406208D02*
X8726434Y-17396684D01*
X8878815Y-17577636D02*
X8888339Y-17587160D01*
X8888339Y-17587160D02*
X8878815Y-17596684D01*
X8878815Y-17596684D02*
X8869291Y-17587160D01*
X8869291Y-17587160D02*
X8878815Y-17577636D01*
X8878815Y-17577636D02*
X8878815Y-17596684D01*
X9012148Y-17396684D02*
X9031196Y-17396684D01*
X9031196Y-17396684D02*
X9050244Y-17406208D01*
X9050244Y-17406208D02*
X9059768Y-17415731D01*
X9059768Y-17415731D02*
X9069291Y-17434779D01*
X9069291Y-17434779D02*
X9078815Y-17472874D01*
X9078815Y-17472874D02*
X9078815Y-17520493D01*
X9078815Y-17520493D02*
X9069291Y-17558589D01*
X9069291Y-17558589D02*
X9059768Y-17577636D01*
X9059768Y-17577636D02*
X9050244Y-17587160D01*
X9050244Y-17587160D02*
X9031196Y-17596684D01*
X9031196Y-17596684D02*
X9012148Y-17596684D01*
X9012148Y-17596684D02*
X8993101Y-17587160D01*
X8993101Y-17587160D02*
X8983577Y-17577636D01*
X8983577Y-17577636D02*
X8974053Y-17558589D01*
X8974053Y-17558589D02*
X8964529Y-17520493D01*
X8964529Y-17520493D02*
X8964529Y-17472874D01*
X8964529Y-17472874D02*
X8974053Y-17434779D01*
X8974053Y-17434779D02*
X8983577Y-17415731D01*
X8983577Y-17415731D02*
X8993101Y-17406208D01*
X8993101Y-17406208D02*
X9012148Y-17396684D01*
X9259768Y-17396684D02*
X9164529Y-17396684D01*
X9164529Y-17396684D02*
X9155006Y-17491922D01*
X9155006Y-17491922D02*
X9164529Y-17482398D01*
X9164529Y-17482398D02*
X9183577Y-17472874D01*
X9183577Y-17472874D02*
X9231196Y-17472874D01*
X9231196Y-17472874D02*
X9250244Y-17482398D01*
X9250244Y-17482398D02*
X9259768Y-17491922D01*
X9259768Y-17491922D02*
X9269291Y-17510970D01*
X9269291Y-17510970D02*
X9269291Y-17558589D01*
X9269291Y-17558589D02*
X9259768Y-17577636D01*
X9259768Y-17577636D02*
X9250244Y-17587160D01*
X9250244Y-17587160D02*
X9231196Y-17596684D01*
X9231196Y-17596684D02*
X9183577Y-17596684D01*
X9183577Y-17596684D02*
X9164529Y-17587160D01*
X9164529Y-17587160D02*
X9155006Y-17577636D01*
X9459768Y-17596684D02*
X9345482Y-17596684D01*
X9402625Y-17596684D02*
X9402625Y-17396684D01*
X9402625Y-17396684D02*
X9383577Y-17425255D01*
X9383577Y-17425255D02*
X9364529Y-17444303D01*
X9364529Y-17444303D02*
X9345482Y-17453827D01*
X9535958Y-17415731D02*
X9545482Y-17406208D01*
X9545482Y-17406208D02*
X9564529Y-17396684D01*
X9564529Y-17396684D02*
X9612149Y-17396684D01*
X9612149Y-17396684D02*
X9631196Y-17406208D01*
X9631196Y-17406208D02*
X9640720Y-17415731D01*
X9640720Y-17415731D02*
X9650244Y-17434779D01*
X9650244Y-17434779D02*
X9650244Y-17453827D01*
X9650244Y-17453827D02*
X9640720Y-17482398D01*
X9640720Y-17482398D02*
X9526434Y-17596684D01*
X9526434Y-17596684D02*
X9650244Y-17596684D01*
X9726434Y-17396684D02*
X9726434Y-17434779D01*
X9802625Y-17396684D02*
X9802625Y-17434779D01*
X10097863Y-17672874D02*
X10088339Y-17663350D01*
X10088339Y-17663350D02*
X10069291Y-17634779D01*
X10069291Y-17634779D02*
X10059768Y-17615731D01*
X10059768Y-17615731D02*
X10050244Y-17587160D01*
X10050244Y-17587160D02*
X10040720Y-17539541D01*
X10040720Y-17539541D02*
X10040720Y-17501446D01*
X10040720Y-17501446D02*
X10050244Y-17453827D01*
X10050244Y-17453827D02*
X10059768Y-17425255D01*
X10059768Y-17425255D02*
X10069291Y-17406208D01*
X10069291Y-17406208D02*
X10088339Y-17377636D01*
X10088339Y-17377636D02*
X10097863Y-17368112D01*
X10259768Y-17396684D02*
X10221672Y-17396684D01*
X10221672Y-17396684D02*
X10202625Y-17406208D01*
X10202625Y-17406208D02*
X10193101Y-17415731D01*
X10193101Y-17415731D02*
X10174053Y-17444303D01*
X10174053Y-17444303D02*
X10164530Y-17482398D01*
X10164530Y-17482398D02*
X10164530Y-17558589D01*
X10164530Y-17558589D02*
X10174053Y-17577636D01*
X10174053Y-17577636D02*
X10183577Y-17587160D01*
X10183577Y-17587160D02*
X10202625Y-17596684D01*
X10202625Y-17596684D02*
X10240720Y-17596684D01*
X10240720Y-17596684D02*
X10259768Y-17587160D01*
X10259768Y-17587160D02*
X10269291Y-17577636D01*
X10269291Y-17577636D02*
X10278815Y-17558589D01*
X10278815Y-17558589D02*
X10278815Y-17510970D01*
X10278815Y-17510970D02*
X10269291Y-17491922D01*
X10269291Y-17491922D02*
X10259768Y-17482398D01*
X10259768Y-17482398D02*
X10240720Y-17472874D01*
X10240720Y-17472874D02*
X10202625Y-17472874D01*
X10202625Y-17472874D02*
X10183577Y-17482398D01*
X10183577Y-17482398D02*
X10174053Y-17491922D01*
X10174053Y-17491922D02*
X10164530Y-17510970D01*
X10516911Y-17596684D02*
X10516911Y-17396684D01*
X10602625Y-17596684D02*
X10602625Y-17491922D01*
X10602625Y-17491922D02*
X10593101Y-17472874D01*
X10593101Y-17472874D02*
X10574053Y-17463350D01*
X10574053Y-17463350D02*
X10545482Y-17463350D01*
X10545482Y-17463350D02*
X10526434Y-17472874D01*
X10526434Y-17472874D02*
X10516911Y-17482398D01*
X10726434Y-17596684D02*
X10707387Y-17587160D01*
X10707387Y-17587160D02*
X10697863Y-17577636D01*
X10697863Y-17577636D02*
X10688339Y-17558589D01*
X10688339Y-17558589D02*
X10688339Y-17501446D01*
X10688339Y-17501446D02*
X10697863Y-17482398D01*
X10697863Y-17482398D02*
X10707387Y-17472874D01*
X10707387Y-17472874D02*
X10726434Y-17463350D01*
X10726434Y-17463350D02*
X10755006Y-17463350D01*
X10755006Y-17463350D02*
X10774053Y-17472874D01*
X10774053Y-17472874D02*
X10783577Y-17482398D01*
X10783577Y-17482398D02*
X10793101Y-17501446D01*
X10793101Y-17501446D02*
X10793101Y-17558589D01*
X10793101Y-17558589D02*
X10783577Y-17577636D01*
X10783577Y-17577636D02*
X10774053Y-17587160D01*
X10774053Y-17587160D02*
X10755006Y-17596684D01*
X10755006Y-17596684D02*
X10726434Y-17596684D01*
X10907387Y-17596684D02*
X10888339Y-17587160D01*
X10888339Y-17587160D02*
X10878815Y-17568112D01*
X10878815Y-17568112D02*
X10878815Y-17396684D01*
X11059768Y-17587160D02*
X11040720Y-17596684D01*
X11040720Y-17596684D02*
X11002625Y-17596684D01*
X11002625Y-17596684D02*
X10983577Y-17587160D01*
X10983577Y-17587160D02*
X10974053Y-17568112D01*
X10974053Y-17568112D02*
X10974053Y-17491922D01*
X10974053Y-17491922D02*
X10983577Y-17472874D01*
X10983577Y-17472874D02*
X11002625Y-17463350D01*
X11002625Y-17463350D02*
X11040720Y-17463350D01*
X11040720Y-17463350D02*
X11059768Y-17472874D01*
X11059768Y-17472874D02*
X11069292Y-17491922D01*
X11069292Y-17491922D02*
X11069292Y-17510970D01*
X11069292Y-17510970D02*
X10974053Y-17530017D01*
X11145482Y-17587160D02*
X11164530Y-17596684D01*
X11164530Y-17596684D02*
X11202625Y-17596684D01*
X11202625Y-17596684D02*
X11221672Y-17587160D01*
X11221672Y-17587160D02*
X11231196Y-17568112D01*
X11231196Y-17568112D02*
X11231196Y-17558589D01*
X11231196Y-17558589D02*
X11221672Y-17539541D01*
X11221672Y-17539541D02*
X11202625Y-17530017D01*
X11202625Y-17530017D02*
X11174053Y-17530017D01*
X11174053Y-17530017D02*
X11155006Y-17520493D01*
X11155006Y-17520493D02*
X11145482Y-17501446D01*
X11145482Y-17501446D02*
X11145482Y-17491922D01*
X11145482Y-17491922D02*
X11155006Y-17472874D01*
X11155006Y-17472874D02*
X11174053Y-17463350D01*
X11174053Y-17463350D02*
X11202625Y-17463350D01*
X11202625Y-17463350D02*
X11221672Y-17472874D01*
X11297863Y-17672874D02*
X11307387Y-17663350D01*
X11307387Y-17663350D02*
X11326434Y-17634779D01*
X11326434Y-17634779D02*
X11335958Y-17615731D01*
X11335958Y-17615731D02*
X11345482Y-17587160D01*
X11345482Y-17587160D02*
X11355006Y-17539541D01*
X11355006Y-17539541D02*
X11355006Y-17501446D01*
X11355006Y-17501446D02*
X11345482Y-17453827D01*
X11345482Y-17453827D02*
X11335958Y-17425255D01*
X11335958Y-17425255D02*
X11326434Y-17406208D01*
X11326434Y-17406208D02*
X11307387Y-17377636D01*
X11307387Y-17377636D02*
X11297863Y-17368112D01*
X6493511Y-17839911D02*
X6493511Y-17698489D01*
X6352089Y-17698489D01*
X6352089Y-17839911D01*
X6493511Y-17839911D01*
X6764529Y-17660684D02*
X6888339Y-17660684D01*
X6888339Y-17660684D02*
X6821672Y-17736874D01*
X6821672Y-17736874D02*
X6850243Y-17736874D01*
X6850243Y-17736874D02*
X6869291Y-17746398D01*
X6869291Y-17746398D02*
X6878815Y-17755922D01*
X6878815Y-17755922D02*
X6888339Y-17774970D01*
X6888339Y-17774970D02*
X6888339Y-17822589D01*
X6888339Y-17822589D02*
X6878815Y-17841636D01*
X6878815Y-17841636D02*
X6869291Y-17851160D01*
X6869291Y-17851160D02*
X6850243Y-17860684D01*
X6850243Y-17860684D02*
X6793101Y-17860684D01*
X6793101Y-17860684D02*
X6774053Y-17851160D01*
X6774053Y-17851160D02*
X6764529Y-17841636D01*
X6974053Y-17841636D02*
X6983577Y-17851160D01*
X6983577Y-17851160D02*
X6974053Y-17860684D01*
X6974053Y-17860684D02*
X6964529Y-17851160D01*
X6964529Y-17851160D02*
X6974053Y-17841636D01*
X6974053Y-17841636D02*
X6974053Y-17860684D01*
X7059767Y-17679731D02*
X7069291Y-17670208D01*
X7069291Y-17670208D02*
X7088339Y-17660684D01*
X7088339Y-17660684D02*
X7135958Y-17660684D01*
X7135958Y-17660684D02*
X7155005Y-17670208D01*
X7155005Y-17670208D02*
X7164529Y-17679731D01*
X7164529Y-17679731D02*
X7174053Y-17698779D01*
X7174053Y-17698779D02*
X7174053Y-17717827D01*
X7174053Y-17717827D02*
X7164529Y-17746398D01*
X7164529Y-17746398D02*
X7050243Y-17860684D01*
X7050243Y-17860684D02*
X7174053Y-17860684D01*
X7297862Y-17660684D02*
X7316910Y-17660684D01*
X7316910Y-17660684D02*
X7335958Y-17670208D01*
X7335958Y-17670208D02*
X7345482Y-17679731D01*
X7345482Y-17679731D02*
X7355005Y-17698779D01*
X7355005Y-17698779D02*
X7364529Y-17736874D01*
X7364529Y-17736874D02*
X7364529Y-17784493D01*
X7364529Y-17784493D02*
X7355005Y-17822589D01*
X7355005Y-17822589D02*
X7345482Y-17841636D01*
X7345482Y-17841636D02*
X7335958Y-17851160D01*
X7335958Y-17851160D02*
X7316910Y-17860684D01*
X7316910Y-17860684D02*
X7297862Y-17860684D01*
X7297862Y-17860684D02*
X7278815Y-17851160D01*
X7278815Y-17851160D02*
X7269291Y-17841636D01*
X7269291Y-17841636D02*
X7259767Y-17822589D01*
X7259767Y-17822589D02*
X7250243Y-17784493D01*
X7250243Y-17784493D02*
X7250243Y-17736874D01*
X7250243Y-17736874D02*
X7259767Y-17698779D01*
X7259767Y-17698779D02*
X7269291Y-17679731D01*
X7269291Y-17679731D02*
X7278815Y-17670208D01*
X7278815Y-17670208D02*
X7297862Y-17660684D01*
X7488339Y-17660684D02*
X7507386Y-17660684D01*
X7507386Y-17660684D02*
X7526434Y-17670208D01*
X7526434Y-17670208D02*
X7535958Y-17679731D01*
X7535958Y-17679731D02*
X7545482Y-17698779D01*
X7545482Y-17698779D02*
X7555005Y-17736874D01*
X7555005Y-17736874D02*
X7555005Y-17784493D01*
X7555005Y-17784493D02*
X7545482Y-17822589D01*
X7545482Y-17822589D02*
X7535958Y-17841636D01*
X7535958Y-17841636D02*
X7526434Y-17851160D01*
X7526434Y-17851160D02*
X7507386Y-17860684D01*
X7507386Y-17860684D02*
X7488339Y-17860684D01*
X7488339Y-17860684D02*
X7469291Y-17851160D01*
X7469291Y-17851160D02*
X7459767Y-17841636D01*
X7459767Y-17841636D02*
X7450243Y-17822589D01*
X7450243Y-17822589D02*
X7440720Y-17784493D01*
X7440720Y-17784493D02*
X7440720Y-17736874D01*
X7440720Y-17736874D02*
X7450243Y-17698779D01*
X7450243Y-17698779D02*
X7459767Y-17679731D01*
X7459767Y-17679731D02*
X7469291Y-17670208D01*
X7469291Y-17670208D02*
X7488339Y-17660684D01*
X7640720Y-17860684D02*
X7640720Y-17727350D01*
X7640720Y-17746398D02*
X7650243Y-17736874D01*
X7650243Y-17736874D02*
X7669291Y-17727350D01*
X7669291Y-17727350D02*
X7697863Y-17727350D01*
X7697863Y-17727350D02*
X7716910Y-17736874D01*
X7716910Y-17736874D02*
X7726434Y-17755922D01*
X7726434Y-17755922D02*
X7726434Y-17860684D01*
X7726434Y-17755922D02*
X7735958Y-17736874D01*
X7735958Y-17736874D02*
X7755005Y-17727350D01*
X7755005Y-17727350D02*
X7783577Y-17727350D01*
X7783577Y-17727350D02*
X7802624Y-17736874D01*
X7802624Y-17736874D02*
X7812148Y-17755922D01*
X7812148Y-17755922D02*
X7812148Y-17860684D01*
X7907386Y-17860684D02*
X7907386Y-17727350D01*
X7907386Y-17746398D02*
X7916910Y-17736874D01*
X7916910Y-17736874D02*
X7935958Y-17727350D01*
X7935958Y-17727350D02*
X7964529Y-17727350D01*
X7964529Y-17727350D02*
X7983577Y-17736874D01*
X7983577Y-17736874D02*
X7993101Y-17755922D01*
X7993101Y-17755922D02*
X7993101Y-17860684D01*
X7993101Y-17755922D02*
X8002624Y-17736874D01*
X8002624Y-17736874D02*
X8021672Y-17727350D01*
X8021672Y-17727350D02*
X8050243Y-17727350D01*
X8050243Y-17727350D02*
X8069291Y-17736874D01*
X8069291Y-17736874D02*
X8078815Y-17755922D01*
X8078815Y-17755922D02*
X8078815Y-17860684D01*
X8469291Y-17651160D02*
X8297863Y-17908303D01*
X8726434Y-17660684D02*
X8745482Y-17660684D01*
X8745482Y-17660684D02*
X8764529Y-17670208D01*
X8764529Y-17670208D02*
X8774053Y-17679731D01*
X8774053Y-17679731D02*
X8783577Y-17698779D01*
X8783577Y-17698779D02*
X8793101Y-17736874D01*
X8793101Y-17736874D02*
X8793101Y-17784493D01*
X8793101Y-17784493D02*
X8783577Y-17822589D01*
X8783577Y-17822589D02*
X8774053Y-17841636D01*
X8774053Y-17841636D02*
X8764529Y-17851160D01*
X8764529Y-17851160D02*
X8745482Y-17860684D01*
X8745482Y-17860684D02*
X8726434Y-17860684D01*
X8726434Y-17860684D02*
X8707387Y-17851160D01*
X8707387Y-17851160D02*
X8697863Y-17841636D01*
X8697863Y-17841636D02*
X8688339Y-17822589D01*
X8688339Y-17822589D02*
X8678815Y-17784493D01*
X8678815Y-17784493D02*
X8678815Y-17736874D01*
X8678815Y-17736874D02*
X8688339Y-17698779D01*
X8688339Y-17698779D02*
X8697863Y-17679731D01*
X8697863Y-17679731D02*
X8707387Y-17670208D01*
X8707387Y-17670208D02*
X8726434Y-17660684D01*
X8878815Y-17841636D02*
X8888339Y-17851160D01*
X8888339Y-17851160D02*
X8878815Y-17860684D01*
X8878815Y-17860684D02*
X8869291Y-17851160D01*
X8869291Y-17851160D02*
X8878815Y-17841636D01*
X8878815Y-17841636D02*
X8878815Y-17860684D01*
X9078815Y-17860684D02*
X8964529Y-17860684D01*
X9021672Y-17860684D02*
X9021672Y-17660684D01*
X9021672Y-17660684D02*
X9002625Y-17689255D01*
X9002625Y-17689255D02*
X8983577Y-17708303D01*
X8983577Y-17708303D02*
X8964529Y-17717827D01*
X9155006Y-17679731D02*
X9164529Y-17670208D01*
X9164529Y-17670208D02*
X9183577Y-17660684D01*
X9183577Y-17660684D02*
X9231196Y-17660684D01*
X9231196Y-17660684D02*
X9250244Y-17670208D01*
X9250244Y-17670208D02*
X9259768Y-17679731D01*
X9259768Y-17679731D02*
X9269291Y-17698779D01*
X9269291Y-17698779D02*
X9269291Y-17717827D01*
X9269291Y-17717827D02*
X9259768Y-17746398D01*
X9259768Y-17746398D02*
X9145482Y-17860684D01*
X9145482Y-17860684D02*
X9269291Y-17860684D01*
X9440720Y-17660684D02*
X9402625Y-17660684D01*
X9402625Y-17660684D02*
X9383577Y-17670208D01*
X9383577Y-17670208D02*
X9374053Y-17679731D01*
X9374053Y-17679731D02*
X9355006Y-17708303D01*
X9355006Y-17708303D02*
X9345482Y-17746398D01*
X9345482Y-17746398D02*
X9345482Y-17822589D01*
X9345482Y-17822589D02*
X9355006Y-17841636D01*
X9355006Y-17841636D02*
X9364529Y-17851160D01*
X9364529Y-17851160D02*
X9383577Y-17860684D01*
X9383577Y-17860684D02*
X9421672Y-17860684D01*
X9421672Y-17860684D02*
X9440720Y-17851160D01*
X9440720Y-17851160D02*
X9450244Y-17841636D01*
X9450244Y-17841636D02*
X9459768Y-17822589D01*
X9459768Y-17822589D02*
X9459768Y-17774970D01*
X9459768Y-17774970D02*
X9450244Y-17755922D01*
X9450244Y-17755922D02*
X9440720Y-17746398D01*
X9440720Y-17746398D02*
X9421672Y-17736874D01*
X9421672Y-17736874D02*
X9383577Y-17736874D01*
X9383577Y-17736874D02*
X9364529Y-17746398D01*
X9364529Y-17746398D02*
X9355006Y-17755922D01*
X9355006Y-17755922D02*
X9345482Y-17774970D01*
X9583577Y-17660684D02*
X9602625Y-17660684D01*
X9602625Y-17660684D02*
X9621672Y-17670208D01*
X9621672Y-17670208D02*
X9631196Y-17679731D01*
X9631196Y-17679731D02*
X9640720Y-17698779D01*
X9640720Y-17698779D02*
X9650244Y-17736874D01*
X9650244Y-17736874D02*
X9650244Y-17784493D01*
X9650244Y-17784493D02*
X9640720Y-17822589D01*
X9640720Y-17822589D02*
X9631196Y-17841636D01*
X9631196Y-17841636D02*
X9621672Y-17851160D01*
X9621672Y-17851160D02*
X9602625Y-17860684D01*
X9602625Y-17860684D02*
X9583577Y-17860684D01*
X9583577Y-17860684D02*
X9564529Y-17851160D01*
X9564529Y-17851160D02*
X9555006Y-17841636D01*
X9555006Y-17841636D02*
X9545482Y-17822589D01*
X9545482Y-17822589D02*
X9535958Y-17784493D01*
X9535958Y-17784493D02*
X9535958Y-17736874D01*
X9535958Y-17736874D02*
X9545482Y-17698779D01*
X9545482Y-17698779D02*
X9555006Y-17679731D01*
X9555006Y-17679731D02*
X9564529Y-17670208D01*
X9564529Y-17670208D02*
X9583577Y-17660684D01*
X9726434Y-17660684D02*
X9726434Y-17698779D01*
X9802625Y-17660684D02*
X9802625Y-17698779D01*
X10097863Y-17936874D02*
X10088339Y-17927350D01*
X10088339Y-17927350D02*
X10069291Y-17898779D01*
X10069291Y-17898779D02*
X10059768Y-17879731D01*
X10059768Y-17879731D02*
X10050244Y-17851160D01*
X10050244Y-17851160D02*
X10040720Y-17803541D01*
X10040720Y-17803541D02*
X10040720Y-17765446D01*
X10040720Y-17765446D02*
X10050244Y-17717827D01*
X10050244Y-17717827D02*
X10059768Y-17689255D01*
X10059768Y-17689255D02*
X10069291Y-17670208D01*
X10069291Y-17670208D02*
X10088339Y-17641636D01*
X10088339Y-17641636D02*
X10097863Y-17632112D01*
X10259768Y-17727350D02*
X10259768Y-17860684D01*
X10212149Y-17651160D02*
X10164530Y-17794017D01*
X10164530Y-17794017D02*
X10288339Y-17794017D01*
X10516911Y-17860684D02*
X10516911Y-17660684D01*
X10602625Y-17860684D02*
X10602625Y-17755922D01*
X10602625Y-17755922D02*
X10593101Y-17736874D01*
X10593101Y-17736874D02*
X10574053Y-17727350D01*
X10574053Y-17727350D02*
X10545482Y-17727350D01*
X10545482Y-17727350D02*
X10526434Y-17736874D01*
X10526434Y-17736874D02*
X10516911Y-17746398D01*
X10726434Y-17860684D02*
X10707387Y-17851160D01*
X10707387Y-17851160D02*
X10697863Y-17841636D01*
X10697863Y-17841636D02*
X10688339Y-17822589D01*
X10688339Y-17822589D02*
X10688339Y-17765446D01*
X10688339Y-17765446D02*
X10697863Y-17746398D01*
X10697863Y-17746398D02*
X10707387Y-17736874D01*
X10707387Y-17736874D02*
X10726434Y-17727350D01*
X10726434Y-17727350D02*
X10755006Y-17727350D01*
X10755006Y-17727350D02*
X10774053Y-17736874D01*
X10774053Y-17736874D02*
X10783577Y-17746398D01*
X10783577Y-17746398D02*
X10793101Y-17765446D01*
X10793101Y-17765446D02*
X10793101Y-17822589D01*
X10793101Y-17822589D02*
X10783577Y-17841636D01*
X10783577Y-17841636D02*
X10774053Y-17851160D01*
X10774053Y-17851160D02*
X10755006Y-17860684D01*
X10755006Y-17860684D02*
X10726434Y-17860684D01*
X10907387Y-17860684D02*
X10888339Y-17851160D01*
X10888339Y-17851160D02*
X10878815Y-17832112D01*
X10878815Y-17832112D02*
X10878815Y-17660684D01*
X11059768Y-17851160D02*
X11040720Y-17860684D01*
X11040720Y-17860684D02*
X11002625Y-17860684D01*
X11002625Y-17860684D02*
X10983577Y-17851160D01*
X10983577Y-17851160D02*
X10974053Y-17832112D01*
X10974053Y-17832112D02*
X10974053Y-17755922D01*
X10974053Y-17755922D02*
X10983577Y-17736874D01*
X10983577Y-17736874D02*
X11002625Y-17727350D01*
X11002625Y-17727350D02*
X11040720Y-17727350D01*
X11040720Y-17727350D02*
X11059768Y-17736874D01*
X11059768Y-17736874D02*
X11069292Y-17755922D01*
X11069292Y-17755922D02*
X11069292Y-17774970D01*
X11069292Y-17774970D02*
X10974053Y-17794017D01*
X11145482Y-17851160D02*
X11164530Y-17860684D01*
X11164530Y-17860684D02*
X11202625Y-17860684D01*
X11202625Y-17860684D02*
X11221672Y-17851160D01*
X11221672Y-17851160D02*
X11231196Y-17832112D01*
X11231196Y-17832112D02*
X11231196Y-17822589D01*
X11231196Y-17822589D02*
X11221672Y-17803541D01*
X11221672Y-17803541D02*
X11202625Y-17794017D01*
X11202625Y-17794017D02*
X11174053Y-17794017D01*
X11174053Y-17794017D02*
X11155006Y-17784493D01*
X11155006Y-17784493D02*
X11145482Y-17765446D01*
X11145482Y-17765446D02*
X11145482Y-17755922D01*
X11145482Y-17755922D02*
X11155006Y-17736874D01*
X11155006Y-17736874D02*
X11174053Y-17727350D01*
X11174053Y-17727350D02*
X11202625Y-17727350D01*
X11202625Y-17727350D02*
X11221672Y-17736874D01*
X11297863Y-17936874D02*
X11307387Y-17927350D01*
X11307387Y-17927350D02*
X11326434Y-17898779D01*
X11326434Y-17898779D02*
X11335958Y-17879731D01*
X11335958Y-17879731D02*
X11345482Y-17851160D01*
X11345482Y-17851160D02*
X11355006Y-17803541D01*
X11355006Y-17803541D02*
X11355006Y-17765446D01*
X11355006Y-17765446D02*
X11345482Y-17717827D01*
X11345482Y-17717827D02*
X11335958Y-17689255D01*
X11335958Y-17689255D02*
X11326434Y-17670208D01*
X11326434Y-17670208D02*
X11307387Y-17641636D01*
X11307387Y-17641636D02*
X11297863Y-17632112D01*
M02*
