%TF.GenerationSoftware,KiCad,Pcbnew,8.0.9*%
%TF.CreationDate,2025-05-16T13:11:34-04:00*%
%TF.ProjectId,groundside-charging,67726f75-6e64-4736-9964-652d63686172,rev?*%
%TF.SameCoordinates,Original*%
%TF.FileFunction,Copper,L1,Top*%
%TF.FilePolarity,Positive*%
%FSLAX46Y46*%
G04 Gerber Fmt 4.6, Leading zero omitted, Abs format (unit mm)*
G04 Created by KiCad (PCBNEW 8.0.9) date 2025-05-16 13:11:34*
%MOMM*%
%LPD*%
G01*
G04 APERTURE LIST*
G04 Aperture macros list*
%AMRoundRect*
0 Rectangle with rounded corners*
0 $1 Rounding radius*
0 $2 $3 $4 $5 $6 $7 $8 $9 X,Y pos of 4 corners*
0 Add a 4 corners polygon primitive as box body*
4,1,4,$2,$3,$4,$5,$6,$7,$8,$9,$2,$3,0*
0 Add four circle primitives for the rounded corners*
1,1,$1+$1,$2,$3*
1,1,$1+$1,$4,$5*
1,1,$1+$1,$6,$7*
1,1,$1+$1,$8,$9*
0 Add four rect primitives between the rounded corners*
20,1,$1+$1,$2,$3,$4,$5,0*
20,1,$1+$1,$4,$5,$6,$7,0*
20,1,$1+$1,$6,$7,$8,$9,0*
20,1,$1+$1,$8,$9,$2,$3,0*%
G04 Aperture macros list end*
%TA.AperFunction,SMDPad,CuDef*%
%ADD10RoundRect,0.250000X0.337500X0.475000X-0.337500X0.475000X-0.337500X-0.475000X0.337500X-0.475000X0*%
%TD*%
%TA.AperFunction,SMDPad,CuDef*%
%ADD11RoundRect,0.250000X0.350000X0.450000X-0.350000X0.450000X-0.350000X-0.450000X0.350000X-0.450000X0*%
%TD*%
%TA.AperFunction,SMDPad,CuDef*%
%ADD12RoundRect,0.250000X0.475000X-0.337500X0.475000X0.337500X-0.475000X0.337500X-0.475000X-0.337500X0*%
%TD*%
%TA.AperFunction,ComponentPad*%
%ADD13C,0.800000*%
%TD*%
%TA.AperFunction,ComponentPad*%
%ADD14C,6.400000*%
%TD*%
%TA.AperFunction,ComponentPad*%
%ADD15R,2.600000X2.600000*%
%TD*%
%TA.AperFunction,ComponentPad*%
%ADD16C,2.600000*%
%TD*%
%TA.AperFunction,SMDPad,CuDef*%
%ADD17RoundRect,0.250000X-0.350000X-0.450000X0.350000X-0.450000X0.350000X0.450000X-0.350000X0.450000X0*%
%TD*%
%TA.AperFunction,SMDPad,CuDef*%
%ADD18RoundRect,0.150000X-0.150000X0.825000X-0.150000X-0.825000X0.150000X-0.825000X0.150000X0.825000X0*%
%TD*%
%TA.AperFunction,SMDPad,CuDef*%
%ADD19RoundRect,0.250000X-0.337500X-0.475000X0.337500X-0.475000X0.337500X0.475000X-0.337500X0.475000X0*%
%TD*%
%TA.AperFunction,SMDPad,CuDef*%
%ADD20RoundRect,0.250000X1.025000X-0.875000X1.025000X0.875000X-1.025000X0.875000X-1.025000X-0.875000X0*%
%TD*%
%TA.AperFunction,SMDPad,CuDef*%
%ADD21RoundRect,0.250000X-1.400000X-1.000000X1.400000X-1.000000X1.400000X1.000000X-1.400000X1.000000X0*%
%TD*%
%TA.AperFunction,SMDPad,CuDef*%
%ADD22R,7.010400X3.987800*%
%TD*%
%TA.AperFunction,SMDPad,CuDef*%
%ADD23RoundRect,0.250000X0.875000X1.025000X-0.875000X1.025000X-0.875000X-1.025000X0.875000X-1.025000X0*%
%TD*%
%TA.AperFunction,SMDPad,CuDef*%
%ADD24RoundRect,0.249999X0.450001X1.425001X-0.450001X1.425001X-0.450001X-1.425001X0.450001X-1.425001X0*%
%TD*%
%TA.AperFunction,SMDPad,CuDef*%
%ADD25RoundRect,0.250000X-0.450000X0.350000X-0.450000X-0.350000X0.450000X-0.350000X0.450000X0.350000X0*%
%TD*%
%TA.AperFunction,SMDPad,CuDef*%
%ADD26RoundRect,0.375000X0.625000X0.375000X-0.625000X0.375000X-0.625000X-0.375000X0.625000X-0.375000X0*%
%TD*%
%TA.AperFunction,SMDPad,CuDef*%
%ADD27RoundRect,0.500000X0.500000X1.400000X-0.500000X1.400000X-0.500000X-1.400000X0.500000X-1.400000X0*%
%TD*%
%TA.AperFunction,SMDPad,CuDef*%
%ADD28RoundRect,0.250000X0.450000X-0.350000X0.450000X0.350000X-0.450000X0.350000X-0.450000X-0.350000X0*%
%TD*%
%TA.AperFunction,ViaPad*%
%ADD29C,0.762000*%
%TD*%
%TA.AperFunction,Conductor*%
%ADD30C,0.203200*%
%TD*%
%TA.AperFunction,Conductor*%
%ADD31C,0.914400*%
%TD*%
G04 APERTURE END LIST*
D10*
%TO.P,C5,1*%
%TO.N,Net-(U2-COMP)*%
X74316500Y-115443000D03*
%TO.P,C5,2*%
%TO.N,GND*%
X72241500Y-115443000D03*
%TD*%
D11*
%TO.P,R6,1*%
%TO.N,/FB*%
X74279000Y-117983000D03*
%TO.P,R6,2*%
%TO.N,GND*%
X72279000Y-117983000D03*
%TD*%
D12*
%TO.P,C1,1*%
%TO.N,+18V*%
X96139000Y-115464500D03*
%TO.P,C1,2*%
%TO.N,GND*%
X96139000Y-113389500D03*
%TD*%
D13*
%TO.P,H3,1,1*%
%TO.N,GND*%
X66688000Y-159512000D03*
X67390944Y-157814944D03*
X67390944Y-161209056D03*
X69088000Y-157112000D03*
D14*
X69088000Y-159512000D03*
D13*
X69088000Y-161912000D03*
X70785056Y-157814944D03*
X70785056Y-161209056D03*
X71488000Y-159512000D03*
%TD*%
D11*
%TO.P,R8,1*%
%TO.N,VCC*%
X79486000Y-103759000D03*
%TO.P,R8,2*%
%TO.N,Net-(J3-Pin_1)*%
X77486000Y-103759000D03*
%TD*%
D15*
%TO.P,J1,1,Pin_1*%
%TO.N,+12V*%
X85638000Y-157488000D03*
D16*
%TO.P,J1,2,Pin_2*%
%TO.N,GND*%
X90638000Y-157488000D03*
%TD*%
D17*
%TO.P,R4,1*%
%TO.N,Net-(U2-I_{SEN})*%
X79137000Y-117983000D03*
%TO.P,R4,2*%
%TO.N,Net-(Q1-S)*%
X81137000Y-117983000D03*
%TD*%
D11*
%TO.P,R2,1*%
%TO.N,Net-(U2-FA{slash}SD)*%
X74279000Y-132588000D03*
%TO.P,R2,2*%
%TO.N,GND*%
X72279000Y-132588000D03*
%TD*%
D12*
%TO.P,C4,1*%
%TO.N,+12V*%
X80264000Y-128799500D03*
%TO.P,C4,2*%
%TO.N,GND*%
X80264000Y-126724500D03*
%TD*%
D18*
%TO.P,Q1,1,D*%
%TO.N,Net-(D1-A)*%
X86614000Y-128401850D03*
X85344000Y-128401850D03*
X84074000Y-128401850D03*
X82804000Y-128401850D03*
%TO.P,Q1,2,G*%
%TO.N,Net-(Q1-G)*%
X82804000Y-123451850D03*
%TO.P,Q1,3,S*%
%TO.N,Net-(Q1-S)*%
X86614000Y-123451850D03*
X85344000Y-123451850D03*
X84074000Y-123451850D03*
%TD*%
D19*
%TO.P,C7,1*%
%TO.N,Net-(U2-I_{SEN})*%
X79099500Y-120523000D03*
%TO.P,C7,2*%
%TO.N,GND*%
X81174500Y-120523000D03*
%TD*%
%TO.P,C6,1*%
%TO.N,Net-(U2-COMP)*%
X79099500Y-115443000D03*
%TO.P,C6,2*%
%TO.N,Net-(C6-Pad2)*%
X81174500Y-115443000D03*
%TD*%
D20*
%TO.P,C8,1*%
%TO.N,+18V*%
X91567000Y-114935000D03*
%TO.P,C8,2*%
%TO.N,GND*%
X91567000Y-108535000D03*
%TD*%
D21*
%TO.P,D1,1,K*%
%TO.N,+18V*%
X91567000Y-121441000D03*
%TO.P,D1,2,A*%
%TO.N,Net-(D1-A)*%
X91567000Y-128241000D03*
%TD*%
D13*
%TO.P,H4,1,1*%
%TO.N,GND*%
X104788000Y-159512000D03*
X105490944Y-157814944D03*
X105490944Y-161209056D03*
X107188000Y-157112000D03*
D14*
X107188000Y-159512000D03*
D13*
X107188000Y-161912000D03*
X108885056Y-157814944D03*
X108885056Y-161209056D03*
X109588000Y-159512000D03*
%TD*%
D22*
%TO.P,L1,1,1*%
%TO.N,+12V*%
X90297000Y-146469100D03*
%TO.P,L1,2,2*%
%TO.N,Net-(D1-A)*%
X90297000Y-136486900D03*
%TD*%
D18*
%TO.P,U2,1,I_{SEN}*%
%TO.N,Net-(U2-I_{SEN})*%
X77851000Y-123509000D03*
%TO.P,U2,2,COMP*%
%TO.N,Net-(U2-COMP)*%
X76581000Y-123509000D03*
%TO.P,U2,3,FB*%
%TO.N,/FB*%
X75311000Y-123509000D03*
%TO.P,U2,4,AGND*%
%TO.N,GND*%
X74041000Y-123509000D03*
%TO.P,U2,5,PGND*%
X74041000Y-128459000D03*
%TO.P,U2,6,DR*%
%TO.N,Net-(Q1-G)*%
X75311000Y-128459000D03*
%TO.P,U2,7,FA/SD*%
%TO.N,Net-(U2-FA{slash}SD)*%
X76581000Y-128459000D03*
%TO.P,U2,8,V_{IN}*%
%TO.N,+12V*%
X77851000Y-128459000D03*
%TD*%
D15*
%TO.P,J2,1,Pin_1*%
%TO.N,VCC*%
X90638000Y-98036000D03*
D16*
%TO.P,J2,2,Pin_2*%
%TO.N,GND*%
X85638000Y-98036000D03*
%TD*%
D17*
%TO.P,R9,1*%
%TO.N,Net-(J3-Pin_1)*%
X77486000Y-108077000D03*
%TO.P,R9,2*%
%TO.N,GND*%
X79486000Y-108077000D03*
%TD*%
D23*
%TO.P,C2,1*%
%TO.N,+12V*%
X79019000Y-137668000D03*
%TO.P,C2,2*%
%TO.N,GND*%
X72619000Y-137668000D03*
%TD*%
D24*
%TO.P,R1,1*%
%TO.N,Net-(U1-VO)*%
X105793000Y-102616000D03*
%TO.P,R1,2*%
%TO.N,VCC*%
X99693000Y-102616000D03*
%TD*%
D25*
%TO.P,R5,1*%
%TO.N,GND*%
X86995000Y-113427000D03*
%TO.P,R5,2*%
%TO.N,Net-(Q1-S)*%
X86995000Y-115427000D03*
%TD*%
D15*
%TO.P,J3,1,Pin_1*%
%TO.N,Net-(J3-Pin_1)*%
X71112000Y-103291000D03*
D16*
%TO.P,J3,2,Pin_2*%
%TO.N,GND*%
X71112000Y-108291000D03*
%TD*%
D26*
%TO.P,U1,1,ADJ*%
%TO.N,VCC*%
X105283000Y-110476000D03*
%TO.P,U1,2,VO*%
%TO.N,Net-(U1-VO)*%
X105283000Y-112776000D03*
D27*
X98983000Y-112776000D03*
D26*
%TO.P,U1,3,VI*%
%TO.N,+18V*%
X105283000Y-115076000D03*
%TD*%
D13*
%TO.P,H1,1,1*%
%TO.N,GND*%
X104788000Y-96012000D03*
X105490944Y-94314944D03*
X105490944Y-97709056D03*
X107188000Y-93612000D03*
D14*
X107188000Y-96012000D03*
D13*
X107188000Y-98412000D03*
X108885056Y-94314944D03*
X108885056Y-97709056D03*
X109588000Y-96012000D03*
%TD*%
D23*
%TO.P,C3,1*%
%TO.N,+12V*%
X79019000Y-144653000D03*
%TO.P,C3,2*%
%TO.N,GND*%
X72619000Y-144653000D03*
%TD*%
D11*
%TO.P,R7,1*%
%TO.N,/FB*%
X74279000Y-120523000D03*
%TO.P,R7,2*%
%TO.N,+18V*%
X72279000Y-120523000D03*
%TD*%
D28*
%TO.P,R3,1*%
%TO.N,Net-(C6-Pad2)*%
X84201000Y-115427000D03*
%TO.P,R3,2*%
%TO.N,GND*%
X84201000Y-113427000D03*
%TD*%
D13*
%TO.P,H2,1,1*%
%TO.N,GND*%
X66688000Y-96012000D03*
X67390944Y-94314944D03*
X67390944Y-97709056D03*
X69088000Y-93612000D03*
D14*
X69088000Y-96012000D03*
D13*
X69088000Y-98412000D03*
X70785056Y-94314944D03*
X70785056Y-97709056D03*
X71488000Y-96012000D03*
%TD*%
D29*
%TO.N,+18V*%
X70485000Y-119126000D03*
X89408000Y-118110000D03*
%TO.N,Net-(Q1-G)*%
X75311000Y-126619000D03*
X82804000Y-124968000D03*
%TO.N,Net-(U1-VO)*%
X107569000Y-101727000D03*
X104013000Y-102616000D03*
X102616000Y-112776000D03*
X107569000Y-102616000D03*
X104013000Y-103505000D03*
X100838000Y-112776000D03*
X101727000Y-112776000D03*
X103505000Y-112776000D03*
X104013000Y-101727000D03*
X107569000Y-103505000D03*
%TD*%
D30*
%TO.N,+18V*%
X71882000Y-119126000D02*
X72279000Y-119523000D01*
X72279000Y-119523000D02*
X72279000Y-120523000D01*
X70485000Y-119126000D02*
X71882000Y-119126000D01*
%TO.N,Net-(U2-COMP)*%
X77978000Y-115443000D02*
X76581000Y-116840000D01*
X75946000Y-115443000D02*
X74316500Y-115443000D01*
X79099500Y-115443000D02*
X77978000Y-115443000D01*
X76581000Y-123509000D02*
X76581000Y-116840000D01*
X76581000Y-116840000D02*
X76581000Y-116078000D01*
X76581000Y-116078000D02*
X75946000Y-115443000D01*
%TO.N,Net-(C6-Pad2)*%
X81174500Y-115443000D02*
X84185000Y-115443000D01*
X84185000Y-115443000D02*
X84201000Y-115427000D01*
%TO.N,Net-(U2-I_{SEN})*%
X77851000Y-120904000D02*
X77851000Y-123509000D01*
X79137000Y-117983000D02*
X78232000Y-117983000D01*
X77851000Y-118364000D02*
X77851000Y-120904000D01*
X79099500Y-120523000D02*
X78232000Y-120523000D01*
X78232000Y-117983000D02*
X77851000Y-118364000D01*
X78232000Y-120523000D02*
X77851000Y-120904000D01*
%TO.N,Net-(J3-Pin_1)*%
X74422000Y-103759000D02*
X77486000Y-106823000D01*
X77486000Y-103759000D02*
X74422000Y-103759000D01*
X77486000Y-106823000D02*
X77486000Y-108077000D01*
X73954000Y-103291000D02*
X74422000Y-103759000D01*
X71112000Y-103291000D02*
X73954000Y-103291000D01*
%TO.N,Net-(Q1-S)*%
X81137000Y-117983000D02*
X82423000Y-117983000D01*
%TO.N,Net-(Q1-G)*%
X75311000Y-126619000D02*
X75311000Y-128459000D01*
X82804000Y-124968000D02*
X82804000Y-123202700D01*
D31*
%TO.N,Net-(U1-VO)*%
X98983000Y-112776000D02*
X105283000Y-112776000D01*
D30*
%TO.N,Net-(U2-FA{slash}SD)*%
X76073000Y-132588000D02*
X74279000Y-132588000D01*
X76581000Y-128459000D02*
X76581000Y-132080000D01*
X76581000Y-132080000D02*
X76073000Y-132588000D01*
%TO.N,/FB*%
X75311000Y-123509000D02*
X75311000Y-120777000D01*
X75057000Y-120523000D02*
X75311000Y-120777000D01*
X75311000Y-118237000D02*
X75057000Y-117983000D01*
X75311000Y-120777000D02*
X75311000Y-118237000D01*
X74279000Y-120523000D02*
X75057000Y-120523000D01*
X75057000Y-117983000D02*
X74279000Y-117983000D01*
%TD*%
%TA.AperFunction,Conductor*%
%TO.N,VCC*%
G36*
X100780121Y-95905002D02*
G01*
X100826614Y-95958658D01*
X100838000Y-96011000D01*
X100838000Y-100521148D01*
X100817998Y-100589269D01*
X100764342Y-100635762D01*
X100694068Y-100645866D01*
X100629488Y-100616372D01*
X100622905Y-100610243D01*
X100611350Y-100598688D01*
X100611344Y-100598683D01*
X100462121Y-100506641D01*
X100295692Y-100451493D01*
X100192987Y-100441000D01*
X99943000Y-100441000D01*
X99943000Y-104790999D01*
X100192978Y-104790999D01*
X100295695Y-104780506D01*
X100462122Y-104725358D01*
X100611344Y-104633316D01*
X100611350Y-104633311D01*
X100622905Y-104621757D01*
X100685217Y-104587731D01*
X100756032Y-104592796D01*
X100812868Y-104635343D01*
X100837679Y-104701863D01*
X100838000Y-104710852D01*
X100838000Y-107315000D01*
X107189000Y-107315000D01*
X107257121Y-107335002D01*
X107303614Y-107388658D01*
X107315000Y-107441000D01*
X107315000Y-111380000D01*
X107294998Y-111448121D01*
X107241342Y-111494614D01*
X107189000Y-111506000D01*
X106762988Y-111506000D01*
X106694867Y-111485998D01*
X106648374Y-111432342D01*
X106638270Y-111362068D01*
X106650108Y-111324017D01*
X106734170Y-111154517D01*
X106734171Y-111154515D01*
X106780101Y-110969830D01*
X106780103Y-110969817D01*
X106783000Y-110927107D01*
X106783000Y-110726000D01*
X103783000Y-110726000D01*
X103783000Y-110927107D01*
X103785896Y-110969817D01*
X103785898Y-110969830D01*
X103831828Y-111154515D01*
X103831829Y-111154517D01*
X103915892Y-111324017D01*
X103928239Y-111393932D01*
X103900828Y-111459423D01*
X103842360Y-111499698D01*
X103803012Y-111506000D01*
X100363499Y-111506000D01*
X100295378Y-111485998D01*
X100248885Y-111432342D01*
X100237499Y-111380000D01*
X100237499Y-111325729D01*
X100226942Y-111222392D01*
X100226942Y-111222388D01*
X100171464Y-111054964D01*
X100078870Y-110904847D01*
X100078869Y-110904846D01*
X100078864Y-110904840D01*
X99954159Y-110780135D01*
X99954153Y-110780130D01*
X99866395Y-110726000D01*
X99804036Y-110687536D01*
X99636612Y-110632058D01*
X99636609Y-110632057D01*
X99533279Y-110621500D01*
X98432729Y-110621500D01*
X98329392Y-110632057D01*
X98329389Y-110632057D01*
X98329388Y-110632058D01*
X98161964Y-110687536D01*
X98011846Y-110780130D01*
X98011840Y-110780135D01*
X97887135Y-110904840D01*
X97887130Y-110904846D01*
X97794536Y-111054964D01*
X97739057Y-111222390D01*
X97728500Y-111325720D01*
X97728500Y-111380000D01*
X97708498Y-111448121D01*
X97654842Y-111494614D01*
X97602500Y-111506000D01*
X96900000Y-111506000D01*
X96831879Y-111485998D01*
X96785386Y-111432342D01*
X96774000Y-111380000D01*
X96774000Y-110024892D01*
X103783000Y-110024892D01*
X103783000Y-110226000D01*
X105033000Y-110226000D01*
X105533000Y-110226000D01*
X106783000Y-110226000D01*
X106783000Y-110024892D01*
X106780103Y-109982182D01*
X106780101Y-109982169D01*
X106734171Y-109797484D01*
X106734170Y-109797482D01*
X106649607Y-109626974D01*
X106649606Y-109626972D01*
X106530367Y-109478632D01*
X106382027Y-109359393D01*
X106382025Y-109359392D01*
X106211517Y-109274829D01*
X106211515Y-109274828D01*
X106026830Y-109228898D01*
X106026817Y-109228896D01*
X105984107Y-109226000D01*
X105533000Y-109226000D01*
X105533000Y-110226000D01*
X105033000Y-110226000D01*
X105033000Y-109226000D01*
X104581893Y-109226000D01*
X104539182Y-109228896D01*
X104539169Y-109228898D01*
X104354484Y-109274828D01*
X104354482Y-109274829D01*
X104183974Y-109359392D01*
X104183972Y-109359393D01*
X104035632Y-109478632D01*
X103916393Y-109626972D01*
X103916392Y-109626974D01*
X103831829Y-109797482D01*
X103831828Y-109797484D01*
X103785898Y-109982169D01*
X103785896Y-109982182D01*
X103783000Y-110024892D01*
X96774000Y-110024892D01*
X96774000Y-105537000D01*
X78612000Y-105537000D01*
X78543879Y-105516998D01*
X78497386Y-105463342D01*
X78486000Y-105411000D01*
X78486000Y-104915028D01*
X78506002Y-104846907D01*
X78559658Y-104800414D01*
X78629932Y-104790310D01*
X78678147Y-104807787D01*
X78816877Y-104893357D01*
X78983308Y-104948506D01*
X79086012Y-104958999D01*
X79236000Y-104958999D01*
X79736000Y-104958999D01*
X79885978Y-104958999D01*
X79988691Y-104948506D01*
X80155122Y-104893357D01*
X80304344Y-104801316D01*
X80304350Y-104801311D01*
X80428311Y-104677350D01*
X80428316Y-104677344D01*
X80520357Y-104528122D01*
X80575506Y-104361691D01*
X80585999Y-104258987D01*
X80586000Y-104258987D01*
X80586000Y-104090978D01*
X98493001Y-104090978D01*
X98503493Y-104193695D01*
X98558641Y-104360122D01*
X98650683Y-104509344D01*
X98650688Y-104509350D01*
X98774649Y-104633311D01*
X98774655Y-104633316D01*
X98923878Y-104725358D01*
X99090307Y-104780506D01*
X99193012Y-104790999D01*
X99443000Y-104790999D01*
X99443000Y-102866000D01*
X98493001Y-102866000D01*
X98493001Y-104090978D01*
X80586000Y-104090978D01*
X80586000Y-104009000D01*
X79736000Y-104009000D01*
X79736000Y-104958999D01*
X79236000Y-104958999D01*
X79236000Y-103509000D01*
X79736000Y-103509000D01*
X80585999Y-103509000D01*
X80585999Y-103259021D01*
X80575506Y-103156308D01*
X80520357Y-102989877D01*
X80428316Y-102840655D01*
X80428311Y-102840649D01*
X80304350Y-102716688D01*
X80304344Y-102716683D01*
X80155122Y-102624642D01*
X79988691Y-102569493D01*
X79885987Y-102559000D01*
X79736000Y-102559000D01*
X79736000Y-103509000D01*
X79236000Y-103509000D01*
X79236000Y-102559000D01*
X79086021Y-102559000D01*
X78983308Y-102569493D01*
X78816875Y-102624643D01*
X78678146Y-102710212D01*
X78609667Y-102728949D01*
X78541928Y-102707689D01*
X78496437Y-102653182D01*
X78486000Y-102602971D01*
X78486000Y-102234000D01*
X78506002Y-102165879D01*
X78559658Y-102119386D01*
X78612000Y-102108000D01*
X88011000Y-102108000D01*
X88011000Y-101141012D01*
X98493000Y-101141012D01*
X98493000Y-102366000D01*
X99443000Y-102366000D01*
X99443000Y-100441000D01*
X99193021Y-100441000D01*
X99090304Y-100451493D01*
X98923877Y-100506641D01*
X98774655Y-100598683D01*
X98774649Y-100598688D01*
X98650688Y-100722649D01*
X98650683Y-100722655D01*
X98558641Y-100871878D01*
X98503493Y-101038307D01*
X98493000Y-101141012D01*
X88011000Y-101141012D01*
X88011000Y-96688159D01*
X88838000Y-96688159D01*
X88838000Y-97786000D01*
X90037999Y-97786000D01*
X90012979Y-97846402D01*
X89988000Y-97971981D01*
X89988000Y-98100019D01*
X90012979Y-98225598D01*
X90037999Y-98286000D01*
X88838000Y-98286000D01*
X88838000Y-99383840D01*
X88844400Y-99443371D01*
X88894647Y-99578089D01*
X88980810Y-99693189D01*
X89095910Y-99779352D01*
X89230628Y-99829599D01*
X89290159Y-99835999D01*
X89290176Y-99836000D01*
X90388000Y-99836000D01*
X90388000Y-98636001D01*
X90448402Y-98661021D01*
X90573981Y-98686000D01*
X90702019Y-98686000D01*
X90827598Y-98661021D01*
X90888000Y-98636001D01*
X90888000Y-99836000D01*
X91985824Y-99836000D01*
X91985840Y-99835999D01*
X92045371Y-99829599D01*
X92180089Y-99779352D01*
X92295189Y-99693189D01*
X92381352Y-99578089D01*
X92431599Y-99443371D01*
X92437999Y-99383840D01*
X92438000Y-99383823D01*
X92438000Y-98286000D01*
X91238001Y-98286000D01*
X91263021Y-98225598D01*
X91288000Y-98100019D01*
X91288000Y-97971981D01*
X91263021Y-97846402D01*
X91238001Y-97786000D01*
X92438000Y-97786000D01*
X92438000Y-96688176D01*
X92437999Y-96688159D01*
X92431599Y-96628628D01*
X92381352Y-96493910D01*
X92295189Y-96378810D01*
X92180089Y-96292647D01*
X92045371Y-96242400D01*
X91985840Y-96236000D01*
X90888000Y-96236000D01*
X90888000Y-97435998D01*
X90827598Y-97410979D01*
X90702019Y-97386000D01*
X90573981Y-97386000D01*
X90448402Y-97410979D01*
X90388000Y-97435998D01*
X90388000Y-96236000D01*
X89290159Y-96236000D01*
X89230628Y-96242400D01*
X89095910Y-96292647D01*
X88980810Y-96378810D01*
X88894647Y-96493910D01*
X88844400Y-96628628D01*
X88838000Y-96688159D01*
X88011000Y-96688159D01*
X88011000Y-96011000D01*
X88031002Y-95942879D01*
X88084658Y-95896386D01*
X88137000Y-95885000D01*
X100712000Y-95885000D01*
X100780121Y-95905002D01*
G37*
%TD.AperFunction*%
%TD*%
%TA.AperFunction,Conductor*%
%TO.N,+12V*%
G36*
X79334340Y-127141586D02*
G01*
X79346131Y-127160352D01*
X79386205Y-127274877D01*
X79386207Y-127274882D01*
X79466848Y-127384148D01*
X79466850Y-127384150D01*
X79576118Y-127464793D01*
X79576121Y-127464794D01*
X79704297Y-127509645D01*
X79704299Y-127509645D01*
X79704301Y-127509646D01*
X79734734Y-127512500D01*
X79734740Y-127512500D01*
X80793260Y-127512500D01*
X80793266Y-127512500D01*
X80823699Y-127509646D01*
X80951882Y-127464793D01*
X81061150Y-127384150D01*
X81141793Y-127274882D01*
X81181869Y-127160352D01*
X81207267Y-127131932D01*
X81228874Y-127127000D01*
X81611200Y-127127000D01*
X81646414Y-127141586D01*
X81661000Y-127176800D01*
X81661000Y-146177000D01*
X86242000Y-146177000D01*
X86277214Y-146191586D01*
X86286355Y-146213655D01*
X86291800Y-146219100D01*
X94302200Y-146219100D01*
X94307644Y-146213655D01*
X94316786Y-146191586D01*
X94352000Y-146177000D01*
X95835200Y-146177000D01*
X95870414Y-146191586D01*
X95885000Y-146226800D01*
X95885000Y-151207200D01*
X95870414Y-151242414D01*
X95835200Y-151257000D01*
X88138000Y-151257000D01*
X88138000Y-162771700D01*
X88123414Y-162806914D01*
X88088200Y-162821500D01*
X77138800Y-162821500D01*
X77103586Y-162806914D01*
X77089000Y-162771700D01*
X77089000Y-156140177D01*
X83838000Y-156140177D01*
X83838000Y-157238000D01*
X85037999Y-157238000D01*
X85012979Y-157298402D01*
X84988000Y-157423981D01*
X84988000Y-157552019D01*
X85012979Y-157677598D01*
X85037999Y-157738000D01*
X83838000Y-157738000D01*
X83838000Y-158835822D01*
X83844401Y-158895375D01*
X83844402Y-158895378D01*
X83894646Y-159030088D01*
X83980810Y-159145187D01*
X83980812Y-159145189D01*
X84095912Y-159231353D01*
X84095911Y-159231353D01*
X84230621Y-159281597D01*
X84230624Y-159281598D01*
X84290177Y-159288000D01*
X85388000Y-159288000D01*
X85388000Y-158088001D01*
X85448402Y-158113021D01*
X85573981Y-158138000D01*
X85702019Y-158138000D01*
X85827598Y-158113021D01*
X85888000Y-158088001D01*
X85888000Y-159288000D01*
X86985823Y-159288000D01*
X87045375Y-159281598D01*
X87045378Y-159281597D01*
X87180088Y-159231353D01*
X87295187Y-159145189D01*
X87295189Y-159145187D01*
X87381353Y-159030088D01*
X87431597Y-158895378D01*
X87431598Y-158895375D01*
X87438000Y-158835822D01*
X87438000Y-157738000D01*
X86238001Y-157738000D01*
X86263021Y-157677598D01*
X86288000Y-157552019D01*
X86288000Y-157423981D01*
X86263021Y-157298402D01*
X86238001Y-157238000D01*
X87438000Y-157238000D01*
X87438000Y-156140177D01*
X87431598Y-156080624D01*
X87431597Y-156080621D01*
X87381353Y-155945911D01*
X87295189Y-155830812D01*
X87295187Y-155830810D01*
X87180087Y-155744646D01*
X87180088Y-155744646D01*
X87045378Y-155694402D01*
X87045375Y-155694401D01*
X86985823Y-155688000D01*
X85888000Y-155688000D01*
X85888000Y-156887998D01*
X85827598Y-156862979D01*
X85702019Y-156838000D01*
X85573981Y-156838000D01*
X85448402Y-156862979D01*
X85388000Y-156887998D01*
X85388000Y-155688000D01*
X84290177Y-155688000D01*
X84230624Y-155694401D01*
X84230621Y-155694402D01*
X84095911Y-155744646D01*
X83980812Y-155830810D01*
X83980810Y-155830812D01*
X83894646Y-155945911D01*
X83844402Y-156080621D01*
X83844401Y-156080624D01*
X83838000Y-156140177D01*
X77089000Y-156140177D01*
X77089000Y-148510822D01*
X86291800Y-148510822D01*
X86298201Y-148570375D01*
X86298202Y-148570378D01*
X86348446Y-148705088D01*
X86434610Y-148820187D01*
X86434612Y-148820189D01*
X86549712Y-148906353D01*
X86549711Y-148906353D01*
X86684421Y-148956597D01*
X86684424Y-148956598D01*
X86743977Y-148963000D01*
X90047000Y-148963000D01*
X90547000Y-148963000D01*
X93850023Y-148963000D01*
X93909575Y-148956598D01*
X93909578Y-148956597D01*
X94044288Y-148906353D01*
X94159387Y-148820189D01*
X94159389Y-148820187D01*
X94245553Y-148705088D01*
X94295797Y-148570378D01*
X94295798Y-148570375D01*
X94302200Y-148510822D01*
X94302200Y-146719100D01*
X90547000Y-146719100D01*
X90547000Y-148963000D01*
X90047000Y-148963000D01*
X90047000Y-146719100D01*
X86291800Y-146719100D01*
X86291800Y-148510822D01*
X77089000Y-148510822D01*
X77089000Y-145727979D01*
X77394001Y-145727979D01*
X77404493Y-145830695D01*
X77404494Y-145830699D01*
X77459639Y-145997116D01*
X77551684Y-146146345D01*
X77675654Y-146270315D01*
X77824883Y-146362360D01*
X77824882Y-146362360D01*
X77991298Y-146417504D01*
X77991312Y-146417507D01*
X78094019Y-146427999D01*
X78769000Y-146427999D01*
X79269000Y-146427999D01*
X79943980Y-146427999D01*
X80046695Y-146417506D01*
X80046699Y-146417505D01*
X80213116Y-146362360D01*
X80362345Y-146270315D01*
X80486315Y-146146345D01*
X80578360Y-145997116D01*
X80633504Y-145830701D01*
X80633507Y-145830687D01*
X80644000Y-145727980D01*
X80644000Y-144903000D01*
X79269000Y-144903000D01*
X79269000Y-146427999D01*
X78769000Y-146427999D01*
X78769000Y-144903000D01*
X77394001Y-144903000D01*
X77394001Y-145727979D01*
X77089000Y-145727979D01*
X77089000Y-143578019D01*
X77394000Y-143578019D01*
X77394000Y-144403000D01*
X78769000Y-144403000D01*
X79269000Y-144403000D01*
X80643999Y-144403000D01*
X80643999Y-143578020D01*
X80633506Y-143475304D01*
X80633505Y-143475300D01*
X80578360Y-143308883D01*
X80486315Y-143159654D01*
X80362345Y-143035684D01*
X80213116Y-142943639D01*
X80213117Y-142943639D01*
X80046701Y-142888495D01*
X80046687Y-142888492D01*
X79943981Y-142878000D01*
X79269000Y-142878000D01*
X79269000Y-144403000D01*
X78769000Y-144403000D01*
X78769000Y-142878000D01*
X78094020Y-142878000D01*
X77991304Y-142888493D01*
X77991300Y-142888494D01*
X77824883Y-142943639D01*
X77675654Y-143035684D01*
X77551684Y-143159654D01*
X77459639Y-143308883D01*
X77404495Y-143475298D01*
X77404492Y-143475312D01*
X77394000Y-143578019D01*
X77089000Y-143578019D01*
X77089000Y-138742979D01*
X77394001Y-138742979D01*
X77404493Y-138845695D01*
X77404494Y-138845699D01*
X77459639Y-139012116D01*
X77551684Y-139161345D01*
X77675654Y-139285315D01*
X77824883Y-139377360D01*
X77824882Y-139377360D01*
X77991298Y-139432504D01*
X77991312Y-139432507D01*
X78094019Y-139442999D01*
X78769000Y-139442999D01*
X79269000Y-139442999D01*
X79943980Y-139442999D01*
X80046695Y-139432506D01*
X80046699Y-139432505D01*
X80213116Y-139377360D01*
X80362345Y-139285315D01*
X80486315Y-139161345D01*
X80578360Y-139012116D01*
X80633504Y-138845701D01*
X80633507Y-138845687D01*
X80644000Y-138742980D01*
X80644000Y-137918000D01*
X79269000Y-137918000D01*
X79269000Y-139442999D01*
X78769000Y-139442999D01*
X78769000Y-137918000D01*
X77394001Y-137918000D01*
X77394001Y-138742979D01*
X77089000Y-138742979D01*
X77089000Y-136593019D01*
X77394000Y-136593019D01*
X77394000Y-137418000D01*
X78769000Y-137418000D01*
X79269000Y-137418000D01*
X80643999Y-137418000D01*
X80643999Y-136593020D01*
X80633506Y-136490304D01*
X80633505Y-136490300D01*
X80578360Y-136323883D01*
X80486315Y-136174654D01*
X80362345Y-136050684D01*
X80213116Y-135958639D01*
X80213117Y-135958639D01*
X80046701Y-135903495D01*
X80046687Y-135903492D01*
X79943981Y-135893000D01*
X79269000Y-135893000D01*
X79269000Y-137418000D01*
X78769000Y-137418000D01*
X78769000Y-135893000D01*
X78094020Y-135893000D01*
X77991304Y-135903493D01*
X77991300Y-135903494D01*
X77824883Y-135958639D01*
X77675654Y-136050684D01*
X77551684Y-136174654D01*
X77459639Y-136323883D01*
X77404495Y-136490298D01*
X77404492Y-136490312D01*
X77394000Y-136593019D01*
X77089000Y-136593019D01*
X77089000Y-129708112D01*
X77103586Y-129672898D01*
X77138800Y-129658312D01*
X77174014Y-129672898D01*
X77181666Y-129682764D01*
X77183315Y-129685553D01*
X77299446Y-129801684D01*
X77440801Y-129885281D01*
X77598507Y-129931099D01*
X77601000Y-129931295D01*
X78101000Y-129931295D01*
X78103492Y-129931099D01*
X78261198Y-129885281D01*
X78402553Y-129801684D01*
X78518684Y-129685553D01*
X78602281Y-129544198D01*
X78648099Y-129386492D01*
X78651000Y-129349632D01*
X78651000Y-129186979D01*
X79039001Y-129186979D01*
X79049493Y-129289695D01*
X79049494Y-129289699D01*
X79104639Y-129456116D01*
X79196684Y-129605345D01*
X79320654Y-129729315D01*
X79469883Y-129821360D01*
X79469882Y-129821360D01*
X79636298Y-129876504D01*
X79636312Y-129876507D01*
X79739019Y-129886999D01*
X80014000Y-129886999D01*
X80514000Y-129886999D01*
X80788980Y-129886999D01*
X80891695Y-129876506D01*
X80891699Y-129876505D01*
X81058116Y-129821360D01*
X81207345Y-129729315D01*
X81331315Y-129605345D01*
X81423360Y-129456116D01*
X81478504Y-129289701D01*
X81478507Y-129289687D01*
X81489000Y-129186980D01*
X81489000Y-129049500D01*
X80514000Y-129049500D01*
X80514000Y-129886999D01*
X80014000Y-129886999D01*
X80014000Y-129049500D01*
X79039001Y-129049500D01*
X79039001Y-129186979D01*
X78651000Y-129186979D01*
X78651000Y-128709000D01*
X78101000Y-128709000D01*
X78101000Y-129931295D01*
X77601000Y-129931295D01*
X77601000Y-128508800D01*
X77615586Y-128473586D01*
X77650800Y-128459000D01*
X77851000Y-128459000D01*
X77851000Y-128412019D01*
X79039000Y-128412019D01*
X79039000Y-128549500D01*
X80014000Y-128549500D01*
X80514000Y-128549500D01*
X81488999Y-128549500D01*
X81488999Y-128412020D01*
X81478506Y-128309304D01*
X81478505Y-128309300D01*
X81423360Y-128142883D01*
X81331315Y-127993654D01*
X81207345Y-127869684D01*
X81058116Y-127777639D01*
X81058117Y-127777639D01*
X80891701Y-127722495D01*
X80891687Y-127722492D01*
X80788981Y-127712000D01*
X80514000Y-127712000D01*
X80514000Y-128549500D01*
X80014000Y-128549500D01*
X80014000Y-127712000D01*
X79739020Y-127712000D01*
X79636304Y-127722493D01*
X79636300Y-127722494D01*
X79469883Y-127777639D01*
X79320654Y-127869684D01*
X79196684Y-127993654D01*
X79104639Y-128142883D01*
X79049495Y-128309298D01*
X79049492Y-128309312D01*
X79039000Y-128412019D01*
X77851000Y-128412019D01*
X77851000Y-128258800D01*
X77865586Y-128223586D01*
X77900800Y-128209000D01*
X78651000Y-128209000D01*
X78651000Y-127568367D01*
X78648099Y-127531507D01*
X78602281Y-127373801D01*
X78518684Y-127232446D01*
X78498252Y-127212014D01*
X78483666Y-127176800D01*
X78498252Y-127141586D01*
X78533466Y-127127000D01*
X79299126Y-127127000D01*
X79334340Y-127141586D01*
G37*
%TD.AperFunction*%
%TD*%
%TA.AperFunction,Conductor*%
%TO.N,+18V*%
G36*
X89806951Y-113806586D02*
G01*
X89821537Y-113841800D01*
X89819009Y-113857464D01*
X89802495Y-113907298D01*
X89802492Y-113907312D01*
X89792000Y-114010019D01*
X89792000Y-114685000D01*
X93341999Y-114685000D01*
X93341999Y-114010020D01*
X93331506Y-113907304D01*
X93331506Y-113907303D01*
X93314991Y-113857465D01*
X93317760Y-113819450D01*
X93346598Y-113794528D01*
X93362263Y-113792000D01*
X95174126Y-113792000D01*
X95209340Y-113806586D01*
X95221131Y-113825352D01*
X95261205Y-113939877D01*
X95261207Y-113939882D01*
X95341848Y-114049148D01*
X95341850Y-114049150D01*
X95451118Y-114129793D01*
X95451121Y-114129794D01*
X95579297Y-114174645D01*
X95579299Y-114174645D01*
X95579301Y-114174646D01*
X95609734Y-114177500D01*
X95609740Y-114177500D01*
X96668260Y-114177500D01*
X96668266Y-114177500D01*
X96698699Y-114174646D01*
X96826882Y-114129793D01*
X96936150Y-114049150D01*
X97016793Y-113939882D01*
X97056869Y-113825352D01*
X97082267Y-113796932D01*
X97103874Y-113792000D01*
X97732700Y-113792000D01*
X97767914Y-113806586D01*
X97782500Y-113841800D01*
X97782500Y-114232614D01*
X97788914Y-114303199D01*
X97839520Y-114465602D01*
X97839521Y-114465604D01*
X97839522Y-114465606D01*
X97927528Y-114611185D01*
X98047815Y-114731472D01*
X98193394Y-114819478D01*
X98193396Y-114819478D01*
X98193397Y-114819479D01*
X98355800Y-114870085D01*
X98355801Y-114870085D01*
X98355804Y-114870086D01*
X98426384Y-114876500D01*
X98426386Y-114876500D01*
X99539614Y-114876500D01*
X99539616Y-114876500D01*
X99610196Y-114870086D01*
X99772606Y-114819478D01*
X99918185Y-114731472D01*
X100038472Y-114611185D01*
X100126478Y-114465606D01*
X100177086Y-114303196D01*
X100183500Y-114232616D01*
X100183500Y-113841800D01*
X100198086Y-113806586D01*
X100233300Y-113792000D01*
X104308995Y-113792000D01*
X104344209Y-113806586D01*
X104358795Y-113841800D01*
X104344209Y-113877014D01*
X104331122Y-113886414D01*
X104183979Y-113959389D01*
X104183975Y-113959392D01*
X104035633Y-114078632D01*
X104035632Y-114078633D01*
X103916393Y-114226973D01*
X103831830Y-114397481D01*
X103785896Y-114582182D01*
X103783000Y-114624889D01*
X103783000Y-114826000D01*
X106783000Y-114826000D01*
X106783000Y-114624915D01*
X106782999Y-114624889D01*
X106780103Y-114582182D01*
X106734169Y-114397481D01*
X106649606Y-114226973D01*
X106530367Y-114078633D01*
X106530366Y-114078632D01*
X106382024Y-113959392D01*
X106382020Y-113959389D01*
X106234878Y-113886414D01*
X106209812Y-113857701D01*
X106212391Y-113819673D01*
X106241104Y-113794607D01*
X106257005Y-113792000D01*
X107265200Y-113792000D01*
X107300414Y-113806586D01*
X107315000Y-113841800D01*
X107315000Y-123648200D01*
X107300414Y-123683414D01*
X107265200Y-123698000D01*
X88949800Y-123698000D01*
X88914586Y-123683414D01*
X88900000Y-123648200D01*
X88900000Y-122490979D01*
X89417001Y-122490979D01*
X89427493Y-122593695D01*
X89427494Y-122593699D01*
X89482639Y-122760116D01*
X89574684Y-122909345D01*
X89698654Y-123033315D01*
X89847883Y-123125360D01*
X89847882Y-123125360D01*
X90014298Y-123180504D01*
X90014312Y-123180507D01*
X90117019Y-123190999D01*
X91317000Y-123190999D01*
X91817000Y-123190999D01*
X93016980Y-123190999D01*
X93119695Y-123180506D01*
X93119699Y-123180505D01*
X93286116Y-123125360D01*
X93435345Y-123033315D01*
X93559315Y-122909345D01*
X93651360Y-122760116D01*
X93706504Y-122593701D01*
X93706507Y-122593687D01*
X93717000Y-122490980D01*
X93717000Y-121691000D01*
X91817000Y-121691000D01*
X91817000Y-123190999D01*
X91317000Y-123190999D01*
X91317000Y-121691000D01*
X89417001Y-121691000D01*
X89417001Y-122490979D01*
X88900000Y-122490979D01*
X88900000Y-120391019D01*
X89417000Y-120391019D01*
X89417000Y-121191000D01*
X91317000Y-121191000D01*
X91817000Y-121191000D01*
X93716999Y-121191000D01*
X93716999Y-120391020D01*
X93706506Y-120288304D01*
X93706505Y-120288300D01*
X93651360Y-120121883D01*
X93559315Y-119972654D01*
X93435345Y-119848684D01*
X93286116Y-119756639D01*
X93286117Y-119756639D01*
X93119701Y-119701495D01*
X93119687Y-119701492D01*
X93016981Y-119691000D01*
X91817000Y-119691000D01*
X91817000Y-121191000D01*
X91317000Y-121191000D01*
X91317000Y-119691000D01*
X90117020Y-119691000D01*
X90014304Y-119701493D01*
X90014300Y-119701494D01*
X89847883Y-119756639D01*
X89698654Y-119848684D01*
X89574684Y-119972654D01*
X89482639Y-120121883D01*
X89427495Y-120288298D01*
X89427492Y-120288312D01*
X89417000Y-120391019D01*
X88900000Y-120391019D01*
X88900000Y-115859979D01*
X89792001Y-115859979D01*
X89802493Y-115962695D01*
X89802494Y-115962699D01*
X89857639Y-116129116D01*
X89949684Y-116278345D01*
X90073654Y-116402315D01*
X90222883Y-116494360D01*
X90222882Y-116494360D01*
X90389298Y-116549504D01*
X90389312Y-116549507D01*
X90492019Y-116559999D01*
X91317000Y-116559999D01*
X91817000Y-116559999D01*
X92641980Y-116559999D01*
X92744695Y-116549506D01*
X92744699Y-116549505D01*
X92911116Y-116494360D01*
X93060345Y-116402315D01*
X93184315Y-116278345D01*
X93276360Y-116129116D01*
X93331504Y-115962701D01*
X93331507Y-115962687D01*
X93342000Y-115859980D01*
X93342000Y-115851979D01*
X94914001Y-115851979D01*
X94924493Y-115954695D01*
X94924494Y-115954699D01*
X94979639Y-116121116D01*
X95071684Y-116270345D01*
X95195654Y-116394315D01*
X95344883Y-116486360D01*
X95344882Y-116486360D01*
X95511298Y-116541504D01*
X95511312Y-116541507D01*
X95614019Y-116551999D01*
X95889000Y-116551999D01*
X96389000Y-116551999D01*
X96663980Y-116551999D01*
X96766695Y-116541506D01*
X96766699Y-116541505D01*
X96933116Y-116486360D01*
X97082345Y-116394315D01*
X97206315Y-116270345D01*
X97298360Y-116121116D01*
X97353504Y-115954701D01*
X97353507Y-115954687D01*
X97364000Y-115851980D01*
X97364000Y-115714500D01*
X96389000Y-115714500D01*
X96389000Y-116551999D01*
X95889000Y-116551999D01*
X95889000Y-115714500D01*
X94914001Y-115714500D01*
X94914001Y-115851979D01*
X93342000Y-115851979D01*
X93342000Y-115527110D01*
X103783000Y-115527110D01*
X103785896Y-115569817D01*
X103831830Y-115754518D01*
X103916393Y-115925026D01*
X104035632Y-116073366D01*
X104035633Y-116073367D01*
X104183973Y-116192606D01*
X104354481Y-116277169D01*
X104539182Y-116323103D01*
X104581889Y-116325999D01*
X104581915Y-116326000D01*
X105033000Y-116326000D01*
X105533000Y-116326000D01*
X105984085Y-116326000D01*
X105984110Y-116325999D01*
X106026817Y-116323103D01*
X106211518Y-116277169D01*
X106382026Y-116192606D01*
X106530366Y-116073367D01*
X106530367Y-116073366D01*
X106649606Y-115925026D01*
X106734169Y-115754518D01*
X106780103Y-115569817D01*
X106782999Y-115527110D01*
X106783000Y-115527084D01*
X106783000Y-115326000D01*
X105533000Y-115326000D01*
X105533000Y-116326000D01*
X105033000Y-116326000D01*
X105033000Y-115326000D01*
X103783000Y-115326000D01*
X103783000Y-115527110D01*
X93342000Y-115527110D01*
X93342000Y-115185000D01*
X91817000Y-115185000D01*
X91817000Y-116559999D01*
X91317000Y-116559999D01*
X91317000Y-115185000D01*
X89792001Y-115185000D01*
X89792001Y-115859979D01*
X88900000Y-115859979D01*
X88900000Y-115077019D01*
X94914000Y-115077019D01*
X94914000Y-115214500D01*
X95889000Y-115214500D01*
X96389000Y-115214500D01*
X97363999Y-115214500D01*
X97363999Y-115077020D01*
X97353506Y-114974304D01*
X97353505Y-114974300D01*
X97298360Y-114807883D01*
X97206315Y-114658654D01*
X97082345Y-114534684D01*
X96933116Y-114442639D01*
X96933117Y-114442639D01*
X96766701Y-114387495D01*
X96766687Y-114387492D01*
X96663981Y-114377000D01*
X96389000Y-114377000D01*
X96389000Y-115214500D01*
X95889000Y-115214500D01*
X95889000Y-114377000D01*
X95614020Y-114377000D01*
X95511304Y-114387493D01*
X95511300Y-114387494D01*
X95344883Y-114442639D01*
X95195654Y-114534684D01*
X95071684Y-114658654D01*
X94979639Y-114807883D01*
X94924495Y-114974298D01*
X94924492Y-114974312D01*
X94914000Y-115077019D01*
X88900000Y-115077019D01*
X88900000Y-113841800D01*
X88914586Y-113806586D01*
X88949800Y-113792000D01*
X89771737Y-113792000D01*
X89806951Y-113806586D01*
G37*
%TD.AperFunction*%
%TD*%
%TA.AperFunction,Conductor*%
%TO.N,Net-(Q1-S)*%
G36*
X85907093Y-114447002D02*
G01*
X85953586Y-114500658D01*
X85963690Y-114570932D01*
X85946213Y-114619147D01*
X85860642Y-114757877D01*
X85805493Y-114924308D01*
X85795000Y-115027012D01*
X85795000Y-115177000D01*
X86869000Y-115177000D01*
X86937121Y-115197002D01*
X86983614Y-115250658D01*
X86995000Y-115303000D01*
X86995000Y-115427000D01*
X87119000Y-115427000D01*
X87187121Y-115447002D01*
X87233614Y-115500658D01*
X87245000Y-115553000D01*
X87245000Y-116526999D01*
X87494978Y-116526999D01*
X87597691Y-116516506D01*
X87764122Y-116461357D01*
X87818853Y-116427599D01*
X87887333Y-116408862D01*
X87955071Y-116430121D01*
X88000563Y-116484628D01*
X88011000Y-116534840D01*
X88011000Y-124207000D01*
X87990998Y-124275121D01*
X87937342Y-124321614D01*
X87885000Y-124333000D01*
X87540000Y-124333000D01*
X87471879Y-124312998D01*
X87425386Y-124259342D01*
X87414000Y-124207000D01*
X87414000Y-123701850D01*
X84200000Y-123701850D01*
X84131879Y-123681848D01*
X84085386Y-123628192D01*
X84074000Y-123575850D01*
X84074000Y-123451850D01*
X83950000Y-123451850D01*
X83881879Y-123431848D01*
X83835386Y-123378192D01*
X83824000Y-123325850D01*
X83824000Y-121979553D01*
X84324000Y-121979553D01*
X84324000Y-123201850D01*
X85094000Y-123201850D01*
X85094000Y-121979553D01*
X85594000Y-121979553D01*
X85594000Y-123201850D01*
X86364000Y-123201850D01*
X86864000Y-123201850D01*
X87414000Y-123201850D01*
X87414000Y-122561200D01*
X87413999Y-122561198D01*
X87411100Y-122524360D01*
X87365280Y-122366647D01*
X87281685Y-122225297D01*
X87281680Y-122225290D01*
X87165559Y-122109169D01*
X87165552Y-122109164D01*
X87024202Y-122025569D01*
X86866491Y-121979750D01*
X86866495Y-121979750D01*
X86864000Y-121979553D01*
X86864000Y-123201850D01*
X86364000Y-123201850D01*
X86364000Y-121979553D01*
X86361506Y-121979750D01*
X86203797Y-122025569D01*
X86062448Y-122109163D01*
X86056225Y-122113991D01*
X85990139Y-122139937D01*
X85920517Y-122126035D01*
X85901775Y-122113991D01*
X85895551Y-122109163D01*
X85754202Y-122025569D01*
X85596491Y-121979750D01*
X85596495Y-121979750D01*
X85594000Y-121979553D01*
X85094000Y-121979553D01*
X85091506Y-121979750D01*
X84933797Y-122025569D01*
X84792448Y-122109163D01*
X84786225Y-122113991D01*
X84720139Y-122139937D01*
X84650517Y-122126035D01*
X84631775Y-122113991D01*
X84625551Y-122109163D01*
X84484202Y-122025569D01*
X84326491Y-121979750D01*
X84326495Y-121979750D01*
X84324000Y-121979553D01*
X83824000Y-121979553D01*
X83821506Y-121979750D01*
X83663798Y-122025569D01*
X83629138Y-122046067D01*
X83560321Y-122063526D01*
X83492990Y-122041008D01*
X83448522Y-121985663D01*
X83439000Y-121937613D01*
X83439000Y-119253000D01*
X82295000Y-119253000D01*
X82226879Y-119232998D01*
X82180386Y-119179342D01*
X82169000Y-119127000D01*
X82169000Y-116966000D01*
X82189002Y-116897879D01*
X82242658Y-116851386D01*
X82295000Y-116840000D01*
X85344000Y-116840000D01*
X85344000Y-115826978D01*
X85795001Y-115826978D01*
X85805493Y-115929691D01*
X85860642Y-116096122D01*
X85952683Y-116245344D01*
X85952688Y-116245350D01*
X86076649Y-116369311D01*
X86076655Y-116369316D01*
X86225877Y-116461357D01*
X86392308Y-116516506D01*
X86495012Y-116526999D01*
X86745000Y-116526999D01*
X86745000Y-115677000D01*
X85795001Y-115677000D01*
X85795001Y-115826978D01*
X85344000Y-115826978D01*
X85344000Y-114553000D01*
X85364002Y-114484879D01*
X85417658Y-114438386D01*
X85470000Y-114427000D01*
X85838972Y-114427000D01*
X85907093Y-114447002D01*
G37*
%TD.AperFunction*%
%TD*%
%TA.AperFunction,Conductor*%
%TO.N,Net-(U1-VO)*%
G36*
X108274039Y-99841685D02*
G01*
X108319794Y-99894489D01*
X108331000Y-99946000D01*
X108331000Y-105286000D01*
X108311315Y-105353039D01*
X108258511Y-105398794D01*
X108207000Y-105410000D01*
X103502000Y-105410000D01*
X103434961Y-105390315D01*
X103389206Y-105337511D01*
X103378000Y-105286000D01*
X103378000Y-104090986D01*
X104593001Y-104090986D01*
X104603494Y-104193696D01*
X104603494Y-104193698D01*
X104658640Y-104360119D01*
X104658645Y-104360130D01*
X104750680Y-104509340D01*
X104750683Y-104509344D01*
X104874655Y-104633316D01*
X104874659Y-104633319D01*
X105023869Y-104725354D01*
X105023880Y-104725359D01*
X105190302Y-104780505D01*
X105293019Y-104790999D01*
X105542999Y-104790999D01*
X106043000Y-104790999D01*
X106292972Y-104790999D01*
X106292986Y-104790998D01*
X106395696Y-104780505D01*
X106395698Y-104780505D01*
X106562119Y-104725359D01*
X106562130Y-104725354D01*
X106711340Y-104633319D01*
X106711344Y-104633316D01*
X106835316Y-104509344D01*
X106835319Y-104509340D01*
X106927354Y-104360130D01*
X106927359Y-104360119D01*
X106982505Y-104193697D01*
X106992999Y-104090986D01*
X106993000Y-104090973D01*
X106993000Y-102866000D01*
X106043000Y-102866000D01*
X106043000Y-104790999D01*
X105542999Y-104790999D01*
X105543000Y-104790998D01*
X105543000Y-102866000D01*
X104593001Y-102866000D01*
X104593001Y-104090986D01*
X103378000Y-104090986D01*
X103378000Y-101141013D01*
X104593000Y-101141013D01*
X104593000Y-102366000D01*
X105543000Y-102366000D01*
X106043000Y-102366000D01*
X106992999Y-102366000D01*
X106992999Y-101141028D01*
X106992998Y-101141013D01*
X106982505Y-101038303D01*
X106982505Y-101038301D01*
X106927359Y-100871880D01*
X106927354Y-100871869D01*
X106835319Y-100722659D01*
X106835316Y-100722655D01*
X106711344Y-100598683D01*
X106711340Y-100598680D01*
X106562130Y-100506645D01*
X106562119Y-100506640D01*
X106395697Y-100451494D01*
X106292986Y-100441000D01*
X106043000Y-100441000D01*
X106043000Y-102366000D01*
X105543000Y-102366000D01*
X105543000Y-100441000D01*
X105293029Y-100441000D01*
X105293012Y-100441001D01*
X105190303Y-100451494D01*
X105190301Y-100451494D01*
X105023880Y-100506640D01*
X105023869Y-100506645D01*
X104874659Y-100598680D01*
X104874655Y-100598683D01*
X104750683Y-100722655D01*
X104750680Y-100722659D01*
X104658645Y-100871869D01*
X104658640Y-100871880D01*
X104603494Y-101038302D01*
X104593000Y-101141013D01*
X103378000Y-101141013D01*
X103378000Y-99946000D01*
X103397685Y-99878961D01*
X103450489Y-99833206D01*
X103502000Y-99822000D01*
X108207000Y-99822000D01*
X108274039Y-99841685D01*
G37*
%TD.AperFunction*%
%TD*%
%TA.AperFunction,Conductor*%
%TO.N,Net-(D1-A)*%
G36*
X89365108Y-127020002D02*
G01*
X89411601Y-127073658D01*
X89422334Y-127138807D01*
X89417000Y-127191012D01*
X89417000Y-127991000D01*
X93716999Y-127991000D01*
X93716999Y-127191020D01*
X93711665Y-127138804D01*
X93724641Y-127069004D01*
X93773294Y-127017299D01*
X93837013Y-127000000D01*
X96648000Y-127000000D01*
X96716121Y-127020002D01*
X96762614Y-127073658D01*
X96774000Y-127126000D01*
X96774000Y-136653000D01*
X96753998Y-136721121D01*
X96700342Y-136767614D01*
X96648000Y-136779000D01*
X94396491Y-136779000D01*
X94328370Y-136758998D01*
X94307396Y-136742095D01*
X94302201Y-136736900D01*
X86291799Y-136736900D01*
X86286604Y-136742095D01*
X86224292Y-136776121D01*
X86197509Y-136779000D01*
X82422000Y-136779000D01*
X82353879Y-136758998D01*
X82307386Y-136705342D01*
X82296000Y-136653000D01*
X82296000Y-134445159D01*
X86291800Y-134445159D01*
X86291800Y-136236900D01*
X90047000Y-136236900D01*
X90547000Y-136236900D01*
X94302200Y-136236900D01*
X94302200Y-134445176D01*
X94302199Y-134445159D01*
X94295799Y-134385628D01*
X94245552Y-134250910D01*
X94159389Y-134135810D01*
X94044289Y-134049647D01*
X93909571Y-133999400D01*
X93850040Y-133993000D01*
X90547000Y-133993000D01*
X90547000Y-136236900D01*
X90047000Y-136236900D01*
X90047000Y-133993000D01*
X86743959Y-133993000D01*
X86684428Y-133999400D01*
X86549710Y-134049647D01*
X86434610Y-134135810D01*
X86348447Y-134250910D01*
X86298200Y-134385628D01*
X86291800Y-134445159D01*
X82296000Y-134445159D01*
X82296000Y-129967533D01*
X82316002Y-129899412D01*
X82369658Y-129852919D01*
X82439932Y-129842815D01*
X82457154Y-129846536D01*
X82551512Y-129873950D01*
X82554000Y-129874146D01*
X82554000Y-129874145D01*
X83054000Y-129874145D01*
X83056489Y-129873950D01*
X83214202Y-129828130D01*
X83355549Y-129744537D01*
X83361770Y-129739712D01*
X83427854Y-129713763D01*
X83497477Y-129727661D01*
X83516230Y-129739712D01*
X83522450Y-129744537D01*
X83663797Y-129828130D01*
X83821512Y-129873950D01*
X83821508Y-129873950D01*
X83824000Y-129874146D01*
X84324000Y-129874146D01*
X84326489Y-129873950D01*
X84484202Y-129828130D01*
X84625549Y-129744537D01*
X84631770Y-129739712D01*
X84697854Y-129713763D01*
X84767477Y-129727661D01*
X84786230Y-129739712D01*
X84792450Y-129744537D01*
X84933797Y-129828130D01*
X85091512Y-129873950D01*
X85091508Y-129873950D01*
X85094000Y-129874146D01*
X85094000Y-129874145D01*
X85594000Y-129874145D01*
X85596489Y-129873950D01*
X85754202Y-129828130D01*
X85895549Y-129744537D01*
X85901770Y-129739712D01*
X85967854Y-129713763D01*
X86037477Y-129727661D01*
X86056230Y-129739712D01*
X86062450Y-129744537D01*
X86203797Y-129828130D01*
X86361512Y-129873950D01*
X86361508Y-129873950D01*
X86364000Y-129874146D01*
X86864000Y-129874146D01*
X86866489Y-129873950D01*
X87024202Y-129828130D01*
X87165552Y-129744535D01*
X87165559Y-129744530D01*
X87281680Y-129628409D01*
X87281685Y-129628402D01*
X87365280Y-129487052D01*
X87411100Y-129329339D01*
X87413999Y-129292501D01*
X87414000Y-129292499D01*
X87414000Y-129290978D01*
X89417001Y-129290978D01*
X89427493Y-129393691D01*
X89482642Y-129560122D01*
X89574683Y-129709344D01*
X89574688Y-129709350D01*
X89698649Y-129833311D01*
X89698655Y-129833316D01*
X89847877Y-129925357D01*
X90014308Y-129980506D01*
X90117012Y-129990999D01*
X91317000Y-129990999D01*
X91817000Y-129990999D01*
X93016978Y-129990999D01*
X93119691Y-129980506D01*
X93286122Y-129925357D01*
X93435344Y-129833316D01*
X93435350Y-129833311D01*
X93559311Y-129709350D01*
X93559316Y-129709344D01*
X93651357Y-129560122D01*
X93706506Y-129393691D01*
X93716999Y-129290987D01*
X93717000Y-129290987D01*
X93717000Y-128491000D01*
X91817000Y-128491000D01*
X91817000Y-129990999D01*
X91317000Y-129990999D01*
X91317000Y-128491000D01*
X89417001Y-128491000D01*
X89417001Y-129290978D01*
X87414000Y-129290978D01*
X87414000Y-128651850D01*
X86864000Y-128651850D01*
X86864000Y-129874146D01*
X86364000Y-129874146D01*
X86364000Y-128651850D01*
X85594000Y-128651850D01*
X85594000Y-129874145D01*
X85094000Y-129874145D01*
X85094000Y-128651850D01*
X84324000Y-128651850D01*
X84324000Y-129874146D01*
X83824000Y-129874146D01*
X83824000Y-128651850D01*
X83054000Y-128651850D01*
X83054000Y-129874145D01*
X82554000Y-129874145D01*
X82554000Y-128527850D01*
X82574002Y-128459729D01*
X82627658Y-128413236D01*
X82680000Y-128401850D01*
X82804000Y-128401850D01*
X82804000Y-128277850D01*
X82824002Y-128209729D01*
X82877658Y-128163236D01*
X82930000Y-128151850D01*
X87414000Y-128151850D01*
X87414000Y-127511200D01*
X87413999Y-127511198D01*
X87411100Y-127474360D01*
X87365280Y-127316647D01*
X87290463Y-127190139D01*
X87273003Y-127121323D01*
X87295520Y-127053992D01*
X87350864Y-127009523D01*
X87398916Y-127000000D01*
X89296987Y-127000000D01*
X89365108Y-127020002D01*
G37*
%TD.AperFunction*%
%TD*%
%TA.AperFunction,Conductor*%
%TO.N,GND*%
G36*
X105133445Y-92722502D02*
G01*
X105179938Y-92776158D01*
X105190042Y-92846432D01*
X105160548Y-92911012D01*
X105133949Y-92934172D01*
X105010210Y-93014529D01*
X105010200Y-93014536D01*
X104752650Y-93223095D01*
X104752649Y-93223096D01*
X106247301Y-94717748D01*
X106145670Y-94791588D01*
X105967588Y-94969670D01*
X105893748Y-95071301D01*
X104399096Y-93576649D01*
X104399095Y-93576650D01*
X104190536Y-93834200D01*
X104190529Y-93834210D01*
X103979309Y-94159459D01*
X103979303Y-94159470D01*
X103803242Y-94505010D01*
X103803241Y-94505012D01*
X103664261Y-94867064D01*
X103563887Y-95241670D01*
X103503217Y-95624722D01*
X103482922Y-96011993D01*
X103482922Y-96012006D01*
X103503217Y-96399277D01*
X103563887Y-96782329D01*
X103664261Y-97156935D01*
X103803241Y-97518987D01*
X103803242Y-97518989D01*
X103979303Y-97864529D01*
X103979309Y-97864540D01*
X104190529Y-98189789D01*
X104190536Y-98189799D01*
X104399095Y-98447348D01*
X104399096Y-98447349D01*
X105893747Y-96952697D01*
X105967588Y-97054330D01*
X106145670Y-97232412D01*
X106247300Y-97306251D01*
X104752649Y-98800902D01*
X104752650Y-98800903D01*
X105010200Y-99009463D01*
X105010210Y-99009470D01*
X105335459Y-99220690D01*
X105335470Y-99220696D01*
X105538672Y-99324233D01*
X105590287Y-99372981D01*
X105607353Y-99441896D01*
X105584452Y-99509098D01*
X105528855Y-99553250D01*
X105481469Y-99562500D01*
X103501992Y-99562500D01*
X103446827Y-99568432D01*
X103395352Y-99579630D01*
X103368537Y-99586986D01*
X103280553Y-99637088D01*
X103280549Y-99637091D01*
X103227755Y-99682837D01*
X103227742Y-99682849D01*
X103195629Y-99716129D01*
X103148698Y-99805845D01*
X103148694Y-99805856D01*
X103129011Y-99872890D01*
X103118500Y-99945994D01*
X103118500Y-105286007D01*
X103124432Y-105341172D01*
X103135630Y-105392647D01*
X103142986Y-105419462D01*
X103183264Y-105490195D01*
X103193089Y-105507448D01*
X103225878Y-105545289D01*
X103238837Y-105560244D01*
X103238849Y-105560257D01*
X103272129Y-105592370D01*
X103350346Y-105633286D01*
X103361849Y-105639303D01*
X103428888Y-105658988D01*
X103502000Y-105669500D01*
X108206995Y-105669500D01*
X108207000Y-105669500D01*
X108262163Y-105663569D01*
X108283221Y-105658988D01*
X108313647Y-105652369D01*
X108313649Y-105652368D01*
X108313674Y-105652363D01*
X108340461Y-105645014D01*
X108428448Y-105594911D01*
X108481252Y-105549156D01*
X108513371Y-105515869D01*
X108560303Y-105426151D01*
X108579988Y-105359112D01*
X108590500Y-105286000D01*
X108590500Y-99946000D01*
X108584569Y-99890837D01*
X108580665Y-99872890D01*
X108573369Y-99839352D01*
X108573367Y-99839345D01*
X108573363Y-99839326D01*
X108566014Y-99812539D01*
X108562208Y-99805856D01*
X108556189Y-99795286D01*
X108515911Y-99724552D01*
X108470156Y-99671748D01*
X108470152Y-99671744D01*
X108468671Y-99670181D01*
X108468487Y-99669821D01*
X108468314Y-99669622D01*
X108468363Y-99669579D01*
X108436321Y-99606983D01*
X108443275Y-99536328D01*
X108487324Y-99480648D01*
X108514959Y-99465865D01*
X108694981Y-99396761D01*
X108694989Y-99396757D01*
X109040529Y-99220696D01*
X109040540Y-99220690D01*
X109365789Y-99009470D01*
X109623349Y-98800902D01*
X108128698Y-97306251D01*
X108230330Y-97232412D01*
X108408412Y-97054330D01*
X108482251Y-96952698D01*
X109976902Y-98447349D01*
X110185469Y-98189792D01*
X110265827Y-98066051D01*
X110319703Y-98019814D01*
X110390025Y-98010044D01*
X110454464Y-98039844D01*
X110492564Y-98099752D01*
X110497500Y-98134675D01*
X110497500Y-157389324D01*
X110477498Y-157457445D01*
X110423842Y-157503938D01*
X110353568Y-157514042D01*
X110288988Y-157484548D01*
X110265828Y-157457949D01*
X110185470Y-157334210D01*
X110185463Y-157334200D01*
X109976903Y-157076650D01*
X109976902Y-157076649D01*
X108482251Y-158571301D01*
X108408412Y-158469670D01*
X108230330Y-158291588D01*
X108128698Y-158217748D01*
X109623349Y-156723096D01*
X109623348Y-156723095D01*
X109365799Y-156514536D01*
X109365789Y-156514529D01*
X109040540Y-156303309D01*
X109040529Y-156303303D01*
X108694989Y-156127242D01*
X108694987Y-156127241D01*
X108332935Y-155988261D01*
X107958329Y-155887887D01*
X107575277Y-155827217D01*
X107188006Y-155806922D01*
X107187994Y-155806922D01*
X106800722Y-155827217D01*
X106417670Y-155887887D01*
X106043064Y-155988261D01*
X105681012Y-156127241D01*
X105681010Y-156127242D01*
X105335470Y-156303303D01*
X105335459Y-156303309D01*
X105010210Y-156514529D01*
X105010200Y-156514536D01*
X104752650Y-156723095D01*
X104752649Y-156723096D01*
X106247301Y-158217748D01*
X106145670Y-158291588D01*
X105967588Y-158469670D01*
X105893748Y-158571301D01*
X104399096Y-157076649D01*
X104399095Y-157076650D01*
X104190536Y-157334200D01*
X104190529Y-157334210D01*
X103979309Y-157659459D01*
X103979303Y-157659470D01*
X103803242Y-158005010D01*
X103803241Y-158005012D01*
X103664261Y-158367064D01*
X103563887Y-158741670D01*
X103503217Y-159124722D01*
X103482922Y-159511993D01*
X103482922Y-159512006D01*
X103503217Y-159899277D01*
X103563887Y-160282329D01*
X103664261Y-160656935D01*
X103803241Y-161018987D01*
X103803242Y-161018989D01*
X103979303Y-161364529D01*
X103979309Y-161364540D01*
X104190529Y-161689789D01*
X104190536Y-161689799D01*
X104399095Y-161947348D01*
X104399096Y-161947349D01*
X105893747Y-160452697D01*
X105967588Y-160554330D01*
X106145670Y-160732412D01*
X106247301Y-160806251D01*
X104752649Y-162300902D01*
X104752650Y-162300903D01*
X105010200Y-162509463D01*
X105010210Y-162509470D01*
X105133949Y-162589828D01*
X105180185Y-162643704D01*
X105189955Y-162714025D01*
X105160155Y-162778465D01*
X105100246Y-162816564D01*
X105065324Y-162821500D01*
X88523500Y-162821500D01*
X88455379Y-162801498D01*
X88408886Y-162747842D01*
X88397500Y-162695500D01*
X88397500Y-157488000D01*
X88832953Y-157488000D01*
X88853115Y-157757032D01*
X88913145Y-158020045D01*
X88913147Y-158020050D01*
X89011705Y-158271174D01*
X89011707Y-158271178D01*
X89146598Y-158504816D01*
X89200295Y-158572150D01*
X89200296Y-158572150D01*
X90036958Y-157735488D01*
X90061978Y-157795890D01*
X90133112Y-157902351D01*
X90223649Y-157992888D01*
X90330110Y-158064022D01*
X90390510Y-158089041D01*
X89552849Y-158926701D01*
X89552849Y-158926703D01*
X89735467Y-159051211D01*
X89735474Y-159051215D01*
X89978537Y-159168269D01*
X89978550Y-159168274D01*
X90236328Y-159247788D01*
X90236340Y-159247790D01*
X90503113Y-159288000D01*
X90772887Y-159288000D01*
X91039659Y-159247790D01*
X91039671Y-159247788D01*
X91297449Y-159168274D01*
X91297462Y-159168269D01*
X91540526Y-159051215D01*
X91723150Y-158926702D01*
X90885489Y-158089041D01*
X90945890Y-158064022D01*
X91052351Y-157992888D01*
X91142888Y-157902351D01*
X91214022Y-157795890D01*
X91239041Y-157735489D01*
X92075703Y-158572151D01*
X92129402Y-158504815D01*
X92264292Y-158271178D01*
X92264294Y-158271174D01*
X92362852Y-158020050D01*
X92362854Y-158020045D01*
X92422884Y-157757032D01*
X92443046Y-157488000D01*
X92422884Y-157218967D01*
X92362854Y-156955954D01*
X92362852Y-156955949D01*
X92264294Y-156704825D01*
X92264292Y-156704821D01*
X92129402Y-156471184D01*
X92075703Y-156403848D01*
X92075702Y-156403848D01*
X91239040Y-157240509D01*
X91214022Y-157180110D01*
X91142888Y-157073649D01*
X91052351Y-156983112D01*
X90945890Y-156911978D01*
X90885488Y-156886958D01*
X91723149Y-156049297D01*
X91723149Y-156049296D01*
X91540519Y-155924780D01*
X91540518Y-155924779D01*
X91297467Y-155807732D01*
X91297449Y-155807725D01*
X91039671Y-155728211D01*
X91039659Y-155728209D01*
X90772887Y-155688000D01*
X90503113Y-155688000D01*
X90236340Y-155728209D01*
X90236328Y-155728211D01*
X89978550Y-155807725D01*
X89978532Y-155807732D01*
X89735482Y-155924779D01*
X89735474Y-155924784D01*
X89552849Y-156049295D01*
X89552849Y-156049297D01*
X90390511Y-156886958D01*
X90330110Y-156911978D01*
X90223649Y-156983112D01*
X90133112Y-157073649D01*
X90061978Y-157180110D01*
X90036958Y-157240510D01*
X89200296Y-156403848D01*
X89200295Y-156403848D01*
X89146597Y-156471184D01*
X89011707Y-156704821D01*
X89011705Y-156704825D01*
X88913147Y-156955949D01*
X88913145Y-156955954D01*
X88853115Y-157218967D01*
X88832953Y-157488000D01*
X88397500Y-157488000D01*
X88397500Y-151642500D01*
X88417502Y-151574379D01*
X88471158Y-151527886D01*
X88523500Y-151516500D01*
X95835199Y-151516500D01*
X95835200Y-151516500D01*
X95934506Y-151496747D01*
X95969720Y-151482161D01*
X95969721Y-151482160D01*
X96053909Y-151425908D01*
X96110161Y-151341720D01*
X96124747Y-151306506D01*
X96144500Y-151207200D01*
X96144500Y-146226800D01*
X96124747Y-146127494D01*
X96110161Y-146092280D01*
X96110160Y-146092279D01*
X96053908Y-146008091D01*
X95969720Y-145951839D01*
X95956282Y-145946273D01*
X95934511Y-145937255D01*
X95934506Y-145937253D01*
X95835202Y-145917500D01*
X95835200Y-145917500D01*
X94352000Y-145917500D01*
X94351997Y-145917500D01*
X94252693Y-145937253D01*
X94252684Y-145937256D01*
X94230916Y-145946273D01*
X94160326Y-145953862D01*
X94096840Y-145922082D01*
X94060613Y-145861024D01*
X94056699Y-145829864D01*
X94056699Y-144550400D01*
X94076701Y-144482279D01*
X94130357Y-144435786D01*
X94182699Y-144424400D01*
X96748600Y-144424400D01*
X96748600Y-138531600D01*
X94182700Y-138531600D01*
X94114579Y-138511598D01*
X94068086Y-138457942D01*
X94056700Y-138405600D01*
X94056700Y-137122400D01*
X94076702Y-137054279D01*
X94130358Y-137007786D01*
X94182700Y-136996400D01*
X94202145Y-136996400D01*
X94248647Y-137007818D01*
X94249516Y-137005667D01*
X94255252Y-137007982D01*
X94255261Y-137007987D01*
X94323382Y-137027989D01*
X94396491Y-137038500D01*
X94396494Y-137038500D01*
X96647994Y-137038500D01*
X96648000Y-137038500D01*
X96703159Y-137032570D01*
X96755501Y-137021184D01*
X96782291Y-137013834D01*
X96870278Y-136963731D01*
X96923934Y-136917238D01*
X96956056Y-136883949D01*
X97002987Y-136794230D01*
X97022989Y-136726109D01*
X97033500Y-136653000D01*
X97033500Y-127126000D01*
X97027570Y-127070841D01*
X97016184Y-127018499D01*
X97008834Y-126991709D01*
X96958731Y-126903722D01*
X96958727Y-126903718D01*
X96958724Y-126903713D01*
X96912247Y-126850076D01*
X96912230Y-126850058D01*
X96878949Y-126817944D01*
X96789232Y-126771014D01*
X96789231Y-126771013D01*
X96789230Y-126771013D01*
X96721109Y-126751011D01*
X96648000Y-126740500D01*
X93837013Y-126740500D01*
X93837008Y-126740500D01*
X93769018Y-126749565D01*
X93705315Y-126766860D01*
X93705310Y-126766862D01*
X93666743Y-126780683D01*
X93584307Y-126839466D01*
X93584306Y-126839467D01*
X93535650Y-126891175D01*
X93535645Y-126891181D01*
X93534565Y-126892557D01*
X93534299Y-126892746D01*
X93533819Y-126893305D01*
X93533681Y-126893186D01*
X93476753Y-126933768D01*
X93405839Y-126937182D01*
X93344336Y-126901715D01*
X93334615Y-126890229D01*
X93327403Y-126880595D01*
X93286620Y-126850066D01*
X93211267Y-126793658D01*
X93211265Y-126793657D01*
X93211266Y-126793657D01*
X93075349Y-126742962D01*
X93075344Y-126742960D01*
X93075342Y-126742960D01*
X93045298Y-126739730D01*
X93015256Y-126736500D01*
X90118753Y-126736500D01*
X90118729Y-126736502D01*
X90058660Y-126742959D01*
X90058658Y-126742959D01*
X89922733Y-126793657D01*
X89806595Y-126880596D01*
X89798827Y-126890973D01*
X89741990Y-126933518D01*
X89671174Y-126938581D01*
X89608863Y-126904554D01*
X89602737Y-126897973D01*
X89561234Y-126850076D01*
X89561217Y-126850058D01*
X89527936Y-126817944D01*
X89438219Y-126771014D01*
X89438218Y-126771013D01*
X89438217Y-126771013D01*
X89370096Y-126751011D01*
X89296987Y-126740500D01*
X87398916Y-126740500D01*
X87348467Y-126745451D01*
X87300428Y-126754971D01*
X87278108Y-126760431D01*
X87188323Y-126807234D01*
X87188321Y-126807235D01*
X87132983Y-126851699D01*
X87099645Y-126883775D01*
X87099645Y-126883776D01*
X87049416Y-126971690D01*
X87026900Y-127039019D01*
X87026897Y-127039029D01*
X87014961Y-127089222D01*
X86979741Y-127150866D01*
X86916785Y-127183684D01*
X86872671Y-127184519D01*
X86813893Y-127175210D01*
X86795834Y-127172350D01*
X86432166Y-127172350D01*
X86406266Y-127176452D01*
X86337446Y-127187351D01*
X86223276Y-127245523D01*
X86132675Y-127336124D01*
X86132673Y-127336127D01*
X86091267Y-127417392D01*
X86042518Y-127469007D01*
X85973604Y-127486073D01*
X85906402Y-127463172D01*
X85866733Y-127417392D01*
X85825326Y-127336127D01*
X85825324Y-127336124D01*
X85734723Y-127245523D01*
X85620553Y-127187351D01*
X85553931Y-127176800D01*
X85525834Y-127172350D01*
X85162166Y-127172350D01*
X85136266Y-127176452D01*
X85067446Y-127187351D01*
X84953276Y-127245523D01*
X84862675Y-127336124D01*
X84862673Y-127336127D01*
X84821267Y-127417392D01*
X84772518Y-127469007D01*
X84703604Y-127486073D01*
X84636402Y-127463172D01*
X84596733Y-127417392D01*
X84555326Y-127336127D01*
X84555324Y-127336124D01*
X84464723Y-127245523D01*
X84350553Y-127187351D01*
X84283931Y-127176800D01*
X84255834Y-127172350D01*
X83892166Y-127172350D01*
X83866266Y-127176452D01*
X83797446Y-127187351D01*
X83683276Y-127245523D01*
X83592675Y-127336124D01*
X83592673Y-127336127D01*
X83551267Y-127417392D01*
X83502518Y-127469007D01*
X83433604Y-127486073D01*
X83366402Y-127463172D01*
X83326733Y-127417392D01*
X83285326Y-127336127D01*
X83285324Y-127336124D01*
X83194723Y-127245523D01*
X83080553Y-127187351D01*
X83013931Y-127176800D01*
X82985834Y-127172350D01*
X82622166Y-127172350D01*
X82596266Y-127176452D01*
X82527446Y-127187351D01*
X82413276Y-127245523D01*
X82322673Y-127336126D01*
X82264501Y-127450296D01*
X82253411Y-127520322D01*
X82249500Y-127545016D01*
X82249500Y-129258684D01*
X82264502Y-129353405D01*
X82264502Y-129353406D01*
X82264503Y-129353408D01*
X82264503Y-129353409D01*
X82280765Y-129385322D01*
X82294500Y-129442528D01*
X82294500Y-129529585D01*
X82274498Y-129597706D01*
X82230849Y-129639077D01*
X82199727Y-129656798D01*
X82199713Y-129656808D01*
X82146076Y-129703285D01*
X82146058Y-129703302D01*
X82137170Y-129712514D01*
X82075475Y-129747645D01*
X82004580Y-129743844D01*
X81946994Y-129702318D01*
X81921001Y-129636251D01*
X81920500Y-129625022D01*
X81920500Y-127176801D01*
X81920499Y-127176797D01*
X81900747Y-127077494D01*
X81886161Y-127042280D01*
X81886160Y-127042279D01*
X81883988Y-127039029D01*
X81879266Y-127031961D01*
X81879265Y-127031960D01*
X81878941Y-127031475D01*
X81829908Y-126958091D01*
X81745720Y-126901839D01*
X81723767Y-126892746D01*
X81710511Y-126887255D01*
X81710506Y-126887253D01*
X81611202Y-126867500D01*
X81611200Y-126867500D01*
X81228874Y-126867500D01*
X81171127Y-126874006D01*
X81149518Y-126878939D01*
X81094677Y-126898128D01*
X81026846Y-126949176D01*
X80960389Y-126974156D01*
X80951081Y-126974500D01*
X79580614Y-126974500D01*
X79512493Y-126954498D01*
X79510613Y-126953266D01*
X79436461Y-126903720D01*
X79433646Y-126901839D01*
X79411693Y-126892746D01*
X79398437Y-126887255D01*
X79398432Y-126887253D01*
X79299128Y-126867500D01*
X79299126Y-126867500D01*
X78533466Y-126867500D01*
X78533463Y-126867500D01*
X78434159Y-126887253D01*
X78434154Y-126887255D01*
X78398943Y-126901840D01*
X78314758Y-126958090D01*
X78258504Y-127042281D01*
X78245099Y-127074644D01*
X78243919Y-127077494D01*
X78231794Y-127138451D01*
X78198886Y-127201360D01*
X78137190Y-127236491D01*
X78088506Y-127238317D01*
X78049117Y-127232078D01*
X78032834Y-127229500D01*
X77669166Y-127229500D01*
X77648501Y-127232773D01*
X77574446Y-127244501D01*
X77460276Y-127302673D01*
X77369675Y-127393274D01*
X77369673Y-127393277D01*
X77328267Y-127474542D01*
X77279518Y-127526157D01*
X77210604Y-127543223D01*
X77143402Y-127520322D01*
X77103733Y-127474542D01*
X77062326Y-127393277D01*
X77062324Y-127393274D01*
X76971723Y-127302673D01*
X76857553Y-127244501D01*
X76783499Y-127232773D01*
X76762834Y-127229500D01*
X76399166Y-127229500D01*
X76378501Y-127232773D01*
X76304446Y-127244501D01*
X76190276Y-127302673D01*
X76099675Y-127393274D01*
X76099673Y-127393277D01*
X76058267Y-127474542D01*
X76009518Y-127526157D01*
X75940604Y-127543223D01*
X75873402Y-127520322D01*
X75833733Y-127474542D01*
X75792326Y-127393277D01*
X75792324Y-127393274D01*
X75704005Y-127304955D01*
X75669979Y-127242643D01*
X75667100Y-127215860D01*
X75667100Y-127209250D01*
X75687102Y-127141129D01*
X75709542Y-127114942D01*
X75790173Y-127043510D01*
X75877841Y-126916501D01*
X75932566Y-126772202D01*
X75932566Y-126772201D01*
X75932567Y-126772199D01*
X75951168Y-126619003D01*
X75951168Y-126618996D01*
X75932567Y-126465800D01*
X75920592Y-126434226D01*
X75883724Y-126337012D01*
X79039000Y-126337012D01*
X79039000Y-126474500D01*
X80014000Y-126474500D01*
X80514000Y-126474500D01*
X81488999Y-126474500D01*
X81488999Y-126337021D01*
X81478506Y-126234308D01*
X81423357Y-126067877D01*
X81331316Y-125918655D01*
X81331311Y-125918649D01*
X81207350Y-125794688D01*
X81207344Y-125794683D01*
X81058122Y-125702642D01*
X80891691Y-125647493D01*
X80788987Y-125637000D01*
X80514000Y-125637000D01*
X80514000Y-126474500D01*
X80014000Y-126474500D01*
X80014000Y-125637000D01*
X79739021Y-125637000D01*
X79636308Y-125647493D01*
X79469877Y-125702642D01*
X79320655Y-125794683D01*
X79320649Y-125794688D01*
X79196688Y-125918649D01*
X79196683Y-125918655D01*
X79104642Y-126067877D01*
X79049493Y-126234308D01*
X79039000Y-126337012D01*
X75883724Y-126337012D01*
X75877841Y-126321499D01*
X75790173Y-126194490D01*
X75674657Y-126092152D01*
X75538007Y-126020433D01*
X75538006Y-126020432D01*
X75538005Y-126020432D01*
X75388165Y-125983500D01*
X75388164Y-125983500D01*
X75233836Y-125983500D01*
X75233834Y-125983500D01*
X75083994Y-126020432D01*
X74947344Y-126092151D01*
X74947342Y-126092152D01*
X74831827Y-126194490D01*
X74744160Y-126321496D01*
X74689432Y-126465800D01*
X74670832Y-126618996D01*
X74670832Y-126619003D01*
X74689432Y-126772199D01*
X74728043Y-126874006D01*
X74738598Y-126901839D01*
X74744160Y-126916503D01*
X74756039Y-126933712D01*
X74778275Y-127001137D01*
X74760528Y-127069880D01*
X74708434Y-127118116D01*
X74638531Y-127130530D01*
X74588204Y-127113743D01*
X74451199Y-127032718D01*
X74293491Y-126986900D01*
X74293495Y-126986900D01*
X74291000Y-126986703D01*
X74291000Y-129931296D01*
X74293489Y-129931100D01*
X74451202Y-129885280D01*
X74592552Y-129801685D01*
X74592559Y-129801680D01*
X74708680Y-129685559D01*
X74708683Y-129685555D01*
X74730838Y-129648093D01*
X74782730Y-129599640D01*
X74852580Y-129586934D01*
X74913358Y-129610298D01*
X74920272Y-129615321D01*
X74920277Y-129615326D01*
X75034445Y-129673498D01*
X75129166Y-129688500D01*
X75129168Y-129688500D01*
X75492832Y-129688500D01*
X75492834Y-129688500D01*
X75587555Y-129673498D01*
X75701723Y-129615326D01*
X75792326Y-129524723D01*
X75833733Y-129443455D01*
X75882481Y-129391842D01*
X75951396Y-129374776D01*
X76018598Y-129397677D01*
X76058265Y-129443455D01*
X76066331Y-129459284D01*
X76099673Y-129524723D01*
X76187995Y-129613045D01*
X76222021Y-129675357D01*
X76224900Y-129702140D01*
X76224900Y-131880308D01*
X76204898Y-131948429D01*
X76187995Y-131969403D01*
X75962403Y-132194995D01*
X75900091Y-132229021D01*
X75873308Y-132231900D01*
X75259499Y-132231900D01*
X75191378Y-132211898D01*
X75144885Y-132158242D01*
X75133499Y-132105900D01*
X75133499Y-132089753D01*
X75133499Y-132089746D01*
X75127040Y-132029658D01*
X75076342Y-131893733D01*
X74989404Y-131777596D01*
X74873267Y-131690658D01*
X74873265Y-131690657D01*
X74873266Y-131690657D01*
X74737349Y-131639962D01*
X74737344Y-131639960D01*
X74737342Y-131639960D01*
X74707298Y-131636730D01*
X74677256Y-131633500D01*
X73880753Y-131633500D01*
X73880729Y-131633502D01*
X73820660Y-131639959D01*
X73820658Y-131639959D01*
X73684733Y-131690657D01*
X73568595Y-131777596D01*
X73525583Y-131835054D01*
X73468747Y-131877601D01*
X73397932Y-131882665D01*
X73335619Y-131848640D01*
X73318582Y-131824277D01*
X73317210Y-131825124D01*
X73221316Y-131669655D01*
X73221311Y-131669649D01*
X73097350Y-131545688D01*
X73097344Y-131545683D01*
X72948122Y-131453642D01*
X72781691Y-131398493D01*
X72678987Y-131388000D01*
X72529000Y-131388000D01*
X72529000Y-133787999D01*
X72678978Y-133787999D01*
X72781691Y-133777506D01*
X72948122Y-133722357D01*
X73097344Y-133630316D01*
X73097350Y-133630311D01*
X73221311Y-133506350D01*
X73221316Y-133506344D01*
X73317210Y-133350876D01*
X73319943Y-133352562D01*
X73357233Y-133310048D01*
X73425473Y-133290456D01*
X73493472Y-133310868D01*
X73525584Y-133340946D01*
X73534279Y-133352562D01*
X73568596Y-133398404D01*
X73684733Y-133485342D01*
X73820658Y-133536040D01*
X73880745Y-133542500D01*
X74677254Y-133542499D01*
X74737342Y-133536040D01*
X74873267Y-133485342D01*
X74989404Y-133398404D01*
X75076342Y-133282267D01*
X75127040Y-133146342D01*
X75133500Y-133086255D01*
X75133500Y-133070100D01*
X75153502Y-133001979D01*
X75207158Y-132955486D01*
X75259500Y-132944100D01*
X76119879Y-132944100D01*
X76119881Y-132944100D01*
X76210450Y-132919833D01*
X76291651Y-132872951D01*
X76614405Y-132550195D01*
X76676716Y-132516171D01*
X76747532Y-132521235D01*
X76804368Y-132563782D01*
X76829179Y-132630302D01*
X76829500Y-132639291D01*
X76829500Y-162695500D01*
X76809498Y-162763621D01*
X76755842Y-162810114D01*
X76703500Y-162821500D01*
X71210676Y-162821500D01*
X71142555Y-162801498D01*
X71096062Y-162747842D01*
X71085958Y-162677568D01*
X71115452Y-162612988D01*
X71142051Y-162589828D01*
X71265789Y-162509470D01*
X71523349Y-162300902D01*
X70028698Y-160806251D01*
X70130330Y-160732412D01*
X70308412Y-160554330D01*
X70382251Y-160452698D01*
X71876902Y-161947349D01*
X72085470Y-161689789D01*
X72296690Y-161364540D01*
X72296696Y-161364529D01*
X72472757Y-161018989D01*
X72472758Y-161018987D01*
X72611738Y-160656935D01*
X72712112Y-160282329D01*
X72772782Y-159899277D01*
X72793078Y-159512006D01*
X72793078Y-159511993D01*
X72772782Y-159124722D01*
X72712112Y-158741670D01*
X72611738Y-158367064D01*
X72472758Y-158005012D01*
X72472757Y-158005010D01*
X72296696Y-157659470D01*
X72296690Y-157659459D01*
X72085470Y-157334210D01*
X72085463Y-157334200D01*
X71876903Y-157076650D01*
X71876902Y-157076649D01*
X70382251Y-158571300D01*
X70308412Y-158469670D01*
X70130330Y-158291588D01*
X70028698Y-158217748D01*
X71523349Y-156723096D01*
X71523348Y-156723095D01*
X71265799Y-156514536D01*
X71265789Y-156514529D01*
X70940540Y-156303309D01*
X70940529Y-156303303D01*
X70594989Y-156127242D01*
X70594987Y-156127241D01*
X70232935Y-155988261D01*
X69858329Y-155887887D01*
X69475277Y-155827217D01*
X69088006Y-155806922D01*
X69087994Y-155806922D01*
X68700722Y-155827217D01*
X68317670Y-155887887D01*
X67943064Y-155988261D01*
X67581012Y-156127241D01*
X67581010Y-156127242D01*
X67235470Y-156303303D01*
X67235459Y-156303309D01*
X66910210Y-156514529D01*
X66910200Y-156514536D01*
X66652650Y-156723095D01*
X66652649Y-156723096D01*
X68147301Y-158217748D01*
X68045670Y-158291588D01*
X67867588Y-158469670D01*
X67793748Y-158571301D01*
X66299096Y-157076649D01*
X66299095Y-157076650D01*
X66090536Y-157334200D01*
X66090529Y-157334210D01*
X66010172Y-157457949D01*
X65956296Y-157504185D01*
X65885975Y-157513955D01*
X65821535Y-157484155D01*
X65783436Y-157424246D01*
X65778500Y-157389324D01*
X65778500Y-145727978D01*
X70994001Y-145727978D01*
X71004493Y-145830691D01*
X71059642Y-145997122D01*
X71151683Y-146146344D01*
X71151688Y-146146350D01*
X71275649Y-146270311D01*
X71275655Y-146270316D01*
X71424877Y-146362357D01*
X71591308Y-146417506D01*
X71694012Y-146427999D01*
X72369000Y-146427999D01*
X72869000Y-146427999D01*
X73543978Y-146427999D01*
X73646691Y-146417506D01*
X73813122Y-146362357D01*
X73962344Y-146270316D01*
X73962350Y-146270311D01*
X74086311Y-146146350D01*
X74086316Y-146146344D01*
X74178357Y-145997122D01*
X74233506Y-145830691D01*
X74243999Y-145727987D01*
X74244000Y-145727987D01*
X74244000Y-144903000D01*
X72869000Y-144903000D01*
X72869000Y-146427999D01*
X72369000Y-146427999D01*
X72369000Y-144903000D01*
X70994001Y-144903000D01*
X70994001Y-145727978D01*
X65778500Y-145727978D01*
X65778500Y-143578012D01*
X70994000Y-143578012D01*
X70994000Y-144403000D01*
X72369000Y-144403000D01*
X72869000Y-144403000D01*
X74243999Y-144403000D01*
X74243999Y-143578021D01*
X74233506Y-143475308D01*
X74178357Y-143308877D01*
X74086316Y-143159655D01*
X74086311Y-143159649D01*
X73962350Y-143035688D01*
X73962344Y-143035683D01*
X73813122Y-142943642D01*
X73646691Y-142888493D01*
X73543987Y-142878000D01*
X72869000Y-142878000D01*
X72869000Y-144403000D01*
X72369000Y-144403000D01*
X72369000Y-142878000D01*
X71694021Y-142878000D01*
X71591308Y-142888493D01*
X71424877Y-142943642D01*
X71275655Y-143035683D01*
X71275649Y-143035688D01*
X71151688Y-143159649D01*
X71151683Y-143159655D01*
X71059642Y-143308877D01*
X71004493Y-143475308D01*
X70994000Y-143578012D01*
X65778500Y-143578012D01*
X65778500Y-138742978D01*
X70994001Y-138742978D01*
X71004493Y-138845691D01*
X71059642Y-139012122D01*
X71151683Y-139161344D01*
X71151688Y-139161350D01*
X71275649Y-139285311D01*
X71275655Y-139285316D01*
X71424877Y-139377357D01*
X71591308Y-139432506D01*
X71694012Y-139442999D01*
X72369000Y-139442999D01*
X72869000Y-139442999D01*
X73543978Y-139442999D01*
X73646691Y-139432506D01*
X73813122Y-139377357D01*
X73962344Y-139285316D01*
X73962350Y-139285311D01*
X74086311Y-139161350D01*
X74086316Y-139161344D01*
X74178357Y-139012122D01*
X74233506Y-138845691D01*
X74243999Y-138742987D01*
X74244000Y-138742987D01*
X74244000Y-137918000D01*
X72869000Y-137918000D01*
X72869000Y-139442999D01*
X72369000Y-139442999D01*
X72369000Y-137918000D01*
X70994001Y-137918000D01*
X70994001Y-138742978D01*
X65778500Y-138742978D01*
X65778500Y-136593012D01*
X70994000Y-136593012D01*
X70994000Y-137418000D01*
X72369000Y-137418000D01*
X72869000Y-137418000D01*
X74243999Y-137418000D01*
X74243999Y-136593021D01*
X74233506Y-136490308D01*
X74178357Y-136323877D01*
X74086316Y-136174655D01*
X74086311Y-136174649D01*
X73962350Y-136050688D01*
X73962344Y-136050683D01*
X73813122Y-135958642D01*
X73646691Y-135903493D01*
X73543987Y-135893000D01*
X72869000Y-135893000D01*
X72869000Y-137418000D01*
X72369000Y-137418000D01*
X72369000Y-135893000D01*
X71694021Y-135893000D01*
X71591308Y-135903493D01*
X71424877Y-135958642D01*
X71275655Y-136050683D01*
X71275649Y-136050688D01*
X71151688Y-136174649D01*
X71151683Y-136174655D01*
X71059642Y-136323877D01*
X71004493Y-136490308D01*
X70994000Y-136593012D01*
X65778500Y-136593012D01*
X65778500Y-133087978D01*
X71179001Y-133087978D01*
X71189493Y-133190691D01*
X71244642Y-133357122D01*
X71336683Y-133506344D01*
X71336688Y-133506350D01*
X71460649Y-133630311D01*
X71460655Y-133630316D01*
X71609877Y-133722357D01*
X71776308Y-133777506D01*
X71879012Y-133787999D01*
X72029000Y-133787999D01*
X72029000Y-132838000D01*
X71179001Y-132838000D01*
X71179001Y-133087978D01*
X65778500Y-133087978D01*
X65778500Y-132088012D01*
X71179000Y-132088012D01*
X71179000Y-132338000D01*
X72029000Y-132338000D01*
X72029000Y-131388000D01*
X71879021Y-131388000D01*
X71776308Y-131398493D01*
X71609877Y-131453642D01*
X71460655Y-131545683D01*
X71460649Y-131545688D01*
X71336688Y-131669649D01*
X71336683Y-131669655D01*
X71244642Y-131818877D01*
X71189493Y-131985308D01*
X71179000Y-132088012D01*
X65778500Y-132088012D01*
X65778500Y-129349651D01*
X73241000Y-129349651D01*
X73243899Y-129386489D01*
X73289719Y-129544202D01*
X73373314Y-129685552D01*
X73373319Y-129685559D01*
X73489440Y-129801680D01*
X73489447Y-129801685D01*
X73630797Y-129885280D01*
X73788512Y-129931100D01*
X73788508Y-129931100D01*
X73791000Y-129931296D01*
X73791000Y-128709000D01*
X73241000Y-128709000D01*
X73241000Y-129349651D01*
X65778500Y-129349651D01*
X65778500Y-127568348D01*
X73241000Y-127568348D01*
X73241000Y-128209000D01*
X73791000Y-128209000D01*
X73791000Y-126986703D01*
X73788506Y-126986900D01*
X73630797Y-127032719D01*
X73489447Y-127116314D01*
X73489440Y-127116319D01*
X73373319Y-127232440D01*
X73373314Y-127232447D01*
X73289719Y-127373797D01*
X73243899Y-127531510D01*
X73241000Y-127568348D01*
X65778500Y-127568348D01*
X65778500Y-124399651D01*
X73241000Y-124399651D01*
X73243899Y-124436489D01*
X73289719Y-124594202D01*
X73373314Y-124735552D01*
X73373319Y-124735559D01*
X73489440Y-124851680D01*
X73489447Y-124851685D01*
X73630797Y-124935280D01*
X73788512Y-124981100D01*
X73788508Y-124981100D01*
X73791000Y-124981296D01*
X73791000Y-123759000D01*
X73241000Y-123759000D01*
X73241000Y-124399651D01*
X65778500Y-124399651D01*
X65778500Y-122618348D01*
X73241000Y-122618348D01*
X73241000Y-123259000D01*
X73791000Y-123259000D01*
X73791000Y-122036703D01*
X73788506Y-122036900D01*
X73630797Y-122082719D01*
X73489447Y-122166314D01*
X73489440Y-122166319D01*
X73373319Y-122282440D01*
X73373314Y-122282447D01*
X73289719Y-122423797D01*
X73243899Y-122581510D01*
X73241000Y-122618348D01*
X65778500Y-122618348D01*
X65778500Y-119125996D01*
X69844832Y-119125996D01*
X69844832Y-119126003D01*
X69863432Y-119279199D01*
X69897650Y-119369422D01*
X69918159Y-119423501D01*
X70005827Y-119550510D01*
X70121343Y-119652848D01*
X70257993Y-119724567D01*
X70407836Y-119761500D01*
X70407837Y-119761500D01*
X70562163Y-119761500D01*
X70562164Y-119761500D01*
X70712007Y-119724567D01*
X70848657Y-119652848D01*
X70964173Y-119550510D01*
X70973828Y-119536523D01*
X71028986Y-119491824D01*
X71077523Y-119482100D01*
X71497933Y-119482100D01*
X71566054Y-119502102D01*
X71612547Y-119555758D01*
X71622651Y-119626032D01*
X71593157Y-119690612D01*
X71573442Y-119708968D01*
X71568596Y-119712595D01*
X71481657Y-119828734D01*
X71430962Y-119964650D01*
X71430960Y-119964658D01*
X71424500Y-120024737D01*
X71424500Y-121021246D01*
X71424502Y-121021270D01*
X71430959Y-121081339D01*
X71430959Y-121081341D01*
X71481657Y-121217266D01*
X71500373Y-121242268D01*
X71568596Y-121333404D01*
X71684733Y-121420342D01*
X71820658Y-121471040D01*
X71880745Y-121477500D01*
X72677254Y-121477499D01*
X72737342Y-121471040D01*
X72873267Y-121420342D01*
X72989404Y-121333404D01*
X73076342Y-121217267D01*
X73127040Y-121081342D01*
X73133500Y-121021255D01*
X73133499Y-120024746D01*
X73127040Y-119964658D01*
X73076342Y-119828733D01*
X72989404Y-119712596D01*
X72873267Y-119625658D01*
X72873265Y-119625657D01*
X72873266Y-119625657D01*
X72737349Y-119574962D01*
X72737344Y-119574960D01*
X72737342Y-119574960D01*
X72737339Y-119574959D01*
X72729717Y-119573159D01*
X72668021Y-119538029D01*
X72636983Y-119483145D01*
X72635101Y-119476121D01*
X72635101Y-119476119D01*
X72610833Y-119385551D01*
X72610833Y-119385550D01*
X72601520Y-119369420D01*
X72584782Y-119300427D01*
X72608001Y-119233335D01*
X72663808Y-119189446D01*
X72697836Y-119181072D01*
X72781691Y-119172506D01*
X72948122Y-119117357D01*
X73097344Y-119025316D01*
X73097350Y-119025311D01*
X73221311Y-118901350D01*
X73221316Y-118901344D01*
X73317210Y-118745876D01*
X73319943Y-118747562D01*
X73357233Y-118705048D01*
X73425473Y-118685456D01*
X73493472Y-118705868D01*
X73525584Y-118735946D01*
X73538635Y-118753381D01*
X73568596Y-118793404D01*
X73684733Y-118880342D01*
X73820658Y-118931040D01*
X73880745Y-118937500D01*
X74677254Y-118937499D01*
X74737342Y-118931040D01*
X74784867Y-118913314D01*
X74855683Y-118908248D01*
X74917995Y-118942273D01*
X74952020Y-119004585D01*
X74954900Y-119031369D01*
X74954900Y-119474630D01*
X74934898Y-119542751D01*
X74881242Y-119589244D01*
X74810968Y-119599348D01*
X74784868Y-119592686D01*
X74737345Y-119574961D01*
X74737344Y-119574960D01*
X74737342Y-119574960D01*
X74707298Y-119571730D01*
X74677256Y-119568500D01*
X73880753Y-119568500D01*
X73880729Y-119568502D01*
X73820660Y-119574959D01*
X73820658Y-119574959D01*
X73684733Y-119625657D01*
X73568596Y-119712596D01*
X73481657Y-119828734D01*
X73430962Y-119964650D01*
X73430960Y-119964658D01*
X73424500Y-120024737D01*
X73424500Y-121021246D01*
X73424502Y-121021270D01*
X73430959Y-121081339D01*
X73430959Y-121081341D01*
X73481657Y-121217266D01*
X73500373Y-121242268D01*
X73568596Y-121333404D01*
X73684733Y-121420342D01*
X73820658Y-121471040D01*
X73880745Y-121477500D01*
X74677254Y-121477499D01*
X74737342Y-121471040D01*
X74784867Y-121453314D01*
X74855683Y-121448248D01*
X74917995Y-121482273D01*
X74952020Y-121544585D01*
X74954900Y-121571369D01*
X74954900Y-122238195D01*
X74934898Y-122306316D01*
X74881242Y-122352809D01*
X74810968Y-122362913D01*
X74746388Y-122333419D01*
X74720447Y-122302335D01*
X74708683Y-122282444D01*
X74708680Y-122282440D01*
X74592559Y-122166319D01*
X74592552Y-122166314D01*
X74451202Y-122082719D01*
X74293491Y-122036900D01*
X74293495Y-122036900D01*
X74291000Y-122036703D01*
X74291000Y-124981296D01*
X74293489Y-124981100D01*
X74451202Y-124935280D01*
X74592552Y-124851685D01*
X74592559Y-124851680D01*
X74708680Y-124735559D01*
X74708683Y-124735555D01*
X74730838Y-124698093D01*
X74782730Y-124649640D01*
X74852580Y-124636934D01*
X74913358Y-124660298D01*
X74920272Y-124665321D01*
X74920277Y-124665326D01*
X75034445Y-124723498D01*
X75129166Y-124738500D01*
X75129168Y-124738500D01*
X75492832Y-124738500D01*
X75492834Y-124738500D01*
X75587555Y-124723498D01*
X75701723Y-124665326D01*
X75792326Y-124574723D01*
X75833733Y-124493455D01*
X75882481Y-124441842D01*
X75951396Y-124424776D01*
X76018598Y-124447677D01*
X76058265Y-124493455D01*
X76069272Y-124515056D01*
X76099673Y-124574723D01*
X76190276Y-124665326D01*
X76247361Y-124694412D01*
X76304445Y-124723498D01*
X76399166Y-124738500D01*
X76399168Y-124738500D01*
X76762832Y-124738500D01*
X76762834Y-124738500D01*
X76857555Y-124723498D01*
X76971723Y-124665326D01*
X77062326Y-124574723D01*
X77103733Y-124493455D01*
X77152481Y-124441842D01*
X77221396Y-124424776D01*
X77288598Y-124447677D01*
X77328265Y-124493455D01*
X77339272Y-124515056D01*
X77369673Y-124574723D01*
X77460276Y-124665326D01*
X77517361Y-124694412D01*
X77574445Y-124723498D01*
X77669166Y-124738500D01*
X77669168Y-124738500D01*
X78032832Y-124738500D01*
X78032834Y-124738500D01*
X78127555Y-124723498D01*
X78241723Y-124665326D01*
X78332326Y-124574723D01*
X78390498Y-124460555D01*
X78405500Y-124365834D01*
X78405500Y-122652166D01*
X78390498Y-122557445D01*
X78349894Y-122477756D01*
X78332326Y-122443276D01*
X78244005Y-122354955D01*
X78209979Y-122292643D01*
X78207100Y-122265860D01*
X78207100Y-121464522D01*
X78227102Y-121396401D01*
X78280758Y-121349908D01*
X78351032Y-121339804D01*
X78408607Y-121363652D01*
X78517733Y-121445342D01*
X78653658Y-121496040D01*
X78713745Y-121502500D01*
X79485254Y-121502499D01*
X79545342Y-121496040D01*
X79681267Y-121445342D01*
X79797404Y-121358404D01*
X79884342Y-121242267D01*
X79888204Y-121231911D01*
X79930747Y-121175078D01*
X79997266Y-121150265D01*
X80066641Y-121165355D01*
X80116845Y-121215555D01*
X80125863Y-121236310D01*
X80152641Y-121317119D01*
X80244683Y-121466344D01*
X80244688Y-121466350D01*
X80368649Y-121590311D01*
X80368655Y-121590316D01*
X80517877Y-121682357D01*
X80684308Y-121737506D01*
X80787012Y-121747999D01*
X80924500Y-121747999D01*
X81424500Y-121747999D01*
X81561978Y-121747999D01*
X81664691Y-121737506D01*
X81831122Y-121682357D01*
X81980344Y-121590316D01*
X81980350Y-121590311D01*
X82104311Y-121466350D01*
X82104316Y-121466344D01*
X82196357Y-121317122D01*
X82251506Y-121150691D01*
X82261999Y-121047987D01*
X82262000Y-121047987D01*
X82262000Y-120773000D01*
X81424500Y-120773000D01*
X81424500Y-121747999D01*
X80924500Y-121747999D01*
X80924500Y-119298000D01*
X80787021Y-119298000D01*
X80684308Y-119308493D01*
X80517877Y-119363642D01*
X80368655Y-119455683D01*
X80368649Y-119455688D01*
X80244688Y-119579649D01*
X80244683Y-119579655D01*
X80152641Y-119728880D01*
X80125863Y-119809689D01*
X80085449Y-119868060D01*
X80019892Y-119895315D01*
X79950007Y-119882801D01*
X79897982Y-119834491D01*
X79888205Y-119814090D01*
X79884342Y-119803733D01*
X79797404Y-119687596D01*
X79681267Y-119600658D01*
X79681265Y-119600657D01*
X79681266Y-119600657D01*
X79545349Y-119549962D01*
X79545344Y-119549960D01*
X79545342Y-119549960D01*
X79515298Y-119546730D01*
X79485256Y-119543500D01*
X78713753Y-119543500D01*
X78713729Y-119543502D01*
X78653660Y-119549959D01*
X78653658Y-119549959D01*
X78517733Y-119600657D01*
X78408608Y-119682346D01*
X78342087Y-119707156D01*
X78272713Y-119692064D01*
X78222512Y-119641861D01*
X78207100Y-119581477D01*
X78207100Y-118878099D01*
X78227102Y-118809978D01*
X78280758Y-118763485D01*
X78351032Y-118753381D01*
X78415612Y-118782875D01*
X78422195Y-118789004D01*
X78426592Y-118793401D01*
X78426595Y-118793403D01*
X78426596Y-118793404D01*
X78542733Y-118880342D01*
X78678658Y-118931040D01*
X78738745Y-118937500D01*
X79535254Y-118937499D01*
X79595342Y-118931040D01*
X79731267Y-118880342D01*
X79847404Y-118793404D01*
X79934342Y-118677267D01*
X79985040Y-118541342D01*
X79991500Y-118481255D01*
X79991499Y-117484746D01*
X79991498Y-117484737D01*
X80282500Y-117484737D01*
X80282500Y-118481246D01*
X80282502Y-118481270D01*
X80288959Y-118541339D01*
X80288959Y-118541341D01*
X80339657Y-118677266D01*
X80339658Y-118677267D01*
X80426596Y-118793404D01*
X80542733Y-118880342D01*
X80678658Y-118931040D01*
X80738745Y-118937500D01*
X81535254Y-118937499D01*
X81595342Y-118931040D01*
X81731267Y-118880342D01*
X81731268Y-118880340D01*
X81739467Y-118877283D01*
X81810282Y-118872217D01*
X81872595Y-118906242D01*
X81906620Y-118968554D01*
X81909500Y-118995338D01*
X81909500Y-119127006D01*
X81915430Y-119182159D01*
X81917564Y-119191967D01*
X81912499Y-119262783D01*
X81869952Y-119319618D01*
X81803431Y-119344429D01*
X81754811Y-119338355D01*
X81664693Y-119308493D01*
X81561987Y-119298000D01*
X81424500Y-119298000D01*
X81424500Y-120273000D01*
X82261999Y-120273000D01*
X82261999Y-119998021D01*
X82251506Y-119895308D01*
X82196356Y-119728875D01*
X82181326Y-119704507D01*
X82162589Y-119636028D01*
X82183849Y-119568289D01*
X82238356Y-119522798D01*
X82290500Y-119513898D01*
X82290500Y-119512500D01*
X82295000Y-119512500D01*
X83053500Y-119512500D01*
X83121621Y-119532502D01*
X83168114Y-119586158D01*
X83179500Y-119638500D01*
X83179500Y-121937616D01*
X83184450Y-121988059D01*
X83184451Y-121988064D01*
X83193973Y-122036112D01*
X83199427Y-122058411D01*
X83202103Y-122065516D01*
X83199048Y-122066666D01*
X83209905Y-122121914D01*
X83183760Y-122187921D01*
X83126078Y-122229314D01*
X83064724Y-122234844D01*
X83000889Y-122224734D01*
X82985834Y-122222350D01*
X82622166Y-122222350D01*
X82596266Y-122226452D01*
X82527446Y-122237351D01*
X82413276Y-122295523D01*
X82322673Y-122386126D01*
X82264501Y-122500296D01*
X82255450Y-122557446D01*
X82249500Y-122595016D01*
X82249500Y-124308684D01*
X82254251Y-124338686D01*
X82264501Y-124403403D01*
X82297075Y-124467333D01*
X82310179Y-124537110D01*
X82288504Y-124596112D01*
X82237162Y-124670492D01*
X82237161Y-124670495D01*
X82182432Y-124814800D01*
X82163832Y-124967996D01*
X82163832Y-124968003D01*
X82182432Y-125121199D01*
X82225185Y-125233929D01*
X82237159Y-125265501D01*
X82324827Y-125392510D01*
X82440343Y-125494848D01*
X82576993Y-125566567D01*
X82726836Y-125603500D01*
X82726837Y-125603500D01*
X82881163Y-125603500D01*
X82881164Y-125603500D01*
X83031007Y-125566567D01*
X83167657Y-125494848D01*
X83283173Y-125392510D01*
X83370841Y-125265501D01*
X83425566Y-125121202D01*
X83425566Y-125121201D01*
X83425567Y-125121199D01*
X83444168Y-124968003D01*
X83444168Y-124967996D01*
X83425567Y-124814800D01*
X83396630Y-124738500D01*
X83370841Y-124670499D01*
X83319494Y-124596111D01*
X83297259Y-124528687D01*
X83310923Y-124467336D01*
X83326735Y-124436303D01*
X83375480Y-124384692D01*
X83444395Y-124367626D01*
X83511597Y-124390527D01*
X83551265Y-124436306D01*
X83592671Y-124517570D01*
X83592675Y-124517575D01*
X83683276Y-124608176D01*
X83739717Y-124636934D01*
X83797445Y-124666348D01*
X83892166Y-124681350D01*
X83892168Y-124681350D01*
X84255832Y-124681350D01*
X84255834Y-124681350D01*
X84350555Y-124666348D01*
X84464723Y-124608176D01*
X84555326Y-124517573D01*
X84596733Y-124436305D01*
X84645481Y-124384692D01*
X84714396Y-124367626D01*
X84781598Y-124390527D01*
X84821265Y-124436305D01*
X84822104Y-124437950D01*
X84862673Y-124517573D01*
X84953276Y-124608176D01*
X85009717Y-124636934D01*
X85067445Y-124666348D01*
X85162166Y-124681350D01*
X85162168Y-124681350D01*
X85525832Y-124681350D01*
X85525834Y-124681350D01*
X85620555Y-124666348D01*
X85734723Y-124608176D01*
X85825326Y-124517573D01*
X85866733Y-124436305D01*
X85915481Y-124384692D01*
X85984396Y-124367626D01*
X86051598Y-124390527D01*
X86091265Y-124436305D01*
X86092104Y-124437950D01*
X86132673Y-124517573D01*
X86223276Y-124608176D01*
X86279717Y-124636934D01*
X86337445Y-124666348D01*
X86432166Y-124681350D01*
X86432168Y-124681350D01*
X86795832Y-124681350D01*
X86795834Y-124681350D01*
X86890555Y-124666348D01*
X87004723Y-124608176D01*
X87095326Y-124517573D01*
X87095327Y-124517570D01*
X87099320Y-124512076D01*
X87155541Y-124468721D01*
X87226278Y-124462644D01*
X87288747Y-124495464D01*
X87309051Y-124515056D01*
X87398770Y-124561987D01*
X87466891Y-124581989D01*
X87540000Y-124592500D01*
X87540003Y-124592500D01*
X87884994Y-124592500D01*
X87885000Y-124592500D01*
X87940159Y-124586570D01*
X87992501Y-124575184D01*
X88019291Y-124567834D01*
X88107278Y-124517731D01*
X88160934Y-124471238D01*
X88193056Y-124437949D01*
X88239987Y-124348230D01*
X88259989Y-124280109D01*
X88270500Y-124207000D01*
X88270500Y-116534840D01*
X88265069Y-116482029D01*
X88254632Y-116431817D01*
X88248258Y-116407249D01*
X88225411Y-116365342D01*
X88199796Y-116318358D01*
X88199788Y-116318346D01*
X88154309Y-116263855D01*
X88154299Y-116263843D01*
X88121611Y-116231111D01*
X88121608Y-116231109D01*
X88121607Y-116231108D01*
X88032779Y-116182529D01*
X88032773Y-116182526D01*
X87979964Y-116165953D01*
X87920959Y-116126471D01*
X87892666Y-116061355D01*
X87899638Y-116001704D01*
X87943040Y-115885342D01*
X87949500Y-115825255D01*
X87949499Y-115028746D01*
X87943040Y-114968658D01*
X87892342Y-114832733D01*
X87805404Y-114716596D01*
X87747945Y-114673583D01*
X87705399Y-114616748D01*
X87700333Y-114545933D01*
X87734358Y-114483620D01*
X87758727Y-114466590D01*
X87757876Y-114465210D01*
X87913344Y-114369316D01*
X87913350Y-114369311D01*
X88037311Y-114245350D01*
X88037316Y-114245344D01*
X88129357Y-114096122D01*
X88184506Y-113929691D01*
X88194999Y-113826987D01*
X88195000Y-113826987D01*
X88195000Y-113677000D01*
X85795001Y-113677000D01*
X85795001Y-113826978D01*
X85805493Y-113929694D01*
X85805494Y-113929697D01*
X85829409Y-114001867D01*
X85831850Y-114072822D01*
X85795542Y-114133832D01*
X85732013Y-114165527D01*
X85709805Y-114167500D01*
X85486195Y-114167500D01*
X85418074Y-114147498D01*
X85371581Y-114093842D01*
X85361477Y-114023568D01*
X85366591Y-114001867D01*
X85390505Y-113929696D01*
X85390506Y-113929695D01*
X85400999Y-113826987D01*
X85401000Y-113826987D01*
X85401000Y-113677000D01*
X83001001Y-113677000D01*
X83001001Y-113826978D01*
X83011493Y-113929691D01*
X83066642Y-114096122D01*
X83158683Y-114245344D01*
X83158688Y-114245350D01*
X83282649Y-114369311D01*
X83282655Y-114369316D01*
X83438124Y-114465210D01*
X83436444Y-114467932D01*
X83478996Y-114505304D01*
X83498542Y-114573557D01*
X83478085Y-114641543D01*
X83448054Y-114673583D01*
X83390596Y-114716595D01*
X83303657Y-114832734D01*
X83252962Y-114968650D01*
X83252960Y-114968657D01*
X83252346Y-114974373D01*
X83225174Y-115039964D01*
X83166855Y-115080453D01*
X83127068Y-115086900D01*
X82142499Y-115086900D01*
X82074378Y-115066898D01*
X82027885Y-115013242D01*
X82016499Y-114960900D01*
X82016499Y-114919753D01*
X82016499Y-114919746D01*
X82010040Y-114859658D01*
X81959342Y-114723733D01*
X81872404Y-114607596D01*
X81756267Y-114520658D01*
X81756265Y-114520657D01*
X81756266Y-114520657D01*
X81620349Y-114469962D01*
X81620344Y-114469960D01*
X81620342Y-114469960D01*
X81588996Y-114466590D01*
X81560256Y-114463500D01*
X80788753Y-114463500D01*
X80788729Y-114463502D01*
X80728660Y-114469959D01*
X80728658Y-114469959D01*
X80592733Y-114520657D01*
X80476596Y-114607596D01*
X80389657Y-114723734D01*
X80338962Y-114859650D01*
X80338960Y-114859658D01*
X80332500Y-114919737D01*
X80332500Y-115966246D01*
X80332502Y-115966270D01*
X80338959Y-116026339D01*
X80338959Y-116026341D01*
X80389657Y-116162266D01*
X80404825Y-116182528D01*
X80476596Y-116278404D01*
X80592733Y-116365342D01*
X80728658Y-116416040D01*
X80788745Y-116422500D01*
X81560254Y-116422499D01*
X81620342Y-116416040D01*
X81756267Y-116365342D01*
X81872404Y-116278404D01*
X81959342Y-116162267D01*
X82010040Y-116026342D01*
X82016500Y-115966255D01*
X82016500Y-115925100D01*
X82036502Y-115856979D01*
X82090158Y-115810486D01*
X82142500Y-115799100D01*
X83133310Y-115799100D01*
X83201431Y-115819102D01*
X83247924Y-115872758D01*
X83251365Y-115881067D01*
X83296360Y-116001701D01*
X83303658Y-116021267D01*
X83390596Y-116137404D01*
X83506733Y-116224342D01*
X83642658Y-116275040D01*
X83702745Y-116281500D01*
X84699254Y-116281499D01*
X84759342Y-116275040D01*
X84895267Y-116224342D01*
X84895273Y-116224337D01*
X84898113Y-116222787D01*
X84901288Y-116222096D01*
X84903710Y-116221193D01*
X84903839Y-116221541D01*
X84967487Y-116207695D01*
X85034007Y-116232505D01*
X85076555Y-116289340D01*
X85084500Y-116333374D01*
X85084500Y-116454500D01*
X85064498Y-116522621D01*
X85010842Y-116569114D01*
X84958500Y-116580500D01*
X82294993Y-116580500D01*
X82239838Y-116586430D01*
X82187516Y-116597812D01*
X82187510Y-116597813D01*
X82187499Y-116597816D01*
X82174707Y-116601325D01*
X82160710Y-116605165D01*
X82160709Y-116605166D01*
X82089971Y-116645446D01*
X82072720Y-116655270D01*
X82072713Y-116655275D01*
X82019076Y-116701752D01*
X82019058Y-116701769D01*
X81986944Y-116735049D01*
X81986944Y-116735050D01*
X81940014Y-116824767D01*
X81940013Y-116824770D01*
X81920011Y-116892891D01*
X81911715Y-116950596D01*
X81909500Y-116966002D01*
X81909500Y-116970661D01*
X81889498Y-117038782D01*
X81835842Y-117085275D01*
X81765568Y-117095379D01*
X81739467Y-117088716D01*
X81595349Y-117034962D01*
X81595344Y-117034960D01*
X81595342Y-117034960D01*
X81565298Y-117031730D01*
X81535256Y-117028500D01*
X80738753Y-117028500D01*
X80738729Y-117028502D01*
X80678660Y-117034959D01*
X80678658Y-117034959D01*
X80542733Y-117085657D01*
X80426596Y-117172596D01*
X80339657Y-117288734D01*
X80288962Y-117424650D01*
X80288960Y-117424658D01*
X80282500Y-117484737D01*
X79991498Y-117484737D01*
X79985040Y-117424658D01*
X79934342Y-117288733D01*
X79847404Y-117172596D01*
X79731267Y-117085658D01*
X79731265Y-117085657D01*
X79731266Y-117085657D01*
X79595349Y-117034962D01*
X79595344Y-117034960D01*
X79595342Y-117034960D01*
X79565298Y-117031730D01*
X79535256Y-117028500D01*
X78738753Y-117028500D01*
X78738729Y-117028502D01*
X78678660Y-117034959D01*
X78678658Y-117034959D01*
X78542733Y-117085657D01*
X78426596Y-117172596D01*
X78339657Y-117288734D01*
X78288962Y-117424650D01*
X78288960Y-117424658D01*
X78282500Y-117484737D01*
X78282500Y-117504124D01*
X78262498Y-117572245D01*
X78208842Y-117618738D01*
X78189110Y-117625831D01*
X78185120Y-117626900D01*
X78185119Y-117626900D01*
X78128767Y-117641998D01*
X78094553Y-117651166D01*
X78094545Y-117651169D01*
X78013352Y-117698046D01*
X78013347Y-117698050D01*
X77980198Y-117731199D01*
X77947049Y-117764349D01*
X77947047Y-117764351D01*
X77786277Y-117925121D01*
X77614626Y-118096771D01*
X77614625Y-118096770D01*
X77614624Y-118096771D01*
X77614625Y-118096772D01*
X77566051Y-118145346D01*
X77566046Y-118145352D01*
X77519169Y-118226545D01*
X77519166Y-118226553D01*
X77494900Y-118317119D01*
X77494900Y-122265860D01*
X77474898Y-122333981D01*
X77457995Y-122354955D01*
X77369675Y-122443274D01*
X77369673Y-122443277D01*
X77328267Y-122524542D01*
X77279518Y-122576157D01*
X77210604Y-122593223D01*
X77143402Y-122570322D01*
X77103733Y-122524542D01*
X77062326Y-122443277D01*
X77062324Y-122443274D01*
X76974005Y-122354955D01*
X76939979Y-122292643D01*
X76937100Y-122265860D01*
X76937100Y-117039691D01*
X76957102Y-116971570D01*
X76974005Y-116950596D01*
X77502104Y-116422497D01*
X78042492Y-115882108D01*
X78104802Y-115848085D01*
X78175617Y-115853149D01*
X78232453Y-115895696D01*
X78257264Y-115962216D01*
X78257404Y-115964452D01*
X78257500Y-115966257D01*
X78263959Y-116026339D01*
X78263959Y-116026341D01*
X78314657Y-116162266D01*
X78329825Y-116182528D01*
X78401596Y-116278404D01*
X78517733Y-116365342D01*
X78653658Y-116416040D01*
X78713745Y-116422500D01*
X79485254Y-116422499D01*
X79545342Y-116416040D01*
X79681267Y-116365342D01*
X79797404Y-116278404D01*
X79884342Y-116162267D01*
X79935040Y-116026342D01*
X79941500Y-115966255D01*
X79941499Y-114919746D01*
X79935040Y-114859658D01*
X79884342Y-114723733D01*
X79797404Y-114607596D01*
X79681267Y-114520658D01*
X79681265Y-114520657D01*
X79681266Y-114520657D01*
X79545349Y-114469962D01*
X79545344Y-114469960D01*
X79545342Y-114469960D01*
X79513996Y-114466590D01*
X79485256Y-114463500D01*
X78713753Y-114463500D01*
X78713729Y-114463502D01*
X78653660Y-114469959D01*
X78653658Y-114469959D01*
X78517733Y-114520657D01*
X78401596Y-114607596D01*
X78314657Y-114723734D01*
X78263962Y-114859650D01*
X78263960Y-114859658D01*
X78257500Y-114919737D01*
X78257500Y-114960900D01*
X78237498Y-115029021D01*
X78183842Y-115075514D01*
X78131500Y-115086900D01*
X77931119Y-115086900D01*
X77840553Y-115111166D01*
X77840545Y-115111169D01*
X77759352Y-115158046D01*
X77759347Y-115158050D01*
X77726198Y-115191199D01*
X77693049Y-115224349D01*
X77693047Y-115224351D01*
X77224398Y-115693000D01*
X77050948Y-115866450D01*
X76988636Y-115900475D01*
X76917820Y-115895410D01*
X76873988Y-115862991D01*
X76871791Y-115865189D01*
X76842607Y-115836005D01*
X76799651Y-115793049D01*
X76164651Y-115158049D01*
X76164649Y-115158048D01*
X76164647Y-115158046D01*
X76083454Y-115111169D01*
X76083452Y-115111168D01*
X76083450Y-115111167D01*
X75992881Y-115086900D01*
X75992880Y-115086900D01*
X75284499Y-115086900D01*
X75216378Y-115066898D01*
X75169885Y-115013242D01*
X75158499Y-114960900D01*
X75158499Y-114919753D01*
X75158499Y-114919746D01*
X75152040Y-114859658D01*
X75101342Y-114723733D01*
X75014404Y-114607596D01*
X74898267Y-114520658D01*
X74898265Y-114520657D01*
X74898266Y-114520657D01*
X74762349Y-114469962D01*
X74762344Y-114469960D01*
X74762342Y-114469960D01*
X74730996Y-114466590D01*
X74702256Y-114463500D01*
X73930753Y-114463500D01*
X73930729Y-114463502D01*
X73870660Y-114469959D01*
X73870658Y-114469959D01*
X73734733Y-114520657D01*
X73618596Y-114607596D01*
X73531657Y-114723734D01*
X73527794Y-114734091D01*
X73485246Y-114790926D01*
X73418725Y-114815734D01*
X73349351Y-114800641D01*
X73299150Y-114750437D01*
X73290136Y-114729688D01*
X73263359Y-114648881D01*
X73171316Y-114499655D01*
X73171311Y-114499649D01*
X73047350Y-114375688D01*
X73047344Y-114375683D01*
X72898122Y-114283642D01*
X72731691Y-114228493D01*
X72628987Y-114218000D01*
X72491500Y-114218000D01*
X72491500Y-116651001D01*
X72492095Y-116651596D01*
X72526121Y-116713908D01*
X72529000Y-116740691D01*
X72529000Y-117857000D01*
X72508998Y-117925121D01*
X72455342Y-117971614D01*
X72403000Y-117983000D01*
X72279000Y-117983000D01*
X72279000Y-118107000D01*
X72258998Y-118175121D01*
X72205342Y-118221614D01*
X72153000Y-118233000D01*
X71179001Y-118233000D01*
X71179001Y-118482978D01*
X71189493Y-118585694D01*
X71194283Y-118600149D01*
X71196721Y-118671104D01*
X71160411Y-118732113D01*
X71096881Y-118763806D01*
X71026302Y-118756122D01*
X70971082Y-118711500D01*
X70964173Y-118701490D01*
X70848657Y-118599152D01*
X70712007Y-118527433D01*
X70712006Y-118527432D01*
X70712005Y-118527432D01*
X70562165Y-118490500D01*
X70562164Y-118490500D01*
X70407836Y-118490500D01*
X70407834Y-118490500D01*
X70257994Y-118527432D01*
X70121344Y-118599151D01*
X70121342Y-118599152D01*
X70005827Y-118701490D01*
X69918160Y-118828496D01*
X69863432Y-118972800D01*
X69844832Y-119125996D01*
X65778500Y-119125996D01*
X65778500Y-115967978D01*
X71154001Y-115967978D01*
X71164493Y-116070691D01*
X71219642Y-116237122D01*
X71311683Y-116386344D01*
X71311688Y-116386350D01*
X71435649Y-116510311D01*
X71435655Y-116510316D01*
X71584877Y-116602357D01*
X71608054Y-116610037D01*
X71666425Y-116650451D01*
X71693681Y-116716008D01*
X71681168Y-116785893D01*
X71632858Y-116837919D01*
X71616466Y-116845404D01*
X71616530Y-116845540D01*
X71609881Y-116848640D01*
X71460655Y-116940683D01*
X71460649Y-116940688D01*
X71336688Y-117064649D01*
X71336683Y-117064655D01*
X71244642Y-117213877D01*
X71189493Y-117380308D01*
X71179000Y-117483012D01*
X71179000Y-117733000D01*
X72029000Y-117733000D01*
X72029000Y-116799999D01*
X72028405Y-116799404D01*
X71994379Y-116737092D01*
X71991500Y-116710309D01*
X71991500Y-115693000D01*
X71154001Y-115693000D01*
X71154001Y-115967978D01*
X65778500Y-115967978D01*
X65778500Y-114918012D01*
X71154000Y-114918012D01*
X71154000Y-115193000D01*
X71991500Y-115193000D01*
X71991500Y-114218000D01*
X71854021Y-114218000D01*
X71751308Y-114228493D01*
X71584877Y-114283642D01*
X71435655Y-114375683D01*
X71435649Y-114375688D01*
X71311688Y-114499649D01*
X71311683Y-114499655D01*
X71219642Y-114648877D01*
X71164493Y-114815308D01*
X71154000Y-114918012D01*
X65778500Y-114918012D01*
X65778500Y-113027012D01*
X83001000Y-113027012D01*
X83001000Y-113177000D01*
X83951000Y-113177000D01*
X84451000Y-113177000D01*
X85400999Y-113177000D01*
X85400999Y-113027021D01*
X85400998Y-113027012D01*
X85795000Y-113027012D01*
X85795000Y-113177000D01*
X86745000Y-113177000D01*
X87245000Y-113177000D01*
X88194999Y-113177000D01*
X88194999Y-113027021D01*
X88192444Y-113002012D01*
X94914000Y-113002012D01*
X94914000Y-113139500D01*
X95889000Y-113139500D01*
X96389000Y-113139500D01*
X97363999Y-113139500D01*
X97363999Y-113002021D01*
X97353506Y-112899308D01*
X97298357Y-112732877D01*
X97206316Y-112583655D01*
X97206311Y-112583649D01*
X97082350Y-112459688D01*
X97082344Y-112459683D01*
X96933122Y-112367642D01*
X96766691Y-112312493D01*
X96663987Y-112302000D01*
X96389000Y-112302000D01*
X96389000Y-113139500D01*
X95889000Y-113139500D01*
X95889000Y-112302000D01*
X95614021Y-112302000D01*
X95511308Y-112312493D01*
X95344877Y-112367642D01*
X95195655Y-112459683D01*
X95195649Y-112459688D01*
X95071688Y-112583649D01*
X95071683Y-112583655D01*
X94979642Y-112732877D01*
X94924493Y-112899308D01*
X94914000Y-113002012D01*
X88192444Y-113002012D01*
X88184506Y-112924308D01*
X88129357Y-112757877D01*
X88037316Y-112608655D01*
X88037311Y-112608649D01*
X87913350Y-112484688D01*
X87913344Y-112484683D01*
X87764122Y-112392642D01*
X87597691Y-112337493D01*
X87494987Y-112327000D01*
X87245000Y-112327000D01*
X87245000Y-113177000D01*
X86745000Y-113177000D01*
X86745000Y-112327000D01*
X86495021Y-112327000D01*
X86392308Y-112337493D01*
X86225877Y-112392642D01*
X86076655Y-112484683D01*
X86076649Y-112484688D01*
X85952688Y-112608649D01*
X85952683Y-112608655D01*
X85860642Y-112757877D01*
X85805493Y-112924308D01*
X85795000Y-113027012D01*
X85400998Y-113027012D01*
X85390506Y-112924308D01*
X85335357Y-112757877D01*
X85243316Y-112608655D01*
X85243311Y-112608649D01*
X85119350Y-112484688D01*
X85119344Y-112484683D01*
X84970122Y-112392642D01*
X84803691Y-112337493D01*
X84700987Y-112327000D01*
X84451000Y-112327000D01*
X84451000Y-113177000D01*
X83951000Y-113177000D01*
X83951000Y-112327000D01*
X83701021Y-112327000D01*
X83598308Y-112337493D01*
X83431877Y-112392642D01*
X83282655Y-112484683D01*
X83282649Y-112484688D01*
X83158688Y-112608649D01*
X83158683Y-112608655D01*
X83066642Y-112757877D01*
X83011493Y-112924308D01*
X83001000Y-113027012D01*
X65778500Y-113027012D01*
X65778500Y-108291000D01*
X69306953Y-108291000D01*
X69327115Y-108560032D01*
X69387145Y-108823045D01*
X69387147Y-108823050D01*
X69485705Y-109074174D01*
X69485707Y-109074178D01*
X69620598Y-109307816D01*
X69674295Y-109375150D01*
X69674296Y-109375150D01*
X70510958Y-108538488D01*
X70535978Y-108598890D01*
X70607112Y-108705351D01*
X70697649Y-108795888D01*
X70804110Y-108867022D01*
X70864510Y-108892041D01*
X70026849Y-109729701D01*
X70026849Y-109729703D01*
X70209467Y-109854211D01*
X70209474Y-109854215D01*
X70452537Y-109971269D01*
X70452550Y-109971274D01*
X70710328Y-110050788D01*
X70710340Y-110050790D01*
X70977113Y-110091000D01*
X71246887Y-110091000D01*
X71513659Y-110050790D01*
X71513671Y-110050788D01*
X71771449Y-109971274D01*
X71771462Y-109971269D01*
X72014526Y-109854215D01*
X72197150Y-109729702D01*
X71927426Y-109459978D01*
X89792001Y-109459978D01*
X89802493Y-109562691D01*
X89857642Y-109729122D01*
X89949683Y-109878344D01*
X89949688Y-109878350D01*
X90073649Y-110002311D01*
X90073655Y-110002316D01*
X90222877Y-110094357D01*
X90389308Y-110149506D01*
X90492012Y-110159999D01*
X91317000Y-110159999D01*
X91817000Y-110159999D01*
X92641978Y-110159999D01*
X92744691Y-110149506D01*
X92911122Y-110094357D01*
X93060344Y-110002316D01*
X93060350Y-110002311D01*
X93184311Y-109878350D01*
X93184316Y-109878344D01*
X93276357Y-109729122D01*
X93331506Y-109562691D01*
X93341999Y-109459987D01*
X93342000Y-109459987D01*
X93342000Y-108785000D01*
X91817000Y-108785000D01*
X91817000Y-110159999D01*
X91317000Y-110159999D01*
X91317000Y-108785000D01*
X89792001Y-108785000D01*
X89792001Y-109459978D01*
X71927426Y-109459978D01*
X71359489Y-108892041D01*
X71419890Y-108867022D01*
X71526351Y-108795888D01*
X71616888Y-108705351D01*
X71688022Y-108598890D01*
X71713041Y-108538489D01*
X72549703Y-109375151D01*
X72603402Y-109307815D01*
X72738292Y-109074178D01*
X72738294Y-109074174D01*
X72836852Y-108823050D01*
X72836854Y-108823045D01*
X72896884Y-108560032D01*
X72917046Y-108291000D01*
X72896884Y-108021967D01*
X72836854Y-107758954D01*
X72836852Y-107758949D01*
X72738294Y-107507825D01*
X72738292Y-107507821D01*
X72603402Y-107274184D01*
X72549703Y-107206848D01*
X72549702Y-107206848D01*
X71713040Y-108043509D01*
X71688022Y-107983110D01*
X71616888Y-107876649D01*
X71526351Y-107786112D01*
X71419890Y-107714978D01*
X71359488Y-107689958D01*
X72197149Y-106852297D01*
X72197149Y-106852296D01*
X72014519Y-106727780D01*
X72014518Y-106727779D01*
X71771467Y-106610732D01*
X71771449Y-106610725D01*
X71513671Y-106531211D01*
X71513659Y-106531209D01*
X71246887Y-106491000D01*
X70977113Y-106491000D01*
X70710340Y-106531209D01*
X70710328Y-106531211D01*
X70452550Y-106610725D01*
X70452532Y-106610732D01*
X70209482Y-106727779D01*
X70209474Y-106727784D01*
X70026849Y-106852295D01*
X70026849Y-106852297D01*
X70864511Y-107689958D01*
X70804110Y-107714978D01*
X70697649Y-107786112D01*
X70607112Y-107876649D01*
X70535978Y-107983110D01*
X70510958Y-108043510D01*
X69674296Y-107206848D01*
X69674295Y-107206848D01*
X69620597Y-107274184D01*
X69485707Y-107507821D01*
X69485705Y-107507825D01*
X69387147Y-107758949D01*
X69387145Y-107758954D01*
X69327115Y-108021967D01*
X69306953Y-108291000D01*
X65778500Y-108291000D01*
X65778500Y-101965930D01*
X69557500Y-101965930D01*
X69557500Y-104616063D01*
X69557501Y-104616073D01*
X69572265Y-104690300D01*
X69628516Y-104774484D01*
X69712697Y-104830733D01*
X69712699Y-104830734D01*
X69786933Y-104845500D01*
X72437066Y-104845499D01*
X72437069Y-104845498D01*
X72437073Y-104845498D01*
X72486326Y-104835701D01*
X72511301Y-104830734D01*
X72595484Y-104774484D01*
X72651734Y-104690301D01*
X72666500Y-104616067D01*
X72666500Y-103773100D01*
X72686502Y-103704979D01*
X72740158Y-103658486D01*
X72792500Y-103647100D01*
X73754308Y-103647100D01*
X73822429Y-103667102D01*
X73843403Y-103684005D01*
X74137049Y-103977651D01*
X75625559Y-105466161D01*
X77078902Y-106919503D01*
X77112928Y-106981815D01*
X77107863Y-107052630D01*
X77065316Y-107109466D01*
X77033841Y-107126653D01*
X76891733Y-107179658D01*
X76775596Y-107266596D01*
X76688657Y-107382734D01*
X76637962Y-107518650D01*
X76637960Y-107518658D01*
X76631500Y-107578737D01*
X76631500Y-108575246D01*
X76631502Y-108575270D01*
X76637959Y-108635339D01*
X76637959Y-108635341D01*
X76688657Y-108771266D01*
X76688658Y-108771267D01*
X76775596Y-108887404D01*
X76891733Y-108974342D01*
X77027658Y-109025040D01*
X77087745Y-109031500D01*
X77884254Y-109031499D01*
X77944342Y-109025040D01*
X78080267Y-108974342D01*
X78196404Y-108887404D01*
X78239415Y-108829946D01*
X78296250Y-108787399D01*
X78367065Y-108782333D01*
X78429378Y-108816357D01*
X78446426Y-108840716D01*
X78447790Y-108839876D01*
X78543683Y-108995344D01*
X78543688Y-108995350D01*
X78667649Y-109119311D01*
X78667655Y-109119316D01*
X78816877Y-109211357D01*
X78983308Y-109266506D01*
X79086012Y-109276999D01*
X79236000Y-109276999D01*
X79736000Y-109276999D01*
X79885978Y-109276999D01*
X79988691Y-109266506D01*
X80155122Y-109211357D01*
X80304344Y-109119316D01*
X80304350Y-109119311D01*
X80428311Y-108995350D01*
X80428316Y-108995344D01*
X80520357Y-108846122D01*
X80575506Y-108679691D01*
X80585999Y-108576987D01*
X80586000Y-108576987D01*
X80586000Y-108327000D01*
X79736000Y-108327000D01*
X79736000Y-109276999D01*
X79236000Y-109276999D01*
X79236000Y-107827000D01*
X79736000Y-107827000D01*
X80585999Y-107827000D01*
X80585999Y-107610012D01*
X89792000Y-107610012D01*
X89792000Y-108285000D01*
X91317000Y-108285000D01*
X91817000Y-108285000D01*
X93341999Y-108285000D01*
X93341999Y-107610021D01*
X93331506Y-107507308D01*
X93276357Y-107340877D01*
X93184316Y-107191655D01*
X93184311Y-107191649D01*
X93060350Y-107067688D01*
X93060344Y-107067683D01*
X92911122Y-106975642D01*
X92744691Y-106920493D01*
X92641987Y-106910000D01*
X91817000Y-106910000D01*
X91817000Y-108285000D01*
X91317000Y-108285000D01*
X91317000Y-106910000D01*
X90492021Y-106910000D01*
X90389308Y-106920493D01*
X90222877Y-106975642D01*
X90073655Y-107067683D01*
X90073649Y-107067688D01*
X89949688Y-107191649D01*
X89949683Y-107191655D01*
X89857642Y-107340877D01*
X89802493Y-107507308D01*
X89792000Y-107610012D01*
X80585999Y-107610012D01*
X80585999Y-107577021D01*
X80575506Y-107474308D01*
X80520357Y-107307877D01*
X80428316Y-107158655D01*
X80428311Y-107158649D01*
X80304350Y-107034688D01*
X80304344Y-107034683D01*
X80155122Y-106942642D01*
X79988691Y-106887493D01*
X79885987Y-106877000D01*
X79736000Y-106877000D01*
X79736000Y-107827000D01*
X79236000Y-107827000D01*
X79236000Y-106877000D01*
X79086021Y-106877000D01*
X78983308Y-106887493D01*
X78816877Y-106942642D01*
X78667655Y-107034683D01*
X78667649Y-107034688D01*
X78543688Y-107158649D01*
X78543683Y-107158655D01*
X78447790Y-107314124D01*
X78445093Y-107312460D01*
X78407541Y-107355093D01*
X78339259Y-107374541D01*
X78271304Y-107353986D01*
X78239415Y-107324053D01*
X78196404Y-107266596D01*
X78080267Y-107179658D01*
X78080265Y-107179657D01*
X78080266Y-107179657D01*
X77944347Y-107128961D01*
X77939123Y-107127727D01*
X77877428Y-107092595D01*
X77844521Y-107029685D01*
X77842100Y-107005104D01*
X77842100Y-106776121D01*
X77842100Y-106776119D01*
X77817833Y-106685550D01*
X77803905Y-106661427D01*
X77770953Y-106604352D01*
X77770945Y-106604342D01*
X77700262Y-106533659D01*
X77700239Y-106533638D01*
X75496797Y-104330195D01*
X75462771Y-104267883D01*
X75467836Y-104197067D01*
X75510383Y-104140232D01*
X75576903Y-104115421D01*
X75585892Y-104115100D01*
X76505501Y-104115100D01*
X76573622Y-104135102D01*
X76620115Y-104188758D01*
X76631501Y-104241100D01*
X76631501Y-104257246D01*
X76631502Y-104257270D01*
X76637959Y-104317339D01*
X76637959Y-104317341D01*
X76688657Y-104453266D01*
X76688658Y-104453267D01*
X76775596Y-104569404D01*
X76891733Y-104656342D01*
X77027658Y-104707040D01*
X77087745Y-104713500D01*
X77884254Y-104713499D01*
X77944342Y-104707040D01*
X78080267Y-104656342D01*
X78080270Y-104656339D01*
X78081633Y-104655831D01*
X78152449Y-104650765D01*
X78214761Y-104684790D01*
X78248787Y-104747101D01*
X78246564Y-104809381D01*
X78240295Y-104830733D01*
X78237011Y-104841919D01*
X78236497Y-104845499D01*
X78226500Y-104915030D01*
X78226500Y-105411006D01*
X78232430Y-105466161D01*
X78241412Y-105507450D01*
X78243816Y-105518501D01*
X78251166Y-105545291D01*
X78279421Y-105594911D01*
X78301270Y-105633279D01*
X78301275Y-105633286D01*
X78332655Y-105669500D01*
X78347762Y-105686934D01*
X78381051Y-105719056D01*
X78470770Y-105765987D01*
X78538891Y-105785989D01*
X78612000Y-105796500D01*
X96388500Y-105796500D01*
X96456621Y-105816502D01*
X96503114Y-105870158D01*
X96514500Y-105922500D01*
X96514500Y-111380006D01*
X96520430Y-111435161D01*
X96524335Y-111453111D01*
X96531816Y-111487501D01*
X96539166Y-111514291D01*
X96543118Y-111521232D01*
X96589270Y-111602279D01*
X96589275Y-111602286D01*
X96635752Y-111655923D01*
X96635769Y-111655941D01*
X96653581Y-111673128D01*
X96669051Y-111688056D01*
X96758770Y-111734987D01*
X96826891Y-111754989D01*
X96900000Y-111765500D01*
X96900003Y-111765500D01*
X97602500Y-111765500D01*
X97670621Y-111785502D01*
X97717114Y-111839158D01*
X97728500Y-111891500D01*
X97728501Y-113406500D01*
X97708499Y-113474621D01*
X97654843Y-113521114D01*
X97602501Y-113532500D01*
X97103874Y-113532500D01*
X97046127Y-113539006D01*
X97024518Y-113543939D01*
X96969677Y-113563128D01*
X96901846Y-113614176D01*
X96835389Y-113639156D01*
X96826081Y-113639500D01*
X95455614Y-113639500D01*
X95387493Y-113619498D01*
X95385613Y-113618266D01*
X95308647Y-113566840D01*
X95308646Y-113566839D01*
X95281273Y-113555501D01*
X95273437Y-113552255D01*
X95273432Y-113552253D01*
X95174128Y-113532500D01*
X95174126Y-113532500D01*
X93362263Y-113532500D01*
X93362254Y-113532500D01*
X93320936Y-113535812D01*
X93320927Y-113535813D01*
X93320921Y-113535813D01*
X93320920Y-113535814D01*
X93315698Y-113536656D01*
X93305241Y-113538344D01*
X93264971Y-113548199D01*
X93176923Y-113598185D01*
X93176919Y-113598187D01*
X93148080Y-113623110D01*
X93114330Y-113666438D01*
X93056689Y-113707887D01*
X92985789Y-113711592D01*
X92939421Y-113689877D01*
X92913428Y-113670419D01*
X92836267Y-113612658D01*
X92836265Y-113612657D01*
X92836266Y-113612657D01*
X92700349Y-113561962D01*
X92700344Y-113561960D01*
X92700342Y-113561960D01*
X92670298Y-113558730D01*
X92640256Y-113555500D01*
X90493753Y-113555500D01*
X90493729Y-113555502D01*
X90433660Y-113561959D01*
X90433658Y-113561959D01*
X90297733Y-113612657D01*
X90297730Y-113612659D01*
X90194670Y-113689807D01*
X90128150Y-113714617D01*
X90058776Y-113699525D01*
X90014398Y-113658940D01*
X89990445Y-113623091D01*
X89906257Y-113566839D01*
X89878884Y-113555501D01*
X89871048Y-113552255D01*
X89871043Y-113552253D01*
X89771739Y-113532500D01*
X89771737Y-113532500D01*
X88949800Y-113532500D01*
X88949797Y-113532500D01*
X88850493Y-113552253D01*
X88850488Y-113552255D01*
X88815277Y-113566840D01*
X88731092Y-113623090D01*
X88674838Y-113707281D01*
X88660255Y-113742488D01*
X88660253Y-113742493D01*
X88640500Y-113841797D01*
X88640500Y-123648202D01*
X88660253Y-123747506D01*
X88660255Y-123747511D01*
X88674839Y-123782720D01*
X88674839Y-123782721D01*
X88731090Y-123866907D01*
X88731091Y-123866907D01*
X88731092Y-123866909D01*
X88815280Y-123923161D01*
X88850494Y-123937747D01*
X88949800Y-123957500D01*
X88949801Y-123957500D01*
X107265199Y-123957500D01*
X107265200Y-123957500D01*
X107364506Y-123937747D01*
X107399720Y-123923161D01*
X107399721Y-123923160D01*
X107483909Y-123866908D01*
X107540161Y-123782720D01*
X107554747Y-123747506D01*
X107574500Y-123648200D01*
X107574500Y-113841800D01*
X107554747Y-113742494D01*
X107540161Y-113707280D01*
X107540160Y-113707279D01*
X107535026Y-113699596D01*
X107533266Y-113696961D01*
X107533265Y-113696960D01*
X107528532Y-113689877D01*
X107483908Y-113623091D01*
X107399720Y-113566839D01*
X107372347Y-113555501D01*
X107364511Y-113552255D01*
X107364506Y-113552253D01*
X107265202Y-113532500D01*
X107265200Y-113532500D01*
X106620508Y-113532500D01*
X106552387Y-113512498D01*
X106505894Y-113458842D01*
X106495790Y-113388568D01*
X106499509Y-113371355D01*
X106534691Y-113250258D01*
X106537500Y-113214567D01*
X106537499Y-112337434D01*
X106534691Y-112301742D01*
X106490318Y-112149008D01*
X106490316Y-112149006D01*
X106490316Y-112149003D01*
X106409358Y-112012112D01*
X106409353Y-112012105D01*
X106296894Y-111899646D01*
X106296887Y-111899641D01*
X106159996Y-111818683D01*
X106007256Y-111774308D01*
X105971575Y-111771500D01*
X104594434Y-111771500D01*
X104558744Y-111774308D01*
X104406003Y-111818683D01*
X104269112Y-111899641D01*
X104269105Y-111899646D01*
X104156646Y-112012105D01*
X104153995Y-112015524D01*
X104151233Y-112017518D01*
X104151038Y-112017714D01*
X104151006Y-112017682D01*
X104096440Y-112057092D01*
X104054434Y-112064300D01*
X100363499Y-112064300D01*
X100295378Y-112044298D01*
X100248885Y-111990642D01*
X100237499Y-111938300D01*
X100237499Y-111891500D01*
X100257501Y-111823379D01*
X100311157Y-111776886D01*
X100363499Y-111765500D01*
X103803006Y-111765500D01*
X103803012Y-111765500D01*
X103844051Y-111762234D01*
X103883399Y-111755932D01*
X103896581Y-111753470D01*
X103989568Y-111713403D01*
X104048036Y-111673128D01*
X104083643Y-111643593D01*
X104140206Y-111559614D01*
X104167617Y-111494123D01*
X104173618Y-111475201D01*
X104213276Y-111416320D01*
X104278476Y-111388223D01*
X104348517Y-111399836D01*
X104357861Y-111404844D01*
X104406008Y-111433318D01*
X104558742Y-111477691D01*
X104594433Y-111480500D01*
X105971566Y-111480499D01*
X106007258Y-111477691D01*
X106159992Y-111433318D01*
X106208288Y-111404755D01*
X106277103Y-111387296D01*
X106344434Y-111409812D01*
X106388904Y-111465156D01*
X106395049Y-111484229D01*
X106402153Y-111514289D01*
X106402154Y-111514293D01*
X106452253Y-111602272D01*
X106452263Y-111602286D01*
X106498740Y-111655923D01*
X106498757Y-111655941D01*
X106516569Y-111673128D01*
X106532039Y-111688056D01*
X106621758Y-111734987D01*
X106689879Y-111754989D01*
X106762988Y-111765500D01*
X106762991Y-111765500D01*
X107188994Y-111765500D01*
X107189000Y-111765500D01*
X107244159Y-111759570D01*
X107296501Y-111748184D01*
X107323291Y-111740834D01*
X107411278Y-111690731D01*
X107464934Y-111644238D01*
X107497056Y-111610949D01*
X107543987Y-111521230D01*
X107563989Y-111453109D01*
X107574500Y-111380000D01*
X107574500Y-107441000D01*
X107568570Y-107385841D01*
X107557184Y-107333499D01*
X107549834Y-107306709D01*
X107499731Y-107218722D01*
X107499727Y-107218718D01*
X107499724Y-107218713D01*
X107453247Y-107165076D01*
X107453230Y-107165058D01*
X107419949Y-107132944D01*
X107330232Y-107086014D01*
X107330231Y-107086013D01*
X107330230Y-107086013D01*
X107262109Y-107066011D01*
X107189000Y-107055500D01*
X107188997Y-107055500D01*
X101223500Y-107055500D01*
X101155379Y-107035498D01*
X101108886Y-106981842D01*
X101097500Y-106929500D01*
X101097500Y-104710851D01*
X101097335Y-104701607D01*
X101097335Y-104701591D01*
X101097014Y-104692602D01*
X101080817Y-104611176D01*
X101056006Y-104544656D01*
X101056001Y-104544645D01*
X101036042Y-104502927D01*
X100968381Y-104427603D01*
X100911548Y-104385058D01*
X100911546Y-104385057D01*
X100911545Y-104385056D01*
X100872189Y-104360745D01*
X100872186Y-104360744D01*
X100774547Y-104333957D01*
X100745325Y-104331867D01*
X100678805Y-104307055D01*
X100636259Y-104250218D01*
X100631196Y-104179402D01*
X100636256Y-104162167D01*
X100641040Y-104149343D01*
X100644722Y-104115100D01*
X100647499Y-104089268D01*
X100647500Y-104089251D01*
X100647500Y-101142748D01*
X100647499Y-101142731D01*
X100641041Y-101082662D01*
X100641040Y-101082660D01*
X100641040Y-101082657D01*
X100636563Y-101070655D01*
X100631498Y-100999843D01*
X100665522Y-100937530D01*
X100727834Y-100903504D01*
X100736659Y-100901911D01*
X100801273Y-100892621D01*
X100846291Y-100881982D01*
X100846411Y-100881914D01*
X100902768Y-100849822D01*
X100934278Y-100831879D01*
X100987934Y-100785386D01*
X101020056Y-100752097D01*
X101066987Y-100662378D01*
X101086989Y-100594257D01*
X101097500Y-100521148D01*
X101097500Y-96011000D01*
X101091570Y-95955841D01*
X101080184Y-95903499D01*
X101072834Y-95876709D01*
X101022731Y-95788722D01*
X101022727Y-95788718D01*
X101022724Y-95788713D01*
X100976247Y-95735076D01*
X100976230Y-95735058D01*
X100942949Y-95702944D01*
X100853232Y-95656014D01*
X100853231Y-95656013D01*
X100853230Y-95656013D01*
X100785109Y-95636011D01*
X100712000Y-95625500D01*
X88137000Y-95625500D01*
X88136993Y-95625500D01*
X88081838Y-95631430D01*
X88029516Y-95642812D01*
X88029510Y-95642813D01*
X88029499Y-95642816D01*
X88016707Y-95646325D01*
X88002710Y-95650165D01*
X88002709Y-95650166D01*
X87931971Y-95690446D01*
X87914720Y-95700270D01*
X87914713Y-95700275D01*
X87861076Y-95746752D01*
X87861058Y-95746769D01*
X87828944Y-95780049D01*
X87828944Y-95780050D01*
X87782014Y-95869767D01*
X87782013Y-95869770D01*
X87762011Y-95937891D01*
X87751501Y-96010993D01*
X87751500Y-96011002D01*
X87751500Y-101722500D01*
X87731498Y-101790621D01*
X87677842Y-101837114D01*
X87625500Y-101848500D01*
X78611993Y-101848500D01*
X78556838Y-101854430D01*
X78504516Y-101865812D01*
X78504510Y-101865813D01*
X78504499Y-101865816D01*
X78491707Y-101869325D01*
X78477710Y-101873165D01*
X78477709Y-101873166D01*
X78445163Y-101891699D01*
X78389720Y-101923270D01*
X78389713Y-101923275D01*
X78336076Y-101969752D01*
X78336058Y-101969769D01*
X78303944Y-102003049D01*
X78303944Y-102003050D01*
X78257014Y-102092767D01*
X78257013Y-102092770D01*
X78237011Y-102160891D01*
X78226500Y-102234000D01*
X78226500Y-102234002D01*
X78226500Y-102602970D01*
X78231930Y-102655781D01*
X78242362Y-102705971D01*
X78242363Y-102705977D01*
X78243667Y-102711001D01*
X78241407Y-102781962D01*
X78201142Y-102840436D01*
X78135656Y-102867859D01*
X78077669Y-102860689D01*
X77944349Y-102810962D01*
X77944344Y-102810960D01*
X77944342Y-102810960D01*
X77914298Y-102807730D01*
X77884256Y-102804500D01*
X77087753Y-102804500D01*
X77087729Y-102804502D01*
X77027660Y-102810959D01*
X77027658Y-102810959D01*
X76891733Y-102861657D01*
X76775596Y-102948596D01*
X76688657Y-103064734D01*
X76637962Y-103200650D01*
X76637960Y-103200658D01*
X76631500Y-103260737D01*
X76631500Y-103276900D01*
X76611498Y-103345021D01*
X76557842Y-103391514D01*
X76505500Y-103402900D01*
X74621692Y-103402900D01*
X74553571Y-103382898D01*
X74532601Y-103365999D01*
X74172651Y-103006049D01*
X74172649Y-103006048D01*
X74172647Y-103006046D01*
X74091454Y-102959169D01*
X74091452Y-102959168D01*
X74091450Y-102959167D01*
X74000881Y-102934900D01*
X74000880Y-102934900D01*
X72792499Y-102934900D01*
X72724378Y-102914898D01*
X72677885Y-102861242D01*
X72666499Y-102808900D01*
X72666499Y-101965936D01*
X72666498Y-101965927D01*
X72651734Y-101891699D01*
X72595483Y-101807515D01*
X72511302Y-101751266D01*
X72437067Y-101736500D01*
X69786936Y-101736500D01*
X69786926Y-101736501D01*
X69712699Y-101751265D01*
X69628515Y-101807516D01*
X69572266Y-101891697D01*
X69557500Y-101965930D01*
X65778500Y-101965930D01*
X65778500Y-98134675D01*
X65798502Y-98066554D01*
X65852158Y-98020061D01*
X65922432Y-98009957D01*
X65987012Y-98039451D01*
X66010173Y-98066051D01*
X66090532Y-98189794D01*
X66090536Y-98189799D01*
X66299095Y-98447348D01*
X66299096Y-98447349D01*
X67793747Y-96952697D01*
X67867588Y-97054330D01*
X68045670Y-97232412D01*
X68147300Y-97306251D01*
X66652649Y-98800902D01*
X66652650Y-98800903D01*
X66910200Y-99009463D01*
X66910210Y-99009470D01*
X67235459Y-99220690D01*
X67235470Y-99220696D01*
X67581010Y-99396757D01*
X67581012Y-99396758D01*
X67943064Y-99535738D01*
X68317670Y-99636112D01*
X68700722Y-99696782D01*
X69087994Y-99717078D01*
X69088006Y-99717078D01*
X69475277Y-99696782D01*
X69858329Y-99636112D01*
X70232935Y-99535738D01*
X70594987Y-99396758D01*
X70594989Y-99396757D01*
X70940529Y-99220696D01*
X70940540Y-99220690D01*
X71265789Y-99009470D01*
X71523349Y-98800902D01*
X70028698Y-97306251D01*
X70130330Y-97232412D01*
X70308412Y-97054330D01*
X70382251Y-96952698D01*
X71876902Y-98447349D01*
X72085470Y-98189789D01*
X72185342Y-98036000D01*
X83832953Y-98036000D01*
X83853115Y-98305032D01*
X83913145Y-98568045D01*
X83913147Y-98568050D01*
X84011705Y-98819174D01*
X84011707Y-98819178D01*
X84146598Y-99052816D01*
X84200295Y-99120150D01*
X84200296Y-99120150D01*
X85036958Y-98283488D01*
X85061978Y-98343890D01*
X85133112Y-98450351D01*
X85223649Y-98540888D01*
X85330110Y-98612022D01*
X85390510Y-98637041D01*
X84552849Y-99474701D01*
X84552849Y-99474703D01*
X84735467Y-99599211D01*
X84735474Y-99599215D01*
X84978537Y-99716269D01*
X84978550Y-99716274D01*
X85236328Y-99795788D01*
X85236340Y-99795790D01*
X85503113Y-99836000D01*
X85772887Y-99836000D01*
X86039659Y-99795790D01*
X86039671Y-99795788D01*
X86297449Y-99716274D01*
X86297462Y-99716269D01*
X86540526Y-99599215D01*
X86723150Y-99474702D01*
X85885489Y-98637041D01*
X85945890Y-98612022D01*
X86052351Y-98540888D01*
X86142888Y-98450351D01*
X86214022Y-98343890D01*
X86239041Y-98283489D01*
X87075703Y-99120151D01*
X87129402Y-99052815D01*
X87264292Y-98819178D01*
X87264294Y-98819174D01*
X87362852Y-98568050D01*
X87362854Y-98568045D01*
X87422884Y-98305032D01*
X87443046Y-98036000D01*
X87422884Y-97766967D01*
X87362854Y-97503954D01*
X87362852Y-97503949D01*
X87264294Y-97252825D01*
X87264292Y-97252821D01*
X87129402Y-97019184D01*
X87075703Y-96951848D01*
X87075702Y-96951848D01*
X86239040Y-97788509D01*
X86214022Y-97728110D01*
X86142888Y-97621649D01*
X86052351Y-97531112D01*
X85945890Y-97459978D01*
X85885488Y-97434958D01*
X86723149Y-96597297D01*
X86723149Y-96597296D01*
X86540519Y-96472780D01*
X86540518Y-96472779D01*
X86297467Y-96355732D01*
X86297449Y-96355725D01*
X86039671Y-96276211D01*
X86039659Y-96276209D01*
X85772887Y-96236000D01*
X85503113Y-96236000D01*
X85236340Y-96276209D01*
X85236328Y-96276211D01*
X84978550Y-96355725D01*
X84978532Y-96355732D01*
X84735482Y-96472779D01*
X84735474Y-96472784D01*
X84552849Y-96597295D01*
X84552849Y-96597297D01*
X85390511Y-97434958D01*
X85330110Y-97459978D01*
X85223649Y-97531112D01*
X85133112Y-97621649D01*
X85061978Y-97728110D01*
X85036958Y-97788510D01*
X84200296Y-96951848D01*
X84200295Y-96951848D01*
X84146597Y-97019184D01*
X84011707Y-97252821D01*
X84011705Y-97252825D01*
X83913147Y-97503949D01*
X83913145Y-97503954D01*
X83853115Y-97766967D01*
X83832953Y-98036000D01*
X72185342Y-98036000D01*
X72296690Y-97864540D01*
X72296696Y-97864529D01*
X72472757Y-97518989D01*
X72472758Y-97518987D01*
X72611738Y-97156935D01*
X72712112Y-96782329D01*
X72772782Y-96399277D01*
X72793078Y-96012006D01*
X72793078Y-96011993D01*
X72772782Y-95624722D01*
X72712112Y-95241670D01*
X72611738Y-94867064D01*
X72472758Y-94505012D01*
X72472757Y-94505010D01*
X72296696Y-94159470D01*
X72296690Y-94159459D01*
X72085470Y-93834210D01*
X72085463Y-93834200D01*
X71876903Y-93576650D01*
X71876902Y-93576649D01*
X70382251Y-95071300D01*
X70308412Y-94969670D01*
X70130330Y-94791588D01*
X70028697Y-94717747D01*
X71523349Y-93223096D01*
X71523348Y-93223095D01*
X71265799Y-93014536D01*
X71265789Y-93014529D01*
X71142051Y-92934172D01*
X71095815Y-92880296D01*
X71086045Y-92809975D01*
X71115845Y-92745535D01*
X71175754Y-92707436D01*
X71210676Y-92702500D01*
X105065324Y-92702500D01*
X105133445Y-92722502D01*
G37*
%TD.AperFunction*%
%TD*%
M02*
