%TF.GenerationSoftware,KiCad,Pcbnew,8.0.9*%
%TF.CreationDate,2025-05-16T13:11:34-04:00*%
%TF.ProjectId,groundside-charging,67726f75-6e64-4736-9964-652d63686172,rev?*%
%TF.SameCoordinates,Original*%
%TF.FileFunction,Soldermask,Top*%
%TF.FilePolarity,Negative*%
%FSLAX46Y46*%
G04 Gerber Fmt 4.6, Leading zero omitted, Abs format (unit mm)*
G04 Created by KiCad (PCBNEW 8.0.9) date 2025-05-16 13:11:34*
%MOMM*%
%LPD*%
G01*
G04 APERTURE LIST*
G04 Aperture macros list*
%AMRoundRect*
0 Rectangle with rounded corners*
0 $1 Rounding radius*
0 $2 $3 $4 $5 $6 $7 $8 $9 X,Y pos of 4 corners*
0 Add a 4 corners polygon primitive as box body*
4,1,4,$2,$3,$4,$5,$6,$7,$8,$9,$2,$3,0*
0 Add four circle primitives for the rounded corners*
1,1,$1+$1,$2,$3*
1,1,$1+$1,$4,$5*
1,1,$1+$1,$6,$7*
1,1,$1+$1,$8,$9*
0 Add four rect primitives between the rounded corners*
20,1,$1+$1,$2,$3,$4,$5,0*
20,1,$1+$1,$4,$5,$6,$7,0*
20,1,$1+$1,$6,$7,$8,$9,0*
20,1,$1+$1,$8,$9,$2,$3,0*%
G04 Aperture macros list end*
%ADD10RoundRect,0.250000X0.337500X0.475000X-0.337500X0.475000X-0.337500X-0.475000X0.337500X-0.475000X0*%
%ADD11RoundRect,0.250000X0.350000X0.450000X-0.350000X0.450000X-0.350000X-0.450000X0.350000X-0.450000X0*%
%ADD12RoundRect,0.250000X0.475000X-0.337500X0.475000X0.337500X-0.475000X0.337500X-0.475000X-0.337500X0*%
%ADD13C,0.800000*%
%ADD14C,6.400000*%
%ADD15R,2.600000X2.600000*%
%ADD16C,2.600000*%
%ADD17RoundRect,0.250000X-0.350000X-0.450000X0.350000X-0.450000X0.350000X0.450000X-0.350000X0.450000X0*%
%ADD18RoundRect,0.150000X-0.150000X0.825000X-0.150000X-0.825000X0.150000X-0.825000X0.150000X0.825000X0*%
%ADD19RoundRect,0.250000X-0.337500X-0.475000X0.337500X-0.475000X0.337500X0.475000X-0.337500X0.475000X0*%
%ADD20RoundRect,0.250000X1.025000X-0.875000X1.025000X0.875000X-1.025000X0.875000X-1.025000X-0.875000X0*%
%ADD21RoundRect,0.250000X-1.400000X-1.000000X1.400000X-1.000000X1.400000X1.000000X-1.400000X1.000000X0*%
%ADD22R,7.010400X3.987800*%
%ADD23RoundRect,0.250000X0.875000X1.025000X-0.875000X1.025000X-0.875000X-1.025000X0.875000X-1.025000X0*%
%ADD24RoundRect,0.249999X0.450001X1.425001X-0.450001X1.425001X-0.450001X-1.425001X0.450001X-1.425001X0*%
%ADD25RoundRect,0.250000X-0.450000X0.350000X-0.450000X-0.350000X0.450000X-0.350000X0.450000X0.350000X0*%
%ADD26RoundRect,0.375000X0.625000X0.375000X-0.625000X0.375000X-0.625000X-0.375000X0.625000X-0.375000X0*%
%ADD27RoundRect,0.500000X0.500000X1.400000X-0.500000X1.400000X-0.500000X-1.400000X0.500000X-1.400000X0*%
%ADD28RoundRect,0.250000X0.450000X-0.350000X0.450000X0.350000X-0.450000X0.350000X-0.450000X-0.350000X0*%
G04 APERTURE END LIST*
D10*
%TO.C,C5*%
X74316500Y-115443000D03*
X72241500Y-115443000D03*
%TD*%
D11*
%TO.C,R6*%
X74279000Y-117983000D03*
X72279000Y-117983000D03*
%TD*%
D12*
%TO.C,C1*%
X96139000Y-115464500D03*
X96139000Y-113389500D03*
%TD*%
D13*
%TO.C,H3*%
X66688000Y-159512000D03*
X67390944Y-157814944D03*
X67390944Y-161209056D03*
X69088000Y-157112000D03*
D14*
X69088000Y-159512000D03*
D13*
X69088000Y-161912000D03*
X70785056Y-157814944D03*
X70785056Y-161209056D03*
X71488000Y-159512000D03*
%TD*%
D11*
%TO.C,R8*%
X79486000Y-103759000D03*
X77486000Y-103759000D03*
%TD*%
D15*
%TO.C,J1*%
X85638000Y-157488000D03*
D16*
X90638000Y-157488000D03*
%TD*%
D17*
%TO.C,R4*%
X79137000Y-117983000D03*
X81137000Y-117983000D03*
%TD*%
D11*
%TO.C,R2*%
X74279000Y-132588000D03*
X72279000Y-132588000D03*
%TD*%
D12*
%TO.C,C4*%
X80264000Y-128799500D03*
X80264000Y-126724500D03*
%TD*%
D18*
%TO.C,Q1*%
X86614000Y-128401850D03*
X85344000Y-128401850D03*
X84074000Y-128401850D03*
X82804000Y-128401850D03*
X82804000Y-123451850D03*
X86614000Y-123451850D03*
X85344000Y-123451850D03*
X84074000Y-123451850D03*
%TD*%
D19*
%TO.C,C7*%
X79099500Y-120523000D03*
X81174500Y-120523000D03*
%TD*%
%TO.C,C6*%
X79099500Y-115443000D03*
X81174500Y-115443000D03*
%TD*%
D20*
%TO.C,C8*%
X91567000Y-114935000D03*
X91567000Y-108535000D03*
%TD*%
D21*
%TO.C,D1*%
X91567000Y-121441000D03*
X91567000Y-128241000D03*
%TD*%
D13*
%TO.C,H4*%
X104788000Y-159512000D03*
X105490944Y-157814944D03*
X105490944Y-161209056D03*
X107188000Y-157112000D03*
D14*
X107188000Y-159512000D03*
D13*
X107188000Y-161912000D03*
X108885056Y-157814944D03*
X108885056Y-161209056D03*
X109588000Y-159512000D03*
%TD*%
D22*
%TO.C,L1*%
X90297000Y-146469100D03*
X90297000Y-136486900D03*
%TD*%
D18*
%TO.C,U2*%
X77851000Y-123509000D03*
X76581000Y-123509000D03*
X75311000Y-123509000D03*
X74041000Y-123509000D03*
X74041000Y-128459000D03*
X75311000Y-128459000D03*
X76581000Y-128459000D03*
X77851000Y-128459000D03*
%TD*%
D15*
%TO.C,J2*%
X90638000Y-98036000D03*
D16*
X85638000Y-98036000D03*
%TD*%
D17*
%TO.C,R9*%
X77486000Y-108077000D03*
X79486000Y-108077000D03*
%TD*%
D23*
%TO.C,C2*%
X79019000Y-137668000D03*
X72619000Y-137668000D03*
%TD*%
D24*
%TO.C,R1*%
X105793000Y-102616000D03*
X99693000Y-102616000D03*
%TD*%
D25*
%TO.C,R5*%
X86995000Y-113427000D03*
X86995000Y-115427000D03*
%TD*%
D15*
%TO.C,J3*%
X71112000Y-103291000D03*
D16*
X71112000Y-108291000D03*
%TD*%
D26*
%TO.C,U1*%
X105283000Y-110476000D03*
X105283000Y-112776000D03*
D27*
X98983000Y-112776000D03*
D26*
X105283000Y-115076000D03*
%TD*%
D13*
%TO.C,H1*%
X104788000Y-96012000D03*
X105490944Y-94314944D03*
X105490944Y-97709056D03*
X107188000Y-93612000D03*
D14*
X107188000Y-96012000D03*
D13*
X107188000Y-98412000D03*
X108885056Y-94314944D03*
X108885056Y-97709056D03*
X109588000Y-96012000D03*
%TD*%
D23*
%TO.C,C3*%
X79019000Y-144653000D03*
X72619000Y-144653000D03*
%TD*%
D11*
%TO.C,R7*%
X74279000Y-120523000D03*
X72279000Y-120523000D03*
%TD*%
D28*
%TO.C,R3*%
X84201000Y-115427000D03*
X84201000Y-113427000D03*
%TD*%
D13*
%TO.C,H2*%
X66688000Y-96012000D03*
X67390944Y-94314944D03*
X67390944Y-97709056D03*
X69088000Y-93612000D03*
D14*
X69088000Y-96012000D03*
D13*
X69088000Y-98412000D03*
X70785056Y-94314944D03*
X70785056Y-97709056D03*
X71488000Y-96012000D03*
%TD*%
M02*
