%TF.GenerationSoftware,KiCad,Pcbnew,8.0.9*%
%TF.CreationDate,2025-05-16T13:11:49-04:00*%
%TF.ProjectId,groundside-charging,67726f75-6e64-4736-9964-652d63686172,rev?*%
%TF.SameCoordinates,Original*%
%TF.FileFunction,Drillmap*%
%TF.FilePolarity,Positive*%
%FSLAX45Y45*%
G04 Gerber Fmt 4.5, Leading zero omitted, Abs format (unit mm)*
G04 Created by KiCad (PCBNEW 8.0.9) date 2025-05-16 13:11:49*
%MOMM*%
%LPD*%
G01*
G04 APERTURE LIST*
%ADD10C,0.100000*%
%ADD11C,0.200000*%
G04 APERTURE END LIST*
D10*
X6908800Y-9220200D02*
X10718800Y-9220200D01*
X11099800Y-15951200D02*
G75*
G02*
X10718800Y-16332200I-381000J0D01*
G01*
X11099800Y-15951200D02*
X11099800Y-9601200D01*
X10718800Y-9220200D02*
G75*
G02*
X11099800Y-9601200I0J-381000D01*
G01*
X6527800Y-9601200D02*
G75*
G02*
X6908800Y-9220200I381000J0D01*
G01*
X10718800Y-16332200D02*
X6908800Y-16332200D01*
X6908800Y-16332200D02*
G75*
G02*
X6527800Y-15951200I0J381000D01*
G01*
X6527800Y-15951200D02*
X6527800Y-9601200D01*
D11*
X6783577Y-16648684D02*
X6783577Y-16448684D01*
X6783577Y-16448684D02*
X6831196Y-16448684D01*
X6831196Y-16448684D02*
X6859767Y-16458208D01*
X6859767Y-16458208D02*
X6878815Y-16477255D01*
X6878815Y-16477255D02*
X6888339Y-16496303D01*
X6888339Y-16496303D02*
X6897862Y-16534398D01*
X6897862Y-16534398D02*
X6897862Y-16562969D01*
X6897862Y-16562969D02*
X6888339Y-16601065D01*
X6888339Y-16601065D02*
X6878815Y-16620112D01*
X6878815Y-16620112D02*
X6859767Y-16639160D01*
X6859767Y-16639160D02*
X6831196Y-16648684D01*
X6831196Y-16648684D02*
X6783577Y-16648684D01*
X6983577Y-16648684D02*
X6983577Y-16515350D01*
X6983577Y-16553446D02*
X6993101Y-16534398D01*
X6993101Y-16534398D02*
X7002624Y-16524874D01*
X7002624Y-16524874D02*
X7021672Y-16515350D01*
X7021672Y-16515350D02*
X7040720Y-16515350D01*
X7107386Y-16648684D02*
X7107386Y-16515350D01*
X7107386Y-16448684D02*
X7097862Y-16458208D01*
X7097862Y-16458208D02*
X7107386Y-16467731D01*
X7107386Y-16467731D02*
X7116910Y-16458208D01*
X7116910Y-16458208D02*
X7107386Y-16448684D01*
X7107386Y-16448684D02*
X7107386Y-16467731D01*
X7231196Y-16648684D02*
X7212148Y-16639160D01*
X7212148Y-16639160D02*
X7202624Y-16620112D01*
X7202624Y-16620112D02*
X7202624Y-16448684D01*
X7335958Y-16648684D02*
X7316910Y-16639160D01*
X7316910Y-16639160D02*
X7307386Y-16620112D01*
X7307386Y-16620112D02*
X7307386Y-16448684D01*
X7564529Y-16648684D02*
X7564529Y-16448684D01*
X7564529Y-16448684D02*
X7631196Y-16591541D01*
X7631196Y-16591541D02*
X7697862Y-16448684D01*
X7697862Y-16448684D02*
X7697862Y-16648684D01*
X7878815Y-16648684D02*
X7878815Y-16543922D01*
X7878815Y-16543922D02*
X7869291Y-16524874D01*
X7869291Y-16524874D02*
X7850243Y-16515350D01*
X7850243Y-16515350D02*
X7812148Y-16515350D01*
X7812148Y-16515350D02*
X7793101Y-16524874D01*
X7878815Y-16639160D02*
X7859767Y-16648684D01*
X7859767Y-16648684D02*
X7812148Y-16648684D01*
X7812148Y-16648684D02*
X7793101Y-16639160D01*
X7793101Y-16639160D02*
X7783577Y-16620112D01*
X7783577Y-16620112D02*
X7783577Y-16601065D01*
X7783577Y-16601065D02*
X7793101Y-16582017D01*
X7793101Y-16582017D02*
X7812148Y-16572493D01*
X7812148Y-16572493D02*
X7859767Y-16572493D01*
X7859767Y-16572493D02*
X7878815Y-16562969D01*
X7974053Y-16515350D02*
X7974053Y-16715350D01*
X7974053Y-16524874D02*
X7993101Y-16515350D01*
X7993101Y-16515350D02*
X8031196Y-16515350D01*
X8031196Y-16515350D02*
X8050243Y-16524874D01*
X8050243Y-16524874D02*
X8059767Y-16534398D01*
X8059767Y-16534398D02*
X8069291Y-16553446D01*
X8069291Y-16553446D02*
X8069291Y-16610588D01*
X8069291Y-16610588D02*
X8059767Y-16629636D01*
X8059767Y-16629636D02*
X8050243Y-16639160D01*
X8050243Y-16639160D02*
X8031196Y-16648684D01*
X8031196Y-16648684D02*
X7993101Y-16648684D01*
X7993101Y-16648684D02*
X7974053Y-16639160D01*
X8155005Y-16629636D02*
X8164529Y-16639160D01*
X8164529Y-16639160D02*
X8155005Y-16648684D01*
X8155005Y-16648684D02*
X8145482Y-16639160D01*
X8145482Y-16639160D02*
X8155005Y-16629636D01*
X8155005Y-16629636D02*
X8155005Y-16648684D01*
X8155005Y-16524874D02*
X8164529Y-16534398D01*
X8164529Y-16534398D02*
X8155005Y-16543922D01*
X8155005Y-16543922D02*
X8145482Y-16534398D01*
X8145482Y-16534398D02*
X8155005Y-16524874D01*
X8155005Y-16524874D02*
X8155005Y-16543922D01*
M02*
