M48
; DRILL file {KiCad 8.0.9} date 2025-05-16T13:11:48-0400
; FORMAT={-:-/ absolute / metric / decimal}
; #@! TF.CreationDate,2025-05-16T13:11:48-04:00
; #@! TF.GenerationSoftware,Kicad,Pcbnew,8.0.9
; #@! TF.FileFunction,Plated,1,2,PTH
FMAT,2
METRIC
; #@! TA.AperFunction,Plated,PTH,ViaDrill
T1C0.381
; #@! TA.AperFunction,Plated,PTH,ComponentDrill
T2C0.500
; #@! TA.AperFunction,Plated,PTH,ComponentDrill
T3C1.300
; #@! TA.AperFunction,Plated,PTH,ComponentDrill
T4C3.200
%
G90
G05
T1
X70.485Y-119.126
X75.311Y-126.619
X82.804Y-124.968
X89.408Y-118.11
X100.838Y-112.776
X101.727Y-112.776
X102.616Y-112.776
X103.505Y-112.776
X104.013Y-101.727
X104.013Y-102.616
X104.013Y-103.505
X107.569Y-101.727
X107.569Y-102.616
X107.569Y-103.505
T2
X66.688Y-96.012
X66.688Y-159.512
X67.391Y-94.315
X67.391Y-97.709
X67.391Y-157.815
X67.391Y-161.209
X69.088Y-93.612
X69.088Y-98.412
X69.088Y-157.112
X69.088Y-161.912
X70.785Y-94.315
X70.785Y-97.709
X70.785Y-157.815
X70.785Y-161.209
X71.488Y-96.012
X71.488Y-159.512
X104.788Y-96.012
X104.788Y-159.512
X105.491Y-94.315
X105.491Y-97.709
X105.491Y-157.815
X105.491Y-161.209
X107.188Y-93.612
X107.188Y-98.412
X107.188Y-157.112
X107.188Y-161.912
X108.885Y-94.315
X108.885Y-97.709
X108.885Y-157.815
X108.885Y-161.209
X109.588Y-96.012
X109.588Y-159.512
T3
X71.112Y-103.291
X71.112Y-108.291
X85.638Y-98.036
X85.638Y-157.488
X90.638Y-98.036
X90.638Y-157.488
T4
X69.088Y-96.012
X69.088Y-159.512
X107.188Y-96.012
X107.188Y-159.512
M30
