G04 #@! TF.GenerationSoftware,KiCad,Pcbnew,(6.0.10)*
G04 #@! TF.CreationDate,2023-01-26T21:48:12-05:00*
G04 #@! TF.ProjectId,Connectors,436f6e6e-6563-4746-9f72-732e6b696361,rev?*
G04 #@! TF.SameCoordinates,Original*
G04 #@! TF.FileFunction,Copper,L1,Top*
G04 #@! TF.FilePolarity,Positive*
%FSLAX46Y46*%
G04 Gerber Fmt 4.6, Leading zero omitted, Abs format (unit mm)*
G04 Created by KiCad (PCBNEW (6.0.10)) date 2023-01-26 21:48:12*
%MOMM*%
%LPD*%
G01*
G04 APERTURE LIST*
G04 #@! TA.AperFunction,ComponentPad*
%ADD10R,2.400000X2.400000*%
G04 #@! TD*
G04 #@! TA.AperFunction,ComponentPad*
%ADD11C,2.400000*%
G04 #@! TD*
G04 #@! TA.AperFunction,ComponentPad*
%ADD12R,1.803400X1.803400*%
G04 #@! TD*
G04 #@! TA.AperFunction,ComponentPad*
%ADD13C,1.803400*%
G04 #@! TD*
G04 #@! TA.AperFunction,ComponentPad*
%ADD14C,6.400000*%
G04 #@! TD*
G04 #@! TA.AperFunction,ComponentPad*
%ADD15R,2.030000X1.730000*%
G04 #@! TD*
G04 #@! TA.AperFunction,ComponentPad*
%ADD16O,2.030000X1.730000*%
G04 #@! TD*
G04 #@! TA.AperFunction,Conductor*
%ADD17C,7.000000*%
G04 #@! TD*
G04 #@! TA.AperFunction,Conductor*
%ADD18C,0.250000*%
G04 #@! TD*
G04 #@! TA.AperFunction,Conductor*
%ADD19C,1.000000*%
G04 #@! TD*
G04 APERTURE END LIST*
D10*
X142827500Y-70380000D03*
D11*
X142827500Y-75460000D03*
X142827500Y-80540000D03*
X142827500Y-85620000D03*
D10*
X142877500Y-92590000D03*
D11*
X142877500Y-97670000D03*
X142877500Y-102750000D03*
X142877500Y-107830000D03*
D12*
X102249999Y-106400000D03*
D13*
X102249999Y-101400000D03*
X102249999Y-96400000D03*
D14*
X95250000Y-129900000D03*
X95250000Y-70358000D03*
D10*
X166150000Y-114930000D03*
D11*
X166150000Y-120010000D03*
X166150000Y-125090000D03*
X166150000Y-130170000D03*
D10*
X142827500Y-114930000D03*
D11*
X142827500Y-120010000D03*
X142827500Y-125090000D03*
X142827500Y-130170000D03*
D15*
X105150000Y-111115000D03*
D16*
X105150000Y-113655000D03*
X105150000Y-116195000D03*
D14*
X183642000Y-70358000D03*
D10*
X166200000Y-92590000D03*
D11*
X166200000Y-97670000D03*
X166200000Y-102750000D03*
X166200000Y-107830000D03*
D12*
X102199999Y-88550000D03*
D13*
X102199999Y-83550000D03*
D10*
X166150000Y-70380000D03*
D11*
X166150000Y-75460000D03*
X166150000Y-80540000D03*
X166150000Y-85620000D03*
D14*
X183642000Y-129900000D03*
D10*
X119555000Y-92590000D03*
D11*
X119555000Y-97670000D03*
X119555000Y-102750000D03*
X119555000Y-107830000D03*
D10*
X119505000Y-114930000D03*
D11*
X119505000Y-120010000D03*
X119505000Y-125090000D03*
X119505000Y-130170000D03*
D10*
X119505000Y-70380000D03*
D11*
X119505000Y-75460000D03*
X119505000Y-80540000D03*
X119505000Y-85620000D03*
D17*
X112520000Y-97670000D02*
X112520000Y-104904000D01*
X103400000Y-88550000D02*
X112520000Y-97670000D01*
D18*
X105150000Y-113655000D02*
X105674000Y-113655000D01*
D17*
X112520000Y-97670000D02*
X119555000Y-97670000D01*
X112520000Y-117745000D02*
X114785000Y-120010000D01*
X115640000Y-75460000D02*
X119505000Y-75460000D01*
X119555000Y-97670000D02*
X142877500Y-97670000D01*
X112520000Y-116970000D02*
X112520000Y-117745000D01*
D19*
X105674000Y-113655000D02*
X112520000Y-106809000D01*
D17*
X166150000Y-75460000D02*
X142827500Y-75460000D01*
X102199999Y-88550000D02*
X103400000Y-88550000D01*
X114785000Y-120010000D02*
X119505000Y-120010000D01*
X112520000Y-78580000D02*
X115640000Y-75460000D01*
X142827500Y-120010000D02*
X166150000Y-120010000D01*
X142877500Y-97670000D02*
X166200000Y-97670000D01*
X119505000Y-120010000D02*
X142827500Y-120010000D01*
X119505000Y-75460000D02*
X142827500Y-75460000D01*
X112520000Y-104904000D02*
X112520000Y-116970000D01*
D18*
X112520000Y-106809000D02*
X112520000Y-104904000D01*
D17*
X112520000Y-97670000D02*
X112520000Y-78580000D01*
G04 #@! TA.AperFunction,Conductor*
G36*
X183231086Y-66414813D02*
G01*
X183299178Y-66434912D01*
X183345594Y-66488634D01*
X183355598Y-66558923D01*
X183326013Y-66623461D01*
X183266232Y-66661760D01*
X183250618Y-66665262D01*
X182869901Y-66725562D01*
X182494438Y-66826167D01*
X182491350Y-66827352D01*
X182491348Y-66827353D01*
X182443386Y-66845764D01*
X182131547Y-66965468D01*
X182128607Y-66966966D01*
X181788147Y-67140439D01*
X181788140Y-67140443D01*
X181785206Y-67141938D01*
X181782440Y-67143734D01*
X181782437Y-67143736D01*
X181574576Y-67278722D01*
X181459207Y-67353643D01*
X181157124Y-67598266D01*
X180882266Y-67873124D01*
X180637643Y-68175207D01*
X180635848Y-68177970D01*
X180635848Y-68177971D01*
X180441328Y-68477508D01*
X180425938Y-68501206D01*
X180424443Y-68504140D01*
X180424439Y-68504147D01*
X180266573Y-68813976D01*
X180249468Y-68847547D01*
X180110167Y-69210438D01*
X180009562Y-69585901D01*
X179948754Y-69969824D01*
X179928411Y-70358000D01*
X179948754Y-70746176D01*
X180009562Y-71130099D01*
X180110167Y-71505562D01*
X180249468Y-71868453D01*
X180250966Y-71871393D01*
X180424162Y-72211308D01*
X180425938Y-72214794D01*
X180427734Y-72217560D01*
X180427736Y-72217563D01*
X180561672Y-72423808D01*
X180637643Y-72540793D01*
X180882266Y-72842876D01*
X181157124Y-73117734D01*
X181159682Y-73119806D01*
X181159686Y-73119809D01*
X181308166Y-73240046D01*
X181459207Y-73362357D01*
X181461970Y-73364152D01*
X181461971Y-73364152D01*
X181631551Y-73474278D01*
X181785205Y-73574062D01*
X181788139Y-73575557D01*
X181788146Y-73575561D01*
X182128607Y-73749034D01*
X182131547Y-73750532D01*
X182494438Y-73889833D01*
X182869901Y-73990438D01*
X183073793Y-74022732D01*
X183250576Y-74050732D01*
X183250584Y-74050733D01*
X183253824Y-74051246D01*
X183642000Y-74071589D01*
X184030176Y-74051246D01*
X184033416Y-74050733D01*
X184033424Y-74050732D01*
X184210207Y-74022732D01*
X184414099Y-73990438D01*
X184789562Y-73889833D01*
X185152453Y-73750532D01*
X185155393Y-73749034D01*
X185495854Y-73575561D01*
X185495861Y-73575557D01*
X185498795Y-73574062D01*
X185652450Y-73474278D01*
X185822029Y-73364152D01*
X185822030Y-73364152D01*
X185824793Y-73362357D01*
X185975835Y-73240045D01*
X186124314Y-73119809D01*
X186124318Y-73119806D01*
X186126876Y-73117734D01*
X186401734Y-72842876D01*
X186646357Y-72540793D01*
X186722328Y-72423808D01*
X186856264Y-72217563D01*
X186856266Y-72217560D01*
X186858062Y-72214794D01*
X186859839Y-72211308D01*
X187033034Y-71871393D01*
X187034532Y-71868453D01*
X187173833Y-71505562D01*
X187274438Y-71130099D01*
X187335246Y-70746176D01*
X187355589Y-70358000D01*
X187335246Y-69969824D01*
X187274438Y-69585901D01*
X187173833Y-69210438D01*
X187034532Y-68847547D01*
X187017427Y-68813976D01*
X186859561Y-68504147D01*
X186859557Y-68504140D01*
X186858062Y-68501206D01*
X186842673Y-68477508D01*
X186648152Y-68177971D01*
X186648152Y-68177970D01*
X186646357Y-68175207D01*
X186401734Y-67873124D01*
X186126876Y-67598266D01*
X185824793Y-67353643D01*
X185822029Y-67351848D01*
X185501564Y-67143736D01*
X185501561Y-67143734D01*
X185498795Y-67141938D01*
X185495861Y-67140443D01*
X185495854Y-67140439D01*
X185155393Y-66966966D01*
X185152453Y-66965468D01*
X184840614Y-66845764D01*
X184792652Y-66827353D01*
X184792650Y-66827352D01*
X184789562Y-66826167D01*
X184414099Y-66725562D01*
X184410847Y-66725047D01*
X184410838Y-66725045D01*
X184040862Y-66666446D01*
X183976709Y-66636033D01*
X183939182Y-66575765D01*
X183940196Y-66504776D01*
X183979429Y-66445604D01*
X184044424Y-66417036D01*
X184060746Y-66415997D01*
X185247100Y-66417691D01*
X185266302Y-66419191D01*
X185269784Y-66419733D01*
X185281585Y-66421571D01*
X185281587Y-66421571D01*
X185290456Y-66422952D01*
X185308452Y-66420599D01*
X185331848Y-66419733D01*
X185451826Y-66426472D01*
X185574009Y-66433336D01*
X185588039Y-66434917D01*
X185854871Y-66480257D01*
X185868608Y-66483393D01*
X186128671Y-66558318D01*
X186142004Y-66562983D01*
X186392043Y-66666554D01*
X186404773Y-66672685D01*
X186641627Y-66803591D01*
X186653591Y-66811108D01*
X186874319Y-66967723D01*
X186885350Y-66976521D01*
X187068774Y-67140439D01*
X187087149Y-67156860D01*
X187097139Y-67166850D01*
X187277479Y-67368650D01*
X187286277Y-67379681D01*
X187354204Y-67475415D01*
X187442892Y-67600409D01*
X187450409Y-67612373D01*
X187581315Y-67849227D01*
X187587446Y-67861957D01*
X187691017Y-68111996D01*
X187695682Y-68125329D01*
X187770607Y-68385392D01*
X187773743Y-68399129D01*
X187819083Y-68665961D01*
X187820664Y-68679992D01*
X187833857Y-68914861D01*
X187832555Y-68941309D01*
X187832430Y-68942115D01*
X187831048Y-68950992D01*
X187835175Y-68982549D01*
X187836239Y-68998888D01*
X187836239Y-131399367D01*
X187834738Y-131418755D01*
X187832429Y-131433579D01*
X187832429Y-131433588D01*
X187831048Y-131442456D01*
X187833401Y-131460452D01*
X187834267Y-131483848D01*
X187830071Y-131558547D01*
X187820664Y-131726009D01*
X187819083Y-131740039D01*
X187773743Y-132006871D01*
X187770607Y-132020608D01*
X187735224Y-132143422D01*
X187695683Y-132280668D01*
X187691017Y-132294004D01*
X187587446Y-132544043D01*
X187581315Y-132556773D01*
X187450409Y-132793627D01*
X187442892Y-132805591D01*
X187438777Y-132811391D01*
X187286277Y-133026319D01*
X187277479Y-133037350D01*
X187197104Y-133127290D01*
X187097140Y-133239149D01*
X187087150Y-133249139D01*
X186885350Y-133429479D01*
X186874319Y-133438277D01*
X186677630Y-133577835D01*
X186653591Y-133594892D01*
X186641627Y-133602409D01*
X186404773Y-133733315D01*
X186392043Y-133739446D01*
X186142004Y-133843017D01*
X186128671Y-133847682D01*
X185868608Y-133922607D01*
X185854871Y-133925743D01*
X185588039Y-133971083D01*
X185574008Y-133972664D01*
X185339139Y-133985857D01*
X185312691Y-133984555D01*
X185311885Y-133984430D01*
X185311884Y-133984430D01*
X185303008Y-133983048D01*
X185274785Y-133986739D01*
X185271451Y-133987175D01*
X185255112Y-133988239D01*
X93775365Y-133988239D01*
X93755980Y-133986739D01*
X93741147Y-133984429D01*
X93741143Y-133984429D01*
X93732274Y-133983048D01*
X93714278Y-133985401D01*
X93690882Y-133986267D01*
X93448724Y-133972668D01*
X93434692Y-133971087D01*
X93301283Y-133948420D01*
X93167879Y-133925753D01*
X93154104Y-133922609D01*
X92894047Y-133847688D01*
X92880710Y-133843021D01*
X92630676Y-133739455D01*
X92617946Y-133733324D01*
X92381089Y-133602419D01*
X92369125Y-133594902D01*
X92148402Y-133438293D01*
X92137355Y-133429483D01*
X91935562Y-133249151D01*
X91925571Y-133239160D01*
X91745236Y-133037368D01*
X91736426Y-133026321D01*
X91579816Y-132805603D01*
X91572308Y-132793655D01*
X91441380Y-132556766D01*
X91435256Y-132544047D01*
X91331689Y-132294020D01*
X91327022Y-132280684D01*
X91252097Y-132020624D01*
X91248953Y-132006848D01*
X91203619Y-131740051D01*
X91202036Y-131726010D01*
X91188853Y-131491313D01*
X91190154Y-131464868D01*
X91190308Y-131463882D01*
X91190308Y-131463878D01*
X91191689Y-131455008D01*
X91187562Y-131423451D01*
X91186498Y-131407112D01*
X91186498Y-129900000D01*
X91536411Y-129900000D01*
X91556754Y-130288176D01*
X91617562Y-130672099D01*
X91718167Y-131047562D01*
X91857468Y-131410453D01*
X91858966Y-131413393D01*
X92025988Y-131741191D01*
X92033938Y-131756794D01*
X92035734Y-131759560D01*
X92035736Y-131759563D01*
X92115077Y-131881738D01*
X92245643Y-132082793D01*
X92490266Y-132384876D01*
X92765124Y-132659734D01*
X93067207Y-132904357D01*
X93069970Y-132906152D01*
X93069971Y-132906152D01*
X93272027Y-133037368D01*
X93393205Y-133116062D01*
X93396139Y-133117557D01*
X93396146Y-133117561D01*
X93645153Y-133244436D01*
X93739547Y-133292532D01*
X93960547Y-133377366D01*
X94089848Y-133427000D01*
X94102438Y-133431833D01*
X94477901Y-133532438D01*
X94681793Y-133564732D01*
X94858576Y-133592732D01*
X94858584Y-133592733D01*
X94861824Y-133593246D01*
X95250000Y-133613589D01*
X95638176Y-133593246D01*
X95641416Y-133592733D01*
X95641424Y-133592732D01*
X95818207Y-133564732D01*
X96022099Y-133532438D01*
X96397562Y-133431833D01*
X96410153Y-133427000D01*
X96539453Y-133377366D01*
X96760453Y-133292532D01*
X96854847Y-133244436D01*
X97103854Y-133117561D01*
X97103861Y-133117557D01*
X97106795Y-133116062D01*
X97227974Y-133037368D01*
X97430029Y-132906152D01*
X97430030Y-132906152D01*
X97432793Y-132904357D01*
X97734876Y-132659734D01*
X98009734Y-132384876D01*
X98254357Y-132082793D01*
X98384923Y-131881738D01*
X98464264Y-131759563D01*
X98464266Y-131759560D01*
X98466062Y-131756794D01*
X98474013Y-131741191D01*
X98641034Y-131413393D01*
X98642532Y-131410453D01*
X98781833Y-131047562D01*
X98882438Y-130672099D01*
X98943246Y-130288176D01*
X98951790Y-130125151D01*
X117792296Y-130125151D01*
X117804480Y-130378798D01*
X117854021Y-130627857D01*
X117855600Y-130632255D01*
X117855602Y-130632262D01*
X117900022Y-130755980D01*
X117939831Y-130866858D01*
X117942048Y-130870984D01*
X118038587Y-131050652D01*
X118060025Y-131090551D01*
X118062820Y-131094294D01*
X118062822Y-131094297D01*
X118209171Y-131290282D01*
X118209176Y-131290288D01*
X118211963Y-131294020D01*
X118215272Y-131297300D01*
X118215277Y-131297306D01*
X118388990Y-131469509D01*
X118392307Y-131472797D01*
X118396069Y-131475555D01*
X118396072Y-131475558D01*
X118501764Y-131553054D01*
X118597094Y-131622953D01*
X118601229Y-131625129D01*
X118601233Y-131625131D01*
X118719289Y-131687243D01*
X118821827Y-131741191D01*
X119061568Y-131824912D01*
X119311050Y-131872278D01*
X119431532Y-131877011D01*
X119560125Y-131882064D01*
X119560130Y-131882064D01*
X119564793Y-131882247D01*
X119663774Y-131871407D01*
X119812569Y-131855112D01*
X119812575Y-131855111D01*
X119817222Y-131854602D01*
X119926680Y-131825784D01*
X120058273Y-131791138D01*
X120062793Y-131789948D01*
X120211614Y-131726010D01*
X120291807Y-131691557D01*
X120291810Y-131691555D01*
X120296110Y-131689708D01*
X120300090Y-131687245D01*
X120300094Y-131687243D01*
X120508064Y-131558547D01*
X120508066Y-131558545D01*
X120512047Y-131556082D01*
X120515624Y-131553054D01*
X120702289Y-131395031D01*
X120702291Y-131395029D01*
X120705862Y-131392006D01*
X120873295Y-131201084D01*
X121010669Y-130987512D01*
X121114967Y-130755980D01*
X121183896Y-130511575D01*
X121215943Y-130259667D01*
X121218291Y-130170000D01*
X121214958Y-130125151D01*
X141114796Y-130125151D01*
X141126980Y-130378798D01*
X141176521Y-130627857D01*
X141178100Y-130632255D01*
X141178102Y-130632262D01*
X141222522Y-130755980D01*
X141262331Y-130866858D01*
X141264548Y-130870984D01*
X141361087Y-131050652D01*
X141382525Y-131090551D01*
X141385320Y-131094294D01*
X141385322Y-131094297D01*
X141531671Y-131290282D01*
X141531676Y-131290288D01*
X141534463Y-131294020D01*
X141537772Y-131297300D01*
X141537777Y-131297306D01*
X141711490Y-131469509D01*
X141714807Y-131472797D01*
X141718569Y-131475555D01*
X141718572Y-131475558D01*
X141824264Y-131553054D01*
X141919594Y-131622953D01*
X141923729Y-131625129D01*
X141923733Y-131625131D01*
X142041789Y-131687243D01*
X142144327Y-131741191D01*
X142384068Y-131824912D01*
X142633550Y-131872278D01*
X142754032Y-131877011D01*
X142882625Y-131882064D01*
X142882630Y-131882064D01*
X142887293Y-131882247D01*
X142986274Y-131871407D01*
X143135069Y-131855112D01*
X143135075Y-131855111D01*
X143139722Y-131854602D01*
X143249180Y-131825784D01*
X143380773Y-131791138D01*
X143385293Y-131789948D01*
X143534114Y-131726010D01*
X143614307Y-131691557D01*
X143614310Y-131691555D01*
X143618610Y-131689708D01*
X143622590Y-131687245D01*
X143622594Y-131687243D01*
X143830564Y-131558547D01*
X143830566Y-131558545D01*
X143834547Y-131556082D01*
X143838124Y-131553054D01*
X144024789Y-131395031D01*
X144024791Y-131395029D01*
X144028362Y-131392006D01*
X144195795Y-131201084D01*
X144333169Y-130987512D01*
X144437467Y-130755980D01*
X144506396Y-130511575D01*
X144538443Y-130259667D01*
X144540791Y-130170000D01*
X144537458Y-130125151D01*
X164437296Y-130125151D01*
X164449480Y-130378798D01*
X164499021Y-130627857D01*
X164500600Y-130632255D01*
X164500602Y-130632262D01*
X164545022Y-130755980D01*
X164584831Y-130866858D01*
X164587048Y-130870984D01*
X164683587Y-131050652D01*
X164705025Y-131090551D01*
X164707820Y-131094294D01*
X164707822Y-131094297D01*
X164854171Y-131290282D01*
X164854176Y-131290288D01*
X164856963Y-131294020D01*
X164860272Y-131297300D01*
X164860277Y-131297306D01*
X165033990Y-131469509D01*
X165037307Y-131472797D01*
X165041069Y-131475555D01*
X165041072Y-131475558D01*
X165146764Y-131553054D01*
X165242094Y-131622953D01*
X165246229Y-131625129D01*
X165246233Y-131625131D01*
X165364289Y-131687243D01*
X165466827Y-131741191D01*
X165706568Y-131824912D01*
X165956050Y-131872278D01*
X166076532Y-131877011D01*
X166205125Y-131882064D01*
X166205130Y-131882064D01*
X166209793Y-131882247D01*
X166308774Y-131871407D01*
X166457569Y-131855112D01*
X166457575Y-131855111D01*
X166462222Y-131854602D01*
X166571680Y-131825784D01*
X166703273Y-131791138D01*
X166707793Y-131789948D01*
X166856614Y-131726010D01*
X166936807Y-131691557D01*
X166936810Y-131691555D01*
X166941110Y-131689708D01*
X166945090Y-131687245D01*
X166945094Y-131687243D01*
X167153064Y-131558547D01*
X167153066Y-131558545D01*
X167157047Y-131556082D01*
X167160624Y-131553054D01*
X167347289Y-131395031D01*
X167347291Y-131395029D01*
X167350862Y-131392006D01*
X167518295Y-131201084D01*
X167655669Y-130987512D01*
X167759967Y-130755980D01*
X167828896Y-130511575D01*
X167860943Y-130259667D01*
X167863291Y-130170000D01*
X167844472Y-129916759D01*
X167840680Y-129900000D01*
X179928411Y-129900000D01*
X179948754Y-130288176D01*
X180009562Y-130672099D01*
X180110167Y-131047562D01*
X180249468Y-131410453D01*
X180250966Y-131413393D01*
X180417988Y-131741191D01*
X180425938Y-131756794D01*
X180427734Y-131759560D01*
X180427736Y-131759563D01*
X180507077Y-131881738D01*
X180637643Y-132082793D01*
X180882266Y-132384876D01*
X181157124Y-132659734D01*
X181459207Y-132904357D01*
X181461970Y-132906152D01*
X181461971Y-132906152D01*
X181664027Y-133037368D01*
X181785205Y-133116062D01*
X181788139Y-133117557D01*
X181788146Y-133117561D01*
X182037153Y-133244436D01*
X182131547Y-133292532D01*
X182352547Y-133377366D01*
X182481848Y-133427000D01*
X182494438Y-133431833D01*
X182869901Y-133532438D01*
X183073793Y-133564732D01*
X183250576Y-133592732D01*
X183250584Y-133592733D01*
X183253824Y-133593246D01*
X183642000Y-133613589D01*
X184030176Y-133593246D01*
X184033416Y-133592733D01*
X184033424Y-133592732D01*
X184210207Y-133564732D01*
X184414099Y-133532438D01*
X184789562Y-133431833D01*
X184802153Y-133427000D01*
X184931453Y-133377366D01*
X185152453Y-133292532D01*
X185246847Y-133244436D01*
X185495854Y-133117561D01*
X185495861Y-133117557D01*
X185498795Y-133116062D01*
X185619974Y-133037368D01*
X185822029Y-132906152D01*
X185822030Y-132906152D01*
X185824793Y-132904357D01*
X186126876Y-132659734D01*
X186401734Y-132384876D01*
X186646357Y-132082793D01*
X186776923Y-131881738D01*
X186856264Y-131759563D01*
X186856266Y-131759560D01*
X186858062Y-131756794D01*
X186866013Y-131741191D01*
X187033034Y-131413393D01*
X187034532Y-131410453D01*
X187173833Y-131047562D01*
X187274438Y-130672099D01*
X187335246Y-130288176D01*
X187355589Y-129900000D01*
X187335246Y-129511824D01*
X187322026Y-129428353D01*
X187288391Y-129215997D01*
X187274438Y-129127901D01*
X187173833Y-128752438D01*
X187034532Y-128389547D01*
X186858062Y-128043206D01*
X186646357Y-127717207D01*
X186401734Y-127415124D01*
X186126876Y-127140266D01*
X185824793Y-126895643D01*
X185822029Y-126893848D01*
X185501564Y-126685736D01*
X185501561Y-126685734D01*
X185498795Y-126683938D01*
X185495861Y-126682443D01*
X185495854Y-126682439D01*
X185155393Y-126508966D01*
X185152453Y-126507468D01*
X184789562Y-126368167D01*
X184414099Y-126267562D01*
X184210207Y-126235268D01*
X184033424Y-126207268D01*
X184033416Y-126207267D01*
X184030176Y-126206754D01*
X183642000Y-126186411D01*
X183253824Y-126206754D01*
X183250584Y-126207267D01*
X183250576Y-126207268D01*
X183073793Y-126235268D01*
X182869901Y-126267562D01*
X182494438Y-126368167D01*
X182131547Y-126507468D01*
X182128607Y-126508966D01*
X181788147Y-126682439D01*
X181788140Y-126682443D01*
X181785206Y-126683938D01*
X181782440Y-126685734D01*
X181782437Y-126685736D01*
X181619717Y-126791407D01*
X181459207Y-126895643D01*
X181157124Y-127140266D01*
X180882266Y-127415124D01*
X180637643Y-127717207D01*
X180425938Y-128043206D01*
X180249468Y-128389547D01*
X180110167Y-128752438D01*
X180009562Y-129127901D01*
X179995609Y-129215997D01*
X179961975Y-129428353D01*
X179948754Y-129511824D01*
X179928411Y-129900000D01*
X167840680Y-129900000D01*
X167788428Y-129669082D01*
X167696391Y-129432409D01*
X167675866Y-129396498D01*
X167572702Y-129215997D01*
X167572700Y-129215995D01*
X167570383Y-129211940D01*
X167413171Y-129012517D01*
X167228209Y-128838523D01*
X167099664Y-128749348D01*
X167023393Y-128696437D01*
X167023390Y-128696435D01*
X167019561Y-128693779D01*
X167015384Y-128691719D01*
X167015377Y-128691715D01*
X166795996Y-128583528D01*
X166795992Y-128583527D01*
X166791810Y-128581464D01*
X166549960Y-128504047D01*
X166545355Y-128503297D01*
X166303935Y-128463980D01*
X166303934Y-128463980D01*
X166299323Y-128463229D01*
X166172364Y-128461567D01*
X166050083Y-128459966D01*
X166050080Y-128459966D01*
X166045406Y-128459905D01*
X165793787Y-128494149D01*
X165549993Y-128565208D01*
X165319380Y-128671522D01*
X165315471Y-128674085D01*
X165110928Y-128808189D01*
X165110923Y-128808193D01*
X165107015Y-128810755D01*
X164917562Y-128979848D01*
X164755183Y-129175087D01*
X164623447Y-129392182D01*
X164525246Y-129626365D01*
X164462738Y-129872490D01*
X164437296Y-130125151D01*
X144537458Y-130125151D01*
X144521972Y-129916759D01*
X144465928Y-129669082D01*
X144373891Y-129432409D01*
X144353366Y-129396498D01*
X144250202Y-129215997D01*
X144250200Y-129215995D01*
X144247883Y-129211940D01*
X144090671Y-129012517D01*
X143905709Y-128838523D01*
X143777164Y-128749348D01*
X143700893Y-128696437D01*
X143700890Y-128696435D01*
X143697061Y-128693779D01*
X143692884Y-128691719D01*
X143692877Y-128691715D01*
X143473496Y-128583528D01*
X143473492Y-128583527D01*
X143469310Y-128581464D01*
X143227460Y-128504047D01*
X143222855Y-128503297D01*
X142981435Y-128463980D01*
X142981434Y-128463980D01*
X142976823Y-128463229D01*
X142849864Y-128461567D01*
X142727583Y-128459966D01*
X142727580Y-128459966D01*
X142722906Y-128459905D01*
X142471287Y-128494149D01*
X142227493Y-128565208D01*
X141996880Y-128671522D01*
X141992971Y-128674085D01*
X141788428Y-128808189D01*
X141788423Y-128808193D01*
X141784515Y-128810755D01*
X141595062Y-128979848D01*
X141432683Y-129175087D01*
X141300947Y-129392182D01*
X141202746Y-129626365D01*
X141140238Y-129872490D01*
X141114796Y-130125151D01*
X121214958Y-130125151D01*
X121199472Y-129916759D01*
X121143428Y-129669082D01*
X121051391Y-129432409D01*
X121030866Y-129396498D01*
X120927702Y-129215997D01*
X120927700Y-129215995D01*
X120925383Y-129211940D01*
X120768171Y-129012517D01*
X120583209Y-128838523D01*
X120454664Y-128749348D01*
X120378393Y-128696437D01*
X120378390Y-128696435D01*
X120374561Y-128693779D01*
X120370384Y-128691719D01*
X120370377Y-128691715D01*
X120150996Y-128583528D01*
X120150992Y-128583527D01*
X120146810Y-128581464D01*
X119904960Y-128504047D01*
X119900355Y-128503297D01*
X119658935Y-128463980D01*
X119658934Y-128463980D01*
X119654323Y-128463229D01*
X119527364Y-128461567D01*
X119405083Y-128459966D01*
X119405080Y-128459966D01*
X119400406Y-128459905D01*
X119148787Y-128494149D01*
X118904993Y-128565208D01*
X118674380Y-128671522D01*
X118670471Y-128674085D01*
X118465928Y-128808189D01*
X118465923Y-128808193D01*
X118462015Y-128810755D01*
X118272562Y-128979848D01*
X118110183Y-129175087D01*
X117978447Y-129392182D01*
X117880246Y-129626365D01*
X117817738Y-129872490D01*
X117792296Y-130125151D01*
X98951790Y-130125151D01*
X98963589Y-129900000D01*
X98943246Y-129511824D01*
X98930026Y-129428353D01*
X98896391Y-129215997D01*
X98882438Y-129127901D01*
X98781833Y-128752438D01*
X98642532Y-128389547D01*
X98466062Y-128043206D01*
X98254357Y-127717207D01*
X98009734Y-127415124D01*
X97734876Y-127140266D01*
X97432793Y-126895643D01*
X97430029Y-126893848D01*
X97109564Y-126685736D01*
X97109561Y-126685734D01*
X97106795Y-126683938D01*
X97103861Y-126682443D01*
X97103854Y-126682439D01*
X96763393Y-126508966D01*
X96760453Y-126507468D01*
X96397562Y-126368167D01*
X96022099Y-126267562D01*
X95818207Y-126235268D01*
X95641424Y-126207268D01*
X95641416Y-126207267D01*
X95638176Y-126206754D01*
X95250000Y-126186411D01*
X94861824Y-126206754D01*
X94858584Y-126207267D01*
X94858576Y-126207268D01*
X94681793Y-126235268D01*
X94477901Y-126267562D01*
X94102438Y-126368167D01*
X93739547Y-126507468D01*
X93736607Y-126508966D01*
X93396147Y-126682439D01*
X93396140Y-126682443D01*
X93393206Y-126683938D01*
X93390440Y-126685734D01*
X93390437Y-126685736D01*
X93227717Y-126791407D01*
X93067207Y-126895643D01*
X92765124Y-127140266D01*
X92490266Y-127415124D01*
X92245643Y-127717207D01*
X92033938Y-128043206D01*
X91857468Y-128389547D01*
X91718167Y-128752438D01*
X91617562Y-129127901D01*
X91603609Y-129215997D01*
X91569975Y-129428353D01*
X91556754Y-129511824D01*
X91536411Y-129900000D01*
X91186498Y-129900000D01*
X91186498Y-101365428D01*
X100835388Y-101365428D01*
X100835685Y-101370580D01*
X100835685Y-101370584D01*
X100837188Y-101396646D01*
X100848737Y-101596935D01*
X100899717Y-101823153D01*
X100986961Y-102038007D01*
X101108124Y-102235727D01*
X101259952Y-102411002D01*
X101438369Y-102559127D01*
X101442821Y-102561729D01*
X101442826Y-102561732D01*
X101634125Y-102673518D01*
X101638583Y-102676123D01*
X101855217Y-102758847D01*
X101860285Y-102759878D01*
X101860288Y-102759879D01*
X101972089Y-102782625D01*
X102082453Y-102805079D01*
X102087626Y-102805269D01*
X102087629Y-102805269D01*
X102309025Y-102813387D01*
X102309029Y-102813387D01*
X102314189Y-102813576D01*
X102319309Y-102812920D01*
X102319311Y-102812920D01*
X102390108Y-102803851D01*
X102544201Y-102784111D01*
X102549150Y-102782626D01*
X102549156Y-102782625D01*
X102761369Y-102718958D01*
X102766312Y-102717475D01*
X102791469Y-102705151D01*
X102969919Y-102617729D01*
X102974557Y-102615457D01*
X103058155Y-102555827D01*
X103159131Y-102483802D01*
X103159136Y-102483798D01*
X103163343Y-102480797D01*
X103327601Y-102317111D01*
X103462919Y-102128796D01*
X103505615Y-102042408D01*
X103563369Y-101925550D01*
X103563370Y-101925548D01*
X103565663Y-101920908D01*
X103603019Y-101797956D01*
X103631571Y-101703984D01*
X103631572Y-101703978D01*
X103633075Y-101699032D01*
X103663343Y-101469124D01*
X103665032Y-101400000D01*
X103648464Y-101198480D01*
X103646455Y-101174039D01*
X103646454Y-101174033D01*
X103646031Y-101168888D01*
X103589539Y-100943983D01*
X103497072Y-100731325D01*
X103371115Y-100536624D01*
X103343026Y-100505754D01*
X103218527Y-100368932D01*
X103218525Y-100368931D01*
X103215049Y-100365110D01*
X103210998Y-100361911D01*
X103210994Y-100361907D01*
X103037124Y-100224594D01*
X103033066Y-100221389D01*
X102830054Y-100109320D01*
X102711619Y-100067380D01*
X102616338Y-100033639D01*
X102616334Y-100033638D01*
X102611463Y-100031913D01*
X102606370Y-100031006D01*
X102606367Y-100031005D01*
X102388254Y-99992153D01*
X102388248Y-99992152D01*
X102383165Y-99991247D01*
X102294631Y-99990165D01*
X102156460Y-99988477D01*
X102156458Y-99988477D01*
X102151291Y-99988414D01*
X101922068Y-100023490D01*
X101701652Y-100095533D01*
X101697064Y-100097921D01*
X101697060Y-100097923D01*
X101540535Y-100179405D01*
X101495961Y-100202609D01*
X101491828Y-100205712D01*
X101491825Y-100205714D01*
X101314656Y-100338736D01*
X101310521Y-100341841D01*
X101150312Y-100509491D01*
X101019635Y-100701056D01*
X100922000Y-100911392D01*
X100860030Y-101134849D01*
X100835388Y-101365428D01*
X91186498Y-101365428D01*
X91186498Y-96365428D01*
X100835388Y-96365428D01*
X100848737Y-96596935D01*
X100899717Y-96823153D01*
X100986961Y-97038007D01*
X101108124Y-97235727D01*
X101259952Y-97411002D01*
X101438369Y-97559127D01*
X101442821Y-97561729D01*
X101442826Y-97561732D01*
X101634125Y-97673518D01*
X101638583Y-97676123D01*
X101855217Y-97758847D01*
X101860285Y-97759878D01*
X101860288Y-97759879D01*
X101972089Y-97782625D01*
X102082453Y-97805079D01*
X102087626Y-97805269D01*
X102087629Y-97805269D01*
X102309025Y-97813387D01*
X102309029Y-97813387D01*
X102314189Y-97813576D01*
X102319309Y-97812920D01*
X102319311Y-97812920D01*
X102390108Y-97803851D01*
X102544201Y-97784111D01*
X102549150Y-97782626D01*
X102549156Y-97782625D01*
X102761369Y-97718958D01*
X102766312Y-97717475D01*
X102974557Y-97615457D01*
X103018454Y-97584146D01*
X103159131Y-97483802D01*
X103159136Y-97483798D01*
X103163343Y-97480797D01*
X103327601Y-97317111D01*
X103462919Y-97128796D01*
X103505615Y-97042408D01*
X103563369Y-96925550D01*
X103563370Y-96925548D01*
X103565663Y-96920908D01*
X103596899Y-96818099D01*
X103631571Y-96703984D01*
X103631572Y-96703978D01*
X103633075Y-96699032D01*
X103663343Y-96469124D01*
X103665032Y-96400000D01*
X103658733Y-96323386D01*
X103646455Y-96174039D01*
X103646454Y-96174033D01*
X103646031Y-96168888D01*
X103589539Y-95943983D01*
X103497072Y-95731325D01*
X103371115Y-95536624D01*
X103343026Y-95505754D01*
X103218527Y-95368932D01*
X103218525Y-95368931D01*
X103215049Y-95365110D01*
X103210998Y-95361911D01*
X103210994Y-95361907D01*
X103037124Y-95224594D01*
X103033066Y-95221389D01*
X102830054Y-95109320D01*
X102711619Y-95067380D01*
X102616338Y-95033639D01*
X102616334Y-95033638D01*
X102611463Y-95031913D01*
X102606370Y-95031006D01*
X102606367Y-95031005D01*
X102388254Y-94992153D01*
X102388248Y-94992152D01*
X102383165Y-94991247D01*
X102294631Y-94990165D01*
X102156460Y-94988477D01*
X102156458Y-94988477D01*
X102151291Y-94988414D01*
X101922068Y-95023490D01*
X101701652Y-95095533D01*
X101697064Y-95097921D01*
X101697060Y-95097923D01*
X101500550Y-95200220D01*
X101495961Y-95202609D01*
X101491828Y-95205712D01*
X101491825Y-95205714D01*
X101314656Y-95338736D01*
X101310521Y-95341841D01*
X101150312Y-95509491D01*
X101019635Y-95701056D01*
X100922000Y-95911392D01*
X100860030Y-96134849D01*
X100835388Y-96365428D01*
X91186498Y-96365428D01*
X91186498Y-88634052D01*
X98187390Y-88634052D01*
X98215578Y-89032168D01*
X98283168Y-89425515D01*
X98389490Y-89810205D01*
X98390613Y-89813107D01*
X98390616Y-89813117D01*
X98521193Y-90150637D01*
X98533494Y-90182433D01*
X98713756Y-90538518D01*
X98715435Y-90541148D01*
X98715441Y-90541159D01*
X98869424Y-90782398D01*
X98928493Y-90874939D01*
X98930422Y-90877386D01*
X98930427Y-90877393D01*
X99157408Y-91165316D01*
X99175581Y-91188368D01*
X99177756Y-91190624D01*
X99177761Y-91190630D01*
X99302282Y-91319800D01*
X99452577Y-91475708D01*
X99454970Y-91477741D01*
X99754347Y-91732081D01*
X99754356Y-91732088D01*
X99756742Y-91734115D01*
X99759322Y-91735898D01*
X100082496Y-91959258D01*
X100082505Y-91959263D01*
X100085068Y-91961035D01*
X100087803Y-91962548D01*
X100087808Y-91962551D01*
X100254017Y-92054492D01*
X100434308Y-92154224D01*
X100437177Y-92155457D01*
X100437188Y-92155462D01*
X100798141Y-92310539D01*
X100801009Y-92311771D01*
X100803986Y-92312712D01*
X100803990Y-92312714D01*
X100934706Y-92354054D01*
X101181544Y-92432118D01*
X101572151Y-92514076D01*
X101575268Y-92514412D01*
X101575269Y-92514412D01*
X101665885Y-92524176D01*
X101731470Y-92551361D01*
X101741481Y-92560356D01*
X108474595Y-99293470D01*
X108508621Y-99355782D01*
X108511500Y-99382565D01*
X108511500Y-109339075D01*
X108491498Y-109407196D01*
X108474595Y-109428170D01*
X106888595Y-111014171D01*
X106826283Y-111048196D01*
X106755468Y-111043132D01*
X106698632Y-111000585D01*
X106673821Y-110934065D01*
X106673500Y-110925076D01*
X106673500Y-110201866D01*
X106666745Y-110139684D01*
X106615615Y-110003295D01*
X106528261Y-109886739D01*
X106411705Y-109799385D01*
X106275316Y-109748255D01*
X106213134Y-109741500D01*
X104086866Y-109741500D01*
X104024684Y-109748255D01*
X103888295Y-109799385D01*
X103771739Y-109886739D01*
X103684385Y-110003295D01*
X103633255Y-110139684D01*
X103626500Y-110201866D01*
X103626500Y-112028134D01*
X103633255Y-112090316D01*
X103684385Y-112226705D01*
X103771739Y-112343261D01*
X103888295Y-112430615D01*
X103896704Y-112433767D01*
X103896705Y-112433768D01*
X103991169Y-112469181D01*
X104047934Y-112511822D01*
X104072634Y-112578384D01*
X104057427Y-112647733D01*
X104033912Y-112678332D01*
X103967590Y-112741601D01*
X103828452Y-112928609D01*
X103722812Y-113136388D01*
X103653690Y-113358995D01*
X103623064Y-113590065D01*
X103631809Y-113822993D01*
X103679674Y-114051117D01*
X103765292Y-114267914D01*
X103886213Y-114467187D01*
X103889708Y-114471215D01*
X103889709Y-114471216D01*
X103974041Y-114568399D01*
X104038982Y-114643237D01*
X104043113Y-114646624D01*
X104215100Y-114787646D01*
X104215106Y-114787650D01*
X104219228Y-114791030D01*
X104223866Y-114793670D01*
X104262998Y-114815945D01*
X104312304Y-114867027D01*
X104326166Y-114936657D01*
X104300183Y-115002728D01*
X104271035Y-115029965D01*
X104136248Y-115120709D01*
X103967590Y-115281601D01*
X103828452Y-115468609D01*
X103722812Y-115676388D01*
X103653690Y-115898995D01*
X103652989Y-115904284D01*
X103634131Y-116046568D01*
X103623064Y-116130065D01*
X103631809Y-116362993D01*
X103679674Y-116591117D01*
X103681632Y-116596076D01*
X103681633Y-116596078D01*
X103682773Y-116598965D01*
X103765292Y-116807914D01*
X103886213Y-117007187D01*
X103889708Y-117011215D01*
X103889709Y-117011216D01*
X103974041Y-117108399D01*
X104038982Y-117183237D01*
X104043113Y-117186624D01*
X104215100Y-117327646D01*
X104215106Y-117327650D01*
X104219228Y-117331030D01*
X104421800Y-117446340D01*
X104426816Y-117448161D01*
X104426821Y-117448163D01*
X104635888Y-117524051D01*
X104635892Y-117524052D01*
X104640903Y-117525871D01*
X104646152Y-117526820D01*
X104646155Y-117526821D01*
X104866191Y-117566610D01*
X104866198Y-117566611D01*
X104870275Y-117567348D01*
X104888199Y-117568193D01*
X104893214Y-117568430D01*
X104893221Y-117568430D01*
X104894702Y-117568500D01*
X105358527Y-117568500D01*
X105532257Y-117553759D01*
X105537421Y-117552419D01*
X105537425Y-117552418D01*
X105752708Y-117496541D01*
X105752712Y-117496539D01*
X105757873Y-117495200D01*
X105781527Y-117484545D01*
X105965536Y-117401655D01*
X105965539Y-117401654D01*
X105970397Y-117399465D01*
X106163752Y-117269291D01*
X106332410Y-117108399D01*
X106471548Y-116921391D01*
X106519072Y-116827919D01*
X106526924Y-116812475D01*
X106577188Y-116713612D01*
X106646310Y-116491005D01*
X106676936Y-116259935D01*
X106668191Y-116027007D01*
X106620326Y-115798883D01*
X106534708Y-115582086D01*
X106413787Y-115382813D01*
X106329672Y-115285879D01*
X106264518Y-115210796D01*
X106264516Y-115210794D01*
X106261018Y-115206763D01*
X106218269Y-115171711D01*
X106084900Y-115062354D01*
X106084894Y-115062350D01*
X106080772Y-115058970D01*
X106037002Y-115034055D01*
X105987696Y-114982973D01*
X105973834Y-114913343D01*
X105999817Y-114847272D01*
X106028965Y-114820035D01*
X106163752Y-114729291D01*
X106332410Y-114568399D01*
X106471548Y-114381391D01*
X106563533Y-114200470D01*
X106586754Y-114168481D01*
X108296405Y-112458830D01*
X108358717Y-112424804D01*
X108429532Y-112429869D01*
X108486368Y-112472416D01*
X108511179Y-112538936D01*
X108511500Y-112547925D01*
X108511500Y-117705758D01*
X108511479Y-117708066D01*
X108508491Y-117871067D01*
X108508746Y-117874200D01*
X108519403Y-118005227D01*
X108519662Y-118009177D01*
X108526355Y-118143619D01*
X108526820Y-118146712D01*
X108526821Y-118146722D01*
X108535097Y-118201767D01*
X108536082Y-118210279D01*
X108540847Y-118268866D01*
X108541411Y-118271954D01*
X108565026Y-118401260D01*
X108565676Y-118405164D01*
X108585692Y-118538296D01*
X108586465Y-118541338D01*
X108586465Y-118541340D01*
X108600165Y-118595282D01*
X108601990Y-118603653D01*
X108612552Y-118661484D01*
X108613413Y-118664476D01*
X108613417Y-118664494D01*
X108649767Y-118790841D01*
X108650793Y-118794629D01*
X108683935Y-118925128D01*
X108685005Y-118928075D01*
X108685005Y-118928076D01*
X108703995Y-118980392D01*
X108706645Y-118988547D01*
X108722897Y-119045039D01*
X108756312Y-119128793D01*
X108772766Y-119170037D01*
X108774175Y-119173736D01*
X108819045Y-119297352D01*
X108819049Y-119297362D01*
X108820112Y-119300290D01*
X108821467Y-119303111D01*
X108845563Y-119353291D01*
X108849006Y-119361135D01*
X108870791Y-119415738D01*
X108872233Y-119418514D01*
X108932838Y-119535183D01*
X108934607Y-119538723D01*
X108992877Y-119660071D01*
X108994506Y-119662745D01*
X109023466Y-119710283D01*
X109027670Y-119717743D01*
X109054772Y-119769916D01*
X109056489Y-119772545D01*
X109056492Y-119772550D01*
X109128369Y-119882600D01*
X109130482Y-119885948D01*
X109200521Y-120000915D01*
X109235953Y-120047849D01*
X109240872Y-120054849D01*
X109273019Y-120104069D01*
X109274974Y-120106496D01*
X109357461Y-120208906D01*
X109359891Y-120212022D01*
X109440991Y-120319451D01*
X109443116Y-120321750D01*
X109443117Y-120321751D01*
X109480902Y-120362627D01*
X109486504Y-120369117D01*
X109523376Y-120414894D01*
X109563094Y-120456969D01*
X109627689Y-120521564D01*
X109631119Y-120525130D01*
X109711909Y-120612528D01*
X109714247Y-120614600D01*
X109714252Y-120614605D01*
X109768383Y-120662580D01*
X109773905Y-120667780D01*
X111922795Y-122816670D01*
X111924412Y-122818316D01*
X112037578Y-122935708D01*
X112039971Y-122937741D01*
X112140141Y-123022841D01*
X112143118Y-123025451D01*
X112240610Y-123113698D01*
X112240618Y-123113705D01*
X112242933Y-123115800D01*
X112290226Y-123150731D01*
X112296940Y-123156052D01*
X112341743Y-123194115D01*
X112344324Y-123195898D01*
X112344332Y-123195905D01*
X112452445Y-123270625D01*
X112455657Y-123272920D01*
X112563969Y-123352921D01*
X112566659Y-123354522D01*
X112566669Y-123354528D01*
X112614495Y-123382981D01*
X112621710Y-123387613D01*
X112667487Y-123419251D01*
X112667494Y-123419256D01*
X112670069Y-123421035D01*
X112672804Y-123422548D01*
X112672809Y-123422551D01*
X112787841Y-123486183D01*
X112791274Y-123488153D01*
X112906969Y-123556984D01*
X112909807Y-123558310D01*
X112909810Y-123558312D01*
X112960232Y-123581878D01*
X112967868Y-123585768D01*
X113019309Y-123614224D01*
X113022184Y-123615459D01*
X113022206Y-123615470D01*
X113142999Y-123667367D01*
X113146610Y-123668986D01*
X113219561Y-123703081D01*
X113268540Y-123725972D01*
X113324012Y-123745452D01*
X113332001Y-123748567D01*
X113383142Y-123770539D01*
X113386010Y-123771771D01*
X113388991Y-123772714D01*
X113388997Y-123772716D01*
X113514333Y-123812354D01*
X113518045Y-123813591D01*
X113645107Y-123858212D01*
X113648141Y-123858949D01*
X113648145Y-123858950D01*
X113702236Y-123872086D01*
X113710494Y-123874392D01*
X113763546Y-123891170D01*
X113763554Y-123891172D01*
X113766545Y-123892118D01*
X113769613Y-123892762D01*
X113769614Y-123892762D01*
X113898285Y-123919760D01*
X113902146Y-123920634D01*
X114029899Y-123951659D01*
X114029903Y-123951660D01*
X114032947Y-123952399D01*
X114036045Y-123952832D01*
X114036052Y-123952833D01*
X114072472Y-123957919D01*
X114091177Y-123960531D01*
X114099612Y-123962003D01*
X114157152Y-123974076D01*
X114160269Y-123974412D01*
X114160270Y-123974412D01*
X114290984Y-123988497D01*
X114294912Y-123988983D01*
X114425121Y-124007167D01*
X114425128Y-124007168D01*
X114428224Y-124007600D01*
X114431351Y-124007723D01*
X114431353Y-124007723D01*
X114486965Y-124009908D01*
X114495516Y-124010536D01*
X114551513Y-124016570D01*
X114551524Y-124016571D01*
X114553967Y-124016834D01*
X114556430Y-124016905D01*
X114556431Y-124016905D01*
X114559681Y-124016999D01*
X114611803Y-124018500D01*
X114703171Y-124018500D01*
X114708118Y-124018597D01*
X114827029Y-124023269D01*
X114830147Y-124023081D01*
X114830150Y-124023081D01*
X114902354Y-124018728D01*
X114909936Y-124018500D01*
X117932815Y-124018500D01*
X118000936Y-124038502D01*
X118047429Y-124092158D01*
X118057533Y-124162432D01*
X118040534Y-124209865D01*
X117978447Y-124312182D01*
X117880246Y-124546365D01*
X117817738Y-124792490D01*
X117792296Y-125045151D01*
X117804480Y-125298798D01*
X117854021Y-125547857D01*
X117855600Y-125552255D01*
X117855602Y-125552262D01*
X117900022Y-125675980D01*
X117939831Y-125786858D01*
X118060025Y-126010551D01*
X118062820Y-126014294D01*
X118062822Y-126014297D01*
X118209171Y-126210282D01*
X118209176Y-126210288D01*
X118211963Y-126214020D01*
X118215272Y-126217300D01*
X118215277Y-126217306D01*
X118388990Y-126389509D01*
X118392307Y-126392797D01*
X118396069Y-126395555D01*
X118396072Y-126395558D01*
X118593323Y-126540188D01*
X118597094Y-126542953D01*
X118601229Y-126545129D01*
X118601233Y-126545131D01*
X118719289Y-126607243D01*
X118821827Y-126661191D01*
X119061568Y-126744912D01*
X119311050Y-126792278D01*
X119431532Y-126797011D01*
X119560125Y-126802064D01*
X119560130Y-126802064D01*
X119564793Y-126802247D01*
X119663774Y-126791407D01*
X119812569Y-126775112D01*
X119812575Y-126775111D01*
X119817222Y-126774602D01*
X119926680Y-126745784D01*
X120058273Y-126711138D01*
X120062793Y-126709948D01*
X120181353Y-126659011D01*
X120291807Y-126611557D01*
X120291810Y-126611555D01*
X120296110Y-126609708D01*
X120300090Y-126607245D01*
X120300094Y-126607243D01*
X120508064Y-126478547D01*
X120508066Y-126478545D01*
X120512047Y-126476082D01*
X120610428Y-126392797D01*
X120702289Y-126315031D01*
X120702291Y-126315029D01*
X120705862Y-126312006D01*
X120873295Y-126121084D01*
X121010669Y-125907512D01*
X121114967Y-125675980D01*
X121183896Y-125431575D01*
X121215943Y-125179667D01*
X121218291Y-125090000D01*
X121199472Y-124836759D01*
X121143428Y-124589082D01*
X121051391Y-124352409D01*
X121028400Y-124312182D01*
X121019746Y-124297042D01*
X120968296Y-124207022D01*
X120951859Y-124137956D01*
X120975372Y-124070966D01*
X121031370Y-124027322D01*
X121077689Y-124018500D01*
X141255315Y-124018500D01*
X141323436Y-124038502D01*
X141369929Y-124092158D01*
X141380033Y-124162432D01*
X141363034Y-124209865D01*
X141300947Y-124312182D01*
X141202746Y-124546365D01*
X141140238Y-124792490D01*
X141114796Y-125045151D01*
X141126980Y-125298798D01*
X141176521Y-125547857D01*
X141178100Y-125552255D01*
X141178102Y-125552262D01*
X141222522Y-125675980D01*
X141262331Y-125786858D01*
X141382525Y-126010551D01*
X141385320Y-126014294D01*
X141385322Y-126014297D01*
X141531671Y-126210282D01*
X141531676Y-126210288D01*
X141534463Y-126214020D01*
X141537772Y-126217300D01*
X141537777Y-126217306D01*
X141711490Y-126389509D01*
X141714807Y-126392797D01*
X141718569Y-126395555D01*
X141718572Y-126395558D01*
X141915823Y-126540188D01*
X141919594Y-126542953D01*
X141923729Y-126545129D01*
X141923733Y-126545131D01*
X142041789Y-126607243D01*
X142144327Y-126661191D01*
X142384068Y-126744912D01*
X142633550Y-126792278D01*
X142754032Y-126797011D01*
X142882625Y-126802064D01*
X142882630Y-126802064D01*
X142887293Y-126802247D01*
X142986274Y-126791407D01*
X143135069Y-126775112D01*
X143135075Y-126775111D01*
X143139722Y-126774602D01*
X143249180Y-126745784D01*
X143380773Y-126711138D01*
X143385293Y-126709948D01*
X143503853Y-126659011D01*
X143614307Y-126611557D01*
X143614310Y-126611555D01*
X143618610Y-126609708D01*
X143622590Y-126607245D01*
X143622594Y-126607243D01*
X143830564Y-126478547D01*
X143830566Y-126478545D01*
X143834547Y-126476082D01*
X143932928Y-126392797D01*
X144024789Y-126315031D01*
X144024791Y-126315029D01*
X144028362Y-126312006D01*
X144195795Y-126121084D01*
X144333169Y-125907512D01*
X144437467Y-125675980D01*
X144506396Y-125431575D01*
X144538443Y-125179667D01*
X144540791Y-125090000D01*
X144521972Y-124836759D01*
X144465928Y-124589082D01*
X144373891Y-124352409D01*
X144350900Y-124312182D01*
X144342246Y-124297042D01*
X144290796Y-124207022D01*
X144274359Y-124137956D01*
X144297872Y-124070966D01*
X144353870Y-124027322D01*
X144400189Y-124018500D01*
X164577815Y-124018500D01*
X164645936Y-124038502D01*
X164692429Y-124092158D01*
X164702533Y-124162432D01*
X164685534Y-124209865D01*
X164623447Y-124312182D01*
X164525246Y-124546365D01*
X164462738Y-124792490D01*
X164437296Y-125045151D01*
X164449480Y-125298798D01*
X164499021Y-125547857D01*
X164500600Y-125552255D01*
X164500602Y-125552262D01*
X164545022Y-125675980D01*
X164584831Y-125786858D01*
X164705025Y-126010551D01*
X164707820Y-126014294D01*
X164707822Y-126014297D01*
X164854171Y-126210282D01*
X164854176Y-126210288D01*
X164856963Y-126214020D01*
X164860272Y-126217300D01*
X164860277Y-126217306D01*
X165033990Y-126389509D01*
X165037307Y-126392797D01*
X165041069Y-126395555D01*
X165041072Y-126395558D01*
X165238323Y-126540188D01*
X165242094Y-126542953D01*
X165246229Y-126545129D01*
X165246233Y-126545131D01*
X165364289Y-126607243D01*
X165466827Y-126661191D01*
X165706568Y-126744912D01*
X165956050Y-126792278D01*
X166076532Y-126797011D01*
X166205125Y-126802064D01*
X166205130Y-126802064D01*
X166209793Y-126802247D01*
X166308774Y-126791407D01*
X166457569Y-126775112D01*
X166457575Y-126775111D01*
X166462222Y-126774602D01*
X166571680Y-126745784D01*
X166703273Y-126711138D01*
X166707793Y-126709948D01*
X166826353Y-126659011D01*
X166936807Y-126611557D01*
X166936810Y-126611555D01*
X166941110Y-126609708D01*
X166945090Y-126607245D01*
X166945094Y-126607243D01*
X167153064Y-126478547D01*
X167153066Y-126478545D01*
X167157047Y-126476082D01*
X167255428Y-126392797D01*
X167347289Y-126315031D01*
X167347291Y-126315029D01*
X167350862Y-126312006D01*
X167518295Y-126121084D01*
X167655669Y-125907512D01*
X167759967Y-125675980D01*
X167828896Y-125431575D01*
X167860943Y-125179667D01*
X167863291Y-125090000D01*
X167844472Y-124836759D01*
X167788428Y-124589082D01*
X167696391Y-124352409D01*
X167675866Y-124316498D01*
X167572702Y-124135997D01*
X167572700Y-124135995D01*
X167570383Y-124131940D01*
X167474676Y-124010536D01*
X167449664Y-123978808D01*
X167423199Y-123912928D01*
X167436552Y-123843199D01*
X167485484Y-123791758D01*
X167505618Y-123782365D01*
X167705290Y-123709888D01*
X168065071Y-123537123D01*
X168405915Y-123329479D01*
X168582852Y-123195905D01*
X168721957Y-123090892D01*
X168721960Y-123090890D01*
X168724451Y-123089009D01*
X168726733Y-123086899D01*
X168726742Y-123086892D01*
X169015231Y-122820214D01*
X169017528Y-122818091D01*
X169282249Y-122519405D01*
X169515995Y-122195903D01*
X169716455Y-121850785D01*
X169881648Y-121487464D01*
X170009938Y-121109532D01*
X170010642Y-121106494D01*
X170010645Y-121106484D01*
X170099353Y-120723770D01*
X170099353Y-120723768D01*
X170100058Y-120720728D01*
X170151117Y-120324895D01*
X170162609Y-119925948D01*
X170159658Y-119884262D01*
X170134643Y-119530968D01*
X170134421Y-119527832D01*
X170066831Y-119134485D01*
X169960509Y-118749795D01*
X169959386Y-118746893D01*
X169959383Y-118746883D01*
X169817635Y-118380488D01*
X169816505Y-118377567D01*
X169636243Y-118021482D01*
X169634564Y-118018852D01*
X169634558Y-118018841D01*
X169480575Y-117777602D01*
X169421506Y-117685061D01*
X169419577Y-117682614D01*
X169419572Y-117682607D01*
X169176362Y-117374098D01*
X169174418Y-117371632D01*
X169172243Y-117369376D01*
X169172238Y-117369370D01*
X168988917Y-117179204D01*
X168897422Y-117084292D01*
X168811406Y-117011216D01*
X168595652Y-116827919D01*
X168595643Y-116827912D01*
X168593257Y-116825885D01*
X168528504Y-116781131D01*
X168267503Y-116600742D01*
X168267494Y-116600737D01*
X168264931Y-116598965D01*
X168262196Y-116597452D01*
X168262191Y-116597449D01*
X168069765Y-116491005D01*
X167915691Y-116405776D01*
X167912822Y-116404543D01*
X167912811Y-116404538D01*
X167551858Y-116249461D01*
X167551855Y-116249460D01*
X167548990Y-116248229D01*
X167546013Y-116247288D01*
X167546009Y-116247286D01*
X167415293Y-116205946D01*
X167168455Y-116127882D01*
X166777848Y-116045924D01*
X166774730Y-116045588D01*
X166383484Y-116003430D01*
X166383481Y-116003430D01*
X166381033Y-116003166D01*
X166378570Y-116003095D01*
X166378569Y-116003095D01*
X166375319Y-116003001D01*
X166323197Y-116001500D01*
X116654500Y-116001500D01*
X116586379Y-115981498D01*
X116539886Y-115927842D01*
X116528500Y-115875500D01*
X116528500Y-107785151D01*
X117842296Y-107785151D01*
X117854480Y-108038798D01*
X117904021Y-108287857D01*
X117905600Y-108292255D01*
X117905602Y-108292262D01*
X117950022Y-108415980D01*
X117989831Y-108526858D01*
X118110025Y-108750551D01*
X118112820Y-108754294D01*
X118112822Y-108754297D01*
X118259171Y-108950282D01*
X118259176Y-108950288D01*
X118261963Y-108954020D01*
X118265272Y-108957300D01*
X118265277Y-108957306D01*
X118363859Y-109055031D01*
X118442307Y-109132797D01*
X118446069Y-109135555D01*
X118446072Y-109135558D01*
X118551764Y-109213054D01*
X118647094Y-109282953D01*
X118651229Y-109285129D01*
X118651233Y-109285131D01*
X118753764Y-109339075D01*
X118871827Y-109401191D01*
X119111568Y-109484912D01*
X119361050Y-109532278D01*
X119481532Y-109537011D01*
X119610125Y-109542064D01*
X119610130Y-109542064D01*
X119614793Y-109542247D01*
X119713774Y-109531407D01*
X119862569Y-109515112D01*
X119862575Y-109515111D01*
X119867222Y-109514602D01*
X119976680Y-109485784D01*
X120108273Y-109451138D01*
X120112793Y-109449948D01*
X120249383Y-109391265D01*
X120341807Y-109351557D01*
X120341810Y-109351555D01*
X120346110Y-109349708D01*
X120350090Y-109347245D01*
X120350094Y-109347243D01*
X120558064Y-109218547D01*
X120558066Y-109218545D01*
X120562047Y-109216082D01*
X120660428Y-109132797D01*
X120752289Y-109055031D01*
X120752291Y-109055029D01*
X120755862Y-109052006D01*
X120923295Y-108861084D01*
X121060669Y-108647512D01*
X121164967Y-108415980D01*
X121233896Y-108171575D01*
X121265943Y-107919667D01*
X121268291Y-107830000D01*
X121264958Y-107785151D01*
X141164796Y-107785151D01*
X141176980Y-108038798D01*
X141226521Y-108287857D01*
X141228100Y-108292255D01*
X141228102Y-108292262D01*
X141272522Y-108415980D01*
X141312331Y-108526858D01*
X141432525Y-108750551D01*
X141435320Y-108754294D01*
X141435322Y-108754297D01*
X141581671Y-108950282D01*
X141581676Y-108950288D01*
X141584463Y-108954020D01*
X141587772Y-108957300D01*
X141587777Y-108957306D01*
X141686359Y-109055031D01*
X141764807Y-109132797D01*
X141768569Y-109135555D01*
X141768572Y-109135558D01*
X141874264Y-109213054D01*
X141969594Y-109282953D01*
X141973729Y-109285129D01*
X141973733Y-109285131D01*
X142076264Y-109339075D01*
X142194327Y-109401191D01*
X142434068Y-109484912D01*
X142683550Y-109532278D01*
X142804032Y-109537011D01*
X142932625Y-109542064D01*
X142932630Y-109542064D01*
X142937293Y-109542247D01*
X143036274Y-109531407D01*
X143185069Y-109515112D01*
X143185075Y-109515111D01*
X143189722Y-109514602D01*
X143299180Y-109485784D01*
X143430773Y-109451138D01*
X143435293Y-109449948D01*
X143571883Y-109391265D01*
X143664307Y-109351557D01*
X143664310Y-109351555D01*
X143668610Y-109349708D01*
X143672590Y-109347245D01*
X143672594Y-109347243D01*
X143880564Y-109218547D01*
X143880566Y-109218545D01*
X143884547Y-109216082D01*
X143982928Y-109132797D01*
X144074789Y-109055031D01*
X144074791Y-109055029D01*
X144078362Y-109052006D01*
X144245795Y-108861084D01*
X144383169Y-108647512D01*
X144487467Y-108415980D01*
X144556396Y-108171575D01*
X144588443Y-107919667D01*
X144590791Y-107830000D01*
X144587458Y-107785151D01*
X164487296Y-107785151D01*
X164499480Y-108038798D01*
X164549021Y-108287857D01*
X164550600Y-108292255D01*
X164550602Y-108292262D01*
X164595022Y-108415980D01*
X164634831Y-108526858D01*
X164755025Y-108750551D01*
X164757820Y-108754294D01*
X164757822Y-108754297D01*
X164904171Y-108950282D01*
X164904176Y-108950288D01*
X164906963Y-108954020D01*
X164910272Y-108957300D01*
X164910277Y-108957306D01*
X165008859Y-109055031D01*
X165087307Y-109132797D01*
X165091069Y-109135555D01*
X165091072Y-109135558D01*
X165196764Y-109213054D01*
X165292094Y-109282953D01*
X165296229Y-109285129D01*
X165296233Y-109285131D01*
X165398764Y-109339075D01*
X165516827Y-109401191D01*
X165756568Y-109484912D01*
X166006050Y-109532278D01*
X166126532Y-109537011D01*
X166255125Y-109542064D01*
X166255130Y-109542064D01*
X166259793Y-109542247D01*
X166358774Y-109531407D01*
X166507569Y-109515112D01*
X166507575Y-109515111D01*
X166512222Y-109514602D01*
X166621680Y-109485784D01*
X166753273Y-109451138D01*
X166757793Y-109449948D01*
X166894383Y-109391265D01*
X166986807Y-109351557D01*
X166986810Y-109351555D01*
X166991110Y-109349708D01*
X166995090Y-109347245D01*
X166995094Y-109347243D01*
X167203064Y-109218547D01*
X167203066Y-109218545D01*
X167207047Y-109216082D01*
X167305428Y-109132797D01*
X167397289Y-109055031D01*
X167397291Y-109055029D01*
X167400862Y-109052006D01*
X167568295Y-108861084D01*
X167705669Y-108647512D01*
X167809967Y-108415980D01*
X167878896Y-108171575D01*
X167910943Y-107919667D01*
X167913291Y-107830000D01*
X167894472Y-107576759D01*
X167838428Y-107329082D01*
X167746391Y-107092409D01*
X167725866Y-107056498D01*
X167622702Y-106875997D01*
X167622700Y-106875995D01*
X167620383Y-106871940D01*
X167463171Y-106672517D01*
X167278209Y-106498523D01*
X167234483Y-106468189D01*
X167073393Y-106356437D01*
X167073390Y-106356435D01*
X167069561Y-106353779D01*
X167065384Y-106351719D01*
X167065377Y-106351715D01*
X166845996Y-106243528D01*
X166845992Y-106243527D01*
X166841810Y-106241464D01*
X166599960Y-106164047D01*
X166595355Y-106163297D01*
X166353935Y-106123980D01*
X166353934Y-106123980D01*
X166349323Y-106123229D01*
X166222364Y-106121567D01*
X166100083Y-106119966D01*
X166100080Y-106119966D01*
X166095406Y-106119905D01*
X165843787Y-106154149D01*
X165599993Y-106225208D01*
X165369380Y-106331522D01*
X165365471Y-106334085D01*
X165160928Y-106468189D01*
X165160923Y-106468193D01*
X165157015Y-106470755D01*
X164967562Y-106639848D01*
X164805183Y-106835087D01*
X164673447Y-107052182D01*
X164575246Y-107286365D01*
X164512738Y-107532490D01*
X164487296Y-107785151D01*
X144587458Y-107785151D01*
X144571972Y-107576759D01*
X144515928Y-107329082D01*
X144423891Y-107092409D01*
X144403366Y-107056498D01*
X144300202Y-106875997D01*
X144300200Y-106875995D01*
X144297883Y-106871940D01*
X144140671Y-106672517D01*
X143955709Y-106498523D01*
X143911983Y-106468189D01*
X143750893Y-106356437D01*
X143750890Y-106356435D01*
X143747061Y-106353779D01*
X143742884Y-106351719D01*
X143742877Y-106351715D01*
X143523496Y-106243528D01*
X143523492Y-106243527D01*
X143519310Y-106241464D01*
X143277460Y-106164047D01*
X143272855Y-106163297D01*
X143031435Y-106123980D01*
X143031434Y-106123980D01*
X143026823Y-106123229D01*
X142899864Y-106121567D01*
X142777583Y-106119966D01*
X142777580Y-106119966D01*
X142772906Y-106119905D01*
X142521287Y-106154149D01*
X142277493Y-106225208D01*
X142046880Y-106331522D01*
X142042971Y-106334085D01*
X141838428Y-106468189D01*
X141838423Y-106468193D01*
X141834515Y-106470755D01*
X141645062Y-106639848D01*
X141482683Y-106835087D01*
X141350947Y-107052182D01*
X141252746Y-107286365D01*
X141190238Y-107532490D01*
X141164796Y-107785151D01*
X121264958Y-107785151D01*
X121249472Y-107576759D01*
X121193428Y-107329082D01*
X121101391Y-107092409D01*
X121080866Y-107056498D01*
X120977702Y-106875997D01*
X120977700Y-106875995D01*
X120975383Y-106871940D01*
X120818171Y-106672517D01*
X120633209Y-106498523D01*
X120589483Y-106468189D01*
X120428393Y-106356437D01*
X120428390Y-106356435D01*
X120424561Y-106353779D01*
X120420384Y-106351719D01*
X120420377Y-106351715D01*
X120200996Y-106243528D01*
X120200992Y-106243527D01*
X120196810Y-106241464D01*
X119954960Y-106164047D01*
X119950355Y-106163297D01*
X119708935Y-106123980D01*
X119708934Y-106123980D01*
X119704323Y-106123229D01*
X119577364Y-106121567D01*
X119455083Y-106119966D01*
X119455080Y-106119966D01*
X119450406Y-106119905D01*
X119198787Y-106154149D01*
X118954993Y-106225208D01*
X118724380Y-106331522D01*
X118720471Y-106334085D01*
X118515928Y-106468189D01*
X118515923Y-106468193D01*
X118512015Y-106470755D01*
X118322562Y-106639848D01*
X118160183Y-106835087D01*
X118028447Y-107052182D01*
X117930246Y-107286365D01*
X117867738Y-107532490D01*
X117842296Y-107785151D01*
X116528500Y-107785151D01*
X116528500Y-101804500D01*
X116548502Y-101736379D01*
X116602158Y-101689886D01*
X116654500Y-101678500D01*
X117982815Y-101678500D01*
X118050936Y-101698502D01*
X118097429Y-101752158D01*
X118107533Y-101822432D01*
X118090534Y-101869865D01*
X118028447Y-101972182D01*
X118026638Y-101976496D01*
X118026637Y-101976498D01*
X117961013Y-102132995D01*
X117930246Y-102206365D01*
X117929095Y-102210897D01*
X117929094Y-102210900D01*
X117922789Y-102235727D01*
X117867738Y-102452490D01*
X117842296Y-102705151D01*
X117842520Y-102709817D01*
X117842520Y-102709822D01*
X117844875Y-102758847D01*
X117854480Y-102958798D01*
X117904021Y-103207857D01*
X117905600Y-103212255D01*
X117905602Y-103212262D01*
X117950022Y-103335980D01*
X117989831Y-103446858D01*
X118110025Y-103670551D01*
X118112820Y-103674294D01*
X118112822Y-103674297D01*
X118259171Y-103870282D01*
X118259176Y-103870288D01*
X118261963Y-103874020D01*
X118265272Y-103877300D01*
X118265277Y-103877306D01*
X118363859Y-103975031D01*
X118442307Y-104052797D01*
X118446069Y-104055555D01*
X118446072Y-104055558D01*
X118551764Y-104133054D01*
X118647094Y-104202953D01*
X118651229Y-104205129D01*
X118651233Y-104205131D01*
X118769289Y-104267243D01*
X118871827Y-104321191D01*
X119111568Y-104404912D01*
X119361050Y-104452278D01*
X119481532Y-104457011D01*
X119610125Y-104462064D01*
X119610130Y-104462064D01*
X119614793Y-104462247D01*
X119713774Y-104451407D01*
X119862569Y-104435112D01*
X119862575Y-104435111D01*
X119867222Y-104434602D01*
X119976680Y-104405784D01*
X120108273Y-104371138D01*
X120112793Y-104369948D01*
X120231353Y-104319011D01*
X120341807Y-104271557D01*
X120341810Y-104271555D01*
X120346110Y-104269708D01*
X120350090Y-104267245D01*
X120350094Y-104267243D01*
X120558064Y-104138547D01*
X120558066Y-104138545D01*
X120562047Y-104136082D01*
X120660428Y-104052797D01*
X120752289Y-103975031D01*
X120752291Y-103975029D01*
X120755862Y-103972006D01*
X120923295Y-103781084D01*
X121060669Y-103567512D01*
X121164967Y-103335980D01*
X121233896Y-103091575D01*
X121265943Y-102839667D01*
X121266644Y-102812920D01*
X121268059Y-102758847D01*
X121268291Y-102750000D01*
X121262801Y-102676123D01*
X121249818Y-102501411D01*
X121249817Y-102501407D01*
X121249472Y-102496759D01*
X121246541Y-102483802D01*
X121194459Y-102253639D01*
X121193428Y-102249082D01*
X121148284Y-102132995D01*
X121103084Y-102016762D01*
X121103083Y-102016760D01*
X121101391Y-102012409D01*
X121078400Y-101972182D01*
X121049094Y-101920908D01*
X121018296Y-101867022D01*
X121001859Y-101797956D01*
X121025372Y-101730966D01*
X121081370Y-101687322D01*
X121127689Y-101678500D01*
X141305315Y-101678500D01*
X141373436Y-101698502D01*
X141419929Y-101752158D01*
X141430033Y-101822432D01*
X141413034Y-101869865D01*
X141350947Y-101972182D01*
X141349138Y-101976496D01*
X141349137Y-101976498D01*
X141283513Y-102132995D01*
X141252746Y-102206365D01*
X141251595Y-102210897D01*
X141251594Y-102210900D01*
X141245289Y-102235727D01*
X141190238Y-102452490D01*
X141164796Y-102705151D01*
X141165020Y-102709817D01*
X141165020Y-102709822D01*
X141167375Y-102758847D01*
X141176980Y-102958798D01*
X141226521Y-103207857D01*
X141228100Y-103212255D01*
X141228102Y-103212262D01*
X141272522Y-103335980D01*
X141312331Y-103446858D01*
X141432525Y-103670551D01*
X141435320Y-103674294D01*
X141435322Y-103674297D01*
X141581671Y-103870282D01*
X141581676Y-103870288D01*
X141584463Y-103874020D01*
X141587772Y-103877300D01*
X141587777Y-103877306D01*
X141686359Y-103975031D01*
X141764807Y-104052797D01*
X141768569Y-104055555D01*
X141768572Y-104055558D01*
X141874264Y-104133054D01*
X141969594Y-104202953D01*
X141973729Y-104205129D01*
X141973733Y-104205131D01*
X142091789Y-104267243D01*
X142194327Y-104321191D01*
X142434068Y-104404912D01*
X142683550Y-104452278D01*
X142804032Y-104457011D01*
X142932625Y-104462064D01*
X142932630Y-104462064D01*
X142937293Y-104462247D01*
X143036274Y-104451407D01*
X143185069Y-104435112D01*
X143185075Y-104435111D01*
X143189722Y-104434602D01*
X143299180Y-104405784D01*
X143430773Y-104371138D01*
X143435293Y-104369948D01*
X143553853Y-104319011D01*
X143664307Y-104271557D01*
X143664310Y-104271555D01*
X143668610Y-104269708D01*
X143672590Y-104267245D01*
X143672594Y-104267243D01*
X143880564Y-104138547D01*
X143880566Y-104138545D01*
X143884547Y-104136082D01*
X143982928Y-104052797D01*
X144074789Y-103975031D01*
X144074791Y-103975029D01*
X144078362Y-103972006D01*
X144245795Y-103781084D01*
X144383169Y-103567512D01*
X144487467Y-103335980D01*
X144556396Y-103091575D01*
X144588443Y-102839667D01*
X144589144Y-102812920D01*
X144590559Y-102758847D01*
X144590791Y-102750000D01*
X144585301Y-102676123D01*
X144572318Y-102501411D01*
X144572317Y-102501407D01*
X144571972Y-102496759D01*
X144569041Y-102483802D01*
X144516959Y-102253639D01*
X144515928Y-102249082D01*
X144470784Y-102132995D01*
X144425584Y-102016762D01*
X144425583Y-102016760D01*
X144423891Y-102012409D01*
X144400900Y-101972182D01*
X144371594Y-101920908D01*
X144340796Y-101867022D01*
X144324359Y-101797956D01*
X144347872Y-101730966D01*
X144403870Y-101687322D01*
X144450189Y-101678500D01*
X164627815Y-101678500D01*
X164695936Y-101698502D01*
X164742429Y-101752158D01*
X164752533Y-101822432D01*
X164735534Y-101869865D01*
X164673447Y-101972182D01*
X164671638Y-101976496D01*
X164671637Y-101976498D01*
X164606013Y-102132995D01*
X164575246Y-102206365D01*
X164574095Y-102210897D01*
X164574094Y-102210900D01*
X164567789Y-102235727D01*
X164512738Y-102452490D01*
X164487296Y-102705151D01*
X164487520Y-102709817D01*
X164487520Y-102709822D01*
X164489875Y-102758847D01*
X164499480Y-102958798D01*
X164549021Y-103207857D01*
X164550600Y-103212255D01*
X164550602Y-103212262D01*
X164595022Y-103335980D01*
X164634831Y-103446858D01*
X164755025Y-103670551D01*
X164757820Y-103674294D01*
X164757822Y-103674297D01*
X164904171Y-103870282D01*
X164904176Y-103870288D01*
X164906963Y-103874020D01*
X164910272Y-103877300D01*
X164910277Y-103877306D01*
X165008859Y-103975031D01*
X165087307Y-104052797D01*
X165091069Y-104055555D01*
X165091072Y-104055558D01*
X165196764Y-104133054D01*
X165292094Y-104202953D01*
X165296229Y-104205129D01*
X165296233Y-104205131D01*
X165414289Y-104267243D01*
X165516827Y-104321191D01*
X165756568Y-104404912D01*
X166006050Y-104452278D01*
X166126532Y-104457011D01*
X166255125Y-104462064D01*
X166255130Y-104462064D01*
X166259793Y-104462247D01*
X166358774Y-104451407D01*
X166507569Y-104435112D01*
X166507575Y-104435111D01*
X166512222Y-104434602D01*
X166621680Y-104405784D01*
X166753273Y-104371138D01*
X166757793Y-104369948D01*
X166876353Y-104319011D01*
X166986807Y-104271557D01*
X166986810Y-104271555D01*
X166991110Y-104269708D01*
X166995090Y-104267245D01*
X166995094Y-104267243D01*
X167203064Y-104138547D01*
X167203066Y-104138545D01*
X167207047Y-104136082D01*
X167305428Y-104052797D01*
X167397289Y-103975031D01*
X167397291Y-103975029D01*
X167400862Y-103972006D01*
X167568295Y-103781084D01*
X167705669Y-103567512D01*
X167809967Y-103335980D01*
X167878896Y-103091575D01*
X167910943Y-102839667D01*
X167911644Y-102812920D01*
X167913059Y-102758847D01*
X167913291Y-102750000D01*
X167907801Y-102676123D01*
X167894818Y-102501411D01*
X167894817Y-102501407D01*
X167894472Y-102496759D01*
X167891541Y-102483802D01*
X167839459Y-102253639D01*
X167838428Y-102249082D01*
X167793284Y-102132995D01*
X167748084Y-102016762D01*
X167748083Y-102016760D01*
X167746391Y-102012409D01*
X167725866Y-101976498D01*
X167622702Y-101795997D01*
X167622700Y-101795995D01*
X167620383Y-101791940D01*
X167499664Y-101638808D01*
X167473199Y-101572928D01*
X167486552Y-101503199D01*
X167535484Y-101451758D01*
X167555618Y-101442365D01*
X167755290Y-101369888D01*
X168115071Y-101197123D01*
X168455915Y-100989479D01*
X168774451Y-100749009D01*
X168776733Y-100746899D01*
X168776742Y-100746892D01*
X169028937Y-100513764D01*
X169067528Y-100478091D01*
X169167662Y-100365110D01*
X169215023Y-100311672D01*
X169332249Y-100179405D01*
X169565995Y-99855903D01*
X169766455Y-99510785D01*
X169824754Y-99382565D01*
X169930349Y-99150321D01*
X169931648Y-99147464D01*
X170059938Y-98769532D01*
X170060642Y-98766494D01*
X170060645Y-98766484D01*
X170149353Y-98383770D01*
X170149353Y-98383768D01*
X170150058Y-98380728D01*
X170201117Y-97984895D01*
X170212609Y-97585948D01*
X170210895Y-97561732D01*
X170184643Y-97190968D01*
X170184421Y-97187832D01*
X170116831Y-96794485D01*
X170090450Y-96699032D01*
X170027824Y-96472445D01*
X170010509Y-96409795D01*
X170009386Y-96406893D01*
X170009383Y-96406883D01*
X169867635Y-96040488D01*
X169866505Y-96037567D01*
X169821668Y-95948996D01*
X169775099Y-95857006D01*
X169686243Y-95681482D01*
X169684564Y-95678852D01*
X169684558Y-95678841D01*
X169473187Y-95347695D01*
X169471506Y-95345061D01*
X169469577Y-95342614D01*
X169469572Y-95342607D01*
X169226362Y-95034098D01*
X169224418Y-95031632D01*
X169222243Y-95029376D01*
X169222238Y-95029370D01*
X169097717Y-94900200D01*
X168947422Y-94744292D01*
X168944320Y-94741657D01*
X168645652Y-94487919D01*
X168645643Y-94487912D01*
X168643257Y-94485885D01*
X168578504Y-94441131D01*
X168317503Y-94260742D01*
X168317494Y-94260737D01*
X168314931Y-94258965D01*
X168312196Y-94257452D01*
X168312191Y-94257449D01*
X168145982Y-94165508D01*
X167965691Y-94065776D01*
X167962822Y-94064543D01*
X167962811Y-94064538D01*
X167601858Y-93909461D01*
X167601855Y-93909460D01*
X167598990Y-93908229D01*
X167596013Y-93907288D01*
X167596009Y-93907286D01*
X167465293Y-93865946D01*
X167218455Y-93787882D01*
X166827848Y-93705924D01*
X166824730Y-93705588D01*
X166433484Y-93663430D01*
X166433481Y-93663430D01*
X166431033Y-93663166D01*
X166428570Y-93663095D01*
X166428569Y-93663095D01*
X166425319Y-93663001D01*
X166373197Y-93661500D01*
X116654500Y-93661500D01*
X116586379Y-93641498D01*
X116539886Y-93587842D01*
X116528500Y-93535500D01*
X116528500Y-85575151D01*
X117792296Y-85575151D01*
X117792520Y-85579817D01*
X117792520Y-85579822D01*
X117794765Y-85626551D01*
X117804480Y-85828798D01*
X117854021Y-86077857D01*
X117855600Y-86082255D01*
X117855602Y-86082262D01*
X117900022Y-86205980D01*
X117939831Y-86316858D01*
X118060025Y-86540551D01*
X118062820Y-86544294D01*
X118062822Y-86544297D01*
X118209171Y-86740282D01*
X118209176Y-86740288D01*
X118211963Y-86744020D01*
X118215272Y-86747300D01*
X118215277Y-86747306D01*
X118313859Y-86845031D01*
X118392307Y-86922797D01*
X118396069Y-86925555D01*
X118396072Y-86925558D01*
X118501764Y-87003054D01*
X118597094Y-87072953D01*
X118601229Y-87075129D01*
X118601233Y-87075131D01*
X118719289Y-87137243D01*
X118821827Y-87191191D01*
X119061568Y-87274912D01*
X119311050Y-87322278D01*
X119431532Y-87327011D01*
X119560125Y-87332064D01*
X119560130Y-87332064D01*
X119564793Y-87332247D01*
X119663774Y-87321407D01*
X119812569Y-87305112D01*
X119812575Y-87305111D01*
X119817222Y-87304602D01*
X119926680Y-87275784D01*
X120058273Y-87241138D01*
X120062793Y-87239948D01*
X120181353Y-87189011D01*
X120291807Y-87141557D01*
X120291810Y-87141555D01*
X120296110Y-87139708D01*
X120300090Y-87137245D01*
X120300094Y-87137243D01*
X120508064Y-87008547D01*
X120508066Y-87008545D01*
X120512047Y-87006082D01*
X120610428Y-86922797D01*
X120702289Y-86845031D01*
X120702291Y-86845029D01*
X120705862Y-86842006D01*
X120873295Y-86651084D01*
X121010669Y-86437512D01*
X121114967Y-86205980D01*
X121183896Y-85961575D01*
X121211543Y-85744252D01*
X121215545Y-85712798D01*
X121215545Y-85712792D01*
X121215943Y-85709667D01*
X121218291Y-85620000D01*
X121214958Y-85575151D01*
X141114796Y-85575151D01*
X141115020Y-85579817D01*
X141115020Y-85579822D01*
X141117265Y-85626551D01*
X141126980Y-85828798D01*
X141176521Y-86077857D01*
X141178100Y-86082255D01*
X141178102Y-86082262D01*
X141222522Y-86205980D01*
X141262331Y-86316858D01*
X141382525Y-86540551D01*
X141385320Y-86544294D01*
X141385322Y-86544297D01*
X141531671Y-86740282D01*
X141531676Y-86740288D01*
X141534463Y-86744020D01*
X141537772Y-86747300D01*
X141537777Y-86747306D01*
X141636359Y-86845031D01*
X141714807Y-86922797D01*
X141718569Y-86925555D01*
X141718572Y-86925558D01*
X141824264Y-87003054D01*
X141919594Y-87072953D01*
X141923729Y-87075129D01*
X141923733Y-87075131D01*
X142041789Y-87137243D01*
X142144327Y-87191191D01*
X142384068Y-87274912D01*
X142633550Y-87322278D01*
X142754032Y-87327011D01*
X142882625Y-87332064D01*
X142882630Y-87332064D01*
X142887293Y-87332247D01*
X142986274Y-87321407D01*
X143135069Y-87305112D01*
X143135075Y-87305111D01*
X143139722Y-87304602D01*
X143249180Y-87275784D01*
X143380773Y-87241138D01*
X143385293Y-87239948D01*
X143503853Y-87189011D01*
X143614307Y-87141557D01*
X143614310Y-87141555D01*
X143618610Y-87139708D01*
X143622590Y-87137245D01*
X143622594Y-87137243D01*
X143830564Y-87008547D01*
X143830566Y-87008545D01*
X143834547Y-87006082D01*
X143932928Y-86922797D01*
X144024789Y-86845031D01*
X144024791Y-86845029D01*
X144028362Y-86842006D01*
X144195795Y-86651084D01*
X144333169Y-86437512D01*
X144437467Y-86205980D01*
X144506396Y-85961575D01*
X144534043Y-85744252D01*
X144538045Y-85712798D01*
X144538045Y-85712792D01*
X144538443Y-85709667D01*
X144540791Y-85620000D01*
X144537458Y-85575151D01*
X164437296Y-85575151D01*
X164437520Y-85579817D01*
X164437520Y-85579822D01*
X164439765Y-85626551D01*
X164449480Y-85828798D01*
X164499021Y-86077857D01*
X164500600Y-86082255D01*
X164500602Y-86082262D01*
X164545022Y-86205980D01*
X164584831Y-86316858D01*
X164705025Y-86540551D01*
X164707820Y-86544294D01*
X164707822Y-86544297D01*
X164854171Y-86740282D01*
X164854176Y-86740288D01*
X164856963Y-86744020D01*
X164860272Y-86747300D01*
X164860277Y-86747306D01*
X164958859Y-86845031D01*
X165037307Y-86922797D01*
X165041069Y-86925555D01*
X165041072Y-86925558D01*
X165146764Y-87003054D01*
X165242094Y-87072953D01*
X165246229Y-87075129D01*
X165246233Y-87075131D01*
X165364289Y-87137243D01*
X165466827Y-87191191D01*
X165706568Y-87274912D01*
X165956050Y-87322278D01*
X166076532Y-87327011D01*
X166205125Y-87332064D01*
X166205130Y-87332064D01*
X166209793Y-87332247D01*
X166308774Y-87321407D01*
X166457569Y-87305112D01*
X166457575Y-87305111D01*
X166462222Y-87304602D01*
X166571680Y-87275784D01*
X166703273Y-87241138D01*
X166707793Y-87239948D01*
X166826353Y-87189011D01*
X166936807Y-87141557D01*
X166936810Y-87141555D01*
X166941110Y-87139708D01*
X166945090Y-87137245D01*
X166945094Y-87137243D01*
X167153064Y-87008547D01*
X167153066Y-87008545D01*
X167157047Y-87006082D01*
X167255428Y-86922797D01*
X167347289Y-86845031D01*
X167347291Y-86845029D01*
X167350862Y-86842006D01*
X167518295Y-86651084D01*
X167655669Y-86437512D01*
X167759967Y-86205980D01*
X167828896Y-85961575D01*
X167856543Y-85744252D01*
X167860545Y-85712798D01*
X167860545Y-85712792D01*
X167860943Y-85709667D01*
X167863291Y-85620000D01*
X167844472Y-85366759D01*
X167826706Y-85288242D01*
X167789459Y-85123639D01*
X167788428Y-85119082D01*
X167771816Y-85076365D01*
X167698084Y-84886762D01*
X167698083Y-84886760D01*
X167696391Y-84882409D01*
X167675866Y-84846498D01*
X167572702Y-84665997D01*
X167572700Y-84665995D01*
X167570383Y-84661940D01*
X167413171Y-84462517D01*
X167228209Y-84288523D01*
X167076417Y-84183221D01*
X167023393Y-84146437D01*
X167023390Y-84146435D01*
X167019561Y-84143779D01*
X167015384Y-84141719D01*
X167015377Y-84141715D01*
X166795996Y-84033528D01*
X166795992Y-84033527D01*
X166791810Y-84031464D01*
X166549960Y-83954047D01*
X166545355Y-83953297D01*
X166303935Y-83913980D01*
X166303934Y-83913980D01*
X166299323Y-83913229D01*
X166172365Y-83911567D01*
X166050083Y-83909966D01*
X166050080Y-83909966D01*
X166045406Y-83909905D01*
X165793787Y-83944149D01*
X165549993Y-84015208D01*
X165319380Y-84121522D01*
X165315471Y-84124085D01*
X165110928Y-84258189D01*
X165110923Y-84258193D01*
X165107015Y-84260755D01*
X165016530Y-84341516D01*
X164962623Y-84389630D01*
X164917562Y-84429848D01*
X164755183Y-84625087D01*
X164623447Y-84842182D01*
X164621638Y-84846496D01*
X164621637Y-84846498D01*
X164527141Y-85071847D01*
X164525246Y-85076365D01*
X164524095Y-85080897D01*
X164524094Y-85080900D01*
X164508894Y-85140749D01*
X164462738Y-85322490D01*
X164437296Y-85575151D01*
X144537458Y-85575151D01*
X144521972Y-85366759D01*
X144504206Y-85288242D01*
X144466959Y-85123639D01*
X144465928Y-85119082D01*
X144449316Y-85076365D01*
X144375584Y-84886762D01*
X144375583Y-84886760D01*
X144373891Y-84882409D01*
X144353366Y-84846498D01*
X144250202Y-84665997D01*
X144250200Y-84665995D01*
X144247883Y-84661940D01*
X144090671Y-84462517D01*
X143905709Y-84288523D01*
X143753917Y-84183221D01*
X143700893Y-84146437D01*
X143700890Y-84146435D01*
X143697061Y-84143779D01*
X143692884Y-84141719D01*
X143692877Y-84141715D01*
X143473496Y-84033528D01*
X143473492Y-84033527D01*
X143469310Y-84031464D01*
X143227460Y-83954047D01*
X143222855Y-83953297D01*
X142981435Y-83913980D01*
X142981434Y-83913980D01*
X142976823Y-83913229D01*
X142849865Y-83911567D01*
X142727583Y-83909966D01*
X142727580Y-83909966D01*
X142722906Y-83909905D01*
X142471287Y-83944149D01*
X142227493Y-84015208D01*
X141996880Y-84121522D01*
X141992971Y-84124085D01*
X141788428Y-84258189D01*
X141788423Y-84258193D01*
X141784515Y-84260755D01*
X141694030Y-84341516D01*
X141640123Y-84389630D01*
X141595062Y-84429848D01*
X141432683Y-84625087D01*
X141300947Y-84842182D01*
X141299138Y-84846496D01*
X141299137Y-84846498D01*
X141204641Y-85071847D01*
X141202746Y-85076365D01*
X141201595Y-85080897D01*
X141201594Y-85080900D01*
X141186394Y-85140749D01*
X141140238Y-85322490D01*
X141114796Y-85575151D01*
X121214958Y-85575151D01*
X121199472Y-85366759D01*
X121181706Y-85288242D01*
X121144459Y-85123639D01*
X121143428Y-85119082D01*
X121126816Y-85076365D01*
X121053084Y-84886762D01*
X121053083Y-84886760D01*
X121051391Y-84882409D01*
X121030866Y-84846498D01*
X120927702Y-84665997D01*
X120927700Y-84665995D01*
X120925383Y-84661940D01*
X120768171Y-84462517D01*
X120583209Y-84288523D01*
X120431417Y-84183221D01*
X120378393Y-84146437D01*
X120378390Y-84146435D01*
X120374561Y-84143779D01*
X120370384Y-84141719D01*
X120370377Y-84141715D01*
X120150996Y-84033528D01*
X120150992Y-84033527D01*
X120146810Y-84031464D01*
X119904960Y-83954047D01*
X119900355Y-83953297D01*
X119658935Y-83913980D01*
X119658934Y-83913980D01*
X119654323Y-83913229D01*
X119527365Y-83911567D01*
X119405083Y-83909966D01*
X119405080Y-83909966D01*
X119400406Y-83909905D01*
X119148787Y-83944149D01*
X118904993Y-84015208D01*
X118674380Y-84121522D01*
X118670471Y-84124085D01*
X118465928Y-84258189D01*
X118465923Y-84258193D01*
X118462015Y-84260755D01*
X118371530Y-84341516D01*
X118317623Y-84389630D01*
X118272562Y-84429848D01*
X118110183Y-84625087D01*
X117978447Y-84842182D01*
X117976638Y-84846496D01*
X117976637Y-84846498D01*
X117882141Y-85071847D01*
X117880246Y-85076365D01*
X117879095Y-85080897D01*
X117879094Y-85080900D01*
X117863894Y-85140749D01*
X117817738Y-85322490D01*
X117792296Y-85575151D01*
X116528500Y-85575151D01*
X116528500Y-80292565D01*
X116548502Y-80224444D01*
X116565405Y-80203470D01*
X117263470Y-79505405D01*
X117325782Y-79471379D01*
X117352565Y-79468500D01*
X117932815Y-79468500D01*
X118000936Y-79488502D01*
X118047429Y-79542158D01*
X118057533Y-79612432D01*
X118040534Y-79659865D01*
X117978447Y-79762182D01*
X117880246Y-79996365D01*
X117817738Y-80242490D01*
X117792296Y-80495151D01*
X117804480Y-80748798D01*
X117854021Y-80997857D01*
X117855600Y-81002255D01*
X117855602Y-81002262D01*
X117900022Y-81125980D01*
X117939831Y-81236858D01*
X118060025Y-81460551D01*
X118062820Y-81464294D01*
X118062822Y-81464297D01*
X118209171Y-81660282D01*
X118209176Y-81660288D01*
X118211963Y-81664020D01*
X118215272Y-81667300D01*
X118215277Y-81667306D01*
X118313859Y-81765031D01*
X118392307Y-81842797D01*
X118396069Y-81845555D01*
X118396072Y-81845558D01*
X118501764Y-81923054D01*
X118597094Y-81992953D01*
X118601229Y-81995129D01*
X118601233Y-81995131D01*
X118719289Y-82057243D01*
X118821827Y-82111191D01*
X118910489Y-82142153D01*
X119000225Y-82173490D01*
X119061568Y-82194912D01*
X119311050Y-82242278D01*
X119431532Y-82247011D01*
X119560125Y-82252064D01*
X119560130Y-82252064D01*
X119564793Y-82252247D01*
X119663774Y-82241407D01*
X119812569Y-82225112D01*
X119812575Y-82225111D01*
X119817222Y-82224602D01*
X119926680Y-82195784D01*
X120058273Y-82161138D01*
X120062793Y-82159948D01*
X120181353Y-82109011D01*
X120291807Y-82061557D01*
X120291810Y-82061555D01*
X120296110Y-82059708D01*
X120300090Y-82057245D01*
X120300094Y-82057243D01*
X120508064Y-81928547D01*
X120508066Y-81928545D01*
X120512047Y-81926082D01*
X120610428Y-81842797D01*
X120702289Y-81765031D01*
X120702291Y-81765029D01*
X120705862Y-81762006D01*
X120873295Y-81571084D01*
X121010669Y-81357512D01*
X121114967Y-81125980D01*
X121183896Y-80881575D01*
X121215943Y-80629667D01*
X121218291Y-80540000D01*
X121214612Y-80490497D01*
X121199818Y-80291411D01*
X121199817Y-80291407D01*
X121199472Y-80286759D01*
X121188977Y-80240375D01*
X121144459Y-80043639D01*
X121143428Y-80039082D01*
X121051391Y-79802409D01*
X121028400Y-79762182D01*
X121019746Y-79747042D01*
X120968296Y-79657022D01*
X120951859Y-79587956D01*
X120975372Y-79520966D01*
X121031370Y-79477322D01*
X121077689Y-79468500D01*
X141255315Y-79468500D01*
X141323436Y-79488502D01*
X141369929Y-79542158D01*
X141380033Y-79612432D01*
X141363034Y-79659865D01*
X141300947Y-79762182D01*
X141202746Y-79996365D01*
X141140238Y-80242490D01*
X141114796Y-80495151D01*
X141126980Y-80748798D01*
X141176521Y-80997857D01*
X141178100Y-81002255D01*
X141178102Y-81002262D01*
X141222522Y-81125980D01*
X141262331Y-81236858D01*
X141382525Y-81460551D01*
X141385320Y-81464294D01*
X141385322Y-81464297D01*
X141531671Y-81660282D01*
X141531676Y-81660288D01*
X141534463Y-81664020D01*
X141537772Y-81667300D01*
X141537777Y-81667306D01*
X141636359Y-81765031D01*
X141714807Y-81842797D01*
X141718569Y-81845555D01*
X141718572Y-81845558D01*
X141824264Y-81923054D01*
X141919594Y-81992953D01*
X141923729Y-81995129D01*
X141923733Y-81995131D01*
X142041789Y-82057243D01*
X142144327Y-82111191D01*
X142232989Y-82142153D01*
X142322725Y-82173490D01*
X142384068Y-82194912D01*
X142633550Y-82242278D01*
X142754032Y-82247011D01*
X142882625Y-82252064D01*
X142882630Y-82252064D01*
X142887293Y-82252247D01*
X142986274Y-82241407D01*
X143135069Y-82225112D01*
X143135075Y-82225111D01*
X143139722Y-82224602D01*
X143249180Y-82195784D01*
X143380773Y-82161138D01*
X143385293Y-82159948D01*
X143503853Y-82109011D01*
X143614307Y-82061557D01*
X143614310Y-82061555D01*
X143618610Y-82059708D01*
X143622590Y-82057245D01*
X143622594Y-82057243D01*
X143830564Y-81928547D01*
X143830566Y-81928545D01*
X143834547Y-81926082D01*
X143932928Y-81842797D01*
X144024789Y-81765031D01*
X144024791Y-81765029D01*
X144028362Y-81762006D01*
X144195795Y-81571084D01*
X144333169Y-81357512D01*
X144437467Y-81125980D01*
X144506396Y-80881575D01*
X144538443Y-80629667D01*
X144540791Y-80540000D01*
X144537112Y-80490497D01*
X144522318Y-80291411D01*
X144522317Y-80291407D01*
X144521972Y-80286759D01*
X144511477Y-80240375D01*
X144466959Y-80043639D01*
X144465928Y-80039082D01*
X144373891Y-79802409D01*
X144350900Y-79762182D01*
X144342246Y-79747042D01*
X144290796Y-79657022D01*
X144274359Y-79587956D01*
X144297872Y-79520966D01*
X144353870Y-79477322D01*
X144400189Y-79468500D01*
X164577815Y-79468500D01*
X164645936Y-79488502D01*
X164692429Y-79542158D01*
X164702533Y-79612432D01*
X164685534Y-79659865D01*
X164623447Y-79762182D01*
X164525246Y-79996365D01*
X164462738Y-80242490D01*
X164437296Y-80495151D01*
X164449480Y-80748798D01*
X164499021Y-80997857D01*
X164500600Y-81002255D01*
X164500602Y-81002262D01*
X164545022Y-81125980D01*
X164584831Y-81236858D01*
X164705025Y-81460551D01*
X164707820Y-81464294D01*
X164707822Y-81464297D01*
X164854171Y-81660282D01*
X164854176Y-81660288D01*
X164856963Y-81664020D01*
X164860272Y-81667300D01*
X164860277Y-81667306D01*
X164958859Y-81765031D01*
X165037307Y-81842797D01*
X165041069Y-81845555D01*
X165041072Y-81845558D01*
X165146764Y-81923054D01*
X165242094Y-81992953D01*
X165246229Y-81995129D01*
X165246233Y-81995131D01*
X165364289Y-82057243D01*
X165466827Y-82111191D01*
X165555489Y-82142153D01*
X165645225Y-82173490D01*
X165706568Y-82194912D01*
X165956050Y-82242278D01*
X166076532Y-82247011D01*
X166205125Y-82252064D01*
X166205130Y-82252064D01*
X166209793Y-82252247D01*
X166308774Y-82241407D01*
X166457569Y-82225112D01*
X166457575Y-82225111D01*
X166462222Y-82224602D01*
X166571680Y-82195784D01*
X166703273Y-82161138D01*
X166707793Y-82159948D01*
X166826353Y-82109011D01*
X166936807Y-82061557D01*
X166936810Y-82061555D01*
X166941110Y-82059708D01*
X166945090Y-82057245D01*
X166945094Y-82057243D01*
X167153064Y-81928547D01*
X167153066Y-81928545D01*
X167157047Y-81926082D01*
X167255428Y-81842797D01*
X167347289Y-81765031D01*
X167347291Y-81765029D01*
X167350862Y-81762006D01*
X167518295Y-81571084D01*
X167655669Y-81357512D01*
X167759967Y-81125980D01*
X167828896Y-80881575D01*
X167860943Y-80629667D01*
X167863291Y-80540000D01*
X167859612Y-80490497D01*
X167844818Y-80291411D01*
X167844817Y-80291407D01*
X167844472Y-80286759D01*
X167833977Y-80240375D01*
X167789459Y-80043639D01*
X167788428Y-80039082D01*
X167696391Y-79802409D01*
X167675866Y-79766498D01*
X167572702Y-79585997D01*
X167572700Y-79585995D01*
X167570383Y-79581940D01*
X167449664Y-79428808D01*
X167423199Y-79362928D01*
X167436552Y-79293199D01*
X167485484Y-79241758D01*
X167505618Y-79232365D01*
X167705290Y-79159888D01*
X168065071Y-78987123D01*
X168405915Y-78779479D01*
X168724451Y-78539009D01*
X168726733Y-78536899D01*
X168726742Y-78536892D01*
X169015231Y-78270214D01*
X169017528Y-78268091D01*
X169282249Y-77969405D01*
X169515995Y-77645903D01*
X169716455Y-77300785D01*
X169881648Y-76937464D01*
X169923454Y-76814309D01*
X170008931Y-76562499D01*
X170008932Y-76562496D01*
X170009938Y-76559532D01*
X170010642Y-76556494D01*
X170010645Y-76556484D01*
X170099353Y-76173770D01*
X170099353Y-76173768D01*
X170100058Y-76170728D01*
X170151117Y-75774895D01*
X170162609Y-75375948D01*
X170134421Y-74977832D01*
X170066831Y-74584485D01*
X169960509Y-74199795D01*
X169959386Y-74196893D01*
X169959383Y-74196883D01*
X169817635Y-73830488D01*
X169816505Y-73827567D01*
X169777508Y-73750532D01*
X169637658Y-73474278D01*
X169636243Y-73471482D01*
X169634564Y-73468852D01*
X169634558Y-73468841D01*
X169423187Y-73137695D01*
X169421506Y-73135061D01*
X169419577Y-73132614D01*
X169419572Y-73132607D01*
X169176362Y-72824098D01*
X169174418Y-72821632D01*
X169172243Y-72819376D01*
X169172238Y-72819370D01*
X169047717Y-72690200D01*
X168897422Y-72534292D01*
X168815947Y-72465074D01*
X168595652Y-72277919D01*
X168595643Y-72277912D01*
X168593257Y-72275885D01*
X168499822Y-72211308D01*
X168267503Y-72050742D01*
X168267494Y-72050737D01*
X168264931Y-72048965D01*
X168262196Y-72047452D01*
X168262191Y-72047449D01*
X168055071Y-71932877D01*
X167915691Y-71855776D01*
X167912822Y-71854543D01*
X167912811Y-71854538D01*
X167551858Y-71699461D01*
X167551855Y-71699460D01*
X167548990Y-71698229D01*
X167546013Y-71697288D01*
X167546009Y-71697286D01*
X167377503Y-71643995D01*
X167168455Y-71577882D01*
X166777848Y-71495924D01*
X166774730Y-71495588D01*
X166383484Y-71453430D01*
X166383481Y-71453430D01*
X166381033Y-71453166D01*
X166378570Y-71453095D01*
X166378569Y-71453095D01*
X166375319Y-71453001D01*
X166323197Y-71451500D01*
X115679210Y-71451500D01*
X115676901Y-71451479D01*
X115513933Y-71448492D01*
X115510798Y-71448747D01*
X115379793Y-71459402D01*
X115375844Y-71459661D01*
X115324441Y-71462220D01*
X115241381Y-71466355D01*
X115238302Y-71466818D01*
X115238291Y-71466819D01*
X115183230Y-71475097D01*
X115174713Y-71476082D01*
X115119269Y-71480592D01*
X115116134Y-71480847D01*
X115113050Y-71481410D01*
X115113044Y-71481411D01*
X114983740Y-71505026D01*
X114979836Y-71505676D01*
X114849808Y-71525225D01*
X114849802Y-71525226D01*
X114846704Y-71525692D01*
X114789711Y-71540167D01*
X114781347Y-71541990D01*
X114755121Y-71546780D01*
X114726586Y-71551991D01*
X114726580Y-71551992D01*
X114723516Y-71552552D01*
X114720524Y-71553413D01*
X114720506Y-71553417D01*
X114594159Y-71589767D01*
X114590371Y-71590793D01*
X114517866Y-71609207D01*
X114462914Y-71623162D01*
X114462906Y-71623165D01*
X114459872Y-71623935D01*
X114456925Y-71625005D01*
X114456924Y-71625005D01*
X114404608Y-71643995D01*
X114396453Y-71646645D01*
X114339961Y-71662897D01*
X114285885Y-71684471D01*
X114214959Y-71712767D01*
X114211263Y-71714175D01*
X114084710Y-71760112D01*
X114031694Y-71785570D01*
X114023861Y-71789008D01*
X113972173Y-71809629D01*
X113972169Y-71809631D01*
X113969261Y-71810791D01*
X113882662Y-71855776D01*
X113849809Y-71872842D01*
X113846269Y-71874611D01*
X113724929Y-71932877D01*
X113722247Y-71934511D01*
X113674723Y-71963463D01*
X113667252Y-71967673D01*
X113615084Y-71994772D01*
X113612453Y-71996490D01*
X113612452Y-71996491D01*
X113502411Y-72068363D01*
X113499063Y-72070476D01*
X113384085Y-72140521D01*
X113381582Y-72142410D01*
X113381574Y-72142416D01*
X113337162Y-72175944D01*
X113330145Y-72180876D01*
X113280930Y-72213020D01*
X113176080Y-72297472D01*
X113173000Y-72299873D01*
X113068050Y-72379102D01*
X113068039Y-72379112D01*
X113065549Y-72380991D01*
X113063252Y-72383114D01*
X113063250Y-72383116D01*
X113022390Y-72420887D01*
X113015899Y-72426491D01*
X112970105Y-72463376D01*
X112928031Y-72503094D01*
X112863436Y-72567689D01*
X112859870Y-72571119D01*
X112772472Y-72651909D01*
X112770400Y-72654247D01*
X112770395Y-72654252D01*
X112722420Y-72708383D01*
X112717220Y-72713905D01*
X109713330Y-75717795D01*
X109711684Y-75719412D01*
X109594292Y-75832578D01*
X109592259Y-75834971D01*
X109507159Y-75935141D01*
X109504549Y-75938118D01*
X109416302Y-76035610D01*
X109416295Y-76035618D01*
X109414200Y-76037933D01*
X109379269Y-76085226D01*
X109373948Y-76091940D01*
X109335885Y-76136743D01*
X109334102Y-76139324D01*
X109334095Y-76139332D01*
X109259375Y-76247445D01*
X109257080Y-76250657D01*
X109177079Y-76358969D01*
X109175478Y-76361659D01*
X109175472Y-76361669D01*
X109147019Y-76409495D01*
X109142387Y-76416710D01*
X109110749Y-76462487D01*
X109110744Y-76462494D01*
X109108965Y-76465069D01*
X109107452Y-76467804D01*
X109107449Y-76467809D01*
X109043817Y-76582841D01*
X109041847Y-76586274D01*
X108973016Y-76701969D01*
X108971690Y-76704807D01*
X108971688Y-76704810D01*
X108948122Y-76755232D01*
X108944232Y-76762868D01*
X108915776Y-76814309D01*
X108914541Y-76817184D01*
X108914530Y-76817206D01*
X108862633Y-76937999D01*
X108861014Y-76941610D01*
X108804028Y-77063540D01*
X108784548Y-77119012D01*
X108781433Y-77127001D01*
X108758229Y-77181010D01*
X108757286Y-77183991D01*
X108757284Y-77183997D01*
X108717646Y-77309333D01*
X108716409Y-77313045D01*
X108671788Y-77440107D01*
X108671051Y-77443141D01*
X108671050Y-77443145D01*
X108657914Y-77497236D01*
X108655608Y-77505494D01*
X108638830Y-77558546D01*
X108637882Y-77561545D01*
X108637238Y-77564613D01*
X108637238Y-77564614D01*
X108610240Y-77693285D01*
X108609366Y-77697146D01*
X108577601Y-77827947D01*
X108577168Y-77831045D01*
X108577167Y-77831052D01*
X108569470Y-77886171D01*
X108567997Y-77894612D01*
X108555924Y-77952152D01*
X108555588Y-77955269D01*
X108555588Y-77955270D01*
X108541503Y-78085984D01*
X108541017Y-78089912D01*
X108522400Y-78223224D01*
X108522277Y-78226351D01*
X108522277Y-78226353D01*
X108520092Y-78281965D01*
X108519464Y-78290516D01*
X108513430Y-78346513D01*
X108513166Y-78348967D01*
X108511500Y-78406803D01*
X108511500Y-78498170D01*
X108511403Y-78503117D01*
X108506731Y-78622028D01*
X108506919Y-78625146D01*
X108506919Y-78625149D01*
X108511272Y-78697353D01*
X108511500Y-78704935D01*
X108511500Y-87688435D01*
X108491498Y-87756556D01*
X108437842Y-87803049D01*
X108367568Y-87813153D01*
X108302988Y-87783659D01*
X108296405Y-87777530D01*
X106262205Y-85743330D01*
X106260587Y-85741683D01*
X106232742Y-85712798D01*
X106147422Y-85624292D01*
X106044854Y-85537155D01*
X106041882Y-85534549D01*
X105944390Y-85446302D01*
X105944382Y-85446295D01*
X105942067Y-85444200D01*
X105894768Y-85409265D01*
X105888054Y-85403943D01*
X105845656Y-85367923D01*
X105845655Y-85367922D01*
X105843257Y-85365885D01*
X105840676Y-85364102D01*
X105840668Y-85364095D01*
X105732555Y-85289375D01*
X105729333Y-85287073D01*
X105623556Y-85208944D01*
X105621031Y-85207079D01*
X105618341Y-85205478D01*
X105618331Y-85205472D01*
X105570505Y-85177019D01*
X105563290Y-85172387D01*
X105517513Y-85140749D01*
X105517506Y-85140744D01*
X105514931Y-85138965D01*
X105512196Y-85137452D01*
X105512191Y-85137449D01*
X105397159Y-85073817D01*
X105393726Y-85071847D01*
X105309133Y-85021520D01*
X105278031Y-85003016D01*
X105275190Y-85001688D01*
X105224768Y-84978122D01*
X105217129Y-84974230D01*
X105168433Y-84947293D01*
X105165691Y-84945776D01*
X105162816Y-84944541D01*
X105162794Y-84944530D01*
X105042001Y-84892633D01*
X105038390Y-84891014D01*
X104943141Y-84846498D01*
X104916460Y-84834028D01*
X104860985Y-84814547D01*
X104852999Y-84811433D01*
X104801858Y-84789461D01*
X104801855Y-84789460D01*
X104798990Y-84788229D01*
X104796009Y-84787286D01*
X104796003Y-84787284D01*
X104670667Y-84747646D01*
X104666955Y-84746409D01*
X104539893Y-84701788D01*
X104536859Y-84701051D01*
X104536855Y-84701050D01*
X104482764Y-84687914D01*
X104474506Y-84685608D01*
X104421454Y-84668830D01*
X104421446Y-84668828D01*
X104418455Y-84667882D01*
X104409471Y-84665997D01*
X104286715Y-84640240D01*
X104282854Y-84639366D01*
X104155101Y-84608341D01*
X104155097Y-84608340D01*
X104152053Y-84607601D01*
X104148955Y-84607168D01*
X104148948Y-84607167D01*
X104112528Y-84602081D01*
X104093823Y-84599469D01*
X104085388Y-84597997D01*
X104027848Y-84585924D01*
X104024730Y-84585588D01*
X103894016Y-84571503D01*
X103890088Y-84571017D01*
X103759879Y-84552833D01*
X103759872Y-84552832D01*
X103756776Y-84552400D01*
X103753649Y-84552277D01*
X103753647Y-84552277D01*
X103698035Y-84550092D01*
X103689484Y-84549464D01*
X103633487Y-84543430D01*
X103633476Y-84543429D01*
X103631033Y-84543166D01*
X103628570Y-84543095D01*
X103628569Y-84543095D01*
X103625319Y-84543001D01*
X103573197Y-84541500D01*
X103481830Y-84541500D01*
X103476883Y-84541403D01*
X103465226Y-84540945D01*
X103397943Y-84518284D01*
X103353593Y-84462844D01*
X103346256Y-84392228D01*
X103367851Y-84341516D01*
X103409896Y-84283004D01*
X103409900Y-84282998D01*
X103412919Y-84278796D01*
X103421836Y-84260755D01*
X103513369Y-84075550D01*
X103513370Y-84075548D01*
X103515663Y-84070908D01*
X103551169Y-83954047D01*
X103581571Y-83853984D01*
X103581572Y-83853978D01*
X103583075Y-83849032D01*
X103613343Y-83619124D01*
X103615032Y-83550000D01*
X103608733Y-83473386D01*
X103596455Y-83324039D01*
X103596454Y-83324033D01*
X103596031Y-83318888D01*
X103539539Y-83093983D01*
X103447072Y-82881325D01*
X103321115Y-82686624D01*
X103293026Y-82655754D01*
X103168527Y-82518932D01*
X103168525Y-82518931D01*
X103165049Y-82515110D01*
X103160998Y-82511911D01*
X103160994Y-82511907D01*
X102987124Y-82374594D01*
X102983066Y-82371389D01*
X102780054Y-82259320D01*
X102600634Y-82195784D01*
X102566338Y-82183639D01*
X102566334Y-82183638D01*
X102561463Y-82181913D01*
X102556370Y-82181006D01*
X102556367Y-82181005D01*
X102338254Y-82142153D01*
X102338248Y-82142152D01*
X102333165Y-82141247D01*
X102244631Y-82140165D01*
X102106460Y-82138477D01*
X102106458Y-82138477D01*
X102101291Y-82138414D01*
X101872068Y-82173490D01*
X101651652Y-82245533D01*
X101647064Y-82247921D01*
X101647060Y-82247923D01*
X101450550Y-82350220D01*
X101445961Y-82352609D01*
X101441828Y-82355712D01*
X101441825Y-82355714D01*
X101264656Y-82488736D01*
X101260521Y-82491841D01*
X101100312Y-82659491D01*
X100969635Y-82851056D01*
X100872000Y-83061392D01*
X100810030Y-83284849D01*
X100785388Y-83515428D01*
X100798737Y-83746935D01*
X100799872Y-83751972D01*
X100799873Y-83751978D01*
X100835477Y-83909966D01*
X100849717Y-83973153D01*
X100936961Y-84188007D01*
X101058124Y-84385727D01*
X101061505Y-84389630D01*
X101150557Y-84492435D01*
X101180039Y-84557020D01*
X101169924Y-84627293D01*
X101123423Y-84680941D01*
X101086335Y-84697055D01*
X101064374Y-84702632D01*
X101019871Y-84713935D01*
X101016926Y-84715004D01*
X100647647Y-84849045D01*
X100647637Y-84849049D01*
X100644709Y-84850112D01*
X100284928Y-85022877D01*
X99944084Y-85230521D01*
X99866124Y-85289375D01*
X99757456Y-85371411D01*
X99625548Y-85470991D01*
X99623266Y-85473101D01*
X99623257Y-85473108D01*
X99507815Y-85579822D01*
X99332471Y-85741909D01*
X99330399Y-85744247D01*
X99330394Y-85744252D01*
X99251396Y-85833386D01*
X99067750Y-86040595D01*
X98834004Y-86364097D01*
X98633544Y-86709215D01*
X98632254Y-86712052D01*
X98632252Y-86712056D01*
X98535178Y-86925558D01*
X98468351Y-87072536D01*
X98467343Y-87075505D01*
X98467340Y-87075513D01*
X98380191Y-87332247D01*
X98340061Y-87450468D01*
X98339357Y-87453506D01*
X98339354Y-87453516D01*
X98264252Y-87777530D01*
X98249941Y-87839272D01*
X98198882Y-88235105D01*
X98187390Y-88634052D01*
X91186498Y-88634052D01*
X91186498Y-70358000D01*
X91536411Y-70358000D01*
X91556754Y-70746176D01*
X91617562Y-71130099D01*
X91718167Y-71505562D01*
X91857468Y-71868453D01*
X91858966Y-71871393D01*
X92032162Y-72211308D01*
X92033938Y-72214794D01*
X92035734Y-72217560D01*
X92035736Y-72217563D01*
X92169672Y-72423808D01*
X92245643Y-72540793D01*
X92490266Y-72842876D01*
X92765124Y-73117734D01*
X92767682Y-73119806D01*
X92767686Y-73119809D01*
X92916166Y-73240046D01*
X93067207Y-73362357D01*
X93069970Y-73364152D01*
X93069971Y-73364152D01*
X93239551Y-73474278D01*
X93393205Y-73574062D01*
X93396139Y-73575557D01*
X93396146Y-73575561D01*
X93736607Y-73749034D01*
X93739547Y-73750532D01*
X94102438Y-73889833D01*
X94477901Y-73990438D01*
X94681793Y-74022732D01*
X94858576Y-74050732D01*
X94858584Y-74050733D01*
X94861824Y-74051246D01*
X95250000Y-74071589D01*
X95638176Y-74051246D01*
X95641416Y-74050733D01*
X95641424Y-74050732D01*
X95818207Y-74022732D01*
X96022099Y-73990438D01*
X96397562Y-73889833D01*
X96760453Y-73750532D01*
X96763393Y-73749034D01*
X97103854Y-73575561D01*
X97103861Y-73575557D01*
X97106795Y-73574062D01*
X97260450Y-73474278D01*
X97430029Y-73364152D01*
X97430030Y-73364152D01*
X97432793Y-73362357D01*
X97583834Y-73240046D01*
X97732314Y-73119809D01*
X97732318Y-73119806D01*
X97734876Y-73117734D01*
X98009734Y-72842876D01*
X98254357Y-72540793D01*
X98330328Y-72423808D01*
X98464264Y-72217563D01*
X98464266Y-72217560D01*
X98466062Y-72214794D01*
X98467839Y-72211308D01*
X98641034Y-71871393D01*
X98642532Y-71868453D01*
X98781833Y-71505562D01*
X98882438Y-71130099D01*
X98943246Y-70746176D01*
X98963589Y-70358000D01*
X98943246Y-69969824D01*
X98882438Y-69585901D01*
X98781833Y-69210438D01*
X98642532Y-68847547D01*
X98625427Y-68813976D01*
X98467561Y-68504147D01*
X98467557Y-68504140D01*
X98466062Y-68501206D01*
X98450673Y-68477508D01*
X98256152Y-68177971D01*
X98256152Y-68177970D01*
X98254357Y-68175207D01*
X98009734Y-67873124D01*
X97734876Y-67598266D01*
X97432793Y-67353643D01*
X97430029Y-67351848D01*
X97109564Y-67143736D01*
X97109561Y-67143734D01*
X97106795Y-67141938D01*
X97103861Y-67140443D01*
X97103854Y-67140439D01*
X96763393Y-66966966D01*
X96760453Y-66965468D01*
X96448614Y-66845764D01*
X96400652Y-66827353D01*
X96400650Y-66827352D01*
X96397562Y-66826167D01*
X96022099Y-66725562D01*
X95818207Y-66693268D01*
X95641424Y-66665268D01*
X95641416Y-66665267D01*
X95638176Y-66664754D01*
X95250000Y-66644411D01*
X94861824Y-66664754D01*
X94858584Y-66665267D01*
X94858576Y-66665268D01*
X94681793Y-66693268D01*
X94477901Y-66725562D01*
X94102438Y-66826167D01*
X94099350Y-66827352D01*
X94099348Y-66827353D01*
X94051386Y-66845764D01*
X93739547Y-66965468D01*
X93736607Y-66966966D01*
X93396147Y-67140439D01*
X93396140Y-67140443D01*
X93393206Y-67141938D01*
X93390440Y-67143734D01*
X93390437Y-67143736D01*
X93182576Y-67278722D01*
X93067207Y-67353643D01*
X92765124Y-67598266D01*
X92490266Y-67873124D01*
X92245643Y-68175207D01*
X92243848Y-68177970D01*
X92243848Y-68177971D01*
X92049328Y-68477508D01*
X92033938Y-68501206D01*
X92032443Y-68504140D01*
X92032439Y-68504147D01*
X91874573Y-68813976D01*
X91857468Y-68847547D01*
X91718167Y-69210438D01*
X91617562Y-69585901D01*
X91556754Y-69969824D01*
X91536411Y-70358000D01*
X91186498Y-70358000D01*
X91186498Y-68875887D01*
X91187998Y-68856502D01*
X91190308Y-68841669D01*
X91190308Y-68841665D01*
X91191689Y-68832796D01*
X91189336Y-68814801D01*
X91188470Y-68791402D01*
X91202067Y-68549249D01*
X91203649Y-68535208D01*
X91208927Y-68504147D01*
X91248980Y-68268400D01*
X91252124Y-68254625D01*
X91327043Y-67994568D01*
X91331710Y-67981231D01*
X91435274Y-67731201D01*
X91441405Y-67718470D01*
X91572311Y-67481611D01*
X91579828Y-67469647D01*
X91736437Y-67248925D01*
X91745247Y-67237878D01*
X91925578Y-67036085D01*
X91935569Y-67026094D01*
X92000892Y-66967717D01*
X92137358Y-66845762D01*
X92148403Y-66836953D01*
X92161933Y-66827353D01*
X92369137Y-66680334D01*
X92381086Y-66672827D01*
X92556704Y-66575765D01*
X92617949Y-66541916D01*
X92630679Y-66535786D01*
X92880714Y-66432216D01*
X92894046Y-66427550D01*
X93052406Y-66381927D01*
X93154104Y-66352629D01*
X93167879Y-66349485D01*
X93301283Y-66326818D01*
X93434692Y-66304150D01*
X93448726Y-66302569D01*
X93508241Y-66299227D01*
X93683470Y-66289387D01*
X93709915Y-66290688D01*
X93710850Y-66290834D01*
X93710853Y-66290834D01*
X93719722Y-66292215D01*
X93750838Y-66288146D01*
X93767343Y-66287084D01*
X183231086Y-66414813D01*
G37*
G04 #@! TD.AperFunction*
M02*
