M48
; DRILL file {KiCad (6.0.10)} date Thu 26 Jan 2023 09:48:16 PM EST
; FORMAT={-:-/ absolute / metric / decimal}
; #@! TF.CreationDate,2023-01-26T21:48:16-05:00
; #@! TF.GenerationSoftware,Kicad,Pcbnew,(6.0.10)
; #@! TF.FileFunction,Plated,1,2,PTH
FMAT,2
METRIC
; #@! TA.AperFunction,Plated,PTH,ComponentDrill
T1C1.020
; #@! TA.AperFunction,Plated,PTH,ComponentDrill
T2C1.295
; #@! TA.AperFunction,Plated,PTH,ComponentDrill
T3C1.600
; #@! TA.AperFunction,Plated,PTH,ComponentDrill
T4C3.200
%
G90
G05
T1
X105.15Y-111.115
X105.15Y-113.655
X105.15Y-116.195
T2
X102.2Y-83.55
X102.2Y-88.55
X102.25Y-96.4
X102.25Y-101.4
X102.25Y-106.4
T3
X119.505Y-70.38
X119.505Y-75.46
X119.505Y-80.54
X119.505Y-85.62
X119.505Y-114.93
X119.505Y-120.01
X119.505Y-125.09
X119.505Y-130.17
X119.555Y-92.59
X119.555Y-97.67
X119.555Y-102.75
X119.555Y-107.83
X142.827Y-70.38
X142.827Y-75.46
X142.827Y-80.54
X142.827Y-85.62
X142.827Y-114.93
X142.827Y-120.01
X142.827Y-125.09
X142.827Y-130.17
X142.877Y-92.59
X142.877Y-97.67
X142.877Y-102.75
X142.877Y-107.83
X166.15Y-70.38
X166.15Y-75.46
X166.15Y-80.54
X166.15Y-85.62
X166.15Y-114.93
X166.15Y-120.01
X166.15Y-125.09
X166.15Y-130.17
X166.2Y-92.59
X166.2Y-97.67
X166.2Y-102.75
X166.2Y-107.83
T4
X95.25Y-70.358
X95.25Y-129.9
X183.642Y-70.358
X183.642Y-129.9
T0
M30
