G04 #@! TF.GenerationSoftware,KiCad,Pcbnew,(6.0.10)*
G04 #@! TF.CreationDate,2023-01-26T21:48:12-05:00*
G04 #@! TF.ProjectId,Connectors,436f6e6e-6563-4746-9f72-732e6b696361,rev?*
G04 #@! TF.SameCoordinates,Original*
G04 #@! TF.FileFunction,Soldermask,Top*
G04 #@! TF.FilePolarity,Negative*
%FSLAX46Y46*%
G04 Gerber Fmt 4.6, Leading zero omitted, Abs format (unit mm)*
G04 Created by KiCad (PCBNEW (6.0.10)) date 2023-01-26 21:48:12*
%MOMM*%
%LPD*%
G01*
G04 APERTURE LIST*
%ADD10R,2.400000X2.400000*%
%ADD11C,2.400000*%
%ADD12R,1.803400X1.803400*%
%ADD13C,1.803400*%
%ADD14C,6.400000*%
%ADD15R,2.030000X1.730000*%
%ADD16O,2.030000X1.730000*%
G04 APERTURE END LIST*
D10*
X142827500Y-70380000D03*
D11*
X142827500Y-75460000D03*
X142827500Y-80540000D03*
X142827500Y-85620000D03*
D10*
X142877500Y-92590000D03*
D11*
X142877500Y-97670000D03*
X142877500Y-102750000D03*
X142877500Y-107830000D03*
D12*
X102249999Y-106400000D03*
D13*
X102249999Y-101400000D03*
X102249999Y-96400000D03*
D14*
X95250000Y-129900000D03*
X95250000Y-70358000D03*
D10*
X166150000Y-114930000D03*
D11*
X166150000Y-120010000D03*
X166150000Y-125090000D03*
X166150000Y-130170000D03*
D10*
X142827500Y-114930000D03*
D11*
X142827500Y-120010000D03*
X142827500Y-125090000D03*
X142827500Y-130170000D03*
D15*
X105150000Y-111115000D03*
D16*
X105150000Y-113655000D03*
X105150000Y-116195000D03*
D14*
X183642000Y-70358000D03*
D10*
X166200000Y-92590000D03*
D11*
X166200000Y-97670000D03*
X166200000Y-102750000D03*
X166200000Y-107830000D03*
D12*
X102199999Y-88550000D03*
D13*
X102199999Y-83550000D03*
D10*
X166150000Y-70380000D03*
D11*
X166150000Y-75460000D03*
X166150000Y-80540000D03*
X166150000Y-85620000D03*
D14*
X183642000Y-129900000D03*
D10*
X119555000Y-92590000D03*
D11*
X119555000Y-97670000D03*
X119555000Y-102750000D03*
X119555000Y-107830000D03*
D10*
X119505000Y-114930000D03*
D11*
X119505000Y-120010000D03*
X119505000Y-125090000D03*
X119505000Y-130170000D03*
D10*
X119505000Y-70380000D03*
D11*
X119505000Y-75460000D03*
X119505000Y-80540000D03*
X119505000Y-85620000D03*
M02*
