%TF.GenerationSoftware,KiCad,Pcbnew,(6.0.10)*%
%TF.CreationDate,2023-01-26T21:48:15-05:00*%
%TF.ProjectId,Connectors,436f6e6e-6563-4746-9f72-732e6b696361,rev?*%
%TF.SameCoordinates,Original*%
%TF.FileFunction,Drillmap*%
%TF.FilePolarity,Positive*%
%FSLAX45Y45*%
G04 Gerber Fmt 4.5, Leading zero omitted, Abs format (unit mm)*
G04 Created by KiCad (PCBNEW (6.0.10)) date 2023-01-26 21:48:15*
%MOMM*%
%LPD*%
G01*
G04 APERTURE LIST*
%ADD10C,0.100000*%
%ADD11C,0.200000*%
%ADD12C,0.102000*%
%ADD13C,0.129540*%
%ADD14C,0.160000*%
%ADD15C,0.320000*%
G04 APERTURE END LIST*
D10*
X9067800Y-6882652D02*
X9067800Y-13144874D01*
X18529674Y-6590926D02*
X9372600Y-6577852D01*
D11*
X9372600Y-6577850D02*
G75*
G03*
X9067800Y-6882652I0J-304800D01*
G01*
D10*
X18834474Y-13144874D02*
X18834474Y-6895726D01*
D11*
X9067796Y-13144874D02*
G75*
G03*
X9372600Y-13449674I304804J4D01*
G01*
X18529674Y-13449674D02*
G75*
G03*
X18834474Y-13144874I-4J304804D01*
G01*
D10*
X18529674Y-13449674D02*
X9372600Y-13449674D01*
D11*
X18834474Y-6895726D02*
G75*
G03*
X18529674Y-6590926I-304804J-4D01*
G01*
D12*
X10464000Y-11060500D02*
X10566000Y-11162500D01*
X10566000Y-11060500D02*
X10464000Y-11162500D01*
X10464000Y-11314500D02*
X10566000Y-11416500D01*
X10566000Y-11314500D02*
X10464000Y-11416500D01*
X10464000Y-11568500D02*
X10566000Y-11670500D01*
X10566000Y-11568500D02*
X10464000Y-11670500D01*
D13*
X10284770Y-8355000D02*
G75*
G03*
X10284770Y-8355000I-64770J0D01*
G01*
X10284770Y-8855000D02*
G75*
G03*
X10284770Y-8855000I-64770J0D01*
G01*
X10289770Y-9640000D02*
G75*
G03*
X10289770Y-9640000I-64770J0D01*
G01*
X10289770Y-10140000D02*
G75*
G03*
X10289770Y-10140000I-64770J0D01*
G01*
X10289770Y-10640000D02*
G75*
G03*
X10289770Y-10640000I-64770J0D01*
G01*
D14*
X11950500Y-6958000D02*
X11950500Y-7118000D01*
X11870500Y-7038000D02*
X12030500Y-7038000D01*
X11950500Y-7466000D02*
X11950500Y-7626000D01*
X11870500Y-7546000D02*
X12030500Y-7546000D01*
X11950500Y-7974000D02*
X11950500Y-8134000D01*
X11870500Y-8054000D02*
X12030500Y-8054000D01*
X11950500Y-8482000D02*
X11950500Y-8642000D01*
X11870500Y-8562000D02*
X12030500Y-8562000D01*
X11950500Y-11413000D02*
X11950500Y-11573000D01*
X11870500Y-11493000D02*
X12030500Y-11493000D01*
X11950500Y-11921000D02*
X11950500Y-12081000D01*
X11870500Y-12001000D02*
X12030500Y-12001000D01*
X11950500Y-12429000D02*
X11950500Y-12589000D01*
X11870500Y-12509000D02*
X12030500Y-12509000D01*
X11950500Y-12937000D02*
X11950500Y-13097000D01*
X11870500Y-13017000D02*
X12030500Y-13017000D01*
X11955500Y-9179000D02*
X11955500Y-9339000D01*
X11875500Y-9259000D02*
X12035500Y-9259000D01*
X11955500Y-9687000D02*
X11955500Y-9847000D01*
X11875500Y-9767000D02*
X12035500Y-9767000D01*
X11955500Y-10195000D02*
X11955500Y-10355000D01*
X11875500Y-10275000D02*
X12035500Y-10275000D01*
X11955500Y-10703000D02*
X11955500Y-10863000D01*
X11875500Y-10783000D02*
X12035500Y-10783000D01*
X14282750Y-6958000D02*
X14282750Y-7118000D01*
X14202750Y-7038000D02*
X14362750Y-7038000D01*
X14282750Y-7466000D02*
X14282750Y-7626000D01*
X14202750Y-7546000D02*
X14362750Y-7546000D01*
X14282750Y-7974000D02*
X14282750Y-8134000D01*
X14202750Y-8054000D02*
X14362750Y-8054000D01*
X14282750Y-8482000D02*
X14282750Y-8642000D01*
X14202750Y-8562000D02*
X14362750Y-8562000D01*
X14282750Y-11413000D02*
X14282750Y-11573000D01*
X14202750Y-11493000D02*
X14362750Y-11493000D01*
X14282750Y-11921000D02*
X14282750Y-12081000D01*
X14202750Y-12001000D02*
X14362750Y-12001000D01*
X14282750Y-12429000D02*
X14282750Y-12589000D01*
X14202750Y-12509000D02*
X14362750Y-12509000D01*
X14282750Y-12937000D02*
X14282750Y-13097000D01*
X14202750Y-13017000D02*
X14362750Y-13017000D01*
X14287750Y-9179000D02*
X14287750Y-9339000D01*
X14207750Y-9259000D02*
X14367750Y-9259000D01*
X14287750Y-9687000D02*
X14287750Y-9847000D01*
X14207750Y-9767000D02*
X14367750Y-9767000D01*
X14287750Y-10195000D02*
X14287750Y-10355000D01*
X14207750Y-10275000D02*
X14367750Y-10275000D01*
X14287750Y-10703000D02*
X14287750Y-10863000D01*
X14207750Y-10783000D02*
X14367750Y-10783000D01*
X16615000Y-6958000D02*
X16615000Y-7118000D01*
X16535000Y-7038000D02*
X16695000Y-7038000D01*
X16615000Y-7466000D02*
X16615000Y-7626000D01*
X16535000Y-7546000D02*
X16695000Y-7546000D01*
X16615000Y-7974000D02*
X16615000Y-8134000D01*
X16535000Y-8054000D02*
X16695000Y-8054000D01*
X16615000Y-8482000D02*
X16615000Y-8642000D01*
X16535000Y-8562000D02*
X16695000Y-8562000D01*
X16615000Y-11413000D02*
X16615000Y-11573000D01*
X16535000Y-11493000D02*
X16695000Y-11493000D01*
X16615000Y-11921000D02*
X16615000Y-12081000D01*
X16535000Y-12001000D02*
X16695000Y-12001000D01*
X16615000Y-12429000D02*
X16615000Y-12589000D01*
X16535000Y-12509000D02*
X16695000Y-12509000D01*
X16615000Y-12937000D02*
X16615000Y-13097000D01*
X16535000Y-13017000D02*
X16695000Y-13017000D01*
X16620000Y-9179000D02*
X16620000Y-9339000D01*
X16540000Y-9259000D02*
X16700000Y-9259000D01*
X16620000Y-9687000D02*
X16620000Y-9847000D01*
X16540000Y-9767000D02*
X16700000Y-9767000D01*
X16620000Y-10195000D02*
X16620000Y-10355000D01*
X16540000Y-10275000D02*
X16700000Y-10275000D01*
X16620000Y-10703000D02*
X16620000Y-10863000D01*
X16540000Y-10783000D02*
X16700000Y-10783000D01*
D15*
X9638138Y-7148938D02*
X9638138Y-6922662D01*
X9411862Y-6922662D01*
X9411862Y-7148938D01*
X9638138Y-7148938D01*
X9638138Y-13103138D02*
X9638138Y-12876862D01*
X9411862Y-12876862D01*
X9411862Y-13103138D01*
X9638138Y-13103138D01*
X18477338Y-7148938D02*
X18477338Y-6922662D01*
X18251062Y-6922662D01*
X18251062Y-7148938D01*
X18477338Y-7148938D01*
X18477338Y-13103138D02*
X18477338Y-12876862D01*
X18251062Y-12876862D01*
X18251062Y-13103138D01*
X18477338Y-13103138D01*
D11*
X9315419Y-13770150D02*
X9315419Y-13570150D01*
X9363038Y-13570150D01*
X9391609Y-13579674D01*
X9410657Y-13598721D01*
X9420181Y-13617769D01*
X9429705Y-13655864D01*
X9429705Y-13684436D01*
X9420181Y-13722531D01*
X9410657Y-13741579D01*
X9391609Y-13760626D01*
X9363038Y-13770150D01*
X9315419Y-13770150D01*
X9515419Y-13770150D02*
X9515419Y-13636817D01*
X9515419Y-13674912D02*
X9524943Y-13655864D01*
X9534466Y-13646340D01*
X9553514Y-13636817D01*
X9572562Y-13636817D01*
X9639228Y-13770150D02*
X9639228Y-13636817D01*
X9639228Y-13570150D02*
X9629705Y-13579674D01*
X9639228Y-13589198D01*
X9648752Y-13579674D01*
X9639228Y-13570150D01*
X9639228Y-13589198D01*
X9763038Y-13770150D02*
X9743990Y-13760626D01*
X9734466Y-13741579D01*
X9734466Y-13570150D01*
X9867800Y-13770150D02*
X9848752Y-13760626D01*
X9839228Y-13741579D01*
X9839228Y-13570150D01*
X10096371Y-13770150D02*
X10096371Y-13570150D01*
X10163038Y-13713007D01*
X10229705Y-13570150D01*
X10229705Y-13770150D01*
X10410657Y-13770150D02*
X10410657Y-13665388D01*
X10401133Y-13646340D01*
X10382086Y-13636817D01*
X10343990Y-13636817D01*
X10324943Y-13646340D01*
X10410657Y-13760626D02*
X10391609Y-13770150D01*
X10343990Y-13770150D01*
X10324943Y-13760626D01*
X10315419Y-13741579D01*
X10315419Y-13722531D01*
X10324943Y-13703483D01*
X10343990Y-13693960D01*
X10391609Y-13693960D01*
X10410657Y-13684436D01*
X10505895Y-13636817D02*
X10505895Y-13836817D01*
X10505895Y-13646340D02*
X10524943Y-13636817D01*
X10563038Y-13636817D01*
X10582086Y-13646340D01*
X10591609Y-13655864D01*
X10601133Y-13674912D01*
X10601133Y-13732055D01*
X10591609Y-13751102D01*
X10582086Y-13760626D01*
X10563038Y-13770150D01*
X10524943Y-13770150D01*
X10505895Y-13760626D01*
X10686847Y-13751102D02*
X10696371Y-13760626D01*
X10686847Y-13770150D01*
X10677324Y-13760626D01*
X10686847Y-13751102D01*
X10686847Y-13770150D01*
X10686847Y-13646340D02*
X10696371Y-13655864D01*
X10686847Y-13665388D01*
X10677324Y-13655864D01*
X10686847Y-13646340D01*
X10686847Y-13665388D01*
D12*
X8955800Y-14048674D02*
X9057800Y-14150674D01*
X9057800Y-14048674D02*
X8955800Y-14150674D01*
D11*
X9420181Y-14190150D02*
X9305895Y-14190150D01*
X9363038Y-14190150D02*
X9363038Y-13990150D01*
X9343990Y-14018721D01*
X9324943Y-14037769D01*
X9305895Y-14047293D01*
X9505895Y-14171102D02*
X9515419Y-14180626D01*
X9505895Y-14190150D01*
X9496371Y-14180626D01*
X9505895Y-14171102D01*
X9505895Y-14190150D01*
X9639228Y-13990150D02*
X9658276Y-13990150D01*
X9677324Y-13999674D01*
X9686847Y-14009198D01*
X9696371Y-14028245D01*
X9705895Y-14066340D01*
X9705895Y-14113960D01*
X9696371Y-14152055D01*
X9686847Y-14171102D01*
X9677324Y-14180626D01*
X9658276Y-14190150D01*
X9639228Y-14190150D01*
X9620181Y-14180626D01*
X9610657Y-14171102D01*
X9601133Y-14152055D01*
X9591609Y-14113960D01*
X9591609Y-14066340D01*
X9601133Y-14028245D01*
X9610657Y-14009198D01*
X9620181Y-13999674D01*
X9639228Y-13990150D01*
X9782086Y-14009198D02*
X9791609Y-13999674D01*
X9810657Y-13990150D01*
X9858276Y-13990150D01*
X9877324Y-13999674D01*
X9886847Y-14009198D01*
X9896371Y-14028245D01*
X9896371Y-14047293D01*
X9886847Y-14075864D01*
X9772562Y-14190150D01*
X9896371Y-14190150D01*
X10020181Y-13990150D02*
X10039228Y-13990150D01*
X10058276Y-13999674D01*
X10067800Y-14009198D01*
X10077324Y-14028245D01*
X10086847Y-14066340D01*
X10086847Y-14113960D01*
X10077324Y-14152055D01*
X10067800Y-14171102D01*
X10058276Y-14180626D01*
X10039228Y-14190150D01*
X10020181Y-14190150D01*
X10001133Y-14180626D01*
X9991609Y-14171102D01*
X9982086Y-14152055D01*
X9972562Y-14113960D01*
X9972562Y-14066340D01*
X9982086Y-14028245D01*
X9991609Y-14009198D01*
X10001133Y-13999674D01*
X10020181Y-13990150D01*
X10172562Y-14190150D02*
X10172562Y-14056817D01*
X10172562Y-14075864D02*
X10182086Y-14066340D01*
X10201133Y-14056817D01*
X10229705Y-14056817D01*
X10248752Y-14066340D01*
X10258276Y-14085388D01*
X10258276Y-14190150D01*
X10258276Y-14085388D02*
X10267800Y-14066340D01*
X10286847Y-14056817D01*
X10315419Y-14056817D01*
X10334466Y-14066340D01*
X10343990Y-14085388D01*
X10343990Y-14190150D01*
X10439228Y-14190150D02*
X10439228Y-14056817D01*
X10439228Y-14075864D02*
X10448752Y-14066340D01*
X10467800Y-14056817D01*
X10496371Y-14056817D01*
X10515419Y-14066340D01*
X10524943Y-14085388D01*
X10524943Y-14190150D01*
X10524943Y-14085388D02*
X10534466Y-14066340D01*
X10553514Y-14056817D01*
X10582086Y-14056817D01*
X10601133Y-14066340D01*
X10610657Y-14085388D01*
X10610657Y-14190150D01*
X11001133Y-13980626D02*
X10829705Y-14237769D01*
X11258276Y-13990150D02*
X11277324Y-13990150D01*
X11296371Y-13999674D01*
X11305895Y-14009198D01*
X11315419Y-14028245D01*
X11324943Y-14066340D01*
X11324943Y-14113960D01*
X11315419Y-14152055D01*
X11305895Y-14171102D01*
X11296371Y-14180626D01*
X11277324Y-14190150D01*
X11258276Y-14190150D01*
X11239228Y-14180626D01*
X11229704Y-14171102D01*
X11220181Y-14152055D01*
X11210657Y-14113960D01*
X11210657Y-14066340D01*
X11220181Y-14028245D01*
X11229704Y-14009198D01*
X11239228Y-13999674D01*
X11258276Y-13990150D01*
X11410657Y-14171102D02*
X11420181Y-14180626D01*
X11410657Y-14190150D01*
X11401133Y-14180626D01*
X11410657Y-14171102D01*
X11410657Y-14190150D01*
X11543990Y-13990150D02*
X11563038Y-13990150D01*
X11582085Y-13999674D01*
X11591609Y-14009198D01*
X11601133Y-14028245D01*
X11610657Y-14066340D01*
X11610657Y-14113960D01*
X11601133Y-14152055D01*
X11591609Y-14171102D01*
X11582085Y-14180626D01*
X11563038Y-14190150D01*
X11543990Y-14190150D01*
X11524943Y-14180626D01*
X11515419Y-14171102D01*
X11505895Y-14152055D01*
X11496371Y-14113960D01*
X11496371Y-14066340D01*
X11505895Y-14028245D01*
X11515419Y-14009198D01*
X11524943Y-13999674D01*
X11543990Y-13990150D01*
X11782085Y-14056817D02*
X11782085Y-14190150D01*
X11734466Y-13980626D02*
X11686847Y-14123483D01*
X11810657Y-14123483D01*
X11924943Y-13990150D02*
X11943990Y-13990150D01*
X11963038Y-13999674D01*
X11972562Y-14009198D01*
X11982085Y-14028245D01*
X11991609Y-14066340D01*
X11991609Y-14113960D01*
X11982085Y-14152055D01*
X11972562Y-14171102D01*
X11963038Y-14180626D01*
X11943990Y-14190150D01*
X11924943Y-14190150D01*
X11905895Y-14180626D01*
X11896371Y-14171102D01*
X11886847Y-14152055D01*
X11877324Y-14113960D01*
X11877324Y-14066340D01*
X11886847Y-14028245D01*
X11896371Y-14009198D01*
X11905895Y-13999674D01*
X11924943Y-13990150D01*
X12067800Y-14009198D02*
X12077324Y-13999674D01*
X12096371Y-13990150D01*
X12143990Y-13990150D01*
X12163038Y-13999674D01*
X12172562Y-14009198D01*
X12182085Y-14028245D01*
X12182085Y-14047293D01*
X12172562Y-14075864D01*
X12058276Y-14190150D01*
X12182085Y-14190150D01*
X12258276Y-13990150D02*
X12258276Y-14028245D01*
X12334466Y-13990150D02*
X12334466Y-14028245D01*
X12629704Y-14266340D02*
X12620181Y-14256817D01*
X12601133Y-14228245D01*
X12591609Y-14209198D01*
X12582085Y-14180626D01*
X12572562Y-14133007D01*
X12572562Y-14094912D01*
X12582085Y-14047293D01*
X12591609Y-14018721D01*
X12601133Y-13999674D01*
X12620181Y-13971102D01*
X12629704Y-13961579D01*
X12686847Y-13990150D02*
X12810657Y-13990150D01*
X12743990Y-14066340D01*
X12772562Y-14066340D01*
X12791609Y-14075864D01*
X12801133Y-14085388D01*
X12810657Y-14104436D01*
X12810657Y-14152055D01*
X12801133Y-14171102D01*
X12791609Y-14180626D01*
X12772562Y-14190150D01*
X12715419Y-14190150D01*
X12696371Y-14180626D01*
X12686847Y-14171102D01*
X13048752Y-14190150D02*
X13048752Y-13990150D01*
X13134466Y-14190150D02*
X13134466Y-14085388D01*
X13124943Y-14066340D01*
X13105895Y-14056817D01*
X13077324Y-14056817D01*
X13058276Y-14066340D01*
X13048752Y-14075864D01*
X13258276Y-14190150D02*
X13239228Y-14180626D01*
X13229704Y-14171102D01*
X13220181Y-14152055D01*
X13220181Y-14094912D01*
X13229704Y-14075864D01*
X13239228Y-14066340D01*
X13258276Y-14056817D01*
X13286847Y-14056817D01*
X13305895Y-14066340D01*
X13315419Y-14075864D01*
X13324943Y-14094912D01*
X13324943Y-14152055D01*
X13315419Y-14171102D01*
X13305895Y-14180626D01*
X13286847Y-14190150D01*
X13258276Y-14190150D01*
X13439228Y-14190150D02*
X13420181Y-14180626D01*
X13410657Y-14161579D01*
X13410657Y-13990150D01*
X13591609Y-14180626D02*
X13572562Y-14190150D01*
X13534466Y-14190150D01*
X13515419Y-14180626D01*
X13505895Y-14161579D01*
X13505895Y-14085388D01*
X13515419Y-14066340D01*
X13534466Y-14056817D01*
X13572562Y-14056817D01*
X13591609Y-14066340D01*
X13601133Y-14085388D01*
X13601133Y-14104436D01*
X13505895Y-14123483D01*
X13677324Y-14180626D02*
X13696371Y-14190150D01*
X13734466Y-14190150D01*
X13753514Y-14180626D01*
X13763038Y-14161579D01*
X13763038Y-14152055D01*
X13753514Y-14133007D01*
X13734466Y-14123483D01*
X13705895Y-14123483D01*
X13686847Y-14113960D01*
X13677324Y-14094912D01*
X13677324Y-14085388D01*
X13686847Y-14066340D01*
X13705895Y-14056817D01*
X13734466Y-14056817D01*
X13753514Y-14066340D01*
X13829704Y-14266340D02*
X13839228Y-14256817D01*
X13858276Y-14228245D01*
X13867800Y-14209198D01*
X13877324Y-14180626D01*
X13886847Y-14133007D01*
X13886847Y-14094912D01*
X13877324Y-14047293D01*
X13867800Y-14018721D01*
X13858276Y-13999674D01*
X13839228Y-13971102D01*
X13829704Y-13961579D01*
D13*
X9057800Y-14363674D02*
G75*
G03*
X9057800Y-14363674I-64770J0D01*
G01*
D11*
X9420181Y-14454150D02*
X9305895Y-14454150D01*
X9363038Y-14454150D02*
X9363038Y-14254150D01*
X9343990Y-14282721D01*
X9324943Y-14301769D01*
X9305895Y-14311293D01*
X9505895Y-14435102D02*
X9515419Y-14444626D01*
X9505895Y-14454150D01*
X9496371Y-14444626D01*
X9505895Y-14435102D01*
X9505895Y-14454150D01*
X9591609Y-14273198D02*
X9601133Y-14263674D01*
X9620181Y-14254150D01*
X9667800Y-14254150D01*
X9686847Y-14263674D01*
X9696371Y-14273198D01*
X9705895Y-14292245D01*
X9705895Y-14311293D01*
X9696371Y-14339864D01*
X9582086Y-14454150D01*
X9705895Y-14454150D01*
X9801133Y-14454150D02*
X9839228Y-14454150D01*
X9858276Y-14444626D01*
X9867800Y-14435102D01*
X9886847Y-14406531D01*
X9896371Y-14368436D01*
X9896371Y-14292245D01*
X9886847Y-14273198D01*
X9877324Y-14263674D01*
X9858276Y-14254150D01*
X9820181Y-14254150D01*
X9801133Y-14263674D01*
X9791609Y-14273198D01*
X9782086Y-14292245D01*
X9782086Y-14339864D01*
X9791609Y-14358912D01*
X9801133Y-14368436D01*
X9820181Y-14377960D01*
X9858276Y-14377960D01*
X9877324Y-14368436D01*
X9886847Y-14358912D01*
X9896371Y-14339864D01*
X10077324Y-14254150D02*
X9982086Y-14254150D01*
X9972562Y-14349388D01*
X9982086Y-14339864D01*
X10001133Y-14330340D01*
X10048752Y-14330340D01*
X10067800Y-14339864D01*
X10077324Y-14349388D01*
X10086847Y-14368436D01*
X10086847Y-14416055D01*
X10077324Y-14435102D01*
X10067800Y-14444626D01*
X10048752Y-14454150D01*
X10001133Y-14454150D01*
X9982086Y-14444626D01*
X9972562Y-14435102D01*
X10172562Y-14454150D02*
X10172562Y-14320817D01*
X10172562Y-14339864D02*
X10182086Y-14330340D01*
X10201133Y-14320817D01*
X10229705Y-14320817D01*
X10248752Y-14330340D01*
X10258276Y-14349388D01*
X10258276Y-14454150D01*
X10258276Y-14349388D02*
X10267800Y-14330340D01*
X10286847Y-14320817D01*
X10315419Y-14320817D01*
X10334466Y-14330340D01*
X10343990Y-14349388D01*
X10343990Y-14454150D01*
X10439228Y-14454150D02*
X10439228Y-14320817D01*
X10439228Y-14339864D02*
X10448752Y-14330340D01*
X10467800Y-14320817D01*
X10496371Y-14320817D01*
X10515419Y-14330340D01*
X10524943Y-14349388D01*
X10524943Y-14454150D01*
X10524943Y-14349388D02*
X10534466Y-14330340D01*
X10553514Y-14320817D01*
X10582086Y-14320817D01*
X10601133Y-14330340D01*
X10610657Y-14349388D01*
X10610657Y-14454150D01*
X11001133Y-14244626D02*
X10829705Y-14501769D01*
X11258276Y-14254150D02*
X11277324Y-14254150D01*
X11296371Y-14263674D01*
X11305895Y-14273198D01*
X11315419Y-14292245D01*
X11324943Y-14330340D01*
X11324943Y-14377960D01*
X11315419Y-14416055D01*
X11305895Y-14435102D01*
X11296371Y-14444626D01*
X11277324Y-14454150D01*
X11258276Y-14454150D01*
X11239228Y-14444626D01*
X11229704Y-14435102D01*
X11220181Y-14416055D01*
X11210657Y-14377960D01*
X11210657Y-14330340D01*
X11220181Y-14292245D01*
X11229704Y-14273198D01*
X11239228Y-14263674D01*
X11258276Y-14254150D01*
X11410657Y-14435102D02*
X11420181Y-14444626D01*
X11410657Y-14454150D01*
X11401133Y-14444626D01*
X11410657Y-14435102D01*
X11410657Y-14454150D01*
X11543990Y-14254150D02*
X11563038Y-14254150D01*
X11582085Y-14263674D01*
X11591609Y-14273198D01*
X11601133Y-14292245D01*
X11610657Y-14330340D01*
X11610657Y-14377960D01*
X11601133Y-14416055D01*
X11591609Y-14435102D01*
X11582085Y-14444626D01*
X11563038Y-14454150D01*
X11543990Y-14454150D01*
X11524943Y-14444626D01*
X11515419Y-14435102D01*
X11505895Y-14416055D01*
X11496371Y-14377960D01*
X11496371Y-14330340D01*
X11505895Y-14292245D01*
X11515419Y-14273198D01*
X11524943Y-14263674D01*
X11543990Y-14254150D01*
X11791609Y-14254150D02*
X11696371Y-14254150D01*
X11686847Y-14349388D01*
X11696371Y-14339864D01*
X11715419Y-14330340D01*
X11763038Y-14330340D01*
X11782085Y-14339864D01*
X11791609Y-14349388D01*
X11801133Y-14368436D01*
X11801133Y-14416055D01*
X11791609Y-14435102D01*
X11782085Y-14444626D01*
X11763038Y-14454150D01*
X11715419Y-14454150D01*
X11696371Y-14444626D01*
X11686847Y-14435102D01*
X11991609Y-14454150D02*
X11877324Y-14454150D01*
X11934466Y-14454150D02*
X11934466Y-14254150D01*
X11915419Y-14282721D01*
X11896371Y-14301769D01*
X11877324Y-14311293D01*
X12115419Y-14254150D02*
X12134466Y-14254150D01*
X12153514Y-14263674D01*
X12163038Y-14273198D01*
X12172562Y-14292245D01*
X12182085Y-14330340D01*
X12182085Y-14377960D01*
X12172562Y-14416055D01*
X12163038Y-14435102D01*
X12153514Y-14444626D01*
X12134466Y-14454150D01*
X12115419Y-14454150D01*
X12096371Y-14444626D01*
X12086847Y-14435102D01*
X12077324Y-14416055D01*
X12067800Y-14377960D01*
X12067800Y-14330340D01*
X12077324Y-14292245D01*
X12086847Y-14273198D01*
X12096371Y-14263674D01*
X12115419Y-14254150D01*
X12258276Y-14254150D02*
X12258276Y-14292245D01*
X12334466Y-14254150D02*
X12334466Y-14292245D01*
X12629704Y-14530340D02*
X12620181Y-14520817D01*
X12601133Y-14492245D01*
X12591609Y-14473198D01*
X12582085Y-14444626D01*
X12572562Y-14397007D01*
X12572562Y-14358912D01*
X12582085Y-14311293D01*
X12591609Y-14282721D01*
X12601133Y-14263674D01*
X12620181Y-14235102D01*
X12629704Y-14225579D01*
X12801133Y-14254150D02*
X12705895Y-14254150D01*
X12696371Y-14349388D01*
X12705895Y-14339864D01*
X12724943Y-14330340D01*
X12772562Y-14330340D01*
X12791609Y-14339864D01*
X12801133Y-14349388D01*
X12810657Y-14368436D01*
X12810657Y-14416055D01*
X12801133Y-14435102D01*
X12791609Y-14444626D01*
X12772562Y-14454150D01*
X12724943Y-14454150D01*
X12705895Y-14444626D01*
X12696371Y-14435102D01*
X13048752Y-14454150D02*
X13048752Y-14254150D01*
X13134466Y-14454150D02*
X13134466Y-14349388D01*
X13124943Y-14330340D01*
X13105895Y-14320817D01*
X13077324Y-14320817D01*
X13058276Y-14330340D01*
X13048752Y-14339864D01*
X13258276Y-14454150D02*
X13239228Y-14444626D01*
X13229704Y-14435102D01*
X13220181Y-14416055D01*
X13220181Y-14358912D01*
X13229704Y-14339864D01*
X13239228Y-14330340D01*
X13258276Y-14320817D01*
X13286847Y-14320817D01*
X13305895Y-14330340D01*
X13315419Y-14339864D01*
X13324943Y-14358912D01*
X13324943Y-14416055D01*
X13315419Y-14435102D01*
X13305895Y-14444626D01*
X13286847Y-14454150D01*
X13258276Y-14454150D01*
X13439228Y-14454150D02*
X13420181Y-14444626D01*
X13410657Y-14425579D01*
X13410657Y-14254150D01*
X13591609Y-14444626D02*
X13572562Y-14454150D01*
X13534466Y-14454150D01*
X13515419Y-14444626D01*
X13505895Y-14425579D01*
X13505895Y-14349388D01*
X13515419Y-14330340D01*
X13534466Y-14320817D01*
X13572562Y-14320817D01*
X13591609Y-14330340D01*
X13601133Y-14349388D01*
X13601133Y-14368436D01*
X13505895Y-14387483D01*
X13677324Y-14444626D02*
X13696371Y-14454150D01*
X13734466Y-14454150D01*
X13753514Y-14444626D01*
X13763038Y-14425579D01*
X13763038Y-14416055D01*
X13753514Y-14397007D01*
X13734466Y-14387483D01*
X13705895Y-14387483D01*
X13686847Y-14377960D01*
X13677324Y-14358912D01*
X13677324Y-14349388D01*
X13686847Y-14330340D01*
X13705895Y-14320817D01*
X13734466Y-14320817D01*
X13753514Y-14330340D01*
X13829704Y-14530340D02*
X13839228Y-14520817D01*
X13858276Y-14492245D01*
X13867800Y-14473198D01*
X13877324Y-14444626D01*
X13886847Y-14397007D01*
X13886847Y-14358912D01*
X13877324Y-14311293D01*
X13867800Y-14282721D01*
X13858276Y-14263674D01*
X13839228Y-14235102D01*
X13829704Y-14225579D01*
D14*
X8977800Y-14547674D02*
X8977800Y-14707674D01*
X8897800Y-14627674D02*
X9057800Y-14627674D01*
D11*
X9420181Y-14718150D02*
X9305895Y-14718150D01*
X9363038Y-14718150D02*
X9363038Y-14518150D01*
X9343990Y-14546721D01*
X9324943Y-14565769D01*
X9305895Y-14575293D01*
X9505895Y-14699102D02*
X9515419Y-14708626D01*
X9505895Y-14718150D01*
X9496371Y-14708626D01*
X9505895Y-14699102D01*
X9505895Y-14718150D01*
X9686847Y-14518150D02*
X9648752Y-14518150D01*
X9629705Y-14527674D01*
X9620181Y-14537198D01*
X9601133Y-14565769D01*
X9591609Y-14603864D01*
X9591609Y-14680055D01*
X9601133Y-14699102D01*
X9610657Y-14708626D01*
X9629705Y-14718150D01*
X9667800Y-14718150D01*
X9686847Y-14708626D01*
X9696371Y-14699102D01*
X9705895Y-14680055D01*
X9705895Y-14632436D01*
X9696371Y-14613388D01*
X9686847Y-14603864D01*
X9667800Y-14594340D01*
X9629705Y-14594340D01*
X9610657Y-14603864D01*
X9601133Y-14613388D01*
X9591609Y-14632436D01*
X9829705Y-14518150D02*
X9848752Y-14518150D01*
X9867800Y-14527674D01*
X9877324Y-14537198D01*
X9886847Y-14556245D01*
X9896371Y-14594340D01*
X9896371Y-14641960D01*
X9886847Y-14680055D01*
X9877324Y-14699102D01*
X9867800Y-14708626D01*
X9848752Y-14718150D01*
X9829705Y-14718150D01*
X9810657Y-14708626D01*
X9801133Y-14699102D01*
X9791609Y-14680055D01*
X9782086Y-14641960D01*
X9782086Y-14594340D01*
X9791609Y-14556245D01*
X9801133Y-14537198D01*
X9810657Y-14527674D01*
X9829705Y-14518150D01*
X10020181Y-14518150D02*
X10039228Y-14518150D01*
X10058276Y-14527674D01*
X10067800Y-14537198D01*
X10077324Y-14556245D01*
X10086847Y-14594340D01*
X10086847Y-14641960D01*
X10077324Y-14680055D01*
X10067800Y-14699102D01*
X10058276Y-14708626D01*
X10039228Y-14718150D01*
X10020181Y-14718150D01*
X10001133Y-14708626D01*
X9991609Y-14699102D01*
X9982086Y-14680055D01*
X9972562Y-14641960D01*
X9972562Y-14594340D01*
X9982086Y-14556245D01*
X9991609Y-14537198D01*
X10001133Y-14527674D01*
X10020181Y-14518150D01*
X10172562Y-14718150D02*
X10172562Y-14584817D01*
X10172562Y-14603864D02*
X10182086Y-14594340D01*
X10201133Y-14584817D01*
X10229705Y-14584817D01*
X10248752Y-14594340D01*
X10258276Y-14613388D01*
X10258276Y-14718150D01*
X10258276Y-14613388D02*
X10267800Y-14594340D01*
X10286847Y-14584817D01*
X10315419Y-14584817D01*
X10334466Y-14594340D01*
X10343990Y-14613388D01*
X10343990Y-14718150D01*
X10439228Y-14718150D02*
X10439228Y-14584817D01*
X10439228Y-14603864D02*
X10448752Y-14594340D01*
X10467800Y-14584817D01*
X10496371Y-14584817D01*
X10515419Y-14594340D01*
X10524943Y-14613388D01*
X10524943Y-14718150D01*
X10524943Y-14613388D02*
X10534466Y-14594340D01*
X10553514Y-14584817D01*
X10582086Y-14584817D01*
X10601133Y-14594340D01*
X10610657Y-14613388D01*
X10610657Y-14718150D01*
X11001133Y-14508626D02*
X10829705Y-14765769D01*
X11258276Y-14518150D02*
X11277324Y-14518150D01*
X11296371Y-14527674D01*
X11305895Y-14537198D01*
X11315419Y-14556245D01*
X11324943Y-14594340D01*
X11324943Y-14641960D01*
X11315419Y-14680055D01*
X11305895Y-14699102D01*
X11296371Y-14708626D01*
X11277324Y-14718150D01*
X11258276Y-14718150D01*
X11239228Y-14708626D01*
X11229704Y-14699102D01*
X11220181Y-14680055D01*
X11210657Y-14641960D01*
X11210657Y-14594340D01*
X11220181Y-14556245D01*
X11229704Y-14537198D01*
X11239228Y-14527674D01*
X11258276Y-14518150D01*
X11410657Y-14699102D02*
X11420181Y-14708626D01*
X11410657Y-14718150D01*
X11401133Y-14708626D01*
X11410657Y-14699102D01*
X11410657Y-14718150D01*
X11543990Y-14518150D02*
X11563038Y-14518150D01*
X11582085Y-14527674D01*
X11591609Y-14537198D01*
X11601133Y-14556245D01*
X11610657Y-14594340D01*
X11610657Y-14641960D01*
X11601133Y-14680055D01*
X11591609Y-14699102D01*
X11582085Y-14708626D01*
X11563038Y-14718150D01*
X11543990Y-14718150D01*
X11524943Y-14708626D01*
X11515419Y-14699102D01*
X11505895Y-14680055D01*
X11496371Y-14641960D01*
X11496371Y-14594340D01*
X11505895Y-14556245D01*
X11515419Y-14537198D01*
X11524943Y-14527674D01*
X11543990Y-14518150D01*
X11782085Y-14518150D02*
X11743990Y-14518150D01*
X11724943Y-14527674D01*
X11715419Y-14537198D01*
X11696371Y-14565769D01*
X11686847Y-14603864D01*
X11686847Y-14680055D01*
X11696371Y-14699102D01*
X11705895Y-14708626D01*
X11724943Y-14718150D01*
X11763038Y-14718150D01*
X11782085Y-14708626D01*
X11791609Y-14699102D01*
X11801133Y-14680055D01*
X11801133Y-14632436D01*
X11791609Y-14613388D01*
X11782085Y-14603864D01*
X11763038Y-14594340D01*
X11724943Y-14594340D01*
X11705895Y-14603864D01*
X11696371Y-14613388D01*
X11686847Y-14632436D01*
X11867800Y-14518150D02*
X11991609Y-14518150D01*
X11924943Y-14594340D01*
X11953514Y-14594340D01*
X11972562Y-14603864D01*
X11982085Y-14613388D01*
X11991609Y-14632436D01*
X11991609Y-14680055D01*
X11982085Y-14699102D01*
X11972562Y-14708626D01*
X11953514Y-14718150D01*
X11896371Y-14718150D01*
X11877324Y-14708626D01*
X11867800Y-14699102D01*
X12115419Y-14518150D02*
X12134466Y-14518150D01*
X12153514Y-14527674D01*
X12163038Y-14537198D01*
X12172562Y-14556245D01*
X12182085Y-14594340D01*
X12182085Y-14641960D01*
X12172562Y-14680055D01*
X12163038Y-14699102D01*
X12153514Y-14708626D01*
X12134466Y-14718150D01*
X12115419Y-14718150D01*
X12096371Y-14708626D01*
X12086847Y-14699102D01*
X12077324Y-14680055D01*
X12067800Y-14641960D01*
X12067800Y-14594340D01*
X12077324Y-14556245D01*
X12086847Y-14537198D01*
X12096371Y-14527674D01*
X12115419Y-14518150D01*
X12258276Y-14518150D02*
X12258276Y-14556245D01*
X12334466Y-14518150D02*
X12334466Y-14556245D01*
X12629704Y-14794340D02*
X12620181Y-14784817D01*
X12601133Y-14756245D01*
X12591609Y-14737198D01*
X12582085Y-14708626D01*
X12572562Y-14661007D01*
X12572562Y-14622912D01*
X12582085Y-14575293D01*
X12591609Y-14546721D01*
X12601133Y-14527674D01*
X12620181Y-14499102D01*
X12629704Y-14489579D01*
X12686847Y-14518150D02*
X12810657Y-14518150D01*
X12743990Y-14594340D01*
X12772562Y-14594340D01*
X12791609Y-14603864D01*
X12801133Y-14613388D01*
X12810657Y-14632436D01*
X12810657Y-14680055D01*
X12801133Y-14699102D01*
X12791609Y-14708626D01*
X12772562Y-14718150D01*
X12715419Y-14718150D01*
X12696371Y-14708626D01*
X12686847Y-14699102D01*
X12982085Y-14518150D02*
X12943990Y-14518150D01*
X12924943Y-14527674D01*
X12915419Y-14537198D01*
X12896371Y-14565769D01*
X12886847Y-14603864D01*
X12886847Y-14680055D01*
X12896371Y-14699102D01*
X12905895Y-14708626D01*
X12924943Y-14718150D01*
X12963038Y-14718150D01*
X12982085Y-14708626D01*
X12991609Y-14699102D01*
X13001133Y-14680055D01*
X13001133Y-14632436D01*
X12991609Y-14613388D01*
X12982085Y-14603864D01*
X12963038Y-14594340D01*
X12924943Y-14594340D01*
X12905895Y-14603864D01*
X12896371Y-14613388D01*
X12886847Y-14632436D01*
X13239228Y-14718150D02*
X13239228Y-14518150D01*
X13324943Y-14718150D02*
X13324943Y-14613388D01*
X13315419Y-14594340D01*
X13296371Y-14584817D01*
X13267800Y-14584817D01*
X13248752Y-14594340D01*
X13239228Y-14603864D01*
X13448752Y-14718150D02*
X13429704Y-14708626D01*
X13420181Y-14699102D01*
X13410657Y-14680055D01*
X13410657Y-14622912D01*
X13420181Y-14603864D01*
X13429704Y-14594340D01*
X13448752Y-14584817D01*
X13477324Y-14584817D01*
X13496371Y-14594340D01*
X13505895Y-14603864D01*
X13515419Y-14622912D01*
X13515419Y-14680055D01*
X13505895Y-14699102D01*
X13496371Y-14708626D01*
X13477324Y-14718150D01*
X13448752Y-14718150D01*
X13629704Y-14718150D02*
X13610657Y-14708626D01*
X13601133Y-14689579D01*
X13601133Y-14518150D01*
X13782085Y-14708626D02*
X13763038Y-14718150D01*
X13724943Y-14718150D01*
X13705895Y-14708626D01*
X13696371Y-14689579D01*
X13696371Y-14613388D01*
X13705895Y-14594340D01*
X13724943Y-14584817D01*
X13763038Y-14584817D01*
X13782085Y-14594340D01*
X13791609Y-14613388D01*
X13791609Y-14632436D01*
X13696371Y-14651483D01*
X13867800Y-14708626D02*
X13886847Y-14718150D01*
X13924943Y-14718150D01*
X13943990Y-14708626D01*
X13953514Y-14689579D01*
X13953514Y-14680055D01*
X13943990Y-14661007D01*
X13924943Y-14651483D01*
X13896371Y-14651483D01*
X13877324Y-14641960D01*
X13867800Y-14622912D01*
X13867800Y-14613388D01*
X13877324Y-14594340D01*
X13896371Y-14584817D01*
X13924943Y-14584817D01*
X13943990Y-14594340D01*
X14020181Y-14794340D02*
X14029704Y-14784817D01*
X14048752Y-14756245D01*
X14058276Y-14737198D01*
X14067800Y-14708626D01*
X14077324Y-14661007D01*
X14077324Y-14622912D01*
X14067800Y-14575293D01*
X14058276Y-14546721D01*
X14048752Y-14527674D01*
X14029704Y-14499102D01*
X14020181Y-14489579D01*
X9028511Y-14978385D02*
X9028511Y-14836962D01*
X8887088Y-14836962D01*
X8887088Y-14978385D01*
X9028511Y-14978385D01*
X9296371Y-14798150D02*
X9420181Y-14798150D01*
X9353514Y-14874340D01*
X9382086Y-14874340D01*
X9401133Y-14883864D01*
X9410657Y-14893388D01*
X9420181Y-14912436D01*
X9420181Y-14960055D01*
X9410657Y-14979102D01*
X9401133Y-14988626D01*
X9382086Y-14998150D01*
X9324943Y-14998150D01*
X9305895Y-14988626D01*
X9296371Y-14979102D01*
X9505895Y-14979102D02*
X9515419Y-14988626D01*
X9505895Y-14998150D01*
X9496371Y-14988626D01*
X9505895Y-14979102D01*
X9505895Y-14998150D01*
X9591609Y-14817198D02*
X9601133Y-14807674D01*
X9620181Y-14798150D01*
X9667800Y-14798150D01*
X9686847Y-14807674D01*
X9696371Y-14817198D01*
X9705895Y-14836245D01*
X9705895Y-14855293D01*
X9696371Y-14883864D01*
X9582086Y-14998150D01*
X9705895Y-14998150D01*
X9829705Y-14798150D02*
X9848752Y-14798150D01*
X9867800Y-14807674D01*
X9877324Y-14817198D01*
X9886847Y-14836245D01*
X9896371Y-14874340D01*
X9896371Y-14921960D01*
X9886847Y-14960055D01*
X9877324Y-14979102D01*
X9867800Y-14988626D01*
X9848752Y-14998150D01*
X9829705Y-14998150D01*
X9810657Y-14988626D01*
X9801133Y-14979102D01*
X9791609Y-14960055D01*
X9782086Y-14921960D01*
X9782086Y-14874340D01*
X9791609Y-14836245D01*
X9801133Y-14817198D01*
X9810657Y-14807674D01*
X9829705Y-14798150D01*
X10020181Y-14798150D02*
X10039228Y-14798150D01*
X10058276Y-14807674D01*
X10067800Y-14817198D01*
X10077324Y-14836245D01*
X10086847Y-14874340D01*
X10086847Y-14921960D01*
X10077324Y-14960055D01*
X10067800Y-14979102D01*
X10058276Y-14988626D01*
X10039228Y-14998150D01*
X10020181Y-14998150D01*
X10001133Y-14988626D01*
X9991609Y-14979102D01*
X9982086Y-14960055D01*
X9972562Y-14921960D01*
X9972562Y-14874340D01*
X9982086Y-14836245D01*
X9991609Y-14817198D01*
X10001133Y-14807674D01*
X10020181Y-14798150D01*
X10172562Y-14998150D02*
X10172562Y-14864817D01*
X10172562Y-14883864D02*
X10182086Y-14874340D01*
X10201133Y-14864817D01*
X10229705Y-14864817D01*
X10248752Y-14874340D01*
X10258276Y-14893388D01*
X10258276Y-14998150D01*
X10258276Y-14893388D02*
X10267800Y-14874340D01*
X10286847Y-14864817D01*
X10315419Y-14864817D01*
X10334466Y-14874340D01*
X10343990Y-14893388D01*
X10343990Y-14998150D01*
X10439228Y-14998150D02*
X10439228Y-14864817D01*
X10439228Y-14883864D02*
X10448752Y-14874340D01*
X10467800Y-14864817D01*
X10496371Y-14864817D01*
X10515419Y-14874340D01*
X10524943Y-14893388D01*
X10524943Y-14998150D01*
X10524943Y-14893388D02*
X10534466Y-14874340D01*
X10553514Y-14864817D01*
X10582086Y-14864817D01*
X10601133Y-14874340D01*
X10610657Y-14893388D01*
X10610657Y-14998150D01*
X11001133Y-14788626D02*
X10829705Y-15045769D01*
X11258276Y-14798150D02*
X11277324Y-14798150D01*
X11296371Y-14807674D01*
X11305895Y-14817198D01*
X11315419Y-14836245D01*
X11324943Y-14874340D01*
X11324943Y-14921960D01*
X11315419Y-14960055D01*
X11305895Y-14979102D01*
X11296371Y-14988626D01*
X11277324Y-14998150D01*
X11258276Y-14998150D01*
X11239228Y-14988626D01*
X11229704Y-14979102D01*
X11220181Y-14960055D01*
X11210657Y-14921960D01*
X11210657Y-14874340D01*
X11220181Y-14836245D01*
X11229704Y-14817198D01*
X11239228Y-14807674D01*
X11258276Y-14798150D01*
X11410657Y-14979102D02*
X11420181Y-14988626D01*
X11410657Y-14998150D01*
X11401133Y-14988626D01*
X11410657Y-14979102D01*
X11410657Y-14998150D01*
X11610657Y-14998150D02*
X11496371Y-14998150D01*
X11553514Y-14998150D02*
X11553514Y-14798150D01*
X11534466Y-14826721D01*
X11515419Y-14845769D01*
X11496371Y-14855293D01*
X11686847Y-14817198D02*
X11696371Y-14807674D01*
X11715419Y-14798150D01*
X11763038Y-14798150D01*
X11782085Y-14807674D01*
X11791609Y-14817198D01*
X11801133Y-14836245D01*
X11801133Y-14855293D01*
X11791609Y-14883864D01*
X11677324Y-14998150D01*
X11801133Y-14998150D01*
X11972562Y-14798150D02*
X11934466Y-14798150D01*
X11915419Y-14807674D01*
X11905895Y-14817198D01*
X11886847Y-14845769D01*
X11877324Y-14883864D01*
X11877324Y-14960055D01*
X11886847Y-14979102D01*
X11896371Y-14988626D01*
X11915419Y-14998150D01*
X11953514Y-14998150D01*
X11972562Y-14988626D01*
X11982085Y-14979102D01*
X11991609Y-14960055D01*
X11991609Y-14912436D01*
X11982085Y-14893388D01*
X11972562Y-14883864D01*
X11953514Y-14874340D01*
X11915419Y-14874340D01*
X11896371Y-14883864D01*
X11886847Y-14893388D01*
X11877324Y-14912436D01*
X12115419Y-14798150D02*
X12134466Y-14798150D01*
X12153514Y-14807674D01*
X12163038Y-14817198D01*
X12172562Y-14836245D01*
X12182085Y-14874340D01*
X12182085Y-14921960D01*
X12172562Y-14960055D01*
X12163038Y-14979102D01*
X12153514Y-14988626D01*
X12134466Y-14998150D01*
X12115419Y-14998150D01*
X12096371Y-14988626D01*
X12086847Y-14979102D01*
X12077324Y-14960055D01*
X12067800Y-14921960D01*
X12067800Y-14874340D01*
X12077324Y-14836245D01*
X12086847Y-14817198D01*
X12096371Y-14807674D01*
X12115419Y-14798150D01*
X12258276Y-14798150D02*
X12258276Y-14836245D01*
X12334466Y-14798150D02*
X12334466Y-14836245D01*
X12629704Y-15074340D02*
X12620181Y-15064817D01*
X12601133Y-15036245D01*
X12591609Y-15017198D01*
X12582085Y-14988626D01*
X12572562Y-14941007D01*
X12572562Y-14902912D01*
X12582085Y-14855293D01*
X12591609Y-14826721D01*
X12601133Y-14807674D01*
X12620181Y-14779102D01*
X12629704Y-14769579D01*
X12791609Y-14864817D02*
X12791609Y-14998150D01*
X12743990Y-14788626D02*
X12696371Y-14931483D01*
X12820181Y-14931483D01*
X13048752Y-14998150D02*
X13048752Y-14798150D01*
X13134466Y-14998150D02*
X13134466Y-14893388D01*
X13124943Y-14874340D01*
X13105895Y-14864817D01*
X13077324Y-14864817D01*
X13058276Y-14874340D01*
X13048752Y-14883864D01*
X13258276Y-14998150D02*
X13239228Y-14988626D01*
X13229704Y-14979102D01*
X13220181Y-14960055D01*
X13220181Y-14902912D01*
X13229704Y-14883864D01*
X13239228Y-14874340D01*
X13258276Y-14864817D01*
X13286847Y-14864817D01*
X13305895Y-14874340D01*
X13315419Y-14883864D01*
X13324943Y-14902912D01*
X13324943Y-14960055D01*
X13315419Y-14979102D01*
X13305895Y-14988626D01*
X13286847Y-14998150D01*
X13258276Y-14998150D01*
X13439228Y-14998150D02*
X13420181Y-14988626D01*
X13410657Y-14969579D01*
X13410657Y-14798150D01*
X13591609Y-14988626D02*
X13572562Y-14998150D01*
X13534466Y-14998150D01*
X13515419Y-14988626D01*
X13505895Y-14969579D01*
X13505895Y-14893388D01*
X13515419Y-14874340D01*
X13534466Y-14864817D01*
X13572562Y-14864817D01*
X13591609Y-14874340D01*
X13601133Y-14893388D01*
X13601133Y-14912436D01*
X13505895Y-14931483D01*
X13677324Y-14988626D02*
X13696371Y-14998150D01*
X13734466Y-14998150D01*
X13753514Y-14988626D01*
X13763038Y-14969579D01*
X13763038Y-14960055D01*
X13753514Y-14941007D01*
X13734466Y-14931483D01*
X13705895Y-14931483D01*
X13686847Y-14921960D01*
X13677324Y-14902912D01*
X13677324Y-14893388D01*
X13686847Y-14874340D01*
X13705895Y-14864817D01*
X13734466Y-14864817D01*
X13753514Y-14874340D01*
X13829704Y-15074340D02*
X13839228Y-15064817D01*
X13858276Y-15036245D01*
X13867800Y-15017198D01*
X13877324Y-14988626D01*
X13886847Y-14941007D01*
X13886847Y-14902912D01*
X13877324Y-14855293D01*
X13867800Y-14826721D01*
X13858276Y-14807674D01*
X13839228Y-14779102D01*
X13829704Y-14769579D01*
M02*
