%TF.GenerationSoftware,KiCad,Pcbnew,(6.0.10)*%
%TF.CreationDate,2023-01-26T21:48:15-05:00*%
%TF.ProjectId,Connectors,436f6e6e-6563-4746-9f72-732e6b696361,rev?*%
%TF.SameCoordinates,Original*%
%TF.FileFunction,Drillmap*%
%TF.FilePolarity,Positive*%
%FSLAX45Y45*%
G04 Gerber Fmt 4.5, Leading zero omitted, Abs format (unit mm)*
G04 Created by KiCad (PCBNEW (6.0.10)) date 2023-01-26 21:48:15*
%MOMM*%
%LPD*%
G01*
G04 APERTURE LIST*
%ADD10C,0.100000*%
%ADD11C,0.200000*%
G04 APERTURE END LIST*
D10*
X9067800Y-6882652D02*
X9067800Y-13144874D01*
X18529674Y-6590926D02*
X9372600Y-6577852D01*
D11*
X9372600Y-6577850D02*
G75*
G03*
X9067800Y-6882652I0J-304800D01*
G01*
D10*
X18834474Y-13144874D02*
X18834474Y-6895726D01*
D11*
X9067796Y-13144874D02*
G75*
G03*
X9372600Y-13449674I304804J4D01*
G01*
X18529674Y-13449674D02*
G75*
G03*
X18834474Y-13144874I-4J304804D01*
G01*
D10*
X18529674Y-13449674D02*
X9372600Y-13449674D01*
D11*
X18834474Y-6895726D02*
G75*
G03*
X18529674Y-6590926I-304804J-4D01*
G01*
X9315419Y-13770150D02*
X9315419Y-13570150D01*
X9363038Y-13570150D01*
X9391609Y-13579674D01*
X9410657Y-13598721D01*
X9420181Y-13617769D01*
X9429705Y-13655864D01*
X9429705Y-13684436D01*
X9420181Y-13722531D01*
X9410657Y-13741579D01*
X9391609Y-13760626D01*
X9363038Y-13770150D01*
X9315419Y-13770150D01*
X9515419Y-13770150D02*
X9515419Y-13636817D01*
X9515419Y-13674912D02*
X9524943Y-13655864D01*
X9534466Y-13646340D01*
X9553514Y-13636817D01*
X9572562Y-13636817D01*
X9639228Y-13770150D02*
X9639228Y-13636817D01*
X9639228Y-13570150D02*
X9629705Y-13579674D01*
X9639228Y-13589198D01*
X9648752Y-13579674D01*
X9639228Y-13570150D01*
X9639228Y-13589198D01*
X9763038Y-13770150D02*
X9743990Y-13760626D01*
X9734466Y-13741579D01*
X9734466Y-13570150D01*
X9867800Y-13770150D02*
X9848752Y-13760626D01*
X9839228Y-13741579D01*
X9839228Y-13570150D01*
X10096371Y-13770150D02*
X10096371Y-13570150D01*
X10163038Y-13713007D01*
X10229705Y-13570150D01*
X10229705Y-13770150D01*
X10410657Y-13770150D02*
X10410657Y-13665388D01*
X10401133Y-13646340D01*
X10382086Y-13636817D01*
X10343990Y-13636817D01*
X10324943Y-13646340D01*
X10410657Y-13760626D02*
X10391609Y-13770150D01*
X10343990Y-13770150D01*
X10324943Y-13760626D01*
X10315419Y-13741579D01*
X10315419Y-13722531D01*
X10324943Y-13703483D01*
X10343990Y-13693960D01*
X10391609Y-13693960D01*
X10410657Y-13684436D01*
X10505895Y-13636817D02*
X10505895Y-13836817D01*
X10505895Y-13646340D02*
X10524943Y-13636817D01*
X10563038Y-13636817D01*
X10582086Y-13646340D01*
X10591609Y-13655864D01*
X10601133Y-13674912D01*
X10601133Y-13732055D01*
X10591609Y-13751102D01*
X10582086Y-13760626D01*
X10563038Y-13770150D01*
X10524943Y-13770150D01*
X10505895Y-13760626D01*
X10686847Y-13751102D02*
X10696371Y-13760626D01*
X10686847Y-13770150D01*
X10677324Y-13760626D01*
X10686847Y-13751102D01*
X10686847Y-13770150D01*
X10686847Y-13646340D02*
X10696371Y-13655864D01*
X10686847Y-13665388D01*
X10677324Y-13655864D01*
X10686847Y-13646340D01*
X10686847Y-13665388D01*
M02*
