G04 #@! TF.GenerationSoftware,KiCad,Pcbnew,(6.0.10)*
G04 #@! TF.CreationDate,2023-01-26T21:48:12-05:00*
G04 #@! TF.ProjectId,Connectors,436f6e6e-6563-4746-9f72-732e6b696361,rev?*
G04 #@! TF.SameCoordinates,Original*
G04 #@! TF.FileFunction,Legend,Top*
G04 #@! TF.FilePolarity,Positive*
%FSLAX46Y46*%
G04 Gerber Fmt 4.6, Leading zero omitted, Abs format (unit mm)*
G04 Created by KiCad (PCBNEW (6.0.10)) date 2023-01-26 21:48:12*
%MOMM*%
%LPD*%
G01*
G04 APERTURE LIST*
%ADD10C,0.300000*%
%ADD11C,0.150000*%
%ADD12C,0.127000*%
%ADD13C,0.120000*%
%ADD14C,0.010000*%
%ADD15R,2.400000X2.400000*%
%ADD16C,2.400000*%
%ADD17R,1.803400X1.803400*%
%ADD18C,1.803400*%
%ADD19C,6.400000*%
%ADD20R,2.030000X1.730000*%
%ADD21O,2.030000X1.730000*%
G04 APERTURE END LIST*
D10*
X130407142Y-101600000D02*
X130407142Y-100457142D01*
X130978571Y-101028571D02*
X129835714Y-101028571D01*
X130978571Y-98957142D02*
X130978571Y-99814285D01*
X130978571Y-99385714D02*
X129478571Y-99385714D01*
X129692857Y-99528571D01*
X129835714Y-99671428D01*
X129907142Y-99814285D01*
X129621428Y-98385714D02*
X129550000Y-98314285D01*
X129478571Y-98171428D01*
X129478571Y-97814285D01*
X129550000Y-97671428D01*
X129621428Y-97600000D01*
X129764285Y-97528571D01*
X129907142Y-97528571D01*
X130121428Y-97600000D01*
X130978571Y-98457142D01*
X130978571Y-97528571D01*
X153357142Y-73409524D02*
X153357142Y-72266666D01*
X153928571Y-72838095D02*
X152785714Y-72838095D01*
X152571428Y-71623809D02*
X152500000Y-71552381D01*
X152428571Y-71409524D01*
X152428571Y-71052381D01*
X152500000Y-70909524D01*
X152571428Y-70838095D01*
X152714285Y-70766666D01*
X152857142Y-70766666D01*
X153071428Y-70838095D01*
X153928571Y-71695238D01*
X153928571Y-70766666D01*
X152928571Y-69480952D02*
X153928571Y-69480952D01*
X152357142Y-69838095D02*
X153428571Y-70195238D01*
X153428571Y-69266666D01*
X153357142Y-83961904D02*
X153357142Y-82819047D01*
X153928571Y-83390475D02*
X152785714Y-83390475D01*
X152428571Y-81390475D02*
X152428571Y-82104761D01*
X153142857Y-82176190D01*
X153071428Y-82104761D01*
X153000000Y-81961904D01*
X153000000Y-81604761D01*
X153071428Y-81461904D01*
X153142857Y-81390475D01*
X153285714Y-81319047D01*
X153642857Y-81319047D01*
X153785714Y-81390475D01*
X153857142Y-81461904D01*
X153928571Y-81604761D01*
X153928571Y-81961904D01*
X153857142Y-82104761D01*
X153785714Y-82176190D01*
X130457142Y-123600000D02*
X130457142Y-122457142D01*
X131028571Y-123028571D02*
X129885714Y-123028571D01*
X131028571Y-120957142D02*
X131028571Y-121814285D01*
X131028571Y-121385714D02*
X129528571Y-121385714D01*
X129742857Y-121528571D01*
X129885714Y-121671428D01*
X129957142Y-121814285D01*
X129671428Y-120385714D02*
X129600000Y-120314285D01*
X129528571Y-120171428D01*
X129528571Y-119814285D01*
X129600000Y-119671428D01*
X129671428Y-119600000D01*
X129814285Y-119528571D01*
X129957142Y-119528571D01*
X130171428Y-119600000D01*
X131028571Y-120457142D01*
X131028571Y-119528571D01*
X176957142Y-79440476D02*
X176957142Y-78297618D01*
X177528571Y-78869047D02*
X176385714Y-78869047D01*
X177528571Y-76797618D02*
X177528571Y-77654761D01*
X177528571Y-77226190D02*
X176028571Y-77226190D01*
X176242857Y-77369047D01*
X176385714Y-77511904D01*
X176457142Y-77654761D01*
X176171428Y-76226190D02*
X176100000Y-76154761D01*
X176028571Y-76011904D01*
X176028571Y-75654761D01*
X176100000Y-75511904D01*
X176171428Y-75440476D01*
X176314285Y-75369047D01*
X176457142Y-75369047D01*
X176671428Y-75440476D01*
X177528571Y-76297618D01*
X177528571Y-75369047D01*
X129178571Y-86230952D02*
X129178571Y-86088095D01*
X129250000Y-85945238D01*
X129321428Y-85873809D01*
X129464285Y-85802381D01*
X129750000Y-85730952D01*
X130107142Y-85730952D01*
X130392857Y-85802381D01*
X130535714Y-85873809D01*
X130607142Y-85945238D01*
X130678571Y-86088095D01*
X130678571Y-86230952D01*
X130607142Y-86373809D01*
X130535714Y-86445238D01*
X130392857Y-86516666D01*
X130107142Y-86588095D01*
X129750000Y-86588095D01*
X129464285Y-86516666D01*
X129321428Y-86445238D01*
X129250000Y-86373809D01*
X129178571Y-86230952D01*
X130457142Y-128161904D02*
X130457142Y-127019047D01*
X131028571Y-127590475D02*
X129885714Y-127590475D01*
X129528571Y-125590475D02*
X129528571Y-126304761D01*
X130242857Y-126376190D01*
X130171428Y-126304761D01*
X130100000Y-126161904D01*
X130100000Y-125804761D01*
X130171428Y-125661904D01*
X130242857Y-125590475D01*
X130385714Y-125519047D01*
X130742857Y-125519047D01*
X130885714Y-125590475D01*
X130957142Y-125661904D01*
X131028571Y-125804761D01*
X131028571Y-126161904D01*
X130957142Y-126304761D01*
X130885714Y-126376190D01*
X93792857Y-95114285D02*
X93792857Y-96257142D01*
X93221428Y-95685714D02*
X94364285Y-95685714D01*
X94721428Y-97685714D02*
X94721428Y-96971428D01*
X94007142Y-96900000D01*
X94078571Y-96971428D01*
X94150000Y-97114285D01*
X94150000Y-97471428D01*
X94078571Y-97614285D01*
X94007142Y-97685714D01*
X93864285Y-97757142D01*
X93507142Y-97757142D01*
X93364285Y-97685714D01*
X93292857Y-97614285D01*
X93221428Y-97471428D01*
X93221428Y-97114285D01*
X93292857Y-96971428D01*
X93364285Y-96900000D01*
X177057142Y-128161904D02*
X177057142Y-127019047D01*
X177628571Y-127590475D02*
X176485714Y-127590475D01*
X176128571Y-125590475D02*
X176128571Y-126304761D01*
X176842857Y-126376190D01*
X176771428Y-126304761D01*
X176700000Y-126161904D01*
X176700000Y-125804761D01*
X176771428Y-125661904D01*
X176842857Y-125590475D01*
X176985714Y-125519047D01*
X177342857Y-125519047D01*
X177485714Y-125590475D01*
X177557142Y-125661904D01*
X177628571Y-125804761D01*
X177628571Y-126161904D01*
X177557142Y-126304761D01*
X177485714Y-126376190D01*
X93842857Y-104350000D02*
X93842857Y-105492857D01*
X93271428Y-104921428D02*
X94414285Y-104921428D01*
X94628571Y-106135714D02*
X94700000Y-106207142D01*
X94771428Y-106350000D01*
X94771428Y-106707142D01*
X94700000Y-106850000D01*
X94628571Y-106921428D01*
X94485714Y-106992857D01*
X94342857Y-106992857D01*
X94128571Y-106921428D01*
X93271428Y-106064285D01*
X93271428Y-106992857D01*
X94271428Y-108278571D02*
X93271428Y-108278571D01*
X94842857Y-107921428D02*
X93771428Y-107564285D01*
X93771428Y-108492857D01*
X153207142Y-123750000D02*
X153207142Y-122607142D01*
X153778571Y-123178571D02*
X152635714Y-123178571D01*
X153778571Y-121107142D02*
X153778571Y-121964285D01*
X153778571Y-121535714D02*
X152278571Y-121535714D01*
X152492857Y-121678571D01*
X152635714Y-121821428D01*
X152707142Y-121964285D01*
X152421428Y-120535714D02*
X152350000Y-120464285D01*
X152278571Y-120321428D01*
X152278571Y-119964285D01*
X152350000Y-119821428D01*
X152421428Y-119750000D01*
X152564285Y-119678571D01*
X152707142Y-119678571D01*
X152921428Y-119750000D01*
X153778571Y-120607142D01*
X153778571Y-119678571D01*
X153407142Y-95559524D02*
X153407142Y-94416666D01*
X153978571Y-94988095D02*
X152835714Y-94988095D01*
X152621428Y-93773809D02*
X152550000Y-93702381D01*
X152478571Y-93559524D01*
X152478571Y-93202381D01*
X152550000Y-93059524D01*
X152621428Y-92988095D01*
X152764285Y-92916666D01*
X152907142Y-92916666D01*
X153121428Y-92988095D01*
X153978571Y-93845238D01*
X153978571Y-92916666D01*
X152978571Y-91630952D02*
X153978571Y-91630952D01*
X152407142Y-91988095D02*
X153478571Y-92345238D01*
X153478571Y-91416666D01*
X129478571Y-108580952D02*
X129478571Y-108438095D01*
X129550000Y-108295238D01*
X129621428Y-108223809D01*
X129764285Y-108152381D01*
X130050000Y-108080952D01*
X130407142Y-108080952D01*
X130692857Y-108152381D01*
X130835714Y-108223809D01*
X130907142Y-108295238D01*
X130978571Y-108438095D01*
X130978571Y-108580952D01*
X130907142Y-108723809D01*
X130835714Y-108795238D01*
X130692857Y-108866666D01*
X130407142Y-108938095D01*
X130050000Y-108938095D01*
X129764285Y-108866666D01*
X129621428Y-108795238D01*
X129550000Y-108723809D01*
X129478571Y-108580952D01*
X176957142Y-105811904D02*
X176957142Y-104669047D01*
X177528571Y-105240475D02*
X176385714Y-105240475D01*
X176028571Y-103240475D02*
X176028571Y-103954761D01*
X176742857Y-104026190D01*
X176671428Y-103954761D01*
X176600000Y-103811904D01*
X176600000Y-103454761D01*
X176671428Y-103311904D01*
X176742857Y-103240475D01*
X176885714Y-103169047D01*
X177242857Y-103169047D01*
X177385714Y-103240475D01*
X177457142Y-103311904D01*
X177528571Y-103454761D01*
X177528571Y-103811904D01*
X177457142Y-103954761D01*
X177385714Y-104026190D01*
X130457142Y-117609524D02*
X130457142Y-116466666D01*
X131028571Y-117038095D02*
X129885714Y-117038095D01*
X129671428Y-115823809D02*
X129600000Y-115752381D01*
X129528571Y-115609524D01*
X129528571Y-115252381D01*
X129600000Y-115109524D01*
X129671428Y-115038095D01*
X129814285Y-114966666D01*
X129957142Y-114966666D01*
X130171428Y-115038095D01*
X131028571Y-115895238D01*
X131028571Y-114966666D01*
X130028571Y-113680952D02*
X131028571Y-113680952D01*
X129457142Y-114038095D02*
X130528571Y-114395238D01*
X130528571Y-113466666D01*
X130407142Y-95609524D02*
X130407142Y-94466666D01*
X130978571Y-95038095D02*
X129835714Y-95038095D01*
X129621428Y-93823809D02*
X129550000Y-93752381D01*
X129478571Y-93609524D01*
X129478571Y-93252381D01*
X129550000Y-93109524D01*
X129621428Y-93038095D01*
X129764285Y-92966666D01*
X129907142Y-92966666D01*
X130121428Y-93038095D01*
X130978571Y-93895238D01*
X130978571Y-92966666D01*
X129978571Y-91680952D02*
X130978571Y-91680952D01*
X129407142Y-92038095D02*
X130478571Y-92395238D01*
X130478571Y-91466666D01*
X94671428Y-101278571D02*
X94671428Y-101421428D01*
X94600000Y-101564285D01*
X94528571Y-101635714D01*
X94385714Y-101707142D01*
X94100000Y-101778571D01*
X93742857Y-101778571D01*
X93457142Y-101707142D01*
X93314285Y-101635714D01*
X93242857Y-101564285D01*
X93171428Y-101421428D01*
X93171428Y-101278571D01*
X93242857Y-101135714D01*
X93314285Y-101064285D01*
X93457142Y-100992857D01*
X93742857Y-100921428D01*
X94100000Y-100921428D01*
X94385714Y-100992857D01*
X94528571Y-101064285D01*
X94600000Y-101135714D01*
X94671428Y-101278571D01*
X153407142Y-106111904D02*
X153407142Y-104969047D01*
X153978571Y-105540475D02*
X152835714Y-105540475D01*
X152478571Y-103540475D02*
X152478571Y-104254761D01*
X153192857Y-104326190D01*
X153121428Y-104254761D01*
X153050000Y-104111904D01*
X153050000Y-103754761D01*
X153121428Y-103611904D01*
X153192857Y-103540475D01*
X153335714Y-103469047D01*
X153692857Y-103469047D01*
X153835714Y-103540475D01*
X153907142Y-103611904D01*
X153978571Y-103754761D01*
X153978571Y-104111904D01*
X153907142Y-104254761D01*
X153835714Y-104326190D01*
X176028571Y-108230952D02*
X176028571Y-108088095D01*
X176100000Y-107945238D01*
X176171428Y-107873809D01*
X176314285Y-107802381D01*
X176600000Y-107730952D01*
X176957142Y-107730952D01*
X177242857Y-107802381D01*
X177385714Y-107873809D01*
X177457142Y-107945238D01*
X177528571Y-108088095D01*
X177528571Y-108230952D01*
X177457142Y-108373809D01*
X177385714Y-108445238D01*
X177242857Y-108516666D01*
X176957142Y-108588095D01*
X176600000Y-108588095D01*
X176314285Y-108516666D01*
X176171428Y-108445238D01*
X176100000Y-108373809D01*
X176028571Y-108230952D01*
X152278571Y-130730952D02*
X152278571Y-130588095D01*
X152350000Y-130445238D01*
X152421428Y-130373809D01*
X152564285Y-130302381D01*
X152850000Y-130230952D01*
X153207142Y-130230952D01*
X153492857Y-130302381D01*
X153635714Y-130373809D01*
X153707142Y-130445238D01*
X153778571Y-130588095D01*
X153778571Y-130730952D01*
X153707142Y-130873809D01*
X153635714Y-130945238D01*
X153492857Y-131016666D01*
X153207142Y-131088095D01*
X152850000Y-131088095D01*
X152564285Y-131016666D01*
X152421428Y-130945238D01*
X152350000Y-130873809D01*
X152278571Y-130730952D01*
X130407142Y-106161904D02*
X130407142Y-105019047D01*
X130978571Y-105590475D02*
X129835714Y-105590475D01*
X129478571Y-103590475D02*
X129478571Y-104304761D01*
X130192857Y-104376190D01*
X130121428Y-104304761D01*
X130050000Y-104161904D01*
X130050000Y-103804761D01*
X130121428Y-103661904D01*
X130192857Y-103590475D01*
X130335714Y-103519047D01*
X130692857Y-103519047D01*
X130835714Y-103590475D01*
X130907142Y-103661904D01*
X130978571Y-103804761D01*
X130978571Y-104161904D01*
X130907142Y-104304761D01*
X130835714Y-104376190D01*
X177057142Y-117609524D02*
X177057142Y-116466666D01*
X177628571Y-117038095D02*
X176485714Y-117038095D01*
X176271428Y-115823809D02*
X176200000Y-115752381D01*
X176128571Y-115609524D01*
X176128571Y-115252381D01*
X176200000Y-115109524D01*
X176271428Y-115038095D01*
X176414285Y-114966666D01*
X176557142Y-114966666D01*
X176771428Y-115038095D01*
X177628571Y-115895238D01*
X177628571Y-114966666D01*
X176628571Y-113680952D02*
X177628571Y-113680952D01*
X176057142Y-114038095D02*
X177128571Y-114395238D01*
X177128571Y-113466666D01*
X130107142Y-83811904D02*
X130107142Y-82669047D01*
X130678571Y-83240475D02*
X129535714Y-83240475D01*
X129178571Y-81240475D02*
X129178571Y-81954761D01*
X129892857Y-82026190D01*
X129821428Y-81954761D01*
X129750000Y-81811904D01*
X129750000Y-81454761D01*
X129821428Y-81311904D01*
X129892857Y-81240475D01*
X130035714Y-81169047D01*
X130392857Y-81169047D01*
X130535714Y-81240475D01*
X130607142Y-81311904D01*
X130678571Y-81454761D01*
X130678571Y-81811904D01*
X130607142Y-81954761D01*
X130535714Y-82026190D01*
X176957142Y-73450000D02*
X176957142Y-72307142D01*
X177528571Y-72878571D02*
X176385714Y-72878571D01*
X176171428Y-71664285D02*
X176100000Y-71592857D01*
X176028571Y-71450000D01*
X176028571Y-71092857D01*
X176100000Y-70950000D01*
X176171428Y-70878571D01*
X176314285Y-70807142D01*
X176457142Y-70807142D01*
X176671428Y-70878571D01*
X177528571Y-71735714D01*
X177528571Y-70807142D01*
X176528571Y-69521428D02*
X177528571Y-69521428D01*
X175957142Y-69878571D02*
X177028571Y-70235714D01*
X177028571Y-69307142D01*
X176957142Y-101250000D02*
X176957142Y-100107142D01*
X177528571Y-100678571D02*
X176385714Y-100678571D01*
X177528571Y-98607142D02*
X177528571Y-99464285D01*
X177528571Y-99035714D02*
X176028571Y-99035714D01*
X176242857Y-99178571D01*
X176385714Y-99321428D01*
X176457142Y-99464285D01*
X176171428Y-98035714D02*
X176100000Y-97964285D01*
X176028571Y-97821428D01*
X176028571Y-97464285D01*
X176100000Y-97321428D01*
X176171428Y-97250000D01*
X176314285Y-97178571D01*
X176457142Y-97178571D01*
X176671428Y-97250000D01*
X177528571Y-98107142D01*
X177528571Y-97178571D01*
D11*
X110697000Y-119682428D02*
X110744619Y-119587190D01*
X110744619Y-119444333D01*
X110697000Y-119301476D01*
X110601761Y-119206238D01*
X110506523Y-119158619D01*
X110316047Y-119111000D01*
X110173190Y-119111000D01*
X109982714Y-119158619D01*
X109887476Y-119206238D01*
X109792238Y-119301476D01*
X109744619Y-119444333D01*
X109744619Y-119539571D01*
X109792238Y-119682428D01*
X109839857Y-119730047D01*
X110173190Y-119730047D01*
X110173190Y-119539571D01*
X109744619Y-120158619D02*
X110411285Y-120158619D01*
X110220809Y-120158619D02*
X110316047Y-120206238D01*
X110363666Y-120253857D01*
X110411285Y-120349095D01*
X110411285Y-120444333D01*
X109744619Y-120920523D02*
X109792238Y-120825285D01*
X109839857Y-120777666D01*
X109935095Y-120730047D01*
X110220809Y-120730047D01*
X110316047Y-120777666D01*
X110363666Y-120825285D01*
X110411285Y-120920523D01*
X110411285Y-121063380D01*
X110363666Y-121158619D01*
X110316047Y-121206238D01*
X110220809Y-121253857D01*
X109935095Y-121253857D01*
X109839857Y-121206238D01*
X109792238Y-121158619D01*
X109744619Y-121063380D01*
X109744619Y-120920523D01*
X110411285Y-122111000D02*
X109744619Y-122111000D01*
X110411285Y-121682428D02*
X109887476Y-121682428D01*
X109792238Y-121730047D01*
X109744619Y-121825285D01*
X109744619Y-121968142D01*
X109792238Y-122063380D01*
X109839857Y-122111000D01*
X110411285Y-122587190D02*
X109744619Y-122587190D01*
X110316047Y-122587190D02*
X110363666Y-122634809D01*
X110411285Y-122730047D01*
X110411285Y-122872904D01*
X110363666Y-122968142D01*
X110268428Y-123015761D01*
X109744619Y-123015761D01*
X109744619Y-123920523D02*
X110744619Y-123920523D01*
X109792238Y-123920523D02*
X109744619Y-123825285D01*
X109744619Y-123634809D01*
X109792238Y-123539571D01*
X109839857Y-123491952D01*
X109935095Y-123444333D01*
X110220809Y-123444333D01*
X110316047Y-123491952D01*
X110363666Y-123539571D01*
X110411285Y-123634809D01*
X110411285Y-123825285D01*
X110363666Y-123920523D01*
X109792238Y-125111000D02*
X109744619Y-125253857D01*
X109744619Y-125491952D01*
X109792238Y-125587190D01*
X109839857Y-125634809D01*
X109935095Y-125682428D01*
X110030333Y-125682428D01*
X110125571Y-125634809D01*
X110173190Y-125587190D01*
X110220809Y-125491952D01*
X110268428Y-125301476D01*
X110316047Y-125206238D01*
X110363666Y-125158619D01*
X110458904Y-125111000D01*
X110554142Y-125111000D01*
X110649380Y-125158619D01*
X110697000Y-125206238D01*
X110744619Y-125301476D01*
X110744619Y-125539571D01*
X110697000Y-125682428D01*
X109744619Y-126111000D02*
X110411285Y-126111000D01*
X110744619Y-126111000D02*
X110697000Y-126063380D01*
X110649380Y-126111000D01*
X110697000Y-126158619D01*
X110744619Y-126111000D01*
X110649380Y-126111000D01*
X109744619Y-127015761D02*
X110744619Y-127015761D01*
X109792238Y-127015761D02*
X109744619Y-126920523D01*
X109744619Y-126730047D01*
X109792238Y-126634809D01*
X109839857Y-126587190D01*
X109935095Y-126539571D01*
X110220809Y-126539571D01*
X110316047Y-126587190D01*
X110363666Y-126634809D01*
X110411285Y-126730047D01*
X110411285Y-126920523D01*
X110363666Y-127015761D01*
X109792238Y-127872904D02*
X109744619Y-127777666D01*
X109744619Y-127587190D01*
X109792238Y-127491952D01*
X109887476Y-127444333D01*
X110268428Y-127444333D01*
X110363666Y-127491952D01*
X110411285Y-127587190D01*
X110411285Y-127777666D01*
X110363666Y-127872904D01*
X110268428Y-127920523D01*
X110173190Y-127920523D01*
X110077952Y-127444333D01*
X109744619Y-129111000D02*
X110744619Y-129111000D01*
X110744619Y-129491952D01*
X110697000Y-129587190D01*
X110649380Y-129634809D01*
X110554142Y-129682428D01*
X110411285Y-129682428D01*
X110316047Y-129634809D01*
X110268428Y-129587190D01*
X110220809Y-129491952D01*
X110220809Y-129111000D01*
X109744619Y-130253857D02*
X109792238Y-130158619D01*
X109839857Y-130111000D01*
X109935095Y-130063380D01*
X110220809Y-130063380D01*
X110316047Y-130111000D01*
X110363666Y-130158619D01*
X110411285Y-130253857D01*
X110411285Y-130396714D01*
X110363666Y-130491952D01*
X110316047Y-130539571D01*
X110220809Y-130587190D01*
X109935095Y-130587190D01*
X109839857Y-130539571D01*
X109792238Y-130491952D01*
X109744619Y-130396714D01*
X109744619Y-130253857D01*
X110411285Y-130920523D02*
X109744619Y-131111000D01*
X110220809Y-131301476D01*
X109744619Y-131491952D01*
X110411285Y-131682428D01*
X109792238Y-132444333D02*
X109744619Y-132349095D01*
X109744619Y-132158619D01*
X109792238Y-132063380D01*
X109887476Y-132015761D01*
X110268428Y-132015761D01*
X110363666Y-132063380D01*
X110411285Y-132158619D01*
X110411285Y-132349095D01*
X110363666Y-132444333D01*
X110268428Y-132491952D01*
X110173190Y-132491952D01*
X110077952Y-132015761D01*
X109744619Y-132920523D02*
X110411285Y-132920523D01*
X110220809Y-132920523D02*
X110316047Y-132968142D01*
X110363666Y-133015761D01*
X110411285Y-133111000D01*
X110411285Y-133206238D01*
X108229857Y-120611000D02*
X108182238Y-120563380D01*
X108134619Y-120420523D01*
X108134619Y-120325285D01*
X108182238Y-120182428D01*
X108277476Y-120087190D01*
X108372714Y-120039571D01*
X108563190Y-119991952D01*
X108706047Y-119991952D01*
X108896523Y-120039571D01*
X108991761Y-120087190D01*
X109087000Y-120182428D01*
X109134619Y-120325285D01*
X109134619Y-120420523D01*
X109087000Y-120563380D01*
X109039380Y-120611000D01*
X108134619Y-121182428D02*
X108182238Y-121087190D01*
X108229857Y-121039571D01*
X108325095Y-120991952D01*
X108610809Y-120991952D01*
X108706047Y-121039571D01*
X108753666Y-121087190D01*
X108801285Y-121182428D01*
X108801285Y-121325285D01*
X108753666Y-121420523D01*
X108706047Y-121468142D01*
X108610809Y-121515761D01*
X108325095Y-121515761D01*
X108229857Y-121468142D01*
X108182238Y-121420523D01*
X108134619Y-121325285D01*
X108134619Y-121182428D01*
X108801285Y-121944333D02*
X108134619Y-121944333D01*
X108706047Y-121944333D02*
X108753666Y-121991952D01*
X108801285Y-122087190D01*
X108801285Y-122230047D01*
X108753666Y-122325285D01*
X108658428Y-122372904D01*
X108134619Y-122372904D01*
X108801285Y-122849095D02*
X108134619Y-122849095D01*
X108706047Y-122849095D02*
X108753666Y-122896714D01*
X108801285Y-122991952D01*
X108801285Y-123134809D01*
X108753666Y-123230047D01*
X108658428Y-123277666D01*
X108134619Y-123277666D01*
X108182238Y-124134809D02*
X108134619Y-124039571D01*
X108134619Y-123849095D01*
X108182238Y-123753857D01*
X108277476Y-123706238D01*
X108658428Y-123706238D01*
X108753666Y-123753857D01*
X108801285Y-123849095D01*
X108801285Y-124039571D01*
X108753666Y-124134809D01*
X108658428Y-124182428D01*
X108563190Y-124182428D01*
X108467952Y-123706238D01*
X108182238Y-125039571D02*
X108134619Y-124944333D01*
X108134619Y-124753857D01*
X108182238Y-124658619D01*
X108229857Y-124611000D01*
X108325095Y-124563380D01*
X108610809Y-124563380D01*
X108706047Y-124611000D01*
X108753666Y-124658619D01*
X108801285Y-124753857D01*
X108801285Y-124944333D01*
X108753666Y-125039571D01*
X108801285Y-125325285D02*
X108801285Y-125706238D01*
X109134619Y-125468142D02*
X108277476Y-125468142D01*
X108182238Y-125515761D01*
X108134619Y-125611000D01*
X108134619Y-125706238D01*
X108134619Y-126182428D02*
X108182238Y-126087190D01*
X108229857Y-126039571D01*
X108325095Y-125991952D01*
X108610809Y-125991952D01*
X108706047Y-126039571D01*
X108753666Y-126087190D01*
X108801285Y-126182428D01*
X108801285Y-126325285D01*
X108753666Y-126420523D01*
X108706047Y-126468142D01*
X108610809Y-126515761D01*
X108325095Y-126515761D01*
X108229857Y-126468142D01*
X108182238Y-126420523D01*
X108134619Y-126325285D01*
X108134619Y-126182428D01*
X108134619Y-126944333D02*
X108801285Y-126944333D01*
X108610809Y-126944333D02*
X108706047Y-126991952D01*
X108753666Y-127039571D01*
X108801285Y-127134809D01*
X108801285Y-127230047D01*
X108658428Y-128658619D02*
X108610809Y-128801476D01*
X108563190Y-128849095D01*
X108467952Y-128896714D01*
X108325095Y-128896714D01*
X108229857Y-128849095D01*
X108182238Y-128801476D01*
X108134619Y-128706238D01*
X108134619Y-128325285D01*
X109134619Y-128325285D01*
X109134619Y-128658619D01*
X109087000Y-128753857D01*
X109039380Y-128801476D01*
X108944142Y-128849095D01*
X108848904Y-128849095D01*
X108753666Y-128801476D01*
X108706047Y-128753857D01*
X108658428Y-128658619D01*
X108658428Y-128325285D01*
X108134619Y-129468142D02*
X108182238Y-129372904D01*
X108229857Y-129325285D01*
X108325095Y-129277666D01*
X108610809Y-129277666D01*
X108706047Y-129325285D01*
X108753666Y-129372904D01*
X108801285Y-129468142D01*
X108801285Y-129611000D01*
X108753666Y-129706238D01*
X108706047Y-129753857D01*
X108610809Y-129801476D01*
X108325095Y-129801476D01*
X108229857Y-129753857D01*
X108182238Y-129706238D01*
X108134619Y-129611000D01*
X108134619Y-129468142D01*
X108134619Y-130658619D02*
X108658428Y-130658619D01*
X108753666Y-130611000D01*
X108801285Y-130515761D01*
X108801285Y-130325285D01*
X108753666Y-130230047D01*
X108182238Y-130658619D02*
X108134619Y-130563380D01*
X108134619Y-130325285D01*
X108182238Y-130230047D01*
X108277476Y-130182428D01*
X108372714Y-130182428D01*
X108467952Y-130230047D01*
X108515571Y-130325285D01*
X108515571Y-130563380D01*
X108563190Y-130658619D01*
X108134619Y-131134809D02*
X108801285Y-131134809D01*
X108610809Y-131134809D02*
X108706047Y-131182428D01*
X108753666Y-131230047D01*
X108801285Y-131325285D01*
X108801285Y-131420523D01*
X108134619Y-132182428D02*
X109134619Y-132182428D01*
X108182238Y-132182428D02*
X108134619Y-132087190D01*
X108134619Y-131896714D01*
X108182238Y-131801476D01*
X108229857Y-131753857D01*
X108325095Y-131706238D01*
X108610809Y-131706238D01*
X108706047Y-131753857D01*
X108753666Y-131801476D01*
X108801285Y-131896714D01*
X108801285Y-132087190D01*
X108753666Y-132182428D01*
X107524619Y-123063380D02*
X106810333Y-123063380D01*
X106667476Y-123015761D01*
X106572238Y-122920523D01*
X106524619Y-122777666D01*
X106524619Y-122682428D01*
X106524619Y-123968142D02*
X107048428Y-123968142D01*
X107143666Y-123920523D01*
X107191285Y-123825285D01*
X107191285Y-123634809D01*
X107143666Y-123539571D01*
X106572238Y-123968142D02*
X106524619Y-123872904D01*
X106524619Y-123634809D01*
X106572238Y-123539571D01*
X106667476Y-123491952D01*
X106762714Y-123491952D01*
X106857952Y-123539571D01*
X106905571Y-123634809D01*
X106905571Y-123872904D01*
X106953190Y-123968142D01*
X107191285Y-124444333D02*
X106524619Y-124444333D01*
X107096047Y-124444333D02*
X107143666Y-124491952D01*
X107191285Y-124587190D01*
X107191285Y-124730047D01*
X107143666Y-124825285D01*
X107048428Y-124872904D01*
X106524619Y-124872904D01*
X107429380Y-126063380D02*
X107477000Y-126111000D01*
X107524619Y-126206238D01*
X107524619Y-126444333D01*
X107477000Y-126539571D01*
X107429380Y-126587190D01*
X107334142Y-126634809D01*
X107238904Y-126634809D01*
X107096047Y-126587190D01*
X106524619Y-126015761D01*
X106524619Y-126634809D01*
X107524619Y-127253857D02*
X107524619Y-127349095D01*
X107477000Y-127444333D01*
X107429380Y-127491952D01*
X107334142Y-127539571D01*
X107143666Y-127587190D01*
X106905571Y-127587190D01*
X106715095Y-127539571D01*
X106619857Y-127491952D01*
X106572238Y-127444333D01*
X106524619Y-127349095D01*
X106524619Y-127253857D01*
X106572238Y-127158619D01*
X106619857Y-127111000D01*
X106715095Y-127063380D01*
X106905571Y-127015761D01*
X107143666Y-127015761D01*
X107334142Y-127063380D01*
X107429380Y-127111000D01*
X107477000Y-127158619D01*
X107524619Y-127253857D01*
X107429380Y-127968142D02*
X107477000Y-128015761D01*
X107524619Y-128111000D01*
X107524619Y-128349095D01*
X107477000Y-128444333D01*
X107429380Y-128491952D01*
X107334142Y-128539571D01*
X107238904Y-128539571D01*
X107096047Y-128491952D01*
X106524619Y-127920523D01*
X106524619Y-128539571D01*
X107524619Y-128872904D02*
X107524619Y-129491952D01*
X107143666Y-129158619D01*
X107143666Y-129301476D01*
X107096047Y-129396714D01*
X107048428Y-129444333D01*
X106953190Y-129491952D01*
X106715095Y-129491952D01*
X106619857Y-129444333D01*
X106572238Y-129396714D01*
X106524619Y-129301476D01*
X106524619Y-129015761D01*
X106572238Y-128920523D01*
X106619857Y-128872904D01*
X103304619Y-119015761D02*
X104304619Y-119015761D01*
X104304619Y-119253857D01*
X104257000Y-119396714D01*
X104161761Y-119491952D01*
X104066523Y-119539571D01*
X103876047Y-119587190D01*
X103733190Y-119587190D01*
X103542714Y-119539571D01*
X103447476Y-119491952D01*
X103352238Y-119396714D01*
X103304619Y-119253857D01*
X103304619Y-119015761D01*
X103304619Y-120158619D02*
X103352238Y-120063380D01*
X103399857Y-120015761D01*
X103495095Y-119968142D01*
X103780809Y-119968142D01*
X103876047Y-120015761D01*
X103923666Y-120063380D01*
X103971285Y-120158619D01*
X103971285Y-120301476D01*
X103923666Y-120396714D01*
X103876047Y-120444333D01*
X103780809Y-120491952D01*
X103495095Y-120491952D01*
X103399857Y-120444333D01*
X103352238Y-120396714D01*
X103304619Y-120301476D01*
X103304619Y-120158619D01*
X103304619Y-120920523D02*
X103971285Y-120920523D01*
X103876047Y-120920523D02*
X103923666Y-120968142D01*
X103971285Y-121063380D01*
X103971285Y-121206238D01*
X103923666Y-121301476D01*
X103828428Y-121349095D01*
X103304619Y-121349095D01*
X103828428Y-121349095D02*
X103923666Y-121396714D01*
X103971285Y-121491952D01*
X103971285Y-121634809D01*
X103923666Y-121730047D01*
X103828428Y-121777666D01*
X103304619Y-121777666D01*
X103352238Y-122634809D02*
X103304619Y-122539571D01*
X103304619Y-122349095D01*
X103352238Y-122253857D01*
X103447476Y-122206238D01*
X103828428Y-122206238D01*
X103923666Y-122253857D01*
X103971285Y-122349095D01*
X103971285Y-122539571D01*
X103923666Y-122634809D01*
X103828428Y-122682428D01*
X103733190Y-122682428D01*
X103637952Y-122206238D01*
X103971285Y-123111000D02*
X103304619Y-123111000D01*
X103876047Y-123111000D02*
X103923666Y-123158619D01*
X103971285Y-123253857D01*
X103971285Y-123396714D01*
X103923666Y-123491952D01*
X103828428Y-123539571D01*
X103304619Y-123539571D01*
X103304619Y-124015761D02*
X103971285Y-124015761D01*
X104304619Y-124015761D02*
X104257000Y-123968142D01*
X104209380Y-124015761D01*
X104257000Y-124063380D01*
X104304619Y-124015761D01*
X104209380Y-124015761D01*
X103352238Y-124920523D02*
X103304619Y-124825285D01*
X103304619Y-124634809D01*
X103352238Y-124539571D01*
X103399857Y-124491952D01*
X103495095Y-124444333D01*
X103780809Y-124444333D01*
X103876047Y-124491952D01*
X103923666Y-124539571D01*
X103971285Y-124634809D01*
X103971285Y-124825285D01*
X103923666Y-124920523D01*
X103304619Y-126111000D02*
X104304619Y-126111000D01*
X103828428Y-126111000D02*
X103828428Y-126682428D01*
X103304619Y-126682428D02*
X104304619Y-126682428D01*
X103304619Y-127587190D02*
X103828428Y-127587190D01*
X103923666Y-127539571D01*
X103971285Y-127444333D01*
X103971285Y-127253857D01*
X103923666Y-127158619D01*
X103352238Y-127587190D02*
X103304619Y-127491952D01*
X103304619Y-127253857D01*
X103352238Y-127158619D01*
X103447476Y-127111000D01*
X103542714Y-127111000D01*
X103637952Y-127158619D01*
X103685571Y-127253857D01*
X103685571Y-127491952D01*
X103733190Y-127587190D01*
X103304619Y-128063380D02*
X103971285Y-128063380D01*
X103876047Y-128063380D02*
X103923666Y-128111000D01*
X103971285Y-128206238D01*
X103971285Y-128349095D01*
X103923666Y-128444333D01*
X103828428Y-128491952D01*
X103304619Y-128491952D01*
X103828428Y-128491952D02*
X103923666Y-128539571D01*
X103971285Y-128634809D01*
X103971285Y-128777666D01*
X103923666Y-128872904D01*
X103828428Y-128920523D01*
X103304619Y-128920523D01*
X103971285Y-129396714D02*
X102971285Y-129396714D01*
X103923666Y-129396714D02*
X103971285Y-129491952D01*
X103971285Y-129682428D01*
X103923666Y-129777666D01*
X103876047Y-129825285D01*
X103780809Y-129872904D01*
X103495095Y-129872904D01*
X103399857Y-129825285D01*
X103352238Y-129777666D01*
X103304619Y-129682428D01*
X103304619Y-129491952D01*
X103352238Y-129396714D01*
X103352238Y-130253857D02*
X103304619Y-130349095D01*
X103304619Y-130539571D01*
X103352238Y-130634809D01*
X103447476Y-130682428D01*
X103495095Y-130682428D01*
X103590333Y-130634809D01*
X103637952Y-130539571D01*
X103637952Y-130396714D01*
X103685571Y-130301476D01*
X103780809Y-130253857D01*
X103828428Y-130253857D01*
X103923666Y-130301476D01*
X103971285Y-130396714D01*
X103971285Y-130539571D01*
X103923666Y-130634809D01*
X103304619Y-131253857D02*
X103352238Y-131158619D01*
X103399857Y-131111000D01*
X103495095Y-131063380D01*
X103780809Y-131063380D01*
X103876047Y-131111000D01*
X103923666Y-131158619D01*
X103971285Y-131253857D01*
X103971285Y-131396714D01*
X103923666Y-131491952D01*
X103876047Y-131539571D01*
X103780809Y-131587190D01*
X103495095Y-131587190D01*
X103399857Y-131539571D01*
X103352238Y-131491952D01*
X103304619Y-131396714D01*
X103304619Y-131253857D01*
X103971285Y-132015761D02*
X103304619Y-132015761D01*
X103876047Y-132015761D02*
X103923666Y-132063380D01*
X103971285Y-132158619D01*
X103971285Y-132301476D01*
X103923666Y-132396714D01*
X103828428Y-132444333D01*
X103304619Y-132444333D01*
X102218428Y-120158619D02*
X102218428Y-120491952D01*
X101694619Y-120634809D02*
X101694619Y-120158619D01*
X102694619Y-120158619D01*
X102694619Y-120634809D01*
X101694619Y-121206238D02*
X101742238Y-121111000D01*
X101837476Y-121063380D01*
X102694619Y-121063380D01*
X101694619Y-121587190D02*
X102361285Y-121587190D01*
X102694619Y-121587190D02*
X102647000Y-121539571D01*
X102599380Y-121587190D01*
X102647000Y-121634809D01*
X102694619Y-121587190D01*
X102599380Y-121587190D01*
X101694619Y-122491952D02*
X102218428Y-122491952D01*
X102313666Y-122444333D01*
X102361285Y-122349095D01*
X102361285Y-122158619D01*
X102313666Y-122063380D01*
X101742238Y-122491952D02*
X101694619Y-122396714D01*
X101694619Y-122158619D01*
X101742238Y-122063380D01*
X101837476Y-122015761D01*
X101932714Y-122015761D01*
X102027952Y-122063380D01*
X102075571Y-122158619D01*
X102075571Y-122396714D01*
X102123190Y-122491952D01*
X101742238Y-122920523D02*
X101694619Y-123015761D01*
X101694619Y-123206238D01*
X101742238Y-123301476D01*
X101837476Y-123349095D01*
X101885095Y-123349095D01*
X101980333Y-123301476D01*
X102027952Y-123206238D01*
X102027952Y-123063380D01*
X102075571Y-122968142D01*
X102170809Y-122920523D01*
X102218428Y-122920523D01*
X102313666Y-122968142D01*
X102361285Y-123063380D01*
X102361285Y-123206238D01*
X102313666Y-123301476D01*
X101694619Y-124539571D02*
X102694619Y-124539571D01*
X101694619Y-125111000D02*
X102266047Y-124682428D01*
X102694619Y-125111000D02*
X102123190Y-124539571D01*
X101694619Y-125682428D02*
X101742238Y-125587190D01*
X101789857Y-125539571D01*
X101885095Y-125491952D01*
X102170809Y-125491952D01*
X102266047Y-125539571D01*
X102313666Y-125587190D01*
X102361285Y-125682428D01*
X102361285Y-125825285D01*
X102313666Y-125920523D01*
X102266047Y-125968142D01*
X102170809Y-126015761D01*
X101885095Y-126015761D01*
X101789857Y-125968142D01*
X101742238Y-125920523D01*
X101694619Y-125825285D01*
X101694619Y-125682428D01*
X102361285Y-126872904D02*
X101694619Y-126872904D01*
X102361285Y-126444333D02*
X101837476Y-126444333D01*
X101742238Y-126491952D01*
X101694619Y-126587190D01*
X101694619Y-126730047D01*
X101742238Y-126825285D01*
X101789857Y-126872904D01*
X102361285Y-127349095D02*
X101694619Y-127349095D01*
X102266047Y-127349095D02*
X102313666Y-127396714D01*
X102361285Y-127491952D01*
X102361285Y-127634809D01*
X102313666Y-127730047D01*
X102218428Y-127777666D01*
X101694619Y-127777666D01*
X102361285Y-128111000D02*
X102361285Y-128491952D01*
X102694619Y-128253857D02*
X101837476Y-128253857D01*
X101742238Y-128301476D01*
X101694619Y-128396714D01*
X101694619Y-128491952D01*
X101694619Y-128968142D02*
X101742238Y-128872904D01*
X101789857Y-128825285D01*
X101885095Y-128777666D01*
X102170809Y-128777666D01*
X102266047Y-128825285D01*
X102313666Y-128872904D01*
X102361285Y-128968142D01*
X102361285Y-129111000D01*
X102313666Y-129206238D01*
X102266047Y-129253857D01*
X102170809Y-129301476D01*
X101885095Y-129301476D01*
X101789857Y-129253857D01*
X101742238Y-129206238D01*
X101694619Y-129111000D01*
X101694619Y-128968142D01*
X102361285Y-130158619D02*
X101694619Y-130158619D01*
X102361285Y-129730047D02*
X101837476Y-129730047D01*
X101742238Y-129777666D01*
X101694619Y-129872904D01*
X101694619Y-130015761D01*
X101742238Y-130111000D01*
X101789857Y-130158619D01*
X101694619Y-130634809D02*
X102361285Y-130634809D01*
X102170809Y-130634809D02*
X102266047Y-130682428D01*
X102313666Y-130730047D01*
X102361285Y-130825285D01*
X102361285Y-130920523D01*
X101694619Y-131253857D02*
X102361285Y-131253857D01*
X102694619Y-131253857D02*
X102647000Y-131206238D01*
X102599380Y-131253857D01*
X102647000Y-131301476D01*
X102694619Y-131253857D01*
X102599380Y-131253857D01*
X101742238Y-131682428D02*
X101694619Y-131777666D01*
X101694619Y-131968142D01*
X101742238Y-132063380D01*
X101837476Y-132111000D01*
X101885095Y-132111000D01*
X101980333Y-132063380D01*
X102027952Y-131968142D01*
X102027952Y-131825285D01*
X102075571Y-131730047D01*
X102170809Y-131682428D01*
X102218428Y-131682428D01*
X102313666Y-131730047D01*
X102361285Y-131825285D01*
X102361285Y-131968142D01*
X102313666Y-132063380D01*
D10*
X176128571Y-130580952D02*
X176128571Y-130438095D01*
X176200000Y-130295238D01*
X176271428Y-130223809D01*
X176414285Y-130152381D01*
X176700000Y-130080952D01*
X177057142Y-130080952D01*
X177342857Y-130152381D01*
X177485714Y-130223809D01*
X177557142Y-130295238D01*
X177628571Y-130438095D01*
X177628571Y-130580952D01*
X177557142Y-130723809D01*
X177485714Y-130795238D01*
X177342857Y-130866666D01*
X177057142Y-130938095D01*
X176700000Y-130938095D01*
X176414285Y-130866666D01*
X176271428Y-130795238D01*
X176200000Y-130723809D01*
X176128571Y-130580952D01*
X130107142Y-73259524D02*
X130107142Y-72116666D01*
X130678571Y-72688095D02*
X129535714Y-72688095D01*
X129321428Y-71473809D02*
X129250000Y-71402381D01*
X129178571Y-71259524D01*
X129178571Y-70902381D01*
X129250000Y-70759524D01*
X129321428Y-70688095D01*
X129464285Y-70616666D01*
X129607142Y-70616666D01*
X129821428Y-70688095D01*
X130678571Y-71545238D01*
X130678571Y-70616666D01*
X129678571Y-69330952D02*
X130678571Y-69330952D01*
X129107142Y-69688095D02*
X130178571Y-70045238D01*
X130178571Y-69116666D01*
X153207142Y-117759524D02*
X153207142Y-116616666D01*
X153778571Y-117188095D02*
X152635714Y-117188095D01*
X152421428Y-115973809D02*
X152350000Y-115902381D01*
X152278571Y-115759524D01*
X152278571Y-115402381D01*
X152350000Y-115259524D01*
X152421428Y-115188095D01*
X152564285Y-115116666D01*
X152707142Y-115116666D01*
X152921428Y-115188095D01*
X153778571Y-116045238D01*
X153778571Y-115116666D01*
X152778571Y-113830952D02*
X153778571Y-113830952D01*
X152207142Y-114188095D02*
X153278571Y-114545238D01*
X153278571Y-113616666D01*
X152428571Y-86380952D02*
X152428571Y-86238095D01*
X152500000Y-86095238D01*
X152571428Y-86023809D01*
X152714285Y-85952381D01*
X153000000Y-85880952D01*
X153357142Y-85880952D01*
X153642857Y-85952381D01*
X153785714Y-86023809D01*
X153857142Y-86095238D01*
X153928571Y-86238095D01*
X153928571Y-86380952D01*
X153857142Y-86523809D01*
X153785714Y-86595238D01*
X153642857Y-86666666D01*
X153357142Y-86738095D01*
X153000000Y-86738095D01*
X152714285Y-86666666D01*
X152571428Y-86595238D01*
X152500000Y-86523809D01*
X152428571Y-86380952D01*
X130107142Y-79250000D02*
X130107142Y-78107142D01*
X130678571Y-78678571D02*
X129535714Y-78678571D01*
X130678571Y-76607142D02*
X130678571Y-77464285D01*
X130678571Y-77035714D02*
X129178571Y-77035714D01*
X129392857Y-77178571D01*
X129535714Y-77321428D01*
X129607142Y-77464285D01*
X129321428Y-76035714D02*
X129250000Y-75964285D01*
X129178571Y-75821428D01*
X129178571Y-75464285D01*
X129250000Y-75321428D01*
X129321428Y-75250000D01*
X129464285Y-75178571D01*
X129607142Y-75178571D01*
X129821428Y-75250000D01*
X130678571Y-76107142D01*
X130678571Y-75178571D01*
X176957142Y-84002380D02*
X176957142Y-82859523D01*
X177528571Y-83430951D02*
X176385714Y-83430951D01*
X176028571Y-81430951D02*
X176028571Y-82145237D01*
X176742857Y-82216666D01*
X176671428Y-82145237D01*
X176600000Y-82002380D01*
X176600000Y-81645237D01*
X176671428Y-81502380D01*
X176742857Y-81430951D01*
X176885714Y-81359523D01*
X177242857Y-81359523D01*
X177385714Y-81430951D01*
X177457142Y-81502380D01*
X177528571Y-81645237D01*
X177528571Y-82002380D01*
X177457142Y-82145237D01*
X177385714Y-82216666D01*
X94721428Y-83428571D02*
X94721428Y-83571428D01*
X94650000Y-83714285D01*
X94578571Y-83785714D01*
X94435714Y-83857142D01*
X94150000Y-83928571D01*
X93792857Y-83928571D01*
X93507142Y-83857142D01*
X93364285Y-83785714D01*
X93292857Y-83714285D01*
X93221428Y-83571428D01*
X93221428Y-83428571D01*
X93292857Y-83285714D01*
X93364285Y-83214285D01*
X93507142Y-83142857D01*
X93792857Y-83071428D01*
X94150000Y-83071428D01*
X94435714Y-83142857D01*
X94578571Y-83214285D01*
X94650000Y-83285714D01*
X94721428Y-83428571D01*
X152478571Y-108530952D02*
X152478571Y-108388095D01*
X152550000Y-108245238D01*
X152621428Y-108173809D01*
X152764285Y-108102381D01*
X153050000Y-108030952D01*
X153407142Y-108030952D01*
X153692857Y-108102381D01*
X153835714Y-108173809D01*
X153907142Y-108245238D01*
X153978571Y-108388095D01*
X153978571Y-108530952D01*
X153907142Y-108673809D01*
X153835714Y-108745238D01*
X153692857Y-108816666D01*
X153407142Y-108888095D01*
X153050000Y-108888095D01*
X152764285Y-108816666D01*
X152621428Y-108745238D01*
X152550000Y-108673809D01*
X152478571Y-108530952D01*
X153207142Y-128311904D02*
X153207142Y-127169047D01*
X153778571Y-127740475D02*
X152635714Y-127740475D01*
X152278571Y-125740475D02*
X152278571Y-126454761D01*
X152992857Y-126526190D01*
X152921428Y-126454761D01*
X152850000Y-126311904D01*
X152850000Y-125954761D01*
X152921428Y-125811904D01*
X152992857Y-125740475D01*
X153135714Y-125669047D01*
X153492857Y-125669047D01*
X153635714Y-125740475D01*
X153707142Y-125811904D01*
X153778571Y-125954761D01*
X153778571Y-126311904D01*
X153707142Y-126454761D01*
X153635714Y-126526190D01*
X177057142Y-123600000D02*
X177057142Y-122457142D01*
X177628571Y-123028571D02*
X176485714Y-123028571D01*
X177628571Y-120957142D02*
X177628571Y-121814285D01*
X177628571Y-121385714D02*
X176128571Y-121385714D01*
X176342857Y-121528571D01*
X176485714Y-121671428D01*
X176557142Y-121814285D01*
X176271428Y-120385714D02*
X176200000Y-120314285D01*
X176128571Y-120171428D01*
X176128571Y-119814285D01*
X176200000Y-119671428D01*
X176271428Y-119600000D01*
X176414285Y-119528571D01*
X176557142Y-119528571D01*
X176771428Y-119600000D01*
X177628571Y-120457142D01*
X177628571Y-119528571D01*
X176957142Y-95259524D02*
X176957142Y-94116666D01*
X177528571Y-94688095D02*
X176385714Y-94688095D01*
X176171428Y-93473809D02*
X176100000Y-93402381D01*
X176028571Y-93259524D01*
X176028571Y-92902381D01*
X176100000Y-92759524D01*
X176171428Y-92688095D01*
X176314285Y-92616666D01*
X176457142Y-92616666D01*
X176671428Y-92688095D01*
X177528571Y-93545238D01*
X177528571Y-92616666D01*
X176528571Y-91330952D02*
X177528571Y-91330952D01*
X175957142Y-91688095D02*
X177028571Y-92045238D01*
X177028571Y-91116666D01*
X176028571Y-86421428D02*
X176028571Y-86278571D01*
X176100000Y-86135714D01*
X176171428Y-86064285D01*
X176314285Y-85992857D01*
X176600000Y-85921428D01*
X176957142Y-85921428D01*
X177242857Y-85992857D01*
X177385714Y-86064285D01*
X177457142Y-86135714D01*
X177528571Y-86278571D01*
X177528571Y-86421428D01*
X177457142Y-86564285D01*
X177385714Y-86635714D01*
X177242857Y-86707142D01*
X176957142Y-86778571D01*
X176600000Y-86778571D01*
X176314285Y-86707142D01*
X176171428Y-86635714D01*
X176100000Y-86564285D01*
X176028571Y-86421428D01*
X153357142Y-79400000D02*
X153357142Y-78257142D01*
X153928571Y-78828571D02*
X152785714Y-78828571D01*
X153928571Y-76757142D02*
X153928571Y-77614285D01*
X153928571Y-77185714D02*
X152428571Y-77185714D01*
X152642857Y-77328571D01*
X152785714Y-77471428D01*
X152857142Y-77614285D01*
X152571428Y-76185714D02*
X152500000Y-76114285D01*
X152428571Y-75971428D01*
X152428571Y-75614285D01*
X152500000Y-75471428D01*
X152571428Y-75400000D01*
X152714285Y-75328571D01*
X152857142Y-75328571D01*
X153071428Y-75400000D01*
X153928571Y-76257142D01*
X153928571Y-75328571D01*
X129528571Y-130580952D02*
X129528571Y-130438095D01*
X129600000Y-130295238D01*
X129671428Y-130223809D01*
X129814285Y-130152381D01*
X130100000Y-130080952D01*
X130457142Y-130080952D01*
X130742857Y-130152381D01*
X130885714Y-130223809D01*
X130957142Y-130295238D01*
X131028571Y-130438095D01*
X131028571Y-130580952D01*
X130957142Y-130723809D01*
X130885714Y-130795238D01*
X130742857Y-130866666D01*
X130457142Y-130938095D01*
X130100000Y-130938095D01*
X129814285Y-130866666D01*
X129671428Y-130795238D01*
X129600000Y-130723809D01*
X129528571Y-130580952D01*
X93842857Y-86050000D02*
X93842857Y-87192857D01*
X93271428Y-86621428D02*
X94414285Y-86621428D01*
X93271428Y-88692857D02*
X93271428Y-87835714D01*
X93271428Y-88264285D02*
X94771428Y-88264285D01*
X94557142Y-88121428D01*
X94414285Y-87978571D01*
X94342857Y-87835714D01*
X94628571Y-89264285D02*
X94700000Y-89335714D01*
X94771428Y-89478571D01*
X94771428Y-89835714D01*
X94700000Y-89978571D01*
X94628571Y-90050000D01*
X94485714Y-90121428D01*
X94342857Y-90121428D01*
X94128571Y-90050000D01*
X93271428Y-89192857D01*
X93271428Y-90121428D01*
X153407142Y-101550000D02*
X153407142Y-100407142D01*
X153978571Y-100978571D02*
X152835714Y-100978571D01*
X153978571Y-98907142D02*
X153978571Y-99764285D01*
X153978571Y-99335714D02*
X152478571Y-99335714D01*
X152692857Y-99478571D01*
X152835714Y-99621428D01*
X152907142Y-99764285D01*
X152621428Y-98335714D02*
X152550000Y-98264285D01*
X152478571Y-98121428D01*
X152478571Y-97764285D01*
X152550000Y-97621428D01*
X152621428Y-97550000D01*
X152764285Y-97478571D01*
X152907142Y-97478571D01*
X153121428Y-97550000D01*
X153978571Y-98407142D01*
X153978571Y-97478571D01*
D11*
X99002379Y-101909523D02*
X99716665Y-101909523D01*
X99859522Y-101957142D01*
X99954760Y-102052380D01*
X100002379Y-102195238D01*
X100002379Y-102290476D01*
X100002379Y-100909523D02*
X100002379Y-101480952D01*
X100002379Y-101195238D02*
X99002379Y-101195238D01*
X99145237Y-101290476D01*
X99240475Y-101385714D01*
X99288094Y-101480952D01*
X100002379Y-100433333D02*
X100002379Y-100242857D01*
X99954760Y-100147619D01*
X99907141Y-100100000D01*
X99764284Y-100004761D01*
X99573808Y-99957142D01*
X99192856Y-99957142D01*
X99097618Y-100004761D01*
X99049999Y-100052380D01*
X99002379Y-100147619D01*
X99002379Y-100338095D01*
X99049999Y-100433333D01*
X99097618Y-100480952D01*
X99192856Y-100528571D01*
X99430951Y-100528571D01*
X99526189Y-100480952D01*
X99573808Y-100433333D01*
X99621427Y-100338095D01*
X99621427Y-100147619D01*
X99573808Y-100052380D01*
X99526189Y-100004761D01*
X99430951Y-99957142D01*
X109002380Y-114424523D02*
X108002380Y-114424523D01*
X108716666Y-114091190D01*
X108002380Y-113757857D01*
X109002380Y-113757857D01*
X108097619Y-113329285D02*
X108050000Y-113281666D01*
X108002380Y-113186428D01*
X108002380Y-112948333D01*
X108050000Y-112853095D01*
X108097619Y-112805476D01*
X108192857Y-112757857D01*
X108288095Y-112757857D01*
X108430952Y-112805476D01*
X109002380Y-113376904D01*
X109002380Y-112757857D01*
X105052379Y-86559523D02*
X105766665Y-86559523D01*
X105909522Y-86607142D01*
X106004760Y-86702380D01*
X106052379Y-86845238D01*
X106052379Y-86940476D01*
X106052379Y-85559523D02*
X106052379Y-86130952D01*
X106052379Y-85845238D02*
X105052379Y-85845238D01*
X105195237Y-85940476D01*
X105290475Y-86035714D01*
X105338094Y-86130952D01*
X105480951Y-84988095D02*
X105433332Y-85083333D01*
X105385713Y-85130952D01*
X105290475Y-85178571D01*
X105242856Y-85178571D01*
X105147618Y-85130952D01*
X105099999Y-85083333D01*
X105052379Y-84988095D01*
X105052379Y-84797619D01*
X105099999Y-84702380D01*
X105147618Y-84654761D01*
X105242856Y-84607142D01*
X105290475Y-84607142D01*
X105385713Y-84654761D01*
X105433332Y-84702380D01*
X105480951Y-84797619D01*
X105480951Y-84988095D01*
X105528570Y-85083333D01*
X105576189Y-85130952D01*
X105671427Y-85178571D01*
X105861903Y-85178571D01*
X105957141Y-85130952D01*
X106004760Y-85083333D01*
X106052379Y-84988095D01*
X106052379Y-84797619D01*
X106004760Y-84702380D01*
X105957141Y-84654761D01*
X105861903Y-84607142D01*
X105671427Y-84607142D01*
X105576189Y-84654761D01*
X105528570Y-84702380D01*
X105480951Y-84797619D01*
D12*
X136827500Y-67840000D02*
X150717500Y-67840000D01*
X150717500Y-88160000D02*
X136827500Y-88160000D01*
X150717500Y-67840000D02*
X150717500Y-88160000D01*
X136827500Y-88160000D02*
X136827500Y-67840000D01*
X150767500Y-90050000D02*
X150767500Y-110370000D01*
X136877500Y-110370000D02*
X136877500Y-90050000D01*
X136877500Y-90050000D02*
X150767500Y-90050000D01*
X150767500Y-110370000D02*
X136877500Y-110370000D01*
D13*
X108277000Y-109027000D02*
X108277000Y-93772999D01*
X96623000Y-93772999D02*
X96623000Y-109027000D01*
X96623000Y-109027000D02*
X108277000Y-109027000D01*
X108277000Y-93772999D02*
X96623000Y-93772999D01*
D12*
X160150000Y-132710000D02*
X160150000Y-112390000D01*
X174040000Y-132710000D02*
X160150000Y-132710000D01*
X160150000Y-112390000D02*
X174040000Y-112390000D01*
X174040000Y-112390000D02*
X174040000Y-132710000D01*
G36*
X103327421Y-74219245D02*
G01*
X103327303Y-74300681D01*
X103326851Y-74365047D01*
X103325920Y-74415192D01*
X103324364Y-74453966D01*
X103322036Y-74484218D01*
X103318791Y-74508798D01*
X103314483Y-74530556D01*
X103310692Y-74545877D01*
X103284437Y-74615669D01*
X103245860Y-74671812D01*
X103194862Y-74714444D01*
X103186454Y-74719499D01*
X103157576Y-74734291D01*
X103130658Y-74742719D01*
X103098692Y-74746450D01*
X103070255Y-74747156D01*
X103032304Y-74745782D01*
X102996023Y-74741808D01*
X102968606Y-74736057D01*
X102966260Y-74735289D01*
X102934828Y-74717847D01*
X102899751Y-74688385D01*
X102866007Y-74652024D01*
X102838577Y-74613888D01*
X102827180Y-74592191D01*
X102810382Y-74553454D01*
X102757752Y-74596844D01*
X102724900Y-74623779D01*
X102687664Y-74654075D01*
X102648920Y-74685416D01*
X102611547Y-74715490D01*
X102578421Y-74741984D01*
X102552421Y-74762584D01*
X102536424Y-74774977D01*
X102533671Y-74776981D01*
X102529172Y-74775801D01*
X102526098Y-74763424D01*
X102524247Y-74737488D01*
X102523416Y-74695626D01*
X102523330Y-74656666D01*
X102523572Y-74529078D01*
X102649987Y-74429470D01*
X102776403Y-74329862D01*
X102776745Y-74252666D01*
X102777088Y-74175470D01*
X102946421Y-74175470D01*
X102946434Y-74302470D01*
X102946948Y-74360194D01*
X102948720Y-74402068D01*
X102952122Y-74432137D01*
X102957524Y-74454446D01*
X102961251Y-74464333D01*
X102985030Y-74500168D01*
X103017544Y-74522415D01*
X103054491Y-74530201D01*
X103091568Y-74522652D01*
X103124475Y-74498892D01*
X103125532Y-74497718D01*
X103142623Y-74471655D01*
X103154709Y-74436146D01*
X103162327Y-74388363D01*
X103166010Y-74325474D01*
X103166555Y-74280628D01*
X103166555Y-74175470D01*
X102946421Y-74175470D01*
X102777088Y-74175470D01*
X102523088Y-74175470D01*
X102523088Y-73956333D01*
X103327421Y-73956333D01*
X103327421Y-74219245D01*
G37*
D14*
X103327421Y-74219245D02*
X103327303Y-74300681D01*
X103326851Y-74365047D01*
X103325920Y-74415192D01*
X103324364Y-74453966D01*
X103322036Y-74484218D01*
X103318791Y-74508798D01*
X103314483Y-74530556D01*
X103310692Y-74545877D01*
X103284437Y-74615669D01*
X103245860Y-74671812D01*
X103194862Y-74714444D01*
X103186454Y-74719499D01*
X103157576Y-74734291D01*
X103130658Y-74742719D01*
X103098692Y-74746450D01*
X103070255Y-74747156D01*
X103032304Y-74745782D01*
X102996023Y-74741808D01*
X102968606Y-74736057D01*
X102966260Y-74735289D01*
X102934828Y-74717847D01*
X102899751Y-74688385D01*
X102866007Y-74652024D01*
X102838577Y-74613888D01*
X102827180Y-74592191D01*
X102810382Y-74553454D01*
X102757752Y-74596844D01*
X102724900Y-74623779D01*
X102687664Y-74654075D01*
X102648920Y-74685416D01*
X102611547Y-74715490D01*
X102578421Y-74741984D01*
X102552421Y-74762584D01*
X102536424Y-74774977D01*
X102533671Y-74776981D01*
X102529172Y-74775801D01*
X102526098Y-74763424D01*
X102524247Y-74737488D01*
X102523416Y-74695626D01*
X102523330Y-74656666D01*
X102523572Y-74529078D01*
X102649987Y-74429470D01*
X102776403Y-74329862D01*
X102776745Y-74252666D01*
X102777088Y-74175470D01*
X102946421Y-74175470D01*
X102946434Y-74302470D01*
X102946948Y-74360194D01*
X102948720Y-74402068D01*
X102952122Y-74432137D01*
X102957524Y-74454446D01*
X102961251Y-74464333D01*
X102985030Y-74500168D01*
X103017544Y-74522415D01*
X103054491Y-74530201D01*
X103091568Y-74522652D01*
X103124475Y-74498892D01*
X103125532Y-74497718D01*
X103142623Y-74471655D01*
X103154709Y-74436146D01*
X103162327Y-74388363D01*
X103166010Y-74325474D01*
X103166555Y-74280628D01*
X103166555Y-74175470D01*
X102946421Y-74175470D01*
X102777088Y-74175470D01*
X102523088Y-74175470D01*
X102523088Y-73956333D01*
X103327421Y-73956333D01*
X103327421Y-74219245D01*
G36*
X103327421Y-72910451D02*
G01*
X103158088Y-72910451D01*
X103158088Y-72621588D01*
X102523088Y-72621588D01*
X102523088Y-72412411D01*
X103158088Y-72412411D01*
X103158088Y-72123549D01*
X103327421Y-72123549D01*
X103327421Y-72910451D01*
G37*
X103327421Y-72910451D02*
X103158088Y-72910451D01*
X103158088Y-72621588D01*
X102523088Y-72621588D01*
X102523088Y-72412411D01*
X103158088Y-72412411D01*
X103158088Y-72123549D01*
X103327421Y-72123549D01*
X103327421Y-72910451D01*
G36*
X102294488Y-76870262D02*
G01*
X102099855Y-77023743D01*
X102049322Y-77063834D01*
X102003925Y-77100319D01*
X101965418Y-77131748D01*
X101935554Y-77156675D01*
X101916090Y-77173650D01*
X101908780Y-77181226D01*
X101908798Y-77181429D01*
X101916468Y-77187937D01*
X101936287Y-77204157D01*
X101966405Y-77228594D01*
X102004974Y-77259751D01*
X102050144Y-77296131D01*
X102100066Y-77336237D01*
X102101314Y-77337239D01*
X102290254Y-77488842D01*
X102292758Y-77555372D01*
X102293241Y-77588823D01*
X102292105Y-77612713D01*
X102289596Y-77621901D01*
X102289577Y-77621902D01*
X102281510Y-77616447D01*
X102261159Y-77600950D01*
X102230165Y-77576705D01*
X102190164Y-77545012D01*
X102142797Y-77507166D01*
X102089702Y-77464464D01*
X102044186Y-77427666D01*
X101804480Y-77233431D01*
X101490154Y-77233431D01*
X101490154Y-77123862D01*
X101802370Y-77123862D01*
X102025146Y-76943279D01*
X102080623Y-76898294D01*
X102132531Y-76856180D01*
X102178978Y-76818470D01*
X102218075Y-76786701D01*
X102247932Y-76762406D01*
X102266660Y-76747122D01*
X102271204Y-76743385D01*
X102294488Y-76724074D01*
X102294488Y-76870262D01*
G37*
X102294488Y-76870262D02*
X102099855Y-77023743D01*
X102049322Y-77063834D01*
X102003925Y-77100319D01*
X101965418Y-77131748D01*
X101935554Y-77156675D01*
X101916090Y-77173650D01*
X101908780Y-77181226D01*
X101908798Y-77181429D01*
X101916468Y-77187937D01*
X101936287Y-77204157D01*
X101966405Y-77228594D01*
X102004974Y-77259751D01*
X102050144Y-77296131D01*
X102100066Y-77336237D01*
X102101314Y-77337239D01*
X102290254Y-77488842D01*
X102292758Y-77555372D01*
X102293241Y-77588823D01*
X102292105Y-77612713D01*
X102289596Y-77621901D01*
X102289577Y-77621902D01*
X102281510Y-77616447D01*
X102261159Y-77600950D01*
X102230165Y-77576705D01*
X102190164Y-77545012D01*
X102142797Y-77507166D01*
X102089702Y-77464464D01*
X102044186Y-77427666D01*
X101804480Y-77233431D01*
X101490154Y-77233431D01*
X101490154Y-77123862D01*
X101802370Y-77123862D01*
X102025146Y-76943279D01*
X102080623Y-76898294D01*
X102132531Y-76856180D01*
X102178978Y-76818470D01*
X102218075Y-76786701D01*
X102247932Y-76762406D01*
X102266660Y-76747122D01*
X102271204Y-76743385D01*
X102294488Y-76724074D01*
X102294488Y-76870262D01*
G36*
X102294488Y-75699470D02*
G01*
X102209821Y-75699470D01*
X102209821Y-75390686D01*
X101490154Y-75390686D01*
X101490154Y-75271157D01*
X102209821Y-75271157D01*
X102209821Y-74952411D01*
X102294488Y-74952411D01*
X102294488Y-75699470D01*
G37*
X102294488Y-75699470D02*
X102209821Y-75699470D01*
X102209821Y-75390686D01*
X101490154Y-75390686D01*
X101490154Y-75271157D01*
X102209821Y-75271157D01*
X102209821Y-74952411D01*
X102294488Y-74952411D01*
X102294488Y-75699470D01*
G36*
X106193822Y-68816363D02*
G01*
X106206805Y-68839472D01*
X106226007Y-68876055D01*
X106250422Y-68924140D01*
X106279048Y-68981758D01*
X106310882Y-69046936D01*
X106337658Y-69102519D01*
X106371219Y-69172550D01*
X106402114Y-69236924D01*
X106429366Y-69293615D01*
X106452002Y-69340602D01*
X106469047Y-69375859D01*
X106479526Y-69397363D01*
X106482517Y-69403290D01*
X106490934Y-69401468D01*
X106514587Y-69395027D01*
X106552312Y-69384310D01*
X106602946Y-69369660D01*
X106665325Y-69351419D01*
X106738286Y-69329930D01*
X106820664Y-69305536D01*
X106911296Y-69278580D01*
X107009019Y-69249403D01*
X107112668Y-69218350D01*
X107221081Y-69185763D01*
X107222320Y-69185390D01*
X107330816Y-69152793D01*
X107434592Y-69121748D01*
X107532482Y-69092597D01*
X107623318Y-69065681D01*
X107705934Y-69041341D01*
X107779163Y-69019919D01*
X107841838Y-69001755D01*
X107892792Y-68987192D01*
X107930860Y-68976571D01*
X107954873Y-68970232D01*
X107963666Y-68968517D01*
X107963673Y-68968524D01*
X107962775Y-68978789D01*
X107958900Y-69006629D01*
X107952370Y-69050079D01*
X107943508Y-69107176D01*
X107932639Y-69175954D01*
X107920086Y-69254449D01*
X107906171Y-69340697D01*
X107891219Y-69432733D01*
X107875552Y-69528594D01*
X107859495Y-69626314D01*
X107843370Y-69723929D01*
X107827502Y-69819475D01*
X107812212Y-69910987D01*
X107797825Y-69996501D01*
X107784665Y-70074053D01*
X107773054Y-70141678D01*
X107763315Y-70197411D01*
X107755774Y-70239289D01*
X107750751Y-70265346D01*
X107748896Y-70273158D01*
X107739825Y-70285678D01*
X107718653Y-70308284D01*
X107687042Y-70339453D01*
X107646653Y-70377662D01*
X107599146Y-70421390D01*
X107546184Y-70469113D01*
X107489427Y-70519310D01*
X107430537Y-70570457D01*
X107371174Y-70621033D01*
X107349088Y-70639576D01*
X107161380Y-70793026D01*
X106967201Y-70945144D01*
X106767833Y-71095156D01*
X106564555Y-71242282D01*
X106358649Y-71385747D01*
X106151397Y-71524772D01*
X105944079Y-71658580D01*
X105737976Y-71786395D01*
X105534369Y-71907439D01*
X105334539Y-72020934D01*
X105139768Y-72126103D01*
X104951336Y-72222170D01*
X104770525Y-72308356D01*
X104598615Y-72383885D01*
X104436887Y-72447979D01*
X104286623Y-72499861D01*
X104279298Y-72502163D01*
X104177075Y-72534126D01*
X104258199Y-72625171D01*
X104440385Y-72822716D01*
X104620744Y-73003830D01*
X104802347Y-73171149D01*
X104988267Y-73327310D01*
X105181577Y-73474951D01*
X105385350Y-73616709D01*
X105501238Y-73692005D01*
X105544751Y-73720031D01*
X105582602Y-73745161D01*
X105612455Y-73765782D01*
X105631973Y-73780281D01*
X105638821Y-73787000D01*
X105631728Y-73793915D01*
X105612004Y-73808537D01*
X105581988Y-73829253D01*
X105544015Y-73854449D01*
X105501238Y-73881994D01*
X105290553Y-74021635D01*
X105091994Y-74165727D01*
X104902488Y-74316906D01*
X104718964Y-74477808D01*
X104538348Y-74651072D01*
X104357568Y-74839333D01*
X104258166Y-74948866D01*
X104177008Y-75039949D01*
X104249631Y-75062323D01*
X104407357Y-75115568D01*
X104576475Y-75181405D01*
X104755772Y-75259127D01*
X104944033Y-75348026D01*
X105140042Y-75447396D01*
X105342586Y-75556530D01*
X105550448Y-75674720D01*
X105762416Y-75801259D01*
X105977273Y-75935441D01*
X106193806Y-76076557D01*
X106410799Y-76223902D01*
X106627038Y-76376769D01*
X106841308Y-76534449D01*
X107039961Y-76686519D01*
X107128168Y-76756021D01*
X107214965Y-76825657D01*
X107299197Y-76894421D01*
X107379711Y-76961305D01*
X107455354Y-77025301D01*
X107524973Y-77085403D01*
X107587414Y-77140603D01*
X107641526Y-77189894D01*
X107686153Y-77232270D01*
X107720144Y-77266722D01*
X107742345Y-77292243D01*
X107751602Y-77307828D01*
X107751669Y-77308137D01*
X107756449Y-77333928D01*
X107763754Y-77375561D01*
X107773263Y-77431071D01*
X107784655Y-77498498D01*
X107797611Y-77575878D01*
X107811810Y-77661250D01*
X107826931Y-77752652D01*
X107842653Y-77848120D01*
X107858656Y-77945694D01*
X107874620Y-78043411D01*
X107890224Y-78139308D01*
X107905147Y-78231423D01*
X107919069Y-78317794D01*
X107931670Y-78396459D01*
X107942628Y-78465456D01*
X107951623Y-78522822D01*
X107958335Y-78566595D01*
X107962443Y-78594813D01*
X107963627Y-78605514D01*
X107963611Y-78605548D01*
X107954972Y-78603866D01*
X107931102Y-78597558D01*
X107893166Y-78586965D01*
X107842333Y-78572428D01*
X107779767Y-78554288D01*
X107706636Y-78532887D01*
X107624107Y-78508566D01*
X107533346Y-78481668D01*
X107435520Y-78452532D01*
X107331796Y-78421501D01*
X107223339Y-78388916D01*
X107222320Y-78388609D01*
X107113865Y-78356007D01*
X107010164Y-78324936D01*
X106912380Y-78295738D01*
X106821676Y-78268755D01*
X106739216Y-78244331D01*
X106666162Y-78222807D01*
X106603678Y-78204528D01*
X106552928Y-78189835D01*
X106515074Y-78179071D01*
X106491280Y-78172580D01*
X106482709Y-78170703D01*
X106482703Y-78170709D01*
X106478086Y-78180026D01*
X106466129Y-78204675D01*
X106447805Y-78242633D01*
X106424089Y-78291877D01*
X106395954Y-78350386D01*
X106364376Y-78416137D01*
X106337825Y-78471473D01*
X106304118Y-78541222D01*
X106272820Y-78604965D01*
X106244936Y-78660735D01*
X106221472Y-78706561D01*
X106203432Y-78740475D01*
X106191823Y-78760508D01*
X106187857Y-78765223D01*
X106182479Y-78756693D01*
X106168340Y-78732334D01*
X106145924Y-78693012D01*
X106115713Y-78639589D01*
X106078190Y-78572930D01*
X106033838Y-78493898D01*
X105983140Y-78403357D01*
X105926578Y-78302171D01*
X105864636Y-78191203D01*
X105797796Y-78071319D01*
X105726541Y-77943380D01*
X105651355Y-77808252D01*
X105572719Y-77666798D01*
X105491117Y-77519881D01*
X105407031Y-77368367D01*
X105401196Y-77357847D01*
X105316933Y-77206035D01*
X105235091Y-77058766D01*
X105156153Y-76916904D01*
X105080606Y-76781312D01*
X105008932Y-76652855D01*
X104941618Y-76532397D01*
X104879147Y-76420802D01*
X104822004Y-76318932D01*
X104770674Y-76227654D01*
X104725642Y-76147830D01*
X104687392Y-76080324D01*
X104656408Y-76026000D01*
X104633177Y-75985723D01*
X104618181Y-75960356D01*
X104611906Y-75950762D01*
X104611810Y-75950705D01*
X104602026Y-75953135D01*
X104577603Y-75961119D01*
X104540026Y-75974124D01*
X104490778Y-75991614D01*
X104431345Y-76013056D01*
X104363210Y-76037915D01*
X104287858Y-76065656D01*
X104206773Y-76095746D01*
X104148580Y-76117477D01*
X104064364Y-76148931D01*
X103984830Y-76178494D01*
X103911466Y-76205622D01*
X103845764Y-76229771D01*
X103789214Y-76250397D01*
X103743304Y-76266955D01*
X103709525Y-76278901D01*
X103689368Y-76285691D01*
X103684196Y-76287085D01*
X103676701Y-76280989D01*
X103676703Y-76260412D01*
X103677468Y-76254784D01*
X103679067Y-76240942D01*
X103682549Y-76208557D01*
X103687785Y-76158863D01*
X103694649Y-76093099D01*
X103703012Y-76012500D01*
X103712747Y-75918304D01*
X103723727Y-75811746D01*
X103735825Y-75694064D01*
X103748912Y-75566495D01*
X103762862Y-75430274D01*
X103777547Y-75286638D01*
X103792839Y-75136825D01*
X103806192Y-75005821D01*
X103930119Y-73789230D01*
X103806481Y-72575389D01*
X103790785Y-72421371D01*
X103775587Y-72272410D01*
X103761015Y-72129753D01*
X103747197Y-71994642D01*
X103734262Y-71868324D01*
X103722336Y-71752042D01*
X103711549Y-71647042D01*
X103702027Y-71554568D01*
X103693898Y-71475866D01*
X103687291Y-71412179D01*
X103682333Y-71364754D01*
X103679152Y-71334833D01*
X103677955Y-71324196D01*
X103676507Y-71297434D01*
X103681701Y-71287113D01*
X103683517Y-71286843D01*
X103693316Y-71289781D01*
X103717765Y-71298237D01*
X103755384Y-71311668D01*
X103804692Y-71329535D01*
X103864208Y-71351296D01*
X103932451Y-71376410D01*
X104007941Y-71404336D01*
X104089196Y-71434535D01*
X104149688Y-71457100D01*
X104234052Y-71488506D01*
X104313644Y-71517917D01*
X104386993Y-71544805D01*
X104452627Y-71568640D01*
X104509075Y-71588894D01*
X104554866Y-71605037D01*
X104588529Y-71616541D01*
X104608591Y-71622877D01*
X104613784Y-71623944D01*
X104619243Y-71615368D01*
X104633462Y-71590965D01*
X104655957Y-71551598D01*
X104686246Y-71498133D01*
X104723845Y-71431432D01*
X104768270Y-71352361D01*
X104819038Y-71261782D01*
X104875667Y-71160561D01*
X104937671Y-71049561D01*
X105004569Y-70929647D01*
X105075876Y-70801682D01*
X105151109Y-70666531D01*
X105229785Y-70525058D01*
X105311420Y-70378127D01*
X105395532Y-70226601D01*
X105401369Y-70216080D01*
X105485622Y-70064285D01*
X105567421Y-69917029D01*
X105646286Y-69775176D01*
X105721732Y-69639590D01*
X105793278Y-69511134D01*
X105860440Y-69390673D01*
X105922736Y-69279069D01*
X105979682Y-69177187D01*
X106030797Y-69085890D01*
X106075597Y-69006042D01*
X106113599Y-68938506D01*
X106144321Y-68884146D01*
X106167281Y-68843826D01*
X106181995Y-68818409D01*
X106187980Y-68808760D01*
X106188059Y-68808697D01*
X106193822Y-68816363D01*
G37*
X106193822Y-68816363D02*
X106206805Y-68839472D01*
X106226007Y-68876055D01*
X106250422Y-68924140D01*
X106279048Y-68981758D01*
X106310882Y-69046936D01*
X106337658Y-69102519D01*
X106371219Y-69172550D01*
X106402114Y-69236924D01*
X106429366Y-69293615D01*
X106452002Y-69340602D01*
X106469047Y-69375859D01*
X106479526Y-69397363D01*
X106482517Y-69403290D01*
X106490934Y-69401468D01*
X106514587Y-69395027D01*
X106552312Y-69384310D01*
X106602946Y-69369660D01*
X106665325Y-69351419D01*
X106738286Y-69329930D01*
X106820664Y-69305536D01*
X106911296Y-69278580D01*
X107009019Y-69249403D01*
X107112668Y-69218350D01*
X107221081Y-69185763D01*
X107222320Y-69185390D01*
X107330816Y-69152793D01*
X107434592Y-69121748D01*
X107532482Y-69092597D01*
X107623318Y-69065681D01*
X107705934Y-69041341D01*
X107779163Y-69019919D01*
X107841838Y-69001755D01*
X107892792Y-68987192D01*
X107930860Y-68976571D01*
X107954873Y-68970232D01*
X107963666Y-68968517D01*
X107963673Y-68968524D01*
X107962775Y-68978789D01*
X107958900Y-69006629D01*
X107952370Y-69050079D01*
X107943508Y-69107176D01*
X107932639Y-69175954D01*
X107920086Y-69254449D01*
X107906171Y-69340697D01*
X107891219Y-69432733D01*
X107875552Y-69528594D01*
X107859495Y-69626314D01*
X107843370Y-69723929D01*
X107827502Y-69819475D01*
X107812212Y-69910987D01*
X107797825Y-69996501D01*
X107784665Y-70074053D01*
X107773054Y-70141678D01*
X107763315Y-70197411D01*
X107755774Y-70239289D01*
X107750751Y-70265346D01*
X107748896Y-70273158D01*
X107739825Y-70285678D01*
X107718653Y-70308284D01*
X107687042Y-70339453D01*
X107646653Y-70377662D01*
X107599146Y-70421390D01*
X107546184Y-70469113D01*
X107489427Y-70519310D01*
X107430537Y-70570457D01*
X107371174Y-70621033D01*
X107349088Y-70639576D01*
X107161380Y-70793026D01*
X106967201Y-70945144D01*
X106767833Y-71095156D01*
X106564555Y-71242282D01*
X106358649Y-71385747D01*
X106151397Y-71524772D01*
X105944079Y-71658580D01*
X105737976Y-71786395D01*
X105534369Y-71907439D01*
X105334539Y-72020934D01*
X105139768Y-72126103D01*
X104951336Y-72222170D01*
X104770525Y-72308356D01*
X104598615Y-72383885D01*
X104436887Y-72447979D01*
X104286623Y-72499861D01*
X104279298Y-72502163D01*
X104177075Y-72534126D01*
X104258199Y-72625171D01*
X104440385Y-72822716D01*
X104620744Y-73003830D01*
X104802347Y-73171149D01*
X104988267Y-73327310D01*
X105181577Y-73474951D01*
X105385350Y-73616709D01*
X105501238Y-73692005D01*
X105544751Y-73720031D01*
X105582602Y-73745161D01*
X105612455Y-73765782D01*
X105631973Y-73780281D01*
X105638821Y-73787000D01*
X105631728Y-73793915D01*
X105612004Y-73808537D01*
X105581988Y-73829253D01*
X105544015Y-73854449D01*
X105501238Y-73881994D01*
X105290553Y-74021635D01*
X105091994Y-74165727D01*
X104902488Y-74316906D01*
X104718964Y-74477808D01*
X104538348Y-74651072D01*
X104357568Y-74839333D01*
X104258166Y-74948866D01*
X104177008Y-75039949D01*
X104249631Y-75062323D01*
X104407357Y-75115568D01*
X104576475Y-75181405D01*
X104755772Y-75259127D01*
X104944033Y-75348026D01*
X105140042Y-75447396D01*
X105342586Y-75556530D01*
X105550448Y-75674720D01*
X105762416Y-75801259D01*
X105977273Y-75935441D01*
X106193806Y-76076557D01*
X106410799Y-76223902D01*
X106627038Y-76376769D01*
X106841308Y-76534449D01*
X107039961Y-76686519D01*
X107128168Y-76756021D01*
X107214965Y-76825657D01*
X107299197Y-76894421D01*
X107379711Y-76961305D01*
X107455354Y-77025301D01*
X107524973Y-77085403D01*
X107587414Y-77140603D01*
X107641526Y-77189894D01*
X107686153Y-77232270D01*
X107720144Y-77266722D01*
X107742345Y-77292243D01*
X107751602Y-77307828D01*
X107751669Y-77308137D01*
X107756449Y-77333928D01*
X107763754Y-77375561D01*
X107773263Y-77431071D01*
X107784655Y-77498498D01*
X107797611Y-77575878D01*
X107811810Y-77661250D01*
X107826931Y-77752652D01*
X107842653Y-77848120D01*
X107858656Y-77945694D01*
X107874620Y-78043411D01*
X107890224Y-78139308D01*
X107905147Y-78231423D01*
X107919069Y-78317794D01*
X107931670Y-78396459D01*
X107942628Y-78465456D01*
X107951623Y-78522822D01*
X107958335Y-78566595D01*
X107962443Y-78594813D01*
X107963627Y-78605514D01*
X107963611Y-78605548D01*
X107954972Y-78603866D01*
X107931102Y-78597558D01*
X107893166Y-78586965D01*
X107842333Y-78572428D01*
X107779767Y-78554288D01*
X107706636Y-78532887D01*
X107624107Y-78508566D01*
X107533346Y-78481668D01*
X107435520Y-78452532D01*
X107331796Y-78421501D01*
X107223339Y-78388916D01*
X107222320Y-78388609D01*
X107113865Y-78356007D01*
X107010164Y-78324936D01*
X106912380Y-78295738D01*
X106821676Y-78268755D01*
X106739216Y-78244331D01*
X106666162Y-78222807D01*
X106603678Y-78204528D01*
X106552928Y-78189835D01*
X106515074Y-78179071D01*
X106491280Y-78172580D01*
X106482709Y-78170703D01*
X106482703Y-78170709D01*
X106478086Y-78180026D01*
X106466129Y-78204675D01*
X106447805Y-78242633D01*
X106424089Y-78291877D01*
X106395954Y-78350386D01*
X106364376Y-78416137D01*
X106337825Y-78471473D01*
X106304118Y-78541222D01*
X106272820Y-78604965D01*
X106244936Y-78660735D01*
X106221472Y-78706561D01*
X106203432Y-78740475D01*
X106191823Y-78760508D01*
X106187857Y-78765223D01*
X106182479Y-78756693D01*
X106168340Y-78732334D01*
X106145924Y-78693012D01*
X106115713Y-78639589D01*
X106078190Y-78572930D01*
X106033838Y-78493898D01*
X105983140Y-78403357D01*
X105926578Y-78302171D01*
X105864636Y-78191203D01*
X105797796Y-78071319D01*
X105726541Y-77943380D01*
X105651355Y-77808252D01*
X105572719Y-77666798D01*
X105491117Y-77519881D01*
X105407031Y-77368367D01*
X105401196Y-77357847D01*
X105316933Y-77206035D01*
X105235091Y-77058766D01*
X105156153Y-76916904D01*
X105080606Y-76781312D01*
X105008932Y-76652855D01*
X104941618Y-76532397D01*
X104879147Y-76420802D01*
X104822004Y-76318932D01*
X104770674Y-76227654D01*
X104725642Y-76147830D01*
X104687392Y-76080324D01*
X104656408Y-76026000D01*
X104633177Y-75985723D01*
X104618181Y-75960356D01*
X104611906Y-75950762D01*
X104611810Y-75950705D01*
X104602026Y-75953135D01*
X104577603Y-75961119D01*
X104540026Y-75974124D01*
X104490778Y-75991614D01*
X104431345Y-76013056D01*
X104363210Y-76037915D01*
X104287858Y-76065656D01*
X104206773Y-76095746D01*
X104148580Y-76117477D01*
X104064364Y-76148931D01*
X103984830Y-76178494D01*
X103911466Y-76205622D01*
X103845764Y-76229771D01*
X103789214Y-76250397D01*
X103743304Y-76266955D01*
X103709525Y-76278901D01*
X103689368Y-76285691D01*
X103684196Y-76287085D01*
X103676701Y-76280989D01*
X103676703Y-76260412D01*
X103677468Y-76254784D01*
X103679067Y-76240942D01*
X103682549Y-76208557D01*
X103687785Y-76158863D01*
X103694649Y-76093099D01*
X103703012Y-76012500D01*
X103712747Y-75918304D01*
X103723727Y-75811746D01*
X103735825Y-75694064D01*
X103748912Y-75566495D01*
X103762862Y-75430274D01*
X103777547Y-75286638D01*
X103792839Y-75136825D01*
X103806192Y-75005821D01*
X103930119Y-73789230D01*
X103806481Y-72575389D01*
X103790785Y-72421371D01*
X103775587Y-72272410D01*
X103761015Y-72129753D01*
X103747197Y-71994642D01*
X103734262Y-71868324D01*
X103722336Y-71752042D01*
X103711549Y-71647042D01*
X103702027Y-71554568D01*
X103693898Y-71475866D01*
X103687291Y-71412179D01*
X103682333Y-71364754D01*
X103679152Y-71334833D01*
X103677955Y-71324196D01*
X103676507Y-71297434D01*
X103681701Y-71287113D01*
X103683517Y-71286843D01*
X103693316Y-71289781D01*
X103717765Y-71298237D01*
X103755384Y-71311668D01*
X103804692Y-71329535D01*
X103864208Y-71351296D01*
X103932451Y-71376410D01*
X104007941Y-71404336D01*
X104089196Y-71434535D01*
X104149688Y-71457100D01*
X104234052Y-71488506D01*
X104313644Y-71517917D01*
X104386993Y-71544805D01*
X104452627Y-71568640D01*
X104509075Y-71588894D01*
X104554866Y-71605037D01*
X104588529Y-71616541D01*
X104608591Y-71622877D01*
X104613784Y-71623944D01*
X104619243Y-71615368D01*
X104633462Y-71590965D01*
X104655957Y-71551598D01*
X104686246Y-71498133D01*
X104723845Y-71431432D01*
X104768270Y-71352361D01*
X104819038Y-71261782D01*
X104875667Y-71160561D01*
X104937671Y-71049561D01*
X105004569Y-70929647D01*
X105075876Y-70801682D01*
X105151109Y-70666531D01*
X105229785Y-70525058D01*
X105311420Y-70378127D01*
X105395532Y-70226601D01*
X105401369Y-70216080D01*
X105485622Y-70064285D01*
X105567421Y-69917029D01*
X105646286Y-69775176D01*
X105721732Y-69639590D01*
X105793278Y-69511134D01*
X105860440Y-69390673D01*
X105922736Y-69279069D01*
X105979682Y-69177187D01*
X106030797Y-69085890D01*
X106075597Y-69006042D01*
X106113599Y-68938506D01*
X106144321Y-68884146D01*
X106167281Y-68843826D01*
X106181995Y-68818409D01*
X106187980Y-68808760D01*
X106188059Y-68808697D01*
X106193822Y-68816363D01*
G36*
X101946039Y-72130010D02*
G01*
X101985307Y-72138627D01*
X102065081Y-72167996D01*
X102135888Y-72213249D01*
X102196430Y-72272774D01*
X102245407Y-72344961D01*
X102281522Y-72428199D01*
X102303478Y-72520875D01*
X102305548Y-72536124D01*
X102309781Y-72630003D01*
X102300275Y-72722713D01*
X102277942Y-72810327D01*
X102243694Y-72888918D01*
X102212251Y-72937607D01*
X102180188Y-72979705D01*
X102106648Y-72901121D01*
X102136838Y-72857776D01*
X102157556Y-72823753D01*
X102178743Y-72782327D01*
X102190541Y-72755363D01*
X102202454Y-72722503D01*
X102209565Y-72692878D01*
X102213039Y-72659107D01*
X102214044Y-72613807D01*
X102214054Y-72606647D01*
X102213257Y-72558972D01*
X102210114Y-72523892D01*
X102203504Y-72494130D01*
X102192302Y-72462412D01*
X102191447Y-72460258D01*
X102155181Y-72391786D01*
X102106816Y-72334572D01*
X102049086Y-72290262D01*
X101984723Y-72260503D01*
X101916462Y-72246940D01*
X101847034Y-72251220D01*
X101845053Y-72251622D01*
X101770544Y-72275842D01*
X101705945Y-72314893D01*
X101652394Y-72367533D01*
X101611027Y-72432519D01*
X101582978Y-72508608D01*
X101574811Y-72547299D01*
X101569878Y-72627941D01*
X101581840Y-72708037D01*
X101610665Y-72787452D01*
X101652727Y-72860801D01*
X101687177Y-72911704D01*
X101658971Y-72945940D01*
X101640609Y-72966131D01*
X101626093Y-72978427D01*
X101621844Y-72980176D01*
X101610777Y-72972208D01*
X101592737Y-72950168D01*
X101569762Y-72916849D01*
X101543888Y-72875046D01*
X101538698Y-72866176D01*
X101512495Y-72806632D01*
X101493833Y-72734388D01*
X101483241Y-72654875D01*
X101481247Y-72573528D01*
X101488382Y-72495779D01*
X101498129Y-72449883D01*
X101529976Y-72364219D01*
X101575347Y-72289435D01*
X101632865Y-72226942D01*
X101701155Y-72178152D01*
X101778842Y-72144477D01*
X101802040Y-72137961D01*
X101853837Y-72127469D01*
X101899135Y-72124808D01*
X101946039Y-72130010D01*
G37*
X101946039Y-72130010D02*
X101985307Y-72138627D01*
X102065081Y-72167996D01*
X102135888Y-72213249D01*
X102196430Y-72272774D01*
X102245407Y-72344961D01*
X102281522Y-72428199D01*
X102303478Y-72520875D01*
X102305548Y-72536124D01*
X102309781Y-72630003D01*
X102300275Y-72722713D01*
X102277942Y-72810327D01*
X102243694Y-72888918D01*
X102212251Y-72937607D01*
X102180188Y-72979705D01*
X102106648Y-72901121D01*
X102136838Y-72857776D01*
X102157556Y-72823753D01*
X102178743Y-72782327D01*
X102190541Y-72755363D01*
X102202454Y-72722503D01*
X102209565Y-72692878D01*
X102213039Y-72659107D01*
X102214044Y-72613807D01*
X102214054Y-72606647D01*
X102213257Y-72558972D01*
X102210114Y-72523892D01*
X102203504Y-72494130D01*
X102192302Y-72462412D01*
X102191447Y-72460258D01*
X102155181Y-72391786D01*
X102106816Y-72334572D01*
X102049086Y-72290262D01*
X101984723Y-72260503D01*
X101916462Y-72246940D01*
X101847034Y-72251220D01*
X101845053Y-72251622D01*
X101770544Y-72275842D01*
X101705945Y-72314893D01*
X101652394Y-72367533D01*
X101611027Y-72432519D01*
X101582978Y-72508608D01*
X101574811Y-72547299D01*
X101569878Y-72627941D01*
X101581840Y-72708037D01*
X101610665Y-72787452D01*
X101652727Y-72860801D01*
X101687177Y-72911704D01*
X101658971Y-72945940D01*
X101640609Y-72966131D01*
X101626093Y-72978427D01*
X101621844Y-72980176D01*
X101610777Y-72972208D01*
X101592737Y-72950168D01*
X101569762Y-72916849D01*
X101543888Y-72875046D01*
X101538698Y-72866176D01*
X101512495Y-72806632D01*
X101493833Y-72734388D01*
X101483241Y-72654875D01*
X101481247Y-72573528D01*
X101488382Y-72495779D01*
X101498129Y-72449883D01*
X101529976Y-72364219D01*
X101575347Y-72289435D01*
X101632865Y-72226942D01*
X101701155Y-72178152D01*
X101778842Y-72144477D01*
X101802040Y-72137961D01*
X101853837Y-72127469D01*
X101899135Y-72124808D01*
X101946039Y-72130010D01*
G36*
X102935308Y-71325891D02*
G01*
X103331655Y-71524311D01*
X103331655Y-71729404D01*
X102527321Y-72132186D01*
X102524914Y-72021629D01*
X102524510Y-71976526D01*
X102525260Y-71938982D01*
X102527007Y-71913335D01*
X102529147Y-71904144D01*
X102539397Y-71897825D01*
X102561828Y-71886237D01*
X102592802Y-71871208D01*
X102618338Y-71859289D01*
X102700888Y-71821363D01*
X102700888Y-71626575D01*
X102870221Y-71626575D01*
X102870432Y-71674711D01*
X102871365Y-71706096D01*
X102873471Y-71723897D01*
X102877202Y-71731281D01*
X102883009Y-71731417D01*
X102885038Y-71730601D01*
X102925468Y-71712213D01*
X102967511Y-71692485D01*
X103008215Y-71672876D01*
X103044628Y-71654847D01*
X103073797Y-71639856D01*
X103092771Y-71629363D01*
X103098690Y-71624993D01*
X103091429Y-71619720D01*
X103071835Y-71608816D01*
X103043325Y-71593959D01*
X103009318Y-71576828D01*
X102973231Y-71559103D01*
X102938483Y-71542464D01*
X102908492Y-71528591D01*
X102886675Y-71519162D01*
X102876571Y-71515851D01*
X102874031Y-71525181D01*
X102871974Y-71550426D01*
X102870631Y-71587580D01*
X102870221Y-71626575D01*
X102700888Y-71626575D01*
X102700888Y-71428485D01*
X102611988Y-71386451D01*
X102523088Y-71344416D01*
X102523088Y-71235943D01*
X102523770Y-71191154D01*
X102525631Y-71155688D01*
X102528394Y-71133345D01*
X102531024Y-71127470D01*
X102540143Y-71131262D01*
X102563331Y-71142148D01*
X102599091Y-71159392D01*
X102645921Y-71182256D01*
X102702321Y-71210005D01*
X102766791Y-71241903D01*
X102837832Y-71277214D01*
X102876571Y-71296548D01*
X102913943Y-71315201D01*
X102935308Y-71325891D01*
G37*
X102935308Y-71325891D02*
X103331655Y-71524311D01*
X103331655Y-71729404D01*
X102527321Y-72132186D01*
X102524914Y-72021629D01*
X102524510Y-71976526D01*
X102525260Y-71938982D01*
X102527007Y-71913335D01*
X102529147Y-71904144D01*
X102539397Y-71897825D01*
X102561828Y-71886237D01*
X102592802Y-71871208D01*
X102618338Y-71859289D01*
X102700888Y-71821363D01*
X102700888Y-71626575D01*
X102870221Y-71626575D01*
X102870432Y-71674711D01*
X102871365Y-71706096D01*
X102873471Y-71723897D01*
X102877202Y-71731281D01*
X102883009Y-71731417D01*
X102885038Y-71730601D01*
X102925468Y-71712213D01*
X102967511Y-71692485D01*
X103008215Y-71672876D01*
X103044628Y-71654847D01*
X103073797Y-71639856D01*
X103092771Y-71629363D01*
X103098690Y-71624993D01*
X103091429Y-71619720D01*
X103071835Y-71608816D01*
X103043325Y-71593959D01*
X103009318Y-71576828D01*
X102973231Y-71559103D01*
X102938483Y-71542464D01*
X102908492Y-71528591D01*
X102886675Y-71519162D01*
X102876571Y-71515851D01*
X102874031Y-71525181D01*
X102871974Y-71550426D01*
X102870631Y-71587580D01*
X102870221Y-71626575D01*
X102700888Y-71626575D01*
X102700888Y-71428485D01*
X102611988Y-71386451D01*
X102523088Y-71344416D01*
X102523088Y-71235943D01*
X102523770Y-71191154D01*
X102525631Y-71155688D01*
X102528394Y-71133345D01*
X102531024Y-71127470D01*
X102540143Y-71131262D01*
X102563331Y-71142148D01*
X102599091Y-71159392D01*
X102645921Y-71182256D01*
X102702321Y-71210005D01*
X102766791Y-71241903D01*
X102837832Y-71277214D01*
X102876571Y-71296548D01*
X102913943Y-71315201D01*
X102935308Y-71325891D01*
G36*
X103327421Y-75141666D02*
G01*
X102692421Y-75141666D01*
X102692421Y-75609823D01*
X102523088Y-75609823D01*
X102523088Y-74922529D01*
X103327421Y-74922529D01*
X103327421Y-75141666D01*
G37*
X103327421Y-75141666D02*
X102692421Y-75141666D01*
X102692421Y-75609823D01*
X102523088Y-75609823D01*
X102523088Y-74922529D01*
X103327421Y-74922529D01*
X103327421Y-75141666D01*
G36*
X103050026Y-75736545D02*
G01*
X103111841Y-75764376D01*
X103169361Y-75807574D01*
X103218105Y-75858362D01*
X103272995Y-75935657D01*
X103312390Y-76020970D01*
X103336204Y-76114055D01*
X103344352Y-76214670D01*
X103344355Y-76216562D01*
X103336714Y-76318660D01*
X103314551Y-76412748D01*
X103279001Y-76497309D01*
X103231199Y-76570823D01*
X103172282Y-76631770D01*
X103103385Y-76678631D01*
X103025645Y-76709888D01*
X102966680Y-76721657D01*
X102886993Y-76721622D01*
X102808828Y-76702828D01*
X102734825Y-76666395D01*
X102667624Y-76613442D01*
X102638638Y-76582577D01*
X102587411Y-76512814D01*
X102550700Y-76439251D01*
X102527397Y-76358571D01*
X102516395Y-76267457D01*
X102515178Y-76212848D01*
X102516019Y-76188910D01*
X102685093Y-76188910D01*
X102685288Y-76256888D01*
X102700753Y-76323800D01*
X102703983Y-76332360D01*
X102736612Y-76392487D01*
X102780401Y-76440001D01*
X102832587Y-76473624D01*
X102890404Y-76492078D01*
X102951087Y-76494084D01*
X103011873Y-76478364D01*
X103015954Y-76476614D01*
X103071593Y-76443528D01*
X103115417Y-76397462D01*
X103145671Y-76345482D01*
X103159398Y-76313236D01*
X103167039Y-76284432D01*
X103170263Y-76250560D01*
X103170785Y-76217431D01*
X103169754Y-76174454D01*
X103165535Y-76142767D01*
X103156442Y-76113815D01*
X103145387Y-76088709D01*
X103108347Y-76028622D01*
X103061417Y-75984662D01*
X103004806Y-75956969D01*
X102938729Y-75945684D01*
X102928528Y-75945419D01*
X102890165Y-75946477D01*
X102861023Y-75951706D01*
X102833510Y-75962923D01*
X102816439Y-75972235D01*
X102765842Y-76011527D01*
X102726399Y-76062934D01*
X102699139Y-76123160D01*
X102685093Y-76188910D01*
X102516019Y-76188910D01*
X102516881Y-76164355D01*
X102520900Y-76116023D01*
X102526456Y-76076613D01*
X102528020Y-76069061D01*
X102556618Y-75981381D01*
X102599593Y-75902054D01*
X102655130Y-75833616D01*
X102721410Y-75778598D01*
X102748003Y-75762312D01*
X102780191Y-75745195D01*
X102806802Y-75734089D01*
X102833824Y-75727385D01*
X102867248Y-75723479D01*
X102900545Y-75721396D01*
X102928528Y-75721846D01*
X102980674Y-75722685D01*
X103050026Y-75736545D01*
G37*
X103050026Y-75736545D02*
X103111841Y-75764376D01*
X103169361Y-75807574D01*
X103218105Y-75858362D01*
X103272995Y-75935657D01*
X103312390Y-76020970D01*
X103336204Y-76114055D01*
X103344352Y-76214670D01*
X103344355Y-76216562D01*
X103336714Y-76318660D01*
X103314551Y-76412748D01*
X103279001Y-76497309D01*
X103231199Y-76570823D01*
X103172282Y-76631770D01*
X103103385Y-76678631D01*
X103025645Y-76709888D01*
X102966680Y-76721657D01*
X102886993Y-76721622D01*
X102808828Y-76702828D01*
X102734825Y-76666395D01*
X102667624Y-76613442D01*
X102638638Y-76582577D01*
X102587411Y-76512814D01*
X102550700Y-76439251D01*
X102527397Y-76358571D01*
X102516395Y-76267457D01*
X102515178Y-76212848D01*
X102516019Y-76188910D01*
X102685093Y-76188910D01*
X102685288Y-76256888D01*
X102700753Y-76323800D01*
X102703983Y-76332360D01*
X102736612Y-76392487D01*
X102780401Y-76440001D01*
X102832587Y-76473624D01*
X102890404Y-76492078D01*
X102951087Y-76494084D01*
X103011873Y-76478364D01*
X103015954Y-76476614D01*
X103071593Y-76443528D01*
X103115417Y-76397462D01*
X103145671Y-76345482D01*
X103159398Y-76313236D01*
X103167039Y-76284432D01*
X103170263Y-76250560D01*
X103170785Y-76217431D01*
X103169754Y-76174454D01*
X103165535Y-76142767D01*
X103156442Y-76113815D01*
X103145387Y-76088709D01*
X103108347Y-76028622D01*
X103061417Y-75984662D01*
X103004806Y-75956969D01*
X102938729Y-75945684D01*
X102928528Y-75945419D01*
X102890165Y-75946477D01*
X102861023Y-75951706D01*
X102833510Y-75962923D01*
X102816439Y-75972235D01*
X102765842Y-76011527D01*
X102726399Y-76062934D01*
X102699139Y-76123160D01*
X102685093Y-76188910D01*
X102516019Y-76188910D01*
X102516881Y-76164355D01*
X102520900Y-76116023D01*
X102526456Y-76076613D01*
X102528020Y-76069061D01*
X102556618Y-75981381D01*
X102599593Y-75902054D01*
X102655130Y-75833616D01*
X102721410Y-75778598D01*
X102748003Y-75762312D01*
X102780191Y-75745195D01*
X102806802Y-75734089D01*
X102833824Y-75727385D01*
X102867248Y-75723479D01*
X102900545Y-75721396D01*
X102928528Y-75721846D01*
X102980674Y-75722685D01*
X103050026Y-75736545D01*
G36*
X102294488Y-70378604D02*
G01*
X102294211Y-70466758D01*
X102293132Y-70537800D01*
X102290873Y-70594533D01*
X102287062Y-70639758D01*
X102281321Y-70676280D01*
X102273277Y-70706899D01*
X102262554Y-70734421D01*
X102248777Y-70761646D01*
X102241492Y-70774528D01*
X102203186Y-70823785D01*
X102167502Y-70852580D01*
X102139985Y-70869117D01*
X102116105Y-70878336D01*
X102088648Y-70882220D01*
X102057435Y-70882808D01*
X101992390Y-70874154D01*
X101936817Y-70848987D01*
X101890721Y-70807311D01*
X101854105Y-70749128D01*
X101833271Y-70695937D01*
X101815173Y-70638876D01*
X101657042Y-70778585D01*
X101612131Y-70818105D01*
X101571803Y-70853290D01*
X101537998Y-70882472D01*
X101512653Y-70903985D01*
X101497707Y-70916162D01*
X101494533Y-70918294D01*
X101492360Y-70909181D01*
X101490793Y-70885228D01*
X101490156Y-70851513D01*
X101490154Y-70849646D01*
X101490154Y-70780998D01*
X101646788Y-70643167D01*
X101803421Y-70505335D01*
X101803421Y-70250921D01*
X101886443Y-70250921D01*
X101889591Y-70427725D01*
X101891000Y-70493851D01*
X101892759Y-70543562D01*
X101895191Y-70580363D01*
X101898622Y-70607760D01*
X101903379Y-70629259D01*
X101909786Y-70648366D01*
X101910167Y-70649353D01*
X101938365Y-70702272D01*
X101974556Y-70740178D01*
X102016255Y-70762105D01*
X102060977Y-70767087D01*
X102106235Y-70754161D01*
X102134055Y-70736267D01*
X102158188Y-70711525D01*
X102177068Y-70678887D01*
X102191169Y-70636166D01*
X102200967Y-70581174D01*
X102206938Y-70511725D01*
X102209557Y-70425631D01*
X102209772Y-70387882D01*
X102209821Y-70250921D01*
X101886443Y-70250921D01*
X101803421Y-70250921D01*
X101490154Y-70250921D01*
X101490154Y-70131392D01*
X102294488Y-70131392D01*
X102294488Y-70378604D01*
G37*
X102294488Y-70378604D02*
X102294211Y-70466758D01*
X102293132Y-70537800D01*
X102290873Y-70594533D01*
X102287062Y-70639758D01*
X102281321Y-70676280D01*
X102273277Y-70706899D01*
X102262554Y-70734421D01*
X102248777Y-70761646D01*
X102241492Y-70774528D01*
X102203186Y-70823785D01*
X102167502Y-70852580D01*
X102139985Y-70869117D01*
X102116105Y-70878336D01*
X102088648Y-70882220D01*
X102057435Y-70882808D01*
X101992390Y-70874154D01*
X101936817Y-70848987D01*
X101890721Y-70807311D01*
X101854105Y-70749128D01*
X101833271Y-70695937D01*
X101815173Y-70638876D01*
X101657042Y-70778585D01*
X101612131Y-70818105D01*
X101571803Y-70853290D01*
X101537998Y-70882472D01*
X101512653Y-70903985D01*
X101497707Y-70916162D01*
X101494533Y-70918294D01*
X101492360Y-70909181D01*
X101490793Y-70885228D01*
X101490156Y-70851513D01*
X101490154Y-70849646D01*
X101490154Y-70780998D01*
X101646788Y-70643167D01*
X101803421Y-70505335D01*
X101803421Y-70250921D01*
X101886443Y-70250921D01*
X101889591Y-70427725D01*
X101891000Y-70493851D01*
X101892759Y-70543562D01*
X101895191Y-70580363D01*
X101898622Y-70607760D01*
X101903379Y-70629259D01*
X101909786Y-70648366D01*
X101910167Y-70649353D01*
X101938365Y-70702272D01*
X101974556Y-70740178D01*
X102016255Y-70762105D01*
X102060977Y-70767087D01*
X102106235Y-70754161D01*
X102134055Y-70736267D01*
X102158188Y-70711525D01*
X102177068Y-70678887D01*
X102191169Y-70636166D01*
X102200967Y-70581174D01*
X102206938Y-70511725D01*
X102209557Y-70425631D01*
X102209772Y-70387882D01*
X102209821Y-70250921D01*
X101886443Y-70250921D01*
X101803421Y-70250921D01*
X101490154Y-70250921D01*
X101490154Y-70131392D01*
X102294488Y-70131392D01*
X102294488Y-70378604D01*
G36*
X102016194Y-71059640D02*
G01*
X102088655Y-71093945D01*
X102153513Y-71142903D01*
X102209261Y-71204907D01*
X102254389Y-71278352D01*
X102287390Y-71361631D01*
X102306753Y-71453139D01*
X102311421Y-71527785D01*
X102303891Y-71614420D01*
X102282572Y-71701204D01*
X102249369Y-71782540D01*
X102206187Y-71852833D01*
X102196661Y-71864904D01*
X102139513Y-71920399D01*
X102072577Y-71962180D01*
X101998732Y-71989761D01*
X101920853Y-72002650D01*
X101841819Y-72000360D01*
X101764507Y-71982400D01*
X101694947Y-71950184D01*
X101632748Y-71902618D01*
X101577681Y-71839948D01*
X101532764Y-71766394D01*
X101501016Y-71686177D01*
X101497728Y-71674407D01*
X101487143Y-71615856D01*
X101482307Y-71548258D01*
X101570747Y-71548258D01*
X101583020Y-71629160D01*
X101587620Y-71645761D01*
X101617011Y-71716273D01*
X101657853Y-71774776D01*
X101707898Y-71820979D01*
X101764903Y-71854587D01*
X101826620Y-71875308D01*
X101890805Y-71882850D01*
X101955212Y-71876919D01*
X102017595Y-71857224D01*
X102075709Y-71823470D01*
X102127307Y-71775365D01*
X102165445Y-71721099D01*
X102197505Y-71648484D01*
X102214374Y-71572060D01*
X102216639Y-71494672D01*
X102204889Y-71419164D01*
X102179712Y-71348383D01*
X102141697Y-71285173D01*
X102091433Y-71232379D01*
X102059603Y-71209328D01*
X101989501Y-71175919D01*
X101917199Y-71161057D01*
X101845022Y-71164444D01*
X101775297Y-71185783D01*
X101710350Y-71224775D01*
X101672339Y-71258885D01*
X101625696Y-71319896D01*
X101592764Y-71390527D01*
X101574221Y-71467681D01*
X101570747Y-71548258D01*
X101482307Y-71548258D01*
X101482200Y-71546762D01*
X101482895Y-71474905D01*
X101489223Y-71408065D01*
X101497934Y-71364899D01*
X101529878Y-71278761D01*
X101575119Y-71203650D01*
X101632143Y-71140940D01*
X101699434Y-71092007D01*
X101775476Y-71058225D01*
X101854504Y-71041412D01*
X101917199Y-71041549D01*
X101937641Y-71041594D01*
X102016194Y-71059640D01*
G37*
X102016194Y-71059640D02*
X102088655Y-71093945D01*
X102153513Y-71142903D01*
X102209261Y-71204907D01*
X102254389Y-71278352D01*
X102287390Y-71361631D01*
X102306753Y-71453139D01*
X102311421Y-71527785D01*
X102303891Y-71614420D01*
X102282572Y-71701204D01*
X102249369Y-71782540D01*
X102206187Y-71852833D01*
X102196661Y-71864904D01*
X102139513Y-71920399D01*
X102072577Y-71962180D01*
X101998732Y-71989761D01*
X101920853Y-72002650D01*
X101841819Y-72000360D01*
X101764507Y-71982400D01*
X101694947Y-71950184D01*
X101632748Y-71902618D01*
X101577681Y-71839948D01*
X101532764Y-71766394D01*
X101501016Y-71686177D01*
X101497728Y-71674407D01*
X101487143Y-71615856D01*
X101482307Y-71548258D01*
X101570747Y-71548258D01*
X101583020Y-71629160D01*
X101587620Y-71645761D01*
X101617011Y-71716273D01*
X101657853Y-71774776D01*
X101707898Y-71820979D01*
X101764903Y-71854587D01*
X101826620Y-71875308D01*
X101890805Y-71882850D01*
X101955212Y-71876919D01*
X102017595Y-71857224D01*
X102075709Y-71823470D01*
X102127307Y-71775365D01*
X102165445Y-71721099D01*
X102197505Y-71648484D01*
X102214374Y-71572060D01*
X102216639Y-71494672D01*
X102204889Y-71419164D01*
X102179712Y-71348383D01*
X102141697Y-71285173D01*
X102091433Y-71232379D01*
X102059603Y-71209328D01*
X101989501Y-71175919D01*
X101917199Y-71161057D01*
X101845022Y-71164444D01*
X101775297Y-71185783D01*
X101710350Y-71224775D01*
X101672339Y-71258885D01*
X101625696Y-71319896D01*
X101592764Y-71390527D01*
X101574221Y-71467681D01*
X101570747Y-71548258D01*
X101482307Y-71548258D01*
X101482200Y-71546762D01*
X101482895Y-71474905D01*
X101489223Y-71408065D01*
X101497934Y-71364899D01*
X101529878Y-71278761D01*
X101575119Y-71203650D01*
X101632143Y-71140940D01*
X101699434Y-71092007D01*
X101775476Y-71058225D01*
X101854504Y-71041412D01*
X101917199Y-71041549D01*
X101937641Y-71041594D01*
X102016194Y-71059640D01*
G36*
X102294488Y-74812960D02*
G01*
X102209821Y-74812960D01*
X102209821Y-74235235D01*
X101938888Y-74235235D01*
X101938888Y-74753196D01*
X101854221Y-74753196D01*
X101854221Y-74235235D01*
X101583288Y-74235235D01*
X101583288Y-74812960D01*
X101490154Y-74812960D01*
X101490154Y-74125666D01*
X102294488Y-74125666D01*
X102294488Y-74812960D01*
G37*
X102294488Y-74812960D02*
X102209821Y-74812960D01*
X102209821Y-74235235D01*
X101938888Y-74235235D01*
X101938888Y-74753196D01*
X101854221Y-74753196D01*
X101854221Y-74235235D01*
X101583288Y-74235235D01*
X101583288Y-74812960D01*
X101490154Y-74812960D01*
X101490154Y-74125666D01*
X102294488Y-74125666D01*
X102294488Y-74812960D01*
G36*
X102998719Y-76863228D02*
G01*
X103073558Y-76887251D01*
X103144194Y-76927399D01*
X103208313Y-76983635D01*
X103219297Y-76995823D01*
X103270182Y-77067775D01*
X103307869Y-77149410D01*
X103332282Y-77237820D01*
X103343348Y-77330099D01*
X103340992Y-77423339D01*
X103325138Y-77514633D01*
X103295713Y-77601075D01*
X103252640Y-77679756D01*
X103237433Y-77700908D01*
X103189825Y-77755709D01*
X103139784Y-77796453D01*
X103081030Y-77827974D01*
X103062330Y-77835740D01*
X102981547Y-77857829D01*
X102901695Y-77861123D01*
X102824542Y-77846722D01*
X102751857Y-77815729D01*
X102685409Y-77769244D01*
X102626965Y-77708370D01*
X102578296Y-77634208D01*
X102541169Y-77547858D01*
X102528129Y-77503055D01*
X102518042Y-77441749D01*
X102514385Y-77370152D01*
X102515515Y-77338347D01*
X102685129Y-77338347D01*
X102687386Y-77409511D01*
X102696891Y-77453842D01*
X102722414Y-77513039D01*
X102759923Y-77561570D01*
X102806615Y-77598476D01*
X102859692Y-77622801D01*
X102916352Y-77633587D01*
X102973795Y-77629879D01*
X103029219Y-77610718D01*
X103072085Y-77582052D01*
X103117253Y-77532536D01*
X103149767Y-77473569D01*
X103168870Y-77408515D01*
X103173799Y-77340736D01*
X103163796Y-77273597D01*
X103150443Y-77235325D01*
X103124481Y-77191577D01*
X103087597Y-77149873D01*
X103045520Y-77115899D01*
X103012389Y-77098271D01*
X102967349Y-77087380D01*
X102916314Y-77085516D01*
X102866001Y-77092230D01*
X102823123Y-77107070D01*
X102815188Y-77111483D01*
X102764007Y-77153170D01*
X102724538Y-77206997D01*
X102697879Y-77269782D01*
X102685129Y-77338347D01*
X102515515Y-77338347D01*
X102517008Y-77296310D01*
X102525760Y-77228270D01*
X102533890Y-77193588D01*
X102562249Y-77113173D01*
X102597812Y-77045653D01*
X102642392Y-76986339D01*
X102703568Y-76929161D01*
X102772100Y-76888299D01*
X102845678Y-76863714D01*
X102916314Y-76855991D01*
X102921988Y-76855370D01*
X102998719Y-76863228D01*
G37*
X102998719Y-76863228D02*
X103073558Y-76887251D01*
X103144194Y-76927399D01*
X103208313Y-76983635D01*
X103219297Y-76995823D01*
X103270182Y-77067775D01*
X103307869Y-77149410D01*
X103332282Y-77237820D01*
X103343348Y-77330099D01*
X103340992Y-77423339D01*
X103325138Y-77514633D01*
X103295713Y-77601075D01*
X103252640Y-77679756D01*
X103237433Y-77700908D01*
X103189825Y-77755709D01*
X103139784Y-77796453D01*
X103081030Y-77827974D01*
X103062330Y-77835740D01*
X102981547Y-77857829D01*
X102901695Y-77861123D01*
X102824542Y-77846722D01*
X102751857Y-77815729D01*
X102685409Y-77769244D01*
X102626965Y-77708370D01*
X102578296Y-77634208D01*
X102541169Y-77547858D01*
X102528129Y-77503055D01*
X102518042Y-77441749D01*
X102514385Y-77370152D01*
X102515515Y-77338347D01*
X102685129Y-77338347D01*
X102687386Y-77409511D01*
X102696891Y-77453842D01*
X102722414Y-77513039D01*
X102759923Y-77561570D01*
X102806615Y-77598476D01*
X102859692Y-77622801D01*
X102916352Y-77633587D01*
X102973795Y-77629879D01*
X103029219Y-77610718D01*
X103072085Y-77582052D01*
X103117253Y-77532536D01*
X103149767Y-77473569D01*
X103168870Y-77408515D01*
X103173799Y-77340736D01*
X103163796Y-77273597D01*
X103150443Y-77235325D01*
X103124481Y-77191577D01*
X103087597Y-77149873D01*
X103045520Y-77115899D01*
X103012389Y-77098271D01*
X102967349Y-77087380D01*
X102916314Y-77085516D01*
X102866001Y-77092230D01*
X102823123Y-77107070D01*
X102815188Y-77111483D01*
X102764007Y-77153170D01*
X102724538Y-77206997D01*
X102697879Y-77269782D01*
X102685129Y-77338347D01*
X102515515Y-77338347D01*
X102517008Y-77296310D01*
X102525760Y-77228270D01*
X102533890Y-77193588D01*
X102562249Y-77113173D01*
X102597812Y-77045653D01*
X102642392Y-76986339D01*
X102703568Y-76929161D01*
X102772100Y-76888299D01*
X102845678Y-76863714D01*
X102916314Y-76855991D01*
X102921988Y-76855370D01*
X102998719Y-76863228D01*
G36*
X108552968Y-71953147D02*
G01*
X108589291Y-71949043D01*
X108724009Y-71933839D01*
X108854033Y-71919222D01*
X108978374Y-71905301D01*
X109096038Y-71892183D01*
X109206035Y-71879978D01*
X109307374Y-71868794D01*
X109399062Y-71858739D01*
X109480109Y-71849923D01*
X109549523Y-71842454D01*
X109606313Y-71836440D01*
X109649488Y-71831990D01*
X109678055Y-71829214D01*
X109691024Y-71828218D01*
X109691721Y-71828268D01*
X109689028Y-71837808D01*
X109680170Y-71863881D01*
X109665768Y-71904768D01*
X109646441Y-71958749D01*
X109622810Y-72024104D01*
X109595495Y-72099113D01*
X109565115Y-72182057D01*
X109532291Y-72271216D01*
X109520975Y-72301854D01*
X109487383Y-72392872D01*
X109455931Y-72478375D01*
X109427249Y-72556624D01*
X109401972Y-72625877D01*
X109380732Y-72684395D01*
X109364163Y-72730437D01*
X109352898Y-72762262D01*
X109347569Y-72778130D01*
X109347221Y-72779557D01*
X109354462Y-72785355D01*
X109375530Y-72800165D01*
X109409446Y-72823336D01*
X109455231Y-72854216D01*
X109511903Y-72892154D01*
X109578485Y-72936498D01*
X109653995Y-72986596D01*
X109737455Y-73041798D01*
X109827883Y-73101451D01*
X109924302Y-73164904D01*
X110025729Y-73231506D01*
X110104988Y-73283452D01*
X110209546Y-73351994D01*
X110309833Y-73417875D01*
X110404871Y-73480441D01*
X110493679Y-73539043D01*
X110575278Y-73593030D01*
X110648688Y-73641750D01*
X110712928Y-73684552D01*
X110767020Y-73720785D01*
X110809984Y-73749798D01*
X110840839Y-73770940D01*
X110858607Y-73783559D01*
X110862754Y-73787045D01*
X110855515Y-73792801D01*
X110834448Y-73807573D01*
X110800534Y-73830707D01*
X110754752Y-73861555D01*
X110698083Y-73899463D01*
X110631505Y-73943782D01*
X110555999Y-73993860D01*
X110472545Y-74049045D01*
X110382121Y-74108687D01*
X110285708Y-74172134D01*
X110184285Y-74238736D01*
X110104988Y-74290714D01*
X110000427Y-74359278D01*
X109900136Y-74425195D01*
X109805096Y-74487813D01*
X109716286Y-74546480D01*
X109634686Y-74600543D01*
X109561276Y-74649351D01*
X109497035Y-74692249D01*
X109442944Y-74728587D01*
X109399982Y-74757711D01*
X109369129Y-74778969D01*
X109351365Y-74791709D01*
X109347221Y-74795287D01*
X109350505Y-74805762D01*
X109359932Y-74832749D01*
X109374870Y-74874503D01*
X109394685Y-74929281D01*
X109418742Y-74995338D01*
X109446408Y-75070930D01*
X109477048Y-75154313D01*
X109510029Y-75243742D01*
X109520850Y-75273015D01*
X109554344Y-75363791D01*
X109585601Y-75448918D01*
X109614000Y-75526676D01*
X109638921Y-75595344D01*
X109659743Y-75653202D01*
X109675843Y-75698532D01*
X109686603Y-75729611D01*
X109691400Y-75744722D01*
X109691571Y-75745909D01*
X109682947Y-75745393D01*
X109658460Y-75743066D01*
X109619101Y-75739039D01*
X109565861Y-75733418D01*
X109499732Y-75726314D01*
X109421705Y-75717834D01*
X109332771Y-75708088D01*
X109233921Y-75697184D01*
X109126148Y-75685231D01*
X109010441Y-75672338D01*
X108887793Y-75658613D01*
X108759194Y-75644165D01*
X108625636Y-75629103D01*
X108589261Y-75624992D01*
X108454538Y-75609788D01*
X108324503Y-75595177D01*
X108200147Y-75581267D01*
X108082464Y-75568167D01*
X107972444Y-75555985D01*
X107871079Y-75544828D01*
X107779362Y-75534807D01*
X107698284Y-75526027D01*
X107628836Y-75518599D01*
X107572012Y-75512629D01*
X107528802Y-75508227D01*
X107500199Y-75505501D01*
X107487194Y-75504558D01*
X107486487Y-75504622D01*
X107491450Y-75512499D01*
X107506847Y-75534146D01*
X107531852Y-75568453D01*
X107565641Y-75614309D01*
X107607387Y-75670605D01*
X107656264Y-75736232D01*
X107711447Y-75810079D01*
X107772110Y-75891038D01*
X107837427Y-75977998D01*
X107906572Y-76069849D01*
X107943151Y-76118360D01*
X108014056Y-76212383D01*
X108081671Y-76302123D01*
X108145159Y-76386465D01*
X108203683Y-76464290D01*
X108256405Y-76534484D01*
X108302488Y-76595930D01*
X108341093Y-76647511D01*
X108371384Y-76688112D01*
X108392523Y-76716616D01*
X108403672Y-76731906D01*
X108405240Y-76734251D01*
X108398025Y-76738810D01*
X108376741Y-76749331D01*
X108343239Y-76764992D01*
X108299371Y-76784969D01*
X108246988Y-76808441D01*
X108187943Y-76834586D01*
X108124087Y-76862581D01*
X108057271Y-76891604D01*
X107989348Y-76920833D01*
X107922170Y-76949444D01*
X107891079Y-76962572D01*
X107882184Y-76957599D01*
X107863626Y-76941775D01*
X107838256Y-76917669D01*
X107813295Y-76892414D01*
X107692583Y-76769842D01*
X107561183Y-76641523D01*
X107420593Y-76508688D01*
X107272312Y-76372565D01*
X107117837Y-76234385D01*
X106958668Y-76095378D01*
X106796303Y-75956773D01*
X106632239Y-75819801D01*
X106467976Y-75685690D01*
X106305011Y-75555672D01*
X106144843Y-75430976D01*
X105988970Y-75312831D01*
X105838891Y-75202468D01*
X105696104Y-75101116D01*
X105562107Y-75010006D01*
X105438398Y-74930366D01*
X105378172Y-74893620D01*
X105358067Y-74879358D01*
X105347272Y-74867156D01*
X105346750Y-74862709D01*
X105355329Y-74854441D01*
X105375698Y-74837863D01*
X105405198Y-74815054D01*
X105441170Y-74788092D01*
X105459232Y-74774812D01*
X105622395Y-74661450D01*
X105793017Y-74554580D01*
X105972044Y-74453819D01*
X106160421Y-74358781D01*
X106359094Y-74269082D01*
X106569008Y-74184336D01*
X106791109Y-74104160D01*
X107026341Y-74028167D01*
X107275650Y-73955974D01*
X107539983Y-73887196D01*
X107778771Y-73830772D01*
X107830157Y-73818905D01*
X107875389Y-73808000D01*
X107912011Y-73798686D01*
X107937569Y-73791594D01*
X107949607Y-73787354D01*
X107950221Y-73786774D01*
X107942369Y-73783223D01*
X107920734Y-73776895D01*
X107888197Y-73768547D01*
X107847640Y-73758938D01*
X107825338Y-73753916D01*
X107537505Y-73686602D01*
X107265541Y-73615544D01*
X107008632Y-73540413D01*
X106765967Y-73460882D01*
X106536730Y-73376622D01*
X106320110Y-73287305D01*
X106289220Y-73273022D01*
X108407121Y-73273022D01*
X108410561Y-73278505D01*
X108423511Y-73295300D01*
X108443659Y-73320454D01*
X108457921Y-73337940D01*
X108487669Y-73377114D01*
X108517110Y-73420740D01*
X108540888Y-73460771D01*
X108545276Y-73469187D01*
X108575983Y-73537974D01*
X108596829Y-73604662D01*
X108609144Y-73675451D01*
X108614262Y-73756543D01*
X108614594Y-73791980D01*
X108613985Y-73847082D01*
X108611958Y-73888361D01*
X108607797Y-73921898D01*
X108600787Y-73953775D01*
X108591910Y-73984568D01*
X108559810Y-74072448D01*
X108519568Y-74149925D01*
X108467361Y-74224166D01*
X108457921Y-74235883D01*
X108434636Y-74264630D01*
X108417182Y-74286746D01*
X108407867Y-74299277D01*
X108407121Y-74300978D01*
X108415706Y-74297707D01*
X108439281Y-74288956D01*
X108476665Y-74275160D01*
X108526679Y-74256750D01*
X108588142Y-74234161D01*
X108659875Y-74207825D01*
X108740695Y-74178177D01*
X108829425Y-74145650D01*
X108924882Y-74110676D01*
X109025888Y-74073690D01*
X109103669Y-74045221D01*
X109207917Y-74007015D01*
X109307399Y-73970445D01*
X109400946Y-73935947D01*
X109487386Y-73903959D01*
X109565550Y-73874917D01*
X109634266Y-73849258D01*
X109692364Y-73827419D01*
X109738674Y-73809836D01*
X109772024Y-73796947D01*
X109791245Y-73789188D01*
X109795684Y-73787000D01*
X109787791Y-73783361D01*
X109764894Y-73774266D01*
X109728162Y-73760151D01*
X109678767Y-73741453D01*
X109617878Y-73718608D01*
X109546668Y-73692054D01*
X109466305Y-73662228D01*
X109377960Y-73629565D01*
X109282805Y-73594503D01*
X109182010Y-73557479D01*
X109103669Y-73528779D01*
X108999312Y-73490580D01*
X108899627Y-73454072D01*
X108805796Y-73419689D01*
X108718998Y-73387865D01*
X108640413Y-73359031D01*
X108571223Y-73333623D01*
X108512606Y-73312073D01*
X108465744Y-73294814D01*
X108431816Y-73282280D01*
X108412003Y-73274905D01*
X108407121Y-73273022D01*
X106289220Y-73273022D01*
X106115292Y-73192602D01*
X105921463Y-73092186D01*
X105737810Y-72985728D01*
X105563519Y-72872901D01*
X105459232Y-72799187D01*
X105421169Y-72771008D01*
X105388350Y-72746023D01*
X105363433Y-72726309D01*
X105349078Y-72713944D01*
X105346750Y-72711290D01*
X105350683Y-72701905D01*
X105366119Y-72688303D01*
X105378172Y-72680379D01*
X105495127Y-72607716D01*
X105623173Y-72522963D01*
X105760812Y-72427348D01*
X105906544Y-72322103D01*
X106058871Y-72208459D01*
X106216293Y-72087644D01*
X106377312Y-71960891D01*
X106540428Y-71829428D01*
X106704142Y-71694487D01*
X106866955Y-71557298D01*
X107027369Y-71419092D01*
X107183884Y-71281097D01*
X107335001Y-71144546D01*
X107479221Y-71010668D01*
X107615046Y-70880694D01*
X107740975Y-70755854D01*
X107813295Y-70681705D01*
X107842227Y-70652515D01*
X107866794Y-70629412D01*
X107884148Y-70614967D01*
X107891122Y-70611427D01*
X107948789Y-70635755D01*
X108010218Y-70662014D01*
X108073424Y-70689324D01*
X108136425Y-70716804D01*
X108197236Y-70743572D01*
X108253874Y-70768747D01*
X108304356Y-70791449D01*
X108346699Y-70810795D01*
X108378919Y-70825905D01*
X108399033Y-70835896D01*
X108405141Y-70839811D01*
X108399349Y-70848042D01*
X108383147Y-70870047D01*
X108357370Y-70904711D01*
X108322858Y-70950917D01*
X108280445Y-71007548D01*
X108230972Y-71073487D01*
X108175273Y-71147620D01*
X108114188Y-71228828D01*
X108048552Y-71315996D01*
X107979204Y-71408007D01*
X107943194Y-71455752D01*
X107872413Y-71549677D01*
X107805038Y-71639276D01*
X107741894Y-71723440D01*
X107683807Y-71801060D01*
X107631602Y-71871025D01*
X107586106Y-71932226D01*
X107548143Y-71983554D01*
X107518541Y-72023899D01*
X107498124Y-72052150D01*
X107487719Y-72067198D01*
X107486534Y-72069433D01*
X107495210Y-72068978D01*
X107519750Y-72066712D01*
X107559160Y-72062742D01*
X107612449Y-72057176D01*
X107678626Y-72050123D01*
X107756698Y-72041691D01*
X107845674Y-72031988D01*
X107944562Y-72021122D01*
X108052370Y-72009203D01*
X108168107Y-71996337D01*
X108290780Y-71982634D01*
X108407121Y-71969579D01*
X108419398Y-71968201D01*
X108552968Y-71953147D01*
G37*
X108552968Y-71953147D02*
X108589291Y-71949043D01*
X108724009Y-71933839D01*
X108854033Y-71919222D01*
X108978374Y-71905301D01*
X109096038Y-71892183D01*
X109206035Y-71879978D01*
X109307374Y-71868794D01*
X109399062Y-71858739D01*
X109480109Y-71849923D01*
X109549523Y-71842454D01*
X109606313Y-71836440D01*
X109649488Y-71831990D01*
X109678055Y-71829214D01*
X109691024Y-71828218D01*
X109691721Y-71828268D01*
X109689028Y-71837808D01*
X109680170Y-71863881D01*
X109665768Y-71904768D01*
X109646441Y-71958749D01*
X109622810Y-72024104D01*
X109595495Y-72099113D01*
X109565115Y-72182057D01*
X109532291Y-72271216D01*
X109520975Y-72301854D01*
X109487383Y-72392872D01*
X109455931Y-72478375D01*
X109427249Y-72556624D01*
X109401972Y-72625877D01*
X109380732Y-72684395D01*
X109364163Y-72730437D01*
X109352898Y-72762262D01*
X109347569Y-72778130D01*
X109347221Y-72779557D01*
X109354462Y-72785355D01*
X109375530Y-72800165D01*
X109409446Y-72823336D01*
X109455231Y-72854216D01*
X109511903Y-72892154D01*
X109578485Y-72936498D01*
X109653995Y-72986596D01*
X109737455Y-73041798D01*
X109827883Y-73101451D01*
X109924302Y-73164904D01*
X110025729Y-73231506D01*
X110104988Y-73283452D01*
X110209546Y-73351994D01*
X110309833Y-73417875D01*
X110404871Y-73480441D01*
X110493679Y-73539043D01*
X110575278Y-73593030D01*
X110648688Y-73641750D01*
X110712928Y-73684552D01*
X110767020Y-73720785D01*
X110809984Y-73749798D01*
X110840839Y-73770940D01*
X110858607Y-73783559D01*
X110862754Y-73787045D01*
X110855515Y-73792801D01*
X110834448Y-73807573D01*
X110800534Y-73830707D01*
X110754752Y-73861555D01*
X110698083Y-73899463D01*
X110631505Y-73943782D01*
X110555999Y-73993860D01*
X110472545Y-74049045D01*
X110382121Y-74108687D01*
X110285708Y-74172134D01*
X110184285Y-74238736D01*
X110104988Y-74290714D01*
X110000427Y-74359278D01*
X109900136Y-74425195D01*
X109805096Y-74487813D01*
X109716286Y-74546480D01*
X109634686Y-74600543D01*
X109561276Y-74649351D01*
X109497035Y-74692249D01*
X109442944Y-74728587D01*
X109399982Y-74757711D01*
X109369129Y-74778969D01*
X109351365Y-74791709D01*
X109347221Y-74795287D01*
X109350505Y-74805762D01*
X109359932Y-74832749D01*
X109374870Y-74874503D01*
X109394685Y-74929281D01*
X109418742Y-74995338D01*
X109446408Y-75070930D01*
X109477048Y-75154313D01*
X109510029Y-75243742D01*
X109520850Y-75273015D01*
X109554344Y-75363791D01*
X109585601Y-75448918D01*
X109614000Y-75526676D01*
X109638921Y-75595344D01*
X109659743Y-75653202D01*
X109675843Y-75698532D01*
X109686603Y-75729611D01*
X109691400Y-75744722D01*
X109691571Y-75745909D01*
X109682947Y-75745393D01*
X109658460Y-75743066D01*
X109619101Y-75739039D01*
X109565861Y-75733418D01*
X109499732Y-75726314D01*
X109421705Y-75717834D01*
X109332771Y-75708088D01*
X109233921Y-75697184D01*
X109126148Y-75685231D01*
X109010441Y-75672338D01*
X108887793Y-75658613D01*
X108759194Y-75644165D01*
X108625636Y-75629103D01*
X108589261Y-75624992D01*
X108454538Y-75609788D01*
X108324503Y-75595177D01*
X108200147Y-75581267D01*
X108082464Y-75568167D01*
X107972444Y-75555985D01*
X107871079Y-75544828D01*
X107779362Y-75534807D01*
X107698284Y-75526027D01*
X107628836Y-75518599D01*
X107572012Y-75512629D01*
X107528802Y-75508227D01*
X107500199Y-75505501D01*
X107487194Y-75504558D01*
X107486487Y-75504622D01*
X107491450Y-75512499D01*
X107506847Y-75534146D01*
X107531852Y-75568453D01*
X107565641Y-75614309D01*
X107607387Y-75670605D01*
X107656264Y-75736232D01*
X107711447Y-75810079D01*
X107772110Y-75891038D01*
X107837427Y-75977998D01*
X107906572Y-76069849D01*
X107943151Y-76118360D01*
X108014056Y-76212383D01*
X108081671Y-76302123D01*
X108145159Y-76386465D01*
X108203683Y-76464290D01*
X108256405Y-76534484D01*
X108302488Y-76595930D01*
X108341093Y-76647511D01*
X108371384Y-76688112D01*
X108392523Y-76716616D01*
X108403672Y-76731906D01*
X108405240Y-76734251D01*
X108398025Y-76738810D01*
X108376741Y-76749331D01*
X108343239Y-76764992D01*
X108299371Y-76784969D01*
X108246988Y-76808441D01*
X108187943Y-76834586D01*
X108124087Y-76862581D01*
X108057271Y-76891604D01*
X107989348Y-76920833D01*
X107922170Y-76949444D01*
X107891079Y-76962572D01*
X107882184Y-76957599D01*
X107863626Y-76941775D01*
X107838256Y-76917669D01*
X107813295Y-76892414D01*
X107692583Y-76769842D01*
X107561183Y-76641523D01*
X107420593Y-76508688D01*
X107272312Y-76372565D01*
X107117837Y-76234385D01*
X106958668Y-76095378D01*
X106796303Y-75956773D01*
X106632239Y-75819801D01*
X106467976Y-75685690D01*
X106305011Y-75555672D01*
X106144843Y-75430976D01*
X105988970Y-75312831D01*
X105838891Y-75202468D01*
X105696104Y-75101116D01*
X105562107Y-75010006D01*
X105438398Y-74930366D01*
X105378172Y-74893620D01*
X105358067Y-74879358D01*
X105347272Y-74867156D01*
X105346750Y-74862709D01*
X105355329Y-74854441D01*
X105375698Y-74837863D01*
X105405198Y-74815054D01*
X105441170Y-74788092D01*
X105459232Y-74774812D01*
X105622395Y-74661450D01*
X105793017Y-74554580D01*
X105972044Y-74453819D01*
X106160421Y-74358781D01*
X106359094Y-74269082D01*
X106569008Y-74184336D01*
X106791109Y-74104160D01*
X107026341Y-74028167D01*
X107275650Y-73955974D01*
X107539983Y-73887196D01*
X107778771Y-73830772D01*
X107830157Y-73818905D01*
X107875389Y-73808000D01*
X107912011Y-73798686D01*
X107937569Y-73791594D01*
X107949607Y-73787354D01*
X107950221Y-73786774D01*
X107942369Y-73783223D01*
X107920734Y-73776895D01*
X107888197Y-73768547D01*
X107847640Y-73758938D01*
X107825338Y-73753916D01*
X107537505Y-73686602D01*
X107265541Y-73615544D01*
X107008632Y-73540413D01*
X106765967Y-73460882D01*
X106536730Y-73376622D01*
X106320110Y-73287305D01*
X106289220Y-73273022D01*
X108407121Y-73273022D01*
X108410561Y-73278505D01*
X108423511Y-73295300D01*
X108443659Y-73320454D01*
X108457921Y-73337940D01*
X108487669Y-73377114D01*
X108517110Y-73420740D01*
X108540888Y-73460771D01*
X108545276Y-73469187D01*
X108575983Y-73537974D01*
X108596829Y-73604662D01*
X108609144Y-73675451D01*
X108614262Y-73756543D01*
X108614594Y-73791980D01*
X108613985Y-73847082D01*
X108611958Y-73888361D01*
X108607797Y-73921898D01*
X108600787Y-73953775D01*
X108591910Y-73984568D01*
X108559810Y-74072448D01*
X108519568Y-74149925D01*
X108467361Y-74224166D01*
X108457921Y-74235883D01*
X108434636Y-74264630D01*
X108417182Y-74286746D01*
X108407867Y-74299277D01*
X108407121Y-74300978D01*
X108415706Y-74297707D01*
X108439281Y-74288956D01*
X108476665Y-74275160D01*
X108526679Y-74256750D01*
X108588142Y-74234161D01*
X108659875Y-74207825D01*
X108740695Y-74178177D01*
X108829425Y-74145650D01*
X108924882Y-74110676D01*
X109025888Y-74073690D01*
X109103669Y-74045221D01*
X109207917Y-74007015D01*
X109307399Y-73970445D01*
X109400946Y-73935947D01*
X109487386Y-73903959D01*
X109565550Y-73874917D01*
X109634266Y-73849258D01*
X109692364Y-73827419D01*
X109738674Y-73809836D01*
X109772024Y-73796947D01*
X109791245Y-73789188D01*
X109795684Y-73787000D01*
X109787791Y-73783361D01*
X109764894Y-73774266D01*
X109728162Y-73760151D01*
X109678767Y-73741453D01*
X109617878Y-73718608D01*
X109546668Y-73692054D01*
X109466305Y-73662228D01*
X109377960Y-73629565D01*
X109282805Y-73594503D01*
X109182010Y-73557479D01*
X109103669Y-73528779D01*
X108999312Y-73490580D01*
X108899627Y-73454072D01*
X108805796Y-73419689D01*
X108718998Y-73387865D01*
X108640413Y-73359031D01*
X108571223Y-73333623D01*
X108512606Y-73312073D01*
X108465744Y-73294814D01*
X108431816Y-73282280D01*
X108412003Y-73274905D01*
X108407121Y-73273022D01*
X106289220Y-73273022D01*
X106115292Y-73192602D01*
X105921463Y-73092186D01*
X105737810Y-72985728D01*
X105563519Y-72872901D01*
X105459232Y-72799187D01*
X105421169Y-72771008D01*
X105388350Y-72746023D01*
X105363433Y-72726309D01*
X105349078Y-72713944D01*
X105346750Y-72711290D01*
X105350683Y-72701905D01*
X105366119Y-72688303D01*
X105378172Y-72680379D01*
X105495127Y-72607716D01*
X105623173Y-72522963D01*
X105760812Y-72427348D01*
X105906544Y-72322103D01*
X106058871Y-72208459D01*
X106216293Y-72087644D01*
X106377312Y-71960891D01*
X106540428Y-71829428D01*
X106704142Y-71694487D01*
X106866955Y-71557298D01*
X107027369Y-71419092D01*
X107183884Y-71281097D01*
X107335001Y-71144546D01*
X107479221Y-71010668D01*
X107615046Y-70880694D01*
X107740975Y-70755854D01*
X107813295Y-70681705D01*
X107842227Y-70652515D01*
X107866794Y-70629412D01*
X107884148Y-70614967D01*
X107891122Y-70611427D01*
X107948789Y-70635755D01*
X108010218Y-70662014D01*
X108073424Y-70689324D01*
X108136425Y-70716804D01*
X108197236Y-70743572D01*
X108253874Y-70768747D01*
X108304356Y-70791449D01*
X108346699Y-70810795D01*
X108378919Y-70825905D01*
X108399033Y-70835896D01*
X108405141Y-70839811D01*
X108399349Y-70848042D01*
X108383147Y-70870047D01*
X108357370Y-70904711D01*
X108322858Y-70950917D01*
X108280445Y-71007548D01*
X108230972Y-71073487D01*
X108175273Y-71147620D01*
X108114188Y-71228828D01*
X108048552Y-71315996D01*
X107979204Y-71408007D01*
X107943194Y-71455752D01*
X107872413Y-71549677D01*
X107805038Y-71639276D01*
X107741894Y-71723440D01*
X107683807Y-71801060D01*
X107631602Y-71871025D01*
X107586106Y-71932226D01*
X107548143Y-71983554D01*
X107518541Y-72023899D01*
X107498124Y-72052150D01*
X107487719Y-72067198D01*
X107486534Y-72069433D01*
X107495210Y-72068978D01*
X107519750Y-72066712D01*
X107559160Y-72062742D01*
X107612449Y-72057176D01*
X107678626Y-72050123D01*
X107756698Y-72041691D01*
X107845674Y-72031988D01*
X107944562Y-72021122D01*
X108052370Y-72009203D01*
X108168107Y-71996337D01*
X108290780Y-71982634D01*
X108407121Y-71969579D01*
X108419398Y-71968201D01*
X108552968Y-71953147D01*
G36*
X102294488Y-76135937D02*
G01*
X102294215Y-76223945D01*
X102293146Y-76294859D01*
X102290903Y-76351501D01*
X102287109Y-76396692D01*
X102281389Y-76433255D01*
X102273364Y-76464010D01*
X102262658Y-76491780D01*
X102248893Y-76519386D01*
X102241492Y-76532699D01*
X102203804Y-76581880D01*
X102155962Y-76617323D01*
X102100928Y-76637892D01*
X102041663Y-76642455D01*
X101984722Y-76631126D01*
X101934741Y-76604372D01*
X101890127Y-76561599D01*
X101854075Y-76506542D01*
X101832687Y-76453340D01*
X101815385Y-76395406D01*
X101658373Y-76535516D01*
X101613630Y-76575237D01*
X101573370Y-76610586D01*
X101539546Y-76639879D01*
X101514112Y-76661435D01*
X101499021Y-76673569D01*
X101495758Y-76675627D01*
X101492977Y-76666515D01*
X101490972Y-76642564D01*
X101490157Y-76608852D01*
X101490154Y-76606979D01*
X101490154Y-76538332D01*
X101646788Y-76400500D01*
X101803421Y-76262669D01*
X101803421Y-76008255D01*
X101886443Y-76008255D01*
X101889591Y-76185058D01*
X101891000Y-76251185D01*
X101892759Y-76300895D01*
X101895191Y-76337696D01*
X101898622Y-76365093D01*
X101903379Y-76386592D01*
X101909786Y-76405699D01*
X101910167Y-76406686D01*
X101938365Y-76459606D01*
X101974556Y-76497511D01*
X102016255Y-76519438D01*
X102060977Y-76524421D01*
X102106235Y-76511494D01*
X102134055Y-76493600D01*
X102158188Y-76468858D01*
X102177068Y-76436220D01*
X102191169Y-76393499D01*
X102200967Y-76338508D01*
X102206938Y-76269059D01*
X102209557Y-76182965D01*
X102209772Y-76145215D01*
X102209821Y-76008255D01*
X101886443Y-76008255D01*
X101803421Y-76008255D01*
X101490154Y-76008255D01*
X101490154Y-75888725D01*
X102294488Y-75888725D01*
X102294488Y-76135937D01*
G37*
X102294488Y-76135937D02*
X102294215Y-76223945D01*
X102293146Y-76294859D01*
X102290903Y-76351501D01*
X102287109Y-76396692D01*
X102281389Y-76433255D01*
X102273364Y-76464010D01*
X102262658Y-76491780D01*
X102248893Y-76519386D01*
X102241492Y-76532699D01*
X102203804Y-76581880D01*
X102155962Y-76617323D01*
X102100928Y-76637892D01*
X102041663Y-76642455D01*
X101984722Y-76631126D01*
X101934741Y-76604372D01*
X101890127Y-76561599D01*
X101854075Y-76506542D01*
X101832687Y-76453340D01*
X101815385Y-76395406D01*
X101658373Y-76535516D01*
X101613630Y-76575237D01*
X101573370Y-76610586D01*
X101539546Y-76639879D01*
X101514112Y-76661435D01*
X101499021Y-76673569D01*
X101495758Y-76675627D01*
X101492977Y-76666515D01*
X101490972Y-76642564D01*
X101490157Y-76608852D01*
X101490154Y-76606979D01*
X101490154Y-76538332D01*
X101646788Y-76400500D01*
X101803421Y-76262669D01*
X101803421Y-76008255D01*
X101886443Y-76008255D01*
X101889591Y-76185058D01*
X101891000Y-76251185D01*
X101892759Y-76300895D01*
X101895191Y-76337696D01*
X101898622Y-76365093D01*
X101903379Y-76386592D01*
X101909786Y-76405699D01*
X101910167Y-76406686D01*
X101938365Y-76459606D01*
X101974556Y-76497511D01*
X102016255Y-76519438D01*
X102060977Y-76524421D01*
X102106235Y-76511494D01*
X102134055Y-76493600D01*
X102158188Y-76468858D01*
X102177068Y-76436220D01*
X102191169Y-76393499D01*
X102200967Y-76338508D01*
X102206938Y-76269059D01*
X102209557Y-76182965D01*
X102209772Y-76145215D01*
X102209821Y-76008255D01*
X101886443Y-76008255D01*
X101803421Y-76008255D01*
X101490154Y-76008255D01*
X101490154Y-75888725D01*
X102294488Y-75888725D01*
X102294488Y-76135937D01*
G36*
X103327421Y-73777039D02*
G01*
X103166555Y-73777039D01*
X103166555Y-73269039D01*
X103014155Y-73269039D01*
X103014155Y-73717274D01*
X102844821Y-73717274D01*
X102844821Y-73269039D01*
X102692421Y-73269039D01*
X102692421Y-73787000D01*
X102523088Y-73787000D01*
X102523088Y-73059862D01*
X103327421Y-73059862D01*
X103327421Y-73777039D01*
G37*
X103327421Y-73777039D02*
X103166555Y-73777039D01*
X103166555Y-73269039D01*
X103014155Y-73269039D01*
X103014155Y-73717274D01*
X102844821Y-73717274D01*
X102844821Y-73269039D01*
X102692421Y-73269039D01*
X102692421Y-73787000D01*
X102523088Y-73787000D01*
X102523088Y-73059862D01*
X103327421Y-73059862D01*
X103327421Y-73777039D01*
G36*
X103325087Y-69782108D02*
G01*
X103325974Y-69807416D01*
X103326147Y-69844823D01*
X103325573Y-69888728D01*
X103323188Y-70004653D01*
X103071305Y-70095140D01*
X103009260Y-70117595D01*
X102952765Y-70138360D01*
X102903767Y-70156696D01*
X102864214Y-70171861D01*
X102836051Y-70183113D01*
X102821227Y-70189712D01*
X102819421Y-70191004D01*
X102827146Y-70195337D01*
X102849049Y-70205105D01*
X102883222Y-70219521D01*
X102927757Y-70237797D01*
X102980744Y-70259147D01*
X103040277Y-70282783D01*
X103075538Y-70296637D01*
X103331655Y-70396892D01*
X103331655Y-70583068D01*
X103075538Y-70683323D01*
X103013186Y-70707910D01*
X102956317Y-70730680D01*
X102906841Y-70750841D01*
X102866666Y-70767603D01*
X102837701Y-70780172D01*
X102821854Y-70787759D01*
X102819421Y-70789531D01*
X102827201Y-70793808D01*
X102849224Y-70803061D01*
X102883516Y-70816535D01*
X102928104Y-70833473D01*
X102981015Y-70853118D01*
X103040273Y-70874715D01*
X103064709Y-70883514D01*
X103126422Y-70905768D01*
X103183035Y-70926386D01*
X103232476Y-70944596D01*
X103272677Y-70959630D01*
X103301566Y-70970718D01*
X103317075Y-70977090D01*
X103318999Y-70978091D01*
X103323170Y-70991398D01*
X103325526Y-71022890D01*
X103325975Y-71070934D01*
X103325595Y-71094652D01*
X103323188Y-71204667D01*
X102923138Y-71045286D01*
X102523088Y-70885906D01*
X102523088Y-70693721D01*
X102766505Y-70595375D01*
X102827477Y-70570623D01*
X102883255Y-70547754D01*
X102931828Y-70527610D01*
X102971184Y-70511033D01*
X102999309Y-70498868D01*
X103014193Y-70491957D01*
X103015967Y-70490875D01*
X103009802Y-70486246D01*
X102989470Y-70476050D01*
X102956841Y-70461114D01*
X102913786Y-70442264D01*
X102862175Y-70420328D01*
X102803880Y-70396133D01*
X102774667Y-70384200D01*
X102527321Y-70283682D01*
X102524896Y-70187442D01*
X102524347Y-70139087D01*
X102525763Y-70107852D01*
X102529371Y-70091040D01*
X102533363Y-70086392D01*
X102546619Y-70080884D01*
X102573414Y-70070035D01*
X102611870Y-70054589D01*
X102660110Y-70035292D01*
X102716255Y-70012889D01*
X102778429Y-69988126D01*
X102844754Y-69961746D01*
X102913351Y-69934495D01*
X102982344Y-69907119D01*
X103049855Y-69880363D01*
X103114007Y-69854971D01*
X103172921Y-69831688D01*
X103224721Y-69811261D01*
X103267528Y-69794434D01*
X103299465Y-69781951D01*
X103318655Y-69774559D01*
X103323554Y-69772804D01*
X103325087Y-69782108D01*
G37*
X103325087Y-69782108D02*
X103325974Y-69807416D01*
X103326147Y-69844823D01*
X103325573Y-69888728D01*
X103323188Y-70004653D01*
X103071305Y-70095140D01*
X103009260Y-70117595D01*
X102952765Y-70138360D01*
X102903767Y-70156696D01*
X102864214Y-70171861D01*
X102836051Y-70183113D01*
X102821227Y-70189712D01*
X102819421Y-70191004D01*
X102827146Y-70195337D01*
X102849049Y-70205105D01*
X102883222Y-70219521D01*
X102927757Y-70237797D01*
X102980744Y-70259147D01*
X103040277Y-70282783D01*
X103075538Y-70296637D01*
X103331655Y-70396892D01*
X103331655Y-70583068D01*
X103075538Y-70683323D01*
X103013186Y-70707910D01*
X102956317Y-70730680D01*
X102906841Y-70750841D01*
X102866666Y-70767603D01*
X102837701Y-70780172D01*
X102821854Y-70787759D01*
X102819421Y-70789531D01*
X102827201Y-70793808D01*
X102849224Y-70803061D01*
X102883516Y-70816535D01*
X102928104Y-70833473D01*
X102981015Y-70853118D01*
X103040273Y-70874715D01*
X103064709Y-70883514D01*
X103126422Y-70905768D01*
X103183035Y-70926386D01*
X103232476Y-70944596D01*
X103272677Y-70959630D01*
X103301566Y-70970718D01*
X103317075Y-70977090D01*
X103318999Y-70978091D01*
X103323170Y-70991398D01*
X103325526Y-71022890D01*
X103325975Y-71070934D01*
X103325595Y-71094652D01*
X103323188Y-71204667D01*
X102923138Y-71045286D01*
X102523088Y-70885906D01*
X102523088Y-70693721D01*
X102766505Y-70595375D01*
X102827477Y-70570623D01*
X102883255Y-70547754D01*
X102931828Y-70527610D01*
X102971184Y-70511033D01*
X102999309Y-70498868D01*
X103014193Y-70491957D01*
X103015967Y-70490875D01*
X103009802Y-70486246D01*
X102989470Y-70476050D01*
X102956841Y-70461114D01*
X102913786Y-70442264D01*
X102862175Y-70420328D01*
X102803880Y-70396133D01*
X102774667Y-70384200D01*
X102527321Y-70283682D01*
X102524896Y-70187442D01*
X102524347Y-70139087D01*
X102525763Y-70107852D01*
X102529371Y-70091040D01*
X102533363Y-70086392D01*
X102546619Y-70080884D01*
X102573414Y-70070035D01*
X102611870Y-70054589D01*
X102660110Y-70035292D01*
X102716255Y-70012889D01*
X102778429Y-69988126D01*
X102844754Y-69961746D01*
X102913351Y-69934495D01*
X102982344Y-69907119D01*
X103049855Y-69880363D01*
X103114007Y-69854971D01*
X103172921Y-69831688D01*
X103224721Y-69811261D01*
X103267528Y-69794434D01*
X103299465Y-69781951D01*
X103318655Y-69774559D01*
X103323554Y-69772804D01*
X103325087Y-69782108D01*
G36*
X102294488Y-73269039D02*
G01*
X101825012Y-73269039D01*
X101981433Y-73445472D01*
X102029496Y-73499740D01*
X102078522Y-73555197D01*
X102125603Y-73608544D01*
X102167829Y-73656484D01*
X102202292Y-73695719D01*
X102216583Y-73712049D01*
X102295311Y-73802193D01*
X102292783Y-73876773D01*
X102290254Y-73951353D01*
X102117353Y-73751030D01*
X101944451Y-73550708D01*
X101722305Y-73758501D01*
X101669323Y-73807925D01*
X101620571Y-73853145D01*
X101577622Y-73892722D01*
X101542051Y-73925215D01*
X101515431Y-73949184D01*
X101499338Y-73963188D01*
X101495157Y-73966294D01*
X101492693Y-73957174D01*
X101490906Y-73933172D01*
X101490159Y-73899324D01*
X101490154Y-73896482D01*
X101490154Y-73826669D01*
X101678538Y-73650779D01*
X101727215Y-73605326D01*
X101771490Y-73563980D01*
X101809650Y-73528337D01*
X101839984Y-73499997D01*
X101860782Y-73480558D01*
X101870332Y-73471619D01*
X101870723Y-73471249D01*
X101866470Y-73463314D01*
X101852192Y-73444002D01*
X101829921Y-73415919D01*
X101801690Y-73381673D01*
X101790448Y-73368325D01*
X101706372Y-73269039D01*
X101490154Y-73269039D01*
X101490154Y-73159470D01*
X102294488Y-73159470D01*
X102294488Y-73269039D01*
G37*
X102294488Y-73269039D02*
X101825012Y-73269039D01*
X101981433Y-73445472D01*
X102029496Y-73499740D01*
X102078522Y-73555197D01*
X102125603Y-73608544D01*
X102167829Y-73656484D01*
X102202292Y-73695719D01*
X102216583Y-73712049D01*
X102295311Y-73802193D01*
X102292783Y-73876773D01*
X102290254Y-73951353D01*
X102117353Y-73751030D01*
X101944451Y-73550708D01*
X101722305Y-73758501D01*
X101669323Y-73807925D01*
X101620571Y-73853145D01*
X101577622Y-73892722D01*
X101542051Y-73925215D01*
X101515431Y-73949184D01*
X101499338Y-73963188D01*
X101495157Y-73966294D01*
X101492693Y-73957174D01*
X101490906Y-73933172D01*
X101490159Y-73899324D01*
X101490154Y-73896482D01*
X101490154Y-73826669D01*
X101678538Y-73650779D01*
X101727215Y-73605326D01*
X101771490Y-73563980D01*
X101809650Y-73528337D01*
X101839984Y-73499997D01*
X101860782Y-73480558D01*
X101870332Y-73471619D01*
X101870723Y-73471249D01*
X101866470Y-73463314D01*
X101852192Y-73444002D01*
X101829921Y-73415919D01*
X101801690Y-73381673D01*
X101790448Y-73368325D01*
X101706372Y-73269039D01*
X101490154Y-73269039D01*
X101490154Y-73159470D01*
X102294488Y-73159470D01*
X102294488Y-73269039D01*
D12*
X136827500Y-132710000D02*
X136827500Y-112390000D01*
X150717500Y-112390000D02*
X150717500Y-132710000D01*
X136827500Y-112390000D02*
X150717500Y-112390000D01*
X150717500Y-132710000D02*
X136827500Y-132710000D01*
D13*
X102860000Y-116195000D02*
X101850000Y-116195000D01*
X101750000Y-117565000D02*
X101750000Y-109765000D01*
X107800000Y-117565000D02*
X101750000Y-117565000D01*
X107800000Y-109765000D02*
X107800000Y-117565000D01*
X101850000Y-111115000D02*
X102860000Y-111115000D01*
X102860000Y-111115000D02*
X102860000Y-116195000D01*
X101750000Y-109765000D02*
X107800000Y-109765000D01*
D12*
X160200000Y-90050000D02*
X174090000Y-90050000D01*
X174090000Y-90050000D02*
X174090000Y-110370000D01*
X160200000Y-110370000D02*
X160200000Y-90050000D01*
X174090000Y-110370000D02*
X160200000Y-110370000D01*
D13*
X96573000Y-91177000D02*
X108227000Y-91177000D01*
X108227000Y-91177000D02*
X108227000Y-80923000D01*
X96573000Y-80923000D02*
X96573000Y-91177000D01*
X108227000Y-80923000D02*
X96573000Y-80923000D01*
D12*
X174040000Y-88160000D02*
X160150000Y-88160000D01*
X174040000Y-67840000D02*
X174040000Y-88160000D01*
X160150000Y-88160000D02*
X160150000Y-67840000D01*
X160150000Y-67840000D02*
X174040000Y-67840000D01*
X127445000Y-110370000D02*
X113555000Y-110370000D01*
X113555000Y-110370000D02*
X113555000Y-90050000D01*
X113555000Y-90050000D02*
X127445000Y-90050000D01*
X127445000Y-90050000D02*
X127445000Y-110370000D01*
X113505000Y-132710000D02*
X113505000Y-112390000D01*
X127395000Y-112390000D02*
X127395000Y-132710000D01*
X127395000Y-132710000D02*
X113505000Y-132710000D01*
X113505000Y-112390000D02*
X127395000Y-112390000D01*
X113505000Y-67840000D02*
X127395000Y-67840000D01*
X127395000Y-88160000D02*
X113505000Y-88160000D01*
X113505000Y-88160000D02*
X113505000Y-67840000D01*
X127395000Y-67840000D02*
X127395000Y-88160000D01*
%LPC*%
D15*
X142827500Y-70380000D03*
D16*
X142827500Y-75460000D03*
X142827500Y-80540000D03*
X142827500Y-85620000D03*
D15*
X142877500Y-92590000D03*
D16*
X142877500Y-97670000D03*
X142877500Y-102750000D03*
X142877500Y-107830000D03*
D17*
X102249999Y-106400000D03*
D18*
X102249999Y-101400000D03*
X102249999Y-96400000D03*
D19*
X95250000Y-129900000D03*
X95250000Y-70358000D03*
D15*
X166150000Y-114930000D03*
D16*
X166150000Y-120010000D03*
X166150000Y-125090000D03*
X166150000Y-130170000D03*
D15*
X142827500Y-114930000D03*
D16*
X142827500Y-120010000D03*
X142827500Y-125090000D03*
X142827500Y-130170000D03*
D20*
X105150000Y-111115000D03*
D21*
X105150000Y-113655000D03*
X105150000Y-116195000D03*
D19*
X183642000Y-70358000D03*
D15*
X166200000Y-92590000D03*
D16*
X166200000Y-97670000D03*
X166200000Y-102750000D03*
X166200000Y-107830000D03*
D17*
X102199999Y-88550000D03*
D18*
X102199999Y-83550000D03*
D15*
X166150000Y-70380000D03*
D16*
X166150000Y-75460000D03*
X166150000Y-80540000D03*
X166150000Y-85620000D03*
D19*
X183642000Y-129900000D03*
D15*
X119555000Y-92590000D03*
D16*
X119555000Y-97670000D03*
X119555000Y-102750000D03*
X119555000Y-107830000D03*
D15*
X119505000Y-114930000D03*
D16*
X119505000Y-120010000D03*
X119505000Y-125090000D03*
X119505000Y-130170000D03*
D15*
X119505000Y-70380000D03*
D16*
X119505000Y-75460000D03*
X119505000Y-80540000D03*
X119505000Y-85620000D03*
M02*
