G04 #@! TF.GenerationSoftware,KiCad,Pcbnew,(6.0.10)*
G04 #@! TF.CreationDate,2023-01-26T21:48:12-05:00*
G04 #@! TF.ProjectId,Connectors,436f6e6e-6563-4746-9f72-732e6b696361,rev?*
G04 #@! TF.SameCoordinates,Original*
G04 #@! TF.FileFunction,Copper,L2,Bot*
G04 #@! TF.FilePolarity,Positive*
%FSLAX46Y46*%
G04 Gerber Fmt 4.6, Leading zero omitted, Abs format (unit mm)*
G04 Created by KiCad (PCBNEW (6.0.10)) date 2023-01-26 21:48:12*
%MOMM*%
%LPD*%
G01*
G04 APERTURE LIST*
G04 #@! TA.AperFunction,ComponentPad*
%ADD10R,2.400000X2.400000*%
G04 #@! TD*
G04 #@! TA.AperFunction,ComponentPad*
%ADD11C,2.400000*%
G04 #@! TD*
G04 #@! TA.AperFunction,ComponentPad*
%ADD12R,1.803400X1.803400*%
G04 #@! TD*
G04 #@! TA.AperFunction,ComponentPad*
%ADD13C,1.803400*%
G04 #@! TD*
G04 #@! TA.AperFunction,ComponentPad*
%ADD14C,6.400000*%
G04 #@! TD*
G04 #@! TA.AperFunction,ComponentPad*
%ADD15R,2.030000X1.730000*%
G04 #@! TD*
G04 #@! TA.AperFunction,ComponentPad*
%ADD16O,2.030000X1.730000*%
G04 #@! TD*
G04 #@! TA.AperFunction,Conductor*
%ADD17C,7.000000*%
G04 #@! TD*
G04 #@! TA.AperFunction,Conductor*
%ADD18C,1.000000*%
G04 #@! TD*
G04 #@! TA.AperFunction,Conductor*
%ADD19C,0.250000*%
G04 #@! TD*
G04 APERTURE END LIST*
D10*
X142827500Y-70380000D03*
D11*
X142827500Y-75460000D03*
X142827500Y-80540000D03*
X142827500Y-85620000D03*
D10*
X142877500Y-92590000D03*
D11*
X142877500Y-97670000D03*
X142877500Y-102750000D03*
X142877500Y-107830000D03*
D12*
X102249999Y-106400000D03*
D13*
X102249999Y-101400000D03*
X102249999Y-96400000D03*
D14*
X95250000Y-129900000D03*
X95250000Y-70358000D03*
D10*
X166150000Y-114930000D03*
D11*
X166150000Y-120010000D03*
X166150000Y-125090000D03*
X166150000Y-130170000D03*
D10*
X142827500Y-114930000D03*
D11*
X142827500Y-120010000D03*
X142827500Y-125090000D03*
X142827500Y-130170000D03*
D15*
X105150000Y-111115000D03*
D16*
X105150000Y-113655000D03*
X105150000Y-116195000D03*
D14*
X183642000Y-70358000D03*
D10*
X166200000Y-92590000D03*
D11*
X166200000Y-97670000D03*
X166200000Y-102750000D03*
X166200000Y-107830000D03*
D12*
X102199999Y-88550000D03*
D13*
X102199999Y-83550000D03*
D10*
X166150000Y-70380000D03*
D11*
X166150000Y-75460000D03*
X166150000Y-80540000D03*
X166150000Y-85620000D03*
D14*
X183642000Y-129900000D03*
D10*
X119555000Y-92590000D03*
D11*
X119555000Y-97670000D03*
X119555000Y-102750000D03*
X119555000Y-107830000D03*
D10*
X119505000Y-114930000D03*
D11*
X119505000Y-120010000D03*
X119505000Y-125090000D03*
X119505000Y-130170000D03*
D10*
X119505000Y-70380000D03*
D11*
X119505000Y-75460000D03*
X119505000Y-80540000D03*
X119505000Y-85620000D03*
D17*
X112800000Y-125314647D02*
X117655353Y-130170000D01*
X142827500Y-85620000D02*
X166150000Y-85620000D01*
D18*
X105150000Y-116195000D02*
X112800000Y-108545000D01*
D17*
X119555000Y-107830000D02*
X142877500Y-107830000D01*
X112800000Y-86800000D02*
X113980000Y-85620000D01*
X142827500Y-130170000D02*
X166150000Y-130170000D01*
X109550000Y-83550000D02*
X113500000Y-87500000D01*
X113980000Y-85620000D02*
X119505000Y-85620000D01*
X102249999Y-101400000D02*
X103757786Y-101400000D01*
X112800000Y-100150000D02*
X112800000Y-90300000D01*
X117655353Y-130170000D02*
X119505000Y-130170000D01*
X113500000Y-87500000D02*
X113500000Y-88200000D01*
X142877500Y-107830000D02*
X166200000Y-107830000D01*
X112800000Y-100150000D02*
X112800000Y-107672000D01*
X112800000Y-107672000D02*
X112800000Y-125314647D01*
X112800000Y-92357786D02*
X112800000Y-90300000D01*
D19*
X112800000Y-108545000D02*
X112800000Y-107672000D01*
D17*
X117770000Y-107830000D02*
X112800000Y-112800000D01*
X103757786Y-101400000D02*
X112800000Y-92357786D01*
X119505000Y-130170000D02*
X142827500Y-130170000D01*
X119555000Y-107830000D02*
X117770000Y-107830000D01*
D18*
X116710353Y-129225000D02*
X117655353Y-130170000D01*
D17*
X119505000Y-85620000D02*
X142827500Y-85620000D01*
X102199999Y-83550000D02*
X109550000Y-83550000D01*
X112800000Y-90300000D02*
X112800000Y-86800000D01*
G04 #@! TA.AperFunction,Conductor*
G36*
X183231086Y-66414813D02*
G01*
X183299178Y-66434912D01*
X183345594Y-66488634D01*
X183355598Y-66558923D01*
X183326013Y-66623461D01*
X183266232Y-66661760D01*
X183250618Y-66665262D01*
X182869901Y-66725562D01*
X182494438Y-66826167D01*
X182491350Y-66827352D01*
X182491348Y-66827353D01*
X182443386Y-66845764D01*
X182131547Y-66965468D01*
X182128607Y-66966966D01*
X181788147Y-67140439D01*
X181788140Y-67140443D01*
X181785206Y-67141938D01*
X181782440Y-67143734D01*
X181782437Y-67143736D01*
X181574576Y-67278722D01*
X181459207Y-67353643D01*
X181157124Y-67598266D01*
X180882266Y-67873124D01*
X180637643Y-68175207D01*
X180635848Y-68177970D01*
X180635848Y-68177971D01*
X180441328Y-68477508D01*
X180425938Y-68501206D01*
X180424443Y-68504140D01*
X180424439Y-68504147D01*
X180267907Y-68811358D01*
X180249468Y-68847547D01*
X180110167Y-69210438D01*
X180009562Y-69585901D01*
X179948754Y-69969824D01*
X179928411Y-70358000D01*
X179948754Y-70746176D01*
X180009562Y-71130099D01*
X180110167Y-71505562D01*
X180249468Y-71868453D01*
X180250966Y-71871393D01*
X180358581Y-72082598D01*
X180425938Y-72214794D01*
X180637643Y-72540793D01*
X180882266Y-72842876D01*
X181157124Y-73117734D01*
X181459207Y-73362357D01*
X181785205Y-73574062D01*
X181788139Y-73575557D01*
X181788146Y-73575561D01*
X182128607Y-73749034D01*
X182131547Y-73750532D01*
X182494438Y-73889833D01*
X182869901Y-73990438D01*
X183073793Y-74022732D01*
X183250576Y-74050732D01*
X183250584Y-74050733D01*
X183253824Y-74051246D01*
X183642000Y-74071589D01*
X184030176Y-74051246D01*
X184033416Y-74050733D01*
X184033424Y-74050732D01*
X184210207Y-74022732D01*
X184414099Y-73990438D01*
X184789562Y-73889833D01*
X185152453Y-73750532D01*
X185155393Y-73749034D01*
X185495854Y-73575561D01*
X185495861Y-73575557D01*
X185498795Y-73574062D01*
X185824793Y-73362357D01*
X186126876Y-73117734D01*
X186401734Y-72842876D01*
X186646357Y-72540793D01*
X186858062Y-72214794D01*
X186925420Y-72082598D01*
X187033034Y-71871393D01*
X187034532Y-71868453D01*
X187173833Y-71505562D01*
X187274438Y-71130099D01*
X187335246Y-70746176D01*
X187355589Y-70358000D01*
X187335246Y-69969824D01*
X187274438Y-69585901D01*
X187173833Y-69210438D01*
X187034532Y-68847547D01*
X187016093Y-68811358D01*
X186859561Y-68504147D01*
X186859557Y-68504140D01*
X186858062Y-68501206D01*
X186842673Y-68477508D01*
X186648152Y-68177971D01*
X186648152Y-68177970D01*
X186646357Y-68175207D01*
X186401734Y-67873124D01*
X186126876Y-67598266D01*
X185824793Y-67353643D01*
X185822029Y-67351848D01*
X185501564Y-67143736D01*
X185501561Y-67143734D01*
X185498795Y-67141938D01*
X185495861Y-67140443D01*
X185495854Y-67140439D01*
X185155393Y-66966966D01*
X185152453Y-66965468D01*
X184840614Y-66845764D01*
X184792652Y-66827353D01*
X184792650Y-66827352D01*
X184789562Y-66826167D01*
X184414099Y-66725562D01*
X184410847Y-66725047D01*
X184410838Y-66725045D01*
X184040862Y-66666446D01*
X183976709Y-66636033D01*
X183939182Y-66575765D01*
X183940196Y-66504776D01*
X183979429Y-66445604D01*
X184044424Y-66417036D01*
X184060746Y-66415997D01*
X185247100Y-66417691D01*
X185266302Y-66419191D01*
X185269784Y-66419733D01*
X185281585Y-66421571D01*
X185281587Y-66421571D01*
X185290456Y-66422952D01*
X185308452Y-66420599D01*
X185331848Y-66419733D01*
X185451826Y-66426472D01*
X185574009Y-66433336D01*
X185588039Y-66434917D01*
X185854871Y-66480257D01*
X185868608Y-66483393D01*
X186128671Y-66558318D01*
X186142004Y-66562983D01*
X186392043Y-66666554D01*
X186404773Y-66672685D01*
X186641627Y-66803591D01*
X186653591Y-66811108D01*
X186874319Y-66967723D01*
X186885350Y-66976521D01*
X187068774Y-67140439D01*
X187087149Y-67156860D01*
X187097139Y-67166850D01*
X187277479Y-67368650D01*
X187286277Y-67379681D01*
X187354204Y-67475415D01*
X187442892Y-67600409D01*
X187450409Y-67612373D01*
X187581315Y-67849227D01*
X187587446Y-67861957D01*
X187691017Y-68111996D01*
X187695682Y-68125329D01*
X187770607Y-68385392D01*
X187773743Y-68399129D01*
X187819083Y-68665961D01*
X187820664Y-68679992D01*
X187833857Y-68914861D01*
X187832555Y-68941309D01*
X187832494Y-68941703D01*
X187831048Y-68950992D01*
X187835175Y-68982549D01*
X187836239Y-68998888D01*
X187836239Y-131399367D01*
X187834738Y-131418755D01*
X187832429Y-131433579D01*
X187832429Y-131433588D01*
X187831048Y-131442456D01*
X187833401Y-131460452D01*
X187834267Y-131483852D01*
X187820664Y-131726009D01*
X187819083Y-131740039D01*
X187773743Y-132006871D01*
X187770607Y-132020608D01*
X187735224Y-132143422D01*
X187695683Y-132280668D01*
X187691017Y-132294004D01*
X187587446Y-132544043D01*
X187581315Y-132556773D01*
X187450409Y-132793627D01*
X187442892Y-132805591D01*
X187438777Y-132811391D01*
X187286277Y-133026319D01*
X187277479Y-133037350D01*
X187197104Y-133127290D01*
X187097140Y-133239149D01*
X187087150Y-133249139D01*
X186885350Y-133429479D01*
X186874319Y-133438277D01*
X186677630Y-133577835D01*
X186653591Y-133594892D01*
X186641627Y-133602409D01*
X186404773Y-133733315D01*
X186392043Y-133739446D01*
X186142004Y-133843017D01*
X186128671Y-133847682D01*
X185868608Y-133922607D01*
X185854871Y-133925743D01*
X185588039Y-133971083D01*
X185574008Y-133972664D01*
X185339139Y-133985857D01*
X185312691Y-133984555D01*
X185311885Y-133984430D01*
X185311884Y-133984430D01*
X185303008Y-133983048D01*
X185274785Y-133986739D01*
X185271451Y-133987175D01*
X185255112Y-133988239D01*
X168012296Y-133988239D01*
X167944175Y-133968237D01*
X167897682Y-133914581D01*
X167887578Y-133844307D01*
X167917072Y-133779727D01*
X167957754Y-133748656D01*
X167963764Y-133745770D01*
X168065071Y-133697123D01*
X168405915Y-133489479D01*
X168582852Y-133355905D01*
X168721957Y-133250892D01*
X168721960Y-133250890D01*
X168724451Y-133249009D01*
X168726733Y-133246899D01*
X168726742Y-133246892D01*
X169015231Y-132980214D01*
X169017528Y-132978091D01*
X169081287Y-132906152D01*
X169280165Y-132681756D01*
X169282249Y-132679405D01*
X169515995Y-132355903D01*
X169716455Y-132010785D01*
X169881648Y-131647464D01*
X169941172Y-131472113D01*
X170008931Y-131272499D01*
X170008932Y-131272496D01*
X170009938Y-131269532D01*
X170010642Y-131266494D01*
X170010645Y-131266484D01*
X170099353Y-130883770D01*
X170099353Y-130883768D01*
X170100058Y-130880728D01*
X170151117Y-130484895D01*
X170162609Y-130085948D01*
X170149443Y-129900000D01*
X179928411Y-129900000D01*
X179948754Y-130288176D01*
X180009562Y-130672099D01*
X180110167Y-131047562D01*
X180249468Y-131410453D01*
X180250966Y-131413393D01*
X180413848Y-131733066D01*
X180425938Y-131756794D01*
X180637643Y-132082793D01*
X180639718Y-132085355D01*
X180860854Y-132358434D01*
X180882266Y-132384876D01*
X181157124Y-132659734D01*
X181159682Y-132661806D01*
X181159686Y-132661809D01*
X181308166Y-132782046D01*
X181459207Y-132904357D01*
X181461970Y-132906152D01*
X181461971Y-132906152D01*
X181753863Y-133095708D01*
X181785205Y-133116062D01*
X181788139Y-133117557D01*
X181788146Y-133117561D01*
X182102369Y-133277665D01*
X182131547Y-133292532D01*
X182178957Y-133310731D01*
X182481848Y-133427000D01*
X182494438Y-133431833D01*
X182869901Y-133532438D01*
X183073793Y-133564732D01*
X183250576Y-133592732D01*
X183250584Y-133592733D01*
X183253824Y-133593246D01*
X183642000Y-133613589D01*
X184030176Y-133593246D01*
X184033416Y-133592733D01*
X184033424Y-133592732D01*
X184210207Y-133564732D01*
X184414099Y-133532438D01*
X184789562Y-133431833D01*
X184802153Y-133427000D01*
X185105043Y-133310731D01*
X185152453Y-133292532D01*
X185181631Y-133277665D01*
X185495854Y-133117561D01*
X185495861Y-133117557D01*
X185498795Y-133116062D01*
X185530138Y-133095708D01*
X185822029Y-132906152D01*
X185822030Y-132906152D01*
X185824793Y-132904357D01*
X185975834Y-132782046D01*
X186124314Y-132661809D01*
X186124318Y-132661806D01*
X186126876Y-132659734D01*
X186401734Y-132384876D01*
X186423147Y-132358434D01*
X186644282Y-132085355D01*
X186646357Y-132082793D01*
X186858062Y-131756794D01*
X186870153Y-131733066D01*
X187033034Y-131413393D01*
X187034532Y-131410453D01*
X187173833Y-131047562D01*
X187274438Y-130672099D01*
X187335246Y-130288176D01*
X187355589Y-129900000D01*
X187335246Y-129511824D01*
X187274438Y-129127901D01*
X187173833Y-128752438D01*
X187034532Y-128389547D01*
X186929929Y-128184252D01*
X186859561Y-128046147D01*
X186859557Y-128046140D01*
X186858062Y-128043206D01*
X186847289Y-128026616D01*
X186648152Y-127719971D01*
X186648152Y-127719970D01*
X186646357Y-127717207D01*
X186401734Y-127415124D01*
X186126876Y-127140266D01*
X186083117Y-127104830D01*
X185932026Y-126982479D01*
X185824793Y-126895643D01*
X185614327Y-126758965D01*
X185501564Y-126685736D01*
X185501561Y-126685734D01*
X185498795Y-126683938D01*
X185495861Y-126682443D01*
X185495854Y-126682439D01*
X185155393Y-126508966D01*
X185152453Y-126507468D01*
X184789562Y-126368167D01*
X184414099Y-126267562D01*
X184184085Y-126231131D01*
X184033424Y-126207268D01*
X184033416Y-126207267D01*
X184030176Y-126206754D01*
X183642000Y-126186411D01*
X183253824Y-126206754D01*
X183250584Y-126207267D01*
X183250576Y-126207268D01*
X183099915Y-126231131D01*
X182869901Y-126267562D01*
X182494438Y-126368167D01*
X182131547Y-126507468D01*
X182128607Y-126508966D01*
X181788147Y-126682439D01*
X181788140Y-126682443D01*
X181785206Y-126683938D01*
X181782440Y-126685734D01*
X181782437Y-126685736D01*
X181503315Y-126866999D01*
X181459207Y-126895643D01*
X181351974Y-126982479D01*
X181200884Y-127104830D01*
X181157124Y-127140266D01*
X180882266Y-127415124D01*
X180637643Y-127717207D01*
X180635848Y-127719970D01*
X180635848Y-127719971D01*
X180436712Y-128026616D01*
X180425938Y-128043206D01*
X180424443Y-128046140D01*
X180424439Y-128046147D01*
X180354071Y-128184252D01*
X180249468Y-128389547D01*
X180110167Y-128752438D01*
X180009562Y-129127901D01*
X179948754Y-129511824D01*
X179928411Y-129900000D01*
X170149443Y-129900000D01*
X170134421Y-129687832D01*
X170066831Y-129294485D01*
X169960509Y-128909795D01*
X169959386Y-128906893D01*
X169959383Y-128906883D01*
X169817635Y-128540488D01*
X169816505Y-128537567D01*
X169636243Y-128181482D01*
X169634564Y-128178852D01*
X169634558Y-128178841D01*
X169449615Y-127889098D01*
X169421506Y-127845061D01*
X169419577Y-127842614D01*
X169419572Y-127842607D01*
X169176362Y-127534098D01*
X169174418Y-127531632D01*
X169172243Y-127529376D01*
X169172238Y-127529370D01*
X169047717Y-127400200D01*
X168897422Y-127244292D01*
X168876940Y-127226891D01*
X168595652Y-126987919D01*
X168595643Y-126987912D01*
X168593257Y-126985885D01*
X168429576Y-126872758D01*
X168267503Y-126760742D01*
X168267494Y-126760737D01*
X168264931Y-126758965D01*
X168262196Y-126757452D01*
X168262191Y-126757449D01*
X168009362Y-126617592D01*
X167915691Y-126565776D01*
X167912822Y-126564543D01*
X167912811Y-126564538D01*
X167551858Y-126409461D01*
X167551855Y-126409460D01*
X167548990Y-126408229D01*
X167546013Y-126407288D01*
X167546009Y-126407286D01*
X167398034Y-126360488D01*
X167168455Y-126287882D01*
X166777848Y-126205924D01*
X166774730Y-126205588D01*
X166383484Y-126163430D01*
X166383481Y-126163430D01*
X166381033Y-126163166D01*
X166378570Y-126163095D01*
X166378569Y-126163095D01*
X166375319Y-126163001D01*
X166323197Y-126161500D01*
X119367918Y-126161500D01*
X119299797Y-126141498D01*
X119278823Y-126124595D01*
X116845405Y-123691177D01*
X116811379Y-123628865D01*
X116808500Y-123602082D01*
X116808500Y-119965151D01*
X117792296Y-119965151D01*
X117804480Y-120218798D01*
X117854021Y-120467857D01*
X117855600Y-120472255D01*
X117855602Y-120472262D01*
X117900022Y-120595980D01*
X117939831Y-120706858D01*
X118060025Y-120930551D01*
X118062820Y-120934294D01*
X118062822Y-120934297D01*
X118209171Y-121130282D01*
X118209176Y-121130288D01*
X118211963Y-121134020D01*
X118215272Y-121137300D01*
X118215277Y-121137306D01*
X118313859Y-121235031D01*
X118392307Y-121312797D01*
X118396069Y-121315555D01*
X118396072Y-121315558D01*
X118501764Y-121393054D01*
X118597094Y-121462953D01*
X118601229Y-121465129D01*
X118601233Y-121465131D01*
X118719289Y-121527243D01*
X118821827Y-121581191D01*
X119061568Y-121664912D01*
X119311050Y-121712278D01*
X119431532Y-121717011D01*
X119560125Y-121722064D01*
X119560130Y-121722064D01*
X119564793Y-121722247D01*
X119663774Y-121711407D01*
X119812569Y-121695112D01*
X119812575Y-121695111D01*
X119817222Y-121694602D01*
X119926680Y-121665784D01*
X120058273Y-121631138D01*
X120062793Y-121629948D01*
X120181353Y-121579011D01*
X120291807Y-121531557D01*
X120291810Y-121531555D01*
X120296110Y-121529708D01*
X120300090Y-121527245D01*
X120300094Y-121527243D01*
X120508064Y-121398547D01*
X120508066Y-121398545D01*
X120512047Y-121396082D01*
X120610428Y-121312797D01*
X120702289Y-121235031D01*
X120702291Y-121235029D01*
X120705862Y-121232006D01*
X120873295Y-121041084D01*
X121010669Y-120827512D01*
X121114967Y-120595980D01*
X121183896Y-120351575D01*
X121215943Y-120099667D01*
X121218291Y-120010000D01*
X121214958Y-119965151D01*
X141114796Y-119965151D01*
X141126980Y-120218798D01*
X141176521Y-120467857D01*
X141178100Y-120472255D01*
X141178102Y-120472262D01*
X141222522Y-120595980D01*
X141262331Y-120706858D01*
X141382525Y-120930551D01*
X141385320Y-120934294D01*
X141385322Y-120934297D01*
X141531671Y-121130282D01*
X141531676Y-121130288D01*
X141534463Y-121134020D01*
X141537772Y-121137300D01*
X141537777Y-121137306D01*
X141636359Y-121235031D01*
X141714807Y-121312797D01*
X141718569Y-121315555D01*
X141718572Y-121315558D01*
X141824264Y-121393054D01*
X141919594Y-121462953D01*
X141923729Y-121465129D01*
X141923733Y-121465131D01*
X142041789Y-121527243D01*
X142144327Y-121581191D01*
X142384068Y-121664912D01*
X142633550Y-121712278D01*
X142754032Y-121717011D01*
X142882625Y-121722064D01*
X142882630Y-121722064D01*
X142887293Y-121722247D01*
X142986274Y-121711407D01*
X143135069Y-121695112D01*
X143135075Y-121695111D01*
X143139722Y-121694602D01*
X143249180Y-121665784D01*
X143380773Y-121631138D01*
X143385293Y-121629948D01*
X143503853Y-121579011D01*
X143614307Y-121531557D01*
X143614310Y-121531555D01*
X143618610Y-121529708D01*
X143622590Y-121527245D01*
X143622594Y-121527243D01*
X143830564Y-121398547D01*
X143830566Y-121398545D01*
X143834547Y-121396082D01*
X143932928Y-121312797D01*
X144024789Y-121235031D01*
X144024791Y-121235029D01*
X144028362Y-121232006D01*
X144195795Y-121041084D01*
X144333169Y-120827512D01*
X144437467Y-120595980D01*
X144506396Y-120351575D01*
X144538443Y-120099667D01*
X144540791Y-120010000D01*
X144537458Y-119965151D01*
X164437296Y-119965151D01*
X164449480Y-120218798D01*
X164499021Y-120467857D01*
X164500600Y-120472255D01*
X164500602Y-120472262D01*
X164545022Y-120595980D01*
X164584831Y-120706858D01*
X164705025Y-120930551D01*
X164707820Y-120934294D01*
X164707822Y-120934297D01*
X164854171Y-121130282D01*
X164854176Y-121130288D01*
X164856963Y-121134020D01*
X164860272Y-121137300D01*
X164860277Y-121137306D01*
X164958859Y-121235031D01*
X165037307Y-121312797D01*
X165041069Y-121315555D01*
X165041072Y-121315558D01*
X165146764Y-121393054D01*
X165242094Y-121462953D01*
X165246229Y-121465129D01*
X165246233Y-121465131D01*
X165364289Y-121527243D01*
X165466827Y-121581191D01*
X165706568Y-121664912D01*
X165956050Y-121712278D01*
X166076532Y-121717011D01*
X166205125Y-121722064D01*
X166205130Y-121722064D01*
X166209793Y-121722247D01*
X166308774Y-121711407D01*
X166457569Y-121695112D01*
X166457575Y-121695111D01*
X166462222Y-121694602D01*
X166571680Y-121665784D01*
X166703273Y-121631138D01*
X166707793Y-121629948D01*
X166826353Y-121579011D01*
X166936807Y-121531557D01*
X166936810Y-121531555D01*
X166941110Y-121529708D01*
X166945090Y-121527245D01*
X166945094Y-121527243D01*
X167153064Y-121398547D01*
X167153066Y-121398545D01*
X167157047Y-121396082D01*
X167255428Y-121312797D01*
X167347289Y-121235031D01*
X167347291Y-121235029D01*
X167350862Y-121232006D01*
X167518295Y-121041084D01*
X167655669Y-120827512D01*
X167759967Y-120595980D01*
X167828896Y-120351575D01*
X167860943Y-120099667D01*
X167863291Y-120010000D01*
X167844472Y-119756759D01*
X167788428Y-119509082D01*
X167696391Y-119272409D01*
X167675866Y-119236498D01*
X167572702Y-119055997D01*
X167572700Y-119055995D01*
X167570383Y-119051940D01*
X167413171Y-118852517D01*
X167228209Y-118678523D01*
X167184483Y-118648189D01*
X167023393Y-118536437D01*
X167023390Y-118536435D01*
X167019561Y-118533779D01*
X167015384Y-118531719D01*
X167015377Y-118531715D01*
X166795996Y-118423528D01*
X166795992Y-118423527D01*
X166791810Y-118421464D01*
X166549960Y-118344047D01*
X166545355Y-118343297D01*
X166303935Y-118303980D01*
X166303934Y-118303980D01*
X166299323Y-118303229D01*
X166172365Y-118301567D01*
X166050083Y-118299966D01*
X166050080Y-118299966D01*
X166045406Y-118299905D01*
X165793787Y-118334149D01*
X165549993Y-118405208D01*
X165319380Y-118511522D01*
X165315471Y-118514085D01*
X165110928Y-118648189D01*
X165110923Y-118648193D01*
X165107015Y-118650755D01*
X164917562Y-118819848D01*
X164755183Y-119015087D01*
X164623447Y-119232182D01*
X164525246Y-119466365D01*
X164462738Y-119712490D01*
X164437296Y-119965151D01*
X144537458Y-119965151D01*
X144521972Y-119756759D01*
X144465928Y-119509082D01*
X144373891Y-119272409D01*
X144353366Y-119236498D01*
X144250202Y-119055997D01*
X144250200Y-119055995D01*
X144247883Y-119051940D01*
X144090671Y-118852517D01*
X143905709Y-118678523D01*
X143861983Y-118648189D01*
X143700893Y-118536437D01*
X143700890Y-118536435D01*
X143697061Y-118533779D01*
X143692884Y-118531719D01*
X143692877Y-118531715D01*
X143473496Y-118423528D01*
X143473492Y-118423527D01*
X143469310Y-118421464D01*
X143227460Y-118344047D01*
X143222855Y-118343297D01*
X142981435Y-118303980D01*
X142981434Y-118303980D01*
X142976823Y-118303229D01*
X142849865Y-118301567D01*
X142727583Y-118299966D01*
X142727580Y-118299966D01*
X142722906Y-118299905D01*
X142471287Y-118334149D01*
X142227493Y-118405208D01*
X141996880Y-118511522D01*
X141992971Y-118514085D01*
X141788428Y-118648189D01*
X141788423Y-118648193D01*
X141784515Y-118650755D01*
X141595062Y-118819848D01*
X141432683Y-119015087D01*
X141300947Y-119232182D01*
X141202746Y-119466365D01*
X141140238Y-119712490D01*
X141114796Y-119965151D01*
X121214958Y-119965151D01*
X121199472Y-119756759D01*
X121143428Y-119509082D01*
X121051391Y-119272409D01*
X121030866Y-119236498D01*
X120927702Y-119055997D01*
X120927700Y-119055995D01*
X120925383Y-119051940D01*
X120768171Y-118852517D01*
X120583209Y-118678523D01*
X120539483Y-118648189D01*
X120378393Y-118536437D01*
X120378390Y-118536435D01*
X120374561Y-118533779D01*
X120370384Y-118531719D01*
X120370377Y-118531715D01*
X120150996Y-118423528D01*
X120150992Y-118423527D01*
X120146810Y-118421464D01*
X119904960Y-118344047D01*
X119900355Y-118343297D01*
X119658935Y-118303980D01*
X119658934Y-118303980D01*
X119654323Y-118303229D01*
X119527365Y-118301567D01*
X119405083Y-118299966D01*
X119405080Y-118299966D01*
X119400406Y-118299905D01*
X119148787Y-118334149D01*
X118904993Y-118405208D01*
X118674380Y-118511522D01*
X118670471Y-118514085D01*
X118465928Y-118648189D01*
X118465923Y-118648193D01*
X118462015Y-118650755D01*
X118272562Y-118819848D01*
X118110183Y-119015087D01*
X117978447Y-119232182D01*
X117880246Y-119466365D01*
X117817738Y-119712490D01*
X117792296Y-119965151D01*
X116808500Y-119965151D01*
X116808500Y-114512565D01*
X116828502Y-114444444D01*
X116845405Y-114423470D01*
X117581405Y-113687470D01*
X117643717Y-113653444D01*
X117714532Y-113658509D01*
X117771368Y-113701056D01*
X117796179Y-113767576D01*
X117796500Y-113776565D01*
X117796500Y-116178134D01*
X117803255Y-116240316D01*
X117854385Y-116376705D01*
X117941739Y-116493261D01*
X118058295Y-116580615D01*
X118194684Y-116631745D01*
X118256866Y-116638500D01*
X120753134Y-116638500D01*
X120815316Y-116631745D01*
X120951705Y-116580615D01*
X121068261Y-116493261D01*
X121155615Y-116376705D01*
X121206745Y-116240316D01*
X121213500Y-116178134D01*
X141119000Y-116178134D01*
X141125755Y-116240316D01*
X141176885Y-116376705D01*
X141264239Y-116493261D01*
X141380795Y-116580615D01*
X141517184Y-116631745D01*
X141579366Y-116638500D01*
X144075634Y-116638500D01*
X144137816Y-116631745D01*
X144274205Y-116580615D01*
X144390761Y-116493261D01*
X144478115Y-116376705D01*
X144529245Y-116240316D01*
X144536000Y-116178134D01*
X164441500Y-116178134D01*
X164448255Y-116240316D01*
X164499385Y-116376705D01*
X164586739Y-116493261D01*
X164703295Y-116580615D01*
X164839684Y-116631745D01*
X164901866Y-116638500D01*
X167398134Y-116638500D01*
X167460316Y-116631745D01*
X167596705Y-116580615D01*
X167713261Y-116493261D01*
X167800615Y-116376705D01*
X167851745Y-116240316D01*
X167858500Y-116178134D01*
X167858500Y-113681866D01*
X167851745Y-113619684D01*
X167800615Y-113483295D01*
X167713261Y-113366739D01*
X167596705Y-113279385D01*
X167460316Y-113228255D01*
X167398134Y-113221500D01*
X164901866Y-113221500D01*
X164839684Y-113228255D01*
X164703295Y-113279385D01*
X164586739Y-113366739D01*
X164499385Y-113483295D01*
X164448255Y-113619684D01*
X164441500Y-113681866D01*
X164441500Y-116178134D01*
X144536000Y-116178134D01*
X144536000Y-113681866D01*
X144529245Y-113619684D01*
X144478115Y-113483295D01*
X144390761Y-113366739D01*
X144274205Y-113279385D01*
X144137816Y-113228255D01*
X144075634Y-113221500D01*
X141579366Y-113221500D01*
X141517184Y-113228255D01*
X141380795Y-113279385D01*
X141264239Y-113366739D01*
X141176885Y-113483295D01*
X141125755Y-113619684D01*
X141119000Y-113681866D01*
X141119000Y-116178134D01*
X121213500Y-116178134D01*
X121213500Y-113681866D01*
X121206745Y-113619684D01*
X121155615Y-113483295D01*
X121068261Y-113366739D01*
X120951705Y-113279385D01*
X120815316Y-113228255D01*
X120753134Y-113221500D01*
X118351565Y-113221500D01*
X118283444Y-113201498D01*
X118236951Y-113147842D01*
X118226847Y-113077568D01*
X118256341Y-113012988D01*
X118262470Y-113006405D01*
X119393470Y-111875405D01*
X119455782Y-111841379D01*
X119482565Y-111838500D01*
X166300217Y-111838500D01*
X166301780Y-111838422D01*
X166301788Y-111838422D01*
X166399009Y-111833582D01*
X166598619Y-111823645D01*
X166601704Y-111823181D01*
X166601706Y-111823181D01*
X166990203Y-111764773D01*
X166993296Y-111764308D01*
X166996332Y-111763537D01*
X167377085Y-111666838D01*
X167377088Y-111666837D01*
X167380128Y-111666065D01*
X167383076Y-111664995D01*
X167752352Y-111530955D01*
X167752362Y-111530951D01*
X167755290Y-111529888D01*
X168115071Y-111357123D01*
X168455915Y-111149479D01*
X168774451Y-110909009D01*
X168776733Y-110906899D01*
X168776742Y-110906892D01*
X169065231Y-110640214D01*
X169067528Y-110638091D01*
X169332249Y-110339405D01*
X169565995Y-110015903D01*
X169766455Y-109670785D01*
X169931648Y-109307464D01*
X170059938Y-108929532D01*
X170060642Y-108926494D01*
X170060645Y-108926484D01*
X170149353Y-108543770D01*
X170149353Y-108543768D01*
X170150058Y-108540728D01*
X170201117Y-108144895D01*
X170212609Y-107745948D01*
X170206367Y-107657781D01*
X170184643Y-107350968D01*
X170184421Y-107347832D01*
X170116831Y-106954485D01*
X170010509Y-106569795D01*
X170009386Y-106566893D01*
X170009383Y-106566883D01*
X169867635Y-106200488D01*
X169866505Y-106197567D01*
X169686243Y-105841482D01*
X169684564Y-105838852D01*
X169684558Y-105838841D01*
X169473187Y-105507695D01*
X169471506Y-105505061D01*
X169469577Y-105502614D01*
X169469572Y-105502607D01*
X169228731Y-105197103D01*
X169224418Y-105191632D01*
X169222243Y-105189376D01*
X169222238Y-105189370D01*
X169044950Y-105005462D01*
X168947422Y-104904292D01*
X168839436Y-104812551D01*
X168645652Y-104647919D01*
X168645643Y-104647912D01*
X168643257Y-104645885D01*
X168550940Y-104582081D01*
X168317503Y-104420742D01*
X168317494Y-104420737D01*
X168314931Y-104418965D01*
X168312196Y-104417452D01*
X168312191Y-104417449D01*
X168142261Y-104323449D01*
X167965691Y-104225776D01*
X167962822Y-104224543D01*
X167962811Y-104224538D01*
X167601858Y-104069461D01*
X167601855Y-104069460D01*
X167598990Y-104068229D01*
X167596013Y-104067288D01*
X167596009Y-104067286D01*
X167465293Y-104025946D01*
X167218455Y-103947882D01*
X167159458Y-103935503D01*
X166970774Y-103895913D01*
X166827848Y-103865924D01*
X166824730Y-103865588D01*
X166433484Y-103823430D01*
X166433481Y-103823430D01*
X166431033Y-103823166D01*
X166428570Y-103823095D01*
X166428569Y-103823095D01*
X166425319Y-103823001D01*
X166373197Y-103821500D01*
X117809209Y-103821500D01*
X117806900Y-103821479D01*
X117643932Y-103818492D01*
X117606630Y-103821526D01*
X117509794Y-103829402D01*
X117505845Y-103829661D01*
X117476575Y-103831118D01*
X117371381Y-103836355D01*
X117368302Y-103836818D01*
X117368291Y-103836819D01*
X117313230Y-103845097D01*
X117304713Y-103846082D01*
X117249269Y-103850592D01*
X117246134Y-103850847D01*
X117243050Y-103851410D01*
X117243044Y-103851411D01*
X117113740Y-103875026D01*
X117109836Y-103875676D01*
X116979808Y-103895225D01*
X116979802Y-103895226D01*
X116976704Y-103895692D01*
X116973654Y-103896467D01*
X116973652Y-103896467D01*
X116965511Y-103898534D01*
X116894563Y-103895913D01*
X116836295Y-103855351D01*
X116809206Y-103789726D01*
X116808500Y-103776410D01*
X116808500Y-97625151D01*
X117842296Y-97625151D01*
X117842520Y-97629817D01*
X117842520Y-97629822D01*
X117845897Y-97700112D01*
X117854480Y-97878798D01*
X117904021Y-98127857D01*
X117905600Y-98132255D01*
X117905602Y-98132262D01*
X117950022Y-98255980D01*
X117989831Y-98366858D01*
X118110025Y-98590551D01*
X118112820Y-98594294D01*
X118112822Y-98594297D01*
X118259171Y-98790282D01*
X118259176Y-98790288D01*
X118261963Y-98794020D01*
X118265272Y-98797300D01*
X118265277Y-98797306D01*
X118363859Y-98895031D01*
X118442307Y-98972797D01*
X118446069Y-98975555D01*
X118446072Y-98975558D01*
X118551764Y-99053054D01*
X118647094Y-99122953D01*
X118651229Y-99125129D01*
X118651233Y-99125131D01*
X118769289Y-99187243D01*
X118871827Y-99241191D01*
X119111568Y-99324912D01*
X119361050Y-99372278D01*
X119481532Y-99377011D01*
X119610125Y-99382064D01*
X119610130Y-99382064D01*
X119614793Y-99382247D01*
X119713774Y-99371407D01*
X119862569Y-99355112D01*
X119862575Y-99355111D01*
X119867222Y-99354602D01*
X119976680Y-99325784D01*
X120108273Y-99291138D01*
X120112793Y-99289948D01*
X120231353Y-99239011D01*
X120341807Y-99191557D01*
X120341810Y-99191555D01*
X120346110Y-99189708D01*
X120350090Y-99187245D01*
X120350094Y-99187243D01*
X120558064Y-99058547D01*
X120558066Y-99058545D01*
X120562047Y-99056082D01*
X120660428Y-98972797D01*
X120752289Y-98895031D01*
X120752291Y-98895029D01*
X120755862Y-98892006D01*
X120923295Y-98701084D01*
X121060669Y-98487512D01*
X121164967Y-98255980D01*
X121233896Y-98011575D01*
X121251541Y-97872877D01*
X121265545Y-97762798D01*
X121265545Y-97762792D01*
X121265943Y-97759667D01*
X121268291Y-97670000D01*
X121264958Y-97625151D01*
X141164796Y-97625151D01*
X141165020Y-97629817D01*
X141165020Y-97629822D01*
X141168397Y-97700112D01*
X141176980Y-97878798D01*
X141226521Y-98127857D01*
X141228100Y-98132255D01*
X141228102Y-98132262D01*
X141272522Y-98255980D01*
X141312331Y-98366858D01*
X141432525Y-98590551D01*
X141435320Y-98594294D01*
X141435322Y-98594297D01*
X141581671Y-98790282D01*
X141581676Y-98790288D01*
X141584463Y-98794020D01*
X141587772Y-98797300D01*
X141587777Y-98797306D01*
X141686359Y-98895031D01*
X141764807Y-98972797D01*
X141768569Y-98975555D01*
X141768572Y-98975558D01*
X141874264Y-99053054D01*
X141969594Y-99122953D01*
X141973729Y-99125129D01*
X141973733Y-99125131D01*
X142091789Y-99187243D01*
X142194327Y-99241191D01*
X142434068Y-99324912D01*
X142683550Y-99372278D01*
X142804032Y-99377011D01*
X142932625Y-99382064D01*
X142932630Y-99382064D01*
X142937293Y-99382247D01*
X143036274Y-99371407D01*
X143185069Y-99355112D01*
X143185075Y-99355111D01*
X143189722Y-99354602D01*
X143299180Y-99325784D01*
X143430773Y-99291138D01*
X143435293Y-99289948D01*
X143553853Y-99239011D01*
X143664307Y-99191557D01*
X143664310Y-99191555D01*
X143668610Y-99189708D01*
X143672590Y-99187245D01*
X143672594Y-99187243D01*
X143880564Y-99058547D01*
X143880566Y-99058545D01*
X143884547Y-99056082D01*
X143982928Y-98972797D01*
X144074789Y-98895031D01*
X144074791Y-98895029D01*
X144078362Y-98892006D01*
X144245795Y-98701084D01*
X144383169Y-98487512D01*
X144487467Y-98255980D01*
X144556396Y-98011575D01*
X144574041Y-97872877D01*
X144588045Y-97762798D01*
X144588045Y-97762792D01*
X144588443Y-97759667D01*
X144590791Y-97670000D01*
X144587458Y-97625151D01*
X164487296Y-97625151D01*
X164487520Y-97629817D01*
X164487520Y-97629822D01*
X164490897Y-97700112D01*
X164499480Y-97878798D01*
X164549021Y-98127857D01*
X164550600Y-98132255D01*
X164550602Y-98132262D01*
X164595022Y-98255980D01*
X164634831Y-98366858D01*
X164755025Y-98590551D01*
X164757820Y-98594294D01*
X164757822Y-98594297D01*
X164904171Y-98790282D01*
X164904176Y-98790288D01*
X164906963Y-98794020D01*
X164910272Y-98797300D01*
X164910277Y-98797306D01*
X165008859Y-98895031D01*
X165087307Y-98972797D01*
X165091069Y-98975555D01*
X165091072Y-98975558D01*
X165196764Y-99053054D01*
X165292094Y-99122953D01*
X165296229Y-99125129D01*
X165296233Y-99125131D01*
X165414289Y-99187243D01*
X165516827Y-99241191D01*
X165756568Y-99324912D01*
X166006050Y-99372278D01*
X166126532Y-99377011D01*
X166255125Y-99382064D01*
X166255130Y-99382064D01*
X166259793Y-99382247D01*
X166358774Y-99371407D01*
X166507569Y-99355112D01*
X166507575Y-99355111D01*
X166512222Y-99354602D01*
X166621680Y-99325784D01*
X166753273Y-99291138D01*
X166757793Y-99289948D01*
X166876353Y-99239011D01*
X166986807Y-99191557D01*
X166986810Y-99191555D01*
X166991110Y-99189708D01*
X166995090Y-99187245D01*
X166995094Y-99187243D01*
X167203064Y-99058547D01*
X167203066Y-99058545D01*
X167207047Y-99056082D01*
X167305428Y-98972797D01*
X167397289Y-98895031D01*
X167397291Y-98895029D01*
X167400862Y-98892006D01*
X167568295Y-98701084D01*
X167705669Y-98487512D01*
X167809967Y-98255980D01*
X167878896Y-98011575D01*
X167896541Y-97872877D01*
X167910545Y-97762798D01*
X167910545Y-97762792D01*
X167910943Y-97759667D01*
X167913291Y-97670000D01*
X167898166Y-97466463D01*
X167894818Y-97421411D01*
X167894817Y-97421407D01*
X167894472Y-97416759D01*
X167889378Y-97394244D01*
X167839459Y-97173639D01*
X167838428Y-97169082D01*
X167746391Y-96932409D01*
X167725866Y-96896498D01*
X167622702Y-96715997D01*
X167622700Y-96715995D01*
X167620383Y-96711940D01*
X167463171Y-96512517D01*
X167278209Y-96338523D01*
X167234483Y-96308189D01*
X167073393Y-96196437D01*
X167073390Y-96196435D01*
X167069561Y-96193779D01*
X167065384Y-96191719D01*
X167065377Y-96191715D01*
X166845996Y-96083528D01*
X166845992Y-96083527D01*
X166841810Y-96081464D01*
X166599960Y-96004047D01*
X166595355Y-96003297D01*
X166353935Y-95963980D01*
X166353934Y-95963980D01*
X166349323Y-95963229D01*
X166222365Y-95961567D01*
X166100083Y-95959966D01*
X166100080Y-95959966D01*
X166095406Y-95959905D01*
X165843787Y-95994149D01*
X165599993Y-96065208D01*
X165369380Y-96171522D01*
X165365471Y-96174085D01*
X165160928Y-96308189D01*
X165160923Y-96308193D01*
X165157015Y-96310755D01*
X164967562Y-96479848D01*
X164805183Y-96675087D01*
X164673447Y-96892182D01*
X164575246Y-97126365D01*
X164512738Y-97372490D01*
X164487296Y-97625151D01*
X144587458Y-97625151D01*
X144575666Y-97466463D01*
X144572318Y-97421411D01*
X144572317Y-97421407D01*
X144571972Y-97416759D01*
X144566878Y-97394244D01*
X144516959Y-97173639D01*
X144515928Y-97169082D01*
X144423891Y-96932409D01*
X144403366Y-96896498D01*
X144300202Y-96715997D01*
X144300200Y-96715995D01*
X144297883Y-96711940D01*
X144140671Y-96512517D01*
X143955709Y-96338523D01*
X143911983Y-96308189D01*
X143750893Y-96196437D01*
X143750890Y-96196435D01*
X143747061Y-96193779D01*
X143742884Y-96191719D01*
X143742877Y-96191715D01*
X143523496Y-96083528D01*
X143523492Y-96083527D01*
X143519310Y-96081464D01*
X143277460Y-96004047D01*
X143272855Y-96003297D01*
X143031435Y-95963980D01*
X143031434Y-95963980D01*
X143026823Y-95963229D01*
X142899865Y-95961567D01*
X142777583Y-95959966D01*
X142777580Y-95959966D01*
X142772906Y-95959905D01*
X142521287Y-95994149D01*
X142277493Y-96065208D01*
X142046880Y-96171522D01*
X142042971Y-96174085D01*
X141838428Y-96308189D01*
X141838423Y-96308193D01*
X141834515Y-96310755D01*
X141645062Y-96479848D01*
X141482683Y-96675087D01*
X141350947Y-96892182D01*
X141252746Y-97126365D01*
X141190238Y-97372490D01*
X141164796Y-97625151D01*
X121264958Y-97625151D01*
X121253166Y-97466463D01*
X121249818Y-97421411D01*
X121249817Y-97421407D01*
X121249472Y-97416759D01*
X121244378Y-97394244D01*
X121194459Y-97173639D01*
X121193428Y-97169082D01*
X121101391Y-96932409D01*
X121080866Y-96896498D01*
X120977702Y-96715997D01*
X120977700Y-96715995D01*
X120975383Y-96711940D01*
X120818171Y-96512517D01*
X120633209Y-96338523D01*
X120589483Y-96308189D01*
X120428393Y-96196437D01*
X120428390Y-96196435D01*
X120424561Y-96193779D01*
X120420384Y-96191719D01*
X120420377Y-96191715D01*
X120200996Y-96083528D01*
X120200992Y-96083527D01*
X120196810Y-96081464D01*
X119954960Y-96004047D01*
X119950355Y-96003297D01*
X119708935Y-95963980D01*
X119708934Y-95963980D01*
X119704323Y-95963229D01*
X119577365Y-95961567D01*
X119455083Y-95959966D01*
X119455080Y-95959966D01*
X119450406Y-95959905D01*
X119198787Y-95994149D01*
X118954993Y-96065208D01*
X118724380Y-96171522D01*
X118720471Y-96174085D01*
X118515928Y-96308189D01*
X118515923Y-96308193D01*
X118512015Y-96310755D01*
X118322562Y-96479848D01*
X118160183Y-96675087D01*
X118028447Y-96892182D01*
X117930246Y-97126365D01*
X117867738Y-97372490D01*
X117842296Y-97625151D01*
X116808500Y-97625151D01*
X116808500Y-93838134D01*
X117846500Y-93838134D01*
X117853255Y-93900316D01*
X117904385Y-94036705D01*
X117991739Y-94153261D01*
X118108295Y-94240615D01*
X118244684Y-94291745D01*
X118306866Y-94298500D01*
X120803134Y-94298500D01*
X120865316Y-94291745D01*
X121001705Y-94240615D01*
X121118261Y-94153261D01*
X121205615Y-94036705D01*
X121256745Y-93900316D01*
X121263500Y-93838134D01*
X141169000Y-93838134D01*
X141175755Y-93900316D01*
X141226885Y-94036705D01*
X141314239Y-94153261D01*
X141430795Y-94240615D01*
X141567184Y-94291745D01*
X141629366Y-94298500D01*
X144125634Y-94298500D01*
X144187816Y-94291745D01*
X144324205Y-94240615D01*
X144440761Y-94153261D01*
X144528115Y-94036705D01*
X144579245Y-93900316D01*
X144586000Y-93838134D01*
X164491500Y-93838134D01*
X164498255Y-93900316D01*
X164549385Y-94036705D01*
X164636739Y-94153261D01*
X164753295Y-94240615D01*
X164889684Y-94291745D01*
X164951866Y-94298500D01*
X167448134Y-94298500D01*
X167510316Y-94291745D01*
X167646705Y-94240615D01*
X167763261Y-94153261D01*
X167850615Y-94036705D01*
X167901745Y-93900316D01*
X167908500Y-93838134D01*
X167908500Y-91341866D01*
X167901745Y-91279684D01*
X167850615Y-91143295D01*
X167763261Y-91026739D01*
X167646705Y-90939385D01*
X167510316Y-90888255D01*
X167448134Y-90881500D01*
X164951866Y-90881500D01*
X164889684Y-90888255D01*
X164753295Y-90939385D01*
X164636739Y-91026739D01*
X164549385Y-91143295D01*
X164498255Y-91279684D01*
X164491500Y-91341866D01*
X164491500Y-93838134D01*
X144586000Y-93838134D01*
X144586000Y-91341866D01*
X144579245Y-91279684D01*
X144528115Y-91143295D01*
X144440761Y-91026739D01*
X144324205Y-90939385D01*
X144187816Y-90888255D01*
X144125634Y-90881500D01*
X141629366Y-90881500D01*
X141567184Y-90888255D01*
X141430795Y-90939385D01*
X141314239Y-91026739D01*
X141226885Y-91143295D01*
X141175755Y-91279684D01*
X141169000Y-91341866D01*
X141169000Y-93838134D01*
X121263500Y-93838134D01*
X121263500Y-91341866D01*
X121256745Y-91279684D01*
X121205615Y-91143295D01*
X121118261Y-91026739D01*
X121001705Y-90939385D01*
X120865316Y-90888255D01*
X120803134Y-90881500D01*
X118306866Y-90881500D01*
X118244684Y-90888255D01*
X118108295Y-90939385D01*
X117991739Y-91026739D01*
X117904385Y-91143295D01*
X117853255Y-91279684D01*
X117846500Y-91341866D01*
X117846500Y-93838134D01*
X116808500Y-93838134D01*
X116808500Y-92439615D01*
X116808597Y-92434668D01*
X116813146Y-92318883D01*
X116813269Y-92315757D01*
X116808728Y-92240432D01*
X116808500Y-92232850D01*
X116808500Y-90502593D01*
X116830847Y-90430954D01*
X116909258Y-90317503D01*
X116909263Y-90317494D01*
X116911035Y-90314931D01*
X117104224Y-89965691D01*
X117105457Y-89962822D01*
X117105462Y-89962811D01*
X117216328Y-89704762D01*
X117261596Y-89650069D01*
X117332096Y-89628500D01*
X166250217Y-89628500D01*
X166251780Y-89628422D01*
X166251788Y-89628422D01*
X166349009Y-89623582D01*
X166548619Y-89613645D01*
X166551704Y-89613181D01*
X166551706Y-89613181D01*
X166940203Y-89554773D01*
X166943296Y-89554308D01*
X167144412Y-89503231D01*
X167327085Y-89456838D01*
X167327088Y-89456837D01*
X167330128Y-89456065D01*
X167333076Y-89454995D01*
X167702352Y-89320955D01*
X167702362Y-89320951D01*
X167705290Y-89319888D01*
X168065071Y-89147123D01*
X168405915Y-88939479D01*
X168724451Y-88699009D01*
X168726733Y-88696899D01*
X168726742Y-88696892D01*
X169015231Y-88430214D01*
X169017528Y-88428091D01*
X169282249Y-88129405D01*
X169515995Y-87805903D01*
X169716455Y-87460785D01*
X169719517Y-87454052D01*
X169880349Y-87100321D01*
X169881648Y-87097464D01*
X169927960Y-86961035D01*
X170008931Y-86722499D01*
X170008932Y-86722496D01*
X170009938Y-86719532D01*
X170010642Y-86716494D01*
X170010645Y-86716484D01*
X170099353Y-86333770D01*
X170099353Y-86333768D01*
X170100058Y-86330728D01*
X170151117Y-85934895D01*
X170162609Y-85535948D01*
X170134421Y-85137832D01*
X170066831Y-84744485D01*
X169960509Y-84359795D01*
X169959386Y-84356893D01*
X169959383Y-84356883D01*
X169817635Y-83990488D01*
X169816505Y-83987567D01*
X169636243Y-83631482D01*
X169634564Y-83628852D01*
X169634558Y-83628841D01*
X169423187Y-83297695D01*
X169421506Y-83295061D01*
X169419577Y-83292614D01*
X169419572Y-83292607D01*
X169176362Y-82984098D01*
X169174418Y-82981632D01*
X169172243Y-82979376D01*
X169172238Y-82979370D01*
X169034250Y-82836230D01*
X168897422Y-82694292D01*
X168894320Y-82691657D01*
X168595652Y-82437919D01*
X168595643Y-82437912D01*
X168593257Y-82435885D01*
X168528504Y-82391131D01*
X168267503Y-82210742D01*
X168267494Y-82210737D01*
X168264931Y-82208965D01*
X168262196Y-82207452D01*
X168262191Y-82207449D01*
X168023681Y-82075513D01*
X167915691Y-82015776D01*
X167912822Y-82014543D01*
X167912811Y-82014538D01*
X167551858Y-81859461D01*
X167551855Y-81859460D01*
X167548990Y-81858229D01*
X167546013Y-81857288D01*
X167546009Y-81857286D01*
X167415293Y-81815946D01*
X167168455Y-81737882D01*
X166777848Y-81655924D01*
X166668552Y-81644147D01*
X166383484Y-81613430D01*
X166383481Y-81613430D01*
X166381033Y-81613166D01*
X166378570Y-81613095D01*
X166378569Y-81613095D01*
X166375319Y-81613001D01*
X166323197Y-81611500D01*
X114019242Y-81611500D01*
X114016933Y-81611479D01*
X113853933Y-81608491D01*
X113801149Y-81612784D01*
X113719773Y-81619403D01*
X113715823Y-81619662D01*
X113664429Y-81622221D01*
X113581381Y-81626355D01*
X113578288Y-81626820D01*
X113578278Y-81626821D01*
X113523233Y-81635097D01*
X113514721Y-81636082D01*
X113456134Y-81640847D01*
X113453045Y-81641411D01*
X113453046Y-81641411D01*
X113397337Y-81651585D01*
X113326731Y-81644147D01*
X113285605Y-81616730D01*
X112412205Y-80743330D01*
X112410587Y-80741683D01*
X112408758Y-80739786D01*
X112297422Y-80624292D01*
X112194854Y-80537155D01*
X112191882Y-80534549D01*
X112094390Y-80446302D01*
X112094382Y-80446295D01*
X112092067Y-80444200D01*
X112044768Y-80409265D01*
X112038054Y-80403943D01*
X111995656Y-80367923D01*
X111995655Y-80367922D01*
X111993257Y-80365885D01*
X111990676Y-80364102D01*
X111990668Y-80364095D01*
X111882555Y-80289375D01*
X111879333Y-80287073D01*
X111773556Y-80208944D01*
X111771031Y-80207079D01*
X111768341Y-80205478D01*
X111768331Y-80205472D01*
X111720505Y-80177019D01*
X111713290Y-80172387D01*
X111667513Y-80140749D01*
X111667506Y-80140744D01*
X111664931Y-80138965D01*
X111662196Y-80137452D01*
X111662191Y-80137449D01*
X111547159Y-80073817D01*
X111543726Y-80071847D01*
X111459133Y-80021520D01*
X111428031Y-80003016D01*
X111425190Y-80001688D01*
X111374768Y-79978122D01*
X111367129Y-79974230D01*
X111318433Y-79947293D01*
X111315691Y-79945776D01*
X111312816Y-79944541D01*
X111312794Y-79944530D01*
X111192001Y-79892633D01*
X111188390Y-79891014D01*
X111069301Y-79835356D01*
X111066460Y-79834028D01*
X111010985Y-79814547D01*
X111002999Y-79811433D01*
X110951858Y-79789461D01*
X110951855Y-79789460D01*
X110948990Y-79788229D01*
X110946009Y-79787286D01*
X110946003Y-79787284D01*
X110820667Y-79747646D01*
X110816955Y-79746409D01*
X110689893Y-79701788D01*
X110686859Y-79701051D01*
X110686855Y-79701050D01*
X110632764Y-79687914D01*
X110624506Y-79685608D01*
X110571454Y-79668830D01*
X110571446Y-79668828D01*
X110568455Y-79667882D01*
X110565386Y-79667238D01*
X110436715Y-79640240D01*
X110432854Y-79639366D01*
X110305101Y-79608341D01*
X110305097Y-79608340D01*
X110302053Y-79607601D01*
X110298955Y-79607168D01*
X110298948Y-79607167D01*
X110262528Y-79602081D01*
X110243823Y-79599469D01*
X110235388Y-79597997D01*
X110177848Y-79585924D01*
X110174730Y-79585588D01*
X110044016Y-79571503D01*
X110040088Y-79571017D01*
X109909879Y-79552833D01*
X109909872Y-79552832D01*
X109906776Y-79552400D01*
X109903649Y-79552277D01*
X109903647Y-79552277D01*
X109848035Y-79550092D01*
X109839484Y-79549464D01*
X109783487Y-79543430D01*
X109783476Y-79543429D01*
X109781033Y-79543166D01*
X109778570Y-79543095D01*
X109778569Y-79543095D01*
X109775319Y-79543001D01*
X109723197Y-79541500D01*
X109631830Y-79541500D01*
X109626883Y-79541403D01*
X109623549Y-79541272D01*
X109507972Y-79536731D01*
X109504854Y-79536919D01*
X109504851Y-79536919D01*
X109432647Y-79541272D01*
X109425065Y-79541500D01*
X102099782Y-79541500D01*
X102098219Y-79541578D01*
X102098211Y-79541578D01*
X102000990Y-79546418D01*
X101801380Y-79556355D01*
X101798295Y-79556819D01*
X101798293Y-79556819D01*
X101524407Y-79597996D01*
X101406703Y-79615692D01*
X101403668Y-79616463D01*
X101403667Y-79616463D01*
X101022914Y-79713162D01*
X101022911Y-79713163D01*
X101019871Y-79713935D01*
X101016924Y-79715005D01*
X101016923Y-79715005D01*
X100647647Y-79849045D01*
X100647637Y-79849049D01*
X100644709Y-79850112D01*
X100284928Y-80022877D01*
X99944084Y-80230521D01*
X99866124Y-80289375D01*
X99764776Y-80365885D01*
X99625548Y-80470991D01*
X99623266Y-80473101D01*
X99623257Y-80473108D01*
X99461907Y-80622259D01*
X99332471Y-80741909D01*
X99067750Y-81040595D01*
X98834004Y-81364097D01*
X98633544Y-81709215D01*
X98632254Y-81712052D01*
X98632252Y-81712056D01*
X98620510Y-81737882D01*
X98468351Y-82072536D01*
X98467343Y-82075505D01*
X98467340Y-82075513D01*
X98345616Y-82434102D01*
X98340061Y-82450468D01*
X98339357Y-82453506D01*
X98339354Y-82453516D01*
X98283022Y-82696551D01*
X98249941Y-82839272D01*
X98198882Y-83235105D01*
X98187390Y-83634052D01*
X98215578Y-84032168D01*
X98283168Y-84425515D01*
X98389490Y-84810205D01*
X98390613Y-84813107D01*
X98390616Y-84813117D01*
X98515042Y-85134737D01*
X98533494Y-85182433D01*
X98713756Y-85538518D01*
X98715435Y-85541148D01*
X98715441Y-85541159D01*
X98869424Y-85782398D01*
X98928493Y-85874939D01*
X98930422Y-85877386D01*
X98930427Y-85877393D01*
X98978210Y-85938005D01*
X99175581Y-86188368D01*
X99177756Y-86190624D01*
X99177761Y-86190630D01*
X99302282Y-86319800D01*
X99452577Y-86475708D01*
X99454970Y-86477741D01*
X99754347Y-86732081D01*
X99754356Y-86732088D01*
X99756742Y-86734115D01*
X99759322Y-86735898D01*
X100082496Y-86959258D01*
X100082505Y-86959263D01*
X100085068Y-86961035D01*
X100087803Y-86962548D01*
X100087808Y-86962551D01*
X100254017Y-87054492D01*
X100434308Y-87154224D01*
X100437177Y-87155457D01*
X100437188Y-87155462D01*
X100759774Y-87294055D01*
X100814467Y-87339323D01*
X100836004Y-87406974D01*
X100828018Y-87454052D01*
X100799328Y-87530582D01*
X100799326Y-87530588D01*
X100796554Y-87537984D01*
X100789799Y-87600166D01*
X100789799Y-89499834D01*
X100796554Y-89562016D01*
X100847684Y-89698405D01*
X100935038Y-89814961D01*
X101051594Y-89902315D01*
X101187983Y-89953445D01*
X101250165Y-89960200D01*
X103149833Y-89960200D01*
X103212015Y-89953445D01*
X103348404Y-89902315D01*
X103464960Y-89814961D01*
X103552314Y-89698405D01*
X103603444Y-89562016D01*
X103610199Y-89499834D01*
X103610199Y-87684500D01*
X103630201Y-87616379D01*
X103683857Y-87569886D01*
X103736199Y-87558500D01*
X107837435Y-87558500D01*
X107905556Y-87578502D01*
X107926530Y-87595405D01*
X108754595Y-88423470D01*
X108788621Y-88485782D01*
X108791500Y-88512565D01*
X108791500Y-90645220D01*
X108771498Y-90713341D01*
X108754595Y-90734315D01*
X102129002Y-97359909D01*
X102066690Y-97393935D01*
X102046172Y-97396658D01*
X102004440Y-97398736D01*
X101851380Y-97406355D01*
X101848295Y-97406819D01*
X101848293Y-97406819D01*
X101496719Y-97459676D01*
X101456703Y-97465692D01*
X101453668Y-97466463D01*
X101453667Y-97466463D01*
X101072914Y-97563162D01*
X101072911Y-97563163D01*
X101069871Y-97563935D01*
X101066924Y-97565005D01*
X101066923Y-97565005D01*
X100697647Y-97699045D01*
X100697637Y-97699049D01*
X100694709Y-97700112D01*
X100334928Y-97872877D01*
X99994084Y-98080521D01*
X99991574Y-98082416D01*
X99756011Y-98260248D01*
X99675548Y-98320991D01*
X99673266Y-98323101D01*
X99673257Y-98323108D01*
X99500016Y-98483251D01*
X99382471Y-98591909D01*
X99380399Y-98594247D01*
X99380394Y-98594252D01*
X99289192Y-98697156D01*
X99117750Y-98890595D01*
X98884004Y-99214097D01*
X98683544Y-99559215D01*
X98518351Y-99922536D01*
X98390061Y-100300468D01*
X98389357Y-100303506D01*
X98389354Y-100303516D01*
X98300646Y-100686230D01*
X98299941Y-100689272D01*
X98248882Y-101085105D01*
X98237390Y-101484052D01*
X98265578Y-101882168D01*
X98333168Y-102275515D01*
X98439490Y-102660205D01*
X98440613Y-102663107D01*
X98440616Y-102663117D01*
X98571193Y-103000637D01*
X98583494Y-103032433D01*
X98763756Y-103388518D01*
X98765435Y-103391148D01*
X98765441Y-103391159D01*
X98919424Y-103632398D01*
X98978493Y-103724939D01*
X98980422Y-103727386D01*
X98980427Y-103727393D01*
X99153740Y-103947238D01*
X99225581Y-104038368D01*
X99227756Y-104040624D01*
X99227761Y-104040630D01*
X99329430Y-104146095D01*
X99502577Y-104325708D01*
X99504970Y-104327741D01*
X99804347Y-104582081D01*
X99804356Y-104582088D01*
X99806742Y-104584115D01*
X99809322Y-104585898D01*
X100132496Y-104809258D01*
X100132505Y-104809263D01*
X100135068Y-104811035D01*
X100137803Y-104812548D01*
X100137808Y-104812551D01*
X100229927Y-104863508D01*
X100484308Y-105004224D01*
X100487177Y-105005457D01*
X100487188Y-105005462D01*
X100809774Y-105144055D01*
X100864467Y-105189323D01*
X100886004Y-105256974D01*
X100878018Y-105304052D01*
X100849328Y-105380582D01*
X100849326Y-105380588D01*
X100846554Y-105387984D01*
X100839799Y-105450166D01*
X100839799Y-107349834D01*
X100846554Y-107412016D01*
X100897684Y-107548405D01*
X100985038Y-107664961D01*
X101101594Y-107752315D01*
X101237983Y-107803445D01*
X101300165Y-107810200D01*
X103199833Y-107810200D01*
X103262015Y-107803445D01*
X103398404Y-107752315D01*
X103514960Y-107664961D01*
X103602314Y-107548405D01*
X103653444Y-107412016D01*
X103660199Y-107349834D01*
X103660199Y-105535740D01*
X103680201Y-105467619D01*
X103733857Y-105421126D01*
X103788508Y-105409761D01*
X103883853Y-105411509D01*
X103936637Y-105407216D01*
X104018013Y-105400597D01*
X104021963Y-105400338D01*
X104073357Y-105397779D01*
X104156405Y-105393645D01*
X104159498Y-105393180D01*
X104159508Y-105393179D01*
X104214553Y-105384903D01*
X104223065Y-105383918D01*
X104281652Y-105379153D01*
X104297070Y-105376337D01*
X104414046Y-105354974D01*
X104417950Y-105354324D01*
X104547978Y-105334775D01*
X104547984Y-105334774D01*
X104551082Y-105334308D01*
X104608075Y-105319833D01*
X104616439Y-105318010D01*
X104642665Y-105313220D01*
X104671200Y-105308009D01*
X104671206Y-105308008D01*
X104674270Y-105307448D01*
X104677262Y-105306587D01*
X104677280Y-105306583D01*
X104803627Y-105270233D01*
X104807415Y-105269207D01*
X104879920Y-105250793D01*
X104934872Y-105236838D01*
X104934880Y-105236835D01*
X104937914Y-105236065D01*
X104993178Y-105216005D01*
X105001333Y-105213355D01*
X105054822Y-105197967D01*
X105054823Y-105197967D01*
X105057825Y-105197103D01*
X105146385Y-105161771D01*
X105182823Y-105147234D01*
X105186522Y-105145825D01*
X105310138Y-105100955D01*
X105310148Y-105100951D01*
X105313076Y-105099888D01*
X105366085Y-105074433D01*
X105373921Y-105070994D01*
X105428524Y-105049209D01*
X105547970Y-104987162D01*
X105551510Y-104985393D01*
X105672857Y-104927123D01*
X105723069Y-104896534D01*
X105730529Y-104892330D01*
X105782702Y-104865228D01*
X105785331Y-104863511D01*
X105785336Y-104863508D01*
X105895386Y-104791631D01*
X105898734Y-104789518D01*
X106011018Y-104721114D01*
X106011025Y-104721109D01*
X106013701Y-104719479D01*
X106060635Y-104684047D01*
X106067635Y-104679128D01*
X106114241Y-104648688D01*
X106116855Y-104646981D01*
X106221697Y-104562535D01*
X106224814Y-104560105D01*
X106332237Y-104479009D01*
X106375413Y-104439098D01*
X106381903Y-104433496D01*
X106425759Y-104398171D01*
X106427680Y-104396624D01*
X106469755Y-104356906D01*
X106534350Y-104292311D01*
X106537916Y-104288881D01*
X106604537Y-104227297D01*
X106625314Y-104208091D01*
X106675367Y-104151616D01*
X106680566Y-104146095D01*
X108576405Y-102250256D01*
X108638717Y-102216230D01*
X108709532Y-102221295D01*
X108766368Y-102263842D01*
X108791179Y-102330362D01*
X108791500Y-102339351D01*
X108791500Y-111075076D01*
X108771498Y-111143197D01*
X108754595Y-111164171D01*
X106767288Y-113151478D01*
X106704976Y-113185504D01*
X106634161Y-113180439D01*
X106577325Y-113137892D01*
X106561001Y-113108664D01*
X106536669Y-113047051D01*
X106536668Y-113047049D01*
X106534708Y-113042086D01*
X106413787Y-112842813D01*
X106262203Y-112668128D01*
X106232663Y-112603569D01*
X106242717Y-112533288D01*
X106289171Y-112479599D01*
X106313139Y-112467566D01*
X106403295Y-112433768D01*
X106403296Y-112433767D01*
X106411705Y-112430615D01*
X106528261Y-112343261D01*
X106615615Y-112226705D01*
X106666745Y-112090316D01*
X106673500Y-112028134D01*
X106673500Y-110201866D01*
X106666745Y-110139684D01*
X106615615Y-110003295D01*
X106528261Y-109886739D01*
X106411705Y-109799385D01*
X106275316Y-109748255D01*
X106213134Y-109741500D01*
X104086866Y-109741500D01*
X104024684Y-109748255D01*
X103888295Y-109799385D01*
X103771739Y-109886739D01*
X103684385Y-110003295D01*
X103633255Y-110139684D01*
X103626500Y-110201866D01*
X103626500Y-112028134D01*
X103633255Y-112090316D01*
X103684385Y-112226705D01*
X103771739Y-112343261D01*
X103888295Y-112430615D01*
X103896704Y-112433767D01*
X103896705Y-112433768D01*
X103991169Y-112469181D01*
X104047934Y-112511822D01*
X104072634Y-112578384D01*
X104057427Y-112647733D01*
X104033912Y-112678332D01*
X103967590Y-112741601D01*
X103828452Y-112928609D01*
X103826036Y-112933360D01*
X103826034Y-112933364D01*
X103785552Y-113012988D01*
X103722812Y-113136388D01*
X103653690Y-113358995D01*
X103623064Y-113590065D01*
X103631809Y-113822993D01*
X103679674Y-114051117D01*
X103765292Y-114267914D01*
X103886213Y-114467187D01*
X104038982Y-114643237D01*
X104043113Y-114646624D01*
X104215100Y-114787646D01*
X104215106Y-114787650D01*
X104219228Y-114791030D01*
X104223866Y-114793670D01*
X104262998Y-114815945D01*
X104312304Y-114867027D01*
X104326166Y-114936657D01*
X104300183Y-115002728D01*
X104271035Y-115029965D01*
X104136248Y-115120709D01*
X103967590Y-115281601D01*
X103828452Y-115468609D01*
X103722812Y-115676388D01*
X103653690Y-115898995D01*
X103652989Y-115904284D01*
X103628850Y-116086412D01*
X103623064Y-116130065D01*
X103631809Y-116362993D01*
X103679674Y-116591117D01*
X103681632Y-116596076D01*
X103681633Y-116596078D01*
X103722483Y-116699515D01*
X103765292Y-116807914D01*
X103886213Y-117007187D01*
X103889708Y-117011215D01*
X103889709Y-117011216D01*
X103974041Y-117108399D01*
X104038982Y-117183237D01*
X104043113Y-117186624D01*
X104215100Y-117327646D01*
X104215106Y-117327650D01*
X104219228Y-117331030D01*
X104421800Y-117446340D01*
X104426816Y-117448161D01*
X104426821Y-117448163D01*
X104635888Y-117524051D01*
X104635892Y-117524052D01*
X104640903Y-117525871D01*
X104646152Y-117526820D01*
X104646155Y-117526821D01*
X104866191Y-117566610D01*
X104866198Y-117566611D01*
X104870275Y-117567348D01*
X104888199Y-117568193D01*
X104893214Y-117568430D01*
X104893221Y-117568430D01*
X104894702Y-117568500D01*
X105358527Y-117568500D01*
X105532257Y-117553759D01*
X105537421Y-117552419D01*
X105537425Y-117552418D01*
X105752708Y-117496541D01*
X105752712Y-117496539D01*
X105757873Y-117495200D01*
X105781527Y-117484545D01*
X105965536Y-117401655D01*
X105965539Y-117401654D01*
X105970397Y-117399465D01*
X106163752Y-117269291D01*
X106332410Y-117108399D01*
X106471548Y-116921391D01*
X106577188Y-116713612D01*
X106646310Y-116491005D01*
X106676936Y-116259935D01*
X106675905Y-116232460D01*
X106673005Y-116155235D01*
X106690437Y-116086412D01*
X106709821Y-116061413D01*
X108576405Y-114194830D01*
X108638717Y-114160804D01*
X108709533Y-114165869D01*
X108766368Y-114208416D01*
X108791179Y-114274936D01*
X108791500Y-114283925D01*
X108791500Y-125275405D01*
X108791479Y-125277713D01*
X108788491Y-125440714D01*
X108788746Y-125443847D01*
X108799403Y-125574874D01*
X108799662Y-125578824D01*
X108806355Y-125713266D01*
X108806820Y-125716359D01*
X108806821Y-125716369D01*
X108815097Y-125771414D01*
X108816082Y-125779926D01*
X108820847Y-125838513D01*
X108821411Y-125841601D01*
X108845026Y-125970907D01*
X108845676Y-125974811D01*
X108865692Y-126107943D01*
X108879301Y-126161526D01*
X108880165Y-126164929D01*
X108881990Y-126173300D01*
X108892552Y-126231131D01*
X108893413Y-126234123D01*
X108893417Y-126234141D01*
X108929767Y-126360488D01*
X108930793Y-126364276D01*
X108963935Y-126494775D01*
X108965005Y-126497722D01*
X108965005Y-126497723D01*
X108983995Y-126550039D01*
X108986645Y-126558194D01*
X109002897Y-126614686D01*
X109029928Y-126682439D01*
X109052766Y-126739684D01*
X109054175Y-126743383D01*
X109099045Y-126866999D01*
X109099049Y-126867009D01*
X109100112Y-126869937D01*
X109125563Y-126922938D01*
X109129006Y-126930782D01*
X109150791Y-126985385D01*
X109152233Y-126988161D01*
X109212838Y-127104830D01*
X109214607Y-127108370D01*
X109272877Y-127229718D01*
X109274506Y-127232392D01*
X109303466Y-127279930D01*
X109307670Y-127287390D01*
X109334772Y-127339563D01*
X109336489Y-127342192D01*
X109336492Y-127342197D01*
X109408369Y-127452247D01*
X109410482Y-127455595D01*
X109458307Y-127534098D01*
X109480521Y-127570562D01*
X109515953Y-127617496D01*
X109520872Y-127624496D01*
X109553019Y-127673716D01*
X109637461Y-127778553D01*
X109639891Y-127781669D01*
X109720991Y-127889098D01*
X109723116Y-127891397D01*
X109723117Y-127891398D01*
X109760902Y-127932274D01*
X109766504Y-127938764D01*
X109803376Y-127984541D01*
X109843094Y-128026616D01*
X109907689Y-128091211D01*
X109911119Y-128094777D01*
X109991909Y-128182175D01*
X109994247Y-128184247D01*
X109994252Y-128184252D01*
X110048383Y-128232227D01*
X110053905Y-128237427D01*
X114793148Y-132976670D01*
X114794765Y-132978316D01*
X114907931Y-133095708D01*
X114910324Y-133097741D01*
X115010494Y-133182841D01*
X115013471Y-133185451D01*
X115110963Y-133273698D01*
X115110971Y-133273705D01*
X115113286Y-133275800D01*
X115160579Y-133310731D01*
X115167293Y-133316052D01*
X115212096Y-133354115D01*
X115214677Y-133355898D01*
X115214685Y-133355905D01*
X115294733Y-133411228D01*
X115321146Y-133429483D01*
X115322798Y-133430625D01*
X115326010Y-133432920D01*
X115434322Y-133512921D01*
X115437012Y-133514522D01*
X115437022Y-133514528D01*
X115484848Y-133542981D01*
X115492063Y-133547613D01*
X115537840Y-133579251D01*
X115537847Y-133579256D01*
X115540422Y-133581035D01*
X115543157Y-133582548D01*
X115543162Y-133582551D01*
X115658194Y-133646183D01*
X115661627Y-133648153D01*
X115777322Y-133716984D01*
X115780160Y-133718310D01*
X115780163Y-133718312D01*
X115830585Y-133741878D01*
X115838223Y-133745770D01*
X115849455Y-133751983D01*
X115899383Y-133802458D01*
X115914095Y-133871914D01*
X115888921Y-133938298D01*
X115831854Y-133980533D01*
X115788467Y-133988239D01*
X93775365Y-133988239D01*
X93755980Y-133986739D01*
X93741147Y-133984429D01*
X93741143Y-133984429D01*
X93732274Y-133983048D01*
X93714278Y-133985401D01*
X93690882Y-133986267D01*
X93448724Y-133972668D01*
X93434692Y-133971087D01*
X93301283Y-133948420D01*
X93167879Y-133925753D01*
X93154104Y-133922609D01*
X92894047Y-133847688D01*
X92880710Y-133843021D01*
X92630676Y-133739455D01*
X92617946Y-133733324D01*
X92381089Y-133602419D01*
X92369125Y-133594902D01*
X92148402Y-133438293D01*
X92137355Y-133429483D01*
X91935562Y-133249151D01*
X91925571Y-133239160D01*
X91745236Y-133037368D01*
X91736426Y-133026321D01*
X91579816Y-132805603D01*
X91572308Y-132793655D01*
X91441380Y-132556766D01*
X91435256Y-132544047D01*
X91331689Y-132294020D01*
X91327022Y-132280684D01*
X91252097Y-132020624D01*
X91248953Y-132006848D01*
X91203619Y-131740051D01*
X91202036Y-131726010D01*
X91188853Y-131491313D01*
X91190154Y-131464868D01*
X91190308Y-131463882D01*
X91190308Y-131463878D01*
X91191689Y-131455008D01*
X91187562Y-131423451D01*
X91186498Y-131407112D01*
X91186498Y-129900000D01*
X91536411Y-129900000D01*
X91556754Y-130288176D01*
X91617562Y-130672099D01*
X91718167Y-131047562D01*
X91857468Y-131410453D01*
X91858966Y-131413393D01*
X92021848Y-131733066D01*
X92033938Y-131756794D01*
X92245643Y-132082793D01*
X92247718Y-132085355D01*
X92468854Y-132358434D01*
X92490266Y-132384876D01*
X92765124Y-132659734D01*
X92767682Y-132661806D01*
X92767686Y-132661809D01*
X92916166Y-132782046D01*
X93067207Y-132904357D01*
X93069970Y-132906152D01*
X93069971Y-132906152D01*
X93361863Y-133095708D01*
X93393205Y-133116062D01*
X93396139Y-133117557D01*
X93396146Y-133117561D01*
X93710369Y-133277665D01*
X93739547Y-133292532D01*
X93786957Y-133310731D01*
X94089848Y-133427000D01*
X94102438Y-133431833D01*
X94477901Y-133532438D01*
X94681793Y-133564732D01*
X94858576Y-133592732D01*
X94858584Y-133592733D01*
X94861824Y-133593246D01*
X95250000Y-133613589D01*
X95638176Y-133593246D01*
X95641416Y-133592733D01*
X95641424Y-133592732D01*
X95818207Y-133564732D01*
X96022099Y-133532438D01*
X96397562Y-133431833D01*
X96410153Y-133427000D01*
X96713043Y-133310731D01*
X96760453Y-133292532D01*
X96789631Y-133277665D01*
X97103854Y-133117561D01*
X97103861Y-133117557D01*
X97106795Y-133116062D01*
X97138138Y-133095708D01*
X97430029Y-132906152D01*
X97430030Y-132906152D01*
X97432793Y-132904357D01*
X97583834Y-132782046D01*
X97732314Y-132661809D01*
X97732318Y-132661806D01*
X97734876Y-132659734D01*
X98009734Y-132384876D01*
X98031147Y-132358434D01*
X98252282Y-132085355D01*
X98254357Y-132082793D01*
X98466062Y-131756794D01*
X98478153Y-131733066D01*
X98641034Y-131413393D01*
X98642532Y-131410453D01*
X98781833Y-131047562D01*
X98882438Y-130672099D01*
X98943246Y-130288176D01*
X98963589Y-129900000D01*
X98943246Y-129511824D01*
X98882438Y-129127901D01*
X98781833Y-128752438D01*
X98642532Y-128389547D01*
X98537929Y-128184252D01*
X98467561Y-128046147D01*
X98467557Y-128046140D01*
X98466062Y-128043206D01*
X98455289Y-128026616D01*
X98256152Y-127719971D01*
X98256152Y-127719970D01*
X98254357Y-127717207D01*
X98009734Y-127415124D01*
X97734876Y-127140266D01*
X97691117Y-127104830D01*
X97540026Y-126982479D01*
X97432793Y-126895643D01*
X97222327Y-126758965D01*
X97109564Y-126685736D01*
X97109561Y-126685734D01*
X97106795Y-126683938D01*
X97103861Y-126682443D01*
X97103854Y-126682439D01*
X96763393Y-126508966D01*
X96760453Y-126507468D01*
X96397562Y-126368167D01*
X96022099Y-126267562D01*
X95792085Y-126231131D01*
X95641424Y-126207268D01*
X95641416Y-126207267D01*
X95638176Y-126206754D01*
X95250000Y-126186411D01*
X94861824Y-126206754D01*
X94858584Y-126207267D01*
X94858576Y-126207268D01*
X94707915Y-126231131D01*
X94477901Y-126267562D01*
X94102438Y-126368167D01*
X93739547Y-126507468D01*
X93736607Y-126508966D01*
X93396147Y-126682439D01*
X93396140Y-126682443D01*
X93393206Y-126683938D01*
X93390440Y-126685734D01*
X93390437Y-126685736D01*
X93111315Y-126866999D01*
X93067207Y-126895643D01*
X92959974Y-126982479D01*
X92808884Y-127104830D01*
X92765124Y-127140266D01*
X92490266Y-127415124D01*
X92245643Y-127717207D01*
X92243848Y-127719970D01*
X92243848Y-127719971D01*
X92044712Y-128026616D01*
X92033938Y-128043206D01*
X92032443Y-128046140D01*
X92032439Y-128046147D01*
X91962071Y-128184252D01*
X91857468Y-128389547D01*
X91718167Y-128752438D01*
X91617562Y-129127901D01*
X91556754Y-129511824D01*
X91536411Y-129900000D01*
X91186498Y-129900000D01*
X91186498Y-75415151D01*
X117792296Y-75415151D01*
X117804480Y-75668798D01*
X117854021Y-75917857D01*
X117855600Y-75922255D01*
X117855602Y-75922262D01*
X117900022Y-76045980D01*
X117939831Y-76156858D01*
X118060025Y-76380551D01*
X118062820Y-76384294D01*
X118062822Y-76384297D01*
X118209171Y-76580282D01*
X118209176Y-76580288D01*
X118211963Y-76584020D01*
X118215272Y-76587300D01*
X118215277Y-76587306D01*
X118313859Y-76685031D01*
X118392307Y-76762797D01*
X118396069Y-76765555D01*
X118396072Y-76765558D01*
X118501764Y-76843054D01*
X118597094Y-76912953D01*
X118601229Y-76915129D01*
X118601233Y-76915131D01*
X118719289Y-76977243D01*
X118821827Y-77031191D01*
X119061568Y-77114912D01*
X119311050Y-77162278D01*
X119431532Y-77167011D01*
X119560125Y-77172064D01*
X119560130Y-77172064D01*
X119564793Y-77172247D01*
X119663774Y-77161407D01*
X119812569Y-77145112D01*
X119812575Y-77145111D01*
X119817222Y-77144602D01*
X119926680Y-77115784D01*
X120058273Y-77081138D01*
X120062793Y-77079948D01*
X120181353Y-77029011D01*
X120291807Y-76981557D01*
X120291810Y-76981555D01*
X120296110Y-76979708D01*
X120300090Y-76977245D01*
X120300094Y-76977243D01*
X120508064Y-76848547D01*
X120508066Y-76848545D01*
X120512047Y-76846082D01*
X120610428Y-76762797D01*
X120702289Y-76685031D01*
X120702291Y-76685029D01*
X120705862Y-76682006D01*
X120873295Y-76491084D01*
X121010669Y-76277512D01*
X121114967Y-76045980D01*
X121183896Y-75801575D01*
X121215943Y-75549667D01*
X121218291Y-75460000D01*
X121214958Y-75415151D01*
X141114796Y-75415151D01*
X141126980Y-75668798D01*
X141176521Y-75917857D01*
X141178100Y-75922255D01*
X141178102Y-75922262D01*
X141222522Y-76045980D01*
X141262331Y-76156858D01*
X141382525Y-76380551D01*
X141385320Y-76384294D01*
X141385322Y-76384297D01*
X141531671Y-76580282D01*
X141531676Y-76580288D01*
X141534463Y-76584020D01*
X141537772Y-76587300D01*
X141537777Y-76587306D01*
X141636359Y-76685031D01*
X141714807Y-76762797D01*
X141718569Y-76765555D01*
X141718572Y-76765558D01*
X141824264Y-76843054D01*
X141919594Y-76912953D01*
X141923729Y-76915129D01*
X141923733Y-76915131D01*
X142041789Y-76977243D01*
X142144327Y-77031191D01*
X142384068Y-77114912D01*
X142633550Y-77162278D01*
X142754032Y-77167011D01*
X142882625Y-77172064D01*
X142882630Y-77172064D01*
X142887293Y-77172247D01*
X142986274Y-77161407D01*
X143135069Y-77145112D01*
X143135075Y-77145111D01*
X143139722Y-77144602D01*
X143249180Y-77115784D01*
X143380773Y-77081138D01*
X143385293Y-77079948D01*
X143503853Y-77029011D01*
X143614307Y-76981557D01*
X143614310Y-76981555D01*
X143618610Y-76979708D01*
X143622590Y-76977245D01*
X143622594Y-76977243D01*
X143830564Y-76848547D01*
X143830566Y-76848545D01*
X143834547Y-76846082D01*
X143932928Y-76762797D01*
X144024789Y-76685031D01*
X144024791Y-76685029D01*
X144028362Y-76682006D01*
X144195795Y-76491084D01*
X144333169Y-76277512D01*
X144437467Y-76045980D01*
X144506396Y-75801575D01*
X144538443Y-75549667D01*
X144540791Y-75460000D01*
X144537458Y-75415151D01*
X164437296Y-75415151D01*
X164449480Y-75668798D01*
X164499021Y-75917857D01*
X164500600Y-75922255D01*
X164500602Y-75922262D01*
X164545022Y-76045980D01*
X164584831Y-76156858D01*
X164705025Y-76380551D01*
X164707820Y-76384294D01*
X164707822Y-76384297D01*
X164854171Y-76580282D01*
X164854176Y-76580288D01*
X164856963Y-76584020D01*
X164860272Y-76587300D01*
X164860277Y-76587306D01*
X164958859Y-76685031D01*
X165037307Y-76762797D01*
X165041069Y-76765555D01*
X165041072Y-76765558D01*
X165146764Y-76843054D01*
X165242094Y-76912953D01*
X165246229Y-76915129D01*
X165246233Y-76915131D01*
X165364289Y-76977243D01*
X165466827Y-77031191D01*
X165706568Y-77114912D01*
X165956050Y-77162278D01*
X166076532Y-77167011D01*
X166205125Y-77172064D01*
X166205130Y-77172064D01*
X166209793Y-77172247D01*
X166308774Y-77161407D01*
X166457569Y-77145112D01*
X166457575Y-77145111D01*
X166462222Y-77144602D01*
X166571680Y-77115784D01*
X166703273Y-77081138D01*
X166707793Y-77079948D01*
X166826353Y-77029011D01*
X166936807Y-76981557D01*
X166936810Y-76981555D01*
X166941110Y-76979708D01*
X166945090Y-76977245D01*
X166945094Y-76977243D01*
X167153064Y-76848547D01*
X167153066Y-76848545D01*
X167157047Y-76846082D01*
X167255428Y-76762797D01*
X167347289Y-76685031D01*
X167347291Y-76685029D01*
X167350862Y-76682006D01*
X167518295Y-76491084D01*
X167655669Y-76277512D01*
X167759967Y-76045980D01*
X167828896Y-75801575D01*
X167860943Y-75549667D01*
X167863291Y-75460000D01*
X167844472Y-75206759D01*
X167788428Y-74959082D01*
X167696391Y-74722409D01*
X167675866Y-74686498D01*
X167572702Y-74505997D01*
X167572700Y-74505995D01*
X167570383Y-74501940D01*
X167413171Y-74302517D01*
X167228209Y-74128523D01*
X167146139Y-74071589D01*
X167023393Y-73986437D01*
X167023390Y-73986435D01*
X167019561Y-73983779D01*
X167015384Y-73981719D01*
X167015377Y-73981715D01*
X166795996Y-73873528D01*
X166795992Y-73873527D01*
X166791810Y-73871464D01*
X166549960Y-73794047D01*
X166545355Y-73793297D01*
X166303935Y-73753980D01*
X166303934Y-73753980D01*
X166299323Y-73753229D01*
X166172364Y-73751567D01*
X166050083Y-73749966D01*
X166050080Y-73749966D01*
X166045406Y-73749905D01*
X165793787Y-73784149D01*
X165549993Y-73855208D01*
X165319380Y-73961522D01*
X165315471Y-73964085D01*
X165110928Y-74098189D01*
X165110923Y-74098193D01*
X165107015Y-74100755D01*
X164917562Y-74269848D01*
X164755183Y-74465087D01*
X164623447Y-74682182D01*
X164525246Y-74916365D01*
X164462738Y-75162490D01*
X164437296Y-75415151D01*
X144537458Y-75415151D01*
X144521972Y-75206759D01*
X144465928Y-74959082D01*
X144373891Y-74722409D01*
X144353366Y-74686498D01*
X144250202Y-74505997D01*
X144250200Y-74505995D01*
X144247883Y-74501940D01*
X144090671Y-74302517D01*
X143905709Y-74128523D01*
X143823639Y-74071589D01*
X143700893Y-73986437D01*
X143700890Y-73986435D01*
X143697061Y-73983779D01*
X143692884Y-73981719D01*
X143692877Y-73981715D01*
X143473496Y-73873528D01*
X143473492Y-73873527D01*
X143469310Y-73871464D01*
X143227460Y-73794047D01*
X143222855Y-73793297D01*
X142981435Y-73753980D01*
X142981434Y-73753980D01*
X142976823Y-73753229D01*
X142849864Y-73751567D01*
X142727583Y-73749966D01*
X142727580Y-73749966D01*
X142722906Y-73749905D01*
X142471287Y-73784149D01*
X142227493Y-73855208D01*
X141996880Y-73961522D01*
X141992971Y-73964085D01*
X141788428Y-74098189D01*
X141788423Y-74098193D01*
X141784515Y-74100755D01*
X141595062Y-74269848D01*
X141432683Y-74465087D01*
X141300947Y-74682182D01*
X141202746Y-74916365D01*
X141140238Y-75162490D01*
X141114796Y-75415151D01*
X121214958Y-75415151D01*
X121199472Y-75206759D01*
X121143428Y-74959082D01*
X121051391Y-74722409D01*
X121030866Y-74686498D01*
X120927702Y-74505997D01*
X120927700Y-74505995D01*
X120925383Y-74501940D01*
X120768171Y-74302517D01*
X120583209Y-74128523D01*
X120501139Y-74071589D01*
X120378393Y-73986437D01*
X120378390Y-73986435D01*
X120374561Y-73983779D01*
X120370384Y-73981719D01*
X120370377Y-73981715D01*
X120150996Y-73873528D01*
X120150992Y-73873527D01*
X120146810Y-73871464D01*
X119904960Y-73794047D01*
X119900355Y-73793297D01*
X119658935Y-73753980D01*
X119658934Y-73753980D01*
X119654323Y-73753229D01*
X119527364Y-73751567D01*
X119405083Y-73749966D01*
X119405080Y-73749966D01*
X119400406Y-73749905D01*
X119148787Y-73784149D01*
X118904993Y-73855208D01*
X118674380Y-73961522D01*
X118670471Y-73964085D01*
X118465928Y-74098189D01*
X118465923Y-74098193D01*
X118462015Y-74100755D01*
X118272562Y-74269848D01*
X118110183Y-74465087D01*
X117978447Y-74682182D01*
X117880246Y-74916365D01*
X117817738Y-75162490D01*
X117792296Y-75415151D01*
X91186498Y-75415151D01*
X91186498Y-70358000D01*
X91536411Y-70358000D01*
X91556754Y-70746176D01*
X91617562Y-71130099D01*
X91718167Y-71505562D01*
X91857468Y-71868453D01*
X91858966Y-71871393D01*
X91966581Y-72082598D01*
X92033938Y-72214794D01*
X92245643Y-72540793D01*
X92490266Y-72842876D01*
X92765124Y-73117734D01*
X93067207Y-73362357D01*
X93393205Y-73574062D01*
X93396139Y-73575557D01*
X93396146Y-73575561D01*
X93736607Y-73749034D01*
X93739547Y-73750532D01*
X94102438Y-73889833D01*
X94477901Y-73990438D01*
X94681793Y-74022732D01*
X94858576Y-74050732D01*
X94858584Y-74050733D01*
X94861824Y-74051246D01*
X95250000Y-74071589D01*
X95638176Y-74051246D01*
X95641416Y-74050733D01*
X95641424Y-74050732D01*
X95818207Y-74022732D01*
X96022099Y-73990438D01*
X96397562Y-73889833D01*
X96760453Y-73750532D01*
X96763393Y-73749034D01*
X97103854Y-73575561D01*
X97103861Y-73575557D01*
X97106795Y-73574062D01*
X97432793Y-73362357D01*
X97734876Y-73117734D01*
X98009734Y-72842876D01*
X98254357Y-72540793D01*
X98466062Y-72214794D01*
X98533420Y-72082598D01*
X98641034Y-71871393D01*
X98642532Y-71868453D01*
X98734782Y-71628134D01*
X117796500Y-71628134D01*
X117803255Y-71690316D01*
X117854385Y-71826705D01*
X117941739Y-71943261D01*
X118058295Y-72030615D01*
X118194684Y-72081745D01*
X118256866Y-72088500D01*
X120753134Y-72088500D01*
X120815316Y-72081745D01*
X120951705Y-72030615D01*
X121068261Y-71943261D01*
X121155615Y-71826705D01*
X121206745Y-71690316D01*
X121213500Y-71628134D01*
X141119000Y-71628134D01*
X141125755Y-71690316D01*
X141176885Y-71826705D01*
X141264239Y-71943261D01*
X141380795Y-72030615D01*
X141517184Y-72081745D01*
X141579366Y-72088500D01*
X144075634Y-72088500D01*
X144137816Y-72081745D01*
X144274205Y-72030615D01*
X144390761Y-71943261D01*
X144478115Y-71826705D01*
X144529245Y-71690316D01*
X144536000Y-71628134D01*
X164441500Y-71628134D01*
X164448255Y-71690316D01*
X164499385Y-71826705D01*
X164586739Y-71943261D01*
X164703295Y-72030615D01*
X164839684Y-72081745D01*
X164901866Y-72088500D01*
X167398134Y-72088500D01*
X167460316Y-72081745D01*
X167596705Y-72030615D01*
X167713261Y-71943261D01*
X167800615Y-71826705D01*
X167851745Y-71690316D01*
X167858500Y-71628134D01*
X167858500Y-69131866D01*
X167851745Y-69069684D01*
X167800615Y-68933295D01*
X167713261Y-68816739D01*
X167596705Y-68729385D01*
X167460316Y-68678255D01*
X167398134Y-68671500D01*
X164901866Y-68671500D01*
X164839684Y-68678255D01*
X164703295Y-68729385D01*
X164586739Y-68816739D01*
X164499385Y-68933295D01*
X164448255Y-69069684D01*
X164441500Y-69131866D01*
X164441500Y-71628134D01*
X144536000Y-71628134D01*
X144536000Y-69131866D01*
X144529245Y-69069684D01*
X144478115Y-68933295D01*
X144390761Y-68816739D01*
X144274205Y-68729385D01*
X144137816Y-68678255D01*
X144075634Y-68671500D01*
X141579366Y-68671500D01*
X141517184Y-68678255D01*
X141380795Y-68729385D01*
X141264239Y-68816739D01*
X141176885Y-68933295D01*
X141125755Y-69069684D01*
X141119000Y-69131866D01*
X141119000Y-71628134D01*
X121213500Y-71628134D01*
X121213500Y-69131866D01*
X121206745Y-69069684D01*
X121155615Y-68933295D01*
X121068261Y-68816739D01*
X120951705Y-68729385D01*
X120815316Y-68678255D01*
X120753134Y-68671500D01*
X118256866Y-68671500D01*
X118194684Y-68678255D01*
X118058295Y-68729385D01*
X117941739Y-68816739D01*
X117854385Y-68933295D01*
X117803255Y-69069684D01*
X117796500Y-69131866D01*
X117796500Y-71628134D01*
X98734782Y-71628134D01*
X98781833Y-71505562D01*
X98882438Y-71130099D01*
X98943246Y-70746176D01*
X98963589Y-70358000D01*
X98943246Y-69969824D01*
X98882438Y-69585901D01*
X98781833Y-69210438D01*
X98642532Y-68847547D01*
X98624093Y-68811358D01*
X98467561Y-68504147D01*
X98467557Y-68504140D01*
X98466062Y-68501206D01*
X98450673Y-68477508D01*
X98256152Y-68177971D01*
X98256152Y-68177970D01*
X98254357Y-68175207D01*
X98009734Y-67873124D01*
X97734876Y-67598266D01*
X97432793Y-67353643D01*
X97430029Y-67351848D01*
X97109564Y-67143736D01*
X97109561Y-67143734D01*
X97106795Y-67141938D01*
X97103861Y-67140443D01*
X97103854Y-67140439D01*
X96763393Y-66966966D01*
X96760453Y-66965468D01*
X96448614Y-66845764D01*
X96400652Y-66827353D01*
X96400650Y-66827352D01*
X96397562Y-66826167D01*
X96022099Y-66725562D01*
X95818207Y-66693268D01*
X95641424Y-66665268D01*
X95641416Y-66665267D01*
X95638176Y-66664754D01*
X95250000Y-66644411D01*
X94861824Y-66664754D01*
X94858584Y-66665267D01*
X94858576Y-66665268D01*
X94681793Y-66693268D01*
X94477901Y-66725562D01*
X94102438Y-66826167D01*
X94099350Y-66827352D01*
X94099348Y-66827353D01*
X94051386Y-66845764D01*
X93739547Y-66965468D01*
X93736607Y-66966966D01*
X93396147Y-67140439D01*
X93396140Y-67140443D01*
X93393206Y-67141938D01*
X93390440Y-67143734D01*
X93390437Y-67143736D01*
X93182576Y-67278722D01*
X93067207Y-67353643D01*
X92765124Y-67598266D01*
X92490266Y-67873124D01*
X92245643Y-68175207D01*
X92243848Y-68177970D01*
X92243848Y-68177971D01*
X92049328Y-68477508D01*
X92033938Y-68501206D01*
X92032443Y-68504140D01*
X92032439Y-68504147D01*
X91875907Y-68811358D01*
X91857468Y-68847547D01*
X91718167Y-69210438D01*
X91617562Y-69585901D01*
X91556754Y-69969824D01*
X91536411Y-70358000D01*
X91186498Y-70358000D01*
X91186498Y-68875887D01*
X91187998Y-68856502D01*
X91190308Y-68841669D01*
X91190308Y-68841665D01*
X91191689Y-68832796D01*
X91189336Y-68814801D01*
X91188470Y-68791402D01*
X91192129Y-68726233D01*
X91202068Y-68549243D01*
X91203649Y-68535208D01*
X91208927Y-68504147D01*
X91248980Y-68268400D01*
X91252124Y-68254625D01*
X91327043Y-67994568D01*
X91331710Y-67981231D01*
X91435274Y-67731201D01*
X91441405Y-67718470D01*
X91572311Y-67481611D01*
X91579828Y-67469647D01*
X91736437Y-67248925D01*
X91745247Y-67237878D01*
X91925578Y-67036085D01*
X91935569Y-67026094D01*
X92000892Y-66967717D01*
X92137358Y-66845762D01*
X92148403Y-66836953D01*
X92161933Y-66827353D01*
X92369137Y-66680334D01*
X92381086Y-66672827D01*
X92556704Y-66575765D01*
X92617949Y-66541916D01*
X92630679Y-66535786D01*
X92880714Y-66432216D01*
X92894046Y-66427550D01*
X93052406Y-66381927D01*
X93154104Y-66352629D01*
X93167879Y-66349485D01*
X93301283Y-66326818D01*
X93434692Y-66304150D01*
X93448726Y-66302569D01*
X93508241Y-66299227D01*
X93683470Y-66289387D01*
X93709915Y-66290688D01*
X93710850Y-66290834D01*
X93710853Y-66290834D01*
X93719722Y-66292215D01*
X93750838Y-66288146D01*
X93767343Y-66287084D01*
X183231086Y-66414813D01*
G37*
G04 #@! TD.AperFunction*
M02*
